<svg width="45" height="30" viewBox="0 0 45 30" fill="none" xmlns="http://www.w3.org/2000/svg">
<path d="M11 29.4C8.78667 29.4 6.90667 28.84 5.36 27.72C3.84 26.5733 2.68 24.92 1.88 22.76C1.10667 20.6 0.72 17.96 0.72 14.84C0.72 11.6933 1.10667 9.05333 1.88 6.92C2.68 4.76 3.84 3.13333 5.36 2.04C6.90667 0.946665 8.78667 0.399999 11 0.399999C13.24 0.399999 15.12 0.946665 16.64 2.04C18.1867 3.13333 19.3467 4.74667 20.12 6.88C20.8933 9.01333 21.28 11.6533 21.28 14.8C21.28 17.92 20.88 20.5733 20.08 22.76C19.3067 24.92 18.16 26.5733 16.64 27.72C15.12 28.84 13.24 29.4 11 29.4ZM11 25.2C12.8133 25.2 14.1467 24.3733 15 22.72C15.88 21.04 16.32 18.4 16.32 14.8C16.32 11.2267 15.88 8.64 15 7.04C14.1467 5.41333 12.8133 4.6 11 4.6C9.21333 4.6 7.88 5.41333 7 7.04C6.12 8.64 5.68 11.24 5.68 14.84C5.68 18.4133 6.12 21.04 7 22.72C7.88 24.3733 9.21333 25.2 11 25.2ZM34.4244 29.4C33.1444 29.4 31.891 29.2667 30.6644 29C29.4644 28.76 28.3444 28.4 27.3044 27.92C26.2644 27.44 25.3577 26.8667 24.5844 26.2L26.2644 22.28C27.5177 23.24 28.7977 23.9467 30.1044 24.4C31.411 24.8533 32.7977 25.08 34.2644 25.08C35.4377 25.08 36.4244 24.92 37.2244 24.6C38.0244 24.28 38.6244 23.8 39.0244 23.16C39.451 22.52 39.6644 21.7467 39.6644 20.84C39.6644 19.5067 39.211 18.52 38.3044 17.88C37.4244 17.2133 36.131 16.88 34.4244 16.88H29.9044V12.64H33.9444C34.9577 12.64 35.8244 12.48 36.5444 12.16C37.2644 11.8133 37.8244 11.3333 38.2244 10.72C38.6244 10.1067 38.8244 9.36 38.8244 8.48C38.8244 7.25333 38.411 6.32 37.5844 5.68C36.7844 5.04 35.611 4.72 34.0644 4.72C32.6777 4.72 31.3844 4.96 30.1844 5.44C28.9844 5.89333 27.8377 6.61333 26.7444 7.6L25.0644 3.76C26.1844 2.69333 27.5844 1.86667 29.2644 1.28C30.9444 0.693332 32.691 0.399999 34.5044 0.399999C36.451 0.399999 38.1177 0.706665 39.5044 1.32C40.891 1.90667 41.9444 2.76 42.6644 3.88C43.411 4.97333 43.7844 6.30667 43.7844 7.88C43.7844 9.56 43.3177 11.0133 42.3844 12.24C41.451 13.44 40.171 14.24 38.5444 14.64V14.16C39.8244 14.3733 40.9177 14.8 41.8244 15.44C42.731 16.08 43.4244 16.8933 43.9044 17.88C44.3844 18.8667 44.6244 20 44.6244 21.28C44.6244 22.9333 44.211 24.3733 43.3844 25.6C42.5577 26.8267 41.3844 27.7733 39.8644 28.44C38.3444 29.08 36.531 29.4 34.4244 29.4Z" fill="white"/>
</svg>
