<svg width="24" height="24" viewBox="0 0 24 24" fill="none" xmlns="http://www.w3.org/2000/svg">
<mask id="path-1-inside-1_264_412" fill="white">
<path d="M24 12C24 18.6274 18.6274 24 12 24C5.37258 24 0 18.6274 0 12C0 5.37258 5.37258 0 12 0C18.6274 0 24 5.37258 24 12ZM2.31547 12C2.31547 17.3486 6.65138 21.6845 12 21.6845C17.3486 21.6845 21.6845 17.3486 21.6845 12C21.6845 6.65138 17.3486 2.31547 12 2.31547C6.65138 2.31547 2.31547 6.65138 2.31547 12Z"/>
</mask>
<path d="M24 12C24 18.6274 18.6274 24 12 24C5.37258 24 0 18.6274 0 12C0 5.37258 5.37258 0 12 0C18.6274 0 24 5.37258 24 12ZM2.31547 12C2.31547 17.3486 6.65138 21.6845 12 21.6845C17.3486 21.6845 21.6845 17.3486 21.6845 12C21.6845 6.65138 17.3486 2.31547 12 2.31547C6.65138 2.31547 2.31547 6.65138 2.31547 12Z" stroke="#5E4E4E" stroke-width="3.09677" mask="url(#path-1-inside-1_264_412)"/>
<circle cx="11.9997" cy="11.9997" r="9.67742" fill="black"/>
<path d="M9.06491 15.277C8.56324 15.277 8.13898 15.15 7.79214 14.8961C7.45149 14.6359 7.19136 14.2581 7.01175 13.7626C6.83833 13.261 6.75162 12.6447 6.75162 11.9139C6.75162 11.183 6.83833 10.5699 7.01175 10.0744C7.19136 9.57271 7.45149 9.19491 7.79214 8.94097C8.13898 8.68704 8.56324 8.56007 9.06491 8.56007C9.57278 8.56007 9.99704 8.68704 10.3377 8.94097C10.6845 9.19491 10.9447 9.56962 11.1181 10.0651C11.2915 10.5606 11.3782 11.1737 11.3782 11.9046C11.3782 12.6354 11.2884 13.2517 11.1088 13.7534C10.9354 14.255 10.6752 14.6359 10.3284 14.8961C9.98775 15.15 9.56659 15.277 9.06491 15.277ZM9.06491 14.5709C9.57898 14.5709 9.95988 14.3572 10.2076 13.9299C10.4554 13.4963 10.5792 12.8212 10.5792 11.9046C10.5792 10.9941 10.4554 10.3283 10.2076 9.90717C9.95988 9.47981 9.57898 9.26613 9.06491 9.26613C8.55085 9.26613 8.16995 9.47981 7.9222 9.90717C7.67446 10.3345 7.55059 11.0034 7.55059 11.9139C7.55059 12.8181 7.67446 13.487 7.9222 13.9206C8.16995 14.3541 8.55085 14.5709 9.06491 14.5709ZM12.8889 15.1934L16.0941 8.97813L16.1219 9.35904H12.4523V8.64368H16.8094V9.24755L13.7715 15.1934H12.8889Z" fill="white"/>
</svg>
