<svg width="90" height="80" viewBox="0 0 90 80" fill="none" xmlns="http://www.w3.org/2000/svg">
<g filter="url(#filter0_d_264_303)">
<rect x="4" y="24.1143" width="81.8305" height="47.1557" rx="2" fill="white"/>
<rect x="4.25" y="24.3643" width="81.3305" height="46.6557" rx="1.75" stroke="white" stroke-width="0.5"/>
</g>
<rect x="29.3389" width="30.0847" height="30.228" rx="3" fill="#CB3335"/>
<g clip-path="url(#clip0_264_303)">
<path d="M52.0229 17.8293L49.3842 12.552H50.1125C50.2525 12.552 50.3867 12.4964 50.4857 12.3974C50.5847 12.2984 50.6403 12.1642 50.6403 12.0242C50.6403 11.8843 50.5847 11.75 50.4857 11.6511C50.3867 11.5521 50.2525 11.4965 50.1125 11.4965H49.2787C48.7117 10.8789 48.0286 10.3793 47.2683 10.0261C46.5079 9.67294 45.6854 9.4732 44.8478 9.43832L44.8352 9.38555C44.8352 9.10562 44.724 8.83716 44.526 8.63922C44.3281 8.44128 44.0596 8.33008 43.7797 8.33008C43.4998 8.33008 43.2313 8.44128 43.0334 8.63922C42.8354 8.83716 42.7242 9.10562 42.7242 9.38555V9.43832C41.0184 9.50925 39.4087 10.2472 38.2416 11.4933L37.4469 11.4965C37.3069 11.4965 37.1727 11.5521 37.0737 11.6511C36.9747 11.75 36.9191 11.8843 36.9191 12.0242C36.9191 12.1642 36.9747 12.2984 37.0737 12.3974C37.1727 12.4964 37.3069 12.552 37.4469 12.552H38.1752L35.5365 17.8293H35.3359C35.3359 18.9903 36.7503 19.9403 38.5023 19.9403C40.2544 19.9403 41.6688 18.9903 41.6688 17.8293H41.4682L38.7768 12.457C38.8435 12.4178 38.9008 12.3645 38.9446 12.3008C39.4114 11.7523 39.9888 11.3086 40.6391 10.999C41.2894 10.6895 41.9979 10.5209 42.7179 10.5043L42.7242 22.0512H41.6688V23.1067H39.5578V24.1621H48.0016V23.1067H45.8906V22.0512H44.8352V10.5043C45.5471 10.5178 46.2477 10.6844 46.8895 10.9927C47.5313 11.301 48.0992 11.7439 48.5546 12.2913C48.6034 12.374 48.6739 12.4419 48.7584 12.4876L46.0912 17.8293H45.8906C45.8906 18.9903 47.305 19.9403 49.0571 19.9403C50.8091 19.9403 52.2235 18.9903 52.2235 17.8293H52.0229ZM40.6133 17.8293H36.3914L38.5023 13.6708L40.6133 17.8293ZM46.9461 17.8293L49.0571 13.6708L51.168 17.8293H46.9461Z" fill="white"/>
</g>
<rect width="40" height="24.1143" transform="translate(25 36.1719)" fill="white"/>
<path d="M32.668 44.1719L30.86 38.5319H31.612L33.084 43.3159H33.012L34.652 38.5319H35.236L36.86 43.3159H36.804L38.292 38.5319H39.012L37.196 44.1719H36.516L34.924 39.5159H34.956L33.332 44.1719H32.668ZM41.5223 44.2439C41.0796 44.2439 40.6956 44.1639 40.3703 44.0039C40.0503 43.8385 39.8049 43.6039 39.6343 43.2999C39.4636 42.9905 39.3783 42.6225 39.3783 42.1959C39.3783 41.7959 39.4583 41.4439 39.6183 41.1399C39.7783 40.8305 40.0049 40.5879 40.2983 40.4119C40.5916 40.2359 40.9409 40.1479 41.3463 40.1479C41.7303 40.1479 42.0556 40.2305 42.3223 40.3959C42.5943 40.5612 42.7996 40.7932 42.9383 41.0919C43.0823 41.3905 43.1543 41.7452 43.1543 42.1559V42.3879H39.9143V41.8919H42.6903L42.5383 42.0519C42.5383 41.6145 42.4343 41.2785 42.2263 41.0439C42.0236 40.8092 41.7303 40.6919 41.3463 40.6919C41.0956 40.6919 40.8716 40.7505 40.6743 40.8679C40.4823 40.9799 40.3329 41.1399 40.2263 41.3479C40.1196 41.5559 40.0663 41.8092 40.0663 42.1079V42.1879C40.0663 42.5079 40.1249 42.7772 40.2423 42.9959C40.3596 43.2145 40.5276 43.3799 40.7463 43.4919C40.9649 43.6039 41.2263 43.6599 41.5303 43.6599C41.7489 43.6599 41.9703 43.6305 42.1943 43.5719C42.4236 43.5079 42.6369 43.3959 42.8343 43.2359L43.0743 43.7479C42.8716 43.9185 42.6289 44.0439 42.3463 44.1239C42.0689 44.2039 41.7943 44.2439 41.5223 44.2439ZM44.2492 39.2679V38.4759H45.1132V39.2679H44.2492ZM44.3292 44.1719V40.2199H45.0412V44.1719H44.3292ZM48.174 45.6839C47.8593 45.6839 47.5473 45.6359 47.238 45.5399C46.9287 45.4492 46.6647 45.3239 46.446 45.1639L46.67 44.6119C46.8193 44.7079 46.9767 44.7905 47.142 44.8599C47.3073 44.9345 47.4753 44.9879 47.646 45.0199C47.822 45.0572 47.9953 45.0759 48.166 45.0759C48.5767 45.0759 48.8967 44.9719 49.126 44.7639C49.3607 44.5559 49.478 44.2599 49.478 43.8759V43.1479H49.462C49.366 43.4199 49.1927 43.6412 48.942 43.8119C48.6913 43.9772 48.4007 44.0599 48.07 44.0599C47.6967 44.0599 47.3713 43.9799 47.094 43.8199C46.8167 43.6545 46.6007 43.4252 46.446 43.1319C46.2967 42.8385 46.222 42.4945 46.222 42.0999C46.222 41.7105 46.2967 41.3692 46.446 41.0759C46.6007 40.7825 46.8167 40.5559 47.094 40.3959C47.3713 40.2305 47.6967 40.1479 48.07 40.1479C48.4007 40.1479 48.6913 40.2332 48.942 40.4039C49.198 40.5745 49.374 40.8012 49.47 41.0839H49.478V40.2199H50.142V43.8119C50.142 44.1959 50.062 44.5265 49.902 44.8039C49.7473 45.0865 49.5233 45.3025 49.23 45.4519C48.9367 45.6065 48.5847 45.6839 48.174 45.6839ZM48.19 43.4759C48.5793 43.4759 48.886 43.3505 49.11 43.0999C49.3393 42.8492 49.454 42.5159 49.454 42.0999C49.454 41.6839 49.3393 41.3532 49.11 41.1079C48.886 40.8572 48.5793 40.7319 48.19 40.7319C47.806 40.7319 47.4993 40.8572 47.27 41.1079C47.046 41.3532 46.934 41.6839 46.934 42.0999C46.934 42.5159 47.046 42.8492 47.27 43.0999C47.4993 43.3505 47.806 43.4759 48.19 43.4759ZM51.5636 44.1719V38.5319H52.2516V41.0599C52.3689 40.7772 52.5529 40.5559 52.8036 40.3959C53.0596 40.2305 53.3476 40.1479 53.6676 40.1479C53.9929 40.1479 54.2649 40.2065 54.4836 40.3239C54.7022 40.4359 54.8649 40.6119 54.9716 40.8519C55.0836 41.0865 55.1396 41.3799 55.1396 41.7319V44.1719H54.4276V41.7719C54.4276 41.5585 54.3956 41.3772 54.3316 41.2279C54.2729 41.0785 54.1769 40.9639 54.0436 40.8839C53.9102 40.7985 53.7316 40.7559 53.5076 40.7559C53.2729 40.7559 53.0622 40.8092 52.8756 40.9159C52.6889 41.0225 52.5422 41.1665 52.4356 41.3479C52.3289 41.5292 52.2756 41.7319 52.2756 41.9559V44.1719H51.5636ZM58.2119 44.2439C57.7373 44.2439 57.3773 44.1185 57.1319 43.8679C56.8919 43.6172 56.7719 43.2599 56.7719 42.7959V40.8039H55.9719V40.2199H56.7959V39.0439H57.4839V40.2199H58.8999V40.8039H57.4839V42.7319C57.4839 43.0359 57.5506 43.2625 57.6839 43.4119C57.8226 43.5559 58.0333 43.6279 58.3159 43.6279C58.4279 43.6279 58.5346 43.6172 58.6359 43.5959C58.7426 43.5745 58.8439 43.5425 58.9399 43.4999L59.0519 44.0599C58.9453 44.1185 58.8146 44.1639 58.6599 44.1959C58.5106 44.2279 58.3613 44.2439 58.2119 44.2439Z" fill="#CE3439"/>
<path d="M26.9 57.2439C26.2707 57.2439 25.7747 57.1079 25.412 56.8359C25.0493 56.5585 24.868 56.1745 24.868 55.6839C24.868 55.4332 24.916 55.2119 25.012 55.0199C25.1133 54.8225 25.252 54.6625 25.428 54.5399C25.6093 54.4119 25.8173 54.3265 26.052 54.2839V54.2919C25.8493 54.2439 25.668 54.1559 25.508 54.0279C25.3533 53.8999 25.2307 53.7452 25.14 53.5639C25.0493 53.3825 25.004 53.1825 25.004 52.9639C25.004 52.4945 25.1747 52.1265 25.516 51.8599C25.8627 51.5932 26.324 51.4599 26.9 51.4599C27.476 51.4599 27.9347 51.5932 28.276 51.8599C28.6227 52.1265 28.796 52.4945 28.796 52.9639C28.796 53.1772 28.7507 53.3772 28.66 53.5639C28.5693 53.7452 28.444 53.8999 28.284 54.0279C28.1293 54.1559 27.948 54.2439 27.74 54.2919V54.2839C27.9693 54.3212 28.172 54.4039 28.348 54.5319C28.5293 54.6599 28.6707 54.8225 28.772 55.0199C28.8787 55.2119 28.932 55.4332 28.932 55.6839C28.932 56.1745 28.7507 56.5585 28.388 56.8359C28.0307 57.1079 27.5347 57.2439 26.9 57.2439ZM26.9 56.6439C27.3427 56.6439 27.6787 56.5585 27.908 56.3879C28.1427 56.2172 28.26 55.9665 28.26 55.6359C28.26 55.3052 28.1427 55.0519 27.908 54.8759C27.6787 54.6999 27.3427 54.6119 26.9 54.6119C26.4573 54.6119 26.1187 54.6999 25.884 54.8759C25.6547 55.0519 25.54 55.3052 25.54 55.6359C25.54 55.9665 25.6547 56.2172 25.884 56.3879C26.1187 56.5585 26.4573 56.6439 26.9 56.6439ZM26.9 54.0119C27.284 54.0119 27.5853 53.9265 27.804 53.7559C28.0227 53.5799 28.132 53.3372 28.132 53.0279C28.132 52.7239 28.0227 52.4865 27.804 52.3159C27.5853 52.1399 27.284 52.0519 26.9 52.0519C26.5213 52.0519 26.2227 52.1399 26.004 52.3159C25.7853 52.4865 25.676 52.7239 25.676 53.0279C25.676 53.3372 25.7853 53.5799 26.004 53.7559C26.2227 53.9265 26.5213 54.0119 26.9 54.0119ZM29.8729 57.1719V56.2919H30.7849V57.1719H29.8729ZM33.4074 57.2439C33.1994 57.2439 32.9967 57.2199 32.7994 57.1719C32.6074 57.1239 32.4234 57.0519 32.2474 56.9559C32.0767 56.8545 31.9167 56.7319 31.7674 56.5879L32.0394 56.0439C32.258 56.2625 32.4794 56.4145 32.7034 56.4999C32.9274 56.5799 33.1647 56.6199 33.4154 56.6199C33.6767 56.6199 33.906 56.5719 34.1034 56.4759C34.306 56.3745 34.4767 56.2279 34.6154 56.0359C34.754 55.8385 34.858 55.5959 34.9274 55.3079C34.9967 55.0199 35.0314 54.6892 35.0314 54.3159V53.8519H35.0234C34.9807 54.1025 34.8847 54.3212 34.7354 54.5079C34.5914 54.6892 34.4127 54.8279 34.1994 54.9239C33.986 55.0199 33.7514 55.0679 33.4954 55.0679C33.1594 55.0679 32.8607 54.9932 32.5994 54.8439C32.338 54.6945 32.1327 54.4865 31.9834 54.2199C31.8394 53.9532 31.7674 53.6439 31.7674 53.2919C31.7674 52.9399 31.8447 52.6252 31.9994 52.3479C32.154 52.0705 32.3674 51.8545 32.6394 51.6999C32.9114 51.5399 33.2234 51.4599 33.5754 51.4599C34.034 51.4599 34.4207 51.5692 34.7354 51.7879C35.05 52.0012 35.2874 52.3132 35.4474 52.7239C35.6074 53.1345 35.6874 53.6359 35.6874 54.2279C35.6874 54.8679 35.5967 55.4145 35.4154 55.8679C35.234 56.3159 34.9727 56.6572 34.6314 56.8919C34.2954 57.1265 33.8874 57.2439 33.4074 57.2439ZM33.6154 54.4759C33.85 54.4759 34.058 54.4252 34.2394 54.3239C34.4207 54.2225 34.562 54.0812 34.6634 53.8999C34.7647 53.7185 34.8154 53.5105 34.8154 53.2759C34.8154 53.0305 34.7647 52.8172 34.6634 52.6359C34.5674 52.4545 34.4287 52.3159 34.2474 52.2199C34.066 52.1185 33.8527 52.0679 33.6074 52.0679C33.3727 52.0679 33.1674 52.1185 32.9914 52.2199C32.8154 52.3212 32.6767 52.4625 32.5754 52.6439C32.4794 52.8252 32.4314 53.0359 32.4314 53.2759C32.4314 53.5105 32.482 53.7185 32.5834 53.8999C32.6847 54.0812 32.8234 54.2225 32.9994 54.3239C33.1754 54.4252 33.3807 54.4759 33.6154 54.4759ZM38.4763 57.2439C38.2416 57.2439 38.0096 57.2199 37.7803 57.1719C37.5509 57.1239 37.3323 57.0492 37.1243 56.9479C36.9216 56.8465 36.7349 56.7212 36.5643 56.5719L36.8363 56.0119C37.0923 56.2305 37.3589 56.3879 37.6363 56.4839C37.9136 56.5745 38.1936 56.6199 38.4763 56.6199C38.7109 56.6199 38.9216 56.5852 39.1083 56.5159C39.3003 56.4412 39.4496 56.3319 39.5563 56.1879C39.6683 56.0385 39.7243 55.8465 39.7243 55.6119C39.7243 55.2865 39.6149 55.0412 39.3963 54.8759C39.1776 54.7052 38.8603 54.6199 38.4443 54.6199H37.5963V54.0039H38.3403C38.5803 54.0039 38.7936 53.9665 38.9803 53.8919C39.1723 53.8119 39.3216 53.6945 39.4283 53.5399C39.5349 53.3852 39.5883 53.1932 39.5883 52.9639C39.5883 52.6705 39.4869 52.4519 39.2843 52.3079C39.0816 52.1585 38.8203 52.0839 38.5003 52.0839C38.2176 52.0839 37.9403 52.1319 37.6683 52.2279C37.4016 52.3239 37.1563 52.4892 36.9323 52.7239L36.6683 52.1719C36.8923 51.9319 37.1696 51.7532 37.5003 51.6359C37.8309 51.5185 38.1749 51.4599 38.5323 51.4599C38.8896 51.4599 39.1963 51.5185 39.4523 51.6359C39.7136 51.7479 39.9163 51.9132 40.0603 52.1319C40.2043 52.3452 40.2763 52.6039 40.2763 52.9079C40.2763 53.2279 40.1856 53.5105 40.0043 53.7559C39.8229 54.0012 39.5776 54.1745 39.2683 54.2759V54.2679C39.4923 54.3105 39.6896 54.3932 39.8603 54.5159C40.0309 54.6332 40.1669 54.7879 40.2682 54.9799C40.3696 55.1665 40.4203 55.3879 40.4203 55.6439C40.4203 55.9799 40.3376 56.2679 40.1723 56.5079C40.0123 56.7479 39.7856 56.9319 39.4923 57.0599C39.2043 57.1825 38.8656 57.2439 38.4763 57.2439ZM45.0755 58.7079C44.6968 58.1319 44.4168 57.5452 44.2355 56.9479C44.0595 56.3452 43.9715 55.7185 43.9715 55.0679C43.9715 54.4172 44.0595 53.7932 44.2355 53.1959C44.4168 52.5985 44.6968 52.0092 45.0755 51.4279L45.5875 51.6119C45.3848 51.9905 45.2168 52.3719 45.0835 52.7559C44.9502 53.1399 44.8488 53.5239 44.7795 53.9079C44.7155 54.2865 44.6835 54.6732 44.6835 55.0679C44.6835 55.4572 44.7155 55.8439 44.7795 56.2279C44.8488 56.6119 44.9502 56.9932 45.0835 57.3719C45.2168 57.7559 45.3848 58.1399 45.5875 58.5239L45.0755 58.7079ZM49.1967 57.2439C48.61 57.2439 48.1087 57.1292 47.6927 56.8999C47.2767 56.6705 46.9567 56.3425 46.7327 55.9159C46.514 55.4839 46.4047 54.9612 46.4047 54.3479C46.4047 53.7452 46.5114 53.2305 46.7247 52.8039C46.9434 52.3719 47.2554 52.0412 47.6607 51.8119C48.066 51.5772 48.5514 51.4599 49.1167 51.4599C49.394 51.4599 49.658 51.4865 49.9087 51.5399C50.1594 51.5932 50.3914 51.6732 50.6047 51.7799C50.818 51.8812 50.9994 52.0092 51.1487 52.1639L50.8767 52.7159C50.626 52.4972 50.3567 52.3425 50.0687 52.2519C49.7807 52.1559 49.4607 52.1079 49.1087 52.1079C48.49 52.1079 48.0074 52.2999 47.6607 52.6839C47.3194 53.0625 47.1487 53.6172 47.1487 54.3479C47.1487 55.1052 47.3247 55.6732 47.6767 56.0519C48.034 56.4252 48.5514 56.6119 49.2287 56.6119C49.5274 56.6119 49.8047 56.5879 50.0607 56.5399C50.322 56.4919 50.5594 56.4225 50.7727 56.3319L50.5647 56.7479V54.7879H49.1567V54.1799H51.2127V56.8439C51.0634 56.9185 50.8767 56.9879 50.6527 57.0519C50.4287 57.1105 50.1914 57.1559 49.9407 57.1879C49.69 57.2252 49.442 57.2439 49.1967 57.2439ZM52.6886 57.1719V53.2199H53.3366V54.1319H53.3446C53.4406 53.8385 53.6086 53.6092 53.8486 53.4439C54.0886 53.2732 54.3819 53.1772 54.7286 53.1559L55.0886 53.1399L55.1526 53.7879L54.5766 53.8359C54.2086 53.8679 53.9206 53.9905 53.7126 54.2039C53.5046 54.4119 53.4006 54.6732 53.4006 54.9879V57.1719H52.6886ZM56.0483 57.1719V53.2199H56.7043V54.0839C56.7736 53.9079 56.8696 53.7505 56.9923 53.6119C57.1203 53.4679 57.2723 53.3559 57.4483 53.2759C57.6296 53.1905 57.827 53.1479 58.0403 53.1479C58.387 53.1479 58.6723 53.2332 58.8963 53.4039C59.1203 53.5745 59.259 53.7985 59.3123 54.0759H59.3043C59.411 53.8145 59.579 53.5959 59.8083 53.4199C60.043 53.2385 60.3363 53.1479 60.6883 53.1479C60.987 53.1479 61.2403 53.2065 61.4483 53.3239C61.6563 53.4359 61.8136 53.6092 61.9203 53.8439C62.027 54.0785 62.0803 54.3745 62.0803 54.7319V57.1719H61.3763V54.7799C61.3763 54.4385 61.315 54.1825 61.1923 54.0119C61.0696 53.8412 60.851 53.7559 60.5363 53.7559C60.3016 53.7559 60.099 53.8092 59.9283 53.9159C59.763 54.0172 59.635 54.1612 59.5443 54.3479C59.459 54.5292 59.4163 54.7345 59.4163 54.9639V57.1719H58.7123V54.7799C58.7123 54.4439 58.643 54.1905 58.5043 54.0199C58.3656 53.8439 58.155 53.7559 57.8723 53.7559C57.643 53.7559 57.443 53.8145 57.2723 53.9319C57.107 54.0439 56.979 54.1905 56.8883 54.3719C56.7976 54.5532 56.7523 54.7452 56.7523 54.9479V57.1719H56.0483ZM63.6049 58.7079L63.0849 58.5239C63.2929 58.1345 63.4635 57.7479 63.5969 57.3639C63.7302 56.9852 63.8289 56.6065 63.8929 56.2279C63.9569 55.8439 63.9889 55.4572 63.9889 55.0679C63.9889 54.6785 63.9569 54.2945 63.8929 53.9159C63.8289 53.5319 63.7302 53.1479 63.5969 52.7639C63.4635 52.3799 63.2929 51.9959 63.0849 51.6119L63.6049 51.4279C63.9782 52.0039 64.2529 52.5932 64.4289 53.1959C64.6102 53.7932 64.7009 54.4172 64.7009 55.0679C64.7009 55.7132 64.6102 56.3372 64.4289 56.9399C64.2529 57.5372 63.9782 58.1265 63.6049 58.7079Z" fill="black"/>
<defs>
<filter id="filter0_d_264_303" x="0.0999999" y="24.1143" width="89.6301" height="55.0553" filterUnits="userSpaceOnUse" color-interpolation-filters="sRGB">
<feFlood flood-opacity="0" result="BackgroundImageFix"/>
<feColorMatrix in="SourceAlpha" type="matrix" values="0 0 0 0 0 0 0 0 0 0 0 0 0 0 0 0 0 0 127 0" result="hardAlpha"/>
<feOffset dy="4"/>
<feGaussianBlur stdDeviation="1.95"/>
<feComposite in2="hardAlpha" operator="out"/>
<feColorMatrix type="matrix" values="0 0 0 0 0 0 0 0 0 0 0 0 0 0 0 0 0 0 0.2 0"/>
<feBlend mode="normal" in2="BackgroundImageFix" result="effect1_dropShadow_264_303"/>
<feBlend mode="normal" in="SourceGraphic" in2="effect1_dropShadow_264_303" result="shape"/>
</filter>
<clipPath id="clip0_264_303">
<rect width="16.8875" height="16.8875" fill="white" transform="translate(35.3359 7.27441)"/>
</clipPath>
</defs>
</svg>
