<svg width="180" height="18" viewBox="0 0 180 18" fill="none" xmlns="http://www.w3.org/2000/svg">
<path d="M2.646 14V2.48L3.906 3.74H0.126V1.4H5.562V14H2.646ZM7.64283 14V12.11L12.5028 7.52C12.8868 7.172 13.1688 6.86 13.3488 6.584C13.5288 6.308 13.6488 6.056 13.7088 5.828C13.7808 5.6 13.8168 5.39 13.8168 5.198C13.8168 4.694 13.6428 4.31 13.2948 4.046C12.9588 3.77 12.4608 3.632 11.8008 3.632C11.2728 3.632 10.7808 3.734 10.3248 3.938C9.88083 4.142 9.50283 4.46 9.19083 4.892L7.06683 3.524C7.54683 2.804 8.21883 2.234 9.08283 1.814C9.94683 1.394 10.9428 1.184 12.0708 1.184C13.0068 1.184 13.8228 1.34 14.5188 1.652C15.2268 1.952 15.7728 2.378 16.1568 2.93C16.5528 3.482 16.7508 4.142 16.7508 4.91C16.7508 5.318 16.6968 5.726 16.5888 6.134C16.4928 6.53 16.2888 6.95 15.9768 7.394C15.6768 7.838 15.2328 8.336 14.6448 8.888L10.6128 12.686L10.0548 11.624H17.1648V14H7.64283ZM23.768 14.216C22.736 14.216 21.812 13.964 20.996 13.46C20.18 12.944 19.538 12.2 19.07 11.228C18.602 10.256 18.368 9.08 18.368 7.7C18.368 6.32 18.602 5.144 19.07 4.172C19.538 3.2 20.18 2.462 20.996 1.958C21.812 1.442 22.736 1.184 23.768 1.184C24.812 1.184 25.736 1.442 26.54 1.958C27.356 2.462 27.998 3.2 28.466 4.172C28.934 5.144 29.168 6.32 29.168 7.7C29.168 9.08 28.934 10.256 28.466 11.228C27.998 12.2 27.356 12.944 26.54 13.46C25.736 13.964 24.812 14.216 23.768 14.216ZM23.768 11.75C24.26 11.75 24.686 11.612 25.046 11.336C25.418 11.06 25.706 10.622 25.91 10.022C26.126 9.422 26.234 8.648 26.234 7.7C26.234 6.752 26.126 5.978 25.91 5.378C25.706 4.778 25.418 4.34 25.046 4.064C24.686 3.788 24.26 3.65 23.768 3.65C23.288 3.65 22.862 3.788 22.49 4.064C22.13 4.34 21.842 4.778 21.626 5.378C21.422 5.978 21.32 6.752 21.32 7.7C21.32 8.648 21.422 9.422 21.626 10.022C21.842 10.622 22.13 11.06 22.49 11.336C22.862 11.612 23.288 11.75 23.768 11.75ZM43.5808 4.172C44.3488 4.172 45.0268 4.328 45.6148 4.64C46.2148 4.94 46.6828 5.408 47.0188 6.044C47.3668 6.668 47.5408 7.472 47.5408 8.456V14H44.7328V8.888C44.7328 8.108 44.5708 7.532 44.2468 7.16C43.9228 6.788 43.4668 6.602 42.8788 6.602C42.4708 6.602 42.1048 6.698 41.7808 6.89C41.4568 7.07 41.2048 7.346 41.0248 7.718C40.8448 8.09 40.7548 8.564 40.7548 9.14V14H37.9468V8.888C37.9468 8.108 37.7848 7.532 37.4608 7.16C37.1488 6.788 36.6988 6.602 36.1108 6.602C35.7028 6.602 35.3368 6.698 35.0128 6.89C34.6888 7.07 34.4368 7.346 34.2568 7.718C34.0768 8.09 33.9868 8.564 33.9868 9.14V14H31.1788V4.316H33.8608V6.962L33.3568 6.188C33.6928 5.528 34.1668 5.03 34.7788 4.694C35.4028 4.346 36.1108 4.172 36.9028 4.172C37.7908 4.172 38.5648 4.4 39.2248 4.856C39.8968 5.3 40.3408 5.984 40.5568 6.908L39.5668 6.638C39.8908 5.882 40.4068 5.282 41.1148 4.838C41.8348 4.394 42.6568 4.172 43.5808 4.172ZM50.0577 14V0.643999H52.8657V14H50.0577ZM65.8651 14V1.4H71.5891C72.9571 1.4 74.1631 1.664 75.2071 2.192C76.2511 2.708 77.0671 3.434 77.6551 4.37C78.2431 5.306 78.5371 6.416 78.5371 7.7C78.5371 8.972 78.2431 10.082 77.6551 11.03C77.0671 11.966 76.2511 12.698 75.2071 13.226C74.1631 13.742 72.9571 14 71.5891 14H65.8651ZM68.7811 11.606H71.4451C72.2851 11.606 73.0111 11.45 73.6231 11.138C74.2471 10.814 74.7271 10.358 75.0631 9.77C75.4111 9.182 75.5851 8.492 75.5851 7.7C75.5851 6.896 75.4111 6.206 75.0631 5.63C74.7271 5.042 74.2471 4.592 73.6231 4.28C73.0111 3.956 72.2851 3.794 71.4451 3.794H68.7811V11.606ZM85.3442 14.144C84.2402 14.144 83.2682 13.928 82.4282 13.496C81.6002 13.064 80.9582 12.476 80.5022 11.732C80.0462 10.976 79.8182 10.118 79.8182 9.158C79.8182 8.186 80.0402 7.328 80.4842 6.584C80.9402 5.828 81.5582 5.24 82.3382 4.82C83.1182 4.388 84.0002 4.172 84.9842 4.172C85.9322 4.172 86.7842 4.376 87.5402 4.784C88.3082 5.18 88.9142 5.756 89.3582 6.512C89.8022 7.256 90.0242 8.15 90.0242 9.194C90.0242 9.302 90.0182 9.428 90.0062 9.572C89.9942 9.704 89.9822 9.83 89.9702 9.95H82.1042V8.312H88.4942L87.4142 8.798C87.4142 8.294 87.3122 7.856 87.1082 7.484C86.9042 7.112 86.6222 6.824 86.2622 6.62C85.9022 6.404 85.4822 6.296 85.0022 6.296C84.5222 6.296 84.0962 6.404 83.7242 6.62C83.3642 6.824 83.0822 7.118 82.8782 7.502C82.6742 7.874 82.5722 8.318 82.5722 8.834V9.266C82.5722 9.794 82.6862 10.262 82.9142 10.67C83.1542 11.066 83.4842 11.372 83.9042 11.588C84.3362 11.792 84.8402 11.894 85.4162 11.894C85.9322 11.894 86.3822 11.816 86.7662 11.66C87.1622 11.504 87.5222 11.27 87.8462 10.958L89.3402 12.578C88.8962 13.082 88.3382 13.472 87.6662 13.748C86.9942 14.012 86.2202 14.144 85.3442 14.144ZM95.1517 14.144C94.3237 14.144 93.5257 14.048 92.7577 13.856C92.0017 13.652 91.4017 13.4 90.9577 13.1L91.8937 11.084C92.3377 11.36 92.8597 11.588 93.4597 11.768C94.0717 11.936 94.6717 12.02 95.2597 12.02C95.9077 12.02 96.3637 11.942 96.6277 11.786C96.9037 11.63 97.0417 11.414 97.0417 11.138C97.0417 10.91 96.9337 10.742 96.7177 10.634C96.5137 10.514 96.2377 10.424 95.8897 10.364C95.5417 10.304 95.1577 10.244 94.7377 10.184C94.3297 10.124 93.9157 10.046 93.4957 9.95C93.0757 9.842 92.6917 9.686 92.3437 9.482C91.9957 9.278 91.7137 9.002 91.4977 8.654C91.2937 8.306 91.1917 7.856 91.1917 7.304C91.1917 6.692 91.3657 6.152 91.7137 5.684C92.0737 5.216 92.5897 4.85 93.2617 4.586C93.9337 4.31 94.7377 4.172 95.6737 4.172C96.3337 4.172 97.0057 4.244 97.6897 4.388C98.3737 4.532 98.9437 4.742 99.3997 5.018L98.4637 7.016C97.9957 6.74 97.5217 6.554 97.0417 6.458C96.5737 6.35 96.1177 6.296 95.6737 6.296C95.0497 6.296 94.5937 6.38 94.3057 6.548C94.0177 6.716 93.8737 6.932 93.8737 7.196C93.8737 7.436 93.9757 7.616 94.1797 7.736C94.3957 7.856 94.6777 7.952 95.0257 8.024C95.3737 8.096 95.7517 8.162 96.1597 8.222C96.5797 8.27 96.9997 8.348 97.4197 8.456C97.8397 8.564 98.2177 8.72 98.5537 8.924C98.9017 9.116 99.1837 9.386 99.3997 9.734C99.6157 10.07 99.7237 10.514 99.7237 11.066C99.7237 11.666 99.5437 12.2 99.1837 12.668C98.8237 13.124 98.3017 13.484 97.6177 13.748C96.9457 14.012 96.1237 14.144 95.1517 14.144ZM104.714 14.144C103.886 14.144 103.088 14.048 102.32 13.856C101.564 13.652 100.964 13.4 100.52 13.1L101.456 11.084C101.9 11.36 102.422 11.588 103.022 11.768C103.634 11.936 104.234 12.02 104.822 12.02C105.47 12.02 105.926 11.942 106.19 11.786C106.466 11.63 106.604 11.414 106.604 11.138C106.604 10.91 106.496 10.742 106.28 10.634C106.076 10.514 105.8 10.424 105.452 10.364C105.104 10.304 104.72 10.244 104.3 10.184C103.892 10.124 103.478 10.046 103.058 9.95C102.638 9.842 102.254 9.686 101.906 9.482C101.558 9.278 101.276 9.002 101.06 8.654C100.856 8.306 100.754 7.856 100.754 7.304C100.754 6.692 100.928 6.152 101.276 5.684C101.636 5.216 102.152 4.85 102.824 4.586C103.496 4.31 104.3 4.172 105.236 4.172C105.896 4.172 106.568 4.244 107.252 4.388C107.936 4.532 108.506 4.742 108.962 5.018L108.026 7.016C107.558 6.74 107.084 6.554 106.604 6.458C106.136 6.35 105.68 6.296 105.236 6.296C104.612 6.296 104.156 6.38 103.868 6.548C103.58 6.716 103.436 6.932 103.436 7.196C103.436 7.436 103.538 7.616 103.742 7.736C103.958 7.856 104.24 7.952 104.588 8.024C104.936 8.096 105.314 8.162 105.722 8.222C106.142 8.27 106.562 8.348 106.982 8.456C107.402 8.564 107.78 8.72 108.116 8.924C108.464 9.116 108.746 9.386 108.962 9.734C109.178 10.07 109.286 10.514 109.286 11.066C109.286 11.666 109.106 12.2 108.746 12.668C108.386 13.124 107.864 13.484 107.18 13.748C106.508 14.012 105.686 14.144 104.714 14.144ZM115.825 14.144C114.721 14.144 113.749 13.928 112.909 13.496C112.081 13.064 111.439 12.476 110.983 11.732C110.527 10.976 110.299 10.118 110.299 9.158C110.299 8.186 110.521 7.328 110.965 6.584C111.421 5.828 112.039 5.24 112.819 4.82C113.599 4.388 114.481 4.172 115.465 4.172C116.413 4.172 117.265 4.376 118.021 4.784C118.789 5.18 119.395 5.756 119.839 6.512C120.283 7.256 120.505 8.15 120.505 9.194C120.505 9.302 120.499 9.428 120.487 9.572C120.475 9.704 120.463 9.83 120.451 9.95H112.585V8.312H118.975L117.895 8.798C117.895 8.294 117.793 7.856 117.589 7.484C117.385 7.112 117.103 6.824 116.743 6.62C116.383 6.404 115.963 6.296 115.483 6.296C115.003 6.296 114.577 6.404 114.205 6.62C113.845 6.824 113.563 7.118 113.359 7.502C113.155 7.874 113.053 8.318 113.053 8.834V9.266C113.053 9.794 113.167 10.262 113.395 10.67C113.635 11.066 113.965 11.372 114.385 11.588C114.817 11.792 115.321 11.894 115.897 11.894C116.413 11.894 116.863 11.816 117.247 11.66C117.643 11.504 118.003 11.27 118.327 10.958L119.821 12.578C119.377 13.082 118.819 13.472 118.147 13.748C117.475 14.012 116.701 14.144 115.825 14.144ZM122.374 14V4.316H125.056V7.052L124.678 6.26C124.966 5.576 125.428 5.06 126.064 4.712C126.7 4.352 127.474 4.172 128.386 4.172V6.764C128.266 6.752 128.158 6.746 128.062 6.746C127.966 6.734 127.864 6.728 127.756 6.728C126.988 6.728 126.364 6.95 125.884 7.394C125.416 7.826 125.182 8.504 125.182 9.428V14H122.374ZM134.35 14.144C133.21 14.144 132.322 13.856 131.686 13.28C131.05 12.692 130.732 11.822 130.732 10.67V2.174H133.54V10.634C133.54 11.042 133.648 11.36 133.864 11.588C134.08 11.804 134.374 11.912 134.746 11.912C135.19 11.912 135.568 11.792 135.88 11.552L136.636 13.532C136.348 13.736 136 13.892 135.592 14C135.196 14.096 134.782 14.144 134.35 14.144ZM129.238 6.692V4.532H135.952V6.692H129.238ZM149.538 14.216C148.566 14.216 147.66 14.06 146.82 13.748C145.992 13.424 145.272 12.968 144.66 12.38C144.048 11.792 143.568 11.102 143.22 10.31C142.884 9.518 142.716 8.648 142.716 7.7C142.716 6.752 142.884 5.882 143.22 5.09C143.568 4.298 144.048 3.608 144.66 3.02C145.284 2.432 146.01 1.982 146.838 1.67C147.666 1.346 148.572 1.184 149.556 1.184C150.648 1.184 151.632 1.376 152.508 1.76C153.396 2.132 154.14 2.684 154.74 3.416L152.868 5.144C152.436 4.652 151.956 4.286 151.428 4.046C150.9 3.794 150.324 3.668 149.7 3.668C149.112 3.668 148.572 3.764 148.08 3.956C147.588 4.148 147.162 4.424 146.802 4.784C146.442 5.144 146.16 5.57 145.956 6.062C145.764 6.554 145.668 7.1 145.668 7.7C145.668 8.3 145.764 8.846 145.956 9.338C146.16 9.83 146.442 10.256 146.802 10.616C147.162 10.976 147.588 11.252 148.08 11.444C148.572 11.636 149.112 11.732 149.7 11.732C150.324 11.732 150.9 11.612 151.428 11.372C151.956 11.12 152.436 10.742 152.868 10.238L154.74 11.966C154.14 12.698 153.396 13.256 152.508 13.64C151.632 14.024 150.642 14.216 149.538 14.216ZM160.351 14.144C159.547 14.144 158.827 13.988 158.191 13.676C157.567 13.364 157.081 12.89 156.733 12.254C156.385 11.606 156.211 10.784 156.211 9.788V4.316H159.019V9.374C159.019 10.178 159.187 10.772 159.523 11.156C159.871 11.528 160.357 11.714 160.981 11.714C161.413 11.714 161.797 11.624 162.133 11.444C162.469 11.252 162.733 10.964 162.925 10.58C163.117 10.184 163.213 9.692 163.213 9.104V4.316H166.021V14H163.357V11.336L163.843 12.11C163.519 12.782 163.039 13.292 162.403 13.64C161.779 13.976 161.095 14.144 160.351 14.144ZM174.346 14.144C173.53 14.144 172.816 13.964 172.204 13.604C171.592 13.244 171.112 12.698 170.764 11.966C170.428 11.222 170.26 10.286 170.26 9.158C170.26 8.018 170.422 7.082 170.746 6.35C171.07 5.618 171.538 5.072 172.15 4.712C172.762 4.352 173.494 4.172 174.346 4.172C175.258 4.172 176.074 4.382 176.794 4.802C177.526 5.21 178.102 5.786 178.522 6.53C178.954 7.274 179.17 8.15 179.17 9.158C179.17 10.178 178.954 11.06 178.522 11.804C178.102 12.548 177.526 13.124 176.794 13.532C176.074 13.94 175.258 14.144 174.346 14.144ZM168.622 17.492V4.316H171.304V6.296L171.25 9.176L171.43 12.038V17.492H168.622ZM173.86 11.84C174.328 11.84 174.742 11.732 175.102 11.516C175.474 11.3 175.768 10.994 175.984 10.598C176.212 10.19 176.326 9.71 176.326 9.158C176.326 8.594 176.212 8.114 175.984 7.718C175.768 7.322 175.474 7.016 175.102 6.8C174.742 6.584 174.328 6.476 173.86 6.476C173.392 6.476 172.972 6.584 172.6 6.8C172.228 7.016 171.934 7.322 171.718 7.718C171.502 8.114 171.394 8.594 171.394 9.158C171.394 9.71 171.502 10.19 171.718 10.598C171.934 10.994 172.228 11.3 172.6 11.516C172.972 11.732 173.392 11.84 173.86 11.84Z" fill="#CE3439"/>
</svg>
