<svg width="239" height="16" viewBox="0 0 239 16" fill="none" xmlns="http://www.w3.org/2000/svg">
<path d="M0.594 15V13.11L5.454 8.52C5.838 8.172 6.12 7.86 6.3 7.584C6.48 7.308 6.6 7.056 6.66 6.828C6.732 6.6 6.768 6.39 6.768 6.198C6.768 5.694 6.594 5.31 6.246 5.046C5.91 4.77 5.412 4.632 4.752 4.632C4.224 4.632 3.732 4.734 3.276 4.938C2.832 5.142 2.454 5.46 2.142 5.892L0.018 4.524C0.498 3.804 1.17 3.234 2.034 2.814C2.898 2.394 3.894 2.184 5.022 2.184C5.958 2.184 6.774 2.34 7.47 2.652C8.178 2.952 8.724 3.378 9.108 3.93C9.504 4.482 9.702 5.142 9.702 5.91C9.702 6.318 9.648 6.726 9.54 7.134C9.444 7.53 9.24 7.95 8.928 8.394C8.628 8.838 8.184 9.336 7.596 9.888L3.564 13.686L3.006 12.624H10.116V15H0.594ZM15.6032 15.216C14.7272 15.216 13.8572 15.102 12.9932 14.874C12.1412 14.634 11.4092 14.298 10.7972 13.866L11.9492 11.634C12.4292 11.982 12.9812 12.258 13.6052 12.462C14.2412 12.666 14.8832 12.768 15.5312 12.768C16.2632 12.768 16.8392 12.624 17.2592 12.336C17.6792 12.048 17.8892 11.646 17.8892 11.13C17.8892 10.806 17.8052 10.518 17.6372 10.266C17.4692 10.014 17.1692 9.822 16.7372 9.69C16.3172 9.558 15.7232 9.492 14.9552 9.492H11.7332L12.3812 2.4H20.0672V4.74H13.4252L14.9372 3.408L14.4872 8.466L12.9752 7.134H15.6392C16.8872 7.134 17.8892 7.308 18.6452 7.656C19.4132 7.992 19.9712 8.454 20.3192 9.042C20.6672 9.63 20.8412 10.296 20.8412 11.04C20.8412 11.784 20.6552 12.474 20.2832 13.11C19.9112 13.734 19.3352 14.244 18.5552 14.64C17.7872 15.024 16.8032 15.216 15.6032 15.216ZM27.4243 15.216C26.3923 15.216 25.4683 14.964 24.6523 14.46C23.8363 13.944 23.1943 13.2 22.7263 12.228C22.2583 11.256 22.0243 10.08 22.0243 8.7C22.0243 7.32 22.2583 6.144 22.7263 5.172C23.1943 4.2 23.8363 3.462 24.6523 2.958C25.4683 2.442 26.3923 2.184 27.4243 2.184C28.4683 2.184 29.3923 2.442 30.1963 2.958C31.0123 3.462 31.6543 4.2 32.1223 5.172C32.5903 6.144 32.8243 7.32 32.8243 8.7C32.8243 10.08 32.5903 11.256 32.1223 12.228C31.6543 13.2 31.0123 13.944 30.1963 14.46C29.3923 14.964 28.4683 15.216 27.4243 15.216ZM27.4243 12.75C27.9163 12.75 28.3423 12.612 28.7023 12.336C29.0743 12.06 29.3623 11.622 29.5663 11.022C29.7823 10.422 29.8903 9.648 29.8903 8.7C29.8903 7.752 29.7823 6.978 29.5663 6.378C29.3623 5.778 29.0743 5.34 28.7023 5.064C28.3423 4.788 27.9163 4.65 27.4243 4.65C26.9443 4.65 26.5183 4.788 26.1463 5.064C25.7863 5.34 25.4983 5.778 25.2823 6.378C25.0783 6.978 24.9763 7.752 24.9763 8.7C24.9763 9.648 25.0783 10.422 25.2823 11.022C25.4983 11.622 25.7863 12.06 26.1463 12.336C26.5183 12.612 26.9443 12.75 27.4243 12.75ZM47.2371 5.172C48.0051 5.172 48.6831 5.328 49.2711 5.64C49.8711 5.94 50.3391 6.408 50.6751 7.044C51.0231 7.668 51.1971 8.472 51.1971 9.456V15H48.3891V9.888C48.3891 9.108 48.2271 8.532 47.9031 8.16C47.5791 7.788 47.1231 7.602 46.5351 7.602C46.1271 7.602 45.7611 7.698 45.4371 7.89C45.1131 8.07 44.8611 8.346 44.6811 8.718C44.5011 9.09 44.4111 9.564 44.4111 10.14V15H41.6031V9.888C41.6031 9.108 41.4411 8.532 41.1171 8.16C40.8051 7.788 40.3551 7.602 39.7671 7.602C39.3591 7.602 38.9931 7.698 38.6691 7.89C38.3451 8.07 38.0931 8.346 37.9131 8.718C37.7331 9.09 37.6431 9.564 37.6431 10.14V15H34.8351V5.316H37.5171V7.962L37.0131 7.188C37.3491 6.528 37.8231 6.03 38.4351 5.694C39.0591 5.346 39.7671 5.172 40.5591 5.172C41.4471 5.172 42.2211 5.4 42.8811 5.856C43.5531 6.3 43.9971 6.984 44.2131 7.908L43.2231 7.638C43.5471 6.882 44.0631 6.282 44.7711 5.838C45.4911 5.394 46.3131 5.172 47.2371 5.172ZM53.714 15V1.644H56.522V15H53.714ZM64.4237 15V2.4H69.8777C71.0057 2.4 71.9777 2.586 72.7937 2.958C73.6097 3.318 74.2397 3.84 74.6837 4.524C75.1277 5.208 75.3497 6.024 75.3497 6.972C75.3497 7.908 75.1277 8.718 74.6837 9.402C74.2397 10.074 73.6097 10.59 72.7937 10.95C71.9777 11.31 71.0057 11.49 69.8777 11.49H66.0437L67.3397 10.212V15H64.4237ZM72.4337 15L69.2837 10.428H72.3977L75.5837 15H72.4337ZM67.3397 10.536L66.0437 9.168H69.7157C70.6157 9.168 71.2877 8.976 71.7317 8.592C72.1757 8.196 72.3977 7.656 72.3977 6.972C72.3977 6.276 72.1757 5.736 71.7317 5.352C71.2877 4.968 70.6157 4.776 69.7157 4.776H66.0437L67.3397 3.39V10.536ZM82.07 15.144C81.038 15.144 80.12 14.928 79.316 14.496C78.524 14.064 77.894 13.476 77.426 12.732C76.97 11.976 76.742 11.118 76.742 10.158C76.742 9.186 76.97 8.328 77.426 7.584C77.894 6.828 78.524 6.24 79.316 5.82C80.12 5.388 81.038 5.172 82.07 5.172C83.09 5.172 84.002 5.388 84.806 5.82C85.61 6.24 86.24 6.822 86.696 7.566C87.152 8.31 87.38 9.174 87.38 10.158C87.38 11.118 87.152 11.976 86.696 12.732C86.24 13.476 85.61 14.064 84.806 14.496C84.002 14.928 83.09 15.144 82.07 15.144ZM82.07 12.84C82.538 12.84 82.958 12.732 83.33 12.516C83.702 12.3 83.996 11.994 84.212 11.598C84.428 11.19 84.536 10.71 84.536 10.158C84.536 9.594 84.428 9.114 84.212 8.718C83.996 8.322 83.702 8.016 83.33 7.8C82.958 7.584 82.538 7.476 82.07 7.476C81.602 7.476 81.182 7.584 80.81 7.8C80.438 8.016 80.138 8.322 79.91 8.718C79.694 9.114 79.586 9.594 79.586 10.158C79.586 10.71 79.694 11.19 79.91 11.598C80.138 11.994 80.438 12.3 80.81 12.516C81.182 12.732 81.602 12.84 82.07 12.84ZM93.3429 15.144C92.5389 15.144 91.8189 14.988 91.1829 14.676C90.5589 14.364 90.0729 13.89 89.7249 13.254C89.3769 12.606 89.2029 11.784 89.2029 10.788V5.316H92.0109V10.374C92.0109 11.178 92.1789 11.772 92.5149 12.156C92.8629 12.528 93.3489 12.714 93.9729 12.714C94.4049 12.714 94.7889 12.624 95.1249 12.444C95.4609 12.252 95.7249 11.964 95.9169 11.58C96.1089 11.184 96.2049 10.692 96.2049 10.104V5.316H99.0129V15H96.3489V12.336L96.8349 13.11C96.5109 13.782 96.0309 14.292 95.3949 14.64C94.7709 14.976 94.0869 15.144 93.3429 15.144ZM107.5 5.172C108.268 5.172 108.952 5.328 109.552 5.64C110.164 5.94 110.644 6.408 110.992 7.044C111.34 7.668 111.514 8.472 111.514 9.456V15H108.706V9.888C108.706 9.108 108.532 8.532 108.184 8.16C107.848 7.788 107.368 7.602 106.744 7.602C106.3 7.602 105.898 7.698 105.538 7.89C105.19 8.07 104.914 8.352 104.71 8.736C104.518 9.12 104.422 9.612 104.422 10.212V15H101.614V5.316H104.296V7.998L103.792 7.188C104.14 6.54 104.638 6.042 105.286 5.694C105.934 5.346 106.672 5.172 107.5 5.172ZM118.288 15.144C117.376 15.144 116.554 14.94 115.822 14.532C115.09 14.112 114.508 13.53 114.076 12.786C113.656 12.042 113.446 11.166 113.446 10.158C113.446 9.138 113.656 8.256 114.076 7.512C114.508 6.768 115.09 6.192 115.822 5.784C116.554 5.376 117.376 5.172 118.288 5.172C119.104 5.172 119.818 5.352 120.43 5.712C121.042 6.072 121.516 6.618 121.852 7.35C122.188 8.082 122.356 9.018 122.356 10.158C122.356 11.286 122.194 12.222 121.87 12.966C121.546 13.698 121.078 14.244 120.466 14.604C119.866 14.964 119.14 15.144 118.288 15.144ZM118.774 12.84C119.23 12.84 119.644 12.732 120.016 12.516C120.388 12.3 120.682 11.994 120.898 11.598C121.126 11.19 121.24 10.71 121.24 10.158C121.24 9.594 121.126 9.114 120.898 8.718C120.682 8.322 120.388 8.016 120.016 7.8C119.644 7.584 119.23 7.476 118.774 7.476C118.306 7.476 117.886 7.584 117.514 7.8C117.142 8.016 116.842 8.322 116.614 8.718C116.398 9.114 116.29 9.594 116.29 10.158C116.29 10.71 116.398 11.19 116.614 11.598C116.842 11.994 117.142 12.3 117.514 12.516C117.886 12.732 118.306 12.84 118.774 12.84ZM121.312 15V13.02L121.366 10.14L121.186 7.278V1.644H123.994V15H121.312ZM137.919 15.216C136.947 15.216 136.041 15.06 135.201 14.748C134.373 14.424 133.653 13.968 133.041 13.38C132.429 12.792 131.949 12.102 131.601 11.31C131.265 10.518 131.097 9.648 131.097 8.7C131.097 7.752 131.265 6.882 131.601 6.09C131.949 5.298 132.429 4.608 133.041 4.02C133.665 3.432 134.391 2.982 135.219 2.67C136.047 2.346 136.953 2.184 137.937 2.184C139.029 2.184 140.013 2.376 140.889 2.76C141.777 3.132 142.521 3.684 143.121 4.416L141.249 6.144C140.817 5.652 140.337 5.286 139.809 5.046C139.281 4.794 138.705 4.668 138.081 4.668C137.493 4.668 136.953 4.764 136.461 4.956C135.969 5.148 135.543 5.424 135.183 5.784C134.823 6.144 134.541 6.57 134.337 7.062C134.145 7.554 134.049 8.1 134.049 8.7C134.049 9.3 134.145 9.846 134.337 10.338C134.541 10.83 134.823 11.256 135.183 11.616C135.543 11.976 135.969 12.252 136.461 12.444C136.953 12.636 137.493 12.732 138.081 12.732C138.705 12.732 139.281 12.612 139.809 12.372C140.337 12.12 140.817 11.742 141.249 11.238L143.121 12.966C142.521 13.698 141.777 14.256 140.889 14.64C140.013 15.024 139.023 15.216 137.919 15.216ZM149.166 15.144C148.134 15.144 147.216 14.928 146.412 14.496C145.62 14.064 144.99 13.476 144.522 12.732C144.066 11.976 143.838 11.118 143.838 10.158C143.838 9.186 144.066 8.328 144.522 7.584C144.99 6.828 145.62 6.24 146.412 5.82C147.216 5.388 148.134 5.172 149.166 5.172C150.186 5.172 151.098 5.388 151.902 5.82C152.706 6.24 153.336 6.822 153.792 7.566C154.248 8.31 154.476 9.174 154.476 10.158C154.476 11.118 154.248 11.976 153.792 12.732C153.336 13.476 152.706 14.064 151.902 14.496C151.098 14.928 150.186 15.144 149.166 15.144ZM149.166 12.84C149.634 12.84 150.054 12.732 150.426 12.516C150.798 12.3 151.092 11.994 151.308 11.598C151.524 11.19 151.632 10.71 151.632 10.158C151.632 9.594 151.524 9.114 151.308 8.718C151.092 8.322 150.798 8.016 150.426 7.8C150.054 7.584 149.634 7.476 149.166 7.476C148.698 7.476 148.278 7.584 147.906 7.8C147.534 8.016 147.234 8.322 147.006 8.718C146.79 9.114 146.682 9.594 146.682 10.158C146.682 10.71 146.79 11.19 147.006 11.598C147.234 11.994 147.534 12.3 147.906 12.516C148.278 12.732 148.698 12.84 149.166 12.84ZM162.239 5.172C163.007 5.172 163.691 5.328 164.291 5.64C164.903 5.94 165.383 6.408 165.731 7.044C166.079 7.668 166.253 8.472 166.253 9.456V15H163.445V9.888C163.445 9.108 163.271 8.532 162.923 8.16C162.587 7.788 162.107 7.602 161.483 7.602C161.039 7.602 160.637 7.698 160.277 7.89C159.929 8.07 159.653 8.352 159.449 8.736C159.257 9.12 159.161 9.612 159.161 10.212V15H156.353V5.316H159.035V7.998L158.531 7.188C158.879 6.54 159.377 6.042 160.025 5.694C160.673 5.346 161.411 5.172 162.239 5.172ZM172.758 15.144C171.618 15.144 170.73 14.856 170.094 14.28C169.458 13.692 169.14 12.822 169.14 11.67V3.174H171.948V11.634C171.948 12.042 172.056 12.36 172.272 12.588C172.488 12.804 172.782 12.912 173.154 12.912C173.598 12.912 173.976 12.792 174.288 12.552L175.044 14.532C174.756 14.736 174.408 14.892 174 15C173.604 15.096 173.19 15.144 172.758 15.144ZM167.646 7.692V5.532H174.36V7.692H167.646ZM182.56 15V13.11L182.38 12.696V9.312C182.38 8.712 182.194 8.244 181.822 7.908C181.462 7.572 180.904 7.404 180.148 7.404C179.632 7.404 179.122 7.488 178.618 7.656C178.126 7.812 177.706 8.028 177.358 8.304L176.35 6.342C176.878 5.97 177.514 5.682 178.258 5.478C179.002 5.274 179.758 5.172 180.526 5.172C182.002 5.172 183.148 5.52 183.964 6.216C184.78 6.912 185.188 7.998 185.188 9.474V15H182.56ZM179.608 15.144C178.852 15.144 178.204 15.018 177.664 14.766C177.124 14.502 176.71 14.148 176.422 13.704C176.134 13.26 175.99 12.762 175.99 12.21C175.99 11.634 176.128 11.13 176.404 10.698C176.692 10.266 177.142 9.93 177.754 9.69C178.366 9.438 179.164 9.312 180.148 9.312H182.722V10.95H180.454C179.794 10.95 179.338 11.058 179.086 11.274C178.846 11.49 178.726 11.76 178.726 12.084C178.726 12.444 178.864 12.732 179.14 12.948C179.428 13.152 179.818 13.254 180.31 13.254C180.778 13.254 181.198 13.146 181.57 12.93C181.942 12.702 182.212 12.372 182.38 11.94L182.812 13.236C182.608 13.86 182.236 14.334 181.696 14.658C181.156 14.982 180.46 15.144 179.608 15.144ZM187.73 15V5.316H190.538V15H187.73ZM189.134 3.966C188.618 3.966 188.198 3.816 187.874 3.516C187.55 3.216 187.388 2.844 187.388 2.4C187.388 1.956 187.55 1.584 187.874 1.284C188.198 0.983999 188.618 0.833999 189.134 0.833999C189.65 0.833999 190.07 0.977999 190.394 1.266C190.718 1.542 190.88 1.902 190.88 2.346C190.88 2.814 190.718 3.204 190.394 3.516C190.082 3.816 189.662 3.966 189.134 3.966ZM199.03 5.172C199.798 5.172 200.482 5.328 201.082 5.64C201.694 5.94 202.174 6.408 202.522 7.044C202.87 7.668 203.044 8.472 203.044 9.456V15H200.236V9.888C200.236 9.108 200.062 8.532 199.714 8.16C199.378 7.788 198.898 7.602 198.274 7.602C197.83 7.602 197.428 7.698 197.068 7.89C196.72 8.07 196.444 8.352 196.24 8.736C196.048 9.12 195.952 9.612 195.952 10.212V15H193.144V5.316H195.826V7.998L195.322 7.188C195.67 6.54 196.168 6.042 196.816 5.694C197.464 5.346 198.202 5.172 199.03 5.172ZM210.465 15.144C209.361 15.144 208.389 14.928 207.549 14.496C206.721 14.064 206.079 13.476 205.623 12.732C205.167 11.976 204.939 11.118 204.939 10.158C204.939 9.186 205.161 8.328 205.605 7.584C206.061 6.828 206.679 6.24 207.459 5.82C208.239 5.388 209.121 5.172 210.105 5.172C211.053 5.172 211.905 5.376 212.661 5.784C213.429 6.18 214.035 6.756 214.479 7.512C214.923 8.256 215.145 9.15 215.145 10.194C215.145 10.302 215.139 10.428 215.127 10.572C215.115 10.704 215.103 10.83 215.091 10.95H207.225V9.312H213.615L212.535 9.798C212.535 9.294 212.433 8.856 212.229 8.484C212.025 8.112 211.743 7.824 211.383 7.62C211.023 7.404 210.603 7.296 210.123 7.296C209.643 7.296 209.217 7.404 208.845 7.62C208.485 7.824 208.203 8.118 207.999 8.502C207.795 8.874 207.693 9.318 207.693 9.834V10.266C207.693 10.794 207.807 11.262 208.035 11.67C208.275 12.066 208.605 12.372 209.025 12.588C209.457 12.792 209.961 12.894 210.537 12.894C211.053 12.894 211.503 12.816 211.887 12.66C212.283 12.504 212.643 12.27 212.967 11.958L214.461 13.578C214.017 14.082 213.459 14.472 212.787 14.748C212.115 15.012 211.341 15.144 210.465 15.144ZM217.015 15V5.316H219.697V8.052L219.319 7.26C219.607 6.576 220.069 6.06 220.705 5.712C221.341 5.352 222.115 5.172 223.027 5.172V7.764C222.907 7.752 222.799 7.746 222.703 7.746C222.607 7.734 222.505 7.728 222.397 7.728C221.629 7.728 221.005 7.95 220.525 8.394C220.057 8.826 219.823 9.504 219.823 10.428V15H217.015ZM229.684 13.128V10.878L237.406 8.07V9.33L229.684 6.522V4.272L238.252 7.53V9.87L229.684 13.128Z" fill="#CE3439"/>
</svg>
