<svg width="178" height="19" viewBox="0 0 178 19" fill="none" xmlns="http://www.w3.org/2000/svg">
<path d="M0.594 15V13.11L5.454 8.52C5.838 8.172 6.12 7.86 6.3 7.584C6.48 7.308 6.6 7.056 6.66 6.828C6.732 6.6 6.768 6.39 6.768 6.198C6.768 5.694 6.594 5.31 6.246 5.046C5.91 4.77 5.412 4.632 4.752 4.632C4.224 4.632 3.732 4.734 3.276 4.938C2.832 5.142 2.454 5.46 2.142 5.892L0.018 4.524C0.498 3.804 1.17 3.234 2.034 2.814C2.898 2.394 3.894 2.184 5.022 2.184C5.958 2.184 6.774 2.34 7.47 2.652C8.178 2.952 8.724 3.378 9.108 3.93C9.504 4.482 9.702 5.142 9.702 5.91C9.702 6.318 9.648 6.726 9.54 7.134C9.444 7.53 9.24 7.95 8.928 8.394C8.628 8.838 8.184 9.336 7.596 9.888L3.564 13.686L3.006 12.624H10.116V15H0.594ZM15.6032 15.216C14.7272 15.216 13.8572 15.102 12.9932 14.874C12.1412 14.634 11.4092 14.298 10.7972 13.866L11.9492 11.634C12.4292 11.982 12.9812 12.258 13.6052 12.462C14.2412 12.666 14.8832 12.768 15.5312 12.768C16.2632 12.768 16.8392 12.624 17.2592 12.336C17.6792 12.048 17.8892 11.646 17.8892 11.13C17.8892 10.806 17.8052 10.518 17.6372 10.266C17.4692 10.014 17.1692 9.822 16.7372 9.69C16.3172 9.558 15.7232 9.492 14.9552 9.492H11.7332L12.3812 2.4H20.0672V4.74H13.4252L14.9372 3.408L14.4872 8.466L12.9752 7.134H15.6392C16.8872 7.134 17.8892 7.308 18.6452 7.656C19.4132 7.992 19.9712 8.454 20.3192 9.042C20.6672 9.63 20.8412 10.296 20.8412 11.04C20.8412 11.784 20.6552 12.474 20.2832 13.11C19.9112 13.734 19.3352 14.244 18.5552 14.64C17.7872 15.024 16.8032 15.216 15.6032 15.216ZM27.4243 15.216C26.3923 15.216 25.4683 14.964 24.6523 14.46C23.8363 13.944 23.1943 13.2 22.7263 12.228C22.2583 11.256 22.0243 10.08 22.0243 8.7C22.0243 7.32 22.2583 6.144 22.7263 5.172C23.1943 4.2 23.8363 3.462 24.6523 2.958C25.4683 2.442 26.3923 2.184 27.4243 2.184C28.4683 2.184 29.3923 2.442 30.1963 2.958C31.0123 3.462 31.6543 4.2 32.1223 5.172C32.5903 6.144 32.8243 7.32 32.8243 8.7C32.8243 10.08 32.5903 11.256 32.1223 12.228C31.6543 13.2 31.0123 13.944 30.1963 14.46C29.3923 14.964 28.4683 15.216 27.4243 15.216ZM27.4243 12.75C27.9163 12.75 28.3423 12.612 28.7023 12.336C29.0743 12.06 29.3623 11.622 29.5663 11.022C29.7823 10.422 29.8903 9.648 29.8903 8.7C29.8903 7.752 29.7823 6.978 29.5663 6.378C29.3623 5.778 29.0743 5.34 28.7023 5.064C28.3423 4.788 27.9163 4.65 27.4243 4.65C26.9443 4.65 26.5183 4.788 26.1463 5.064C25.7863 5.34 25.4983 5.778 25.2823 6.378C25.0783 6.978 24.9763 7.752 24.9763 8.7C24.9763 9.648 25.0783 10.422 25.2823 11.022C25.4983 11.622 25.7863 12.06 26.1463 12.336C26.5183 12.612 26.9443 12.75 27.4243 12.75ZM47.2371 5.172C48.0051 5.172 48.6831 5.328 49.2711 5.64C49.8711 5.94 50.3391 6.408 50.6751 7.044C51.0231 7.668 51.1971 8.472 51.1971 9.456V15H48.3891V9.888C48.3891 9.108 48.2271 8.532 47.9031 8.16C47.5791 7.788 47.1231 7.602 46.5351 7.602C46.1271 7.602 45.7611 7.698 45.4371 7.89C45.1131 8.07 44.8611 8.346 44.6811 8.718C44.5011 9.09 44.4111 9.564 44.4111 10.14V15H41.6031V9.888C41.6031 9.108 41.4411 8.532 41.1171 8.16C40.8051 7.788 40.3551 7.602 39.7671 7.602C39.3591 7.602 38.9931 7.698 38.6691 7.89C38.3451 8.07 38.0931 8.346 37.9131 8.718C37.7331 9.09 37.6431 9.564 37.6431 10.14V15H34.8351V5.316H37.5171V7.962L37.0131 7.188C37.3491 6.528 37.8231 6.03 38.4351 5.694C39.0591 5.346 39.7671 5.172 40.5591 5.172C41.4471 5.172 42.2211 5.4 42.8811 5.856C43.5531 6.3 43.9971 6.984 44.2131 7.908L43.2231 7.638C43.5471 6.882 44.0631 6.282 44.7711 5.838C45.4911 5.394 46.3131 5.172 47.2371 5.172ZM53.714 15V1.644H56.522V15H53.714ZM68.5637 15.216C67.5557 15.216 66.5897 15.084 65.6657 14.82C64.7417 14.544 63.9977 14.19 63.4337 13.758L64.4237 11.562C64.9637 11.946 65.5997 12.264 66.3317 12.516C67.0757 12.756 67.8257 12.876 68.5817 12.876C69.1577 12.876 69.6197 12.822 69.9677 12.714C70.3277 12.594 70.5917 12.432 70.7597 12.228C70.9277 12.024 71.0117 11.79 71.0117 11.526C71.0117 11.19 70.8797 10.926 70.6157 10.734C70.3517 10.53 70.0037 10.368 69.5717 10.248C69.1397 10.116 68.6597 9.996 68.1317 9.888C67.6157 9.768 67.0937 9.624 66.5657 9.456C66.0497 9.288 65.5757 9.072 65.1437 8.808C64.7117 8.544 64.3577 8.196 64.0817 7.764C63.8177 7.332 63.6857 6.78 63.6857 6.108C63.6857 5.388 63.8777 4.734 64.2617 4.146C64.6577 3.546 65.2457 3.072 66.0257 2.724C66.8177 2.364 67.8077 2.184 68.9957 2.184C69.7877 2.184 70.5677 2.28 71.3357 2.472C72.1037 2.652 72.7817 2.928 73.3697 3.3L72.4697 5.514C71.8817 5.178 71.2937 4.932 70.7057 4.776C70.1177 4.608 69.5417 4.524 68.9777 4.524C68.4137 4.524 67.9517 4.59 67.5917 4.722C67.2317 4.854 66.9737 5.028 66.8177 5.244C66.6617 5.448 66.5837 5.688 66.5837 5.964C66.5837 6.288 66.7157 6.552 66.9797 6.756C67.2437 6.948 67.5917 7.104 68.0237 7.224C68.4557 7.344 68.9297 7.464 69.4457 7.584C69.9737 7.704 70.4957 7.842 71.0117 7.998C71.5397 8.154 72.0197 8.364 72.4517 8.628C72.8837 8.892 73.2317 9.24 73.4957 9.672C73.7717 10.104 73.9097 10.65 73.9097 11.31C73.9097 12.018 73.7117 12.666 73.3157 13.254C72.9197 13.842 72.3257 14.316 71.5337 14.676C70.7537 15.036 69.7637 15.216 68.5637 15.216ZM75.7042 15V5.316H78.5122V15H75.7042ZM77.1082 3.966C76.5922 3.966 76.1722 3.816 75.8482 3.516C75.5242 3.216 75.3622 2.844 75.3622 2.4C75.3622 1.956 75.5242 1.584 75.8482 1.284C76.1722 0.983999 76.5922 0.833999 77.1082 0.833999C77.6242 0.833999 78.0442 0.977999 78.3682 1.266C78.6922 1.542 78.8542 1.902 78.8542 2.346C78.8542 2.814 78.6922 3.204 78.3682 3.516C78.0562 3.816 77.6362 3.966 77.1082 3.966ZM86.8423 15.144C86.0263 15.144 85.3123 14.964 84.7003 14.604C84.0883 14.244 83.6083 13.698 83.2603 12.966C82.9243 12.222 82.7563 11.286 82.7563 10.158C82.7563 9.018 82.9183 8.082 83.2423 7.35C83.5663 6.618 84.0343 6.072 84.6463 5.712C85.2583 5.352 85.9903 5.172 86.8423 5.172C87.7543 5.172 88.5703 5.382 89.2903 5.802C90.0223 6.21 90.5983 6.786 91.0183 7.53C91.4503 8.274 91.6663 9.15 91.6663 10.158C91.6663 11.178 91.4503 12.06 91.0183 12.804C90.5983 13.548 90.0223 14.124 89.2903 14.532C88.5703 14.94 87.7543 15.144 86.8423 15.144ZM81.1183 18.492V5.316H83.8003V7.296L83.7463 10.176L83.9263 13.038V18.492H81.1183ZM86.3563 12.84C86.8243 12.84 87.2383 12.732 87.5983 12.516C87.9703 12.3 88.2643 11.994 88.4803 11.598C88.7083 11.19 88.8223 10.71 88.8223 10.158C88.8223 9.594 88.7083 9.114 88.4803 8.718C88.2643 8.322 87.9703 8.016 87.5983 7.8C87.2383 7.584 86.8243 7.476 86.3563 7.476C85.8883 7.476 85.4683 7.584 85.0963 7.8C84.7243 8.016 84.4303 8.322 84.2143 8.718C83.9983 9.114 83.8903 9.594 83.8903 10.158C83.8903 10.71 83.9983 11.19 84.2143 11.598C84.4303 11.994 84.7243 12.3 85.0963 12.516C85.4683 12.732 85.8883 12.84 86.3563 12.84ZM99.27 15.144C98.454 15.144 97.74 14.964 97.128 14.604C96.516 14.244 96.036 13.698 95.688 12.966C95.352 12.222 95.184 11.286 95.184 10.158C95.184 9.018 95.346 8.082 95.67 7.35C95.994 6.618 96.462 6.072 97.074 5.712C97.686 5.352 98.418 5.172 99.27 5.172C100.182 5.172 100.998 5.382 101.718 5.802C102.45 6.21 103.026 6.786 103.446 7.53C103.878 8.274 104.094 9.15 104.094 10.158C104.094 11.178 103.878 12.06 103.446 12.804C103.026 13.548 102.45 14.124 101.718 14.532C100.998 14.94 100.182 15.144 99.27 15.144ZM93.546 18.492V5.316H96.228V7.296L96.174 10.176L96.354 13.038V18.492H93.546ZM98.784 12.84C99.252 12.84 99.666 12.732 100.026 12.516C100.398 12.3 100.692 11.994 100.908 11.598C101.136 11.19 101.25 10.71 101.25 10.158C101.25 9.594 101.136 9.114 100.908 8.718C100.692 8.322 100.398 8.016 100.026 7.8C99.666 7.584 99.252 7.476 98.784 7.476C98.316 7.476 97.896 7.584 97.524 7.8C97.152 8.016 96.858 8.322 96.642 8.718C96.426 9.114 96.318 9.594 96.318 10.158C96.318 10.71 96.426 11.19 96.642 11.598C96.858 11.994 97.152 12.3 97.524 12.516C97.896 12.732 98.316 12.84 98.784 12.84ZM110.78 15.144C109.676 15.144 108.704 14.928 107.864 14.496C107.036 14.064 106.394 13.476 105.938 12.732C105.482 11.976 105.254 11.118 105.254 10.158C105.254 9.186 105.476 8.328 105.92 7.584C106.376 6.828 106.994 6.24 107.774 5.82C108.554 5.388 109.436 5.172 110.42 5.172C111.368 5.172 112.22 5.376 112.976 5.784C113.744 6.18 114.35 6.756 114.794 7.512C115.238 8.256 115.46 9.15 115.46 10.194C115.46 10.302 115.454 10.428 115.442 10.572C115.43 10.704 115.418 10.83 115.406 10.95H107.54V9.312H113.93L112.85 9.798C112.85 9.294 112.748 8.856 112.544 8.484C112.34 8.112 112.058 7.824 111.698 7.62C111.338 7.404 110.918 7.296 110.438 7.296C109.958 7.296 109.532 7.404 109.16 7.62C108.8 7.824 108.518 8.118 108.314 8.502C108.11 8.874 108.008 9.318 108.008 9.834V10.266C108.008 10.794 108.122 11.262 108.35 11.67C108.59 12.066 108.92 12.372 109.34 12.588C109.772 12.792 110.276 12.894 110.852 12.894C111.368 12.894 111.818 12.816 112.202 12.66C112.598 12.504 112.958 12.27 113.282 11.958L114.776 13.578C114.332 14.082 113.774 14.472 113.102 14.748C112.43 15.012 111.656 15.144 110.78 15.144ZM117.329 15V5.316H120.011V8.052L119.633 7.26C119.921 6.576 120.383 6.06 121.019 5.712C121.655 5.352 122.429 5.172 123.341 5.172V7.764C123.221 7.752 123.113 7.746 123.017 7.746C122.921 7.734 122.819 7.728 122.711 7.728C121.943 7.728 121.319 7.95 120.839 8.394C120.371 8.826 120.137 9.504 120.137 10.428V15H117.329ZM136.461 15.216C135.465 15.216 134.547 15.06 133.707 14.748C132.879 14.424 132.153 13.968 131.529 13.38C130.917 12.792 130.437 12.102 130.089 11.31C129.753 10.518 129.585 9.648 129.585 8.7C129.585 7.752 129.753 6.882 130.089 6.09C130.437 5.298 130.923 4.608 131.547 4.02C132.171 3.432 132.903 2.982 133.743 2.67C134.583 2.346 135.507 2.184 136.515 2.184C137.631 2.184 138.633 2.37 139.521 2.742C140.421 3.114 141.177 3.654 141.789 4.362L139.917 6.09C139.461 5.61 138.963 5.256 138.423 5.028C137.883 4.788 137.295 4.668 136.659 4.668C136.047 4.668 135.489 4.764 134.985 4.956C134.481 5.148 134.043 5.424 133.671 5.784C133.311 6.144 133.029 6.57 132.825 7.062C132.633 7.554 132.537 8.1 132.537 8.7C132.537 9.288 132.633 9.828 132.825 10.32C133.029 10.812 133.311 11.244 133.671 11.616C134.043 11.976 134.475 12.252 134.967 12.444C135.471 12.636 136.023 12.732 136.623 12.732C137.199 12.732 137.757 12.642 138.297 12.462C138.849 12.27 139.383 11.952 139.899 11.508L141.555 13.614C140.871 14.13 140.073 14.526 139.161 14.802C138.261 15.078 137.361 15.216 136.461 15.216ZM138.891 13.236V8.502H141.555V13.614L138.891 13.236ZM144.066 15V1.644H146.874V15H144.066ZM155.42 15V13.11L155.24 12.696V9.312C155.24 8.712 155.054 8.244 154.682 7.908C154.322 7.572 153.764 7.404 153.008 7.404C152.492 7.404 151.982 7.488 151.478 7.656C150.986 7.812 150.566 8.028 150.218 8.304L149.21 6.342C149.738 5.97 150.374 5.682 151.118 5.478C151.862 5.274 152.618 5.172 153.386 5.172C154.862 5.172 156.008 5.52 156.824 6.216C157.64 6.912 158.048 7.998 158.048 9.474V15H155.42ZM152.468 15.144C151.712 15.144 151.064 15.018 150.524 14.766C149.984 14.502 149.57 14.148 149.282 13.704C148.994 13.26 148.85 12.762 148.85 12.21C148.85 11.634 148.988 11.13 149.264 10.698C149.552 10.266 150.002 9.93 150.614 9.69C151.226 9.438 152.024 9.312 153.008 9.312H155.582V10.95H153.314C152.654 10.95 152.198 11.058 151.946 11.274C151.706 11.49 151.586 11.76 151.586 12.084C151.586 12.444 151.724 12.732 152 12.948C152.288 13.152 152.678 13.254 153.17 13.254C153.638 13.254 154.058 13.146 154.43 12.93C154.802 12.702 155.072 12.372 155.24 11.94L155.672 13.236C155.468 13.86 155.096 14.334 154.556 14.658C154.016 14.982 153.32 15.144 152.468 15.144ZM163.847 15.144C163.019 15.144 162.221 15.048 161.453 14.856C160.697 14.652 160.097 14.4 159.653 14.1L160.589 12.084C161.033 12.36 161.555 12.588 162.155 12.768C162.767 12.936 163.367 13.02 163.955 13.02C164.603 13.02 165.059 12.942 165.323 12.786C165.599 12.63 165.737 12.414 165.737 12.138C165.737 11.91 165.629 11.742 165.413 11.634C165.209 11.514 164.933 11.424 164.585 11.364C164.237 11.304 163.853 11.244 163.433 11.184C163.025 11.124 162.611 11.046 162.191 10.95C161.771 10.842 161.387 10.686 161.039 10.482C160.691 10.278 160.409 10.002 160.193 9.654C159.989 9.306 159.887 8.856 159.887 8.304C159.887 7.692 160.061 7.152 160.409 6.684C160.769 6.216 161.285 5.85 161.957 5.586C162.629 5.31 163.433 5.172 164.369 5.172C165.029 5.172 165.701 5.244 166.385 5.388C167.069 5.532 167.639 5.742 168.095 6.018L167.159 8.016C166.691 7.74 166.217 7.554 165.737 7.458C165.269 7.35 164.813 7.296 164.369 7.296C163.745 7.296 163.289 7.38 163.001 7.548C162.713 7.716 162.569 7.932 162.569 8.196C162.569 8.436 162.671 8.616 162.875 8.736C163.091 8.856 163.373 8.952 163.721 9.024C164.069 9.096 164.447 9.162 164.855 9.222C165.275 9.27 165.695 9.348 166.115 9.456C166.535 9.564 166.913 9.72 167.249 9.924C167.597 10.116 167.879 10.386 168.095 10.734C168.311 11.07 168.419 11.514 168.419 12.066C168.419 12.666 168.239 13.2 167.879 13.668C167.519 14.124 166.997 14.484 166.313 14.748C165.641 15.012 164.819 15.144 163.847 15.144ZM173.409 15.144C172.581 15.144 171.783 15.048 171.015 14.856C170.259 14.652 169.659 14.4 169.215 14.1L170.151 12.084C170.595 12.36 171.117 12.588 171.717 12.768C172.329 12.936 172.929 13.02 173.517 13.02C174.165 13.02 174.621 12.942 174.885 12.786C175.161 12.63 175.299 12.414 175.299 12.138C175.299 11.91 175.191 11.742 174.975 11.634C174.771 11.514 174.495 11.424 174.147 11.364C173.799 11.304 173.415 11.244 172.995 11.184C172.587 11.124 172.173 11.046 171.753 10.95C171.333 10.842 170.949 10.686 170.601 10.482C170.253 10.278 169.971 10.002 169.755 9.654C169.551 9.306 169.449 8.856 169.449 8.304C169.449 7.692 169.623 7.152 169.971 6.684C170.331 6.216 170.847 5.85 171.519 5.586C172.191 5.31 172.995 5.172 173.931 5.172C174.591 5.172 175.263 5.244 175.947 5.388C176.631 5.532 177.201 5.742 177.657 6.018L176.721 8.016C176.253 7.74 175.779 7.554 175.299 7.458C174.831 7.35 174.375 7.296 173.931 7.296C173.307 7.296 172.851 7.38 172.563 7.548C172.275 7.716 172.131 7.932 172.131 8.196C172.131 8.436 172.233 8.616 172.437 8.736C172.653 8.856 172.935 8.952 173.283 9.024C173.631 9.096 174.009 9.162 174.417 9.222C174.837 9.27 175.257 9.348 175.677 9.456C176.097 9.564 176.475 9.72 176.811 9.924C177.159 10.116 177.441 10.386 177.657 10.734C177.873 11.07 177.981 11.514 177.981 12.066C177.981 12.666 177.801 13.2 177.441 13.668C177.081 14.124 176.559 14.484 175.875 14.748C175.203 15.012 174.381 15.144 173.409 15.144Z" fill="#CE3439"/>
</svg>
