<svg width="29" height="15" viewBox="0 0 29 15" fill="none" xmlns="http://www.w3.org/2000/svg">
<path d="M8.83594 1.72363C9.16818 1.7316 9.39372 1.75305 9.52246 1.78906C9.62785 1.81842 9.82221 1.89418 9.9541 1.95703C10.1271 2.03995 10.2562 2.13429 10.4199 2.29785C10.5555 2.43301 10.6859 2.60031 10.7441 2.71484C10.7974 2.82 10.8674 2.99233 10.8994 3.09766C10.9416 3.23613 10.957 3.38665 10.9551 3.64062C10.9532 3.94045 10.9392 4.03072 10.8604 4.25977C10.8096 4.40749 10.7392 4.55969 10.7041 4.59766C10.669 4.63594 10.6113 4.7218 10.5762 4.78906C10.5398 4.85862 10.4305 4.97265 10.3213 5.05273C10.2159 5.12995 10.0431 5.23678 9.74609 5.3877L9.98535 5.47168C10.1169 5.51794 10.2969 5.60605 10.3848 5.66699C10.4723 5.72793 10.6126 5.84976 10.6963 5.9375C10.7799 6.02522 10.897 6.19079 10.957 6.30469C11.0168 6.41891 11.0911 6.60582 11.1211 6.71973C11.1511 6.83403 11.1765 7.04937 11.1787 7.19824C11.1809 7.34739 11.1732 7.54808 11.1602 7.64453C11.1474 7.74089 11.1067 7.90643 11.0703 8.01172C11.0342 8.11701 10.9582 8.28924 10.9023 8.39453C10.8433 8.50616 10.694 8.69288 10.5449 8.84277C10.3399 9.04889 10.2287 9.13107 9.98535 9.25391C9.81384 9.34032 9.55025 9.44004 9.37891 9.4834C9.21188 9.52551 8.96582 9.57025 8.83203 9.58301C8.65568 9.60018 8.57492 9.59619 8.53711 9.56738C8.49559 9.53548 8.47168 9.53548 8.4209 9.56738C8.3701 9.59909 8.28904 9.59884 8.01367 9.56445C7.82462 9.54114 7.54782 9.48641 7.39844 9.44336C7.24904 9.40027 7.02716 9.31712 6.9043 9.25879C6.7815 9.20079 6.6499 9.12684 6.54395 9.0332L6.69141 8.40625C6.77284 8.06166 6.8475 7.77129 6.85645 7.76172C6.86828 7.75416 6.97468 7.79545 7.0957 7.85449C7.2187 7.91447 7.42681 7.9983 7.55859 8.04102C7.69016 8.08408 7.87354 8.1345 7.96582 8.15332C8.05813 8.17213 8.24487 8.18718 8.38086 8.1875C8.51691 8.1875 8.71492 8.16482 8.82031 8.1377C8.92555 8.11055 9.08309 8.0417 9.1709 7.98438C9.2586 7.92702 9.37732 7.80909 9.43457 7.72266C9.49205 7.63619 9.55374 7.49302 9.57227 7.40527C9.59079 7.31759 9.62012 7.23141 9.63672 7.21387C9.65556 7.19361 9.64934 7.14628 9.61914 7.08594C9.59301 7.03331 9.57097 6.9618 9.57129 6.92676C9.57121 6.89155 9.53591 6.79076 9.49316 6.70312C9.45035 6.61559 9.35747 6.49052 9.28613 6.4248C9.21428 6.35908 9.09426 6.27398 9.01953 6.23633C8.94481 6.19869 8.84075 6.1536 8.78809 6.13574C8.73539 6.11819 8.4567 6.0951 7.64648 6.06543L7.63867 4.81348L8.08594 4.79785C8.4344 4.78509 8.57838 4.76546 8.74023 4.70996C8.85424 4.67071 9.00926 4.59663 9.08398 4.5459C9.15864 4.49505 9.25418 4.39285 9.29688 4.31836C9.33964 4.24371 9.38268 4.14288 9.39258 4.09473C9.40233 4.04677 9.39629 3.9865 9.37891 3.95996C9.35719 3.92774 9.3582 3.89312 9.38184 3.85547C9.40728 3.81465 9.40631 3.76108 9.37793 3.65625C9.34821 3.54665 9.29288 3.46904 9.14355 3.3291C8.94923 3.14676 8.94586 3.14607 8.70801 3.12598C8.57646 3.11484 8.33963 3.11518 8.18164 3.12695C8.02439 3.1387 7.8811 3.16013 7.8623 3.1748C7.84474 3.18916 7.77241 3.21951 7.70215 3.24121C7.6318 3.26298 7.45634 3.34379 7.31152 3.4209C7.11831 3.52364 7.04785 3.54779 7.04785 3.5127C7.04784 3.4877 7.04423 3.46748 7.04004 3.46582C7.03558 3.46614 6.95301 3.48725 6.85645 3.51367C6.75968 3.54015 6.666 3.57453 6.64844 3.58984C6.63039 3.60493 6.52985 3.64132 6.4248 3.6709C6.31942 3.70057 6.04657 3.78241 5.81836 3.85352C5.59045 3.92453 5.38932 3.9862 5.37109 3.99023C5.35353 3.99374 5.30286 4.01342 5.25879 4.0332C5.21403 4.05335 4.99214 4.14076 4.76465 4.22754C4.53631 4.31464 4.24127 4.43047 4.10938 4.48535C3.97772 4.54027 3.63236 4.70246 3.34277 4.84473C3.0538 4.98701 2.78116 5.12686 2.73633 5.15625C2.69258 5.1856 2.46255 5.33744 2.22559 5.49219C1.90339 5.70243 1.70863 5.85801 1.45605 6.11035C1.27021 6.29603 1.07684 6.52398 1.02539 6.61621C0.974293 6.70842 0.920977 6.77285 0.908203 6.75977C0.895753 6.74677 0.876716 6.77868 0.866211 6.83105C0.855375 6.88359 0.823958 6.99826 0.795898 7.08594C0.766517 7.17815 0.743803 7.36092 0.743164 7.51758C0.742239 7.69512 0.762469 7.8491 0.799805 7.96387C0.831416 8.06052 0.873784 8.17972 0.894531 8.22852C0.914971 8.27727 0.946319 8.31738 0.963867 8.31738C0.981498 8.31782 1.05716 8.40355 1.13184 8.50781C1.20659 8.61213 1.364 8.77806 1.48242 8.87598C1.6009 8.97361 1.81358 9.13048 1.9541 9.22461C2.09475 9.31846 2.41847 9.50107 2.67285 9.63086C2.92708 9.76024 3.22852 9.90712 3.34277 9.95703C3.45678 10.0068 3.56544 10.0512 3.58301 10.0547C3.60292 10.0594 3.78883 10.1242 3.99805 10.1992C4.20863 10.2748 4.40107 10.3522 4.42578 10.3711C4.45069 10.3896 4.50136 10.4056 4.53809 10.4072C4.57593 10.4088 4.84295 10.4764 5.13184 10.5566C5.42147 10.637 5.88103 10.7526 6.15332 10.8145C6.42573 10.8767 6.82479 10.9605 7.04004 11.001C7.2554 11.0415 7.43168 11.0855 7.43164 11.0986C7.43164 11.1117 7.44876 11.1136 7.4707 11.1025C7.49274 11.0914 7.62608 11.1004 7.7666 11.123C7.90698 11.1457 8.05084 11.1828 8.08594 11.2051C8.12144 11.2277 8.26504 11.2554 8.40527 11.2656L8.85156 11.2988C8.95692 11.3068 9.30208 11.3409 9.61816 11.375C9.93433 11.4088 10.2874 11.4465 10.4014 11.458C10.5985 11.478 10.6095 11.475 10.6338 11.4043C10.6482 11.3635 10.6665 11.1795 10.6748 10.9951C10.6834 10.811 10.7014 10.568 10.7139 10.4561C10.7276 10.3313 10.7548 10.2395 10.7842 10.2197C10.8212 10.1945 10.9728 10.283 11.4551 10.6104C11.7973 10.8426 12.131 11.0666 12.1973 11.1094C12.2631 11.1515 12.3094 11.2012 12.3008 11.2188C12.2931 11.2363 12.3322 11.2655 12.3887 11.2842C12.4458 11.3027 12.6703 11.4432 12.8877 11.5957C13.1052 11.7479 13.3359 11.9034 13.3994 11.9414C13.4629 11.9791 13.5507 12.0452 13.5947 12.0879C13.6385 12.1306 13.6999 12.1751 13.7305 12.1865C13.7616 12.1984 13.8939 12.2797 14.0254 12.3672C14.1841 12.4728 14.2623 12.5447 14.2568 12.5801C14.2519 12.6123 14.1078 12.708 13.8975 12.8193C13.7048 12.9212 13.5044 13.0112 13.4512 13.0186C13.3986 13.0259 13.3262 13.0567 13.291 13.0879C13.2559 13.1195 12.7525 13.3735 12.1729 13.6514L11.8262 13.8184C11.3663 14.0391 10.9442 14.2408 10.8066 14.3066C10.5329 14.438 10.4892 14.4513 10.4521 14.4092C10.4171 14.3693 10.4177 14.2845 10.4551 13.9141C10.4796 13.6688 10.4989 13.4218 10.498 13.3643C10.4971 13.3072 10.5108 13.2247 10.5283 13.1807C10.5577 13.1073 10.5544 13.1023 10.4883 13.123C10.4302 13.1414 10.4226 13.1374 10.4482 13.0996C10.4728 13.0633 10.4696 13.0591 10.4326 13.0811C10.4042 13.098 10.2805 13.0919 10.124 13.0654C9.98031 13.0412 9.8673 13.0138 9.87305 13.0049C9.87838 12.9963 9.83826 12.9883 9.7832 12.9873C9.72798 12.986 9.52786 12.9576 9.33887 12.9238C9.15186 12.89 8.99859 12.855 8.99609 12.8457C8.99609 12.8371 8.94877 12.8268 8.8916 12.8232C8.83403 12.8193 8.61555 12.7786 8.40527 12.7324L8.38477 12.7275C8.17796 12.6821 7.93218 12.6284 7.83008 12.6064C7.72469 12.5835 7.53033 12.5358 7.39844 12.501C7.26646 12.4661 6.91442 12.3703 6.61621 12.2881C6.31839 12.206 6.01739 12.1118 5.94629 12.0781C5.87603 12.0446 5.78904 12.0166 5.75391 12.0166C5.718 12.0163 5.53152 11.965 5.33887 11.9014C5.14578 11.8379 4.89433 11.7511 4.78027 11.708C4.66686 11.6648 4.56648 11.6164 4.55664 11.5996C4.5477 11.5833 4.49035 11.5643 4.42871 11.5586C4.36685 11.553 4.15168 11.4799 3.9502 11.3955C3.74836 11.3113 3.56835 11.2232 3.55078 11.2012C3.53308 11.1795 3.42523 11.1303 3.31152 11.0918C3.19728 11.0532 2.93141 10.928 2.7207 10.8135C2.50994 10.6989 2.27226 10.5608 2.19336 10.5068C2.11448 10.4529 2.03914 10.3935 2.02637 10.375C2.01327 10.3562 2.00195 10.3522 2.00195 10.3652C1.99776 10.3754 1.87367 10.3018 1.72266 10.1992C1.56908 10.0949 1.32471 9.90431 1.18066 9.77637C1.03646 9.64823 0.892817 9.50805 0.861328 9.46387C0.830031 9.42015 0.756009 9.34073 0.696289 9.28809C0.636859 9.23538 0.511823 9.07686 0.417969 8.93652C0.317811 8.78669 0.201191 8.55376 0.134766 8.37109C0.0402604 8.11017 0.0192728 8.00442 0.00585938 7.7168C-0.006915 7.44495 8.21819e-05 7.35855 0.0380859 7.30176C0.0642101 7.26207 0.0962647 7.14975 0.109375 7.05176C0.122469 6.95317 0.15213 6.85604 0.174805 6.83594C0.197763 6.8158 0.215801 6.77041 0.214844 6.73535C0.21432 6.70012 0.279962 6.57098 0.361328 6.44824C0.44313 6.32537 0.656165 6.08169 0.834961 5.90625C1.0138 5.73077 1.27386 5.50547 1.41309 5.40625C1.55267 5.30702 1.79607 5.15079 1.9541 5.05957C2.11218 4.96867 2.39173 4.82371 2.57617 4.7373C2.76076 4.65084 2.93011 4.58074 2.95215 4.58105C2.97447 4.58111 3.03881 4.55382 3.0957 4.51953C3.15284 4.48509 3.36465 4.3976 3.56641 4.3252C3.76824 4.25245 4.12795 4.13029 4.36523 4.05371C4.6025 3.97715 4.92595 3.87932 5.08398 3.83594C5.24196 3.79227 5.38176 3.7662 5.39453 3.77832C5.40744 3.7901 5.43581 3.78332 5.45801 3.76367C5.4806 3.74386 5.63161 3.69744 5.79395 3.66016C5.95534 3.62309 6.10183 3.60029 6.12109 3.6084C6.13866 3.61733 6.15332 3.61367 6.15332 3.60059C6.15321 3.58748 6.25047 3.55677 6.36914 3.53223C6.48785 3.50769 6.62803 3.48529 6.68066 3.48242C6.73336 3.47986 6.81245 3.47421 6.85645 3.4707C6.90013 3.46714 6.95528 3.45347 6.97852 3.44043C7.01214 3.42163 6.99387 3.30404 6.8877 2.8584C6.81472 2.55206 6.76342 2.28345 6.77344 2.26074C6.78397 2.23873 6.91071 2.16294 7.05566 2.0918C7.20054 2.02038 7.43367 1.92725 7.57422 1.88477C7.71474 1.84233 7.94542 1.78593 8.08594 1.75977C8.26565 1.72633 8.48784 1.71535 8.83594 1.72363ZM23.2871 3.65625C23.3141 3.6564 23.634 3.74178 23.998 3.8457C24.3624 3.95004 24.8763 4.10995 25.1396 4.20117C25.4031 4.29211 25.7699 4.43066 25.9541 4.50879C26.1384 4.587 26.4475 4.7302 26.6406 4.82617C26.8339 4.92259 27.1711 5.12023 27.3906 5.26562C27.61 5.41144 27.9251 5.65843 28.0898 5.81445C28.2546 5.97013 28.4537 6.18385 28.5322 6.28906C28.6111 6.39434 28.7075 6.54495 28.7471 6.62402C28.7866 6.7031 28.814 6.78562 28.8076 6.80762C28.8014 6.82949 28.8106 6.84668 28.8281 6.84668C28.8458 6.84741 28.8912 6.95146 28.9297 7.07812C28.9846 7.25776 29.0006 7.38865 29 7.66113C28.9994 7.97146 28.987 8.04647 28.8955 8.31445C28.8387 8.48132 28.7283 8.7223 28.6504 8.84961C28.5725 8.97681 28.4941 9.08105 28.4766 9.08105C28.459 9.08111 28.4443 9.10246 28.4443 9.12891C28.4428 9.15681 28.311 9.31562 28.1494 9.4834C27.9869 9.6525 27.7312 9.88749 27.582 10.0059C27.4328 10.1243 27.1634 10.3163 26.9834 10.4326C26.8036 10.5488 26.657 10.6329 26.6572 10.6201C26.6575 10.607 26.6249 10.6267 26.585 10.6641C26.5443 10.7019 26.3607 10.8114 26.1768 10.9082C25.9925 11.0052 25.6697 11.1588 25.459 11.249C25.2488 11.3394 25.0477 11.4284 25.0117 11.4482C24.9766 11.4674 24.7822 11.5455 24.5801 11.6211C24.3795 11.6961 24.2047 11.7512 24.1895 11.7441C24.1765 11.7359 24.1618 11.7414 24.1572 11.7568C24.1528 11.7725 23.9986 11.8379 23.8145 11.9014C23.6302 11.9649 23.4422 12.0169 23.3984 12.0166C23.3543 12.0164 23.2682 12.0424 23.207 12.0752C23.1457 12.1081 22.9157 12.1895 22.6963 12.2549C22.4766 12.3203 22.2605 12.3737 22.2168 12.374C22.173 12.3744 22.1299 12.3848 22.1211 12.3975C22.1125 12.4105 21.8681 12.4813 21.5781 12.5537C21.2883 12.6261 20.822 12.7346 20.541 12.7949C20.26 12.8555 19.8643 12.9343 19.6621 12.9697L18.7363 13.1299C18.5343 13.165 18.2899 13.204 18.1934 13.2168C18.097 13.2296 17.9532 13.2386 17.874 13.2373C17.7948 13.236 17.7225 13.2487 17.7139 13.2646C17.7042 13.2805 17.6021 13.2966 17.4863 13.3008C17.3702 13.3049 17.2803 13.319 17.2861 13.332C17.2928 13.3451 17.2378 13.3578 17.1631 13.3594C17.0884 13.3607 16.9843 13.3657 16.9316 13.3711C16.8788 13.3762 16.7351 13.3959 16.6123 13.415C16.4892 13.4339 16.1225 13.4719 15.7979 13.499C15.4728 13.5265 15.1707 13.5552 15.127 13.5625C15.0831 13.5697 15.0262 13.5627 15 13.5469C14.9649 13.5258 14.9463 13.434 14.9326 13.2061C14.9221 13.0346 14.9255 12.8763 14.9404 12.8535C14.9558 12.8305 14.9538 12.8071 14.9355 12.7979C14.9165 12.7877 14.9073 12.6357 14.9121 12.417C14.9166 12.2168 14.9083 12.041 14.8945 12.0264C14.8809 12.0111 14.8708 11.9385 14.8711 11.8643C14.8718 11.7896 14.8908 11.7105 14.9141 11.6885C14.9466 11.6592 15.3283 11.638 16.3428 11.6074C17.1057 11.5844 17.7881 11.5598 17.8584 11.5527C17.9293 11.5454 18.1949 11.524 18.4492 11.5049C18.7042 11.486 19.185 11.4417 19.5186 11.4072C19.8523 11.3728 20.2187 11.3314 20.333 11.3145C20.4473 11.2975 20.627 11.2829 20.7324 11.2822C20.8378 11.2819 21.0176 11.2655 21.1318 11.2461C21.2459 11.2267 21.3534 11.1989 21.3711 11.1846C21.3887 11.1699 21.572 11.1275 21.7783 11.0918C21.9845 11.0558 22.168 11.0344 22.1855 11.043C22.2031 11.0513 22.2349 11.0453 22.2568 11.0293C22.2788 11.013 22.4261 10.9706 22.584 10.9355C22.7421 10.9001 22.9081 10.8644 22.9521 10.8564C22.9967 10.8479 23.1835 10.8033 23.3672 10.7568C23.5516 10.7102 23.9183 10.6091 24.1816 10.5322C24.4451 10.455 24.8549 10.3205 25.0918 10.2334C25.3287 10.1466 25.6265 10.0308 25.7539 9.97656C25.8813 9.92232 25.986 9.88926 25.9863 9.90234C25.9864 9.91521 25.9967 9.91034 26.0098 9.8916C26.0227 9.87304 26.159 9.79025 26.3125 9.70801C26.4654 9.62637 26.6055 9.56722 26.624 9.5752C26.6415 9.58374 26.656 9.57683 26.6562 9.55957C26.6562 9.55096 26.6615 9.54286 26.6699 9.53711L26.7383 9.51758C26.7468 9.51181 26.752 9.50379 26.752 9.49512C26.7527 9.47724 26.8351 9.41389 26.9355 9.35449C27.0365 9.2945 27.2199 9.16863 27.3428 9.07422C27.4657 8.97978 27.5811 8.89535 27.5986 8.8877C27.6172 8.87846 27.7096 8.77937 27.8057 8.66602C27.902 8.55195 28.028 8.37964 28.0859 8.2832C28.1434 8.18684 28.2154 8.028 28.2451 7.93164C28.2748 7.8354 28.3112 7.74884 28.3252 7.74023C28.3388 7.72949 28.3284 7.57233 28.3018 7.38965C28.2663 7.14748 28.2228 6.9925 28.1455 6.83105C28.0867 6.70821 27.9677 6.51627 27.8818 6.4043C27.7962 6.29234 27.7019 6.1632 27.6709 6.11719C27.6407 6.07139 27.6043 6.03578 27.5908 6.03809C27.5774 6.04095 27.502 5.98308 27.4229 5.90918C27.3437 5.83517 27.1569 5.68363 27.0078 5.57324C26.8587 5.46285 26.6063 5.29295 26.4482 5.19531C26.2901 5.09733 25.9597 4.91506 25.7139 4.79004C25.4681 4.66503 25.1523 4.51114 25.0117 4.44824C24.8713 4.38542 24.6202 4.28094 24.4531 4.2168C24.2865 4.15281 24.1286 4.08977 24.1016 4.07617C24.0751 4.06245 23.8857 3.99502 23.6807 3.92578C23.4772 3.85705 23.3164 3.79012 23.3213 3.77637C23.3286 3.76329 23.3063 3.76329 23.2715 3.77637C23.2197 3.7957 23.2112 3.78855 23.2217 3.73633C23.2287 3.70123 23.2351 3.66853 23.2363 3.66406C23.2385 3.6597 23.261 3.65625 23.2871 3.65625ZM16.4258 2.19629C16.4322 2.46395 16.4365 2.7729 16.4365 3.08203H16.2695C16.1773 3.08203 15.9725 3.09739 15.8145 3.11523C15.6564 3.13342 15.49 3.14977 15.4463 3.15137C15.4022 3.15309 15.324 3.17378 15.2715 3.19727C15.2188 3.22088 15.0671 3.28363 14.9355 3.33691C14.8036 3.39024 14.6022 3.50276 14.4883 3.58789C14.3743 3.67309 14.2179 3.82063 14.1406 3.91504C14.0637 4.00988 13.9453 4.20249 13.8779 4.34277C13.8103 4.48313 13.7355 4.67718 13.7109 4.77344C13.6864 4.86949 13.6705 4.95588 13.6768 4.96484C13.6828 4.97346 13.7725 4.90104 13.875 4.80469C13.9774 4.70854 14.1387 4.59089 14.2344 4.54297C14.3302 4.49543 14.4952 4.43403 14.6006 4.40723C14.7059 4.38014 14.9211 4.35812 15.0791 4.3584C15.2371 4.35872 15.4601 4.38208 15.5742 4.40918C15.6885 4.4363 15.8829 4.5114 16.0059 4.57617C16.1326 4.64257 16.3127 4.7761 16.4219 4.88477C16.5279 4.99006 16.6753 5.17696 16.749 5.2998C16.8228 5.42259 16.9188 5.62326 16.9619 5.74609C17.0053 5.86885 17.0643 6.10561 17.0938 6.27246C17.133 6.49609 17.1426 6.6802 17.1299 6.97461C17.1197 7.21295 17.0872 7.47034 17.0498 7.61328C17.0153 7.74506 16.9493 7.94578 16.9033 8.05957C16.857 8.1738 16.773 8.34606 16.7158 8.44238C16.6588 8.53884 16.4832 8.74848 16.3252 8.9082C16.0777 9.15832 15.9956 9.21903 15.7344 9.34473C15.5674 9.42481 15.3266 9.51294 15.1992 9.54102C15.0718 9.56876 14.8457 9.59082 14.6963 9.59082C14.5469 9.59082 14.3208 9.5691 14.1934 9.54199C14.0661 9.5149 13.876 9.45712 13.7705 9.41406C13.6651 9.37067 13.5014 9.28856 13.4072 9.23145C13.313 9.17465 13.14 9.03512 13.0234 8.9209C12.9069 8.80666 12.7448 8.60505 12.6621 8.47363C12.5791 8.34224 12.4604 8.1095 12.3984 7.95605C12.3362 7.80258 12.2568 7.55794 12.2227 7.41309C12.1882 7.26812 12.1441 6.99169 12.124 6.79883C12.1042 6.60596 12.0739 6.43355 12.0576 6.41602C12.0415 6.39789 12.0283 6.33357 12.0283 6.27246C12.0284 6.2113 12.0413 6.14642 12.0566 6.12891C12.0723 6.11067 12.1014 5.92478 12.1221 5.71484C12.1425 5.50426 12.1878 5.19519 12.2217 5.02832C12.2552 4.86143 12.3259 4.58868 12.3799 4.42188C12.4335 4.25511 12.5553 3.96152 12.6504 3.76855C12.7456 3.57552 12.8602 3.37728 12.9053 3.3291C12.9506 3.28092 12.9803 3.24121 12.9717 3.24121C12.9636 3.2406 13.0244 3.15271 13.1074 3.04492C13.1908 2.93642 13.3742 2.74949 13.5146 2.62988C13.6551 2.51001 13.7955 2.41211 13.8262 2.41211C13.8571 2.41201 13.8968 2.38359 13.9141 2.34863C13.9319 2.31322 14.0911 2.21535 14.2734 2.12793C14.4535 2.04179 14.7013 1.94134 14.8242 1.90625C14.9472 1.87116 15.134 1.82541 15.2393 1.80469C15.3447 1.78364 15.5531 1.75625 15.7021 1.74316C15.8512 1.73009 16.0729 1.71698 16.4141 1.70996L16.4258 2.19629ZM20.3486 1.72266C20.6635 1.73095 20.775 1.7472 20.9717 1.81641C21.1033 1.86267 21.3046 1.96446 21.4189 2.04199C21.5331 2.11941 21.6869 2.24838 21.7617 2.3291C21.8364 2.4095 21.9605 2.57304 22.0371 2.69141C22.1137 2.80971 22.2201 3.00703 22.2734 3.12988C22.3268 3.25272 22.4085 3.476 22.4551 3.625C22.502 3.77439 22.5681 4.06118 22.6025 4.2627C22.637 4.46454 22.6807 4.83719 22.6992 5.0918C22.7174 5.34641 22.7237 5.72023 22.7129 5.92188C22.702 6.1238 22.6784 6.42492 22.6602 6.5918C22.642 6.75867 22.5986 7.03137 22.5645 7.19824C22.53 7.36504 22.4586 7.63018 22.4053 7.78809C22.3519 7.94602 22.2453 8.19767 22.168 8.34668C22.0911 8.49554 21.9486 8.71455 21.8516 8.83301C21.7542 8.95127 21.5992 9.10482 21.5068 9.17383C21.4146 9.24302 21.2462 9.34383 21.1318 9.39746C21.0175 9.45106 20.8232 9.51583 20.7002 9.54199C20.5772 9.56816 20.3542 9.58984 20.2051 9.58984C20.056 9.58983 19.8443 9.56878 19.7344 9.54297C19.6245 9.51681 19.4515 9.45807 19.3506 9.41309C19.2497 9.36774 19.1025 9.28392 19.0234 9.22656C18.9444 9.1696 18.855 9.11319 18.8242 9.10156C18.7936 9.09008 18.7686 9.0517 18.7686 9.0166C18.7685 8.98154 18.7442 8.94177 18.7148 8.92871C18.6858 8.91554 18.6013 8.81897 18.5273 8.71387C18.4533 8.60858 18.3352 8.40699 18.2656 8.2666C18.1957 8.12628 18.1007 7.89718 18.0547 7.75684C18.0087 7.61648 17.9494 7.40819 17.9229 7.29395C17.8963 7.18004 17.875 7.0145 17.875 6.92676C17.875 6.83906 17.8607 6.75289 17.8438 6.73535C17.8265 6.71699 17.7958 6.49517 17.7754 6.24121C17.7537 5.97336 17.747 5.59079 17.7588 5.33203C17.77 5.08636 17.8013 4.73391 17.8281 4.5498C17.8553 4.3657 17.8996 4.12873 17.9258 4.02344C17.9516 3.91822 18.0107 3.71749 18.0566 3.57715C18.1029 3.43676 18.1596 3.28524 18.1826 3.24121C18.2055 3.19758 18.2249 3.14739 18.2246 3.12988C18.2247 3.11177 18.3042 2.96811 18.4023 2.81055C18.5116 2.63483 18.6762 2.43052 18.8271 2.28418C18.9959 2.12045 19.1482 2.0074 19.3115 1.92578C19.4426 1.86013 19.6434 1.78569 19.7578 1.75977C19.8976 1.72787 20.0904 1.71565 20.3486 1.72266ZM14.6484 5.61523C14.552 5.60853 14.415 5.62188 14.3447 5.64453C14.2744 5.66727 14.1523 5.7307 14.0732 5.78613C13.994 5.84165 13.8994 5.92775 13.8623 5.97656C13.8255 6.02583 13.7625 6.13003 13.7227 6.20898C13.6789 6.29514 13.641 6.44221 13.6289 6.57617C13.6149 6.72733 13.6257 6.8972 13.6621 7.10254C13.6915 7.26939 13.7472 7.48473 13.7861 7.58105C13.8247 7.67722 13.8962 7.8135 13.9453 7.88379C13.9945 7.95398 14.0758 8.04976 14.126 8.0957C14.1762 8.14164 14.2892 8.20243 14.377 8.23145C14.4648 8.26014 14.6052 8.28352 14.6885 8.2832C14.7718 8.28317 14.8942 8.2605 14.96 8.2334C15.0257 8.20623 15.1348 8.13138 15.2021 8.06641C15.2695 8.00164 15.3589 7.87917 15.4014 7.7959C15.4435 7.71263 15.5015 7.54794 15.5293 7.42969C15.5657 7.27526 15.5766 7.10991 15.5674 6.84668C15.5578 6.57113 15.5363 6.4328 15.4834 6.28906C15.4442 6.18404 15.3741 6.04816 15.3262 5.9873C15.2786 5.92672 15.2323 5.85697 15.2236 5.83301C15.215 5.80876 15.121 5.75268 15.0156 5.70801C14.9103 5.66337 14.7449 5.62163 14.6484 5.61523ZM20.2207 3.05078C20.1476 3.05123 20.0401 3.08201 19.9688 3.12305C19.9004 3.16261 19.7881 3.27376 19.7197 3.37012C19.6447 3.47575 19.5598 3.65854 19.5049 3.83203C19.4551 3.98996 19.3971 4.24833 19.376 4.40625C19.3549 4.56419 19.3282 4.75109 19.3164 4.82129C19.3049 4.89211 19.3039 5.35097 19.3145 5.8418C19.3282 6.46331 19.3493 6.82033 19.3857 7.01465C19.4148 7.16799 19.4711 7.39034 19.5107 7.50879C19.55 7.62716 19.6257 7.79571 19.6787 7.88281C19.7314 7.96979 19.8312 8.08168 19.9014 8.13086C19.9716 8.18 20.0803 8.22873 20.1416 8.23926C20.2029 8.25007 20.3073 8.25041 20.373 8.23926C20.4477 8.22711 20.542 8.17414 20.624 8.09961C20.6964 8.03403 20.7884 7.92276 20.8291 7.85254C20.8693 7.78243 20.9323 7.63144 20.9678 7.51758C21.0035 7.40335 21.0555 7.18709 21.083 7.03809C21.1105 6.88846 21.1478 6.52261 21.166 6.22461C21.189 5.85021 21.1887 5.50512 21.166 5.1084C21.1478 4.79277 21.1105 4.40524 21.083 4.24707C21.0552 4.08922 20.9972 3.85922 20.9541 3.73633C20.9107 3.61362 20.8213 3.43265 20.7559 3.33398C20.661 3.19136 20.6065 3.14304 20.4922 3.10156C20.413 3.07293 20.2908 3.05046 20.2207 3.05078ZM23.1113 0.00292969C23.2374 0.012498 23.3814 0.049145 23.4785 0.0957031C23.5663 0.13811 23.7067 0.245341 23.79 0.334961C23.8734 0.424299 23.9414 0.519735 23.9414 0.545898C23.9416 0.572541 23.9675 0.632334 23.998 0.679688C24.0389 0.742492 24.0537 0.831686 24.0537 1.00781C24.0537 1.18426 24.0389 1.27406 23.998 1.33691C23.9675 1.38434 23.9415 1.44446 23.9414 1.4707C23.9414 1.49718 23.8667 1.59835 23.7744 1.69531C23.6735 1.80156 23.5424 1.89927 23.4463 1.94043C23.3315 1.98972 23.2196 2.00976 23.0479 2.01074C22.8588 2.0117 22.7715 1.99515 22.6357 1.93262C22.5377 1.88761 22.4034 1.78859 22.3242 1.70215C22.2477 1.61898 22.1536 1.48267 22.1143 1.39941C22.0606 1.28487 22.043 1.18872 22.043 1.00781C22.043 0.836077 22.0608 0.727975 22.1074 0.625C22.1432 0.546258 22.2363 0.412281 22.3145 0.327148C22.3927 0.241639 22.5 0.149191 22.5527 0.12207C22.6055 0.0946307 22.7061 0.0535518 22.7764 0.0302734C22.8556 0.00384265 22.9828 -0.00662501 23.1113 0.00292969ZM22.9355 0.561523C22.9178 0.562039 22.8601 0.590343 22.8076 0.625C22.755 0.659501 22.6869 0.734669 22.6562 0.791992C22.6253 0.849424 22.6006 0.95422 22.6006 1.02441C22.601 1.09886 22.6275 1.19125 22.665 1.24707C22.7004 1.29961 22.7685 1.36772 22.8164 1.39844C22.8642 1.42903 22.961 1.45469 23.0312 1.45508C23.1015 1.45508 23.2075 1.43033 23.2666 1.39941C23.3257 1.36878 23.4014 1.29302 23.4346 1.23145C23.4677 1.16985 23.4951 1.06932 23.4951 1.00781C23.495 0.946274 23.4677 0.84662 23.4346 0.785156C23.4002 0.721503 23.3231 0.648191 23.2549 0.614258C23.154 0.564507 23.1278 0.561336 23.0898 0.597656C23.0534 0.632753 23.0368 0.633131 23.0059 0.600586C22.9845 0.578716 22.953 0.561206 22.9355 0.561523Z" fill="white"/>
</svg>
