<svg width="29" height="15" viewBox="0 0 29 15" fill="none" xmlns="http://www.w3.org/2000/svg">
<path d="M8.83594 1.72461C9.1683 1.73258 9.39374 1.754 9.52246 1.79004C9.62785 1.81939 9.82221 1.89418 9.9541 1.95703C10.1271 2.03994 10.2562 2.13435 10.4199 2.29785C10.5556 2.43314 10.686 2.60128 10.7441 2.71582C10.7975 2.82113 10.8675 2.99341 10.8994 3.09863C10.9415 3.23702 10.957 3.38689 10.9551 3.64062C10.9532 3.94043 10.9392 4.03088 10.8604 4.25977C10.8096 4.40739 10.7393 4.55956 10.7041 4.59766C10.669 4.63594 10.6113 4.72272 10.5762 4.79004C10.5396 4.85961 10.4303 4.9728 10.3213 5.05273C10.2159 5.12995 10.0431 5.23678 9.74609 5.3877L9.98535 5.47266C10.1169 5.51892 10.2969 5.60703 10.3848 5.66797C10.4723 5.72898 10.6127 5.85083 10.6963 5.93848C10.7799 6.02622 10.897 6.19094 10.957 6.30469C11.0168 6.41891 11.0911 6.60582 11.1211 6.71973C11.1511 6.83392 11.1774 7.04925 11.1797 7.19824C11.1819 7.34756 11.1733 7.54915 11.1602 7.64551C11.1473 7.74184 11.1067 7.90655 11.0703 8.01172C11.0342 8.11696 10.9582 8.28923 10.9023 8.39453C10.8433 8.5062 10.6941 8.69379 10.5449 8.84375C10.34 9.04975 10.2286 9.1311 9.98535 9.25391C9.81385 9.34033 9.55028 9.44004 9.37891 9.4834C9.21188 9.52551 8.96583 9.57122 8.83203 9.58398C8.65549 9.60117 8.57484 9.59631 8.53711 9.56738C8.49559 9.53548 8.47168 9.53548 8.4209 9.56738C8.37011 9.59916 8.28922 9.59887 8.01367 9.56445C7.82477 9.54115 7.54885 9.48639 7.39941 9.44336C7.2501 9.40033 7.02733 9.31814 6.9043 9.25977C6.78143 9.20174 6.64993 9.12692 6.54395 9.0332L6.69238 8.40625C6.7738 8.06176 6.84751 7.77227 6.85645 7.7627C6.86616 7.75389 6.97325 7.79475 7.0957 7.85449C7.21866 7.91446 7.42675 7.99827 7.55859 8.04102C7.69017 8.08409 7.87352 8.13449 7.96582 8.15332C8.05809 8.17214 8.24482 8.18717 8.38086 8.1875C8.51691 8.1875 8.71492 8.16579 8.82031 8.13867C8.9257 8.11153 9.08408 8.04179 9.17188 7.98438C9.2596 7.92688 9.37745 7.80897 9.43457 7.72266C9.49195 7.63635 9.55361 7.49403 9.57227 7.40625C9.59079 7.31851 9.62011 7.23142 9.63672 7.21387C9.65537 7.19357 9.64915 7.14698 9.61914 7.08691C9.59295 7.03427 9.57097 6.96185 9.57129 6.92676C9.57101 6.89129 9.53578 6.79149 9.49316 6.7041C9.45043 6.61648 9.35763 6.49061 9.28613 6.4248C9.21428 6.35908 9.09426 6.27398 9.01953 6.23633C8.94482 6.19871 8.84071 6.15359 8.78809 6.13574C8.73508 6.1182 8.45607 6.09508 7.64648 6.06543L7.63867 4.81348L8.08594 4.79785C8.43442 4.78509 8.57837 4.76546 8.74023 4.70996C8.85424 4.67071 9.00927 4.59759 9.08398 4.54688C9.15869 4.4961 9.25411 4.39296 9.29688 4.31836C9.33953 4.24386 9.3826 4.1439 9.39258 4.0957C9.40248 4.04754 9.39646 3.98646 9.37891 3.95996C9.35726 3.92783 9.35841 3.89396 9.38184 3.85645C9.40736 3.81565 9.40627 3.76198 9.37793 3.65723C9.34824 3.5475 9.29291 3.47006 9.14355 3.33008C8.94907 3.14757 8.94593 3.14608 8.70801 3.12598C8.57644 3.11484 8.3396 3.11518 8.18164 3.12695C8.02356 3.13876 7.87987 3.1611 7.8623 3.17578C7.84462 3.19016 7.77231 3.21954 7.70215 3.24121C7.63185 3.26296 7.45635 3.34379 7.31152 3.4209C7.11922 3.52316 7.04851 3.54805 7.04785 3.51367C7.04785 3.48828 7.04432 3.46703 7.04004 3.46582C7.03558 3.46614 6.953 3.48725 6.85645 3.51367C6.75968 3.54015 6.666 3.57453 6.64844 3.58984C6.63071 3.60487 6.53008 3.64126 6.4248 3.6709C6.31941 3.70058 6.04664 3.78336 5.81836 3.85449C5.59053 3.92548 5.38944 3.98616 5.37109 3.99023C5.35353 3.99374 5.30286 4.01342 5.25879 4.0332C5.2142 4.05329 4.99224 4.14072 4.76465 4.22754C4.53631 4.31464 4.24127 4.43047 4.10938 4.48535C3.97777 4.54024 3.63241 4.70244 3.34277 4.84473C3.05322 4.9873 2.78038 5.1282 2.73633 5.15723C2.69236 5.18672 2.46235 5.33757 2.22559 5.49219C1.90335 5.70245 1.70867 5.85895 1.45605 6.11133C1.27044 6.29681 1.07698 6.52389 1.02539 6.61621C0.974293 6.70842 0.920977 6.77285 0.908203 6.75977C0.895769 6.74727 0.87668 6.77909 0.866211 6.83105C0.855353 6.8837 0.824002 6.99917 0.795898 7.08691C0.766531 7.17915 0.743803 7.36097 0.743164 7.51758C0.742216 7.69518 0.762476 7.84905 0.799805 7.96387C0.831394 8.06046 0.873753 8.17962 0.894531 8.22852C0.914969 8.27733 0.946302 8.31836 0.963867 8.31836C0.981437 8.31869 1.05713 8.40352 1.13184 8.50781C1.20651 8.61207 1.36397 8.778 1.48242 8.87598C1.6009 8.97361 1.81358 9.13048 1.9541 9.22461C2.09466 9.31843 2.41837 9.502 2.67285 9.63184C2.92718 9.76127 3.22872 9.9082 3.34277 9.95801C3.45678 10.0078 3.56544 10.0512 3.58301 10.0547C3.60234 10.0592 3.78844 10.124 3.99805 10.1992C4.2082 10.2746 4.40035 10.352 4.42578 10.3711C4.45069 10.3896 4.50136 10.4066 4.53809 10.4082C4.57587 10.4098 4.8429 10.4764 5.13184 10.5566C5.4215 10.637 5.88101 10.7536 6.15332 10.8154C6.42572 10.8776 6.82479 10.9605 7.04004 11.001C7.25419 11.0412 7.42966 11.0852 7.43164 11.0986C7.43164 11.1117 7.44872 11.1136 7.4707 11.1025C7.49274 11.0914 7.62608 11.1004 7.7666 11.123C7.90701 11.1457 8.05084 11.1828 8.08594 11.2051C8.12115 11.2277 8.26482 11.2554 8.40527 11.2656L8.85156 11.2988C8.95691 11.3068 9.3021 11.3409 9.61816 11.375C9.93433 11.4088 10.2874 11.4465 10.4014 11.458C10.5986 11.4781 10.6095 11.4751 10.6338 11.4043C10.6482 11.363 10.6665 11.1792 10.6748 10.9951C10.6834 10.811 10.7014 10.568 10.7139 10.4561C10.7276 10.3315 10.7548 10.2395 10.7842 10.2197C10.8214 10.1948 10.9733 10.2833 11.4551 10.6104C11.7977 10.8429 12.1315 11.0679 12.1973 11.1104C12.263 11.1525 12.3094 11.2012 12.3008 11.2188C12.2927 11.2363 12.332 11.2654 12.3887 11.2842C12.4458 11.3027 12.6703 11.4433 12.8877 11.5957C13.1052 11.7479 13.3359 11.9034 13.3994 11.9414C13.463 11.9791 13.5507 12.0452 13.5947 12.0879C13.6385 12.1306 13.6998 12.175 13.7305 12.1865C13.7614 12.1982 13.8938 12.2796 14.0254 12.3672C14.1837 12.4726 14.2619 12.5446 14.2568 12.5801C14.252 12.6123 14.1079 12.708 13.8975 12.8193C13.7047 12.9212 13.5044 13.0112 13.4512 13.0186C13.3985 13.0259 13.3261 13.0576 13.291 13.0889C13.2544 13.1211 12.7524 13.374 12.1738 13.6514L11.8262 13.8184C11.3665 14.039 10.9453 14.2416 10.8076 14.3076C10.534 14.4389 10.4901 14.4511 10.4531 14.4092C10.418 14.3693 10.4177 14.2855 10.4551 13.915C10.4797 13.6694 10.499 13.4214 10.498 13.3643C10.4971 13.3071 10.5108 13.2247 10.5283 13.1807C10.5577 13.1073 10.5544 13.1033 10.4883 13.124C10.4303 13.1423 10.4224 13.1375 10.4482 13.0996C10.4728 13.0633 10.4695 13.0591 10.4326 13.0811C10.4042 13.098 10.2805 13.0919 10.124 13.0654C9.98292 13.0416 9.87159 13.0153 9.87305 13.0059C9.87847 12.9973 9.83834 12.9883 9.7832 12.9873C9.72797 12.986 9.52789 12.9576 9.33887 12.9238C9.15013 12.8897 8.99577 12.8546 8.99609 12.8457C8.99566 12.8371 8.9485 12.8267 8.8916 12.8232C8.83392 12.8193 8.61551 12.7786 8.40527 12.7324L8.38477 12.7275C8.17794 12.6821 7.93212 12.6284 7.83008 12.6064C7.72482 12.5835 7.53128 12.5367 7.39941 12.502C7.26784 12.4672 6.91481 12.3714 6.61621 12.2891C6.31813 12.2069 6.01712 12.1118 5.94629 12.0781C5.87603 12.0446 5.78904 12.0176 5.75391 12.0176C5.71791 12.0172 5.53145 11.965 5.33887 11.9014C5.14572 11.8379 4.89424 11.7511 4.78027 11.708C4.66631 11.6646 4.56565 11.6162 4.55664 11.5996C4.5477 11.5833 4.49035 11.5653 4.42871 11.5596C4.36686 11.554 4.15173 11.4799 3.9502 11.3955C3.74931 11.3117 3.56979 11.2247 3.55078 11.2021C3.53324 11.1805 3.42539 11.1304 3.31152 11.0918C3.19725 11.0532 2.93143 10.928 2.7207 10.8135C2.50993 10.6989 2.27224 10.5608 2.19336 10.5068C2.11453 10.4529 2.03913 10.3935 2.02637 10.375C2.01334 10.3564 2.00195 10.3522 2.00195 10.3652C2.00044 10.3774 1.87543 10.303 1.72266 10.1992C1.56904 10.0949 1.3247 9.90431 1.18066 9.77637C1.03633 9.64812 0.892621 9.50789 0.861328 9.46387C0.829995 9.42014 0.75597 9.3407 0.696289 9.28809C0.636823 9.23526 0.511715 9.07764 0.417969 8.9375C0.317729 8.7876 0.201205 8.55389 0.134766 8.37109C0.0402353 8.1101 0.0192725 8.00459 0.00585938 7.7168C-0.00691063 7.44501 8.53861e-05 7.35855 0.0380859 7.30176C0.0642143 7.26187 0.0963099 7.14967 0.109375 7.05176C0.122469 6.95317 0.15213 6.85604 0.174805 6.83594C0.197704 6.81575 0.215799 6.77035 0.214844 6.73535C0.214693 6.6997 0.280191 6.57063 0.361328 6.44824C0.44322 6.32531 0.656255 6.0816 0.834961 5.90625C1.0138 5.73079 1.27389 5.50545 1.41309 5.40625C1.55269 5.30701 1.79612 5.15174 1.9541 5.06055C2.11214 4.96964 2.39161 4.82377 2.57617 4.7373C2.76076 4.65084 2.93011 4.58074 2.95215 4.58105C2.97443 4.58115 3.03877 4.55385 3.0957 4.51953C3.15296 4.48505 3.36472 4.39758 3.56641 4.3252C3.76824 4.25245 4.12795 4.13029 4.36523 4.05371C4.60249 3.97715 4.92596 3.87931 5.08398 3.83594C5.24194 3.79228 5.38177 3.7662 5.39453 3.77832C5.4073 3.79027 5.43575 3.78418 5.45801 3.76465C5.48036 3.74487 5.63144 3.69748 5.79395 3.66016C5.95597 3.62295 6.10275 3.60099 6.12109 3.60938C6.13866 3.61831 6.15332 3.61367 6.15332 3.60059C6.15475 3.5873 6.25141 3.55657 6.36914 3.53223C6.48785 3.50769 6.62803 3.48529 6.68066 3.48242C6.73336 3.47986 6.81244 3.47421 6.85645 3.4707C6.90013 3.46714 6.95527 3.45347 6.97852 3.44043C7.01201 3.42147 6.99372 3.30439 6.8877 2.85938C6.81456 2.55243 6.76322 2.28276 6.77344 2.26074C6.78442 2.23856 6.91097 2.16281 7.05566 2.0918C7.20055 2.02038 7.43367 1.92724 7.57422 1.88477C7.71474 1.84233 7.94542 1.78593 8.08594 1.75977C8.26564 1.72633 8.48787 1.71633 8.83594 1.72461ZM23.2871 3.65723C23.3138 3.65729 23.6338 3.74173 23.998 3.8457C24.3624 3.95004 24.8762 4.10994 25.1396 4.20117C25.4031 4.29211 25.7699 4.43065 25.9541 4.50879C26.1384 4.58698 26.4475 4.73018 26.6406 4.82617C26.8338 4.92254 27.171 5.1202 27.3906 5.26562C27.61 5.41144 27.9251 5.65843 28.0898 5.81445C28.2546 5.97014 28.4537 6.18382 28.5322 6.28906C28.6111 6.39432 28.7074 6.54488 28.7471 6.62402C28.7867 6.70315 28.814 6.7856 28.8076 6.80762C28.8013 6.82961 28.8106 6.84766 28.8281 6.84766C28.8458 6.84832 28.8912 6.9522 28.9297 7.0791C28.9846 7.25863 29.0006 7.38875 29 7.66113C28.9994 7.97182 28.9872 8.04713 28.8955 8.31543C28.8386 8.48229 28.7283 8.72239 28.6504 8.84961C28.5725 8.97689 28.4941 9.08105 28.4766 9.08105C28.459 9.08114 28.4443 9.10248 28.4443 9.12891C28.4437 9.15593 28.3115 9.31504 28.1494 9.4834C27.9869 9.6525 27.7312 9.88749 27.582 10.0059C27.4328 10.1242 27.1634 10.3162 26.9834 10.4326C26.8033 10.549 26.6566 10.6332 26.6572 10.6201C26.6571 10.6075 26.6246 10.627 26.585 10.6641C26.5446 10.7018 26.3618 10.8123 26.1777 10.9092C25.9936 11.0061 25.6698 11.1587 25.459 11.249C25.2482 11.3396 25.0468 11.4298 25.0117 11.4492C24.9765 11.4684 24.7822 11.5455 24.5801 11.6211C24.3788 11.6964 24.2037 11.7516 24.1895 11.7441C24.1764 11.7358 24.1617 11.7422 24.1572 11.7578C24.1509 11.774 23.9974 11.8383 23.8145 11.9014C23.6302 11.9649 23.4422 12.0169 23.3984 12.0166C23.3542 12.0165 23.2682 12.0434 23.207 12.0762C23.1453 12.1091 22.9154 12.1896 22.6963 12.2549C22.4766 12.3203 22.2605 12.3737 22.2168 12.374C22.1729 12.3744 22.1297 12.3857 22.1211 12.3984C22.1089 12.4123 21.8658 12.4818 21.5781 12.5537C21.2883 12.6261 20.822 12.7346 20.541 12.7949C20.26 12.8555 19.8643 12.9343 19.6621 12.9697L18.7363 13.1299C18.5343 13.165 18.2899 13.204 18.1934 13.2168C18.0969 13.2296 17.9532 13.2395 17.874 13.2383C17.7948 13.237 17.7225 13.2487 17.7139 13.2646C17.705 13.2806 17.6027 13.2966 17.4863 13.3008C17.3698 13.3049 17.2807 13.319 17.2871 13.332C17.2938 13.3451 17.2378 13.3578 17.1631 13.3594C17.0884 13.3607 16.9843 13.3657 16.9316 13.3711C16.8788 13.3762 16.7351 13.3959 16.6123 13.415C16.4892 13.4339 16.1225 13.4719 15.7979 13.499C15.4739 13.5264 15.1733 13.555 15.1279 13.5625C15.0839 13.5698 15.0262 13.5628 15 13.5469C14.9649 13.5258 14.9464 13.4342 14.9326 13.2061C14.9221 13.0341 14.9264 12.8755 14.9414 12.8535C14.9564 12.8307 14.9536 12.807 14.9355 12.7979C14.9166 12.787 14.9074 12.6359 14.9121 12.418C14.9166 12.2176 14.9083 12.041 14.8945 12.0264C14.881 12.0107 14.8708 11.9382 14.8711 11.8643C14.8718 11.7899 14.8909 11.7116 14.9141 11.6895C14.945 11.6601 15.326 11.638 16.3428 11.6074C17.1057 11.5844 17.7881 11.5598 17.8584 11.5527C17.9293 11.5454 18.1949 11.524 18.4492 11.5049C18.7041 11.486 19.185 11.4426 19.5186 11.4082C19.8523 11.3737 20.2187 11.3314 20.333 11.3145C20.4473 11.2975 20.627 11.2838 20.7324 11.2832C20.8378 11.2829 21.0176 11.2655 21.1318 11.2461C21.246 11.2266 21.3536 11.1989 21.3711 11.1846C21.389 11.1699 21.5722 11.1285 21.7783 11.0928C21.9846 11.0567 22.168 11.0344 22.1855 11.043C22.2031 11.0515 22.2349 11.0454 22.2568 11.0293C22.2789 11.013 22.4269 10.9706 22.585 10.9355C22.7429 10.9002 22.9081 10.8644 22.9521 10.8564C22.9967 10.8479 23.1835 10.8033 23.3672 10.7568C23.5516 10.7102 23.9183 10.6091 24.1816 10.5322C24.4451 10.455 24.855 10.3214 25.0918 10.2344C25.3285 10.1477 25.6263 10.0318 25.7539 9.97754C25.8809 9.92346 25.9854 9.88959 25.9863 9.90234C25.9863 9.91543 25.9976 9.9114 26.0107 9.89258C26.0235 9.87406 26.1599 9.79129 26.3135 9.70898C26.4659 9.62763 26.6049 9.56759 26.624 9.5752C26.6416 9.58379 26.6562 9.57705 26.6562 9.55957C26.6562 9.54205 26.6777 9.52739 26.7041 9.52734C26.7304 9.52734 26.7516 9.51344 26.752 9.49609C26.752 9.47856 26.8347 9.41509 26.9355 9.35547C27.0365 9.29548 27.2198 9.16866 27.3428 9.07422C27.4657 8.97978 27.5811 8.89633 27.5986 8.88867C27.6164 8.8804 27.7091 8.78005 27.8057 8.66602C27.902 8.55187 28.0281 8.37958 28.0859 8.2832C28.1434 8.18696 28.2154 8.02901 28.2451 7.93262C28.2748 7.83631 28.3111 7.74991 28.3252 7.74121C28.3392 7.7326 28.3286 7.57375 28.3018 7.38965C28.2663 7.14757 28.2228 6.99247 28.1455 6.83105C28.0867 6.7083 27.9686 6.51623 27.8828 6.4043C27.797 6.29216 27.7017 6.163 27.6709 6.11719C27.6406 6.07124 27.6042 6.03651 27.5908 6.03906C27.5773 6.0418 27.5019 5.98308 27.4229 5.90918C27.3437 5.83516 27.157 5.68364 27.0078 5.57324C26.8588 5.46293 26.6073 5.29296 26.4492 5.19531C26.2911 5.09736 25.9598 4.91511 25.7139 4.79004C25.468 4.665 25.1522 4.51108 25.0117 4.44824C24.8713 4.38545 24.6202 4.28192 24.4531 4.21777C24.2862 4.15366 24.1281 4.0896 24.1016 4.07617C24.0751 4.06245 23.8857 3.99502 23.6807 3.92578C23.4761 3.85671 23.3146 3.78963 23.3213 3.77637C23.3286 3.76329 23.3063 3.76329 23.2715 3.77637C23.2196 3.79573 23.2112 3.78858 23.2217 3.73633C23.2285 3.70214 23.2348 3.67062 23.2363 3.66504C23.2379 3.66057 23.2606 3.65723 23.2871 3.65723ZM16.4258 2.19727C16.4322 2.46479 16.4365 2.77308 16.4365 3.08203L16.2695 3.08301C16.1773 3.08301 15.9725 3.09739 15.8145 3.11523C15.6569 3.13336 15.4917 3.14968 15.4473 3.15137C15.4033 3.15296 15.3242 3.17371 15.2715 3.19727C15.2188 3.22088 15.0671 3.28363 14.9355 3.33691C14.8036 3.39023 14.6022 3.50372 14.4883 3.58887C14.3743 3.67411 14.2178 3.82073 14.1406 3.91504C14.0637 4.00978 13.9463 4.20243 13.8789 4.34277C13.8112 4.48312 13.7356 4.67705 13.7109 4.77344C13.6866 4.86887 13.6708 4.95484 13.6768 4.96484C13.6828 4.97346 13.7725 4.90202 13.875 4.80566C13.9774 4.70942 14.1386 4.59092 14.2344 4.54297C14.3302 4.49543 14.4952 4.43403 14.6006 4.40723C14.7059 4.38015 14.9211 4.3591 15.0791 4.35938C15.237 4.35969 15.4601 4.38209 15.5742 4.40918C15.6885 4.4363 15.8829 4.5114 16.0059 4.57617C16.1325 4.64251 16.3127 4.77608 16.4219 4.88477C16.5279 4.99001 16.6752 5.17696 16.749 5.2998C16.8228 5.42265 16.9188 5.62423 16.9619 5.74707C17.0053 5.87002 17.0644 6.10675 17.0938 6.27344C17.133 6.49684 17.1426 6.68052 17.1299 6.97461C17.1197 7.21295 17.0872 7.47034 17.0498 7.61328C17.0153 7.74501 16.9493 7.94569 16.9033 8.05957C16.857 8.1738 16.773 8.34602 16.7158 8.44238C16.659 8.53873 16.4832 8.74838 16.3252 8.9082C16.0777 9.15831 15.9955 9.21905 15.7344 9.34473C15.5674 9.42481 15.3266 9.51294 15.1992 9.54102C15.0718 9.56876 14.8457 9.5918 14.6963 9.5918C14.5468 9.59179 14.3208 9.56911 14.1934 9.54199C14.066 9.51489 13.8759 9.45713 13.7705 9.41406C13.6652 9.37071 13.5015 9.28953 13.4072 9.23242C13.313 9.17563 13.14 9.03512 13.0234 8.9209C12.907 8.80674 12.7448 8.60597 12.6621 8.47461C12.5791 8.34315 12.4604 8.10953 12.3984 7.95605C12.3362 7.80267 12.2569 7.55894 12.2227 7.41406C12.1882 7.26927 12.1442 6.99283 12.124 6.7998C12.1042 6.60677 12.0739 6.43454 12.0576 6.41699C12.0414 6.39938 12.0284 6.33484 12.0283 6.27344C12.0283 6.21252 12.0414 6.14785 12.0566 6.12988C12.0723 6.11234 12.1023 5.9254 12.123 5.71484C12.1435 5.50426 12.1878 5.19519 12.2217 5.02832C12.2552 4.86155 12.326 4.5896 12.3799 4.42285C12.4335 4.25606 12.5552 3.96159 12.6504 3.76855C12.7453 3.57603 12.86 3.37892 12.9053 3.33008C12.9506 3.2819 12.9803 3.24219 12.9717 3.24219C12.9635 3.24161 13.0245 3.15356 13.1074 3.0459C13.1908 2.93745 13.3741 2.75051 13.5146 2.63086C13.6552 2.51089 13.7955 2.41211 13.8262 2.41211C13.8571 2.41204 13.8968 2.38369 13.9141 2.34863C13.9321 2.31318 14.0912 2.21532 14.2734 2.12793C14.4535 2.0418 14.7013 1.94231 14.8242 1.90723C14.9472 1.87214 15.1339 1.8264 15.2393 1.80566C15.3446 1.78461 15.553 1.75625 15.7021 1.74316C15.8512 1.73009 16.0729 1.71796 16.4141 1.71094L16.4258 2.19727ZM20.3486 1.72266C20.6635 1.73095 20.775 1.74815 20.9717 1.81738C21.1032 1.86365 21.3046 1.96448 21.4189 2.04199C21.5333 2.11951 21.687 2.24935 21.7617 2.33008C21.8364 2.41042 21.9604 2.57306 22.0371 2.69141C22.1137 2.80963 22.22 3.00701 22.2734 3.12988C22.3268 3.25272 22.4085 3.476 22.4551 3.625C22.502 3.77424 22.568 4.06107 22.6025 4.2627C22.637 4.46466 22.6807 4.83816 22.6992 5.09277C22.7174 5.34728 22.7237 5.72023 22.7129 5.92188C22.702 6.12368 22.6784 6.42485 22.6602 6.5918C22.642 6.75864 22.5986 7.03136 22.5645 7.19824C22.53 7.36511 22.4586 7.63113 22.4053 7.78906C22.3519 7.94694 22.2452 8.19777 22.168 8.34668C22.091 8.49568 21.9486 8.71561 21.8516 8.83398C21.7542 8.95235 21.5991 9.1059 21.5068 9.1748C21.4146 9.24397 21.2461 9.34384 21.1318 9.39746C21.0175 9.45106 20.8231 9.51681 20.7002 9.54297C20.5772 9.56912 20.3542 9.59082 20.2051 9.59082C20.056 9.5908 19.8442 9.56879 19.7344 9.54297C19.6245 9.51681 19.4515 9.45905 19.3506 9.41406C19.2497 9.36874 19.1026 9.28396 19.0234 9.22656C18.9444 9.16956 18.8549 9.11306 18.8242 9.10156C18.7936 9.09008 18.7686 9.0517 18.7686 9.0166C18.7683 8.98168 18.744 8.94278 18.7148 8.92969C18.6858 8.91661 18.6014 8.81912 18.5273 8.71387C18.4533 8.60866 18.3353 8.40795 18.2656 8.26758C18.1957 8.12719 18.1007 7.89722 18.0547 7.75684C18.0087 7.61645 17.9494 7.40816 17.9229 7.29395C17.8964 7.18005 17.875 7.01445 17.875 6.92676C17.875 6.83916 17.8606 6.75287 17.8438 6.73535C17.8265 6.71572 17.7957 6.49446 17.7754 6.24121C17.7537 5.97326 17.747 5.59079 17.7588 5.33203C17.77 5.08635 17.8013 4.73391 17.8281 4.5498C17.8553 4.36574 17.8996 4.12868 17.9258 4.02344C17.9517 3.91809 18.0107 3.71738 18.0566 3.57715C18.1029 3.437 18.1595 3.2865 18.1826 3.24219C18.2056 3.19848 18.2249 3.14743 18.2246 3.12988C18.2255 3.11051 18.3048 2.96817 18.4023 2.81152C18.5115 2.63574 18.6761 2.4316 18.8271 2.28516C18.9961 2.12116 19.149 2.00746 19.3125 1.92578C19.4436 1.86019 19.6436 1.78565 19.7578 1.75977C19.8976 1.72787 20.0904 1.71566 20.3486 1.72266ZM14.6484 5.61523C14.552 5.60853 14.415 5.62188 14.3447 5.64453C14.2744 5.66726 14.1523 5.73166 14.0732 5.78711C13.9941 5.84263 13.8993 5.92781 13.8623 5.97656C13.8256 6.02573 13.7625 6.12995 13.7227 6.20898C13.6789 6.29513 13.641 6.44216 13.6289 6.57617C13.6149 6.72737 13.6257 6.89713 13.6621 7.10254C13.6915 7.26931 13.7472 7.48461 13.7861 7.58105C13.8248 7.67741 13.8971 7.81457 13.9463 7.88477C13.9955 7.95487 14.0759 8.04983 14.126 8.0957C14.1761 8.14165 14.2891 8.20241 14.377 8.23145C14.4648 8.26016 14.6051 8.28352 14.6885 8.2832C14.7718 8.28317 14.8942 8.2605 14.96 8.2334C15.0257 8.20619 15.1349 8.13138 15.2021 8.06641C15.2694 8.00173 15.3588 7.88014 15.4014 7.79688C15.4435 7.71361 15.5015 7.54806 15.5293 7.42969C15.5657 7.27531 15.5766 7.11074 15.5674 6.84766C15.5578 6.57166 15.5364 6.43296 15.4834 6.28906C15.4442 6.18393 15.3741 6.04805 15.3262 5.9873C15.2786 5.92668 15.2323 5.85694 15.2236 5.83301C15.2145 5.80864 15.1206 5.75351 15.0156 5.70898C14.9102 5.66432 14.7449 5.62162 14.6484 5.61523ZM20.2217 3.05078C20.1486 3.0511 20.0403 3.08195 19.9688 3.12305C19.9004 3.16261 19.7881 3.27377 19.7197 3.37012C19.6447 3.47569 19.5598 3.65852 19.5049 3.83203C19.4551 3.98986 19.3971 4.24828 19.376 4.40625C19.3549 4.56412 19.3282 4.75102 19.3164 4.82129C19.3049 4.89148 19.3039 5.35141 19.3145 5.84277C19.3282 6.46371 19.3494 6.82031 19.3857 7.01465C19.4148 7.16812 19.4711 7.39139 19.5107 7.50977C19.55 7.62811 19.6257 7.79577 19.6787 7.88281C19.7314 7.96992 19.8321 8.08172 19.9023 8.13086C19.9726 8.17994 20.0804 8.22972 20.1416 8.24023C20.203 8.25103 20.3074 8.25041 20.373 8.23926C20.4477 8.2271 20.542 8.1742 20.624 8.09961C20.6965 8.03388 20.7895 7.92273 20.8301 7.85254C20.8703 7.78231 20.9323 7.63139 20.9678 7.51758C21.0035 7.4034 21.0555 7.18806 21.083 7.03906C21.1105 6.8898 21.1478 6.52385 21.166 6.22559C21.189 5.851 21.1887 5.50532 21.166 5.1084C21.1478 4.79259 21.1105 4.40503 21.083 4.24707C21.0552 4.08913 20.9972 3.85917 20.9541 3.73633C20.9107 3.61353 20.8213 3.43258 20.7559 3.33398C20.661 3.19136 20.6065 3.14402 20.4922 3.10254C20.4132 3.07394 20.2919 3.05057 20.2217 3.05078ZM23.1113 0.00390625C23.2374 0.0134696 23.3814 0.04918 23.4785 0.0957031C23.5663 0.138139 23.7067 0.24628 23.79 0.335938C23.8733 0.42523 23.9414 0.51975 23.9414 0.545898C23.9414 0.572391 23.9674 0.633135 23.998 0.680664C24.0387 0.743492 24.0537 0.832815 24.0537 1.00879C24.0537 1.18494 24.0388 1.2741 23.998 1.33691C23.9676 1.38418 23.9417 1.44429 23.9414 1.4707C23.9414 1.49716 23.8666 1.59839 23.7744 1.69531C23.6735 1.80156 23.5424 1.89927 23.4463 1.94043C23.3315 1.98974 23.2196 2.00977 23.0479 2.01074C22.8588 2.0117 22.7715 1.99515 22.6357 1.93262C22.5377 1.88758 22.4034 1.78855 22.3242 1.70215C22.2477 1.61887 22.1535 1.48259 22.1143 1.39941C22.0606 1.28493 22.043 1.18953 22.043 1.00879C22.043 0.837022 22.0609 0.728921 22.1074 0.625977C22.1432 0.54722 22.2362 0.412348 22.3145 0.327148C22.3927 0.241639 22.5 0.149191 22.5527 0.12207C22.6055 0.0946308 22.7062 0.0535392 22.7764 0.0302734C22.8556 0.00385443 22.9828 -0.00564716 23.1113 0.00390625ZM22.9355 0.561523C22.9177 0.562078 22.8601 0.590367 22.8076 0.625C22.7549 0.659501 22.6869 0.735588 22.6562 0.792969C22.6254 0.850468 22.6006 0.95438 22.6006 1.02441C22.6009 1.09908 22.6274 1.19221 22.665 1.24805C22.7005 1.30068 22.7685 1.36879 22.8164 1.39941C22.8642 1.43 22.961 1.45468 23.0312 1.45508C23.1015 1.45508 23.2075 1.43035 23.2666 1.39941C23.3257 1.36878 23.4014 1.29302 23.4346 1.23145C23.4676 1.16992 23.495 1.07025 23.4951 1.00879C23.4951 0.947209 23.4678 0.846736 23.4346 0.785156C23.4001 0.721461 23.3231 0.648153 23.2549 0.614258C23.154 0.564484 23.1278 0.562259 23.0898 0.598633C23.0537 0.633434 23.0377 0.633038 23.0068 0.600586C22.9854 0.578572 22.9531 0.561204 22.9355 0.561523Z" fill="black"/>
</svg>
