<svg width="97" height="13" viewBox="0 0 97 13" fill="none" xmlns="http://www.w3.org/2000/svg">
<path d="M6.032 12V9.584H0.832V8.592L6.256 0.719999H7.36V8.464H9.04V9.584H7.36V12H6.032ZM6.032 8.464V2.304H6.416L1.952 8.816V8.464H6.032ZM11.0178 12V0.719999H12.1218L16.6978 9.312H16.2178L20.7618 0.719999H21.8658V12H20.6498V2.48H21.0338L16.8898 10.256H16.0258L11.8338 2.464H12.2178V12H11.0178ZM24.6733 12V0.719999H29.1373C29.9479 0.719999 30.6306 0.853333 31.1853 1.12C31.7506 1.376 32.1773 1.76 32.4653 2.272C32.7533 2.77333 32.8973 3.38667 32.8973 4.112C32.8973 4.816 32.7533 5.424 32.4653 5.936C32.1773 6.448 31.7506 6.83733 31.1853 7.104C30.6306 7.37067 29.9479 7.504 29.1373 7.504H25.9853V12H24.6733ZM25.9853 6.4H28.9773C29.8413 6.4 30.4919 6.208 30.9293 5.824C31.3773 5.42933 31.6013 4.85867 31.6013 4.112C31.6013 3.35467 31.3773 2.784 30.9293 2.4C30.4919 2.00533 29.8413 1.808 28.9773 1.808H25.9853V6.4ZM34.0895 8.272V7.2H38.5695V8.272H34.0895ZM41.1108 12V0.719999H44.9188C46.1454 0.719999 47.1801 0.938666 48.0228 1.376C48.8761 1.80267 49.5214 2.43733 49.9588 3.28C50.4068 4.112 50.6308 5.136 50.6308 6.352C50.6308 7.568 50.4068 8.59733 49.9588 9.44C49.5214 10.2827 48.8761 10.9227 48.0228 11.36C47.1801 11.7867 46.1454 12 44.9188 12H41.1108ZM42.4228 10.88H44.8228C46.3054 10.88 47.4094 10.5013 48.1348 9.744C48.8708 8.98667 49.2388 7.856 49.2388 6.352C49.2388 4.848 48.8708 3.72267 48.1348 2.976C47.3988 2.21867 46.2948 1.84 44.8228 1.84H42.4228V10.88ZM57.8658 12.144C56.7564 12.144 55.8071 11.9093 55.0178 11.44C54.2284 10.9707 53.6204 10.304 53.1938 9.44C52.7778 8.576 52.5698 7.54667 52.5698 6.352C52.5698 5.15733 52.7778 4.13333 53.1938 3.28C53.6204 2.416 54.2284 1.74933 55.0178 1.28C55.8071 0.810666 56.7564 0.575999 57.8658 0.575999C58.6444 0.575999 59.3644 0.698666 60.0258 0.943999C60.6871 1.18933 61.2418 1.54667 61.6898 2.016L61.1778 3.088C60.6871 2.62933 60.1751 2.29867 59.6418 2.096C59.1191 1.88267 58.5378 1.776 57.8978 1.776C56.6284 1.776 55.6578 2.176 54.9858 2.976C54.3138 3.776 53.9778 4.90133 53.9778 6.352C53.9778 7.80267 54.3138 8.93333 54.9858 9.744C55.6578 10.544 56.6284 10.944 57.8978 10.944C58.5378 10.944 59.1191 10.8427 59.6418 10.64C60.1751 10.4267 60.6871 10.0907 61.1778 9.632L61.6898 10.704C61.2418 11.1627 60.6871 11.52 60.0258 11.776C59.3644 12.0213 58.6444 12.144 57.8658 12.144ZM63.0426 8.272V7.2H67.5226V8.272H63.0426ZM70.6559 12V10.88H73.2319V1.856H73.9199L71.1999 3.584L70.6399 2.608L73.5999 0.719999H74.5439V10.88H76.9599V12H70.6559ZM79.7056 12V11.008L83.5616 6.848C83.9243 6.45333 84.2176 6.08533 84.4416 5.744C84.6656 5.392 84.831 5.05067 84.9376 4.72C85.0443 4.38933 85.0976 4.05333 85.0976 3.712C85.0976 3.072 84.9003 2.58667 84.5056 2.256C84.1216 1.91467 83.5563 1.744 82.8096 1.744C82.2336 1.744 81.695 1.85067 81.1936 2.064C80.703 2.26667 80.2336 2.58667 79.7856 3.024L79.2896 2C79.7056 1.57333 80.2336 1.232 80.8736 0.976C81.5243 0.709333 82.207 0.575999 82.9216 0.575999C83.679 0.575999 84.319 0.693333 84.8416 0.927999C85.3643 1.16267 85.759 1.50933 86.0256 1.968C86.2923 2.416 86.4256 2.96533 86.4256 3.616C86.4256 3.95733 86.383 4.29333 86.2976 4.624C86.223 4.944 86.1003 5.26933 85.9296 5.6C85.7696 5.92 85.5616 6.25067 85.3056 6.592C85.0603 6.93333 84.7616 7.28533 84.4096 7.648L81.0176 11.248V10.88H86.8896V12H79.7056ZM92.6594 12.144C91.806 12.144 91.0807 11.9253 90.4834 11.488C89.8967 11.04 89.454 10.384 89.1554 9.52C88.8567 8.656 88.7074 7.6 88.7074 6.352C88.7074 5.09333 88.8567 4.03733 89.1554 3.184C89.454 2.32 89.8967 1.66933 90.4834 1.232C91.0807 0.794666 91.806 0.575999 92.6594 0.575999C93.5234 0.575999 94.2487 0.794666 94.8354 1.232C95.422 1.66933 95.8647 2.31467 96.1634 3.168C96.462 4.02133 96.6114 5.07733 96.6114 6.336C96.6114 7.59467 96.462 8.656 96.1634 9.52C95.8647 10.384 95.422 11.04 94.8354 11.488C94.2487 11.9253 93.5234 12.144 92.6594 12.144ZM92.6594 11.008C93.5554 11.008 94.2167 10.6293 94.6434 9.872C95.0807 9.11467 95.2994 7.936 95.2994 6.336C95.2994 4.736 95.086 3.568 94.6594 2.832C94.2327 2.08533 93.566 1.712 92.6594 1.712C91.774 1.712 91.1127 2.08533 90.6754 2.832C90.238 3.57867 90.0194 4.74667 90.0194 6.336C90.0194 7.936 90.2327 9.11467 90.6594 9.872C91.0967 10.6293 91.7634 11.008 92.6594 11.008Z" fill="black"/>
</svg>
