<svg width="87" height="13" viewBox="0 0 87 13" fill="none" xmlns="http://www.w3.org/2000/svg">
<path d="M6.14138 12V9.584H0.941375V8.592L6.36538 0.719999H7.46938V8.464H9.14937V9.584H7.46938V12H6.14138ZM6.14138 8.464V2.304H6.52538L2.06138 8.816V8.464H6.14138ZM11.1271 12V0.719999H12.2311L16.8071 9.312H16.3271L20.8711 0.719999H21.9751V12H20.7591V2.48H21.1431L16.9991 10.256H16.1351L11.9431 2.464H12.3271V12H11.1271ZM24.7826 12V0.719999H29.2466C30.0573 0.719999 30.74 0.853333 31.2946 1.12C31.86 1.376 32.2866 1.76 32.5746 2.272C32.8626 2.77333 33.0066 3.38667 33.0066 4.112C33.0066 4.816 32.8626 5.424 32.5746 5.936C32.2866 6.448 31.86 6.83733 31.2946 7.104C30.74 7.37067 30.0573 7.504 29.2466 7.504H26.0946V12H24.7826ZM26.0946 6.4H29.0866C29.9506 6.4 30.6013 6.208 31.0386 5.824C31.4866 5.42933 31.7106 4.85867 31.7106 4.112C31.7106 3.35467 31.4866 2.784 31.0386 2.4C30.6013 2.00533 29.9506 1.808 29.0866 1.808H26.0946V6.4ZM34.1989 8.272V7.2H38.6789V8.272H34.1989ZM46.3721 12.144C45.1668 12.144 44.1481 11.9147 43.3161 11.456C42.4948 10.9973 41.8708 10.336 41.4441 9.472C41.0175 8.608 40.8041 7.57333 40.8041 6.368C40.8041 5.17333 41.0175 4.144 41.4441 3.28C41.8708 2.416 42.4841 1.74933 43.2841 1.28C44.0841 0.810666 45.0495 0.575999 46.1801 0.575999C46.7135 0.575999 47.2148 0.629333 47.6841 0.735999C48.1641 0.842666 48.6068 1.00267 49.0121 1.216C49.4281 1.41867 49.7908 1.67467 50.1001 1.984L49.5881 3.04C49.0761 2.592 48.5481 2.26667 48.0041 2.064C47.4601 1.86133 46.8468 1.76 46.1641 1.76C44.8735 1.76 43.8868 2.16 43.2041 2.96C42.5321 3.76 42.1961 4.896 42.1961 6.368C42.1961 7.86133 42.5428 9.00267 43.2361 9.792C43.9401 10.5813 44.9961 10.976 46.4041 10.976C46.9161 10.976 47.4175 10.928 47.9081 10.832C48.3988 10.7253 48.8628 10.5813 49.3001 10.4L49.0121 11.152V7.168H46.1481V6.128H50.1481V11.344C49.8601 11.4933 49.5028 11.632 49.0761 11.76C48.6495 11.8773 48.2015 11.968 47.7321 12.032C47.2628 12.1067 46.8095 12.144 46.3721 12.144ZM52.5895 8.272V7.2H57.0695V8.272H52.5895ZM59.6588 12V11.008L63.5148 6.848C63.8774 6.45333 64.1708 6.08533 64.3948 5.744C64.6188 5.392 64.7841 5.05067 64.8908 4.72C64.9974 4.38933 65.0508 4.05333 65.0508 3.712C65.0508 3.072 64.8534 2.58667 64.4588 2.256C64.0748 1.91467 63.5094 1.744 62.7628 1.744C62.1868 1.744 61.6481 1.85067 61.1468 2.064C60.6561 2.26667 60.1868 2.58667 59.7388 3.024L59.2428 2C59.6588 1.57333 60.1868 1.232 60.8268 0.976C61.4774 0.709333 62.1601 0.575999 62.8748 0.575999C63.6321 0.575999 64.2721 0.693333 64.7948 0.927999C65.3174 1.16267 65.7121 1.50933 65.9788 1.968C66.2454 2.416 66.3788 2.96533 66.3788 3.616C66.3788 3.95733 66.3361 4.29333 66.2508 4.624C66.1761 4.944 66.0534 5.26933 65.8828 5.6C65.7228 5.92 65.5148 6.25067 65.2588 6.592C65.0134 6.93333 64.7148 7.28533 64.3628 7.648L60.9708 11.248V10.88H66.8428V12H59.6588ZM72.8525 12.144C72.3725 12.144 71.9032 12.0907 71.4445 11.984C70.9858 11.8773 70.5538 11.7227 70.1485 11.52C69.7538 11.3173 69.4018 11.0773 69.0925 10.8L69.5885 9.76C70.1005 10.176 70.6178 10.4853 71.1405 10.688C71.6738 10.88 72.2392 10.976 72.8365 10.976C73.6258 10.976 74.2392 10.7573 74.6765 10.32C75.1245 9.88267 75.3485 9.30667 75.3485 8.592C75.3485 7.856 75.1352 7.25333 74.7085 6.784C74.2818 6.31467 73.6952 6.08 72.9485 6.08C72.4045 6.08 71.9245 6.192 71.5085 6.416C71.1032 6.62933 70.7352 6.96533 70.4045 7.424H69.4445V0.719999H75.9885V1.84H70.7405V6.336H70.3885C70.6658 5.888 71.0498 5.54667 71.5405 5.312C72.0312 5.06667 72.5805 4.944 73.1885 4.944C73.9032 4.944 74.5165 5.09333 75.0285 5.392C75.5512 5.69067 75.9512 6.112 76.2285 6.656C76.5165 7.18933 76.6605 7.81333 76.6605 8.528C76.6605 9.232 76.5058 9.856 76.1965 10.4C75.8872 10.944 75.4498 11.3707 74.8845 11.68C74.3192 11.9893 73.6418 12.144 72.8525 12.144ZM82.2063 12.144C81.3529 12.144 80.6276 11.9253 80.0303 11.488C79.4436 11.04 79.0009 10.384 78.7023 9.52C78.4036 8.656 78.2543 7.6 78.2543 6.352C78.2543 5.09333 78.4036 4.03733 78.7023 3.184C79.0009 2.32 79.4436 1.66933 80.0303 1.232C80.6276 0.794666 81.3529 0.575999 82.2063 0.575999C83.0703 0.575999 83.7956 0.794666 84.3823 1.232C84.9689 1.66933 85.4116 2.31467 85.7103 3.168C86.0089 4.02133 86.1583 5.07733 86.1583 6.336C86.1583 7.59467 86.0089 8.656 85.7103 9.52C85.4116 10.384 84.9689 11.04 84.3823 11.488C83.7956 11.9253 83.0703 12.144 82.2063 12.144ZM82.2063 11.008C83.1023 11.008 83.7636 10.6293 84.1903 9.872C84.6276 9.11467 84.8463 7.936 84.8463 6.336C84.8463 4.736 84.6329 3.568 84.2063 2.832C83.7796 2.08533 83.1129 1.712 82.2063 1.712C81.3209 1.712 80.6596 2.08533 80.2223 2.832C79.7849 3.57867 79.5663 4.74667 79.5663 6.336C79.5663 7.936 79.7796 9.11467 80.2063 9.872C80.6436 10.6293 81.3103 11.008 82.2063 11.008Z" fill="black"/>
</svg>
