<svg width="96" height="13" viewBox="0 0 96 13" fill="none" xmlns="http://www.w3.org/2000/svg">
<path d="M6.032 12V9.584H0.832V8.592L6.256 0.719999H7.36V8.464H9.04V9.584H7.36V12H6.032ZM6.032 8.464V2.304H6.416L1.952 8.816V8.464H6.032ZM11.0178 12V0.719999H12.1218L16.6978 9.312H16.2178L20.7618 0.719999H21.8658V12H20.6498V2.48H21.0338L16.8898 10.256H16.0258L11.8338 2.464H12.2178V12H11.0178ZM24.6733 12V0.719999H29.1373C29.9479 0.719999 30.6306 0.853333 31.1853 1.12C31.7506 1.376 32.1773 1.76 32.4653 2.272C32.7533 2.77333 32.8973 3.38667 32.8973 4.112C32.8973 4.816 32.7533 5.424 32.4653 5.936C32.1773 6.448 31.7506 6.83733 31.1853 7.104C30.6306 7.37067 29.9479 7.504 29.1373 7.504H25.9853V12H24.6733ZM25.9853 6.4H28.9773C29.8413 6.4 30.4919 6.208 30.9293 5.824C31.3773 5.42933 31.6013 4.85867 31.6013 4.112C31.6013 3.35467 31.3773 2.784 30.9293 2.4C30.4919 2.00533 29.8413 1.808 28.9773 1.808H25.9853V6.4ZM34.0895 8.272V7.2H38.5695V8.272H34.0895ZM44.4463 12.144C43.8596 12.144 43.3049 12.0907 42.7823 11.984C42.2703 11.8773 41.7956 11.728 41.3583 11.536C40.9316 11.3333 40.5423 11.088 40.1903 10.8L40.6543 9.744C41.0169 10.0107 41.3849 10.24 41.7582 10.432C42.1423 10.6133 42.5529 10.752 42.9903 10.848C43.4383 10.9333 43.9236 10.976 44.4463 10.976C45.4063 10.976 46.1156 10.8 46.5743 10.448C47.0436 10.0853 47.2783 9.61067 47.2783 9.024C47.2783 8.71467 47.2036 8.448 47.0543 8.224C46.9156 8 46.6809 7.808 46.3503 7.648C46.0303 7.488 45.6089 7.35467 45.0863 7.248L43.4223 6.912C42.4196 6.69867 41.6676 6.352 41.1663 5.872C40.6756 5.38133 40.4303 4.73067 40.4303 3.92C40.4303 3.248 40.6009 2.66133 40.9423 2.16C41.2943 1.65867 41.7796 1.26933 42.3983 0.992C43.0276 0.714666 43.7423 0.575999 44.5423 0.575999C45.0543 0.575999 45.5396 0.629333 45.9983 0.735999C46.4569 0.842666 46.8783 1.00267 47.2623 1.216C47.6569 1.41867 48.0036 1.66933 48.3023 1.968L47.8383 2.992C47.3583 2.55467 46.8516 2.24 46.3183 2.048C45.7849 1.84533 45.1876 1.744 44.5263 1.744C43.9609 1.744 43.4703 1.82933 43.0543 2C42.6489 2.17067 42.3289 2.42133 42.0943 2.752C41.8703 3.072 41.7582 3.44533 41.7582 3.872C41.7582 4.384 41.9129 4.78933 42.2223 5.088C42.5423 5.38667 43.0596 5.60533 43.7743 5.744L45.4383 6.096C46.5156 6.32 47.3103 6.66133 47.8223 7.12C48.3449 7.568 48.6063 8.18133 48.6063 8.96C48.6063 9.57867 48.4356 10.1333 48.0943 10.624C47.7636 11.104 47.2836 11.4773 46.6543 11.744C46.0356 12.0107 45.2996 12.144 44.4463 12.144ZM55.794 12.144C54.5887 12.144 53.57 11.9147 52.738 11.456C51.9167 10.9973 51.2927 10.336 50.866 9.472C50.4393 8.608 50.226 7.57333 50.226 6.368C50.226 5.17333 50.4393 4.144 50.866 3.28C51.2927 2.416 51.906 1.74933 52.706 1.28C53.506 0.810666 54.4713 0.575999 55.602 0.575999C56.1353 0.575999 56.6367 0.629333 57.106 0.735999C57.586 0.842666 58.0287 1.00267 58.434 1.216C58.85 1.41867 59.2127 1.67467 59.522 1.984L59.01 3.04C58.498 2.592 57.97 2.26667 57.426 2.064C56.882 1.86133 56.2687 1.76 55.586 1.76C54.2953 1.76 53.3087 2.16 52.626 2.96C51.954 3.76 51.618 4.896 51.618 6.368C51.618 7.86133 51.9647 9.00267 52.658 9.792C53.362 10.5813 54.418 10.976 55.826 10.976C56.338 10.976 56.8393 10.928 57.33 10.832C57.8207 10.7253 58.2847 10.5813 58.722 10.4L58.434 11.152V7.168H55.57V6.128H59.57V11.344C59.282 11.4933 58.9247 11.632 58.498 11.76C58.0713 11.8773 57.6233 11.968 57.154 12.032C56.6847 12.1067 56.2313 12.144 55.794 12.144ZM62.0114 8.272V7.2H66.4914V8.272H62.0114ZM69.0806 12V11.008L72.9366 6.848C73.2993 6.45333 73.5926 6.08533 73.8166 5.744C74.0406 5.392 74.206 5.05067 74.3126 4.72C74.4193 4.38933 74.4726 4.05333 74.4726 3.712C74.4726 3.072 74.2753 2.58667 73.8806 2.256C73.4966 1.91467 72.9313 1.744 72.1846 1.744C71.6086 1.744 71.07 1.85067 70.5686 2.064C70.078 2.26667 69.6086 2.58667 69.1606 3.024L68.6646 2C69.0806 1.57333 69.6086 1.232 70.2486 0.976C70.8993 0.709333 71.582 0.575999 72.2966 0.575999C73.054 0.575999 73.694 0.693333 74.2166 0.927999C74.7393 1.16267 75.134 1.50933 75.4006 1.968C75.6673 2.416 75.8006 2.96533 75.8006 3.616C75.8006 3.95733 75.758 4.29333 75.6726 4.624C75.598 4.944 75.4753 5.26933 75.3046 5.6C75.1446 5.92 74.9366 6.25067 74.6806 6.592C74.4353 6.93333 74.1366 7.28533 73.7846 7.648L70.3926 11.248V10.88H76.2646V12H69.0806ZM82.2744 12.144C81.7944 12.144 81.325 12.0907 80.8664 11.984C80.4077 11.8773 79.9757 11.7227 79.5704 11.52C79.1757 11.3173 78.8237 11.0773 78.5144 10.8L79.0104 9.76C79.5224 10.176 80.0397 10.4853 80.5624 10.688C81.0957 10.88 81.661 10.976 82.2584 10.976C83.0477 10.976 83.661 10.7573 84.0984 10.32C84.5464 9.88267 84.7704 9.30667 84.7704 8.592C84.7704 7.856 84.557 7.25333 84.1304 6.784C83.7037 6.31467 83.117 6.08 82.3704 6.08C81.8264 6.08 81.3464 6.192 80.9304 6.416C80.525 6.62933 80.157 6.96533 79.8264 7.424H78.8664V0.719999H85.4104V1.84H80.1624V6.336H79.8104C80.0877 5.888 80.4717 5.54667 80.9624 5.312C81.453 5.06667 82.0024 4.944 82.6104 4.944C83.325 4.944 83.9384 5.09333 84.4504 5.392C84.973 5.69067 85.373 6.112 85.6504 6.656C85.9384 7.18933 86.0824 7.81333 86.0824 8.528C86.0824 9.232 85.9277 9.856 85.6184 10.4C85.309 10.944 84.8717 11.3707 84.3064 11.68C83.741 11.9893 83.0637 12.144 82.2744 12.144ZM91.6281 12.144C90.7748 12.144 90.0495 11.9253 89.4521 11.488C88.8655 11.04 88.4228 10.384 88.1241 9.52C87.8255 8.656 87.6761 7.6 87.6761 6.352C87.6761 5.09333 87.8255 4.03733 88.1241 3.184C88.4228 2.32 88.8655 1.66933 89.4521 1.232C90.0495 0.794666 90.7748 0.575999 91.6281 0.575999C92.4921 0.575999 93.2175 0.794666 93.8041 1.232C94.3908 1.66933 94.8335 2.31467 95.1321 3.168C95.4308 4.02133 95.5801 5.07733 95.5801 6.336C95.5801 7.59467 95.4308 8.656 95.1321 9.52C94.8335 10.384 94.3908 11.04 93.8041 11.488C93.2175 11.9253 92.4921 12.144 91.6281 12.144ZM91.6281 11.008C92.5241 11.008 93.1855 10.6293 93.6121 9.872C94.0495 9.11467 94.2681 7.936 94.2681 6.336C94.2681 4.736 94.0548 3.568 93.6281 2.832C93.2015 2.08533 92.5348 1.712 91.6281 1.712C90.7428 1.712 90.0815 2.08533 89.6441 2.832C89.2068 3.57867 88.9881 4.74667 88.9881 6.336C88.9881 7.936 89.2015 9.11467 89.6281 9.872C90.0655 10.6293 90.7321 11.008 91.6281 11.008Z" fill="black"/>
</svg>
