<svg width="85" height="13" viewBox="0 0 85 13" fill="none" xmlns="http://www.w3.org/2000/svg">
<path d="M6.032 12V9.584H0.832V8.592L6.256 0.719999H7.36V8.464H9.04V9.584H7.36V12H6.032ZM6.032 8.464V2.304H6.416L1.952 8.816V8.464H6.032ZM11.0178 12V0.719999H12.1218L16.6978 9.312H16.2178L20.7618 0.719999H21.8658V12H20.6498V2.48H21.0338L16.8898 10.256H16.0258L11.8338 2.464H12.2178V12H11.0178ZM24.6733 12V0.719999H29.1373C29.9479 0.719999 30.6306 0.853333 31.1853 1.12C31.7506 1.376 32.1773 1.76 32.4653 2.272C32.7533 2.77333 32.8973 3.38667 32.8973 4.112C32.8973 4.816 32.7533 5.424 32.4653 5.936C32.1773 6.448 31.7506 6.83733 31.1853 7.104C30.6306 7.37067 29.9479 7.504 29.1373 7.504H25.9853V12H24.6733ZM25.9853 6.4H28.9773C29.8413 6.4 30.4919 6.208 30.9293 5.824C31.3773 5.42933 31.6013 4.85867 31.6013 4.112C31.6013 3.35467 31.3773 2.784 30.9293 2.4C30.4919 2.00533 29.8413 1.808 28.9773 1.808H25.9853V6.4ZM34.0895 8.272V7.2H38.5695V8.272H34.0895ZM41.1108 12V0.719999H45.5748C46.7801 0.719999 47.7081 1.00267 48.3588 1.568C49.0094 2.13333 49.3348 2.93867 49.3348 3.984C49.3348 4.64533 49.1854 5.22133 48.8868 5.712C48.5988 6.192 48.1721 6.56 47.6068 6.816C47.0414 7.06133 46.3641 7.184 45.5748 7.184L45.7348 6.976H46.0548C46.4708 6.976 46.8334 7.08267 47.1428 7.296C47.4521 7.50933 47.7348 7.85067 47.9908 8.32L49.9748 12H48.5347L46.5828 8.384C46.4228 8.08533 46.2414 7.85067 46.0388 7.68C45.8468 7.50933 45.6228 7.392 45.3668 7.328C45.1214 7.264 44.8228 7.232 44.4708 7.232H42.4228V12H41.1108ZM42.4228 6.192H45.3828C46.2574 6.192 46.9188 6.01067 47.3668 5.648C47.8148 5.27467 48.0388 4.72 48.0388 3.984C48.0388 3.26933 47.8148 2.73067 47.3668 2.368C46.9188 1.99467 46.2574 1.808 45.3828 1.808H42.4228V6.192ZM51.3239 8.272V7.2H55.8039V8.272H51.3239ZM58.3931 12V11.008L62.2491 6.848C62.6118 6.45333 62.9051 6.08533 63.1291 5.744C63.3531 5.392 63.5185 5.05067 63.6251 4.72C63.7318 4.38933 63.7851 4.05333 63.7851 3.712C63.7851 3.072 63.5878 2.58667 63.1931 2.256C62.8091 1.91467 62.2438 1.744 61.4971 1.744C60.9211 1.744 60.3825 1.85067 59.8811 2.064C59.3905 2.26667 58.9211 2.58667 58.4731 3.024L57.9771 2C58.3931 1.57333 58.9211 1.232 59.5611 0.976C60.2118 0.709333 60.8945 0.575999 61.6091 0.575999C62.3665 0.575999 63.0065 0.693333 63.5291 0.927999C64.0518 1.16267 64.4465 1.50933 64.7131 1.968C64.9798 2.416 65.1131 2.96533 65.1131 3.616C65.1131 3.95733 65.0705 4.29333 64.9851 4.624C64.9105 4.944 64.7878 5.26933 64.6171 5.6C64.4571 5.92 64.2491 6.25067 63.9931 6.592C63.7478 6.93333 63.4491 7.28533 63.0971 7.648L59.7051 11.248V10.88H65.5771V12H58.3931ZM71.5869 12.144C71.1069 12.144 70.6375 12.0907 70.1789 11.984C69.7202 11.8773 69.2882 11.7227 68.8829 11.52C68.4882 11.3173 68.1362 11.0773 67.8269 10.8L68.3229 9.76C68.8349 10.176 69.3522 10.4853 69.8749 10.688C70.4082 10.88 70.9735 10.976 71.5709 10.976C72.3602 10.976 72.9735 10.7573 73.4109 10.32C73.8589 9.88267 74.0829 9.30667 74.0829 8.592C74.0829 7.856 73.8695 7.25333 73.4429 6.784C73.0162 6.31467 72.4295 6.08 71.6829 6.08C71.1389 6.08 70.6589 6.192 70.2429 6.416C69.8375 6.62933 69.4695 6.96533 69.1389 7.424H68.1789V0.719999H74.7229V1.84H69.4749V6.336H69.1229C69.4002 5.888 69.7842 5.54667 70.2749 5.312C70.7655 5.06667 71.3149 4.944 71.9229 4.944C72.6375 4.944 73.2509 5.09333 73.7629 5.392C74.2855 5.69067 74.6855 6.112 74.9629 6.656C75.2509 7.18933 75.3949 7.81333 75.3949 8.528C75.3949 9.232 75.2402 9.856 74.9309 10.4C74.6215 10.944 74.1842 11.3707 73.6189 11.68C73.0535 11.9893 72.3762 12.144 71.5869 12.144ZM80.9406 12.144C80.0873 12.144 79.362 11.9253 78.7646 11.488C78.178 11.04 77.7353 10.384 77.4366 9.52C77.138 8.656 76.9886 7.6 76.9886 6.352C76.9886 5.09333 77.138 4.03733 77.4366 3.184C77.7353 2.32 78.178 1.66933 78.7646 1.232C79.362 0.794666 80.0873 0.575999 80.9406 0.575999C81.8046 0.575999 82.53 0.794666 83.1166 1.232C83.7033 1.66933 84.146 2.31467 84.4446 3.168C84.7433 4.02133 84.8926 5.07733 84.8926 6.336C84.8926 7.59467 84.7433 8.656 84.4446 9.52C84.146 10.384 83.7033 11.04 83.1166 11.488C82.53 11.9253 81.8046 12.144 80.9406 12.144ZM80.9406 11.008C81.8366 11.008 82.498 10.6293 82.9246 9.872C83.362 9.11467 83.5806 7.936 83.5806 6.336C83.5806 4.736 83.3673 3.568 82.9406 2.832C82.514 2.08533 81.8473 1.712 80.9406 1.712C80.0553 1.712 79.394 2.08533 78.9566 2.832C78.5193 3.57867 78.3006 4.74667 78.3006 6.336C78.3006 7.936 78.514 9.11467 78.9406 9.872C79.378 10.6293 80.0446 11.008 80.9406 11.008Z" fill="black"/>
</svg>
