<svg width="136" height="83" viewBox="0 0 136 83" fill="none" xmlns="http://www.w3.org/2000/svg">
<g filter="url(#filter0_d_271_374)">
<rect x="4" y="25" width="128" height="50" rx="2" fill="white"/>
<rect x="4.25" y="25.25" width="127.5" height="49.5" rx="1.75" stroke="white" stroke-width="0.5"/>
</g>
<rect x="52.3438" y="0.423828" width="30.1132" height="30.1144" rx="3" fill="#CB3335"/>
<g clip-path="url(#clip0_271_374)">
<path fill-rule="evenodd" clip-rule="evenodd" d="M66.8834 2.84091C66.9651 2.83583 67.0506 2.84938 67.0739 2.87056C67.0972 2.89173 67.7358 3.22755 68.4925 3.61716C69.2497 4.00634 70.1928 4.49208 70.5887 4.6962C70.9846 4.89989 72.6904 5.7765 74.3787 6.64422C76.0675 7.51151 77.4815 8.25261 77.5217 8.29072C77.5894 8.35509 77.5945 8.7104 77.5971 13.6745C77.5992 17.9258 77.5886 19.0044 77.5454 19.0663C77.5158 19.1086 75.1189 20.3524 72.219 21.8299C69.3191 23.3079 66.9088 24.5169 66.8622 24.5169C66.8156 24.5169 66.5679 24.406 66.3117 24.2709C66.0555 24.1354 63.6561 22.9013 60.9798 21.5284C56.9696 19.4707 56.0998 19.0091 56.0341 18.9045C55.9727 18.8067 55.9583 18.7194 55.971 18.5234C55.9804 18.3836 56.021 16.0303 56.0612 13.2933C56.1019 10.5564 56.1523 8.26955 56.1735 8.21153C56.2056 8.12302 57.0733 7.6754 61.4736 5.47795C64.9896 3.72176 66.7843 2.84727 66.8834 2.84091ZM57.2194 8.35636C57.2245 8.36992 57.8809 8.72776 58.6787 9.15167C59.4765 9.57557 60.1769 9.94951 60.2349 9.98296C60.3366 10.0418 60.5284 9.94697 65.1154 7.57165C67.7413 6.21142 69.8756 5.08665 69.8582 5.0714C69.8408 5.05616 69.1739 4.70848 68.3761 4.29854C67.5783 3.88861 66.902 3.55448 66.8728 3.55575C66.8436 3.55702 64.6576 4.63225 62.0152 5.94505C59.3727 7.25785 57.2148 8.34281 57.2194 8.35636ZM64.1194 8.82558C62.4497 9.68737 61.0827 10.4018 61.0827 10.4136C61.0823 10.4251 61.4867 10.6521 61.9817 10.9176L62.8816 11.3999C63.3411 11.1649 65.4825 10.052 67.9365 8.77519C70.3905 7.49881 72.4007 6.43502 72.4041 6.41173C72.4071 6.38844 72.0154 6.16441 71.533 5.91413C71.0511 5.66385 70.6509 5.45931 70.6437 5.46016C70.637 5.46101 69.8489 5.86586 68.8931 6.36006C67.9374 6.85427 65.7891 7.96379 64.1194 8.82558ZM66.3447 10.3374C64.849 11.1128 63.6244 11.762 63.6239 11.7794C63.6231 11.7967 64.3375 12.1923 65.2107 12.6581L66.7987 13.5051C74.2322 9.70008 76.4228 8.57107 76.463 8.541C76.5261 8.494 76.3224 8.37754 74.8848 7.63983C73.9764 7.174 73.2197 6.79032 73.2028 6.78736C73.1858 6.78439 72.2478 7.26462 71.118 7.85454C69.9882 8.44403 67.8404 9.5616 66.3447 10.3374ZM56.724 13.7168C56.6706 17.1703 56.6626 18.5365 56.6956 18.5708C56.7206 18.5966 57.2084 18.8566 57.7788 19.1488C58.3496 19.4406 60.5504 20.5684 62.6699 21.6546C64.7893 22.7404 66.5276 23.6238 66.5331 23.617C66.5382 23.6107 66.5247 21.4611 66.5027 18.841C66.4806 16.2205 66.4573 14.0738 66.4506 14.07C66.4442 14.0662 65.7146 13.6732 64.8295 13.1972L63.2204 12.3316C63.1789 12.5353 63.1552 13.0994 63.1403 13.7168C63.117 14.7154 63.1056 14.8509 63.0362 14.9449C62.9839 15.0155 62.9098 15.0546 62.8138 15.0622C62.6978 15.072 62.4323 14.9487 61.4439 14.427C60.7698 14.0713 60.1744 13.7469 60.1206 13.7062L60.0232 13.6321L60.002 10.6068C58.1311 9.60141 57.4117 9.21519 57.1957 9.1C56.9797 8.98439 56.8019 8.89461 56.8006 8.90012C56.7998 8.90562 56.765 11.073 56.724 13.7168ZM67.1658 14.0637C67.1468 14.0709 67.1468 16.2255 67.1658 18.8516C67.1853 21.4776 67.2107 23.6272 67.2221 23.6276C67.2336 23.6285 69.425 22.5164 72.092 21.1562L76.9407 18.6834C76.9572 11.2242 76.9479 9.05977 76.9301 9.06146C76.9127 9.06358 74.7166 10.1867 72.0497 11.5579C69.3827 12.9291 67.1853 14.0565 67.1658 14.0637ZM60.6592 13.2722C61.9745 13.9612 62.3789 14.167 62.4073 14.1733C62.4446 14.1818 62.4666 13.9938 62.4899 13.4746C62.5077 13.0837 62.5216 12.5827 62.5216 12.3617V11.9594C61.1433 11.2208 60.724 11.0065 60.7007 11.0065C60.6736 11.0065 60.6584 11.4122 60.6588 12.1393L60.6592 13.2722Z" fill="white"/>
</g>
<path d="M13.832 42.1992V36.5592H16.152C16.5573 36.5592 16.9013 36.6259 17.184 36.7592C17.4667 36.8926 17.6827 37.0872 17.832 37.3432C17.9867 37.5939 18.064 37.8979 18.064 38.2552C18.064 38.6126 17.9867 38.9192 17.832 39.1752C17.6827 39.4312 17.464 39.6286 17.176 39.7672C16.8933 39.9059 16.552 39.9752 16.152 39.9752H14.544V42.1992H13.832ZM14.544 39.3672H16.048C16.4747 39.3672 16.7973 39.2766 17.016 39.0952C17.2347 38.9086 17.344 38.6312 17.344 38.2632C17.344 37.8899 17.2347 37.6152 17.016 37.4392C16.7973 37.2579 16.4747 37.1672 16.048 37.1672H14.544V39.3672ZM18.7242 37.2952V36.5032H19.5882V37.2952H18.7242ZM18.8042 42.1992V38.2472H19.5162V42.1992H18.8042ZM22.441 42.2712C21.9983 42.2712 21.6143 42.1912 21.289 42.0312C20.969 41.8659 20.7237 41.6312 20.553 41.3272C20.3823 41.0179 20.297 40.6499 20.297 40.2232C20.297 39.8232 20.377 39.4712 20.537 39.1672C20.697 38.8579 20.9237 38.6152 21.217 38.4392C21.5103 38.2632 21.8597 38.1752 22.265 38.1752C22.649 38.1752 22.9743 38.2579 23.241 38.4232C23.513 38.5886 23.7183 38.8206 23.857 39.1192C24.001 39.4179 24.073 39.7726 24.073 40.1832V40.4152H20.833V39.9192H23.609L23.457 40.0792C23.457 39.6419 23.353 39.3059 23.145 39.0712C22.9423 38.8366 22.649 38.7192 22.265 38.7192C22.0143 38.7192 21.7903 38.7779 21.593 38.8952C21.401 39.0072 21.2517 39.1672 21.145 39.3752C21.0383 39.5832 20.985 39.8366 20.985 40.1352V40.2152C20.985 40.5352 21.0437 40.8046 21.161 41.0232C21.2783 41.2419 21.4463 41.4072 21.665 41.5192C21.8837 41.6312 22.145 41.6872 22.449 41.6872C22.6677 41.6872 22.889 41.6579 23.113 41.5992C23.3423 41.5352 23.5557 41.4232 23.753 41.2632L23.993 41.7752C23.7903 41.9459 23.5477 42.0712 23.265 42.1512C22.9877 42.2312 22.713 42.2712 22.441 42.2712ZM26.6079 42.2712C26.2026 42.2712 25.8506 42.1859 25.5519 42.0152C25.2533 41.8446 25.0213 41.6072 24.8559 41.3032C24.6906 40.9939 24.6079 40.6312 24.6079 40.2152C24.6079 39.7992 24.6906 39.4392 24.8559 39.1352C25.0213 38.8259 25.2533 38.5886 25.5519 38.4232C25.8559 38.2579 26.2106 38.1752 26.6159 38.1752C26.8879 38.1752 27.1466 38.2206 27.3919 38.3112C27.6373 38.4019 27.8399 38.5246 27.9999 38.6792L27.7519 39.2072C27.5973 39.0686 27.4239 38.9646 27.2319 38.8952C27.0399 38.8206 26.8533 38.7832 26.6719 38.7832C26.2559 38.7832 25.9279 38.9086 25.6879 39.1592C25.4479 39.4099 25.3279 39.7646 25.3279 40.2232C25.3279 40.6766 25.4479 41.0312 25.6879 41.2872C25.9279 41.5379 26.2533 41.6632 26.6639 41.6632C26.8506 41.6632 27.0373 41.6286 27.2239 41.5592C27.4159 41.4846 27.5866 41.3806 27.7359 41.2472L27.9839 41.7752C27.8293 41.9299 27.6293 42.0526 27.3839 42.1432C27.1386 42.2286 26.8799 42.2712 26.6079 42.2712ZM30.3363 42.2712C29.8936 42.2712 29.5096 42.1912 29.1843 42.0312C28.8643 41.8659 28.619 41.6312 28.4483 41.3272C28.2776 41.0179 28.1923 40.6499 28.1923 40.2232C28.1923 39.8232 28.2723 39.4712 28.4323 39.1672C28.5923 38.8579 28.819 38.6152 29.1123 38.4392C29.4056 38.2632 29.755 38.1752 30.1603 38.1752C30.5443 38.1752 30.8696 38.2579 31.1363 38.4232C31.4083 38.5886 31.6136 38.8206 31.7523 39.1192C31.8963 39.4179 31.9683 39.7726 31.9683 40.1832V40.4152H28.7283V39.9192H31.5043L31.3523 40.0792C31.3523 39.6419 31.2483 39.3059 31.0403 39.0712C30.8376 38.8366 30.5443 38.7192 30.1603 38.7192C29.9096 38.7192 29.6856 38.7779 29.4883 38.8952C29.2963 39.0072 29.147 39.1672 29.0403 39.3752C28.9336 39.5832 28.8803 39.8366 28.8803 40.1352V40.2152C28.8803 40.5352 28.939 40.8046 29.0563 41.0232C29.1736 41.2419 29.3416 41.4072 29.5603 41.5192C29.779 41.6312 30.0403 41.6872 30.3443 41.6872C30.563 41.6872 30.7843 41.6579 31.0083 41.5992C31.2376 41.5352 31.451 41.4232 31.6483 41.2632L31.8883 41.7752C31.6856 41.9459 31.443 42.0712 31.1603 42.1512C30.883 42.2312 30.6083 42.2712 30.3363 42.2712ZM34.1993 42.2712C33.9806 42.2712 33.7646 42.2499 33.5513 42.2072C33.3433 42.1699 33.1486 42.1166 32.9673 42.0472C32.7913 41.9726 32.6393 41.8819 32.5113 41.7752L32.7433 41.2712C32.8766 41.3726 33.0233 41.4552 33.1833 41.5192C33.3486 41.5832 33.5166 41.6312 33.6873 41.6632C33.8633 41.6899 34.0313 41.7032 34.1913 41.7032C34.5219 41.7032 34.7753 41.6526 34.9513 41.5512C35.1326 41.4499 35.2233 41.3086 35.2233 41.1272C35.2233 40.9726 35.1699 40.8552 35.0633 40.7752C34.9619 40.6899 34.7913 40.6259 34.5513 40.5832L33.7273 40.4392C33.3593 40.3699 33.0819 40.2446 32.8953 40.0632C32.7139 39.8819 32.6233 39.6446 32.6233 39.3512C32.6233 39.1166 32.6873 38.9112 32.8153 38.7352C32.9486 38.5592 33.1379 38.4232 33.3833 38.3272C33.6286 38.2259 33.9219 38.1752 34.2633 38.1752C34.4499 38.1752 34.6393 38.1939 34.8313 38.2312C35.0286 38.2686 35.2099 38.3246 35.3753 38.3992C35.5459 38.4686 35.6846 38.5566 35.7913 38.6632L35.5513 39.1672C35.4446 39.0659 35.3166 38.9859 35.1673 38.9272C35.0233 38.8632 34.8713 38.8179 34.7113 38.7912C34.5566 38.7592 34.4046 38.7432 34.2553 38.7432C33.9459 38.7432 33.7059 38.7966 33.5353 38.9032C33.3646 39.0046 33.2793 39.1486 33.2793 39.3352C33.2793 39.4846 33.3273 39.6019 33.4233 39.6872C33.5246 39.7726 33.6873 39.8366 33.9113 39.8792L34.7113 40.0232C35.1059 40.0979 35.3993 40.2232 35.5913 40.3992C35.7833 40.5699 35.8793 40.8072 35.8793 41.1112C35.8793 41.3459 35.8099 41.5512 35.6713 41.7272C35.5326 41.8979 35.3379 42.0312 35.0873 42.1272C34.8366 42.2232 34.5406 42.2712 34.1993 42.2712Z" fill="#CE3439"/>
<path d="M52.1774 42.1992V41.5912H53.7214V37.1272L54.0974 37.1832L52.4574 38.2392L52.1374 37.6872L53.9054 36.5592H54.4254V41.5912H55.8494V42.1992H52.1774ZM58.6383 42.2712C58.2063 42.2712 57.8409 42.1619 57.5423 41.9432C57.2436 41.7192 57.0169 41.3939 56.8623 40.9672C56.7129 40.5352 56.6383 40.0046 56.6383 39.3752C56.6383 38.7459 56.7129 38.2179 56.8623 37.7912C57.0169 37.3646 57.2436 37.0419 57.5423 36.8232C57.8409 36.5992 58.2063 36.4872 58.6383 36.4872C59.0809 36.4872 59.4489 36.5966 59.7423 36.8152C60.0356 37.0339 60.2569 37.3566 60.4063 37.7832C60.5609 38.2099 60.6383 38.7379 60.6383 39.3672C60.6383 39.9966 60.5609 40.5272 60.4063 40.9592C60.2569 41.3912 60.0329 41.7192 59.7343 41.9432C59.4356 42.1619 59.0703 42.2712 58.6383 42.2712ZM58.6383 41.6472C59.0756 41.6472 59.4009 41.4632 59.6143 41.0952C59.8276 40.7272 59.9343 40.1512 59.9343 39.3672C59.9343 38.5886 59.8276 38.0179 59.6143 37.6552C59.4063 37.2926 59.0836 37.1112 58.6463 37.1112C58.2036 37.1112 57.8756 37.2952 57.6623 37.6632C57.4489 38.0259 57.3423 38.5966 57.3423 39.3752C57.3423 40.1486 57.4489 40.7219 57.6623 41.0952C57.8756 41.4632 58.2009 41.6472 58.6383 41.6472ZM63.4352 42.2712C63.0032 42.2712 62.6378 42.1619 62.3392 41.9432C62.0405 41.7192 61.8138 41.3939 61.6592 40.9672C61.5098 40.5352 61.4352 40.0046 61.4352 39.3752C61.4352 38.7459 61.5098 38.2179 61.6592 37.7912C61.8138 37.3646 62.0405 37.0419 62.3392 36.8232C62.6378 36.5992 63.0032 36.4872 63.4352 36.4872C63.8778 36.4872 64.2458 36.5966 64.5392 36.8152C64.8325 37.0339 65.0538 37.3566 65.2032 37.7832C65.3578 38.2099 65.4352 38.7379 65.4352 39.3672C65.4352 39.9966 65.3578 40.5272 65.2032 40.9592C65.0538 41.3912 64.8298 41.7192 64.5312 41.9432C64.2325 42.1619 63.8672 42.2712 63.4352 42.2712ZM63.4352 41.6472C63.8725 41.6472 64.1978 41.4632 64.4112 41.0952C64.6245 40.7272 64.7312 40.1512 64.7312 39.3672C64.7312 38.5886 64.6245 38.0179 64.4112 37.6552C64.2032 37.2926 63.8805 37.1112 63.4432 37.1112C63.0005 37.1112 62.6725 37.2952 62.4592 37.6632C62.2458 38.0259 62.1392 38.5966 62.1392 39.3752C62.1392 40.1486 62.2458 40.7219 62.4592 41.0952C62.6725 41.4632 62.9978 41.6472 63.4352 41.6472ZM68.232 42.2712C67.8 42.2712 67.4347 42.1619 67.136 41.9432C66.8374 41.7192 66.6107 41.3939 66.456 40.9672C66.3067 40.5352 66.232 40.0046 66.232 39.3752C66.232 38.7459 66.3067 38.2179 66.456 37.7912C66.6107 37.3646 66.8374 37.0419 67.136 36.8232C67.4347 36.5992 67.8 36.4872 68.232 36.4872C68.6747 36.4872 69.0427 36.5966 69.336 36.8152C69.6294 37.0339 69.8507 37.3566 70 37.7832C70.1547 38.2099 70.232 38.7379 70.232 39.3672C70.232 39.9966 70.1547 40.5272 70 40.9592C69.8507 41.3912 69.6267 41.7192 69.328 41.9432C69.0294 42.1619 68.664 42.2712 68.232 42.2712ZM68.232 41.6472C68.6694 41.6472 68.9947 41.4632 69.208 41.0952C69.4214 40.7272 69.528 40.1512 69.528 39.3672C69.528 38.5886 69.4214 38.0179 69.208 37.6552C69 37.2926 68.6774 37.1112 68.24 37.1112C67.7974 37.1112 67.4694 37.2952 67.256 37.6632C67.0427 38.0259 66.936 38.5966 66.936 39.3752C66.936 40.1486 67.0427 40.7219 67.256 41.0952C67.4694 41.4632 67.7947 41.6472 68.232 41.6472ZM73.6953 42.1992V36.5592H74.3273L77.7833 41.1512H77.7513V36.5592H78.4313V42.1992H77.7833L74.3433 37.6232H74.3753V42.1992H73.6953ZM81.6937 42.2712C81.2937 42.2712 80.9471 42.1859 80.6537 42.0152C80.3604 41.8446 80.1337 41.6072 79.9737 41.3032C79.8137 40.9939 79.7337 40.6312 79.7337 40.2152C79.7337 39.8046 79.8137 39.4472 79.9737 39.1432C80.1337 38.8339 80.3604 38.5966 80.6537 38.4312C80.9471 38.2606 81.2937 38.1752 81.6937 38.1752C82.0937 38.1752 82.4377 38.2606 82.7257 38.4312C83.0191 38.5966 83.2457 38.8339 83.4057 39.1432C83.5657 39.4472 83.6457 39.8046 83.6457 40.2152C83.6457 40.6312 83.5657 40.9939 83.4057 41.3032C83.2511 41.6072 83.0271 41.8446 82.7337 42.0152C82.4404 42.1859 82.0937 42.2712 81.6937 42.2712ZM81.6857 41.6712C82.0751 41.6712 82.3817 41.5406 82.6057 41.2792C82.8297 41.0179 82.9417 40.6632 82.9417 40.2152C82.9417 39.7672 82.8297 39.4152 82.6057 39.1592C82.3871 38.9032 82.0831 38.7752 81.6937 38.7752C81.3044 38.7752 80.9977 38.9032 80.7737 39.1592C80.5497 39.4152 80.4377 39.7672 80.4377 40.2152C80.4377 40.6632 80.5497 41.0179 80.7737 41.2792C81.0031 41.5406 81.3071 41.6712 81.6857 41.6712ZM86.2969 42.2712C86.0782 42.2712 85.8622 42.2499 85.6489 42.2072C85.4409 42.1699 85.2462 42.1166 85.0649 42.0472C84.8889 41.9726 84.7369 41.8819 84.6089 41.7752L84.8409 41.2712C84.9742 41.3726 85.1209 41.4552 85.2809 41.5192C85.4462 41.5832 85.6142 41.6312 85.7849 41.6632C85.9609 41.6899 86.1289 41.7032 86.2889 41.7032C86.6196 41.7032 86.8729 41.6526 87.0489 41.5512C87.2302 41.4499 87.3209 41.3086 87.3209 41.1272C87.3209 40.9726 87.2676 40.8552 87.1609 40.7752C87.0596 40.6899 86.8889 40.6259 86.6489 40.5832L85.8249 40.4392C85.4569 40.3699 85.1796 40.2446 84.9929 40.0632C84.8116 39.8819 84.7209 39.6446 84.7209 39.3512C84.7209 39.1166 84.7849 38.9112 84.9129 38.7352C85.0462 38.5592 85.2356 38.4232 85.4809 38.3272C85.7262 38.2259 86.0196 38.1752 86.3609 38.1752C86.5476 38.1752 86.7369 38.1939 86.9289 38.2312C87.1262 38.2686 87.3076 38.3246 87.4729 38.3992C87.6436 38.4686 87.7822 38.5566 87.8889 38.6632L87.6489 39.1672C87.5422 39.0659 87.4142 38.9859 87.2649 38.9272C87.1209 38.8632 86.9689 38.8179 86.8089 38.7912C86.6542 38.7592 86.5022 38.7432 86.3529 38.7432C86.0436 38.7432 85.8036 38.7966 85.6329 38.9032C85.4622 39.0046 85.3769 39.1486 85.3769 39.3352C85.3769 39.4846 85.4249 39.6019 85.5209 39.6872C85.6222 39.7726 85.7849 39.8366 86.0089 39.8792L86.8089 40.0232C87.2036 40.0979 87.4969 40.2232 87.6889 40.3992C87.8809 40.5699 87.9769 40.8072 87.9769 41.1112C87.9769 41.3459 87.9076 41.5512 87.7689 41.7272C87.6302 41.8979 87.4356 42.0312 87.1849 42.1272C86.9342 42.2232 86.6382 42.2712 86.2969 42.2712ZM88.8814 42.7032L88.3214 42.5512L90.3614 36.1832L90.9134 36.3352L88.8814 42.7032ZM93.9627 42.2712C93.424 42.2712 92.9547 42.1566 92.5547 41.9272C92.16 41.6926 91.856 41.3592 91.6427 40.9272C91.4293 40.4899 91.3227 39.9726 91.3227 39.3752C91.3227 38.7779 91.4293 38.2632 91.6427 37.8312C91.856 37.3992 92.16 37.0686 92.5547 36.8392C92.9493 36.6046 93.4187 36.4872 93.9627 36.4872C94.3573 36.4872 94.7173 36.5486 95.0427 36.6712C95.368 36.7886 95.648 36.9619 95.8827 37.1912L95.6027 37.7512C95.3573 37.5326 95.104 37.3752 94.8427 37.2792C94.5867 37.1832 94.2987 37.1352 93.9787 37.1352C93.3813 37.1352 92.912 37.3272 92.5707 37.7112C92.2347 38.0899 92.0667 38.6446 92.0667 39.3752C92.0667 40.1006 92.2347 40.6579 92.5707 41.0472C92.9067 41.4312 93.376 41.6232 93.9787 41.6232C94.2987 41.6232 94.5867 41.5752 94.8427 41.4792C95.104 41.3832 95.3573 41.2259 95.6027 41.0072L95.8827 41.5672C95.648 41.7966 95.368 41.9726 95.0427 42.0952C94.7173 42.2126 94.3573 42.2712 93.9627 42.2712ZM98.6143 42.2712C98.1396 42.2712 97.7796 42.1459 97.5343 41.8952C97.2943 41.6446 97.1743 41.2872 97.1743 40.8232V38.8312H96.3743V38.2472H97.1983V37.0712H97.8863V38.2472H99.3023V38.8312H97.8863V40.7592C97.8863 41.0632 97.9529 41.2899 98.0863 41.4392C98.2249 41.5832 98.4356 41.6552 98.7183 41.6552C98.8303 41.6552 98.9369 41.6446 99.0383 41.6232C99.1449 41.6019 99.2463 41.5699 99.3423 41.5272L99.4543 42.0872C99.3476 42.1459 99.2169 42.1912 99.0623 42.2232C98.9129 42.2552 98.7636 42.2712 98.6143 42.2712ZM100.286 42.1992V38.2472H100.95V39.1032C101.078 38.8099 101.27 38.5832 101.526 38.4232C101.782 38.2579 102.07 38.1752 102.39 38.1752C102.716 38.1752 102.988 38.2339 103.206 38.3512C103.425 38.4632 103.588 38.6392 103.694 38.8792C103.806 39.1139 103.862 39.4072 103.862 39.7592V42.1992H103.15V39.7992C103.15 39.5859 103.121 39.4046 103.062 39.2552C103.004 39.1059 102.905 38.9912 102.766 38.9112C102.633 38.8259 102.454 38.7832 102.23 38.7832C101.996 38.7832 101.782 38.8366 101.59 38.9432C101.404 39.0499 101.257 39.1939 101.15 39.3752C101.049 39.5566 100.998 39.7592 100.998 39.9832V42.1992H100.286Z" fill="black"/>
<path d="M15.72 55.2712C15.4107 55.2712 15.1173 55.2472 14.84 55.1992C14.5627 55.1512 14.3093 55.0792 14.08 54.9832C13.8507 54.8872 13.6507 54.7699 13.48 54.6312L13.744 54.0392C13.9253 54.1832 14.1173 54.3006 14.32 54.3912C14.528 54.4766 14.7467 54.5379 14.976 54.5752C15.2107 54.6126 15.4587 54.6312 15.72 54.6312C16.1627 54.6312 16.5013 54.5432 16.736 54.3672C16.976 54.1912 17.096 53.9512 17.096 53.6472C17.096 53.4872 17.056 53.3539 16.976 53.2472C16.9013 53.1406 16.7813 53.0526 16.616 52.9832C16.456 52.9139 16.248 52.8526 15.992 52.7992L15.072 52.6232C14.5547 52.5219 14.1813 52.3432 13.952 52.0872C13.7227 51.8312 13.608 51.5086 13.608 51.1192C13.608 50.7886 13.6987 50.5032 13.88 50.2632C14.0667 50.0179 14.3227 49.8286 14.648 49.6952C14.9787 49.5566 15.3547 49.4872 15.776 49.4872C16.0427 49.4872 16.2907 49.5139 16.52 49.5672C16.7547 49.6152 16.968 49.6899 17.16 49.7912C17.3573 49.8926 17.5333 50.0152 17.688 50.1592L17.424 50.7432C17.1947 50.5192 16.944 50.3619 16.672 50.2712C16.4 50.1752 16.0987 50.1272 15.768 50.1272C15.4907 50.1272 15.2427 50.1672 15.024 50.2472C14.8053 50.3219 14.632 50.4339 14.504 50.5832C14.3813 50.7272 14.32 50.9059 14.32 51.1192C14.32 51.3539 14.3947 51.5406 14.544 51.6792C14.6933 51.8126 14.9467 51.9166 15.304 51.9912L16.216 52.1672C16.76 52.2686 17.1627 52.4392 17.424 52.6792C17.6853 52.9192 17.816 53.2312 17.816 53.6152C17.816 53.9352 17.728 54.2206 17.552 54.4712C17.3813 54.7219 17.1387 54.9192 16.824 55.0632C16.5147 55.2019 16.1467 55.2712 15.72 55.2712ZM18.882 50.2952V49.5032H19.746V50.2952H18.882ZM18.962 55.1992V51.2472H19.674V55.1992H18.962ZM20.8628 55.1992V54.7432L23.3668 51.6152L23.4068 51.8392H20.9188V51.2472H24.0708V51.7032L21.5428 54.8552L21.5028 54.6072H24.1588V55.1992H20.8628ZM27.0691 55.2712C26.6265 55.2712 26.2425 55.1912 25.9171 55.0312C25.5971 54.8659 25.3518 54.6312 25.1811 54.3272C25.0105 54.0179 24.9251 53.6499 24.9251 53.2232C24.9251 52.8232 25.0051 52.4712 25.1651 52.1672C25.3251 51.8579 25.5518 51.6152 25.8451 51.4392C26.1385 51.2632 26.4878 51.1752 26.8931 51.1752C27.2771 51.1752 27.6025 51.2579 27.8691 51.4232C28.1411 51.5886 28.3465 51.8206 28.4851 52.1192C28.6291 52.4179 28.7011 52.7726 28.7011 53.1832V53.4152H25.4611V52.9192H28.2371L28.0851 53.0792C28.0851 52.6419 27.9811 52.3059 27.7731 52.0712C27.5705 51.8366 27.2771 51.7192 26.8931 51.7192C26.6425 51.7192 26.4185 51.7779 26.2211 51.8952C26.0291 52.0072 25.8798 52.1672 25.7731 52.3752C25.6665 52.5832 25.6131 52.8366 25.6131 53.1352V53.2152C25.6131 53.5352 25.6718 53.8046 25.7891 54.0232C25.9065 54.2419 26.0745 54.4072 26.2931 54.5192C26.5118 54.6312 26.7731 54.6872 27.0771 54.6872C27.2958 54.6872 27.5171 54.6579 27.7411 54.5992C27.9705 54.5352 28.1838 54.4232 28.3811 54.2632L28.6211 54.7752C28.4185 54.9459 28.1758 55.0712 27.8931 55.1512C27.6158 55.2312 27.3411 55.2712 27.0691 55.2712Z" fill="#CE3439"/>
<path d="M56.048 55.1992V54.0312H53.416V53.4952L56.016 49.5592H56.728V53.4312H57.512V54.0312H56.728V55.1992H56.048ZM56.072 53.4312V50.4392H56.104L54.04 53.5672L53.984 53.4312H56.072ZM59.8449 55.2712C59.6369 55.2712 59.4342 55.2472 59.2369 55.1992C59.0449 55.1512 58.8609 55.0792 58.6849 54.9832C58.5142 54.8819 58.3542 54.7592 58.2049 54.6152L58.4769 54.0712C58.6955 54.2899 58.9169 54.4419 59.1409 54.5272C59.3649 54.6072 59.6022 54.6472 59.8529 54.6472C60.1142 54.6472 60.3435 54.5992 60.5409 54.5032C60.7435 54.4019 60.9142 54.2552 61.0529 54.0632C61.1915 53.8659 61.2955 53.6232 61.3649 53.3352C61.4342 53.0472 61.4689 52.7166 61.4689 52.3432V51.8792H61.4609C61.4182 52.1299 61.3222 52.3486 61.1729 52.5352C61.0289 52.7166 60.8502 52.8552 60.6369 52.9512C60.4235 53.0472 60.1889 53.0952 59.9329 53.0952C59.5969 53.0952 59.2982 53.0206 59.0369 52.8712C58.7755 52.7219 58.5702 52.5139 58.4209 52.2472C58.2769 51.9806 58.2049 51.6712 58.2049 51.3192C58.2049 50.9672 58.2822 50.6526 58.4369 50.3752C58.5915 50.0979 58.8049 49.8819 59.0769 49.7272C59.3489 49.5672 59.6609 49.4872 60.0129 49.4872C60.4715 49.4872 60.8582 49.5966 61.1729 49.8152C61.4875 50.0286 61.7249 50.3406 61.8849 50.7512C62.0449 51.1619 62.1249 51.6632 62.1249 52.2552C62.1249 52.8952 62.0342 53.4419 61.8529 53.8952C61.6715 54.3432 61.4102 54.6846 61.0689 54.9192C60.7329 55.1539 60.3249 55.2712 59.8449 55.2712ZM60.0529 52.5032C60.2875 52.5032 60.4955 52.4526 60.6769 52.3512C60.8582 52.2499 60.9995 52.1086 61.1009 51.9272C61.2022 51.7459 61.2529 51.5379 61.2529 51.3032C61.2529 51.0579 61.2022 50.8446 61.1009 50.6632C61.0049 50.4819 60.8662 50.3432 60.6849 50.2472C60.5035 50.1459 60.2902 50.0952 60.0449 50.0952C59.8102 50.0952 59.6049 50.1459 59.4289 50.2472C59.2529 50.3486 59.1142 50.4899 59.0129 50.6712C58.9169 50.8526 58.8689 51.0632 58.8689 51.3032C58.8689 51.5379 58.9195 51.7459 59.0209 51.9272C59.1222 52.1086 59.2609 52.2499 59.4369 52.3512C59.6129 52.4526 59.8182 52.5032 60.0529 52.5032ZM64.9938 55.2712C64.5618 55.2712 64.1964 55.1619 63.8978 54.9432C63.5991 54.7192 63.3724 54.3939 63.2178 53.9672C63.0684 53.5352 62.9938 53.0046 62.9938 52.3752C62.9938 51.7459 63.0684 51.2179 63.2178 50.7912C63.3724 50.3646 63.5991 50.0419 63.8978 49.8232C64.1964 49.5992 64.5618 49.4872 64.9938 49.4872C65.4364 49.4872 65.8044 49.5966 66.0978 49.8152C66.3911 50.0339 66.6124 50.3566 66.7618 50.7832C66.9164 51.2099 66.9938 51.7379 66.9938 52.3672C66.9938 52.9966 66.9164 53.5272 66.7618 53.9592C66.6124 54.3912 66.3884 54.7192 66.0898 54.9432C65.7911 55.1619 65.4258 55.2712 64.9938 55.2712ZM64.9938 54.6472C65.4311 54.6472 65.7564 54.4632 65.9698 54.0952C66.1831 53.7272 66.2898 53.1512 66.2898 52.3672C66.2898 51.5886 66.1831 51.0179 65.9698 50.6552C65.7618 50.2926 65.4391 50.1112 65.0018 50.1112C64.5591 50.1112 64.2311 50.2952 64.0178 50.6632C63.8044 51.0259 63.6978 51.5966 63.6978 52.3752C63.6978 53.1486 63.8044 53.7219 64.0178 54.0952C64.2311 54.4632 64.5564 54.6472 64.9938 54.6472ZM69.817 55.1992L71.905 52.1752V52.4392L69.929 49.5592H70.753L72.353 51.9112H72.313L73.913 49.5592H74.737L72.745 52.4392V52.1752L74.841 55.1992H74.009L72.297 52.6952H72.353L70.641 55.1992H69.817ZM80.3136 55.1992V54.0312H77.6816V53.4952L80.2816 49.5592H80.9936V53.4312H81.7776V54.0312H80.9936V55.1992H80.3136ZM80.3376 53.4312V50.4392H80.3696L78.3056 53.5672L78.2496 53.4312H80.3376ZM84.4625 55.2712C83.8332 55.2712 83.3372 55.1352 82.9745 54.8632C82.6118 54.5859 82.4305 54.2019 82.4305 53.7112C82.4305 53.4606 82.4785 53.2392 82.5745 53.0472C82.6758 52.8499 82.8145 52.6899 82.9905 52.5672C83.1718 52.4392 83.3798 52.3539 83.6145 52.3112V52.3192C83.4118 52.2712 83.2305 52.1832 83.0705 52.0552C82.9158 51.9272 82.7932 51.7726 82.7025 51.5912C82.6118 51.4099 82.5665 51.2099 82.5665 50.9912C82.5665 50.5219 82.7372 50.1539 83.0785 49.8872C83.4252 49.6206 83.8865 49.4872 84.4625 49.4872C85.0385 49.4872 85.4972 49.6206 85.8385 49.8872C86.1852 50.1539 86.3585 50.5219 86.3585 50.9912C86.3585 51.2046 86.3132 51.4046 86.2225 51.5912C86.1318 51.7726 86.0065 51.9272 85.8465 52.0552C85.6918 52.1832 85.5105 52.2712 85.3025 52.3192V52.3112C85.5318 52.3486 85.7345 52.4312 85.9105 52.5592C86.0918 52.6872 86.2332 52.8499 86.3345 53.0472C86.4412 53.2392 86.4945 53.4606 86.4945 53.7112C86.4945 54.2019 86.3132 54.5859 85.9505 54.8632C85.5932 55.1352 85.0972 55.2712 84.4625 55.2712ZM84.4625 54.6712C84.9052 54.6712 85.2412 54.5859 85.4705 54.4152C85.7052 54.2446 85.8225 53.9939 85.8225 53.6632C85.8225 53.3326 85.7052 53.0792 85.4705 52.9032C85.2412 52.7272 84.9052 52.6392 84.4625 52.6392C84.0198 52.6392 83.6812 52.7272 83.4465 52.9032C83.2172 53.0792 83.1025 53.3326 83.1025 53.6632C83.1025 53.9939 83.2172 54.2446 83.4465 54.4152C83.6812 54.5859 84.0198 54.6712 84.4625 54.6712ZM84.4625 52.0392C84.8465 52.0392 85.1478 51.9539 85.3665 51.7832C85.5852 51.6072 85.6945 51.3646 85.6945 51.0552C85.6945 50.7512 85.5852 50.5139 85.3665 50.3432C85.1478 50.1672 84.8465 50.0792 84.4625 50.0792C84.0838 50.0792 83.7852 50.1672 83.5665 50.3432C83.3478 50.5139 83.2385 50.7512 83.2385 51.0552C83.2385 51.3646 83.3478 51.6072 83.5665 51.7832C83.7852 51.9539 84.0838 52.0392 84.4625 52.0392ZM89.2594 55.2712C88.8274 55.2712 88.462 55.1619 88.1634 54.9432C87.8647 54.7192 87.638 54.3939 87.4834 53.9672C87.334 53.5352 87.2594 53.0046 87.2594 52.3752C87.2594 51.7459 87.334 51.2179 87.4834 50.7912C87.638 50.3646 87.8647 50.0419 88.1634 49.8232C88.462 49.5992 88.8274 49.4872 89.2594 49.4872C89.702 49.4872 90.07 49.5966 90.3634 49.8152C90.6567 50.0339 90.878 50.3566 91.0274 50.7832C91.182 51.2099 91.2594 51.7379 91.2594 52.3672C91.2594 52.9966 91.182 53.5272 91.0274 53.9592C90.878 54.3912 90.654 54.7192 90.3554 54.9432C90.0567 55.1619 89.6914 55.2712 89.2594 55.2712ZM89.2594 54.6472C89.6967 54.6472 90.022 54.4632 90.2354 54.0952C90.4487 53.7272 90.5554 53.1512 90.5554 52.3672C90.5554 51.5886 90.4487 51.0179 90.2354 50.6552C90.0274 50.2926 89.7047 50.1112 89.2674 50.1112C88.8247 50.1112 88.4967 50.2952 88.2834 50.6632C88.07 51.0259 87.9634 51.5966 87.9634 52.3752C87.9634 53.1486 88.07 53.7219 88.2834 54.0952C88.4967 54.4632 88.822 54.6472 89.2594 54.6472ZM94.0826 55.1992L96.1706 52.1752V52.4392L94.1946 49.5592H95.0186L96.6186 51.9112H96.5786L98.1786 49.5592H99.0026L97.0106 52.4392V52.1752L99.1066 55.1992H98.2746L96.5626 52.6952H96.6186L94.9066 55.1992H94.0826ZM104.579 55.1992V54.0312H101.947V53.4952L104.547 49.5592H105.259V53.4312H106.043V54.0312H105.259V55.1992H104.579ZM104.603 53.4312V50.4392H104.635L102.571 53.5672L102.515 53.4312H104.603ZM108.728 55.2712C108.296 55.2712 107.931 55.1619 107.632 54.9432C107.333 54.7192 107.107 54.3939 106.952 53.9672C106.803 53.5352 106.728 53.0046 106.728 52.3752C106.728 51.7459 106.803 51.2179 106.952 50.7912C107.107 50.3646 107.333 50.0419 107.632 49.8232C107.931 49.5992 108.296 49.4872 108.728 49.4872C109.171 49.4872 109.539 49.5966 109.832 49.8152C110.125 50.0339 110.347 50.3566 110.496 50.7832C110.651 51.2099 110.728 51.7379 110.728 52.3672C110.728 52.9966 110.651 53.5272 110.496 53.9592C110.347 54.3912 110.123 54.7192 109.824 54.9432C109.525 55.1619 109.16 55.2712 108.728 55.2712ZM108.728 54.6472C109.165 54.6472 109.491 54.4632 109.704 54.0952C109.917 53.7272 110.024 53.1512 110.024 52.3672C110.024 51.5886 109.917 51.0179 109.704 50.6552C109.496 50.2926 109.173 50.1112 108.736 50.1112C108.293 50.1112 107.965 50.2952 107.752 50.6632C107.539 51.0259 107.432 51.5966 107.432 52.3752C107.432 53.1486 107.539 53.7219 107.752 54.0952C107.965 54.4632 108.291 54.6472 108.728 54.6472ZM113.525 55.2712C113.093 55.2712 112.728 55.1619 112.429 54.9432C112.13 54.7192 111.904 54.3939 111.749 53.9672C111.6 53.5352 111.525 53.0046 111.525 52.3752C111.525 51.7459 111.6 51.2179 111.749 50.7912C111.904 50.3646 112.13 50.0419 112.429 49.8232C112.728 49.5992 113.093 49.4872 113.525 49.4872C113.968 49.4872 114.336 49.5966 114.629 49.8152C114.922 50.0339 115.144 50.3566 115.293 50.7832C115.448 51.2099 115.525 51.7379 115.525 52.3672C115.525 52.9966 115.448 53.5272 115.293 53.9592C115.144 54.3912 114.92 54.7192 114.621 54.9432C114.322 55.1619 113.957 55.2712 113.525 55.2712ZM113.525 54.6472C113.962 54.6472 114.288 54.4632 114.501 54.0952C114.714 53.7272 114.821 53.1512 114.821 52.3672C114.821 51.5886 114.714 51.0179 114.501 50.6552C114.293 50.2926 113.97 50.1112 113.533 50.1112C113.09 50.1112 112.762 50.2952 112.549 50.6632C112.336 51.0259 112.229 51.5966 112.229 52.3752C112.229 53.1486 112.336 53.7219 112.549 54.0952C112.762 54.4632 113.088 54.6472 113.525 54.6472Z" fill="black"/>
<path d="M15.168 68.1992L13.36 62.5592H14.112L15.584 67.3432H15.512L17.152 62.5592H17.736L19.36 67.3432H19.304L20.792 62.5592H21.512L19.696 68.1992H19.016L17.424 63.5432H17.456L15.832 68.1992H15.168ZM24.0223 68.2712C23.5796 68.2712 23.1956 68.1912 22.8703 68.0312C22.5503 67.8659 22.3049 67.6312 22.1343 67.3272C21.9636 67.0179 21.8783 66.6499 21.8783 66.2232C21.8783 65.8232 21.9583 65.4712 22.1183 65.1672C22.2783 64.8579 22.5049 64.6152 22.7983 64.4392C23.0916 64.2632 23.4409 64.1752 23.8463 64.1752C24.2303 64.1752 24.5556 64.2579 24.8223 64.4232C25.0943 64.5886 25.2996 64.8206 25.4383 65.1192C25.5823 65.4179 25.6543 65.7726 25.6543 66.1832V66.4152H22.4143V65.9192H25.1903L25.0383 66.0792C25.0383 65.6419 24.9343 65.3059 24.7263 65.0712C24.5236 64.8366 24.2303 64.7192 23.8463 64.7192C23.5956 64.7192 23.3716 64.7779 23.1743 64.8952C22.9823 65.0072 22.8329 65.1672 22.7263 65.3752C22.6196 65.5832 22.5663 65.8366 22.5663 66.1352V66.2152C22.5663 66.5352 22.6249 66.8046 22.7423 67.0232C22.8596 67.2419 23.0276 67.4072 23.2463 67.5192C23.4649 67.6312 23.7263 67.6872 24.0303 67.6872C24.2489 67.6872 24.4703 67.6579 24.6943 67.5992C24.9236 67.5352 25.1369 67.4232 25.3343 67.2632L25.5743 67.7752C25.3716 67.9459 25.1289 68.0712 24.8463 68.1512C24.5689 68.2312 24.2943 68.2712 24.0223 68.2712ZM26.7492 63.2952V62.5032H27.6132V63.2952H26.7492ZM26.8292 68.1992V64.2472H27.5412V68.1992H26.8292ZM30.674 69.7112C30.3593 69.7112 30.0473 69.6632 29.738 69.5672C29.4287 69.4766 29.1647 69.3512 28.946 69.1912L29.17 68.6392C29.3193 68.7352 29.4767 68.8179 29.642 68.8872C29.8073 68.9619 29.9753 69.0152 30.146 69.0472C30.322 69.0846 30.4953 69.1032 30.666 69.1032C31.0767 69.1032 31.3967 68.9992 31.626 68.7912C31.8607 68.5832 31.978 68.2872 31.978 67.9032V67.1752H31.962C31.866 67.4472 31.6927 67.6686 31.442 67.8392C31.1913 68.0046 30.9007 68.0872 30.57 68.0872C30.1967 68.0872 29.8713 68.0072 29.594 67.8472C29.3167 67.6819 29.1007 67.4526 28.946 67.1592C28.7967 66.8659 28.722 66.5219 28.722 66.1272C28.722 65.7379 28.7967 65.3966 28.946 65.1032C29.1007 64.8099 29.3167 64.5832 29.594 64.4232C29.8713 64.2579 30.1967 64.1752 30.57 64.1752C30.9007 64.1752 31.1913 64.2606 31.442 64.4312C31.698 64.6019 31.874 64.8286 31.97 65.1112H31.978V64.2472H32.642V67.8392C32.642 68.2232 32.562 68.5539 32.402 68.8312C32.2473 69.1139 32.0233 69.3299 31.73 69.4792C31.4367 69.6339 31.0847 69.7112 30.674 69.7112ZM30.69 67.5032C31.0793 67.5032 31.386 67.3779 31.61 67.1272C31.8393 66.8766 31.954 66.5432 31.954 66.1272C31.954 65.7112 31.8393 65.3806 31.61 65.1352C31.386 64.8846 31.0793 64.7592 30.69 64.7592C30.306 64.7592 29.9993 64.8846 29.77 65.1352C29.546 65.3806 29.434 65.7112 29.434 66.1272C29.434 66.5432 29.546 66.8766 29.77 67.1272C29.9993 67.3779 30.306 67.5032 30.69 67.5032ZM34.0636 68.1992V62.5592H34.7516V65.0872C34.8689 64.8046 35.0529 64.5832 35.3036 64.4232C35.5596 64.2579 35.8476 64.1752 36.1676 64.1752C36.4929 64.1752 36.7649 64.2339 36.9836 64.3512C37.2022 64.4632 37.3649 64.6392 37.4716 64.8792C37.5836 65.1139 37.6396 65.4072 37.6396 65.7592V68.1992H36.9276V65.7992C36.9276 65.5859 36.8956 65.4046 36.8316 65.2552C36.7729 65.1059 36.6769 64.9912 36.5436 64.9112C36.4102 64.8259 36.2316 64.7832 36.0076 64.7832C35.7729 64.7832 35.5622 64.8366 35.3756 64.9432C35.1889 65.0499 35.0422 65.1939 34.9356 65.3752C34.8289 65.5566 34.7756 65.7592 34.7756 65.9832V68.1992H34.0636ZM40.7119 68.2712C40.2373 68.2712 39.8773 68.1459 39.6319 67.8952C39.3919 67.6446 39.2719 67.2872 39.2719 66.8232V64.8312H38.4719V64.2472H39.2959V63.0712H39.9839V64.2472H41.3999V64.8312H39.9839V66.7592C39.9839 67.0632 40.0506 67.2899 40.1839 67.4392C40.3226 67.5832 40.5333 67.6552 40.8159 67.6552C40.9279 67.6552 41.0346 67.6446 41.1359 67.6232C41.2426 67.6019 41.3439 67.5699 41.4399 67.5272L41.5519 68.0872C41.4453 68.1459 41.3146 68.1912 41.1599 68.2232C41.0106 68.2552 40.8613 68.2712 40.7119 68.2712Z" fill="#CE3439"/>
<path d="M55.9157 68.1992V67.5912H57.4597V63.1272L57.8357 63.1832L56.1957 64.2392L55.8757 63.6872L57.6437 62.5592H58.1637V67.5912H59.5877V68.1992H55.9157ZM60.8726 68.1992L63.6326 62.8472L63.6646 63.1912H60.4886V62.5592H64.2566V63.0952L61.6486 68.1992H60.8726ZM66.6614 69.7352C66.2828 69.1592 66.0028 68.5726 65.8214 67.9752C65.6454 67.3726 65.5574 66.7459 65.5574 66.0952C65.5574 65.4446 65.6454 64.8206 65.8214 64.2232C66.0028 63.6259 66.2828 63.0366 66.6614 62.4552L67.1734 62.6392C66.9708 63.0179 66.8028 63.3992 66.6694 63.7832C66.5361 64.1672 66.4348 64.5512 66.3654 64.9352C66.3014 65.3139 66.2694 65.7006 66.2694 66.0952C66.2694 66.4846 66.3014 66.8712 66.3654 67.2552C66.4348 67.6392 66.5361 68.0206 66.6694 68.3992C66.8028 68.7832 66.9708 69.1672 67.1734 69.5512L66.6614 69.7352ZM68.2929 68.1992V62.5592H69.0049V65.1032H69.0369L71.7169 62.5592H72.6209L69.5089 65.5112L69.5569 65.1192L72.8129 68.1992H71.8609L69.0369 65.5512H69.0049V68.1992H68.2929ZM75.1428 69.7112C74.8281 69.7112 74.5161 69.6632 74.2068 69.5672C73.8974 69.4766 73.6334 69.3512 73.4148 69.1912L73.6388 68.6392C73.7881 68.7352 73.9454 68.8179 74.1108 68.8872C74.2761 68.9619 74.4441 69.0152 74.6148 69.0472C74.7908 69.0846 74.9641 69.1032 75.1348 69.1032C75.5454 69.1032 75.8654 68.9992 76.0948 68.7912C76.3294 68.5832 76.4468 68.2872 76.4468 67.9032V67.1752H76.4308C76.3348 67.4472 76.1614 67.6686 75.9108 67.8392C75.6601 68.0046 75.3694 68.0872 75.0388 68.0872C74.6654 68.0872 74.3401 68.0072 74.0628 67.8472C73.7854 67.6819 73.5694 67.4526 73.4148 67.1592C73.2654 66.8659 73.1908 66.5219 73.1908 66.1272C73.1908 65.7379 73.2654 65.3966 73.4148 65.1032C73.5694 64.8099 73.7854 64.5832 74.0628 64.4232C74.3401 64.2579 74.6654 64.1752 75.0388 64.1752C75.3694 64.1752 75.6601 64.2606 75.9108 64.4312C76.1668 64.6019 76.3428 64.8286 76.4388 65.1112H76.4468V64.2472H77.1108V67.8392C77.1108 68.2232 77.0308 68.5539 76.8708 68.8312C76.7161 69.1139 76.4921 69.3299 76.1988 69.4792C75.9054 69.6339 75.5534 69.7112 75.1428 69.7112ZM75.1588 67.5032C75.5481 67.5032 75.8548 67.3779 76.0788 67.1272C76.3081 66.8766 76.4228 66.5432 76.4228 66.1272C76.4228 65.7112 76.3081 65.3806 76.0788 65.1352C75.8548 64.8846 75.5481 64.7592 75.1588 64.7592C74.7748 64.7592 74.4681 64.8846 74.2388 65.1352C74.0148 65.3806 73.9028 65.7112 73.9028 66.1272C73.9028 66.5432 74.0148 66.8766 74.2388 67.1272C74.4681 67.3779 74.7748 67.5032 75.1588 67.5032ZM79.9883 68.2712C79.7696 68.2712 79.5536 68.2499 79.3403 68.2072C79.1323 68.1699 78.9376 68.1166 78.7563 68.0472C78.5803 67.9726 78.4283 67.8819 78.3003 67.7752L78.5323 67.2712C78.6656 67.3726 78.8123 67.4552 78.9723 67.5192C79.1376 67.5832 79.3056 67.6312 79.4763 67.6632C79.6523 67.6899 79.8203 67.7032 79.9803 67.7032C80.311 67.7032 80.5643 67.6526 80.7403 67.5512C80.9216 67.4499 81.0123 67.3086 81.0123 67.1272C81.0123 66.9726 80.959 66.8552 80.8523 66.7752C80.751 66.6899 80.5803 66.6259 80.3403 66.5832L79.5163 66.4392C79.1483 66.3699 78.871 66.2446 78.6843 66.0632C78.503 65.8819 78.4123 65.6446 78.4123 65.3512C78.4123 65.1166 78.4763 64.9112 78.6043 64.7352C78.7376 64.5592 78.927 64.4232 79.1723 64.3272C79.4176 64.2259 79.711 64.1752 80.0523 64.1752C80.239 64.1752 80.4283 64.1939 80.6203 64.2312C80.8176 64.2686 80.999 64.3246 81.1643 64.3992C81.335 64.4686 81.4736 64.5566 81.5803 64.6632L81.3403 65.1672C81.2336 65.0659 81.1056 64.9859 80.9563 64.9272C80.8123 64.8632 80.6603 64.8179 80.5003 64.7912C80.3456 64.7592 80.1936 64.7432 80.0443 64.7432C79.735 64.7432 79.495 64.7966 79.3243 64.9032C79.1536 65.0046 79.0683 65.1486 79.0683 65.3352C79.0683 65.4846 79.1163 65.6019 79.2123 65.6872C79.3136 65.7726 79.4763 65.8366 79.7003 65.8792L80.5003 66.0232C80.895 66.0979 81.1883 66.2232 81.3803 66.3992C81.5723 66.5699 81.6683 66.8072 81.6683 67.1112C81.6683 67.3459 81.599 67.5512 81.4603 67.7272C81.3216 67.8979 81.127 68.0312 80.8763 68.1272C80.6256 68.2232 80.3296 68.2712 79.9883 68.2712ZM82.9408 69.7352L82.4208 69.5512C82.6288 69.1619 82.7995 68.7752 82.9328 68.3912C83.0661 68.0126 83.1648 67.6339 83.2288 67.2552C83.2928 66.8712 83.3248 66.4846 83.3248 66.0952C83.3248 65.7059 83.2928 65.3219 83.2288 64.9432C83.1648 64.5592 83.0661 64.1752 82.9328 63.7912C82.7995 63.4072 82.6288 63.0232 82.4208 62.6392L82.9408 62.4552C83.3141 63.0312 83.5888 63.6206 83.7648 64.2232C83.9461 64.8206 84.0368 65.4446 84.0368 66.0952C84.0368 66.7406 83.9461 67.3646 83.7648 67.9672C83.5888 68.5646 83.3141 69.1539 82.9408 69.7352Z" fill="black"/>
<defs>
<filter id="filter0_d_271_374" x="0.0999999" y="25" width="135.8" height="57.9" filterUnits="userSpaceOnUse" color-interpolation-filters="sRGB">
<feFlood flood-opacity="0" result="BackgroundImageFix"/>
<feColorMatrix in="SourceAlpha" type="matrix" values="0 0 0 0 0 0 0 0 0 0 0 0 0 0 0 0 0 0 127 0" result="hardAlpha"/>
<feOffset dy="4"/>
<feGaussianBlur stdDeviation="1.95"/>
<feComposite in2="hardAlpha" operator="out"/>
<feColorMatrix type="matrix" values="0 0 0 0 0 0 0 0 0 0 0 0 0 0 0 0 0 0 0.2 0"/>
<feBlend mode="normal" in2="BackgroundImageFix" result="effect1_dropShadow_271_374"/>
<feBlend mode="normal" in="SourceGraphic" in2="effect1_dropShadow_271_374" result="shape"/>
</filter>
<clipPath id="clip0_271_374">
<rect width="21.6815" height="21.6824" fill="white" transform="translate(55.957 2.83301)"/>
</clipPath>
</defs>
</svg>
