<svg width="90" height="82" viewBox="0 0 90 82" fill="none" xmlns="http://www.w3.org/2000/svg">
<g filter="url(#filter0_d_271_340)">
<rect x="4" y="24" width="82" height="50" rx="2" fill="white"/>
<rect x="4.25" y="24.25" width="81.5" height="49.5" rx="1.75" stroke="white" stroke-width="0.5"/>
</g>
<rect x="29.3398" width="30.0847" height="30.228" rx="3" fill="#CB3335"/>
<g clip-path="url(#clip0_271_340)">
<path d="M52.0229 17.8293L49.3842 12.552H50.1125C50.2525 12.552 50.3867 12.4964 50.4857 12.3974C50.5847 12.2984 50.6403 12.1642 50.6403 12.0242C50.6403 11.8843 50.5847 11.75 50.4857 11.6511C50.3867 11.5521 50.2525 11.4965 50.1125 11.4965H49.2787C48.7117 10.8789 48.0286 10.3793 47.2683 10.0261C46.5079 9.67294 45.6854 9.4732 44.8478 9.43832L44.8352 9.38555C44.8352 9.10562 44.724 8.83716 44.526 8.63922C44.3281 8.44128 44.0596 8.33008 43.7797 8.33008C43.4998 8.33008 43.2313 8.44128 43.0334 8.63922C42.8354 8.83716 42.7242 9.10562 42.7242 9.38555V9.43832C41.0184 9.50925 39.4087 10.2472 38.2416 11.4933L37.4469 11.4965C37.3069 11.4965 37.1727 11.5521 37.0737 11.6511C36.9747 11.75 36.9191 11.8843 36.9191 12.0242C36.9191 12.1642 36.9747 12.2984 37.0737 12.3974C37.1727 12.4964 37.3069 12.552 37.4469 12.552H38.1752L35.5365 17.8293H35.3359C35.3359 18.9903 36.7503 19.9403 38.5023 19.9403C40.2544 19.9403 41.6688 18.9903 41.6688 17.8293H41.4682L38.7768 12.457C38.8435 12.4178 38.9008 12.3645 38.9446 12.3008C39.4114 11.7523 39.9888 11.3086 40.6391 10.999C41.2894 10.6895 41.9979 10.5209 42.7179 10.5043L42.7242 22.0512H41.6688V23.1067H39.5578V24.1621H48.0016V23.1067H45.8906V22.0512H44.8352V10.5043C45.5471 10.5178 46.2477 10.6844 46.8895 10.9927C47.5313 11.301 48.0992 11.7439 48.5546 12.2913C48.6034 12.374 48.6739 12.4419 48.7584 12.4876L46.0912 17.8293H45.8906C45.8906 18.9903 47.305 19.9403 49.0571 19.9403C50.8091 19.9403 52.2235 18.9903 52.2235 17.8293H52.0229ZM40.6133 17.8293H36.3914L38.5023 13.6708L40.6133 17.8293ZM46.9461 17.8293L49.0571 13.6708L51.168 17.8293H46.9461Z" fill="white"/>
</g>
<rect width="40" height="24.1143" transform="translate(25 37)" fill="white"/>
<path d="M32.668 45L30.86 39.36H31.612L33.084 44.144H33.012L34.652 39.36H35.236L36.86 44.144H36.804L38.292 39.36H39.012L37.196 45H36.516L34.924 40.344H34.956L33.332 45H32.668ZM41.5223 45.072C41.0796 45.072 40.6956 44.992 40.3703 44.832C40.0503 44.6667 39.8049 44.432 39.6343 44.128C39.4636 43.8187 39.3783 43.4507 39.3783 43.024C39.3783 42.624 39.4583 42.272 39.6183 41.968C39.7783 41.6587 40.0049 41.416 40.2983 41.24C40.5916 41.064 40.9409 40.976 41.3463 40.976C41.7303 40.976 42.0556 41.0587 42.3223 41.224C42.5943 41.3893 42.7996 41.6213 42.9383 41.92C43.0823 42.2187 43.1543 42.5733 43.1543 42.984V43.216H39.9143V42.72H42.6903L42.5383 42.88C42.5383 42.4427 42.4343 42.1067 42.2263 41.872C42.0236 41.6373 41.7303 41.52 41.3463 41.52C41.0956 41.52 40.8716 41.5787 40.6743 41.696C40.4823 41.808 40.3329 41.968 40.2263 42.176C40.1196 42.384 40.0663 42.6373 40.0663 42.936V43.016C40.0663 43.336 40.1249 43.6053 40.2423 43.824C40.3596 44.0427 40.5276 44.208 40.7463 44.32C40.9649 44.432 41.2263 44.488 41.5303 44.488C41.7489 44.488 41.9703 44.4587 42.1943 44.4C42.4236 44.336 42.6369 44.224 42.8343 44.064L43.0743 44.576C42.8716 44.7467 42.6289 44.872 42.3463 44.952C42.0689 45.032 41.7943 45.072 41.5223 45.072ZM44.2492 40.096V39.304H45.1132V40.096H44.2492ZM44.3292 45V41.048H45.0412V45H44.3292ZM48.174 46.512C47.8593 46.512 47.5473 46.464 47.238 46.368C46.9287 46.2773 46.6647 46.152 46.446 45.992L46.67 45.44C46.8193 45.536 46.9767 45.6187 47.142 45.688C47.3073 45.7627 47.4753 45.816 47.646 45.848C47.822 45.8853 47.9953 45.904 48.166 45.904C48.5767 45.904 48.8967 45.8 49.126 45.592C49.3607 45.384 49.478 45.088 49.478 44.704V43.976H49.462C49.366 44.248 49.1927 44.4693 48.942 44.64C48.6913 44.8053 48.4007 44.888 48.07 44.888C47.6967 44.888 47.3713 44.808 47.094 44.648C46.8167 44.4827 46.6007 44.2533 46.446 43.96C46.2967 43.6667 46.222 43.3227 46.222 42.928C46.222 42.5387 46.2967 42.1973 46.446 41.904C46.6007 41.6107 46.8167 41.384 47.094 41.224C47.3713 41.0587 47.6967 40.976 48.07 40.976C48.4007 40.976 48.6913 41.0613 48.942 41.232C49.198 41.4027 49.374 41.6293 49.47 41.912H49.478V41.048H50.142V44.64C50.142 45.024 50.062 45.3547 49.902 45.632C49.7473 45.9147 49.5233 46.1307 49.23 46.28C48.9367 46.4347 48.5847 46.512 48.174 46.512ZM48.19 44.304C48.5793 44.304 48.886 44.1787 49.11 43.928C49.3393 43.6773 49.454 43.344 49.454 42.928C49.454 42.512 49.3393 42.1813 49.11 41.936C48.886 41.6853 48.5793 41.56 48.19 41.56C47.806 41.56 47.4993 41.6853 47.27 41.936C47.046 42.1813 46.934 42.512 46.934 42.928C46.934 43.344 47.046 43.6773 47.27 43.928C47.4993 44.1787 47.806 44.304 48.19 44.304ZM51.5636 45V39.36H52.2516V41.888C52.3689 41.6053 52.5529 41.384 52.8036 41.224C53.0596 41.0587 53.3476 40.976 53.6676 40.976C53.9929 40.976 54.2649 41.0347 54.4836 41.152C54.7022 41.264 54.8649 41.44 54.9716 41.68C55.0836 41.9147 55.1396 42.208 55.1396 42.56V45H54.4276V42.6C54.4276 42.3867 54.3956 42.2053 54.3316 42.056C54.2729 41.9067 54.1769 41.792 54.0436 41.712C53.9102 41.6267 53.7316 41.584 53.5076 41.584C53.2729 41.584 53.0622 41.6373 52.8756 41.744C52.6889 41.8507 52.5422 41.9947 52.4356 42.176C52.3289 42.3573 52.2756 42.56 52.2756 42.784V45H51.5636ZM58.2119 45.072C57.7373 45.072 57.3773 44.9467 57.1319 44.696C56.8919 44.4453 56.7719 44.088 56.7719 43.624V41.632H55.9719V41.048H56.7959V39.872H57.4839V41.048H58.8999V41.632H57.4839V43.56C57.4839 43.864 57.5506 44.0907 57.6839 44.24C57.8226 44.384 58.0333 44.456 58.3159 44.456C58.4279 44.456 58.5346 44.4453 58.6359 44.424C58.7426 44.4027 58.8439 44.3707 58.9399 44.328L59.0519 44.888C58.9453 44.9467 58.8146 44.992 58.6599 45.024C58.5106 45.056 58.3613 45.072 58.2119 45.072Z" fill="#CE3439"/>
<path d="M26.9 58.072C26.2707 58.072 25.7747 57.936 25.412 57.664C25.0493 57.3867 24.868 57.0027 24.868 56.512C24.868 56.2613 24.916 56.04 25.012 55.848C25.1133 55.6507 25.252 55.4907 25.428 55.368C25.6093 55.24 25.8173 55.1547 26.052 55.112V55.12C25.8493 55.072 25.668 54.984 25.508 54.856C25.3533 54.728 25.2307 54.5733 25.14 54.392C25.0493 54.2107 25.004 54.0107 25.004 53.792C25.004 53.3227 25.1747 52.9547 25.516 52.688C25.8627 52.4213 26.324 52.288 26.9 52.288C27.476 52.288 27.9347 52.4213 28.276 52.688C28.6227 52.9547 28.796 53.3227 28.796 53.792C28.796 54.0053 28.7507 54.2053 28.66 54.392C28.5693 54.5733 28.444 54.728 28.284 54.856C28.1293 54.984 27.948 55.072 27.74 55.12V55.112C27.9693 55.1493 28.172 55.232 28.348 55.36C28.5293 55.488 28.6707 55.6507 28.772 55.848C28.8787 56.04 28.932 56.2613 28.932 56.512C28.932 57.0027 28.7507 57.3867 28.388 57.664C28.0307 57.936 27.5347 58.072 26.9 58.072ZM26.9 57.472C27.3427 57.472 27.6787 57.3867 27.908 57.216C28.1427 57.0453 28.26 56.7947 28.26 56.464C28.26 56.1333 28.1427 55.88 27.908 55.704C27.6787 55.528 27.3427 55.44 26.9 55.44C26.4573 55.44 26.1187 55.528 25.884 55.704C25.6547 55.88 25.54 56.1333 25.54 56.464C25.54 56.7947 25.6547 57.0453 25.884 57.216C26.1187 57.3867 26.4573 57.472 26.9 57.472ZM26.9 54.84C27.284 54.84 27.5853 54.7547 27.804 54.584C28.0227 54.408 28.132 54.1653 28.132 53.856C28.132 53.552 28.0227 53.3147 27.804 53.144C27.5853 52.968 27.284 52.88 26.9 52.88C26.5213 52.88 26.2227 52.968 26.004 53.144C25.7853 53.3147 25.676 53.552 25.676 53.856C25.676 54.1653 25.7853 54.408 26.004 54.584C26.2227 54.7547 26.5213 54.84 26.9 54.84ZM29.8729 58V57.12H30.7849V58H29.8729ZM33.4074 58.072C33.1994 58.072 32.9967 58.048 32.7994 58C32.6074 57.952 32.4234 57.88 32.2474 57.784C32.0767 57.6827 31.9167 57.56 31.7674 57.416L32.0394 56.872C32.258 57.0907 32.4794 57.2427 32.7034 57.328C32.9274 57.408 33.1647 57.448 33.4154 57.448C33.6767 57.448 33.906 57.4 34.1034 57.304C34.306 57.2027 34.4767 57.056 34.6154 56.864C34.754 56.6667 34.858 56.424 34.9274 56.136C34.9967 55.848 35.0314 55.5173 35.0314 55.144V54.68H35.0234C34.9807 54.9307 34.8847 55.1493 34.7354 55.336C34.5914 55.5173 34.4127 55.656 34.1994 55.752C33.986 55.848 33.7514 55.896 33.4954 55.896C33.1594 55.896 32.8607 55.8213 32.5994 55.672C32.338 55.5227 32.1327 55.3147 31.9834 55.048C31.8394 54.7813 31.7674 54.472 31.7674 54.12C31.7674 53.768 31.8447 53.4533 31.9994 53.176C32.154 52.8987 32.3674 52.6827 32.6394 52.528C32.9114 52.368 33.2234 52.288 33.5754 52.288C34.034 52.288 34.4207 52.3973 34.7354 52.616C35.05 52.8293 35.2874 53.1413 35.4474 53.552C35.6074 53.9627 35.6874 54.464 35.6874 55.056C35.6874 55.696 35.5967 56.2427 35.4154 56.696C35.234 57.144 34.9727 57.4853 34.6314 57.72C34.2954 57.9547 33.8874 58.072 33.4074 58.072ZM33.6154 55.304C33.85 55.304 34.058 55.2533 34.2394 55.152C34.4207 55.0507 34.562 54.9093 34.6634 54.728C34.7647 54.5467 34.8154 54.3387 34.8154 54.104C34.8154 53.8587 34.7647 53.6453 34.6634 53.464C34.5674 53.2827 34.4287 53.144 34.2474 53.048C34.066 52.9467 33.8527 52.896 33.6074 52.896C33.3727 52.896 33.1674 52.9467 32.9914 53.048C32.8154 53.1493 32.6767 53.2907 32.5754 53.472C32.4794 53.6533 32.4314 53.864 32.4314 54.104C32.4314 54.3387 32.482 54.5467 32.5834 54.728C32.6847 54.9093 32.8234 55.0507 32.9994 55.152C33.1754 55.2533 33.3807 55.304 33.6154 55.304ZM38.4763 58.072C38.2416 58.072 38.0096 58.048 37.7803 58C37.5509 57.952 37.3323 57.8773 37.1243 57.776C36.9216 57.6747 36.7349 57.5493 36.5643 57.4L36.8363 56.84C37.0923 57.0587 37.3589 57.216 37.6363 57.312C37.9136 57.4027 38.1936 57.448 38.4763 57.448C38.7109 57.448 38.9216 57.4133 39.1083 57.344C39.3003 57.2693 39.4496 57.16 39.5563 57.016C39.6683 56.8667 39.7243 56.6747 39.7243 56.44C39.7243 56.1147 39.6149 55.8693 39.3963 55.704C39.1776 55.5333 38.8603 55.448 38.4443 55.448H37.5963V54.832H38.3403C38.5803 54.832 38.7936 54.7947 38.9803 54.72C39.1723 54.64 39.3216 54.5227 39.4283 54.368C39.5349 54.2133 39.5883 54.0213 39.5883 53.792C39.5883 53.4987 39.4869 53.28 39.2843 53.136C39.0816 52.9867 38.8203 52.912 38.5003 52.912C38.2176 52.912 37.9403 52.96 37.6683 53.056C37.4016 53.152 37.1563 53.3173 36.9323 53.552L36.6683 53C36.8923 52.76 37.1696 52.5813 37.5003 52.464C37.8309 52.3467 38.1749 52.288 38.5323 52.288C38.8896 52.288 39.1963 52.3467 39.4523 52.464C39.7136 52.576 39.9163 52.7413 40.0603 52.96C40.2043 53.1733 40.2763 53.432 40.2763 53.736C40.2763 54.056 40.1856 54.3387 40.0043 54.584C39.8229 54.8293 39.5776 55.0027 39.2683 55.104V55.096C39.4923 55.1387 39.6896 55.2213 39.8603 55.344C40.0309 55.4613 40.1669 55.616 40.2682 55.808C40.3696 55.9947 40.4203 56.216 40.4203 56.472C40.4203 56.808 40.3376 57.096 40.1723 57.336C40.0123 57.576 39.7856 57.76 39.4923 57.888C39.2043 58.0107 38.8656 58.072 38.4763 58.072ZM45.0755 59.536C44.6968 58.96 44.4168 58.3733 44.2355 57.776C44.0595 57.1733 43.9715 56.5467 43.9715 55.896C43.9715 55.2453 44.0595 54.6213 44.2355 54.024C44.4168 53.4267 44.6968 52.8373 45.0755 52.256L45.5875 52.44C45.3848 52.8187 45.2168 53.2 45.0835 53.584C44.9502 53.968 44.8488 54.352 44.7795 54.736C44.7155 55.1147 44.6835 55.5013 44.6835 55.896C44.6835 56.2853 44.7155 56.672 44.7795 57.056C44.8488 57.44 44.9502 57.8213 45.0835 58.2C45.2168 58.584 45.3848 58.968 45.5875 59.352L45.0755 59.536ZM49.1967 58.072C48.61 58.072 48.1087 57.9573 47.6927 57.728C47.2767 57.4987 46.9567 57.1707 46.7327 56.744C46.514 56.312 46.4047 55.7893 46.4047 55.176C46.4047 54.5733 46.5114 54.0587 46.7247 53.632C46.9434 53.2 47.2554 52.8693 47.6607 52.64C48.066 52.4053 48.5514 52.288 49.1167 52.288C49.394 52.288 49.658 52.3147 49.9087 52.368C50.1594 52.4213 50.3914 52.5013 50.6047 52.608C50.818 52.7093 50.9994 52.8373 51.1487 52.992L50.8767 53.544C50.626 53.3253 50.3567 53.1707 50.0687 53.08C49.7807 52.984 49.4607 52.936 49.1087 52.936C48.49 52.936 48.0074 53.128 47.6607 53.512C47.3194 53.8907 47.1487 54.4453 47.1487 55.176C47.1487 55.9333 47.3247 56.5013 47.6767 56.88C48.034 57.2533 48.5514 57.44 49.2287 57.44C49.5274 57.44 49.8047 57.416 50.0607 57.368C50.322 57.32 50.5594 57.2507 50.7727 57.16L50.5647 57.576V55.616H49.1567V55.008H51.2127V57.672C51.0634 57.7467 50.8767 57.816 50.6527 57.88C50.4287 57.9387 50.1914 57.984 49.9407 58.016C49.69 58.0533 49.442 58.072 49.1967 58.072ZM52.6886 58V54.048H53.3366V54.96H53.3446C53.4406 54.6667 53.6086 54.4373 53.8486 54.272C54.0886 54.1013 54.3819 54.0053 54.7286 53.984L55.0886 53.968L55.1526 54.616L54.5766 54.664C54.2086 54.696 53.9206 54.8187 53.7126 55.032C53.5046 55.24 53.4006 55.5013 53.4006 55.816V58H52.6886ZM56.0483 58V54.048H56.7043V54.912C56.7736 54.736 56.8696 54.5787 56.9923 54.44C57.1203 54.296 57.2723 54.184 57.4483 54.104C57.6296 54.0187 57.827 53.976 58.0403 53.976C58.387 53.976 58.6723 54.0613 58.8963 54.232C59.1203 54.4027 59.259 54.6267 59.3123 54.904H59.3043C59.411 54.6427 59.579 54.424 59.8083 54.248C60.043 54.0667 60.3363 53.976 60.6883 53.976C60.987 53.976 61.2403 54.0347 61.4483 54.152C61.6563 54.264 61.8136 54.4373 61.9203 54.672C62.027 54.9067 62.0803 55.2027 62.0803 55.56V58H61.3763V55.608C61.3763 55.2667 61.315 55.0107 61.1923 54.84C61.0696 54.6693 60.851 54.584 60.5363 54.584C60.3016 54.584 60.099 54.6373 59.9283 54.744C59.763 54.8453 59.635 54.9893 59.5443 55.176C59.459 55.3573 59.4163 55.5627 59.4163 55.792V58H58.7123V55.608C58.7123 55.272 58.643 55.0187 58.5043 54.848C58.3656 54.672 58.155 54.584 57.8723 54.584C57.643 54.584 57.443 54.6427 57.2723 54.76C57.107 54.872 56.979 55.0187 56.8883 55.2C56.7976 55.3813 56.7523 55.5733 56.7523 55.776V58H56.0483ZM63.6049 59.536L63.0849 59.352C63.2929 58.9627 63.4635 58.576 63.5969 58.192C63.7302 57.8133 63.8289 57.4347 63.8929 57.056C63.9569 56.672 63.9889 56.2853 63.9889 55.896C63.9889 55.5067 63.9569 55.1227 63.8929 54.744C63.8289 54.36 63.7302 53.976 63.5969 53.592C63.4635 53.208 63.2929 52.824 63.0849 52.44L63.6049 52.256C63.9782 52.832 64.2529 53.4213 64.4289 54.024C64.6102 54.6213 64.7009 55.2453 64.7009 55.896C64.7009 56.5413 64.6102 57.1653 64.4289 57.768C64.2529 58.3653 63.9782 58.9547 63.6049 59.536Z" fill="black"/>
<defs>
<filter id="filter0_d_271_340" x="0.0999999" y="24" width="89.8" height="57.9" filterUnits="userSpaceOnUse" color-interpolation-filters="sRGB">
<feFlood flood-opacity="0" result="BackgroundImageFix"/>
<feColorMatrix in="SourceAlpha" type="matrix" values="0 0 0 0 0 0 0 0 0 0 0 0 0 0 0 0 0 0 127 0" result="hardAlpha"/>
<feOffset dy="4"/>
<feGaussianBlur stdDeviation="1.95"/>
<feComposite in2="hardAlpha" operator="out"/>
<feColorMatrix type="matrix" values="0 0 0 0 0 0 0 0 0 0 0 0 0 0 0 0 0 0 0.2 0"/>
<feBlend mode="normal" in2="BackgroundImageFix" result="effect1_dropShadow_271_340"/>
<feBlend mode="normal" in="SourceGraphic" in2="effect1_dropShadow_271_340" result="shape"/>
</filter>
<clipPath id="clip0_271_340">
<rect width="16.8875" height="16.8875" fill="white" transform="translate(35.3359 7.27441)"/>
</clipPath>
</defs>
</svg>
