<svg width="84" height="83" viewBox="0 0 84 83" fill="none" xmlns="http://www.w3.org/2000/svg">
<g filter="url(#filter0_d_271_349)">
<rect x="4" y="25" width="76" height="50" rx="2" fill="white"/>
<rect x="4.25" y="25.25" width="75.5" height="49.5" rx="1.75" stroke="white" stroke-width="0.5"/>
</g>
<rect x="27.1211" y="0.423828" width="28.0303" height="30.1991" rx="3" fill="#CB3335"/>
<g clip-path="url(#clip0_271_349)">
<path d="M48.5291 18.1638L45.9834 13.0723H46.686C46.821 13.0723 46.9505 13.0186 47.046 12.9231C47.1415 12.8276 47.1952 12.6981 47.1952 12.5631C47.1952 12.4281 47.1415 12.2986 47.046 12.2031C46.9505 12.1076 46.821 12.0539 46.686 12.0539H45.8815C45.3345 11.4581 44.6754 10.9761 43.9419 10.6353C43.2083 10.2946 42.4148 10.1019 41.6067 10.0682L41.5945 10.0173C41.5945 9.74726 41.4872 9.48825 41.2962 9.29728C41.1052 9.10631 40.8462 8.99902 40.5762 8.99902C40.3061 8.99902 40.0471 9.10631 39.8561 9.29728C39.6651 9.48825 39.5578 9.74726 39.5578 10.0173V10.0682C37.9121 10.1367 36.3591 10.8487 35.2331 12.0509L34.4663 12.0539C34.3313 12.0539 34.2018 12.1076 34.1063 12.2031C34.0108 12.2986 33.9571 12.4281 33.9571 12.5631C33.9571 12.6981 34.0108 12.8276 34.1063 12.9231C34.2018 13.0186 34.3313 13.0723 34.4663 13.0723H35.1689L32.6232 18.1638H32.4297C32.4297 19.2839 33.7942 20.2004 35.4846 20.2004C37.175 20.2004 38.5395 19.2839 38.5395 18.1638H38.3461L35.7494 12.9806C35.8137 12.9428 35.869 12.8914 35.9113 12.8299C36.3616 12.3007 36.9188 11.8727 37.5462 11.574C38.1736 11.2753 38.857 11.1127 39.5517 11.0967L39.5578 22.237H38.5395V23.2553H36.5029V24.2736H44.6494V23.2553H42.6128V22.237H41.5945V11.0967C42.2813 11.1097 42.9573 11.2704 43.5765 11.5679C44.1957 11.8654 44.7436 12.2927 45.183 12.8207C45.23 12.9006 45.298 12.9661 45.3795 13.0101L42.8062 18.1638H42.6128C42.6128 19.2839 43.9773 20.2004 45.6677 20.2004C47.3581 20.2004 48.7226 19.2839 48.7226 18.1638H48.5291ZM37.5212 18.1638H33.448L35.4846 14.1517L37.5212 18.1638ZM43.6311 18.1638L45.6677 14.1517L47.7043 18.1638H43.6311Z" fill="white"/>
</g>
<rect width="44" height="26.9344" transform="translate(20 37)" fill="white"/>
<path d="M29.668 45L27.86 39.36H28.612L30.084 44.144H30.012L31.652 39.36H32.236L33.86 44.144H33.804L35.292 39.36H36.012L34.196 45H33.516L31.924 40.344H31.956L30.332 45H29.668ZM38.5223 45.072C38.0796 45.072 37.6956 44.992 37.3703 44.832C37.0503 44.6667 36.8049 44.432 36.6343 44.128C36.4636 43.8187 36.3783 43.4507 36.3783 43.024C36.3783 42.624 36.4583 42.272 36.6183 41.968C36.7783 41.6587 37.0049 41.416 37.2983 41.24C37.5916 41.064 37.9409 40.976 38.3463 40.976C38.7303 40.976 39.0556 41.0587 39.3223 41.224C39.5943 41.3893 39.7996 41.6213 39.9383 41.92C40.0823 42.2187 40.1543 42.5733 40.1543 42.984V43.216H36.9143V42.72H39.6903L39.5383 42.88C39.5383 42.4427 39.4343 42.1067 39.2263 41.872C39.0236 41.6373 38.7303 41.52 38.3463 41.52C38.0956 41.52 37.8716 41.5787 37.6743 41.696C37.4823 41.808 37.3329 41.968 37.2263 42.176C37.1196 42.384 37.0663 42.6373 37.0663 42.936V43.016C37.0663 43.336 37.1249 43.6053 37.2423 43.824C37.3596 44.0427 37.5276 44.208 37.7463 44.32C37.9649 44.432 38.2263 44.488 38.5303 44.488C38.7489 44.488 38.9703 44.4587 39.1943 44.4C39.4236 44.336 39.6369 44.224 39.8343 44.064L40.0743 44.576C39.8716 44.7467 39.6289 44.872 39.3463 44.952C39.0689 45.032 38.7943 45.072 38.5223 45.072ZM41.2492 40.096V39.304H42.1132V40.096H41.2492ZM41.3292 45V41.048H42.0412V45H41.3292ZM45.174 46.512C44.8593 46.512 44.5473 46.464 44.238 46.368C43.9287 46.2773 43.6647 46.152 43.446 45.992L43.67 45.44C43.8193 45.536 43.9767 45.6187 44.142 45.688C44.3073 45.7627 44.4753 45.816 44.646 45.848C44.822 45.8853 44.9953 45.904 45.166 45.904C45.5767 45.904 45.8967 45.8 46.126 45.592C46.3607 45.384 46.478 45.088 46.478 44.704V43.976H46.462C46.366 44.248 46.1927 44.4693 45.942 44.64C45.6913 44.8053 45.4007 44.888 45.07 44.888C44.6967 44.888 44.3713 44.808 44.094 44.648C43.8167 44.4827 43.6007 44.2533 43.446 43.96C43.2967 43.6667 43.222 43.3227 43.222 42.928C43.222 42.5387 43.2967 42.1973 43.446 41.904C43.6007 41.6107 43.8167 41.384 44.094 41.224C44.3713 41.0587 44.6967 40.976 45.07 40.976C45.4007 40.976 45.6913 41.0613 45.942 41.232C46.198 41.4027 46.374 41.6293 46.47 41.912H46.478V41.048H47.142V44.64C47.142 45.024 47.062 45.3547 46.902 45.632C46.7473 45.9147 46.5233 46.1307 46.23 46.28C45.9367 46.4347 45.5847 46.512 45.174 46.512ZM45.19 44.304C45.5793 44.304 45.886 44.1787 46.11 43.928C46.3393 43.6773 46.454 43.344 46.454 42.928C46.454 42.512 46.3393 42.1813 46.11 41.936C45.886 41.6853 45.5793 41.56 45.19 41.56C44.806 41.56 44.4993 41.6853 44.27 41.936C44.046 42.1813 43.934 42.512 43.934 42.928C43.934 43.344 44.046 43.6773 44.27 43.928C44.4993 44.1787 44.806 44.304 45.19 44.304ZM48.5636 45V39.36H49.2516V41.888C49.3689 41.6053 49.5529 41.384 49.8036 41.224C50.0596 41.0587 50.3476 40.976 50.6676 40.976C50.9929 40.976 51.2649 41.0347 51.4836 41.152C51.7022 41.264 51.8649 41.44 51.9716 41.68C52.0836 41.9147 52.1396 42.208 52.1396 42.56V45H51.4276V42.6C51.4276 42.3867 51.3956 42.2053 51.3316 42.056C51.2729 41.9067 51.1769 41.792 51.0436 41.712C50.9102 41.6267 50.7316 41.584 50.5076 41.584C50.2729 41.584 50.0622 41.6373 49.8756 41.744C49.6889 41.8507 49.5422 41.9947 49.4356 42.176C49.3289 42.3573 49.2756 42.56 49.2756 42.784V45H48.5636ZM55.2119 45.072C54.7373 45.072 54.3773 44.9467 54.1319 44.696C53.8919 44.4453 53.7719 44.088 53.7719 43.624V41.632H52.9719V41.048H53.7959V39.872H54.4839V41.048H55.8999V41.632H54.4839V43.56C54.4839 43.864 54.5506 44.0907 54.6839 44.24C54.8226 44.384 55.0333 44.456 55.3159 44.456C55.4279 44.456 55.5346 44.4453 55.6359 44.424C55.7426 44.4027 55.8439 44.3707 55.9399 44.328L56.0519 44.888C55.9453 44.9467 55.8146 44.992 55.6599 45.024C55.5106 45.056 55.3613 45.072 55.2119 45.072Z" fill="#CE3439"/>
<path d="M19.736 58V57.392H21.28V52.928L21.656 52.984L20.016 54.04L19.696 53.488L21.464 52.36H21.984V57.392H23.408V58H19.736ZM26.2609 58.072C26.0155 58.072 25.7782 58.0453 25.5489 57.992C25.3249 57.9387 25.1142 57.8613 24.9169 57.76C24.7195 57.6533 24.5435 57.5253 24.3889 57.376L24.6689 56.816C24.9142 57.04 25.1649 57.2027 25.4209 57.304C25.6822 57.4 25.9622 57.448 26.2609 57.448C26.6555 57.448 26.9622 57.3467 27.1809 57.144C27.4049 56.936 27.5169 56.6453 27.5169 56.272C27.5169 55.904 27.4129 55.6107 27.2049 55.392C26.9969 55.1733 26.7089 55.064 26.3409 55.064C26.0955 55.064 25.8715 55.1147 25.6689 55.216C25.4715 55.312 25.2875 55.4747 25.1169 55.704H24.5569V52.36H27.9329V52.976H25.2049V55.096H25.1729C25.3009 54.904 25.4769 54.7493 25.7009 54.632C25.9249 54.5093 26.1755 54.448 26.4529 54.448C26.8155 54.448 27.1275 54.5253 27.3889 54.68C27.6502 54.8293 27.8502 55.0373 27.9889 55.304C28.1329 55.5707 28.2049 55.8827 28.2049 56.24C28.2049 56.6187 28.1249 56.9467 27.9649 57.224C27.8049 57.496 27.5809 57.7067 27.2929 57.856C27.0049 58 26.6609 58.072 26.2609 58.072ZM29.1698 58V57.12H30.0818V58H29.1698ZM33.1203 58.072C32.8749 58.072 32.6376 58.0453 32.4083 57.992C32.1843 57.9387 31.9736 57.8613 31.7763 57.76C31.5789 57.6533 31.4029 57.5253 31.2483 57.376L31.5283 56.816C31.7736 57.04 32.0243 57.2027 32.2803 57.304C32.5416 57.4 32.8216 57.448 33.1203 57.448C33.5149 57.448 33.8216 57.3467 34.0403 57.144C34.2643 56.936 34.3763 56.6453 34.3763 56.272C34.3763 55.904 34.2723 55.6107 34.0643 55.392C33.8563 55.1733 33.5683 55.064 33.2003 55.064C32.9549 55.064 32.7309 55.1147 32.5283 55.216C32.3309 55.312 32.1469 55.4747 31.9763 55.704H31.4163V52.36H34.7923V52.976H32.0643V55.096H32.0323C32.1603 54.904 32.3363 54.7493 32.5603 54.632C32.7843 54.5093 33.0349 54.448 33.3123 54.448C33.6749 54.448 33.9869 54.5253 34.2483 54.68C34.5096 54.8293 34.7096 55.0373 34.8483 55.304C34.9923 55.5707 35.0642 55.8827 35.0642 56.24C35.0642 56.6187 34.9843 56.9467 34.8243 57.224C34.6643 57.496 34.4403 57.7067 34.1523 57.856C33.8643 58 33.5203 58.072 33.1203 58.072ZM36.3491 58L39.1091 52.648L39.1411 52.992H35.9651V52.36H39.7331V52.896L37.1251 58H36.3491ZM44.3724 59.536C43.9937 58.96 43.7137 58.3733 43.5324 57.776C43.3564 57.1733 43.2684 56.5467 43.2684 55.896C43.2684 55.2453 43.3564 54.6213 43.5324 54.024C43.7137 53.4267 43.9937 52.8373 44.3724 52.256L44.8844 52.44C44.6817 52.8187 44.5137 53.2 44.3804 53.584C44.247 53.968 44.1457 54.352 44.0764 54.736C44.0124 55.1147 43.9804 55.5013 43.9804 55.896C43.9804 56.2853 44.0124 56.672 44.0764 57.056C44.1457 57.44 44.247 57.8213 44.3804 58.2C44.5137 58.584 44.6817 58.968 44.8844 59.352L44.3724 59.536ZM48.4936 58.072C47.9069 58.072 47.4056 57.9573 46.9896 57.728C46.5736 57.4987 46.2536 57.1707 46.0296 56.744C45.8109 56.312 45.7016 55.7893 45.7016 55.176C45.7016 54.5733 45.8082 54.0587 46.0216 53.632C46.2402 53.2 46.5522 52.8693 46.9576 52.64C47.3629 52.4053 47.8482 52.288 48.4136 52.288C48.6909 52.288 48.9549 52.3147 49.2056 52.368C49.4562 52.4213 49.6882 52.5013 49.9016 52.608C50.1149 52.7093 50.2962 52.8373 50.4456 52.992L50.1736 53.544C49.9229 53.3253 49.6536 53.1707 49.3656 53.08C49.0776 52.984 48.7576 52.936 48.4056 52.936C47.7869 52.936 47.3042 53.128 46.9576 53.512C46.6162 53.8907 46.4456 54.4453 46.4456 55.176C46.4456 55.9333 46.6216 56.5013 46.9736 56.88C47.3309 57.2533 47.8482 57.44 48.5256 57.44C48.8242 57.44 49.1016 57.416 49.3576 57.368C49.6189 57.32 49.8562 57.2507 50.0696 57.16L49.8616 57.576V55.616H48.4536V55.008H50.5096V57.672C50.3602 57.7467 50.1736 57.816 49.9496 57.88C49.7256 57.9387 49.4882 57.984 49.2376 58.016C48.9869 58.0533 48.7389 58.072 48.4936 58.072ZM51.9854 58V54.048H52.6334V54.96H52.6414C52.7374 54.6667 52.9054 54.4373 53.1454 54.272C53.3854 54.1013 53.6788 54.0053 54.0254 53.984L54.3854 53.968L54.4494 54.616L53.8734 54.664C53.5054 54.696 53.2174 54.8187 53.0094 55.032C52.8014 55.24 52.6974 55.5013 52.6974 55.816V58H51.9854ZM55.3452 58V54.048H56.0012V54.912C56.0705 54.736 56.1665 54.5787 56.2892 54.44C56.4172 54.296 56.5692 54.184 56.7452 54.104C56.9265 54.0187 57.1239 53.976 57.3372 53.976C57.6839 53.976 57.9692 54.0613 58.1932 54.232C58.4172 54.4027 58.5559 54.6267 58.6092 54.904H58.6012C58.7079 54.6427 58.8759 54.424 59.1052 54.248C59.3399 54.0667 59.6332 53.976 59.9852 53.976C60.2839 53.976 60.5372 54.0347 60.7452 54.152C60.9532 54.264 61.1105 54.4373 61.2172 54.672C61.3239 54.9067 61.3772 55.2027 61.3772 55.56V58H60.6732V55.608C60.6732 55.2667 60.6119 55.0107 60.4892 54.84C60.3665 54.6693 60.1479 54.584 59.8332 54.584C59.5985 54.584 59.3959 54.6373 59.2252 54.744C59.0599 54.8453 58.9319 54.9893 58.8412 55.176C58.7559 55.3573 58.7132 55.5627 58.7132 55.792V58H58.0092V55.608C58.0092 55.272 57.9399 55.0187 57.8012 54.848C57.6625 54.672 57.4519 54.584 57.1692 54.584C56.9399 54.584 56.7399 54.6427 56.5692 54.76C56.4039 54.872 56.2759 55.0187 56.1852 55.2C56.0945 55.3813 56.0492 55.5733 56.0492 55.776V58H55.3452ZM62.9018 59.536L62.3818 59.352C62.5898 58.9627 62.7604 58.576 62.8938 58.192C63.0271 57.8133 63.1258 57.4347 63.1898 57.056C63.2538 56.672 63.2858 56.2853 63.2858 55.896C63.2858 55.5067 63.2538 55.1227 63.1898 54.744C63.1258 54.36 63.0271 53.976 62.8938 53.592C62.7604 53.208 62.5898 52.824 62.3818 52.44L62.9018 52.256C63.2751 52.832 63.5498 53.4213 63.7258 54.024C63.9071 54.6213 63.9978 55.2453 63.9978 55.896C63.9978 56.5413 63.9071 57.1653 63.7258 57.768C63.5498 58.3653 63.2751 58.9547 62.9018 59.536Z" fill="black"/>
<defs>
<filter id="filter0_d_271_349" x="0.0999999" y="25" width="83.8" height="57.9" filterUnits="userSpaceOnUse" color-interpolation-filters="sRGB">
<feFlood flood-opacity="0" result="BackgroundImageFix"/>
<feColorMatrix in="SourceAlpha" type="matrix" values="0 0 0 0 0 0 0 0 0 0 0 0 0 0 0 0 0 0 127 0" result="hardAlpha"/>
<feOffset dy="4"/>
<feGaussianBlur stdDeviation="1.95"/>
<feComposite in2="hardAlpha" operator="out"/>
<feColorMatrix type="matrix" values="0 0 0 0 0 0 0 0 0 0 0 0 0 0 0 0 0 0 0.2 0"/>
<feBlend mode="normal" in2="BackgroundImageFix" result="effect1_dropShadow_271_349"/>
<feBlend mode="normal" in="SourceGraphic" in2="effect1_dropShadow_271_349" result="shape"/>
</filter>
<clipPath id="clip0_271_349">
<rect width="16.2929" height="16.2929" fill="white" transform="translate(32.4297 7.98047)"/>
</clipPath>
</defs>
</svg>
