<svg width="84" height="83" viewBox="0 0 84 83" fill="none" xmlns="http://www.w3.org/2000/svg">
<g filter="url(#filter0_d_271_331)">
<rect x="4" y="25" width="76" height="50" rx="2" fill="white"/>
<rect x="4.25" y="25.25" width="75.5" height="49.5" rx="1.75" stroke="white" stroke-width="0.5"/>
</g>
<rect x="27.5449" y="0.423828" width="28.0303" height="30.1991" rx="3" fill="#CB3335"/>
<g clip-path="url(#clip0_271_331)">
<path fill-rule="evenodd" clip-rule="evenodd" d="M33.4953 11.0857C33.5474 11.1065 33.6084 11.1531 33.6311 11.1894C33.6648 11.2433 33.6722 11.7133 33.6719 16.2266L33.5968 16.3091C33.5443 16.3666 33.4882 16.3917 33.4128 16.3917C33.3377 16.3917 33.2804 16.3663 33.1507 16.2266V13.7493C33.1507 12.1638 33.1617 11.2482 33.1814 11.206C33.1982 11.1696 33.2546 11.1194 33.3064 11.094C33.3803 11.0583 33.4214 11.0567 33.4953 11.0857ZM48.6711 11.0857C48.7232 11.1065 48.7842 11.1531 48.8069 11.1894C48.8406 11.2433 48.848 11.7133 48.8477 16.2266L48.7726 16.3091C48.7201 16.3666 48.664 16.3917 48.5886 16.3917C48.5135 16.3917 48.4562 16.3663 48.3265 16.2266V13.7493C48.3265 12.1638 48.3375 11.2482 48.3571 11.206C48.374 11.1696 48.4304 11.1194 48.4822 11.094C48.5561 11.0583 48.5972 11.0567 48.6711 11.0857ZM48.6996 17.267L48.8477 17.4487V19.2158C48.8477 20.3279 48.8363 21.0074 48.817 21.049C48.8001 21.0853 48.7382 21.1375 48.679 21.1646C48.5846 21.2082 47.6621 21.2141 40.9992 21.2141C34.3362 21.2141 33.4137 21.2082 33.3193 21.1646C33.2601 21.1375 33.1982 21.0853 33.1814 21.049C33.162 21.0074 33.1507 20.3299 33.1504 19.2241C33.1504 17.6607 33.1556 17.4566 33.1994 17.3886C33.2267 17.3463 33.2785 17.2991 33.3147 17.2832C33.3515 17.267 36.7662 17.2571 48.6996 17.267ZM33.6872 20.6361H48.3112L48.3161 17.812H47.5294C47.5278 18.3626 47.5134 18.5099 47.4901 18.5446C47.4696 18.5753 47.4113 18.6173 47.3607 18.6381C47.2866 18.6688 47.2495 18.6658 47.1691 18.6239C47.1038 18.5895 47.0588 18.5347 47.0382 18.4644C47.0211 18.4052 47.0073 18.2345 47.0076 18.0845L47.0082 17.812H45.9658C45.9658 19.0219 45.9643 19.0358 45.8919 19.125C45.8364 19.193 45.7898 19.2158 45.7052 19.2158C45.6206 19.2158 45.574 19.193 45.5185 19.125C45.4461 19.0358 45.4446 19.0219 45.4446 18.4231V17.812H44.4022C44.3878 18.4657 44.3792 18.5123 44.3185 18.5773C44.2741 18.6252 44.2115 18.6516 44.1398 18.6526C44.0561 18.654 44.0107 18.6318 43.9549 18.5635C43.8875 18.4805 43.881 18.4442 43.881 18.1423V17.812H42.8387C42.8387 18.7993 42.8276 18.9631 42.7927 19.0506C42.7651 19.1203 42.7133 19.1801 42.6624 19.2013C42.6161 19.2204 42.5471 19.2277 42.5091 19.2178C42.4711 19.2075 42.4122 19.1659 42.3782 19.125C42.3205 19.0559 42.3163 19.0067 42.3169 18.4313L42.3175 17.812H41.2751C41.2748 18.2087 41.261 18.3798 41.2441 18.4478C41.2215 18.5407 41.1868 18.5862 41.1065 18.6295C41.0044 18.6847 40.994 18.6847 40.8919 18.6295C40.8116 18.5862 40.7769 18.5407 40.7542 18.4478C40.7374 18.3798 40.7236 18.2087 40.7236 18.068L40.7233 17.812H39.6809C39.6793 18.866 39.6677 19.0662 39.6416 19.1032C39.6211 19.1319 39.5733 19.1729 39.5353 19.194C39.4972 19.2151 39.4249 19.225 39.3743 19.2158C39.313 19.2048 39.2619 19.1635 39.221 19.0919C39.1661 18.9952 39.16 18.9261 39.1597 18.3983V17.812H38.1173C38.1173 18.4442 38.1109 18.4805 38.0434 18.5635C37.9886 18.6305 37.9407 18.6543 37.8601 18.6543C37.7875 18.6543 37.728 18.6292 37.6814 18.579C37.6188 18.5119 37.6105 18.468 37.6038 18.1578L37.5961 17.812H36.5538C36.5387 19.0371 36.5354 19.0688 36.4701 19.1388C36.4256 19.1867 36.3631 19.2132 36.2913 19.2141C36.2076 19.2155 36.1622 19.1933 36.1064 19.125C36.0341 19.0358 36.0326 19.0219 36.0326 18.4231V17.812H34.9902C34.9911 18.2345 34.9773 18.4052 34.9601 18.4644C34.9396 18.5347 34.8945 18.5895 34.8292 18.6239C34.7489 18.6658 34.7118 18.6688 34.6376 18.6381C34.587 18.6173 34.5288 18.5753 34.5082 18.5446C34.4849 18.5099 34.4705 18.3626 34.4699 18.1506L34.469 17.812H33.6713L33.6872 20.6361ZM35.653 11.8996C35.6932 11.8996 35.764 11.9356 35.8946 12.0588L35.9099 13.5841H46.0884L46.1038 12.0588L46.1881 11.9792C46.2344 11.9356 46.3033 11.8989 46.3414 11.8983C46.3794 11.8973 46.4407 11.9234 46.4775 11.9561C46.5146 11.9884 46.8218 12.4016 47.1602 12.874C47.499 13.3463 47.7841 13.7701 47.7943 13.8153C47.805 13.8629 47.7927 13.9399 47.7654 13.997C47.7394 14.0515 47.488 14.4158 47.2072 14.8063C46.926 15.197 46.6421 15.5871 46.5762 15.6733C46.4818 15.7968 46.4367 15.8302 46.3644 15.8302C46.3138 15.8302 46.2448 15.8153 46.2111 15.7972C46.1773 15.779 46.1356 15.7159 46.1185 15.6568C46.1013 15.5977 46.0875 15.2337 46.0884 14.1456H35.9099L35.9105 14.8475C35.9105 15.2337 35.8967 15.5977 35.8799 15.6568C35.8627 15.7159 35.821 15.779 35.7873 15.7972C35.7536 15.8153 35.6846 15.8302 35.634 15.8302C35.5617 15.8302 35.5166 15.7968 35.4222 15.6733C35.3559 15.5871 35.072 15.197 34.7912 14.8063C34.5101 14.4158 34.259 14.0515 34.2329 13.997C34.2056 13.9399 34.1934 13.8629 34.2041 13.8153C34.2142 13.7701 34.4993 13.3463 34.8378 12.874C35.1763 12.4016 35.4819 11.9891 35.5169 11.9574C35.5515 11.9257 35.6129 11.8996 35.653 11.8996ZM34.8059 13.931C34.828 13.9673 34.9644 14.1625 35.1094 14.365C35.2548 14.5674 35.3838 14.7273 35.3964 14.72C35.409 14.7131 35.4194 14.3283 35.4194 13.8649C35.4194 13.3992 35.4071 13.0226 35.3921 13.0226C35.3774 13.0226 35.2305 13.2122 35.0656 13.4438C34.7952 13.8246 34.7701 13.8712 34.8059 13.931ZM46.602 14.72C46.6145 14.7273 46.7436 14.5674 46.8886 14.365C47.0336 14.1625 47.1704 13.9673 47.1921 13.931C47.228 13.8712 47.2029 13.8246 46.9285 13.4424C46.7614 13.2099 46.6145 13.0203 46.602 13.0213C46.5894 13.022 46.579 13.4018 46.579 13.8649C46.579 14.3283 46.5894 14.7131 46.602 14.72Z" fill="white"/>
</g>
<path d="M22.332 45.999V40.359H24.308C24.9107 40.359 25.4227 40.4684 25.844 40.687C26.2653 40.9057 26.5853 41.2257 26.804 41.647C27.028 42.063 27.14 42.5724 27.14 43.175C27.14 43.7777 27.028 44.2897 26.804 44.711C26.5853 45.1324 26.2653 45.4524 25.844 45.671C25.4227 45.8897 24.9107 45.999 24.308 45.999H22.332ZM23.044 45.375H24.268C24.9667 45.375 25.4947 45.1937 25.852 44.831C26.2147 44.4684 26.396 43.9164 26.396 43.175C26.396 42.4337 26.2147 41.8844 25.852 41.527C25.4947 41.1644 24.9667 40.983 24.268 40.983H23.044V45.375ZM28.3742 41.095V40.303H29.2382V41.095H28.3742ZM28.4542 45.999V42.047H29.1662V45.999H28.4542ZM30.603 45.999V42.047H31.259V42.911C31.3283 42.735 31.4243 42.5777 31.547 42.439C31.675 42.295 31.827 42.183 32.003 42.103C32.1843 42.0177 32.3817 41.975 32.595 41.975C32.9417 41.975 33.227 42.0604 33.451 42.231C33.675 42.4017 33.8137 42.6257 33.867 42.903H33.859C33.9657 42.6417 34.1337 42.423 34.363 42.247C34.5977 42.0657 34.891 41.975 35.243 41.975C35.5417 41.975 35.795 42.0337 36.003 42.151C36.211 42.263 36.3683 42.4364 36.475 42.671C36.5817 42.9057 36.635 43.2017 36.635 43.559V45.999H35.931V43.607C35.931 43.2657 35.8697 43.0097 35.747 42.839C35.6243 42.6684 35.4057 42.583 35.091 42.583C34.8563 42.583 34.6537 42.6364 34.483 42.743C34.3177 42.8444 34.1897 42.9884 34.099 43.175C34.0137 43.3564 33.971 43.5617 33.971 43.791V45.999H33.267V43.607C33.267 43.271 33.1977 43.0177 33.059 42.847C32.9203 42.671 32.7097 42.583 32.427 42.583C32.1977 42.583 31.9977 42.6417 31.827 42.759C31.6617 42.871 31.5337 43.0177 31.443 43.199C31.3523 43.3804 31.307 43.5724 31.307 43.775V45.999H30.603ZM39.9676 46.071C39.5249 46.071 39.1409 45.991 38.8156 45.831C38.4956 45.6657 38.2502 45.431 38.0796 45.127C37.9089 44.8177 37.8236 44.4497 37.8236 44.023C37.8236 43.623 37.9036 43.271 38.0636 42.967C38.2236 42.6577 38.4502 42.415 38.7436 42.239C39.0369 42.063 39.3862 41.975 39.7916 41.975C40.1756 41.975 40.5009 42.0577 40.7676 42.223C41.0396 42.3884 41.2449 42.6204 41.3836 42.919C41.5276 43.2177 41.5996 43.5724 41.5996 43.983V44.215H38.3596V43.719H41.1356L40.9836 43.879C40.9836 43.4417 40.8796 43.1057 40.6716 42.871C40.4689 42.6364 40.1756 42.519 39.7916 42.519C39.5409 42.519 39.3169 42.5777 39.1196 42.695C38.9276 42.807 38.7782 42.967 38.6716 43.175C38.5649 43.383 38.5116 43.6364 38.5116 43.935V44.015C38.5116 44.335 38.5702 44.6044 38.6876 44.823C38.8049 45.0417 38.9729 45.207 39.1916 45.319C39.4102 45.431 39.6716 45.487 39.9756 45.487C40.1942 45.487 40.4156 45.4577 40.6396 45.399C40.8689 45.335 41.0822 45.223 41.2796 45.063L41.5196 45.575C41.3169 45.7457 41.0742 45.871 40.7916 45.951C40.5142 46.031 40.2396 46.071 39.9676 46.071ZM42.7745 45.999V42.047H43.4385V42.903C43.5665 42.6097 43.7585 42.383 44.0145 42.223C44.2705 42.0577 44.5585 41.975 44.8785 41.975C45.2038 41.975 45.4758 42.0337 45.6945 42.151C45.9132 42.263 46.0758 42.439 46.1825 42.679C46.2945 42.9137 46.3505 43.207 46.3505 43.559V45.999H45.6385V43.599C45.6385 43.3857 45.6092 43.2044 45.5505 43.055C45.4918 42.9057 45.3932 42.791 45.2545 42.711C45.1212 42.6257 44.9425 42.583 44.7185 42.583C44.4838 42.583 44.2705 42.6364 44.0785 42.743C43.8918 42.8497 43.7452 42.9937 43.6385 43.175C43.5372 43.3564 43.4865 43.559 43.4865 43.783V45.999H42.7745ZM49.2149 46.071C48.9962 46.071 48.7802 46.0497 48.5669 46.007C48.3589 45.9697 48.1642 45.9164 47.9829 45.847C47.8069 45.7724 47.6549 45.6817 47.5269 45.575L47.7589 45.071C47.8922 45.1724 48.0389 45.255 48.1989 45.319C48.3642 45.383 48.5322 45.431 48.7029 45.463C48.8789 45.4897 49.0469 45.503 49.2069 45.503C49.5375 45.503 49.7909 45.4524 49.9669 45.351C50.1482 45.2497 50.2389 45.1084 50.2389 44.927C50.2389 44.7724 50.1855 44.655 50.0789 44.575C49.9775 44.4897 49.8069 44.4257 49.5669 44.383L48.7429 44.239C48.3749 44.1697 48.0975 44.0444 47.9109 43.863C47.7295 43.6817 47.6389 43.4444 47.6389 43.151C47.6389 42.9164 47.7029 42.711 47.8309 42.535C47.9642 42.359 48.1535 42.223 48.3989 42.127C48.6442 42.0257 48.9375 41.975 49.2789 41.975C49.4655 41.975 49.6549 41.9937 49.8469 42.031C50.0442 42.0684 50.2255 42.1244 50.3909 42.199C50.5615 42.2684 50.7002 42.3564 50.8069 42.463L50.5669 42.967C50.4602 42.8657 50.3322 42.7857 50.1829 42.727C50.0389 42.663 49.8869 42.6177 49.7269 42.591C49.5722 42.559 49.4202 42.543 49.2709 42.543C48.9615 42.543 48.7215 42.5964 48.5509 42.703C48.3802 42.8044 48.2949 42.9484 48.2949 43.135C48.2949 43.2844 48.3429 43.4017 48.4389 43.487C48.5402 43.5724 48.7029 43.6364 48.9269 43.679L49.7269 43.823C50.1215 43.8977 50.4149 44.023 50.6069 44.199C50.7989 44.3697 50.8949 44.607 50.8949 44.911C50.8949 45.1457 50.8255 45.351 50.6869 45.527C50.5482 45.6977 50.3535 45.831 50.1029 45.927C49.8522 46.023 49.5562 46.071 49.2149 46.071ZM51.9914 41.095V40.303H52.8554V41.095H51.9914ZM52.0714 45.999V42.047H52.7834V45.999H52.0714ZM55.9242 46.071C55.5242 46.071 55.1775 45.9857 54.8842 45.815C54.5909 45.6444 54.3642 45.407 54.2042 45.103C54.0442 44.7937 53.9642 44.431 53.9642 44.015C53.9642 43.6044 54.0442 43.247 54.2042 42.943C54.3642 42.6337 54.5909 42.3964 54.8842 42.231C55.1775 42.0604 55.5242 41.975 55.9242 41.975C56.3242 41.975 56.6682 42.0604 56.9562 42.231C57.2495 42.3964 57.4762 42.6337 57.6362 42.943C57.7962 43.247 57.8762 43.6044 57.8762 44.015C57.8762 44.431 57.7962 44.7937 57.6362 45.103C57.4815 45.407 57.2575 45.6444 56.9642 45.815C56.6709 45.9857 56.3242 46.071 55.9242 46.071ZM55.9162 45.471C56.3055 45.471 56.6122 45.3404 56.8362 45.079C57.0602 44.8177 57.1722 44.463 57.1722 44.015C57.1722 43.567 57.0602 43.215 56.8362 42.959C56.6175 42.703 56.3135 42.575 55.9242 42.575C55.5349 42.575 55.2282 42.703 55.0042 42.959C54.7802 43.215 54.6682 43.567 54.6682 44.015C54.6682 44.463 54.7802 44.8177 55.0042 45.079C55.2335 45.3404 55.5375 45.471 55.9162 45.471ZM59.0714 45.999V42.047H59.7354V42.903C59.8634 42.6097 60.0554 42.383 60.3114 42.223C60.5674 42.0577 60.8554 41.975 61.1754 41.975C61.5007 41.975 61.7727 42.0337 61.9914 42.151C62.21 42.263 62.3727 42.439 62.4794 42.679C62.5914 42.9137 62.6474 43.207 62.6474 43.559V45.999H61.9354V43.599C61.9354 43.3857 61.906 43.2044 61.8474 43.055C61.7887 42.9057 61.69 42.791 61.5514 42.711C61.418 42.6257 61.2394 42.583 61.0154 42.583C60.7807 42.583 60.5674 42.6364 60.3754 42.743C60.1887 42.8497 60.042 42.9937 59.9354 43.175C59.834 43.3564 59.7834 43.559 59.7834 43.783V45.999H59.0714Z" fill="#CE3439"/>
<path d="M25.2398 58.999L27.9998 53.647L28.0318 53.991H24.8558V53.359H28.6238V53.895L26.0158 58.999H25.2398ZM31.6046 59.071C31.3593 59.071 31.122 59.0444 30.8926 58.991C30.6686 58.9377 30.458 58.8604 30.2606 58.759C30.0633 58.6524 29.8873 58.5244 29.7326 58.375L30.0126 57.815C30.258 58.039 30.5086 58.2017 30.7646 58.303C31.026 58.399 31.306 58.447 31.6046 58.447C31.9993 58.447 32.306 58.3457 32.5246 58.143C32.7486 57.935 32.8606 57.6444 32.8606 57.271C32.8606 56.903 32.7566 56.6097 32.5486 56.391C32.3406 56.1724 32.0526 56.063 31.6846 56.063C31.4393 56.063 31.2153 56.1137 31.0126 56.215C30.8153 56.311 30.6313 56.4737 30.4606 56.703H29.9006V53.359H33.2766V53.975H30.5486V56.095H30.5166C30.6446 55.903 30.8206 55.7484 31.0446 55.631C31.2686 55.5084 31.5193 55.447 31.7966 55.447C32.1593 55.447 32.4713 55.5244 32.7326 55.679C32.994 55.8284 33.194 56.0364 33.3326 56.303C33.4766 56.5697 33.5486 56.8817 33.5486 57.239C33.5486 57.6177 33.4686 57.9457 33.3086 58.223C33.1486 58.495 32.9246 58.7057 32.6366 58.855C32.3486 58.999 32.0046 59.071 31.6046 59.071ZM35.2575 56.311L34.7855 56.031L35.4895 54.967L35.5055 54.991L34.2175 55.071V54.519L35.5055 54.599L35.4815 54.615L34.7855 53.559L35.2655 53.279L35.8335 54.463H35.8255L36.3775 53.279L36.8575 53.559L36.1535 54.615L36.1295 54.599L37.4255 54.519V55.071L36.1375 54.991L36.1615 54.967L36.8575 56.031L36.3855 56.311L35.8255 55.135H35.8335L35.2575 56.311ZM40.7511 58.999V57.831H38.1191V57.295L40.7191 53.359H41.4311V57.231H42.2151V57.831H41.4311V58.999H40.7511ZM40.7751 57.231V54.239H40.8071L38.7431 57.367L38.6871 57.231H40.7751ZM44.964 59.071C44.7187 59.071 44.4813 59.0444 44.252 58.991C44.028 58.9377 43.8173 58.8604 43.62 58.759C43.4227 58.6524 43.2467 58.5244 43.092 58.375L43.372 57.815C43.6173 58.039 43.868 58.2017 44.124 58.303C44.3853 58.399 44.6653 58.447 44.964 58.447C45.3587 58.447 45.6653 58.3457 45.884 58.143C46.108 57.935 46.22 57.6444 46.22 57.271C46.22 56.903 46.116 56.6097 45.908 56.391C45.7 56.1724 45.412 56.063 45.044 56.063C44.7987 56.063 44.5747 56.1137 44.372 56.215C44.1747 56.311 43.9907 56.4737 43.82 56.703H43.26V53.359H46.636V53.975H43.908V56.095H43.876C44.004 55.903 44.18 55.7484 44.404 55.631C44.628 55.5084 44.8787 55.447 45.156 55.447C45.5187 55.447 45.8307 55.5244 46.092 55.679C46.3533 55.8284 46.5533 56.0364 46.692 56.303C46.836 56.5697 46.908 56.8817 46.908 57.239C46.908 57.6177 46.828 57.9457 46.668 58.223C46.508 58.495 46.284 58.7057 45.996 58.855C45.708 58.999 45.364 59.071 44.964 59.071ZM48.6169 56.311L48.1449 56.031L48.8489 54.967L48.8649 54.991L47.5769 55.071V54.519L48.8649 54.599L48.8409 54.615L48.1449 53.559L48.6249 53.279L49.1929 54.463H49.1849L49.7369 53.279L50.2169 53.559L49.5129 54.615L49.4889 54.599L50.7849 54.519V55.071L49.4969 54.991L49.5209 54.967L50.2169 56.031L49.7449 56.311L49.1849 55.135H49.1929L48.6169 56.311ZM53.1105 59.071C52.9025 59.071 52.6998 59.047 52.5025 58.999C52.3105 58.951 52.1265 58.879 51.9505 58.783C51.7798 58.6817 51.6198 58.559 51.4705 58.415L51.7425 57.871C51.9612 58.0897 52.1825 58.2417 52.4065 58.327C52.6305 58.407 52.8678 58.447 53.1185 58.447C53.3798 58.447 53.6092 58.399 53.8065 58.303C54.0092 58.2017 54.1798 58.055 54.3185 57.863C54.4572 57.6657 54.5612 57.423 54.6305 57.135C54.6998 56.847 54.7345 56.5164 54.7345 56.143V55.679H54.7265C54.6838 55.9297 54.5878 56.1484 54.4385 56.335C54.2945 56.5164 54.1158 56.655 53.9025 56.751C53.6892 56.847 53.4545 56.895 53.1985 56.895C52.8625 56.895 52.5638 56.8204 52.3025 56.671C52.0412 56.5217 51.8358 56.3137 51.6865 56.047C51.5425 55.7804 51.4705 55.471 51.4705 55.119C51.4705 54.767 51.5478 54.4524 51.7025 54.175C51.8572 53.8977 52.0705 53.6817 52.3425 53.527C52.6145 53.367 52.9265 53.287 53.2785 53.287C53.7372 53.287 54.1238 53.3964 54.4385 53.615C54.7532 53.8284 54.9905 54.1404 55.1505 54.551C55.3105 54.9617 55.3905 55.463 55.3905 56.055C55.3905 56.695 55.2998 57.2417 55.1185 57.695C54.9372 58.143 54.6758 58.4844 54.3345 58.719C53.9985 58.9537 53.5905 59.071 53.1105 59.071ZM53.3185 56.303C53.5532 56.303 53.7612 56.2524 53.9425 56.151C54.1238 56.0497 54.2652 55.9084 54.3665 55.727C54.4678 55.5457 54.5185 55.3377 54.5185 55.103C54.5185 54.8577 54.4678 54.6444 54.3665 54.463C54.2705 54.2817 54.1318 54.143 53.9505 54.047C53.7692 53.9457 53.5558 53.895 53.3105 53.895C53.0758 53.895 52.8705 53.9457 52.6945 54.047C52.5185 54.1484 52.3798 54.2897 52.2785 54.471C52.1825 54.6524 52.1345 54.863 52.1345 55.103C52.1345 55.3377 52.1852 55.5457 52.2865 55.727C52.3878 55.9084 52.5265 56.0497 52.7025 56.151C52.8785 56.2524 53.0838 56.303 53.3185 56.303ZM58.1794 59.071C57.9447 59.071 57.7127 59.047 57.4834 58.999C57.254 58.951 57.0354 58.8764 56.8274 58.775C56.6247 58.6737 56.438 58.5484 56.2674 58.399L56.5394 57.839C56.7954 58.0577 57.062 58.215 57.3394 58.311C57.6167 58.4017 57.8967 58.447 58.1794 58.447C58.414 58.447 58.6247 58.4124 58.8114 58.343C59.0034 58.2684 59.1527 58.159 59.2594 58.015C59.3714 57.8657 59.4274 57.6737 59.4274 57.439C59.4274 57.1137 59.318 56.8684 59.0994 56.703C58.8807 56.5324 58.5634 56.447 58.1474 56.447H57.2994V55.831H58.0434C58.2834 55.831 58.4967 55.7937 58.6834 55.719C58.8754 55.639 59.0247 55.5217 59.1314 55.367C59.238 55.2124 59.2914 55.0204 59.2914 54.791C59.2914 54.4977 59.19 54.279 58.9874 54.135C58.7847 53.9857 58.5234 53.911 58.2034 53.911C57.9207 53.911 57.6434 53.959 57.3714 54.055C57.1047 54.151 56.8594 54.3164 56.6354 54.551L56.3714 53.999C56.5954 53.759 56.8727 53.5804 57.2034 53.463C57.534 53.3457 57.878 53.287 58.2354 53.287C58.5927 53.287 58.8994 53.3457 59.1554 53.463C59.4167 53.575 59.6194 53.7404 59.7634 53.959C59.9074 54.1724 59.9794 54.431 59.9794 54.735C59.9794 55.055 59.8887 55.3377 59.7074 55.583C59.526 55.8284 59.2807 56.0017 58.9714 56.103V56.095C59.1954 56.1377 59.3927 56.2204 59.5634 56.343C59.734 56.4604 59.87 56.615 59.9714 56.807C60.0727 56.9937 60.1234 57.215 60.1234 57.471C60.1234 57.807 60.0407 58.095 59.8754 58.335C59.7154 58.575 59.4887 58.759 59.1954 58.887C58.9074 59.0097 58.5687 59.071 58.1794 59.071Z" fill="black"/>
<defs>
<filter id="filter0_d_271_331" x="0.0999999" y="25" width="83.8" height="57.9" filterUnits="userSpaceOnUse" color-interpolation-filters="sRGB">
<feFlood flood-opacity="0" result="BackgroundImageFix"/>
<feColorMatrix in="SourceAlpha" type="matrix" values="0 0 0 0 0 0 0 0 0 0 0 0 0 0 0 0 0 0 127 0" result="hardAlpha"/>
<feOffset dy="4"/>
<feGaussianBlur stdDeviation="1.95"/>
<feComposite in2="hardAlpha" operator="out"/>
<feColorMatrix type="matrix" values="0 0 0 0 0 0 0 0 0 0 0 0 0 0 0 0 0 0 0.2 0"/>
<feBlend mode="normal" in2="BackgroundImageFix" result="effect1_dropShadow_271_331"/>
<feBlend mode="normal" in="SourceGraphic" in2="effect1_dropShadow_271_331" result="shape"/>
</filter>
<clipPath id="clip0_271_331">
<rect width="15.697" height="16.9115" fill="white" transform="translate(33.1504 7.67188)"/>
</clipPath>
</defs>
</svg>
