<svg width="241" height="28" viewBox="0 0 241 28" fill="none" xmlns="http://www.w3.org/2000/svg">
<path d="M0.0440001 9V0.539999H3.392C4 0.539999 4.512 0.64 4.928 0.84C5.352 1.032 5.672 1.32 5.888 1.704C6.104 2.08 6.212 2.54 6.212 3.084C6.212 3.612 6.104 4.068 5.888 4.452C5.672 4.836 5.352 5.128 4.928 5.328C4.512 5.528 4 5.628 3.392 5.628H1.028V9H0.0440001ZM1.028 4.8H3.272C3.92 4.8 4.408 4.656 4.736 4.368C5.072 4.072 5.24 3.644 5.24 3.084C5.24 2.516 5.072 2.088 4.736 1.8C4.408 1.504 3.92 1.356 3.272 1.356H1.028V4.8ZM9.87594 9.108C9.25994 9.108 8.72794 8.988 8.27994 8.748C7.83994 8.5 7.49594 8.152 7.24794 7.704C7.00794 7.256 6.88794 6.72 6.88794 6.096C6.88794 5.488 7.00794 4.96 7.24794 4.512C7.48794 4.056 7.81594 3.7 8.23194 3.444C8.65594 3.188 9.14394 3.06 9.69594 3.06C10.2239 3.06 10.6759 3.176 11.0519 3.408C11.4279 3.64 11.7159 3.968 11.9159 4.392C12.1239 4.816 12.2279 5.324 12.2279 5.916V6.288H7.63194V5.652H11.5799L11.3879 5.808C11.3879 5.168 11.2439 4.672 10.9559 4.32C10.6759 3.96 10.2639 3.78 9.71994 3.78C9.31194 3.78 8.96394 3.876 8.67594 4.068C8.39594 4.252 8.18394 4.512 8.03994 4.848C7.89594 5.176 7.82394 5.56 7.82394 6V6.072C7.82394 6.56 7.89994 6.972 8.05194 7.308C8.21194 7.644 8.44794 7.9 8.75994 8.076C9.07194 8.244 9.44394 8.328 9.87594 8.328C10.2199 8.328 10.5519 8.276 10.8719 8.172C11.1999 8.06 11.5079 7.88 11.7959 7.632L12.1319 8.316C11.8679 8.556 11.5319 8.748 11.1239 8.892C10.7159 9.036 10.2999 9.108 9.87594 9.108ZM13.6347 9V3.168H14.5827V4.548H14.4627C14.5987 4.076 14.8347 3.72 15.1707 3.48C15.5067 3.232 15.9507 3.088 16.5027 3.048L16.8507 3.012L16.9227 3.852L16.3107 3.924C15.7667 3.972 15.3467 4.148 15.0507 4.452C14.7627 4.748 14.6187 5.156 14.6187 5.676V9H13.6347ZM18.5638 9V3.924H17.4118V3.168H18.8278L18.5638 3.42V2.964C18.5638 2.188 18.7558 1.6 19.1398 1.2C19.5318 0.799999 20.1318 0.575999 20.9398 0.528L21.4078 0.504L21.4918 1.248L20.9398 1.284C20.6118 1.308 20.3438 1.38 20.1358 1.5C19.9278 1.62 19.7758 1.792 19.6798 2.016C19.5838 2.24 19.5358 2.516 19.5358 2.844V3.348L19.3918 3.168H21.2158V3.924H19.5358V9H18.5638ZM24.7119 9.108C24.0959 9.108 23.5639 8.988 23.1159 8.748C22.6759 8.5 22.3319 8.152 22.0839 7.704C21.8439 7.256 21.7239 6.72 21.7239 6.096C21.7239 5.488 21.8439 4.96 22.0839 4.512C22.3239 4.056 22.6519 3.7 23.0679 3.444C23.4919 3.188 23.9799 3.06 24.5319 3.06C25.0599 3.06 25.5119 3.176 25.8879 3.408C26.2639 3.64 26.5519 3.968 26.7519 4.392C26.9599 4.816 27.0639 5.324 27.0639 5.916V6.288H22.4679V5.652H26.4159L26.2239 5.808C26.2239 5.168 26.0799 4.672 25.7919 4.32C25.5119 3.96 25.0999 3.78 24.5559 3.78C24.1479 3.78 23.7999 3.876 23.5119 4.068C23.2319 4.252 23.0199 4.512 22.8759 4.848C22.7319 5.176 22.6599 5.56 22.6599 6V6.072C22.6599 6.56 22.7359 6.972 22.8879 7.308C23.0479 7.644 23.2839 7.9 23.5959 8.076C23.9079 8.244 24.2799 8.328 24.7119 8.328C25.0559 8.328 25.3879 8.276 25.7079 8.172C26.0359 8.06 26.3439 7.88 26.6319 7.632L26.9679 8.316C26.7039 8.556 26.3679 8.748 25.9599 8.892C25.5519 9.036 25.1359 9.108 24.7119 9.108ZM30.9426 9.108C30.3586 9.108 29.8546 8.98 29.4306 8.724C29.0066 8.468 28.6786 8.112 28.4466 7.656C28.2226 7.192 28.1106 6.656 28.1106 6.048C28.1106 5.432 28.2226 4.9 28.4466 4.452C28.6786 4.004 29.0066 3.66 29.4306 3.42C29.8546 3.18 30.3586 3.06 30.9426 3.06C31.3026 3.06 31.6586 3.124 32.0106 3.252C32.3626 3.38 32.6546 3.56 32.8866 3.792L32.5506 4.5C32.3186 4.276 32.0626 4.112 31.7826 4.008C31.5106 3.904 31.2506 3.852 31.0026 3.852C30.3946 3.852 29.9266 4.044 29.5986 4.428C29.2706 4.804 29.1066 5.348 29.1066 6.06C29.1066 6.756 29.2706 7.308 29.5986 7.716C29.9266 8.116 30.3946 8.316 31.0026 8.316C31.2506 8.316 31.5106 8.264 31.7826 8.16C32.0626 8.056 32.3186 7.888 32.5506 7.656L32.8866 8.364C32.6546 8.596 32.3586 8.78 31.9986 8.916C31.6466 9.044 31.2946 9.108 30.9426 9.108ZM36.3653 9.108C35.6773 9.108 35.1613 8.924 34.8173 8.556C34.4733 8.188 34.3013 7.664 34.3013 6.984V3.924H33.1613V3.168H34.3013V1.38H35.2733V3.168H37.1213V3.924H35.2733V6.888C35.2733 7.344 35.3693 7.692 35.5613 7.932C35.7533 8.164 36.0653 8.28 36.4973 8.28C36.6253 8.28 36.7533 8.264 36.8813 8.232C37.0093 8.2 37.1253 8.168 37.2293 8.136L37.3973 8.88C37.2933 8.936 37.1413 8.988 36.9413 9.036C36.7413 9.084 36.5493 9.108 36.3653 9.108ZM41.4346 9V0.539999H46.6666V1.368H42.4186V4.32H46.4266V5.148H42.4186V9H41.4346ZM50.0782 9.108C49.5102 9.108 49.0182 8.984 48.6022 8.736C48.1862 8.488 47.8622 8.14 47.6302 7.692C47.4062 7.236 47.2942 6.7 47.2942 6.084C47.2942 5.468 47.4062 4.936 47.6302 4.488C47.8622 4.032 48.1862 3.68 48.6022 3.432C49.0182 3.184 49.5102 3.06 50.0782 3.06C50.6462 3.06 51.1382 3.184 51.5542 3.432C51.9702 3.68 52.2902 4.032 52.5142 4.488C52.7462 4.936 52.8622 5.468 52.8622 6.084C52.8622 6.7 52.7462 7.236 52.5142 7.692C52.2902 8.14 51.9702 8.488 51.5542 8.736C51.1382 8.984 50.6462 9.108 50.0782 9.108ZM50.0782 8.328C50.6302 8.328 51.0662 8.136 51.3862 7.752C51.7142 7.36 51.8782 6.8 51.8782 6.072C51.8782 5.352 51.7142 4.8 51.3862 4.416C51.0662 4.032 50.6302 3.84 50.0782 3.84C49.5342 3.84 49.0982 4.032 48.7702 4.416C48.4422 4.8 48.2782 5.352 48.2782 6.072C48.2782 6.8 48.4422 7.36 48.7702 7.752C49.0982 8.136 49.5342 8.328 50.0782 8.328ZM54.3222 9V3.168H55.2702V4.548H55.1502C55.2862 4.076 55.5222 3.72 55.8582 3.48C56.1942 3.232 56.6382 3.088 57.1902 3.048L57.5382 3.012L57.6102 3.852L56.9982 3.924C56.4542 3.972 56.0342 4.148 55.7382 4.452C55.4502 4.748 55.3062 5.156 55.3062 5.676V9H54.3222ZM64.573 9.108C64.133 9.108 63.717 9.068 63.325 8.988C62.941 8.908 62.585 8.796 62.257 8.652C61.937 8.5 61.645 8.316 61.381 8.1L61.729 7.308C62.001 7.508 62.277 7.68 62.557 7.824C62.845 7.96 63.153 8.064 63.481 8.136C63.817 8.2 64.181 8.232 64.573 8.232C65.293 8.232 65.825 8.1 66.169 7.836C66.521 7.564 66.697 7.208 66.697 6.768C66.697 6.536 66.641 6.336 66.529 6.168C66.425 6 66.249 5.856 66.001 5.736C65.761 5.616 65.445 5.516 65.053 5.436L63.805 5.184C63.053 5.024 62.489 4.764 62.113 4.404C61.745 4.036 61.561 3.548 61.561 2.94C61.561 2.436 61.689 1.996 61.945 1.62C62.209 1.244 62.573 0.951999 63.037 0.744C63.509 0.536 64.045 0.431999 64.645 0.431999C65.029 0.431999 65.393 0.471999 65.737 0.551999C66.081 0.632 66.397 0.752 66.685 0.912C66.981 1.064 67.241 1.252 67.465 1.476L67.117 2.244C66.757 1.916 66.377 1.68 65.977 1.536C65.577 1.384 65.129 1.308 64.633 1.308C64.209 1.308 63.841 1.372 63.529 1.5C63.225 1.628 62.985 1.816 62.809 2.064C62.641 2.304 62.557 2.584 62.557 2.904C62.557 3.288 62.673 3.592 62.905 3.816C63.145 4.04 63.533 4.204 64.069 4.308L65.317 4.572C66.125 4.74 66.721 4.996 67.105 5.34C67.497 5.676 67.693 6.136 67.693 6.72C67.693 7.184 67.565 7.6 67.309 7.968C67.061 8.328 66.701 8.608 66.229 8.808C65.765 9.008 65.213 9.108 64.573 9.108ZM68.9678 1.716V0.624H70.1678V1.716H68.9678ZM69.0878 9V3.168H70.0598V9H69.0878ZM71.8768 9V3.168H72.8248V4.464H72.6928C72.8608 4 73.1328 3.652 73.5088 3.42C73.8928 3.18 74.3328 3.06 74.8288 3.06C75.2928 3.06 75.6768 3.144 75.9808 3.312C76.2928 3.472 76.5248 3.724 76.6768 4.068C76.8288 4.412 76.9048 4.844 76.9048 5.364V9H75.9328V5.424C75.9328 5.064 75.8848 4.768 75.7888 4.536C75.7008 4.304 75.5568 4.132 75.3568 4.02C75.1648 3.908 74.9128 3.852 74.6008 3.852C74.2488 3.852 73.9408 3.928 73.6768 4.08C73.4128 4.232 73.2088 4.444 73.0648 4.716C72.9208 4.988 72.8488 5.308 72.8488 5.676V9H71.8768ZM81.2772 11.268C80.7732 11.268 80.2972 11.2 79.8492 11.064C79.4092 10.936 79.0172 10.74 78.6732 10.476L78.9972 9.768C79.2372 9.936 79.4732 10.072 79.7052 10.176C79.9452 10.288 80.1892 10.368 80.4372 10.416C80.6932 10.464 80.9572 10.488 81.2292 10.488C81.7972 10.488 82.2252 10.336 82.5132 10.032C82.8092 9.728 82.9572 9.288 82.9572 8.712V7.356H83.0772C82.9572 7.82 82.7012 8.188 82.3092 8.46C81.9252 8.732 81.4732 8.868 80.9532 8.868C80.4172 8.868 79.9532 8.748 79.5612 8.508C79.1692 8.26 78.8652 7.916 78.6492 7.476C78.4412 7.036 78.3372 6.528 78.3372 5.952C78.3372 5.376 78.4412 4.872 78.6492 4.44C78.8652 4 79.1692 3.66 79.5612 3.42C79.9532 3.18 80.4172 3.06 80.9532 3.06C81.4812 3.06 81.9372 3.196 82.3212 3.468C82.7052 3.732 82.9532 4.092 83.0652 4.548H82.9572V3.168H83.9052V8.58C83.9052 9.172 83.8052 9.668 83.6052 10.068C83.4132 10.468 83.1212 10.768 82.7292 10.968C82.3372 11.168 81.8532 11.268 81.2772 11.268ZM81.1332 8.076C81.6932 8.076 82.1372 7.884 82.4652 7.5C82.7932 7.116 82.9572 6.6 82.9572 5.952C82.9572 5.304 82.7932 4.792 82.4652 4.416C82.1372 4.032 81.6932 3.84 81.1332 3.84C80.5812 3.84 80.1412 4.032 79.8132 4.416C79.4852 4.792 79.3212 5.304 79.3212 5.952C79.3212 6.6 79.4852 7.116 79.8132 7.5C80.1412 7.884 80.5812 8.076 81.1332 8.076ZM87.5164 9.108C86.9244 9.108 86.4764 8.932 86.1724 8.58C85.8764 8.228 85.7284 7.724 85.7284 7.068V0.539999H86.7004V6.996C86.7004 7.276 86.7364 7.512 86.8084 7.704C86.8884 7.896 87.0044 8.04 87.1564 8.136C87.3084 8.232 87.4964 8.28 87.7204 8.28C87.8164 8.28 87.9084 8.276 87.9964 8.268C88.0924 8.252 88.1804 8.232 88.2604 8.208L88.2364 9.024C88.1084 9.048 87.9844 9.068 87.8644 9.084C87.7524 9.1 87.6364 9.108 87.5164 9.108ZM91.8486 9.108C91.2326 9.108 90.7006 8.988 90.2526 8.748C89.8126 8.5 89.4686 8.152 89.2206 7.704C88.9806 7.256 88.8606 6.72 88.8606 6.096C88.8606 5.488 88.9806 4.96 89.2206 4.512C89.4606 4.056 89.7886 3.7 90.2046 3.444C90.6286 3.188 91.1166 3.06 91.6686 3.06C92.1966 3.06 92.6486 3.176 93.0246 3.408C93.4006 3.64 93.6886 3.968 93.8886 4.392C94.0966 4.816 94.2006 5.324 94.2006 5.916V6.288H89.6046V5.652H93.5526L93.3606 5.808C93.3606 5.168 93.2166 4.672 92.9286 4.32C92.6486 3.96 92.2366 3.78 91.6926 3.78C91.2846 3.78 90.9366 3.876 90.6486 4.068C90.3686 4.252 90.1566 4.512 90.0126 4.848C89.8686 5.176 89.7966 5.56 89.7966 6V6.072C89.7966 6.56 89.8726 6.972 90.0246 7.308C90.1846 7.644 90.4206 7.9 90.7326 8.076C91.0446 8.244 91.4166 8.328 91.8486 8.328C92.1926 8.328 92.5246 8.276 92.8446 8.172C93.1726 8.06 93.4806 7.88 93.7686 7.632L94.1046 8.316C93.8406 8.556 93.5046 8.748 93.0966 8.892C92.6886 9.036 92.2726 9.108 91.8486 9.108ZM101.557 9.108C101.117 9.108 100.701 9.068 100.309 8.988C99.9253 8.908 99.5693 8.796 99.2413 8.652C98.9213 8.5 98.6293 8.316 98.3653 8.1L98.7133 7.308C98.9853 7.508 99.2613 7.68 99.5413 7.824C99.8293 7.96 100.137 8.064 100.465 8.136C100.801 8.2 101.165 8.232 101.557 8.232C102.277 8.232 102.809 8.1 103.153 7.836C103.505 7.564 103.681 7.208 103.681 6.768C103.681 6.536 103.625 6.336 103.513 6.168C103.409 6 103.233 5.856 102.985 5.736C102.745 5.616 102.429 5.516 102.037 5.436L100.789 5.184C100.037 5.024 99.4733 4.764 99.0973 4.404C98.7293 4.036 98.5453 3.548 98.5453 2.94C98.5453 2.436 98.6733 1.996 98.9293 1.62C99.1933 1.244 99.5573 0.951999 100.021 0.744C100.493 0.536 101.029 0.431999 101.629 0.431999C102.013 0.431999 102.377 0.471999 102.721 0.551999C103.065 0.632 103.381 0.752 103.669 0.912C103.965 1.064 104.225 1.252 104.449 1.476L104.101 2.244C103.741 1.916 103.361 1.68 102.961 1.536C102.561 1.384 102.113 1.308 101.617 1.308C101.193 1.308 100.825 1.372 100.513 1.5C100.209 1.628 99.9693 1.816 99.7933 2.064C99.6253 2.304 99.5413 2.584 99.5413 2.904C99.5413 3.288 99.6573 3.592 99.8893 3.816C100.129 4.04 100.517 4.204 101.053 4.308L102.301 4.572C103.109 4.74 103.705 4.996 104.089 5.34C104.481 5.676 104.677 6.136 104.677 6.72C104.677 7.184 104.549 7.6 104.293 7.968C104.045 8.328 103.685 8.608 103.213 8.808C102.749 9.008 102.197 9.108 101.557 9.108ZM108.7 9.108C108.084 9.108 107.552 8.988 107.104 8.748C106.664 8.5 106.32 8.152 106.072 7.704C105.832 7.256 105.712 6.72 105.712 6.096C105.712 5.488 105.832 4.96 106.072 4.512C106.312 4.056 106.64 3.7 107.056 3.444C107.48 3.188 107.968 3.06 108.52 3.06C109.048 3.06 109.5 3.176 109.876 3.408C110.252 3.64 110.54 3.968 110.74 4.392C110.948 4.816 111.052 5.324 111.052 5.916V6.288H106.456V5.652H110.404L110.212 5.808C110.212 5.168 110.068 4.672 109.78 4.32C109.5 3.96 109.088 3.78 108.544 3.78C108.136 3.78 107.788 3.876 107.5 4.068C107.22 4.252 107.008 4.512 106.864 4.848C106.72 5.176 106.648 5.56 106.648 6V6.072C106.648 6.56 106.724 6.972 106.876 7.308C107.036 7.644 107.272 7.9 107.584 8.076C107.896 8.244 108.268 8.328 108.7 8.328C109.044 8.328 109.376 8.276 109.696 8.172C110.024 8.06 110.332 7.88 110.62 7.632L110.956 8.316C110.692 8.556 110.356 8.748 109.948 8.892C109.54 9.036 109.124 9.108 108.7 9.108ZM112.459 9V3.168H113.407V4.548H113.287C113.423 4.076 113.659 3.72 113.995 3.48C114.331 3.232 114.775 3.088 115.327 3.048L115.675 3.012L115.747 3.852L115.135 3.924C114.591 3.972 114.171 4.148 113.875 4.452C113.587 4.748 113.443 5.156 113.443 5.676V9H112.459ZM118.839 9L116.331 3.168H117.387L119.475 8.28H119.151L121.275 3.168H122.271L119.751 9H118.839ZM123.179 1.716V0.624H124.379V1.716H123.179ZM123.299 9V3.168H124.271V9H123.299ZM126.088 9V3.168H127.036V4.464H126.904C127.072 4 127.344 3.652 127.72 3.42C128.104 3.18 128.544 3.06 129.04 3.06C129.504 3.06 129.888 3.144 130.192 3.312C130.504 3.472 130.736 3.724 130.888 4.068C131.04 4.412 131.116 4.844 131.116 5.364V9H130.144V5.424C130.144 5.064 130.096 4.768 130 4.536C129.912 4.304 129.768 4.132 129.568 4.02C129.376 3.908 129.124 3.852 128.812 3.852C128.46 3.852 128.152 3.928 127.888 4.08C127.624 4.232 127.42 4.444 127.276 4.716C127.132 4.988 127.06 5.308 127.06 5.676V9H126.088ZM135.488 11.268C134.984 11.268 134.508 11.2 134.06 11.064C133.62 10.936 133.228 10.74 132.884 10.476L133.208 9.768C133.448 9.936 133.684 10.072 133.916 10.176C134.156 10.288 134.4 10.368 134.648 10.416C134.904 10.464 135.168 10.488 135.44 10.488C136.008 10.488 136.436 10.336 136.724 10.032C137.02 9.728 137.168 9.288 137.168 8.712V7.356H137.288C137.168 7.82 136.912 8.188 136.52 8.46C136.136 8.732 135.684 8.868 135.164 8.868C134.628 8.868 134.164 8.748 133.772 8.508C133.38 8.26 133.076 7.916 132.86 7.476C132.652 7.036 132.548 6.528 132.548 5.952C132.548 5.376 132.652 4.872 132.86 4.44C133.076 4 133.38 3.66 133.772 3.42C134.164 3.18 134.628 3.06 135.164 3.06C135.692 3.06 136.148 3.196 136.532 3.468C136.916 3.732 137.164 4.092 137.276 4.548H137.168V3.168H138.116V8.58C138.116 9.172 138.016 9.668 137.816 10.068C137.624 10.468 137.332 10.768 136.94 10.968C136.548 11.168 136.064 11.268 135.488 11.268ZM135.344 8.076C135.904 8.076 136.348 7.884 136.676 7.5C137.004 7.116 137.168 6.6 137.168 5.952C137.168 5.304 137.004 4.792 136.676 4.416C136.348 4.032 135.904 3.84 135.344 3.84C134.792 3.84 134.352 4.032 134.024 4.416C133.696 4.792 133.532 5.304 133.532 5.952C133.532 6.6 133.696 7.116 134.024 7.5C134.352 7.884 134.792 8.076 135.344 8.076ZM141.907 9.108C141.603 9.108 141.307 9.076 141.019 9.012C140.739 8.956 140.475 8.876 140.227 8.772C139.987 8.66 139.779 8.528 139.603 8.376L139.915 7.692C140.107 7.844 140.315 7.972 140.539 8.076C140.763 8.172 140.991 8.244 141.223 8.292C141.455 8.34 141.691 8.364 141.931 8.364C142.387 8.364 142.731 8.28 142.963 8.112C143.195 7.944 143.311 7.716 143.311 7.428C143.311 7.204 143.235 7.028 143.083 6.9C142.931 6.764 142.691 6.66 142.363 6.588L141.271 6.348C140.767 6.244 140.391 6.064 140.143 5.808C139.903 5.552 139.783 5.22 139.783 4.812C139.783 4.452 139.875 4.144 140.059 3.888C140.251 3.624 140.519 3.42 140.863 3.276C141.207 3.132 141.607 3.06 142.063 3.06C142.335 3.06 142.595 3.088 142.843 3.144C143.091 3.2 143.323 3.284 143.539 3.396C143.763 3.5 143.955 3.632 144.115 3.792L143.791 4.476C143.639 4.332 143.467 4.212 143.275 4.116C143.083 4.012 142.883 3.936 142.675 3.888C142.475 3.832 142.271 3.804 142.063 3.804C141.615 3.804 141.275 3.892 141.043 4.068C140.811 4.244 140.695 4.476 140.695 4.764C140.695 4.988 140.767 5.172 140.911 5.316C141.055 5.46 141.279 5.564 141.583 5.628L142.675 5.856C143.195 5.968 143.583 6.148 143.839 6.396C144.103 6.636 144.235 6.964 144.235 7.38C144.235 7.732 144.139 8.04 143.947 8.304C143.755 8.56 143.483 8.76 143.131 8.904C142.787 9.04 142.379 9.108 141.907 9.108ZM152.483 9.108C151.899 9.108 151.367 9.008 150.887 8.808C150.407 8.6 149.999 8.308 149.663 7.932C149.327 7.556 149.067 7.1 148.883 6.564C148.707 6.028 148.619 5.428 148.619 4.764C148.619 4.092 148.707 3.492 148.883 2.964C149.067 2.428 149.327 1.976 149.663 1.608C149.999 1.232 150.403 0.944 150.875 0.744C151.355 0.536 151.891 0.431999 152.483 0.431999C153.083 0.431999 153.619 0.532 154.091 0.732C154.571 0.932 154.979 1.22 155.315 1.596C155.659 1.972 155.919 2.428 156.095 2.964C156.279 3.492 156.371 4.088 156.371 4.752C156.371 5.424 156.279 6.028 156.095 6.564C155.911 7.1 155.651 7.556 155.315 7.932C154.979 8.308 154.571 8.6 154.091 8.808C153.619 9.008 153.083 9.108 152.483 9.108ZM152.483 8.232C153.091 8.232 153.603 8.096 154.019 7.824C154.443 7.552 154.767 7.156 154.991 6.636C155.215 6.116 155.327 5.492 155.327 4.764C155.327 4.028 155.215 3.404 154.991 2.892C154.767 2.38 154.443 1.988 154.019 1.716C153.603 1.444 153.091 1.308 152.483 1.308C151.891 1.308 151.383 1.444 150.959 1.716C150.543 1.988 150.223 2.384 149.999 2.904C149.775 3.416 149.663 4.036 149.663 4.764C149.663 5.492 149.775 6.116 149.999 6.636C150.223 7.148 150.543 7.544 150.959 7.824C151.383 8.096 151.891 8.232 152.483 8.232ZM158.31 9V3.924H157.158V3.168H158.574L158.31 3.42V2.964C158.31 2.188 158.502 1.6 158.886 1.2C159.278 0.799999 159.878 0.575999 160.686 0.528L161.154 0.504L161.238 1.248L160.686 1.284C160.358 1.308 160.09 1.38 159.882 1.5C159.674 1.62 159.522 1.792 159.426 2.016C159.33 2.24 159.282 2.516 159.282 2.844V3.348L159.138 3.168H160.962V3.924H159.282V9H158.31ZM167.944 9.108C167.504 9.108 167.088 9.068 166.696 8.988C166.312 8.908 165.956 8.796 165.628 8.652C165.308 8.5 165.016 8.316 164.752 8.1L165.1 7.308C165.372 7.508 165.648 7.68 165.928 7.824C166.216 7.96 166.524 8.064 166.852 8.136C167.188 8.2 167.552 8.232 167.944 8.232C168.664 8.232 169.196 8.1 169.54 7.836C169.892 7.564 170.068 7.208 170.068 6.768C170.068 6.536 170.012 6.336 169.9 6.168C169.796 6 169.62 5.856 169.372 5.736C169.132 5.616 168.816 5.516 168.424 5.436L167.176 5.184C166.424 5.024 165.86 4.764 165.484 4.404C165.116 4.036 164.932 3.548 164.932 2.94C164.932 2.436 165.06 1.996 165.316 1.62C165.58 1.244 165.944 0.951999 166.408 0.744C166.88 0.536 167.416 0.431999 168.016 0.431999C168.4 0.431999 168.764 0.471999 169.108 0.551999C169.452 0.632 169.768 0.752 170.056 0.912C170.352 1.064 170.612 1.252 170.836 1.476L170.488 2.244C170.128 1.916 169.748 1.68 169.348 1.536C168.948 1.384 168.5 1.308 168.004 1.308C167.58 1.308 167.212 1.372 166.9 1.5C166.596 1.628 166.356 1.816 166.18 2.064C166.012 2.304 165.928 2.584 165.928 2.904C165.928 3.288 166.044 3.592 166.276 3.816C166.516 4.04 166.904 4.204 167.44 4.308L168.688 4.572C169.496 4.74 170.092 4.996 170.476 5.34C170.868 5.676 171.064 6.136 171.064 6.72C171.064 7.184 170.936 7.6 170.68 7.968C170.432 8.328 170.072 8.608 169.6 8.808C169.136 9.008 168.584 9.108 167.944 9.108ZM174.295 9.108C173.895 9.108 173.535 9.032 173.215 8.88C172.903 8.72 172.655 8.504 172.471 8.232C172.287 7.96 172.195 7.656 172.195 7.32C172.195 6.888 172.303 6.548 172.519 6.3C172.743 6.052 173.107 5.876 173.611 5.772C174.123 5.668 174.819 5.616 175.699 5.616H176.239V6.252H175.711C175.223 6.252 174.815 6.268 174.487 6.3C174.159 6.332 173.899 6.388 173.707 6.468C173.515 6.548 173.379 6.652 173.299 6.78C173.219 6.908 173.179 7.068 173.179 7.26C173.179 7.588 173.291 7.856 173.515 8.064C173.747 8.272 174.059 8.376 174.451 8.376C174.771 8.376 175.051 8.3 175.291 8.148C175.539 7.996 175.731 7.788 175.867 7.524C176.011 7.26 176.083 6.956 176.083 6.612V5.244C176.083 4.748 175.983 4.392 175.783 4.176C175.583 3.952 175.255 3.84 174.799 3.84C174.447 3.84 174.107 3.892 173.779 3.996C173.451 4.092 173.115 4.252 172.771 4.476L172.435 3.768C172.643 3.624 172.879 3.5 173.143 3.396C173.407 3.284 173.683 3.2 173.971 3.144C174.259 3.088 174.535 3.06 174.799 3.06C175.303 3.06 175.719 3.144 176.047 3.312C176.375 3.472 176.619 3.72 176.779 4.056C176.939 4.384 177.019 4.808 177.019 5.328V9H176.107V7.644H176.215C176.151 7.948 176.027 8.208 175.843 8.424C175.667 8.64 175.447 8.808 175.183 8.928C174.919 9.048 174.623 9.108 174.295 9.108ZM180.886 9.108C180.414 9.108 180.022 9.024 179.71 8.856C179.406 8.68 179.174 8.42 179.014 8.076C178.862 7.732 178.786 7.304 178.786 6.792V3.168H179.758V6.78C179.758 7.124 179.802 7.412 179.89 7.644C179.986 7.868 180.134 8.036 180.334 8.148C180.534 8.252 180.782 8.304 181.078 8.304C181.414 8.304 181.706 8.228 181.954 8.076C182.202 7.924 182.398 7.712 182.542 7.44C182.686 7.168 182.758 6.848 182.758 6.48V3.168H183.73V9H182.782V7.656H182.938C182.778 8.128 182.514 8.488 182.146 8.736C181.786 8.984 181.366 9.108 180.886 9.108ZM188.021 9.108C187.437 9.108 186.933 8.98 186.509 8.724C186.085 8.468 185.757 8.112 185.525 7.656C185.301 7.192 185.189 6.656 185.189 6.048C185.189 5.432 185.301 4.9 185.525 4.452C185.757 4.004 186.085 3.66 186.509 3.42C186.933 3.18 187.437 3.06 188.021 3.06C188.381 3.06 188.737 3.124 189.089 3.252C189.441 3.38 189.733 3.56 189.965 3.792L189.629 4.5C189.397 4.276 189.141 4.112 188.861 4.008C188.589 3.904 188.329 3.852 188.081 3.852C187.473 3.852 187.005 4.044 186.677 4.428C186.349 4.804 186.185 5.348 186.185 6.06C186.185 6.756 186.349 7.308 186.677 7.716C187.005 8.116 187.473 8.316 188.081 8.316C188.329 8.316 188.589 8.264 188.861 8.16C189.141 8.056 189.397 7.888 189.629 7.656L189.965 8.364C189.733 8.596 189.437 8.78 189.077 8.916C188.725 9.044 188.373 9.108 188.021 9.108ZM193.614 9.108C192.998 9.108 192.466 8.988 192.018 8.748C191.578 8.5 191.234 8.152 190.986 7.704C190.746 7.256 190.626 6.72 190.626 6.096C190.626 5.488 190.746 4.96 190.986 4.512C191.226 4.056 191.554 3.7 191.97 3.444C192.394 3.188 192.882 3.06 193.434 3.06C193.962 3.06 194.414 3.176 194.79 3.408C195.166 3.64 195.454 3.968 195.654 4.392C195.862 4.816 195.966 5.324 195.966 5.916V6.288H191.37V5.652H195.318L195.126 5.808C195.126 5.168 194.982 4.672 194.694 4.32C194.414 3.96 194.002 3.78 193.458 3.78C193.05 3.78 192.702 3.876 192.414 4.068C192.134 4.252 191.922 4.512 191.778 4.848C191.634 5.176 191.562 5.56 191.562 6V6.072C191.562 6.56 191.638 6.972 191.79 7.308C191.95 7.644 192.186 7.9 192.498 8.076C192.81 8.244 193.182 8.328 193.614 8.328C193.958 8.328 194.29 8.276 194.61 8.172C194.938 8.06 195.246 7.88 195.534 7.632L195.87 8.316C195.606 8.556 195.27 8.748 194.862 8.892C194.454 9.036 194.038 9.108 193.614 9.108ZM199.341 9.108C199.037 9.108 198.741 9.076 198.453 9.012C198.173 8.956 197.909 8.876 197.661 8.772C197.421 8.66 197.213 8.528 197.037 8.376L197.349 7.692C197.541 7.844 197.749 7.972 197.973 8.076C198.197 8.172 198.425 8.244 198.657 8.292C198.889 8.34 199.125 8.364 199.365 8.364C199.821 8.364 200.165 8.28 200.397 8.112C200.629 7.944 200.745 7.716 200.745 7.428C200.745 7.204 200.669 7.028 200.517 6.9C200.365 6.764 200.125 6.66 199.797 6.588L198.705 6.348C198.201 6.244 197.825 6.064 197.577 5.808C197.337 5.552 197.217 5.22 197.217 4.812C197.217 4.452 197.309 4.144 197.493 3.888C197.685 3.624 197.953 3.42 198.297 3.276C198.641 3.132 199.041 3.06 199.497 3.06C199.769 3.06 200.029 3.088 200.277 3.144C200.525 3.2 200.757 3.284 200.973 3.396C201.197 3.5 201.389 3.632 201.549 3.792L201.225 4.476C201.073 4.332 200.901 4.212 200.709 4.116C200.517 4.012 200.317 3.936 200.109 3.888C199.909 3.832 199.705 3.804 199.497 3.804C199.049 3.804 198.709 3.892 198.477 4.068C198.245 4.244 198.129 4.476 198.129 4.764C198.129 4.988 198.201 5.172 198.345 5.316C198.489 5.46 198.713 5.564 199.017 5.628L200.109 5.856C200.629 5.968 201.017 6.148 201.273 6.396C201.537 6.636 201.669 6.964 201.669 7.38C201.669 7.732 201.573 8.04 201.381 8.304C201.189 8.56 200.917 8.76 200.565 8.904C200.221 9.04 199.813 9.108 199.341 9.108ZM203.44 10.368L202.984 10.02C203.128 9.868 203.236 9.724 203.308 9.588C203.388 9.46 203.44 9.328 203.464 9.192C203.496 9.064 203.512 8.932 203.512 8.796L203.728 9H202.936V7.776H204.16V8.64C204.16 8.856 204.136 9.06 204.088 9.252C204.048 9.452 203.976 9.644 203.872 9.828C203.768 10.012 203.624 10.192 203.44 10.368ZM209.036 9V0.539999H211.892C212.812 0.539999 213.588 0.704 214.22 1.032C214.86 1.352 215.344 1.828 215.672 2.46C216.008 3.084 216.176 3.852 216.176 4.764C216.176 5.676 216.008 6.448 215.672 7.08C215.344 7.712 214.86 8.192 214.22 8.52C213.588 8.84 212.812 9 211.892 9H209.036ZM210.02 8.16H211.82C212.932 8.16 213.76 7.876 214.304 7.308C214.856 6.74 215.132 5.892 215.132 4.764C215.132 3.636 214.856 2.792 214.304 2.232C213.752 1.664 212.924 1.38 211.82 1.38H210.02V8.16ZM217.69 1.716V0.624H218.89V1.716H217.69ZM217.81 9V3.168H218.782V9H217.81ZM220.6 11.16V3.168H221.548V4.548H221.428C221.556 4.092 221.808 3.732 222.184 3.468C222.568 3.196 223.024 3.06 223.552 3.06C224.072 3.06 224.524 3.184 224.908 3.432C225.3 3.672 225.6 4.02 225.808 4.476C226.024 4.924 226.132 5.46 226.132 6.084C226.132 6.7 226.024 7.236 225.808 7.692C225.6 8.14 225.304 8.488 224.92 8.736C224.536 8.984 224.08 9.108 223.552 9.108C223.024 9.108 222.572 8.976 222.196 8.712C221.82 8.44 221.564 8.08 221.428 7.632H221.572V11.16H220.6ZM223.348 8.328C223.9 8.328 224.336 8.136 224.656 7.752C224.984 7.36 225.148 6.804 225.148 6.084C225.148 5.356 224.984 4.8 224.656 4.416C224.336 4.032 223.9 3.84 223.348 3.84C222.804 3.84 222.368 4.032 222.04 4.416C221.712 4.8 221.548 5.356 221.548 6.084C221.548 6.804 221.712 7.36 222.04 7.752C222.368 8.136 222.804 8.328 223.348 8.328ZM229.564 9.108C229.26 9.108 228.964 9.076 228.676 9.012C228.396 8.956 228.132 8.876 227.884 8.772C227.644 8.66 227.436 8.528 227.26 8.376L227.572 7.692C227.764 7.844 227.972 7.972 228.196 8.076C228.42 8.172 228.648 8.244 228.88 8.292C229.112 8.34 229.348 8.364 229.588 8.364C230.044 8.364 230.388 8.28 230.62 8.112C230.852 7.944 230.968 7.716 230.968 7.428C230.968 7.204 230.892 7.028 230.74 6.9C230.588 6.764 230.348 6.66 230.02 6.588L228.928 6.348C228.424 6.244 228.048 6.064 227.8 5.808C227.56 5.552 227.44 5.22 227.44 4.812C227.44 4.452 227.532 4.144 227.716 3.888C227.908 3.624 228.176 3.42 228.52 3.276C228.864 3.132 229.264 3.06 229.72 3.06C229.992 3.06 230.252 3.088 230.5 3.144C230.748 3.2 230.98 3.284 231.196 3.396C231.42 3.5 231.612 3.632 231.772 3.792L231.448 4.476C231.296 4.332 231.124 4.212 230.932 4.116C230.74 4.012 230.54 3.936 230.332 3.888C230.132 3.832 229.928 3.804 229.72 3.804C229.272 3.804 228.932 3.892 228.7 4.068C228.468 4.244 228.352 4.476 228.352 4.764C228.352 4.988 228.424 5.172 228.568 5.316C228.712 5.46 228.936 5.564 229.24 5.628L230.332 5.856C230.852 5.968 231.24 6.148 231.496 6.396C231.76 6.636 231.892 6.964 231.892 7.38C231.892 7.732 231.796 8.04 231.604 8.304C231.412 8.56 231.14 8.76 230.788 8.904C230.444 9.04 230.036 9.108 229.564 9.108ZM233.662 10.368L233.206 10.02C233.35 9.868 233.458 9.724 233.53 9.588C233.61 9.46 233.662 9.328 233.686 9.192C233.718 9.064 233.734 8.932 233.734 8.796L233.95 9H233.158V7.776H234.382V8.64C234.382 8.856 234.358 9.06 234.31 9.252C234.27 9.452 234.198 9.644 234.094 9.828C233.99 10.012 233.846 10.192 233.662 10.368ZM0.0440001 25V16.54H2.9C3.82 16.54 4.596 16.704 5.228 17.032C5.868 17.352 6.352 17.828 6.68 18.46C7.016 19.084 7.184 19.852 7.184 20.764C7.184 21.676 7.016 22.448 6.68 23.08C6.352 23.712 5.868 24.192 5.228 24.52C4.596 24.84 3.82 25 2.9 25H0.0440001ZM1.028 24.16H2.828C3.94 24.16 4.768 23.876 5.312 23.308C5.864 22.74 6.14 21.892 6.14 20.764C6.14 19.636 5.864 18.792 5.312 18.232C4.76 17.664 3.932 17.38 2.828 17.38H1.028V24.16ZM8.81825 25V19.168H9.76625V20.548H9.64625C9.78225 20.076 10.0183 19.72 10.3543 19.48C10.6903 19.232 11.1343 19.088 11.6863 19.048L12.0343 19.012L12.1063 19.852L11.4943 19.924C10.9503 19.972 10.5303 20.148 10.2343 20.452C9.94625 20.748 9.80225 21.156 9.80225 21.676V25H8.81825ZM15.6767 25.108C15.0607 25.108 14.5287 24.988 14.0807 24.748C13.6407 24.5 13.2967 24.152 13.0487 23.704C12.8087 23.256 12.6887 22.72 12.6887 22.096C12.6887 21.488 12.8087 20.96 13.0487 20.512C13.2887 20.056 13.6167 19.7 14.0327 19.444C14.4567 19.188 14.9447 19.06 15.4967 19.06C16.0247 19.06 16.4767 19.176 16.8527 19.408C17.2287 19.64 17.5167 19.968 17.7167 20.392C17.9247 20.816 18.0287 21.324 18.0287 21.916V22.288H13.4327V21.652H17.3807L17.1887 21.808C17.1887 21.168 17.0447 20.672 16.7567 20.32C16.4767 19.96 16.0647 19.78 15.5207 19.78C15.1127 19.78 14.7647 19.876 14.4767 20.068C14.1967 20.252 13.9847 20.512 13.8407 20.848C13.6967 21.176 13.6247 21.56 13.6247 22V22.072C13.6247 22.56 13.7007 22.972 13.8527 23.308C14.0127 23.644 14.2487 23.9 14.5607 24.076C14.8727 24.244 15.2447 24.328 15.6767 24.328C16.0207 24.328 16.3527 24.276 16.6727 24.172C17.0007 24.06 17.3087 23.88 17.5967 23.632L17.9327 24.316C17.6687 24.556 17.3327 24.748 16.9247 24.892C16.5167 25.036 16.1007 25.108 15.6767 25.108ZM21.4034 25.108C21.0994 25.108 20.8034 25.076 20.5154 25.012C20.2354 24.956 19.9714 24.876 19.7234 24.772C19.4834 24.66 19.2754 24.528 19.0994 24.376L19.4114 23.692C19.6034 23.844 19.8114 23.972 20.0354 24.076C20.2594 24.172 20.4874 24.244 20.7194 24.292C20.9514 24.34 21.1874 24.364 21.4274 24.364C21.8834 24.364 22.2274 24.28 22.4594 24.112C22.6914 23.944 22.8074 23.716 22.8074 23.428C22.8074 23.204 22.7314 23.028 22.5794 22.9C22.4274 22.764 22.1874 22.66 21.8594 22.588L20.7674 22.348C20.2634 22.244 19.8874 22.064 19.6394 21.808C19.3994 21.552 19.2794 21.22 19.2794 20.812C19.2794 20.452 19.3714 20.144 19.5554 19.888C19.7474 19.624 20.0154 19.42 20.3594 19.276C20.7034 19.132 21.1034 19.06 21.5594 19.06C21.8314 19.06 22.0914 19.088 22.3394 19.144C22.5874 19.2 22.8194 19.284 23.0354 19.396C23.2594 19.5 23.4514 19.632 23.6114 19.792L23.2874 20.476C23.1354 20.332 22.9634 20.212 22.7714 20.116C22.5794 20.012 22.3794 19.936 22.1714 19.888C21.9714 19.832 21.7674 19.804 21.5594 19.804C21.1114 19.804 20.7714 19.892 20.5394 20.068C20.3074 20.244 20.1914 20.476 20.1914 20.764C20.1914 20.988 20.2634 21.172 20.4074 21.316C20.5514 21.46 20.7754 21.564 21.0794 21.628L22.1714 21.856C22.6914 21.968 23.0794 22.148 23.3354 22.396C23.5994 22.636 23.7314 22.964 23.7314 23.38C23.7314 23.732 23.6354 24.04 23.4434 24.304C23.2514 24.56 22.9794 24.76 22.6274 24.904C22.2834 25.04 21.8754 25.108 21.4034 25.108ZM27.1808 25.108C26.8768 25.108 26.5808 25.076 26.2928 25.012C26.0128 24.956 25.7488 24.876 25.5008 24.772C25.2608 24.66 25.0528 24.528 24.8768 24.376L25.1888 23.692C25.3808 23.844 25.5888 23.972 25.8128 24.076C26.0368 24.172 26.2648 24.244 26.4968 24.292C26.7288 24.34 26.9648 24.364 27.2048 24.364C27.6608 24.364 28.0048 24.28 28.2368 24.112C28.4688 23.944 28.5848 23.716 28.5848 23.428C28.5848 23.204 28.5088 23.028 28.3568 22.9C28.2048 22.764 27.9648 22.66 27.6368 22.588L26.5448 22.348C26.0408 22.244 25.6648 22.064 25.4168 21.808C25.1768 21.552 25.0568 21.22 25.0568 20.812C25.0568 20.452 25.1488 20.144 25.3328 19.888C25.5248 19.624 25.7928 19.42 26.1368 19.276C26.4808 19.132 26.8808 19.06 27.3368 19.06C27.6088 19.06 27.8688 19.088 28.1168 19.144C28.3648 19.2 28.5968 19.284 28.8128 19.396C29.0368 19.5 29.2288 19.632 29.3888 19.792L29.0648 20.476C28.9128 20.332 28.7408 20.212 28.5488 20.116C28.3568 20.012 28.1568 19.936 27.9488 19.888C27.7488 19.832 27.5448 19.804 27.3368 19.804C26.8888 19.804 26.5488 19.892 26.3168 20.068C26.0848 20.244 25.9688 20.476 25.9688 20.764C25.9688 20.988 26.0408 21.172 26.1848 21.316C26.3288 21.46 26.5528 21.564 26.8568 21.628L27.9488 21.856C28.4688 21.968 28.8568 22.148 29.1128 22.396C29.3768 22.636 29.5088 22.964 29.5088 23.38C29.5088 23.732 29.4128 24.04 29.2208 24.304C29.0288 24.56 28.7568 24.76 28.4048 24.904C28.0608 25.04 27.6528 25.108 27.1808 25.108ZM30.8701 17.716V16.624H32.0701V17.716H30.8701ZM30.9901 25V19.168H31.9621V25H30.9901ZM33.7792 25V19.168H34.7272V20.464H34.5952C34.7632 20 35.0352 19.652 35.4112 19.42C35.7952 19.18 36.2352 19.06 36.7312 19.06C37.1952 19.06 37.5792 19.144 37.8832 19.312C38.1952 19.472 38.4272 19.724 38.5792 20.068C38.7312 20.412 38.8072 20.844 38.8072 21.364V25H37.8352V21.424C37.8352 21.064 37.7872 20.768 37.6912 20.536C37.6032 20.304 37.4592 20.132 37.2592 20.02C37.0672 19.908 36.8152 19.852 36.5032 19.852C36.1512 19.852 35.8432 19.928 35.5792 20.08C35.3152 20.232 35.1112 20.444 34.9672 20.716C34.8232 20.988 34.7512 21.308 34.7512 21.676V25H33.7792ZM43.1795 27.268C42.6755 27.268 42.1995 27.2 41.7515 27.064C41.3115 26.936 40.9195 26.74 40.5755 26.476L40.8995 25.768C41.1395 25.936 41.3755 26.072 41.6075 26.176C41.8475 26.288 42.0915 26.368 42.3395 26.416C42.5955 26.464 42.8595 26.488 43.1315 26.488C43.6995 26.488 44.1275 26.336 44.4155 26.032C44.7115 25.728 44.8595 25.288 44.8595 24.712V23.356H44.9795C44.8595 23.82 44.6035 24.188 44.2115 24.46C43.8275 24.732 43.3755 24.868 42.8555 24.868C42.3195 24.868 41.8555 24.748 41.4635 24.508C41.0715 24.26 40.7675 23.916 40.5515 23.476C40.3435 23.036 40.2395 22.528 40.2395 21.952C40.2395 21.376 40.3435 20.872 40.5515 20.44C40.7675 20 41.0715 19.66 41.4635 19.42C41.8555 19.18 42.3195 19.06 42.8555 19.06C43.3835 19.06 43.8395 19.196 44.2235 19.468C44.6075 19.732 44.8555 20.092 44.9675 20.548H44.8595V19.168H45.8075V24.58C45.8075 25.172 45.7075 25.668 45.5075 26.068C45.3155 26.468 45.0235 26.768 44.6315 26.968C44.2395 27.168 43.7555 27.268 43.1795 27.268ZM43.0355 24.076C43.5955 24.076 44.0395 23.884 44.3675 23.5C44.6955 23.116 44.8595 22.6 44.8595 21.952C44.8595 21.304 44.6955 20.792 44.3675 20.416C44.0395 20.032 43.5955 19.84 43.0355 19.84C42.4835 19.84 42.0435 20.032 41.7155 20.416C41.3875 20.792 41.2235 21.304 41.2235 21.952C41.2235 22.6 41.3875 23.116 41.7155 23.5C42.0435 23.884 42.4835 24.076 43.0355 24.076ZM49.5988 25.108C49.2948 25.108 48.9988 25.076 48.7108 25.012C48.4308 24.956 48.1668 24.876 47.9188 24.772C47.6788 24.66 47.4708 24.528 47.2948 24.376L47.6068 23.692C47.7988 23.844 48.0068 23.972 48.2308 24.076C48.4548 24.172 48.6828 24.244 48.9148 24.292C49.1468 24.34 49.3828 24.364 49.6228 24.364C50.0788 24.364 50.4228 24.28 50.6548 24.112C50.8868 23.944 51.0028 23.716 51.0028 23.428C51.0028 23.204 50.9268 23.028 50.7748 22.9C50.6228 22.764 50.3828 22.66 50.0548 22.588L48.9628 22.348C48.4588 22.244 48.0828 22.064 47.8348 21.808C47.5948 21.552 47.4748 21.22 47.4748 20.812C47.4748 20.452 47.5668 20.144 47.7508 19.888C47.9428 19.624 48.2108 19.42 48.5548 19.276C48.8988 19.132 49.2988 19.06 49.7548 19.06C50.0268 19.06 50.2868 19.088 50.5348 19.144C50.7828 19.2 51.0148 19.284 51.2308 19.396C51.4548 19.5 51.6468 19.632 51.8068 19.792L51.4828 20.476C51.3308 20.332 51.1588 20.212 50.9668 20.116C50.7748 20.012 50.5748 19.936 50.3668 19.888C50.1668 19.832 49.9628 19.804 49.7548 19.804C49.3068 19.804 48.9668 19.892 48.7348 20.068C48.5028 20.244 48.3868 20.476 48.3868 20.764C48.3868 20.988 48.4588 21.172 48.6028 21.316C48.7468 21.46 48.9708 21.564 49.2748 21.628L50.3668 21.856C50.8868 21.968 51.2748 22.148 51.5308 22.396C51.7948 22.636 51.9268 22.964 51.9268 23.38C51.9268 23.732 51.8308 24.04 51.6388 24.304C51.4468 24.56 51.1748 24.76 50.8228 24.904C50.4788 25.04 50.0708 25.108 49.5988 25.108ZM53.6975 26.368L53.2415 26.02C53.3855 25.868 53.4935 25.724 53.5655 25.588C53.6455 25.46 53.6975 25.328 53.7215 25.192C53.7535 25.064 53.7695 24.932 53.7695 24.796L53.9855 25H53.1935V23.776H54.4175V24.64C54.4175 24.856 54.3935 25.06 54.3455 25.252C54.3055 25.452 54.2335 25.644 54.1295 25.828C54.0255 26.012 53.8815 26.192 53.6975 26.368ZM62.846 25.108C62.262 25.108 61.73 25.008 61.25 24.808C60.77 24.6 60.362 24.308 60.026 23.932C59.69 23.556 59.43 23.1 59.246 22.564C59.07 22.028 58.982 21.428 58.982 20.764C58.982 20.092 59.07 19.492 59.246 18.964C59.43 18.428 59.69 17.976 60.026 17.608C60.362 17.232 60.766 16.944 61.238 16.744C61.718 16.536 62.254 16.432 62.846 16.432C63.446 16.432 63.982 16.532 64.454 16.732C64.934 16.932 65.342 17.22 65.678 17.596C66.022 17.972 66.282 18.428 66.458 18.964C66.642 19.492 66.734 20.088 66.734 20.752C66.734 21.424 66.642 22.028 66.458 22.564C66.274 23.1 66.014 23.556 65.678 23.932C65.342 24.308 64.934 24.6 64.454 24.808C63.982 25.008 63.446 25.108 62.846 25.108ZM62.846 24.232C63.454 24.232 63.966 24.096 64.382 23.824C64.806 23.552 65.13 23.156 65.354 22.636C65.578 22.116 65.69 21.492 65.69 20.764C65.69 20.028 65.578 19.404 65.354 18.892C65.13 18.38 64.806 17.988 64.382 17.716C63.966 17.444 63.454 17.308 62.846 17.308C62.254 17.308 61.746 17.444 61.322 17.716C60.906 17.988 60.586 18.384 60.362 18.904C60.138 19.416 60.026 20.036 60.026 20.764C60.026 21.492 60.138 22.116 60.362 22.636C60.586 23.148 60.906 23.544 61.322 23.824C61.746 24.096 62.254 24.232 62.846 24.232ZM68.3612 25V19.168H69.3092V20.548H69.1892C69.3252 20.076 69.5612 19.72 69.8972 19.48C70.2332 19.232 70.6772 19.088 71.2292 19.048L71.5772 19.012L71.6492 19.852L71.0372 19.924C70.4932 19.972 70.0732 20.148 69.7772 20.452C69.4892 20.748 69.3452 21.156 69.3452 21.676V25H68.3612ZM78.612 25.108C78.172 25.108 77.756 25.068 77.364 24.988C76.98 24.908 76.624 24.796 76.296 24.652C75.976 24.5 75.684 24.316 75.42 24.1L75.768 23.308C76.04 23.508 76.316 23.68 76.596 23.824C76.884 23.96 77.192 24.064 77.52 24.136C77.856 24.2 78.22 24.232 78.612 24.232C79.332 24.232 79.864 24.1 80.208 23.836C80.56 23.564 80.736 23.208 80.736 22.768C80.736 22.536 80.68 22.336 80.568 22.168C80.464 22 80.288 21.856 80.04 21.736C79.8 21.616 79.484 21.516 79.092 21.436L77.844 21.184C77.092 21.024 76.528 20.764 76.152 20.404C75.784 20.036 75.6 19.548 75.6 18.94C75.6 18.436 75.728 17.996 75.984 17.62C76.248 17.244 76.612 16.952 77.076 16.744C77.548 16.536 78.084 16.432 78.684 16.432C79.068 16.432 79.432 16.472 79.776 16.552C80.12 16.632 80.436 16.752 80.724 16.912C81.02 17.064 81.28 17.252 81.504 17.476L81.156 18.244C80.796 17.916 80.416 17.68 80.016 17.536C79.616 17.384 79.168 17.308 78.672 17.308C78.248 17.308 77.88 17.372 77.568 17.5C77.264 17.628 77.024 17.816 76.848 18.064C76.68 18.304 76.596 18.584 76.596 18.904C76.596 19.288 76.712 19.592 76.944 19.816C77.184 20.04 77.572 20.204 78.108 20.308L79.356 20.572C80.164 20.74 80.76 20.996 81.144 21.34C81.536 21.676 81.732 22.136 81.732 22.72C81.732 23.184 81.604 23.6 81.348 23.968C81.1 24.328 80.74 24.608 80.268 24.808C79.804 25.008 79.252 25.108 78.612 25.108ZM84.9628 25.108C84.5628 25.108 84.2028 25.032 83.8828 24.88C83.5708 24.72 83.3228 24.504 83.1388 24.232C82.9548 23.96 82.8628 23.656 82.8628 23.32C82.8628 22.888 82.9708 22.548 83.1868 22.3C83.4108 22.052 83.7748 21.876 84.2788 21.772C84.7908 21.668 85.4868 21.616 86.3668 21.616H86.9068V22.252H86.3788C85.8908 22.252 85.4828 22.268 85.1548 22.3C84.8268 22.332 84.5668 22.388 84.3748 22.468C84.1828 22.548 84.0468 22.652 83.9668 22.78C83.8868 22.908 83.8468 23.068 83.8468 23.26C83.8468 23.588 83.9588 23.856 84.1828 24.064C84.4148 24.272 84.7268 24.376 85.1188 24.376C85.4388 24.376 85.7188 24.3 85.9588 24.148C86.2068 23.996 86.3988 23.788 86.5348 23.524C86.6788 23.26 86.7508 22.956 86.7508 22.612V21.244C86.7508 20.748 86.6508 20.392 86.4508 20.176C86.2508 19.952 85.9228 19.84 85.4668 19.84C85.1148 19.84 84.7748 19.892 84.4468 19.996C84.1188 20.092 83.7828 20.252 83.4388 20.476L83.1028 19.768C83.3108 19.624 83.5468 19.5 83.8108 19.396C84.0748 19.284 84.3508 19.2 84.6388 19.144C84.9268 19.088 85.2028 19.06 85.4668 19.06C85.9708 19.06 86.3868 19.144 86.7148 19.312C87.0428 19.472 87.2868 19.72 87.4468 20.056C87.6068 20.384 87.6868 20.808 87.6868 21.328V25H86.7748V23.644H86.8828C86.8188 23.948 86.6948 24.208 86.5108 24.424C86.3348 24.64 86.1148 24.808 85.8508 24.928C85.5868 25.048 85.2908 25.108 84.9628 25.108ZM89.5141 25V19.168H90.4621V20.464H90.3301C90.4261 20.168 90.5661 19.916 90.7501 19.708C90.9421 19.492 91.1661 19.332 91.4221 19.228C91.6861 19.116 91.9741 19.06 92.2861 19.06C92.7821 19.06 93.1821 19.18 93.4861 19.42C93.7981 19.652 94.0061 20.016 94.1101 20.512H93.9301C94.0741 20.064 94.3301 19.712 94.6981 19.456C95.0741 19.192 95.5101 19.06 96.0061 19.06C96.4461 19.06 96.8061 19.144 97.0861 19.312C97.3741 19.48 97.5901 19.736 97.7341 20.08C97.8781 20.416 97.9501 20.844 97.9501 21.364V25H96.9781V21.412C96.9781 20.876 96.8861 20.484 96.7021 20.236C96.5181 19.98 96.2061 19.852 95.7661 19.852C95.4541 19.852 95.1781 19.928 94.9381 20.08C94.7061 20.232 94.5261 20.448 94.3981 20.728C94.2781 21 94.2181 21.324 94.2181 21.7V25H93.2461V21.412C93.2461 20.876 93.1501 20.484 92.9581 20.236C92.7741 19.98 92.4661 19.852 92.0341 19.852C91.7141 19.852 91.4381 19.928 91.2061 20.08C90.9741 20.232 90.7941 20.448 90.6661 20.728C90.5461 21 90.4861 21.324 90.4861 21.7V25H89.5141ZM99.7675 27.16V19.168H100.715V20.548H100.595C100.723 20.092 100.975 19.732 101.351 19.468C101.735 19.196 102.191 19.06 102.719 19.06C103.239 19.06 103.691 19.184 104.075 19.432C104.467 19.672 104.767 20.02 104.975 20.476C105.191 20.924 105.299 21.46 105.299 22.084C105.299 22.7 105.191 23.236 104.975 23.692C104.767 24.14 104.471 24.488 104.087 24.736C103.703 24.984 103.247 25.108 102.719 25.108C102.191 25.108 101.739 24.976 101.363 24.712C100.987 24.44 100.731 24.08 100.595 23.632H100.739V27.16H99.7675ZM102.515 24.328C103.067 24.328 103.503 24.136 103.823 23.752C104.151 23.36 104.315 22.804 104.315 22.084C104.315 21.356 104.151 20.8 103.823 20.416C103.503 20.032 103.067 19.84 102.515 19.84C101.971 19.84 101.535 20.032 101.207 20.416C100.879 20.8 100.715 21.356 100.715 22.084C100.715 22.804 100.879 23.36 101.207 23.752C101.535 24.136 101.971 24.328 102.515 24.328ZM108.552 25.108C107.96 25.108 107.512 24.932 107.208 24.58C106.912 24.228 106.764 23.724 106.764 23.068V16.54H107.736V22.996C107.736 23.276 107.772 23.512 107.844 23.704C107.924 23.896 108.04 24.04 108.192 24.136C108.344 24.232 108.532 24.28 108.756 24.28C108.852 24.28 108.944 24.276 109.032 24.268C109.128 24.252 109.216 24.232 109.296 24.208L109.272 25.024C109.144 25.048 109.02 25.068 108.9 25.084C108.788 25.1 108.672 25.108 108.552 25.108ZM112.884 25.108C112.268 25.108 111.736 24.988 111.288 24.748C110.848 24.5 110.504 24.152 110.256 23.704C110.016 23.256 109.896 22.72 109.896 22.096C109.896 21.488 110.016 20.96 110.256 20.512C110.496 20.056 110.824 19.7 111.24 19.444C111.664 19.188 112.152 19.06 112.704 19.06C113.232 19.06 113.684 19.176 114.06 19.408C114.436 19.64 114.724 19.968 114.924 20.392C115.132 20.816 115.236 21.324 115.236 21.916V22.288H110.64V21.652H114.588L114.396 21.808C114.396 21.168 114.252 20.672 113.964 20.32C113.684 19.96 113.272 19.78 112.728 19.78C112.32 19.78 111.972 19.876 111.684 20.068C111.404 20.252 111.192 20.512 111.048 20.848C110.904 21.176 110.832 21.56 110.832 22V22.072C110.832 22.56 110.908 22.972 111.06 23.308C111.22 23.644 111.456 23.9 111.768 24.076C112.08 24.244 112.452 24.328 112.884 24.328C113.228 24.328 113.56 24.276 113.88 24.172C114.208 24.06 114.516 23.88 114.804 23.632L115.14 24.316C114.876 24.556 114.54 24.748 114.132 24.892C113.724 25.036 113.308 25.108 112.884 25.108ZM118.61 25.108C118.306 25.108 118.01 25.076 117.722 25.012C117.442 24.956 117.178 24.876 116.93 24.772C116.69 24.66 116.482 24.528 116.306 24.376L116.618 23.692C116.81 23.844 117.018 23.972 117.242 24.076C117.466 24.172 117.694 24.244 117.926 24.292C118.158 24.34 118.394 24.364 118.634 24.364C119.09 24.364 119.434 24.28 119.666 24.112C119.898 23.944 120.014 23.716 120.014 23.428C120.014 23.204 119.938 23.028 119.786 22.9C119.634 22.764 119.394 22.66 119.066 22.588L117.974 22.348C117.47 22.244 117.094 22.064 116.846 21.808C116.606 21.552 116.486 21.22 116.486 20.812C116.486 20.452 116.578 20.144 116.762 19.888C116.954 19.624 117.222 19.42 117.566 19.276C117.91 19.132 118.31 19.06 118.766 19.06C119.038 19.06 119.298 19.088 119.546 19.144C119.794 19.2 120.026 19.284 120.242 19.396C120.466 19.5 120.658 19.632 120.818 19.792L120.494 20.476C120.342 20.332 120.17 20.212 119.978 20.116C119.786 20.012 119.586 19.936 119.378 19.888C119.178 19.832 118.974 19.804 118.766 19.804C118.318 19.804 117.978 19.892 117.746 20.068C117.514 20.244 117.398 20.476 117.398 20.764C117.398 20.988 117.47 21.172 117.614 21.316C117.758 21.46 117.982 21.564 118.286 21.628L119.378 21.856C119.898 21.968 120.286 22.148 120.542 22.396C120.806 22.636 120.938 22.964 120.938 23.38C120.938 23.732 120.842 24.04 120.65 24.304C120.458 24.56 120.186 24.76 119.834 24.904C119.49 25.04 119.082 25.108 118.61 25.108ZM122.205 25V23.776H123.429V25H122.205ZM128.306 25V16.54H129.29V25H128.306ZM133.584 25.108C132.896 25.108 132.38 24.924 132.036 24.556C131.692 24.188 131.52 23.664 131.52 22.984V19.924H130.38V19.168H131.52V17.38H132.492V19.168H134.34V19.924H132.492V22.888C132.492 23.344 132.588 23.692 132.78 23.932C132.972 24.164 133.284 24.28 133.716 24.28C133.844 24.28 133.972 24.264 134.1 24.232C134.228 24.2 134.344 24.168 134.448 24.136L134.616 24.88C134.512 24.936 134.36 24.988 134.16 25.036C133.96 25.084 133.768 25.108 133.584 25.108ZM137.407 25.108C137.103 25.108 136.807 25.076 136.519 25.012C136.239 24.956 135.975 24.876 135.727 24.772C135.487 24.66 135.279 24.528 135.103 24.376L135.415 23.692C135.607 23.844 135.815 23.972 136.039 24.076C136.263 24.172 136.491 24.244 136.723 24.292C136.955 24.34 137.191 24.364 137.431 24.364C137.887 24.364 138.231 24.28 138.463 24.112C138.695 23.944 138.811 23.716 138.811 23.428C138.811 23.204 138.735 23.028 138.583 22.9C138.431 22.764 138.191 22.66 137.863 22.588L136.771 22.348C136.267 22.244 135.891 22.064 135.643 21.808C135.403 21.552 135.283 21.22 135.283 20.812C135.283 20.452 135.375 20.144 135.559 19.888C135.751 19.624 136.019 19.42 136.363 19.276C136.707 19.132 137.107 19.06 137.563 19.06C137.835 19.06 138.095 19.088 138.343 19.144C138.591 19.2 138.823 19.284 139.039 19.396C139.263 19.5 139.455 19.632 139.615 19.792L139.291 20.476C139.139 20.332 138.967 20.212 138.775 20.116C138.583 20.012 138.383 19.936 138.175 19.888C137.975 19.832 137.771 19.804 137.563 19.804C137.115 19.804 136.775 19.892 136.543 20.068C136.311 20.244 136.195 20.476 136.195 20.764C136.195 20.988 136.267 21.172 136.411 21.316C136.555 21.46 136.779 21.564 137.083 21.628L138.175 21.856C138.695 21.968 139.083 22.148 139.339 22.396C139.603 22.636 139.735 22.964 139.735 23.38C139.735 23.732 139.639 24.04 139.447 24.304C139.255 24.56 138.983 24.76 138.631 24.904C138.287 25.04 137.879 25.108 137.407 25.108ZM144.431 25V16.54H147.815C148.679 16.54 149.351 16.732 149.831 17.116C150.311 17.5 150.551 18.044 150.551 18.748C150.551 19.276 150.395 19.716 150.083 20.068C149.779 20.42 149.363 20.652 148.835 20.764V20.596C149.235 20.644 149.579 20.76 149.867 20.944C150.155 21.12 150.375 21.356 150.527 21.652C150.679 21.94 150.755 22.28 150.755 22.672C150.755 23.176 150.643 23.604 150.419 23.956C150.203 24.3 149.887 24.56 149.471 24.736C149.055 24.912 148.551 25 147.959 25H144.431ZM145.391 24.208H147.863C148.119 24.208 148.347 24.188 148.547 24.148C148.755 24.108 148.935 24.048 149.087 23.968C149.239 23.88 149.367 23.776 149.471 23.656C149.575 23.536 149.651 23.392 149.699 23.224C149.755 23.056 149.783 22.868 149.783 22.66C149.783 22.444 149.755 22.256 149.699 22.096C149.651 21.928 149.575 21.784 149.471 21.664C149.367 21.536 149.239 21.432 149.087 21.352C148.935 21.272 148.755 21.212 148.547 21.172C148.347 21.132 148.119 21.112 147.863 21.112H145.391V24.208ZM145.391 20.32H147.671C148.295 20.32 148.767 20.192 149.087 19.936C149.415 19.68 149.579 19.312 149.579 18.832C149.579 18.336 149.415 17.964 149.087 17.716C148.767 17.46 148.295 17.332 147.671 17.332H145.391V20.32ZM154.472 25.108C154 25.108 153.608 25.024 153.296 24.856C152.992 24.68 152.76 24.42 152.6 24.076C152.448 23.732 152.372 23.304 152.372 22.792V19.168H153.344V22.78C153.344 23.124 153.388 23.412 153.476 23.644C153.572 23.868 153.72 24.036 153.92 24.148C154.12 24.252 154.368 24.304 154.664 24.304C155 24.304 155.292 24.228 155.54 24.076C155.788 23.924 155.984 23.712 156.128 23.44C156.272 23.168 156.344 22.848 156.344 22.48V19.168H157.316V25H156.368V23.656H156.524C156.364 24.128 156.1 24.488 155.732 24.736C155.372 24.984 154.952 25.108 154.472 25.108ZM159.015 17.716V16.624H160.215V17.716H159.015ZM159.135 25V19.168H160.107V25H159.135ZM163.712 25.108C163.12 25.108 162.672 24.932 162.368 24.58C162.072 24.228 161.924 23.724 161.924 23.068V16.54H162.896V22.996C162.896 23.276 162.932 23.512 163.004 23.704C163.084 23.896 163.2 24.04 163.352 24.136C163.504 24.232 163.692 24.28 163.916 24.28C164.012 24.28 164.104 24.276 164.192 24.268C164.288 24.252 164.376 24.232 164.456 24.208L164.432 25.024C164.304 25.048 164.18 25.068 164.06 25.084C163.948 25.1 163.832 25.108 163.712 25.108ZM167.709 25.108C167.021 25.108 166.505 24.924 166.161 24.556C165.817 24.188 165.645 23.664 165.645 22.984V19.924H164.505V19.168H165.645V17.38H166.617V19.168H168.465V19.924H166.617V22.888C166.617 23.344 166.713 23.692 166.905 23.932C167.097 24.164 167.409 24.28 167.841 24.28C167.969 24.28 168.097 24.264 168.225 24.232C168.353 24.2 168.469 24.168 168.573 24.136L168.741 24.88C168.637 24.936 168.485 24.988 168.285 25.036C168.085 25.084 167.893 25.108 167.709 25.108ZM169.399 22.204V21.4H172.759V22.204H169.399ZM174.665 25V16.54H175.649V25H174.665ZM177.603 25V19.168H178.551V20.464H178.419C178.587 20 178.859 19.652 179.235 19.42C179.619 19.18 180.059 19.06 180.555 19.06C181.019 19.06 181.403 19.144 181.707 19.312C182.019 19.472 182.251 19.724 182.403 20.068C182.555 20.412 182.631 20.844 182.631 21.364V25H181.659V21.424C181.659 21.064 181.611 20.768 181.515 20.536C181.427 20.304 181.283 20.132 181.083 20.02C180.891 19.908 180.639 19.852 180.327 19.852C179.975 19.852 179.667 19.928 179.403 20.08C179.139 20.232 178.935 20.444 178.791 20.716C178.647 20.988 178.575 21.308 178.575 21.676V25H177.603ZM191.298 25.108C190.466 25.108 189.754 24.932 189.162 24.58C188.57 24.228 188.114 23.728 187.794 23.08C187.482 22.432 187.326 21.66 187.326 20.764C187.326 19.868 187.482 19.1 187.794 18.46C188.114 17.812 188.57 17.312 189.162 16.96C189.754 16.608 190.466 16.432 191.298 16.432C191.882 16.432 192.422 16.524 192.918 16.708C193.414 16.892 193.83 17.16 194.166 17.512L193.782 18.316C193.414 17.972 193.03 17.724 192.63 17.572C192.238 17.412 191.802 17.332 191.322 17.332C190.37 17.332 189.642 17.632 189.138 18.232C188.634 18.832 188.382 19.676 188.382 20.764C188.382 21.852 188.634 22.7 189.138 23.308C189.642 23.908 190.37 24.208 191.322 24.208C191.802 24.208 192.238 24.132 192.63 23.98C193.03 23.82 193.414 23.568 193.782 23.224L194.166 24.028C193.83 24.372 193.414 24.64 192.918 24.832C192.422 25.016 191.882 25.108 191.298 25.108ZM197.368 25.108C196.776 25.108 196.328 24.932 196.024 24.58C195.728 24.228 195.58 23.724 195.58 23.068V16.54H196.552V22.996C196.552 23.276 196.588 23.512 196.66 23.704C196.74 23.896 196.856 24.04 197.008 24.136C197.16 24.232 197.348 24.28 197.572 24.28C197.668 24.28 197.76 24.276 197.848 24.268C197.944 24.252 198.032 24.232 198.112 24.208L198.088 25.024C197.96 25.048 197.836 25.068 197.716 25.084C197.604 25.1 197.488 25.108 197.368 25.108ZM200.967 25.108C200.567 25.108 200.207 25.032 199.887 24.88C199.575 24.72 199.327 24.504 199.143 24.232C198.959 23.96 198.867 23.656 198.867 23.32C198.867 22.888 198.975 22.548 199.191 22.3C199.415 22.052 199.779 21.876 200.283 21.772C200.795 21.668 201.491 21.616 202.371 21.616H202.911V22.252H202.383C201.895 22.252 201.487 22.268 201.159 22.3C200.831 22.332 200.571 22.388 200.379 22.468C200.187 22.548 200.051 22.652 199.971 22.78C199.891 22.908 199.851 23.068 199.851 23.26C199.851 23.588 199.963 23.856 200.187 24.064C200.419 24.272 200.731 24.376 201.123 24.376C201.443 24.376 201.723 24.3 201.963 24.148C202.211 23.996 202.403 23.788 202.539 23.524C202.683 23.26 202.755 22.956 202.755 22.612V21.244C202.755 20.748 202.655 20.392 202.455 20.176C202.255 19.952 201.927 19.84 201.471 19.84C201.119 19.84 200.779 19.892 200.451 19.996C200.123 20.092 199.787 20.252 199.443 20.476L199.107 19.768C199.315 19.624 199.551 19.5 199.815 19.396C200.079 19.284 200.355 19.2 200.643 19.144C200.931 19.088 201.207 19.06 201.471 19.06C201.975 19.06 202.391 19.144 202.719 19.312C203.047 19.472 203.291 19.72 203.451 20.056C203.611 20.384 203.691 20.808 203.691 21.328V25H202.779V23.644H202.887C202.823 23.948 202.699 24.208 202.515 24.424C202.339 24.64 202.119 24.808 201.855 24.928C201.591 25.048 201.295 25.108 200.967 25.108ZM205.518 25V19.168H206.466V20.464H206.334C206.43 20.168 206.57 19.916 206.754 19.708C206.946 19.492 207.17 19.332 207.426 19.228C207.69 19.116 207.978 19.06 208.29 19.06C208.786 19.06 209.186 19.18 209.49 19.42C209.802 19.652 210.01 20.016 210.114 20.512H209.934C210.078 20.064 210.334 19.712 210.702 19.456C211.078 19.192 211.514 19.06 212.01 19.06C212.45 19.06 212.81 19.144 213.09 19.312C213.378 19.48 213.594 19.736 213.738 20.08C213.882 20.416 213.954 20.844 213.954 21.364V25H212.982V21.412C212.982 20.876 212.89 20.484 212.706 20.236C212.522 19.98 212.21 19.852 211.77 19.852C211.458 19.852 211.182 19.928 210.942 20.08C210.71 20.232 210.53 20.448 210.402 20.728C210.282 21 210.222 21.324 210.222 21.7V25H209.25V21.412C209.25 20.876 209.154 20.484 208.962 20.236C208.778 19.98 208.47 19.852 208.038 19.852C207.718 19.852 207.442 19.928 207.21 20.08C206.978 20.232 206.798 20.448 206.67 20.728C206.55 21 206.49 21.324 206.49 21.7V25H205.518ZM217.739 25.108C217.435 25.108 217.139 25.076 216.851 25.012C216.571 24.956 216.307 24.876 216.059 24.772C215.819 24.66 215.611 24.528 215.435 24.376L215.747 23.692C215.939 23.844 216.147 23.972 216.371 24.076C216.595 24.172 216.823 24.244 217.055 24.292C217.287 24.34 217.523 24.364 217.763 24.364C218.219 24.364 218.563 24.28 218.795 24.112C219.027 23.944 219.143 23.716 219.143 23.428C219.143 23.204 219.067 23.028 218.915 22.9C218.763 22.764 218.523 22.66 218.195 22.588L217.103 22.348C216.599 22.244 216.223 22.064 215.975 21.808C215.735 21.552 215.615 21.22 215.615 20.812C215.615 20.452 215.707 20.144 215.891 19.888C216.083 19.624 216.351 19.42 216.695 19.276C217.039 19.132 217.439 19.06 217.895 19.06C218.167 19.06 218.427 19.088 218.675 19.144C218.923 19.2 219.155 19.284 219.371 19.396C219.595 19.5 219.787 19.632 219.947 19.792L219.623 20.476C219.471 20.332 219.299 20.212 219.107 20.116C218.915 20.012 218.715 19.936 218.507 19.888C218.307 19.832 218.103 19.804 217.895 19.804C217.447 19.804 217.107 19.892 216.875 20.068C216.643 20.244 216.527 20.476 216.527 20.764C216.527 20.988 216.599 21.172 216.743 21.316C216.887 21.46 217.111 21.564 217.415 21.628L218.507 21.856C219.027 21.968 219.415 22.148 219.671 22.396C219.935 22.636 220.067 22.964 220.067 23.38C220.067 23.732 219.971 24.04 219.779 24.304C219.587 24.56 219.315 24.76 218.963 24.904C218.619 25.04 218.211 25.108 217.739 25.108ZM221.549 25V16.54H222.521V20.464H222.365C222.533 20 222.805 19.652 223.181 19.42C223.565 19.18 224.005 19.06 224.501 19.06C224.965 19.06 225.349 19.144 225.653 19.312C225.965 19.48 226.197 19.736 226.349 20.08C226.501 20.416 226.577 20.844 226.577 21.364V25H225.605V21.424C225.605 21.064 225.557 20.768 225.461 20.536C225.373 20.304 225.229 20.132 225.029 20.02C224.837 19.908 224.585 19.852 224.273 19.852C223.921 19.852 223.613 19.928 223.349 20.08C223.085 20.232 222.881 20.444 222.737 20.716C222.593 20.988 222.521 21.308 222.521 21.676V25H221.549ZM230.997 25.108C230.381 25.108 229.849 24.988 229.401 24.748C228.961 24.5 228.617 24.152 228.369 23.704C228.129 23.256 228.009 22.72 228.009 22.096C228.009 21.488 228.129 20.96 228.369 20.512C228.609 20.056 228.937 19.7 229.353 19.444C229.777 19.188 230.265 19.06 230.817 19.06C231.345 19.06 231.797 19.176 232.173 19.408C232.549 19.64 232.837 19.968 233.037 20.392C233.245 20.816 233.349 21.324 233.349 21.916V22.288H228.753V21.652H232.701L232.509 21.808C232.509 21.168 232.365 20.672 232.077 20.32C231.797 19.96 231.385 19.78 230.841 19.78C230.433 19.78 230.085 19.876 229.797 20.068C229.517 20.252 229.305 20.512 229.161 20.848C229.017 21.176 228.945 21.56 228.945 22V22.072C228.945 22.56 229.021 22.972 229.173 23.308C229.333 23.644 229.569 23.9 229.881 24.076C230.193 24.244 230.565 24.328 230.997 24.328C231.341 24.328 231.673 24.276 231.993 24.172C232.321 24.06 232.629 23.88 232.917 23.632L233.253 24.316C232.989 24.556 232.653 24.748 232.245 24.892C231.837 25.036 231.421 25.108 230.997 25.108ZM236.544 25.108C235.952 25.108 235.504 24.932 235.2 24.58C234.904 24.228 234.756 23.724 234.756 23.068V16.54H235.728V22.996C235.728 23.276 235.764 23.512 235.836 23.704C235.916 23.896 236.032 24.04 236.184 24.136C236.336 24.232 236.524 24.28 236.748 24.28C236.844 24.28 236.936 24.276 237.024 24.268C237.12 24.252 237.208 24.232 237.288 24.208L237.264 25.024C237.136 25.048 237.012 25.068 236.892 25.084C236.78 25.1 236.664 25.108 236.544 25.108ZM240.095 25.108C239.503 25.108 239.055 24.932 238.751 24.58C238.455 24.228 238.307 23.724 238.307 23.068V16.54H239.279V22.996C239.279 23.276 239.315 23.512 239.387 23.704C239.467 23.896 239.583 24.04 239.735 24.136C239.887 24.232 240.075 24.28 240.299 24.28C240.395 24.28 240.487 24.276 240.575 24.268C240.671 24.252 240.759 24.232 240.839 24.208L240.815 25.024C240.687 25.048 240.563 25.068 240.443 25.084C240.331 25.1 240.215 25.108 240.095 25.108Z" fill="white"/>
</svg>
