<svg width="90" height="82" viewBox="0 0 90 82" fill="none" xmlns="http://www.w3.org/2000/svg">
<g filter="url(#filter0_d_271_424)">
<rect x="4" y="24" width="82" height="50" rx="2" fill="#EBDBBA"/>
<rect x="4.25" y="24.25" width="81.5" height="49.5" rx="1.75" stroke="white" stroke-width="0.5"/>
</g>
<rect x="29.1016" y="0.0341797" width="30.0847" height="30.2425" rx="3" fill="#CB3335"/>
<g clip-path="url(#clip0_271_424)">
<path d="M51.7867 17.8716L49.1474 12.593H49.8758C50.0158 12.593 50.1501 12.5374 50.2491 12.4384C50.3481 12.3394 50.4037 12.2051 50.4037 12.0652C50.4037 11.9252 50.3481 11.7909 50.2491 11.6919C50.1501 11.5929 50.0158 11.5373 49.8758 11.5373H49.0418C48.4747 10.9196 47.7914 10.4198 47.0309 10.0666C46.2704 9.7133 45.4477 9.51352 44.6099 9.47863L44.5972 9.42584C44.5972 9.14585 44.486 8.87732 44.288 8.67933C44.09 8.48134 43.8215 8.37012 43.5415 8.37012C43.2615 8.37012 42.993 8.48134 42.795 8.67933C42.597 8.87732 42.4858 9.14585 42.4858 9.42584V9.47863C40.7796 9.54958 39.1694 10.2877 38.0021 11.5341L37.2072 11.5373C37.0672 11.5373 36.9329 11.5929 36.8339 11.6919C36.7349 11.7909 36.6793 11.9252 36.6793 12.0652C36.6793 12.2051 36.7349 12.3394 36.8339 12.4384C36.9329 12.5374 37.0672 12.593 37.2072 12.593H37.9356L35.2963 17.8716H35.0957C35.0957 19.0329 36.5104 19.9831 38.2629 19.9831C40.0154 19.9831 41.43 19.0329 41.43 17.8716H41.2295L38.5374 12.498C38.6041 12.4588 38.6614 12.4055 38.7052 12.3418C39.1721 11.7931 39.7497 11.3494 40.4002 11.0397C41.0506 10.7301 41.7592 10.5614 42.4794 10.5449L42.4858 22.0945H41.43V23.1503H39.3186V24.206H47.7644V23.1503H45.6529V22.0945H44.5972V10.5449C45.3093 10.5584 46.0101 10.725 46.6521 11.0334C47.294 11.3418 47.8621 11.7848 48.3176 12.3322C48.3664 12.415 48.4368 12.4829 48.5213 12.5286L45.8535 17.8716H45.6529C45.6529 19.0329 47.0676 19.9831 48.8201 19.9831C50.5726 19.9831 51.9873 19.0329 51.9873 17.8716H51.7867ZM40.3743 17.8716H36.1514L38.2629 13.7121L40.3743 17.8716ZM46.7087 17.8716L48.8201 13.7121L50.9316 17.8716H46.7087Z" fill="white"/>
</g>
<path d="M33.168 44L31.36 38.36H32.112L33.584 43.144H33.512L35.152 38.36H35.736L37.36 43.144H37.304L38.792 38.36H39.512L37.696 44H37.016L35.424 39.344H35.456L33.832 44H33.168ZM42.0223 44.072C41.5796 44.072 41.1956 43.992 40.8703 43.832C40.5503 43.6667 40.3049 43.432 40.1343 43.128C39.9636 42.8187 39.8783 42.4507 39.8783 42.024C39.8783 41.624 39.9583 41.272 40.1183 40.968C40.2783 40.6587 40.5049 40.416 40.7983 40.24C41.0916 40.064 41.4409 39.976 41.8463 39.976C42.2303 39.976 42.5556 40.0587 42.8223 40.224C43.0943 40.3893 43.2996 40.6213 43.4383 40.92C43.5823 41.2187 43.6543 41.5733 43.6543 41.984V42.216H40.4143V41.72H43.1903L43.0383 41.88C43.0383 41.4427 42.9343 41.1067 42.7263 40.872C42.5236 40.6373 42.2303 40.52 41.8463 40.52C41.5956 40.52 41.3716 40.5787 41.1743 40.696C40.9823 40.808 40.8329 40.968 40.7263 41.176C40.6196 41.384 40.5663 41.6373 40.5663 41.936V42.016C40.5663 42.336 40.6249 42.6053 40.7423 42.824C40.8596 43.0427 41.0276 43.208 41.2463 43.32C41.4649 43.432 41.7263 43.488 42.0303 43.488C42.2489 43.488 42.4703 43.4587 42.6943 43.4C42.9236 43.336 43.1369 43.224 43.3343 43.064L43.5743 43.576C43.3716 43.7467 43.1289 43.872 42.8463 43.952C42.5689 44.032 42.2943 44.072 42.0223 44.072ZM44.7492 39.096V38.304H45.6132V39.096H44.7492ZM44.8292 44V40.048H45.5412V44H44.8292ZM48.674 45.512C48.3593 45.512 48.0473 45.464 47.738 45.368C47.4287 45.2773 47.1647 45.152 46.946 44.992L47.17 44.44C47.3193 44.536 47.4767 44.6187 47.642 44.688C47.8073 44.7627 47.9753 44.816 48.146 44.848C48.322 44.8853 48.4953 44.904 48.666 44.904C49.0767 44.904 49.3967 44.8 49.626 44.592C49.8607 44.384 49.978 44.088 49.978 43.704V42.976H49.962C49.866 43.248 49.6927 43.4693 49.442 43.64C49.1913 43.8053 48.9007 43.888 48.57 43.888C48.1967 43.888 47.8713 43.808 47.594 43.648C47.3167 43.4827 47.1007 43.2533 46.946 42.96C46.7967 42.6667 46.722 42.3227 46.722 41.928C46.722 41.5387 46.7967 41.1973 46.946 40.904C47.1007 40.6107 47.3167 40.384 47.594 40.224C47.8713 40.0587 48.1967 39.976 48.57 39.976C48.9007 39.976 49.1913 40.0613 49.442 40.232C49.698 40.4027 49.874 40.6293 49.97 40.912H49.978V40.048H50.642V43.64C50.642 44.024 50.562 44.3547 50.402 44.632C50.2473 44.9147 50.0233 45.1307 49.73 45.28C49.4367 45.4347 49.0847 45.512 48.674 45.512ZM48.69 43.304C49.0793 43.304 49.386 43.1787 49.61 42.928C49.8393 42.6773 49.954 42.344 49.954 41.928C49.954 41.512 49.8393 41.1813 49.61 40.936C49.386 40.6853 49.0793 40.56 48.69 40.56C48.306 40.56 47.9993 40.6853 47.77 40.936C47.546 41.1813 47.434 41.512 47.434 41.928C47.434 42.344 47.546 42.6773 47.77 42.928C47.9993 43.1787 48.306 43.304 48.69 43.304ZM52.0636 44V38.36H52.7516V40.888C52.8689 40.6053 53.0529 40.384 53.3036 40.224C53.5596 40.0587 53.8476 39.976 54.1676 39.976C54.4929 39.976 54.7649 40.0347 54.9836 40.152C55.2022 40.264 55.3649 40.44 55.4716 40.68C55.5836 40.9147 55.6396 41.208 55.6396 41.56V44H54.9276V41.6C54.9276 41.3867 54.8956 41.2053 54.8316 41.056C54.7729 40.9067 54.6769 40.792 54.5436 40.712C54.4102 40.6267 54.2316 40.584 54.0076 40.584C53.7729 40.584 53.5622 40.6373 53.3756 40.744C53.1889 40.8507 53.0422 40.9947 52.9356 41.176C52.8289 41.3573 52.7756 41.56 52.7756 41.784V44H52.0636ZM58.7119 44.072C58.2373 44.072 57.8773 43.9467 57.6319 43.696C57.3919 43.4453 57.2719 43.088 57.2719 42.624V40.632H56.4719V40.048H57.2959V38.872H57.9839V40.048H59.3999V40.632H57.9839V42.56C57.9839 42.864 58.0506 43.0907 58.1839 43.24C58.3226 43.384 58.5333 43.456 58.8159 43.456C58.9279 43.456 59.0346 43.4453 59.1359 43.424C59.2426 43.4027 59.3439 43.3707 59.4399 43.328L59.5519 43.888C59.4453 43.9467 59.3146 43.992 59.1599 44.024C59.0106 44.056 58.8613 44.072 58.7119 44.072Z" fill="#CE3439"/>
<path d="M23.236 57V56.392H24.78V51.928L25.156 51.984L23.516 53.04L23.196 52.488L24.964 51.36H25.484V56.392H26.908V57H23.236ZM29.6969 57.072C29.2649 57.072 28.8995 56.9627 28.6009 56.744C28.3022 56.52 28.0755 56.1947 27.9209 55.768C27.7715 55.336 27.6969 54.8053 27.6969 54.176C27.6969 53.5467 27.7715 53.0187 27.9209 52.592C28.0755 52.1653 28.3022 51.8427 28.6009 51.624C28.8995 51.4 29.2649 51.288 29.6969 51.288C30.1395 51.288 30.5075 51.3973 30.8009 51.616C31.0942 51.8347 31.3155 52.1573 31.4649 52.584C31.6195 53.0107 31.6969 53.5387 31.6969 54.168C31.6969 54.7973 31.6195 55.328 31.4649 55.76C31.3155 56.192 31.0915 56.52 30.7929 56.744C30.4942 56.9627 30.1289 57.072 29.6969 57.072ZM29.6969 56.448C30.1342 56.448 30.4595 56.264 30.6729 55.896C30.8862 55.528 30.9929 54.952 30.9929 54.168C30.9929 53.3893 30.8862 52.8187 30.6729 52.456C30.4649 52.0933 30.1422 51.912 29.7049 51.912C29.2622 51.912 28.9342 52.096 28.7209 52.464C28.5075 52.8267 28.4009 53.3973 28.4009 54.176C28.4009 54.9493 28.5075 55.5227 28.7209 55.896C28.9342 56.264 29.2595 56.448 29.6969 56.448ZM32.6698 57V56.12H33.5818V57H32.6698ZM36.7483 57.072C36.2949 57.072 35.9109 56.9627 35.5963 56.744C35.2816 56.5253 35.0416 56.2107 34.8763 55.8C34.7109 55.384 34.6283 54.8853 34.6283 54.304C34.6283 53.6533 34.7189 53.1067 34.9003 52.664C35.0816 52.216 35.3429 51.8747 35.6843 51.64C36.0256 51.4053 36.4363 51.288 36.9163 51.288C37.1296 51.288 37.3323 51.3147 37.5243 51.368C37.7163 51.416 37.8976 51.4907 38.0683 51.592C38.2389 51.6933 38.3989 51.8187 38.5483 51.968L38.2843 52.52C38.0763 52.3013 37.8576 52.1467 37.6283 52.056C37.3989 51.96 37.1616 51.912 36.9163 51.912C36.6549 51.912 36.4229 51.9627 36.2203 52.064C36.0176 52.16 35.8469 52.3067 35.7083 52.504C35.5696 52.696 35.4629 52.936 35.3883 53.224C35.3189 53.5067 35.2843 53.8373 35.2843 54.216V54.68H35.2923C35.3403 54.424 35.4363 54.2053 35.5803 54.024C35.7243 53.8373 35.9029 53.696 36.1163 53.6C36.3296 53.4987 36.5643 53.448 36.8203 53.448C37.1616 53.448 37.4603 53.5253 37.7163 53.68C37.9776 53.8293 38.1803 54.04 38.3243 54.312C38.4736 54.5787 38.5483 54.888 38.5483 55.24C38.5483 55.592 38.4709 55.9067 38.3163 56.184C38.1669 56.4613 37.9563 56.68 37.6843 56.84C37.4123 56.9947 37.1003 57.072 36.7483 57.072ZM36.7083 56.464C36.9429 56.464 37.1483 56.4133 37.3243 56.312C37.5003 56.2107 37.6363 56.0693 37.7323 55.888C37.8336 55.7067 37.8843 55.496 37.8843 55.256C37.8843 55.016 37.8336 54.808 37.7323 54.632C37.6363 54.4507 37.5003 54.3093 37.3243 54.208C37.1483 54.1067 36.9403 54.056 36.7003 54.056C36.4656 54.056 36.2576 54.1067 36.0763 54.208C35.9003 54.3093 35.7589 54.4507 35.6523 54.632C35.5509 54.808 35.5003 55.016 35.5003 55.256C35.5003 55.496 35.5509 55.7067 35.6523 55.888C35.7536 56.0693 35.8949 56.2107 36.0763 56.312C36.2576 56.4133 36.4683 56.464 36.7083 56.464ZM41.4171 57.072C41.1718 57.072 40.9345 57.0453 40.7051 56.992C40.4811 56.9387 40.2705 56.8613 40.0731 56.76C39.8758 56.6533 39.6998 56.5253 39.5451 56.376L39.8251 55.816C40.0705 56.04 40.3211 56.2027 40.5771 56.304C40.8385 56.4 41.1185 56.448 41.4171 56.448C41.8118 56.448 42.1185 56.3467 42.3371 56.144C42.5611 55.936 42.6731 55.6453 42.6731 55.272C42.6731 54.904 42.5691 54.6107 42.3611 54.392C42.1531 54.1733 41.8651 54.064 41.4971 54.064C41.2518 54.064 41.0278 54.1147 40.8251 54.216C40.6278 54.312 40.4438 54.4747 40.2731 54.704H39.7131V51.36H43.0891V51.976H40.3611V54.096H40.3291C40.4571 53.904 40.6331 53.7493 40.8571 53.632C41.0811 53.5093 41.3318 53.448 41.6091 53.448C41.9718 53.448 42.2838 53.5253 42.5451 53.68C42.8065 53.8293 43.0065 54.0373 43.1451 54.304C43.2891 54.5707 43.3611 54.8827 43.3611 55.24C43.3611 55.6187 43.2811 55.9467 43.1211 56.224C42.9611 56.496 42.7371 56.7067 42.4491 56.856C42.1611 57 41.8171 57.072 41.4171 57.072ZM47.8724 58.536C47.4937 57.96 47.2137 57.3733 47.0324 56.776C46.8564 56.1733 46.7684 55.5467 46.7684 54.896C46.7684 54.2453 46.8564 53.6213 47.0324 53.024C47.2137 52.4267 47.4937 51.8373 47.8724 51.256L48.3844 51.44C48.1817 51.8187 48.0137 52.2 47.8804 52.584C47.747 52.968 47.6457 53.352 47.5764 53.736C47.5124 54.1147 47.4804 54.5013 47.4804 54.896C47.4804 55.2853 47.5124 55.672 47.5764 56.056C47.6457 56.44 47.747 56.8213 47.8804 57.2C48.0137 57.584 48.1817 57.968 48.3844 58.352L47.8724 58.536ZM51.9936 57.072C51.4069 57.072 50.9056 56.9573 50.4896 56.728C50.0736 56.4987 49.7536 56.1707 49.5296 55.744C49.3109 55.312 49.2016 54.7893 49.2016 54.176C49.2016 53.5733 49.3082 53.0587 49.5216 52.632C49.7402 52.2 50.0522 51.8693 50.4576 51.64C50.8629 51.4053 51.3482 51.288 51.9136 51.288C52.1909 51.288 52.4549 51.3147 52.7056 51.368C52.9562 51.4213 53.1882 51.5013 53.4016 51.608C53.6149 51.7093 53.7962 51.8373 53.9456 51.992L53.6736 52.544C53.4229 52.3253 53.1536 52.1707 52.8656 52.08C52.5776 51.984 52.2576 51.936 51.9056 51.936C51.2869 51.936 50.8042 52.128 50.4576 52.512C50.1162 52.8907 49.9456 53.4453 49.9456 54.176C49.9456 54.9333 50.1216 55.5013 50.4736 55.88C50.8309 56.2533 51.3482 56.44 52.0256 56.44C52.3242 56.44 52.6016 56.416 52.8576 56.368C53.1189 56.32 53.3562 56.2507 53.5696 56.16L53.3616 56.576V54.616H51.9536V54.008H54.0096V56.672C53.8602 56.7467 53.6736 56.816 53.4496 56.88C53.2256 56.9387 52.9882 56.984 52.7376 57.016C52.4869 57.0533 52.2389 57.072 51.9936 57.072ZM55.4854 57V53.048H56.1334V53.96H56.1414C56.2374 53.6667 56.4054 53.4373 56.6454 53.272C56.8854 53.1013 57.1788 53.0053 57.5254 52.984L57.8854 52.968L57.9494 53.616L57.3734 53.664C57.0054 53.696 56.7174 53.8187 56.5094 54.032C56.3014 54.24 56.1974 54.5013 56.1974 54.816V57H55.4854ZM58.8452 57V53.048H59.5012V53.912C59.5705 53.736 59.6665 53.5787 59.7892 53.44C59.9172 53.296 60.0692 53.184 60.2452 53.104C60.4265 53.0187 60.6239 52.976 60.8372 52.976C61.1839 52.976 61.4692 53.0613 61.6932 53.232C61.9172 53.4027 62.0559 53.6267 62.1092 53.904H62.1012C62.2079 53.6427 62.3759 53.424 62.6052 53.248C62.8399 53.0667 63.1332 52.976 63.4852 52.976C63.7839 52.976 64.0372 53.0347 64.2452 53.152C64.4532 53.264 64.6105 53.4373 64.7172 53.672C64.8239 53.9067 64.8772 54.2027 64.8772 54.56V57H64.1732V54.608C64.1732 54.2667 64.1119 54.0107 63.9892 53.84C63.8665 53.6693 63.6479 53.584 63.3332 53.584C63.0985 53.584 62.8959 53.6373 62.7252 53.744C62.5599 53.8453 62.4319 53.9893 62.3412 54.176C62.2559 54.3573 62.2132 54.5627 62.2132 54.792V57H61.5092V54.608C61.5092 54.272 61.4399 54.0187 61.3012 53.848C61.1625 53.672 60.9519 53.584 60.6692 53.584C60.4399 53.584 60.2399 53.6427 60.0692 53.76C59.9039 53.872 59.7759 54.0187 59.6852 54.2C59.5945 54.3813 59.5492 54.5733 59.5492 54.776V57H58.8452ZM66.4018 58.536L65.8818 58.352C66.0898 57.9627 66.2604 57.576 66.3938 57.192C66.5271 56.8133 66.6258 56.4347 66.6898 56.056C66.7538 55.672 66.7858 55.2853 66.7858 54.896C66.7858 54.5067 66.7538 54.1227 66.6898 53.744C66.6258 53.36 66.5271 52.976 66.3938 52.592C66.2604 52.208 66.0898 51.824 65.8818 51.44L66.4018 51.256C66.7751 51.832 67.0498 52.4213 67.2258 53.024C67.4071 53.6213 67.4978 54.2453 67.4978 54.896C67.4978 55.5413 67.4071 56.1653 67.2258 56.768C67.0498 57.3653 66.7751 57.9547 66.4018 58.536Z" fill="black"/>
<defs>
<filter id="filter0_d_271_424" x="0.0999999" y="24" width="89.8" height="57.9" filterUnits="userSpaceOnUse" color-interpolation-filters="sRGB">
<feFlood flood-opacity="0" result="BackgroundImageFix"/>
<feColorMatrix in="SourceAlpha" type="matrix" values="0 0 0 0 0 0 0 0 0 0 0 0 0 0 0 0 0 0 127 0" result="hardAlpha"/>
<feOffset dy="4"/>
<feGaussianBlur stdDeviation="1.95"/>
<feComposite in2="hardAlpha" operator="out"/>
<feColorMatrix type="matrix" values="0 0 0 0 0 0 0 0 0 0 0 0 0 0 0 0 0 0 0.2 0"/>
<feBlend mode="normal" in2="BackgroundImageFix" result="effect1_dropShadow_271_424"/>
<feBlend mode="normal" in="SourceGraphic" in2="effect1_dropShadow_271_424" result="shape"/>
</filter>
<clipPath id="clip0_271_424">
<rect width="16.8916" height="16.8916" fill="white" transform="translate(35.0957 7.31445)"/>
</clipPath>
</defs>
</svg>
