<svg width="143" height="82" viewBox="0 0 143 82" fill="none" xmlns="http://www.w3.org/2000/svg">
<g filter="url(#filter0_d_271_433)">
<rect x="4" y="24" width="135" height="50" rx="2" fill="#EBDBBA"/>
<rect x="4.25" y="24.25" width="134.5" height="49.5" rx="1.75" stroke="white" stroke-width="0.5"/>
</g>
<rect x="51.8438" width="30.1136" height="30.1433" rx="3" fill="#CB3335"/>
<g clip-path="url(#clip0_271_433)">
<path fill-rule="evenodd" clip-rule="evenodd" d="M66.3835 2.41904C66.4652 2.41395 66.5508 2.42752 66.5741 2.44871C66.5974 2.46991 67.236 2.80605 67.9927 3.19603C68.7499 3.58559 69.693 4.07179 70.0889 4.2761C70.4849 4.47999 72.1906 5.35745 73.879 6.226C75.5678 7.09413 76.9818 7.83594 77.022 7.87408C77.0898 7.93852 77.0948 8.29416 77.0974 13.263C77.0995 17.5184 77.0889 18.5981 77.0457 18.66C77.0161 18.7024 74.6192 19.9473 71.7193 21.4263C68.8193 22.9057 66.4089 24.1159 66.3623 24.1159C66.3158 24.1159 66.068 24.0048 65.8118 23.8696C65.5556 23.7339 63.1562 22.4987 60.4799 21.1245C56.4696 19.0648 55.5998 18.6028 55.5341 18.4981C55.4727 18.4001 55.4583 18.3128 55.471 18.1166C55.4804 17.9767 55.521 15.6211 55.5612 12.8815C55.6019 10.1419 55.6523 7.85289 55.6735 7.79482C55.7056 7.70622 56.5733 7.25817 60.9736 5.0586C64.4897 3.30073 66.2844 2.4254 66.3835 2.41904ZM56.7194 7.93979C56.7245 7.95335 57.3809 8.31154 58.1787 8.73585C58.9765 9.16017 59.677 9.53446 59.735 9.56795C59.8366 9.62687 60.0285 9.53192 64.6155 7.15432C67.2415 5.79278 69.3758 4.66693 69.3584 4.65167C69.3411 4.63641 68.6741 4.2884 67.8763 3.87807C67.0784 3.46774 66.4021 3.13329 66.3729 3.13457C66.3437 3.13584 64.1577 4.2121 61.5153 5.52616C58.8728 6.84022 56.7148 7.92622 56.7194 7.93979ZM63.6195 8.40946C61.9497 9.27208 60.5828 9.98718 60.5828 9.99905C60.5824 10.0105 60.9868 10.2377 61.4818 10.5035L62.3817 10.9863C62.8412 10.751 64.9827 9.63705 67.4367 8.35902C69.8907 7.08141 71.9009 6.0166 71.9043 5.99328C71.9073 5.96997 71.5156 5.74573 71.0332 5.49521C70.5513 5.24469 70.1512 5.03995 70.144 5.0408C70.1372 5.04165 69.3491 5.44689 68.3933 5.94157C67.4375 6.43625 65.2893 7.54684 63.6195 8.40946ZM65.8449 9.92275C64.3491 10.6989 63.1245 11.3487 63.124 11.3661C63.1232 11.3835 63.8376 11.7794 64.7108 12.2457L66.2988 13.0934C73.7325 9.28479 75.9231 8.1547 75.9633 8.1246C76.0264 8.07755 75.8227 7.96098 74.385 7.22257C73.4767 6.75629 72.7199 6.37224 72.703 6.36927C72.6861 6.36631 71.7481 6.847 70.6182 7.43748C69.4884 8.02753 67.3406 9.14618 65.8449 9.92275ZM56.224 13.3054C56.1706 16.7622 56.1626 18.1297 56.1956 18.164C56.2206 18.1899 56.7084 18.4502 57.2788 18.7426C57.8497 19.0347 60.0505 20.1635 62.17 21.2508C64.2894 22.3377 66.0278 23.2219 66.0333 23.2151C66.0384 23.2087 66.0248 21.0571 66.0028 18.4345C65.9808 15.8114 65.9575 13.6627 65.9507 13.6589C65.9444 13.6551 65.2147 13.2617 64.3297 12.7853L62.7205 11.9188C62.679 12.1227 62.6553 12.6874 62.6404 13.3054C62.6171 14.3049 62.6057 14.4406 62.5363 14.5347C62.484 14.6053 62.4099 14.6445 62.3139 14.6521C62.1979 14.6618 61.9324 14.5385 60.944 14.0163C60.2698 13.6602 59.6744 13.3355 59.6206 13.2948L59.5232 13.2206L59.5021 10.1923C57.6312 9.18603 56.9117 8.79944 56.6957 8.68414C56.4797 8.56842 56.3019 8.47855 56.3006 8.48406C56.2998 8.48957 56.265 10.659 56.224 13.3054ZM66.666 13.6526C66.6469 13.6598 66.6469 15.8165 66.666 18.4451C66.6855 21.0736 66.7109 23.2253 66.7223 23.2257C66.7337 23.2265 68.9252 22.1134 71.5922 20.7519L76.441 18.2768C76.4575 10.8104 76.4482 8.64387 76.4304 8.64557C76.413 8.64769 74.2169 9.77184 71.5499 11.1444C68.8829 12.517 66.6855 13.6454 66.666 13.6526ZM60.1593 12.8603C61.4746 13.55 61.879 13.756 61.9074 13.7623C61.9447 13.7708 61.9667 13.5826 61.99 13.0629C62.0078 12.6717 62.0217 12.1702 62.0217 11.9489V11.5462C60.6433 10.807 60.2241 10.5925 60.2008 10.5925C60.1737 10.5925 60.1585 10.9986 60.1589 11.7264L60.1593 12.8603Z" fill="white"/>
</g>
<path d="M20.832 41V35.36H23.152C23.5573 35.36 23.9013 35.4267 24.184 35.56C24.4667 35.6933 24.6827 35.888 24.832 36.144C24.9867 36.3947 25.064 36.6987 25.064 37.056C25.064 37.4133 24.9867 37.72 24.832 37.976C24.6827 38.232 24.464 38.4293 24.176 38.568C23.8933 38.7067 23.552 38.776 23.152 38.776H21.544V41H20.832ZM21.544 38.168H23.048C23.4747 38.168 23.7973 38.0773 24.016 37.896C24.2347 37.7093 24.344 37.432 24.344 37.064C24.344 36.6907 24.2347 36.416 24.016 36.24C23.7973 36.0587 23.4747 35.968 23.048 35.968H21.544V38.168ZM25.7242 36.096V35.304H26.5882V36.096H25.7242ZM25.8042 41V37.048H26.5162V41H25.8042ZM29.441 41.072C28.9983 41.072 28.6143 40.992 28.289 40.832C27.969 40.6667 27.7237 40.432 27.553 40.128C27.3823 39.8187 27.297 39.4507 27.297 39.024C27.297 38.624 27.377 38.272 27.537 37.968C27.697 37.6587 27.9237 37.416 28.217 37.24C28.5103 37.064 28.8597 36.976 29.265 36.976C29.649 36.976 29.9743 37.0587 30.241 37.224C30.513 37.3893 30.7183 37.6213 30.857 37.92C31.001 38.2187 31.073 38.5733 31.073 38.984V39.216H27.833V38.72H30.609L30.457 38.88C30.457 38.4427 30.353 38.1067 30.145 37.872C29.9423 37.6373 29.649 37.52 29.265 37.52C29.0143 37.52 28.7903 37.5787 28.593 37.696C28.401 37.808 28.2517 37.968 28.145 38.176C28.0383 38.384 27.985 38.6373 27.985 38.936V39.016C27.985 39.336 28.0437 39.6053 28.161 39.824C28.2783 40.0427 28.4463 40.208 28.665 40.32C28.8837 40.432 29.145 40.488 29.449 40.488C29.6677 40.488 29.889 40.4587 30.113 40.4C30.3423 40.336 30.5557 40.224 30.753 40.064L30.993 40.576C30.7903 40.7467 30.5477 40.872 30.265 40.952C29.9877 41.032 29.713 41.072 29.441 41.072ZM33.6079 41.072C33.2026 41.072 32.8506 40.9867 32.5519 40.816C32.2533 40.6453 32.0213 40.408 31.8559 40.104C31.6906 39.7947 31.6079 39.432 31.6079 39.016C31.6079 38.6 31.6906 38.24 31.8559 37.936C32.0213 37.6267 32.2533 37.3893 32.5519 37.224C32.8559 37.0587 33.2106 36.976 33.6159 36.976C33.8879 36.976 34.1466 37.0213 34.3919 37.112C34.6373 37.2027 34.8399 37.3253 34.9999 37.48L34.7519 38.008C34.5973 37.8693 34.4239 37.7653 34.2319 37.696C34.0399 37.6213 33.8533 37.584 33.6719 37.584C33.2559 37.584 32.9279 37.7093 32.6879 37.96C32.4479 38.2107 32.3279 38.5653 32.3279 39.024C32.3279 39.4773 32.4479 39.832 32.6879 40.088C32.9279 40.3387 33.2533 40.464 33.6639 40.464C33.8506 40.464 34.0373 40.4293 34.2239 40.36C34.4159 40.2853 34.5866 40.1813 34.7359 40.048L34.9839 40.576C34.8293 40.7307 34.6293 40.8533 34.3839 40.944C34.1386 41.0293 33.8799 41.072 33.6079 41.072ZM37.3363 41.072C36.8936 41.072 36.5096 40.992 36.1843 40.832C35.8643 40.6667 35.619 40.432 35.4483 40.128C35.2776 39.8187 35.1923 39.4507 35.1923 39.024C35.1923 38.624 35.2723 38.272 35.4323 37.968C35.5923 37.6587 35.819 37.416 36.1123 37.24C36.4056 37.064 36.755 36.976 37.1603 36.976C37.5443 36.976 37.8696 37.0587 38.1363 37.224C38.4083 37.3893 38.6136 37.6213 38.7523 37.92C38.8963 38.2187 38.9683 38.5733 38.9683 38.984V39.216H35.7283V38.72H38.5043L38.3523 38.88C38.3523 38.4427 38.2483 38.1067 38.0403 37.872C37.8376 37.6373 37.5443 37.52 37.1603 37.52C36.9096 37.52 36.6856 37.5787 36.4883 37.696C36.2963 37.808 36.147 37.968 36.0403 38.176C35.9336 38.384 35.8803 38.6373 35.8803 38.936V39.016C35.8803 39.336 35.939 39.6053 36.0563 39.824C36.1736 40.0427 36.3416 40.208 36.5603 40.32C36.779 40.432 37.0403 40.488 37.3443 40.488C37.563 40.488 37.7843 40.4587 38.0083 40.4C38.2376 40.336 38.451 40.224 38.6483 40.064L38.8883 40.576C38.6856 40.7467 38.443 40.872 38.1603 40.952C37.883 41.032 37.6083 41.072 37.3363 41.072ZM41.1993 41.072C40.9806 41.072 40.7646 41.0507 40.5513 41.008C40.3433 40.9707 40.1486 40.9173 39.9673 40.848C39.7913 40.7733 39.6393 40.6827 39.5113 40.576L39.7433 40.072C39.8766 40.1733 40.0233 40.256 40.1833 40.32C40.3486 40.384 40.5166 40.432 40.6873 40.464C40.8633 40.4907 41.0313 40.504 41.1913 40.504C41.5219 40.504 41.7753 40.4533 41.9513 40.352C42.1326 40.2507 42.2233 40.1093 42.2233 39.928C42.2233 39.7733 42.1699 39.656 42.0633 39.576C41.9619 39.4907 41.7913 39.4267 41.5513 39.384L40.7273 39.24C40.3593 39.1707 40.0819 39.0453 39.8953 38.864C39.7139 38.6827 39.6233 38.4453 39.6233 38.152C39.6233 37.9173 39.6873 37.712 39.8153 37.536C39.9486 37.36 40.1379 37.224 40.3833 37.128C40.6286 37.0267 40.9219 36.976 41.2633 36.976C41.4499 36.976 41.6393 36.9947 41.8313 37.032C42.0286 37.0693 42.2099 37.1253 42.3753 37.2C42.5459 37.2693 42.6846 37.3573 42.7913 37.464L42.5513 37.968C42.4446 37.8667 42.3166 37.7867 42.1673 37.728C42.0233 37.664 41.8713 37.6187 41.7113 37.592C41.5566 37.56 41.4046 37.544 41.2553 37.544C40.9459 37.544 40.7059 37.5973 40.5353 37.704C40.3646 37.8053 40.2793 37.9493 40.2793 38.136C40.2793 38.2853 40.3273 38.4027 40.4233 38.488C40.5246 38.5733 40.6873 38.6373 40.9113 38.68L41.7113 38.824C42.1059 38.8987 42.3993 39.024 42.5913 39.2C42.7833 39.3707 42.8793 39.608 42.8793 39.912C42.8793 40.1467 42.8099 40.352 42.6713 40.528C42.5326 40.6987 42.3379 40.832 42.0873 40.928C41.8366 41.024 41.5406 41.072 41.1993 41.072Z" fill="#CE3439"/>
<path d="M59.1774 41V40.392H60.7214V35.928L61.0974 35.984L59.4574 37.04L59.1374 36.488L60.9054 35.36H61.4254V40.392H62.8494V41H59.1774ZM65.7023 41.072C65.4569 41.072 65.2196 41.0453 64.9903 40.992C64.7663 40.9387 64.5556 40.8613 64.3583 40.76C64.1609 40.6533 63.9849 40.5253 63.8303 40.376L64.1103 39.816C64.3556 40.04 64.6063 40.2027 64.8623 40.304C65.1236 40.4 65.4036 40.448 65.7023 40.448C66.0969 40.448 66.4036 40.3467 66.6223 40.144C66.8463 39.936 66.9583 39.6453 66.9583 39.272C66.9583 38.904 66.8543 38.6107 66.6463 38.392C66.4383 38.1733 66.1503 38.064 65.7823 38.064C65.5369 38.064 65.3129 38.1147 65.1103 38.216C64.9129 38.312 64.7289 38.4747 64.5583 38.704H63.9983V35.36H67.3743V35.976H64.6463V38.096H64.6143C64.7423 37.904 64.9183 37.7493 65.1423 37.632C65.3663 37.5093 65.6169 37.448 65.8943 37.448C66.2569 37.448 66.5689 37.5253 66.8303 37.68C67.0916 37.8293 67.2916 38.0373 67.4303 38.304C67.5743 38.5707 67.6463 38.8827 67.6463 39.24C67.6463 39.6187 67.5663 39.9467 67.4063 40.224C67.2463 40.496 67.0223 40.7067 66.7343 40.856C66.4463 41 66.1023 41.072 65.7023 41.072ZM70.4352 41.072C70.0032 41.072 69.6378 40.9627 69.3392 40.744C69.0405 40.52 68.8138 40.1947 68.6592 39.768C68.5098 39.336 68.4352 38.8053 68.4352 38.176C68.4352 37.5467 68.5098 37.0187 68.6592 36.592C68.8138 36.1653 69.0405 35.8427 69.3392 35.624C69.6378 35.4 70.0032 35.288 70.4352 35.288C70.8778 35.288 71.2458 35.3973 71.5392 35.616C71.8325 35.8347 72.0538 36.1573 72.2032 36.584C72.3578 37.0107 72.4352 37.5387 72.4352 38.168C72.4352 38.7973 72.3578 39.328 72.2032 39.76C72.0538 40.192 71.8298 40.52 71.5312 40.744C71.2325 40.9627 70.8672 41.072 70.4352 41.072ZM70.4352 40.448C70.8725 40.448 71.1978 40.264 71.4112 39.896C71.6245 39.528 71.7312 38.952 71.7312 38.168C71.7312 37.3893 71.6245 36.8187 71.4112 36.456C71.2032 36.0933 70.8805 35.912 70.4432 35.912C70.0005 35.912 69.6725 36.096 69.4592 36.464C69.2458 36.8267 69.1392 37.3973 69.1392 38.176C69.1392 38.9493 69.2458 39.5227 69.4592 39.896C69.6725 40.264 69.9978 40.448 70.4352 40.448ZM75.232 41.072C74.8 41.072 74.4347 40.9627 74.136 40.744C73.8374 40.52 73.6107 40.1947 73.456 39.768C73.3067 39.336 73.232 38.8053 73.232 38.176C73.232 37.5467 73.3067 37.0187 73.456 36.592C73.6107 36.1653 73.8374 35.8427 74.136 35.624C74.4347 35.4 74.8 35.288 75.232 35.288C75.6747 35.288 76.0427 35.3973 76.336 35.616C76.6294 35.8347 76.8507 36.1573 77 36.584C77.1547 37.0107 77.232 37.5387 77.232 38.168C77.232 38.7973 77.1547 39.328 77 39.76C76.8507 40.192 76.6267 40.52 76.328 40.744C76.0294 40.9627 75.664 41.072 75.232 41.072ZM75.232 40.448C75.6694 40.448 75.9947 40.264 76.208 39.896C76.4214 39.528 76.528 38.952 76.528 38.168C76.528 37.3893 76.4214 36.8187 76.208 36.456C76 36.0933 75.6774 35.912 75.24 35.912C74.7974 35.912 74.4694 36.096 74.256 36.464C74.0427 36.8267 73.936 37.3973 73.936 38.176C73.936 38.9493 74.0427 39.5227 74.256 39.896C74.4694 40.264 74.7947 40.448 75.232 40.448ZM80.6953 41V35.36H81.3273L84.7833 39.952H84.7513V35.36H85.4313V41H84.7833L81.3433 36.424H81.3753V41H80.6953ZM88.6937 41.072C88.2937 41.072 87.9471 40.9867 87.6537 40.816C87.3604 40.6453 87.1337 40.408 86.9737 40.104C86.8137 39.7947 86.7337 39.432 86.7337 39.016C86.7337 38.6053 86.8137 38.248 86.9737 37.944C87.1337 37.6347 87.3604 37.3973 87.6537 37.232C87.9471 37.0613 88.2937 36.976 88.6937 36.976C89.0937 36.976 89.4377 37.0613 89.7257 37.232C90.0191 37.3973 90.2457 37.6347 90.4057 37.944C90.5657 38.248 90.6457 38.6053 90.6457 39.016C90.6457 39.432 90.5657 39.7947 90.4057 40.104C90.2511 40.408 90.0271 40.6453 89.7337 40.816C89.4404 40.9867 89.0937 41.072 88.6937 41.072ZM88.6857 40.472C89.0751 40.472 89.3817 40.3413 89.6057 40.08C89.8297 39.8187 89.9417 39.464 89.9417 39.016C89.9417 38.568 89.8297 38.216 89.6057 37.96C89.3871 37.704 89.0831 37.576 88.6937 37.576C88.3044 37.576 87.9977 37.704 87.7737 37.96C87.5497 38.216 87.4377 38.568 87.4377 39.016C87.4377 39.464 87.5497 39.8187 87.7737 40.08C88.0031 40.3413 88.3071 40.472 88.6857 40.472ZM93.2969 41.072C93.0782 41.072 92.8622 41.0507 92.6489 41.008C92.4409 40.9707 92.2462 40.9173 92.0649 40.848C91.8889 40.7733 91.7369 40.6827 91.6089 40.576L91.8409 40.072C91.9742 40.1733 92.1209 40.256 92.2809 40.32C92.4462 40.384 92.6142 40.432 92.7849 40.464C92.9609 40.4907 93.1289 40.504 93.2889 40.504C93.6196 40.504 93.8729 40.4533 94.0489 40.352C94.2302 40.2507 94.3209 40.1093 94.3209 39.928C94.3209 39.7733 94.2676 39.656 94.1609 39.576C94.0596 39.4907 93.8889 39.4267 93.6489 39.384L92.8249 39.24C92.4569 39.1707 92.1796 39.0453 91.9929 38.864C91.8116 38.6827 91.7209 38.4453 91.7209 38.152C91.7209 37.9173 91.7849 37.712 91.9129 37.536C92.0462 37.36 92.2356 37.224 92.4809 37.128C92.7262 37.0267 93.0196 36.976 93.3609 36.976C93.5476 36.976 93.7369 36.9947 93.9289 37.032C94.1262 37.0693 94.3076 37.1253 94.4729 37.2C94.6436 37.2693 94.7822 37.3573 94.8889 37.464L94.6489 37.968C94.5422 37.8667 94.4142 37.7867 94.2649 37.728C94.1209 37.664 93.9689 37.6187 93.8089 37.592C93.6542 37.56 93.5022 37.544 93.3529 37.544C93.0436 37.544 92.8036 37.5973 92.6329 37.704C92.4622 37.8053 92.3769 37.9493 92.3769 38.136C92.3769 38.2853 92.4249 38.4027 92.5209 38.488C92.6222 38.5733 92.7849 38.6373 93.0089 38.68L93.8089 38.824C94.2036 38.8987 94.4969 39.024 94.6889 39.2C94.8809 39.3707 94.9769 39.608 94.9769 39.912C94.9769 40.1467 94.9076 40.352 94.7689 40.528C94.6302 40.6987 94.4356 40.832 94.1849 40.928C93.9342 41.024 93.6382 41.072 93.2969 41.072ZM95.8814 41.504L95.3214 41.352L97.3614 34.984L97.9134 35.136L95.8814 41.504ZM100.963 41.072C100.424 41.072 99.9547 40.9573 99.5547 40.728C99.16 40.4933 98.856 40.16 98.6427 39.728C98.4293 39.2907 98.3227 38.7733 98.3227 38.176C98.3227 37.5787 98.4293 37.064 98.6427 36.632C98.856 36.2 99.16 35.8693 99.5547 35.64C99.9493 35.4053 100.419 35.288 100.963 35.288C101.357 35.288 101.717 35.3493 102.043 35.472C102.368 35.5893 102.648 35.7627 102.883 35.992L102.603 36.552C102.357 36.3333 102.104 36.176 101.843 36.08C101.587 35.984 101.299 35.936 100.979 35.936C100.381 35.936 99.912 36.128 99.5707 36.512C99.2347 36.8907 99.0667 37.4453 99.0667 38.176C99.0667 38.9013 99.2347 39.4587 99.5707 39.848C99.9067 40.232 100.376 40.424 100.979 40.424C101.299 40.424 101.587 40.376 101.843 40.28C102.104 40.184 102.357 40.0267 102.603 39.808L102.883 40.368C102.648 40.5973 102.368 40.7733 102.043 40.896C101.717 41.0133 101.357 41.072 100.963 41.072ZM105.614 41.072C105.14 41.072 104.78 40.9467 104.534 40.696C104.294 40.4453 104.174 40.088 104.174 39.624V37.632H103.374V37.048H104.198V35.872H104.886V37.048H106.302V37.632H104.886V39.56C104.886 39.864 104.953 40.0907 105.086 40.24C105.225 40.384 105.436 40.456 105.718 40.456C105.83 40.456 105.937 40.4453 106.038 40.424C106.145 40.4027 106.246 40.3707 106.342 40.328L106.454 40.888C106.348 40.9467 106.217 40.992 106.062 41.024C105.913 41.056 105.764 41.072 105.614 41.072ZM107.286 41V37.048H107.95V37.904C108.078 37.6107 108.27 37.384 108.526 37.224C108.782 37.0587 109.07 36.976 109.39 36.976C109.716 36.976 109.988 37.0347 110.206 37.152C110.425 37.264 110.588 37.44 110.694 37.68C110.806 37.9147 110.862 38.208 110.862 38.56V41H110.15V38.6C110.15 38.3867 110.121 38.2053 110.062 38.056C110.004 37.9067 109.905 37.792 109.766 37.712C109.633 37.6267 109.454 37.584 109.23 37.584C108.996 37.584 108.782 37.6373 108.59 37.744C108.404 37.8507 108.257 37.9947 108.15 38.176C108.049 38.3573 107.998 38.56 107.998 38.784V41H107.286Z" fill="black"/>
<path d="M22.72 54.072C22.4107 54.072 22.1173 54.048 21.84 54C21.5627 53.952 21.3093 53.88 21.08 53.784C20.8507 53.688 20.6507 53.5707 20.48 53.432L20.744 52.84C20.9253 52.984 21.1173 53.1013 21.32 53.192C21.528 53.2773 21.7467 53.3387 21.976 53.376C22.2107 53.4133 22.4587 53.432 22.72 53.432C23.1627 53.432 23.5013 53.344 23.736 53.168C23.976 52.992 24.096 52.752 24.096 52.448C24.096 52.288 24.056 52.1547 23.976 52.048C23.9013 51.9413 23.7813 51.8533 23.616 51.784C23.456 51.7147 23.248 51.6533 22.992 51.6L22.072 51.424C21.5547 51.3227 21.1813 51.144 20.952 50.888C20.7227 50.632 20.608 50.3093 20.608 49.92C20.608 49.5893 20.6987 49.304 20.88 49.064C21.0667 48.8187 21.3227 48.6293 21.648 48.496C21.9787 48.3573 22.3547 48.288 22.776 48.288C23.0427 48.288 23.2907 48.3147 23.52 48.368C23.7547 48.416 23.968 48.4907 24.16 48.592C24.3573 48.6933 24.5333 48.816 24.688 48.96L24.424 49.544C24.1947 49.32 23.944 49.1627 23.672 49.072C23.4 48.976 23.0987 48.928 22.768 48.928C22.4907 48.928 22.2427 48.968 22.024 49.048C21.8053 49.1227 21.632 49.2347 21.504 49.384C21.3813 49.528 21.32 49.7067 21.32 49.92C21.32 50.1547 21.3947 50.3413 21.544 50.48C21.6933 50.6133 21.9467 50.7173 22.304 50.792L23.216 50.968C23.76 51.0693 24.1627 51.24 24.424 51.48C24.6853 51.72 24.816 52.032 24.816 52.416C24.816 52.736 24.728 53.0213 24.552 53.272C24.3813 53.5227 24.1387 53.72 23.824 53.864C23.5147 54.0027 23.1467 54.072 22.72 54.072ZM25.882 49.096V48.304H26.746V49.096H25.882ZM25.962 54V50.048H26.674V54H25.962ZM27.8628 54V53.544L30.3668 50.416L30.4068 50.64H27.9188V50.048H31.0708V50.504L28.5428 53.656L28.5028 53.408H31.1588V54H27.8628ZM34.0691 54.072C33.6265 54.072 33.2425 53.992 32.9171 53.832C32.5971 53.6667 32.3518 53.432 32.1811 53.128C32.0105 52.8187 31.9251 52.4507 31.9251 52.024C31.9251 51.624 32.0051 51.272 32.1651 50.968C32.3251 50.6587 32.5518 50.416 32.8451 50.24C33.1385 50.064 33.4878 49.976 33.8931 49.976C34.2771 49.976 34.6025 50.0587 34.8691 50.224C35.1411 50.3893 35.3465 50.6213 35.4851 50.92C35.6291 51.2187 35.7011 51.5733 35.7011 51.984V52.216H32.4611V51.72H35.2371L35.0851 51.88C35.0851 51.4427 34.9811 51.1067 34.7731 50.872C34.5705 50.6373 34.2771 50.52 33.8931 50.52C33.6425 50.52 33.4185 50.5787 33.2211 50.696C33.0291 50.808 32.8798 50.968 32.7731 51.176C32.6665 51.384 32.6131 51.6373 32.6131 51.936V52.016C32.6131 52.336 32.6718 52.6053 32.7891 52.824C32.9065 53.0427 33.0745 53.208 33.2931 53.32C33.5118 53.432 33.7731 53.488 34.0771 53.488C34.2958 53.488 34.5171 53.4587 34.7411 53.4C34.9705 53.336 35.1838 53.224 35.3811 53.064L35.6211 53.576C35.4185 53.7467 35.1758 53.872 34.8931 53.952C34.6158 54.032 34.3411 54.072 34.0691 54.072Z" fill="#CE3439"/>
<path d="M63.048 54V52.832H60.416V52.296L63.016 48.36H63.728V52.232H64.512V52.832H63.728V54H63.048ZM63.072 52.232V49.24H63.104L61.04 52.368L60.984 52.232H63.072ZM66.8449 54.072C66.6369 54.072 66.4342 54.048 66.2369 54C66.0449 53.952 65.8609 53.88 65.6849 53.784C65.5142 53.6827 65.3542 53.56 65.2049 53.416L65.4769 52.872C65.6955 53.0907 65.9169 53.2427 66.1409 53.328C66.3649 53.408 66.6022 53.448 66.8529 53.448C67.1142 53.448 67.3435 53.4 67.5409 53.304C67.7435 53.2027 67.9142 53.056 68.0529 52.864C68.1915 52.6667 68.2955 52.424 68.3649 52.136C68.4342 51.848 68.4689 51.5173 68.4689 51.144V50.68H68.4609C68.4182 50.9307 68.3222 51.1493 68.1729 51.336C68.0289 51.5173 67.8502 51.656 67.6369 51.752C67.4235 51.848 67.1889 51.896 66.9329 51.896C66.5969 51.896 66.2982 51.8213 66.0369 51.672C65.7755 51.5227 65.5702 51.3147 65.4209 51.048C65.2769 50.7813 65.2049 50.472 65.2049 50.12C65.2049 49.768 65.2822 49.4533 65.4369 49.176C65.5915 48.8987 65.8049 48.6827 66.0769 48.528C66.3489 48.368 66.6609 48.288 67.0129 48.288C67.4715 48.288 67.8582 48.3973 68.1729 48.616C68.4875 48.8293 68.7249 49.1413 68.8849 49.552C69.0449 49.9627 69.1249 50.464 69.1249 51.056C69.1249 51.696 69.0342 52.2427 68.8529 52.696C68.6715 53.144 68.4102 53.4853 68.0689 53.72C67.7329 53.9547 67.3249 54.072 66.8449 54.072ZM67.0529 51.304C67.2875 51.304 67.4955 51.2533 67.6769 51.152C67.8582 51.0507 67.9995 50.9093 68.1009 50.728C68.2022 50.5467 68.2529 50.3387 68.2529 50.104C68.2529 49.8587 68.2022 49.6453 68.1009 49.464C68.0049 49.2827 67.8662 49.144 67.6849 49.048C67.5035 48.9467 67.2902 48.896 67.0449 48.896C66.8102 48.896 66.6049 48.9467 66.4289 49.048C66.2529 49.1493 66.1142 49.2907 66.0129 49.472C65.9169 49.6533 65.8689 49.864 65.8689 50.104C65.8689 50.3387 65.9195 50.5467 66.0209 50.728C66.1222 50.9093 66.2609 51.0507 66.4369 51.152C66.6129 51.2533 66.8182 51.304 67.0529 51.304ZM71.9938 54.072C71.5618 54.072 71.1964 53.9627 70.8978 53.744C70.5991 53.52 70.3724 53.1947 70.2178 52.768C70.0684 52.336 69.9938 51.8053 69.9938 51.176C69.9938 50.5467 70.0684 50.0187 70.2178 49.592C70.3724 49.1653 70.5991 48.8427 70.8978 48.624C71.1964 48.4 71.5618 48.288 71.9938 48.288C72.4364 48.288 72.8044 48.3973 73.0978 48.616C73.3911 48.8347 73.6124 49.1573 73.7618 49.584C73.9164 50.0107 73.9938 50.5387 73.9938 51.168C73.9938 51.7973 73.9164 52.328 73.7618 52.76C73.6124 53.192 73.3884 53.52 73.0898 53.744C72.7911 53.9627 72.4258 54.072 71.9938 54.072ZM71.9938 53.448C72.4311 53.448 72.7564 53.264 72.9698 52.896C73.1831 52.528 73.2898 51.952 73.2898 51.168C73.2898 50.3893 73.1831 49.8187 72.9698 49.456C72.7618 49.0933 72.4391 48.912 72.0018 48.912C71.5591 48.912 71.2311 49.096 71.0178 49.464C70.8044 49.8267 70.6978 50.3973 70.6978 51.176C70.6978 51.9493 70.8044 52.5227 71.0178 52.896C71.2311 53.264 71.5564 53.448 71.9938 53.448ZM76.817 54L78.905 50.976V51.24L76.929 48.36H77.753L79.353 50.712H79.313L80.913 48.36H81.737L79.745 51.24V50.976L81.841 54H81.009L79.297 51.496H79.353L77.641 54H76.817ZM87.3136 54V52.832H84.6816V52.296L87.2816 48.36H87.9936V52.232H88.7776V52.832H87.9936V54H87.3136ZM87.3376 52.232V49.24H87.3696L85.3056 52.368L85.2496 52.232H87.3376ZM91.4625 54.072C90.8332 54.072 90.3372 53.936 89.9745 53.664C89.6118 53.3867 89.4305 53.0027 89.4305 52.512C89.4305 52.2613 89.4785 52.04 89.5745 51.848C89.6758 51.6507 89.8145 51.4907 89.9905 51.368C90.1718 51.24 90.3798 51.1547 90.6145 51.112V51.12C90.4118 51.072 90.2305 50.984 90.0705 50.856C89.9158 50.728 89.7932 50.5733 89.7025 50.392C89.6118 50.2107 89.5665 50.0107 89.5665 49.792C89.5665 49.3227 89.7372 48.9547 90.0785 48.688C90.4252 48.4213 90.8865 48.288 91.4625 48.288C92.0385 48.288 92.4972 48.4213 92.8385 48.688C93.1852 48.9547 93.3585 49.3227 93.3585 49.792C93.3585 50.0053 93.3132 50.2053 93.2225 50.392C93.1318 50.5733 93.0065 50.728 92.8465 50.856C92.6918 50.984 92.5105 51.072 92.3025 51.12V51.112C92.5318 51.1493 92.7345 51.232 92.9105 51.36C93.0918 51.488 93.2332 51.6507 93.3345 51.848C93.4412 52.04 93.4945 52.2613 93.4945 52.512C93.4945 53.0027 93.3132 53.3867 92.9505 53.664C92.5932 53.936 92.0972 54.072 91.4625 54.072ZM91.4625 53.472C91.9052 53.472 92.2412 53.3867 92.4705 53.216C92.7052 53.0453 92.8225 52.7947 92.8225 52.464C92.8225 52.1333 92.7052 51.88 92.4705 51.704C92.2412 51.528 91.9052 51.44 91.4625 51.44C91.0198 51.44 90.6812 51.528 90.4465 51.704C90.2172 51.88 90.1025 52.1333 90.1025 52.464C90.1025 52.7947 90.2172 53.0453 90.4465 53.216C90.6812 53.3867 91.0198 53.472 91.4625 53.472ZM91.4625 50.84C91.8465 50.84 92.1478 50.7547 92.3665 50.584C92.5852 50.408 92.6945 50.1653 92.6945 49.856C92.6945 49.552 92.5852 49.3147 92.3665 49.144C92.1478 48.968 91.8465 48.88 91.4625 48.88C91.0838 48.88 90.7852 48.968 90.5665 49.144C90.3478 49.3147 90.2385 49.552 90.2385 49.856C90.2385 50.1653 90.3478 50.408 90.5665 50.584C90.7852 50.7547 91.0838 50.84 91.4625 50.84ZM96.2594 54.072C95.8274 54.072 95.462 53.9627 95.1634 53.744C94.8647 53.52 94.638 53.1947 94.4834 52.768C94.334 52.336 94.2594 51.8053 94.2594 51.176C94.2594 50.5467 94.334 50.0187 94.4834 49.592C94.638 49.1653 94.8647 48.8427 95.1634 48.624C95.462 48.4 95.8274 48.288 96.2594 48.288C96.702 48.288 97.07 48.3973 97.3634 48.616C97.6567 48.8347 97.878 49.1573 98.0274 49.584C98.182 50.0107 98.2594 50.5387 98.2594 51.168C98.2594 51.7973 98.182 52.328 98.0274 52.76C97.878 53.192 97.654 53.52 97.3554 53.744C97.0567 53.9627 96.6914 54.072 96.2594 54.072ZM96.2594 53.448C96.6967 53.448 97.022 53.264 97.2354 52.896C97.4487 52.528 97.5554 51.952 97.5554 51.168C97.5554 50.3893 97.4487 49.8187 97.2354 49.456C97.0274 49.0933 96.7047 48.912 96.2674 48.912C95.8247 48.912 95.4967 49.096 95.2834 49.464C95.07 49.8267 94.9634 50.3973 94.9634 51.176C94.9634 51.9493 95.07 52.5227 95.2834 52.896C95.4967 53.264 95.822 53.448 96.2594 53.448ZM101.083 54L103.171 50.976V51.24L101.195 48.36H102.019L103.619 50.712H103.579L105.179 48.36H106.003L104.011 51.24V50.976L106.107 54H105.275L103.563 51.496H103.619L101.907 54H101.083ZM111.579 54V52.832H108.947V52.296L111.547 48.36H112.259V52.232H113.043V52.832H112.259V54H111.579ZM111.603 52.232V49.24H111.635L109.571 52.368L109.515 52.232H111.603ZM115.728 54.072C115.296 54.072 114.931 53.9627 114.632 53.744C114.333 53.52 114.107 53.1947 113.952 52.768C113.803 52.336 113.728 51.8053 113.728 51.176C113.728 50.5467 113.803 50.0187 113.952 49.592C114.107 49.1653 114.333 48.8427 114.632 48.624C114.931 48.4 115.296 48.288 115.728 48.288C116.171 48.288 116.539 48.3973 116.832 48.616C117.125 48.8347 117.347 49.1573 117.496 49.584C117.651 50.0107 117.728 50.5387 117.728 51.168C117.728 51.7973 117.651 52.328 117.496 52.76C117.347 53.192 117.123 53.52 116.824 53.744C116.525 53.9627 116.16 54.072 115.728 54.072ZM115.728 53.448C116.165 53.448 116.491 53.264 116.704 52.896C116.917 52.528 117.024 51.952 117.024 51.168C117.024 50.3893 116.917 49.8187 116.704 49.456C116.496 49.0933 116.173 48.912 115.736 48.912C115.293 48.912 114.965 49.096 114.752 49.464C114.539 49.8267 114.432 50.3973 114.432 51.176C114.432 51.9493 114.539 52.5227 114.752 52.896C114.965 53.264 115.291 53.448 115.728 53.448ZM120.525 54.072C120.093 54.072 119.728 53.9627 119.429 53.744C119.13 53.52 118.904 53.1947 118.749 52.768C118.6 52.336 118.525 51.8053 118.525 51.176C118.525 50.5467 118.6 50.0187 118.749 49.592C118.904 49.1653 119.13 48.8427 119.429 48.624C119.728 48.4 120.093 48.288 120.525 48.288C120.968 48.288 121.336 48.3973 121.629 48.616C121.922 48.8347 122.144 49.1573 122.293 49.584C122.448 50.0107 122.525 50.5387 122.525 51.168C122.525 51.7973 122.448 52.328 122.293 52.76C122.144 53.192 121.92 53.52 121.621 53.744C121.322 53.9627 120.957 54.072 120.525 54.072ZM120.525 53.448C120.962 53.448 121.288 53.264 121.501 52.896C121.714 52.528 121.821 51.952 121.821 51.168C121.821 50.3893 121.714 49.8187 121.501 49.456C121.293 49.0933 120.97 48.912 120.533 48.912C120.09 48.912 119.762 49.096 119.549 49.464C119.336 49.8267 119.229 50.3973 119.229 51.176C119.229 51.9493 119.336 52.5227 119.549 52.896C119.762 53.264 120.088 53.448 120.525 53.448Z" fill="black"/>
<path d="M60.5719 67V66.392H62.1159V61.928L62.4919 61.984L60.8519 63.04L60.5319 62.488L62.2999 61.36H62.8199V66.392H64.2439V67H60.5719ZM67.0968 67.072C66.8515 67.072 66.6141 67.0453 66.3848 66.992C66.1608 66.9387 65.9501 66.8613 65.7528 66.76C65.5555 66.6533 65.3795 66.5253 65.2248 66.376L65.5048 65.816C65.7501 66.04 66.0008 66.2027 66.2568 66.304C66.5181 66.4 66.7981 66.448 67.0968 66.448C67.4915 66.448 67.7981 66.3467 68.0168 66.144C68.2408 65.936 68.3528 65.6453 68.3528 65.272C68.3528 64.904 68.2488 64.6107 68.0408 64.392C67.8328 64.1733 67.5448 64.064 67.1768 64.064C66.9315 64.064 66.7075 64.1147 66.5048 64.216C66.3075 64.312 66.1235 64.4747 65.9528 64.704H65.3928V61.36H68.7688V61.976H66.0408V64.096H66.0088C66.1368 63.904 66.3128 63.7493 66.5368 63.632C66.7608 63.5093 67.0115 63.448 67.2888 63.448C67.6515 63.448 67.9635 63.5253 68.2248 63.68C68.4861 63.8293 68.6861 64.0373 68.8248 64.304C68.9688 64.5707 69.0408 64.8827 69.0408 65.24C69.0408 65.6187 68.9608 65.9467 68.8008 66.224C68.6408 66.496 68.4168 66.7067 68.1288 66.856C67.8408 67 67.4968 67.072 67.0968 67.072ZM71.3177 68.536C70.939 67.96 70.659 67.3733 70.4777 66.776C70.3017 66.1733 70.2137 65.5467 70.2137 64.896C70.2137 64.2453 70.3017 63.6213 70.4777 63.024C70.659 62.4267 70.939 61.8373 71.3177 61.256L71.8297 61.44C71.627 61.8187 71.459 62.2 71.3257 62.584C71.1924 62.968 71.091 63.352 71.0217 63.736C70.9577 64.1147 70.9257 64.5013 70.9257 64.896C70.9257 65.2853 70.9577 65.672 71.0217 66.056C71.091 66.44 71.1924 66.8213 71.3257 67.2C71.459 67.584 71.627 67.968 71.8297 68.352L71.3177 68.536ZM72.9492 67V61.36H73.6612V63.904H73.6932L76.3732 61.36H77.2772L74.1652 64.312L74.2132 63.92L77.4692 67H76.5172L73.6932 64.352H73.6612V67H72.9492ZM79.799 68.512C79.4843 68.512 79.1723 68.464 78.863 68.368C78.5537 68.2773 78.2897 68.152 78.071 67.992L78.295 67.44C78.4443 67.536 78.6017 67.6187 78.767 67.688C78.9323 67.7627 79.1003 67.816 79.271 67.848C79.447 67.8853 79.6203 67.904 79.791 67.904C80.2017 67.904 80.5217 67.8 80.751 67.592C80.9857 67.384 81.103 67.088 81.103 66.704V65.976H81.087C80.991 66.248 80.8177 66.4693 80.567 66.64C80.3163 66.8053 80.0257 66.888 79.695 66.888C79.3217 66.888 78.9963 66.808 78.719 66.648C78.4417 66.4827 78.2257 66.2533 78.071 65.96C77.9217 65.6667 77.847 65.3227 77.847 64.928C77.847 64.5387 77.9217 64.1973 78.071 63.904C78.2257 63.6107 78.4417 63.384 78.719 63.224C78.9963 63.0587 79.3217 62.976 79.695 62.976C80.0257 62.976 80.3163 63.0613 80.567 63.232C80.823 63.4027 80.999 63.6293 81.095 63.912H81.103V63.048H81.767V66.64C81.767 67.024 81.687 67.3547 81.527 67.632C81.3723 67.9147 81.1483 68.1307 80.855 68.28C80.5617 68.4347 80.2097 68.512 79.799 68.512ZM79.815 66.304C80.2043 66.304 80.511 66.1787 80.735 65.928C80.9643 65.6773 81.079 65.344 81.079 64.928C81.079 64.512 80.9643 64.1813 80.735 63.936C80.511 63.6853 80.2043 63.56 79.815 63.56C79.431 63.56 79.1243 63.6853 78.895 63.936C78.671 64.1813 78.559 64.512 78.559 64.928C78.559 65.344 78.671 65.6773 78.895 65.928C79.1243 66.1787 79.431 66.304 79.815 66.304ZM84.6446 67.072C84.4259 67.072 84.2099 67.0507 83.9966 67.008C83.7886 66.9707 83.5939 66.9173 83.4126 66.848C83.2366 66.7733 83.0846 66.6827 82.9566 66.576L83.1886 66.072C83.3219 66.1733 83.4686 66.256 83.6286 66.32C83.7939 66.384 83.9619 66.432 84.1326 66.464C84.3086 66.4907 84.4766 66.504 84.6366 66.504C84.9672 66.504 85.2206 66.4533 85.3966 66.352C85.5779 66.2507 85.6686 66.1093 85.6686 65.928C85.6686 65.7733 85.6152 65.656 85.5086 65.576C85.4072 65.4907 85.2366 65.4267 84.9966 65.384L84.1726 65.24C83.8046 65.1707 83.5272 65.0453 83.3406 64.864C83.1592 64.6827 83.0686 64.4453 83.0686 64.152C83.0686 63.9173 83.1326 63.712 83.2606 63.536C83.3939 63.36 83.5832 63.224 83.8286 63.128C84.0739 63.0267 84.3672 62.976 84.7086 62.976C84.8952 62.976 85.0846 62.9947 85.2766 63.032C85.4739 63.0693 85.6552 63.1253 85.8206 63.2C85.9912 63.2693 86.1299 63.3573 86.2366 63.464L85.9966 63.968C85.8899 63.8667 85.7619 63.7867 85.6126 63.728C85.4686 63.664 85.3166 63.6187 85.1566 63.592C85.0019 63.56 84.8499 63.544 84.7006 63.544C84.3912 63.544 84.1512 63.5973 83.9806 63.704C83.8099 63.8053 83.7246 63.9493 83.7246 64.136C83.7246 64.2853 83.7726 64.4027 83.8686 64.488C83.9699 64.5733 84.1326 64.6373 84.3566 64.68L85.1566 64.824C85.5512 64.8987 85.8446 65.024 86.0366 65.2C86.2286 65.3707 86.3246 65.608 86.3246 65.912C86.3246 66.1467 86.2552 66.352 86.1166 66.528C85.9779 66.6987 85.7832 66.832 85.5326 66.928C85.2819 67.024 84.9859 67.072 84.6446 67.072ZM87.5971 68.536L87.0771 68.352C87.2851 67.9627 87.4557 67.576 87.5891 67.192C87.7224 66.8133 87.8211 66.4347 87.8851 66.056C87.9491 65.672 87.9811 65.2853 87.9811 64.896C87.9811 64.5067 87.9491 64.1227 87.8851 63.744C87.8211 63.36 87.7224 62.976 87.5891 62.592C87.4557 62.208 87.2851 61.824 87.0771 61.44L87.5971 61.256C87.9704 61.832 88.2451 62.4213 88.4211 63.024C88.6024 63.6213 88.6931 64.2453 88.6931 64.896C88.6931 65.5413 88.6024 66.1653 88.4211 66.768C88.2451 67.3653 87.9704 67.9547 87.5971 68.536Z" fill="black"/>
<path d="M22.168 67L20.36 61.36H21.112L22.584 66.144H22.512L24.152 61.36H24.736L26.36 66.144H26.304L27.792 61.36H28.512L26.696 67H26.016L24.424 62.344H24.456L22.832 67H22.168ZM31.0223 67.072C30.5796 67.072 30.1956 66.992 29.8703 66.832C29.5503 66.6667 29.3049 66.432 29.1343 66.128C28.9636 65.8187 28.8783 65.4507 28.8783 65.024C28.8783 64.624 28.9583 64.272 29.1183 63.968C29.2783 63.6587 29.5049 63.416 29.7983 63.24C30.0916 63.064 30.4409 62.976 30.8463 62.976C31.2303 62.976 31.5556 63.0587 31.8223 63.224C32.0943 63.3893 32.2996 63.6213 32.4383 63.92C32.5823 64.2187 32.6543 64.5733 32.6543 64.984V65.216H29.4143V64.72H32.1903L32.0383 64.88C32.0383 64.4427 31.9343 64.1067 31.7263 63.872C31.5236 63.6373 31.2303 63.52 30.8463 63.52C30.5956 63.52 30.3716 63.5787 30.1743 63.696C29.9823 63.808 29.8329 63.968 29.7263 64.176C29.6196 64.384 29.5663 64.6373 29.5663 64.936V65.016C29.5663 65.336 29.6249 65.6053 29.7423 65.824C29.8596 66.0427 30.0276 66.208 30.2463 66.32C30.4649 66.432 30.7263 66.488 31.0303 66.488C31.2489 66.488 31.4703 66.4587 31.6943 66.4C31.9236 66.336 32.1369 66.224 32.3343 66.064L32.5743 66.576C32.3716 66.7467 32.1289 66.872 31.8463 66.952C31.5689 67.032 31.2943 67.072 31.0223 67.072ZM33.7492 62.096V61.304H34.6132V62.096H33.7492ZM33.8292 67V63.048H34.5412V67H33.8292ZM37.674 68.512C37.3593 68.512 37.0473 68.464 36.738 68.368C36.4287 68.2773 36.1647 68.152 35.946 67.992L36.17 67.44C36.3193 67.536 36.4767 67.6187 36.642 67.688C36.8073 67.7627 36.9753 67.816 37.146 67.848C37.322 67.8853 37.4953 67.904 37.666 67.904C38.0767 67.904 38.3967 67.8 38.626 67.592C38.8607 67.384 38.978 67.088 38.978 66.704V65.976H38.962C38.866 66.248 38.6927 66.4693 38.442 66.64C38.1913 66.8053 37.9007 66.888 37.57 66.888C37.1967 66.888 36.8713 66.808 36.594 66.648C36.3167 66.4827 36.1007 66.2533 35.946 65.96C35.7967 65.6667 35.722 65.3227 35.722 64.928C35.722 64.5387 35.7967 64.1973 35.946 63.904C36.1007 63.6107 36.3167 63.384 36.594 63.224C36.8713 63.0587 37.1967 62.976 37.57 62.976C37.9007 62.976 38.1913 63.0613 38.442 63.232C38.698 63.4027 38.874 63.6293 38.97 63.912H38.978V63.048H39.642V66.64C39.642 67.024 39.562 67.3547 39.402 67.632C39.2473 67.9147 39.0233 68.1307 38.73 68.28C38.4367 68.4347 38.0847 68.512 37.674 68.512ZM37.69 66.304C38.0793 66.304 38.386 66.1787 38.61 65.928C38.8393 65.6773 38.954 65.344 38.954 64.928C38.954 64.512 38.8393 64.1813 38.61 63.936C38.386 63.6853 38.0793 63.56 37.69 63.56C37.306 63.56 36.9993 63.6853 36.77 63.936C36.546 64.1813 36.434 64.512 36.434 64.928C36.434 65.344 36.546 65.6773 36.77 65.928C36.9993 66.1787 37.306 66.304 37.69 66.304ZM41.0636 67V61.36H41.7516V63.888C41.8689 63.6053 42.0529 63.384 42.3036 63.224C42.5596 63.0587 42.8476 62.976 43.1676 62.976C43.4929 62.976 43.7649 63.0347 43.9836 63.152C44.2022 63.264 44.3649 63.44 44.4716 63.68C44.5836 63.9147 44.6396 64.208 44.6396 64.56V67H43.9276V64.6C43.9276 64.3867 43.8956 64.2053 43.8316 64.056C43.7729 63.9067 43.6769 63.792 43.5436 63.712C43.4102 63.6267 43.2316 63.584 43.0076 63.584C42.7729 63.584 42.5622 63.6373 42.3756 63.744C42.1889 63.8507 42.0422 63.9947 41.9356 64.176C41.8289 64.3573 41.7756 64.56 41.7756 64.784V67H41.0636ZM47.7119 67.072C47.2373 67.072 46.8773 66.9467 46.6319 66.696C46.3919 66.4453 46.2719 66.088 46.2719 65.624V63.632H45.4719V63.048H46.2959V61.872H46.9839V63.048H48.3999V63.632H46.9839V65.56C46.9839 65.864 47.0506 66.0907 47.1839 66.24C47.3226 66.384 47.5333 66.456 47.8159 66.456C47.9279 66.456 48.0346 66.4453 48.1359 66.424C48.2426 66.4027 48.3439 66.3707 48.4399 66.328L48.5519 66.888C48.4453 66.9467 48.3146 66.992 48.1599 67.024C48.0106 67.056 47.8613 67.072 47.7119 67.072Z" fill="#CE3439"/>
<defs>
<filter id="filter0_d_271_433" x="0.0999999" y="24" width="142.8" height="57.9" filterUnits="userSpaceOnUse" color-interpolation-filters="sRGB">
<feFlood flood-opacity="0" result="BackgroundImageFix"/>
<feColorMatrix in="SourceAlpha" type="matrix" values="0 0 0 0 0 0 0 0 0 0 0 0 0 0 0 0 0 0 127 0" result="hardAlpha"/>
<feOffset dy="4"/>
<feGaussianBlur stdDeviation="1.95"/>
<feComposite in2="hardAlpha" operator="out"/>
<feColorMatrix type="matrix" values="0 0 0 0 0 0 0 0 0 0 0 0 0 0 0 0 0 0 0.2 0"/>
<feBlend mode="normal" in2="BackgroundImageFix" result="effect1_dropShadow_271_433"/>
<feBlend mode="normal" in="SourceGraphic" in2="effect1_dropShadow_271_433" result="shape"/>
</filter>
<clipPath id="clip0_271_433">
<rect width="21.6818" height="21.7032" fill="white" transform="translate(55.457 2.41113)"/>
</clipPath>
</defs>
</svg>
