<svg width="90" height="82" viewBox="0 0 90 82" fill="none" xmlns="http://www.w3.org/2000/svg">
<g filter="url(#filter0_d_271_322)">
<rect x="4" y="24" width="82" height="50" rx="2" fill="white"/>
<rect x="4.25" y="24.25" width="81.5" height="49.5" rx="1.75" stroke="white" stroke-width="0.5"/>
</g>
<rect x="29.2715" width="30.0847" height="30.228" rx="3" fill="#CB3335"/>
<g clip-path="url(#clip0_271_322)">
<path fill-rule="evenodd" clip-rule="evenodd" d="M35.6592 10.6717C35.7152 10.6925 35.7807 10.7391 35.805 10.7755C35.8412 10.8294 35.8491 11.2999 35.8488 15.8174L35.7682 15.9001C35.7119 15.9576 35.6517 15.9827 35.5707 15.9827C35.4901 15.9827 35.4286 15.9573 35.2894 15.8174V13.3378C35.2894 11.7508 35.3012 10.8343 35.3223 10.792C35.3404 10.7557 35.4009 10.7054 35.4565 10.6799C35.5359 10.6442 35.5799 10.6426 35.6592 10.6717ZM51.9473 10.6717C52.0033 10.6925 52.0687 10.7391 52.0931 10.7755C52.1293 10.8294 52.1372 11.2999 52.1369 15.8174L52.0562 15.9001C52 15.9576 51.9397 15.9827 51.8588 15.9827C51.7782 15.9827 51.7167 15.9573 51.5775 15.8174V13.3378C51.5775 11.7508 51.5893 10.8343 51.6104 10.792C51.6285 10.7557 51.689 10.7054 51.7446 10.6799C51.8239 10.6442 51.868 10.6426 51.9473 10.6717ZM51.9779 16.8589L52.1369 17.0407V18.8095C52.1369 19.9227 52.1247 20.6028 52.1039 20.6445C52.0858 20.6808 52.0194 20.7331 51.9559 20.7602C51.8545 20.8038 50.8644 20.8098 43.7131 20.8098C36.5618 20.8098 35.5717 20.8038 35.4704 20.7602C35.4069 20.7331 35.3404 20.6808 35.3223 20.6445C35.3016 20.6028 35.2894 19.9247 35.2891 18.8178C35.2891 17.253 35.2947 17.0487 35.3417 16.9805C35.371 16.9382 35.4266 16.8909 35.4654 16.8751C35.5049 16.8589 39.1699 16.849 51.9779 16.8589ZM35.8652 20.2312H51.561L51.5663 17.4044H50.7219C50.7203 17.9555 50.7048 18.103 50.6798 18.1377C50.6578 18.1685 50.5952 18.2105 50.5409 18.2313C50.4613 18.262 50.4215 18.2591 50.3353 18.2171C50.2652 18.1827 50.2168 18.1278 50.1948 18.0574C50.1764 17.9982 50.1616 17.8273 50.1619 17.6772L50.1625 17.4044H49.0438C49.0438 18.6155 49.0421 18.6293 48.9645 18.7186C48.9049 18.7867 48.8549 18.8095 48.7641 18.8095C48.6732 18.8095 48.6232 18.7867 48.5637 18.7186C48.486 18.6293 48.4844 18.6155 48.4844 18.016V17.4044H47.3656C47.3501 18.0587 47.3409 18.1053 47.2758 18.1704C47.2281 18.2184 47.1609 18.2448 47.0839 18.2458C46.9941 18.2471 46.9454 18.225 46.8855 18.1566C46.8131 18.0736 46.8062 18.0372 46.8062 17.735V17.4044H45.6874C45.6874 18.3926 45.6756 18.5566 45.6381 18.6442C45.6085 18.714 45.5528 18.7738 45.4982 18.795C45.4485 18.8142 45.3745 18.8214 45.3337 18.8115C45.2929 18.8013 45.2297 18.7596 45.1932 18.7186C45.1313 18.6495 45.1267 18.6002 45.1274 18.0243L45.128 17.4044H44.0093C44.0089 17.8015 43.9941 17.9727 43.976 18.0408C43.9517 18.1337 43.9145 18.1794 43.8283 18.2227C43.7187 18.2779 43.7075 18.2779 43.598 18.2227C43.5117 18.1794 43.4746 18.1337 43.4502 18.0408C43.4321 17.9727 43.4173 17.8015 43.4173 17.6606L43.417 17.4044H42.2982C42.2966 18.4594 42.284 18.6598 42.2561 18.6968C42.234 18.7256 42.1827 18.7666 42.1419 18.7877C42.1011 18.8089 42.0234 18.8188 41.9691 18.8095C41.9033 18.7985 41.8485 18.7572 41.8046 18.6855C41.7457 18.5887 41.7391 18.5196 41.7388 17.9912V17.4044H40.62C40.62 18.0372 40.6131 18.0736 40.5407 18.1566C40.4818 18.2237 40.4305 18.2475 40.344 18.2475C40.2661 18.2475 40.2021 18.2224 40.1521 18.1721C40.085 18.105 40.0761 18.061 40.0689 17.7506L40.0606 17.4044H38.9419C38.9257 18.6307 38.9221 18.6624 38.852 18.7325C38.8043 18.7804 38.7372 18.8069 38.6602 18.8079C38.5704 18.8092 38.5217 18.787 38.4618 18.7186C38.3841 18.6293 38.3825 18.6155 38.3825 18.016V17.4044H37.2637C37.2647 17.8273 37.2499 17.9982 37.2315 18.0574C37.2094 18.1278 37.161 18.1827 37.091 18.2171C37.0047 18.2591 36.9649 18.262 36.8853 18.2313C36.831 18.2105 36.7685 18.1685 36.7464 18.1377C36.7214 18.103 36.706 17.9555 36.7053 17.7433L36.7043 17.4044H35.8481L35.8652 20.2312ZM37.9751 11.4863C38.0182 11.4863 38.0942 11.5224 38.2344 11.6457L38.2509 13.1725H49.1754L49.1918 11.6457L49.2823 11.566C49.332 11.5224 49.406 11.4857 49.4469 11.485C49.4877 11.484 49.5535 11.5101 49.5929 11.5429C49.6328 11.5753 49.9625 11.9889 50.3257 12.4616C50.6894 12.9344 50.9954 13.3586 51.0062 13.4039C51.0177 13.4515 51.0046 13.5286 50.9753 13.5858C50.9473 13.6403 50.6775 14.005 50.3761 14.3958C50.0744 14.7869 49.7697 15.1774 49.6989 15.2636C49.5976 15.3873 49.5492 15.4207 49.4715 15.4207C49.4172 15.4207 49.3432 15.4058 49.307 15.3876C49.2708 15.3694 49.2261 15.3063 49.2076 15.2471C49.1892 15.1879 49.1744 14.8236 49.1754 13.7345H38.2509L38.2515 14.4371C38.2515 14.8236 38.2367 15.1879 38.2186 15.2471C38.2002 15.3063 38.1554 15.3694 38.1192 15.3876C38.083 15.4058 38.009 15.4207 37.9547 15.4207C37.8771 15.4207 37.8287 15.3873 37.7273 15.2636C37.6563 15.1774 37.3516 14.7869 37.0501 14.3958C36.7484 14.005 36.4789 13.6403 36.4509 13.5858C36.4217 13.5286 36.4085 13.4515 36.42 13.4039C36.4309 13.3586 36.7369 12.9344 37.1002 12.4616C37.4634 11.9889 37.7915 11.5759 37.829 11.5442C37.8662 11.5124 37.932 11.4863 37.9751 11.4863ZM37.0659 13.5196C37.0896 13.556 37.2361 13.7514 37.3917 13.9541C37.5477 14.1567 37.6862 14.3168 37.6997 14.3095C37.7132 14.3025 37.7244 13.9174 37.7244 13.4535C37.7244 12.9873 37.7112 12.6104 37.6951 12.6104C37.6793 12.6104 37.5217 12.8002 37.3446 13.032C37.0544 13.4132 37.0274 13.4598 37.0659 13.5196ZM49.7265 14.3095C49.74 14.3168 49.8786 14.1567 50.0342 13.9541C50.1898 13.7514 50.3366 13.556 50.36 13.5196C50.3985 13.4598 50.3715 13.4132 50.077 13.0306C49.8977 12.7979 49.74 12.6081 49.7265 12.6091C49.7131 12.6098 49.7019 12.99 49.7019 13.4535C49.7019 13.9174 49.7131 14.3025 49.7265 14.3095Z" fill="white"/>
</g>
<path d="M25.332 46V40.36H27.308C27.9107 40.36 28.4227 40.4693 28.844 40.688C29.2653 40.9067 29.5853 41.2267 29.804 41.648C30.028 42.064 30.14 42.5733 30.14 43.176C30.14 43.7787 30.028 44.2907 29.804 44.712C29.5853 45.1333 29.2653 45.4533 28.844 45.672C28.4227 45.8907 27.9107 46 27.308 46H25.332ZM26.044 45.376H27.268C27.9667 45.376 28.4947 45.1947 28.852 44.832C29.2147 44.4693 29.396 43.9173 29.396 43.176C29.396 42.4347 29.2147 41.8853 28.852 41.528C28.4947 41.1653 27.9667 40.984 27.268 40.984H26.044V45.376ZM31.3742 41.096V40.304H32.2382V41.096H31.3742ZM31.4542 46V42.048H32.1662V46H31.4542ZM33.603 46V42.048H34.259V42.912C34.3283 42.736 34.4243 42.5787 34.547 42.44C34.675 42.296 34.827 42.184 35.003 42.104C35.1843 42.0187 35.3817 41.976 35.595 41.976C35.9417 41.976 36.227 42.0613 36.451 42.232C36.675 42.4027 36.8137 42.6267 36.867 42.904H36.859C36.9657 42.6427 37.1337 42.424 37.363 42.248C37.5977 42.0667 37.891 41.976 38.243 41.976C38.5417 41.976 38.795 42.0347 39.003 42.152C39.211 42.264 39.3683 42.4373 39.475 42.672C39.5817 42.9067 39.635 43.2027 39.635 43.56V46H38.931V43.608C38.931 43.2667 38.8697 43.0107 38.747 42.84C38.6243 42.6693 38.4057 42.584 38.091 42.584C37.8563 42.584 37.6537 42.6373 37.483 42.744C37.3177 42.8453 37.1897 42.9893 37.099 43.176C37.0137 43.3573 36.971 43.5627 36.971 43.792V46H36.267V43.608C36.267 43.272 36.1977 43.0187 36.059 42.848C35.9203 42.672 35.7097 42.584 35.427 42.584C35.1977 42.584 34.9977 42.6427 34.827 42.76C34.6617 42.872 34.5337 43.0187 34.443 43.2C34.3523 43.3813 34.307 43.5733 34.307 43.776V46H33.603ZM42.9676 46.072C42.5249 46.072 42.1409 45.992 41.8156 45.832C41.4956 45.6667 41.2502 45.432 41.0796 45.128C40.9089 44.8187 40.8236 44.4507 40.8236 44.024C40.8236 43.624 40.9036 43.272 41.0636 42.968C41.2236 42.6587 41.4502 42.416 41.7436 42.24C42.0369 42.064 42.3862 41.976 42.7916 41.976C43.1756 41.976 43.5009 42.0587 43.7676 42.224C44.0396 42.3893 44.2449 42.6213 44.3836 42.92C44.5276 43.2187 44.5996 43.5733 44.5996 43.984V44.216H41.3596V43.72H44.1356L43.9836 43.88C43.9836 43.4427 43.8796 43.1067 43.6716 42.872C43.4689 42.6373 43.1756 42.52 42.7916 42.52C42.5409 42.52 42.3169 42.5787 42.1196 42.696C41.9276 42.808 41.7782 42.968 41.6716 43.176C41.5649 43.384 41.5116 43.6373 41.5116 43.936V44.016C41.5116 44.336 41.5702 44.6053 41.6876 44.824C41.8049 45.0427 41.9729 45.208 42.1916 45.32C42.4102 45.432 42.6716 45.488 42.9756 45.488C43.1942 45.488 43.4156 45.4587 43.6396 45.4C43.8689 45.336 44.0822 45.224 44.2796 45.064L44.5196 45.576C44.3169 45.7467 44.0742 45.872 43.7916 45.952C43.5142 46.032 43.2396 46.072 42.9676 46.072ZM45.7745 46V42.048H46.4385V42.904C46.5665 42.6107 46.7585 42.384 47.0145 42.224C47.2705 42.0587 47.5585 41.976 47.8785 41.976C48.2038 41.976 48.4758 42.0347 48.6945 42.152C48.9132 42.264 49.0758 42.44 49.1825 42.68C49.2945 42.9147 49.3505 43.208 49.3505 43.56V46H48.6385V43.6C48.6385 43.3867 48.6092 43.2053 48.5505 43.056C48.4918 42.9067 48.3932 42.792 48.2545 42.712C48.1212 42.6267 47.9425 42.584 47.7185 42.584C47.4838 42.584 47.2705 42.6373 47.0785 42.744C46.8918 42.8507 46.7452 42.9947 46.6385 43.176C46.5372 43.3573 46.4865 43.56 46.4865 43.784V46H45.7745ZM52.2149 46.072C51.9962 46.072 51.7802 46.0507 51.5669 46.008C51.3589 45.9707 51.1642 45.9173 50.9829 45.848C50.8069 45.7733 50.6549 45.6827 50.5269 45.576L50.7589 45.072C50.8922 45.1733 51.0389 45.256 51.1989 45.32C51.3642 45.384 51.5322 45.432 51.7029 45.464C51.8789 45.4907 52.0469 45.504 52.2069 45.504C52.5375 45.504 52.7909 45.4533 52.9669 45.352C53.1482 45.2507 53.2389 45.1093 53.2389 44.928C53.2389 44.7733 53.1855 44.656 53.0789 44.576C52.9775 44.4907 52.8069 44.4267 52.5669 44.384L51.7429 44.24C51.3749 44.1707 51.0975 44.0453 50.9109 43.864C50.7295 43.6827 50.6389 43.4453 50.6389 43.152C50.6389 42.9173 50.7029 42.712 50.8309 42.536C50.9642 42.36 51.1535 42.224 51.3989 42.128C51.6442 42.0267 51.9375 41.976 52.2789 41.976C52.4655 41.976 52.6549 41.9947 52.8469 42.032C53.0442 42.0693 53.2255 42.1253 53.3909 42.2C53.5615 42.2693 53.7002 42.3573 53.8069 42.464L53.5669 42.968C53.4602 42.8667 53.3322 42.7867 53.1829 42.728C53.0389 42.664 52.8869 42.6187 52.7269 42.592C52.5722 42.56 52.4202 42.544 52.2709 42.544C51.9615 42.544 51.7215 42.5973 51.5509 42.704C51.3802 42.8053 51.2949 42.9493 51.2949 43.136C51.2949 43.2853 51.3429 43.4027 51.4389 43.488C51.5402 43.5733 51.7029 43.6373 51.9269 43.68L52.7269 43.824C53.1215 43.8987 53.4149 44.024 53.6069 44.2C53.7989 44.3707 53.8949 44.608 53.8949 44.912C53.8949 45.1467 53.8255 45.352 53.6869 45.528C53.5482 45.6987 53.3535 45.832 53.1029 45.928C52.8522 46.024 52.5562 46.072 52.2149 46.072ZM54.9914 41.096V40.304H55.8554V41.096H54.9914ZM55.0714 46V42.048H55.7834V46H55.0714ZM58.9242 46.072C58.5242 46.072 58.1775 45.9867 57.8842 45.816C57.5909 45.6453 57.3642 45.408 57.2042 45.104C57.0442 44.7947 56.9642 44.432 56.9642 44.016C56.9642 43.6053 57.0442 43.248 57.2042 42.944C57.3642 42.6347 57.5909 42.3973 57.8842 42.232C58.1775 42.0613 58.5242 41.976 58.9242 41.976C59.3242 41.976 59.6682 42.0613 59.9562 42.232C60.2495 42.3973 60.4762 42.6347 60.6362 42.944C60.7962 43.248 60.8762 43.6053 60.8762 44.016C60.8762 44.432 60.7962 44.7947 60.6362 45.104C60.4815 45.408 60.2575 45.6453 59.9642 45.816C59.6709 45.9867 59.3242 46.072 58.9242 46.072ZM58.9162 45.472C59.3055 45.472 59.6122 45.3413 59.8362 45.08C60.0602 44.8187 60.1722 44.464 60.1722 44.016C60.1722 43.568 60.0602 43.216 59.8362 42.96C59.6175 42.704 59.3135 42.576 58.9242 42.576C58.5349 42.576 58.2282 42.704 58.0042 42.96C57.7802 43.216 57.6682 43.568 57.6682 44.016C57.6682 44.464 57.7802 44.8187 58.0042 45.08C58.2335 45.3413 58.5375 45.472 58.9162 45.472ZM62.0714 46V42.048H62.7354V42.904C62.8634 42.6107 63.0554 42.384 63.3114 42.224C63.5674 42.0587 63.8554 41.976 64.1754 41.976C64.5007 41.976 64.7727 42.0347 64.9914 42.152C65.21 42.264 65.3727 42.44 65.4794 42.68C65.5914 42.9147 65.6474 43.208 65.6474 43.56V46H64.9354V43.6C64.9354 43.3867 64.906 43.2053 64.8474 43.056C64.7887 42.9067 64.69 42.792 64.5514 42.712C64.418 42.6267 64.2394 42.584 64.0154 42.584C63.7807 42.584 63.5674 42.6373 63.3754 42.744C63.1887 42.8507 63.042 42.9947 62.9354 43.176C62.834 43.3573 62.7834 43.56 62.7834 43.784V46H62.0714Z" fill="#CE3439"/>
<path d="M28.2398 59L30.9998 53.648L31.0318 53.992H27.8558V53.36H31.6238V53.896L29.0158 59H28.2398ZM34.7326 59.072C34.2793 59.072 33.8953 58.9627 33.5806 58.744C33.266 58.5253 33.026 58.2107 32.8606 57.8C32.6953 57.384 32.6126 56.8853 32.6126 56.304C32.6126 55.6533 32.7033 55.1067 32.8846 54.664C33.066 54.216 33.3273 53.8747 33.6686 53.64C34.01 53.4053 34.4206 53.288 34.9006 53.288C35.114 53.288 35.3166 53.3147 35.5086 53.368C35.7006 53.416 35.882 53.4907 36.0526 53.592C36.2233 53.6933 36.3833 53.8187 36.5326 53.968L36.2686 54.52C36.0606 54.3013 35.842 54.1467 35.6126 54.056C35.3833 53.96 35.146 53.912 34.9006 53.912C34.6393 53.912 34.4073 53.9627 34.2046 54.064C34.002 54.16 33.8313 54.3067 33.6926 54.504C33.554 54.696 33.4473 54.936 33.3726 55.224C33.3033 55.5067 33.2686 55.8373 33.2686 56.216V56.68H33.2766C33.3246 56.424 33.4206 56.2053 33.5646 56.024C33.7086 55.8373 33.8873 55.696 34.1006 55.6C34.314 55.4987 34.5486 55.448 34.8046 55.448C35.146 55.448 35.4446 55.5253 35.7006 55.68C35.962 55.8293 36.1646 56.04 36.3086 56.312C36.458 56.5787 36.5326 56.888 36.5326 57.24C36.5326 57.592 36.4553 57.9067 36.3006 58.184C36.1513 58.4613 35.9406 58.68 35.6686 58.84C35.3966 58.9947 35.0846 59.072 34.7326 59.072ZM34.6926 58.464C34.9273 58.464 35.1326 58.4133 35.3086 58.312C35.4846 58.2107 35.6206 58.0693 35.7166 57.888C35.818 57.7067 35.8686 57.496 35.8686 57.256C35.8686 57.016 35.818 56.808 35.7166 56.632C35.6206 56.4507 35.4846 56.3093 35.3086 56.208C35.1326 56.1067 34.9246 56.056 34.6846 56.056C34.45 56.056 34.242 56.1067 34.0606 56.208C33.8846 56.3093 33.7433 56.4507 33.6366 56.632C33.5353 56.808 33.4846 57.016 33.4846 57.256C33.4846 57.496 33.5353 57.7067 33.6366 57.888C33.738 58.0693 33.8793 58.2107 34.0606 58.312C34.242 58.4133 34.4526 58.464 34.6926 58.464ZM38.2575 56.312L37.7855 56.032L38.4895 54.968L38.5055 54.992L37.2175 55.072V54.52L38.5055 54.6L38.4815 54.616L37.7855 53.56L38.2655 53.28L38.8335 54.464H38.8255L39.3775 53.28L39.8575 53.56L39.1535 54.616L39.1295 54.6L40.4255 54.52V55.072L39.1375 54.992L39.1615 54.968L39.8575 56.032L39.3855 56.312L38.8255 55.136H38.8335L38.2575 56.312ZM43.2951 59.072C42.8418 59.072 42.4578 58.9627 42.1431 58.744C41.8285 58.5253 41.5885 58.2107 41.4231 57.8C41.2578 57.384 41.1751 56.8853 41.1751 56.304C41.1751 55.6533 41.2658 55.1067 41.4471 54.664C41.6285 54.216 41.8898 53.8747 42.2311 53.64C42.5725 53.4053 42.9831 53.288 43.4631 53.288C43.6765 53.288 43.8791 53.3147 44.0711 53.368C44.2631 53.416 44.4445 53.4907 44.6151 53.592C44.7858 53.6933 44.9458 53.8187 45.0951 53.968L44.8311 54.52C44.6231 54.3013 44.4045 54.1467 44.1751 54.056C43.9458 53.96 43.7085 53.912 43.4631 53.912C43.2018 53.912 42.9698 53.9627 42.7671 54.064C42.5645 54.16 42.3938 54.3067 42.2551 54.504C42.1165 54.696 42.0098 54.936 41.9351 55.224C41.8658 55.5067 41.8311 55.8373 41.8311 56.216V56.68H41.8391C41.8871 56.424 41.9831 56.2053 42.1271 56.024C42.2711 55.8373 42.4498 55.696 42.6631 55.6C42.8765 55.4987 43.1111 55.448 43.3671 55.448C43.7085 55.448 44.0071 55.5253 44.2631 55.68C44.5245 55.8293 44.7271 56.04 44.8711 56.312C45.0205 56.5787 45.0951 56.888 45.0951 57.24C45.0951 57.592 45.0178 57.9067 44.8631 58.184C44.7138 58.4613 44.5031 58.68 44.2311 58.84C43.9591 58.9947 43.6471 59.072 43.2951 59.072ZM43.2551 58.464C43.4898 58.464 43.6951 58.4133 43.8711 58.312C44.0471 58.2107 44.1831 58.0693 44.2791 57.888C44.3805 57.7067 44.4311 57.496 44.4311 57.256C44.4311 57.016 44.3805 56.808 44.2791 56.632C44.1831 56.4507 44.0471 56.3093 43.8711 56.208C43.6951 56.1067 43.4871 56.056 43.2471 56.056C43.0125 56.056 42.8045 56.1067 42.6231 56.208C42.4471 56.3093 42.3058 56.4507 42.1991 56.632C42.0978 56.808 42.0471 57.016 42.0471 57.256C42.0471 57.496 42.0978 57.7067 42.1991 57.888C42.3005 58.0693 42.4418 58.2107 42.6231 58.312C42.8045 58.4133 43.0151 58.464 43.2551 58.464ZM46.156 59V58.472L48.14 56.392C48.332 56.1893 48.4813 56.0053 48.588 55.84C48.6947 55.6747 48.772 55.5147 48.82 55.36C48.868 55.2053 48.892 55.048 48.892 54.888C48.892 54.5733 48.7907 54.3333 48.588 54.168C48.3907 53.9973 48.116 53.912 47.764 53.912C47.4973 53.912 47.2333 53.9653 46.972 54.072C46.716 54.1733 46.4707 54.336 46.236 54.56L45.964 54C46.1987 53.776 46.4787 53.6027 46.804 53.48C47.1293 53.352 47.4653 53.288 47.812 53.288C48.18 53.288 48.4973 53.352 48.764 53.48C49.0307 53.6027 49.2333 53.7813 49.372 54.016C49.516 54.2453 49.588 54.5227 49.588 54.848C49.588 55.0133 49.5693 55.176 49.532 55.336C49.4947 55.4907 49.436 55.6453 49.356 55.8C49.2813 55.9547 49.1827 56.1147 49.06 56.28C48.9373 56.4453 48.788 56.6187 48.612 56.8L47.06 58.416V58.384H49.82V59H46.156ZM51.6169 56.312L51.1449 56.032L51.8489 54.968L51.8649 54.992L50.5769 55.072V54.52L51.8649 54.6L51.8409 54.616L51.1449 53.56L51.6249 53.28L52.1929 54.464H52.1849L52.7369 53.28L53.2169 53.56L52.5129 54.616L52.4889 54.6L53.7849 54.52V55.072L52.4969 54.992L52.5209 54.968L53.2169 56.032L52.7449 56.312L52.1849 55.136H52.1929L51.6169 56.312ZM56.6545 59.072C56.2012 59.072 55.8172 58.9627 55.5025 58.744C55.1878 58.5253 54.9478 58.2107 54.7825 57.8C54.6172 57.384 54.5345 56.8853 54.5345 56.304C54.5345 55.6533 54.6252 55.1067 54.8065 54.664C54.9878 54.216 55.2492 53.8747 55.5905 53.64C55.9318 53.4053 56.3425 53.288 56.8225 53.288C57.0358 53.288 57.2385 53.3147 57.4305 53.368C57.6225 53.416 57.8038 53.4907 57.9745 53.592C58.1452 53.6933 58.3052 53.8187 58.4545 53.968L58.1905 54.52C57.9825 54.3013 57.7638 54.1467 57.5345 54.056C57.3052 53.96 57.0678 53.912 56.8225 53.912C56.5612 53.912 56.3292 53.9627 56.1265 54.064C55.9238 54.16 55.7532 54.3067 55.6145 54.504C55.4758 54.696 55.3692 54.936 55.2945 55.224C55.2252 55.5067 55.1905 55.8373 55.1905 56.216V56.68H55.1985C55.2465 56.424 55.3425 56.2053 55.4865 56.024C55.6305 55.8373 55.8092 55.696 56.0225 55.6C56.2358 55.4987 56.4705 55.448 56.7265 55.448C57.0678 55.448 57.3665 55.5253 57.6225 55.68C57.8838 55.8293 58.0865 56.04 58.2305 56.312C58.3798 56.5787 58.4545 56.888 58.4545 57.24C58.4545 57.592 58.3772 57.9067 58.2225 58.184C58.0732 58.4613 57.8625 58.68 57.5905 58.84C57.3185 58.9947 57.0065 59.072 56.6545 59.072ZM56.6145 58.464C56.8492 58.464 57.0545 58.4133 57.2305 58.312C57.4065 58.2107 57.5425 58.0693 57.6385 57.888C57.7398 57.7067 57.7905 57.496 57.7905 57.256C57.7905 57.016 57.7398 56.808 57.6385 56.632C57.5425 56.4507 57.4065 56.3093 57.2305 56.208C57.0545 56.1067 56.8465 56.056 56.6065 56.056C56.3718 56.056 56.1638 56.1067 55.9825 56.208C55.8065 56.3093 55.6652 56.4507 55.5585 56.632C55.4572 56.808 55.4065 57.016 55.4065 57.256C55.4065 57.496 55.4572 57.7067 55.5585 57.888C55.6598 58.0693 55.8012 58.2107 55.9825 58.312C56.1638 58.4133 56.3745 58.464 56.6145 58.464ZM61.3234 59.072C61.078 59.072 60.8407 59.0453 60.6114 58.992C60.3874 58.9387 60.1767 58.8613 59.9794 58.76C59.782 58.6533 59.606 58.5253 59.4514 58.376L59.7314 57.816C59.9767 58.04 60.2274 58.2027 60.4834 58.304C60.7447 58.4 61.0247 58.448 61.3234 58.448C61.718 58.448 62.0247 58.3467 62.2434 58.144C62.4674 57.936 62.5794 57.6453 62.5794 57.272C62.5794 56.904 62.4754 56.6107 62.2674 56.392C62.0594 56.1733 61.7714 56.064 61.4034 56.064C61.158 56.064 60.934 56.1147 60.7314 56.216C60.534 56.312 60.35 56.4747 60.1794 56.704H59.6194V53.36H62.9954V53.976H60.2674V56.096H60.2354C60.3634 55.904 60.5394 55.7493 60.7634 55.632C60.9874 55.5093 61.238 55.448 61.5154 55.448C61.878 55.448 62.19 55.5253 62.4514 55.68C62.7127 55.8293 62.9127 56.0373 63.0514 56.304C63.1954 56.5707 63.2674 56.8827 63.2674 57.24C63.2674 57.6187 63.1874 57.9467 63.0274 58.224C62.8674 58.496 62.6434 58.7067 62.3554 58.856C62.0674 59 61.7234 59.072 61.3234 59.072Z" fill="black"/>
<defs>
<filter id="filter0_d_271_322" x="0.0999999" y="24" width="89.8" height="57.9" filterUnits="userSpaceOnUse" color-interpolation-filters="sRGB">
<feFlood flood-opacity="0" result="BackgroundImageFix"/>
<feColorMatrix in="SourceAlpha" type="matrix" values="0 0 0 0 0 0 0 0 0 0 0 0 0 0 0 0 0 0 127 0" result="hardAlpha"/>
<feOffset dy="4"/>
<feGaussianBlur stdDeviation="1.95"/>
<feComposite in2="hardAlpha" operator="out"/>
<feColorMatrix type="matrix" values="0 0 0 0 0 0 0 0 0 0 0 0 0 0 0 0 0 0 0.2 0"/>
<feBlend mode="normal" in2="BackgroundImageFix" result="effect1_dropShadow_271_322"/>
<feBlend mode="normal" in="SourceGraphic" in2="effect1_dropShadow_271_322" result="shape"/>
</filter>
<clipPath id="clip0_271_322">
<rect width="16.8475" height="16.9277" fill="white" transform="translate(35.2891 7.25488)"/>
</clipPath>
</defs>
</svg>
