<svg width="90" height="82" viewBox="0 0 90 82" fill="none" xmlns="http://www.w3.org/2000/svg">
<g filter="url(#filter0_d_271_415)">
<rect x="4" y="24" width="82" height="50" rx="2" fill="#EBDBBA"/>
<rect x="4.25" y="24.25" width="81.5" height="49.5" rx="1.75" stroke="white" stroke-width="0.5"/>
</g>
<rect x="29.2715" y="0.0341797" width="30.0847" height="30.2425" rx="3" fill="#CB3335"/>
<g clip-path="url(#clip0_271_415)">
<path fill-rule="evenodd" clip-rule="evenodd" d="M35.6592 10.7107C35.7152 10.7316 35.7807 10.7782 35.805 10.8146C35.8412 10.8685 35.8491 11.3392 35.8488 15.859L35.7682 15.9417C35.7119 15.9992 35.6517 16.0244 35.5707 16.0244C35.4901 16.0244 35.4286 15.9989 35.2894 15.859V13.3781C35.2894 11.7904 35.3012 10.8735 35.3223 10.8312C35.3404 10.7948 35.4009 10.7445 35.4565 10.719C35.5359 10.6833 35.5799 10.6816 35.6592 10.7107ZM51.9473 10.7107C52.0033 10.7316 52.0687 10.7782 52.0931 10.8146C52.1293 10.8685 52.1372 11.3392 52.1369 15.859L52.0562 15.9417C52 15.9992 51.9397 16.0244 51.8588 16.0244C51.7782 16.0244 51.7167 15.9989 51.5775 15.859V13.3781C51.5775 11.7904 51.5893 10.8735 51.6104 10.8312C51.6285 10.7948 51.689 10.7445 51.7446 10.719C51.8239 10.6833 51.868 10.6816 51.9473 10.7107ZM51.9779 16.9009L52.1369 17.0829V18.8525C52.1369 19.9662 52.1247 20.6467 52.1039 20.6883C52.0858 20.7247 52.0194 20.777 51.9559 20.8041C51.8545 20.8478 50.8644 20.8537 43.7131 20.8537C36.5618 20.8537 35.5717 20.8478 35.4704 20.8041C35.4069 20.777 35.3404 20.7247 35.3223 20.6883C35.3016 20.6467 35.2894 19.9682 35.2891 18.8608C35.2891 17.2952 35.2947 17.0908 35.3417 17.0227C35.371 16.9803 35.4266 16.933 35.4654 16.9171C35.5049 16.9009 39.1699 16.891 51.9779 16.9009ZM35.8652 20.2749H51.561L51.5663 17.4467H50.7219C50.7203 17.9981 50.7048 18.1456 50.6798 18.1804C50.6578 18.2111 50.5952 18.2531 50.5409 18.274C50.4613 18.3047 50.4215 18.3018 50.3353 18.2598C50.2652 18.2254 50.2168 18.1705 50.1948 18.1C50.1764 18.0408 50.1616 17.8698 50.1619 17.7196L50.1625 17.4467H49.0438C49.0438 18.6583 49.0421 18.6722 48.9645 18.7616C48.9049 18.8297 48.8549 18.8525 48.7641 18.8525C48.6733 18.8525 48.6232 18.8297 48.5637 18.7616C48.486 18.6722 48.4844 18.6583 48.4844 18.0586V17.4467H47.3656C47.3501 18.1013 47.3409 18.148 47.2758 18.2131C47.2281 18.2611 47.1609 18.2875 47.0839 18.2885C46.9941 18.2899 46.9454 18.2677 46.8855 18.1992C46.8131 18.1162 46.8062 18.0798 46.8062 17.7775V17.4467H45.6874C45.6874 18.4354 45.6756 18.5995 45.6381 18.6871C45.6085 18.7569 45.5529 18.8168 45.4982 18.838C45.4485 18.8571 45.3745 18.8644 45.3337 18.8545C45.2929 18.8442 45.2297 18.8026 45.1932 18.7616C45.1313 18.6924 45.1267 18.6431 45.1274 18.0669L45.128 17.4467H44.0093C44.0089 17.844 43.9941 18.0153 43.976 18.0835C43.9517 18.1764 43.9145 18.2221 43.8283 18.2654C43.7187 18.3206 43.7075 18.3206 43.598 18.2654C43.5117 18.2221 43.4746 18.1764 43.4502 18.0835C43.4321 18.0153 43.4173 17.844 43.4173 17.7031L43.417 17.4467H42.2982C42.2966 18.5022 42.284 18.7027 42.2561 18.7397C42.234 18.7685 42.1827 18.8095 42.1419 18.8307C42.1011 18.8519 42.0234 18.8618 41.9691 18.8525C41.9033 18.8415 41.8485 18.8001 41.8046 18.7285C41.7457 18.6316 41.7391 18.5624 41.7388 18.0338V17.4467H40.62C40.62 18.0798 40.6131 18.1162 40.5407 18.1992C40.4818 18.2664 40.4305 18.2902 40.344 18.2902C40.2661 18.2902 40.2021 18.2651 40.1521 18.2148C40.085 18.1476 40.0761 18.1036 40.0689 17.793L40.0606 17.4467H38.9419C38.9257 18.6736 38.9221 18.7053 38.852 18.7754C38.8043 18.8234 38.7372 18.8499 38.6602 18.8509C38.5704 18.8522 38.5217 18.83 38.4618 18.7616C38.3841 18.6722 38.3825 18.6583 38.3825 18.0586V17.4467H37.2637C37.2647 17.8698 37.2499 18.0408 37.2315 18.1C37.2094 18.1705 37.161 18.2254 37.091 18.2598C37.0047 18.3018 36.9649 18.3047 36.8853 18.274C36.831 18.2531 36.7685 18.2111 36.7464 18.1804C36.7214 18.1456 36.706 17.9981 36.7053 17.7858L36.7043 17.4467H35.8481L35.8652 20.2749ZM37.9751 11.5258C38.0182 11.5258 38.0942 11.5618 38.2344 11.6852L38.2509 13.2128H49.1754L49.1918 11.6852L49.2823 11.6055C49.332 11.5618 49.406 11.5251 49.4469 11.5245C49.4877 11.5235 49.5535 11.5496 49.593 11.5823C49.6328 11.6148 49.9625 12.0286 50.3257 12.5016C50.6894 12.9746 50.9954 13.399 51.0062 13.4443C51.0177 13.4919 51.0046 13.569 50.9753 13.6262C50.9473 13.6808 50.6775 14.0457 50.3761 14.4366C50.0744 14.8279 49.7697 15.2186 49.6989 15.3049C49.5976 15.4286 49.5492 15.462 49.4715 15.462C49.4172 15.462 49.3432 15.4472 49.307 15.429C49.2708 15.4108 49.2261 15.3476 49.2076 15.2884C49.1892 15.2292 49.1744 14.8647 49.1754 13.7751H38.2509L38.2515 14.478C38.2515 14.8647 38.2367 15.2292 38.2186 15.2884C38.2002 15.3476 38.1554 15.4108 38.1192 15.429C38.083 15.4472 38.009 15.462 37.9547 15.462C37.8771 15.462 37.8287 15.4286 37.7273 15.3049C37.6563 15.2186 37.3516 14.8279 37.0501 14.4366C36.7484 14.0457 36.4789 13.6808 36.4509 13.6262C36.4217 13.569 36.4085 13.4919 36.42 13.4443C36.4309 13.399 36.7369 12.9746 37.1002 12.5016C37.4634 12.0286 37.7915 11.6154 37.829 11.5837C37.8662 11.5519 37.932 11.5258 37.9751 11.5258ZM37.0659 13.5601C37.0896 13.5965 37.2361 13.7919 37.3917 13.9947C37.5477 14.1975 37.6862 14.3576 37.6997 14.3503C37.7132 14.3434 37.7244 13.958 37.7244 13.4939C37.7244 13.0275 37.7112 12.6504 37.6951 12.6504C37.6793 12.6504 37.5217 12.8403 37.3447 13.0722C37.0544 13.4536 37.0274 13.5002 37.0659 13.5601ZM49.7265 14.3503C49.74 14.3576 49.8786 14.1975 50.0342 13.9947C50.1899 13.7919 50.3366 13.5965 50.36 13.5601C50.3985 13.5002 50.3715 13.4536 50.077 13.0708C49.8977 12.838 49.74 12.6481 49.7265 12.6491C49.7131 12.6498 49.7019 13.0302 49.7019 13.4939C49.7019 13.958 49.7131 14.3434 49.7265 14.3503Z" fill="white"/>
</g>
<path d="M24.832 45.0625V39.4225H26.808C27.4107 39.4225 27.9227 39.5318 28.344 39.7505C28.7653 39.9692 29.0853 40.2892 29.304 40.7105C29.528 41.1265 29.64 41.6358 29.64 42.2385C29.64 42.8412 29.528 43.3532 29.304 43.7745C29.0853 44.1958 28.7653 44.5158 28.344 44.7345C27.9227 44.9532 27.4107 45.0625 26.808 45.0625H24.832ZM25.544 44.4385H26.768C27.4667 44.4385 27.9947 44.2572 28.352 43.8945C28.7147 43.5318 28.896 42.9798 28.896 42.2385C28.896 41.4972 28.7147 40.9478 28.352 40.5905C27.9947 40.2278 27.4667 40.0465 26.768 40.0465H25.544V44.4385ZM30.8742 40.1585V39.3665H31.7382V40.1585H30.8742ZM30.9542 45.0625V41.1105H31.6662V45.0625H30.9542ZM33.103 45.0625V41.1105H33.759V41.9745C33.8283 41.7985 33.9243 41.6412 34.047 41.5025C34.175 41.3585 34.327 41.2465 34.503 41.1665C34.6843 41.0812 34.8817 41.0385 35.095 41.0385C35.4417 41.0385 35.727 41.1238 35.951 41.2945C36.175 41.4652 36.3137 41.6892 36.367 41.9665H36.359C36.4657 41.7052 36.6337 41.4865 36.863 41.3105C37.0977 41.1292 37.391 41.0385 37.743 41.0385C38.0417 41.0385 38.295 41.0972 38.503 41.2145C38.711 41.3265 38.8683 41.4998 38.975 41.7345C39.0817 41.9692 39.135 42.2652 39.135 42.6225V45.0625H38.431V42.6705C38.431 42.3292 38.3697 42.0732 38.247 41.9025C38.1243 41.7318 37.9057 41.6465 37.591 41.6465C37.3563 41.6465 37.1537 41.6998 36.983 41.8065C36.8177 41.9078 36.6897 42.0518 36.599 42.2385C36.5137 42.4198 36.471 42.6252 36.471 42.8545V45.0625H35.767V42.6705C35.767 42.3345 35.6977 42.0812 35.559 41.9105C35.4203 41.7345 35.2097 41.6465 34.927 41.6465C34.6977 41.6465 34.4977 41.7052 34.327 41.8225C34.1617 41.9345 34.0337 42.0812 33.943 42.2625C33.8523 42.4438 33.807 42.6358 33.807 42.8385V45.0625H33.103ZM42.4676 45.1345C42.0249 45.1345 41.6409 45.0545 41.3156 44.8945C40.9956 44.7292 40.7502 44.4945 40.5796 44.1905C40.4089 43.8812 40.3236 43.5132 40.3236 43.0865C40.3236 42.6865 40.4036 42.3345 40.5636 42.0305C40.7236 41.7212 40.9502 41.4785 41.2436 41.3025C41.5369 41.1265 41.8862 41.0385 42.2916 41.0385C42.6756 41.0385 43.0009 41.1212 43.2676 41.2865C43.5396 41.4518 43.7449 41.6838 43.8836 41.9825C44.0276 42.2812 44.0996 42.6358 44.0996 43.0465V43.2785H40.8596V42.7825H43.6356L43.4836 42.9425C43.4836 42.5052 43.3796 42.1692 43.1716 41.9345C42.9689 41.6998 42.6756 41.5825 42.2916 41.5825C42.0409 41.5825 41.8169 41.6412 41.6196 41.7585C41.4276 41.8705 41.2782 42.0305 41.1716 42.2385C41.0649 42.4465 41.0116 42.6998 41.0116 42.9985V43.0785C41.0116 43.3985 41.0702 43.6678 41.1876 43.8865C41.3049 44.1052 41.4729 44.2705 41.6916 44.3825C41.9102 44.4945 42.1716 44.5505 42.4756 44.5505C42.6942 44.5505 42.9156 44.5212 43.1396 44.4625C43.3689 44.3985 43.5822 44.2865 43.7796 44.1265L44.0196 44.6385C43.8169 44.8092 43.5742 44.9345 43.2916 45.0145C43.0142 45.0945 42.7396 45.1345 42.4676 45.1345ZM45.2745 45.0625V41.1105H45.9385V41.9665C46.0665 41.6732 46.2585 41.4465 46.5145 41.2865C46.7705 41.1212 47.0585 41.0385 47.3785 41.0385C47.7038 41.0385 47.9758 41.0972 48.1945 41.2145C48.4132 41.3265 48.5758 41.5025 48.6825 41.7425C48.7945 41.9772 48.8505 42.2705 48.8505 42.6225V45.0625H48.1385V42.6625C48.1385 42.4492 48.1092 42.2678 48.0505 42.1185C47.9918 41.9692 47.8932 41.8545 47.7545 41.7745C47.6212 41.6892 47.4425 41.6465 47.2185 41.6465C46.9838 41.6465 46.7705 41.6998 46.5785 41.8065C46.3918 41.9132 46.2452 42.0572 46.1385 42.2385C46.0372 42.4198 45.9865 42.6225 45.9865 42.8465V45.0625H45.2745ZM51.7149 45.1345C51.4962 45.1345 51.2802 45.1132 51.0669 45.0705C50.8589 45.0332 50.6642 44.9798 50.4829 44.9105C50.3069 44.8358 50.1549 44.7452 50.0269 44.6385L50.2589 44.1345C50.3922 44.2358 50.5389 44.3185 50.6989 44.3825C50.8642 44.4465 51.0322 44.4945 51.2029 44.5265C51.3789 44.5532 51.5469 44.5665 51.7069 44.5665C52.0375 44.5665 52.2909 44.5158 52.4669 44.4145C52.6482 44.3132 52.7389 44.1718 52.7389 43.9905C52.7389 43.8358 52.6855 43.7185 52.5789 43.6385C52.4775 43.5532 52.3069 43.4892 52.0669 43.4465L51.2429 43.3025C50.8749 43.2332 50.5975 43.1078 50.4109 42.9265C50.2295 42.7452 50.1389 42.5078 50.1389 42.2145C50.1389 41.9798 50.2029 41.7745 50.3309 41.5985C50.4642 41.4225 50.6535 41.2865 50.8989 41.1905C51.1442 41.0892 51.4375 41.0385 51.7789 41.0385C51.9655 41.0385 52.1549 41.0572 52.3469 41.0945C52.5442 41.1318 52.7255 41.1878 52.8909 41.2625C53.0615 41.3318 53.2002 41.4198 53.3069 41.5265L53.0669 42.0305C52.9602 41.9292 52.8322 41.8492 52.6829 41.7905C52.5389 41.7265 52.3869 41.6812 52.2269 41.6545C52.0722 41.6225 51.9202 41.6065 51.7709 41.6065C51.4615 41.6065 51.2215 41.6598 51.0509 41.7665C50.8802 41.8678 50.7949 42.0118 50.7949 42.1985C50.7949 42.3478 50.8429 42.4652 50.9389 42.5505C51.0402 42.6358 51.2029 42.6998 51.4269 42.7425L52.2269 42.8865C52.6215 42.9612 52.9149 43.0865 53.1069 43.2625C53.2989 43.4332 53.3949 43.6705 53.3949 43.9745C53.3949 44.2092 53.3255 44.4145 53.1869 44.5905C53.0482 44.7612 52.8535 44.8945 52.6029 44.9905C52.3522 45.0865 52.0562 45.1345 51.7149 45.1345ZM54.4914 40.1585V39.3665H55.3554V40.1585H54.4914ZM54.5714 45.0625V41.1105H55.2834V45.0625H54.5714ZM58.4242 45.1345C58.0242 45.1345 57.6775 45.0492 57.3842 44.8785C57.0909 44.7078 56.8642 44.4705 56.7042 44.1665C56.5442 43.8572 56.4642 43.4945 56.4642 43.0785C56.4642 42.6678 56.5442 42.3105 56.7042 42.0065C56.8642 41.6972 57.0909 41.4598 57.3842 41.2945C57.6775 41.1238 58.0242 41.0385 58.4242 41.0385C58.8242 41.0385 59.1682 41.1238 59.4562 41.2945C59.7495 41.4598 59.9762 41.6972 60.1362 42.0065C60.2962 42.3105 60.3762 42.6678 60.3762 43.0785C60.3762 43.4945 60.2962 43.8572 60.1362 44.1665C59.9815 44.4705 59.7575 44.7078 59.4642 44.8785C59.1709 45.0492 58.8242 45.1345 58.4242 45.1345ZM58.4162 44.5345C58.8055 44.5345 59.1122 44.4038 59.3362 44.1425C59.5602 43.8812 59.6722 43.5265 59.6722 43.0785C59.6722 42.6305 59.5602 42.2785 59.3362 42.0225C59.1175 41.7665 58.8135 41.6385 58.4242 41.6385C58.0349 41.6385 57.7282 41.7665 57.5042 42.0225C57.2802 42.2785 57.1682 42.6305 57.1682 43.0785C57.1682 43.5265 57.2802 43.8812 57.5042 44.1425C57.7335 44.4038 58.0375 44.5345 58.4162 44.5345ZM61.5714 45.0625V41.1105H62.2354V41.9665C62.3634 41.6732 62.5554 41.4465 62.8114 41.2865C63.0674 41.1212 63.3554 41.0385 63.6754 41.0385C64.0007 41.0385 64.2727 41.0972 64.4914 41.2145C64.71 41.3265 64.8727 41.5025 64.9794 41.7425C65.0914 41.9772 65.1474 42.2705 65.1474 42.6225V45.0625H64.4354V42.6625C64.4354 42.4492 64.406 42.2678 64.3474 42.1185C64.2887 41.9692 64.19 41.8545 64.0514 41.7745C63.918 41.6892 63.7394 41.6465 63.5154 41.6465C63.2807 41.6465 63.0674 41.6998 62.8754 41.8065C62.6887 41.9132 62.542 42.0572 62.4354 42.2385C62.334 42.4198 62.2834 42.6225 62.2834 42.8465V45.0625H61.5714Z" fill="#CE3439"/>
<path d="M27.7398 58.0625L30.4998 52.7105L30.5318 53.0545H27.3558V52.4225H31.1238V52.9585L28.5158 58.0625H27.7398ZM34.1046 58.1345C33.8593 58.1345 33.622 58.1078 33.3926 58.0545C33.1686 58.0012 32.958 57.9238 32.7606 57.8225C32.5633 57.7158 32.3873 57.5878 32.2326 57.4385L32.5126 56.8785C32.758 57.1025 33.0086 57.2652 33.2646 57.3665C33.526 57.4625 33.806 57.5105 34.1046 57.5105C34.4993 57.5105 34.806 57.4092 35.0246 57.2065C35.2486 56.9985 35.3606 56.7078 35.3606 56.3345C35.3606 55.9665 35.2566 55.6732 35.0486 55.4545C34.8406 55.2358 34.5526 55.1265 34.1846 55.1265C33.9393 55.1265 33.7153 55.1772 33.5126 55.2785C33.3153 55.3745 33.1313 55.5372 32.9606 55.7665H32.4006V52.4225H35.7766V53.0385H33.0486V55.1585H33.0166C33.1446 54.9665 33.3206 54.8118 33.5446 54.6945C33.7686 54.5718 34.0193 54.5105 34.2966 54.5105C34.6593 54.5105 34.9713 54.5878 35.2326 54.7425C35.494 54.8918 35.694 55.0998 35.8326 55.3665C35.9766 55.6332 36.0486 55.9452 36.0486 56.3025C36.0486 56.6812 35.9686 57.0092 35.8086 57.2865C35.6486 57.5585 35.4246 57.7692 35.1366 57.9185C34.8486 58.0625 34.5046 58.1345 34.1046 58.1345ZM37.7575 55.3745L37.2855 55.0945L37.9895 54.0305L38.0055 54.0545L36.7175 54.1345V53.5825L38.0055 53.6625L37.9815 53.6785L37.2855 52.6225L37.7655 52.3425L38.3335 53.5265H38.3255L38.8775 52.3425L39.3575 52.6225L38.6535 53.6785L38.6295 53.6625L39.9255 53.5825V54.1345L38.6375 54.0545L38.6615 54.0305L39.3575 55.0945L38.8855 55.3745L38.3255 54.1985H38.3335L37.7575 55.3745ZM43.2511 58.0625V56.8945H40.6191V56.3585L43.2191 52.4225H43.9311V56.2945H44.7151V56.8945H43.9311V58.0625H43.2511ZM43.2751 56.2945V53.3025H43.3071L41.2431 56.4305L41.1871 56.2945H43.2751ZM47.464 58.1345C47.2187 58.1345 46.9813 58.1078 46.752 58.0545C46.528 58.0012 46.3173 57.9238 46.12 57.8225C45.9227 57.7158 45.7467 57.5878 45.592 57.4385L45.872 56.8785C46.1173 57.1025 46.368 57.2652 46.624 57.3665C46.8853 57.4625 47.1653 57.5105 47.464 57.5105C47.8587 57.5105 48.1653 57.4092 48.384 57.2065C48.608 56.9985 48.72 56.7078 48.72 56.3345C48.72 55.9665 48.616 55.6732 48.408 55.4545C48.2 55.2358 47.912 55.1265 47.544 55.1265C47.2987 55.1265 47.0747 55.1772 46.872 55.2785C46.6747 55.3745 46.4907 55.5372 46.32 55.7665H45.76V52.4225H49.136V53.0385H46.408V55.1585H46.376C46.504 54.9665 46.68 54.8118 46.904 54.6945C47.128 54.5718 47.3787 54.5105 47.656 54.5105C48.0187 54.5105 48.3307 54.5878 48.592 54.7425C48.8533 54.8918 49.0533 55.0998 49.192 55.3665C49.336 55.6332 49.408 55.9452 49.408 56.3025C49.408 56.6812 49.328 57.0092 49.168 57.2865C49.008 57.5585 48.784 57.7692 48.496 57.9185C48.208 58.0625 47.864 58.1345 47.464 58.1345ZM51.1169 55.3745L50.6449 55.0945L51.3489 54.0305L51.3649 54.0545L50.0769 54.1345V53.5825L51.3649 53.6625L51.3409 53.6785L50.6449 52.6225L51.1249 52.3425L51.6929 53.5265H51.6849L52.2369 52.3425L52.7169 52.6225L52.0129 53.6785L51.9889 53.6625L53.2849 53.5825V54.1345L51.9969 54.0545L52.0209 54.0305L52.7169 55.0945L52.2449 55.3745L51.6849 54.1985H51.6929L51.1169 55.3745ZM55.6105 58.1345C55.4025 58.1345 55.1998 58.1105 55.0025 58.0625C54.8105 58.0145 54.6265 57.9425 54.4505 57.8465C54.2798 57.7452 54.1198 57.6225 53.9705 57.4785L54.2425 56.9345C54.4612 57.1532 54.6825 57.3052 54.9065 57.3905C55.1305 57.4705 55.3678 57.5105 55.6185 57.5105C55.8798 57.5105 56.1092 57.4625 56.3065 57.3665C56.5092 57.2652 56.6798 57.1185 56.8185 56.9265C56.9572 56.7292 57.0612 56.4865 57.1305 56.1985C57.1998 55.9105 57.2345 55.5798 57.2345 55.2065V54.7425H57.2265C57.1838 54.9932 57.0878 55.2118 56.9385 55.3985C56.7945 55.5798 56.6158 55.7185 56.4025 55.8145C56.1892 55.9105 55.9545 55.9585 55.6985 55.9585C55.3625 55.9585 55.0638 55.8838 54.8025 55.7345C54.5412 55.5852 54.3358 55.3772 54.1865 55.1105C54.0425 54.8438 53.9705 54.5345 53.9705 54.1825C53.9705 53.8305 54.0478 53.5158 54.2025 53.2385C54.3572 52.9612 54.5705 52.7452 54.8425 52.5905C55.1145 52.4305 55.4265 52.3505 55.7785 52.3505C56.2372 52.3505 56.6238 52.4598 56.9385 52.6785C57.2532 52.8918 57.4905 53.2038 57.6505 53.6145C57.8105 54.0252 57.8905 54.5265 57.8905 55.1185C57.8905 55.7585 57.7998 56.3052 57.6185 56.7585C57.4372 57.2065 57.1758 57.5478 56.8345 57.7825C56.4985 58.0172 56.0905 58.1345 55.6105 58.1345ZM55.8185 55.3665C56.0532 55.3665 56.2612 55.3158 56.4425 55.2145C56.6238 55.1132 56.7652 54.9718 56.8665 54.7905C56.9678 54.6092 57.0185 54.4012 57.0185 54.1665C57.0185 53.9212 56.9678 53.7078 56.8665 53.5265C56.7705 53.3452 56.6318 53.2065 56.4505 53.1105C56.2692 53.0092 56.0558 52.9585 55.8105 52.9585C55.5758 52.9585 55.3705 53.0092 55.1945 53.1105C55.0185 53.2118 54.8798 53.3532 54.7785 53.5345C54.6825 53.7158 54.6345 53.9265 54.6345 54.1665C54.6345 54.4012 54.6852 54.6092 54.7865 54.7905C54.8878 54.9718 55.0265 55.1132 55.2025 55.2145C55.3785 55.3158 55.5838 55.3665 55.8185 55.3665ZM60.6794 58.1345C60.4447 58.1345 60.2127 58.1105 59.9834 58.0625C59.754 58.0145 59.5354 57.9398 59.3274 57.8385C59.1247 57.7372 58.938 57.6118 58.7674 57.4625L59.0394 56.9025C59.2954 57.1212 59.562 57.2785 59.8394 57.3745C60.1167 57.4652 60.3967 57.5105 60.6794 57.5105C60.914 57.5105 61.1247 57.4758 61.3114 57.4065C61.5034 57.3318 61.6527 57.2225 61.7594 57.0785C61.8714 56.9292 61.9274 56.7372 61.9274 56.5025C61.9274 56.1772 61.818 55.9318 61.5994 55.7665C61.3807 55.5958 61.0634 55.5105 60.6474 55.5105H59.7994V54.8945H60.5434C60.7834 54.8945 60.9967 54.8572 61.1834 54.7825C61.3754 54.7025 61.5247 54.5852 61.6314 54.4305C61.738 54.2758 61.7914 54.0838 61.7914 53.8545C61.7914 53.5612 61.69 53.3425 61.4874 53.1985C61.2847 53.0492 61.0234 52.9745 60.7034 52.9745C60.4207 52.9745 60.1434 53.0225 59.8714 53.1185C59.6047 53.2145 59.3594 53.3798 59.1354 53.6145L58.8714 53.0625C59.0954 52.8225 59.3727 52.6438 59.7034 52.5265C60.034 52.4092 60.378 52.3505 60.7354 52.3505C61.0927 52.3505 61.3994 52.4092 61.6554 52.5265C61.9167 52.6385 62.1194 52.8038 62.2634 53.0225C62.4074 53.2358 62.4794 53.4945 62.4794 53.7985C62.4794 54.1185 62.3887 54.4012 62.2074 54.6465C62.026 54.8918 61.7807 55.0652 61.4714 55.1665V55.1585C61.6954 55.2012 61.8927 55.2838 62.0634 55.4065C62.234 55.5238 62.37 55.6785 62.4714 55.8705C62.5727 56.0572 62.6234 56.2785 62.6234 56.5345C62.6234 56.8705 62.5407 57.1585 62.3754 57.3985C62.2154 57.6385 61.9887 57.8225 61.6954 57.9505C61.4074 58.0732 61.0687 58.1345 60.6794 58.1345Z" fill="black"/>
<defs>
<filter id="filter0_d_271_415" x="0.0999999" y="24" width="89.8" height="57.9" filterUnits="userSpaceOnUse" color-interpolation-filters="sRGB">
<feFlood flood-opacity="0" result="BackgroundImageFix"/>
<feColorMatrix in="SourceAlpha" type="matrix" values="0 0 0 0 0 0 0 0 0 0 0 0 0 0 0 0 0 0 127 0" result="hardAlpha"/>
<feOffset dy="4"/>
<feGaussianBlur stdDeviation="1.95"/>
<feComposite in2="hardAlpha" operator="out"/>
<feColorMatrix type="matrix" values="0 0 0 0 0 0 0 0 0 0 0 0 0 0 0 0 0 0 0.2 0"/>
<feBlend mode="normal" in2="BackgroundImageFix" result="effect1_dropShadow_271_415"/>
<feBlend mode="normal" in="SourceGraphic" in2="effect1_dropShadow_271_415" result="shape"/>
</filter>
<clipPath id="clip0_271_415">
<rect width="16.8475" height="16.9358" fill="white" transform="translate(35.2891 7.29199)"/>
</clipPath>
</defs>
</svg>
