<svg width="136" height="82" viewBox="0 0 136 82" fill="none" xmlns="http://www.w3.org/2000/svg">
<g filter="url(#filter0_d_271_358)">
<rect x="4" y="24" width="128" height="50" rx="2" fill="white"/>
<rect x="4.25" y="24.25" width="127.5" height="49.5" rx="1.75" stroke="white" stroke-width="0.5"/>
</g>
<rect x="52.2715" width="30.0847" height="30.1432" rx="3" fill="#CB3335"/>
<g clip-path="url(#clip0_271_358)">
<path fill-rule="evenodd" clip-rule="evenodd" d="M66.7969 2.41904C66.8785 2.41395 66.964 2.42752 66.9872 2.44871C67.0105 2.46991 67.6485 2.80605 68.4045 3.19603C69.161 3.58558 70.1031 4.07178 70.4987 4.27609C70.8943 4.47999 72.5984 5.35743 74.2851 6.22598C75.9723 7.09411 77.385 7.83591 77.4251 7.87406C77.4928 7.93849 77.4979 8.29413 77.5005 13.263C77.5026 17.5184 77.492 18.598 77.4488 18.6599C77.4192 18.7023 75.0247 19.9473 72.1275 21.4262C69.2303 22.9056 66.8223 24.1158 66.7757 24.1158C66.7292 24.1158 66.4817 24.0047 66.2257 23.8695C65.9698 23.7339 63.5727 22.4986 60.8989 21.1244C56.8925 19.0647 56.0235 18.6027 55.9579 18.498C55.8966 18.4001 55.8822 18.3127 55.8949 18.1165C55.9042 17.9766 55.9448 15.621 55.985 12.8815C56.0256 10.1419 56.0759 7.85287 56.0971 7.79479C56.1292 7.7062 56.9961 7.25815 61.3922 5.05859C64.9049 3.30073 66.6979 2.4254 66.7969 2.41904ZM57.1421 7.93976C57.1471 7.95333 57.8029 8.31151 58.5999 8.73583C59.397 9.16014 60.0968 9.53443 60.1547 9.56792C60.2563 9.62684 60.4479 9.53189 65.0306 7.1543C67.654 5.79277 69.7863 4.66692 69.7689 4.65166C69.7516 4.6364 69.0852 4.28839 68.2882 3.87806C67.4911 3.46774 66.8155 3.13329 66.7863 3.13456C66.7571 3.13583 64.5732 4.21209 61.9333 5.52614C59.2934 6.8402 57.1374 7.9262 57.1421 7.93976ZM64.0355 8.40943C62.3674 9.27205 61.0017 9.98715 61.0017 9.99901C61.0013 10.0105 61.4053 10.2377 61.8999 10.5034L62.7989 10.9862C63.2579 10.751 65.3974 9.63701 67.849 8.35899C70.3007 7.08139 72.309 6.01658 72.3124 5.99327C72.3153 5.96995 71.924 5.74572 71.4421 5.4952C70.9607 5.24468 70.5609 5.03994 70.5537 5.04079C70.5469 5.04164 69.7596 5.44687 68.8047 5.94155C67.8499 6.43623 65.7037 7.54682 64.0355 8.40943ZM66.2587 9.92271C64.7645 10.6989 63.5409 11.3487 63.5405 11.3661C63.5397 11.3834 64.2534 11.7793 65.1258 12.2456L66.7123 13.0934C74.1388 9.28476 76.3273 8.15468 76.3675 8.12458C76.4305 8.07753 76.227 7.96096 74.7907 7.22254C73.8832 6.75627 73.1272 6.37222 73.1103 6.36926C73.0934 6.36629 72.1563 6.84698 71.0275 7.43746C69.8988 8.02751 67.753 9.14615 66.2587 9.92271ZM56.6471 13.3053C56.5938 16.7622 56.5857 18.1296 56.6187 18.164C56.6437 18.1898 57.1311 18.4501 57.7009 18.7426C58.2712 19.0346 60.4699 20.1634 62.5874 21.2507C64.7048 22.3376 66.4415 23.2218 66.447 23.215C66.4521 23.2087 66.4385 21.057 66.4165 18.4344C66.3945 15.8114 66.3713 13.6627 66.3645 13.6589C66.3581 13.6551 65.6292 13.2617 64.745 12.7852L63.1373 11.9188C63.0959 12.1227 63.0722 12.6873 63.0574 13.3053C63.0341 14.3049 63.0227 14.4405 62.9533 14.5346C62.9011 14.6053 62.8271 14.6444 62.7312 14.652C62.6153 14.6618 62.35 14.5384 61.3626 14.0162C60.6891 13.6601 60.0942 13.3354 60.0405 13.2947L59.9432 13.2206L59.922 10.1923C58.0529 9.186 57.3341 8.79941 57.1184 8.68411C56.9026 8.56839 56.7249 8.47853 56.7236 8.48404C56.7228 8.48955 56.6881 10.659 56.6471 13.3053ZM67.0791 13.6525C67.06 13.6597 67.06 15.8165 67.0791 18.445C67.0985 21.0735 67.1239 23.2252 67.1353 23.2256C67.1467 23.2265 69.3361 22.1133 72.0006 20.7518L76.8447 18.2767C76.8612 10.8103 76.8519 8.64384 76.8341 8.64554C76.8168 8.64766 74.6228 9.77181 71.9583 11.1444C69.2938 12.5169 67.0985 13.6453 67.0791 13.6525ZM60.5786 12.8603C61.8927 13.5499 62.2967 13.7559 62.3251 13.7623C62.3623 13.7708 62.3843 13.5826 62.4075 13.0629C62.4253 12.6716 62.4393 12.1702 62.4393 11.9489V11.5462C61.0622 10.8069 60.6434 10.5925 60.6201 10.5925C60.593 10.5925 60.5778 10.9985 60.5782 11.7264L60.5786 12.8603Z" fill="white"/>
</g>
<path d="M17.832 40V34.36H20.152C20.5573 34.36 20.9013 34.4267 21.184 34.56C21.4667 34.6933 21.6827 34.888 21.832 35.144C21.9867 35.3947 22.064 35.6987 22.064 36.056C22.064 36.4133 21.9867 36.72 21.832 36.976C21.6827 37.232 21.464 37.4293 21.176 37.568C20.8933 37.7067 20.552 37.776 20.152 37.776H18.544V40H17.832ZM18.544 37.168H20.048C20.4747 37.168 20.7973 37.0773 21.016 36.896C21.2347 36.7093 21.344 36.432 21.344 36.064C21.344 35.6907 21.2347 35.416 21.016 35.24C20.7973 35.0587 20.4747 34.968 20.048 34.968H18.544V37.168ZM22.7242 35.096V34.304H23.5882V35.096H22.7242ZM22.8042 40V36.048H23.5162V40H22.8042ZM26.441 40.072C25.9983 40.072 25.6143 39.992 25.289 39.832C24.969 39.6667 24.7237 39.432 24.553 39.128C24.3823 38.8187 24.297 38.4507 24.297 38.024C24.297 37.624 24.377 37.272 24.537 36.968C24.697 36.6587 24.9237 36.416 25.217 36.24C25.5103 36.064 25.8597 35.976 26.265 35.976C26.649 35.976 26.9743 36.0587 27.241 36.224C27.513 36.3893 27.7183 36.6213 27.857 36.92C28.001 37.2187 28.073 37.5733 28.073 37.984V38.216H24.833V37.72H27.609L27.457 37.88C27.457 37.4427 27.353 37.1067 27.145 36.872C26.9423 36.6373 26.649 36.52 26.265 36.52C26.0143 36.52 25.7903 36.5787 25.593 36.696C25.401 36.808 25.2517 36.968 25.145 37.176C25.0383 37.384 24.985 37.6373 24.985 37.936V38.016C24.985 38.336 25.0437 38.6053 25.161 38.824C25.2783 39.0427 25.4463 39.208 25.665 39.32C25.8837 39.432 26.145 39.488 26.449 39.488C26.6677 39.488 26.889 39.4587 27.113 39.4C27.3423 39.336 27.5557 39.224 27.753 39.064L27.993 39.576C27.7903 39.7467 27.5477 39.872 27.265 39.952C26.9877 40.032 26.713 40.072 26.441 40.072ZM30.6079 40.072C30.2026 40.072 29.8506 39.9867 29.5519 39.816C29.2533 39.6453 29.0213 39.408 28.8559 39.104C28.6906 38.7947 28.6079 38.432 28.6079 38.016C28.6079 37.6 28.6906 37.24 28.8559 36.936C29.0213 36.6267 29.2533 36.3893 29.5519 36.224C29.8559 36.0587 30.2106 35.976 30.6159 35.976C30.8879 35.976 31.1466 36.0213 31.3919 36.112C31.6373 36.2027 31.8399 36.3253 31.9999 36.48L31.7519 37.008C31.5973 36.8693 31.4239 36.7653 31.2319 36.696C31.0399 36.6213 30.8533 36.584 30.6719 36.584C30.2559 36.584 29.9279 36.7093 29.6879 36.96C29.4479 37.2107 29.3279 37.5653 29.3279 38.024C29.3279 38.4773 29.4479 38.832 29.6879 39.088C29.9279 39.3387 30.2533 39.464 30.6639 39.464C30.8506 39.464 31.0373 39.4293 31.2239 39.36C31.4159 39.2853 31.5866 39.1813 31.7359 39.048L31.9839 39.576C31.8293 39.7307 31.6293 39.8533 31.3839 39.944C31.1386 40.0293 30.8799 40.072 30.6079 40.072ZM34.3363 40.072C33.8936 40.072 33.5096 39.992 33.1843 39.832C32.8643 39.6667 32.619 39.432 32.4483 39.128C32.2776 38.8187 32.1923 38.4507 32.1923 38.024C32.1923 37.624 32.2723 37.272 32.4323 36.968C32.5923 36.6587 32.819 36.416 33.1123 36.24C33.4056 36.064 33.755 35.976 34.1603 35.976C34.5443 35.976 34.8696 36.0587 35.1363 36.224C35.4083 36.3893 35.6136 36.6213 35.7523 36.92C35.8963 37.2187 35.9683 37.5733 35.9683 37.984V38.216H32.7283V37.72H35.5043L35.3523 37.88C35.3523 37.4427 35.2483 37.1067 35.0403 36.872C34.8376 36.6373 34.5443 36.52 34.1603 36.52C33.9096 36.52 33.6856 36.5787 33.4883 36.696C33.2963 36.808 33.147 36.968 33.0403 37.176C32.9336 37.384 32.8803 37.6373 32.8803 37.936V38.016C32.8803 38.336 32.939 38.6053 33.0563 38.824C33.1736 39.0427 33.3416 39.208 33.5603 39.32C33.779 39.432 34.0403 39.488 34.3443 39.488C34.563 39.488 34.7843 39.4587 35.0083 39.4C35.2376 39.336 35.451 39.224 35.6483 39.064L35.8883 39.576C35.6856 39.7467 35.443 39.872 35.1603 39.952C34.883 40.032 34.6083 40.072 34.3363 40.072ZM38.1993 40.072C37.9806 40.072 37.7646 40.0507 37.5513 40.008C37.3433 39.9707 37.1486 39.9173 36.9673 39.848C36.7913 39.7733 36.6393 39.6827 36.5113 39.576L36.7433 39.072C36.8766 39.1733 37.0233 39.256 37.1833 39.32C37.3486 39.384 37.5166 39.432 37.6873 39.464C37.8633 39.4907 38.0313 39.504 38.1913 39.504C38.5219 39.504 38.7753 39.4533 38.9513 39.352C39.1326 39.2507 39.2233 39.1093 39.2233 38.928C39.2233 38.7733 39.1699 38.656 39.0633 38.576C38.9619 38.4907 38.7913 38.4267 38.5513 38.384L37.7273 38.24C37.3593 38.1707 37.0819 38.0453 36.8953 37.864C36.7139 37.6827 36.6233 37.4453 36.6233 37.152C36.6233 36.9173 36.6873 36.712 36.8153 36.536C36.9486 36.36 37.1379 36.224 37.3833 36.128C37.6286 36.0267 37.9219 35.976 38.2633 35.976C38.4499 35.976 38.6393 35.9947 38.8313 36.032C39.0286 36.0693 39.2099 36.1253 39.3753 36.2C39.5459 36.2693 39.6846 36.3573 39.7913 36.464L39.5513 36.968C39.4446 36.8667 39.3166 36.7867 39.1673 36.728C39.0233 36.664 38.8713 36.6187 38.7113 36.592C38.5566 36.56 38.4046 36.544 38.2553 36.544C37.9459 36.544 37.7059 36.5973 37.5353 36.704C37.3646 36.8053 37.2793 36.9493 37.2793 37.136C37.2793 37.2853 37.3273 37.4027 37.4233 37.488C37.5246 37.5733 37.6873 37.6373 37.9113 37.68L38.7113 37.824C39.1059 37.8987 39.3993 38.024 39.5913 38.2C39.7833 38.3707 39.8793 38.608 39.8793 38.912C39.8793 39.1467 39.8099 39.352 39.6713 39.528C39.5326 39.6987 39.3379 39.832 39.0873 39.928C38.8366 40.024 38.5406 40.072 38.1993 40.072Z" fill="#CE3439"/>
<path d="M56.1774 40V39.392H57.7214V34.928L58.0974 34.984L56.4574 36.04L56.1374 35.488L57.9054 34.36H58.4254V39.392H59.8494V40H56.1774ZM62.6383 40.072C62.2063 40.072 61.8409 39.9627 61.5423 39.744C61.2436 39.52 61.0169 39.1947 60.8623 38.768C60.7129 38.336 60.6383 37.8053 60.6383 37.176C60.6383 36.5467 60.7129 36.0187 60.8623 35.592C61.0169 35.1653 61.2436 34.8427 61.5423 34.624C61.8409 34.4 62.2063 34.288 62.6383 34.288C63.0809 34.288 63.4489 34.3973 63.7423 34.616C64.0356 34.8347 64.2569 35.1573 64.4063 35.584C64.5609 36.0107 64.6383 36.5387 64.6383 37.168C64.6383 37.7973 64.5609 38.328 64.4063 38.76C64.2569 39.192 64.0329 39.52 63.7343 39.744C63.4356 39.9627 63.0703 40.072 62.6383 40.072ZM62.6383 39.448C63.0756 39.448 63.4009 39.264 63.6143 38.896C63.8276 38.528 63.9343 37.952 63.9343 37.168C63.9343 36.3893 63.8276 35.8187 63.6143 35.456C63.4063 35.0933 63.0836 34.912 62.6463 34.912C62.2036 34.912 61.8756 35.096 61.6623 35.464C61.4489 35.8267 61.3423 36.3973 61.3423 37.176C61.3423 37.9493 61.4489 38.5227 61.6623 38.896C61.8756 39.264 62.2009 39.448 62.6383 39.448ZM67.4352 40.072C67.0032 40.072 66.6378 39.9627 66.3392 39.744C66.0405 39.52 65.8138 39.1947 65.6592 38.768C65.5098 38.336 65.4352 37.8053 65.4352 37.176C65.4352 36.5467 65.5098 36.0187 65.6592 35.592C65.8138 35.1653 66.0405 34.8427 66.3392 34.624C66.6378 34.4 67.0032 34.288 67.4352 34.288C67.8778 34.288 68.2458 34.3973 68.5392 34.616C68.8325 34.8347 69.0538 35.1573 69.2032 35.584C69.3578 36.0107 69.4352 36.5387 69.4352 37.168C69.4352 37.7973 69.3578 38.328 69.2032 38.76C69.0538 39.192 68.8298 39.52 68.5312 39.744C68.2325 39.9627 67.8672 40.072 67.4352 40.072ZM67.4352 39.448C67.8725 39.448 68.1978 39.264 68.4112 38.896C68.6245 38.528 68.7312 37.952 68.7312 37.168C68.7312 36.3893 68.6245 35.8187 68.4112 35.456C68.2032 35.0933 67.8805 34.912 67.4432 34.912C67.0005 34.912 66.6725 35.096 66.4592 35.464C66.2458 35.8267 66.1392 36.3973 66.1392 37.176C66.1392 37.9493 66.2458 38.5227 66.4592 38.896C66.6725 39.264 66.9978 39.448 67.4352 39.448ZM72.232 40.072C71.8 40.072 71.4347 39.9627 71.136 39.744C70.8374 39.52 70.6107 39.1947 70.456 38.768C70.3067 38.336 70.232 37.8053 70.232 37.176C70.232 36.5467 70.3067 36.0187 70.456 35.592C70.6107 35.1653 70.8374 34.8427 71.136 34.624C71.4347 34.4 71.8 34.288 72.232 34.288C72.6747 34.288 73.0427 34.3973 73.336 34.616C73.6294 34.8347 73.8507 35.1573 74 35.584C74.1547 36.0107 74.232 36.5387 74.232 37.168C74.232 37.7973 74.1547 38.328 74 38.76C73.8507 39.192 73.6267 39.52 73.328 39.744C73.0294 39.9627 72.664 40.072 72.232 40.072ZM72.232 39.448C72.6694 39.448 72.9947 39.264 73.208 38.896C73.4214 38.528 73.528 37.952 73.528 37.168C73.528 36.3893 73.4214 35.8187 73.208 35.456C73 35.0933 72.6774 34.912 72.24 34.912C71.7974 34.912 71.4694 35.096 71.256 35.464C71.0427 35.8267 70.936 36.3973 70.936 37.176C70.936 37.9493 71.0427 38.5227 71.256 38.896C71.4694 39.264 71.7947 39.448 72.232 39.448ZM77.6953 40V34.36H78.3273L81.7833 38.952H81.7513V34.36H82.4313V40H81.7833L78.3433 35.424H78.3753V40H77.6953ZM85.6937 40.072C85.2937 40.072 84.9471 39.9867 84.6537 39.816C84.3604 39.6453 84.1337 39.408 83.9737 39.104C83.8137 38.7947 83.7337 38.432 83.7337 38.016C83.7337 37.6053 83.8137 37.248 83.9737 36.944C84.1337 36.6347 84.3604 36.3973 84.6537 36.232C84.9471 36.0613 85.2937 35.976 85.6937 35.976C86.0937 35.976 86.4377 36.0613 86.7257 36.232C87.0191 36.3973 87.2457 36.6347 87.4057 36.944C87.5657 37.248 87.6457 37.6053 87.6457 38.016C87.6457 38.432 87.5657 38.7947 87.4057 39.104C87.2511 39.408 87.0271 39.6453 86.7337 39.816C86.4404 39.9867 86.0937 40.072 85.6937 40.072ZM85.6857 39.472C86.0751 39.472 86.3817 39.3413 86.6057 39.08C86.8297 38.8187 86.9417 38.464 86.9417 38.016C86.9417 37.568 86.8297 37.216 86.6057 36.96C86.3871 36.704 86.0831 36.576 85.6937 36.576C85.3044 36.576 84.9977 36.704 84.7737 36.96C84.5497 37.216 84.4377 37.568 84.4377 38.016C84.4377 38.464 84.5497 38.8187 84.7737 39.08C85.0031 39.3413 85.3071 39.472 85.6857 39.472ZM90.2969 40.072C90.0782 40.072 89.8622 40.0507 89.6489 40.008C89.4409 39.9707 89.2462 39.9173 89.0649 39.848C88.8889 39.7733 88.7369 39.6827 88.6089 39.576L88.8409 39.072C88.9742 39.1733 89.1209 39.256 89.2809 39.32C89.4462 39.384 89.6142 39.432 89.7849 39.464C89.9609 39.4907 90.1289 39.504 90.2889 39.504C90.6196 39.504 90.8729 39.4533 91.0489 39.352C91.2302 39.2507 91.3209 39.1093 91.3209 38.928C91.3209 38.7733 91.2676 38.656 91.1609 38.576C91.0596 38.4907 90.8889 38.4267 90.6489 38.384L89.8249 38.24C89.4569 38.1707 89.1796 38.0453 88.9929 37.864C88.8116 37.6827 88.7209 37.4453 88.7209 37.152C88.7209 36.9173 88.7849 36.712 88.9129 36.536C89.0462 36.36 89.2356 36.224 89.4809 36.128C89.7262 36.0267 90.0196 35.976 90.3609 35.976C90.5476 35.976 90.7369 35.9947 90.9289 36.032C91.1262 36.0693 91.3076 36.1253 91.4729 36.2C91.6436 36.2693 91.7822 36.3573 91.8889 36.464L91.6489 36.968C91.5422 36.8667 91.4142 36.7867 91.2649 36.728C91.1209 36.664 90.9689 36.6187 90.8089 36.592C90.6542 36.56 90.5022 36.544 90.3529 36.544C90.0436 36.544 89.8036 36.5973 89.6329 36.704C89.4622 36.8053 89.3769 36.9493 89.3769 37.136C89.3769 37.2853 89.4249 37.4027 89.5209 37.488C89.6222 37.5733 89.7849 37.6373 90.0089 37.68L90.8089 37.824C91.2036 37.8987 91.4969 38.024 91.6889 38.2C91.8809 38.3707 91.9769 38.608 91.9769 38.912C91.9769 39.1467 91.9076 39.352 91.7689 39.528C91.6302 39.6987 91.4356 39.832 91.1849 39.928C90.9342 40.024 90.6382 40.072 90.2969 40.072ZM92.8814 40.504L92.3214 40.352L94.3614 33.984L94.9134 34.136L92.8814 40.504ZM97.9627 40.072C97.424 40.072 96.9547 39.9573 96.5547 39.728C96.16 39.4933 95.856 39.16 95.6427 38.728C95.4293 38.2907 95.3227 37.7733 95.3227 37.176C95.3227 36.5787 95.4293 36.064 95.6427 35.632C95.856 35.2 96.16 34.8693 96.5547 34.64C96.9493 34.4053 97.4187 34.288 97.9627 34.288C98.3573 34.288 98.7173 34.3493 99.0427 34.472C99.368 34.5893 99.648 34.7627 99.8827 34.992L99.6027 35.552C99.3573 35.3333 99.104 35.176 98.8427 35.08C98.5867 34.984 98.2987 34.936 97.9787 34.936C97.3813 34.936 96.912 35.128 96.5707 35.512C96.2347 35.8907 96.0667 36.4453 96.0667 37.176C96.0667 37.9013 96.2347 38.4587 96.5707 38.848C96.9067 39.232 97.376 39.424 97.9787 39.424C98.2987 39.424 98.5867 39.376 98.8427 39.28C99.104 39.184 99.3573 39.0267 99.6027 38.808L99.8827 39.368C99.648 39.5973 99.368 39.7733 99.0427 39.896C98.7173 40.0133 98.3573 40.072 97.9627 40.072ZM102.614 40.072C102.14 40.072 101.78 39.9467 101.534 39.696C101.294 39.4453 101.174 39.088 101.174 38.624V36.632H100.374V36.048H101.198V34.872H101.886V36.048H103.302V36.632H101.886V38.56C101.886 38.864 101.953 39.0907 102.086 39.24C102.225 39.384 102.436 39.456 102.718 39.456C102.83 39.456 102.937 39.4453 103.038 39.424C103.145 39.4027 103.246 39.3707 103.342 39.328L103.454 39.888C103.348 39.9467 103.217 39.992 103.062 40.024C102.913 40.056 102.764 40.072 102.614 40.072ZM104.286 40V36.048H104.95V36.904C105.078 36.6107 105.27 36.384 105.526 36.224C105.782 36.0587 106.07 35.976 106.39 35.976C106.716 35.976 106.988 36.0347 107.206 36.152C107.425 36.264 107.588 36.44 107.694 36.68C107.806 36.9147 107.862 37.208 107.862 37.56V40H107.15V37.6C107.15 37.3867 107.121 37.2053 107.062 37.056C107.004 36.9067 106.905 36.792 106.766 36.712C106.633 36.6267 106.454 36.584 106.23 36.584C105.996 36.584 105.782 36.6373 105.59 36.744C105.404 36.8507 105.257 36.9947 105.15 37.176C105.049 37.3573 104.998 37.56 104.998 37.784V40H104.286Z" fill="black"/>
<path d="M19.72 53.072C19.4107 53.072 19.1173 53.048 18.84 53C18.5627 52.952 18.3093 52.88 18.08 52.784C17.8507 52.688 17.6507 52.5707 17.48 52.432L17.744 51.84C17.9253 51.984 18.1173 52.1013 18.32 52.192C18.528 52.2773 18.7467 52.3387 18.976 52.376C19.2107 52.4133 19.4587 52.432 19.72 52.432C20.1627 52.432 20.5013 52.344 20.736 52.168C20.976 51.992 21.096 51.752 21.096 51.448C21.096 51.288 21.056 51.1547 20.976 51.048C20.9013 50.9413 20.7813 50.8533 20.616 50.784C20.456 50.7147 20.248 50.6533 19.992 50.6L19.072 50.424C18.5547 50.3227 18.1813 50.144 17.952 49.888C17.7227 49.632 17.608 49.3093 17.608 48.92C17.608 48.5893 17.6987 48.304 17.88 48.064C18.0667 47.8187 18.3227 47.6293 18.648 47.496C18.9787 47.3573 19.3547 47.288 19.776 47.288C20.0427 47.288 20.2907 47.3147 20.52 47.368C20.7547 47.416 20.968 47.4907 21.16 47.592C21.3573 47.6933 21.5333 47.816 21.688 47.96L21.424 48.544C21.1947 48.32 20.944 48.1627 20.672 48.072C20.4 47.976 20.0987 47.928 19.768 47.928C19.4907 47.928 19.2427 47.968 19.024 48.048C18.8053 48.1227 18.632 48.2347 18.504 48.384C18.3813 48.528 18.32 48.7067 18.32 48.92C18.32 49.1547 18.3947 49.3413 18.544 49.48C18.6933 49.6133 18.9467 49.7173 19.304 49.792L20.216 49.968C20.76 50.0693 21.1627 50.24 21.424 50.48C21.6853 50.72 21.816 51.032 21.816 51.416C21.816 51.736 21.728 52.0213 21.552 52.272C21.3813 52.5227 21.1387 52.72 20.824 52.864C20.5147 53.0027 20.1467 53.072 19.72 53.072ZM22.882 48.096V47.304H23.746V48.096H22.882ZM22.962 53V49.048H23.674V53H22.962ZM24.8628 53V52.544L27.3668 49.416L27.4068 49.64H24.9188V49.048H28.0708V49.504L25.5428 52.656L25.5028 52.408H28.1588V53H24.8628ZM31.0691 53.072C30.6265 53.072 30.2425 52.992 29.9171 52.832C29.5971 52.6667 29.3518 52.432 29.1811 52.128C29.0105 51.8187 28.9251 51.4507 28.9251 51.024C28.9251 50.624 29.0051 50.272 29.1651 49.968C29.3251 49.6587 29.5518 49.416 29.8451 49.24C30.1385 49.064 30.4878 48.976 30.8931 48.976C31.2771 48.976 31.6025 49.0587 31.8691 49.224C32.1411 49.3893 32.3465 49.6213 32.4851 49.92C32.6291 50.2187 32.7011 50.5733 32.7011 50.984V51.216H29.4611V50.72H32.2371L32.0851 50.88C32.0851 50.4427 31.9811 50.1067 31.7731 49.872C31.5705 49.6373 31.2771 49.52 30.8931 49.52C30.6425 49.52 30.4185 49.5787 30.2211 49.696C30.0291 49.808 29.8798 49.968 29.7731 50.176C29.6665 50.384 29.6131 50.6373 29.6131 50.936V51.016C29.6131 51.336 29.6718 51.6053 29.7891 51.824C29.9065 52.0427 30.0745 52.208 30.2931 52.32C30.5118 52.432 30.7731 52.488 31.0771 52.488C31.2958 52.488 31.5171 52.4587 31.7411 52.4C31.9705 52.336 32.1838 52.224 32.3811 52.064L32.6211 52.576C32.4185 52.7467 32.1758 52.872 31.8931 52.952C31.6158 53.032 31.3411 53.072 31.0691 53.072Z" fill="#CE3439"/>
<path d="M60.048 53V51.832H57.416V51.296L60.016 47.36H60.728V51.232H61.512V51.832H60.728V53H60.048ZM60.072 51.232V48.24H60.104L58.04 51.368L57.984 51.232H60.072ZM63.8449 53.072C63.6369 53.072 63.4342 53.048 63.2369 53C63.0449 52.952 62.8609 52.88 62.6849 52.784C62.5142 52.6827 62.3542 52.56 62.2049 52.416L62.4769 51.872C62.6955 52.0907 62.9169 52.2427 63.1409 52.328C63.3649 52.408 63.6022 52.448 63.8529 52.448C64.1142 52.448 64.3435 52.4 64.5409 52.304C64.7435 52.2027 64.9142 52.056 65.0529 51.864C65.1915 51.6667 65.2955 51.424 65.3649 51.136C65.4342 50.848 65.4689 50.5173 65.4689 50.144V49.68H65.4609C65.4182 49.9307 65.3222 50.1493 65.1729 50.336C65.0289 50.5173 64.8502 50.656 64.6369 50.752C64.4235 50.848 64.1889 50.896 63.9329 50.896C63.5969 50.896 63.2982 50.8213 63.0369 50.672C62.7755 50.5227 62.5702 50.3147 62.4209 50.048C62.2769 49.7813 62.2049 49.472 62.2049 49.12C62.2049 48.768 62.2822 48.4533 62.4369 48.176C62.5915 47.8987 62.8049 47.6827 63.0769 47.528C63.3489 47.368 63.6609 47.288 64.0129 47.288C64.4715 47.288 64.8582 47.3973 65.1729 47.616C65.4875 47.8293 65.7249 48.1413 65.8849 48.552C66.0449 48.9627 66.1249 49.464 66.1249 50.056C66.1249 50.696 66.0342 51.2427 65.8529 51.696C65.6715 52.144 65.4102 52.4853 65.0689 52.72C64.7329 52.9547 64.3249 53.072 63.8449 53.072ZM64.0529 50.304C64.2875 50.304 64.4955 50.2533 64.6769 50.152C64.8582 50.0507 64.9995 49.9093 65.1009 49.728C65.2022 49.5467 65.2529 49.3387 65.2529 49.104C65.2529 48.8587 65.2022 48.6453 65.1009 48.464C65.0049 48.2827 64.8662 48.144 64.6849 48.048C64.5035 47.9467 64.2902 47.896 64.0449 47.896C63.8102 47.896 63.6049 47.9467 63.4289 48.048C63.2529 48.1493 63.1142 48.2907 63.0129 48.472C62.9169 48.6533 62.8689 48.864 62.8689 49.104C62.8689 49.3387 62.9195 49.5467 63.0209 49.728C63.1222 49.9093 63.2609 50.0507 63.4369 50.152C63.6129 50.2533 63.8182 50.304 64.0529 50.304ZM68.9938 53.072C68.5618 53.072 68.1964 52.9627 67.8978 52.744C67.5991 52.52 67.3724 52.1947 67.2178 51.768C67.0684 51.336 66.9938 50.8053 66.9938 50.176C66.9938 49.5467 67.0684 49.0187 67.2178 48.592C67.3724 48.1653 67.5991 47.8427 67.8978 47.624C68.1964 47.4 68.5618 47.288 68.9938 47.288C69.4364 47.288 69.8044 47.3973 70.0978 47.616C70.3911 47.8347 70.6124 48.1573 70.7618 48.584C70.9164 49.0107 70.9938 49.5387 70.9938 50.168C70.9938 50.7973 70.9164 51.328 70.7618 51.76C70.6124 52.192 70.3884 52.52 70.0898 52.744C69.7911 52.9627 69.4258 53.072 68.9938 53.072ZM68.9938 52.448C69.4311 52.448 69.7564 52.264 69.9698 51.896C70.1831 51.528 70.2898 50.952 70.2898 50.168C70.2898 49.3893 70.1831 48.8187 69.9698 48.456C69.7618 48.0933 69.4391 47.912 69.0018 47.912C68.5591 47.912 68.2311 48.096 68.0178 48.464C67.8044 48.8267 67.6978 49.3973 67.6978 50.176C67.6978 50.9493 67.8044 51.5227 68.0178 51.896C68.2311 52.264 68.5564 52.448 68.9938 52.448ZM73.817 53L75.905 49.976V50.24L73.929 47.36H74.753L76.353 49.712H76.313L77.913 47.36H78.737L76.745 50.24V49.976L78.841 53H78.009L76.297 50.496H76.353L74.641 53H73.817ZM84.3136 53V51.832H81.6816V51.296L84.2816 47.36H84.9936V51.232H85.7776V51.832H84.9936V53H84.3136ZM84.3376 51.232V48.24H84.3696L82.3056 51.368L82.2496 51.232H84.3376ZM88.4625 53.072C87.8332 53.072 87.3372 52.936 86.9745 52.664C86.6118 52.3867 86.4305 52.0027 86.4305 51.512C86.4305 51.2613 86.4785 51.04 86.5745 50.848C86.6758 50.6507 86.8145 50.4907 86.9905 50.368C87.1718 50.24 87.3798 50.1547 87.6145 50.112V50.12C87.4118 50.072 87.2305 49.984 87.0705 49.856C86.9158 49.728 86.7932 49.5733 86.7025 49.392C86.6118 49.2107 86.5665 49.0107 86.5665 48.792C86.5665 48.3227 86.7372 47.9547 87.0785 47.688C87.4252 47.4213 87.8865 47.288 88.4625 47.288C89.0385 47.288 89.4972 47.4213 89.8385 47.688C90.1852 47.9547 90.3585 48.3227 90.3585 48.792C90.3585 49.0053 90.3132 49.2053 90.2225 49.392C90.1318 49.5733 90.0065 49.728 89.8465 49.856C89.6918 49.984 89.5105 50.072 89.3025 50.12V50.112C89.5318 50.1493 89.7345 50.232 89.9105 50.36C90.0918 50.488 90.2332 50.6507 90.3345 50.848C90.4412 51.04 90.4945 51.2613 90.4945 51.512C90.4945 52.0027 90.3132 52.3867 89.9505 52.664C89.5932 52.936 89.0972 53.072 88.4625 53.072ZM88.4625 52.472C88.9052 52.472 89.2412 52.3867 89.4705 52.216C89.7052 52.0453 89.8225 51.7947 89.8225 51.464C89.8225 51.1333 89.7052 50.88 89.4705 50.704C89.2412 50.528 88.9052 50.44 88.4625 50.44C88.0198 50.44 87.6812 50.528 87.4465 50.704C87.2172 50.88 87.1025 51.1333 87.1025 51.464C87.1025 51.7947 87.2172 52.0453 87.4465 52.216C87.6812 52.3867 88.0198 52.472 88.4625 52.472ZM88.4625 49.84C88.8465 49.84 89.1478 49.7547 89.3665 49.584C89.5852 49.408 89.6945 49.1653 89.6945 48.856C89.6945 48.552 89.5852 48.3147 89.3665 48.144C89.1478 47.968 88.8465 47.88 88.4625 47.88C88.0838 47.88 87.7852 47.968 87.5665 48.144C87.3478 48.3147 87.2385 48.552 87.2385 48.856C87.2385 49.1653 87.3478 49.408 87.5665 49.584C87.7852 49.7547 88.0838 49.84 88.4625 49.84ZM93.2594 53.072C92.8274 53.072 92.462 52.9627 92.1634 52.744C91.8647 52.52 91.638 52.1947 91.4834 51.768C91.334 51.336 91.2594 50.8053 91.2594 50.176C91.2594 49.5467 91.334 49.0187 91.4834 48.592C91.638 48.1653 91.8647 47.8427 92.1634 47.624C92.462 47.4 92.8274 47.288 93.2594 47.288C93.702 47.288 94.07 47.3973 94.3634 47.616C94.6567 47.8347 94.878 48.1573 95.0274 48.584C95.182 49.0107 95.2594 49.5387 95.2594 50.168C95.2594 50.7973 95.182 51.328 95.0274 51.76C94.878 52.192 94.654 52.52 94.3554 52.744C94.0567 52.9627 93.6914 53.072 93.2594 53.072ZM93.2594 52.448C93.6967 52.448 94.022 52.264 94.2354 51.896C94.4487 51.528 94.5554 50.952 94.5554 50.168C94.5554 49.3893 94.4487 48.8187 94.2354 48.456C94.0274 48.0933 93.7047 47.912 93.2674 47.912C92.8247 47.912 92.4967 48.096 92.2834 48.464C92.07 48.8267 91.9634 49.3973 91.9634 50.176C91.9634 50.9493 92.07 51.5227 92.2834 51.896C92.4967 52.264 92.822 52.448 93.2594 52.448ZM98.0826 53L100.171 49.976V50.24L98.1946 47.36H99.0186L100.619 49.712H100.579L102.179 47.36H103.003L101.011 50.24V49.976L103.107 53H102.275L100.563 50.496H100.619L98.9066 53H98.0826ZM108.579 53V51.832H105.947V51.296L108.547 47.36H109.259V51.232H110.043V51.832H109.259V53H108.579ZM108.603 51.232V48.24H108.635L106.571 51.368L106.515 51.232H108.603ZM112.728 53.072C112.296 53.072 111.931 52.9627 111.632 52.744C111.333 52.52 111.107 52.1947 110.952 51.768C110.803 51.336 110.728 50.8053 110.728 50.176C110.728 49.5467 110.803 49.0187 110.952 48.592C111.107 48.1653 111.333 47.8427 111.632 47.624C111.931 47.4 112.296 47.288 112.728 47.288C113.171 47.288 113.539 47.3973 113.832 47.616C114.125 47.8347 114.347 48.1573 114.496 48.584C114.651 49.0107 114.728 49.5387 114.728 50.168C114.728 50.7973 114.651 51.328 114.496 51.76C114.347 52.192 114.123 52.52 113.824 52.744C113.525 52.9627 113.16 53.072 112.728 53.072ZM112.728 52.448C113.165 52.448 113.491 52.264 113.704 51.896C113.917 51.528 114.024 50.952 114.024 50.168C114.024 49.3893 113.917 48.8187 113.704 48.456C113.496 48.0933 113.173 47.912 112.736 47.912C112.293 47.912 111.965 48.096 111.752 48.464C111.539 48.8267 111.432 49.3973 111.432 50.176C111.432 50.9493 111.539 51.5227 111.752 51.896C111.965 52.264 112.291 52.448 112.728 52.448ZM117.525 53.072C117.093 53.072 116.728 52.9627 116.429 52.744C116.13 52.52 115.904 52.1947 115.749 51.768C115.6 51.336 115.525 50.8053 115.525 50.176C115.525 49.5467 115.6 49.0187 115.749 48.592C115.904 48.1653 116.13 47.8427 116.429 47.624C116.728 47.4 117.093 47.288 117.525 47.288C117.968 47.288 118.336 47.3973 118.629 47.616C118.922 47.8347 119.144 48.1573 119.293 48.584C119.448 49.0107 119.525 49.5387 119.525 50.168C119.525 50.7973 119.448 51.328 119.293 51.76C119.144 52.192 118.92 52.52 118.621 52.744C118.322 52.9627 117.957 53.072 117.525 53.072ZM117.525 52.448C117.962 52.448 118.288 52.264 118.501 51.896C118.714 51.528 118.821 50.952 118.821 50.168C118.821 49.3893 118.714 48.8187 118.501 48.456C118.293 48.0933 117.97 47.912 117.533 47.912C117.09 47.912 116.762 48.096 116.549 48.464C116.336 48.8267 116.229 49.3973 116.229 50.176C116.229 50.9493 116.336 51.5227 116.549 51.896C116.762 52.264 117.088 52.448 117.525 52.448Z" fill="black"/>
<path d="M19.168 66L17.36 60.36H18.112L19.584 65.144H19.512L21.152 60.36H21.736L23.36 65.144H23.304L24.792 60.36H25.512L23.696 66H23.016L21.424 61.344H21.456L19.832 66H19.168ZM28.0223 66.072C27.5796 66.072 27.1956 65.992 26.8703 65.832C26.5503 65.6667 26.3049 65.432 26.1343 65.128C25.9636 64.8187 25.8783 64.4507 25.8783 64.024C25.8783 63.624 25.9583 63.272 26.1183 62.968C26.2783 62.6587 26.5049 62.416 26.7983 62.24C27.0916 62.064 27.4409 61.976 27.8463 61.976C28.2303 61.976 28.5556 62.0587 28.8223 62.224C29.0943 62.3893 29.2996 62.6213 29.4383 62.92C29.5823 63.2187 29.6543 63.5733 29.6543 63.984V64.216H26.4143V63.72H29.1903L29.0383 63.88C29.0383 63.4427 28.9343 63.1067 28.7263 62.872C28.5236 62.6373 28.2303 62.52 27.8463 62.52C27.5956 62.52 27.3716 62.5787 27.1743 62.696C26.9823 62.808 26.8329 62.968 26.7263 63.176C26.6196 63.384 26.5663 63.6373 26.5663 63.936V64.016C26.5663 64.336 26.6249 64.6053 26.7423 64.824C26.8596 65.0427 27.0276 65.208 27.2463 65.32C27.4649 65.432 27.7263 65.488 28.0303 65.488C28.2489 65.488 28.4703 65.4587 28.6943 65.4C28.9236 65.336 29.1369 65.224 29.3343 65.064L29.5743 65.576C29.3716 65.7467 29.1289 65.872 28.8463 65.952C28.5689 66.032 28.2943 66.072 28.0223 66.072ZM30.7492 61.096V60.304H31.6132V61.096H30.7492ZM30.8292 66V62.048H31.5412V66H30.8292ZM34.674 67.512C34.3593 67.512 34.0473 67.464 33.738 67.368C33.4287 67.2773 33.1647 67.152 32.946 66.992L33.17 66.44C33.3193 66.536 33.4767 66.6187 33.642 66.688C33.8073 66.7627 33.9753 66.816 34.146 66.848C34.322 66.8853 34.4953 66.904 34.666 66.904C35.0767 66.904 35.3967 66.8 35.626 66.592C35.8607 66.384 35.978 66.088 35.978 65.704V64.976H35.962C35.866 65.248 35.6927 65.4693 35.442 65.64C35.1913 65.8053 34.9007 65.888 34.57 65.888C34.1967 65.888 33.8713 65.808 33.594 65.648C33.3167 65.4827 33.1007 65.2533 32.946 64.96C32.7967 64.6667 32.722 64.3227 32.722 63.928C32.722 63.5387 32.7967 63.1973 32.946 62.904C33.1007 62.6107 33.3167 62.384 33.594 62.224C33.8713 62.0587 34.1967 61.976 34.57 61.976C34.9007 61.976 35.1913 62.0613 35.442 62.232C35.698 62.4027 35.874 62.6293 35.97 62.912H35.978V62.048H36.642V65.64C36.642 66.024 36.562 66.3547 36.402 66.632C36.2473 66.9147 36.0233 67.1307 35.73 67.28C35.4367 67.4347 35.0847 67.512 34.674 67.512ZM34.69 65.304C35.0793 65.304 35.386 65.1787 35.61 64.928C35.8393 64.6773 35.954 64.344 35.954 63.928C35.954 63.512 35.8393 63.1813 35.61 62.936C35.386 62.6853 35.0793 62.56 34.69 62.56C34.306 62.56 33.9993 62.6853 33.77 62.936C33.546 63.1813 33.434 63.512 33.434 63.928C33.434 64.344 33.546 64.6773 33.77 64.928C33.9993 65.1787 34.306 65.304 34.69 65.304ZM38.0636 66V60.36H38.7516V62.888C38.8689 62.6053 39.0529 62.384 39.3036 62.224C39.5596 62.0587 39.8476 61.976 40.1676 61.976C40.4929 61.976 40.7649 62.0347 40.9836 62.152C41.2022 62.264 41.3649 62.44 41.4716 62.68C41.5836 62.9147 41.6396 63.208 41.6396 63.56V66H40.9276V63.6C40.9276 63.3867 40.8956 63.2053 40.8316 63.056C40.7729 62.9067 40.6769 62.792 40.5436 62.712C40.4102 62.6267 40.2316 62.584 40.0076 62.584C39.7729 62.584 39.5622 62.6373 39.3756 62.744C39.1889 62.8507 39.0422 62.9947 38.9356 63.176C38.8289 63.3573 38.7756 63.56 38.7756 63.784V66H38.0636ZM44.7119 66.072C44.2373 66.072 43.8773 65.9467 43.6319 65.696C43.3919 65.4453 43.2719 65.088 43.2719 64.624V62.632H42.4719V62.048H43.2959V60.872H43.9839V62.048H45.3999V62.632H43.9839V64.56C43.9839 64.864 44.0506 65.0907 44.1839 65.24C44.3226 65.384 44.5333 65.456 44.8159 65.456C44.9279 65.456 45.0346 65.4453 45.1359 65.424C45.2426 65.4027 45.3439 65.3707 45.4399 65.328L45.5519 65.888C45.4453 65.9467 45.3146 65.992 45.1599 66.024C45.0106 66.056 44.8613 66.072 44.7119 66.072Z" fill="#CE3439"/>
<path d="M58.9157 66V65.392H60.4597V60.928L60.8357 60.984L59.1957 62.04L58.8757 61.488L60.6437 60.36H61.1637V65.392H62.5877V66H58.9157ZM65.5686 66.072C65.1152 66.072 64.7312 65.9627 64.4166 65.744C64.1019 65.5253 63.8619 65.2107 63.6966 64.8C63.5312 64.384 63.4486 63.8853 63.4486 63.304C63.4486 62.6533 63.5392 62.1067 63.7206 61.664C63.9019 61.216 64.1632 60.8747 64.5046 60.64C64.8459 60.4053 65.2566 60.288 65.7366 60.288C65.9499 60.288 66.1526 60.3147 66.3446 60.368C66.5366 60.416 66.7179 60.4907 66.8886 60.592C67.0592 60.6933 67.2192 60.8187 67.3686 60.968L67.1046 61.52C66.8966 61.3013 66.6779 61.1467 66.4486 61.056C66.2192 60.96 65.9819 60.912 65.7366 60.912C65.4752 60.912 65.2432 60.9627 65.0406 61.064C64.8379 61.16 64.6672 61.3067 64.5286 61.504C64.3899 61.696 64.2832 61.936 64.2086 62.224C64.1392 62.5067 64.1046 62.8373 64.1046 63.216V63.68H64.1126C64.1606 63.424 64.2566 63.2053 64.4006 63.024C64.5446 62.8373 64.7232 62.696 64.9366 62.6C65.1499 62.4987 65.3846 62.448 65.6406 62.448C65.9819 62.448 66.2806 62.5253 66.5366 62.68C66.7979 62.8293 67.0006 63.04 67.1446 63.312C67.2939 63.5787 67.3686 63.888 67.3686 64.24C67.3686 64.592 67.2912 64.9067 67.1366 65.184C66.9872 65.4613 66.7766 65.68 66.5046 65.84C66.2326 65.9947 65.9206 66.072 65.5686 66.072ZM65.5286 65.464C65.7632 65.464 65.9686 65.4133 66.1446 65.312C66.3206 65.2107 66.4566 65.0693 66.5526 64.888C66.6539 64.7067 66.7046 64.496 66.7046 64.256C66.7046 64.016 66.6539 63.808 66.5526 63.632C66.4566 63.4507 66.3206 63.3093 66.1446 63.208C65.9686 63.1067 65.7606 63.056 65.5206 63.056C65.2859 63.056 65.0779 63.1067 64.8966 63.208C64.7206 63.3093 64.5792 63.4507 64.4726 63.632C64.3712 63.808 64.3206 64.016 64.3206 64.256C64.3206 64.496 64.3712 64.7067 64.4726 64.888C64.5739 65.0693 64.7152 65.2107 64.8966 65.312C65.0779 65.4133 65.2886 65.464 65.5286 65.464ZM69.6614 67.536C69.2828 66.96 69.0028 66.3733 68.8214 65.776C68.6454 65.1733 68.5574 64.5467 68.5574 63.896C68.5574 63.2453 68.6454 62.6213 68.8214 62.024C69.0028 61.4267 69.2828 60.8373 69.6614 60.256L70.1734 60.44C69.9708 60.8187 69.8028 61.2 69.6694 61.584C69.5361 61.968 69.4348 62.352 69.3654 62.736C69.3014 63.1147 69.2694 63.5013 69.2694 63.896C69.2694 64.2853 69.3014 64.672 69.3654 65.056C69.4348 65.44 69.5361 65.8213 69.6694 66.2C69.8028 66.584 69.9708 66.968 70.1734 67.352L69.6614 67.536ZM71.2929 66V60.36H72.0049V62.904H72.0369L74.7169 60.36H75.6209L72.5089 63.312L72.5569 62.92L75.8129 66H74.8609L72.0369 63.352H72.0049V66H71.2929ZM78.1428 67.512C77.8281 67.512 77.5161 67.464 77.2068 67.368C76.8974 67.2773 76.6334 67.152 76.4148 66.992L76.6388 66.44C76.7881 66.536 76.9454 66.6187 77.1108 66.688C77.2761 66.7627 77.4441 66.816 77.6148 66.848C77.7908 66.8853 77.9641 66.904 78.1348 66.904C78.5454 66.904 78.8654 66.8 79.0948 66.592C79.3294 66.384 79.4468 66.088 79.4468 65.704V64.976H79.4308C79.3348 65.248 79.1614 65.4693 78.9108 65.64C78.6601 65.8053 78.3694 65.888 78.0388 65.888C77.6654 65.888 77.3401 65.808 77.0628 65.648C76.7854 65.4827 76.5694 65.2533 76.4148 64.96C76.2654 64.6667 76.1908 64.3227 76.1908 63.928C76.1908 63.5387 76.2654 63.1973 76.4148 62.904C76.5694 62.6107 76.7854 62.384 77.0628 62.224C77.3401 62.0587 77.6654 61.976 78.0388 61.976C78.3694 61.976 78.6601 62.0613 78.9108 62.232C79.1668 62.4027 79.3428 62.6293 79.4388 62.912H79.4468V62.048H80.1108V65.64C80.1108 66.024 80.0308 66.3547 79.8708 66.632C79.7161 66.9147 79.4921 67.1307 79.1988 67.28C78.9054 67.4347 78.5534 67.512 78.1428 67.512ZM78.1588 65.304C78.5481 65.304 78.8548 65.1787 79.0788 64.928C79.3081 64.6773 79.4228 64.344 79.4228 63.928C79.4228 63.512 79.3081 63.1813 79.0788 62.936C78.8548 62.6853 78.5481 62.56 78.1588 62.56C77.7748 62.56 77.4681 62.6853 77.2388 62.936C77.0148 63.1813 76.9028 63.512 76.9028 63.928C76.9028 64.344 77.0148 64.6773 77.2388 64.928C77.4681 65.1787 77.7748 65.304 78.1588 65.304ZM82.9883 66.072C82.7696 66.072 82.5536 66.0507 82.3403 66.008C82.1323 65.9707 81.9376 65.9173 81.7563 65.848C81.5803 65.7733 81.4283 65.6827 81.3003 65.576L81.5323 65.072C81.6656 65.1733 81.8123 65.256 81.9723 65.32C82.1376 65.384 82.3056 65.432 82.4763 65.464C82.6523 65.4907 82.8203 65.504 82.9803 65.504C83.311 65.504 83.5643 65.4533 83.7403 65.352C83.9216 65.2507 84.0123 65.1093 84.0123 64.928C84.0123 64.7733 83.959 64.656 83.8523 64.576C83.751 64.4907 83.5803 64.4267 83.3403 64.384L82.5163 64.24C82.1483 64.1707 81.871 64.0453 81.6843 63.864C81.503 63.6827 81.4123 63.4453 81.4123 63.152C81.4123 62.9173 81.4763 62.712 81.6043 62.536C81.7376 62.36 81.927 62.224 82.1723 62.128C82.4176 62.0267 82.711 61.976 83.0523 61.976C83.239 61.976 83.4283 61.9947 83.6203 62.032C83.8176 62.0693 83.999 62.1253 84.1643 62.2C84.335 62.2693 84.4736 62.3573 84.5803 62.464L84.3403 62.968C84.2336 62.8667 84.1056 62.7867 83.9563 62.728C83.8123 62.664 83.6603 62.6187 83.5003 62.592C83.3456 62.56 83.1936 62.544 83.0443 62.544C82.735 62.544 82.495 62.5973 82.3243 62.704C82.1536 62.8053 82.0683 62.9493 82.0683 63.136C82.0683 63.2853 82.1163 63.4027 82.2123 63.488C82.3136 63.5733 82.4763 63.6373 82.7003 63.68L83.5003 63.824C83.895 63.8987 84.1883 64.024 84.3803 64.2C84.5723 64.3707 84.6683 64.608 84.6683 64.912C84.6683 65.1467 84.599 65.352 84.4603 65.528C84.3216 65.6987 84.127 65.832 83.8763 65.928C83.6256 66.024 83.3296 66.072 82.9883 66.072ZM85.9408 67.536L85.4208 67.352C85.6288 66.9627 85.7995 66.576 85.9328 66.192C86.0661 65.8133 86.1648 65.4347 86.2288 65.056C86.2928 64.672 86.3248 64.2853 86.3248 63.896C86.3248 63.5067 86.2928 63.1227 86.2288 62.744C86.1648 62.36 86.0661 61.976 85.9328 61.592C85.7995 61.208 85.6288 60.824 85.4208 60.44L85.9408 60.256C86.3141 60.832 86.5888 61.4213 86.7648 62.024C86.9461 62.6213 87.0368 63.2453 87.0368 63.896C87.0368 64.5413 86.9461 65.1653 86.7648 65.768C86.5888 66.3653 86.3141 66.9547 85.9408 67.536Z" fill="black"/>
<defs>
<filter id="filter0_d_271_358" x="0.0999999" y="24" width="135.8" height="57.9" filterUnits="userSpaceOnUse" color-interpolation-filters="sRGB">
<feFlood flood-opacity="0" result="BackgroundImageFix"/>
<feColorMatrix in="SourceAlpha" type="matrix" values="0 0 0 0 0 0 0 0 0 0 0 0 0 0 0 0 0 0 127 0" result="hardAlpha"/>
<feOffset dy="4"/>
<feGaussianBlur stdDeviation="1.95"/>
<feComposite in2="hardAlpha" operator="out"/>
<feColorMatrix type="matrix" values="0 0 0 0 0 0 0 0 0 0 0 0 0 0 0 0 0 0 0.2 0"/>
<feBlend mode="normal" in2="BackgroundImageFix" result="effect1_dropShadow_271_358"/>
<feBlend mode="normal" in="SourceGraphic" in2="effect1_dropShadow_271_358" result="shape"/>
</filter>
<clipPath id="clip0_271_358">
<rect width="21.661" height="21.7031" fill="white" transform="translate(55.8809 2.41113)"/>
</clipPath>
</defs>
</svg>
