<svg width="180" height="19" viewBox="0 0 180 19" fill="none" xmlns="http://www.w3.org/2000/svg">
<path d="M7.01981 18.288C5.67581 18.288 4.38781 18.112 3.15581 17.76C1.92381 17.392 0.931813 16.92 0.179813 16.344L1.49981 13.416C2.21981 13.928 3.06781 14.352 4.04381 14.688C5.03581 15.008 6.03581 15.168 7.04381 15.168C7.81181 15.168 8.42781 15.096 8.89181 14.952C9.37181 14.792 9.72381 14.576 9.94781 14.304C10.1718 14.032 10.2838 13.72 10.2838 13.368C10.2838 12.92 10.1078 12.568 9.75581 12.312C9.40381 12.04 8.93981 11.824 8.36381 11.664C7.78781 11.488 7.14781 11.328 6.44381 11.184C5.75581 11.024 5.05981 10.832 4.35581 10.608C3.66781 10.384 3.03581 10.096 2.45981 9.744C1.88381 9.392 1.41181 8.928 1.04381 8.352C0.691813 7.776 0.515813 7.04 0.515813 6.144C0.515813 5.184 0.771813 4.312 1.28381 3.528C1.81181 2.728 2.59581 2.096 3.63581 1.632C4.69181 1.152 6.01181 0.912 7.59581 0.912C8.65181 0.912 9.69181 1.04 10.7158 1.296C11.7398 1.536 12.6438 1.904 13.4278 2.4L12.2278 5.352C11.4438 4.904 10.6598 4.576 9.87581 4.368C9.09181 4.144 8.32381 4.032 7.57181 4.032C6.81981 4.032 6.20381 4.12 5.72381 4.296C5.24381 4.472 4.89981 4.704 4.69181 4.992C4.48381 5.264 4.37981 5.584 4.37981 5.952C4.37981 6.384 4.55581 6.736 4.90781 7.008C5.25981 7.264 5.72381 7.472 6.29981 7.632C6.87581 7.792 7.50781 7.952 8.19581 8.112C8.89981 8.272 9.59581 8.456 10.2838 8.664C10.9878 8.872 11.6278 9.152 12.2038 9.504C12.7798 9.856 13.2438 10.32 13.5958 10.896C13.9638 11.472 14.1478 12.2 14.1478 13.08C14.1478 14.024 13.8838 14.888 13.3558 15.672C12.8278 16.456 12.0358 17.088 10.9798 17.568C9.93981 18.048 8.61981 18.288 7.01981 18.288ZM16.8045 18V1.2H20.6925V18H16.8045ZM24.6795 18V1.2H31.9515C33.4555 1.2 34.7515 1.448 35.8395 1.944C36.9275 2.424 37.7675 3.12 38.3595 4.032C38.9515 4.944 39.2475 6.032 39.2475 7.296C39.2475 8.544 38.9515 9.624 38.3595 10.536C37.7675 11.448 36.9275 12.152 35.8395 12.648C34.7515 13.128 33.4555 13.368 31.9515 13.368H26.8395L28.5675 11.616V18H24.6795ZM28.5675 12.048L26.8395 10.2H31.7355C32.9355 10.2 33.8315 9.944 34.4235 9.432C35.0155 8.92 35.3115 8.208 35.3115 7.296C35.3115 6.368 35.0155 5.648 34.4235 5.136C33.8315 4.624 32.9355 4.368 31.7355 4.368H26.8395L28.5675 2.52V12.048ZM42.0233 18V1.2H49.2953C50.7993 1.2 52.0953 1.448 53.1833 1.944C54.2713 2.424 55.1113 3.12 55.7033 4.032C56.2953 4.944 56.5913 6.032 56.5913 7.296C56.5913 8.544 56.2953 9.624 55.7033 10.536C55.1113 11.448 54.2713 12.152 53.1833 12.648C52.0953 13.128 50.7993 13.368 49.2953 13.368H44.1833L45.9113 11.616V18H42.0233ZM45.9113 12.048L44.1833 10.2H49.0793C50.2793 10.2 51.1753 9.944 51.7673 9.432C52.3593 8.92 52.6553 8.208 52.6553 7.296C52.6553 6.368 52.3593 5.648 51.7673 5.136C51.1753 4.624 50.2793 4.368 49.0793 4.368H44.1833L45.9113 2.52V12.048ZM62.943 7.968H71.031V10.992H62.943V7.968ZM63.231 14.88H72.375V18H59.367V1.2H72.063V4.32H63.231V14.88ZM75.4686 18V1.2H82.7406C84.2446 1.2 85.5406 1.448 86.6286 1.944C87.7166 2.424 88.5566 3.12 89.1486 4.032C89.7406 4.944 90.0366 6.032 90.0366 7.296C90.0366 8.544 89.7406 9.624 89.1486 10.536C88.5566 11.432 87.7166 12.12 86.6286 12.6C85.5406 13.08 84.2446 13.32 82.7406 13.32H77.6286L79.3566 11.616V18H75.4686ZM86.1486 18L81.9486 11.904H86.1006L90.3486 18H86.1486ZM79.3566 12.048L77.6286 10.224H82.5246C83.7246 10.224 84.6206 9.968 85.2126 9.456C85.8046 8.928 86.1006 8.208 86.1006 7.296C86.1006 6.368 85.8046 5.648 85.2126 5.136C84.6206 4.624 83.7246 4.368 82.5246 4.368H77.6286L79.3566 2.52V12.048ZM108.026 18.288C106.698 18.288 105.474 18.08 104.354 17.664C103.25 17.232 102.282 16.624 101.45 15.84C100.634 15.056 99.9939 14.136 99.5299 13.08C99.0819 12.024 98.8579 10.864 98.8579 9.6C98.8579 8.336 99.0819 7.176 99.5299 6.12C99.9939 5.064 100.642 4.144 101.474 3.36C102.306 2.576 103.282 1.976 104.402 1.56C105.522 1.128 106.754 0.912 108.098 0.912C109.586 0.912 110.922 1.16 112.106 1.656C113.306 2.152 114.314 2.872 115.13 3.816L112.634 6.12C112.026 5.48 111.362 5.008 110.642 4.704C109.922 4.384 109.138 4.224 108.29 4.224C107.474 4.224 106.73 4.352 106.058 4.608C105.386 4.864 104.802 5.232 104.306 5.712C103.826 6.192 103.45 6.76 103.178 7.416C102.922 8.072 102.794 8.8 102.794 9.6C102.794 10.384 102.922 11.104 103.178 11.76C103.45 12.416 103.826 12.992 104.306 13.488C104.802 13.968 105.378 14.336 106.034 14.592C106.706 14.848 107.442 14.976 108.242 14.976C109.01 14.976 109.754 14.856 110.474 14.616C111.21 14.36 111.922 13.936 112.61 13.344L114.818 16.152C113.906 16.84 112.842 17.368 111.626 17.736C110.426 18.104 109.226 18.288 108.026 18.288ZM111.266 15.648V9.336H114.818V16.152L111.266 15.648ZM118.43 18V1.2H122.318V14.832H130.742V18H118.43ZM130.8 18L138.288 1.2H142.128L149.64 18H145.56L139.416 3.168H140.952L134.784 18H130.8ZM134.544 14.4L135.576 11.448H144.216L145.272 14.4H134.544ZM156.903 18.288C155.559 18.288 154.271 18.112 153.039 17.76C151.807 17.392 150.815 16.92 150.063 16.344L151.383 13.416C152.103 13.928 152.951 14.352 153.927 14.688C154.919 15.008 155.919 15.168 156.927 15.168C157.695 15.168 158.311 15.096 158.775 14.952C159.255 14.792 159.607 14.576 159.831 14.304C160.055 14.032 160.167 13.72 160.167 13.368C160.167 12.92 159.991 12.568 159.639 12.312C159.287 12.04 158.823 11.824 158.247 11.664C157.671 11.488 157.031 11.328 156.327 11.184C155.639 11.024 154.943 10.832 154.239 10.608C153.551 10.384 152.919 10.096 152.343 9.744C151.767 9.392 151.295 8.928 150.927 8.352C150.575 7.776 150.399 7.04 150.399 6.144C150.399 5.184 150.655 4.312 151.167 3.528C151.695 2.728 152.479 2.096 153.519 1.632C154.575 1.152 155.895 0.912 157.479 0.912C158.535 0.912 159.575 1.04 160.599 1.296C161.623 1.536 162.527 1.904 163.311 2.4L162.111 5.352C161.327 4.904 160.543 4.576 159.759 4.368C158.975 4.144 158.207 4.032 157.455 4.032C156.703 4.032 156.087 4.12 155.607 4.296C155.127 4.472 154.783 4.704 154.575 4.992C154.367 5.264 154.263 5.584 154.263 5.952C154.263 6.384 154.439 6.736 154.791 7.008C155.143 7.264 155.607 7.472 156.183 7.632C156.759 7.792 157.391 7.952 158.079 8.112C158.783 8.272 159.479 8.456 160.167 8.664C160.871 8.872 161.511 9.152 162.087 9.504C162.663 9.856 163.127 10.32 163.479 10.896C163.847 11.472 164.031 12.2 164.031 13.08C164.031 14.024 163.767 14.888 163.239 15.672C162.711 16.456 161.919 17.088 160.863 17.568C159.823 18.048 158.503 18.288 156.903 18.288ZM172.207 18.288C170.863 18.288 169.575 18.112 168.343 17.76C167.111 17.392 166.119 16.92 165.367 16.344L166.687 13.416C167.407 13.928 168.255 14.352 169.231 14.688C170.223 15.008 171.223 15.168 172.231 15.168C172.999 15.168 173.615 15.096 174.079 14.952C174.559 14.792 174.911 14.576 175.135 14.304C175.359 14.032 175.471 13.72 175.471 13.368C175.471 12.92 175.295 12.568 174.943 12.312C174.591 12.04 174.127 11.824 173.551 11.664C172.975 11.488 172.335 11.328 171.631 11.184C170.943 11.024 170.247 10.832 169.543 10.608C168.855 10.384 168.223 10.096 167.647 9.744C167.071 9.392 166.599 8.928 166.231 8.352C165.879 7.776 165.703 7.04 165.703 6.144C165.703 5.184 165.959 4.312 166.471 3.528C166.999 2.728 167.783 2.096 168.823 1.632C169.879 1.152 171.199 0.912 172.783 0.912C173.839 0.912 174.879 1.04 175.903 1.296C176.927 1.536 177.831 1.904 178.615 2.4L177.415 5.352C176.631 4.904 175.847 4.576 175.063 4.368C174.279 4.144 173.511 4.032 172.759 4.032C172.007 4.032 171.391 4.12 170.911 4.296C170.431 4.472 170.087 4.704 169.879 4.992C169.671 5.264 169.567 5.584 169.567 5.952C169.567 6.384 169.743 6.736 170.095 7.008C170.447 7.264 170.911 7.472 171.487 7.632C172.063 7.792 172.695 7.952 173.383 8.112C174.087 8.272 174.783 8.456 175.471 8.664C176.175 8.872 176.815 9.152 177.391 9.504C177.967 9.856 178.431 10.32 178.783 10.896C179.151 11.472 179.335 12.2 179.335 13.08C179.335 14.024 179.071 14.888 178.543 15.672C178.015 16.456 177.223 17.088 176.167 17.568C175.127 18.048 173.807 18.288 172.207 18.288Z" fill="black"/>
</svg>
