<svg width="45" height="30" viewBox="0 0 45 30" fill="none" xmlns="http://www.w3.org/2000/svg">
<path d="M11 29.4C8.78667 29.4 6.90667 28.84 5.36 27.72C3.84 26.5733 2.68 24.92 1.88 22.76C1.10667 20.6 0.72 17.96 0.72 14.84C0.72 11.6933 1.10667 9.05333 1.88 6.92C2.68 4.76 3.84 3.13333 5.36 2.04C6.90667 0.946665 8.78667 0.399999 11 0.399999C13.24 0.399999 15.12 0.946665 16.64 2.04C18.1867 3.13333 19.3467 4.74667 20.12 6.88C20.8933 9.01333 21.28 11.6533 21.28 14.8C21.28 17.92 20.88 20.5733 20.08 22.76C19.3067 24.92 18.16 26.5733 16.64 27.72C15.12 28.84 13.24 29.4 11 29.4ZM11 25.2C12.8133 25.2 14.1467 24.3733 15 22.72C15.88 21.04 16.32 18.4 16.32 14.8C16.32 11.2267 15.88 8.64 15 7.04C14.1467 5.41333 12.8133 4.6 11 4.6C9.21333 4.6 7.88 5.41333 7 7.04C6.12 8.64 5.68 11.24 5.68 14.84C5.68 18.4133 6.12 21.04 7 22.72C7.88 24.3733 9.21333 25.2 11 25.2ZM26.1844 29V25.2L35.3044 15.48C36.131 14.6 36.7844 13.7867 37.2644 13.04C37.771 12.2933 38.1444 11.5733 38.3844 10.88C38.6244 10.1867 38.7444 9.49333 38.7444 8.8C38.7444 7.46667 38.3177 6.45333 37.4644 5.76C36.6377 5.06666 35.4244 4.72 33.8244 4.72C32.571 4.72 31.3444 4.96 30.1444 5.44C28.971 5.89333 27.8377 6.61333 26.7444 7.6L25.0244 3.76C26.1444 2.74667 27.5444 1.93333 29.2244 1.32C30.9044 0.706665 32.651 0.399999 34.4644 0.399999C36.491 0.399999 38.1977 0.706665 39.5844 1.32C40.971 1.93333 42.0244 2.82667 42.7444 4C43.4644 5.17333 43.8244 6.6 43.8244 8.28C43.8244 9.13333 43.7177 9.97333 43.5044 10.8C43.3177 11.6 43.011 12.4 42.5844 13.2C42.1844 14 41.6644 14.8267 41.0244 15.68C40.411 16.5067 39.6644 17.3733 38.7844 18.28L31.2644 26.12V24.76H44.9044V29H26.1844Z" fill="white"/>
</svg>
