<svg width="24" height="24" viewBox="0 0 24 24" fill="none" xmlns="http://www.w3.org/2000/svg">
<mask id="path-1-inside-1_243_292" fill="white">
<path d="M24 12C24 18.6274 18.6274 24 12 24C5.37258 24 0 18.6274 0 12C0 5.37258 5.37258 0 12 0C18.6274 0 24 5.37258 24 12ZM2.31547 12C2.31547 17.3486 6.65138 21.6845 12 21.6845C17.3486 21.6845 21.6845 17.3486 21.6845 12C21.6845 6.65138 17.3486 2.31547 12 2.31547C6.65138 2.31547 2.31547 6.65138 2.31547 12Z"/>
</mask>
<path d="M24 12C24 18.6274 18.6274 24 12 24C5.37258 24 0 18.6274 0 12C0 5.37258 5.37258 0 12 0C18.6274 0 24 5.37258 24 12ZM2.31547 12C2.31547 17.3486 6.65138 21.6845 12 21.6845C17.3486 21.6845 21.6845 17.3486 21.6845 12C21.6845 6.65138 17.3486 2.31547 12 2.31547C6.65138 2.31547 2.31547 6.65138 2.31547 12Z" stroke="#5E4E4E" stroke-width="3.09677" mask="url(#path-1-inside-1_243_292)"/>
<circle cx="11.9997" cy="11.9997" r="9.67742" fill="black"/>
<path d="M9.06491 15.277C8.56324 15.277 8.13898 15.15 7.79214 14.8961C7.45149 14.6359 7.19136 14.2581 7.01175 13.7626C6.83833 13.261 6.75162 12.6447 6.75162 11.9139C6.75162 11.183 6.83833 10.5699 7.01175 10.0744C7.19136 9.57271 7.45149 9.19491 7.79214 8.94097C8.13898 8.68704 8.56324 8.56007 9.06491 8.56007C9.57278 8.56007 9.99704 8.68704 10.3377 8.94097C10.6845 9.19491 10.9447 9.56962 11.1181 10.0651C11.2915 10.5606 11.3782 11.1737 11.3782 11.9046C11.3782 12.6354 11.2884 13.2517 11.1088 13.7534C10.9354 14.255 10.6752 14.6359 10.3284 14.8961C9.98775 15.15 9.56659 15.277 9.06491 15.277ZM9.06491 14.5709C9.57898 14.5709 9.95988 14.3572 10.2076 13.9299C10.4554 13.4963 10.5792 12.8212 10.5792 11.9046C10.5792 10.9941 10.4554 10.3283 10.2076 9.90717C9.95988 9.47981 9.57898 9.26613 9.06491 9.26613C8.55085 9.26613 8.16995 9.47981 7.9222 9.90717C7.67446 10.3345 7.55059 11.0034 7.55059 11.9139C7.55059 12.8181 7.67446 13.487 7.9222 13.9206C8.16995 14.3541 8.55085 14.5709 9.06491 14.5709ZM14.8584 15.277C14.332 15.277 13.8861 15.15 13.5206 14.8961C13.1614 14.6421 12.8858 14.2767 12.6938 13.7998C12.5018 13.3229 12.4058 12.7438 12.4058 12.0625C12.4058 11.3131 12.5111 10.6783 12.7217 10.158C12.9323 9.63775 13.2357 9.24136 13.6321 8.96884C14.0347 8.69633 14.5116 8.56007 15.0628 8.56007C15.3044 8.56007 15.5366 8.59104 15.7596 8.65297C15.9888 8.71491 16.2024 8.80471 16.4006 8.92239C16.5988 9.04007 16.7784 9.18252 16.9395 9.34975L16.6422 9.9722C16.4068 9.72446 16.156 9.54484 15.8897 9.43336C15.6233 9.32187 15.3477 9.26613 15.0628 9.26613C14.7532 9.26613 14.4806 9.32497 14.2453 9.44265C14.0161 9.55413 13.821 9.72446 13.66 9.95362C13.499 10.1766 13.3751 10.4553 13.2884 10.7897C13.2079 11.1242 13.1676 11.5113 13.1676 11.951V12.6014H13.149C13.1986 12.2793 13.307 12.0068 13.4742 11.7838C13.6414 11.5546 13.852 11.3812 14.1059 11.2636C14.3599 11.1397 14.6417 11.0777 14.9513 11.0777C15.3415 11.0777 15.6853 11.1645 15.9826 11.3379C16.2861 11.5113 16.5214 11.7559 16.6886 12.0718C16.8621 12.3815 16.9488 12.7407 16.9488 13.1495C16.9488 13.5583 16.859 13.9237 16.6793 14.2457C16.5059 14.5678 16.2613 14.8217 15.9454 15.0076C15.6295 15.1872 15.2672 15.277 14.8584 15.277ZM14.812 14.5895C15.0845 14.5895 15.323 14.5306 15.5273 14.413C15.7379 14.2953 15.899 14.1312 16.0104 13.9206C16.1281 13.7038 16.187 13.453 16.187 13.1681C16.187 12.8894 16.1281 12.6447 16.0104 12.4341C15.899 12.2236 15.7379 12.0594 15.5273 11.9417C15.323 11.8179 15.0845 11.7559 14.812 11.7559C14.5333 11.7559 14.2886 11.8179 14.0781 11.9417C13.8737 12.0594 13.7095 12.2236 13.5857 12.4341C13.468 12.6447 13.4092 12.8894 13.4092 13.1681C13.4092 13.453 13.468 13.7038 13.5857 13.9206C13.7033 14.1312 13.8675 14.2953 14.0781 14.413C14.2886 14.5306 14.5333 14.5895 14.812 14.5895Z" fill="white"/>
</svg>
