<svg width="149" height="28" viewBox="0 0 149 28" fill="none" xmlns="http://www.w3.org/2000/svg">
<path d="M1.764 10V2.32L2.604 3.16H0.084V1.6H3.708V10H1.764ZM8.76722 10.144C8.07922 10.144 7.46322 9.976 6.91922 9.64C6.37522 9.296 5.94722 8.8 5.63522 8.152C5.32322 7.504 5.16722 6.72 5.16722 5.8C5.16722 4.88 5.32322 4.096 5.63522 3.448C5.94722 2.8 6.37522 2.308 6.91922 1.972C7.46322 1.628 8.07922 1.456 8.76722 1.456C9.46322 1.456 10.0792 1.628 10.6152 1.972C11.1592 2.308 11.5872 2.8 11.8992 3.448C12.2112 4.096 12.3672 4.88 12.3672 5.8C12.3672 6.72 12.2112 7.504 11.8992 8.152C11.5872 8.8 11.1592 9.296 10.6152 9.64C10.0792 9.976 9.46322 10.144 8.76722 10.144ZM8.76722 8.5C9.09522 8.5 9.37922 8.408 9.61922 8.224C9.86722 8.04 10.0592 7.748 10.1952 7.348C10.3392 6.948 10.4112 6.432 10.4112 5.8C10.4112 5.168 10.3392 4.652 10.1952 4.252C10.0592 3.852 9.86722 3.56 9.61922 3.376C9.37922 3.192 9.09522 3.1 8.76722 3.1C8.44722 3.1 8.16322 3.192 7.91522 3.376C7.67522 3.56 7.48322 3.852 7.33922 4.252C7.20322 4.652 7.13522 5.168 7.13522 5.8C7.13522 6.432 7.20322 6.948 7.33922 7.348C7.48322 7.748 7.67522 8.04 7.91522 8.224C8.16322 8.408 8.44722 8.5 8.76722 8.5ZM16.9118 10.144C16.2238 10.144 15.6078 9.976 15.0638 9.64C14.5198 9.296 14.0918 8.8 13.7798 8.152C13.4678 7.504 13.3118 6.72 13.3118 5.8C13.3118 4.88 13.4678 4.096 13.7798 3.448C14.0918 2.8 14.5198 2.308 15.0638 1.972C15.6078 1.628 16.2238 1.456 16.9118 1.456C17.6078 1.456 18.2238 1.628 18.7598 1.972C19.3038 2.308 19.7318 2.8 20.0438 3.448C20.3558 4.096 20.5118 4.88 20.5118 5.8C20.5118 6.72 20.3558 7.504 20.0438 8.152C19.7318 8.8 19.3038 9.296 18.7598 9.64C18.2238 9.976 17.6078 10.144 16.9118 10.144ZM16.9118 8.5C17.2398 8.5 17.5238 8.408 17.7638 8.224C18.0118 8.04 18.2038 7.748 18.3398 7.348C18.4838 6.948 18.5558 6.432 18.5558 5.8C18.5558 5.168 18.4838 4.652 18.3398 4.252C18.2038 3.852 18.0118 3.56 17.7638 3.376C17.5238 3.192 17.2398 3.1 16.9118 3.1C16.5918 3.1 16.3078 3.192 16.0598 3.376C15.8198 3.56 15.6278 3.852 15.4838 4.252C15.3478 4.652 15.2798 5.168 15.2798 5.8C15.2798 6.432 15.3478 6.948 15.4838 7.348C15.6278 7.748 15.8198 8.04 16.0598 8.224C16.3078 8.408 16.5918 8.5 16.9118 8.5ZM25.0563 10.144C24.3683 10.144 23.7523 9.976 23.2083 9.64C22.6643 9.296 22.2363 8.8 21.9243 8.152C21.6123 7.504 21.4563 6.72 21.4563 5.8C21.4563 4.88 21.6123 4.096 21.9243 3.448C22.2363 2.8 22.6643 2.308 23.2083 1.972C23.7523 1.628 24.3683 1.456 25.0563 1.456C25.7523 1.456 26.3683 1.628 26.9043 1.972C27.4483 2.308 27.8763 2.8 28.1883 3.448C28.5003 4.096 28.6563 4.88 28.6563 5.8C28.6563 6.72 28.5003 7.504 28.1883 8.152C27.8763 8.8 27.4483 9.296 26.9043 9.64C26.3683 9.976 25.7523 10.144 25.0563 10.144ZM25.0563 8.5C25.3843 8.5 25.6683 8.408 25.9083 8.224C26.1563 8.04 26.3483 7.748 26.4843 7.348C26.6283 6.948 26.7003 6.432 26.7003 5.8C26.7003 5.168 26.6283 4.652 26.4843 4.252C26.3483 3.852 26.1563 3.56 25.9083 3.376C25.6683 3.192 25.3843 3.1 25.0563 3.1C24.7363 3.1 24.4523 3.192 24.2043 3.376C23.9643 3.56 23.7723 3.852 23.6283 4.252C23.4923 4.652 23.4243 5.168 23.4243 5.8C23.4243 6.432 23.4923 6.948 23.6283 7.348C23.7723 7.748 23.9643 8.04 24.2043 8.224C24.4523 8.408 24.7363 8.5 25.0563 8.5ZM38.2648 3.448C38.7768 3.448 39.2288 3.552 39.6208 3.76C40.0208 3.96 40.3328 4.272 40.5568 4.696C40.7888 5.112 40.9048 5.648 40.9048 6.304V10H39.0328V6.592C39.0328 6.072 38.9248 5.688 38.7088 5.44C38.4928 5.192 38.1888 5.068 37.7968 5.068C37.5248 5.068 37.2808 5.132 37.0648 5.26C36.8488 5.38 36.6808 5.564 36.5608 5.812C36.4408 6.06 36.3808 6.376 36.3808 6.76V10H34.5088V6.592C34.5088 6.072 34.4008 5.688 34.1848 5.44C33.9768 5.192 33.6768 5.068 33.2848 5.068C33.0128 5.068 32.7688 5.132 32.5528 5.26C32.3368 5.38 32.1688 5.564 32.0488 5.812C31.9288 6.06 31.8688 6.376 31.8688 6.76V10H29.9968V3.544H31.7848V5.308L31.4488 4.792C31.6728 4.352 31.9888 4.02 32.3968 3.796C32.8128 3.564 33.2848 3.448 33.8128 3.448C34.4048 3.448 34.9208 3.6 35.3608 3.904C35.8088 4.2 36.1048 4.656 36.2488 5.272L35.5888 5.092C35.8048 4.588 36.1488 4.188 36.6208 3.892C37.1008 3.596 37.6488 3.448 38.2648 3.448ZM42.5828 10V1.096H44.4548V10H42.5828ZM51.4626 10V3.184H48.7746V1.6H56.0946V3.184H53.4066V10H51.4626ZM60.6404 10V8.74L60.5204 8.464V6.208C60.5204 5.808 60.3964 5.496 60.1484 5.272C59.9084 5.048 59.5364 4.936 59.0324 4.936C58.6884 4.936 58.3484 4.992 58.0124 5.104C57.6844 5.208 57.4044 5.352 57.1724 5.536L56.5004 4.228C56.8524 3.98 57.2764 3.788 57.7724 3.652C58.2684 3.516 58.7724 3.448 59.2844 3.448C60.2684 3.448 61.0324 3.68 61.5764 4.144C62.1204 4.608 62.3924 5.332 62.3924 6.316V10H60.6404ZM58.6724 10.096C58.1684 10.096 57.7364 10.012 57.3764 9.844C57.0164 9.668 56.7404 9.432 56.5484 9.136C56.3564 8.84 56.2604 8.508 56.2604 8.14C56.2604 7.756 56.3524 7.42 56.5364 7.132C56.7284 6.844 57.0284 6.62 57.4364 6.46C57.8444 6.292 58.3764 6.208 59.0324 6.208H60.7484V7.3H59.2364C58.7964 7.3 58.4924 7.372 58.3244 7.516C58.1644 7.66 58.0844 7.84 58.0844 8.056C58.0844 8.296 58.1764 8.488 58.3604 8.632C58.5524 8.768 58.8124 8.836 59.1404 8.836C59.4524 8.836 59.7324 8.764 59.9804 8.62C60.2284 8.468 60.4084 8.248 60.5204 7.96L60.8084 8.824C60.6724 9.24 60.4244 9.556 60.0644 9.772C59.7044 9.988 59.2404 10.096 58.6724 10.096ZM72.3547 3.448C72.8667 3.448 73.3187 3.552 73.7107 3.76C74.1107 3.96 74.4227 4.272 74.6467 4.696C74.8787 5.112 74.9947 5.648 74.9947 6.304V10H73.1227V6.592C73.1227 6.072 73.0147 5.688 72.7987 5.44C72.5827 5.192 72.2787 5.068 71.8867 5.068C71.6147 5.068 71.3707 5.132 71.1547 5.26C70.9387 5.38 70.7707 5.564 70.6507 5.812C70.5307 6.06 70.4707 6.376 70.4707 6.76V10H68.5987V6.592C68.5987 6.072 68.4907 5.688 68.2747 5.44C68.0667 5.192 67.7667 5.068 67.3747 5.068C67.1027 5.068 66.8587 5.132 66.6427 5.26C66.4267 5.38 66.2587 5.564 66.1387 5.812C66.0187 6.06 65.9587 6.376 65.9587 6.76V10H64.0867V3.544H65.8747V5.308L65.5387 4.792C65.7627 4.352 66.0787 4.02 66.4867 3.796C66.9027 3.564 67.3747 3.448 67.9027 3.448C68.4947 3.448 69.0107 3.6 69.4507 3.904C69.8987 4.2 70.1947 4.656 70.3387 5.272L69.6787 5.092C69.8947 4.588 70.2387 4.188 70.7107 3.892C71.1907 3.596 71.7387 3.448 72.3547 3.448ZM80.4886 10.096C79.9446 10.096 79.4686 9.976 79.0606 9.736C78.6526 9.496 78.3326 9.132 78.1006 8.644C77.8766 8.148 77.7646 7.524 77.7646 6.772C77.7646 6.012 77.8726 5.388 78.0886 4.9C78.3046 4.412 78.6166 4.048 79.0246 3.808C79.4326 3.568 79.9206 3.448 80.4886 3.448C81.0966 3.448 81.6406 3.588 82.1206 3.868C82.6086 4.14 82.9926 4.524 83.2726 5.02C83.5606 5.516 83.7046 6.1 83.7046 6.772C83.7046 7.452 83.5606 8.04 83.2726 8.536C82.9926 9.032 82.6086 9.416 82.1206 9.688C81.6406 9.96 81.0966 10.096 80.4886 10.096ZM76.6726 12.328V3.544H78.4606V4.864L78.4246 6.784L78.5446 8.692V12.328H76.6726ZM80.1646 8.56C80.4766 8.56 80.7526 8.488 80.9926 8.344C81.2406 8.2 81.4366 7.996 81.5806 7.732C81.7326 7.46 81.8086 7.14 81.8086 6.772C81.8086 6.396 81.7326 6.076 81.5806 5.812C81.4366 5.548 81.2406 5.344 80.9926 5.2C80.7526 5.056 80.4766 4.984 80.1646 4.984C79.8526 4.984 79.5726 5.056 79.3246 5.2C79.0766 5.344 78.8806 5.548 78.7366 5.812C78.5926 6.076 78.5206 6.396 78.5206 6.772C78.5206 7.14 78.5926 7.46 78.7366 7.732C78.8806 7.996 79.0766 8.2 79.3246 8.344C79.5726 8.488 79.8526 8.56 80.1646 8.56ZM88.1618 10.096C87.4258 10.096 86.7778 9.952 86.2178 9.664C85.6658 9.376 85.2378 8.984 84.9338 8.488C84.6298 7.984 84.4778 7.412 84.4778 6.772C84.4778 6.124 84.6258 5.552 84.9218 5.056C85.2258 4.552 85.6378 4.16 86.1578 3.88C86.6778 3.592 87.2658 3.448 87.9218 3.448C88.5538 3.448 89.1218 3.584 89.6258 3.856C90.1378 4.12 90.5418 4.504 90.8378 5.008C91.1338 5.504 91.2818 6.1 91.2818 6.796C91.2818 6.868 91.2778 6.952 91.2698 7.048C91.2618 7.136 91.2538 7.22 91.2458 7.3H86.0018V6.208H90.2617L89.5418 6.532C89.5418 6.196 89.4738 5.904 89.3378 5.656C89.2018 5.408 89.0138 5.216 88.7738 5.08C88.5338 4.936 88.2538 4.864 87.9338 4.864C87.6138 4.864 87.3298 4.936 87.0818 5.08C86.8418 5.216 86.6538 5.412 86.5178 5.668C86.3818 5.916 86.3138 6.212 86.3138 6.556V6.844C86.3138 7.196 86.3898 7.508 86.5418 7.78C86.7018 8.044 86.9218 8.248 87.2018 8.392C87.4898 8.528 87.8258 8.596 88.2098 8.596C88.5538 8.596 88.8538 8.544 89.1098 8.44C89.3738 8.336 89.6138 8.18 89.8298 7.972L90.8258 9.052C90.5298 9.388 90.1578 9.648 89.7098 9.832C89.2618 10.008 88.7458 10.096 88.1618 10.096ZM92.5281 10V3.544H94.3161V5.368L94.0641 4.84C94.2561 4.384 94.5641 4.04 94.9881 3.808C95.4121 3.568 95.9281 3.448 96.5361 3.448V5.176C96.4561 5.168 96.3841 5.164 96.3201 5.164C96.2561 5.156 96.1881 5.152 96.1161 5.152C95.6041 5.152 95.1881 5.3 94.8681 5.596C94.5561 5.884 94.4001 6.336 94.4001 6.952V10H92.5281ZM103.014 4.984H107.058V6.496H103.014V4.984ZM103.158 8.44H107.73V10H101.226V1.6H107.574V3.16H103.158V8.44ZM110.839 10L108.127 3.544H110.059L112.315 9.1H111.355L113.695 3.544H115.495L112.771 10H110.839ZM116.259 10V3.544H118.131V10H116.259ZM117.195 2.644C116.851 2.644 116.571 2.544 116.355 2.344C116.139 2.144 116.031 1.896 116.031 1.6C116.031 1.304 116.139 1.056 116.355 0.856C116.571 0.655999 116.851 0.555999 117.195 0.555999C117.539 0.555999 117.819 0.651999 118.035 0.844C118.251 1.028 118.359 1.268 118.359 1.564C118.359 1.876 118.251 2.136 118.035 2.344C117.827 2.544 117.547 2.644 117.195 2.644ZM122.64 10.096C122.032 10.096 121.484 9.96 120.996 9.688C120.508 9.408 120.12 9.02 119.832 8.524C119.552 8.028 119.412 7.444 119.412 6.772C119.412 6.092 119.552 5.504 119.832 5.008C120.12 4.512 120.508 4.128 120.996 3.856C121.484 3.584 122.032 3.448 122.64 3.448C123.184 3.448 123.66 3.568 124.068 3.808C124.476 4.048 124.792 4.412 125.016 4.9C125.24 5.388 125.352 6.012 125.352 6.772C125.352 7.524 125.244 8.148 125.028 8.644C124.812 9.132 124.5 9.496 124.092 9.736C123.692 9.976 123.208 10.096 122.64 10.096ZM122.964 8.56C123.268 8.56 123.544 8.488 123.792 8.344C124.04 8.2 124.236 7.996 124.38 7.732C124.532 7.46 124.608 7.14 124.608 6.772C124.608 6.396 124.532 6.076 124.38 5.812C124.236 5.548 124.04 5.344 123.792 5.2C123.544 5.056 123.268 4.984 122.964 4.984C122.652 4.984 122.372 5.056 122.124 5.2C121.876 5.344 121.676 5.548 121.524 5.812C121.38 6.076 121.308 6.396 121.308 6.772C121.308 7.14 121.38 7.46 121.524 7.732C121.676 7.996 121.876 8.2 122.124 8.344C122.372 8.488 122.652 8.56 122.964 8.56ZM124.656 10V8.68L124.692 6.76L124.572 4.852V1.096H126.444V10H124.656ZM131.381 10.096C130.645 10.096 129.997 9.952 129.437 9.664C128.885 9.376 128.457 8.984 128.153 8.488C127.849 7.984 127.697 7.412 127.697 6.772C127.697 6.124 127.845 5.552 128.141 5.056C128.445 4.552 128.857 4.16 129.377 3.88C129.897 3.592 130.485 3.448 131.141 3.448C131.773 3.448 132.341 3.584 132.845 3.856C133.357 4.12 133.761 4.504 134.057 5.008C134.353 5.504 134.501 6.1 134.501 6.796C134.501 6.868 134.497 6.952 134.489 7.048C134.481 7.136 134.473 7.22 134.465 7.3H129.221V6.208H133.48L132.761 6.532C132.761 6.196 132.693 5.904 132.557 5.656C132.421 5.408 132.233 5.216 131.993 5.08C131.753 4.936 131.473 4.864 131.153 4.864C130.833 4.864 130.549 4.936 130.301 5.08C130.061 5.216 129.873 5.412 129.737 5.668C129.601 5.916 129.533 6.212 129.533 6.556V6.844C129.533 7.196 129.609 7.508 129.761 7.78C129.921 8.044 130.141 8.248 130.421 8.392C130.709 8.528 131.045 8.596 131.429 8.596C131.773 8.596 132.073 8.544 132.329 8.44C132.593 8.336 132.833 8.18 133.049 7.972L134.045 9.052C133.749 9.388 133.377 9.648 132.929 9.832C132.481 10.008 131.965 10.096 131.381 10.096ZM139.671 3.448C140.183 3.448 140.639 3.552 141.039 3.76C141.447 3.96 141.767 4.272 141.999 4.696C142.231 5.112 142.347 5.648 142.347 6.304V10H140.475V6.592C140.475 6.072 140.359 5.688 140.127 5.44C139.903 5.192 139.583 5.068 139.167 5.068C138.871 5.068 138.603 5.132 138.363 5.26C138.131 5.38 137.947 5.568 137.811 5.824C137.683 6.08 137.619 6.408 137.619 6.808V10H135.747V3.544H137.535V5.332L137.199 4.792C137.431 4.36 137.763 4.028 138.195 3.796C138.627 3.564 139.119 3.448 139.671 3.448ZM146.684 10.096C145.924 10.096 145.332 9.904 144.908 9.52C144.484 9.128 144.272 8.548 144.272 7.78V2.116H146.144V7.756C146.144 8.028 146.216 8.24 146.36 8.392C146.504 8.536 146.7 8.608 146.948 8.608C147.244 8.608 147.496 8.528 147.704 8.368L148.208 9.688C148.016 9.824 147.784 9.928 147.512 10C147.248 10.064 146.972 10.096 146.684 10.096ZM143.276 5.128V3.688H147.752V5.128H143.276ZM0.996 25V16.6H4.632C5.384 16.6 6.032 16.724 6.576 16.972C7.12 17.212 7.54 17.56 7.836 18.016C8.132 18.472 8.28 19.016 8.28 19.648C8.28 20.272 8.132 20.812 7.836 21.268C7.54 21.716 7.12 22.06 6.576 22.3C6.032 22.54 5.384 22.66 4.632 22.66H2.076L2.94 21.808V25H0.996ZM6.336 25L4.236 21.952H6.312L8.436 25H6.336ZM2.94 22.024L2.076 21.112H4.524C5.124 21.112 5.572 20.984 5.868 20.728C6.164 20.464 6.312 20.104 6.312 19.648C6.312 19.184 6.164 18.824 5.868 18.568C5.572 18.312 5.124 18.184 4.524 18.184H2.076L2.94 17.26V22.024ZM12.8922 25.096C12.1562 25.096 11.5082 24.952 10.9482 24.664C10.3962 24.376 9.96822 23.984 9.66422 23.488C9.36022 22.984 9.20822 22.412 9.20822 21.772C9.20822 21.124 9.35622 20.552 9.65222 20.056C9.95622 19.552 10.3682 19.16 10.8882 18.88C11.4082 18.592 11.9962 18.448 12.6522 18.448C13.2842 18.448 13.8522 18.584 14.3562 18.856C14.8682 19.12 15.2722 19.504 15.5682 20.008C15.8642 20.504 16.0122 21.1 16.0122 21.796C16.0122 21.868 16.0082 21.952 16.0002 22.048C15.9922 22.136 15.9842 22.22 15.9762 22.3H10.7322V21.208H14.9922L14.2722 21.532C14.2722 21.196 14.2042 20.904 14.0682 20.656C13.9322 20.408 13.7442 20.216 13.5042 20.08C13.2642 19.936 12.9842 19.864 12.6642 19.864C12.3442 19.864 12.0602 19.936 11.8122 20.08C11.5722 20.216 11.3842 20.412 11.2482 20.668C11.1122 20.916 11.0442 21.212 11.0442 21.556V21.844C11.0442 22.196 11.1202 22.508 11.2722 22.78C11.4322 23.044 11.6522 23.248 11.9322 23.392C12.2202 23.528 12.5562 23.596 12.9402 23.596C13.2842 23.596 13.5842 23.544 13.8402 23.44C14.1042 23.336 14.3442 23.18 14.5602 22.972L15.5562 24.052C15.2602 24.388 14.8882 24.648 14.4402 24.832C13.9922 25.008 13.4762 25.096 12.8922 25.096ZM20.3785 25.096C19.6825 25.096 19.0625 24.956 18.5185 24.676C17.9745 24.388 17.5465 23.992 17.2345 23.488C16.9305 22.984 16.7785 22.412 16.7785 21.772C16.7785 21.124 16.9305 20.552 17.2345 20.056C17.5465 19.552 17.9745 19.16 18.5185 18.88C19.0625 18.592 19.6825 18.448 20.3785 18.448C21.0585 18.448 21.6505 18.592 22.1545 18.88C22.6585 19.16 23.0305 19.564 23.2705 20.092L21.8185 20.872C21.6505 20.568 21.4385 20.344 21.1825 20.2C20.9345 20.056 20.6625 19.984 20.3665 19.984C20.0465 19.984 19.7585 20.056 19.5025 20.2C19.2465 20.344 19.0425 20.548 18.8905 20.812C18.7465 21.076 18.6745 21.396 18.6745 21.772C18.6745 22.148 18.7465 22.468 18.8905 22.732C19.0425 22.996 19.2465 23.2 19.5025 23.344C19.7585 23.488 20.0465 23.56 20.3665 23.56C20.6625 23.56 20.9345 23.492 21.1825 23.356C21.4385 23.212 21.6505 22.984 21.8185 22.672L23.2705 23.464C23.0305 23.984 22.6585 24.388 22.1545 24.676C21.6505 24.956 21.0585 25.096 20.3785 25.096ZM27.0821 25.096C26.3221 25.096 25.7301 24.904 25.3061 24.52C24.8821 24.128 24.6701 23.548 24.6701 22.78V17.116H26.5421V22.756C26.5421 23.028 26.6141 23.24 26.7581 23.392C26.9021 23.536 27.0981 23.608 27.3461 23.608C27.6421 23.608 27.8941 23.528 28.1021 23.368L28.6061 24.688C28.4141 24.824 28.1821 24.928 27.9101 25C27.6461 25.064 27.3701 25.096 27.0821 25.096ZM23.6741 20.128V18.688H28.1501V20.128H23.6741ZM33.617 25V23.74L33.497 23.464V21.208C33.497 20.808 33.373 20.496 33.125 20.272C32.885 20.048 32.513 19.936 32.009 19.936C31.665 19.936 31.325 19.992 30.989 20.104C30.661 20.208 30.381 20.352 30.149 20.536L29.477 19.228C29.829 18.98 30.253 18.788 30.749 18.652C31.245 18.516 31.749 18.448 32.261 18.448C33.245 18.448 34.009 18.68 34.553 19.144C35.097 19.608 35.369 20.332 35.369 21.316V25H33.617ZM31.649 25.096C31.145 25.096 30.713 25.012 30.353 24.844C29.993 24.668 29.717 24.432 29.525 24.136C29.333 23.84 29.237 23.508 29.237 23.14C29.237 22.756 29.329 22.42 29.513 22.132C29.705 21.844 30.005 21.62 30.413 21.46C30.821 21.292 31.353 21.208 32.009 21.208H33.725V22.3H32.213C31.773 22.3 31.469 22.372 31.301 22.516C31.141 22.66 31.061 22.84 31.061 23.056C31.061 23.296 31.153 23.488 31.337 23.632C31.529 23.768 31.789 23.836 32.117 23.836C32.429 23.836 32.709 23.764 32.957 23.62C33.205 23.468 33.385 23.248 33.497 22.96L33.785 23.824C33.649 24.24 33.401 24.556 33.041 24.772C32.681 24.988 32.217 25.096 31.649 25.096ZM40.9872 18.448C41.4992 18.448 41.9552 18.552 42.3552 18.76C42.7632 18.96 43.0832 19.272 43.3152 19.696C43.5472 20.112 43.6632 20.648 43.6632 21.304V25H41.7912V21.592C41.7912 21.072 41.6752 20.688 41.4432 20.44C41.2192 20.192 40.8992 20.068 40.4832 20.068C40.1872 20.068 39.9192 20.132 39.6792 20.26C39.4472 20.38 39.2632 20.568 39.1272 20.824C38.9992 21.08 38.9352 21.408 38.9352 21.808V25H37.0632V18.544H38.8512V20.332L38.5152 19.792C38.7472 19.36 39.0792 19.028 39.5112 18.796C39.9432 18.564 40.4352 18.448 40.9872 18.448ZM48.443 27.424C47.835 27.424 47.247 27.348 46.679 27.196C46.119 27.052 45.651 26.832 45.275 26.536L46.019 25.192C46.291 25.416 46.635 25.592 47.051 25.72C47.475 25.856 47.891 25.924 48.299 25.924C48.963 25.924 49.443 25.776 49.739 25.48C50.043 25.184 50.195 24.744 50.195 24.16V23.188L50.315 21.568L50.291 19.936V18.544H52.067V23.92C52.067 25.12 51.755 26.004 51.131 26.572C50.507 27.14 49.611 27.424 48.443 27.424ZM48.155 24.688C47.555 24.688 47.011 24.56 46.523 24.304C46.043 24.04 45.655 23.676 45.359 23.212C45.071 22.74 44.927 22.192 44.927 21.568C44.927 20.936 45.071 20.388 45.359 19.924C45.655 19.452 46.043 19.088 46.523 18.832C47.011 18.576 47.555 18.448 48.155 18.448C48.699 18.448 49.179 18.56 49.595 18.784C50.011 19 50.335 19.34 50.567 19.804C50.799 20.26 50.915 20.848 50.915 21.568C50.915 22.28 50.799 22.868 50.567 23.332C50.335 23.788 50.011 24.128 49.595 24.352C49.179 24.576 48.699 24.688 48.155 24.688ZM48.527 23.152C48.855 23.152 49.147 23.088 49.403 22.96C49.659 22.824 49.859 22.636 50.003 22.396C50.147 22.156 50.219 21.88 50.219 21.568C50.219 21.248 50.147 20.972 50.003 20.74C49.859 20.5 49.659 20.316 49.403 20.188C49.147 20.052 48.855 19.984 48.527 19.984C48.199 19.984 47.907 20.052 47.651 20.188C47.395 20.316 47.191 20.5 47.039 20.74C46.895 20.972 46.823 21.248 46.823 21.568C46.823 21.88 46.895 22.156 47.039 22.396C47.191 22.636 47.395 22.824 47.651 22.96C47.907 23.088 48.199 23.152 48.527 23.152ZM56.5333 25.096C55.9973 25.096 55.5173 24.992 55.0933 24.784C54.6773 24.576 54.3533 24.26 54.1213 23.836C53.8893 23.404 53.7733 22.856 53.7733 22.192V18.544H55.6453V21.916C55.6453 22.452 55.7573 22.848 55.9813 23.104C56.2133 23.352 56.5373 23.476 56.9533 23.476C57.2413 23.476 57.4973 23.416 57.7213 23.296C57.9453 23.168 58.1213 22.976 58.2493 22.72C58.3773 22.456 58.4413 22.128 58.4413 21.736V18.544H60.3133V25H58.5373V23.224L58.8613 23.74C58.6453 24.188 58.3253 24.528 57.9013 24.76C57.4853 24.984 57.0293 25.096 56.5333 25.096ZM62.0476 25V16.096H63.9196V25H62.0476ZM69.617 25V23.74L69.497 23.464V21.208C69.497 20.808 69.373 20.496 69.125 20.272C68.885 20.048 68.513 19.936 68.009 19.936C67.665 19.936 67.325 19.992 66.989 20.104C66.661 20.208 66.381 20.352 66.149 20.536L65.477 19.228C65.829 18.98 66.253 18.788 66.749 18.652C67.245 18.516 67.749 18.448 68.261 18.448C69.245 18.448 70.009 18.68 70.553 19.144C71.097 19.608 71.369 20.332 71.369 21.316V25H69.617ZM67.649 25.096C67.145 25.096 66.713 25.012 66.353 24.844C65.993 24.668 65.717 24.432 65.525 24.136C65.333 23.84 65.237 23.508 65.237 23.14C65.237 22.756 65.329 22.42 65.513 22.132C65.705 21.844 66.005 21.62 66.413 21.46C66.821 21.292 67.353 21.208 68.009 21.208H69.725V22.3H68.213C67.773 22.3 67.469 22.372 67.301 22.516C67.141 22.66 67.061 22.84 67.061 23.056C67.061 23.296 67.153 23.488 67.337 23.632C67.529 23.768 67.789 23.836 68.117 23.836C68.429 23.836 68.709 23.764 68.957 23.62C69.205 23.468 69.385 23.248 69.497 22.96L69.785 23.824C69.649 24.24 69.401 24.556 69.041 24.772C68.681 24.988 68.217 25.096 67.649 25.096ZM73.0632 25V18.544H74.8512V20.368L74.5992 19.84C74.7912 19.384 75.0992 19.04 75.5232 18.808C75.9472 18.568 76.4632 18.448 77.0712 18.448V20.176C76.9912 20.168 76.9192 20.164 76.8552 20.164C76.7912 20.156 76.7232 20.152 76.6512 20.152C76.1392 20.152 75.7232 20.3 75.4032 20.596C75.0912 20.884 74.9352 21.336 74.9352 21.952V25H73.0632Z" fill="black"/>
</svg>
