<svg width="29" height="15" viewBox="0 0 29 15" fill="none" xmlns="http://www.w3.org/2000/svg">
<path d="M8.83594 1.72461C9.16817 1.73258 9.39372 1.75403 9.52246 1.79004C9.62785 1.81939 9.82221 1.89515 9.9541 1.95801C10.1271 2.04093 10.2562 2.13523 10.4199 2.29883C10.5556 2.43407 10.686 2.60129 10.7441 2.71582C10.7975 2.82108 10.8675 2.99333 10.8994 3.09863C10.9416 3.23711 10.957 3.38763 10.9551 3.6416C10.9532 3.94114 10.9392 4.03178 10.8604 4.26074C10.8096 4.40836 10.7392 4.56069 10.7041 4.59863C10.6689 4.63708 10.6112 4.7229 10.5762 4.79004C10.5397 4.85957 10.4304 4.97272 10.3213 5.05273C10.2159 5.12995 10.0431 5.23775 9.74609 5.38867L9.98633 5.47266C10.1179 5.51896 10.297 5.6071 10.3848 5.66797C10.4723 5.72893 10.6126 5.85077 10.6963 5.93848C10.78 6.02626 10.897 6.19182 10.957 6.30566C11.0167 6.41981 11.091 6.60584 11.1211 6.71973C11.1511 6.83384 11.1774 7.04926 11.1797 7.19824C11.1819 7.34756 11.1733 7.54915 11.1602 7.64551C11.1474 7.74188 11.1067 7.90743 11.0703 8.0127C11.0342 8.11802 10.9582 8.29034 10.9023 8.39551C10.8431 8.50723 10.6939 8.69397 10.5449 8.84375C10.34 9.04971 10.2293 9.13121 9.98633 9.25391C9.81483 9.34037 9.5504 9.44001 9.37891 9.4834C9.21188 9.52551 8.96583 9.57122 8.83203 9.58398C8.6553 9.60118 8.57477 9.5964 8.53711 9.56738C8.49563 9.53552 8.47165 9.53549 8.4209 9.56738C8.37011 9.59921 8.28938 9.59888 8.01367 9.56445C7.82481 9.54115 7.54885 9.48735 7.39941 9.44434C7.25003 9.40128 7.02729 9.31815 6.9043 9.25977C6.78135 9.2017 6.64997 9.127 6.54395 9.0332L6.69238 8.40625C6.77377 8.06188 6.84751 7.77226 6.85645 7.7627C6.8669 7.75433 6.97376 7.795 7.0957 7.85449C7.21859 7.91445 7.42669 7.99824 7.55859 8.04102C7.6901 8.08407 7.87348 8.13447 7.96582 8.15332C8.05807 8.17214 8.24483 8.18814 8.38086 8.18848C8.51691 8.18848 8.71492 8.16579 8.82031 8.13867C8.9257 8.11153 9.08408 8.04276 9.17188 7.98535C9.25969 7.92791 9.37742 7.8091 9.43457 7.72266C9.49201 7.63626 9.55369 7.49401 9.57227 7.40625C9.59079 7.31851 9.62011 7.23239 9.63672 7.21484C9.65585 7.19473 9.64946 7.14751 9.61914 7.08691C9.59301 7.03439 9.57107 6.96292 9.57129 6.92773C9.57129 6.89266 9.5369 6.79181 9.49414 6.7041C9.45137 6.6164 9.35766 6.49056 9.28613 6.4248C9.21428 6.35908 9.09426 6.27495 9.01953 6.2373C8.94481 6.19966 8.84076 6.1536 8.78809 6.13574C8.73468 6.11821 8.45526 6.09603 7.64648 6.06641L7.63867 4.81445L8.08594 4.79785C8.43433 4.78509 8.57844 4.76639 8.74023 4.71094C8.85425 4.67169 9.00925 4.59761 9.08398 4.54688C9.15861 4.49613 9.25407 4.39389 9.29688 4.31934C9.33967 4.24467 9.38268 4.14388 9.39258 4.0957C9.40247 4.04753 9.39647 3.98644 9.37891 3.95996C9.35738 3.92785 9.35835 3.89394 9.38184 3.85645C9.40736 3.81564 9.40726 3.76202 9.37891 3.65723C9.34921 3.54747 9.29301 3.47015 9.14355 3.33008C8.94911 3.14762 8.94591 3.14608 8.70801 3.12598C8.57641 3.11485 8.33956 3.11518 8.18164 3.12695C8.02365 3.13875 7.88001 3.1611 7.8623 3.17578C7.84474 3.19014 7.77241 3.21951 7.70215 3.24121C7.63187 3.26295 7.45635 3.3438 7.31152 3.4209C7.11864 3.52346 7.04809 3.54851 7.04785 3.51367C7.04785 3.48801 7.04439 3.46662 7.04004 3.46582C7.03557 3.46614 6.9531 3.4882 6.85645 3.51465C6.75978 3.5411 6.66614 3.57451 6.64844 3.58984C6.63087 3.60484 6.53019 3.6422 6.4248 3.67188C6.31923 3.70161 6.04646 3.78342 5.81836 3.85449C5.59002 3.92564 5.38866 3.98738 5.37109 3.99121C5.35352 3.99475 5.30364 4.01353 5.25977 4.0332C5.21604 4.05297 4.99285 4.14048 4.76465 4.22754C4.53631 4.31464 4.24127 4.43145 4.10938 4.48633C3.97755 4.54134 3.63219 4.70254 3.34277 4.84473C3.0532 4.98731 2.78039 5.1282 2.73633 5.15723C2.69259 5.18657 2.46248 5.33748 2.22559 5.49219C1.90335 5.70245 1.70867 5.85895 1.45605 6.11133C1.27024 6.29699 1.07679 6.52501 1.02539 6.61719C0.974967 6.70812 0.922737 6.7718 0.90918 6.76074C0.896725 6.74734 0.87675 6.77939 0.866211 6.83203C0.855311 6.88476 0.823944 6.99933 0.795898 7.08691C0.766529 7.17909 0.743819 7.36096 0.743164 7.51758C0.742206 7.6953 0.76244 7.84998 0.799805 7.96484C0.831317 8.06117 0.87374 8.17952 0.894531 8.22852C0.914941 8.27726 0.946288 8.31824 0.963867 8.31836C0.981432 8.31868 1.05711 8.40445 1.13184 8.50879C1.20656 8.61301 1.36411 8.77808 1.48242 8.87598C1.60087 8.97358 1.81358 9.13048 1.9541 9.22461C2.09462 9.31841 2.41832 9.50198 2.67285 9.63184C2.92709 9.76122 3.22855 9.90812 3.34277 9.95801C3.45678 10.0078 3.56544 10.0522 3.58301 10.0557C3.60275 10.0603 3.78872 10.1251 3.99805 10.2002C4.20761 10.2754 4.39958 10.3518 4.42578 10.3711C4.45069 10.3896 4.50136 10.4066 4.53809 10.4082C4.57555 10.4097 4.84268 10.4764 5.13184 10.5566C5.42144 10.637 5.88094 10.7535 6.15332 10.8154C6.42573 10.8776 6.82479 10.9614 7.04004 11.002C7.2556 11.0425 7.43196 11.0865 7.43164 11.0996C7.43195 11.1124 7.44889 11.1136 7.4707 11.1025C7.49274 11.0914 7.62608 11.1004 7.7666 11.123C7.90705 11.1457 8.05083 11.1837 8.08594 11.2061C8.12158 11.2287 8.26515 11.2554 8.40527 11.2656L8.85254 11.2998C8.95842 11.3078 9.30255 11.3419 9.61816 11.376C9.93433 11.4098 10.2874 11.4465 10.4014 11.458C10.5983 11.478 10.6096 11.4757 10.6338 11.4053C10.6482 11.3644 10.6675 11.1795 10.6758 10.9951C10.6844 10.8113 10.7014 10.5691 10.7139 10.457C10.7276 10.3326 10.7549 10.2408 10.7842 10.2207C10.8212 10.1955 10.9729 10.283 11.4551 10.6104C11.7975 10.8428 12.1312 11.0677 12.1973 11.1104C12.2631 11.1525 12.3094 11.2012 12.3008 11.2188C12.2922 11.2363 12.3317 11.2663 12.3887 11.2852C12.4458 11.3036 12.6704 11.4433 12.8877 11.5957C13.1052 11.7479 13.3359 11.9044 13.3994 11.9424C13.4629 11.98 13.5507 12.0452 13.5947 12.0879C13.6385 12.1306 13.6998 12.175 13.7305 12.1865C13.7611 12.198 13.8936 12.2795 14.0254 12.3672C14.1841 12.4728 14.2623 12.5456 14.2568 12.5811C14.2508 12.6137 14.1078 12.7095 13.8984 12.8203C13.7056 12.9222 13.5043 13.0112 13.4512 13.0186C13.3985 13.0259 13.3261 13.0576 13.291 13.0889C13.2554 13.1207 12.7529 13.3737 12.1738 13.6514L11.8262 13.8184C11.3665 14.039 10.9454 14.2416 10.8076 14.3076C10.5336 14.4391 10.4902 14.4513 10.4531 14.4092C10.418 14.3693 10.4177 14.2857 10.4551 13.915C10.4797 13.6694 10.499 13.4214 10.498 13.3643C10.4972 13.3074 10.5109 13.2257 10.5283 13.1816C10.5576 13.1084 10.555 13.1034 10.4893 13.124C10.4311 13.1425 10.4228 13.1381 10.4482 13.1006C10.4728 13.0642 10.4697 13.06 10.4326 13.082C10.4038 13.0988 10.2802 13.0919 10.124 13.0654C9.98179 13.0414 9.86965 13.015 9.87305 13.0059C9.87847 12.9973 9.83837 12.9893 9.7832 12.9883C9.72796 12.987 9.52792 12.9576 9.33887 12.9238C9.15013 12.8897 8.99577 12.8546 8.99609 12.8457C8.99469 12.8372 8.94789 12.8267 8.8916 12.8232C8.83376 12.8192 8.61543 12.7785 8.40527 12.7324L8.38477 12.7285C8.17792 12.6831 7.93213 12.6284 7.83008 12.6064C7.72475 12.5835 7.53123 12.5367 7.39941 12.502C7.26784 12.4672 6.91481 12.3714 6.61621 12.2891C6.31793 12.2068 6.01678 12.1117 5.94629 12.0781C5.87603 12.0446 5.78904 12.0176 5.75391 12.0176C5.71772 12.0172 5.53131 11.9659 5.33887 11.9023C5.14568 11.8389 4.89425 11.7511 4.78027 11.708C4.66632 11.6646 4.56558 11.6162 4.55664 11.5996C4.54726 11.5834 4.49004 11.5653 4.42871 11.5596C4.36671 11.5539 4.15167 11.4799 3.9502 11.3955C3.74866 11.3114 3.5688 11.2243 3.55078 11.2021C3.53323 11.1805 3.42545 11.1304 3.31152 11.0918C3.19722 11.0532 2.93146 10.928 2.7207 10.8135C2.51002 10.699 2.27235 10.5618 2.19336 10.5078C2.11475 10.4541 2.03953 10.3947 2.02637 10.376C2.01334 10.3572 2.00303 10.3524 2.00293 10.3652C2.00261 10.3783 1.87626 10.3035 1.72266 10.1992C1.56904 10.0949 1.3247 9.90431 1.18066 9.77637C1.0364 9.64816 0.892607 9.50787 0.861328 9.46387C0.829897 9.42009 0.755861 9.3406 0.696289 9.28809C0.636711 9.23505 0.51163 9.07754 0.417969 8.9375C0.317692 8.78754 0.201191 8.55391 0.134766 8.37109C0.0402615 8.11016 0.019271 8.00456 0.00585938 7.7168C-0.006883 7.44542 0.00016202 7.3595 0.0380859 7.30273C0.0642734 7.26317 0.0962813 7.15003 0.109375 7.05176C0.122443 6.95347 0.152165 6.85736 0.174805 6.83691C0.197738 6.81687 0.2157 6.77139 0.214844 6.73633C0.214205 6.70125 0.279959 6.57199 0.361328 6.44922C0.443084 6.32638 0.65612 6.08174 0.834961 5.90625C1.01375 5.73085 1.2739 5.50644 1.41309 5.40723C1.55265 5.308 1.79602 5.1518 1.9541 5.06055C2.11221 4.96961 2.39262 4.82472 2.57715 4.73828C2.76163 4.65187 2.93012 4.58171 2.95215 4.58203C2.97437 4.58219 3.03871 4.55389 3.0957 4.51953C3.15308 4.48502 3.36481 4.39754 3.56641 4.3252C3.76824 4.25245 4.12795 4.13126 4.36523 4.05469C4.60252 3.97811 4.9259 3.87933 5.08398 3.83594C5.24157 3.79238 5.3812 3.76641 5.39453 3.77832C5.40727 3.79041 5.43568 3.7843 5.45801 3.76465C5.48035 3.74488 5.63152 3.69845 5.79395 3.66113C5.9565 3.6238 6.10451 3.60076 6.12207 3.60938C6.13928 3.61795 6.15309 3.61427 6.15332 3.60156C6.153 3.58848 6.25034 3.55679 6.36914 3.53223C6.48785 3.50769 6.62803 3.48529 6.68066 3.48242C6.73336 3.47987 6.81243 3.47421 6.85645 3.4707C6.90009 3.46715 6.95521 3.45444 6.97852 3.44141C7.01237 3.4229 6.99404 3.30575 6.8877 2.85938C6.81457 2.55245 6.76322 2.28276 6.77344 2.26074C6.78512 2.23829 6.91142 2.16258 7.05566 2.0918C7.20047 2.02042 7.43366 1.92825 7.57422 1.88574C7.71474 1.84331 7.94542 1.78691 8.08594 1.76074C8.26566 1.72728 8.48779 1.71633 8.83594 1.72461ZM23.2871 3.65723C23.3136 3.65723 23.6337 3.74266 23.998 3.84668C24.3624 3.95102 24.8763 4.10995 25.1396 4.20117C25.4031 4.29211 25.7699 4.43161 25.9541 4.50977C26.1384 4.58798 26.4476 4.73021 26.6406 4.82617C26.8338 4.92254 27.1709 5.12112 27.3906 5.2666C27.61 5.41242 27.9251 5.65843 28.0898 5.81445C28.2545 5.97004 28.4535 6.18369 28.5322 6.28906C28.611 6.3942 28.7074 6.5448 28.7471 6.62402C28.7865 6.7029 28.8138 6.78529 28.8076 6.80762C28.8012 6.82963 28.8106 6.84766 28.8281 6.84766C28.8458 6.84799 28.8921 6.952 28.9307 7.0791C28.9855 7.2586 29.0006 7.38888 29 7.66113C28.9994 7.9719 28.9872 8.0471 28.8955 8.31543C28.8387 8.48224 28.7283 8.72229 28.6504 8.84961C28.5725 8.97692 28.4941 9.08105 28.4766 9.08105C28.4591 9.0812 28.4444 9.10258 28.4443 9.12891C28.4443 9.15538 28.3119 9.3147 28.1494 9.4834C27.987 9.65234 27.7322 9.88738 27.583 10.0059C27.4339 10.1242 27.1635 10.3162 26.9834 10.4326C26.8052 10.5478 26.6597 10.632 26.6572 10.6211C26.6575 10.608 26.6258 10.6277 26.5859 10.665C26.5457 10.7027 26.3619 10.8122 26.1777 10.9092C25.9935 11.0062 25.6698 11.1597 25.459 11.25C25.2483 11.3406 25.047 11.4297 25.0117 11.4492C24.9766 11.4684 24.7822 11.5455 24.5801 11.6211C24.378 11.6967 24.2025 11.7521 24.1895 11.7441C24.1764 11.7359 24.1617 11.7422 24.1572 11.7578C24.1525 11.7735 23.9984 11.838 23.8145 11.9014C23.6308 11.9646 23.444 12.0165 23.3994 12.0166C23.3553 12.0163 23.2683 12.0433 23.207 12.0762C23.1454 12.1091 22.9154 12.1895 22.6963 12.2549C22.4773 12.3201 22.2626 12.3743 22.2178 12.375C22.1737 12.3753 22.1297 12.3857 22.1211 12.3984C22.1106 12.4119 21.8669 12.4816 21.5781 12.5537C21.2882 12.6261 20.822 12.7356 20.541 12.7959C20.26 12.8565 19.8643 12.9343 19.6621 12.9697L18.7363 13.1299C18.5342 13.165 18.2898 13.205 18.1934 13.2178C18.0969 13.2305 17.9532 13.2396 17.874 13.2383C17.795 13.237 17.7228 13.2488 17.7139 13.2646C17.7052 13.2806 17.6029 13.2976 17.4863 13.3018C17.3694 13.3059 17.2801 13.3199 17.2871 13.333C17.2926 13.3459 17.2371 13.3578 17.1631 13.3594C17.0884 13.3607 16.9843 13.3667 16.9316 13.3721C16.8787 13.3772 16.735 13.3969 16.6123 13.416C16.4891 13.4349 16.1224 13.4729 15.7979 13.5C15.4739 13.5273 15.1732 13.5551 15.1279 13.5625C15.084 13.5698 15.0263 13.5637 15 13.5479C14.9649 13.5268 14.9464 13.4342 14.9326 13.2061C14.9221 13.0344 14.9264 12.8768 14.9414 12.8545C14.9567 12.8315 14.9538 12.8071 14.9355 12.7979C14.9167 12.786 14.9074 12.6354 14.9121 12.418C14.9165 12.2191 14.909 12.0443 14.8955 12.0273C14.8818 12.0127 14.8708 11.9398 14.8711 11.8652C14.8717 11.7906 14.8908 11.7115 14.9141 11.6895C14.945 11.6601 15.3266 11.6381 16.3438 11.6074C17.1065 11.5845 17.7882 11.5598 17.8584 11.5527C17.9292 11.5454 18.1948 11.524 18.4492 11.5049C18.7041 11.486 19.185 11.4426 19.5186 11.4082C19.8522 11.3737 20.2186 11.3314 20.333 11.3145C20.4473 11.2975 20.627 11.2838 20.7324 11.2832C20.8378 11.2829 21.0176 11.2665 21.1318 11.2471C21.2461 11.2276 21.3535 11.1989 21.3711 11.1846C21.3896 11.1698 21.5726 11.1284 21.7783 11.0928C21.9844 11.0568 22.1678 11.0344 22.1855 11.043C22.2031 11.0516 22.2348 11.0455 22.2568 11.0293C22.2789 11.013 22.4269 10.9706 22.585 10.9355C22.7429 10.9002 22.9081 10.8654 22.9521 10.8574C22.9964 10.849 23.1833 10.8043 23.3672 10.7578C23.5515 10.7112 23.9182 10.6101 24.1816 10.5332C24.4451 10.456 24.8549 10.3215 25.0918 10.2344C25.3285 10.1477 25.6264 10.0318 25.7539 9.97754C25.8799 9.92392 25.9837 9.89046 25.9863 9.90234C25.9863 9.91543 25.9976 9.9114 26.0107 9.89258C26.0243 9.87371 26.1604 9.79103 26.3135 9.70898C26.4664 9.62739 26.6056 9.56811 26.624 9.57617C26.6416 9.58479 26.6562 9.57712 26.6562 9.55957C26.6564 9.54216 26.6778 9.52839 26.7041 9.52832C26.7305 9.52832 26.7518 9.51358 26.752 9.49609C26.752 9.47855 26.8347 9.41511 26.9355 9.35547C27.0364 9.29554 27.2198 9.16961 27.3428 9.0752C27.4657 8.98075 27.5811 8.89633 27.5986 8.88867C27.6165 8.88022 27.7093 8.78075 27.8057 8.66699C27.9021 8.55277 28.0291 8.37956 28.0869 8.2832C28.1443 8.18684 28.2154 8.02884 28.2451 7.93262C28.2748 7.83626 28.3111 7.74983 28.3252 7.74121C28.3392 7.7322 28.3285 7.5735 28.3018 7.38965C28.2663 7.14784 28.2227 6.99331 28.1455 6.83203C28.0868 6.7092 27.9687 6.51629 27.8828 6.4043C27.7969 6.29199 27.7016 6.16281 27.6709 6.11719C27.6406 6.07126 27.6042 6.03651 27.5908 6.03906C27.5773 6.04177 27.5019 5.9831 27.4229 5.90918C27.3436 5.83515 27.1569 5.68456 27.0078 5.57422C26.8587 5.46386 26.6073 5.29296 26.4492 5.19531C26.2911 5.09736 25.9598 4.91511 25.7139 4.79004C25.468 4.66501 25.1521 4.51106 25.0117 4.44824C24.8713 4.38542 24.6201 4.28189 24.4531 4.21777C24.2861 4.15364 24.1281 4.08957 24.1016 4.07617C24.0745 4.06227 23.8853 3.99586 23.6807 3.92676C23.4757 3.85753 23.3139 3.78945 23.3213 3.77637C23.3284 3.76341 23.3062 3.76333 23.2715 3.77637C23.2197 3.7957 23.2113 3.78922 23.2217 3.7373C23.2287 3.70243 23.235 3.66982 23.2363 3.66504C23.2379 3.66057 23.2606 3.65723 23.2871 3.65723ZM16.4258 2.19727C16.4322 2.46496 16.4365 2.77383 16.4365 3.08301H16.2695C16.1773 3.08301 15.9725 3.09836 15.8145 3.11621C15.6568 3.13434 15.4916 3.14969 15.4473 3.15137C15.4033 3.15296 15.3242 3.17372 15.2715 3.19727C15.2188 3.22088 15.0671 3.28363 14.9355 3.33691C14.8037 3.39018 14.6033 3.50373 14.4893 3.58887C14.3753 3.67403 14.2179 3.82059 14.1406 3.91504C14.0637 4.00971 13.9463 4.20242 13.8789 4.34277C13.8113 4.48299 13.7356 4.67696 13.7109 4.77344C13.6864 4.86954 13.6715 4.95584 13.6777 4.96484C13.6838 4.97346 13.7725 4.90202 13.875 4.80566C13.9775 4.70934 14.1396 4.5908 14.2354 4.54297C14.3312 4.49548 14.4954 4.43497 14.6006 4.4082C14.706 4.38108 14.922 4.35906 15.0801 4.35938C15.2379 4.35974 15.4602 4.38213 15.5742 4.40918C15.6885 4.4363 15.8829 4.5114 16.0059 4.57617C16.1326 4.64253 16.3127 4.77695 16.4219 4.88574C16.5278 4.99091 16.6752 5.17696 16.749 5.2998C16.8228 5.42265 16.9188 5.62423 16.9619 5.74707C17.0053 5.86994 17.0644 6.10661 17.0938 6.27344C17.133 6.49709 17.1427 6.6811 17.1299 6.97559C17.1197 7.2138 17.0871 7.47036 17.0498 7.61328C17.0153 7.74506 16.9493 7.94664 16.9033 8.06055C16.857 8.17471 16.7729 8.34613 16.7158 8.44238C16.659 8.5387 16.4832 8.74838 16.3252 8.9082C16.0777 9.15829 15.9955 9.21907 15.7344 9.34473C15.5674 9.42481 15.3266 9.51294 15.1992 9.54102C15.0718 9.56876 14.8457 9.5918 14.6963 9.5918C14.5468 9.59179 14.3208 9.56911 14.1934 9.54199C14.0661 9.5149 13.8759 9.45809 13.7705 9.41504C13.6651 9.37166 13.5014 9.28953 13.4072 9.23242C13.313 9.17563 13.14 9.03512 13.0234 8.9209C12.9069 8.80664 12.7447 8.6059 12.6621 8.47461C12.5791 8.34315 12.4604 8.10953 12.3984 7.95605C12.3362 7.80257 12.2568 7.55882 12.2227 7.41406C12.1882 7.26919 12.1441 6.99281 12.124 6.7998C12.1043 6.60754 12.0749 6.43567 12.0586 6.41699C12.0423 6.39945 12.0283 6.33501 12.0283 6.27344C12.0283 6.21235 12.0414 6.14765 12.0566 6.12988C12.0723 6.11233 12.1023 5.92543 12.123 5.71484C12.1435 5.50434 12.1878 5.19615 12.2217 5.0293C12.2552 4.86243 12.3269 4.58972 12.3809 4.42285C12.4345 4.25596 12.5562 3.96155 12.6514 3.76855C12.7463 3.57597 12.8601 3.37867 12.9053 3.33008C12.9506 3.2819 12.9803 3.24219 12.9717 3.24219C12.9642 3.24083 13.0248 3.15315 13.1074 3.0459C13.1908 2.93742 13.3741 2.75051 13.5146 2.63086C13.6552 2.51089 13.7955 2.41309 13.8262 2.41309C13.8571 2.41307 13.8968 2.38372 13.9141 2.34863C13.9326 2.313 14.0915 2.21514 14.2734 2.12793C14.4535 2.04181 14.7013 1.94231 14.8242 1.90723C14.9471 1.87214 15.1339 1.8264 15.2393 1.80566C15.3446 1.78461 15.553 1.75625 15.7021 1.74316C15.8512 1.73009 16.0729 1.71796 16.4141 1.71094L16.4258 2.19727ZM20.3486 1.72266C20.6635 1.73095 20.775 1.74817 20.9717 1.81738C21.1033 1.86365 21.3046 1.96544 21.4189 2.04297C21.5333 2.12052 21.688 2.2494 21.7627 2.33008C21.8374 2.41057 21.9605 2.57413 22.0371 2.69238C22.1137 2.81077 22.2201 3.00807 22.2734 3.13086C22.3267 3.25363 22.4084 3.47602 22.4551 3.625C22.502 3.77432 22.569 4.06202 22.6035 4.26367C22.638 4.46572 22.6807 4.83834 22.6992 5.09277C22.7174 5.34739 22.7237 5.7212 22.7129 5.92285C22.702 6.12482 22.6783 6.42602 22.6602 6.59277C22.6419 6.75954 22.5986 7.03143 22.5645 7.19824C22.53 7.36511 22.4586 7.63113 22.4053 7.78906C22.3519 7.94701 22.2452 8.19869 22.168 8.34766C22.091 8.49662 21.9486 8.71568 21.8516 8.83398C21.7542 8.95236 21.5991 9.10589 21.5068 9.1748C21.4146 9.24396 21.2462 9.34381 21.1318 9.39746C21.0175 9.45106 20.8231 9.51681 20.7002 9.54297C20.5772 9.56912 20.3542 9.59082 20.2051 9.59082C20.056 9.5908 19.8442 9.56976 19.7344 9.54395C19.6245 9.51778 19.4515 9.45905 19.3506 9.41406C19.2497 9.36872 19.1025 9.2849 19.0234 9.22754C18.9444 9.17056 18.855 9.11418 18.8242 9.10254C18.7936 9.09108 18.7687 9.05262 18.7686 9.01758C18.7686 8.98248 18.7442 8.94277 18.7148 8.92969C18.6858 8.91658 18.6014 8.81914 18.5273 8.71387C18.4533 8.60855 18.3352 8.4079 18.2656 8.26758C18.1957 8.12719 18.1007 7.89722 18.0547 7.75684C18.0087 7.61645 17.9493 7.40808 17.9229 7.29395C17.8964 7.18016 17.875 7.01541 17.875 6.92773C17.875 6.84002 17.8607 6.75392 17.8438 6.73633C17.8265 6.71878 17.7958 6.49582 17.7754 6.24121C17.7537 5.97321 17.747 5.59069 17.7588 5.33203C17.77 5.08647 17.8023 4.73492 17.8291 4.55078C17.8562 4.36686 17.8996 4.12986 17.9258 4.02441C17.9516 3.91912 18.0107 3.71754 18.0566 3.57715C18.1029 3.43681 18.1596 3.28622 18.1826 3.24219C18.2055 3.19868 18.2247 3.14863 18.2246 3.13086C18.2243 3.11331 18.304 2.96946 18.4023 2.81152C18.5116 2.63573 18.6761 2.43159 18.8271 2.28516C18.9961 2.12118 19.149 2.00843 19.3125 1.92676C19.4436 1.86113 19.6435 1.78567 19.7578 1.75977C19.8976 1.72788 20.0905 1.71566 20.3486 1.72266ZM14.6484 5.61621C14.552 5.60951 14.415 5.62188 14.3447 5.64453C14.2744 5.66725 14.1524 5.73165 14.0732 5.78711C13.9943 5.84245 13.9005 5.92772 13.8633 5.97656C13.8266 6.0257 13.7626 6.13083 13.7227 6.20996C13.679 6.29608 13.642 6.44249 13.6299 6.57617C13.6158 6.7273 13.6258 6.89726 13.6621 7.10254C13.6915 7.26941 13.7472 7.48567 13.7861 7.58203C13.8248 7.67837 13.8972 7.81466 13.9463 7.88477C13.9954 7.9548 14.0759 8.04971 14.126 8.0957C14.1761 8.14162 14.2892 8.20239 14.377 8.23145C14.4648 8.26016 14.6051 8.2845 14.6885 8.28418C14.7718 8.28416 14.8942 8.26148 14.96 8.23438C15.0257 8.20725 15.1348 8.1315 15.2021 8.06641C15.2695 8.00167 15.3589 7.88014 15.4014 7.79688C15.4435 7.7136 15.5015 7.54806 15.5293 7.42969C15.5657 7.27533 15.5766 7.11075 15.5674 6.84766C15.5578 6.5717 15.5364 6.43295 15.4834 6.28906C15.4441 6.18384 15.374 6.04788 15.3262 5.9873C15.2788 5.92696 15.2326 5.85822 15.2236 5.83398C15.215 5.80974 15.121 5.75365 15.0156 5.70898C14.9102 5.66433 14.7449 5.62259 14.6484 5.61621ZM20.2217 3.05078C20.1485 3.0511 20.0403 3.08286 19.9688 3.12402C19.9004 3.16363 19.788 3.27387 19.7197 3.37012C19.6447 3.47573 19.5598 3.65944 19.5049 3.83301C19.4551 3.99098 19.397 4.24944 19.376 4.40723C19.3549 4.5648 19.3282 4.75085 19.3164 4.82129C19.3049 4.89148 19.3039 5.35141 19.3145 5.84277C19.3282 6.46424 19.3493 6.82133 19.3857 7.01562C19.4148 7.16908 19.4712 7.39147 19.5107 7.50977C19.55 7.62814 19.6257 7.79668 19.6787 7.88379C19.7315 7.97083 19.8322 8.0818 19.9023 8.13086C19.9726 8.17998 20.0803 8.22971 20.1416 8.24023C20.2029 8.25105 20.3073 8.25042 20.373 8.23926C20.4478 8.22711 20.542 8.17424 20.624 8.09961C20.6965 8.03388 20.7895 7.92272 20.8301 7.85254C20.8703 7.78219 20.9324 7.6313 20.9678 7.51758C21.0035 7.40333 21.0556 7.18802 21.083 7.03906C21.1105 6.88968 21.1478 6.52383 21.166 6.22559C21.189 5.851 21.1887 5.50532 21.166 5.1084C21.1478 4.7926 21.1105 4.40494 21.083 4.24707C21.0552 4.08935 20.9972 3.8602 20.9541 3.7373C20.9107 3.61446 20.8213 3.43258 20.7559 3.33398C20.6612 3.19163 20.6072 3.14397 20.4932 3.10254C20.4141 3.07388 20.292 3.05055 20.2217 3.05078ZM23.1113 0.00390625C23.2374 0.0134761 23.3814 0.0501107 23.4785 0.0966797C23.5663 0.139108 23.7067 0.24629 23.79 0.335938C23.8731 0.424941 23.9409 0.519322 23.9414 0.545898C23.9414 0.572381 23.9674 0.633123 23.998 0.680664C24.0388 0.743501 24.0537 0.832608 24.0537 1.00879C24.0537 1.18494 24.0388 1.27408 23.998 1.33691C23.9674 1.38445 23.9414 1.44552 23.9414 1.47168C23.941 1.49845 23.8663 1.59868 23.7744 1.69531C23.6737 1.80138 23.5433 1.89915 23.4473 1.94043C23.3323 1.98986 23.2199 2.00977 23.0479 2.01074C22.8588 2.0117 22.7715 1.99613 22.6357 1.93359C22.5377 1.8886 22.4034 1.78958 22.3242 1.70312C22.2476 1.61985 22.1535 1.48268 22.1143 1.39941C22.0607 1.28495 22.043 1.1896 22.043 1.00879C22.043 0.83692 22.0608 0.728982 22.1074 0.625977C22.1432 0.54718 22.2362 0.412341 22.3145 0.327148C22.3927 0.241639 22.5 0.149191 22.5527 0.12207C22.6055 0.0946309 22.7062 0.0535293 22.7764 0.0302734C22.8556 0.0038674 22.9828 -0.00563394 23.1113 0.00390625ZM22.9355 0.561523C22.9177 0.562144 22.86 0.591386 22.8076 0.625977C22.755 0.660583 22.6868 0.735718 22.6562 0.792969C22.6254 0.850341 22.6007 0.954299 22.6006 1.02441C22.6009 1.09899 22.6274 1.19219 22.665 1.24805C22.7004 1.30062 22.7685 1.36872 22.8164 1.39941C22.8642 1.42999 22.961 1.45466 23.0312 1.45508C23.1015 1.45508 23.2075 1.43036 23.2666 1.39941C23.3256 1.36879 23.4013 1.29397 23.4346 1.23242C23.4678 1.17084 23.4951 1.07037 23.4951 1.00879C23.4951 0.947207 23.4678 0.846725 23.4346 0.785156C23.4 0.721467 23.3231 0.648065 23.2549 0.614258C23.154 0.564484 23.1278 0.562259 23.0898 0.598633C23.0537 0.633434 23.0376 0.633743 23.0068 0.601562C22.9854 0.579547 22.9531 0.561204 22.9355 0.561523Z" fill="black"/>
</svg>
