<svg width="67" height="9" viewBox="0 0 67 9" fill="none" xmlns="http://www.w3.org/2000/svg">
<path d="M3.68 8V6.58H0.47V5.8L3.74 0.95H4.71V5.71H5.69V6.58H4.71V8H3.68ZM3.69 5.71V2.23H3.85L1.36 5.94L1.31 5.71H3.69ZM6.92609 8V0.95H7.95609L10.5561 5.93H10.3661L12.9461 0.95H13.9661V8H12.9761V2.49H13.1061L10.7961 6.9H10.0961L7.77609 2.48H7.91609V8H6.92609ZM15.8026 8V0.95H18.7726C19.2792 0.95 19.7126 1.03667 20.0726 1.21C20.4326 1.37667 20.7059 1.62 20.8926 1.94C21.0792 2.26 21.1726 2.65 21.1726 3.11C21.1726 3.55667 21.0759 3.94333 20.8826 4.27C20.6959 4.59667 20.4226 4.85 20.0626 5.03C19.7092 5.20333 19.2792 5.29 18.7726 5.29H16.8626V8H15.8026ZM16.8626 4.41H18.6126C19.1059 4.41 19.4792 4.30333 19.7326 4.09C19.9926 3.87 20.1226 3.54333 20.1226 3.11C20.1226 2.68333 19.9959 2.36333 19.7426 2.15C19.4892 1.93 19.1126 1.82 18.6126 1.82H16.8626V4.41ZM21.9793 5.75V4.9H24.8593V5.75H21.9793ZM27.7177 8V1.86H25.2277V0.95H31.2777V1.86H28.7877V8H27.7177ZM32.3065 8V0.95H36.9365V1.84H33.3465V3.98H36.7265V4.87H33.3465V7.11H36.9365V8H32.3065ZM38.4686 8V0.95H41.4286C42.2019 0.95 42.7953 1.13 43.2086 1.49C43.6286 1.84333 43.8386 2.35333 43.8386 3.02C43.8386 3.42 43.7519 3.76667 43.5786 4.06C43.4119 4.34667 43.1719 4.57333 42.8586 4.74C42.5453 4.9 42.1719 4.99 41.7386 5.01L41.7986 4.94L41.9886 4.95C42.2086 4.96333 42.3986 5.03333 42.5586 5.16C42.7253 5.28 42.8819 5.47 43.0286 5.73L44.2386 8H43.0686L41.8786 5.78C41.7853 5.60667 41.6819 5.47333 41.5686 5.38C41.4619 5.28667 41.3353 5.22333 41.1886 5.19C41.0486 5.15 40.8819 5.13 40.6886 5.13H39.5286V8H38.4686ZM39.5286 4.29H41.2986C41.7986 4.29 42.1686 4.18667 42.4086 3.98C42.6553 3.77333 42.7786 3.46333 42.7786 3.05C42.7786 2.63667 42.6553 2.33 42.4086 2.13C42.1619 1.92333 41.7853 1.82 41.2786 1.82H39.5286V4.29ZM45.0945 5.75V4.9H47.9745V5.75H45.0945ZM51.7616 8.09C51.455 8.09 51.155 8.06 50.8616 8C50.575 7.93333 50.305 7.83667 50.0516 7.71C49.805 7.58333 49.585 7.43333 49.3916 7.26L49.7716 6.44C50.0783 6.69333 50.395 6.88 50.7216 7C51.0483 7.12 51.3916 7.18 51.7516 7.18C52.2116 7.18 52.5716 7.06 52.8316 6.82C53.0916 6.58 53.2216 6.25333 53.2216 5.84C53.2216 5.41333 53.0983 5.07333 52.8516 4.82C52.605 4.56667 52.265 4.44 51.8316 4.44C51.5316 4.44 51.2616 4.5 51.0216 4.62C50.7883 4.73333 50.5716 4.92 50.3716 5.18H49.6016V0.95H53.8516V1.85H50.6016V4.33H50.4316C50.5983 4.09 50.8216 3.9 51.1016 3.76C51.3883 3.62 51.705 3.55 52.0516 3.55C52.4983 3.55 52.885 3.64667 53.2116 3.84C53.5383 4.02667 53.7916 4.28667 53.9716 4.62C54.1516 4.95333 54.2416 5.34333 54.2416 5.79C54.2416 6.25 54.1416 6.65333 53.9416 7C53.7416 7.34667 53.455 7.61667 53.0816 7.81C52.7083 7.99667 52.2683 8.09 51.7616 8.09ZM57.6777 8.09C57.1311 8.09 56.6677 7.95333 56.2877 7.68C55.9144 7.4 55.6311 6.99 55.4377 6.45C55.2444 5.91 55.1477 5.25 55.1477 4.47C55.1477 3.68333 55.2444 3.02333 55.4377 2.49C55.6311 1.95 55.9144 1.54333 56.2877 1.27C56.6677 0.996666 57.1311 0.86 57.6777 0.86C58.2311 0.86 58.6944 0.996666 59.0677 1.27C59.4477 1.54333 59.7311 1.94667 59.9177 2.48C60.1111 3.01333 60.2077 3.67333 60.2077 4.46C60.2077 5.24 60.1111 5.90333 59.9177 6.45C59.7244 6.99 59.4411 7.4 59.0677 7.68C58.6944 7.95333 58.2311 8.09 57.6777 8.09ZM57.6777 7.2C58.1844 7.2 58.5577 6.98 58.7977 6.54C59.0444 6.09333 59.1677 5.4 59.1677 4.46C59.1677 3.52 59.0444 2.83333 58.7977 2.4C58.5577 1.96667 58.1844 1.75 57.6777 1.75C57.1777 1.75 56.8044 1.97 56.5577 2.41C56.3111 2.84333 56.1877 3.52667 56.1877 4.46C56.1877 5.4 56.3077 6.09333 56.5477 6.54C56.7944 6.98 57.1711 7.2 57.6777 7.2ZM63.6738 8.09C63.1272 8.09 62.6638 7.95333 62.2838 7.68C61.9105 7.4 61.6272 6.99 61.4338 6.45C61.2405 5.91 61.1438 5.25 61.1438 4.47C61.1438 3.68333 61.2405 3.02333 61.4338 2.49C61.6272 1.95 61.9105 1.54333 62.2838 1.27C62.6638 0.996666 63.1272 0.86 63.6738 0.86C64.2272 0.86 64.6905 0.996666 65.0638 1.27C65.4438 1.54333 65.7272 1.94667 65.9138 2.48C66.1072 3.01333 66.2038 3.67333 66.2038 4.46C66.2038 5.24 66.1072 5.90333 65.9138 6.45C65.7205 6.99 65.4372 7.4 65.0638 7.68C64.6905 7.95333 64.2272 8.09 63.6738 8.09ZM63.6738 7.2C64.1805 7.2 64.5538 6.98 64.7938 6.54C65.0405 6.09333 65.1638 5.4 65.1638 4.46C65.1638 3.52 65.0405 2.83333 64.7938 2.4C64.5538 1.96667 64.1805 1.75 63.6738 1.75C63.1738 1.75 62.8005 1.97 62.5538 2.41C62.3072 2.84333 62.1838 3.52667 62.1838 4.46C62.1838 5.4 62.3038 6.09333 62.5438 6.54C62.7905 6.98 63.1672 7.2 63.6738 7.2Z" fill="#CE3439"/>
</svg>
