<svg width="67" height="9" viewBox="0 0 67 9" fill="none" xmlns="http://www.w3.org/2000/svg">
<path d="M3.68 8V6.58H0.47V5.8L3.74 0.95H4.71V5.71H5.69V6.58H4.71V8H3.68ZM3.69 5.71V2.23H3.85L1.36 5.94L1.31 5.71H3.69ZM6.92609 8V0.95H7.95609L10.5561 5.93H10.3661L12.9461 0.95H13.9661V8H12.9761V2.49H13.1061L10.7961 6.9H10.0961L7.77609 2.48H7.91609V8H6.92609ZM15.8026 8V0.95H18.7726C19.2792 0.95 19.7126 1.03667 20.0726 1.21C20.4326 1.37667 20.7059 1.62 20.8926 1.94C21.0792 2.26 21.1726 2.65 21.1726 3.11C21.1726 3.55667 21.0759 3.94333 20.8826 4.27C20.6959 4.59667 20.4226 4.85 20.0626 5.03C19.7092 5.20333 19.2792 5.29 18.7726 5.29H16.8626V8H15.8026ZM16.8626 4.41H18.6126C19.1059 4.41 19.4792 4.30333 19.7326 4.09C19.9926 3.87 20.1226 3.54333 20.1226 3.11C20.1226 2.68333 19.9959 2.36333 19.7426 2.15C19.4892 1.93 19.1126 1.82 18.6126 1.82H16.8626V4.41ZM21.9793 5.75V4.9H24.8593V5.75H21.9793ZM27.7177 8V1.86H25.2277V0.95H31.2777V1.86H28.7877V8H27.7177ZM32.3065 8V0.95H36.9365V1.84H33.3465V3.98H36.7265V4.87H33.3465V7.11H36.9365V8H32.3065ZM38.4686 8V0.95H41.4286C42.2019 0.95 42.7953 1.13 43.2086 1.49C43.6286 1.84333 43.8386 2.35333 43.8386 3.02C43.8386 3.42 43.7519 3.76667 43.5786 4.06C43.4119 4.34667 43.1719 4.57333 42.8586 4.74C42.5453 4.9 42.1719 4.99 41.7386 5.01L41.7986 4.94L41.9886 4.95C42.2086 4.96333 42.3986 5.03333 42.5586 5.16C42.7253 5.28 42.8819 5.47 43.0286 5.73L44.2386 8H43.0686L41.8786 5.78C41.7853 5.60667 41.6819 5.47333 41.5686 5.38C41.4619 5.28667 41.3353 5.22333 41.1886 5.19C41.0486 5.15 40.8819 5.13 40.6886 5.13H39.5286V8H38.4686ZM39.5286 4.29H41.2986C41.7986 4.29 42.1686 4.18667 42.4086 3.98C42.6553 3.77333 42.7786 3.46333 42.7786 3.05C42.7786 2.63667 42.6553 2.33 42.4086 2.13C42.1619 1.92333 41.7853 1.82 41.2786 1.82H39.5286V4.29ZM45.0945 5.75V4.9H47.9745V5.75H45.0945ZM49.6816 8L53.1116 1.43L53.1316 1.87H49.2816V0.95H54.0816V1.75L50.8416 8H49.6816ZM57.7577 8.09C57.4511 8.09 57.1511 8.06 56.8577 8C56.5711 7.93333 56.3011 7.83667 56.0477 7.71C55.8011 7.58333 55.5811 7.43333 55.3877 7.26L55.7677 6.44C56.0744 6.69333 56.3911 6.88 56.7177 7C57.0444 7.12 57.3877 7.18 57.7477 7.18C58.2077 7.18 58.5677 7.06 58.8277 6.82C59.0877 6.58 59.2177 6.25333 59.2177 5.84C59.2177 5.41333 59.0944 5.07333 58.8477 4.82C58.6011 4.56667 58.2611 4.44 57.8277 4.44C57.5277 4.44 57.2577 4.5 57.0177 4.62C56.7844 4.73333 56.5677 4.92 56.3677 5.18H55.5977V0.95H59.8477V1.85H56.5977V4.33H56.4277C56.5944 4.09 56.8177 3.9 57.0977 3.76C57.3844 3.62 57.7011 3.55 58.0477 3.55C58.4944 3.55 58.8811 3.64667 59.2077 3.84C59.5344 4.02667 59.7877 4.28667 59.9677 4.62C60.1477 4.95333 60.2377 5.34333 60.2377 5.79C60.2377 6.25 60.1377 6.65333 59.9377 7C59.7377 7.34667 59.4511 7.61667 59.0777 7.81C58.7044 7.99667 58.2644 8.09 57.7577 8.09ZM63.6738 8.09C63.1272 8.09 62.6638 7.95333 62.2838 7.68C61.9105 7.4 61.6272 6.99 61.4338 6.45C61.2405 5.91 61.1438 5.25 61.1438 4.47C61.1438 3.68333 61.2405 3.02333 61.4338 2.49C61.6272 1.95 61.9105 1.54333 62.2838 1.27C62.6638 0.996666 63.1272 0.86 63.6738 0.86C64.2272 0.86 64.6905 0.996666 65.0638 1.27C65.4438 1.54333 65.7272 1.94667 65.9138 2.48C66.1072 3.01333 66.2038 3.67333 66.2038 4.46C66.2038 5.24 66.1072 5.90333 65.9138 6.45C65.7205 6.99 65.4372 7.4 65.0638 7.68C64.6905 7.95333 64.2272 8.09 63.6738 8.09ZM63.6738 7.2C64.1805 7.2 64.5538 6.98 64.7938 6.54C65.0405 6.09333 65.1638 5.4 65.1638 4.46C65.1638 3.52 65.0405 2.83333 64.7938 2.4C64.5538 1.96667 64.1805 1.75 63.6738 1.75C63.1738 1.75 62.8005 1.97 62.5538 2.41C62.3072 2.84333 62.1838 3.52667 62.1838 4.46C62.1838 5.4 62.3038 6.09333 62.5438 6.54C62.7905 6.98 63.1672 7.2 63.6738 7.2Z" fill="#CE3439"/>
</svg>
