<svg width="143" height="28" viewBox="0 0 143 28" fill="none" xmlns="http://www.w3.org/2000/svg">
<path d="M3.324 10.144C2.74 10.144 2.16 10.068 1.584 9.916C1.016 9.756 0.528 9.532 0.12 9.244L0.888 7.756C1.208 7.988 1.576 8.172 1.992 8.308C2.416 8.444 2.844 8.512 3.276 8.512C3.764 8.512 4.148 8.416 4.428 8.224C4.708 8.032 4.848 7.764 4.848 7.42C4.848 7.204 4.792 7.012 4.68 6.844C4.568 6.676 4.368 6.548 4.08 6.46C3.8 6.372 3.404 6.328 2.892 6.328H0.744L1.176 1.6H6.3V3.16H1.872L2.88 2.272L2.58 5.644L1.572 4.756H3.348C4.18 4.756 4.848 4.872 5.352 5.104C5.864 5.328 6.236 5.636 6.468 6.028C6.7 6.42 6.816 6.864 6.816 7.36C6.816 7.856 6.692 8.316 6.444 8.74C6.196 9.156 5.812 9.496 5.292 9.76C4.78 10.016 4.124 10.144 3.324 10.144ZM11.2047 10.144C10.5167 10.144 9.90072 9.976 9.35672 9.64C8.81272 9.296 8.38472 8.8 8.07272 8.152C7.76072 7.504 7.60472 6.72 7.60472 5.8C7.60472 4.88 7.76072 4.096 8.07272 3.448C8.38472 2.8 8.81272 2.308 9.35672 1.972C9.90072 1.628 10.5167 1.456 11.2047 1.456C11.9007 1.456 12.5167 1.628 13.0527 1.972C13.5967 2.308 14.0247 2.8 14.3367 3.448C14.6487 4.096 14.8047 4.88 14.8047 5.8C14.8047 6.72 14.6487 7.504 14.3367 8.152C14.0247 8.8 13.5967 9.296 13.0527 9.64C12.5167 9.976 11.9007 10.144 11.2047 10.144ZM11.2047 8.5C11.5327 8.5 11.8167 8.408 12.0567 8.224C12.3047 8.04 12.4967 7.748 12.6327 7.348C12.7767 6.948 12.8487 6.432 12.8487 5.8C12.8487 5.168 12.7767 4.652 12.6327 4.252C12.4967 3.852 12.3047 3.56 12.0567 3.376C11.8167 3.192 11.5327 3.1 11.2047 3.1C10.8847 3.1 10.6007 3.192 10.3527 3.376C10.1127 3.56 9.92072 3.852 9.77672 4.252C9.64072 4.652 9.57272 5.168 9.57272 5.8C9.57272 6.432 9.64072 6.948 9.77672 7.348C9.92072 7.748 10.1127 8.04 10.3527 8.224C10.6007 8.408 10.8847 8.5 11.2047 8.5ZM19.3493 10.144C18.6613 10.144 18.0453 9.976 17.5013 9.64C16.9573 9.296 16.5293 8.8 16.2173 8.152C15.9053 7.504 15.7493 6.72 15.7493 5.8C15.7493 4.88 15.9053 4.096 16.2173 3.448C16.5293 2.8 16.9573 2.308 17.5013 1.972C18.0453 1.628 18.6613 1.456 19.3493 1.456C20.0453 1.456 20.6613 1.628 21.1973 1.972C21.7413 2.308 22.1693 2.8 22.4813 3.448C22.7933 4.096 22.9493 4.88 22.9493 5.8C22.9493 6.72 22.7933 7.504 22.4813 8.152C22.1693 8.8 21.7413 9.296 21.1973 9.64C20.6613 9.976 20.0453 10.144 19.3493 10.144ZM19.3493 8.5C19.6773 8.5 19.9613 8.408 20.2013 8.224C20.4493 8.04 20.6413 7.748 20.7773 7.348C20.9213 6.948 20.9933 6.432 20.9933 5.8C20.9933 5.168 20.9213 4.652 20.7773 4.252C20.6413 3.852 20.4493 3.56 20.2013 3.376C19.9613 3.192 19.6773 3.1 19.3493 3.1C19.0293 3.1 18.7453 3.192 18.4973 3.376C18.2573 3.56 18.0653 3.852 17.9213 4.252C17.7853 4.652 17.7173 5.168 17.7173 5.8C17.7173 6.432 17.7853 6.948 17.9213 7.348C18.0653 7.748 18.2573 8.04 18.4973 8.224C18.7453 8.408 19.0293 8.5 19.3493 8.5ZM32.5578 3.448C33.0698 3.448 33.5218 3.552 33.9138 3.76C34.3138 3.96 34.6258 4.272 34.8498 4.696C35.0818 5.112 35.1978 5.648 35.1978 6.304V10H33.3258V6.592C33.3258 6.072 33.2178 5.688 33.0018 5.44C32.7858 5.192 32.4818 5.068 32.0898 5.068C31.8178 5.068 31.5738 5.132 31.3578 5.26C31.1418 5.38 30.9738 5.564 30.8538 5.812C30.7338 6.06 30.6738 6.376 30.6738 6.76V10H28.8018V6.592C28.8018 6.072 28.6938 5.688 28.4778 5.44C28.2698 5.192 27.9698 5.068 27.5778 5.068C27.3058 5.068 27.0618 5.132 26.8458 5.26C26.6298 5.38 26.4618 5.564 26.3418 5.812C26.2218 6.06 26.1618 6.376 26.1618 6.76V10H24.2898V3.544H26.0778V5.308L25.7418 4.792C25.9658 4.352 26.2818 4.02 26.6898 3.796C27.1058 3.564 27.5778 3.448 28.1058 3.448C28.6978 3.448 29.2138 3.6 29.6538 3.904C30.1018 4.2 30.3978 4.656 30.5418 5.272L29.8818 5.092C30.0978 4.588 30.4418 4.188 30.9138 3.892C31.3938 3.596 31.9418 3.448 32.5578 3.448ZM36.8757 10V1.096H38.7477V10H36.8757ZM45.7555 10V3.184H43.0675V1.6H50.3875V3.184H47.6995V10H45.7555ZM54.9334 10V8.74L54.8134 8.464V6.208C54.8134 5.808 54.6894 5.496 54.4414 5.272C54.2014 5.048 53.8294 4.936 53.3254 4.936C52.9814 4.936 52.6414 4.992 52.3054 5.104C51.9774 5.208 51.6974 5.352 51.4654 5.536L50.7934 4.228C51.1454 3.98 51.5694 3.788 52.0654 3.652C52.5614 3.516 53.0654 3.448 53.5774 3.448C54.5614 3.448 55.3254 3.68 55.8694 4.144C56.4134 4.608 56.6854 5.332 56.6854 6.316V10H54.9334ZM52.9654 10.096C52.4614 10.096 52.0294 10.012 51.6694 9.844C51.3094 9.668 51.0334 9.432 50.8414 9.136C50.6494 8.84 50.5534 8.508 50.5534 8.14C50.5534 7.756 50.6454 7.42 50.8294 7.132C51.0214 6.844 51.3214 6.62 51.7294 6.46C52.1374 6.292 52.6694 6.208 53.3254 6.208H55.0414V7.3H53.5294C53.0894 7.3 52.7854 7.372 52.6174 7.516C52.4574 7.66 52.3774 7.84 52.3774 8.056C52.3774 8.296 52.4694 8.488 52.6534 8.632C52.8454 8.768 53.1054 8.836 53.4334 8.836C53.7454 8.836 54.0254 8.764 54.2734 8.62C54.5214 8.468 54.7014 8.248 54.8134 7.96L55.1014 8.824C54.9654 9.24 54.7174 9.556 54.3574 9.772C53.9974 9.988 53.5334 10.096 52.9654 10.096ZM66.6476 3.448C67.1596 3.448 67.6116 3.552 68.0036 3.76C68.4036 3.96 68.7156 4.272 68.9396 4.696C69.1716 5.112 69.2876 5.648 69.2876 6.304V10H67.4156V6.592C67.4156 6.072 67.3076 5.688 67.0916 5.44C66.8756 5.192 66.5716 5.068 66.1796 5.068C65.9076 5.068 65.6636 5.132 65.4476 5.26C65.2316 5.38 65.0636 5.564 64.9436 5.812C64.8236 6.06 64.7636 6.376 64.7636 6.76V10H62.8916V6.592C62.8916 6.072 62.7836 5.688 62.5676 5.44C62.3596 5.192 62.0596 5.068 61.6676 5.068C61.3956 5.068 61.1516 5.132 60.9356 5.26C60.7196 5.38 60.5516 5.564 60.4316 5.812C60.3116 6.06 60.2516 6.376 60.2516 6.76V10H58.3796V3.544H60.1676V5.308L59.8316 4.792C60.0556 4.352 60.3716 4.02 60.7796 3.796C61.1956 3.564 61.6676 3.448 62.1956 3.448C62.7876 3.448 63.3036 3.6 63.7436 3.904C64.1916 4.2 64.4876 4.656 64.6316 5.272L63.9716 5.092C64.1876 4.588 64.5316 4.188 65.0036 3.892C65.4836 3.596 66.0316 3.448 66.6476 3.448ZM74.7816 10.096C74.2376 10.096 73.7616 9.976 73.3536 9.736C72.9456 9.496 72.6256 9.132 72.3936 8.644C72.1696 8.148 72.0576 7.524 72.0576 6.772C72.0576 6.012 72.1656 5.388 72.3816 4.9C72.5976 4.412 72.9096 4.048 73.3176 3.808C73.7256 3.568 74.2136 3.448 74.7816 3.448C75.3896 3.448 75.9336 3.588 76.4136 3.868C76.9016 4.14 77.2856 4.524 77.5656 5.02C77.8536 5.516 77.9976 6.1 77.9976 6.772C77.9976 7.452 77.8536 8.04 77.5656 8.536C77.2856 9.032 76.9016 9.416 76.4136 9.688C75.9336 9.96 75.3896 10.096 74.7816 10.096ZM70.9656 12.328V3.544H72.7536V4.864L72.7176 6.784L72.8376 8.692V12.328H70.9656ZM74.4576 8.56C74.7696 8.56 75.0456 8.488 75.2856 8.344C75.5336 8.2 75.7296 7.996 75.8736 7.732C76.0256 7.46 76.1016 7.14 76.1016 6.772C76.1016 6.396 76.0256 6.076 75.8736 5.812C75.7296 5.548 75.5336 5.344 75.2856 5.2C75.0456 5.056 74.7696 4.984 74.4576 4.984C74.1456 4.984 73.8656 5.056 73.6176 5.2C73.3696 5.344 73.1736 5.548 73.0296 5.812C72.8856 6.076 72.8136 6.396 72.8136 6.772C72.8136 7.14 72.8856 7.46 73.0296 7.732C73.1736 7.996 73.3696 8.2 73.6176 8.344C73.8656 8.488 74.1456 8.56 74.4576 8.56ZM82.4547 10.096C81.7187 10.096 81.0707 9.952 80.5107 9.664C79.9587 9.376 79.5307 8.984 79.2267 8.488C78.9227 7.984 78.7707 7.412 78.7707 6.772C78.7707 6.124 78.9187 5.552 79.2147 5.056C79.5187 4.552 79.9307 4.16 80.4507 3.88C80.9707 3.592 81.5587 3.448 82.2147 3.448C82.8467 3.448 83.4147 3.584 83.9187 3.856C84.4307 4.12 84.8347 4.504 85.1307 5.008C85.4267 5.504 85.5747 6.1 85.5747 6.796C85.5747 6.868 85.5707 6.952 85.5627 7.048C85.5547 7.136 85.5467 7.22 85.5387 7.3H80.2947V6.208H84.5547L83.8347 6.532C83.8347 6.196 83.7667 5.904 83.6307 5.656C83.4947 5.408 83.3067 5.216 83.0667 5.08C82.8267 4.936 82.5467 4.864 82.2267 4.864C81.9067 4.864 81.6227 4.936 81.3747 5.08C81.1347 5.216 80.9467 5.412 80.8107 5.668C80.6747 5.916 80.6067 6.212 80.6067 6.556V6.844C80.6067 7.196 80.6827 7.508 80.8347 7.78C80.9947 8.044 81.2147 8.248 81.4947 8.392C81.7827 8.528 82.1187 8.596 82.5027 8.596C82.8467 8.596 83.1467 8.544 83.4027 8.44C83.6667 8.336 83.9067 8.18 84.1227 7.972L85.1187 9.052C84.8227 9.388 84.4507 9.648 84.0027 9.832C83.5547 10.008 83.0387 10.096 82.4547 10.096ZM86.821 10V3.544H88.609V5.368L88.357 4.84C88.549 4.384 88.857 4.04 89.281 3.808C89.705 3.568 90.221 3.448 90.829 3.448V5.176C90.749 5.168 90.677 5.164 90.613 5.164C90.549 5.156 90.481 5.152 90.409 5.152C89.897 5.152 89.481 5.3 89.161 5.596C88.849 5.884 88.693 6.336 88.693 6.952V10H86.821ZM97.3074 4.984H101.351V6.496H97.3074V4.984ZM97.4514 8.44H102.023V10H95.5194V1.6H101.867V3.16H97.4514V8.44ZM105.132 10L102.42 3.544H104.352L106.608 9.1H105.648L107.988 3.544H109.788L107.064 10H105.132ZM110.552 10V3.544H112.424V10H110.552ZM111.488 2.644C111.144 2.644 110.864 2.544 110.648 2.344C110.432 2.144 110.324 1.896 110.324 1.6C110.324 1.304 110.432 1.056 110.648 0.856C110.864 0.655999 111.144 0.555999 111.488 0.555999C111.832 0.555999 112.112 0.651999 112.328 0.844C112.544 1.028 112.652 1.268 112.652 1.564C112.652 1.876 112.544 2.136 112.328 2.344C112.12 2.544 111.84 2.644 111.488 2.644ZM116.933 10.096C116.325 10.096 115.777 9.96 115.289 9.688C114.801 9.408 114.413 9.02 114.125 8.524C113.845 8.028 113.705 7.444 113.705 6.772C113.705 6.092 113.845 5.504 114.125 5.008C114.413 4.512 114.801 4.128 115.289 3.856C115.777 3.584 116.325 3.448 116.933 3.448C117.477 3.448 117.953 3.568 118.361 3.808C118.769 4.048 119.085 4.412 119.309 4.9C119.533 5.388 119.645 6.012 119.645 6.772C119.645 7.524 119.537 8.148 119.321 8.644C119.105 9.132 118.793 9.496 118.385 9.736C117.985 9.976 117.501 10.096 116.933 10.096ZM117.257 8.56C117.561 8.56 117.837 8.488 118.085 8.344C118.333 8.2 118.529 7.996 118.673 7.732C118.825 7.46 118.901 7.14 118.901 6.772C118.901 6.396 118.825 6.076 118.673 5.812C118.529 5.548 118.333 5.344 118.085 5.2C117.837 5.056 117.561 4.984 117.257 4.984C116.945 4.984 116.665 5.056 116.417 5.2C116.169 5.344 115.969 5.548 115.817 5.812C115.673 6.076 115.601 6.396 115.601 6.772C115.601 7.14 115.673 7.46 115.817 7.732C115.969 7.996 116.169 8.2 116.417 8.344C116.665 8.488 116.945 8.56 117.257 8.56ZM118.949 10V8.68L118.985 6.76L118.865 4.852V1.096H120.737V10H118.949ZM125.673 10.096C124.937 10.096 124.289 9.952 123.729 9.664C123.177 9.376 122.749 8.984 122.445 8.488C122.141 7.984 121.989 7.412 121.989 6.772C121.989 6.124 122.137 5.552 122.433 5.056C122.737 4.552 123.149 4.16 123.669 3.88C124.189 3.592 124.777 3.448 125.433 3.448C126.065 3.448 126.633 3.584 127.137 3.856C127.649 4.12 128.053 4.504 128.349 5.008C128.645 5.504 128.793 6.1 128.793 6.796C128.793 6.868 128.789 6.952 128.781 7.048C128.773 7.136 128.765 7.22 128.757 7.3H123.513V6.208H127.773L127.053 6.532C127.053 6.196 126.985 5.904 126.849 5.656C126.713 5.408 126.525 5.216 126.285 5.08C126.045 4.936 125.765 4.864 125.445 4.864C125.125 4.864 124.841 4.936 124.593 5.08C124.353 5.216 124.165 5.412 124.029 5.668C123.893 5.916 123.825 6.212 123.825 6.556V6.844C123.825 7.196 123.901 7.508 124.053 7.78C124.213 8.044 124.433 8.248 124.713 8.392C125.001 8.528 125.337 8.596 125.721 8.596C126.065 8.596 126.365 8.544 126.621 8.44C126.885 8.336 127.125 8.18 127.341 7.972L128.337 9.052C128.041 9.388 127.669 9.648 127.221 9.832C126.773 10.008 126.257 10.096 125.673 10.096ZM133.964 3.448C134.476 3.448 134.932 3.552 135.332 3.76C135.74 3.96 136.06 4.272 136.292 4.696C136.524 5.112 136.64 5.648 136.64 6.304V10H134.768V6.592C134.768 6.072 134.652 5.688 134.42 5.44C134.196 5.192 133.876 5.068 133.46 5.068C133.164 5.068 132.896 5.132 132.656 5.26C132.424 5.38 132.24 5.568 132.104 5.824C131.976 6.08 131.912 6.408 131.912 6.808V10H130.04V3.544H131.828V5.332L131.492 4.792C131.724 4.36 132.056 4.028 132.488 3.796C132.92 3.564 133.412 3.448 133.964 3.448ZM140.977 10.096C140.217 10.096 139.625 9.904 139.201 9.52C138.777 9.128 138.565 8.548 138.565 7.78V2.116H140.437V7.756C140.437 8.028 140.509 8.24 140.653 8.392C140.797 8.536 140.993 8.608 141.241 8.608C141.537 8.608 141.789 8.528 141.997 8.368L142.501 9.688C142.309 9.824 142.077 9.928 141.805 10C141.541 10.064 141.265 10.096 140.977 10.096ZM137.569 5.128V3.688H142.045V5.128H137.569ZM0.996 25V16.6H4.632C5.384 16.6 6.032 16.724 6.576 16.972C7.12 17.212 7.54 17.56 7.836 18.016C8.132 18.472 8.28 19.016 8.28 19.648C8.28 20.272 8.132 20.812 7.836 21.268C7.54 21.716 7.12 22.06 6.576 22.3C6.032 22.54 5.384 22.66 4.632 22.66H2.076L2.94 21.808V25H0.996ZM6.336 25L4.236 21.952H6.312L8.436 25H6.336ZM2.94 22.024L2.076 21.112H4.524C5.124 21.112 5.572 20.984 5.868 20.728C6.164 20.464 6.312 20.104 6.312 19.648C6.312 19.184 6.164 18.824 5.868 18.568C5.572 18.312 5.124 18.184 4.524 18.184H2.076L2.94 17.26V22.024ZM12.8922 25.096C12.1562 25.096 11.5082 24.952 10.9482 24.664C10.3962 24.376 9.96822 23.984 9.66422 23.488C9.36022 22.984 9.20822 22.412 9.20822 21.772C9.20822 21.124 9.35622 20.552 9.65222 20.056C9.95622 19.552 10.3682 19.16 10.8882 18.88C11.4082 18.592 11.9962 18.448 12.6522 18.448C13.2842 18.448 13.8522 18.584 14.3562 18.856C14.8682 19.12 15.2722 19.504 15.5682 20.008C15.8642 20.504 16.0122 21.1 16.0122 21.796C16.0122 21.868 16.0082 21.952 16.0002 22.048C15.9922 22.136 15.9842 22.22 15.9762 22.3H10.7322V21.208H14.9922L14.2722 21.532C14.2722 21.196 14.2042 20.904 14.0682 20.656C13.9322 20.408 13.7442 20.216 13.5042 20.08C13.2642 19.936 12.9842 19.864 12.6642 19.864C12.3442 19.864 12.0602 19.936 11.8122 20.08C11.5722 20.216 11.3842 20.412 11.2482 20.668C11.1122 20.916 11.0442 21.212 11.0442 21.556V21.844C11.0442 22.196 11.1202 22.508 11.2722 22.78C11.4322 23.044 11.6522 23.248 11.9322 23.392C12.2202 23.528 12.5562 23.596 12.9402 23.596C13.2842 23.596 13.5842 23.544 13.8402 23.44C14.1042 23.336 14.3442 23.18 14.5602 22.972L15.5562 24.052C15.2602 24.388 14.8882 24.648 14.4402 24.832C13.9922 25.008 13.4762 25.096 12.8922 25.096ZM20.3785 25.096C19.6825 25.096 19.0625 24.956 18.5185 24.676C17.9745 24.388 17.5465 23.992 17.2345 23.488C16.9305 22.984 16.7785 22.412 16.7785 21.772C16.7785 21.124 16.9305 20.552 17.2345 20.056C17.5465 19.552 17.9745 19.16 18.5185 18.88C19.0625 18.592 19.6825 18.448 20.3785 18.448C21.0585 18.448 21.6505 18.592 22.1545 18.88C22.6585 19.16 23.0305 19.564 23.2705 20.092L21.8185 20.872C21.6505 20.568 21.4385 20.344 21.1825 20.2C20.9345 20.056 20.6625 19.984 20.3665 19.984C20.0465 19.984 19.7585 20.056 19.5025 20.2C19.2465 20.344 19.0425 20.548 18.8905 20.812C18.7465 21.076 18.6745 21.396 18.6745 21.772C18.6745 22.148 18.7465 22.468 18.8905 22.732C19.0425 22.996 19.2465 23.2 19.5025 23.344C19.7585 23.488 20.0465 23.56 20.3665 23.56C20.6625 23.56 20.9345 23.492 21.1825 23.356C21.4385 23.212 21.6505 22.984 21.8185 22.672L23.2705 23.464C23.0305 23.984 22.6585 24.388 22.1545 24.676C21.6505 24.956 21.0585 25.096 20.3785 25.096ZM27.0821 25.096C26.3221 25.096 25.7301 24.904 25.3061 24.52C24.8821 24.128 24.6701 23.548 24.6701 22.78V17.116H26.5421V22.756C26.5421 23.028 26.6141 23.24 26.7581 23.392C26.9021 23.536 27.0981 23.608 27.3461 23.608C27.6421 23.608 27.8941 23.528 28.1021 23.368L28.6061 24.688C28.4141 24.824 28.1821 24.928 27.9101 25C27.6461 25.064 27.3701 25.096 27.0821 25.096ZM23.6741 20.128V18.688H28.1501V20.128H23.6741ZM33.617 25V23.74L33.497 23.464V21.208C33.497 20.808 33.373 20.496 33.125 20.272C32.885 20.048 32.513 19.936 32.009 19.936C31.665 19.936 31.325 19.992 30.989 20.104C30.661 20.208 30.381 20.352 30.149 20.536L29.477 19.228C29.829 18.98 30.253 18.788 30.749 18.652C31.245 18.516 31.749 18.448 32.261 18.448C33.245 18.448 34.009 18.68 34.553 19.144C35.097 19.608 35.369 20.332 35.369 21.316V25H33.617ZM31.649 25.096C31.145 25.096 30.713 25.012 30.353 24.844C29.993 24.668 29.717 24.432 29.525 24.136C29.333 23.84 29.237 23.508 29.237 23.14C29.237 22.756 29.329 22.42 29.513 22.132C29.705 21.844 30.005 21.62 30.413 21.46C30.821 21.292 31.353 21.208 32.009 21.208H33.725V22.3H32.213C31.773 22.3 31.469 22.372 31.301 22.516C31.141 22.66 31.061 22.84 31.061 23.056C31.061 23.296 31.153 23.488 31.337 23.632C31.529 23.768 31.789 23.836 32.117 23.836C32.429 23.836 32.709 23.764 32.957 23.62C33.205 23.468 33.385 23.248 33.497 22.96L33.785 23.824C33.649 24.24 33.401 24.556 33.041 24.772C32.681 24.988 32.217 25.096 31.649 25.096ZM40.9872 18.448C41.4992 18.448 41.9552 18.552 42.3552 18.76C42.7632 18.96 43.0832 19.272 43.3152 19.696C43.5472 20.112 43.6632 20.648 43.6632 21.304V25H41.7912V21.592C41.7912 21.072 41.6752 20.688 41.4432 20.44C41.2192 20.192 40.8992 20.068 40.4832 20.068C40.1872 20.068 39.9192 20.132 39.6792 20.26C39.4472 20.38 39.2632 20.568 39.1272 20.824C38.9992 21.08 38.9352 21.408 38.9352 21.808V25H37.0632V18.544H38.8512V20.332L38.5152 19.792C38.7472 19.36 39.0792 19.028 39.5112 18.796C39.9432 18.564 40.4352 18.448 40.9872 18.448ZM48.443 27.424C47.835 27.424 47.247 27.348 46.679 27.196C46.119 27.052 45.651 26.832 45.275 26.536L46.019 25.192C46.291 25.416 46.635 25.592 47.051 25.72C47.475 25.856 47.891 25.924 48.299 25.924C48.963 25.924 49.443 25.776 49.739 25.48C50.043 25.184 50.195 24.744 50.195 24.16V23.188L50.315 21.568L50.291 19.936V18.544H52.067V23.92C52.067 25.12 51.755 26.004 51.131 26.572C50.507 27.14 49.611 27.424 48.443 27.424ZM48.155 24.688C47.555 24.688 47.011 24.56 46.523 24.304C46.043 24.04 45.655 23.676 45.359 23.212C45.071 22.74 44.927 22.192 44.927 21.568C44.927 20.936 45.071 20.388 45.359 19.924C45.655 19.452 46.043 19.088 46.523 18.832C47.011 18.576 47.555 18.448 48.155 18.448C48.699 18.448 49.179 18.56 49.595 18.784C50.011 19 50.335 19.34 50.567 19.804C50.799 20.26 50.915 20.848 50.915 21.568C50.915 22.28 50.799 22.868 50.567 23.332C50.335 23.788 50.011 24.128 49.595 24.352C49.179 24.576 48.699 24.688 48.155 24.688ZM48.527 23.152C48.855 23.152 49.147 23.088 49.403 22.96C49.659 22.824 49.859 22.636 50.003 22.396C50.147 22.156 50.219 21.88 50.219 21.568C50.219 21.248 50.147 20.972 50.003 20.74C49.859 20.5 49.659 20.316 49.403 20.188C49.147 20.052 48.855 19.984 48.527 19.984C48.199 19.984 47.907 20.052 47.651 20.188C47.395 20.316 47.191 20.5 47.039 20.74C46.895 20.972 46.823 21.248 46.823 21.568C46.823 21.88 46.895 22.156 47.039 22.396C47.191 22.636 47.395 22.824 47.651 22.96C47.907 23.088 48.199 23.152 48.527 23.152ZM56.5333 25.096C55.9973 25.096 55.5173 24.992 55.0933 24.784C54.6773 24.576 54.3533 24.26 54.1213 23.836C53.8893 23.404 53.7733 22.856 53.7733 22.192V18.544H55.6453V21.916C55.6453 22.452 55.7573 22.848 55.9813 23.104C56.2133 23.352 56.5373 23.476 56.9533 23.476C57.2413 23.476 57.4973 23.416 57.7213 23.296C57.9453 23.168 58.1213 22.976 58.2493 22.72C58.3773 22.456 58.4413 22.128 58.4413 21.736V18.544H60.3133V25H58.5373V23.224L58.8613 23.74C58.6453 24.188 58.3253 24.528 57.9013 24.76C57.4853 24.984 57.0293 25.096 56.5333 25.096ZM62.0476 25V16.096H63.9196V25H62.0476ZM69.617 25V23.74L69.497 23.464V21.208C69.497 20.808 69.373 20.496 69.125 20.272C68.885 20.048 68.513 19.936 68.009 19.936C67.665 19.936 67.325 19.992 66.989 20.104C66.661 20.208 66.381 20.352 66.149 20.536L65.477 19.228C65.829 18.98 66.253 18.788 66.749 18.652C67.245 18.516 67.749 18.448 68.261 18.448C69.245 18.448 70.009 18.68 70.553 19.144C71.097 19.608 71.369 20.332 71.369 21.316V25H69.617ZM67.649 25.096C67.145 25.096 66.713 25.012 66.353 24.844C65.993 24.668 65.717 24.432 65.525 24.136C65.333 23.84 65.237 23.508 65.237 23.14C65.237 22.756 65.329 22.42 65.513 22.132C65.705 21.844 66.005 21.62 66.413 21.46C66.821 21.292 67.353 21.208 68.009 21.208H69.725V22.3H68.213C67.773 22.3 67.469 22.372 67.301 22.516C67.141 22.66 67.061 22.84 67.061 23.056C67.061 23.296 67.153 23.488 67.337 23.632C67.529 23.768 67.789 23.836 68.117 23.836C68.429 23.836 68.709 23.764 68.957 23.62C69.205 23.468 69.385 23.248 69.497 22.96L69.785 23.824C69.649 24.24 69.401 24.556 69.041 24.772C68.681 24.988 68.217 25.096 67.649 25.096ZM73.0632 25V18.544H74.8512V20.368L74.5992 19.84C74.7912 19.384 75.0992 19.04 75.5232 18.808C75.9472 18.568 76.4632 18.448 77.0712 18.448V20.176C76.9912 20.168 76.9192 20.164 76.8552 20.164C76.7912 20.156 76.7232 20.152 76.6512 20.152C76.1392 20.152 75.7232 20.3 75.4032 20.596C75.0912 20.884 74.9352 21.336 74.9352 21.952V25H73.0632Z" fill="black"/>
</svg>
