<svg width="142" height="28" viewBox="0 0 142 28" fill="none" xmlns="http://www.w3.org/2000/svg">
<path d="M1.812 10L5.196 2.344L5.7 3.184H1.176L2.04 2.272V4.552H0.312V1.6H7.044V2.86L3.924 10H1.812ZM10.5662 10.144C9.98219 10.144 9.40219 10.068 8.82619 9.916C8.25819 9.756 7.77019 9.532 7.36219 9.244L8.13019 7.756C8.45019 7.988 8.81819 8.172 9.23419 8.308C9.65819 8.444 10.0862 8.512 10.5182 8.512C11.0062 8.512 11.3902 8.416 11.6702 8.224C11.9502 8.032 12.0902 7.764 12.0902 7.42C12.0902 7.204 12.0342 7.012 11.9222 6.844C11.8102 6.676 11.6102 6.548 11.3222 6.46C11.0422 6.372 10.6462 6.328 10.1342 6.328H7.98619L8.41819 1.6H13.5422V3.16H9.11419L10.1222 2.272L9.82219 5.644L8.81419 4.756H10.5902C11.4222 4.756 12.0902 4.872 12.5942 5.104C13.1062 5.328 13.4782 5.636 13.7102 6.028C13.9422 6.42 14.0582 6.864 14.0582 7.36C14.0582 7.856 13.9342 8.316 13.6862 8.74C13.4382 9.156 13.0542 9.496 12.5342 9.76C12.0222 10.016 11.3662 10.144 10.5662 10.144ZM18.4469 10.144C17.7589 10.144 17.1429 9.976 16.5989 9.64C16.0549 9.296 15.6269 8.8 15.3149 8.152C15.0029 7.504 14.8469 6.72 14.8469 5.8C14.8469 4.88 15.0029 4.096 15.3149 3.448C15.6269 2.8 16.0549 2.308 16.5989 1.972C17.1429 1.628 17.7589 1.456 18.4469 1.456C19.1429 1.456 19.7589 1.628 20.2949 1.972C20.8389 2.308 21.2669 2.8 21.5789 3.448C21.8909 4.096 22.0469 4.88 22.0469 5.8C22.0469 6.72 21.8909 7.504 21.5789 8.152C21.2669 8.8 20.8389 9.296 20.2949 9.64C19.7589 9.976 19.1429 10.144 18.4469 10.144ZM18.4469 8.5C18.7749 8.5 19.0589 8.408 19.2989 8.224C19.5469 8.04 19.7389 7.748 19.8749 7.348C20.0189 6.948 20.0909 6.432 20.0909 5.8C20.0909 5.168 20.0189 4.652 19.8749 4.252C19.7389 3.852 19.5469 3.56 19.2989 3.376C19.0589 3.192 18.7749 3.1 18.4469 3.1C18.1269 3.1 17.8429 3.192 17.5949 3.376C17.3549 3.56 17.1629 3.852 17.0189 4.252C16.8829 4.652 16.8149 5.168 16.8149 5.8C16.8149 6.432 16.8829 6.948 17.0189 7.348C17.1629 7.748 17.3549 8.04 17.5949 8.224C17.8429 8.408 18.1269 8.5 18.4469 8.5ZM31.6554 3.448C32.1674 3.448 32.6194 3.552 33.0114 3.76C33.4114 3.96 33.7234 4.272 33.9474 4.696C34.1794 5.112 34.2954 5.648 34.2954 6.304V10H32.4234V6.592C32.4234 6.072 32.3154 5.688 32.0994 5.44C31.8834 5.192 31.5794 5.068 31.1874 5.068C30.9154 5.068 30.6714 5.132 30.4554 5.26C30.2394 5.38 30.0714 5.564 29.9514 5.812C29.8314 6.06 29.7714 6.376 29.7714 6.76V10H27.8994V6.592C27.8994 6.072 27.7914 5.688 27.5754 5.44C27.3674 5.192 27.0674 5.068 26.6754 5.068C26.4034 5.068 26.1594 5.132 25.9434 5.26C25.7274 5.38 25.5594 5.564 25.4394 5.812C25.3194 6.06 25.2594 6.376 25.2594 6.76V10H23.3874V3.544H25.1754V5.308L24.8394 4.792C25.0634 4.352 25.3794 4.02 25.7874 3.796C26.2034 3.564 26.6754 3.448 27.2034 3.448C27.7954 3.448 28.3114 3.6 28.7514 3.904C29.1994 4.2 29.4954 4.656 29.6394 5.272L28.9794 5.092C29.1954 4.588 29.5394 4.188 30.0114 3.892C30.4914 3.596 31.0394 3.448 31.6554 3.448ZM35.9734 10V1.096H37.8454V10H35.9734ZM44.8532 10V3.184H42.1652V1.6H49.4852V3.184H46.7972V10H44.8532ZM54.031 10V8.74L53.911 8.464V6.208C53.911 5.808 53.787 5.496 53.539 5.272C53.299 5.048 52.927 4.936 52.423 4.936C52.079 4.936 51.739 4.992 51.403 5.104C51.075 5.208 50.795 5.352 50.563 5.536L49.891 4.228C50.243 3.98 50.667 3.788 51.163 3.652C51.659 3.516 52.163 3.448 52.675 3.448C53.659 3.448 54.423 3.68 54.967 4.144C55.511 4.608 55.783 5.332 55.783 6.316V10H54.031ZM52.063 10.096C51.559 10.096 51.127 10.012 50.767 9.844C50.407 9.668 50.131 9.432 49.939 9.136C49.747 8.84 49.651 8.508 49.651 8.14C49.651 7.756 49.743 7.42 49.927 7.132C50.119 6.844 50.419 6.62 50.827 6.46C51.235 6.292 51.767 6.208 52.423 6.208H54.139V7.3H52.627C52.187 7.3 51.883 7.372 51.715 7.516C51.555 7.66 51.475 7.84 51.475 8.056C51.475 8.296 51.567 8.488 51.751 8.632C51.943 8.768 52.203 8.836 52.531 8.836C52.843 8.836 53.123 8.764 53.371 8.62C53.619 8.468 53.799 8.248 53.911 7.96L54.199 8.824C54.063 9.24 53.815 9.556 53.455 9.772C53.095 9.988 52.631 10.096 52.063 10.096ZM65.7453 3.448C66.2573 3.448 66.7093 3.552 67.1013 3.76C67.5013 3.96 67.8133 4.272 68.0373 4.696C68.2693 5.112 68.3853 5.648 68.3853 6.304V10H66.5133V6.592C66.5133 6.072 66.4053 5.688 66.1893 5.44C65.9733 5.192 65.6693 5.068 65.2773 5.068C65.0053 5.068 64.7613 5.132 64.5453 5.26C64.3293 5.38 64.1613 5.564 64.0413 5.812C63.9213 6.06 63.8613 6.376 63.8613 6.76V10H61.9893V6.592C61.9893 6.072 61.8813 5.688 61.6653 5.44C61.4573 5.192 61.1573 5.068 60.7653 5.068C60.4933 5.068 60.2493 5.132 60.0333 5.26C59.8173 5.38 59.6493 5.564 59.5293 5.812C59.4093 6.06 59.3493 6.376 59.3493 6.76V10H57.4773V3.544H59.2653V5.308L58.9293 4.792C59.1533 4.352 59.4693 4.02 59.8773 3.796C60.2933 3.564 60.7653 3.448 61.2933 3.448C61.8853 3.448 62.4013 3.6 62.8413 3.904C63.2893 4.2 63.5853 4.656 63.7293 5.272L63.0693 5.092C63.2853 4.588 63.6293 4.188 64.1013 3.892C64.5813 3.596 65.1293 3.448 65.7453 3.448ZM73.8792 10.096C73.3352 10.096 72.8592 9.976 72.4512 9.736C72.0432 9.496 71.7232 9.132 71.4912 8.644C71.2672 8.148 71.1552 7.524 71.1552 6.772C71.1552 6.012 71.2632 5.388 71.4792 4.9C71.6952 4.412 72.0072 4.048 72.4152 3.808C72.8232 3.568 73.3112 3.448 73.8792 3.448C74.4872 3.448 75.0312 3.588 75.5112 3.868C75.9992 4.14 76.3832 4.524 76.6632 5.02C76.9512 5.516 77.0952 6.1 77.0952 6.772C77.0952 7.452 76.9512 8.04 76.6632 8.536C76.3832 9.032 75.9992 9.416 75.5112 9.688C75.0312 9.96 74.4872 10.096 73.8792 10.096ZM70.0632 12.328V3.544H71.8512V4.864L71.8152 6.784L71.9352 8.692V12.328H70.0632ZM73.5552 8.56C73.8672 8.56 74.1432 8.488 74.3832 8.344C74.6312 8.2 74.8272 7.996 74.9712 7.732C75.1232 7.46 75.1992 7.14 75.1992 6.772C75.1992 6.396 75.1232 6.076 74.9712 5.812C74.8272 5.548 74.6312 5.344 74.3832 5.2C74.1432 5.056 73.8672 4.984 73.5552 4.984C73.2432 4.984 72.9632 5.056 72.7152 5.2C72.4672 5.344 72.2712 5.548 72.1272 5.812C71.9832 6.076 71.9112 6.396 71.9112 6.772C71.9112 7.14 71.9832 7.46 72.1272 7.732C72.2712 7.996 72.4672 8.2 72.7152 8.344C72.9632 8.488 73.2432 8.56 73.5552 8.56ZM81.5524 10.096C80.8164 10.096 80.1684 9.952 79.6084 9.664C79.0564 9.376 78.6284 8.984 78.3244 8.488C78.0204 7.984 77.8684 7.412 77.8684 6.772C77.8684 6.124 78.0164 5.552 78.3124 5.056C78.6164 4.552 79.0284 4.16 79.5484 3.88C80.0684 3.592 80.6564 3.448 81.3124 3.448C81.9444 3.448 82.5124 3.584 83.0164 3.856C83.5284 4.12 83.9324 4.504 84.2284 5.008C84.5244 5.504 84.6724 6.1 84.6724 6.796C84.6724 6.868 84.6684 6.952 84.6604 7.048C84.6524 7.136 84.6444 7.22 84.6364 7.3H79.3924V6.208H83.6524L82.9324 6.532C82.9324 6.196 82.8644 5.904 82.7284 5.656C82.5924 5.408 82.4044 5.216 82.1644 5.08C81.9244 4.936 81.6444 4.864 81.3244 4.864C81.0044 4.864 80.7204 4.936 80.4724 5.08C80.2324 5.216 80.0444 5.412 79.9084 5.668C79.7724 5.916 79.7044 6.212 79.7044 6.556V6.844C79.7044 7.196 79.7804 7.508 79.9324 7.78C80.0924 8.044 80.3124 8.248 80.5924 8.392C80.8804 8.528 81.2164 8.596 81.6004 8.596C81.9444 8.596 82.2444 8.544 82.5004 8.44C82.7644 8.336 83.0044 8.18 83.2204 7.972L84.2164 9.052C83.9204 9.388 83.5484 9.648 83.1004 9.832C82.6524 10.008 82.1364 10.096 81.5524 10.096ZM85.9187 10V3.544H87.7067V5.368L87.4547 4.84C87.6467 4.384 87.9547 4.04 88.3787 3.808C88.8027 3.568 89.3187 3.448 89.9267 3.448V5.176C89.8467 5.168 89.7747 5.164 89.7107 5.164C89.6467 5.156 89.5787 5.152 89.5067 5.152C88.9947 5.152 88.5787 5.3 88.2587 5.596C87.9467 5.884 87.7907 6.336 87.7907 6.952V10H85.9187ZM96.4051 4.984H100.449V6.496H96.4051V4.984ZM96.5491 8.44H101.121V10H94.6171V1.6H100.965V3.16H96.5491V8.44ZM104.229 10L101.517 3.544H103.449L105.705 9.1H104.745L107.085 3.544H108.885L106.161 10H104.229ZM109.649 10V3.544H111.521V10H109.649ZM110.585 2.644C110.241 2.644 109.961 2.544 109.745 2.344C109.529 2.144 109.421 1.896 109.421 1.6C109.421 1.304 109.529 1.056 109.745 0.856C109.961 0.655999 110.241 0.555999 110.585 0.555999C110.929 0.555999 111.209 0.651999 111.425 0.844C111.641 1.028 111.749 1.268 111.749 1.564C111.749 1.876 111.641 2.136 111.425 2.344C111.217 2.544 110.937 2.644 110.585 2.644ZM116.031 10.096C115.423 10.096 114.875 9.96 114.387 9.688C113.899 9.408 113.511 9.02 113.223 8.524C112.943 8.028 112.803 7.444 112.803 6.772C112.803 6.092 112.943 5.504 113.223 5.008C113.511 4.512 113.899 4.128 114.387 3.856C114.875 3.584 115.423 3.448 116.031 3.448C116.575 3.448 117.051 3.568 117.459 3.808C117.867 4.048 118.183 4.412 118.407 4.9C118.631 5.388 118.743 6.012 118.743 6.772C118.743 7.524 118.635 8.148 118.419 8.644C118.203 9.132 117.891 9.496 117.483 9.736C117.083 9.976 116.599 10.096 116.031 10.096ZM116.355 8.56C116.659 8.56 116.935 8.488 117.183 8.344C117.431 8.2 117.627 7.996 117.771 7.732C117.923 7.46 117.999 7.14 117.999 6.772C117.999 6.396 117.923 6.076 117.771 5.812C117.627 5.548 117.431 5.344 117.183 5.2C116.935 5.056 116.659 4.984 116.355 4.984C116.043 4.984 115.763 5.056 115.515 5.2C115.267 5.344 115.067 5.548 114.915 5.812C114.771 6.076 114.699 6.396 114.699 6.772C114.699 7.14 114.771 7.46 114.915 7.732C115.067 7.996 115.267 8.2 115.515 8.344C115.763 8.488 116.043 8.56 116.355 8.56ZM118.047 10V8.68L118.083 6.76L117.963 4.852V1.096H119.835V10H118.047ZM124.771 10.096C124.035 10.096 123.387 9.952 122.827 9.664C122.275 9.376 121.847 8.984 121.543 8.488C121.239 7.984 121.087 7.412 121.087 6.772C121.087 6.124 121.235 5.552 121.531 5.056C121.835 4.552 122.247 4.16 122.767 3.88C123.287 3.592 123.875 3.448 124.531 3.448C125.163 3.448 125.731 3.584 126.235 3.856C126.747 4.12 127.151 4.504 127.447 5.008C127.743 5.504 127.891 6.1 127.891 6.796C127.891 6.868 127.887 6.952 127.879 7.048C127.871 7.136 127.863 7.22 127.855 7.3H122.611V6.208H126.871L126.151 6.532C126.151 6.196 126.083 5.904 125.947 5.656C125.811 5.408 125.623 5.216 125.383 5.08C125.143 4.936 124.863 4.864 124.543 4.864C124.223 4.864 123.939 4.936 123.691 5.08C123.451 5.216 123.263 5.412 123.127 5.668C122.991 5.916 122.923 6.212 122.923 6.556V6.844C122.923 7.196 122.999 7.508 123.151 7.78C123.311 8.044 123.531 8.248 123.811 8.392C124.099 8.528 124.435 8.596 124.819 8.596C125.163 8.596 125.463 8.544 125.719 8.44C125.983 8.336 126.223 8.18 126.439 7.972L127.435 9.052C127.139 9.388 126.767 9.648 126.319 9.832C125.871 10.008 125.355 10.096 124.771 10.096ZM133.061 3.448C133.573 3.448 134.029 3.552 134.429 3.76C134.837 3.96 135.157 4.272 135.389 4.696C135.621 5.112 135.737 5.648 135.737 6.304V10H133.865V6.592C133.865 6.072 133.749 5.688 133.517 5.44C133.293 5.192 132.973 5.068 132.557 5.068C132.261 5.068 131.993 5.132 131.753 5.26C131.521 5.38 131.337 5.568 131.201 5.824C131.073 6.08 131.009 6.408 131.009 6.808V10H129.137V3.544H130.925V5.332L130.589 4.792C130.821 4.36 131.153 4.028 131.585 3.796C132.017 3.564 132.509 3.448 133.061 3.448ZM140.074 10.096C139.314 10.096 138.722 9.904 138.298 9.52C137.874 9.128 137.662 8.548 137.662 7.78V2.116H139.534V7.756C139.534 8.028 139.606 8.24 139.75 8.392C139.894 8.536 140.09 8.608 140.338 8.608C140.634 8.608 140.886 8.528 141.094 8.368L141.598 9.688C141.406 9.824 141.174 9.928 140.902 10C140.638 10.064 140.362 10.096 140.074 10.096ZM136.666 5.128V3.688H141.142V5.128H136.666ZM0.996 25V16.6H4.632C5.384 16.6 6.032 16.724 6.576 16.972C7.12 17.212 7.54 17.56 7.836 18.016C8.132 18.472 8.28 19.016 8.28 19.648C8.28 20.272 8.132 20.812 7.836 21.268C7.54 21.716 7.12 22.06 6.576 22.3C6.032 22.54 5.384 22.66 4.632 22.66H2.076L2.94 21.808V25H0.996ZM6.336 25L4.236 21.952H6.312L8.436 25H6.336ZM2.94 22.024L2.076 21.112H4.524C5.124 21.112 5.572 20.984 5.868 20.728C6.164 20.464 6.312 20.104 6.312 19.648C6.312 19.184 6.164 18.824 5.868 18.568C5.572 18.312 5.124 18.184 4.524 18.184H2.076L2.94 17.26V22.024ZM12.8922 25.096C12.1562 25.096 11.5082 24.952 10.9482 24.664C10.3962 24.376 9.96822 23.984 9.66422 23.488C9.36022 22.984 9.20822 22.412 9.20822 21.772C9.20822 21.124 9.35622 20.552 9.65222 20.056C9.95622 19.552 10.3682 19.16 10.8882 18.88C11.4082 18.592 11.9962 18.448 12.6522 18.448C13.2842 18.448 13.8522 18.584 14.3562 18.856C14.8682 19.12 15.2722 19.504 15.5682 20.008C15.8642 20.504 16.0122 21.1 16.0122 21.796C16.0122 21.868 16.0082 21.952 16.0002 22.048C15.9922 22.136 15.9842 22.22 15.9762 22.3H10.7322V21.208H14.9922L14.2722 21.532C14.2722 21.196 14.2042 20.904 14.0682 20.656C13.9322 20.408 13.7442 20.216 13.5042 20.08C13.2642 19.936 12.9842 19.864 12.6642 19.864C12.3442 19.864 12.0602 19.936 11.8122 20.08C11.5722 20.216 11.3842 20.412 11.2482 20.668C11.1122 20.916 11.0442 21.212 11.0442 21.556V21.844C11.0442 22.196 11.1202 22.508 11.2722 22.78C11.4322 23.044 11.6522 23.248 11.9322 23.392C12.2202 23.528 12.5562 23.596 12.9402 23.596C13.2842 23.596 13.5842 23.544 13.8402 23.44C14.1042 23.336 14.3442 23.18 14.5602 22.972L15.5562 24.052C15.2602 24.388 14.8882 24.648 14.4402 24.832C13.9922 25.008 13.4762 25.096 12.8922 25.096ZM20.3785 25.096C19.6825 25.096 19.0625 24.956 18.5185 24.676C17.9745 24.388 17.5465 23.992 17.2345 23.488C16.9305 22.984 16.7785 22.412 16.7785 21.772C16.7785 21.124 16.9305 20.552 17.2345 20.056C17.5465 19.552 17.9745 19.16 18.5185 18.88C19.0625 18.592 19.6825 18.448 20.3785 18.448C21.0585 18.448 21.6505 18.592 22.1545 18.88C22.6585 19.16 23.0305 19.564 23.2705 20.092L21.8185 20.872C21.6505 20.568 21.4385 20.344 21.1825 20.2C20.9345 20.056 20.6625 19.984 20.3665 19.984C20.0465 19.984 19.7585 20.056 19.5025 20.2C19.2465 20.344 19.0425 20.548 18.8905 20.812C18.7465 21.076 18.6745 21.396 18.6745 21.772C18.6745 22.148 18.7465 22.468 18.8905 22.732C19.0425 22.996 19.2465 23.2 19.5025 23.344C19.7585 23.488 20.0465 23.56 20.3665 23.56C20.6625 23.56 20.9345 23.492 21.1825 23.356C21.4385 23.212 21.6505 22.984 21.8185 22.672L23.2705 23.464C23.0305 23.984 22.6585 24.388 22.1545 24.676C21.6505 24.956 21.0585 25.096 20.3785 25.096ZM27.0821 25.096C26.3221 25.096 25.7301 24.904 25.3061 24.52C24.8821 24.128 24.6701 23.548 24.6701 22.78V17.116H26.5421V22.756C26.5421 23.028 26.6141 23.24 26.7581 23.392C26.9021 23.536 27.0981 23.608 27.3461 23.608C27.6421 23.608 27.8941 23.528 28.1021 23.368L28.6061 24.688C28.4141 24.824 28.1821 24.928 27.9101 25C27.6461 25.064 27.3701 25.096 27.0821 25.096ZM23.6741 20.128V18.688H28.1501V20.128H23.6741ZM33.617 25V23.74L33.497 23.464V21.208C33.497 20.808 33.373 20.496 33.125 20.272C32.885 20.048 32.513 19.936 32.009 19.936C31.665 19.936 31.325 19.992 30.989 20.104C30.661 20.208 30.381 20.352 30.149 20.536L29.477 19.228C29.829 18.98 30.253 18.788 30.749 18.652C31.245 18.516 31.749 18.448 32.261 18.448C33.245 18.448 34.009 18.68 34.553 19.144C35.097 19.608 35.369 20.332 35.369 21.316V25H33.617ZM31.649 25.096C31.145 25.096 30.713 25.012 30.353 24.844C29.993 24.668 29.717 24.432 29.525 24.136C29.333 23.84 29.237 23.508 29.237 23.14C29.237 22.756 29.329 22.42 29.513 22.132C29.705 21.844 30.005 21.62 30.413 21.46C30.821 21.292 31.353 21.208 32.009 21.208H33.725V22.3H32.213C31.773 22.3 31.469 22.372 31.301 22.516C31.141 22.66 31.061 22.84 31.061 23.056C31.061 23.296 31.153 23.488 31.337 23.632C31.529 23.768 31.789 23.836 32.117 23.836C32.429 23.836 32.709 23.764 32.957 23.62C33.205 23.468 33.385 23.248 33.497 22.96L33.785 23.824C33.649 24.24 33.401 24.556 33.041 24.772C32.681 24.988 32.217 25.096 31.649 25.096ZM40.9872 18.448C41.4992 18.448 41.9552 18.552 42.3552 18.76C42.7632 18.96 43.0832 19.272 43.3152 19.696C43.5472 20.112 43.6632 20.648 43.6632 21.304V25H41.7912V21.592C41.7912 21.072 41.6752 20.688 41.4432 20.44C41.2192 20.192 40.8992 20.068 40.4832 20.068C40.1872 20.068 39.9192 20.132 39.6792 20.26C39.4472 20.38 39.2632 20.568 39.1272 20.824C38.9992 21.08 38.9352 21.408 38.9352 21.808V25H37.0632V18.544H38.8512V20.332L38.5152 19.792C38.7472 19.36 39.0792 19.028 39.5112 18.796C39.9432 18.564 40.4352 18.448 40.9872 18.448ZM48.443 27.424C47.835 27.424 47.247 27.348 46.679 27.196C46.119 27.052 45.651 26.832 45.275 26.536L46.019 25.192C46.291 25.416 46.635 25.592 47.051 25.72C47.475 25.856 47.891 25.924 48.299 25.924C48.963 25.924 49.443 25.776 49.739 25.48C50.043 25.184 50.195 24.744 50.195 24.16V23.188L50.315 21.568L50.291 19.936V18.544H52.067V23.92C52.067 25.12 51.755 26.004 51.131 26.572C50.507 27.14 49.611 27.424 48.443 27.424ZM48.155 24.688C47.555 24.688 47.011 24.56 46.523 24.304C46.043 24.04 45.655 23.676 45.359 23.212C45.071 22.74 44.927 22.192 44.927 21.568C44.927 20.936 45.071 20.388 45.359 19.924C45.655 19.452 46.043 19.088 46.523 18.832C47.011 18.576 47.555 18.448 48.155 18.448C48.699 18.448 49.179 18.56 49.595 18.784C50.011 19 50.335 19.34 50.567 19.804C50.799 20.26 50.915 20.848 50.915 21.568C50.915 22.28 50.799 22.868 50.567 23.332C50.335 23.788 50.011 24.128 49.595 24.352C49.179 24.576 48.699 24.688 48.155 24.688ZM48.527 23.152C48.855 23.152 49.147 23.088 49.403 22.96C49.659 22.824 49.859 22.636 50.003 22.396C50.147 22.156 50.219 21.88 50.219 21.568C50.219 21.248 50.147 20.972 50.003 20.74C49.859 20.5 49.659 20.316 49.403 20.188C49.147 20.052 48.855 19.984 48.527 19.984C48.199 19.984 47.907 20.052 47.651 20.188C47.395 20.316 47.191 20.5 47.039 20.74C46.895 20.972 46.823 21.248 46.823 21.568C46.823 21.88 46.895 22.156 47.039 22.396C47.191 22.636 47.395 22.824 47.651 22.96C47.907 23.088 48.199 23.152 48.527 23.152ZM56.5333 25.096C55.9973 25.096 55.5173 24.992 55.0933 24.784C54.6773 24.576 54.3533 24.26 54.1213 23.836C53.8893 23.404 53.7733 22.856 53.7733 22.192V18.544H55.6453V21.916C55.6453 22.452 55.7573 22.848 55.9813 23.104C56.2133 23.352 56.5373 23.476 56.9533 23.476C57.2413 23.476 57.4973 23.416 57.7213 23.296C57.9453 23.168 58.1213 22.976 58.2493 22.72C58.3773 22.456 58.4413 22.128 58.4413 21.736V18.544H60.3133V25H58.5373V23.224L58.8613 23.74C58.6453 24.188 58.3253 24.528 57.9013 24.76C57.4853 24.984 57.0293 25.096 56.5333 25.096ZM62.0476 25V16.096H63.9196V25H62.0476ZM69.617 25V23.74L69.497 23.464V21.208C69.497 20.808 69.373 20.496 69.125 20.272C68.885 20.048 68.513 19.936 68.009 19.936C67.665 19.936 67.325 19.992 66.989 20.104C66.661 20.208 66.381 20.352 66.149 20.536L65.477 19.228C65.829 18.98 66.253 18.788 66.749 18.652C67.245 18.516 67.749 18.448 68.261 18.448C69.245 18.448 70.009 18.68 70.553 19.144C71.097 19.608 71.369 20.332 71.369 21.316V25H69.617ZM67.649 25.096C67.145 25.096 66.713 25.012 66.353 24.844C65.993 24.668 65.717 24.432 65.525 24.136C65.333 23.84 65.237 23.508 65.237 23.14C65.237 22.756 65.329 22.42 65.513 22.132C65.705 21.844 66.005 21.62 66.413 21.46C66.821 21.292 67.353 21.208 68.009 21.208H69.725V22.3H68.213C67.773 22.3 67.469 22.372 67.301 22.516C67.141 22.66 67.061 22.84 67.061 23.056C67.061 23.296 67.153 23.488 67.337 23.632C67.529 23.768 67.789 23.836 68.117 23.836C68.429 23.836 68.709 23.764 68.957 23.62C69.205 23.468 69.385 23.248 69.497 22.96L69.785 23.824C69.649 24.24 69.401 24.556 69.041 24.772C68.681 24.988 68.217 25.096 67.649 25.096ZM73.0632 25V18.544H74.8512V20.368L74.5992 19.84C74.7912 19.384 75.0992 19.04 75.5232 18.808C75.9472 18.568 76.4632 18.448 77.0712 18.448V20.176C76.9912 20.168 76.9192 20.164 76.8552 20.164C76.7912 20.156 76.7232 20.152 76.6512 20.152C76.1392 20.152 75.7232 20.3 75.4032 20.596C75.0912 20.884 74.9352 21.336 74.9352 21.952V25H73.0632Z" fill="black"/>
</svg>
