<svg width="143" height="30" viewBox="0 0 143 30" fill="none" xmlns="http://www.w3.org/2000/svg">
<path d="M0.256 6L2.736 0.36H3.376L5.856 6H5.112L4.424 4.392L4.776 4.616H1.336L1.68 4.392L1 6H0.256ZM3.04 1.176L1.776 4.16L1.576 4.008H4.536L4.336 4.16L3.072 1.176H3.04ZM9.17575 6V0.36H9.88775V5.368H12.7517V6H9.17575ZM15.032 6.072C14.7493 6.072 14.496 6.02133 14.272 5.92C14.048 5.81333 13.872 5.66933 13.744 5.488C13.616 5.30667 13.552 5.104 13.552 4.88C13.552 4.576 13.6373 4.33867 13.808 4.168C13.9787 3.992 14.24 3.86667 14.592 3.792C14.9493 3.71733 15.4053 3.68 15.96 3.68H16.528V4.168H15.992C15.6827 4.168 15.4187 4.17867 15.2 4.2C14.9813 4.216 14.8027 4.25067 14.664 4.304C14.5253 4.352 14.424 4.41867 14.36 4.504C14.296 4.58933 14.264 4.70133 14.264 4.84C14.264 5.05333 14.3467 5.21867 14.512 5.336C14.6827 5.45333 14.8987 5.512 15.16 5.512C15.3893 5.512 15.5973 5.46133 15.784 5.36C15.976 5.25333 16.128 5.112 16.24 4.936C16.3573 4.76 16.416 4.56533 16.416 4.352V3.448C16.416 3.13333 16.328 2.90667 16.152 2.768C15.976 2.624 15.7147 2.552 15.368 2.552C15.1333 2.552 14.8987 2.584 14.664 2.648C14.4347 2.712 14.1973 2.81867 13.952 2.968L13.72 2.44C13.8853 2.33867 14.0613 2.256 14.248 2.192C14.4347 2.12267 14.6293 2.06933 14.832 2.032C15.0347 1.99467 15.2373 1.976 15.44 1.976C15.7813 1.976 16.0747 2.02933 16.32 2.136C16.5707 2.24267 16.7627 2.408 16.896 2.632C17.0347 2.856 17.104 3.14933 17.104 3.512V6H16.48V5.136C16.4053 5.30133 16.3013 5.456 16.168 5.6C16.0347 5.744 15.872 5.85867 15.68 5.944C15.4933 6.02933 15.2773 6.072 15.032 6.072ZM18.5167 6V2.048H19.1647V2.96H19.1727C19.2687 2.66667 19.4367 2.43733 19.6767 2.272C19.9167 2.10133 20.21 2.00533 20.5567 1.984L20.9167 1.968L20.9807 2.616L20.4047 2.664C20.0367 2.696 19.7487 2.81867 19.5407 3.032C19.3327 3.24 19.2287 3.50133 19.2287 3.816V6H18.5167ZM23.5256 7.512C23.2109 7.512 22.8989 7.464 22.5896 7.368C22.2802 7.27733 22.0162 7.152 21.7976 6.992L22.0216 6.44C22.1709 6.536 22.3282 6.61867 22.4936 6.688C22.6589 6.76267 22.8269 6.816 22.9976 6.848C23.1736 6.88533 23.3469 6.904 23.5176 6.904C23.9282 6.904 24.2482 6.8 24.4776 6.592C24.7122 6.384 24.8296 6.088 24.8296 5.704V4.976H24.8136C24.7176 5.248 24.5442 5.46933 24.2936 5.64C24.0429 5.80533 23.7522 5.888 23.4216 5.888C23.0482 5.888 22.7229 5.808 22.4456 5.648C22.1682 5.48267 21.9522 5.25333 21.7976 4.96C21.6482 4.66667 21.5736 4.32267 21.5736 3.928C21.5736 3.53867 21.6482 3.19733 21.7976 2.904C21.9522 2.61067 22.1682 2.384 22.4456 2.224C22.7229 2.05867 23.0482 1.976 23.4216 1.976C23.7522 1.976 24.0429 2.06133 24.2936 2.232C24.5496 2.40267 24.7256 2.62933 24.8216 2.912H24.8296V2.048H25.4936V5.64C25.4936 6.024 25.4136 6.35467 25.2536 6.632C25.0989 6.91467 24.8749 7.13067 24.5816 7.28C24.2882 7.43467 23.9362 7.512 23.5256 7.512ZM23.5416 5.304C23.9309 5.304 24.2376 5.17867 24.4616 4.928C24.6909 4.67733 24.8056 4.344 24.8056 3.928C24.8056 3.512 24.6909 3.18133 24.4616 2.936C24.2376 2.68533 23.9309 2.56 23.5416 2.56C23.1576 2.56 22.8509 2.68533 22.6216 2.936C22.3976 3.18133 22.2856 3.512 22.2856 3.928C22.2856 4.344 22.3976 4.67733 22.6216 4.928C22.8509 5.17867 23.1576 5.304 23.5416 5.304ZM28.8191 6.072C28.3765 6.072 27.9925 5.992 27.6671 5.832C27.3471 5.66667 27.1018 5.432 26.9311 5.128C26.7605 4.81867 26.6751 4.45067 26.6751 4.024C26.6751 3.624 26.7551 3.272 26.9151 2.968C27.0751 2.65867 27.3018 2.416 27.5951 2.24C27.8885 2.064 28.2378 1.976 28.6431 1.976C29.0271 1.976 29.3525 2.05867 29.6191 2.224C29.8911 2.38933 30.0965 2.62133 30.2351 2.92C30.3791 3.21867 30.4511 3.57333 30.4511 3.984V4.216H27.2111V3.72H29.9871L29.8351 3.88C29.8351 3.44267 29.7311 3.10667 29.5231 2.872C29.3205 2.63733 29.0271 2.52 28.6431 2.52C28.3925 2.52 28.1685 2.57867 27.9711 2.696C27.7791 2.808 27.6298 2.968 27.5231 3.176C27.4165 3.384 27.3631 3.63733 27.3631 3.936V4.016C27.3631 4.336 27.4218 4.60533 27.5391 4.824C27.6565 5.04267 27.8245 5.208 28.0431 5.32C28.2618 5.432 28.5231 5.488 28.8271 5.488C29.0458 5.488 29.2671 5.45867 29.4911 5.4C29.7205 5.336 29.9338 5.224 30.1311 5.064L30.3711 5.576C30.1685 5.74667 29.9258 5.872 29.6431 5.952C29.3658 6.032 29.0911 6.072 28.8191 6.072ZM33.8844 6V5.392H35.4284V0.928L35.8044 0.984L34.1644 2.04L33.8444 1.488L35.6124 0.36H36.1324V5.392H37.5564V6H33.8844ZM40.3453 6.072C39.9133 6.072 39.548 5.96267 39.2493 5.744C38.9506 5.52 38.724 5.19467 38.5693 4.768C38.42 4.336 38.3453 3.80533 38.3453 3.176C38.3453 2.54667 38.42 2.01867 38.5693 1.592C38.724 1.16533 38.9506 0.842666 39.2493 0.624C39.548 0.4 39.9133 0.288 40.3453 0.288C40.788 0.288 41.156 0.397333 41.4493 0.616C41.7426 0.834666 41.964 1.15733 42.1133 1.584C42.268 2.01067 42.3453 2.53867 42.3453 3.168C42.3453 3.79733 42.268 4.328 42.1133 4.76C41.964 5.192 41.74 5.52 41.4413 5.744C41.1426 5.96267 40.7773 6.072 40.3453 6.072ZM40.3453 5.448C40.7826 5.448 41.108 5.264 41.3213 4.896C41.5346 4.528 41.6413 3.952 41.6413 3.168C41.6413 2.38933 41.5346 1.81867 41.3213 1.456C41.1133 1.09333 40.7906 0.912 40.3533 0.912C39.9106 0.912 39.5826 1.096 39.3693 1.464C39.156 1.82667 39.0493 2.39733 39.0493 3.176C39.0493 3.94933 39.156 4.52267 39.3693 4.896C39.5826 5.264 39.908 5.448 40.3453 5.448ZM45.1422 6.072C44.7102 6.072 44.3449 5.96267 44.0462 5.744C43.7475 5.52 43.5209 5.19467 43.3662 4.768C43.2169 4.336 43.1422 3.80533 43.1422 3.176C43.1422 2.54667 43.2169 2.01867 43.3662 1.592C43.5209 1.16533 43.7475 0.842666 44.0462 0.624C44.3449 0.4 44.7102 0.288 45.1422 0.288C45.5849 0.288 45.9529 0.397333 46.2462 0.616C46.5395 0.834666 46.7609 1.15733 46.9102 1.584C47.0649 2.01067 47.1422 2.53867 47.1422 3.168C47.1422 3.79733 47.0649 4.328 46.9102 4.76C46.7609 5.192 46.5369 5.52 46.2382 5.744C45.9395 5.96267 45.5742 6.072 45.1422 6.072ZM45.1422 5.448C45.5795 5.448 45.9049 5.264 46.1182 4.896C46.3315 4.528 46.4382 3.952 46.4382 3.168C46.4382 2.38933 46.3315 1.81867 46.1182 1.456C45.9102 1.09333 45.5875 0.912 45.1502 0.912C44.7075 0.912 44.3795 1.096 44.1662 1.464C43.9529 1.82667 43.8462 2.39733 43.8462 3.176C43.8462 3.94933 43.9529 4.52267 44.1662 4.896C44.3795 5.264 44.7049 5.448 45.1422 5.448ZM49.9391 6.072C49.5071 6.072 49.1417 5.96267 48.8431 5.744C48.5444 5.52 48.3177 5.19467 48.1631 4.768C48.0137 4.336 47.9391 3.80533 47.9391 3.176C47.9391 2.54667 48.0137 2.01867 48.1631 1.592C48.3177 1.16533 48.5444 0.842666 48.8431 0.624C49.1417 0.4 49.5071 0.288 49.9391 0.288C50.3817 0.288 50.7497 0.397333 51.0431 0.616C51.3364 0.834666 51.5577 1.15733 51.7071 1.584C51.8617 2.01067 51.9391 2.53867 51.9391 3.168C51.9391 3.79733 51.8617 4.328 51.7071 4.76C51.5577 5.192 51.3337 5.52 51.0351 5.744C50.7364 5.96267 50.3711 6.072 49.9391 6.072ZM49.9391 5.448C50.3764 5.448 50.7017 5.264 50.9151 4.896C51.1284 4.528 51.2351 3.952 51.2351 3.168C51.2351 2.38933 51.1284 1.81867 50.9151 1.456C50.7071 1.09333 50.3844 0.912 49.9471 0.912C49.5044 0.912 49.1764 1.096 48.9631 1.464C48.7497 1.82667 48.6431 2.39733 48.6431 3.176C48.6431 3.94933 48.7497 4.52267 48.9631 4.896C49.1764 5.264 49.5017 5.448 49.9391 5.448ZM53.0639 6V2.048H53.7199V2.912C53.7893 2.736 53.8853 2.57867 54.0079 2.44C54.1359 2.296 54.2879 2.184 54.4639 2.104C54.6453 2.01867 54.8426 1.976 55.0559 1.976C55.4026 1.976 55.6879 2.06133 55.9119 2.232C56.1359 2.40267 56.2746 2.62667 56.3279 2.904H56.3199C56.4266 2.64267 56.5946 2.424 56.8239 2.248C57.0586 2.06667 57.3519 1.976 57.7039 1.976C58.0026 1.976 58.2559 2.03467 58.4639 2.152C58.6719 2.264 58.8293 2.43733 58.9359 2.672C59.0426 2.90667 59.0959 3.20267 59.0959 3.56V6H58.3919V3.608C58.3919 3.26667 58.3306 3.01067 58.2079 2.84C58.0853 2.66933 57.8666 2.584 57.5519 2.584C57.3173 2.584 57.1146 2.63733 56.9439 2.744C56.7786 2.84533 56.6506 2.98933 56.5599 3.176C56.4746 3.35733 56.4319 3.56267 56.4319 3.792V6H55.7279V3.608C55.7279 3.272 55.6586 3.01867 55.5199 2.848C55.3813 2.672 55.1706 2.584 54.8879 2.584C54.6586 2.584 54.4586 2.64267 54.2879 2.76C54.1226 2.872 53.9946 3.01867 53.9039 3.2C53.8133 3.38133 53.7679 3.57333 53.7679 3.776V6H53.0639ZM61.7245 6.072C61.3405 6.072 61.0445 5.96 60.8365 5.736C60.6285 5.512 60.5245 5.19733 60.5245 4.792V0.36H61.2365V4.72C61.2365 4.88 61.2605 5.01867 61.3085 5.136C61.3565 5.248 61.4258 5.33333 61.5165 5.392C61.6072 5.45067 61.7165 5.48 61.8445 5.48C61.9245 5.48 61.9992 5.47733 62.0685 5.472C62.1432 5.46133 62.2178 5.44533 62.2925 5.424L62.3085 5.984C62.2178 6.016 62.1245 6.03733 62.0285 6.048C61.9378 6.064 61.8365 6.072 61.7245 6.072ZM66.8408 6V0.992H64.8088V0.36H69.5848V0.992H67.5528V6H66.8408ZM71.1726 6.072C70.89 6.072 70.6366 6.02133 70.4126 5.92C70.1886 5.81333 70.0126 5.66933 69.8846 5.488C69.7566 5.30667 69.6926 5.104 69.6926 4.88C69.6926 4.576 69.778 4.33867 69.9486 4.168C70.1193 3.992 70.3806 3.86667 70.7326 3.792C71.09 3.71733 71.546 3.68 72.1006 3.68H72.6686V4.168H72.1326C71.8233 4.168 71.5593 4.17867 71.3406 4.2C71.122 4.216 70.9433 4.25067 70.8046 4.304C70.666 4.352 70.5646 4.41867 70.5006 4.504C70.4366 4.58933 70.4046 4.70133 70.4046 4.84C70.4046 5.05333 70.4873 5.21867 70.6526 5.336C70.8233 5.45333 71.0393 5.512 71.3006 5.512C71.53 5.512 71.738 5.46133 71.9246 5.36C72.1166 5.25333 72.2686 5.112 72.3806 4.936C72.498 4.76 72.5566 4.56533 72.5566 4.352V3.448C72.5566 3.13333 72.4686 2.90667 72.2926 2.768C72.1166 2.624 71.8553 2.552 71.5086 2.552C71.274 2.552 71.0393 2.584 70.8046 2.648C70.5753 2.712 70.338 2.81867 70.0926 2.968L69.8606 2.44C70.026 2.33867 70.202 2.256 70.3886 2.192C70.5753 2.12267 70.77 2.06933 70.9726 2.032C71.1753 1.99467 71.378 1.976 71.5806 1.976C71.922 1.976 72.2153 2.02933 72.4606 2.136C72.7113 2.24267 72.9033 2.408 73.0366 2.632C73.1753 2.856 73.2446 3.14933 73.2446 3.512V6H72.6206V5.136C72.546 5.30133 72.442 5.456 72.3086 5.6C72.1753 5.744 72.0126 5.85867 71.8206 5.944C71.634 6.02933 71.418 6.072 71.1726 6.072ZM74.6733 6V2.048H75.3293V2.912C75.3986 2.736 75.4946 2.57867 75.6173 2.44C75.7453 2.296 75.8973 2.184 76.0733 2.104C76.2546 2.01867 76.452 1.976 76.6653 1.976C77.012 1.976 77.2973 2.06133 77.5213 2.232C77.7453 2.40267 77.884 2.62667 77.9373 2.904H77.9293C78.036 2.64267 78.204 2.424 78.4333 2.248C78.668 2.06667 78.9613 1.976 79.3133 1.976C79.612 1.976 79.8653 2.03467 80.0733 2.152C80.2813 2.264 80.4386 2.43733 80.5453 2.672C80.652 2.90667 80.7053 3.20267 80.7053 3.56V6H80.0013V3.608C80.0013 3.26667 79.94 3.01067 79.8173 2.84C79.6946 2.66933 79.476 2.584 79.1613 2.584C78.9266 2.584 78.724 2.63733 78.5533 2.744C78.388 2.84533 78.26 2.98933 78.1693 3.176C78.084 3.35733 78.0413 3.56267 78.0413 3.792V6H77.3373V3.608C77.3373 3.272 77.268 3.01867 77.1293 2.848C76.9906 2.672 76.78 2.584 76.4973 2.584C76.268 2.584 76.068 2.64267 75.8973 2.76C75.732 2.872 75.604 3.01867 75.5133 3.2C75.4226 3.38133 75.3773 3.57333 75.3773 3.776V6H74.6733ZM82.1339 7.44V2.04H82.7899V2.912C82.9072 2.61333 83.0912 2.384 83.3419 2.224C83.5979 2.05867 83.8965 1.976 84.2379 1.976C84.6059 1.976 84.9259 2.06133 85.1979 2.232C85.4699 2.40267 85.6805 2.64 85.8299 2.944C85.9792 3.248 86.0539 3.608 86.0539 4.024C86.0539 4.424 85.9792 4.77867 85.8299 5.088C85.6859 5.39733 85.4779 5.64 85.2059 5.816C84.9339 5.98667 84.6139 6.072 84.2459 6.072C83.9099 6.072 83.6192 5.992 83.3739 5.832C83.1339 5.66667 82.9579 5.448 82.8459 5.176V7.44H82.1339ZM84.0859 5.488C84.4752 5.488 84.7819 5.35733 85.0059 5.096C85.2299 4.82933 85.3419 4.46933 85.3419 4.016C85.3419 3.56267 85.2299 3.208 85.0059 2.952C84.7819 2.69067 84.4752 2.56 84.0859 2.56C83.7019 2.56 83.3979 2.69067 83.1739 2.952C82.9499 3.208 82.8379 3.56267 82.8379 4.016C82.8379 4.46933 82.9499 4.82933 83.1739 5.096C83.3979 5.35733 83.7019 5.488 84.0859 5.488ZM89.1394 6.072C88.6968 6.072 88.3128 5.992 87.9874 5.832C87.6674 5.66667 87.4221 5.432 87.2514 5.128C87.0808 4.81867 86.9954 4.45067 86.9954 4.024C86.9954 3.624 87.0754 3.272 87.2354 2.968C87.3954 2.65867 87.6221 2.416 87.9154 2.24C88.2088 2.064 88.5581 1.976 88.9634 1.976C89.3474 1.976 89.6728 2.05867 89.9394 2.224C90.2114 2.38933 90.4168 2.62133 90.5554 2.92C90.6994 3.21867 90.7714 3.57333 90.7714 3.984V4.216H87.5314V3.72H90.3074L90.1554 3.88C90.1554 3.44267 90.0514 3.10667 89.8434 2.872C89.6408 2.63733 89.3474 2.52 88.9634 2.52C88.7128 2.52 88.4888 2.57867 88.2914 2.696C88.0994 2.808 87.9501 2.968 87.8434 3.176C87.7368 3.384 87.6834 3.63733 87.6834 3.936V4.016C87.6834 4.336 87.7421 4.60533 87.8594 4.824C87.9768 5.04267 88.1448 5.208 88.3634 5.32C88.5821 5.432 88.8434 5.488 89.1474 5.488C89.3661 5.488 89.5874 5.45867 89.8114 5.4C90.0408 5.336 90.2541 5.224 90.4514 5.064L90.6914 5.576C90.4888 5.74667 90.2461 5.872 89.9634 5.952C89.6861 6.032 89.4114 6.072 89.1394 6.072ZM91.9464 6V2.048H92.5944V2.96H92.6024C92.6984 2.66667 92.8664 2.43733 93.1064 2.272C93.3464 2.10133 93.6397 2.00533 93.9864 1.984L94.3464 1.968L94.4104 2.616L93.8344 2.664C93.4664 2.696 93.1784 2.81867 92.9704 3.032C92.7624 3.24 92.6584 3.50133 92.6584 3.816V6H91.9464ZM94.9666 4.144V3.568H97.2066V4.144H94.9666ZM98.6133 6V0.36H102.285V0.984H99.3173V2.832H102.125V3.456H99.3173V5.376H102.285V6H98.6133ZM104.637 6L102.981 2.048H103.741L105.029 5.296H104.989L106.277 2.048H107.013L105.349 6H104.637ZM107.812 1.096V0.304H108.676V1.096H107.812ZM107.892 6V2.048H108.604V6H107.892ZM111.601 6.072C111.238 6.072 110.921 5.98667 110.649 5.816C110.377 5.64533 110.163 5.40533 110.009 5.096C109.859 4.78667 109.785 4.42933 109.785 4.024C109.785 3.61333 109.859 3.256 110.009 2.952C110.158 2.64267 110.369 2.40267 110.641 2.232C110.913 2.06133 111.23 1.976 111.593 1.976C111.934 1.976 112.225 2.056 112.465 2.216C112.71 2.376 112.886 2.59467 112.993 2.872V0.36H113.705V6H113.049V5.128C112.931 5.42667 112.747 5.65867 112.497 5.824C112.246 5.98933 111.947 6.072 111.601 6.072ZM111.753 5.488C112.142 5.488 112.446 5.35733 112.665 5.096C112.889 4.83467 113.001 4.47733 113.001 4.024C113.001 3.57067 112.889 3.21333 112.665 2.952C112.446 2.69067 112.142 2.56 111.753 2.56C111.369 2.56 111.062 2.69067 110.833 2.952C110.609 3.21333 110.497 3.57067 110.497 4.024C110.497 4.47733 110.609 4.83467 110.833 5.096C111.057 5.35733 111.363 5.488 111.753 5.488ZM117.03 6.072C116.587 6.072 116.203 5.992 115.878 5.832C115.558 5.66667 115.313 5.432 115.142 5.128C114.971 4.81867 114.886 4.45067 114.886 4.024C114.886 3.624 114.966 3.272 115.126 2.968C115.286 2.65867 115.513 2.416 115.806 2.24C116.099 2.064 116.449 1.976 116.854 1.976C117.238 1.976 117.563 2.05867 117.83 2.224C118.102 2.38933 118.307 2.62133 118.446 2.92C118.59 3.21867 118.662 3.57333 118.662 3.984V4.216H115.422V3.72H118.198L118.046 3.88C118.046 3.44267 117.942 3.10667 117.734 2.872C117.531 2.63733 117.238 2.52 116.854 2.52C116.603 2.52 116.379 2.57867 116.182 2.696C115.99 2.808 115.841 2.968 115.734 3.176C115.627 3.384 115.574 3.63733 115.574 3.936V4.016C115.574 4.336 115.633 4.60533 115.75 4.824C115.867 5.04267 116.035 5.208 116.254 5.32C116.473 5.432 116.734 5.488 117.038 5.488C117.257 5.488 117.478 5.45867 117.702 5.4C117.931 5.336 118.145 5.224 118.342 5.064L118.582 5.576C118.379 5.74667 118.137 5.872 117.854 5.952C117.577 6.032 117.302 6.072 117.03 6.072ZM119.837 6V2.048H120.501V2.904C120.629 2.61067 120.821 2.384 121.077 2.224C121.333 2.05867 121.621 1.976 121.941 1.976C122.266 1.976 122.538 2.03467 122.757 2.152C122.976 2.264 123.138 2.44 123.245 2.68C123.357 2.91467 123.413 3.208 123.413 3.56V6H122.701V3.6C122.701 3.38667 122.672 3.20533 122.613 3.056C122.554 2.90667 122.456 2.792 122.317 2.712C122.184 2.62667 122.005 2.584 121.781 2.584C121.546 2.584 121.333 2.63733 121.141 2.744C120.954 2.85067 120.808 2.99467 120.701 3.176C120.6 3.35733 120.549 3.56 120.549 3.784V6H119.837ZM126.485 6.072C126.011 6.072 125.651 5.94667 125.405 5.696C125.165 5.44533 125.045 5.088 125.045 4.624V2.632H124.245V2.048H125.069V0.872H125.757V2.048H127.173V2.632H125.757V4.56C125.757 4.864 125.824 5.09067 125.957 5.24C126.096 5.384 126.307 5.456 126.589 5.456C126.701 5.456 126.808 5.44533 126.909 5.424C127.016 5.40267 127.117 5.37067 127.213 5.328L127.325 5.888C127.219 5.94667 127.088 5.992 126.933 6.024C126.784 6.056 126.635 6.072 126.485 6.072ZM0.832 17V11.36H3.152C3.76 11.36 4.22933 11.4987 4.56 11.776C4.89067 12.0533 5.056 12.456 5.056 12.984C5.056 13.2827 4.99467 13.5413 4.872 13.76C4.75467 13.9787 4.58667 14.1547 4.368 14.288C4.14933 14.416 3.89333 14.4987 3.6 14.536L3.624 14.528L3.704 14.544C3.83733 14.5653 3.95733 14.6213 4.064 14.712C4.17067 14.8027 4.27467 14.944 4.376 15.136L5.368 17H4.584L3.64 15.232C3.56 15.0773 3.47467 14.96 3.384 14.88C3.29333 14.8 3.184 14.744 3.056 14.712C2.93333 14.68 2.784 14.664 2.608 14.664H1.544V17H0.832ZM1.544 14.072H3.104C3.53067 14.072 3.84267 13.984 4.04 13.808C4.23733 13.6267 4.336 13.3573 4.336 13C4.336 12.6427 4.232 12.3813 4.024 12.216C3.82133 12.0507 3.504 11.968 3.072 11.968H1.544V14.072ZM8.26444 17.072C7.82177 17.072 7.43777 16.992 7.11244 16.832C6.79244 16.6667 6.5471 16.432 6.37644 16.128C6.20577 15.8187 6.12044 15.4507 6.12044 15.024C6.12044 14.624 6.20044 14.272 6.36044 13.968C6.52044 13.6587 6.7471 13.416 7.04044 13.24C7.33377 13.064 7.6831 12.976 8.08844 12.976C8.47244 12.976 8.79777 13.0587 9.06444 13.224C9.33644 13.3893 9.54177 13.6213 9.68044 13.92C9.82444 14.2187 9.89644 14.5733 9.89644 14.984V15.216H6.65644V14.72H9.43244L9.28044 14.88C9.28044 14.4427 9.17644 14.1067 8.96844 13.872C8.76577 13.6373 8.47244 13.52 8.08844 13.52C7.83777 13.52 7.61377 13.5787 7.41644 13.696C7.22444 13.808 7.0751 13.968 6.96844 14.176C6.86177 14.384 6.80844 14.6373 6.80844 14.936V15.016C6.80844 15.336 6.8671 15.6053 6.98444 15.824C7.10177 16.0427 7.26977 16.208 7.48844 16.32C7.7071 16.432 7.96844 16.488 8.27244 16.488C8.4911 16.488 8.71244 16.4587 8.93644 16.4C9.16577 16.336 9.3791 16.224 9.57644 16.064L9.81644 16.576C9.61377 16.7467 9.3711 16.872 9.08844 16.952C8.8111 17.032 8.53644 17.072 8.26444 17.072ZM12.8314 17.072C12.426 17.072 12.074 16.9867 11.7754 16.816C11.4767 16.6453 11.2447 16.408 11.0794 16.104C10.914 15.7947 10.8314 15.432 10.8314 15.016C10.8314 14.6 10.914 14.24 11.0794 13.936C11.2447 13.6267 11.4767 13.3893 11.7754 13.224C12.0794 13.0587 12.434 12.976 12.8394 12.976C13.1114 12.976 13.37 13.0213 13.6154 13.112C13.8607 13.2027 14.0634 13.3253 14.2234 13.48L13.9754 14.008C13.8207 13.8693 13.6474 13.7653 13.4554 13.696C13.2634 13.6213 13.0767 13.584 12.8954 13.584C12.4794 13.584 12.1514 13.7093 11.9114 13.96C11.6714 14.2107 11.5514 14.5653 11.5514 15.024C11.5514 15.4773 11.6714 15.832 11.9114 16.088C12.1514 16.3387 12.4767 16.464 12.8874 16.464C13.074 16.464 13.2607 16.4293 13.4474 16.36C13.6394 16.2853 13.81 16.1813 13.9594 16.048L14.2074 16.576C14.0527 16.7307 13.8527 16.8533 13.6074 16.944C13.362 17.0293 13.1034 17.072 12.8314 17.072ZM16.7979 17.072C16.3232 17.072 15.9632 16.9467 15.7179 16.696C15.4779 16.4453 15.3579 16.088 15.3579 15.624V13.632H14.5579V13.048H15.3819V11.872H16.0699V13.048H17.4859V13.632H16.0699V15.56C16.0699 15.864 16.1365 16.0907 16.2699 16.24C16.4085 16.384 16.6192 16.456 16.9019 16.456C17.0139 16.456 17.1205 16.4453 17.2219 16.424C17.3285 16.4027 17.4299 16.3707 17.5259 16.328L17.6379 16.888C17.5312 16.9467 17.4005 16.992 17.2459 17.024C17.0965 17.056 16.9472 17.072 16.7979 17.072ZM19.7898 17.072C19.5071 17.072 19.2538 17.0213 19.0298 16.92C18.8058 16.8133 18.6298 16.6693 18.5018 16.488C18.3738 16.3067 18.3098 16.104 18.3098 15.88C18.3098 15.576 18.3951 15.3387 18.5658 15.168C18.7365 14.992 18.9978 14.8667 19.3498 14.792C19.7071 14.7173 20.1631 14.68 20.7178 14.68H21.2858V15.168H20.7498C20.4405 15.168 20.1765 15.1787 19.9578 15.2C19.7391 15.216 19.5605 15.2507 19.4218 15.304C19.2831 15.352 19.1818 15.4187 19.1178 15.504C19.0538 15.5893 19.0218 15.7013 19.0218 15.84C19.0218 16.0533 19.1045 16.2187 19.2698 16.336C19.4405 16.4533 19.6565 16.512 19.9178 16.512C20.1471 16.512 20.3551 16.4613 20.5418 16.36C20.7338 16.2533 20.8858 16.112 20.9978 15.936C21.1151 15.76 21.1738 15.5653 21.1738 15.352V14.448C21.1738 14.1333 21.0858 13.9067 20.9098 13.768C20.7338 13.624 20.4725 13.552 20.1258 13.552C19.8911 13.552 19.6565 13.584 19.4218 13.648C19.1925 13.712 18.9551 13.8187 18.7098 13.968L18.4778 13.44C18.6431 13.3387 18.8191 13.256 19.0058 13.192C19.1925 13.1227 19.3871 13.0693 19.5898 13.032C19.7925 12.9947 19.9951 12.976 20.1978 12.976C20.5391 12.976 20.8325 13.0293 21.0778 13.136C21.3285 13.2427 21.5205 13.408 21.6538 13.632C21.7925 13.856 21.8618 14.1493 21.8618 14.512V17H21.2378V16.136C21.1631 16.3013 21.0591 16.456 20.9258 16.6C20.7925 16.744 20.6298 16.8587 20.4378 16.944C20.2511 17.0293 20.0351 17.072 19.7898 17.072ZM23.2745 17V13.048H23.9385V13.904C24.0665 13.6107 24.2585 13.384 24.5145 13.224C24.7705 13.0587 25.0585 12.976 25.3785 12.976C25.7038 12.976 25.9758 13.0347 26.1945 13.152C26.4132 13.264 26.5758 13.44 26.6825 13.68C26.7945 13.9147 26.8505 14.208 26.8505 14.56V17H26.1385V14.6C26.1385 14.3867 26.1092 14.2053 26.0505 14.056C25.9918 13.9067 25.8932 13.792 25.7545 13.712C25.6212 13.6267 25.4425 13.584 25.2185 13.584C24.9838 13.584 24.7705 13.6373 24.5785 13.744C24.3918 13.8507 24.2452 13.9947 24.1385 14.176C24.0372 14.3573 23.9865 14.56 23.9865 14.784V17H23.2745ZM29.9709 18.512C29.6562 18.512 29.3442 18.464 29.0349 18.368C28.7255 18.2773 28.4615 18.152 28.2429 17.992L28.4669 17.44C28.6162 17.536 28.7735 17.6187 28.9389 17.688C29.1042 17.7627 29.2722 17.816 29.4429 17.848C29.6189 17.8853 29.7922 17.904 29.9629 17.904C30.3735 17.904 30.6935 17.8 30.9229 17.592C31.1575 17.384 31.2749 17.088 31.2749 16.704V15.976H31.2589C31.1629 16.248 30.9895 16.4693 30.7389 16.64C30.4882 16.8053 30.1975 16.888 29.8669 16.888C29.4935 16.888 29.1682 16.808 28.8909 16.648C28.6135 16.4827 28.3975 16.2533 28.2429 15.96C28.0935 15.6667 28.0189 15.3227 28.0189 14.928C28.0189 14.5387 28.0935 14.1973 28.2429 13.904C28.3975 13.6107 28.6135 13.384 28.8909 13.224C29.1682 13.0587 29.4935 12.976 29.8669 12.976C30.1975 12.976 30.4882 13.0613 30.7389 13.232C30.9949 13.4027 31.1709 13.6293 31.2669 13.912H31.2749V13.048H31.9389V16.64C31.9389 17.024 31.8589 17.3547 31.6989 17.632C31.5442 17.9147 31.3202 18.1307 31.0269 18.28C30.7335 18.4347 30.3815 18.512 29.9709 18.512ZM29.9869 16.304C30.3762 16.304 30.6829 16.1787 30.9069 15.928C31.1362 15.6773 31.2509 15.344 31.2509 14.928C31.2509 14.512 31.1362 14.1813 30.9069 13.936C30.6829 13.6853 30.3762 13.56 29.9869 13.56C29.6029 13.56 29.2962 13.6853 29.0669 13.936C28.8429 14.1813 28.7309 14.512 28.7309 14.928C28.7309 15.344 28.8429 15.6773 29.0669 15.928C29.2962 16.1787 29.6029 16.304 29.9869 16.304ZM34.8404 17.072C34.5151 17.072 34.2404 17.0133 34.0164 16.896C33.7924 16.7787 33.6244 16.6027 33.5124 16.368C33.4004 16.1333 33.3444 15.84 33.3444 15.488V13.048H34.0564V15.456C34.0564 15.6587 34.0858 15.8373 34.1444 15.992C34.2084 16.1413 34.3071 16.2587 34.4404 16.344C34.5791 16.424 34.7604 16.464 34.9844 16.464C35.2084 16.464 35.4111 16.4107 35.5924 16.304C35.7738 16.192 35.9151 16.048 36.0164 15.872C36.1178 15.6907 36.1684 15.4907 36.1684 15.272V13.048H36.8804V17H36.2244V16.128C36.0911 16.4213 35.9098 16.6533 35.6804 16.824C35.4511 16.9893 35.1711 17.072 34.8404 17.072ZM39.5058 17.072C39.1218 17.072 38.8258 16.96 38.6178 16.736C38.4098 16.512 38.3058 16.1973 38.3058 15.792V11.36H39.0178V15.72C39.0178 15.88 39.0418 16.0187 39.0898 16.136C39.1378 16.248 39.2071 16.3333 39.2978 16.392C39.3884 16.4507 39.4978 16.48 39.6258 16.48C39.7058 16.48 39.7804 16.4773 39.8498 16.472C39.9244 16.4613 39.9991 16.4453 40.0738 16.424L40.0898 16.984C39.9991 17.016 39.9058 17.0373 39.8098 17.048C39.7191 17.064 39.6178 17.072 39.5058 17.072ZM42.2117 17.072C41.929 17.072 41.6757 17.0213 41.4517 16.92C41.2277 16.8133 41.0517 16.6693 40.9237 16.488C40.7957 16.3067 40.7317 16.104 40.7317 15.88C40.7317 15.576 40.817 15.3387 40.9877 15.168C41.1584 14.992 41.4197 14.8667 41.7717 14.792C42.129 14.7173 42.585 14.68 43.1397 14.68H43.7077V15.168H43.1717C42.8624 15.168 42.5984 15.1787 42.3797 15.2C42.161 15.216 41.9824 15.2507 41.8437 15.304C41.705 15.352 41.6037 15.4187 41.5397 15.504C41.4757 15.5893 41.4437 15.7013 41.4437 15.84C41.4437 16.0533 41.5264 16.2187 41.6917 16.336C41.8624 16.4533 42.0784 16.512 42.3397 16.512C42.569 16.512 42.777 16.4613 42.9637 16.36C43.1557 16.2533 43.3077 16.112 43.4197 15.936C43.537 15.76 43.5957 15.5653 43.5957 15.352V14.448C43.5957 14.1333 43.5077 13.9067 43.3317 13.768C43.1557 13.624 42.8944 13.552 42.5477 13.552C42.313 13.552 42.0784 13.584 41.8437 13.648C41.6144 13.712 41.377 13.8187 41.1317 13.968L40.8997 13.44C41.065 13.3387 41.241 13.256 41.4277 13.192C41.6144 13.1227 41.809 13.0693 42.0117 13.032C42.2144 12.9947 42.417 12.976 42.6197 12.976C42.961 12.976 43.2544 13.0293 43.4997 13.136C43.7504 13.2427 43.9424 13.408 44.0757 13.632C44.2144 13.856 44.2837 14.1493 44.2837 14.512V17H43.6597V16.136C43.585 16.3013 43.481 16.456 43.3477 16.6C43.2144 16.744 43.0517 16.8587 42.8597 16.944C42.673 17.0293 42.457 17.072 42.2117 17.072ZM45.6964 17V13.048H46.3444V13.96H46.3524C46.4484 13.6667 46.6164 13.4373 46.8564 13.272C47.0964 13.1013 47.3897 13.0053 47.7364 12.984L48.0964 12.968L48.1604 13.616L47.5844 13.664C47.2164 13.696 46.9284 13.8187 46.7204 14.032C46.5124 14.24 46.4084 14.5013 46.4084 14.816V17H45.6964ZM53.8025 17.072C53.2638 17.072 52.7945 16.9573 52.3945 16.728C51.9998 16.4933 51.6958 16.16 51.4825 15.728C51.2692 15.2907 51.1625 14.7733 51.1625 14.176C51.1625 13.5787 51.2692 13.064 51.4825 12.632C51.6958 12.2 51.9998 11.8693 52.3945 11.64C52.7892 11.4053 53.2585 11.288 53.8025 11.288C54.1972 11.288 54.5572 11.3493 54.8825 11.472C55.2078 11.5893 55.4878 11.7627 55.7225 11.992L55.4425 12.552C55.1972 12.3333 54.9438 12.176 54.6825 12.08C54.4265 11.984 54.1385 11.936 53.8185 11.936C53.2212 11.936 52.7518 12.128 52.4105 12.512C52.0745 12.8907 51.9065 13.4453 51.9065 14.176C51.9065 14.9013 52.0745 15.4587 52.4105 15.848C52.7465 16.232 53.2158 16.424 53.8185 16.424C54.1385 16.424 54.4265 16.376 54.6825 16.28C54.9438 16.184 55.1972 16.0267 55.4425 15.808L55.7225 16.368C55.4878 16.5973 55.2078 16.7733 54.8825 16.896C54.5572 17.0133 54.1972 17.072 53.8025 17.072ZM58.3539 17.072C57.9539 17.072 57.6072 16.9867 57.3139 16.816C57.0205 16.6453 56.7939 16.408 56.6339 16.104C56.4739 15.7947 56.3939 15.432 56.3939 15.016C56.3939 14.6053 56.4739 14.248 56.6339 13.944C56.7939 13.6347 57.0205 13.3973 57.3139 13.232C57.6072 13.0613 57.9539 12.976 58.3539 12.976C58.7539 12.976 59.0979 13.0613 59.3859 13.232C59.6792 13.3973 59.9059 13.6347 60.0659 13.944C60.2259 14.248 60.3059 14.6053 60.3059 15.016C60.3059 15.432 60.2259 15.7947 60.0659 16.104C59.9112 16.408 59.6872 16.6453 59.3939 16.816C59.1005 16.9867 58.7539 17.072 58.3539 17.072ZM58.3459 16.472C58.7352 16.472 59.0419 16.3413 59.2659 16.08C59.4899 15.8187 59.6019 15.464 59.6019 15.016C59.6019 14.568 59.4899 14.216 59.2659 13.96C59.0472 13.704 58.7432 13.576 58.3539 13.576C57.9645 13.576 57.6579 13.704 57.4339 13.96C57.2099 14.216 57.0979 14.568 57.0979 15.016C57.0979 15.464 57.2099 15.8187 57.4339 16.08C57.6632 16.3413 57.9672 16.472 58.3459 16.472ZM61.5011 17V13.048H62.1651V13.904C62.2931 13.6107 62.4851 13.384 62.7411 13.224C62.9971 13.0587 63.2851 12.976 63.6051 12.976C63.9304 12.976 64.2024 13.0347 64.4211 13.152C64.6397 13.264 64.8024 13.44 64.9091 13.68C65.0211 13.9147 65.0771 14.208 65.0771 14.56V17H64.3651V14.6C64.3651 14.3867 64.3357 14.2053 64.2771 14.056C64.2184 13.9067 64.1197 13.792 63.9811 13.712C63.8477 13.6267 63.6691 13.584 63.4451 13.584C63.2104 13.584 62.9971 13.6373 62.8051 13.744C62.6184 13.8507 62.4717 13.9947 62.3651 14.176C62.2637 14.3573 62.2131 14.56 62.2131 14.784V17H61.5011ZM68.1494 17.072C67.6748 17.072 67.3148 16.9467 67.0694 16.696C66.8294 16.4453 66.7094 16.088 66.7094 15.624V13.632H65.9094V13.048H66.7334V11.872H67.4214V13.048H68.8374V13.632H67.4214V15.56C67.4214 15.864 67.4881 16.0907 67.6214 16.24C67.7601 16.384 67.9708 16.456 68.2534 16.456C68.3654 16.456 68.4721 16.4453 68.5734 16.424C68.6801 16.4027 68.7814 16.3707 68.8774 16.328L68.9894 16.888C68.8828 16.9467 68.7521 16.992 68.5974 17.024C68.4481 17.056 68.2988 17.072 68.1494 17.072ZM71.1414 17.072C70.8587 17.072 70.6054 17.0213 70.3814 16.92C70.1574 16.8133 69.9814 16.6693 69.8534 16.488C69.7254 16.3067 69.6614 16.104 69.6614 15.88C69.6614 15.576 69.7467 15.3387 69.9174 15.168C70.088 14.992 70.3494 14.8667 70.7014 14.792C71.0587 14.7173 71.5147 14.68 72.0694 14.68H72.6374V15.168H72.1014C71.792 15.168 71.528 15.1787 71.3094 15.2C71.0907 15.216 70.912 15.2507 70.7734 15.304C70.6347 15.352 70.5334 15.4187 70.4694 15.504C70.4054 15.5893 70.3734 15.7013 70.3734 15.84C70.3734 16.0533 70.456 16.2187 70.6214 16.336C70.792 16.4533 71.008 16.512 71.2694 16.512C71.4987 16.512 71.7067 16.4613 71.8934 16.36C72.0854 16.2533 72.2374 16.112 72.3494 15.936C72.4667 15.76 72.5254 15.5653 72.5254 15.352V14.448C72.5254 14.1333 72.4374 13.9067 72.2614 13.768C72.0854 13.624 71.824 13.552 71.4774 13.552C71.2427 13.552 71.008 13.584 70.7734 13.648C70.544 13.712 70.3067 13.8187 70.0614 13.968L69.8294 13.44C69.9947 13.3387 70.1707 13.256 70.3574 13.192C70.544 13.1227 70.7387 13.0693 70.9414 13.032C71.144 12.9947 71.3467 12.976 71.5494 12.976C71.8907 12.976 72.184 13.0293 72.4294 13.136C72.68 13.2427 72.872 13.408 73.0054 13.632C73.144 13.856 73.2134 14.1493 73.2134 14.512V17H72.5894V16.136C72.5147 16.3013 72.4107 16.456 72.2774 16.6C72.144 16.744 71.9814 16.8587 71.7894 16.944C71.6027 17.0293 71.3867 17.072 71.1414 17.072ZM74.5461 12.096V11.304H75.4101V12.096H74.5461ZM74.6261 17V13.048H75.3381V17H74.6261ZM76.7589 17V13.048H77.4229V13.904C77.5509 13.6107 77.7429 13.384 77.9989 13.224C78.2549 13.0587 78.5429 12.976 78.8629 12.976C79.1882 12.976 79.4602 13.0347 79.6789 13.152C79.8975 13.264 80.0602 13.44 80.1669 13.68C80.2789 13.9147 80.3349 14.208 80.3349 14.56V17H79.6229V14.6C79.6229 14.3867 79.5935 14.2053 79.5349 14.056C79.4762 13.9067 79.3775 13.792 79.2389 13.712C79.1055 13.6267 78.9269 13.584 78.7029 13.584C78.4682 13.584 78.2549 13.6373 78.0629 13.744C77.8762 13.8507 77.7295 13.9947 77.6229 14.176C77.5215 14.3573 77.4709 14.56 77.4709 14.784V17H76.7589ZM83.6473 17.072C83.2046 17.072 82.8206 16.992 82.4953 16.832C82.1753 16.6667 81.9299 16.432 81.7593 16.128C81.5886 15.8187 81.5033 15.4507 81.5033 15.024C81.5033 14.624 81.5833 14.272 81.7433 13.968C81.9033 13.6587 82.1299 13.416 82.4233 13.24C82.7166 13.064 83.0659 12.976 83.4713 12.976C83.8553 12.976 84.1806 13.0587 84.4473 13.224C84.7193 13.3893 84.9246 13.6213 85.0633 13.92C85.2073 14.2187 85.2793 14.5733 85.2793 14.984V15.216H82.0393V14.72H84.8153L84.6633 14.88C84.6633 14.4427 84.5593 14.1067 84.3513 13.872C84.1486 13.6373 83.8553 13.52 83.4713 13.52C83.2206 13.52 82.9966 13.5787 82.7993 13.696C82.6073 13.808 82.4579 13.968 82.3513 14.176C82.2446 14.384 82.1913 14.6373 82.1913 14.936V15.016C82.1913 15.336 82.2499 15.6053 82.3673 15.824C82.4846 16.0427 82.6526 16.208 82.8713 16.32C83.0899 16.432 83.3513 16.488 83.6553 16.488C83.8739 16.488 84.0953 16.4587 84.3193 16.4C84.5486 16.336 84.7619 16.224 84.9593 16.064L85.1993 16.576C84.9966 16.7467 84.7539 16.872 84.4713 16.952C84.1939 17.032 83.9193 17.072 83.6473 17.072ZM86.4542 17V13.048H87.1022V13.96H87.1102C87.2062 13.6667 87.3742 13.4373 87.6142 13.272C87.8542 13.1013 88.1475 13.0053 88.4942 12.984L88.8542 12.968L88.9182 13.616L88.3422 13.664C87.9742 13.696 87.6862 13.8187 87.4782 14.032C87.2702 14.24 87.1662 14.5013 87.1662 14.816V17H86.4542ZM89.9059 18.152L89.5459 17.872C89.6419 17.7813 89.7165 17.6773 89.7699 17.56C89.8285 17.448 89.8712 17.3307 89.8979 17.208C89.9245 17.0907 89.9405 16.9813 89.9459 16.88L90.0819 17H89.4979V16.12H90.4099V16.776C90.4099 16.9413 90.3939 17.1067 90.3619 17.272C90.3299 17.4373 90.2765 17.5947 90.2019 17.744C90.1272 17.8933 90.0285 18.0293 89.9059 18.152ZM94.0508 17V11.36H96.0268C96.6294 11.36 97.1414 11.4693 97.5628 11.688C97.9841 11.9067 98.3041 12.2267 98.5228 12.648C98.7468 13.064 98.8588 13.5733 98.8588 14.176C98.8588 14.7787 98.7468 15.2907 98.5228 15.712C98.3041 16.1333 97.9841 16.4533 97.5628 16.672C97.1414 16.8907 96.6294 17 96.0268 17H94.0508ZM94.7628 16.376H95.9868C96.6854 16.376 97.2134 16.1947 97.5708 15.832C97.9334 15.4693 98.1148 14.9173 98.1148 14.176C98.1148 13.4347 97.9334 12.8853 97.5708 12.528C97.2134 12.1653 96.6854 11.984 95.9868 11.984H94.7628V16.376ZM101.653 17.072C101.328 17.072 101.053 17.0133 100.829 16.896C100.605 16.7787 100.437 16.6027 100.325 16.368C100.213 16.1333 100.157 15.84 100.157 15.488V13.048H100.869V15.456C100.869 15.6587 100.898 15.8373 100.957 15.992C101.021 16.1413 101.12 16.2587 101.253 16.344C101.392 16.424 101.573 16.464 101.797 16.464C102.021 16.464 102.224 16.4107 102.405 16.304C102.586 16.192 102.728 16.048 102.829 15.872C102.93 15.6907 102.981 15.4907 102.981 15.272V13.048H103.693V17H103.037V16.128C102.904 16.4213 102.722 16.6533 102.493 16.824C102.264 16.9893 101.984 17.072 101.653 17.072ZM105.118 17V13.048H105.766V13.96H105.774C105.87 13.6667 106.038 13.4373 106.278 13.272C106.518 13.1013 106.812 13.0053 107.158 12.984L107.518 12.968L107.582 13.616L107.006 13.664C106.638 13.696 106.35 13.8187 106.142 14.032C105.934 14.24 105.83 14.5013 105.83 14.816V17H105.118ZM109.743 17.072C109.46 17.072 109.207 17.0213 108.983 16.92C108.759 16.8133 108.583 16.6693 108.455 16.488C108.327 16.3067 108.263 16.104 108.263 15.88C108.263 15.576 108.348 15.3387 108.519 15.168C108.69 14.992 108.951 14.8667 109.303 14.792C109.66 14.7173 110.116 14.68 110.671 14.68H111.239V15.168H110.703C110.394 15.168 110.13 15.1787 109.911 15.2C109.692 15.216 109.514 15.2507 109.375 15.304C109.236 15.352 109.135 15.4187 109.071 15.504C109.007 15.5893 108.975 15.7013 108.975 15.84C108.975 16.0533 109.058 16.2187 109.223 16.336C109.394 16.4533 109.61 16.512 109.871 16.512C110.1 16.512 110.308 16.4613 110.495 16.36C110.687 16.2533 110.839 16.112 110.951 15.936C111.068 15.76 111.127 15.5653 111.127 15.352V14.448C111.127 14.1333 111.039 13.9067 110.863 13.768C110.687 13.624 110.426 13.552 110.079 13.552C109.844 13.552 109.61 13.584 109.375 13.648C109.146 13.712 108.908 13.8187 108.663 13.968L108.431 13.44C108.596 13.3387 108.772 13.256 108.959 13.192C109.146 13.1227 109.34 13.0693 109.543 13.032C109.746 12.9947 109.948 12.976 110.151 12.976C110.492 12.976 110.786 13.0293 111.031 13.136C111.282 13.2427 111.474 13.408 111.607 13.632C111.746 13.856 111.815 14.1493 111.815 14.512V17H111.191V16.136C111.116 16.3013 111.012 16.456 110.879 16.6C110.746 16.744 110.583 16.8587 110.391 16.944C110.204 17.0293 109.988 17.072 109.743 17.072ZM115.332 17.072C114.99 17.072 114.692 16.9893 114.436 16.824C114.185 16.6587 114.001 16.4267 113.884 16.128V17H113.228V11.36H113.94V13.872C114.052 13.5947 114.228 13.376 114.468 13.216C114.708 13.056 114.998 12.976 115.34 12.976C115.708 12.976 116.025 13.0613 116.292 13.232C116.564 13.4027 116.774 13.6427 116.924 13.952C117.073 14.256 117.148 14.6133 117.148 15.024C117.148 15.4293 117.073 15.7867 116.924 16.096C116.774 16.4053 116.564 16.6453 116.292 16.816C116.02 16.9867 115.7 17.072 115.332 17.072ZM115.18 16.488C115.569 16.488 115.876 16.3573 116.1 16.096C116.324 15.8347 116.436 15.4773 116.436 15.024C116.436 14.5707 116.324 14.2133 116.1 13.952C115.876 13.6907 115.569 13.56 115.18 13.56C114.796 13.56 114.492 13.6907 114.268 13.952C114.044 14.2133 113.932 14.5707 113.932 15.024C113.932 15.4773 114.044 15.8347 114.268 16.096C114.492 16.3573 114.796 16.488 115.18 16.488ZM119.529 17.072C119.145 17.072 118.849 16.96 118.641 16.736C118.433 16.512 118.329 16.1973 118.329 15.792V11.36H119.041V15.72C119.041 15.88 119.065 16.0187 119.113 16.136C119.161 16.248 119.231 16.3333 119.321 16.392C119.412 16.4507 119.521 16.48 119.649 16.48C119.729 16.48 119.804 16.4773 119.873 16.472C119.948 16.4613 120.023 16.4453 120.097 16.424L120.113 16.984C120.023 17.016 119.929 17.0373 119.833 17.048C119.743 17.064 119.641 17.072 119.529 17.072ZM122.78 17.072C122.337 17.072 121.953 16.992 121.628 16.832C121.308 16.6667 121.063 16.432 120.892 16.128C120.721 15.8187 120.636 15.4507 120.636 15.024C120.636 14.624 120.716 14.272 120.876 13.968C121.036 13.6587 121.263 13.416 121.556 13.24C121.849 13.064 122.199 12.976 122.604 12.976C122.988 12.976 123.313 13.0587 123.58 13.224C123.852 13.3893 124.057 13.6213 124.196 13.92C124.34 14.2187 124.412 14.5733 124.412 14.984V15.216H121.172V14.72H123.948L123.796 14.88C123.796 14.4427 123.692 14.1067 123.484 13.872C123.281 13.6373 122.988 13.52 122.604 13.52C122.353 13.52 122.129 13.5787 121.932 13.696C121.74 13.808 121.591 13.968 121.484 14.176C121.377 14.384 121.324 14.6373 121.324 14.936V15.016C121.324 15.336 121.383 15.6053 121.5 15.824C121.617 16.0427 121.785 16.208 122.004 16.32C122.223 16.432 122.484 16.488 122.788 16.488C123.007 16.488 123.228 16.4587 123.452 16.4C123.681 16.336 123.895 16.224 124.092 16.064L124.332 16.576C124.129 16.7467 123.887 16.872 123.604 16.952C123.327 17.032 123.052 17.072 122.78 17.072ZM127.365 17L129.845 11.36H130.485L132.965 17H132.221L131.533 15.392L131.885 15.616H128.445L128.789 15.392L128.109 17H127.365ZM130.149 12.176L128.885 15.16L128.685 15.008H131.645L131.445 15.16L130.181 12.176H130.149ZM133.931 17V13.048H134.595V13.904C134.723 13.6107 134.915 13.384 135.171 13.224C135.427 13.0587 135.715 12.976 136.035 12.976C136.36 12.976 136.632 13.0347 136.851 13.152C137.069 13.264 137.232 13.44 137.339 13.68C137.451 13.9147 137.507 14.208 137.507 14.56V17H136.795V14.6C136.795 14.3867 136.765 14.2053 136.707 14.056C136.648 13.9067 136.549 13.792 136.411 13.712C136.277 13.6267 136.099 13.584 135.875 13.584C135.64 13.584 135.427 13.6373 135.235 13.744C135.048 13.8507 134.901 13.9947 134.795 14.176C134.693 14.3573 134.643 14.56 134.643 14.784V17H133.931ZM140.491 17.072C140.128 17.072 139.811 16.9867 139.539 16.816C139.267 16.6453 139.054 16.4053 138.899 16.096C138.75 15.7867 138.675 15.4293 138.675 15.024C138.675 14.6133 138.75 14.256 138.899 13.952C139.048 13.6427 139.259 13.4027 139.531 13.232C139.803 13.0613 140.12 12.976 140.483 12.976C140.824 12.976 141.115 13.056 141.355 13.216C141.6 13.376 141.776 13.5947 141.883 13.872V11.36H142.595V17H141.939V16.128C141.822 16.4267 141.638 16.6587 141.387 16.824C141.136 16.9893 140.838 17.072 140.491 17.072ZM140.643 16.488C141.032 16.488 141.336 16.3573 141.555 16.096C141.779 15.8347 141.891 15.4773 141.891 15.024C141.891 14.5707 141.779 14.2133 141.555 13.952C141.336 13.6907 141.032 13.56 140.643 13.56C140.259 13.56 139.952 13.6907 139.723 13.952C139.499 14.2133 139.387 14.5707 139.387 15.024C139.387 15.4773 139.499 15.8347 139.723 16.096C139.947 16.3573 140.254 16.488 140.643 16.488ZM0.832 28V22.36H1.544V27.368H4.408V28H0.832ZM7.23319 28.072C6.79052 28.072 6.40652 27.992 6.08119 27.832C5.76119 27.6667 5.51585 27.432 5.34519 27.128C5.17452 26.8187 5.08919 26.4507 5.08919 26.024C5.08919 25.624 5.16919 25.272 5.32919 24.968C5.48919 24.6587 5.71585 24.416 6.00919 24.24C6.30252 24.064 6.65185 23.976 7.05719 23.976C7.44119 23.976 7.76652 24.0587 8.03319 24.224C8.30519 24.3893 8.51052 24.6213 8.64919 24.92C8.79319 25.2187 8.86519 25.5733 8.86519 25.984V26.216H5.62519V25.72H8.40119L8.24919 25.88C8.24919 25.4427 8.14519 25.1067 7.93719 24.872C7.73452 24.6373 7.44119 24.52 7.05719 24.52C6.80652 24.52 6.58252 24.5787 6.38519 24.696C6.19319 24.808 6.04385 24.968 5.93719 25.176C5.83052 25.384 5.77719 25.6373 5.77719 25.936V26.016C5.77719 26.336 5.83585 26.6053 5.95319 26.824C6.07052 27.0427 6.23852 27.208 6.45719 27.32C6.67585 27.432 6.93719 27.488 7.24119 27.488C7.45985 27.488 7.68119 27.4587 7.90519 27.4C8.13452 27.336 8.34785 27.224 8.54519 27.064L8.78519 27.576C8.58252 27.7467 8.33985 27.872 8.05719 27.952C7.77985 28.032 7.50519 28.072 7.23319 28.072ZM11.3601 28.072C11.0775 28.072 10.8241 28.0213 10.6001 27.92C10.3761 27.8133 10.2001 27.6693 10.0721 27.488C9.94413 27.3067 9.88013 27.104 9.88013 26.88C9.88013 26.576 9.96546 26.3387 10.1361 26.168C10.3068 25.992 10.5681 25.8667 10.9201 25.792C11.2775 25.7173 11.7335 25.68 12.2881 25.68H12.8561V26.168H12.3201C12.0108 26.168 11.7468 26.1787 11.5281 26.2C11.3095 26.216 11.1308 26.2507 10.9921 26.304C10.8535 26.352 10.7521 26.4187 10.6881 26.504C10.6241 26.5893 10.5921 26.7013 10.5921 26.84C10.5921 27.0533 10.6748 27.2187 10.8401 27.336C11.0108 27.4533 11.2268 27.512 11.4881 27.512C11.7175 27.512 11.9255 27.4613 12.1121 27.36C12.3041 27.2533 12.4561 27.112 12.5681 26.936C12.6855 26.76 12.7441 26.5653 12.7441 26.352V25.448C12.7441 25.1333 12.6561 24.9067 12.4801 24.768C12.3041 24.624 12.0428 24.552 11.6961 24.552C11.4615 24.552 11.2268 24.584 10.9921 24.648C10.7628 24.712 10.5255 24.8187 10.2801 24.968L10.0481 24.44C10.2135 24.3387 10.3895 24.256 10.5761 24.192C10.7628 24.1227 10.9575 24.0693 11.1601 24.032C11.3628 23.9947 11.5655 23.976 11.7681 23.976C12.1095 23.976 12.4028 24.0293 12.6481 24.136C12.8988 24.2427 13.0908 24.408 13.2241 24.632C13.3628 24.856 13.4321 25.1493 13.4321 25.512V28H12.8081V27.136C12.7335 27.3013 12.6295 27.456 12.4961 27.6C12.3628 27.744 12.2001 27.8587 12.0081 27.944C11.8215 28.0293 11.6055 28.072 11.3601 28.072ZM14.8448 28V22.36H15.5568V25.808H15.5888L17.3648 24.048H18.2448L16.1248 26.12L16.1408 25.808L18.4448 28H17.5408L15.5888 26.168H15.5568V28H14.8448ZM18.7791 26.144V25.568H21.0191V26.144H18.7791ZM22.4258 28V22.36H24.7458C25.3538 22.36 25.8231 22.4987 26.1538 22.776C26.4844 23.0533 26.6498 23.456 26.6498 23.984C26.6498 24.2827 26.5884 24.5413 26.4658 24.76C26.3484 24.9787 26.1804 25.1547 25.9618 25.288C25.7431 25.416 25.4871 25.4987 25.1938 25.536L25.2178 25.528L25.2978 25.544C25.4311 25.5653 25.5511 25.6213 25.6578 25.712C25.7644 25.8027 25.8684 25.944 25.9698 26.136L26.9618 28H26.1778L25.2338 26.232C25.1538 26.0773 25.0684 25.96 24.9778 25.88C24.8871 25.8 24.7778 25.744 24.6498 25.712C24.5271 25.68 24.3778 25.664 24.2018 25.664H23.1378V28H22.4258ZM23.1378 25.072H24.6978C25.1244 25.072 25.4364 24.984 25.6337 24.808C25.8311 24.6267 25.9298 24.3573 25.9298 24C25.9298 23.6427 25.8258 23.3813 25.6178 23.216C25.4151 23.0507 25.0978 22.968 24.6658 22.968H23.1378V25.072ZM29.8582 28.072C29.4155 28.072 29.0315 27.992 28.7062 27.832C28.3862 27.6667 28.1409 27.432 27.9702 27.128C27.7995 26.8187 27.7142 26.4507 27.7142 26.024C27.7142 25.624 27.7942 25.272 27.9542 24.968C28.1142 24.6587 28.3409 24.416 28.6342 24.24C28.9275 24.064 29.2769 23.976 29.6822 23.976C30.0662 23.976 30.3915 24.0587 30.6582 24.224C30.9302 24.3893 31.1355 24.6213 31.2742 24.92C31.4182 25.2187 31.4902 25.5733 31.4902 25.984V26.216H28.2502V25.72H31.0262L30.8742 25.88C30.8742 25.4427 30.7702 25.1067 30.5622 24.872C30.3595 24.6373 30.0662 24.52 29.6822 24.52C29.4315 24.52 29.2075 24.5787 29.0102 24.696C28.8182 24.808 28.6689 24.968 28.5622 25.176C28.4555 25.384 28.4022 25.6373 28.4022 25.936V26.016C28.4022 26.336 28.4609 26.6053 28.5782 26.824C28.6955 27.0427 28.8635 27.208 29.0822 27.32C29.3009 27.432 29.5622 27.488 29.8662 27.488C30.0849 27.488 30.3062 27.4587 30.5302 27.4C30.7595 27.336 30.9729 27.224 31.1702 27.064L31.4102 27.576C31.2075 27.7467 30.9649 27.872 30.6822 27.952C30.4049 28.032 30.1302 28.072 29.8582 28.072ZM34.1211 28.072C33.9025 28.072 33.6865 28.0507 33.4731 28.008C33.2651 27.9707 33.0705 27.9173 32.8891 27.848C32.7131 27.7733 32.5611 27.6827 32.4331 27.576L32.6651 27.072C32.7985 27.1733 32.9451 27.256 33.1051 27.32C33.2705 27.384 33.4385 27.432 33.6091 27.464C33.7851 27.4907 33.9531 27.504 34.1131 27.504C34.4438 27.504 34.6971 27.4533 34.8731 27.352C35.0545 27.2507 35.1451 27.1093 35.1451 26.928C35.1451 26.7733 35.0918 26.656 34.9851 26.576C34.8838 26.4907 34.7131 26.4267 34.4731 26.384L33.6491 26.24C33.2811 26.1707 33.0038 26.0453 32.8171 25.864C32.6358 25.6827 32.5451 25.4453 32.5451 25.152C32.5451 24.9173 32.6091 24.712 32.7371 24.536C32.8705 24.36 33.0598 24.224 33.3051 24.128C33.5505 24.0267 33.8438 23.976 34.1851 23.976C34.3718 23.976 34.5611 23.9947 34.7531 24.032C34.9505 24.0693 35.1318 24.1253 35.2971 24.2C35.4678 24.2693 35.6065 24.3573 35.7131 24.464L35.4731 24.968C35.3665 24.8667 35.2385 24.7867 35.0891 24.728C34.9451 24.664 34.7931 24.6187 34.6331 24.592C34.4785 24.56 34.3265 24.544 34.1771 24.544C33.8678 24.544 33.6278 24.5973 33.4571 24.704C33.2865 24.8053 33.2011 24.9493 33.2011 25.136C33.2011 25.2853 33.2491 25.4027 33.3451 25.488C33.4465 25.5733 33.6091 25.6373 33.8331 25.68L34.6331 25.824C35.0278 25.8987 35.3211 26.024 35.5131 26.2C35.7051 26.3707 35.8011 26.608 35.8011 26.912C35.8011 27.1467 35.7318 27.352 35.5931 27.528C35.4545 27.6987 35.2598 27.832 35.0091 27.928C34.7585 28.024 34.4625 28.072 34.1211 28.072ZM36.8976 23.096V22.304H37.7616V23.096H36.8976ZM36.9776 28V24.048H37.6896V28H36.9776ZM40.5664 28.072C40.3478 28.072 40.1318 28.0507 39.9184 28.008C39.7104 27.9707 39.5158 27.9173 39.3344 27.848C39.1584 27.7733 39.0064 27.6827 38.8784 27.576L39.1104 27.072C39.2438 27.1733 39.3904 27.256 39.5504 27.32C39.7158 27.384 39.8838 27.432 40.0544 27.464C40.2304 27.4907 40.3984 27.504 40.5584 27.504C40.8891 27.504 41.1424 27.4533 41.3184 27.352C41.4998 27.2507 41.5904 27.1093 41.5904 26.928C41.5904 26.7733 41.5371 26.656 41.4304 26.576C41.3291 26.4907 41.1584 26.4267 40.9184 26.384L40.0944 26.24C39.7264 26.1707 39.4491 26.0453 39.2624 25.864C39.0811 25.6827 38.9904 25.4453 38.9904 25.152C38.9904 24.9173 39.0544 24.712 39.1824 24.536C39.3158 24.36 39.5051 24.224 39.7504 24.128C39.9958 24.0267 40.2891 23.976 40.6304 23.976C40.8171 23.976 41.0064 23.9947 41.1984 24.032C41.3958 24.0693 41.5771 24.1253 41.7424 24.2C41.9131 24.2693 42.0518 24.3573 42.1584 24.464L41.9184 24.968C41.8118 24.8667 41.6838 24.7867 41.5344 24.728C41.3904 24.664 41.2384 24.6187 41.0784 24.592C40.9238 24.56 40.7718 24.544 40.6224 24.544C40.3131 24.544 40.0731 24.5973 39.9024 24.704C39.7318 24.8053 39.6464 24.9493 39.6464 25.136C39.6464 25.2853 39.6944 25.4027 39.7904 25.488C39.8918 25.5733 40.0544 25.6373 40.2784 25.68L41.0784 25.824C41.4731 25.8987 41.7664 26.024 41.9584 26.2C42.1504 26.3707 42.2464 26.608 42.2464 26.912C42.2464 27.1467 42.1771 27.352 42.0384 27.528C41.8998 27.6987 41.7051 27.832 41.4544 27.928C41.2038 28.024 40.9078 28.072 40.5664 28.072ZM45.0479 28.072C44.5732 28.072 44.2132 27.9467 43.9679 27.696C43.7279 27.4453 43.6079 27.088 43.6079 26.624V24.632H42.8079V24.048H43.6319V22.872H44.3199V24.048H45.7359V24.632H44.3199V26.56C44.3199 26.864 44.3865 27.0907 44.5199 27.24C44.6585 27.384 44.8692 27.456 45.1519 27.456C45.2639 27.456 45.3705 27.4453 45.4719 27.424C45.5785 27.4027 45.6799 27.3707 45.7759 27.328L45.8879 27.888C45.7812 27.9467 45.6505 27.992 45.4959 28.024C45.3465 28.056 45.1972 28.072 45.0479 28.072ZM48.0398 28.072C47.7571 28.072 47.5038 28.0213 47.2798 27.92C47.0558 27.8133 46.8798 27.6693 46.7518 27.488C46.6238 27.3067 46.5598 27.104 46.5598 26.88C46.5598 26.576 46.6451 26.3387 46.8158 26.168C46.9865 25.992 47.2478 25.8667 47.5998 25.792C47.9571 25.7173 48.4131 25.68 48.9678 25.68H49.5358V26.168H48.9998C48.6905 26.168 48.4265 26.1787 48.2078 26.2C47.9891 26.216 47.8105 26.2507 47.6718 26.304C47.5331 26.352 47.4318 26.4187 47.3678 26.504C47.3038 26.5893 47.2718 26.7013 47.2718 26.84C47.2718 27.0533 47.3545 27.2187 47.5198 27.336C47.6905 27.4533 47.9065 27.512 48.1678 27.512C48.3971 27.512 48.6051 27.4613 48.7918 27.36C48.9838 27.2533 49.1358 27.112 49.2478 26.936C49.3651 26.76 49.4238 26.5653 49.4238 26.352V25.448C49.4238 25.1333 49.3358 24.9067 49.1598 24.768C48.9838 24.624 48.7225 24.552 48.3758 24.552C48.1411 24.552 47.9065 24.584 47.6718 24.648C47.4425 24.712 47.2051 24.8187 46.9598 24.968L46.7278 24.44C46.8931 24.3387 47.0691 24.256 47.2558 24.192C47.4425 24.1227 47.6371 24.0693 47.8398 24.032C48.0425 23.9947 48.2451 23.976 48.4478 23.976C48.7891 23.976 49.0825 24.0293 49.3278 24.136C49.5785 24.2427 49.7705 24.408 49.9038 24.632C50.0425 24.856 50.1118 25.1493 50.1118 25.512V28H49.4878V27.136C49.4131 27.3013 49.3091 27.456 49.1758 27.6C49.0425 27.744 48.8798 27.8587 48.6878 27.944C48.5011 28.0293 48.2851 28.072 48.0398 28.072ZM51.5245 28V24.048H52.1885V24.904C52.3165 24.6107 52.5085 24.384 52.7645 24.224C53.0205 24.0587 53.3085 23.976 53.6285 23.976C53.9538 23.976 54.2258 24.0347 54.4445 24.152C54.6632 24.264 54.8258 24.44 54.9325 24.68C55.0445 24.9147 55.1005 25.208 55.1005 25.56V28H54.3885V25.6C54.3885 25.3867 54.3592 25.2053 54.3005 25.056C54.2418 24.9067 54.1432 24.792 54.0045 24.712C53.8712 24.6267 53.6925 24.584 53.4685 24.584C53.2338 24.584 53.0205 24.6373 52.8285 24.744C52.6418 24.8507 52.4952 24.9947 52.3885 25.176C52.2872 25.3573 52.2365 25.56 52.2365 25.784V28H51.5245ZM58.1729 28.072C57.6982 28.072 57.3382 27.9467 57.0929 27.696C56.8529 27.4453 56.7329 27.088 56.7329 26.624V24.632H55.9329V24.048H56.7569V22.872H57.4449V24.048H58.8609V24.632H57.4449V26.56C57.4449 26.864 57.5115 27.0907 57.6449 27.24C57.7835 27.384 57.9942 27.456 58.2769 27.456C58.3889 27.456 58.4955 27.4453 58.5969 27.424C58.7035 27.4027 58.8049 27.3707 58.9009 27.328L59.0129 27.888C58.9062 27.9467 58.7755 27.992 58.6209 28.024C58.4715 28.056 58.3222 28.072 58.1729 28.072ZM60.2262 29.152L59.8662 28.872C59.9622 28.7813 60.0369 28.6773 60.0902 28.56C60.1489 28.448 60.1915 28.3307 60.2182 28.208C60.2449 28.0907 60.2609 27.9813 60.2662 27.88L60.4022 28H59.8182V27.12H60.7302V27.776C60.7302 27.9413 60.7142 28.1067 60.6822 28.272C60.6502 28.4373 60.5969 28.5947 60.5222 28.744C60.4475 28.8933 60.3489 29.0293 60.2262 29.152ZM64.3871 28V22.36H65.1791L67.2111 26.384H67.1631L69.1791 22.36H69.9711V28H69.2911V23.368H69.3231L67.4431 27.104H66.9231L65.0271 23.368H65.0671V28H64.3871ZM71.4523 23.096V22.304H72.3163V23.096H71.4523ZM71.5323 28V24.048H72.2443V28H71.5323ZM75.4251 28.072C75.0198 28.072 74.6678 27.9867 74.3691 27.816C74.0705 27.6453 73.8385 27.408 73.6731 27.104C73.5078 26.7947 73.4251 26.432 73.4251 26.016C73.4251 25.6 73.5078 25.24 73.6731 24.936C73.8385 24.6267 74.0705 24.3893 74.3691 24.224C74.6731 24.0587 75.0278 23.976 75.4331 23.976C75.7051 23.976 75.9638 24.0213 76.2091 24.112C76.4545 24.2027 76.6571 24.3253 76.8171 24.48L76.5691 25.008C76.4145 24.8693 76.2411 24.7653 76.0491 24.696C75.8571 24.6213 75.6705 24.584 75.4891 24.584C75.0731 24.584 74.7451 24.7093 74.5051 24.96C74.2651 25.2107 74.1451 25.5653 74.1451 26.024C74.1451 26.4773 74.2651 26.832 74.5051 27.088C74.7451 27.3387 75.0705 27.464 75.4811 27.464C75.6678 27.464 75.8545 27.4293 76.0411 27.36C76.2331 27.2853 76.4038 27.1813 76.5531 27.048L76.8011 27.576C76.6465 27.7307 76.4465 27.8533 76.2011 27.944C75.9558 28.0293 75.6971 28.072 75.4251 28.072ZM77.7276 28V24.048H78.3756V24.96H78.3836C78.4796 24.6667 78.6476 24.4373 78.8876 24.272C79.1276 24.1013 79.421 24.0053 79.7676 23.984L80.1276 23.968L80.1916 24.616L79.6156 24.664C79.2476 24.696 78.9596 24.8187 78.7516 25.032C78.5436 25.24 78.4396 25.5013 78.4396 25.816V28H77.7276ZM82.7445 28.072C82.3445 28.072 81.9978 27.9867 81.7045 27.816C81.4112 27.6453 81.1845 27.408 81.0245 27.104C80.8645 26.7947 80.7845 26.432 80.7845 26.016C80.7845 25.6053 80.8645 25.248 81.0245 24.944C81.1845 24.6347 81.4112 24.3973 81.7045 24.232C81.9978 24.0613 82.3445 23.976 82.7445 23.976C83.1445 23.976 83.4885 24.0613 83.7765 24.232C84.0698 24.3973 84.2965 24.6347 84.4565 24.944C84.6165 25.248 84.6965 25.6053 84.6965 26.016C84.6965 26.432 84.6165 26.7947 84.4565 27.104C84.3018 27.408 84.0778 27.6453 83.7845 27.816C83.4912 27.9867 83.1445 28.072 82.7445 28.072ZM82.7365 27.472C83.1258 27.472 83.4325 27.3413 83.6565 27.08C83.8805 26.8187 83.9925 26.464 83.9925 26.016C83.9925 25.568 83.8805 25.216 83.6565 24.96C83.4378 24.704 83.1338 24.576 82.7445 24.576C82.3552 24.576 82.0485 24.704 81.8245 24.96C81.6005 25.216 81.4885 25.568 81.4885 26.016C81.4885 26.464 81.6005 26.8187 81.8245 27.08C82.0538 27.3413 82.3578 27.472 82.7365 27.472ZM86.733 28L85.357 24.048H86.077L87.133 27.264H87.093L88.269 24.048H88.885L90.045 27.264H90.005L91.077 24.048H91.781L90.397 28H89.733L88.525 24.736H88.613L87.405 28H86.733ZM93.9773 28.072C93.6946 28.072 93.4413 28.0213 93.2173 27.92C92.9933 27.8133 92.8173 27.6693 92.6893 27.488C92.5613 27.3067 92.4973 27.104 92.4973 26.88C92.4973 26.576 92.5826 26.3387 92.7533 26.168C92.924 25.992 93.1853 25.8667 93.5373 25.792C93.8946 25.7173 94.3506 25.68 94.9053 25.68H95.4733V26.168H94.9373C94.628 26.168 94.364 26.1787 94.1453 26.2C93.9266 26.216 93.748 26.2507 93.6093 26.304C93.4706 26.352 93.3693 26.4187 93.3053 26.504C93.2413 26.5893 93.2093 26.7013 93.2093 26.84C93.2093 27.0533 93.292 27.2187 93.4573 27.336C93.628 27.4533 93.844 27.512 94.1053 27.512C94.3346 27.512 94.5426 27.4613 94.7293 27.36C94.9213 27.2533 95.0733 27.112 95.1853 26.936C95.3026 26.76 95.3613 26.5653 95.3613 26.352V25.448C95.3613 25.1333 95.2733 24.9067 95.0973 24.768C94.9213 24.624 94.66 24.552 94.3133 24.552C94.0786 24.552 93.844 24.584 93.6093 24.648C93.38 24.712 93.1426 24.8187 92.8973 24.968L92.6653 24.44C92.8306 24.3387 93.0066 24.256 93.1933 24.192C93.38 24.1227 93.5746 24.0693 93.7773 24.032C93.98 23.9947 94.1826 23.976 94.3853 23.976C94.7266 23.976 95.02 24.0293 95.2653 24.136C95.516 24.2427 95.708 24.408 95.8413 24.632C95.98 24.856 96.0493 25.1493 96.0493 25.512V28H95.4253V27.136C95.3506 27.3013 95.2466 27.456 95.1133 27.6C94.98 27.744 94.8173 27.8587 94.6253 27.944C94.4386 28.0293 94.2226 28.072 93.9773 28.072ZM98.5349 28L96.8789 24.048H97.6389L98.9269 27.296H98.8869L100.175 24.048H100.911L99.2469 28H98.5349ZM103.639 28.072C103.197 28.072 102.813 27.992 102.487 27.832C102.167 27.6667 101.922 27.432 101.751 27.128C101.581 26.8187 101.495 26.4507 101.495 26.024C101.495 25.624 101.575 25.272 101.735 24.968C101.895 24.6587 102.122 24.416 102.415 24.24C102.709 24.064 103.058 23.976 103.463 23.976C103.847 23.976 104.173 24.0587 104.439 24.224C104.711 24.3893 104.917 24.6213 105.055 24.92C105.199 25.2187 105.271 25.5733 105.271 25.984V26.216H102.031V25.72H104.807L104.655 25.88C104.655 25.4427 104.551 25.1067 104.343 24.872C104.141 24.6373 103.847 24.52 103.463 24.52C103.213 24.52 102.989 24.5787 102.791 24.696C102.599 24.808 102.45 24.968 102.343 25.176C102.237 25.384 102.183 25.6373 102.183 25.936V26.016C102.183 26.336 102.242 26.6053 102.359 26.824C102.477 27.0427 102.645 27.208 102.863 27.32C103.082 27.432 103.343 27.488 103.647 27.488C103.866 27.488 104.087 27.4587 104.311 27.4C104.541 27.336 104.754 27.224 104.951 27.064L105.191 27.576C104.989 27.7467 104.746 27.872 104.463 27.952C104.186 28.032 103.911 28.072 103.639 28.072ZM110.289 28.072C109.91 28.072 109.582 28.0133 109.305 27.896C109.033 27.7787 108.822 27.616 108.673 27.408C108.529 27.1947 108.457 26.944 108.457 26.656C108.457 26.4 108.505 26.176 108.601 25.984C108.697 25.792 108.833 25.6133 109.009 25.448C109.185 25.2827 109.39 25.1227 109.625 24.968L109.905 24.784L109.809 24.92C109.542 24.6427 109.353 24.4027 109.241 24.2C109.129 23.992 109.073 23.7733 109.073 23.544C109.073 23.2987 109.134 23.0827 109.257 22.896C109.379 22.704 109.553 22.5547 109.777 22.448C110.001 22.3413 110.259 22.288 110.553 22.288C110.819 22.288 111.051 22.336 111.249 22.432C111.451 22.5227 111.609 22.6533 111.721 22.824C111.838 22.9893 111.897 23.1867 111.897 23.416C111.897 23.608 111.851 23.7893 111.761 23.96C111.67 24.1307 111.531 24.2987 111.345 24.464C111.158 24.6293 110.915 24.8053 110.617 24.992L110.569 24.856L112.089 26.512L111.985 26.52C112.102 26.3173 112.203 26.056 112.289 25.736C112.374 25.4107 112.422 25.0747 112.433 24.728H113.057C113.041 25.1707 112.971 25.584 112.849 25.968C112.726 26.3467 112.571 26.672 112.385 26.944L112.337 26.76L113.529 28H112.697L111.985 27.232H112.145C111.926 27.504 111.654 27.712 111.329 27.856C111.009 28 110.662 28.072 110.289 28.072ZM110.329 27.504C110.633 27.504 110.907 27.448 111.153 27.336C111.398 27.2187 111.603 27.0453 111.769 26.816V27.024L110.025 25.16H110.305L110.049 25.32C109.851 25.4587 109.686 25.5893 109.553 25.712C109.419 25.8347 109.321 25.968 109.257 26.112C109.193 26.2507 109.161 26.4133 109.161 26.6C109.161 26.888 109.262 27.112 109.465 27.272C109.667 27.4267 109.955 27.504 110.329 27.504ZM110.553 22.824C110.318 22.824 110.121 22.8907 109.961 23.024C109.806 23.152 109.729 23.3253 109.729 23.544C109.729 23.656 109.747 23.7653 109.785 23.872C109.827 23.9733 109.897 24.0853 109.993 24.208C110.089 24.3307 110.217 24.4827 110.377 24.664L110.233 24.64C110.478 24.4853 110.678 24.3467 110.833 24.224C110.987 24.096 111.102 23.9733 111.177 23.856C111.251 23.7333 111.289 23.608 111.289 23.48C111.289 23.272 111.217 23.112 111.073 23C110.934 22.8827 110.761 22.824 110.553 22.824Z" fill="black"/>
</svg>
