<svg width="148" height="30" viewBox="0 0 148 30" fill="none" xmlns="http://www.w3.org/2000/svg">
<rect x="14.1859" y="0.254237" width="133.56" height="29.4499" rx="1.77966" fill="white" stroke="#CE3439" stroke-width="0.508475"/>
<path d="M34.832 18.7852V13.1452H36.808C37.4107 13.1452 37.9227 13.2545 38.344 13.4732C38.7653 13.6918 39.0853 14.0118 39.304 14.4332C39.528 14.8492 39.64 15.3585 39.64 15.9612C39.64 16.5638 39.528 17.0758 39.304 17.4972C39.0853 17.9185 38.7653 18.2385 38.344 18.4572C37.9227 18.6758 37.4107 18.7852 36.808 18.7852H34.832ZM35.544 18.1612H36.768C37.4667 18.1612 37.9947 17.9798 38.352 17.6172C38.7147 17.2545 38.896 16.7025 38.896 15.9612C38.896 15.2198 38.7147 14.6705 38.352 14.3132C37.9947 13.9505 37.4667 13.7692 36.768 13.7692H35.544V18.1612ZM40.8742 13.8812V13.0892H41.7382V13.8812H40.8742ZM40.9542 18.7852V14.8332H41.6662V18.7852H40.9542ZM43.103 18.7852V14.8332H43.759V15.6972C43.8283 15.5212 43.9243 15.3638 44.047 15.2252C44.175 15.0812 44.327 14.9692 44.503 14.8892C44.6843 14.8038 44.8817 14.7612 45.095 14.7612C45.4417 14.7612 45.727 14.8465 45.951 15.0172C46.175 15.1878 46.3137 15.4118 46.367 15.6892H46.359C46.4657 15.4278 46.6337 15.2092 46.863 15.0332C47.0977 14.8518 47.391 14.7612 47.743 14.7612C48.0417 14.7612 48.295 14.8198 48.503 14.9372C48.711 15.0492 48.8683 15.2225 48.975 15.4572C49.0817 15.6918 49.135 15.9878 49.135 16.3452V18.7852H48.431V16.3932C48.431 16.0518 48.3697 15.7958 48.247 15.6252C48.1243 15.4545 47.9057 15.3692 47.591 15.3692C47.3563 15.3692 47.1537 15.4225 46.983 15.5292C46.8177 15.6305 46.6897 15.7745 46.599 15.9612C46.5137 16.1425 46.471 16.3478 46.471 16.5772V18.7852H45.767V16.3932C45.767 16.0572 45.6977 15.8038 45.559 15.6332C45.4203 15.4572 45.2097 15.3692 44.927 15.3692C44.6977 15.3692 44.4977 15.4278 44.327 15.5452C44.1617 15.6572 44.0337 15.8038 43.943 15.9852C43.8523 16.1665 43.807 16.3585 43.807 16.5612V18.7852H43.103ZM52.4676 18.8572C52.0249 18.8572 51.6409 18.7772 51.3156 18.6172C50.9956 18.4518 50.7502 18.2172 50.5796 17.9132C50.4089 17.6038 50.3236 17.2358 50.3236 16.8092C50.3236 16.4092 50.4036 16.0572 50.5636 15.7532C50.7236 15.4438 50.9502 15.2012 51.2436 15.0252C51.5369 14.8492 51.8862 14.7612 52.2916 14.7612C52.6756 14.7612 53.0009 14.8438 53.2676 15.0092C53.5396 15.1745 53.7449 15.4065 53.8836 15.7052C54.0276 16.0038 54.0996 16.3585 54.0996 16.7692V17.0012H50.8596V16.5052H53.6356L53.4836 16.6652C53.4836 16.2278 53.3796 15.8918 53.1716 15.6572C52.9689 15.4225 52.6756 15.3052 52.2916 15.3052C52.0409 15.3052 51.8169 15.3638 51.6196 15.4812C51.4276 15.5932 51.2782 15.7532 51.1716 15.9612C51.0649 16.1692 51.0116 16.4225 51.0116 16.7212V16.8012C51.0116 17.1212 51.0702 17.3905 51.1876 17.6092C51.3049 17.8278 51.4729 17.9932 51.6916 18.1052C51.9102 18.2172 52.1716 18.2732 52.4756 18.2732C52.6942 18.2732 52.9156 18.2438 53.1396 18.1852C53.3689 18.1212 53.5822 18.0092 53.7796 17.8492L54.0196 18.3612C53.8169 18.5318 53.5742 18.6572 53.2916 18.7372C53.0142 18.8172 52.7396 18.8572 52.4676 18.8572ZM55.2745 18.7852V14.8332H55.9385V15.6892C56.0665 15.3958 56.2585 15.1692 56.5145 15.0092C56.7705 14.8438 57.0585 14.7612 57.3785 14.7612C57.7038 14.7612 57.9758 14.8198 58.1945 14.9372C58.4132 15.0492 58.5758 15.2252 58.6825 15.4652C58.7945 15.6998 58.8505 15.9932 58.8505 16.3452V18.7852H58.1385V16.3852C58.1385 16.1718 58.1092 15.9905 58.0505 15.8412C57.9918 15.6918 57.8932 15.5772 57.7545 15.4972C57.6212 15.4118 57.4425 15.3692 57.2185 15.3692C56.9838 15.3692 56.7705 15.4225 56.5785 15.5292C56.3918 15.6358 56.2452 15.7798 56.1385 15.9612C56.0372 16.1425 55.9865 16.3452 55.9865 16.5692V18.7852H55.2745ZM61.7149 18.8572C61.4962 18.8572 61.2802 18.8358 61.0669 18.7932C60.8589 18.7558 60.6642 18.7025 60.4829 18.6332C60.3069 18.5585 60.1549 18.4678 60.0269 18.3612L60.2589 17.8572C60.3922 17.9585 60.5389 18.0412 60.6989 18.1052C60.8642 18.1692 61.0322 18.2172 61.2029 18.2492C61.3789 18.2758 61.5469 18.2892 61.7069 18.2892C62.0375 18.2892 62.2909 18.2385 62.4669 18.1372C62.6482 18.0358 62.7389 17.8945 62.7389 17.7132C62.7389 17.5585 62.6855 17.4412 62.5789 17.3612C62.4775 17.2758 62.3069 17.2118 62.0669 17.1692L61.2429 17.0252C60.8749 16.9558 60.5975 16.8305 60.4109 16.6492C60.2295 16.4678 60.1389 16.2305 60.1389 15.9372C60.1389 15.7025 60.2029 15.4972 60.3309 15.3212C60.4642 15.1452 60.6535 15.0092 60.8989 14.9132C61.1442 14.8118 61.4375 14.7612 61.7789 14.7612C61.9655 14.7612 62.1549 14.7798 62.3469 14.8172C62.5442 14.8545 62.7255 14.9105 62.8909 14.9852C63.0615 15.0545 63.2002 15.1425 63.3069 15.2492L63.0669 15.7532C62.9602 15.6518 62.8322 15.5718 62.6829 15.5132C62.5389 15.4492 62.3869 15.4038 62.2269 15.3772C62.0722 15.3452 61.9202 15.3292 61.7709 15.3292C61.4615 15.3292 61.2215 15.3825 61.0509 15.4892C60.8802 15.5905 60.7949 15.7345 60.7949 15.9212C60.7949 16.0705 60.8429 16.1878 60.9389 16.2732C61.0402 16.3585 61.2029 16.4225 61.4269 16.4652L62.2269 16.6092C62.6215 16.6838 62.9149 16.8092 63.1069 16.9852C63.2989 17.1558 63.3949 17.3932 63.3949 17.6972C63.3949 17.9318 63.3255 18.1372 63.1869 18.3132C63.0482 18.4838 62.8535 18.6172 62.6029 18.7132C62.3522 18.8092 62.0562 18.8572 61.7149 18.8572ZM64.4914 13.8812V13.0892H65.3554V13.8812H64.4914ZM64.5714 18.7852V14.8332H65.2834V18.7852H64.5714ZM68.4242 18.8572C68.0242 18.8572 67.6775 18.7718 67.3842 18.6012C67.0909 18.4305 66.8642 18.1932 66.7042 17.8892C66.5442 17.5798 66.4642 17.2172 66.4642 16.8012C66.4642 16.3905 66.5442 16.0332 66.7042 15.7292C66.8642 15.4198 67.0909 15.1825 67.3842 15.0172C67.6775 14.8465 68.0242 14.7612 68.4242 14.7612C68.8242 14.7612 69.1682 14.8465 69.4562 15.0172C69.7495 15.1825 69.9762 15.4198 70.1362 15.7292C70.2962 16.0332 70.3762 16.3905 70.3762 16.8012C70.3762 17.2172 70.2962 17.5798 70.1362 17.8892C69.9815 18.1932 69.7575 18.4305 69.4642 18.6012C69.1709 18.7718 68.8242 18.8572 68.4242 18.8572ZM68.4162 18.2572C68.8055 18.2572 69.1122 18.1265 69.3362 17.8652C69.5602 17.6038 69.6722 17.2492 69.6722 16.8012C69.6722 16.3532 69.5602 16.0012 69.3362 15.7452C69.1175 15.4892 68.8135 15.3612 68.4242 15.3612C68.0349 15.3612 67.7282 15.4892 67.5042 15.7452C67.2802 16.0012 67.1682 16.3532 67.1682 16.8012C67.1682 17.2492 67.2802 17.6038 67.5042 17.8652C67.7335 18.1265 68.0375 18.2572 68.4162 18.2572ZM71.5714 18.7852V14.8332H72.2354V15.6892C72.3634 15.3958 72.5554 15.1692 72.8114 15.0092C73.0674 14.8438 73.3554 14.7612 73.6754 14.7612C74.0007 14.7612 74.2727 14.8198 74.4914 14.9372C74.71 15.0492 74.8727 15.2252 74.9794 15.4652C75.0914 15.6998 75.1474 15.9932 75.1474 16.3452V18.7852H74.4354V16.3852C74.4354 16.1718 74.406 15.9905 74.3474 15.8412C74.2887 15.6918 74.19 15.5772 74.0514 15.4972C73.918 15.4118 73.7394 15.3692 73.5154 15.3692C73.2807 15.3692 73.0674 15.4225 72.8754 15.5292C72.6887 15.6358 72.542 15.7798 72.4354 15.9612C72.334 16.1425 72.2834 16.3452 72.2834 16.5692V18.7852H71.5714Z" fill="#CE3439"/>
<path d="M79.8131 18.7852V18.1772H81.3571V13.7132L81.7331 13.7692L80.0931 14.8252L79.7731 14.2732L81.5411 13.1452H82.0611V18.1772H83.4851V18.7852H79.8131ZM85.922 18.8572C85.714 18.8572 85.5114 18.8332 85.314 18.7852C85.122 18.7372 84.938 18.6652 84.762 18.5692C84.5914 18.4678 84.4314 18.3452 84.282 18.2012L84.554 17.6572C84.7727 17.8758 84.994 18.0278 85.218 18.1132C85.442 18.1932 85.6794 18.2332 85.93 18.2332C86.1914 18.2332 86.4207 18.1852 86.618 18.0892C86.8207 17.9878 86.9914 17.8412 87.13 17.6492C87.2687 17.4518 87.3727 17.2092 87.442 16.9212C87.5114 16.6332 87.546 16.3025 87.546 15.9292V15.4652H87.538C87.4954 15.7158 87.3994 15.9345 87.25 16.1212C87.106 16.3025 86.9274 16.4412 86.714 16.5372C86.5007 16.6332 86.266 16.6812 86.01 16.6812C85.674 16.6812 85.3754 16.6065 85.114 16.4572C84.8527 16.3078 84.6474 16.0998 84.498 15.8332C84.354 15.5665 84.282 15.2572 84.282 14.9052C84.282 14.5532 84.3594 14.2385 84.514 13.9612C84.6687 13.6838 84.882 13.4678 85.154 13.3132C85.426 13.1532 85.738 13.0732 86.09 13.0732C86.5487 13.0732 86.9354 13.1825 87.25 13.4012C87.5647 13.6145 87.802 13.9265 87.962 14.3372C88.122 14.7478 88.202 15.2492 88.202 15.8412C88.202 16.4812 88.1114 17.0278 87.93 17.4812C87.7487 17.9292 87.4874 18.2705 87.146 18.5052C86.81 18.7398 86.402 18.8572 85.922 18.8572ZM86.13 16.0892C86.3647 16.0892 86.5727 16.0385 86.754 15.9372C86.9354 15.8358 87.0767 15.6945 87.178 15.5132C87.2794 15.3318 87.33 15.1238 87.33 14.8892C87.33 14.6438 87.2794 14.4305 87.178 14.2492C87.082 14.0678 86.9434 13.9292 86.762 13.8332C86.5807 13.7318 86.3674 13.6812 86.122 13.6812C85.8874 13.6812 85.682 13.7318 85.506 13.8332C85.33 13.9345 85.1914 14.0758 85.09 14.2572C84.994 14.4385 84.946 14.6492 84.946 14.8892C84.946 15.1238 84.9967 15.3318 85.098 15.5132C85.1994 15.6945 85.338 15.8358 85.514 15.9372C85.69 16.0385 85.8954 16.0892 86.13 16.0892ZM91.0709 18.8572C90.6389 18.8572 90.2736 18.7478 89.9749 18.5292C89.6762 18.3052 89.4496 17.9798 89.2949 17.5532C89.1456 17.1212 89.0709 16.5905 89.0709 15.9612C89.0709 15.3318 89.1456 14.8038 89.2949 14.3772C89.4496 13.9505 89.6762 13.6278 89.9749 13.4092C90.2736 13.1852 90.6389 13.0732 91.0709 13.0732C91.5136 13.0732 91.8816 13.1825 92.1749 13.4012C92.4682 13.6198 92.6896 13.9425 92.8389 14.3692C92.9936 14.7958 93.0709 15.3238 93.0709 15.9532C93.0709 16.5825 92.9936 17.1132 92.8389 17.5452C92.6896 17.9772 92.4656 18.3052 92.1669 18.5292C91.8682 18.7478 91.5029 18.8572 91.0709 18.8572ZM91.0709 18.2332C91.5082 18.2332 91.8336 18.0492 92.0469 17.6812C92.2602 17.3132 92.3669 16.7372 92.3669 15.9532C92.3669 15.1745 92.2602 14.6038 92.0469 14.2412C91.8389 13.8785 91.5162 13.6972 91.0789 13.6972C90.6362 13.6972 90.3082 13.8812 90.0949 14.2492C89.8816 14.6118 89.7749 15.1825 89.7749 15.9612C89.7749 16.7345 89.8816 17.3078 90.0949 17.6812C90.3082 18.0492 90.6336 18.2332 91.0709 18.2332ZM94.7878 16.0972L94.3158 15.8172L95.0198 14.7532L95.0358 14.7772L93.7478 14.8572V14.3052L95.0358 14.3852L95.0118 14.4012L94.3158 13.3452L94.7958 13.0652L95.3638 14.2492H95.3558L95.9078 13.0652L96.3878 13.3452L95.6838 14.4012L95.6598 14.3852L96.9558 14.3052V14.8572L95.6678 14.7772L95.6918 14.7532L96.3878 15.8172L95.9158 16.0972L95.3558 14.9212H95.3638L94.7878 16.0972ZM97.9694 18.7852V18.1772H99.5134V13.7132L99.8894 13.7692L98.2494 14.8252L97.9294 14.2732L99.6974 13.1452H100.217V18.1772H101.641V18.7852H97.9694ZM104.35 18.8572C104.116 18.8572 103.884 18.8332 103.654 18.7852C103.425 18.7372 103.206 18.6625 102.998 18.5612C102.796 18.4598 102.609 18.3345 102.438 18.1852L102.71 17.6252C102.966 17.8438 103.233 18.0012 103.51 18.0972C103.788 18.1878 104.068 18.2332 104.35 18.2332C104.585 18.2332 104.796 18.1985 104.982 18.1292C105.174 18.0545 105.324 17.9452 105.43 17.8012C105.542 17.6518 105.598 17.4598 105.598 17.2252C105.598 16.8998 105.489 16.6545 105.27 16.4892C105.052 16.3185 104.734 16.2332 104.318 16.2332H103.47V15.6172H104.214C104.454 15.6172 104.668 15.5798 104.854 15.5052C105.046 15.4252 105.196 15.3078 105.302 15.1532C105.409 14.9985 105.462 14.8065 105.462 14.5772C105.462 14.2838 105.361 14.0652 105.158 13.9212C104.956 13.7718 104.694 13.6972 104.374 13.6972C104.092 13.6972 103.814 13.7452 103.542 13.8412C103.276 13.9372 103.03 14.1025 102.806 14.3372L102.542 13.7852C102.766 13.5452 103.044 13.3665 103.374 13.2492C103.705 13.1318 104.049 13.0732 104.406 13.0732C104.764 13.0732 105.07 13.1318 105.326 13.2492C105.588 13.3612 105.79 13.5265 105.934 13.7452C106.078 13.9585 106.15 14.2172 106.15 14.5212C106.15 14.8412 106.06 15.1238 105.878 15.3692C105.697 15.6145 105.452 15.7878 105.142 15.8892V15.8812C105.366 15.9238 105.564 16.0065 105.734 16.1292C105.905 16.2465 106.041 16.4012 106.142 16.5932C106.244 16.7798 106.294 17.0012 106.294 17.2572C106.294 17.5932 106.212 17.8812 106.046 18.1212C105.886 18.3612 105.66 18.5452 105.366 18.6732C105.078 18.7958 104.74 18.8572 104.35 18.8572ZM109.227 18.8572C108.795 18.8572 108.43 18.7478 108.131 18.5292C107.832 18.3052 107.606 17.9798 107.451 17.5532C107.302 17.1212 107.227 16.5905 107.227 15.9612C107.227 15.3318 107.302 14.8038 107.451 14.3772C107.606 13.9505 107.832 13.6278 108.131 13.4092C108.43 13.1852 108.795 13.0732 109.227 13.0732C109.67 13.0732 110.038 13.1825 110.331 13.4012C110.624 13.6198 110.846 13.9425 110.995 14.3692C111.15 14.7958 111.227 15.3238 111.227 15.9532C111.227 16.5825 111.15 17.1132 110.995 17.5452C110.846 17.9772 110.622 18.3052 110.323 18.5292C110.024 18.7478 109.659 18.8572 109.227 18.8572ZM109.227 18.2332C109.664 18.2332 109.99 18.0492 110.203 17.6812C110.416 17.3132 110.523 16.7372 110.523 15.9532C110.523 15.1745 110.416 14.6038 110.203 14.2412C109.995 13.8785 109.672 13.6972 109.235 13.6972C108.792 13.6972 108.464 13.8812 108.251 14.2492C108.038 14.6118 107.931 15.1825 107.931 15.9612C107.931 16.7345 108.038 17.3078 108.251 17.6812C108.464 18.0492 108.79 18.2332 109.227 18.2332ZM112.944 16.0972L112.472 15.8172L113.176 14.7532L113.192 14.7772L111.904 14.8572V14.3052L113.192 14.3852L113.168 14.4012L112.472 13.3452L112.952 13.0652L113.52 14.2492H113.512L114.064 13.0652L114.544 13.3452L113.84 14.4012L113.816 14.3852L115.112 14.3052V14.8572L113.824 14.7772L113.848 14.7532L114.544 15.8172L114.072 16.0972L113.512 14.9212H113.52L112.944 16.0972ZM117.854 18.8572C117.608 18.8572 117.371 18.8305 117.142 18.7772C116.918 18.7238 116.707 18.6465 116.51 18.5452C116.312 18.4385 116.136 18.3105 115.982 18.1612L116.262 17.6012C116.507 17.8252 116.758 17.9878 117.014 18.0892C117.275 18.1852 117.555 18.2332 117.854 18.2332C118.248 18.2332 118.555 18.1318 118.774 17.9292C118.998 17.7212 119.11 17.4305 119.11 17.0572C119.11 16.6892 119.006 16.3958 118.798 16.1772C118.59 15.9585 118.302 15.8492 117.934 15.8492C117.688 15.8492 117.464 15.8998 117.262 16.0012C117.064 16.0972 116.88 16.2598 116.71 16.4892H116.15V13.1452H119.526V13.7612H116.798V15.8812H116.766C116.894 15.6892 117.07 15.5345 117.294 15.4172C117.518 15.2945 117.768 15.2332 118.046 15.2332C118.408 15.2332 118.72 15.3105 118.982 15.4652C119.243 15.6145 119.443 15.8225 119.582 16.0892C119.726 16.3558 119.798 16.6678 119.798 17.0252C119.798 17.4038 119.718 17.7318 119.558 18.0092C119.398 18.2812 119.174 18.4918 118.886 18.6412C118.598 18.7852 118.254 18.8572 117.854 18.8572ZM122.587 18.8572C122.155 18.8572 121.789 18.7478 121.491 18.5292C121.192 18.3052 120.965 17.9798 120.811 17.5532C120.661 17.1212 120.587 16.5905 120.587 15.9612C120.587 15.3318 120.661 14.8038 120.811 14.3772C120.965 13.9505 121.192 13.6278 121.491 13.4092C121.789 13.1852 122.155 13.0732 122.587 13.0732C123.029 13.0732 123.397 13.1825 123.691 13.4012C123.984 13.6198 124.205 13.9425 124.355 14.3692C124.509 14.7958 124.587 15.3238 124.587 15.9532C124.587 16.5825 124.509 17.1132 124.355 17.5452C124.205 17.9772 123.981 18.3052 123.683 18.5292C123.384 18.7478 123.019 18.8572 122.587 18.8572ZM122.587 18.2332C123.024 18.2332 123.349 18.0492 123.563 17.6812C123.776 17.3132 123.883 16.7372 123.883 15.9532C123.883 15.1745 123.776 14.6038 123.563 14.2412C123.355 13.8785 123.032 13.6972 122.595 13.6972C122.152 13.6972 121.824 13.8812 121.611 14.2492C121.397 14.6118 121.291 15.1825 121.291 15.9612C121.291 16.7345 121.397 17.3078 121.611 17.6812C121.824 18.0492 122.149 18.2332 122.587 18.2332Z" fill="black"/>
<rect width="32.1506" height="30" rx="3.05085" fill="#CB3335"/>
<g clip-path="url(#clip0_243_47)">
<path fill-rule="evenodd" clip-rule="evenodd" d="M6.82529 10.5924C6.88507 10.6131 6.95505 10.6594 6.98107 10.6955C7.01975 10.7489 7.02819 11.2159 7.02784 15.6994L6.94169 15.7814C6.88155 15.8385 6.8172 15.8634 6.7307 15.8634C6.64454 15.8634 6.57879 15.8382 6.43004 15.6994V13.2384C6.43004 11.6634 6.4427 10.7539 6.4652 10.7119C6.48454 10.6758 6.54925 10.6259 6.60868 10.6006C6.69342 10.5652 6.74054 10.5635 6.82529 10.5924ZM24.2318 10.5924C24.2916 10.6131 24.3616 10.6594 24.3876 10.6955C24.4263 10.7489 24.4347 11.2159 24.4344 15.6994L24.3482 15.7814C24.2881 15.8385 24.2237 15.8634 24.1372 15.8634C24.0511 15.8634 23.9853 15.8382 23.8366 15.6994V13.2384C23.8366 11.6634 23.8492 10.7539 23.8717 10.7119C23.8911 10.6758 23.9558 10.6259 24.0152 10.6006C24.1 10.5652 24.1471 10.5635 24.2318 10.5924ZM24.2645 16.733L24.4344 16.9134V18.6689C24.4344 19.7737 24.4214 20.4486 24.3992 20.49C24.3799 20.5261 24.3088 20.5779 24.241 20.6048C24.1327 20.6481 23.0746 20.654 15.4322 20.654C7.78986 20.654 6.73175 20.6481 6.62345 20.6048C6.55558 20.5779 6.48454 20.5261 6.4652 20.49C6.44305 20.4486 6.43004 19.7757 6.42969 18.6771C6.42969 17.1241 6.43567 16.9213 6.48595 16.8537C6.51725 16.8117 6.57668 16.7648 6.61817 16.749C6.66037 16.733 10.577 16.7231 24.2645 16.733ZM7.04542 20.0798H23.819L23.8246 17.2744H22.9223C22.9205 17.8213 22.904 17.9677 22.8773 18.0021C22.8537 18.0327 22.7869 18.0743 22.7289 18.095C22.6438 18.1255 22.6012 18.1226 22.5091 18.0809C22.4342 18.0468 22.3825 17.9923 22.359 17.9224C22.3393 17.8637 22.3234 17.694 22.3238 17.5451L22.3245 17.2744H21.1289C21.1289 18.4763 21.1271 18.4901 21.0442 18.5787C20.9805 18.6463 20.9271 18.6689 20.83 18.6689C20.7329 18.6689 20.6795 18.6463 20.6158 18.5787C20.5329 18.4901 20.5311 18.4763 20.5311 17.8814V17.2744H19.3355C19.319 17.9237 19.3091 17.97 19.2395 18.0346C19.1885 18.0822 19.1168 18.1085 19.0345 18.1094C18.9385 18.1108 18.8864 18.0888 18.8224 18.0208C18.7451 17.9385 18.7377 17.9024 18.7377 17.6025V17.2744H17.5421C17.5421 18.2551 17.5294 18.4179 17.4893 18.5048C17.4577 18.5741 17.3983 18.6335 17.3399 18.6545C17.2868 18.6735 17.2077 18.6807 17.1641 18.6709C17.1205 18.6607 17.053 18.6193 17.0139 18.5787C16.9478 18.5101 16.9429 18.4612 16.9436 17.8896L16.9443 17.2744H15.7487C15.7483 17.6684 15.7325 17.8384 15.7132 17.906C15.6872 17.9982 15.6474 18.0435 15.5553 18.0865C15.4382 18.1413 15.4262 18.1413 15.3091 18.0865C15.217 18.0435 15.1773 17.9982 15.1512 17.906C15.1319 17.8384 15.1161 17.6684 15.1161 17.5287L15.1157 17.2744H13.9201C13.9184 18.3214 13.905 18.5203 13.8751 18.557C13.8516 18.5855 13.7967 18.6262 13.7531 18.6472C13.7095 18.6682 13.6265 18.6781 13.5685 18.6689C13.4982 18.658 13.4395 18.6169 13.3927 18.5458C13.3297 18.4497 13.3227 18.3811 13.3223 17.8568V17.2744H12.1267C12.1267 17.9024 12.1193 17.9385 12.042 18.0208C11.979 18.0875 11.9242 18.1111 11.8317 18.1111C11.7485 18.1111 11.6801 18.0861 11.6267 18.0363C11.5549 17.9697 11.5455 17.926 11.5377 17.6179L11.5289 17.2744H10.3333C10.3161 18.4914 10.3122 18.5229 10.2373 18.5924C10.1863 18.64 10.1146 18.6663 10.0323 18.6673C9.93632 18.6686 9.88427 18.6466 9.82027 18.5787C9.73728 18.4901 9.73552 18.4763 9.73552 17.8814V17.2744H8.53992C8.54098 17.694 8.52515 17.8637 8.50546 17.9224C8.4819 17.9923 8.43021 18.0468 8.35531 18.0809C8.26318 18.1226 8.22063 18.1255 8.13553 18.095C8.07751 18.0743 8.01069 18.0327 7.98713 18.0021C7.96041 17.9677 7.94388 17.8213 7.94318 17.6107L7.94212 17.2744H7.02714L7.04542 20.0798ZM9.30019 11.4009C9.34625 11.4009 9.42748 11.4367 9.57728 11.5591L9.59487 13.0744H21.2696L21.2871 11.5591L21.3838 11.48C21.4369 11.4367 21.5161 11.4003 21.5597 11.3996C21.6033 11.3986 21.6736 11.4245 21.7158 11.457C21.7583 11.4892 22.1107 11.8997 22.4989 12.3689C22.8875 12.8381 23.2145 13.2591 23.2261 13.304C23.2384 13.3513 23.2244 13.4278 23.1931 13.4845C23.1632 13.5387 22.8748 13.9006 22.5527 14.2884C22.2303 14.6766 21.9046 15.0641 21.829 15.1498C21.7207 15.2725 21.669 15.3056 21.586 15.3056C21.528 15.3056 21.4489 15.2908 21.4102 15.2728C21.3715 15.2548 21.3237 15.1921 21.304 15.1333C21.2843 15.0746 21.2685 14.713 21.2696 13.6322H9.59487L9.59557 14.3294C9.59557 14.713 9.57974 15.0746 9.5604 15.1333C9.54071 15.1921 9.49289 15.2548 9.45421 15.2728C9.41553 15.2908 9.3364 15.3056 9.27838 15.3056C9.19539 15.3056 9.1437 15.2725 9.03539 15.1498C8.95944 15.0641 8.63381 14.6766 8.3117 14.2884C7.98924 13.9006 7.70124 13.5387 7.67135 13.4845C7.64006 13.4278 7.62599 13.3513 7.6383 13.304C7.6499 13.2591 7.97694 12.8381 8.36515 12.3689C8.75337 11.8997 9.10397 11.4898 9.14405 11.4583C9.18379 11.4268 9.25412 11.4009 9.30019 11.4009ZM8.32858 13.4189C8.3539 13.455 8.51038 13.6489 8.67671 13.85C8.84339 14.0512 8.99144 14.21 9.00586 14.2028C9.02027 14.1959 9.03223 13.8136 9.03223 13.3533C9.03223 12.8906 9.01816 12.5165 9.00093 12.5165C8.98405 12.5165 8.81561 12.7049 8.62643 12.9349C8.31628 13.3132 8.28744 13.3595 8.32858 13.4189ZM21.8586 14.2028C21.873 14.21 22.021 14.0512 22.1874 13.85C22.3537 13.6489 22.5105 13.455 22.5355 13.4189C22.5766 13.3595 22.5478 13.3132 22.2331 12.9336C22.0414 12.7026 21.873 12.5143 21.8586 12.5152C21.8441 12.5159 21.8322 12.8932 21.8322 13.3533C21.8322 13.8136 21.8441 14.1959 21.8586 14.2028Z" fill="white"/>
</g>
<defs>
<clipPath id="clip0_243_47">
<rect width="18.0043" height="16.8" fill="white" transform="translate(6.42969 7.2002)"/>
</clipPath>
</defs>
</svg>
