<svg width="147" height="30" viewBox="0 0 147 30" fill="none" xmlns="http://www.w3.org/2000/svg">
<path d="M0.256 6L2.736 0.36H3.376L5.856 6H5.112L4.424 4.392L4.776 4.616H1.336L1.68 4.392L1 6H0.256ZM3.04 1.176L1.776 4.16L1.576 4.008H4.536L4.336 4.16L3.072 1.176H3.04ZM11.0638 6.072C10.7544 6.072 10.4611 6.048 10.1838 6C9.90642 5.952 9.65308 5.88 9.42375 5.784C9.19442 5.688 8.99442 5.57067 8.82375 5.432L9.08775 4.84C9.26908 4.984 9.46108 5.10133 9.66375 5.192C9.87175 5.27733 10.0904 5.33867 10.3198 5.376C10.5544 5.41333 10.8024 5.432 11.0638 5.432C11.5064 5.432 11.8451 5.344 12.0798 5.168C12.3198 4.992 12.4398 4.752 12.4398 4.448C12.4398 4.288 12.3998 4.15467 12.3198 4.048C12.2451 3.94133 12.1251 3.85333 11.9598 3.784C11.7998 3.71467 11.5918 3.65333 11.3358 3.6L10.4158 3.424C9.89842 3.32267 9.52508 3.144 9.29575 2.888C9.06642 2.632 8.95175 2.30933 8.95175 1.92C8.95175 1.58933 9.04242 1.304 9.22375 1.064C9.41042 0.818666 9.66642 0.629333 9.99175 0.496C10.3224 0.357333 10.6984 0.288 11.1198 0.288C11.3864 0.288 11.6344 0.314666 11.8638 0.368C12.0984 0.416 12.3118 0.490666 12.5038 0.592C12.7011 0.693333 12.8771 0.816 13.0318 0.96L12.7678 1.544C12.5384 1.32 12.2878 1.16267 12.0158 1.072C11.7438 0.976 11.4424 0.928 11.1118 0.928C10.8344 0.928 10.5864 0.968 10.3678 1.048C10.1491 1.12267 9.97575 1.23467 9.84775 1.384C9.72508 1.528 9.66375 1.70667 9.66375 1.92C9.66375 2.15467 9.73842 2.34133 9.88775 2.48C10.0371 2.61333 10.2904 2.71733 10.6478 2.792L11.5598 2.968C12.1038 3.06933 12.5064 3.24 12.7678 3.48C13.0291 3.72 13.1598 4.032 13.1598 4.416C13.1598 4.736 13.0718 5.02133 12.8958 5.272C12.7251 5.52267 12.4824 5.72 12.1678 5.864C11.8584 6.00267 11.4904 6.072 11.0638 6.072ZM14.3058 7.44V2.04H14.9618V2.912C15.0791 2.61333 15.2631 2.384 15.5138 2.224C15.7698 2.05867 16.0684 1.976 16.4098 1.976C16.7778 1.976 17.0978 2.06133 17.3698 2.232C17.6418 2.40267 17.8524 2.64 18.0017 2.944C18.1511 3.248 18.2258 3.608 18.2258 4.024C18.2258 4.424 18.1511 4.77867 18.0017 5.088C17.8578 5.39733 17.6498 5.64 17.3778 5.816C17.1058 5.98667 16.7858 6.072 16.4178 6.072C16.0818 6.072 15.7911 5.992 15.5458 5.832C15.3058 5.66667 15.1298 5.448 15.0178 5.176V7.44H14.3058ZM16.2578 5.488C16.6471 5.488 16.9538 5.35733 17.1778 5.096C17.4018 4.82933 17.5138 4.46933 17.5138 4.016C17.5138 3.56267 17.4018 3.208 17.1778 2.952C16.9538 2.69067 16.6471 2.56 16.2578 2.56C15.8738 2.56 15.5698 2.69067 15.3458 2.952C15.1218 3.208 15.0098 3.56267 15.0098 4.016C15.0098 4.46933 15.1218 4.82933 15.3458 5.096C15.5698 5.35733 15.8738 5.488 16.2578 5.488ZM20.7273 6.072C20.4446 6.072 20.1913 6.02133 19.9673 5.92C19.7433 5.81333 19.5673 5.66933 19.4393 5.488C19.3113 5.30667 19.2473 5.104 19.2473 4.88C19.2473 4.576 19.3326 4.33867 19.5033 4.168C19.674 3.992 19.9353 3.86667 20.2873 3.792C20.6446 3.71733 21.1006 3.68 21.6553 3.68H22.2233V4.168H21.6873C21.378 4.168 21.114 4.17867 20.8953 4.2C20.6766 4.216 20.498 4.25067 20.3593 4.304C20.2206 4.352 20.1193 4.41867 20.0553 4.504C19.9913 4.58933 19.9593 4.70133 19.9593 4.84C19.9593 5.05333 20.042 5.21867 20.2073 5.336C20.378 5.45333 20.594 5.512 20.8553 5.512C21.0846 5.512 21.2926 5.46133 21.4793 5.36C21.6713 5.25333 21.8233 5.112 21.9353 4.936C22.0526 4.76 22.1113 4.56533 22.1113 4.352V3.448C22.1113 3.13333 22.0233 2.90667 21.8473 2.768C21.6713 2.624 21.41 2.552 21.0633 2.552C20.8286 2.552 20.594 2.584 20.3593 2.648C20.13 2.712 19.8926 2.81867 19.6473 2.968L19.4153 2.44C19.5806 2.33867 19.7566 2.256 19.9433 2.192C20.13 2.12267 20.3246 2.06933 20.5273 2.032C20.73 1.99467 20.9326 1.976 21.1353 1.976C21.4766 1.976 21.77 2.02933 22.0153 2.136C22.266 2.24267 22.458 2.408 22.5913 2.632C22.73 2.856 22.7993 3.14933 22.7993 3.512V6H22.1753V5.136C22.1006 5.30133 21.9966 5.456 21.8633 5.6C21.73 5.744 21.5673 5.85867 21.3753 5.944C21.1886 6.02933 20.9726 6.072 20.7273 6.072ZM25.972 6.072C25.5667 6.072 25.2147 5.98667 24.916 5.816C24.6173 5.64533 24.3853 5.408 24.22 5.104C24.0547 4.79467 23.972 4.432 23.972 4.016C23.972 3.6 24.0547 3.24 24.22 2.936C24.3853 2.62667 24.6173 2.38933 24.916 2.224C25.22 2.05867 25.5747 1.976 25.98 1.976C26.252 1.976 26.5107 2.02133 26.756 2.112C27.0013 2.20267 27.204 2.32533 27.364 2.48L27.116 3.008C26.9613 2.86933 26.788 2.76533 26.596 2.696C26.404 2.62133 26.2173 2.584 26.036 2.584C25.62 2.584 25.292 2.70933 25.052 2.96C24.812 3.21067 24.692 3.56533 24.692 4.024C24.692 4.47733 24.812 4.832 25.052 5.088C25.292 5.33867 25.6173 5.464 26.028 5.464C26.2147 5.464 26.4013 5.42933 26.588 5.36C26.78 5.28533 26.9507 5.18133 27.1 5.048L27.348 5.576C27.1933 5.73067 26.9933 5.85333 26.748 5.944C26.5027 6.02933 26.244 6.072 25.972 6.072ZM28.1945 1.096V0.304H29.0585V1.096H28.1945ZM28.2745 6V2.048H28.9865V6H28.2745ZM32.1273 6.072C31.7273 6.072 31.3806 5.98667 31.0873 5.816C30.794 5.64533 30.5673 5.408 30.4073 5.104C30.2473 4.79467 30.1673 4.432 30.1673 4.016C30.1673 3.60533 30.2473 3.248 30.4073 2.944C30.5673 2.63467 30.794 2.39733 31.0873 2.232C31.3806 2.06133 31.7273 1.976 32.1273 1.976C32.5273 1.976 32.8713 2.06133 33.1593 2.232C33.4526 2.39733 33.6793 2.63467 33.8393 2.944C33.9993 3.248 34.0793 3.60533 34.0793 4.016C34.0793 4.432 33.9993 4.79467 33.8393 5.104C33.6846 5.408 33.4606 5.64533 33.1673 5.816C32.874 5.98667 32.5273 6.072 32.1273 6.072ZM32.1193 5.472C32.5086 5.472 32.8153 5.34133 33.0393 5.08C33.2633 4.81867 33.3753 4.464 33.3753 4.016C33.3753 3.568 33.2633 3.216 33.0393 2.96C32.8206 2.704 32.5166 2.576 32.1273 2.576C31.738 2.576 31.4313 2.704 31.2073 2.96C30.9833 3.216 30.8713 3.568 30.8713 4.016C30.8713 4.464 30.9833 4.81867 31.2073 5.08C31.4366 5.34133 31.7406 5.472 32.1193 5.472ZM36.7545 6.072C36.4292 6.072 36.1545 6.01333 35.9305 5.896C35.7065 5.77867 35.5385 5.60267 35.4265 5.368C35.3145 5.13333 35.2585 4.84 35.2585 4.488V2.048H35.9705V4.456C35.9705 4.65867 35.9998 4.83733 36.0585 4.992C36.1225 5.14133 36.2212 5.25867 36.3545 5.344C36.4932 5.424 36.6745 5.464 36.8985 5.464C37.1225 5.464 37.3252 5.41067 37.5065 5.304C37.6878 5.192 37.8292 5.048 37.9305 4.872C38.0318 4.69067 38.0825 4.49067 38.0825 4.272V2.048H38.7945V6H38.1385V5.128C38.0052 5.42133 37.8238 5.65333 37.5945 5.824C37.3652 5.98933 37.0852 6.072 36.7545 6.072ZM41.6758 6.072C41.4571 6.072 41.2411 6.05067 41.0278 6.008C40.8198 5.97067 40.6251 5.91733 40.4438 5.848C40.2678 5.77333 40.1158 5.68267 39.9878 5.576L40.2198 5.072C40.3531 5.17333 40.4998 5.256 40.6598 5.32C40.8251 5.384 40.9931 5.432 41.1638 5.464C41.3398 5.49067 41.5078 5.504 41.6678 5.504C41.9985 5.504 42.2518 5.45333 42.4278 5.352C42.6091 5.25067 42.6998 5.10933 42.6998 4.928C42.6998 4.77333 42.6465 4.656 42.5398 4.576C42.4385 4.49067 42.2678 4.42667 42.0278 4.384L41.2038 4.24C40.8358 4.17067 40.5585 4.04533 40.3718 3.864C40.1905 3.68267 40.0998 3.44533 40.0998 3.152C40.0998 2.91733 40.1638 2.712 40.2918 2.536C40.4251 2.36 40.6145 2.224 40.8598 2.128C41.1051 2.02667 41.3985 1.976 41.7398 1.976C41.9265 1.976 42.1158 1.99467 42.3078 2.032C42.5051 2.06933 42.6865 2.12533 42.8518 2.2C43.0225 2.26933 43.1611 2.35733 43.2678 2.464L43.0278 2.968C42.9211 2.86667 42.7931 2.78667 42.6438 2.728C42.4998 2.664 42.3478 2.61867 42.1878 2.592C42.0331 2.56 41.8811 2.544 41.7318 2.544C41.4225 2.544 41.1825 2.59733 41.0118 2.704C40.8411 2.80533 40.7558 2.94933 40.7558 3.136C40.7558 3.28533 40.8038 3.40267 40.8998 3.488C41.0011 3.57333 41.1638 3.63733 41.3878 3.68L42.1878 3.824C42.5825 3.89867 42.8758 4.024 43.0678 4.2C43.2598 4.37067 43.3558 4.608 43.3558 4.912C43.3558 5.14667 43.2865 5.352 43.1478 5.528C43.0091 5.69867 42.8145 5.832 42.5638 5.928C42.3131 6.024 42.0171 6.072 41.6758 6.072ZM46.9507 6L49.7107 0.648L49.7427 0.992H46.5667V0.36H50.3347V0.896L47.7267 6H46.9507ZM53.3156 6.072C53.0702 6.072 52.8329 6.04533 52.6036 5.992C52.3796 5.93867 52.1689 5.86133 51.9716 5.76C51.7742 5.65333 51.5982 5.52533 51.4436 5.376L51.7236 4.816C51.9689 5.04 52.2196 5.20267 52.4756 5.304C52.7369 5.4 53.0169 5.448 53.3156 5.448C53.7102 5.448 54.0169 5.34667 54.2356 5.144C54.4596 4.936 54.5716 4.64533 54.5716 4.272C54.5716 3.904 54.4676 3.61067 54.2596 3.392C54.0516 3.17333 53.7636 3.064 53.3956 3.064C53.1502 3.064 52.9262 3.11467 52.7236 3.216C52.5262 3.312 52.3422 3.47467 52.1716 3.704H51.6116V0.36H54.9876V0.976H52.2596V3.096H52.2276C52.3556 2.904 52.5316 2.74933 52.7556 2.632C52.9796 2.50933 53.2302 2.448 53.5076 2.448C53.8702 2.448 54.1822 2.52533 54.4436 2.68C54.7049 2.82933 54.9049 3.03733 55.0436 3.304C55.1876 3.57067 55.2596 3.88267 55.2596 4.24C55.2596 4.61867 55.1796 4.94667 55.0196 5.224C54.8596 5.496 54.6356 5.70667 54.3476 5.856C54.0596 6 53.7156 6.072 53.3156 6.072ZM58.0484 6.072C57.6164 6.072 57.2511 5.96267 56.9524 5.744C56.6538 5.52 56.4271 5.19467 56.2724 4.768C56.1231 4.336 56.0484 3.80533 56.0484 3.176C56.0484 2.54667 56.1231 2.01867 56.2724 1.592C56.4271 1.16533 56.6538 0.842666 56.9524 0.624C57.2511 0.4 57.6164 0.288 58.0484 0.288C58.4911 0.288 58.8591 0.397333 59.1524 0.616C59.4458 0.834666 59.6671 1.15733 59.8164 1.584C59.9711 2.01067 60.0484 2.53867 60.0484 3.168C60.0484 3.79733 59.9711 4.328 59.8164 4.76C59.6671 5.192 59.4431 5.52 59.1444 5.744C58.8458 5.96267 58.4804 6.072 58.0484 6.072ZM58.0484 5.448C58.4858 5.448 58.8111 5.264 59.0244 4.896C59.2378 4.528 59.3444 3.952 59.3444 3.168C59.3444 2.38933 59.2378 1.81867 59.0244 1.456C58.8164 1.09333 58.4938 0.912 58.0564 0.912C57.6138 0.912 57.2858 1.096 57.0724 1.464C56.8591 1.82667 56.7524 2.39733 56.7524 3.176C56.7524 3.94933 56.8591 4.52267 57.0724 4.896C57.2858 5.264 57.6111 5.448 58.0484 5.448ZM61.1733 6V2.048H61.8293V2.912C61.8986 2.736 61.9946 2.57867 62.1173 2.44C62.2453 2.296 62.3973 2.184 62.5733 2.104C62.7546 2.01867 62.952 1.976 63.1653 1.976C63.512 1.976 63.7973 2.06133 64.0213 2.232C64.2453 2.40267 64.384 2.62667 64.4373 2.904H64.4293C64.536 2.64267 64.704 2.424 64.9333 2.248C65.168 2.06667 65.4613 1.976 65.8133 1.976C66.112 1.976 66.3653 2.03467 66.5733 2.152C66.7813 2.264 66.9386 2.43733 67.0453 2.672C67.152 2.90667 67.2053 3.20267 67.2053 3.56V6H66.5013V3.608C66.5013 3.26667 66.44 3.01067 66.3173 2.84C66.1946 2.66933 65.976 2.584 65.6613 2.584C65.4266 2.584 65.224 2.63733 65.0533 2.744C64.888 2.84533 64.76 2.98933 64.6693 3.176C64.584 3.35733 64.5413 3.56267 64.5413 3.792V6H63.8373V3.608C63.8373 3.272 63.768 3.01867 63.6293 2.848C63.4906 2.672 63.28 2.584 62.9973 2.584C62.768 2.584 62.568 2.64267 62.3973 2.76C62.232 2.872 62.104 3.01867 62.0133 3.2C61.9226 3.38133 61.8773 3.57333 61.8773 3.776V6H61.1733ZM69.8339 6.072C69.4499 6.072 69.1539 5.96 68.9459 5.736C68.7379 5.512 68.6339 5.19733 68.6339 4.792V0.36H69.3459V4.72C69.3459 4.88 69.3699 5.01867 69.4179 5.136C69.4659 5.248 69.5352 5.33333 69.6259 5.392C69.7165 5.45067 69.8259 5.48 69.9539 5.48C70.0339 5.48 70.1085 5.47733 70.1779 5.472C70.2525 5.46133 70.3272 5.44533 70.4019 5.424L70.4179 5.984C70.3272 6.016 70.2339 6.03733 70.1379 6.048C70.0472 6.064 69.9459 6.072 69.8339 6.072ZM74.9502 6V0.992H72.9182V0.36H77.6942V0.992H75.6622V6H74.9502ZM79.282 6.072C78.9993 6.072 78.746 6.02133 78.522 5.92C78.298 5.81333 78.122 5.66933 77.994 5.488C77.866 5.30667 77.802 5.104 77.802 4.88C77.802 4.576 77.8873 4.33867 78.058 4.168C78.2287 3.992 78.49 3.86667 78.842 3.792C79.1993 3.71733 79.6553 3.68 80.21 3.68H80.778V4.168H80.242C79.9327 4.168 79.6687 4.17867 79.45 4.2C79.2313 4.216 79.0527 4.25067 78.914 4.304C78.7753 4.352 78.674 4.41867 78.61 4.504C78.546 4.58933 78.514 4.70133 78.514 4.84C78.514 5.05333 78.5967 5.21867 78.762 5.336C78.9327 5.45333 79.1487 5.512 79.41 5.512C79.6393 5.512 79.8473 5.46133 80.034 5.36C80.226 5.25333 80.378 5.112 80.49 4.936C80.6073 4.76 80.666 4.56533 80.666 4.352V3.448C80.666 3.13333 80.578 2.90667 80.402 2.768C80.226 2.624 79.9647 2.552 79.618 2.552C79.3833 2.552 79.1487 2.584 78.914 2.648C78.6847 2.712 78.4473 2.81867 78.202 2.968L77.97 2.44C78.1353 2.33867 78.3113 2.256 78.498 2.192C78.6847 2.12267 78.8793 2.06933 79.082 2.032C79.2847 1.99467 79.4873 1.976 79.69 1.976C80.0313 1.976 80.3247 2.02933 80.57 2.136C80.8207 2.24267 81.0127 2.408 81.146 2.632C81.2847 2.856 81.354 3.14933 81.354 3.512V6H80.73V5.136C80.6553 5.30133 80.5513 5.456 80.418 5.6C80.2847 5.744 80.122 5.85867 79.93 5.944C79.7433 6.02933 79.5273 6.072 79.282 6.072ZM82.7827 6V2.048H83.4387V2.912C83.508 2.736 83.604 2.57867 83.7267 2.44C83.8547 2.296 84.0067 2.184 84.1827 2.104C84.364 2.01867 84.5614 1.976 84.7747 1.976C85.1214 1.976 85.4067 2.06133 85.6307 2.232C85.8547 2.40267 85.9934 2.62667 86.0467 2.904H86.0387C86.1454 2.64267 86.3134 2.424 86.5427 2.248C86.7774 2.06667 87.0707 1.976 87.4227 1.976C87.7214 1.976 87.9747 2.03467 88.1827 2.152C88.3907 2.264 88.548 2.43733 88.6547 2.672C88.7614 2.90667 88.8147 3.20267 88.8147 3.56V6H88.1107V3.608C88.1107 3.26667 88.0494 3.01067 87.9267 2.84C87.804 2.66933 87.5854 2.584 87.2707 2.584C87.036 2.584 86.8334 2.63733 86.6627 2.744C86.4974 2.84533 86.3694 2.98933 86.2787 3.176C86.1934 3.35733 86.1507 3.56267 86.1507 3.792V6H85.4467V3.608C85.4467 3.272 85.3774 3.01867 85.2387 2.848C85.1 2.672 84.8894 2.584 84.6067 2.584C84.3774 2.584 84.1774 2.64267 84.0067 2.76C83.8414 2.872 83.7134 3.01867 83.6227 3.2C83.532 3.38133 83.4867 3.57333 83.4867 3.776V6H82.7827ZM90.2433 7.44V2.04H90.8993V2.912C91.0166 2.61333 91.2006 2.384 91.4513 2.224C91.7073 2.05867 92.0059 1.976 92.3473 1.976C92.7153 1.976 93.0353 2.06133 93.3073 2.232C93.5793 2.40267 93.7899 2.64 93.9392 2.944C94.0886 3.248 94.1633 3.608 94.1633 4.024C94.1633 4.424 94.0886 4.77867 93.9392 5.088C93.7953 5.39733 93.5873 5.64 93.3153 5.816C93.0433 5.98667 92.7233 6.072 92.3553 6.072C92.0193 6.072 91.7286 5.992 91.4833 5.832C91.2433 5.66667 91.0673 5.448 90.9553 5.176V7.44H90.2433ZM92.1953 5.488C92.5846 5.488 92.8913 5.35733 93.1153 5.096C93.3393 4.82933 93.4513 4.46933 93.4513 4.016C93.4513 3.56267 93.3393 3.208 93.1153 2.952C92.8913 2.69067 92.5846 2.56 92.1953 2.56C91.8113 2.56 91.5073 2.69067 91.2833 2.952C91.0593 3.208 90.9473 3.56267 90.9473 4.016C90.9473 4.46933 91.0593 4.82933 91.2833 5.096C91.5073 5.35733 91.8113 5.488 92.1953 5.488ZM97.2488 6.072C96.8061 6.072 96.4221 5.992 96.0968 5.832C95.7768 5.66667 95.5315 5.432 95.3608 5.128C95.1901 4.81867 95.1048 4.45067 95.1048 4.024C95.1048 3.624 95.1848 3.272 95.3448 2.968C95.5048 2.65867 95.7315 2.416 96.0248 2.24C96.3181 2.064 96.6675 1.976 97.0728 1.976C97.4568 1.976 97.7821 2.05867 98.0488 2.224C98.3208 2.38933 98.5261 2.62133 98.6648 2.92C98.8088 3.21867 98.8808 3.57333 98.8808 3.984V4.216H95.6408V3.72H98.4168L98.2648 3.88C98.2648 3.44267 98.1608 3.10667 97.9528 2.872C97.7501 2.63733 97.4568 2.52 97.0728 2.52C96.8221 2.52 96.5981 2.57867 96.4008 2.696C96.2088 2.808 96.0595 2.968 95.9528 3.176C95.8461 3.384 95.7928 3.63733 95.7928 3.936V4.016C95.7928 4.336 95.8515 4.60533 95.9688 4.824C96.0861 5.04267 96.2541 5.208 96.4728 5.32C96.6915 5.432 96.9528 5.488 97.2568 5.488C97.4755 5.488 97.6968 5.45867 97.9208 5.4C98.1501 5.336 98.3635 5.224 98.5608 5.064L98.8008 5.576C98.5981 5.74667 98.3555 5.872 98.0728 5.952C97.7955 6.032 97.5208 6.072 97.2488 6.072ZM100.056 6V2.048H100.704V2.96H100.712C100.808 2.66667 100.976 2.43733 101.216 2.272C101.456 2.10133 101.749 2.00533 102.096 1.984L102.456 1.968L102.52 2.616L101.944 2.664C101.576 2.696 101.288 2.81867 101.08 3.032C100.872 3.24 100.768 3.50133 100.768 3.816V6H100.056ZM103.076 4.144V3.568H105.316V4.144H103.076ZM106.723 6V0.36H110.395V0.984H107.427V2.832H110.235V3.456H107.427V5.376H110.395V6H106.723ZM112.746 6L111.09 2.048H111.85L113.138 5.296H113.098L114.386 2.048H115.122L113.458 6H112.746ZM115.921 1.096V0.304H116.785V1.096H115.921ZM116.001 6V2.048H116.713V6H116.001ZM119.71 6.072C119.347 6.072 119.03 5.98667 118.758 5.816C118.486 5.64533 118.273 5.40533 118.118 5.096C117.969 4.78667 117.894 4.42933 117.894 4.024C117.894 3.61333 117.969 3.256 118.118 2.952C118.267 2.64267 118.478 2.40267 118.75 2.232C119.022 2.06133 119.339 1.976 119.702 1.976C120.043 1.976 120.334 2.056 120.574 2.216C120.819 2.376 120.995 2.59467 121.102 2.872V0.36H121.814V6H121.158V5.128C121.041 5.42667 120.857 5.65867 120.606 5.824C120.355 5.98933 120.057 6.072 119.71 6.072ZM119.862 5.488C120.251 5.488 120.555 5.35733 120.774 5.096C120.998 4.83467 121.11 4.47733 121.11 4.024C121.11 3.57067 120.998 3.21333 120.774 2.952C120.555 2.69067 120.251 2.56 119.862 2.56C119.478 2.56 119.171 2.69067 118.942 2.952C118.718 3.21333 118.606 3.57067 118.606 4.024C118.606 4.47733 118.718 4.83467 118.942 5.096C119.166 5.35733 119.473 5.488 119.862 5.488ZM125.139 6.072C124.697 6.072 124.313 5.992 123.987 5.832C123.667 5.66667 123.422 5.432 123.251 5.128C123.081 4.81867 122.995 4.45067 122.995 4.024C122.995 3.624 123.075 3.272 123.235 2.968C123.395 2.65867 123.622 2.416 123.915 2.24C124.209 2.064 124.558 1.976 124.963 1.976C125.347 1.976 125.673 2.05867 125.939 2.224C126.211 2.38933 126.417 2.62133 126.555 2.92C126.699 3.21867 126.771 3.57333 126.771 3.984V4.216H123.531V3.72H126.307L126.155 3.88C126.155 3.44267 126.051 3.10667 125.843 2.872C125.641 2.63733 125.347 2.52 124.963 2.52C124.713 2.52 124.489 2.57867 124.291 2.696C124.099 2.808 123.95 2.968 123.843 3.176C123.737 3.384 123.683 3.63733 123.683 3.936V4.016C123.683 4.336 123.742 4.60533 123.859 4.824C123.977 5.04267 124.145 5.208 124.363 5.32C124.582 5.432 124.843 5.488 125.147 5.488C125.366 5.488 125.587 5.45867 125.811 5.4C126.041 5.336 126.254 5.224 126.451 5.064L126.691 5.576C126.489 5.74667 126.246 5.872 125.963 5.952C125.686 6.032 125.411 6.072 125.139 6.072ZM127.946 6V2.048H128.61V2.904C128.738 2.61067 128.93 2.384 129.186 2.224C129.442 2.05867 129.73 1.976 130.05 1.976C130.376 1.976 130.648 2.03467 130.866 2.152C131.085 2.264 131.248 2.44 131.354 2.68C131.466 2.91467 131.522 3.208 131.522 3.56V6H130.81V3.6C130.81 3.38667 130.781 3.20533 130.722 3.056C130.664 2.90667 130.565 2.792 130.426 2.712C130.293 2.62667 130.114 2.584 129.89 2.584C129.656 2.584 129.442 2.63733 129.25 2.744C129.064 2.85067 128.917 2.99467 128.81 3.176C128.709 3.35733 128.658 3.56 128.658 3.784V6H127.946ZM134.595 6.072C134.12 6.072 133.76 5.94667 133.515 5.696C133.275 5.44533 133.155 5.088 133.155 4.624V2.632H132.355V2.048H133.179V0.872H133.867V2.048H135.283V2.632H133.867V4.56C133.867 4.864 133.933 5.09067 134.067 5.24C134.205 5.384 134.416 5.456 134.699 5.456C134.811 5.456 134.917 5.44533 135.019 5.424C135.125 5.40267 135.227 5.37067 135.323 5.328L135.435 5.888C135.328 5.94667 135.197 5.992 135.043 6.024C134.893 6.056 134.744 6.072 134.595 6.072ZM0.832 17V11.36H3.152C3.76 11.36 4.22933 11.4987 4.56 11.776C4.89067 12.0533 5.056 12.456 5.056 12.984C5.056 13.2827 4.99467 13.5413 4.872 13.76C4.75467 13.9787 4.58667 14.1547 4.368 14.288C4.14933 14.416 3.89333 14.4987 3.6 14.536L3.624 14.528L3.704 14.544C3.83733 14.5653 3.95733 14.6213 4.064 14.712C4.17067 14.8027 4.27467 14.944 4.376 15.136L5.368 17H4.584L3.64 15.232C3.56 15.0773 3.47467 14.96 3.384 14.88C3.29333 14.8 3.184 14.744 3.056 14.712C2.93333 14.68 2.784 14.664 2.608 14.664H1.544V17H0.832ZM1.544 14.072H3.104C3.53067 14.072 3.84267 13.984 4.04 13.808C4.23733 13.6267 4.336 13.3573 4.336 13C4.336 12.6427 4.232 12.3813 4.024 12.216C3.82133 12.0507 3.504 11.968 3.072 11.968H1.544V14.072ZM8.26444 17.072C7.82177 17.072 7.43777 16.992 7.11244 16.832C6.79244 16.6667 6.5471 16.432 6.37644 16.128C6.20577 15.8187 6.12044 15.4507 6.12044 15.024C6.12044 14.624 6.20044 14.272 6.36044 13.968C6.52044 13.6587 6.7471 13.416 7.04044 13.24C7.33377 13.064 7.6831 12.976 8.08844 12.976C8.47244 12.976 8.79777 13.0587 9.06444 13.224C9.33644 13.3893 9.54177 13.6213 9.68044 13.92C9.82444 14.2187 9.89644 14.5733 9.89644 14.984V15.216H6.65644V14.72H9.43244L9.28044 14.88C9.28044 14.4427 9.17644 14.1067 8.96844 13.872C8.76577 13.6373 8.47244 13.52 8.08844 13.52C7.83777 13.52 7.61377 13.5787 7.41644 13.696C7.22444 13.808 7.0751 13.968 6.96844 14.176C6.86177 14.384 6.80844 14.6373 6.80844 14.936V15.016C6.80844 15.336 6.8671 15.6053 6.98444 15.824C7.10177 16.0427 7.26977 16.208 7.48844 16.32C7.7071 16.432 7.96844 16.488 8.27244 16.488C8.4911 16.488 8.71244 16.4587 8.93644 16.4C9.16577 16.336 9.3791 16.224 9.57644 16.064L9.81644 16.576C9.61377 16.7467 9.3711 16.872 9.08844 16.952C8.8111 17.032 8.53644 17.072 8.26444 17.072ZM12.8314 17.072C12.426 17.072 12.074 16.9867 11.7754 16.816C11.4767 16.6453 11.2447 16.408 11.0794 16.104C10.914 15.7947 10.8314 15.432 10.8314 15.016C10.8314 14.6 10.914 14.24 11.0794 13.936C11.2447 13.6267 11.4767 13.3893 11.7754 13.224C12.0794 13.0587 12.434 12.976 12.8394 12.976C13.1114 12.976 13.37 13.0213 13.6154 13.112C13.8607 13.2027 14.0634 13.3253 14.2234 13.48L13.9754 14.008C13.8207 13.8693 13.6474 13.7653 13.4554 13.696C13.2634 13.6213 13.0767 13.584 12.8954 13.584C12.4794 13.584 12.1514 13.7093 11.9114 13.96C11.6714 14.2107 11.5514 14.5653 11.5514 15.024C11.5514 15.4773 11.6714 15.832 11.9114 16.088C12.1514 16.3387 12.4767 16.464 12.8874 16.464C13.074 16.464 13.2607 16.4293 13.4474 16.36C13.6394 16.2853 13.81 16.1813 13.9594 16.048L14.2074 16.576C14.0527 16.7307 13.8527 16.8533 13.6074 16.944C13.362 17.0293 13.1034 17.072 12.8314 17.072ZM16.7979 17.072C16.3232 17.072 15.9632 16.9467 15.7179 16.696C15.4779 16.4453 15.3579 16.088 15.3579 15.624V13.632H14.5579V13.048H15.3819V11.872H16.0699V13.048H17.4859V13.632H16.0699V15.56C16.0699 15.864 16.1365 16.0907 16.2699 16.24C16.4085 16.384 16.6192 16.456 16.9019 16.456C17.0139 16.456 17.1205 16.4453 17.2219 16.424C17.3285 16.4027 17.4299 16.3707 17.5259 16.328L17.6379 16.888C17.5312 16.9467 17.4005 16.992 17.2459 17.024C17.0965 17.056 16.9472 17.072 16.7979 17.072ZM19.7898 17.072C19.5071 17.072 19.2538 17.0213 19.0298 16.92C18.8058 16.8133 18.6298 16.6693 18.5018 16.488C18.3738 16.3067 18.3098 16.104 18.3098 15.88C18.3098 15.576 18.3951 15.3387 18.5658 15.168C18.7365 14.992 18.9978 14.8667 19.3498 14.792C19.7071 14.7173 20.1631 14.68 20.7178 14.68H21.2858V15.168H20.7498C20.4405 15.168 20.1765 15.1787 19.9578 15.2C19.7391 15.216 19.5605 15.2507 19.4218 15.304C19.2831 15.352 19.1818 15.4187 19.1178 15.504C19.0538 15.5893 19.0218 15.7013 19.0218 15.84C19.0218 16.0533 19.1045 16.2187 19.2698 16.336C19.4405 16.4533 19.6565 16.512 19.9178 16.512C20.1471 16.512 20.3551 16.4613 20.5418 16.36C20.7338 16.2533 20.8858 16.112 20.9978 15.936C21.1151 15.76 21.1738 15.5653 21.1738 15.352V14.448C21.1738 14.1333 21.0858 13.9067 20.9098 13.768C20.7338 13.624 20.4725 13.552 20.1258 13.552C19.8911 13.552 19.6565 13.584 19.4218 13.648C19.1925 13.712 18.9551 13.8187 18.7098 13.968L18.4778 13.44C18.6431 13.3387 18.8191 13.256 19.0058 13.192C19.1925 13.1227 19.3871 13.0693 19.5898 13.032C19.7925 12.9947 19.9951 12.976 20.1978 12.976C20.5391 12.976 20.8325 13.0293 21.0778 13.136C21.3285 13.2427 21.5205 13.408 21.6538 13.632C21.7925 13.856 21.8618 14.1493 21.8618 14.512V17H21.2378V16.136C21.1631 16.3013 21.0591 16.456 20.9258 16.6C20.7925 16.744 20.6298 16.8587 20.4378 16.944C20.2511 17.0293 20.0351 17.072 19.7898 17.072ZM23.2745 17V13.048H23.9385V13.904C24.0665 13.6107 24.2585 13.384 24.5145 13.224C24.7705 13.0587 25.0585 12.976 25.3785 12.976C25.7038 12.976 25.9758 13.0347 26.1945 13.152C26.4132 13.264 26.5758 13.44 26.6825 13.68C26.7945 13.9147 26.8505 14.208 26.8505 14.56V17H26.1385V14.6C26.1385 14.3867 26.1092 14.2053 26.0505 14.056C25.9918 13.9067 25.8932 13.792 25.7545 13.712C25.6212 13.6267 25.4425 13.584 25.2185 13.584C24.9838 13.584 24.7705 13.6373 24.5785 13.744C24.3918 13.8507 24.2452 13.9947 24.1385 14.176C24.0372 14.3573 23.9865 14.56 23.9865 14.784V17H23.2745ZM29.9709 18.512C29.6562 18.512 29.3442 18.464 29.0349 18.368C28.7255 18.2773 28.4615 18.152 28.2429 17.992L28.4669 17.44C28.6162 17.536 28.7735 17.6187 28.9389 17.688C29.1042 17.7627 29.2722 17.816 29.4429 17.848C29.6189 17.8853 29.7922 17.904 29.9629 17.904C30.3735 17.904 30.6935 17.8 30.9229 17.592C31.1575 17.384 31.2749 17.088 31.2749 16.704V15.976H31.2589C31.1629 16.248 30.9895 16.4693 30.7389 16.64C30.4882 16.8053 30.1975 16.888 29.8669 16.888C29.4935 16.888 29.1682 16.808 28.8909 16.648C28.6135 16.4827 28.3975 16.2533 28.2429 15.96C28.0935 15.6667 28.0189 15.3227 28.0189 14.928C28.0189 14.5387 28.0935 14.1973 28.2429 13.904C28.3975 13.6107 28.6135 13.384 28.8909 13.224C29.1682 13.0587 29.4935 12.976 29.8669 12.976C30.1975 12.976 30.4882 13.0613 30.7389 13.232C30.9949 13.4027 31.1709 13.6293 31.2669 13.912H31.2749V13.048H31.9389V16.64C31.9389 17.024 31.8589 17.3547 31.6989 17.632C31.5442 17.9147 31.3202 18.1307 31.0269 18.28C30.7335 18.4347 30.3815 18.512 29.9709 18.512ZM29.9869 16.304C30.3762 16.304 30.6829 16.1787 30.9069 15.928C31.1362 15.6773 31.2509 15.344 31.2509 14.928C31.2509 14.512 31.1362 14.1813 30.9069 13.936C30.6829 13.6853 30.3762 13.56 29.9869 13.56C29.6029 13.56 29.2962 13.6853 29.0669 13.936C28.8429 14.1813 28.7309 14.512 28.7309 14.928C28.7309 15.344 28.8429 15.6773 29.0669 15.928C29.2962 16.1787 29.6029 16.304 29.9869 16.304ZM34.8404 17.072C34.5151 17.072 34.2404 17.0133 34.0164 16.896C33.7924 16.7787 33.6244 16.6027 33.5124 16.368C33.4004 16.1333 33.3444 15.84 33.3444 15.488V13.048H34.0564V15.456C34.0564 15.6587 34.0858 15.8373 34.1444 15.992C34.2084 16.1413 34.3071 16.2587 34.4404 16.344C34.5791 16.424 34.7604 16.464 34.9844 16.464C35.2084 16.464 35.4111 16.4107 35.5924 16.304C35.7738 16.192 35.9151 16.048 36.0164 15.872C36.1178 15.6907 36.1684 15.4907 36.1684 15.272V13.048H36.8804V17H36.2244V16.128C36.0911 16.4213 35.9098 16.6533 35.6804 16.824C35.4511 16.9893 35.1711 17.072 34.8404 17.072ZM39.5058 17.072C39.1218 17.072 38.8258 16.96 38.6178 16.736C38.4098 16.512 38.3058 16.1973 38.3058 15.792V11.36H39.0178V15.72C39.0178 15.88 39.0418 16.0187 39.0898 16.136C39.1378 16.248 39.2071 16.3333 39.2978 16.392C39.3884 16.4507 39.4978 16.48 39.6258 16.48C39.7058 16.48 39.7804 16.4773 39.8498 16.472C39.9244 16.4613 39.9991 16.4453 40.0738 16.424L40.0898 16.984C39.9991 17.016 39.9058 17.0373 39.8098 17.048C39.7191 17.064 39.6178 17.072 39.5058 17.072ZM42.2117 17.072C41.929 17.072 41.6757 17.0213 41.4517 16.92C41.2277 16.8133 41.0517 16.6693 40.9237 16.488C40.7957 16.3067 40.7317 16.104 40.7317 15.88C40.7317 15.576 40.817 15.3387 40.9877 15.168C41.1584 14.992 41.4197 14.8667 41.7717 14.792C42.129 14.7173 42.585 14.68 43.1397 14.68H43.7077V15.168H43.1717C42.8624 15.168 42.5984 15.1787 42.3797 15.2C42.161 15.216 41.9824 15.2507 41.8437 15.304C41.705 15.352 41.6037 15.4187 41.5397 15.504C41.4757 15.5893 41.4437 15.7013 41.4437 15.84C41.4437 16.0533 41.5264 16.2187 41.6917 16.336C41.8624 16.4533 42.0784 16.512 42.3397 16.512C42.569 16.512 42.777 16.4613 42.9637 16.36C43.1557 16.2533 43.3077 16.112 43.4197 15.936C43.537 15.76 43.5957 15.5653 43.5957 15.352V14.448C43.5957 14.1333 43.5077 13.9067 43.3317 13.768C43.1557 13.624 42.8944 13.552 42.5477 13.552C42.313 13.552 42.0784 13.584 41.8437 13.648C41.6144 13.712 41.377 13.8187 41.1317 13.968L40.8997 13.44C41.065 13.3387 41.241 13.256 41.4277 13.192C41.6144 13.1227 41.809 13.0693 42.0117 13.032C42.2144 12.9947 42.417 12.976 42.6197 12.976C42.961 12.976 43.2544 13.0293 43.4997 13.136C43.7504 13.2427 43.9424 13.408 44.0757 13.632C44.2144 13.856 44.2837 14.1493 44.2837 14.512V17H43.6597V16.136C43.585 16.3013 43.481 16.456 43.3477 16.6C43.2144 16.744 43.0517 16.8587 42.8597 16.944C42.673 17.0293 42.457 17.072 42.2117 17.072ZM45.6964 17V13.048H46.3444V13.96H46.3524C46.4484 13.6667 46.6164 13.4373 46.8564 13.272C47.0964 13.1013 47.3897 13.0053 47.7364 12.984L48.0964 12.968L48.1604 13.616L47.5844 13.664C47.2164 13.696 46.9284 13.8187 46.7204 14.032C46.5124 14.24 46.4084 14.5013 46.4084 14.816V17H45.6964ZM53.8025 17.072C53.2638 17.072 52.7945 16.9573 52.3945 16.728C51.9998 16.4933 51.6958 16.16 51.4825 15.728C51.2692 15.2907 51.1625 14.7733 51.1625 14.176C51.1625 13.5787 51.2692 13.064 51.4825 12.632C51.6958 12.2 51.9998 11.8693 52.3945 11.64C52.7892 11.4053 53.2585 11.288 53.8025 11.288C54.1972 11.288 54.5572 11.3493 54.8825 11.472C55.2078 11.5893 55.4878 11.7627 55.7225 11.992L55.4425 12.552C55.1972 12.3333 54.9438 12.176 54.6825 12.08C54.4265 11.984 54.1385 11.936 53.8185 11.936C53.2212 11.936 52.7518 12.128 52.4105 12.512C52.0745 12.8907 51.9065 13.4453 51.9065 14.176C51.9065 14.9013 52.0745 15.4587 52.4105 15.848C52.7465 16.232 53.2158 16.424 53.8185 16.424C54.1385 16.424 54.4265 16.376 54.6825 16.28C54.9438 16.184 55.1972 16.0267 55.4425 15.808L55.7225 16.368C55.4878 16.5973 55.2078 16.7733 54.8825 16.896C54.5572 17.0133 54.1972 17.072 53.8025 17.072ZM58.3539 17.072C57.9539 17.072 57.6072 16.9867 57.3139 16.816C57.0205 16.6453 56.7939 16.408 56.6339 16.104C56.4739 15.7947 56.3939 15.432 56.3939 15.016C56.3939 14.6053 56.4739 14.248 56.6339 13.944C56.7939 13.6347 57.0205 13.3973 57.3139 13.232C57.6072 13.0613 57.9539 12.976 58.3539 12.976C58.7539 12.976 59.0979 13.0613 59.3859 13.232C59.6792 13.3973 59.9059 13.6347 60.0659 13.944C60.2259 14.248 60.3059 14.6053 60.3059 15.016C60.3059 15.432 60.2259 15.7947 60.0659 16.104C59.9112 16.408 59.6872 16.6453 59.3939 16.816C59.1005 16.9867 58.7539 17.072 58.3539 17.072ZM58.3459 16.472C58.7352 16.472 59.0419 16.3413 59.2659 16.08C59.4899 15.8187 59.6019 15.464 59.6019 15.016C59.6019 14.568 59.4899 14.216 59.2659 13.96C59.0472 13.704 58.7432 13.576 58.3539 13.576C57.9645 13.576 57.6579 13.704 57.4339 13.96C57.2099 14.216 57.0979 14.568 57.0979 15.016C57.0979 15.464 57.2099 15.8187 57.4339 16.08C57.6632 16.3413 57.9672 16.472 58.3459 16.472ZM61.5011 17V13.048H62.1651V13.904C62.2931 13.6107 62.4851 13.384 62.7411 13.224C62.9971 13.0587 63.2851 12.976 63.6051 12.976C63.9304 12.976 64.2024 13.0347 64.4211 13.152C64.6397 13.264 64.8024 13.44 64.9091 13.68C65.0211 13.9147 65.0771 14.208 65.0771 14.56V17H64.3651V14.6C64.3651 14.3867 64.3357 14.2053 64.2771 14.056C64.2184 13.9067 64.1197 13.792 63.9811 13.712C63.8477 13.6267 63.6691 13.584 63.4451 13.584C63.2104 13.584 62.9971 13.6373 62.8051 13.744C62.6184 13.8507 62.4717 13.9947 62.3651 14.176C62.2637 14.3573 62.2131 14.56 62.2131 14.784V17H61.5011ZM68.1494 17.072C67.6748 17.072 67.3148 16.9467 67.0694 16.696C66.8294 16.4453 66.7094 16.088 66.7094 15.624V13.632H65.9094V13.048H66.7334V11.872H67.4214V13.048H68.8374V13.632H67.4214V15.56C67.4214 15.864 67.4881 16.0907 67.6214 16.24C67.7601 16.384 67.9708 16.456 68.2534 16.456C68.3654 16.456 68.4721 16.4453 68.5734 16.424C68.6801 16.4027 68.7814 16.3707 68.8774 16.328L68.9894 16.888C68.8828 16.9467 68.7521 16.992 68.5974 17.024C68.4481 17.056 68.2988 17.072 68.1494 17.072ZM71.1414 17.072C70.8587 17.072 70.6054 17.0213 70.3814 16.92C70.1574 16.8133 69.9814 16.6693 69.8534 16.488C69.7254 16.3067 69.6614 16.104 69.6614 15.88C69.6614 15.576 69.7467 15.3387 69.9174 15.168C70.088 14.992 70.3494 14.8667 70.7014 14.792C71.0587 14.7173 71.5147 14.68 72.0694 14.68H72.6374V15.168H72.1014C71.792 15.168 71.528 15.1787 71.3094 15.2C71.0907 15.216 70.912 15.2507 70.7734 15.304C70.6347 15.352 70.5334 15.4187 70.4694 15.504C70.4054 15.5893 70.3734 15.7013 70.3734 15.84C70.3734 16.0533 70.456 16.2187 70.6214 16.336C70.792 16.4533 71.008 16.512 71.2694 16.512C71.4987 16.512 71.7067 16.4613 71.8934 16.36C72.0854 16.2533 72.2374 16.112 72.3494 15.936C72.4667 15.76 72.5254 15.5653 72.5254 15.352V14.448C72.5254 14.1333 72.4374 13.9067 72.2614 13.768C72.0854 13.624 71.824 13.552 71.4774 13.552C71.2427 13.552 71.008 13.584 70.7734 13.648C70.544 13.712 70.3067 13.8187 70.0614 13.968L69.8294 13.44C69.9947 13.3387 70.1707 13.256 70.3574 13.192C70.544 13.1227 70.7387 13.0693 70.9414 13.032C71.144 12.9947 71.3467 12.976 71.5494 12.976C71.8907 12.976 72.184 13.0293 72.4294 13.136C72.68 13.2427 72.872 13.408 73.0054 13.632C73.144 13.856 73.2134 14.1493 73.2134 14.512V17H72.5894V16.136C72.5147 16.3013 72.4107 16.456 72.2774 16.6C72.144 16.744 71.9814 16.8587 71.7894 16.944C71.6027 17.0293 71.3867 17.072 71.1414 17.072ZM74.5461 12.096V11.304H75.4101V12.096H74.5461ZM74.6261 17V13.048H75.3381V17H74.6261ZM76.7589 17V13.048H77.4229V13.904C77.5509 13.6107 77.7429 13.384 77.9989 13.224C78.2549 13.0587 78.5429 12.976 78.8629 12.976C79.1882 12.976 79.4602 13.0347 79.6789 13.152C79.8975 13.264 80.0602 13.44 80.1669 13.68C80.2789 13.9147 80.3349 14.208 80.3349 14.56V17H79.6229V14.6C79.6229 14.3867 79.5935 14.2053 79.5349 14.056C79.4762 13.9067 79.3775 13.792 79.2389 13.712C79.1055 13.6267 78.9269 13.584 78.7029 13.584C78.4682 13.584 78.2549 13.6373 78.0629 13.744C77.8762 13.8507 77.7295 13.9947 77.6229 14.176C77.5215 14.3573 77.4709 14.56 77.4709 14.784V17H76.7589ZM83.6473 17.072C83.2046 17.072 82.8206 16.992 82.4953 16.832C82.1753 16.6667 81.9299 16.432 81.7593 16.128C81.5886 15.8187 81.5033 15.4507 81.5033 15.024C81.5033 14.624 81.5833 14.272 81.7433 13.968C81.9033 13.6587 82.1299 13.416 82.4233 13.24C82.7166 13.064 83.0659 12.976 83.4713 12.976C83.8553 12.976 84.1806 13.0587 84.4473 13.224C84.7193 13.3893 84.9246 13.6213 85.0633 13.92C85.2073 14.2187 85.2793 14.5733 85.2793 14.984V15.216H82.0393V14.72H84.8153L84.6633 14.88C84.6633 14.4427 84.5593 14.1067 84.3513 13.872C84.1486 13.6373 83.8553 13.52 83.4713 13.52C83.2206 13.52 82.9966 13.5787 82.7993 13.696C82.6073 13.808 82.4579 13.968 82.3513 14.176C82.2446 14.384 82.1913 14.6373 82.1913 14.936V15.016C82.1913 15.336 82.2499 15.6053 82.3673 15.824C82.4846 16.0427 82.6526 16.208 82.8713 16.32C83.0899 16.432 83.3513 16.488 83.6553 16.488C83.8739 16.488 84.0953 16.4587 84.3193 16.4C84.5486 16.336 84.7619 16.224 84.9593 16.064L85.1993 16.576C84.9966 16.7467 84.7539 16.872 84.4713 16.952C84.1939 17.032 83.9193 17.072 83.6473 17.072ZM86.4542 17V13.048H87.1022V13.96H87.1102C87.2062 13.6667 87.3742 13.4373 87.6142 13.272C87.8542 13.1013 88.1475 13.0053 88.4942 12.984L88.8542 12.968L88.9182 13.616L88.3422 13.664C87.9742 13.696 87.6862 13.8187 87.4782 14.032C87.2702 14.24 87.1662 14.5013 87.1662 14.816V17H86.4542ZM89.9059 18.152L89.5459 17.872C89.6419 17.7813 89.7165 17.6773 89.7699 17.56C89.8285 17.448 89.8712 17.3307 89.8979 17.208C89.9245 17.0907 89.9405 16.9813 89.9459 16.88L90.0819 17H89.4979V16.12H90.4099V16.776C90.4099 16.9413 90.3939 17.1067 90.3619 17.272C90.3299 17.4373 90.2765 17.5947 90.2019 17.744C90.1272 17.8933 90.0285 18.0293 89.9059 18.152ZM96.4588 17.072C95.9201 17.072 95.4508 16.9573 95.0508 16.728C94.6561 16.4933 94.3521 16.16 94.1388 15.728C93.9254 15.2907 93.8188 14.7733 93.8188 14.176C93.8188 13.5787 93.9254 13.064 94.1388 12.632C94.3521 12.2 94.6561 11.8693 95.0508 11.64C95.4454 11.4053 95.9148 11.288 96.4588 11.288C96.8534 11.288 97.2134 11.3493 97.5388 11.472C97.8641 11.5893 98.1441 11.7627 98.3788 11.992L98.0988 12.552C97.8534 12.3333 97.6001 12.176 97.3388 12.08C97.0828 11.984 96.7948 11.936 96.4748 11.936C95.8774 11.936 95.4081 12.128 95.0668 12.512C94.7308 12.8907 94.5628 13.4453 94.5628 14.176C94.5628 14.9013 94.7308 15.4587 95.0668 15.848C95.4028 16.232 95.8721 16.424 96.4748 16.424C96.7948 16.424 97.0828 16.376 97.3388 16.28C97.6001 16.184 97.8534 16.0267 98.0988 15.808L98.3788 16.368C98.1441 16.5973 97.8641 16.7733 97.5388 16.896C97.2134 17.0133 96.8534 17.072 96.4588 17.072ZM99.5714 17V13.048H100.219V13.96H100.227C100.323 13.6667 100.491 13.4373 100.731 13.272C100.971 13.1013 101.265 13.0053 101.611 12.984L101.971 12.968L102.035 13.616L101.459 13.664C101.091 13.696 100.803 13.8187 100.595 14.032C100.387 14.24 100.283 14.5013 100.283 14.816V17H99.5714ZM103.637 18.44L104.389 16.744V17.248L102.613 13.048H103.373L104.661 16.304H104.621L105.909 13.048H106.653L104.389 18.44H103.637ZM108.902 17.072C108.684 17.072 108.468 17.0507 108.254 17.008C108.046 16.9707 107.852 16.9173 107.67 16.848C107.494 16.7733 107.342 16.6827 107.214 16.576L107.446 16.072C107.58 16.1733 107.726 16.256 107.886 16.32C108.052 16.384 108.22 16.432 108.39 16.464C108.566 16.4907 108.734 16.504 108.894 16.504C109.225 16.504 109.478 16.4533 109.654 16.352C109.836 16.2507 109.926 16.1093 109.926 15.928C109.926 15.7733 109.873 15.656 109.766 15.576C109.665 15.4907 109.494 15.4267 109.254 15.384L108.43 15.24C108.062 15.1707 107.785 15.0453 107.598 14.864C107.417 14.6827 107.326 14.4453 107.326 14.152C107.326 13.9173 107.39 13.712 107.518 13.536C107.652 13.36 107.841 13.224 108.086 13.128C108.332 13.0267 108.625 12.976 108.966 12.976C109.153 12.976 109.342 12.9947 109.534 13.032C109.732 13.0693 109.913 13.1253 110.078 13.2C110.249 13.2693 110.388 13.3573 110.494 13.464L110.254 13.968C110.148 13.8667 110.02 13.7867 109.87 13.728C109.726 13.664 109.574 13.6187 109.414 13.592C109.26 13.56 109.108 13.544 108.958 13.544C108.649 13.544 108.409 13.5973 108.238 13.704C108.068 13.8053 107.982 13.9493 107.982 14.136C107.982 14.2853 108.03 14.4027 108.126 14.488C108.228 14.5733 108.39 14.6373 108.614 14.68L109.414 14.824C109.809 14.8987 110.102 15.024 110.294 15.2C110.486 15.3707 110.582 15.608 110.582 15.912C110.582 16.1467 110.513 16.352 110.374 16.528C110.236 16.6987 110.041 16.832 109.79 16.928C109.54 17.024 109.244 17.072 108.902 17.072ZM113.384 17.072C112.909 17.072 112.549 16.9467 112.304 16.696C112.064 16.4453 111.944 16.088 111.944 15.624V13.632H111.144V13.048H111.968V11.872H112.656V13.048H114.072V13.632H112.656V15.56C112.656 15.864 112.722 16.0907 112.856 16.24C112.994 16.384 113.205 16.456 113.488 16.456C113.6 16.456 113.706 16.4453 113.808 16.424C113.914 16.4027 114.016 16.3707 114.112 16.328L114.224 16.888C114.117 16.9467 113.986 16.992 113.832 17.024C113.682 17.056 113.533 17.072 113.384 17.072ZM116.376 17.072C116.093 17.072 115.84 17.0213 115.616 16.92C115.392 16.8133 115.216 16.6693 115.088 16.488C114.96 16.3067 114.896 16.104 114.896 15.88C114.896 15.576 114.981 15.3387 115.152 15.168C115.322 14.992 115.584 14.8667 115.936 14.792C116.293 14.7173 116.749 14.68 117.304 14.68H117.872V15.168H117.336C117.026 15.168 116.762 15.1787 116.544 15.2C116.325 15.216 116.146 15.2507 116.008 15.304C115.869 15.352 115.768 15.4187 115.704 15.504C115.64 15.5893 115.608 15.7013 115.608 15.84C115.608 16.0533 115.69 16.2187 115.856 16.336C116.026 16.4533 116.242 16.512 116.504 16.512C116.733 16.512 116.941 16.4613 117.128 16.36C117.32 16.2533 117.472 16.112 117.584 15.936C117.701 15.76 117.76 15.5653 117.76 15.352V14.448C117.76 14.1333 117.672 13.9067 117.496 13.768C117.32 13.624 117.058 13.552 116.712 13.552C116.477 13.552 116.242 13.584 116.008 13.648C115.778 13.712 115.541 13.8187 115.296 13.968L115.064 13.44C115.229 13.3387 115.405 13.256 115.592 13.192C115.778 13.1227 115.973 13.0693 116.176 13.032C116.378 12.9947 116.581 12.976 116.784 12.976C117.125 12.976 117.418 13.0293 117.664 13.136C117.914 13.2427 118.106 13.408 118.24 13.632C118.378 13.856 118.448 14.1493 118.448 14.512V17H117.824V16.136C117.749 16.3013 117.645 16.456 117.512 16.6C117.378 16.744 117.216 16.8587 117.024 16.944C116.837 17.0293 116.621 17.072 116.376 17.072ZM121.06 17.072C120.676 17.072 120.38 16.96 120.172 16.736C119.964 16.512 119.86 16.1973 119.86 15.792V11.36H120.572V15.72C120.572 15.88 120.596 16.0187 120.644 16.136C120.692 16.248 120.762 16.3333 120.852 16.392C120.943 16.4507 121.052 16.48 121.18 16.48C121.26 16.48 121.335 16.4773 121.404 16.472C121.479 16.4613 121.554 16.4453 121.628 16.424L121.644 16.984C121.554 17.016 121.46 17.0373 121.364 17.048C121.274 17.064 121.172 17.072 121.06 17.072ZM127.209 17.072C126.67 17.072 126.201 16.9573 125.801 16.728C125.406 16.4933 125.102 16.16 124.889 15.728C124.675 15.2907 124.569 14.7733 124.569 14.176C124.569 13.5787 124.675 13.064 124.889 12.632C125.102 12.2 125.406 11.8693 125.801 11.64C126.195 11.4053 126.665 11.288 127.209 11.288C127.603 11.288 127.963 11.3493 128.289 11.472C128.614 11.5893 128.894 11.7627 129.129 11.992L128.849 12.552C128.603 12.3333 128.35 12.176 128.089 12.08C127.833 11.984 127.545 11.936 127.225 11.936C126.627 11.936 126.158 12.128 125.817 12.512C125.481 12.8907 125.313 13.4453 125.313 14.176C125.313 14.9013 125.481 15.4587 125.817 15.848C126.153 16.232 126.622 16.424 127.225 16.424C127.545 16.424 127.833 16.376 128.089 16.28C128.35 16.184 128.603 16.0267 128.849 15.808L129.129 16.368C128.894 16.5973 128.614 16.7733 128.289 16.896C127.963 17.0133 127.603 17.072 127.209 17.072ZM131.521 17.072C131.137 17.072 130.841 16.96 130.633 16.736C130.425 16.512 130.321 16.1973 130.321 15.792V11.36H131.033V15.72C131.033 15.88 131.057 16.0187 131.105 16.136C131.153 16.248 131.223 16.3333 131.313 16.392C131.404 16.4507 131.513 16.48 131.641 16.48C131.721 16.48 131.796 16.4773 131.865 16.472C131.94 16.4613 132.015 16.4453 132.089 16.424L132.105 16.984C132.015 17.016 131.921 17.0373 131.825 17.048C131.735 17.064 131.633 17.072 131.521 17.072ZM134.772 17.072C134.33 17.072 133.946 16.992 133.62 16.832C133.3 16.6667 133.055 16.432 132.884 16.128C132.714 15.8187 132.628 15.4507 132.628 15.024C132.628 14.624 132.708 14.272 132.868 13.968C133.028 13.6587 133.255 13.416 133.548 13.24C133.842 13.064 134.191 12.976 134.596 12.976C134.98 12.976 135.306 13.0587 135.572 13.224C135.844 13.3893 136.05 13.6213 136.188 13.92C136.332 14.2187 136.404 14.5733 136.404 14.984V15.216H133.164V14.72H135.94L135.788 14.88C135.788 14.4427 135.684 14.1067 135.476 13.872C135.274 13.6373 134.98 13.52 134.596 13.52C134.346 13.52 134.122 13.5787 133.924 13.696C133.732 13.808 133.583 13.968 133.476 14.176C133.37 14.384 133.316 14.6373 133.316 14.936V15.016C133.316 15.336 133.375 15.6053 133.492 15.824C133.61 16.0427 133.778 16.208 133.996 16.32C134.215 16.432 134.476 16.488 134.78 16.488C134.999 16.488 135.22 16.4587 135.444 16.4C135.674 16.336 135.887 16.224 136.084 16.064L136.324 16.576C136.122 16.7467 135.879 16.872 135.596 16.952C135.319 17.032 135.044 17.072 134.772 17.072ZM138.899 17.072C138.617 17.072 138.363 17.0213 138.139 16.92C137.915 16.8133 137.739 16.6693 137.611 16.488C137.483 16.3067 137.419 16.104 137.419 15.88C137.419 15.576 137.505 15.3387 137.675 15.168C137.846 14.992 138.107 14.8667 138.459 14.792C138.817 14.7173 139.273 14.68 139.827 14.68H140.395V15.168H139.859C139.55 15.168 139.286 15.1787 139.067 15.2C138.849 15.216 138.67 15.2507 138.531 15.304C138.393 15.352 138.291 15.4187 138.227 15.504C138.163 15.5893 138.131 15.7013 138.131 15.84C138.131 16.0533 138.214 16.2187 138.379 16.336C138.55 16.4533 138.766 16.512 139.027 16.512C139.257 16.512 139.465 16.4613 139.651 16.36C139.843 16.2533 139.995 16.112 140.107 15.936C140.225 15.76 140.283 15.5653 140.283 15.352V14.448C140.283 14.1333 140.195 13.9067 140.019 13.768C139.843 13.624 139.582 13.552 139.235 13.552C139.001 13.552 138.766 13.584 138.531 13.648C138.302 13.712 138.065 13.8187 137.819 13.968L137.587 13.44C137.753 13.3387 137.929 13.256 138.115 13.192C138.302 13.1227 138.497 13.0693 138.699 13.032C138.902 12.9947 139.105 12.976 139.307 12.976C139.649 12.976 139.942 13.0293 140.187 13.136C140.438 13.2427 140.63 13.408 140.763 13.632C140.902 13.856 140.971 14.1493 140.971 14.512V17H140.347V16.136C140.273 16.3013 140.169 16.456 140.035 16.6C139.902 16.744 139.739 16.8587 139.547 16.944C139.361 17.0293 139.145 17.072 138.899 17.072ZM142.384 17V13.048H143.032V13.96H143.04C143.136 13.6667 143.304 13.4373 143.544 13.272C143.784 13.1013 144.077 13.0053 144.424 12.984L144.784 12.968L144.848 13.616L144.272 13.664C143.904 13.696 143.616 13.8187 143.408 14.032C143.2 14.24 143.096 14.5013 143.096 14.816V17H142.384ZM145.836 18.152L145.476 17.872C145.572 17.7813 145.646 17.6773 145.7 17.56C145.758 17.448 145.801 17.3307 145.828 17.208C145.854 17.0907 145.87 16.9813 145.876 16.88L146.012 17H145.428V16.12H146.34V16.776C146.34 16.9413 146.324 17.1067 146.292 17.272C146.26 17.4373 146.206 17.5947 146.132 17.744C146.057 17.8933 145.958 18.0293 145.836 18.152ZM0.832 28V22.36H1.544V27.368H4.408V28H0.832ZM7.23319 28.072C6.79052 28.072 6.40652 27.992 6.08119 27.832C5.76119 27.6667 5.51585 27.432 5.34519 27.128C5.17452 26.8187 5.08919 26.4507 5.08919 26.024C5.08919 25.624 5.16919 25.272 5.32919 24.968C5.48919 24.6587 5.71585 24.416 6.00919 24.24C6.30252 24.064 6.65185 23.976 7.05719 23.976C7.44119 23.976 7.76652 24.0587 8.03319 24.224C8.30519 24.3893 8.51052 24.6213 8.64919 24.92C8.79319 25.2187 8.86519 25.5733 8.86519 25.984V26.216H5.62519V25.72H8.40119L8.24919 25.88C8.24919 25.4427 8.14519 25.1067 7.93719 24.872C7.73452 24.6373 7.44119 24.52 7.05719 24.52C6.80652 24.52 6.58252 24.5787 6.38519 24.696C6.19319 24.808 6.04385 24.968 5.93719 25.176C5.83052 25.384 5.77719 25.6373 5.77719 25.936V26.016C5.77719 26.336 5.83585 26.6053 5.95319 26.824C6.07052 27.0427 6.23852 27.208 6.45719 27.32C6.67585 27.432 6.93719 27.488 7.24119 27.488C7.45985 27.488 7.68119 27.4587 7.90519 27.4C8.13452 27.336 8.34785 27.224 8.54519 27.064L8.78519 27.576C8.58252 27.7467 8.33985 27.872 8.05719 27.952C7.77985 28.032 7.50519 28.072 7.23319 28.072ZM11.3601 28.072C11.0775 28.072 10.8241 28.0213 10.6001 27.92C10.3761 27.8133 10.2001 27.6693 10.0721 27.488C9.94413 27.3067 9.88013 27.104 9.88013 26.88C9.88013 26.576 9.96546 26.3387 10.1361 26.168C10.3068 25.992 10.5681 25.8667 10.9201 25.792C11.2775 25.7173 11.7335 25.68 12.2881 25.68H12.8561V26.168H12.3201C12.0108 26.168 11.7468 26.1787 11.5281 26.2C11.3095 26.216 11.1308 26.2507 10.9921 26.304C10.8535 26.352 10.7521 26.4187 10.6881 26.504C10.6241 26.5893 10.5921 26.7013 10.5921 26.84C10.5921 27.0533 10.6748 27.2187 10.8401 27.336C11.0108 27.4533 11.2268 27.512 11.4881 27.512C11.7175 27.512 11.9255 27.4613 12.1121 27.36C12.3041 27.2533 12.4561 27.112 12.5681 26.936C12.6855 26.76 12.7441 26.5653 12.7441 26.352V25.448C12.7441 25.1333 12.6561 24.9067 12.4801 24.768C12.3041 24.624 12.0428 24.552 11.6961 24.552C11.4615 24.552 11.2268 24.584 10.9921 24.648C10.7628 24.712 10.5255 24.8187 10.2801 24.968L10.0481 24.44C10.2135 24.3387 10.3895 24.256 10.5761 24.192C10.7628 24.1227 10.9575 24.0693 11.1601 24.032C11.3628 23.9947 11.5655 23.976 11.7681 23.976C12.1095 23.976 12.4028 24.0293 12.6481 24.136C12.8988 24.2427 13.0908 24.408 13.2241 24.632C13.3628 24.856 13.4321 25.1493 13.4321 25.512V28H12.8081V27.136C12.7335 27.3013 12.6295 27.456 12.4961 27.6C12.3628 27.744 12.2001 27.8587 12.0081 27.944C11.8215 28.0293 11.6055 28.072 11.3601 28.072ZM14.8448 28V22.36H15.5568V25.808H15.5888L17.3648 24.048H18.2448L16.1248 26.12L16.1408 25.808L18.4448 28H17.5408L15.5888 26.168H15.5568V28H14.8448ZM18.7791 26.144V25.568H21.0191V26.144H18.7791ZM22.4258 28V22.36H24.7458C25.3538 22.36 25.8231 22.4987 26.1538 22.776C26.4844 23.0533 26.6498 23.456 26.6498 23.984C26.6498 24.2827 26.5884 24.5413 26.4658 24.76C26.3484 24.9787 26.1804 25.1547 25.9618 25.288C25.7431 25.416 25.4871 25.4987 25.1938 25.536L25.2178 25.528L25.2978 25.544C25.4311 25.5653 25.5511 25.6213 25.6578 25.712C25.7644 25.8027 25.8684 25.944 25.9698 26.136L26.9618 28H26.1778L25.2338 26.232C25.1538 26.0773 25.0684 25.96 24.9778 25.88C24.8871 25.8 24.7778 25.744 24.6498 25.712C24.5271 25.68 24.3778 25.664 24.2018 25.664H23.1378V28H22.4258ZM23.1378 25.072H24.6978C25.1244 25.072 25.4364 24.984 25.6337 24.808C25.8311 24.6267 25.9298 24.3573 25.9298 24C25.9298 23.6427 25.8258 23.3813 25.6178 23.216C25.4151 23.0507 25.0978 22.968 24.6658 22.968H23.1378V25.072ZM29.8582 28.072C29.4155 28.072 29.0315 27.992 28.7062 27.832C28.3862 27.6667 28.1409 27.432 27.9702 27.128C27.7995 26.8187 27.7142 26.4507 27.7142 26.024C27.7142 25.624 27.7942 25.272 27.9542 24.968C28.1142 24.6587 28.3409 24.416 28.6342 24.24C28.9275 24.064 29.2769 23.976 29.6822 23.976C30.0662 23.976 30.3915 24.0587 30.6582 24.224C30.9302 24.3893 31.1355 24.6213 31.2742 24.92C31.4182 25.2187 31.4902 25.5733 31.4902 25.984V26.216H28.2502V25.72H31.0262L30.8742 25.88C30.8742 25.4427 30.7702 25.1067 30.5622 24.872C30.3595 24.6373 30.0662 24.52 29.6822 24.52C29.4315 24.52 29.2075 24.5787 29.0102 24.696C28.8182 24.808 28.6689 24.968 28.5622 25.176C28.4555 25.384 28.4022 25.6373 28.4022 25.936V26.016C28.4022 26.336 28.4609 26.6053 28.5782 26.824C28.6955 27.0427 28.8635 27.208 29.0822 27.32C29.3009 27.432 29.5622 27.488 29.8662 27.488C30.0849 27.488 30.3062 27.4587 30.5302 27.4C30.7595 27.336 30.9729 27.224 31.1702 27.064L31.4102 27.576C31.2075 27.7467 30.9649 27.872 30.6822 27.952C30.4049 28.032 30.1302 28.072 29.8582 28.072ZM34.1211 28.072C33.9025 28.072 33.6865 28.0507 33.4731 28.008C33.2651 27.9707 33.0705 27.9173 32.8891 27.848C32.7131 27.7733 32.5611 27.6827 32.4331 27.576L32.6651 27.072C32.7985 27.1733 32.9451 27.256 33.1051 27.32C33.2705 27.384 33.4385 27.432 33.6091 27.464C33.7851 27.4907 33.9531 27.504 34.1131 27.504C34.4438 27.504 34.6971 27.4533 34.8731 27.352C35.0545 27.2507 35.1451 27.1093 35.1451 26.928C35.1451 26.7733 35.0918 26.656 34.9851 26.576C34.8838 26.4907 34.7131 26.4267 34.4731 26.384L33.6491 26.24C33.2811 26.1707 33.0038 26.0453 32.8171 25.864C32.6358 25.6827 32.5451 25.4453 32.5451 25.152C32.5451 24.9173 32.6091 24.712 32.7371 24.536C32.8705 24.36 33.0598 24.224 33.3051 24.128C33.5505 24.0267 33.8438 23.976 34.1851 23.976C34.3718 23.976 34.5611 23.9947 34.7531 24.032C34.9505 24.0693 35.1318 24.1253 35.2971 24.2C35.4678 24.2693 35.6065 24.3573 35.7131 24.464L35.4731 24.968C35.3665 24.8667 35.2385 24.7867 35.0891 24.728C34.9451 24.664 34.7931 24.6187 34.6331 24.592C34.4785 24.56 34.3265 24.544 34.1771 24.544C33.8678 24.544 33.6278 24.5973 33.4571 24.704C33.2865 24.8053 33.2011 24.9493 33.2011 25.136C33.2011 25.2853 33.2491 25.4027 33.3451 25.488C33.4465 25.5733 33.6091 25.6373 33.8331 25.68L34.6331 25.824C35.0278 25.8987 35.3211 26.024 35.5131 26.2C35.7051 26.3707 35.8011 26.608 35.8011 26.912C35.8011 27.1467 35.7318 27.352 35.5931 27.528C35.4545 27.6987 35.2598 27.832 35.0091 27.928C34.7585 28.024 34.4625 28.072 34.1211 28.072ZM36.8976 23.096V22.304H37.7616V23.096H36.8976ZM36.9776 28V24.048H37.6896V28H36.9776ZM40.5664 28.072C40.3478 28.072 40.1318 28.0507 39.9184 28.008C39.7104 27.9707 39.5158 27.9173 39.3344 27.848C39.1584 27.7733 39.0064 27.6827 38.8784 27.576L39.1104 27.072C39.2438 27.1733 39.3904 27.256 39.5504 27.32C39.7158 27.384 39.8838 27.432 40.0544 27.464C40.2304 27.4907 40.3984 27.504 40.5584 27.504C40.8891 27.504 41.1424 27.4533 41.3184 27.352C41.4998 27.2507 41.5904 27.1093 41.5904 26.928C41.5904 26.7733 41.5371 26.656 41.4304 26.576C41.3291 26.4907 41.1584 26.4267 40.9184 26.384L40.0944 26.24C39.7264 26.1707 39.4491 26.0453 39.2624 25.864C39.0811 25.6827 38.9904 25.4453 38.9904 25.152C38.9904 24.9173 39.0544 24.712 39.1824 24.536C39.3158 24.36 39.5051 24.224 39.7504 24.128C39.9958 24.0267 40.2891 23.976 40.6304 23.976C40.8171 23.976 41.0064 23.9947 41.1984 24.032C41.3958 24.0693 41.5771 24.1253 41.7424 24.2C41.9131 24.2693 42.0518 24.3573 42.1584 24.464L41.9184 24.968C41.8118 24.8667 41.6838 24.7867 41.5344 24.728C41.3904 24.664 41.2384 24.6187 41.0784 24.592C40.9238 24.56 40.7718 24.544 40.6224 24.544C40.3131 24.544 40.0731 24.5973 39.9024 24.704C39.7318 24.8053 39.6464 24.9493 39.6464 25.136C39.6464 25.2853 39.6944 25.4027 39.7904 25.488C39.8918 25.5733 40.0544 25.6373 40.2784 25.68L41.0784 25.824C41.4731 25.8987 41.7664 26.024 41.9584 26.2C42.1504 26.3707 42.2464 26.608 42.2464 26.912C42.2464 27.1467 42.1771 27.352 42.0384 27.528C41.8998 27.6987 41.7051 27.832 41.4544 27.928C41.2038 28.024 40.9078 28.072 40.5664 28.072ZM45.0479 28.072C44.5732 28.072 44.2132 27.9467 43.9679 27.696C43.7279 27.4453 43.6079 27.088 43.6079 26.624V24.632H42.8079V24.048H43.6319V22.872H44.3199V24.048H45.7359V24.632H44.3199V26.56C44.3199 26.864 44.3865 27.0907 44.5199 27.24C44.6585 27.384 44.8692 27.456 45.1519 27.456C45.2639 27.456 45.3705 27.4453 45.4719 27.424C45.5785 27.4027 45.6799 27.3707 45.7759 27.328L45.8879 27.888C45.7812 27.9467 45.6505 27.992 45.4959 28.024C45.3465 28.056 45.1972 28.072 45.0479 28.072ZM48.0398 28.072C47.7571 28.072 47.5038 28.0213 47.2798 27.92C47.0558 27.8133 46.8798 27.6693 46.7518 27.488C46.6238 27.3067 46.5598 27.104 46.5598 26.88C46.5598 26.576 46.6451 26.3387 46.8158 26.168C46.9865 25.992 47.2478 25.8667 47.5998 25.792C47.9571 25.7173 48.4131 25.68 48.9678 25.68H49.5358V26.168H48.9998C48.6905 26.168 48.4265 26.1787 48.2078 26.2C47.9891 26.216 47.8105 26.2507 47.6718 26.304C47.5331 26.352 47.4318 26.4187 47.3678 26.504C47.3038 26.5893 47.2718 26.7013 47.2718 26.84C47.2718 27.0533 47.3545 27.2187 47.5198 27.336C47.6905 27.4533 47.9065 27.512 48.1678 27.512C48.3971 27.512 48.6051 27.4613 48.7918 27.36C48.9838 27.2533 49.1358 27.112 49.2478 26.936C49.3651 26.76 49.4238 26.5653 49.4238 26.352V25.448C49.4238 25.1333 49.3358 24.9067 49.1598 24.768C48.9838 24.624 48.7225 24.552 48.3758 24.552C48.1411 24.552 47.9065 24.584 47.6718 24.648C47.4425 24.712 47.2051 24.8187 46.9598 24.968L46.7278 24.44C46.8931 24.3387 47.0691 24.256 47.2558 24.192C47.4425 24.1227 47.6371 24.0693 47.8398 24.032C48.0425 23.9947 48.2451 23.976 48.4478 23.976C48.7891 23.976 49.0825 24.0293 49.3278 24.136C49.5785 24.2427 49.7705 24.408 49.9038 24.632C50.0425 24.856 50.1118 25.1493 50.1118 25.512V28H49.4878V27.136C49.4131 27.3013 49.3091 27.456 49.1758 27.6C49.0425 27.744 48.8798 27.8587 48.6878 27.944C48.5011 28.0293 48.2851 28.072 48.0398 28.072ZM51.5245 28V24.048H52.1885V24.904C52.3165 24.6107 52.5085 24.384 52.7645 24.224C53.0205 24.0587 53.3085 23.976 53.6285 23.976C53.9538 23.976 54.2258 24.0347 54.4445 24.152C54.6632 24.264 54.8258 24.44 54.9325 24.68C55.0445 24.9147 55.1005 25.208 55.1005 25.56V28H54.3885V25.6C54.3885 25.3867 54.3592 25.2053 54.3005 25.056C54.2418 24.9067 54.1432 24.792 54.0045 24.712C53.8712 24.6267 53.6925 24.584 53.4685 24.584C53.2338 24.584 53.0205 24.6373 52.8285 24.744C52.6418 24.8507 52.4952 24.9947 52.3885 25.176C52.2872 25.3573 52.2365 25.56 52.2365 25.784V28H51.5245ZM58.1729 28.072C57.6982 28.072 57.3382 27.9467 57.0929 27.696C56.8529 27.4453 56.7329 27.088 56.7329 26.624V24.632H55.9329V24.048H56.7569V22.872H57.4449V24.048H58.8609V24.632H57.4449V26.56C57.4449 26.864 57.5115 27.0907 57.6449 27.24C57.7835 27.384 57.9942 27.456 58.2769 27.456C58.3889 27.456 58.4955 27.4453 58.5969 27.424C58.7035 27.4027 58.8049 27.3707 58.9009 27.328L59.0129 27.888C58.9062 27.9467 58.7755 27.992 58.6209 28.024C58.4715 28.056 58.3222 28.072 58.1729 28.072ZM60.2262 29.152L59.8662 28.872C59.9622 28.7813 60.0369 28.6773 60.0902 28.56C60.1489 28.448 60.1915 28.3307 60.2182 28.208C60.2449 28.0907 60.2609 27.9813 60.2662 27.88L60.4022 28H59.8182V27.12H60.7302V27.776C60.7302 27.9413 60.7142 28.1067 60.6822 28.272C60.6502 28.4373 60.5969 28.5947 60.5222 28.744C60.4475 28.8933 60.3489 29.0293 60.2262 29.152ZM64.3871 28V22.36H65.1791L67.2111 26.384H67.1631L69.1791 22.36H69.9711V28H69.2911V23.368H69.3231L67.4431 27.104H66.9231L65.0271 23.368H65.0671V28H64.3871ZM71.4523 23.096V22.304H72.3163V23.096H71.4523ZM71.5323 28V24.048H72.2443V28H71.5323ZM75.4251 28.072C75.0198 28.072 74.6678 27.9867 74.3691 27.816C74.0705 27.6453 73.8385 27.408 73.6731 27.104C73.5078 26.7947 73.4251 26.432 73.4251 26.016C73.4251 25.6 73.5078 25.24 73.6731 24.936C73.8385 24.6267 74.0705 24.3893 74.3691 24.224C74.6731 24.0587 75.0278 23.976 75.4331 23.976C75.7051 23.976 75.9638 24.0213 76.2091 24.112C76.4545 24.2027 76.6571 24.3253 76.8171 24.48L76.5691 25.008C76.4145 24.8693 76.2411 24.7653 76.0491 24.696C75.8571 24.6213 75.6705 24.584 75.4891 24.584C75.0731 24.584 74.7451 24.7093 74.5051 24.96C74.2651 25.2107 74.1451 25.5653 74.1451 26.024C74.1451 26.4773 74.2651 26.832 74.5051 27.088C74.7451 27.3387 75.0705 27.464 75.4811 27.464C75.6678 27.464 75.8545 27.4293 76.0411 27.36C76.2331 27.2853 76.4038 27.1813 76.5531 27.048L76.8011 27.576C76.6465 27.7307 76.4465 27.8533 76.2011 27.944C75.9558 28.0293 75.6971 28.072 75.4251 28.072ZM77.7276 28V24.048H78.3756V24.96H78.3836C78.4796 24.6667 78.6476 24.4373 78.8876 24.272C79.1276 24.1013 79.421 24.0053 79.7676 23.984L80.1276 23.968L80.1916 24.616L79.6156 24.664C79.2476 24.696 78.9596 24.8187 78.7516 25.032C78.5436 25.24 78.4396 25.5013 78.4396 25.816V28H77.7276ZM82.7445 28.072C82.3445 28.072 81.9978 27.9867 81.7045 27.816C81.4112 27.6453 81.1845 27.408 81.0245 27.104C80.8645 26.7947 80.7845 26.432 80.7845 26.016C80.7845 25.6053 80.8645 25.248 81.0245 24.944C81.1845 24.6347 81.4112 24.3973 81.7045 24.232C81.9978 24.0613 82.3445 23.976 82.7445 23.976C83.1445 23.976 83.4885 24.0613 83.7765 24.232C84.0698 24.3973 84.2965 24.6347 84.4565 24.944C84.6165 25.248 84.6965 25.6053 84.6965 26.016C84.6965 26.432 84.6165 26.7947 84.4565 27.104C84.3018 27.408 84.0778 27.6453 83.7845 27.816C83.4912 27.9867 83.1445 28.072 82.7445 28.072ZM82.7365 27.472C83.1258 27.472 83.4325 27.3413 83.6565 27.08C83.8805 26.8187 83.9925 26.464 83.9925 26.016C83.9925 25.568 83.8805 25.216 83.6565 24.96C83.4378 24.704 83.1338 24.576 82.7445 24.576C82.3552 24.576 82.0485 24.704 81.8245 24.96C81.6005 25.216 81.4885 25.568 81.4885 26.016C81.4885 26.464 81.6005 26.8187 81.8245 27.08C82.0538 27.3413 82.3578 27.472 82.7365 27.472ZM86.733 28L85.357 24.048H86.077L87.133 27.264H87.093L88.269 24.048H88.885L90.045 27.264H90.005L91.077 24.048H91.781L90.397 28H89.733L88.525 24.736H88.613L87.405 28H86.733ZM93.9773 28.072C93.6946 28.072 93.4413 28.0213 93.2173 27.92C92.9933 27.8133 92.8173 27.6693 92.6893 27.488C92.5613 27.3067 92.4973 27.104 92.4973 26.88C92.4973 26.576 92.5826 26.3387 92.7533 26.168C92.924 25.992 93.1853 25.8667 93.5373 25.792C93.8946 25.7173 94.3506 25.68 94.9053 25.68H95.4733V26.168H94.9373C94.628 26.168 94.364 26.1787 94.1453 26.2C93.9266 26.216 93.748 26.2507 93.6093 26.304C93.4706 26.352 93.3693 26.4187 93.3053 26.504C93.2413 26.5893 93.2093 26.7013 93.2093 26.84C93.2093 27.0533 93.292 27.2187 93.4573 27.336C93.628 27.4533 93.844 27.512 94.1053 27.512C94.3346 27.512 94.5426 27.4613 94.7293 27.36C94.9213 27.2533 95.0733 27.112 95.1853 26.936C95.3026 26.76 95.3613 26.5653 95.3613 26.352V25.448C95.3613 25.1333 95.2733 24.9067 95.0973 24.768C94.9213 24.624 94.66 24.552 94.3133 24.552C94.0786 24.552 93.844 24.584 93.6093 24.648C93.38 24.712 93.1426 24.8187 92.8973 24.968L92.6653 24.44C92.8306 24.3387 93.0066 24.256 93.1933 24.192C93.38 24.1227 93.5746 24.0693 93.7773 24.032C93.98 23.9947 94.1826 23.976 94.3853 23.976C94.7266 23.976 95.02 24.0293 95.2653 24.136C95.516 24.2427 95.708 24.408 95.8413 24.632C95.98 24.856 96.0493 25.1493 96.0493 25.512V28H95.4253V27.136C95.3506 27.3013 95.2466 27.456 95.1133 27.6C94.98 27.744 94.8173 27.8587 94.6253 27.944C94.4386 28.0293 94.2226 28.072 93.9773 28.072ZM98.5349 28L96.8789 24.048H97.6389L98.9269 27.296H98.8869L100.175 24.048H100.911L99.2469 28H98.5349ZM103.639 28.072C103.197 28.072 102.813 27.992 102.487 27.832C102.167 27.6667 101.922 27.432 101.751 27.128C101.581 26.8187 101.495 26.4507 101.495 26.024C101.495 25.624 101.575 25.272 101.735 24.968C101.895 24.6587 102.122 24.416 102.415 24.24C102.709 24.064 103.058 23.976 103.463 23.976C103.847 23.976 104.173 24.0587 104.439 24.224C104.711 24.3893 104.917 24.6213 105.055 24.92C105.199 25.2187 105.271 25.5733 105.271 25.984V26.216H102.031V25.72H104.807L104.655 25.88C104.655 25.4427 104.551 25.1067 104.343 24.872C104.141 24.6373 103.847 24.52 103.463 24.52C103.213 24.52 102.989 24.5787 102.791 24.696C102.599 24.808 102.45 24.968 102.343 25.176C102.237 25.384 102.183 25.6373 102.183 25.936V26.016C102.183 26.336 102.242 26.6053 102.359 26.824C102.477 27.0427 102.645 27.208 102.863 27.32C103.082 27.432 103.343 27.488 103.647 27.488C103.866 27.488 104.087 27.4587 104.311 27.4C104.541 27.336 104.754 27.224 104.951 27.064L105.191 27.576C104.989 27.7467 104.746 27.872 104.463 27.952C104.186 28.032 103.911 28.072 103.639 28.072Z" fill="black"/>
</svg>
