<svg width="148" height="30" viewBox="0 0 148 30" fill="none" xmlns="http://www.w3.org/2000/svg">
<rect x="14.1859" y="0.254237" width="133.56" height="29.4499" rx="1.77966" fill="white" stroke="#CE3439" stroke-width="0.508475"/>
<path d="M36.0254 18.7852L34.2174 13.1452H34.9694L36.4414 17.9292H36.3694L38.0094 13.1452H38.5934L40.2174 17.9292H40.1614L41.6494 13.1452H42.3694L40.5534 18.7852H39.8734L38.2814 14.1292H38.3134L36.6894 18.7852H36.0254ZM44.8797 18.8572C44.437 18.8572 44.053 18.7772 43.7277 18.6172C43.4077 18.4518 43.1623 18.2172 42.9917 17.9132C42.821 17.6038 42.7357 17.2358 42.7357 16.8092C42.7357 16.4092 42.8157 16.0572 42.9757 15.7532C43.1357 15.4438 43.3623 15.2012 43.6557 15.0252C43.949 14.8492 44.2983 14.7612 44.7037 14.7612C45.0877 14.7612 45.413 14.8438 45.6797 15.0092C45.9517 15.1745 46.157 15.4065 46.2957 15.7052C46.4397 16.0038 46.5117 16.3585 46.5117 16.7692V17.0012H43.2717V16.5052H46.0477L45.8957 16.6652C45.8957 16.2278 45.7917 15.8918 45.5837 15.6572C45.381 15.4225 45.0877 15.3052 44.7037 15.3052C44.453 15.3052 44.229 15.3638 44.0317 15.4812C43.8397 15.5932 43.6903 15.7532 43.5837 15.9612C43.477 16.1692 43.4237 16.4225 43.4237 16.7212V16.8012C43.4237 17.1212 43.4823 17.3905 43.5997 17.6092C43.717 17.8278 43.885 17.9932 44.1037 18.1052C44.3223 18.2172 44.5837 18.2732 44.8877 18.2732C45.1063 18.2732 45.3277 18.2438 45.5517 18.1852C45.781 18.1212 45.9943 18.0092 46.1917 17.8492L46.4317 18.3612C46.229 18.5318 45.9863 18.6572 45.7037 18.7372C45.4263 18.8172 45.1517 18.8572 44.8797 18.8572ZM47.6066 13.8812V13.0892H48.4706V13.8812H47.6066ZM47.6866 18.7852V14.8332H48.3986V18.7852H47.6866ZM51.5314 20.2972C51.2168 20.2972 50.9048 20.2492 50.5954 20.1532C50.2861 20.0625 50.0221 19.9372 49.8034 19.7772L50.0274 19.2252C50.1768 19.3212 50.3341 19.4038 50.4994 19.4732C50.6648 19.5478 50.8328 19.6012 51.0034 19.6332C51.1794 19.6705 51.3528 19.6892 51.5234 19.6892C51.9341 19.6892 52.2541 19.5852 52.4834 19.3772C52.7181 19.1692 52.8354 18.8732 52.8354 18.4892V17.7612H52.8194C52.7234 18.0332 52.5501 18.2545 52.2994 18.4252C52.0488 18.5905 51.7581 18.6732 51.4274 18.6732C51.0541 18.6732 50.7288 18.5932 50.4514 18.4332C50.1741 18.2678 49.9581 18.0385 49.8034 17.7452C49.6541 17.4518 49.5794 17.1078 49.5794 16.7132C49.5794 16.3238 49.6541 15.9825 49.8034 15.6892C49.9581 15.3958 50.1741 15.1692 50.4514 15.0092C50.7288 14.8438 51.0541 14.7612 51.4274 14.7612C51.7581 14.7612 52.0488 14.8465 52.2994 15.0172C52.5554 15.1878 52.7314 15.4145 52.8274 15.6972H52.8354V14.8332H53.4994V18.4252C53.4994 18.8092 53.4194 19.1398 53.2594 19.4172C53.1048 19.6998 52.8808 19.9158 52.5874 20.0652C52.2941 20.2198 51.9421 20.2972 51.5314 20.2972ZM51.5474 18.0892C51.9368 18.0892 52.2434 17.9638 52.4674 17.7132C52.6968 17.4625 52.8114 17.1292 52.8114 16.7132C52.8114 16.2972 52.6968 15.9665 52.4674 15.7212C52.2434 15.4705 51.9368 15.3452 51.5474 15.3452C51.1634 15.3452 50.8568 15.4705 50.6274 15.7212C50.4034 15.9665 50.2914 16.2972 50.2914 16.7132C50.2914 17.1292 50.4034 17.4625 50.6274 17.7132C50.8568 17.9638 51.1634 18.0892 51.5474 18.0892ZM54.921 18.7852V13.1452H55.609V15.6732C55.7263 15.3905 55.9103 15.1692 56.161 15.0092C56.417 14.8438 56.705 14.7612 57.025 14.7612C57.3503 14.7612 57.6223 14.8198 57.841 14.9372C58.0597 15.0492 58.2223 15.2252 58.329 15.4652C58.441 15.6998 58.497 15.9932 58.497 16.3452V18.7852H57.785V16.3852C57.785 16.1718 57.753 15.9905 57.689 15.8412C57.6303 15.6918 57.5343 15.5772 57.401 15.4972C57.2677 15.4118 57.089 15.3692 56.865 15.3692C56.6303 15.3692 56.4197 15.4225 56.233 15.5292C56.0463 15.6358 55.8997 15.7798 55.793 15.9612C55.6863 16.1425 55.633 16.3452 55.633 16.5692V18.7852H54.921ZM61.5694 18.8572C61.0947 18.8572 60.7347 18.7318 60.4894 18.4812C60.2494 18.2305 60.1294 17.8732 60.1294 17.4092V15.4172H59.3294V14.8332H60.1534V13.6572H60.8414V14.8332H62.2574V15.4172H60.8414V17.3452C60.8414 17.6492 60.908 17.8758 61.0414 18.0252C61.18 18.1692 61.3907 18.2412 61.6734 18.2412C61.7854 18.2412 61.892 18.2305 61.9934 18.2092C62.1 18.1878 62.2014 18.1558 62.2974 18.1132L62.4094 18.6732C62.3027 18.7318 62.172 18.7772 62.0174 18.8092C61.868 18.8412 61.7187 18.8572 61.5694 18.8572Z" fill="#CE3439"/>
<path d="M81.0148 18.7852V17.6172H78.3828V17.0812L80.9828 13.1452H81.6948V17.0172H82.4788V17.6172H81.6948V18.7852H81.0148ZM81.0388 17.0172V14.0252H81.0708L79.0068 17.1532L78.9508 17.0172H81.0388ZM83.4997 18.7852V18.1772H85.0437V13.7132L85.4197 13.7692L83.7797 14.8252L83.4597 14.2732L85.2277 13.1452H85.7477V18.1772H87.1717V18.7852H83.4997ZM88.1365 18.7852V17.9052H89.0485V18.7852H88.1365ZM92.023 18.8572C91.591 18.8572 91.2257 18.7478 90.927 18.5292C90.6284 18.3052 90.4017 17.9798 90.247 17.5532C90.0977 17.1212 90.023 16.5905 90.023 15.9612C90.023 15.3318 90.0977 14.8038 90.247 14.3772C90.4017 13.9505 90.6284 13.6278 90.927 13.4092C91.2257 13.1852 91.591 13.0732 92.023 13.0732C92.4657 13.0732 92.8337 13.1825 93.127 13.4012C93.4204 13.6198 93.6417 13.9425 93.791 14.3692C93.9457 14.7958 94.023 15.3238 94.023 15.9532C94.023 16.5825 93.9457 17.1132 93.791 17.5452C93.6417 17.9772 93.4177 18.3052 93.119 18.5292C92.8204 18.7478 92.455 18.8572 92.023 18.8572ZM92.023 18.2332C92.4604 18.2332 92.7857 18.0492 92.999 17.6812C93.2124 17.3132 93.319 16.7372 93.319 15.9532C93.319 15.1745 93.2124 14.6038 92.999 14.2412C92.791 13.8785 92.4684 13.6972 92.031 13.6972C91.5884 13.6972 91.2604 13.8812 91.047 14.2492C90.8337 14.6118 90.727 15.1825 90.727 15.9612C90.727 16.7345 90.8337 17.3078 91.047 17.6812C91.2604 18.0492 91.5857 18.2332 92.023 18.2332ZM95.3159 18.7852L98.0759 13.4332L98.1079 13.7772H94.9319V13.1452H98.6999V13.6812L96.0919 18.7852H95.3159ZM103.339 20.3212C102.961 19.7452 102.681 19.1585 102.499 18.5612C102.323 17.9585 102.235 17.3318 102.235 16.6812C102.235 16.0305 102.323 15.4065 102.499 14.8092C102.681 14.2118 102.961 13.6225 103.339 13.0412L103.851 13.2252C103.649 13.6038 103.481 13.9852 103.347 14.3692C103.214 14.7532 103.113 15.1372 103.043 15.5212C102.979 15.8998 102.947 16.2865 102.947 16.6812C102.947 17.0705 102.979 17.4572 103.043 17.8412C103.113 18.2252 103.214 18.6065 103.347 18.9852C103.481 19.3692 103.649 19.7532 103.851 20.1372L103.339 20.3212ZM107.46 18.8572C106.874 18.8572 106.372 18.7425 105.956 18.5132C105.54 18.2838 105.22 17.9558 104.996 17.5292C104.778 17.0972 104.668 16.5745 104.668 15.9612C104.668 15.3585 104.775 14.8438 104.988 14.4172C105.207 13.9852 105.519 13.6545 105.924 13.4252C106.33 13.1905 106.815 13.0732 107.38 13.0732C107.658 13.0732 107.922 13.0998 108.172 13.1532C108.423 13.2065 108.655 13.2865 108.868 13.3932C109.082 13.4945 109.263 13.6225 109.412 13.7772L109.14 14.3292C108.89 14.1105 108.62 13.9558 108.332 13.8652C108.044 13.7692 107.724 13.7212 107.372 13.7212C106.754 13.7212 106.271 13.9132 105.924 14.2972C105.583 14.6758 105.412 15.2305 105.412 15.9612C105.412 16.7185 105.588 17.2865 105.94 17.6652C106.298 18.0385 106.815 18.2252 107.492 18.2252C107.791 18.2252 108.068 18.2012 108.324 18.1532C108.586 18.1052 108.823 18.0358 109.036 17.9452L108.828 18.3612V16.4012H107.42V15.7932H109.476V18.4572C109.327 18.5318 109.14 18.6012 108.916 18.6652C108.692 18.7238 108.455 18.7692 108.204 18.8012C107.954 18.8385 107.706 18.8572 107.46 18.8572ZM110.952 18.7852V14.8332H111.6V15.7452H111.608C111.704 15.4518 111.872 15.2225 112.112 15.0572C112.352 14.8865 112.646 14.7905 112.992 14.7692L113.352 14.7532L113.416 15.4012L112.84 15.4492C112.472 15.4812 112.184 15.6038 111.976 15.8172C111.768 16.0252 111.664 16.2865 111.664 16.6012V18.7852H110.952ZM114.312 18.7852V14.8332H114.968V15.6972C115.037 15.5212 115.133 15.3638 115.256 15.2252C115.384 15.0812 115.536 14.9692 115.712 14.8892C115.893 14.8038 116.091 14.7612 116.304 14.7612C116.651 14.7612 116.936 14.8465 117.16 15.0172C117.384 15.1878 117.523 15.4118 117.576 15.6892H117.568C117.675 15.4278 117.843 15.2092 118.072 15.0332C118.307 14.8518 118.6 14.7612 118.952 14.7612C119.251 14.7612 119.504 14.8198 119.712 14.9372C119.92 15.0492 120.077 15.2225 120.184 15.4572C120.291 15.6918 120.344 15.9878 120.344 16.3452V18.7852H119.64V16.3932C119.64 16.0518 119.579 15.7958 119.456 15.6252C119.333 15.4545 119.115 15.3692 118.8 15.3692C118.565 15.3692 118.363 15.4225 118.192 15.5292C118.027 15.6305 117.899 15.7745 117.808 15.9612C117.723 16.1425 117.68 16.3478 117.68 16.5772V18.7852H116.976V16.3932C116.976 16.0572 116.907 15.8038 116.768 15.6332C116.629 15.4572 116.419 15.3692 116.136 15.3692C115.907 15.3692 115.707 15.4278 115.536 15.5452C115.371 15.6572 115.243 15.8038 115.152 15.9852C115.061 16.1665 115.016 16.3585 115.016 16.5612V18.7852H114.312ZM121.869 20.3212L121.349 20.1372C121.557 19.7478 121.727 19.3612 121.861 18.9772C121.994 18.5985 122.093 18.2198 122.157 17.8412C122.221 17.4572 122.253 17.0705 122.253 16.6812C122.253 16.2918 122.221 15.9078 122.157 15.5292C122.093 15.1452 121.994 14.7612 121.861 14.3772C121.727 13.9932 121.557 13.6092 121.349 13.2252L121.869 13.0412C122.242 13.6172 122.517 14.2065 122.693 14.8092C122.874 15.4065 122.965 16.0305 122.965 16.6812C122.965 17.3265 122.874 17.9505 122.693 18.5532C122.517 19.1505 122.242 19.7398 121.869 20.3212Z" fill="black"/>
<rect width="32" height="30" rx="3.05085" fill="#CB3335"/>
<path d="M22.0683 16.0085L19.8437 11.5593H20.4577C20.5757 11.5593 20.6889 11.5125 20.7723 11.429C20.8557 11.3456 20.9026 11.2324 20.9026 11.1144C20.9026 10.9964 20.8557 10.8833 20.7723 10.7998C20.6889 10.7164 20.5757 10.6695 20.4577 10.6695H19.7547C19.2767 10.1489 18.7008 9.72762 18.0598 9.42987C17.4188 9.13213 16.7254 8.96373 16.0192 8.93433L16.0085 8.88983C16.0085 8.65384 15.9148 8.4275 15.7479 8.26063C15.581 8.09375 15.3547 8 15.1187 8C14.8827 8 14.6563 8.09375 14.4895 8.26063C14.3226 8.4275 14.2288 8.65384 14.2288 8.88983V8.93433C12.7907 8.99413 11.4336 9.61628 10.4497 10.6668L9.77967 10.6695C9.66167 10.6695 9.5485 10.7164 9.46507 10.7998C9.38163 10.8833 9.33475 10.9964 9.33475 11.1144C9.33475 11.2324 9.38163 11.3456 9.46507 11.429C9.5485 11.5125 9.66167 11.5593 9.77967 11.5593H10.3937L8.16907 16.0085H8C8 16.9873 9.19238 17.7882 10.6695 17.7882C12.1466 17.7882 13.339 16.9873 13.339 16.0085H13.1699L10.9009 11.4793C10.9571 11.4463 11.0054 11.4013 11.0423 11.3476C11.4359 10.8851 11.9227 10.5111 12.471 10.2501C13.0192 9.98912 13.6165 9.84698 14.2235 9.83306L14.2288 19.5679H13.339V20.4577H11.5593V21.3475H18.678V20.4577H16.8983V19.5679H16.0085V9.83306C16.6087 9.84441 17.1994 9.98483 17.7405 10.2448C18.2816 10.5047 18.7603 10.8781 19.1443 11.3395C19.1854 11.4093 19.2448 11.4665 19.316 11.5051L17.0674 16.0085H16.8983C16.8983 16.9873 18.0907 17.7882 19.5679 17.7882C21.045 17.7882 22.2374 16.9873 22.2374 16.0085H22.0683ZM12.4492 16.0085H8.88983L10.6695 12.5026L12.4492 16.0085ZM17.7882 16.0085L19.5679 12.5026L21.3475 16.0085H17.7882Z" fill="white"/>
</svg>
