<svg width="148" height="30" viewBox="0 0 148 30" fill="none" xmlns="http://www.w3.org/2000/svg">
<rect x="14.1859" y="0.254237" width="133.56" height="29.4499" rx="1.77966" fill="white" stroke="#CE3439" stroke-width="0.508475"/>
<path d="M36.0254 18.7852L34.2174 13.1452H34.9694L36.4414 17.9292H36.3694L38.0094 13.1452H38.5934L40.2174 17.9292H40.1614L41.6494 13.1452H42.3694L40.5534 18.7852H39.8734L38.2814 14.1292H38.3134L36.6894 18.7852H36.0254ZM44.8797 18.8572C44.437 18.8572 44.053 18.7772 43.7277 18.6172C43.4077 18.4518 43.1623 18.2172 42.9917 17.9132C42.821 17.6038 42.7357 17.2358 42.7357 16.8092C42.7357 16.4092 42.8157 16.0572 42.9757 15.7532C43.1357 15.4438 43.3623 15.2012 43.6557 15.0252C43.949 14.8492 44.2983 14.7612 44.7037 14.7612C45.0877 14.7612 45.413 14.8438 45.6797 15.0092C45.9517 15.1745 46.157 15.4065 46.2957 15.7052C46.4397 16.0038 46.5117 16.3585 46.5117 16.7692V17.0012H43.2717V16.5052H46.0477L45.8957 16.6652C45.8957 16.2278 45.7917 15.8918 45.5837 15.6572C45.381 15.4225 45.0877 15.3052 44.7037 15.3052C44.453 15.3052 44.229 15.3638 44.0317 15.4812C43.8397 15.5932 43.6903 15.7532 43.5837 15.9612C43.477 16.1692 43.4237 16.4225 43.4237 16.7212V16.8012C43.4237 17.1212 43.4823 17.3905 43.5997 17.6092C43.717 17.8278 43.885 17.9932 44.1037 18.1052C44.3223 18.2172 44.5837 18.2732 44.8877 18.2732C45.1063 18.2732 45.3277 18.2438 45.5517 18.1852C45.781 18.1212 45.9943 18.0092 46.1917 17.8492L46.4317 18.3612C46.229 18.5318 45.9863 18.6572 45.7037 18.7372C45.4263 18.8172 45.1517 18.8572 44.8797 18.8572ZM47.6066 13.8812V13.0892H48.4706V13.8812H47.6066ZM47.6866 18.7852V14.8332H48.3986V18.7852H47.6866ZM51.5314 20.2972C51.2168 20.2972 50.9048 20.2492 50.5954 20.1532C50.2861 20.0625 50.0221 19.9372 49.8034 19.7772L50.0274 19.2252C50.1768 19.3212 50.3341 19.4038 50.4994 19.4732C50.6648 19.5478 50.8328 19.6012 51.0034 19.6332C51.1794 19.6705 51.3528 19.6892 51.5234 19.6892C51.9341 19.6892 52.2541 19.5852 52.4834 19.3772C52.7181 19.1692 52.8354 18.8732 52.8354 18.4892V17.7612H52.8194C52.7234 18.0332 52.5501 18.2545 52.2994 18.4252C52.0488 18.5905 51.7581 18.6732 51.4274 18.6732C51.0541 18.6732 50.7288 18.5932 50.4514 18.4332C50.1741 18.2678 49.9581 18.0385 49.8034 17.7452C49.6541 17.4518 49.5794 17.1078 49.5794 16.7132C49.5794 16.3238 49.6541 15.9825 49.8034 15.6892C49.9581 15.3958 50.1741 15.1692 50.4514 15.0092C50.7288 14.8438 51.0541 14.7612 51.4274 14.7612C51.7581 14.7612 52.0488 14.8465 52.2994 15.0172C52.5554 15.1878 52.7314 15.4145 52.8274 15.6972H52.8354V14.8332H53.4994V18.4252C53.4994 18.8092 53.4194 19.1398 53.2594 19.4172C53.1048 19.6998 52.8808 19.9158 52.5874 20.0652C52.2941 20.2198 51.9421 20.2972 51.5314 20.2972ZM51.5474 18.0892C51.9368 18.0892 52.2434 17.9638 52.4674 17.7132C52.6968 17.4625 52.8114 17.1292 52.8114 16.7132C52.8114 16.2972 52.6968 15.9665 52.4674 15.7212C52.2434 15.4705 51.9368 15.3452 51.5474 15.3452C51.1634 15.3452 50.8568 15.4705 50.6274 15.7212C50.4034 15.9665 50.2914 16.2972 50.2914 16.7132C50.2914 17.1292 50.4034 17.4625 50.6274 17.7132C50.8568 17.9638 51.1634 18.0892 51.5474 18.0892ZM54.921 18.7852V13.1452H55.609V15.6732C55.7263 15.3905 55.9103 15.1692 56.161 15.0092C56.417 14.8438 56.705 14.7612 57.025 14.7612C57.3503 14.7612 57.6223 14.8198 57.841 14.9372C58.0597 15.0492 58.2223 15.2252 58.329 15.4652C58.441 15.6998 58.497 15.9932 58.497 16.3452V18.7852H57.785V16.3852C57.785 16.1718 57.753 15.9905 57.689 15.8412C57.6303 15.6918 57.5343 15.5772 57.401 15.4972C57.2677 15.4118 57.089 15.3692 56.865 15.3692C56.6303 15.3692 56.4197 15.4225 56.233 15.5292C56.0463 15.6358 55.8997 15.7798 55.793 15.9612C55.6863 16.1425 55.633 16.3452 55.633 16.5692V18.7852H54.921ZM61.5694 18.8572C61.0947 18.8572 60.7347 18.7318 60.4894 18.4812C60.2494 18.2305 60.1294 17.8732 60.1294 17.4092V15.4172H59.3294V14.8332H60.1534V13.6572H60.8414V14.8332H62.2574V15.4172H60.8414V17.3452C60.8414 17.6492 60.908 17.8758 61.0414 18.0252C61.18 18.1692 61.3907 18.2412 61.6734 18.2412C61.7854 18.2412 61.892 18.2305 61.9934 18.2092C62.1 18.1878 62.2014 18.1558 62.2974 18.1132L62.4094 18.6732C62.3027 18.7318 62.172 18.7772 62.0174 18.8092C61.868 18.8412 61.7187 18.8572 61.5694 18.8572Z" fill="#CE3439"/>
<path d="M80.2868 18.8572C80.0521 18.8572 79.8201 18.8332 79.5908 18.7852C79.3615 18.7372 79.1428 18.6625 78.9348 18.5612C78.7321 18.4598 78.5455 18.3345 78.3748 18.1852L78.6468 17.6252C78.9028 17.8438 79.1695 18.0012 79.4468 18.0972C79.7241 18.1878 80.0041 18.2332 80.2868 18.2332C80.5215 18.2332 80.7321 18.1985 80.9188 18.1292C81.1108 18.0545 81.2601 17.9452 81.3668 17.8012C81.4788 17.6518 81.5348 17.4598 81.5348 17.2252C81.5348 16.8998 81.4255 16.6545 81.2068 16.4892C80.9881 16.3185 80.6708 16.2332 80.2548 16.2332H79.4068V15.6172H80.1508C80.3908 15.6172 80.6041 15.5798 80.7908 15.5052C80.9828 15.4252 81.1321 15.3078 81.2388 15.1532C81.3455 14.9985 81.3988 14.8065 81.3988 14.5772C81.3988 14.2838 81.2975 14.0652 81.0948 13.9212C80.8921 13.7718 80.6308 13.6972 80.3108 13.6972C80.0281 13.6972 79.7508 13.7452 79.4788 13.8412C79.2121 13.9372 78.9668 14.1025 78.7428 14.3372L78.4788 13.7852C78.7028 13.5452 78.9801 13.3665 79.3108 13.2492C79.6415 13.1318 79.9855 13.0732 80.3428 13.0732C80.7001 13.0732 81.0068 13.1318 81.2628 13.2492C81.5241 13.3612 81.7268 13.5265 81.8708 13.7452C82.0148 13.9585 82.0868 14.2172 82.0868 14.5212C82.0868 14.8412 81.9961 15.1238 81.8148 15.3692C81.6335 15.6145 81.3881 15.7878 81.0788 15.8892V15.8812C81.3028 15.9238 81.5001 16.0065 81.6708 16.1292C81.8415 16.2465 81.9775 16.4012 82.0788 16.5932C82.1801 16.7798 82.2308 17.0012 82.2308 17.2572C82.2308 17.5932 82.1481 17.8812 81.9828 18.1212C81.8228 18.3612 81.5961 18.5452 81.3028 18.6732C81.0148 18.7958 80.6761 18.8572 80.2868 18.8572ZM85.2277 18.8572C84.9823 18.8572 84.745 18.8305 84.5157 18.7772C84.2917 18.7238 84.081 18.6465 83.8837 18.5452C83.6863 18.4385 83.5103 18.3105 83.3557 18.1612L83.6357 17.6012C83.881 17.8252 84.1317 17.9878 84.3877 18.0892C84.649 18.1852 84.929 18.2332 85.2277 18.2332C85.6223 18.2332 85.929 18.1318 86.1477 17.9292C86.3717 17.7212 86.4837 17.4305 86.4837 17.0572C86.4837 16.6892 86.3797 16.3958 86.1717 16.1772C85.9637 15.9585 85.6757 15.8492 85.3077 15.8492C85.0623 15.8492 84.8383 15.8998 84.6357 16.0012C84.4383 16.0972 84.2543 16.2598 84.0837 16.4892H83.5237V13.1452H86.8997V13.7612H84.1717V15.8812H84.1397C84.2677 15.6892 84.4437 15.5345 84.6677 15.4172C84.8917 15.2945 85.1423 15.2332 85.4197 15.2332C85.7823 15.2332 86.0943 15.3105 86.3557 15.4652C86.617 15.6145 86.817 15.8225 86.9557 16.0892C87.0997 16.3558 87.1717 16.6678 87.1717 17.0252C87.1717 17.4038 87.0917 17.7318 86.9317 18.0092C86.7717 18.2812 86.5477 18.4918 86.2597 18.6412C85.9717 18.7852 85.6277 18.8572 85.2277 18.8572ZM88.1365 18.7852V17.9052H89.0485V18.7852H88.1365ZM92.671 18.7852V17.6172H90.039V17.0812L92.639 13.1452H93.351V17.0172H94.135V17.6172H93.351V18.7852H92.671ZM92.695 17.0172V14.0252H92.727L90.663 17.1532L90.607 17.0172H92.695ZM96.8199 18.8572C96.1906 18.8572 95.6946 18.7212 95.3319 18.4492C94.9693 18.1718 94.7879 17.7878 94.7879 17.2972C94.7879 17.0465 94.8359 16.8252 94.9319 16.6332C95.0333 16.4358 95.1719 16.2758 95.3479 16.1532C95.5293 16.0252 95.7373 15.9398 95.9719 15.8972V15.9052C95.7693 15.8572 95.5879 15.7692 95.4279 15.6412C95.2733 15.5132 95.1506 15.3585 95.0599 15.1772C94.9693 14.9958 94.9239 14.7958 94.9239 14.5772C94.9239 14.1078 95.0946 13.7398 95.4359 13.4732C95.7826 13.2065 96.2439 13.0732 96.8199 13.0732C97.3959 13.0732 97.8546 13.2065 98.1959 13.4732C98.5426 13.7398 98.7159 14.1078 98.7159 14.5772C98.7159 14.7905 98.6706 14.9905 98.5799 15.1772C98.4893 15.3585 98.3639 15.5132 98.2039 15.6412C98.0493 15.7692 97.8679 15.8572 97.6599 15.9052V15.8972C97.8893 15.9345 98.0919 16.0172 98.2679 16.1452C98.4493 16.2732 98.5906 16.4358 98.6919 16.6332C98.7986 16.8252 98.8519 17.0465 98.8519 17.2972C98.8519 17.7878 98.6706 18.1718 98.3079 18.4492C97.9506 18.7212 97.4546 18.8572 96.8199 18.8572ZM96.8199 18.2572C97.2626 18.2572 97.5986 18.1718 97.8279 18.0012C98.0626 17.8305 98.1799 17.5798 98.1799 17.2492C98.1799 16.9185 98.0626 16.6652 97.8279 16.4892C97.5986 16.3132 97.2626 16.2252 96.8199 16.2252C96.3773 16.2252 96.0386 16.3132 95.8039 16.4892C95.5746 16.6652 95.4599 16.9185 95.4599 17.2492C95.4599 17.5798 95.5746 17.8305 95.8039 18.0012C96.0386 18.1718 96.3773 18.2572 96.8199 18.2572ZM96.8199 15.6252C97.2039 15.6252 97.5053 15.5398 97.7239 15.3692C97.9426 15.1932 98.0519 14.9505 98.0519 14.6412C98.0519 14.3372 97.9426 14.0998 97.7239 13.9292C97.5053 13.7532 97.2039 13.6652 96.8199 13.6652C96.4413 13.6652 96.1426 13.7532 95.9239 13.9292C95.7053 14.0998 95.5959 14.3372 95.5959 14.6412C95.5959 14.9505 95.7053 15.1932 95.9239 15.3692C96.1426 15.5398 96.4413 15.6252 96.8199 15.6252ZM103.339 20.3212C102.961 19.7452 102.681 19.1585 102.499 18.5612C102.323 17.9585 102.235 17.3318 102.235 16.6812C102.235 16.0305 102.323 15.4065 102.499 14.8092C102.681 14.2118 102.961 13.6225 103.339 13.0412L103.851 13.2252C103.649 13.6038 103.481 13.9852 103.347 14.3692C103.214 14.7532 103.113 15.1372 103.043 15.5212C102.979 15.8998 102.947 16.2865 102.947 16.6812C102.947 17.0705 102.979 17.4572 103.043 17.8412C103.113 18.2252 103.214 18.6065 103.347 18.9852C103.481 19.3692 103.649 19.7532 103.851 20.1372L103.339 20.3212ZM107.46 18.8572C106.874 18.8572 106.372 18.7425 105.956 18.5132C105.54 18.2838 105.22 17.9558 104.996 17.5292C104.778 17.0972 104.668 16.5745 104.668 15.9612C104.668 15.3585 104.775 14.8438 104.988 14.4172C105.207 13.9852 105.519 13.6545 105.924 13.4252C106.33 13.1905 106.815 13.0732 107.38 13.0732C107.658 13.0732 107.922 13.0998 108.172 13.1532C108.423 13.2065 108.655 13.2865 108.868 13.3932C109.082 13.4945 109.263 13.6225 109.412 13.7772L109.14 14.3292C108.89 14.1105 108.62 13.9558 108.332 13.8652C108.044 13.7692 107.724 13.7212 107.372 13.7212C106.754 13.7212 106.271 13.9132 105.924 14.2972C105.583 14.6758 105.412 15.2305 105.412 15.9612C105.412 16.7185 105.588 17.2865 105.94 17.6652C106.298 18.0385 106.815 18.2252 107.492 18.2252C107.791 18.2252 108.068 18.2012 108.324 18.1532C108.586 18.1052 108.823 18.0358 109.036 17.9452L108.828 18.3612V16.4012H107.42V15.7932H109.476V18.4572C109.327 18.5318 109.14 18.6012 108.916 18.6652C108.692 18.7238 108.455 18.7692 108.204 18.8012C107.954 18.8385 107.706 18.8572 107.46 18.8572ZM110.952 18.7852V14.8332H111.6V15.7452H111.608C111.704 15.4518 111.872 15.2225 112.112 15.0572C112.352 14.8865 112.646 14.7905 112.992 14.7692L113.352 14.7532L113.416 15.4012L112.84 15.4492C112.472 15.4812 112.184 15.6038 111.976 15.8172C111.768 16.0252 111.664 16.2865 111.664 16.6012V18.7852H110.952ZM114.312 18.7852V14.8332H114.968V15.6972C115.037 15.5212 115.133 15.3638 115.256 15.2252C115.384 15.0812 115.536 14.9692 115.712 14.8892C115.893 14.8038 116.091 14.7612 116.304 14.7612C116.651 14.7612 116.936 14.8465 117.16 15.0172C117.384 15.1878 117.523 15.4118 117.576 15.6892H117.568C117.675 15.4278 117.843 15.2092 118.072 15.0332C118.307 14.8518 118.6 14.7612 118.952 14.7612C119.251 14.7612 119.504 14.8198 119.712 14.9372C119.92 15.0492 120.077 15.2225 120.184 15.4572C120.291 15.6918 120.344 15.9878 120.344 16.3452V18.7852H119.64V16.3932C119.64 16.0518 119.579 15.7958 119.456 15.6252C119.333 15.4545 119.115 15.3692 118.8 15.3692C118.565 15.3692 118.363 15.4225 118.192 15.5292C118.027 15.6305 117.899 15.7745 117.808 15.9612C117.723 16.1425 117.68 16.3478 117.68 16.5772V18.7852H116.976V16.3932C116.976 16.0572 116.907 15.8038 116.768 15.6332C116.629 15.4572 116.419 15.3692 116.136 15.3692C115.907 15.3692 115.707 15.4278 115.536 15.5452C115.371 15.6572 115.243 15.8038 115.152 15.9852C115.061 16.1665 115.016 16.3585 115.016 16.5612V18.7852H114.312ZM121.869 20.3212L121.349 20.1372C121.557 19.7478 121.727 19.3612 121.861 18.9772C121.994 18.5985 122.093 18.2198 122.157 17.8412C122.221 17.4572 122.253 17.0705 122.253 16.6812C122.253 16.2918 122.221 15.9078 122.157 15.5292C122.093 15.1452 121.994 14.7612 121.861 14.3772C121.727 13.9932 121.557 13.6092 121.349 13.2252L121.869 13.0412C122.242 13.6172 122.517 14.2065 122.693 14.8092C122.874 15.4065 122.965 16.0305 122.965 16.6812C122.965 17.3265 122.874 17.9505 122.693 18.5532C122.517 19.1505 122.242 19.7398 121.869 20.3212Z" fill="black"/>
<rect width="32" height="30" rx="3.05085" fill="#CB3335"/>
<path d="M22.0683 16.0085L19.8437 11.5593H20.4577C20.5757 11.5593 20.6889 11.5125 20.7723 11.429C20.8557 11.3456 20.9026 11.2324 20.9026 11.1144C20.9026 10.9964 20.8557 10.8833 20.7723 10.7998C20.6889 10.7164 20.5757 10.6695 20.4577 10.6695H19.7547C19.2767 10.1489 18.7008 9.72762 18.0598 9.42987C17.4188 9.13213 16.7254 8.96373 16.0192 8.93433L16.0085 8.88983C16.0085 8.65384 15.9148 8.4275 15.7479 8.26063C15.581 8.09375 15.3547 8 15.1187 8C14.8827 8 14.6563 8.09375 14.4895 8.26063C14.3226 8.4275 14.2288 8.65384 14.2288 8.88983V8.93433C12.7907 8.99413 11.4336 9.61628 10.4497 10.6668L9.77967 10.6695C9.66167 10.6695 9.5485 10.7164 9.46507 10.7998C9.38163 10.8833 9.33475 10.9964 9.33475 11.1144C9.33475 11.2324 9.38163 11.3456 9.46507 11.429C9.5485 11.5125 9.66167 11.5593 9.77967 11.5593H10.3937L8.16907 16.0085H8C8 16.9873 9.19238 17.7882 10.6695 17.7882C12.1466 17.7882 13.339 16.9873 13.339 16.0085H13.1699L10.9009 11.4793C10.9571 11.4463 11.0054 11.4013 11.0423 11.3476C11.4359 10.8851 11.9227 10.5111 12.471 10.2501C13.0192 9.98912 13.6165 9.84698 14.2235 9.83306L14.2288 19.5679H13.339V20.4577H11.5593V21.3475H18.678V20.4577H16.8983V19.5679H16.0085V9.83306C16.6087 9.84441 17.1994 9.98483 17.7405 10.2448C18.2816 10.5047 18.7603 10.8781 19.1443 11.3395C19.1854 11.4093 19.2448 11.4665 19.316 11.5051L17.0674 16.0085H16.8983C16.8983 16.9873 18.0907 17.7882 19.5679 17.7882C21.045 17.7882 22.2374 16.9873 22.2374 16.0085H22.0683ZM12.4492 16.0085H8.88983L10.6695 12.5026L12.4492 16.0085ZM17.7882 16.0085L19.5679 12.5026L21.3475 16.0085H17.7882Z" fill="white"/>
</svg>
