<svg width="148" height="42" viewBox="0 0 148 42" fill="none" xmlns="http://www.w3.org/2000/svg">
<rect x="14.1956" y="0.254237" width="133.549" height="41.4915" rx="1.77966" fill="white" stroke="#CE3439" stroke-width="0.508475"/>
<path d="M38.3672 10V4.36H40.6872C41.0925 4.36 41.4365 4.42667 41.7192 4.56C42.0018 4.69333 42.2178 4.888 42.3672 5.144C42.5218 5.39467 42.5992 5.69867 42.5992 6.056C42.5992 6.41333 42.5218 6.72 42.3672 6.976C42.2178 7.232 41.9992 7.42933 41.7112 7.568C41.4285 7.70667 41.0872 7.776 40.6872 7.776H39.0792V10H38.3672ZM39.0792 7.168H40.5832C41.0098 7.168 41.3325 7.07733 41.5512 6.896C41.7698 6.70933 41.8792 6.432 41.8792 6.064C41.8792 5.69067 41.7698 5.416 41.5512 5.24C41.3325 5.05867 41.0098 4.968 40.5832 4.968H39.0792V7.168ZM43.2593 5.096V4.304H44.1233V5.096H43.2593ZM43.3393 10V6.048H44.0513V10H43.3393ZM46.9762 10.072C46.5335 10.072 46.1495 9.992 45.8242 9.832C45.5042 9.66667 45.2588 9.432 45.0882 9.128C44.9175 8.81867 44.8322 8.45067 44.8322 8.024C44.8322 7.624 44.9122 7.272 45.0722 6.968C45.2322 6.65867 45.4588 6.416 45.7522 6.24C46.0455 6.064 46.3948 5.976 46.8002 5.976C47.1842 5.976 47.5095 6.05867 47.7762 6.224C48.0482 6.38933 48.2535 6.62133 48.3922 6.92C48.5362 7.21867 48.6082 7.57333 48.6082 7.984V8.216H45.3682V7.72H48.1442L47.9922 7.88C47.9922 7.44267 47.8882 7.10667 47.6802 6.872C47.4775 6.63733 47.1842 6.52 46.8002 6.52C46.5495 6.52 46.3255 6.57867 46.1282 6.696C45.9362 6.808 45.7868 6.968 45.6802 7.176C45.5735 7.384 45.5202 7.63733 45.5202 7.936V8.016C45.5202 8.336 45.5788 8.60533 45.6962 8.824C45.8135 9.04267 45.9815 9.208 46.2002 9.32C46.4188 9.432 46.6802 9.488 46.9842 9.488C47.2028 9.488 47.4242 9.45867 47.6482 9.4C47.8775 9.336 48.0908 9.224 48.2882 9.064L48.5282 9.576C48.3255 9.74667 48.0828 9.872 47.8002 9.952C47.5228 10.032 47.2482 10.072 46.9762 10.072ZM51.1431 10.072C50.7378 10.072 50.3858 9.98667 50.0871 9.816C49.7884 9.64533 49.5564 9.408 49.3911 9.104C49.2258 8.79467 49.1431 8.432 49.1431 8.016C49.1431 7.6 49.2258 7.24 49.3911 6.936C49.5564 6.62667 49.7884 6.38933 50.0871 6.224C50.3911 6.05867 50.7458 5.976 51.1511 5.976C51.4231 5.976 51.6818 6.02133 51.9271 6.112C52.1724 6.20267 52.3751 6.32533 52.5351 6.48L52.2871 7.008C52.1324 6.86933 51.9591 6.76533 51.7671 6.696C51.5751 6.62133 51.3884 6.584 51.2071 6.584C50.7911 6.584 50.4631 6.70933 50.2231 6.96C49.9831 7.21067 49.8631 7.56533 49.8631 8.024C49.8631 8.47733 49.9831 8.832 50.2231 9.088C50.4631 9.33867 50.7884 9.464 51.1991 9.464C51.3858 9.464 51.5724 9.42933 51.7591 9.36C51.9511 9.28533 52.1218 9.18133 52.2711 9.048L52.5191 9.576C52.3644 9.73067 52.1644 9.85333 51.9191 9.944C51.6738 10.0293 51.4151 10.072 51.1431 10.072ZM54.8715 10.072C54.4288 10.072 54.0448 9.992 53.7195 9.832C53.3995 9.66667 53.1541 9.432 52.9835 9.128C52.8128 8.81867 52.7275 8.45067 52.7275 8.024C52.7275 7.624 52.8075 7.272 52.9675 6.968C53.1275 6.65867 53.3541 6.416 53.6475 6.24C53.9408 6.064 54.2901 5.976 54.6955 5.976C55.0795 5.976 55.4048 6.05867 55.6715 6.224C55.9435 6.38933 56.1488 6.62133 56.2875 6.92C56.4315 7.21867 56.5035 7.57333 56.5035 7.984V8.216H53.2635V7.72H56.0395L55.8875 7.88C55.8875 7.44267 55.7835 7.10667 55.5755 6.872C55.3728 6.63733 55.0795 6.52 54.6955 6.52C54.4448 6.52 54.2208 6.57867 54.0235 6.696C53.8315 6.808 53.6821 6.968 53.5755 7.176C53.4688 7.384 53.4155 7.63733 53.4155 7.936V8.016C53.4155 8.336 53.4741 8.60533 53.5915 8.824C53.7088 9.04267 53.8768 9.208 54.0955 9.32C54.3141 9.432 54.5755 9.488 54.8795 9.488C55.0981 9.488 55.3195 9.45867 55.5435 9.4C55.7728 9.336 55.9861 9.224 56.1835 9.064L56.4235 9.576C56.2208 9.74667 55.9781 9.872 55.6955 9.952C55.4181 10.032 55.1435 10.072 54.8715 10.072ZM58.7344 10.072C58.5157 10.072 58.2997 10.0507 58.0864 10.008C57.8784 9.97067 57.6837 9.91733 57.5024 9.848C57.3264 9.77333 57.1744 9.68267 57.0464 9.576L57.2784 9.072C57.4117 9.17333 57.5584 9.256 57.7184 9.32C57.8837 9.384 58.0517 9.432 58.2224 9.464C58.3984 9.49067 58.5664 9.504 58.7264 9.504C59.0571 9.504 59.3104 9.45333 59.4864 9.352C59.6677 9.25067 59.7584 9.10933 59.7584 8.928C59.7584 8.77333 59.7051 8.656 59.5984 8.576C59.4971 8.49067 59.3264 8.42667 59.0864 8.384L58.2624 8.24C57.8944 8.17067 57.6171 8.04533 57.4304 7.864C57.2491 7.68267 57.1584 7.44533 57.1584 7.152C57.1584 6.91733 57.2224 6.712 57.3504 6.536C57.4837 6.36 57.6731 6.224 57.9184 6.128C58.1637 6.02667 58.4571 5.976 58.7984 5.976C58.9851 5.976 59.1744 5.99467 59.3664 6.032C59.5637 6.06933 59.7451 6.12533 59.9104 6.2C60.0811 6.26933 60.2197 6.35733 60.3264 6.464L60.0864 6.968C59.9797 6.86667 59.8517 6.78667 59.7024 6.728C59.5584 6.664 59.4064 6.61867 59.2464 6.592C59.0917 6.56 58.9397 6.544 58.7904 6.544C58.4811 6.544 58.2411 6.59733 58.0704 6.704C57.8997 6.80533 57.8144 6.94933 57.8144 7.136C57.8144 7.28533 57.8624 7.40267 57.9584 7.488C58.0597 7.57333 58.2224 7.63733 58.4464 7.68L59.2464 7.824C59.6411 7.89867 59.9344 8.024 60.1264 8.2C60.3184 8.37067 60.4144 8.608 60.4144 8.912C60.4144 9.14667 60.3451 9.352 60.2064 9.528C60.0677 9.69867 59.8731 9.832 59.6224 9.928C59.3717 10.024 59.0757 10.072 58.7344 10.072Z" fill="#CE3439"/>
<path d="M81.5686 10.072C81.1152 10.072 80.7312 9.96267 80.4166 9.744C80.1019 9.52533 79.8619 9.21067 79.6966 8.8C79.5312 8.384 79.4486 7.88533 79.4486 7.304C79.4486 6.65333 79.5392 6.10667 79.7206 5.664C79.9019 5.216 80.1632 4.87467 80.5046 4.64C80.8459 4.40533 81.2566 4.288 81.7366 4.288C81.9499 4.288 82.1526 4.31467 82.3446 4.368C82.5366 4.416 82.7179 4.49067 82.8886 4.592C83.0592 4.69333 83.2192 4.81867 83.3686 4.968L83.1046 5.52C82.8966 5.30133 82.6779 5.14667 82.4486 5.056C82.2192 4.96 81.9819 4.912 81.7366 4.912C81.4752 4.912 81.2432 4.96267 81.0406 5.064C80.8379 5.16 80.6672 5.30667 80.5286 5.504C80.3899 5.696 80.2832 5.936 80.2086 6.224C80.1392 6.50667 80.1046 6.83733 80.1046 7.216V7.68H80.1126C80.1606 7.424 80.2566 7.20533 80.4006 7.024C80.5446 6.83733 80.7232 6.696 80.9366 6.6C81.1499 6.49867 81.3846 6.448 81.6406 6.448C81.9819 6.448 82.2806 6.52533 82.5366 6.68C82.7979 6.82933 83.0006 7.04 83.1446 7.312C83.2939 7.57867 83.3686 7.888 83.3686 8.24C83.3686 8.592 83.2912 8.90667 83.1366 9.184C82.9872 9.46133 82.7766 9.68 82.5046 9.84C82.2326 9.99467 81.9206 10.072 81.5686 10.072ZM81.5286 9.464C81.7632 9.464 81.9686 9.41333 82.1446 9.312C82.3206 9.21067 82.4566 9.06933 82.5526 8.888C82.6539 8.70667 82.7046 8.496 82.7046 8.256C82.7046 8.016 82.6539 7.808 82.5526 7.632C82.4566 7.45067 82.3206 7.30933 82.1446 7.208C81.9686 7.10667 81.7606 7.056 81.5206 7.056C81.2859 7.056 81.0779 7.10667 80.8966 7.208C80.7206 7.30933 80.5792 7.45067 80.4726 7.632C80.3712 7.808 80.3206 8.016 80.3206 8.256C80.3206 8.496 80.3712 8.70667 80.4726 8.888C80.5739 9.06933 80.7152 9.21067 80.8966 9.312C81.0779 9.41333 81.2886 9.464 81.5286 9.464ZM86.1734 10.072C85.7414 10.072 85.3761 9.96267 85.0774 9.744C84.7788 9.52 84.5521 9.19467 84.3974 8.768C84.2481 8.336 84.1734 7.80533 84.1734 7.176C84.1734 6.54667 84.2481 6.01867 84.3974 5.592C84.5521 5.16533 84.7788 4.84267 85.0774 4.624C85.3761 4.4 85.7414 4.288 86.1734 4.288C86.6161 4.288 86.9841 4.39733 87.2774 4.616C87.5708 4.83467 87.7921 5.15733 87.9414 5.584C88.0961 6.01067 88.1734 6.53867 88.1734 7.168C88.1734 7.79733 88.0961 8.328 87.9414 8.76C87.7921 9.192 87.5681 9.52 87.2694 9.744C86.9708 9.96267 86.6054 10.072 86.1734 10.072ZM86.1734 9.448C86.6108 9.448 86.9361 9.264 87.1494 8.896C87.3628 8.528 87.4694 7.952 87.4694 7.168C87.4694 6.38933 87.3628 5.81867 87.1494 5.456C86.9414 5.09333 86.6188 4.912 86.1814 4.912C85.7388 4.912 85.4108 5.096 85.1974 5.464C84.9841 5.82667 84.8774 6.39733 84.8774 7.176C84.8774 7.94933 84.9841 8.52267 85.1974 8.896C85.4108 9.264 85.7361 9.448 86.1734 9.448ZM90.9703 10.072C90.5383 10.072 90.173 9.96267 89.8743 9.744C89.5756 9.52 89.349 9.19467 89.1943 8.768C89.045 8.336 88.9703 7.80533 88.9703 7.176C88.9703 6.54667 89.045 6.01867 89.1943 5.592C89.349 5.16533 89.5756 4.84267 89.8743 4.624C90.173 4.4 90.5383 4.288 90.9703 4.288C91.413 4.288 91.781 4.39733 92.0743 4.616C92.3676 4.83467 92.589 5.15733 92.7383 5.584C92.893 6.01067 92.9703 6.53867 92.9703 7.168C92.9703 7.79733 92.893 8.328 92.7383 8.76C92.589 9.192 92.365 9.52 92.0663 9.744C91.7676 9.96267 91.4023 10.072 90.9703 10.072ZM90.9703 9.448C91.4076 9.448 91.733 9.264 91.9463 8.896C92.1596 8.528 92.2663 7.952 92.2663 7.168C92.2663 6.38933 92.1596 5.81867 91.9463 5.456C91.7383 5.09333 91.4156 4.912 90.9783 4.912C90.5356 4.912 90.2076 5.096 89.9943 5.464C89.781 5.82667 89.6743 6.39733 89.6743 7.176C89.6743 7.94933 89.781 8.52267 89.9943 8.896C90.2076 9.264 90.533 9.448 90.9703 9.448ZM95.7672 10.072C95.3352 10.072 94.9699 9.96267 94.6712 9.744C94.3725 9.52 94.1459 9.19467 93.9912 8.768C93.8419 8.336 93.7672 7.80533 93.7672 7.176C93.7672 6.54667 93.8419 6.01867 93.9912 5.592C94.1459 5.16533 94.3725 4.84267 94.6712 4.624C94.9699 4.4 95.3352 4.288 95.7672 4.288C96.2099 4.288 96.5779 4.39733 96.8712 4.616C97.1645 4.83467 97.3859 5.15733 97.5352 5.584C97.6899 6.01067 97.7672 6.53867 97.7672 7.168C97.7672 7.79733 97.6899 8.328 97.5352 8.76C97.3859 9.192 97.1619 9.52 96.8632 9.744C96.5645 9.96267 96.1992 10.072 95.7672 10.072ZM95.7672 9.448C96.2045 9.448 96.5299 9.264 96.7432 8.896C96.9565 8.528 97.0632 7.952 97.0632 7.168C97.0632 6.38933 96.9565 5.81867 96.7432 5.456C96.5352 5.09333 96.2125 4.912 95.7752 4.912C95.3325 4.912 95.0045 5.096 94.7912 5.464C94.5779 5.82667 94.4712 6.39733 94.4712 7.176C94.4712 7.94933 94.5779 8.52267 94.7912 8.896C95.0045 9.264 95.3299 9.448 95.7672 9.448ZM101.23 10V4.36H101.862L105.318 8.952H105.286V4.36H105.966V10H105.318L101.878 5.424H101.91V10H101.23ZM109.229 10.072C108.829 10.072 108.482 9.98667 108.189 9.816C107.896 9.64533 107.669 9.408 107.509 9.104C107.349 8.79467 107.269 8.432 107.269 8.016C107.269 7.60533 107.349 7.248 107.509 6.944C107.669 6.63467 107.896 6.39733 108.189 6.232C108.482 6.06133 108.829 5.976 109.229 5.976C109.629 5.976 109.973 6.06133 110.261 6.232C110.554 6.39733 110.781 6.63467 110.941 6.944C111.101 7.248 111.181 7.60533 111.181 8.016C111.181 8.432 111.101 8.79467 110.941 9.104C110.786 9.408 110.562 9.64533 110.269 9.816C109.976 9.98667 109.629 10.072 109.229 10.072ZM109.221 9.472C109.61 9.472 109.917 9.34133 110.141 9.08C110.365 8.81867 110.477 8.464 110.477 8.016C110.477 7.568 110.365 7.216 110.141 6.96C109.922 6.704 109.618 6.576 109.229 6.576C108.84 6.576 108.533 6.704 108.309 6.96C108.085 7.216 107.973 7.568 107.973 8.016C107.973 8.464 108.085 8.81867 108.309 9.08C108.538 9.34133 108.842 9.472 109.221 9.472ZM113.832 10.072C113.613 10.072 113.397 10.0507 113.184 10.008C112.976 9.97067 112.781 9.91733 112.6 9.848C112.424 9.77333 112.272 9.68267 112.144 9.576L112.376 9.072C112.509 9.17333 112.656 9.256 112.816 9.32C112.981 9.384 113.149 9.432 113.32 9.464C113.496 9.49067 113.664 9.504 113.824 9.504C114.155 9.504 114.408 9.45333 114.584 9.352C114.765 9.25067 114.856 9.10933 114.856 8.928C114.856 8.77333 114.803 8.656 114.696 8.576C114.595 8.49067 114.424 8.42667 114.184 8.384L113.36 8.24C112.992 8.17067 112.715 8.04533 112.528 7.864C112.347 7.68267 112.256 7.44533 112.256 7.152C112.256 6.91733 112.32 6.712 112.448 6.536C112.581 6.36 112.771 6.224 113.016 6.128C113.261 6.02667 113.555 5.976 113.896 5.976C114.083 5.976 114.272 5.99467 114.464 6.032C114.661 6.06933 114.843 6.12533 115.008 6.2C115.179 6.26933 115.317 6.35733 115.424 6.464L115.184 6.968C115.077 6.86667 114.949 6.78667 114.8 6.728C114.656 6.664 114.504 6.61867 114.344 6.592C114.189 6.56 114.037 6.544 113.888 6.544C113.579 6.544 113.339 6.59733 113.168 6.704C112.997 6.80533 112.912 6.94933 112.912 7.136C112.912 7.28533 112.96 7.40267 113.056 7.488C113.157 7.57333 113.32 7.63733 113.544 7.68L114.344 7.824C114.739 7.89867 115.032 8.024 115.224 8.2C115.416 8.37067 115.512 8.608 115.512 8.912C115.512 9.14667 115.443 9.352 115.304 9.528C115.165 9.69867 114.971 9.832 114.72 9.928C114.469 10.024 114.173 10.072 113.832 10.072ZM116.417 10.504L115.857 10.352L117.897 3.984L118.449 4.136L116.417 10.504ZM121.498 10.072C120.959 10.072 120.49 9.95733 120.09 9.728C119.695 9.49333 119.391 9.16 119.178 8.728C118.964 8.29067 118.858 7.77333 118.858 7.176C118.858 6.57867 118.964 6.064 119.178 5.632C119.391 5.2 119.695 4.86933 120.09 4.64C120.484 4.40533 120.954 4.288 121.498 4.288C121.892 4.288 122.252 4.34933 122.578 4.472C122.903 4.58933 123.183 4.76267 123.418 4.992L123.138 5.552C122.892 5.33333 122.639 5.176 122.378 5.08C122.122 4.984 121.834 4.936 121.514 4.936C120.916 4.936 120.447 5.128 120.106 5.512C119.77 5.89067 119.602 6.44533 119.602 7.176C119.602 7.90133 119.77 8.45867 120.106 8.848C120.442 9.232 120.911 9.424 121.514 9.424C121.834 9.424 122.122 9.376 122.378 9.28C122.639 9.184 122.892 9.02667 123.138 8.808L123.418 9.368C123.183 9.59733 122.903 9.77333 122.578 9.896C122.252 10.0133 121.892 10.072 121.498 10.072ZM126.149 10.072C125.675 10.072 125.315 9.94667 125.069 9.696C124.829 9.44533 124.709 9.088 124.709 8.624V6.632H123.909V6.048H124.733V4.872H125.421V6.048H126.837V6.632H125.421V8.56C125.421 8.864 125.488 9.09067 125.621 9.24C125.76 9.384 125.971 9.456 126.253 9.456C126.365 9.456 126.472 9.44533 126.573 9.424C126.68 9.40267 126.781 9.37067 126.877 9.328L126.989 9.888C126.883 9.94667 126.752 9.992 126.597 10.024C126.448 10.056 126.299 10.072 126.149 10.072ZM127.821 10V6.048H128.485V6.904C128.613 6.61067 128.805 6.384 129.061 6.224C129.317 6.05867 129.605 5.976 129.925 5.976C130.251 5.976 130.523 6.03467 130.741 6.152C130.96 6.264 131.123 6.44 131.229 6.68C131.341 6.91467 131.397 7.208 131.397 7.56V10H130.685V7.6C130.685 7.38667 130.656 7.20533 130.597 7.056C130.539 6.90667 130.44 6.792 130.301 6.712C130.168 6.62667 129.989 6.584 129.765 6.584C129.531 6.584 129.317 6.63733 129.125 6.744C128.939 6.85067 128.792 6.99467 128.685 7.176C128.584 7.35733 128.533 7.56 128.533 7.784V10H127.821Z" fill="black"/>
<path d="M40.2552 22.072C39.9458 22.072 39.6525 22.048 39.3752 22C39.0978 21.952 38.8445 21.88 38.6152 21.784C38.3858 21.688 38.1858 21.5707 38.0152 21.432L38.2792 20.84C38.4605 20.984 38.6525 21.1013 38.8552 21.192C39.0632 21.2773 39.2818 21.3387 39.5112 21.376C39.7458 21.4133 39.9938 21.432 40.2552 21.432C40.6978 21.432 41.0365 21.344 41.2712 21.168C41.5112 20.992 41.6312 20.752 41.6312 20.448C41.6312 20.288 41.5912 20.1547 41.5112 20.048C41.4365 19.9413 41.3165 19.8533 41.1512 19.784C40.9912 19.7147 40.7832 19.6533 40.5272 19.6L39.6072 19.424C39.0898 19.3227 38.7165 19.144 38.4872 18.888C38.2578 18.632 38.1432 18.3093 38.1432 17.92C38.1432 17.5893 38.2338 17.304 38.4152 17.064C38.6018 16.8187 38.8578 16.6293 39.1832 16.496C39.5138 16.3573 39.8898 16.288 40.3112 16.288C40.5778 16.288 40.8258 16.3147 41.0552 16.368C41.2898 16.416 41.5032 16.4907 41.6952 16.592C41.8925 16.6933 42.0685 16.816 42.2232 16.96L41.9592 17.544C41.7298 17.32 41.4792 17.1627 41.2072 17.072C40.9352 16.976 40.6338 16.928 40.3032 16.928C40.0258 16.928 39.7778 16.968 39.5592 17.048C39.3405 17.1227 39.1672 17.2347 39.0392 17.384C38.9165 17.528 38.8552 17.7067 38.8552 17.92C38.8552 18.1547 38.9298 18.3413 39.0792 18.48C39.2285 18.6133 39.4818 18.7173 39.8392 18.792L40.7512 18.968C41.2952 19.0693 41.6978 19.24 41.9592 19.48C42.2205 19.72 42.3512 20.032 42.3512 20.416C42.3512 20.736 42.2632 21.0213 42.0872 21.272C41.9165 21.5227 41.6738 21.72 41.3592 21.864C41.0498 22.0027 40.6818 22.072 40.2552 22.072ZM43.4172 17.096V16.304H44.2812V17.096H43.4172ZM43.4972 22V18.048H44.2092V22H43.4972ZM45.398 22V21.544L47.902 18.416L47.942 18.64H45.454V18.048H48.606V18.504L46.078 21.656L46.038 21.408H48.694V22H45.398ZM51.6043 22.072C51.1616 22.072 50.7776 21.992 50.4523 21.832C50.1323 21.6667 49.8869 21.432 49.7163 21.128C49.5456 20.8187 49.4603 20.4507 49.4603 20.024C49.4603 19.624 49.5403 19.272 49.7003 18.968C49.8603 18.6587 50.0869 18.416 50.3803 18.24C50.6736 18.064 51.0229 17.976 51.4283 17.976C51.8123 17.976 52.1376 18.0587 52.4043 18.224C52.6763 18.3893 52.8816 18.6213 53.0203 18.92C53.1643 19.2187 53.2363 19.5733 53.2363 19.984V20.216H49.9963V19.72H52.7723L52.6203 19.88C52.6203 19.4427 52.5163 19.1067 52.3083 18.872C52.1056 18.6373 51.8123 18.52 51.4283 18.52C51.1776 18.52 50.9536 18.5787 50.7563 18.696C50.5643 18.808 50.4149 18.968 50.3083 19.176C50.2016 19.384 50.1483 19.6373 50.1483 19.936V20.016C50.1483 20.336 50.2069 20.6053 50.3243 20.824C50.4416 21.0427 50.6096 21.208 50.8283 21.32C51.0469 21.432 51.3083 21.488 51.6123 21.488C51.8309 21.488 52.0523 21.4587 52.2763 21.4C52.5056 21.336 52.7189 21.224 52.9163 21.064L53.1563 21.576C52.9536 21.7467 52.7109 21.872 52.4283 21.952C52.1509 22.032 51.8763 22.072 51.6043 22.072Z" fill="#CE3439"/>
<path d="M81.0382 22.072C80.7929 22.072 80.5556 22.0453 80.3262 21.992C80.1022 21.9387 79.8916 21.8613 79.6942 21.76C79.4969 21.6533 79.3209 21.5253 79.1662 21.376L79.4462 20.816C79.6916 21.04 79.9422 21.2027 80.1982 21.304C80.4596 21.4 80.7396 21.448 81.0382 21.448C81.4329 21.448 81.7396 21.3467 81.9582 21.144C82.1822 20.936 82.2942 20.6453 82.2942 20.272C82.2942 19.904 82.1902 19.6107 81.9822 19.392C81.7742 19.1733 81.4862 19.064 81.1182 19.064C80.8729 19.064 80.6489 19.1147 80.4462 19.216C80.2489 19.312 80.0649 19.4747 79.8942 19.704H79.3342V16.36H82.7102V16.976H79.9822V19.096H79.9502C80.0782 18.904 80.2542 18.7493 80.4782 18.632C80.7022 18.5093 80.9529 18.448 81.2302 18.448C81.5929 18.448 81.9049 18.5253 82.1662 18.68C82.4276 18.8293 82.6276 19.0373 82.7662 19.304C82.9102 19.5707 82.9822 19.8827 82.9822 20.24C82.9822 20.6187 82.9022 20.9467 82.7422 21.224C82.5822 21.496 82.3582 21.7067 82.0702 21.856C81.7822 22 81.4382 22.072 81.0382 22.072ZM85.7711 22.072C85.1418 22.072 84.6458 21.936 84.2831 21.664C83.9204 21.3867 83.7391 21.0027 83.7391 20.512C83.7391 20.2613 83.7871 20.04 83.8831 19.848C83.9844 19.6507 84.1231 19.4907 84.2991 19.368C84.4804 19.24 84.6884 19.1547 84.9231 19.112V19.12C84.7204 19.072 84.5391 18.984 84.3791 18.856C84.2244 18.728 84.1018 18.5733 84.0111 18.392C83.9204 18.2107 83.8751 18.0107 83.8751 17.792C83.8751 17.3227 84.0458 16.9547 84.3871 16.688C84.7338 16.4213 85.1951 16.288 85.7711 16.288C86.3471 16.288 86.8058 16.4213 87.1471 16.688C87.4938 16.9547 87.6671 17.3227 87.6671 17.792C87.6671 18.0053 87.6218 18.2053 87.5311 18.392C87.4404 18.5733 87.3151 18.728 87.1551 18.856C87.0004 18.984 86.8191 19.072 86.6111 19.12V19.112C86.8404 19.1493 87.0431 19.232 87.2191 19.36C87.4004 19.488 87.5418 19.6507 87.6431 19.848C87.7498 20.04 87.8031 20.2613 87.8031 20.512C87.8031 21.0027 87.6218 21.3867 87.2591 21.664C86.9018 21.936 86.4058 22.072 85.7711 22.072ZM85.7711 21.472C86.2138 21.472 86.5498 21.3867 86.7791 21.216C87.0138 21.0453 87.1311 20.7947 87.1311 20.464C87.1311 20.1333 87.0138 19.88 86.7791 19.704C86.5498 19.528 86.2138 19.44 85.7711 19.44C85.3284 19.44 84.9898 19.528 84.7551 19.704C84.5258 19.88 84.4111 20.1333 84.4111 20.464C84.4111 20.7947 84.5258 21.0453 84.7551 21.216C84.9898 21.3867 85.3284 21.472 85.7711 21.472ZM85.7711 18.84C86.1551 18.84 86.4564 18.7547 86.6751 18.584C86.8938 18.408 87.0031 18.1653 87.0031 17.856C87.0031 17.552 86.8938 17.3147 86.6751 17.144C86.4564 16.968 86.1551 16.88 85.7711 16.88C85.3924 16.88 85.0938 16.968 84.8751 17.144C84.6564 17.3147 84.5471 17.552 84.5471 17.856C84.5471 18.1653 84.6564 18.408 84.8751 18.584C85.0938 18.7547 85.3924 18.84 85.7711 18.84ZM90.632 22.072C90.3866 22.072 90.1493 22.0453 89.92 21.992C89.696 21.9387 89.4853 21.8613 89.288 21.76C89.0906 21.6533 88.9146 21.5253 88.76 21.376L89.04 20.816C89.2853 21.04 89.536 21.2027 89.792 21.304C90.0533 21.4 90.3333 21.448 90.632 21.448C91.0266 21.448 91.3333 21.3467 91.552 21.144C91.776 20.936 91.888 20.6453 91.888 20.272C91.888 19.904 91.784 19.6107 91.576 19.392C91.368 19.1733 91.08 19.064 90.712 19.064C90.4666 19.064 90.2426 19.1147 90.04 19.216C89.8426 19.312 89.6586 19.4747 89.488 19.704H88.928V16.36H92.304V16.976H89.576V19.096H89.544C89.672 18.904 89.848 18.7493 90.072 18.632C90.296 18.5093 90.5466 18.448 90.824 18.448C91.1866 18.448 91.4986 18.5253 91.76 18.68C92.0213 18.8293 92.2213 19.0373 92.36 19.304C92.504 19.5707 92.576 19.8827 92.576 20.24C92.576 20.6187 92.496 20.9467 92.336 21.224C92.176 21.496 91.952 21.7067 91.664 21.856C91.376 22 91.032 22.072 90.632 22.072ZM95.3912 22L97.4792 18.976V19.24L95.5032 16.36H96.3272L97.9272 18.712H97.8872L99.4872 16.36H100.311L98.3192 19.24V18.976L100.415 22H99.5832L97.8712 19.496H97.9272L96.2152 22H95.3912ZM105.304 22.072C105.059 22.072 104.821 22.0453 104.592 21.992C104.368 21.9387 104.157 21.8613 103.96 21.76C103.763 21.6533 103.587 21.5253 103.432 21.376L103.712 20.816C103.957 21.04 104.208 21.2027 104.464 21.304C104.725 21.4 105.005 21.448 105.304 21.448C105.699 21.448 106.005 21.3467 106.224 21.144C106.448 20.936 106.56 20.6453 106.56 20.272C106.56 19.904 106.456 19.6107 106.248 19.392C106.04 19.1733 105.752 19.064 105.384 19.064C105.139 19.064 104.915 19.1147 104.712 19.216C104.515 19.312 104.331 19.4747 104.16 19.704H103.6V16.36H106.976V16.976H104.248V19.096H104.216C104.344 18.904 104.52 18.7493 104.744 18.632C104.968 18.5093 105.219 18.448 105.496 18.448C105.859 18.448 106.171 18.5253 106.432 18.68C106.693 18.8293 106.893 19.0373 107.032 19.304C107.176 19.5707 107.248 19.8827 107.248 20.24C107.248 20.6187 107.168 20.9467 107.008 21.224C106.848 21.496 106.624 21.7067 106.336 21.856C106.048 22 105.704 22.072 105.304 22.072ZM108.293 22V21.472L110.277 19.392C110.469 19.1893 110.618 19.0053 110.725 18.84C110.831 18.6747 110.909 18.5147 110.957 18.36C111.005 18.2053 111.029 18.048 111.029 17.888C111.029 17.5733 110.927 17.3333 110.725 17.168C110.527 16.9973 110.253 16.912 109.901 16.912C109.634 16.912 109.37 16.9653 109.109 17.072C108.853 17.1733 108.607 17.336 108.373 17.56L108.101 17C108.335 16.776 108.615 16.6027 108.941 16.48C109.266 16.352 109.602 16.288 109.949 16.288C110.317 16.288 110.634 16.352 110.901 16.48C111.167 16.6027 111.37 16.7813 111.509 17.016C111.653 17.2453 111.725 17.5227 111.725 17.848C111.725 18.0133 111.706 18.176 111.669 18.336C111.631 18.4907 111.573 18.6453 111.493 18.8C111.418 18.9547 111.319 19.1147 111.197 19.28C111.074 19.4453 110.925 19.6187 110.749 19.8L109.197 21.416V21.384H111.957V22H108.293ZM114.898 22.072C114.652 22.072 114.415 22.0453 114.186 21.992C113.962 21.9387 113.751 21.8613 113.554 21.76C113.356 21.6533 113.18 21.5253 113.026 21.376L113.306 20.816C113.551 21.04 113.802 21.2027 114.058 21.304C114.319 21.4 114.599 21.448 114.898 21.448C115.292 21.448 115.599 21.3467 115.818 21.144C116.042 20.936 116.154 20.6453 116.154 20.272C116.154 19.904 116.05 19.6107 115.842 19.392C115.634 19.1733 115.346 19.064 114.978 19.064C114.732 19.064 114.508 19.1147 114.306 19.216C114.108 19.312 113.924 19.4747 113.754 19.704H113.194V16.36H116.57V16.976H113.842V19.096H113.81C113.938 18.904 114.114 18.7493 114.338 18.632C114.562 18.5093 114.812 18.448 115.09 18.448C115.452 18.448 115.764 18.5253 116.026 18.68C116.287 18.8293 116.487 19.0373 116.626 19.304C116.77 19.5707 116.842 19.8827 116.842 20.24C116.842 20.6187 116.762 20.9467 116.602 21.224C116.442 21.496 116.218 21.7067 115.93 21.856C115.642 22 115.298 22.072 114.898 22.072ZM119.657 22L121.745 18.976V19.24L119.769 16.36H120.593L122.193 18.712H122.153L123.753 16.36H124.577L122.585 19.24V18.976L124.681 22H123.849L122.137 19.496H122.193L120.481 22H119.657ZM129.697 22.072C129.244 22.072 128.86 21.9627 128.545 21.744C128.231 21.5253 127.991 21.2107 127.825 20.8C127.66 20.384 127.577 19.8853 127.577 19.304C127.577 18.6533 127.668 18.1067 127.849 17.664C128.031 17.216 128.292 16.8747 128.633 16.64C128.975 16.4053 129.385 16.288 129.865 16.288C130.079 16.288 130.281 16.3147 130.473 16.368C130.665 16.416 130.847 16.4907 131.017 16.592C131.188 16.6933 131.348 16.8187 131.497 16.968L131.233 17.52C131.025 17.3013 130.807 17.1467 130.577 17.056C130.348 16.96 130.111 16.912 129.865 16.912C129.604 16.912 129.372 16.9627 129.169 17.064C128.967 17.16 128.796 17.3067 128.657 17.504C128.519 17.696 128.412 17.936 128.337 18.224C128.268 18.5067 128.233 18.8373 128.233 19.216V19.68H128.241C128.289 19.424 128.385 19.2053 128.529 19.024C128.673 18.8373 128.852 18.696 129.065 18.6C129.279 18.4987 129.513 18.448 129.769 18.448C130.111 18.448 130.409 18.5253 130.665 18.68C130.927 18.8293 131.129 19.04 131.273 19.312C131.423 19.5787 131.497 19.888 131.497 20.24C131.497 20.592 131.42 20.9067 131.265 21.184C131.116 21.4613 130.905 21.68 130.633 21.84C130.361 21.9947 130.049 22.072 129.697 22.072ZM129.657 21.464C129.892 21.464 130.097 21.4133 130.273 21.312C130.449 21.2107 130.585 21.0693 130.681 20.888C130.783 20.7067 130.833 20.496 130.833 20.256C130.833 20.016 130.783 19.808 130.681 19.632C130.585 19.4507 130.449 19.3093 130.273 19.208C130.097 19.1067 129.889 19.056 129.649 19.056C129.415 19.056 129.207 19.1067 129.025 19.208C128.849 19.3093 128.708 19.4507 128.601 19.632C128.5 19.808 128.449 20.016 128.449 20.256C128.449 20.496 128.5 20.7067 128.601 20.888C128.703 21.0693 128.844 21.2107 129.025 21.312C129.207 21.4133 129.417 21.464 129.657 21.464ZM132.558 22V21.472L134.542 19.392C134.734 19.1893 134.884 19.0053 134.99 18.84C135.097 18.6747 135.174 18.5147 135.222 18.36C135.27 18.2053 135.294 18.048 135.294 17.888C135.294 17.5733 135.193 17.3333 134.99 17.168C134.793 16.9973 134.518 16.912 134.166 16.912C133.9 16.912 133.636 16.9653 133.374 17.072C133.118 17.1733 132.873 17.336 132.638 17.56L132.366 17C132.601 16.776 132.881 16.6027 133.206 16.48C133.532 16.352 133.868 16.288 134.214 16.288C134.582 16.288 134.9 16.352 135.166 16.48C135.433 16.6027 135.636 16.7813 135.774 17.016C135.918 17.2453 135.99 17.5227 135.99 17.848C135.99 18.0133 135.972 18.176 135.934 18.336C135.897 18.4907 135.838 18.6453 135.758 18.8C135.684 18.9547 135.585 19.1147 135.462 19.28C135.34 19.4453 135.19 19.6187 135.014 19.8L133.462 21.416V21.384H136.222V22H132.558ZM139.099 22.072C138.667 22.072 138.302 21.9627 138.003 21.744C137.705 21.52 137.478 21.1947 137.323 20.768C137.174 20.336 137.099 19.8053 137.099 19.176C137.099 18.5467 137.174 18.0187 137.323 17.592C137.478 17.1653 137.705 16.8427 138.003 16.624C138.302 16.4 138.667 16.288 139.099 16.288C139.542 16.288 139.91 16.3973 140.203 16.616C140.497 16.8347 140.718 17.1573 140.867 17.584C141.022 18.0107 141.099 18.5387 141.099 19.168C141.099 19.7973 141.022 20.328 140.867 20.76C140.718 21.192 140.494 21.52 140.195 21.744C139.897 21.9627 139.531 22.072 139.099 22.072ZM139.099 21.448C139.537 21.448 139.862 21.264 140.075 20.896C140.289 20.528 140.395 19.952 140.395 19.168C140.395 18.3893 140.289 17.8187 140.075 17.456C139.867 17.0933 139.545 16.912 139.107 16.912C138.665 16.912 138.337 17.096 138.123 17.464C137.91 17.8267 137.803 18.3973 137.803 19.176C137.803 19.9493 137.91 20.5227 138.123 20.896C138.337 21.264 138.662 21.448 139.099 21.448Z" fill="black"/>
<path d="M39.7032 35L37.8952 29.36H38.6472L40.1192 34.144H40.0472L41.6872 29.36H42.2712L43.8952 34.144H43.8392L45.3272 29.36H46.0472L44.2312 35H43.5512L41.9592 30.344H41.9912L40.3672 35H39.7032ZM48.5574 35.072C48.1147 35.072 47.7307 34.992 47.4054 34.832C47.0854 34.6667 46.8401 34.432 46.6694 34.128C46.4987 33.8187 46.4134 33.4507 46.4134 33.024C46.4134 32.624 46.4934 32.272 46.6534 31.968C46.8134 31.6587 47.0401 31.416 47.3334 31.24C47.6267 31.064 47.9761 30.976 48.3814 30.976C48.7654 30.976 49.0907 31.0587 49.3574 31.224C49.6294 31.3893 49.8347 31.6213 49.9734 31.92C50.1174 32.2187 50.1894 32.5733 50.1894 32.984V33.216H46.9494V32.72H49.7254L49.5734 32.88C49.5734 32.4427 49.4694 32.1067 49.2614 31.872C49.0587 31.6373 48.7654 31.52 48.3814 31.52C48.1307 31.52 47.9067 31.5787 47.7094 31.696C47.5174 31.808 47.3681 31.968 47.2614 32.176C47.1547 32.384 47.1014 32.6373 47.1014 32.936V33.016C47.1014 33.336 47.1601 33.6053 47.2774 33.824C47.3947 34.0427 47.5627 34.208 47.7814 34.32C48.0001 34.432 48.2614 34.488 48.5654 34.488C48.7841 34.488 49.0054 34.4587 49.2294 34.4C49.4587 34.336 49.6721 34.224 49.8694 34.064L50.1094 34.576C49.9067 34.7467 49.6641 34.872 49.3814 34.952C49.1041 35.032 48.8294 35.072 48.5574 35.072ZM51.2843 30.096V29.304H52.1483V30.096H51.2843ZM51.3643 35V31.048H52.0763V35H51.3643ZM55.2092 36.512C54.8945 36.512 54.5825 36.464 54.2732 36.368C53.9638 36.2773 53.6998 36.152 53.4812 35.992L53.7052 35.44C53.8545 35.536 54.0118 35.6187 54.1772 35.688C54.3425 35.7627 54.5105 35.816 54.6812 35.848C54.8572 35.8853 55.0305 35.904 55.2012 35.904C55.6118 35.904 55.9318 35.8 56.1612 35.592C56.3958 35.384 56.5132 35.088 56.5132 34.704V33.976H56.4972C56.4012 34.248 56.2278 34.4693 55.9772 34.64C55.7265 34.8053 55.4358 34.888 55.1052 34.888C54.7318 34.888 54.4065 34.808 54.1292 34.648C53.8518 34.4827 53.6358 34.2533 53.4812 33.96C53.3318 33.6667 53.2572 33.3227 53.2572 32.928C53.2572 32.5387 53.3318 32.1973 53.4812 31.904C53.6358 31.6107 53.8518 31.384 54.1292 31.224C54.4065 31.0587 54.7318 30.976 55.1052 30.976C55.4358 30.976 55.7265 31.0613 55.9772 31.232C56.2332 31.4027 56.4092 31.6293 56.5052 31.912H56.5132V31.048H57.1772V34.64C57.1772 35.024 57.0972 35.3547 56.9372 35.632C56.7825 35.9147 56.5585 36.1307 56.2652 36.28C55.9718 36.4347 55.6198 36.512 55.2092 36.512ZM55.2252 34.304C55.6145 34.304 55.9212 34.1787 56.1452 33.928C56.3745 33.6773 56.4892 33.344 56.4892 32.928C56.4892 32.512 56.3745 32.1813 56.1452 31.936C55.9212 31.6853 55.6145 31.56 55.2252 31.56C54.8412 31.56 54.5345 31.6853 54.3052 31.936C54.0812 32.1813 53.9692 32.512 53.9692 32.928C53.9692 33.344 54.0812 33.6773 54.3052 33.928C54.5345 34.1787 54.8412 34.304 55.2252 34.304ZM58.5987 35V29.36H59.2867V31.888C59.4041 31.6053 59.5881 31.384 59.8387 31.224C60.0947 31.0587 60.3827 30.976 60.7027 30.976C61.0281 30.976 61.3001 31.0347 61.5187 31.152C61.7374 31.264 61.9001 31.44 62.0067 31.68C62.1187 31.9147 62.1747 32.208 62.1747 32.56V35H61.4627V32.6C61.4627 32.3867 61.4307 32.2053 61.3667 32.056C61.3081 31.9067 61.2121 31.792 61.0787 31.712C60.9454 31.6267 60.7667 31.584 60.5427 31.584C60.3081 31.584 60.0974 31.6373 59.9107 31.744C59.7241 31.8507 59.5774 31.9947 59.4707 32.176C59.3641 32.3573 59.3107 32.56 59.3107 32.784V35H58.5987ZM65.2471 35.072C64.7724 35.072 64.4124 34.9467 64.1671 34.696C63.9271 34.4453 63.8071 34.088 63.8071 33.624V31.632H63.0071V31.048H63.8311V29.872H64.5191V31.048H65.9351V31.632H64.5191V33.56C64.5191 33.864 64.5858 34.0907 64.7191 34.24C64.8578 34.384 65.0684 34.456 65.3511 34.456C65.4631 34.456 65.5698 34.4453 65.6711 34.424C65.7778 34.4027 65.8791 34.3707 65.9751 34.328L66.0871 34.888C65.9804 34.9467 65.8498 34.992 65.6951 35.024C65.5458 35.056 65.3964 35.072 65.2471 35.072Z" fill="#CE3439"/>
<path d="M79.4412 35V34.472L81.4252 32.392C81.6172 32.1893 81.7665 32.0053 81.8732 31.84C81.9798 31.6747 82.0572 31.5147 82.1052 31.36C82.1532 31.2053 82.1772 31.048 82.1772 30.888C82.1772 30.5733 82.0758 30.3333 81.8732 30.168C81.6758 29.9973 81.4012 29.912 81.0492 29.912C80.7825 29.912 80.5185 29.9653 80.2572 30.072C80.0012 30.1733 79.7558 30.336 79.5212 30.56L79.2492 30C79.4838 29.776 79.7638 29.6027 80.0892 29.48C80.4145 29.352 80.7505 29.288 81.0972 29.288C81.4652 29.288 81.7825 29.352 82.0492 29.48C82.3158 29.6027 82.5185 29.7813 82.6572 30.016C82.8012 30.2453 82.8732 30.5227 82.8732 30.848C82.8732 31.0133 82.8545 31.176 82.8172 31.336C82.7798 31.4907 82.7212 31.6453 82.6412 31.8C82.5665 31.9547 82.4678 32.1147 82.3452 32.28C82.2225 32.4453 82.0732 32.6187 81.8972 32.8L80.3452 34.416V34.384H83.1052V35H79.4412ZM85.902 35.072C85.6674 35.072 85.4354 35.048 85.206 35C84.9767 34.952 84.758 34.8773 84.55 34.776C84.3474 34.6747 84.1607 34.5493 83.99 34.4L84.262 33.84C84.518 34.0587 84.7847 34.216 85.062 34.312C85.3394 34.4027 85.6194 34.448 85.902 34.448C86.1367 34.448 86.3474 34.4133 86.534 34.344C86.726 34.2693 86.8754 34.16 86.982 34.016C87.094 33.8667 87.15 33.6747 87.15 33.44C87.15 33.1147 87.0407 32.8693 86.822 32.704C86.6034 32.5333 86.286 32.448 85.87 32.448H85.022V31.832H85.766C86.006 31.832 86.2194 31.7947 86.406 31.72C86.598 31.64 86.7474 31.5227 86.854 31.368C86.9607 31.2133 87.014 31.0213 87.014 30.792C87.014 30.4987 86.9127 30.28 86.71 30.136C86.5074 29.9867 86.246 29.912 85.926 29.912C85.6434 29.912 85.366 29.96 85.094 30.056C84.8274 30.152 84.582 30.3173 84.358 30.552L84.094 30C84.318 29.76 84.5954 29.5813 84.926 29.464C85.2567 29.3467 85.6007 29.288 85.958 29.288C86.3154 29.288 86.622 29.3467 86.878 29.464C87.1394 29.576 87.342 29.7413 87.486 29.96C87.63 30.1733 87.702 30.432 87.702 30.736C87.702 31.056 87.6114 31.3387 87.43 31.584C87.2487 31.8293 87.0034 32.0027 86.694 32.104V32.096C86.918 32.1387 87.1154 32.2213 87.286 32.344C87.4567 32.4613 87.5927 32.616 87.694 32.808C87.7954 32.9947 87.846 33.216 87.846 33.472C87.846 33.808 87.7634 34.096 87.598 34.336C87.438 34.576 87.2114 34.76 86.918 34.888C86.63 35.0107 86.2914 35.072 85.902 35.072ZM88.9549 35V34.12H89.8669V35H88.9549ZM92.9054 35.072C92.6601 35.072 92.4227 35.0453 92.1934 34.992C91.9694 34.9387 91.7587 34.8613 91.5614 34.76C91.3641 34.6533 91.1881 34.5253 91.0334 34.376L91.3134 33.816C91.5587 34.04 91.8094 34.2027 92.0654 34.304C92.3267 34.4 92.6067 34.448 92.9054 34.448C93.3001 34.448 93.6067 34.3467 93.8254 34.144C94.0494 33.936 94.1614 33.6453 94.1614 33.272C94.1614 32.904 94.0574 32.6107 93.8494 32.392C93.6414 32.1733 93.3534 32.064 92.9854 32.064C92.7401 32.064 92.5161 32.1147 92.3134 32.216C92.1161 32.312 91.9321 32.4747 91.7614 32.704H91.2014V29.36H94.5774V29.976H91.8494V32.096H91.8174C91.9454 31.904 92.1214 31.7493 92.3454 31.632C92.5694 31.5093 92.8201 31.448 93.0974 31.448C93.4601 31.448 93.7721 31.5253 94.0334 31.68C94.2947 31.8293 94.4947 32.0373 94.6334 32.304C94.7774 32.5707 94.8494 32.8827 94.8494 33.24C94.8494 33.6187 94.7694 33.9467 94.6094 34.224C94.4494 34.496 94.2254 34.7067 93.9374 34.856C93.6494 35 93.3054 35.072 92.9054 35.072ZM97.1263 36.536C96.7476 35.96 96.4676 35.3733 96.2863 34.776C96.1103 34.1733 96.0223 33.5467 96.0223 32.896C96.0223 32.2453 96.1103 31.6213 96.2863 31.024C96.4676 30.4267 96.7476 29.8373 97.1263 29.256L97.6383 29.44C97.4356 29.8187 97.2676 30.2 97.1343 30.584C97.0009 30.968 96.8996 31.352 96.8303 31.736C96.7663 32.1147 96.7343 32.5013 96.7343 32.896C96.7343 33.2853 96.7663 33.672 96.8303 34.056C96.8996 34.44 97.0009 34.8213 97.1343 35.2C97.2676 35.584 97.4356 35.968 97.6383 36.352L97.1263 36.536ZM98.7578 35V29.36H99.4698V31.904H99.5018L102.182 29.36H103.086L99.9738 32.312L100.022 31.92L103.278 35H102.326L99.5018 32.352H99.4698V35H98.7578ZM105.608 36.512C105.293 36.512 104.981 36.464 104.672 36.368C104.362 36.2773 104.098 36.152 103.88 35.992L104.104 35.44C104.253 35.536 104.41 35.6187 104.576 35.688C104.741 35.7627 104.909 35.816 105.08 35.848C105.256 35.8853 105.429 35.904 105.6 35.904C106.01 35.904 106.33 35.8 106.56 35.592C106.794 35.384 106.912 35.088 106.912 34.704V33.976H106.896C106.8 34.248 106.626 34.4693 106.376 34.64C106.125 34.8053 105.834 34.888 105.504 34.888C105.13 34.888 104.805 34.808 104.528 34.648C104.25 34.4827 104.034 34.2533 103.88 33.96C103.73 33.6667 103.656 33.3227 103.656 32.928C103.656 32.5387 103.73 32.1973 103.88 31.904C104.034 31.6107 104.25 31.384 104.528 31.224C104.805 31.0587 105.13 30.976 105.504 30.976C105.834 30.976 106.125 31.0613 106.376 31.232C106.632 31.4027 106.808 31.6293 106.904 31.912H106.912V31.048H107.576V34.64C107.576 35.024 107.496 35.3547 107.336 35.632C107.181 35.9147 106.957 36.1307 106.664 36.28C106.37 36.4347 106.018 36.512 105.608 36.512ZM105.624 34.304C106.013 34.304 106.32 34.1787 106.544 33.928C106.773 33.6773 106.888 33.344 106.888 32.928C106.888 32.512 106.773 32.1813 106.544 31.936C106.32 31.6853 106.013 31.56 105.624 31.56C105.24 31.56 104.933 31.6853 104.704 31.936C104.48 32.1813 104.368 32.512 104.368 32.928C104.368 33.344 104.48 33.6773 104.704 33.928C104.933 34.1787 105.24 34.304 105.624 34.304ZM110.453 35.072C110.234 35.072 110.018 35.0507 109.805 35.008C109.597 34.9707 109.402 34.9173 109.221 34.848C109.045 34.7733 108.893 34.6827 108.765 34.576L108.997 34.072C109.13 34.1733 109.277 34.256 109.437 34.32C109.602 34.384 109.77 34.432 109.941 34.464C110.117 34.4907 110.285 34.504 110.445 34.504C110.776 34.504 111.029 34.4533 111.205 34.352C111.386 34.2507 111.477 34.1093 111.477 33.928C111.477 33.7733 111.424 33.656 111.317 33.576C111.216 33.4907 111.045 33.4267 110.805 33.384L109.981 33.24C109.613 33.1707 109.336 33.0453 109.149 32.864C108.968 32.6827 108.877 32.4453 108.877 32.152C108.877 31.9173 108.941 31.712 109.069 31.536C109.202 31.36 109.392 31.224 109.637 31.128C109.882 31.0267 110.176 30.976 110.517 30.976C110.704 30.976 110.893 30.9947 111.085 31.032C111.282 31.0693 111.464 31.1253 111.629 31.2C111.8 31.2693 111.938 31.3573 112.045 31.464L111.805 31.968C111.698 31.8667 111.57 31.7867 111.421 31.728C111.277 31.664 111.125 31.6187 110.965 31.592C110.81 31.56 110.658 31.544 110.509 31.544C110.2 31.544 109.96 31.5973 109.789 31.704C109.618 31.8053 109.533 31.9493 109.533 32.136C109.533 32.2853 109.581 32.4027 109.677 32.488C109.778 32.5733 109.941 32.6373 110.165 32.68L110.965 32.824C111.36 32.8987 111.653 33.024 111.845 33.2C112.037 33.3707 112.133 33.608 112.133 33.912C112.133 34.1467 112.064 34.352 111.925 34.528C111.786 34.6987 111.592 34.832 111.341 34.928C111.09 35.024 110.794 35.072 110.453 35.072ZM113.406 36.536L112.886 36.352C113.094 35.9627 113.264 35.576 113.398 35.192C113.531 34.8133 113.63 34.4347 113.694 34.056C113.758 33.672 113.79 33.2853 113.79 32.896C113.79 32.5067 113.758 32.1227 113.694 31.744C113.63 31.36 113.531 30.976 113.398 30.592C113.264 30.208 113.094 29.824 112.886 29.44L113.406 29.256C113.779 29.832 114.054 30.4213 114.23 31.024C114.411 31.6213 114.502 32.2453 114.502 32.896C114.502 33.5413 114.411 34.1653 114.23 34.768C114.054 35.3653 113.779 35.9547 113.406 36.536Z" fill="black"/>
<rect width="32.1739" height="42" rx="3.48" fill="#CB3335"/>
<g clip-path="url(#clip0_271_138)">
<path fill-rule="evenodd" clip-rule="evenodd" d="M16.7127 11.0088C16.7976 11.0039 16.8864 11.0171 16.9106 11.0376C16.9348 11.0581 17.5981 11.3833 18.3842 11.7607C19.1707 12.1376 20.1503 12.608 20.5616 12.8057C20.9729 13.003 22.7447 13.8521 24.4985 14.6925C26.2527 15.5325 27.7215 16.2502 27.7633 16.2871C27.8337 16.3495 27.8389 16.6936 27.8416 21.5015C27.8438 25.619 27.8328 26.6637 27.7879 26.7236C27.7571 26.7646 25.2674 27.9692 22.2551 29.4003C19.2428 30.8317 16.7391 32.0027 16.6907 32.0027C16.6423 32.0027 16.385 31.8952 16.1188 31.7644C15.8527 31.6331 13.3604 30.4379 10.5803 29.1082C6.41468 27.1153 5.51117 26.6682 5.44299 26.5669C5.37921 26.4721 5.36425 26.3877 5.37745 26.1978C5.38713 26.0624 5.42936 23.7832 5.47114 21.1323C5.51337 18.4815 5.56572 16.2666 5.58771 16.2104C5.62114 16.1247 6.52245 15.6912 11.0932 13.5629C14.7455 11.862 16.6097 11.015 16.7127 11.0088ZM6.67421 16.3507C6.67949 16.3638 7.3613 16.7104 8.19003 17.121C9.01876 17.5316 9.74632 17.8937 9.80658 17.9261C9.91215 17.9831 10.1114 17.8913 14.8762 15.5907C17.6039 14.2733 19.8208 13.1839 19.8028 13.1691C19.7848 13.1544 19.092 12.8176 18.2632 12.4206C17.4345 12.0236 16.732 11.7 16.7017 11.7012C16.6713 11.7024 14.4007 12.7438 11.6558 14.0153C8.91099 15.2868 6.66937 16.3376 6.67421 16.3507ZM13.8416 16.8052C12.1071 17.6398 10.6872 18.3318 10.6872 18.3433C10.6868 18.3543 11.1069 18.5742 11.6211 18.8313L12.5558 19.2985C13.0331 19.0709 15.2575 17.993 17.8066 16.7564C20.3557 15.5202 22.4438 14.4898 22.4473 14.4673C22.4504 14.4447 22.0435 14.2278 21.5425 13.9854C21.0419 13.7429 20.6263 13.5448 20.6188 13.5457C20.6117 13.5465 19.7931 13.9386 18.8003 14.4172C17.8075 14.8959 15.576 15.9705 13.8416 16.8052ZM16.1531 18.2694C14.5995 19.0204 13.3274 19.6492 13.3269 19.666C13.326 19.6828 14.0681 20.0659 14.9751 20.5171L16.6247 21.3374C24.3463 17.6521 26.6218 16.5587 26.6636 16.5296C26.7291 16.484 26.5175 16.3712 25.0242 15.6567C24.0806 15.2056 23.2946 14.834 23.277 14.8311C23.2594 14.8282 22.285 15.2933 21.1114 15.8647C19.9378 16.4356 17.7068 17.518 16.1531 18.2694ZM6.15955 21.5425C6.10413 24.8873 6.09577 26.2105 6.13008 26.2437C6.15603 26.2687 6.66277 26.5205 7.25529 26.8036C7.84824 27.0862 10.1343 28.1784 12.3359 29.2304C14.5375 30.2821 16.3432 31.1377 16.3489 31.1311C16.3542 31.125 16.3401 29.043 16.3172 26.5054C16.2943 23.9673 16.2701 21.8882 16.2631 21.8846C16.2565 21.8809 15.4986 21.5002 14.5793 21.0392L12.9077 20.2009C12.8646 20.3981 12.84 20.9445 12.8246 21.5425C12.8004 22.5096 12.7885 22.6409 12.7164 22.7319C12.6621 22.8003 12.5851 22.8382 12.4854 22.8455C12.3649 22.855 12.0891 22.7356 11.0624 22.2303C10.3621 21.8858 9.74368 21.5716 9.68781 21.5322L9.58664 21.4604L9.56465 18.5303C7.62127 17.5566 6.87391 17.1825 6.64958 17.071C6.42524 16.959 6.24049 16.872 6.23917 16.8774C6.23829 16.8827 6.20222 18.9819 6.15955 21.5425ZM17.0061 21.8784C16.9863 21.8854 16.9863 23.9722 17.0061 26.5156C17.0263 29.059 17.0527 31.141 17.0646 31.1414C17.0764 31.1422 19.3528 30.0651 22.1232 28.7477L27.1598 26.3528C27.1769 19.1283 27.1672 17.032 27.1488 17.0336C27.1307 17.0357 24.8495 18.1234 22.0792 19.4515C19.3088 20.7796 17.0263 21.8714 17.0061 21.8784ZM10.2473 21.1118C11.6136 21.7791 12.0337 21.9785 12.0632 21.9846C12.1019 21.9928 12.1247 21.8107 12.1489 21.3079C12.1674 20.9293 12.1819 20.4441 12.1819 20.23V19.8403C10.7501 19.125 10.3146 18.9175 10.2904 18.9175C10.2623 18.9175 10.2465 19.3104 10.2469 20.0146L10.2473 21.1118Z" fill="white"/>
</g>
<defs>
<clipPath id="clip0_271_138">
<rect width="22.5217" height="21" fill="white" transform="translate(5.36328 11)"/>
</clipPath>
</defs>
</svg>
