<svg width="148" height="42" viewBox="0 0 148 42" fill="none" xmlns="http://www.w3.org/2000/svg">
<rect x="14.1966" y="0.254237" width="133.549" height="41.4915" rx="1.77966" fill="white" stroke="#CE3439" stroke-width="0.508475"/>
<path d="M38.3681 10V4.36H40.6881C41.0935 4.36 41.4375 4.42667 41.7201 4.56C42.0028 4.69333 42.2188 4.888 42.3681 5.144C42.5228 5.39467 42.6001 5.69867 42.6001 6.056C42.6001 6.41333 42.5228 6.72 42.3681 6.976C42.2188 7.232 42.0001 7.42933 41.7121 7.568C41.4295 7.70667 41.0881 7.776 40.6881 7.776H39.0801V10H38.3681ZM39.0801 7.168H40.5841C41.0108 7.168 41.3335 7.07733 41.5521 6.896C41.7708 6.70933 41.8801 6.432 41.8801 6.064C41.8801 5.69067 41.7708 5.416 41.5521 5.24C41.3335 5.05867 41.0108 4.968 40.5841 4.968H39.0801V7.168ZM43.2603 5.096V4.304H44.1243V5.096H43.2603ZM43.3403 10V6.048H44.0523V10H43.3403ZM46.9771 10.072C46.5345 10.072 46.1505 9.992 45.8251 9.832C45.5051 9.66667 45.2598 9.432 45.0891 9.128C44.9185 8.81867 44.8331 8.45067 44.8331 8.024C44.8331 7.624 44.9131 7.272 45.0731 6.968C45.2331 6.65867 45.4598 6.416 45.7531 6.24C46.0465 6.064 46.3958 5.976 46.8011 5.976C47.1851 5.976 47.5105 6.05867 47.7771 6.224C48.0491 6.38933 48.2545 6.62133 48.3931 6.92C48.5371 7.21867 48.6091 7.57333 48.6091 7.984V8.216H45.3691V7.72H48.1451L47.9931 7.88C47.9931 7.44267 47.8891 7.10667 47.6811 6.872C47.4785 6.63733 47.1851 6.52 46.8011 6.52C46.5505 6.52 46.3265 6.57867 46.1291 6.696C45.9371 6.808 45.7878 6.968 45.6811 7.176C45.5745 7.384 45.5211 7.63733 45.5211 7.936V8.016C45.5211 8.336 45.5798 8.60533 45.6971 8.824C45.8145 9.04267 45.9825 9.208 46.2011 9.32C46.4198 9.432 46.6811 9.488 46.9851 9.488C47.2038 9.488 47.4251 9.45867 47.6491 9.4C47.8785 9.336 48.0918 9.224 48.2891 9.064L48.5291 9.576C48.3265 9.74667 48.0838 9.872 47.8011 9.952C47.5238 10.032 47.2491 10.072 46.9771 10.072ZM51.1441 10.072C50.7387 10.072 50.3867 9.98667 50.0881 9.816C49.7894 9.64533 49.5574 9.408 49.3921 9.104C49.2267 8.79467 49.1441 8.432 49.1441 8.016C49.1441 7.6 49.2267 7.24 49.3921 6.936C49.5574 6.62667 49.7894 6.38933 50.0881 6.224C50.3921 6.05867 50.7467 5.976 51.1521 5.976C51.4241 5.976 51.6827 6.02133 51.9281 6.112C52.1734 6.20267 52.3761 6.32533 52.5361 6.48L52.2881 7.008C52.1334 6.86933 51.9601 6.76533 51.7681 6.696C51.5761 6.62133 51.3894 6.584 51.2081 6.584C50.7921 6.584 50.4641 6.70933 50.2241 6.96C49.9841 7.21067 49.8641 7.56533 49.8641 8.024C49.8641 8.47733 49.9841 8.832 50.2241 9.088C50.4641 9.33867 50.7894 9.464 51.2001 9.464C51.3867 9.464 51.5734 9.42933 51.7601 9.36C51.9521 9.28533 52.1227 9.18133 52.2721 9.048L52.5201 9.576C52.3654 9.73067 52.1654 9.85333 51.9201 9.944C51.6747 10.0293 51.4161 10.072 51.1441 10.072ZM54.8724 10.072C54.4298 10.072 54.0458 9.992 53.7204 9.832C53.4004 9.66667 53.1551 9.432 52.9844 9.128C52.8138 8.81867 52.7284 8.45067 52.7284 8.024C52.7284 7.624 52.8084 7.272 52.9684 6.968C53.1284 6.65867 53.3551 6.416 53.6484 6.24C53.9418 6.064 54.2911 5.976 54.6964 5.976C55.0804 5.976 55.4058 6.05867 55.6724 6.224C55.9444 6.38933 56.1498 6.62133 56.2884 6.92C56.4324 7.21867 56.5044 7.57333 56.5044 7.984V8.216H53.2644V7.72H56.0404L55.8884 7.88C55.8884 7.44267 55.7844 7.10667 55.5764 6.872C55.3738 6.63733 55.0804 6.52 54.6964 6.52C54.4458 6.52 54.2218 6.57867 54.0244 6.696C53.8324 6.808 53.6831 6.968 53.5764 7.176C53.4698 7.384 53.4164 7.63733 53.4164 7.936V8.016C53.4164 8.336 53.4751 8.60533 53.5924 8.824C53.7098 9.04267 53.8778 9.208 54.0964 9.32C54.3151 9.432 54.5764 9.488 54.8804 9.488C55.0991 9.488 55.3204 9.45867 55.5444 9.4C55.7738 9.336 55.9871 9.224 56.1844 9.064L56.4244 9.576C56.2218 9.74667 55.9791 9.872 55.6964 9.952C55.4191 10.032 55.1444 10.072 54.8724 10.072ZM58.7354 10.072C58.5167 10.072 58.3007 10.0507 58.0874 10.008C57.8794 9.97067 57.6847 9.91733 57.5034 9.848C57.3274 9.77333 57.1754 9.68267 57.0474 9.576L57.2794 9.072C57.4127 9.17333 57.5594 9.256 57.7194 9.32C57.8847 9.384 58.0527 9.432 58.2234 9.464C58.3994 9.49067 58.5674 9.504 58.7274 9.504C59.058 9.504 59.3114 9.45333 59.4874 9.352C59.6687 9.25067 59.7594 9.10933 59.7594 8.928C59.7594 8.77333 59.706 8.656 59.5994 8.576C59.498 8.49067 59.3274 8.42667 59.0874 8.384L58.2634 8.24C57.8954 8.17067 57.618 8.04533 57.4314 7.864C57.25 7.68267 57.1594 7.44533 57.1594 7.152C57.1594 6.91733 57.2234 6.712 57.3514 6.536C57.4847 6.36 57.674 6.224 57.9194 6.128C58.1647 6.02667 58.458 5.976 58.7994 5.976C58.986 5.976 59.1754 5.99467 59.3674 6.032C59.5647 6.06933 59.746 6.12533 59.9114 6.2C60.082 6.26933 60.2207 6.35733 60.3274 6.464L60.0874 6.968C59.9807 6.86667 59.8527 6.78667 59.7034 6.728C59.5594 6.664 59.4074 6.61867 59.2474 6.592C59.0927 6.56 58.9407 6.544 58.7914 6.544C58.482 6.544 58.242 6.59733 58.0714 6.704C57.9007 6.80533 57.8154 6.94933 57.8154 7.136C57.8154 7.28533 57.8634 7.40267 57.9594 7.488C58.0607 7.57333 58.2234 7.63733 58.4474 7.68L59.2474 7.824C59.642 7.89867 59.9354 8.024 60.1274 8.2C60.3194 8.37067 60.4154 8.608 60.4154 8.912C60.4154 9.14667 60.346 9.352 60.2074 9.528C60.0687 9.69867 59.874 9.832 59.6234 9.928C59.3727 10.024 59.0767 10.072 58.7354 10.072Z" fill="#CE3439"/>
<path d="M81.5695 10.072C81.1162 10.072 80.7322 9.96267 80.4175 9.744C80.1029 9.52533 79.8629 9.21067 79.6975 8.8C79.5322 8.384 79.4495 7.88533 79.4495 7.304C79.4495 6.65333 79.5402 6.10667 79.7215 5.664C79.9029 5.216 80.1642 4.87467 80.5055 4.64C80.8469 4.40533 81.2575 4.288 81.7375 4.288C81.9509 4.288 82.1535 4.31467 82.3455 4.368C82.5375 4.416 82.7189 4.49067 82.8895 4.592C83.0602 4.69333 83.2202 4.81867 83.3695 4.968L83.1055 5.52C82.8975 5.30133 82.6789 5.14667 82.4495 5.056C82.2202 4.96 81.9829 4.912 81.7375 4.912C81.4762 4.912 81.2442 4.96267 81.0415 5.064C80.8389 5.16 80.6682 5.30667 80.5295 5.504C80.3909 5.696 80.2842 5.936 80.2095 6.224C80.1402 6.50667 80.1055 6.83733 80.1055 7.216V7.68H80.1135C80.1615 7.424 80.2575 7.20533 80.4015 7.024C80.5455 6.83733 80.7242 6.696 80.9375 6.6C81.1509 6.49867 81.3855 6.448 81.6415 6.448C81.9829 6.448 82.2815 6.52533 82.5375 6.68C82.7989 6.82933 83.0015 7.04 83.1455 7.312C83.2949 7.57867 83.3695 7.888 83.3695 8.24C83.3695 8.592 83.2922 8.90667 83.1375 9.184C82.9882 9.46133 82.7775 9.68 82.5055 9.84C82.2335 9.99467 81.9215 10.072 81.5695 10.072ZM81.5295 9.464C81.7642 9.464 81.9695 9.41333 82.1455 9.312C82.3215 9.21067 82.4575 9.06933 82.5535 8.888C82.6549 8.70667 82.7055 8.496 82.7055 8.256C82.7055 8.016 82.6549 7.808 82.5535 7.632C82.4575 7.45067 82.3215 7.30933 82.1455 7.208C81.9695 7.10667 81.7615 7.056 81.5215 7.056C81.2869 7.056 81.0789 7.10667 80.8975 7.208C80.7215 7.30933 80.5802 7.45067 80.4735 7.632C80.3722 7.808 80.3215 8.016 80.3215 8.256C80.3215 8.496 80.3722 8.70667 80.4735 8.888C80.5749 9.06933 80.7162 9.21067 80.8975 9.312C81.0789 9.41333 81.2895 9.464 81.5295 9.464ZM86.1744 10.072C85.7424 10.072 85.3771 9.96267 85.0784 9.744C84.7797 9.52 84.5531 9.19467 84.3984 8.768C84.2491 8.336 84.1744 7.80533 84.1744 7.176C84.1744 6.54667 84.2491 6.01867 84.3984 5.592C84.5531 5.16533 84.7797 4.84267 85.0784 4.624C85.3771 4.4 85.7424 4.288 86.1744 4.288C86.6171 4.288 86.9851 4.39733 87.2784 4.616C87.5717 4.83467 87.7931 5.15733 87.9424 5.584C88.0971 6.01067 88.1744 6.53867 88.1744 7.168C88.1744 7.79733 88.0971 8.328 87.9424 8.76C87.7931 9.192 87.5691 9.52 87.2704 9.744C86.9717 9.96267 86.6064 10.072 86.1744 10.072ZM86.1744 9.448C86.6117 9.448 86.9371 9.264 87.1504 8.896C87.3637 8.528 87.4704 7.952 87.4704 7.168C87.4704 6.38933 87.3637 5.81867 87.1504 5.456C86.9424 5.09333 86.6197 4.912 86.1824 4.912C85.7397 4.912 85.4117 5.096 85.1984 5.464C84.9851 5.82667 84.8784 6.39733 84.8784 7.176C84.8784 7.94933 84.9851 8.52267 85.1984 8.896C85.4117 9.264 85.7371 9.448 86.1744 9.448ZM90.9713 10.072C90.5393 10.072 90.174 9.96267 89.8753 9.744C89.5766 9.52 89.35 9.19467 89.1953 8.768C89.046 8.336 88.9713 7.80533 88.9713 7.176C88.9713 6.54667 89.046 6.01867 89.1953 5.592C89.35 5.16533 89.5766 4.84267 89.8753 4.624C90.174 4.4 90.5393 4.288 90.9713 4.288C91.414 4.288 91.782 4.39733 92.0753 4.616C92.3686 4.83467 92.59 5.15733 92.7393 5.584C92.894 6.01067 92.9713 6.53867 92.9713 7.168C92.9713 7.79733 92.894 8.328 92.7393 8.76C92.59 9.192 92.366 9.52 92.0673 9.744C91.7686 9.96267 91.4033 10.072 90.9713 10.072ZM90.9713 9.448C91.4086 9.448 91.734 9.264 91.9473 8.896C92.1606 8.528 92.2673 7.952 92.2673 7.168C92.2673 6.38933 92.1606 5.81867 91.9473 5.456C91.7393 5.09333 91.4166 4.912 90.9793 4.912C90.5366 4.912 90.2086 5.096 89.9953 5.464C89.782 5.82667 89.6753 6.39733 89.6753 7.176C89.6753 7.94933 89.782 8.52267 89.9953 8.896C90.2086 9.264 90.534 9.448 90.9713 9.448ZM95.7682 10.072C95.3362 10.072 94.9708 9.96267 94.6722 9.744C94.3735 9.52 94.1468 9.19467 93.9922 8.768C93.8428 8.336 93.7682 7.80533 93.7682 7.176C93.7682 6.54667 93.8428 6.01867 93.9922 5.592C94.1468 5.16533 94.3735 4.84267 94.6722 4.624C94.9708 4.4 95.3362 4.288 95.7682 4.288C96.2108 4.288 96.5788 4.39733 96.8722 4.616C97.1655 4.83467 97.3868 5.15733 97.5362 5.584C97.6908 6.01067 97.7682 6.53867 97.7682 7.168C97.7682 7.79733 97.6908 8.328 97.5362 8.76C97.3868 9.192 97.1628 9.52 96.8642 9.744C96.5655 9.96267 96.2002 10.072 95.7682 10.072ZM95.7682 9.448C96.2055 9.448 96.5308 9.264 96.7442 8.896C96.9575 8.528 97.0642 7.952 97.0642 7.168C97.0642 6.38933 96.9575 5.81867 96.7442 5.456C96.5362 5.09333 96.2135 4.912 95.7762 4.912C95.3335 4.912 95.0055 5.096 94.7922 5.464C94.5788 5.82667 94.4722 6.39733 94.4722 7.176C94.4722 7.94933 94.5788 8.52267 94.7922 8.896C95.0055 9.264 95.3308 9.448 95.7682 9.448ZM101.231 10V4.36H101.863L105.319 8.952H105.287V4.36H105.967V10H105.319L101.879 5.424H101.911V10H101.231ZM109.23 10.072C108.83 10.072 108.483 9.98667 108.19 9.816C107.897 9.64533 107.67 9.408 107.51 9.104C107.35 8.79467 107.27 8.432 107.27 8.016C107.27 7.60533 107.35 7.248 107.51 6.944C107.67 6.63467 107.897 6.39733 108.19 6.232C108.483 6.06133 108.83 5.976 109.23 5.976C109.63 5.976 109.974 6.06133 110.262 6.232C110.555 6.39733 110.782 6.63467 110.942 6.944C111.102 7.248 111.182 7.60533 111.182 8.016C111.182 8.432 111.102 8.79467 110.942 9.104C110.787 9.408 110.563 9.64533 110.27 9.816C109.977 9.98667 109.63 10.072 109.23 10.072ZM109.222 9.472C109.611 9.472 109.918 9.34133 110.142 9.08C110.366 8.81867 110.478 8.464 110.478 8.016C110.478 7.568 110.366 7.216 110.142 6.96C109.923 6.704 109.619 6.576 109.23 6.576C108.841 6.576 108.534 6.704 108.31 6.96C108.086 7.216 107.974 7.568 107.974 8.016C107.974 8.464 108.086 8.81867 108.31 9.08C108.539 9.34133 108.843 9.472 109.222 9.472ZM113.833 10.072C113.614 10.072 113.398 10.0507 113.185 10.008C112.977 9.97067 112.782 9.91733 112.601 9.848C112.425 9.77333 112.273 9.68267 112.145 9.576L112.377 9.072C112.51 9.17333 112.657 9.256 112.817 9.32C112.982 9.384 113.15 9.432 113.321 9.464C113.497 9.49067 113.665 9.504 113.825 9.504C114.156 9.504 114.409 9.45333 114.585 9.352C114.766 9.25067 114.857 9.10933 114.857 8.928C114.857 8.77333 114.804 8.656 114.697 8.576C114.596 8.49067 114.425 8.42667 114.185 8.384L113.361 8.24C112.993 8.17067 112.716 8.04533 112.529 7.864C112.348 7.68267 112.257 7.44533 112.257 7.152C112.257 6.91733 112.321 6.712 112.449 6.536C112.582 6.36 112.772 6.224 113.017 6.128C113.262 6.02667 113.556 5.976 113.897 5.976C114.084 5.976 114.273 5.99467 114.465 6.032C114.662 6.06933 114.844 6.12533 115.009 6.2C115.18 6.26933 115.318 6.35733 115.425 6.464L115.185 6.968C115.078 6.86667 114.95 6.78667 114.801 6.728C114.657 6.664 114.505 6.61867 114.345 6.592C114.19 6.56 114.038 6.544 113.889 6.544C113.58 6.544 113.34 6.59733 113.169 6.704C112.998 6.80533 112.913 6.94933 112.913 7.136C112.913 7.28533 112.961 7.40267 113.057 7.488C113.158 7.57333 113.321 7.63733 113.545 7.68L114.345 7.824C114.74 7.89867 115.033 8.024 115.225 8.2C115.417 8.37067 115.513 8.608 115.513 8.912C115.513 9.14667 115.444 9.352 115.305 9.528C115.166 9.69867 114.972 9.832 114.721 9.928C114.47 10.024 114.174 10.072 113.833 10.072ZM116.418 10.504L115.858 10.352L117.898 3.984L118.45 4.136L116.418 10.504ZM121.499 10.072C120.96 10.072 120.491 9.95733 120.091 9.728C119.696 9.49333 119.392 9.16 119.179 8.728C118.965 8.29067 118.859 7.77333 118.859 7.176C118.859 6.57867 118.965 6.064 119.179 5.632C119.392 5.2 119.696 4.86933 120.091 4.64C120.485 4.40533 120.955 4.288 121.499 4.288C121.893 4.288 122.253 4.34933 122.579 4.472C122.904 4.58933 123.184 4.76267 123.419 4.992L123.139 5.552C122.893 5.33333 122.64 5.176 122.379 5.08C122.123 4.984 121.835 4.936 121.515 4.936C120.917 4.936 120.448 5.128 120.107 5.512C119.771 5.89067 119.603 6.44533 119.603 7.176C119.603 7.90133 119.771 8.45867 120.107 8.848C120.443 9.232 120.912 9.424 121.515 9.424C121.835 9.424 122.123 9.376 122.379 9.28C122.64 9.184 122.893 9.02667 123.139 8.808L123.419 9.368C123.184 9.59733 122.904 9.77333 122.579 9.896C122.253 10.0133 121.893 10.072 121.499 10.072ZM126.15 10.072C125.676 10.072 125.316 9.94667 125.07 9.696C124.83 9.44533 124.71 9.088 124.71 8.624V6.632H123.91V6.048H124.734V4.872H125.422V6.048H126.838V6.632H125.422V8.56C125.422 8.864 125.489 9.09067 125.622 9.24C125.761 9.384 125.972 9.456 126.254 9.456C126.366 9.456 126.473 9.44533 126.574 9.424C126.681 9.40267 126.782 9.37067 126.878 9.328L126.99 9.888C126.884 9.94667 126.753 9.992 126.598 10.024C126.449 10.056 126.3 10.072 126.15 10.072ZM127.822 10V6.048H128.486V6.904C128.614 6.61067 128.806 6.384 129.062 6.224C129.318 6.05867 129.606 5.976 129.926 5.976C130.252 5.976 130.524 6.03467 130.742 6.152C130.961 6.264 131.124 6.44 131.23 6.68C131.342 6.91467 131.398 7.208 131.398 7.56V10H130.686V7.6C130.686 7.38667 130.657 7.20533 130.598 7.056C130.54 6.90667 130.441 6.792 130.302 6.712C130.169 6.62667 129.99 6.584 129.766 6.584C129.532 6.584 129.318 6.63733 129.126 6.744C128.94 6.85067 128.793 6.99467 128.686 7.176C128.585 7.35733 128.534 7.56 128.534 7.784V10H127.822Z" fill="black"/>
<path d="M40.2561 22.072C39.9468 22.072 39.6535 22.048 39.3761 22C39.0988 21.952 38.8455 21.88 38.6161 21.784C38.3868 21.688 38.1868 21.5707 38.0161 21.432L38.2801 20.84C38.4615 20.984 38.6535 21.1013 38.8561 21.192C39.0641 21.2773 39.2828 21.3387 39.5121 21.376C39.7468 21.4133 39.9948 21.432 40.2561 21.432C40.6988 21.432 41.0375 21.344 41.2721 21.168C41.5121 20.992 41.6321 20.752 41.6321 20.448C41.6321 20.288 41.5921 20.1547 41.5121 20.048C41.4375 19.9413 41.3175 19.8533 41.1521 19.784C40.9921 19.7147 40.7841 19.6533 40.5281 19.6L39.6081 19.424C39.0908 19.3227 38.7175 19.144 38.4881 18.888C38.2588 18.632 38.1441 18.3093 38.1441 17.92C38.1441 17.5893 38.2348 17.304 38.4161 17.064C38.6028 16.8187 38.8588 16.6293 39.1841 16.496C39.5148 16.3573 39.8908 16.288 40.3121 16.288C40.5788 16.288 40.8268 16.3147 41.0561 16.368C41.2908 16.416 41.5041 16.4907 41.6961 16.592C41.8935 16.6933 42.0695 16.816 42.2241 16.96L41.9601 17.544C41.7308 17.32 41.4801 17.1627 41.2081 17.072C40.9361 16.976 40.6348 16.928 40.3041 16.928C40.0268 16.928 39.7788 16.968 39.5601 17.048C39.3415 17.1227 39.1681 17.2347 39.0401 17.384C38.9175 17.528 38.8561 17.7067 38.8561 17.92C38.8561 18.1547 38.9308 18.3413 39.0801 18.48C39.2295 18.6133 39.4828 18.7173 39.8401 18.792L40.7521 18.968C41.2961 19.0693 41.6988 19.24 41.9601 19.48C42.2215 19.72 42.3521 20.032 42.3521 20.416C42.3521 20.736 42.2641 21.0213 42.0881 21.272C41.9175 21.5227 41.6748 21.72 41.3601 21.864C41.0508 22.0027 40.6828 22.072 40.2561 22.072ZM43.4181 17.096V16.304H44.2821V17.096H43.4181ZM43.4981 22V18.048H44.2101V22H43.4981ZM45.3989 22V21.544L47.9029 18.416L47.9429 18.64H45.4549V18.048H48.6069V18.504L46.0789 21.656L46.0389 21.408H48.6949V22H45.3989ZM51.6053 22.072C51.1626 22.072 50.7786 21.992 50.4533 21.832C50.1333 21.6667 49.8879 21.432 49.7173 21.128C49.5466 20.8187 49.4613 20.4507 49.4613 20.024C49.4613 19.624 49.5413 19.272 49.7013 18.968C49.8613 18.6587 50.0879 18.416 50.3813 18.24C50.6746 18.064 51.0239 17.976 51.4293 17.976C51.8133 17.976 52.1386 18.0587 52.4053 18.224C52.6773 18.3893 52.8826 18.6213 53.0213 18.92C53.1653 19.2187 53.2373 19.5733 53.2373 19.984V20.216H49.9973V19.72H52.7733L52.6213 19.88C52.6213 19.4427 52.5173 19.1067 52.3093 18.872C52.1066 18.6373 51.8133 18.52 51.4293 18.52C51.1786 18.52 50.9546 18.5787 50.7573 18.696C50.5653 18.808 50.4159 18.968 50.3093 19.176C50.2026 19.384 50.1493 19.6373 50.1493 19.936V20.016C50.1493 20.336 50.2079 20.6053 50.3253 20.824C50.4426 21.0427 50.6106 21.208 50.8293 21.32C51.0479 21.432 51.3093 21.488 51.6133 21.488C51.8319 21.488 52.0533 21.4587 52.2773 21.4C52.5066 21.336 52.7199 21.224 52.9173 21.064L53.1573 21.576C52.9546 21.7467 52.7119 21.872 52.4293 21.952C52.1519 22.032 51.8773 22.072 51.6053 22.072Z" fill="#CE3439"/>
<path d="M81.1759 22.072C80.9306 22.072 80.6932 22.0453 80.4639 21.992C80.2399 21.9387 80.0292 21.8613 79.8319 21.76C79.6346 21.6533 79.4586 21.5253 79.3039 21.376L79.5839 20.816C79.8292 21.04 80.0799 21.2027 80.3359 21.304C80.5972 21.4 80.8772 21.448 81.1759 21.448C81.5706 21.448 81.8772 21.3467 82.0959 21.144C82.3199 20.936 82.4319 20.6453 82.4319 20.272C82.4319 19.904 82.3279 19.6107 82.1199 19.392C81.9119 19.1733 81.6239 19.064 81.2559 19.064C81.0106 19.064 80.7866 19.1147 80.5839 19.216C80.3866 19.312 80.2026 19.4747 80.0319 19.704H79.4719V16.36H82.8479V16.976H80.1199V19.096H80.0879C80.2159 18.904 80.3919 18.7493 80.6159 18.632C80.8399 18.5093 81.0906 18.448 81.3679 18.448C81.7306 18.448 82.0426 18.5253 82.3039 18.68C82.5652 18.8293 82.7652 19.0373 82.9039 19.304C83.0479 19.5707 83.1199 19.8827 83.1199 20.24C83.1199 20.6187 83.0399 20.9467 82.8799 21.224C82.7199 21.496 82.4959 21.7067 82.2079 21.856C81.9199 22 81.5759 22.072 81.1759 22.072ZM85.9088 22.072C85.2795 22.072 84.7835 21.936 84.4208 21.664C84.0581 21.3867 83.8768 21.0027 83.8768 20.512C83.8768 20.2613 83.9248 20.04 84.0208 19.848C84.1221 19.6507 84.2608 19.4907 84.4368 19.368C84.6181 19.24 84.8261 19.1547 85.0608 19.112V19.12C84.8581 19.072 84.6768 18.984 84.5168 18.856C84.3621 18.728 84.2395 18.5733 84.1488 18.392C84.0581 18.2107 84.0128 18.0107 84.0128 17.792C84.0128 17.3227 84.1835 16.9547 84.5248 16.688C84.8715 16.4213 85.3328 16.288 85.9088 16.288C86.4848 16.288 86.9435 16.4213 87.2848 16.688C87.6315 16.9547 87.8048 17.3227 87.8048 17.792C87.8048 18.0053 87.7595 18.2053 87.6688 18.392C87.5781 18.5733 87.4528 18.728 87.2928 18.856C87.1381 18.984 86.9568 19.072 86.7488 19.12V19.112C86.9781 19.1493 87.1808 19.232 87.3568 19.36C87.5381 19.488 87.6795 19.6507 87.7808 19.848C87.8875 20.04 87.9408 20.2613 87.9408 20.512C87.9408 21.0027 87.7595 21.3867 87.3968 21.664C87.0395 21.936 86.5435 22.072 85.9088 22.072ZM85.9088 21.472C86.3515 21.472 86.6875 21.3867 86.9168 21.216C87.1515 21.0453 87.2688 20.7947 87.2688 20.464C87.2688 20.1333 87.1515 19.88 86.9168 19.704C86.6875 19.528 86.3515 19.44 85.9088 19.44C85.4661 19.44 85.1275 19.528 84.8928 19.704C84.6635 19.88 84.5488 20.1333 84.5488 20.464C84.5488 20.7947 84.6635 21.0453 84.8928 21.216C85.1275 21.3867 85.4661 21.472 85.9088 21.472ZM85.9088 18.84C86.2928 18.84 86.5941 18.7547 86.8128 18.584C87.0315 18.408 87.1408 18.1653 87.1408 17.856C87.1408 17.552 87.0315 17.3147 86.8128 17.144C86.5941 16.968 86.2928 16.88 85.9088 16.88C85.5301 16.88 85.2315 16.968 85.0128 17.144C84.7941 17.3147 84.6848 17.552 84.6848 17.856C84.6848 18.1653 84.7941 18.408 85.0128 18.584C85.2315 18.7547 85.5301 18.84 85.9088 18.84ZM90.7697 22.072C90.5243 22.072 90.287 22.0453 90.0577 21.992C89.8337 21.9387 89.623 21.8613 89.4257 21.76C89.2283 21.6533 89.0523 21.5253 88.8977 21.376L89.1777 20.816C89.423 21.04 89.6737 21.2027 89.9297 21.304C90.191 21.4 90.471 21.448 90.7697 21.448C91.1643 21.448 91.471 21.3467 91.6897 21.144C91.9137 20.936 92.0257 20.6453 92.0257 20.272C92.0257 19.904 91.9217 19.6107 91.7137 19.392C91.5057 19.1733 91.2177 19.064 90.8497 19.064C90.6043 19.064 90.3803 19.1147 90.1777 19.216C89.9803 19.312 89.7963 19.4747 89.6257 19.704H89.0657V16.36H92.4417V16.976H89.7137V19.096H89.6817C89.8097 18.904 89.9857 18.7493 90.2097 18.632C90.4337 18.5093 90.6843 18.448 90.9617 18.448C91.3243 18.448 91.6363 18.5253 91.8977 18.68C92.159 18.8293 92.359 19.0373 92.4977 19.304C92.6417 19.5707 92.7137 19.8827 92.7137 20.24C92.7137 20.6187 92.6337 20.9467 92.4737 21.224C92.3137 21.496 92.0897 21.7067 91.8017 21.856C91.5137 22 91.1697 22.072 90.7697 22.072ZM95.5289 22L97.6169 18.976V19.24L95.6409 16.36H96.4649L98.0649 18.712H98.0249L99.6249 16.36H100.449L98.4569 19.24V18.976L100.553 22H99.7209L98.0089 19.496H98.0649L96.3529 22H95.5289ZM105.442 22.072C105.196 22.072 104.959 22.0453 104.73 21.992C104.506 21.9387 104.295 21.8613 104.098 21.76C103.9 21.6533 103.724 21.5253 103.57 21.376L103.85 20.816C104.095 21.04 104.346 21.2027 104.602 21.304C104.863 21.4 105.143 21.448 105.442 21.448C105.836 21.448 106.143 21.3467 106.362 21.144C106.586 20.936 106.698 20.6453 106.698 20.272C106.698 19.904 106.594 19.6107 106.386 19.392C106.178 19.1733 105.89 19.064 105.522 19.064C105.276 19.064 105.052 19.1147 104.85 19.216C104.652 19.312 104.468 19.4747 104.298 19.704H103.738V16.36H107.114V16.976H104.386V19.096H104.354C104.482 18.904 104.658 18.7493 104.882 18.632C105.106 18.5093 105.356 18.448 105.634 18.448C105.996 18.448 106.308 18.5253 106.57 18.68C106.831 18.8293 107.031 19.0373 107.17 19.304C107.314 19.5707 107.386 19.8827 107.386 20.24C107.386 20.6187 107.306 20.9467 107.146 21.224C106.986 21.496 106.762 21.7067 106.474 21.856C106.186 22 105.842 22.072 105.442 22.072ZM108.43 22V21.472L110.414 19.392C110.606 19.1893 110.756 19.0053 110.862 18.84C110.969 18.6747 111.046 18.5147 111.094 18.36C111.142 18.2053 111.166 18.048 111.166 17.888C111.166 17.5733 111.065 17.3333 110.862 17.168C110.665 16.9973 110.39 16.912 110.038 16.912C109.772 16.912 109.508 16.9653 109.246 17.072C108.99 17.1733 108.745 17.336 108.51 17.56L108.238 17C108.473 16.776 108.753 16.6027 109.078 16.48C109.404 16.352 109.74 16.288 110.086 16.288C110.454 16.288 110.772 16.352 111.038 16.48C111.305 16.6027 111.508 16.7813 111.646 17.016C111.79 17.2453 111.862 17.5227 111.862 17.848C111.862 18.0133 111.844 18.176 111.806 18.336C111.769 18.4907 111.71 18.6453 111.63 18.8C111.556 18.9547 111.457 19.1147 111.334 19.28C111.212 19.4453 111.062 19.6187 110.886 19.8L109.334 21.416V21.384H112.094V22H108.43ZM115.035 22.072C114.79 22.072 114.553 22.0453 114.323 21.992C114.099 21.9387 113.889 21.8613 113.691 21.76C113.494 21.6533 113.318 21.5253 113.163 21.376L113.443 20.816C113.689 21.04 113.939 21.2027 114.195 21.304C114.457 21.4 114.737 21.448 115.035 21.448C115.43 21.448 115.737 21.3467 115.955 21.144C116.179 20.936 116.291 20.6453 116.291 20.272C116.291 19.904 116.187 19.6107 115.979 19.392C115.771 19.1733 115.483 19.064 115.115 19.064C114.87 19.064 114.646 19.1147 114.443 19.216C114.246 19.312 114.062 19.4747 113.891 19.704H113.331V16.36H116.707V16.976H113.979V19.096H113.947C114.075 18.904 114.251 18.7493 114.475 18.632C114.699 18.5093 114.95 18.448 115.227 18.448C115.59 18.448 115.902 18.5253 116.163 18.68C116.425 18.8293 116.625 19.0373 116.763 19.304C116.907 19.5707 116.979 19.8827 116.979 20.24C116.979 20.6187 116.899 20.9467 116.739 21.224C116.579 21.496 116.355 21.7067 116.067 21.856C115.779 22 115.435 22.072 115.035 22.072ZM117.576 22L119.208 19.784L119.224 20.168L117.656 18.048H118.456L119.576 19.568H119.528L120.64 18.048H121.448L119.88 20.152L119.896 19.8L121.528 22H120.712L119.52 20.384H119.576L118.384 22H117.576ZM126.562 22.072C126.108 22.072 125.724 21.9627 125.41 21.744C125.095 21.5253 124.855 21.2107 124.69 20.8C124.524 20.384 124.442 19.8853 124.442 19.304C124.442 18.6533 124.532 18.1067 124.714 17.664C124.895 17.216 125.156 16.8747 125.498 16.64C125.839 16.4053 126.25 16.288 126.73 16.288C126.943 16.288 127.146 16.3147 127.338 16.368C127.53 16.416 127.711 16.4907 127.882 16.592C128.052 16.6933 128.212 16.8187 128.362 16.968L128.098 17.52C127.89 17.3013 127.671 17.1467 127.442 17.056C127.212 16.96 126.975 16.912 126.73 16.912C126.468 16.912 126.236 16.9627 126.034 17.064C125.831 17.16 125.66 17.3067 125.522 17.504C125.383 17.696 125.276 17.936 125.202 18.224C125.132 18.5067 125.098 18.8373 125.098 19.216V19.68H125.106C125.154 19.424 125.25 19.2053 125.394 19.024C125.538 18.8373 125.716 18.696 125.93 18.6C126.143 18.4987 126.378 18.448 126.634 18.448C126.975 18.448 127.274 18.5253 127.53 18.68C127.791 18.8293 127.994 19.04 128.138 19.312C128.287 19.5787 128.362 19.888 128.362 20.24C128.362 20.592 128.284 20.9067 128.13 21.184C127.98 21.4613 127.77 21.68 127.498 21.84C127.226 21.9947 126.914 22.072 126.562 22.072ZM126.522 21.464C126.756 21.464 126.962 21.4133 127.138 21.312C127.314 21.2107 127.45 21.0693 127.546 20.888C127.647 20.7067 127.698 20.496 127.698 20.256C127.698 20.016 127.647 19.808 127.546 19.632C127.45 19.4507 127.314 19.3093 127.138 19.208C126.962 19.1067 126.754 19.056 126.514 19.056C126.279 19.056 126.071 19.1067 125.89 19.208C125.714 19.3093 125.572 19.4507 125.466 19.632C125.364 19.808 125.314 20.016 125.314 20.256C125.314 20.496 125.364 20.7067 125.466 20.888C125.567 21.0693 125.708 21.2107 125.89 21.312C126.071 21.4133 126.282 21.464 126.522 21.464ZM129.503 22V21.392H131.047V16.928L131.423 16.984L129.783 18.04L129.463 17.488L131.231 16.36H131.751V21.392H133.175V22H129.503ZM135.963 22.072C135.531 22.072 135.166 21.9627 134.867 21.744C134.569 21.52 134.342 21.1947 134.187 20.768C134.038 20.336 133.963 19.8053 133.963 19.176C133.963 18.5467 134.038 18.0187 134.187 17.592C134.342 17.1653 134.569 16.8427 134.867 16.624C135.166 16.4 135.531 16.288 135.963 16.288C136.406 16.288 136.774 16.3973 137.067 16.616C137.361 16.8347 137.582 17.1573 137.731 17.584C137.886 18.0107 137.963 18.5387 137.963 19.168C137.963 19.7973 137.886 20.328 137.731 20.76C137.582 21.192 137.358 21.52 137.059 21.744C136.761 21.9627 136.395 22.072 135.963 22.072ZM135.963 21.448C136.401 21.448 136.726 21.264 136.939 20.896C137.153 20.528 137.259 19.952 137.259 19.168C137.259 18.3893 137.153 17.8187 136.939 17.456C136.731 17.0933 136.409 16.912 135.971 16.912C135.529 16.912 135.201 17.096 134.987 17.464C134.774 17.8267 134.667 18.3973 134.667 19.176C134.667 19.9493 134.774 20.5227 134.987 20.896C135.201 21.264 135.526 21.448 135.963 21.448Z" fill="black"/>
<path d="M39.7041 35L37.8961 29.36H38.6481L40.1201 34.144H40.0481L41.6881 29.36H42.2721L43.8961 34.144H43.8401L45.3281 29.36H46.0481L44.2321 35H43.5521L41.9601 30.344H41.9921L40.3681 35H39.7041ZM48.5584 35.072C48.1157 35.072 47.7317 34.992 47.4064 34.832C47.0864 34.6667 46.841 34.432 46.6704 34.128C46.4997 33.8187 46.4144 33.4507 46.4144 33.024C46.4144 32.624 46.4944 32.272 46.6544 31.968C46.8144 31.6587 47.041 31.416 47.3344 31.24C47.6277 31.064 47.977 30.976 48.3824 30.976C48.7664 30.976 49.0917 31.0587 49.3584 31.224C49.6304 31.3893 49.8357 31.6213 49.9744 31.92C50.1184 32.2187 50.1904 32.5733 50.1904 32.984V33.216H46.9504V32.72H49.7264L49.5744 32.88C49.5744 32.4427 49.4704 32.1067 49.2624 31.872C49.0597 31.6373 48.7664 31.52 48.3824 31.52C48.1317 31.52 47.9077 31.5787 47.7104 31.696C47.5184 31.808 47.369 31.968 47.2624 32.176C47.1557 32.384 47.1024 32.6373 47.1024 32.936V33.016C47.1024 33.336 47.161 33.6053 47.2784 33.824C47.3957 34.0427 47.5637 34.208 47.7824 34.32C48.001 34.432 48.2624 34.488 48.5664 34.488C48.785 34.488 49.0064 34.4587 49.2304 34.4C49.4597 34.336 49.673 34.224 49.8704 34.064L50.1104 34.576C49.9077 34.7467 49.665 34.872 49.3824 34.952C49.105 35.032 48.8304 35.072 48.5584 35.072ZM51.2853 30.096V29.304H52.1493V30.096H51.2853ZM51.3653 35V31.048H52.0773V35H51.3653ZM55.2101 36.512C54.8955 36.512 54.5835 36.464 54.2741 36.368C53.9648 36.2773 53.7008 36.152 53.4821 35.992L53.7061 35.44C53.8555 35.536 54.0128 35.6187 54.1781 35.688C54.3435 35.7627 54.5115 35.816 54.6821 35.848C54.8581 35.8853 55.0315 35.904 55.2021 35.904C55.6128 35.904 55.9328 35.8 56.1621 35.592C56.3968 35.384 56.5141 35.088 56.5141 34.704V33.976H56.4981C56.4021 34.248 56.2288 34.4693 55.9781 34.64C55.7275 34.8053 55.4368 34.888 55.1061 34.888C54.7328 34.888 54.4075 34.808 54.1301 34.648C53.8528 34.4827 53.6368 34.2533 53.4821 33.96C53.3328 33.6667 53.2581 33.3227 53.2581 32.928C53.2581 32.5387 53.3328 32.1973 53.4821 31.904C53.6368 31.6107 53.8528 31.384 54.1301 31.224C54.4075 31.0587 54.7328 30.976 55.1061 30.976C55.4368 30.976 55.7275 31.0613 55.9781 31.232C56.2341 31.4027 56.4101 31.6293 56.5061 31.912H56.5141V31.048H57.1781V34.64C57.1781 35.024 57.0981 35.3547 56.9381 35.632C56.7835 35.9147 56.5595 36.1307 56.2661 36.28C55.9728 36.4347 55.6208 36.512 55.2101 36.512ZM55.2261 34.304C55.6155 34.304 55.9221 34.1787 56.1461 33.928C56.3755 33.6773 56.4901 33.344 56.4901 32.928C56.4901 32.512 56.3755 32.1813 56.1461 31.936C55.9221 31.6853 55.6155 31.56 55.2261 31.56C54.8421 31.56 54.5355 31.6853 54.3061 31.936C54.0821 32.1813 53.9701 32.512 53.9701 32.928C53.9701 33.344 54.0821 33.6773 54.3061 33.928C54.5355 34.1787 54.8421 34.304 55.2261 34.304ZM58.5997 35V29.36H59.2877V31.888C59.405 31.6053 59.589 31.384 59.8397 31.224C60.0957 31.0587 60.3837 30.976 60.7037 30.976C61.029 30.976 61.301 31.0347 61.5197 31.152C61.7384 31.264 61.901 31.44 62.0077 31.68C62.1197 31.9147 62.1757 32.208 62.1757 32.56V35H61.4637V32.6C61.4637 32.3867 61.4317 32.2053 61.3677 32.056C61.309 31.9067 61.213 31.792 61.0797 31.712C60.9464 31.6267 60.7677 31.584 60.5437 31.584C60.309 31.584 60.0984 31.6373 59.9117 31.744C59.725 31.8507 59.5784 31.9947 59.4717 32.176C59.365 32.3573 59.3117 32.56 59.3117 32.784V35H58.5997ZM65.2481 35.072C64.7734 35.072 64.4134 34.9467 64.1681 34.696C63.9281 34.4453 63.8081 34.088 63.8081 33.624V31.632H63.0081V31.048H63.8321V29.872H64.5201V31.048H65.9361V31.632H64.5201V33.56C64.5201 33.864 64.5867 34.0907 64.7201 34.24C64.8587 34.384 65.0694 34.456 65.3521 34.456C65.4641 34.456 65.5707 34.4453 65.6721 34.424C65.7787 34.4027 65.8801 34.3707 65.9761 34.328L66.0881 34.888C65.9814 34.9467 65.8507 34.992 65.6961 35.024C65.5467 35.056 65.3974 35.072 65.2481 35.072Z" fill="#CE3439"/>
<path d="M79.4421 35V34.472L81.4261 32.392C81.6181 32.1893 81.7675 32.0053 81.8741 31.84C81.9808 31.6747 82.0581 31.5147 82.1061 31.36C82.1541 31.2053 82.1781 31.048 82.1781 30.888C82.1781 30.5733 82.0768 30.3333 81.8741 30.168C81.6768 29.9973 81.4021 29.912 81.0501 29.912C80.7835 29.912 80.5195 29.9653 80.2581 30.072C80.0021 30.1733 79.7568 30.336 79.5221 30.56L79.2501 30C79.4848 29.776 79.7648 29.6027 80.0901 29.48C80.4155 29.352 80.7515 29.288 81.0981 29.288C81.4661 29.288 81.7835 29.352 82.0501 29.48C82.3168 29.6027 82.5195 29.7813 82.6581 30.016C82.8021 30.2453 82.8741 30.5227 82.8741 30.848C82.8741 31.0133 82.8555 31.176 82.8181 31.336C82.7808 31.4907 82.7221 31.6453 82.6421 31.8C82.5675 31.9547 82.4688 32.1147 82.3461 32.28C82.2235 32.4453 82.0741 32.6187 81.8981 32.8L80.3461 34.416V34.384H83.1061V35H79.4421ZM85.903 35.072C85.6683 35.072 85.4363 35.048 85.207 35C84.9777 34.952 84.759 34.8773 84.551 34.776C84.3483 34.6747 84.1617 34.5493 83.991 34.4L84.263 33.84C84.519 34.0587 84.7857 34.216 85.063 34.312C85.3403 34.4027 85.6203 34.448 85.903 34.448C86.1377 34.448 86.3483 34.4133 86.535 34.344C86.727 34.2693 86.8763 34.16 86.983 34.016C87.095 33.8667 87.151 33.6747 87.151 33.44C87.151 33.1147 87.0417 32.8693 86.823 32.704C86.6043 32.5333 86.287 32.448 85.871 32.448H85.023V31.832H85.767C86.007 31.832 86.2203 31.7947 86.407 31.72C86.599 31.64 86.7483 31.5227 86.855 31.368C86.9617 31.2133 87.015 31.0213 87.015 30.792C87.015 30.4987 86.9137 30.28 86.711 30.136C86.5083 29.9867 86.247 29.912 85.927 29.912C85.6443 29.912 85.367 29.96 85.095 30.056C84.8283 30.152 84.583 30.3173 84.359 30.552L84.095 30C84.319 29.76 84.5963 29.5813 84.927 29.464C85.2577 29.3467 85.6017 29.288 85.959 29.288C86.3163 29.288 86.623 29.3467 86.879 29.464C87.1403 29.576 87.343 29.7413 87.487 29.96C87.631 30.1733 87.703 30.432 87.703 30.736C87.703 31.056 87.6123 31.3387 87.431 31.584C87.2497 31.8293 87.0043 32.0027 86.695 32.104V32.096C86.919 32.1387 87.1163 32.2213 87.287 32.344C87.4577 32.4613 87.5937 32.616 87.695 32.808C87.7963 32.9947 87.847 33.216 87.847 33.472C87.847 33.808 87.7643 34.096 87.599 34.336C87.439 34.576 87.2123 34.76 86.919 34.888C86.631 35.0107 86.2923 35.072 85.903 35.072ZM88.9559 35V34.12H89.8679V35H88.9559ZM92.9064 35.072C92.661 35.072 92.4237 35.0453 92.1944 34.992C91.9704 34.9387 91.7597 34.8613 91.5624 34.76C91.365 34.6533 91.189 34.5253 91.0344 34.376L91.3144 33.816C91.5597 34.04 91.8104 34.2027 92.0664 34.304C92.3277 34.4 92.6077 34.448 92.9064 34.448C93.301 34.448 93.6077 34.3467 93.8264 34.144C94.0504 33.936 94.1624 33.6453 94.1624 33.272C94.1624 32.904 94.0584 32.6107 93.8504 32.392C93.6424 32.1733 93.3544 32.064 92.9864 32.064C92.741 32.064 92.517 32.1147 92.3144 32.216C92.117 32.312 91.933 32.4747 91.7624 32.704H91.2024V29.36H94.5784V29.976H91.8504V32.096H91.8184C91.9464 31.904 92.1224 31.7493 92.3464 31.632C92.5704 31.5093 92.821 31.448 93.0984 31.448C93.461 31.448 93.773 31.5253 94.0344 31.68C94.2957 31.8293 94.4957 32.0373 94.6344 32.304C94.7784 32.5707 94.8504 32.8827 94.8504 33.24C94.8504 33.6187 94.7704 33.9467 94.6104 34.224C94.4504 34.496 94.2264 34.7067 93.9384 34.856C93.6504 35 93.3064 35.072 92.9064 35.072ZM97.1273 36.536C96.7486 35.96 96.4686 35.3733 96.2873 34.776C96.1113 34.1733 96.0233 33.5467 96.0233 32.896C96.0233 32.2453 96.1113 31.6213 96.2873 31.024C96.4686 30.4267 96.7486 29.8373 97.1273 29.256L97.6393 29.44C97.4366 29.8187 97.2686 30.2 97.1353 30.584C97.0019 30.968 96.9006 31.352 96.8313 31.736C96.7673 32.1147 96.7353 32.5013 96.7353 32.896C96.7353 33.2853 96.7673 33.672 96.8313 34.056C96.9006 34.44 97.0019 34.8213 97.1353 35.2C97.2686 35.584 97.4366 35.968 97.6393 36.352L97.1273 36.536ZM98.7588 35V29.36H99.4708V31.904H99.5028L102.183 29.36H103.087L99.9748 32.312L100.023 31.92L103.279 35H102.327L99.5028 32.352H99.4708V35H98.7588ZM105.609 36.512C105.294 36.512 104.982 36.464 104.673 36.368C104.363 36.2773 104.099 36.152 103.881 35.992L104.105 35.44C104.254 35.536 104.411 35.6187 104.577 35.688C104.742 35.7627 104.91 35.816 105.081 35.848C105.257 35.8853 105.43 35.904 105.601 35.904C106.011 35.904 106.331 35.8 106.561 35.592C106.795 35.384 106.913 35.088 106.913 34.704V33.976H106.897C106.801 34.248 106.627 34.4693 106.377 34.64C106.126 34.8053 105.835 34.888 105.505 34.888C105.131 34.888 104.806 34.808 104.529 34.648C104.251 34.4827 104.035 34.2533 103.881 33.96C103.731 33.6667 103.657 33.3227 103.657 32.928C103.657 32.5387 103.731 32.1973 103.881 31.904C104.035 31.6107 104.251 31.384 104.529 31.224C104.806 31.0587 105.131 30.976 105.505 30.976C105.835 30.976 106.126 31.0613 106.377 31.232C106.633 31.4027 106.809 31.6293 106.905 31.912H106.913V31.048H107.577V34.64C107.577 35.024 107.497 35.3547 107.337 35.632C107.182 35.9147 106.958 36.1307 106.665 36.28C106.371 36.4347 106.019 36.512 105.609 36.512ZM105.625 34.304C106.014 34.304 106.321 34.1787 106.545 33.928C106.774 33.6773 106.889 33.344 106.889 32.928C106.889 32.512 106.774 32.1813 106.545 31.936C106.321 31.6853 106.014 31.56 105.625 31.56C105.241 31.56 104.934 31.6853 104.705 31.936C104.481 32.1813 104.369 32.512 104.369 32.928C104.369 33.344 104.481 33.6773 104.705 33.928C104.934 34.1787 105.241 34.304 105.625 34.304ZM110.454 35.072C110.235 35.072 110.019 35.0507 109.806 35.008C109.598 34.9707 109.403 34.9173 109.222 34.848C109.046 34.7733 108.894 34.6827 108.766 34.576L108.998 34.072C109.131 34.1733 109.278 34.256 109.438 34.32C109.603 34.384 109.771 34.432 109.942 34.464C110.118 34.4907 110.286 34.504 110.446 34.504C110.777 34.504 111.03 34.4533 111.206 34.352C111.387 34.2507 111.478 34.1093 111.478 33.928C111.478 33.7733 111.425 33.656 111.318 33.576C111.217 33.4907 111.046 33.4267 110.806 33.384L109.982 33.24C109.614 33.1707 109.337 33.0453 109.15 32.864C108.969 32.6827 108.878 32.4453 108.878 32.152C108.878 31.9173 108.942 31.712 109.07 31.536C109.203 31.36 109.393 31.224 109.638 31.128C109.883 31.0267 110.177 30.976 110.518 30.976C110.705 30.976 110.894 30.9947 111.086 31.032C111.283 31.0693 111.465 31.1253 111.63 31.2C111.801 31.2693 111.939 31.3573 112.046 31.464L111.806 31.968C111.699 31.8667 111.571 31.7867 111.422 31.728C111.278 31.664 111.126 31.6187 110.966 31.592C110.811 31.56 110.659 31.544 110.51 31.544C110.201 31.544 109.961 31.5973 109.79 31.704C109.619 31.8053 109.534 31.9493 109.534 32.136C109.534 32.2853 109.582 32.4027 109.678 32.488C109.779 32.5733 109.942 32.6373 110.166 32.68L110.966 32.824C111.361 32.8987 111.654 33.024 111.846 33.2C112.038 33.3707 112.134 33.608 112.134 33.912C112.134 34.1467 112.065 34.352 111.926 34.528C111.787 34.6987 111.593 34.832 111.342 34.928C111.091 35.024 110.795 35.072 110.454 35.072ZM113.407 36.536L112.887 36.352C113.095 35.9627 113.265 35.576 113.399 35.192C113.532 34.8133 113.631 34.4347 113.695 34.056C113.759 33.672 113.791 33.2853 113.791 32.896C113.791 32.5067 113.759 32.1227 113.695 31.744C113.631 31.36 113.532 30.976 113.399 30.592C113.265 30.208 113.095 29.824 112.887 29.44L113.407 29.256C113.78 29.832 114.055 30.4213 114.231 31.024C114.412 31.6213 114.503 32.2453 114.503 32.896C114.503 33.5413 114.412 34.1653 114.231 34.768C114.055 35.3653 113.78 35.9547 113.407 36.536Z" fill="black"/>
<rect width="32.1739" height="42" rx="3.48" fill="#CB3335"/>
<g clip-path="url(#clip0_243_128)">
<path fill-rule="evenodd" clip-rule="evenodd" d="M16.7127 11.0088C16.7976 11.0039 16.8864 11.0171 16.9106 11.0376C16.9348 11.0581 17.5981 11.3833 18.3842 11.7607C19.1707 12.1376 20.1503 12.608 20.5616 12.8057C20.9729 13.003 22.7447 13.8521 24.4985 14.6925C26.2527 15.5325 27.7215 16.2502 27.7633 16.2871C27.8337 16.3495 27.8389 16.6936 27.8416 21.5015C27.8438 25.619 27.8328 26.6637 27.7879 26.7236C27.7571 26.7646 25.2674 27.9692 22.2551 29.4003C19.2428 30.8317 16.7391 32.0027 16.6907 32.0027C16.6423 32.0027 16.385 31.8952 16.1188 31.7644C15.8527 31.6331 13.3604 30.4379 10.5803 29.1082C6.41468 27.1153 5.51117 26.6682 5.44299 26.5669C5.37921 26.4721 5.36425 26.3877 5.37745 26.1978C5.38713 26.0624 5.42936 23.7832 5.47114 21.1323C5.51337 18.4815 5.56572 16.2666 5.58771 16.2104C5.62114 16.1247 6.52245 15.6912 11.0932 13.5629C14.7455 11.862 16.6097 11.015 16.7127 11.0088ZM6.67421 16.3507C6.67949 16.3638 7.3613 16.7104 8.19003 17.121C9.01876 17.5316 9.74632 17.8937 9.80658 17.9261C9.91215 17.9831 10.1114 17.8913 14.8762 15.5907C17.6039 14.2733 19.8208 13.1839 19.8028 13.1691C19.7848 13.1544 19.092 12.8176 18.2632 12.4206C17.4345 12.0236 16.732 11.7 16.7017 11.7012C16.6713 11.7024 14.4007 12.7438 11.6558 14.0153C8.91099 15.2868 6.66937 16.3376 6.67421 16.3507ZM13.8416 16.8052C12.1071 17.6398 10.6872 18.3318 10.6872 18.3433C10.6868 18.3543 11.1069 18.5742 11.6211 18.8313L12.5558 19.2985C13.0331 19.0709 15.2575 17.993 17.8066 16.7564C20.3557 15.5202 22.4438 14.4898 22.4473 14.4673C22.4504 14.4447 22.0435 14.2278 21.5425 13.9854C21.0419 13.7429 20.6263 13.5448 20.6188 13.5457C20.6117 13.5465 19.7931 13.9386 18.8003 14.4172C17.8075 14.8959 15.576 15.9705 13.8416 16.8052ZM16.1531 18.2694C14.5995 19.0204 13.3274 19.6492 13.3269 19.666C13.326 19.6828 14.0681 20.0659 14.9751 20.5171L16.6247 21.3374C24.3463 17.6521 26.6218 16.5587 26.6636 16.5296C26.7291 16.484 26.5175 16.3712 25.0242 15.6567C24.0806 15.2056 23.2946 14.834 23.277 14.8311C23.2594 14.8282 22.285 15.2933 21.1114 15.8647C19.9378 16.4356 17.7068 17.518 16.1531 18.2694ZM6.15955 21.5425C6.10413 24.8873 6.09577 26.2105 6.13008 26.2437C6.15603 26.2687 6.66277 26.5205 7.25529 26.8036C7.84824 27.0862 10.1343 28.1784 12.3359 29.2304C14.5375 30.2821 16.3432 31.1377 16.3489 31.1311C16.3542 31.125 16.3401 29.043 16.3172 26.5054C16.2943 23.9673 16.2701 21.8882 16.2631 21.8845C16.2565 21.8809 15.4986 21.5002 14.5793 21.0392L12.9077 20.2009C12.8646 20.3981 12.84 20.9445 12.8246 21.5425C12.8004 22.5096 12.7885 22.6409 12.7164 22.7319C12.6621 22.8003 12.5851 22.8382 12.4854 22.8455C12.3649 22.855 12.0891 22.7356 11.0624 22.2303C10.3621 21.8858 9.74368 21.5716 9.68781 21.5322L9.58664 21.4604L9.56465 18.5303C7.62127 17.5566 6.87391 17.1825 6.64958 17.071C6.42524 16.959 6.24049 16.872 6.23917 16.8774C6.23829 16.8827 6.20222 18.9819 6.15955 21.5425ZM17.0061 21.8784C16.9863 21.8854 16.9863 23.9722 17.0061 26.5156C17.0263 29.059 17.0527 31.141 17.0646 31.1414C17.0764 31.1422 19.3528 30.0651 22.1232 28.7477L27.1598 26.3528C27.1769 19.1283 27.1672 17.032 27.1488 17.0336C27.1307 17.0357 24.8495 18.1234 22.0792 19.4515C19.3088 20.7796 17.0263 21.8714 17.0061 21.8784ZM10.2473 21.1118C11.6136 21.7791 12.0337 21.9785 12.0632 21.9846C12.1019 21.9928 12.1247 21.8107 12.1489 21.3079C12.1674 20.9293 12.1819 20.4441 12.1819 20.23V19.8403C10.7501 19.125 10.3146 18.9175 10.2904 18.9175C10.2623 18.9175 10.2465 19.3104 10.2469 20.0146L10.2473 21.1118Z" fill="white"/>
</g>
<defs>
<clipPath id="clip0_243_128">
<rect width="22.5217" height="21" fill="white" transform="translate(5.3623 11)"/>
</clipPath>
</defs>
</svg>
