<svg width="146" height="30" viewBox="0 0 146 30" fill="none" xmlns="http://www.w3.org/2000/svg">
<path d="M0.256 6L2.736 0.36H3.376L5.856 6H5.112L4.424 4.392L4.776 4.616H1.336L1.68 4.392L1 6H0.256ZM3.04 1.176L1.776 4.16L1.576 4.008H4.536L4.336 4.16L3.072 1.176H3.04ZM11.0638 6.072C10.7544 6.072 10.4611 6.048 10.1838 6C9.90642 5.952 9.65308 5.88 9.42375 5.784C9.19442 5.688 8.99442 5.57067 8.82375 5.432L9.08775 4.84C9.26908 4.984 9.46108 5.10133 9.66375 5.192C9.87175 5.27733 10.0904 5.33867 10.3198 5.376C10.5544 5.41333 10.8024 5.432 11.0638 5.432C11.5064 5.432 11.8451 5.344 12.0798 5.168C12.3198 4.992 12.4398 4.752 12.4398 4.448C12.4398 4.288 12.3998 4.15467 12.3198 4.048C12.2451 3.94133 12.1251 3.85333 11.9598 3.784C11.7998 3.71467 11.5918 3.65333 11.3358 3.6L10.4158 3.424C9.89842 3.32267 9.52508 3.144 9.29575 2.888C9.06642 2.632 8.95175 2.30933 8.95175 1.92C8.95175 1.58933 9.04242 1.304 9.22375 1.064C9.41042 0.818666 9.66642 0.629333 9.99175 0.496C10.3224 0.357333 10.6984 0.288 11.1198 0.288C11.3864 0.288 11.6344 0.314666 11.8638 0.368C12.0984 0.416 12.3118 0.490666 12.5038 0.592C12.7011 0.693333 12.8771 0.816 13.0318 0.96L12.7678 1.544C12.5384 1.32 12.2878 1.16267 12.0158 1.072C11.7438 0.976 11.4424 0.928 11.1118 0.928C10.8344 0.928 10.5864 0.968 10.3678 1.048C10.1491 1.12267 9.97575 1.23467 9.84775 1.384C9.72508 1.528 9.66375 1.70667 9.66375 1.92C9.66375 2.15467 9.73842 2.34133 9.88775 2.48C10.0371 2.61333 10.2904 2.71733 10.6478 2.792L11.5598 2.968C12.1038 3.06933 12.5064 3.24 12.7678 3.48C13.0291 3.72 13.1598 4.032 13.1598 4.416C13.1598 4.736 13.0718 5.02133 12.8958 5.272C12.7251 5.52267 12.4824 5.72 12.1678 5.864C11.8584 6.00267 11.4904 6.072 11.0638 6.072ZM16.2098 6.072C15.7671 6.072 15.3831 5.992 15.0578 5.832C14.7378 5.66667 14.4924 5.432 14.3218 5.128C14.1511 4.81867 14.0658 4.45067 14.0658 4.024C14.0658 3.624 14.1458 3.272 14.3058 2.968C14.4658 2.65867 14.6924 2.416 14.9858 2.24C15.2791 2.064 15.6284 1.976 16.0338 1.976C16.4178 1.976 16.7431 2.05867 17.0098 2.224C17.2818 2.38933 17.4871 2.62133 17.6258 2.92C17.7698 3.21867 17.8418 3.57333 17.8418 3.984V4.216H14.6018V3.72H17.3778L17.2258 3.88C17.2258 3.44267 17.1218 3.10667 16.9138 2.872C16.7111 2.63733 16.4178 2.52 16.0338 2.52C15.7831 2.52 15.5591 2.57867 15.3618 2.696C15.1698 2.808 15.0204 2.968 14.9138 3.176C14.8071 3.384 14.7538 3.63733 14.7538 3.936V4.016C14.7538 4.336 14.8124 4.60533 14.9298 4.824C15.0471 5.04267 15.2151 5.208 15.4338 5.32C15.6524 5.432 15.9138 5.488 16.2178 5.488C16.4364 5.488 16.6578 5.45867 16.8818 5.4C17.1111 5.336 17.3244 5.224 17.5218 5.064L17.7618 5.576C17.5591 5.74667 17.3164 5.872 17.0338 5.952C16.7564 6.032 16.4818 6.072 16.2098 6.072ZM20.7767 6.072C20.3714 6.072 20.0194 5.98667 19.7207 5.816C19.422 5.64533 19.19 5.408 19.0247 5.104C18.8594 4.79467 18.7767 4.432 18.7767 4.016C18.7767 3.6 18.8594 3.24 19.0247 2.936C19.19 2.62667 19.422 2.38933 19.7207 2.224C20.0247 2.05867 20.3794 1.976 20.7847 1.976C21.0567 1.976 21.3154 2.02133 21.5607 2.112C21.806 2.20267 22.0087 2.32533 22.1687 2.48L21.9207 3.008C21.766 2.86933 21.5927 2.76533 21.4007 2.696C21.2087 2.62133 21.022 2.584 20.8407 2.584C20.4247 2.584 20.0967 2.70933 19.8567 2.96C19.6167 3.21067 19.4967 3.56533 19.4967 4.024C19.4967 4.47733 19.6167 4.832 19.8567 5.088C20.0967 5.33867 20.422 5.464 20.8327 5.464C21.0194 5.464 21.206 5.42933 21.3927 5.36C21.5847 5.28533 21.7554 5.18133 21.9047 5.048L22.1527 5.576C21.998 5.73067 21.798 5.85333 21.5527 5.944C21.3074 6.02933 21.0487 6.072 20.7767 6.072ZM24.5592 6.072C24.2339 6.072 23.9592 6.01333 23.7352 5.896C23.5112 5.77867 23.3432 5.60267 23.2312 5.368C23.1192 5.13333 23.0632 4.84 23.0632 4.488V2.048H23.7752V4.456C23.7752 4.65867 23.8045 4.83733 23.8632 4.992C23.9272 5.14133 24.0259 5.25867 24.1592 5.344C24.2979 5.424 24.4792 5.464 24.7032 5.464C24.9272 5.464 25.1299 5.41067 25.3112 5.304C25.4925 5.192 25.6339 5.048 25.7352 4.872C25.8365 4.69067 25.8872 4.49067 25.8872 4.272V2.048H26.5992V6H25.9432V5.128C25.8099 5.42133 25.6285 5.65333 25.3992 5.824C25.1699 5.98933 24.8899 6.072 24.5592 6.072ZM28.0245 6V2.048H28.6725V2.96H28.6805C28.7765 2.66667 28.9445 2.43733 29.1845 2.272C29.4245 2.10133 29.7178 2.00533 30.0645 1.984L30.4245 1.968L30.4885 2.616L29.9125 2.664C29.5445 2.696 29.2565 2.81867 29.0485 3.032C28.8405 3.24 28.7365 3.50133 28.7365 3.816V6H28.0245ZM33.2254 6.072C32.7827 6.072 32.3987 5.992 32.0734 5.832C31.7534 5.66667 31.508 5.432 31.3374 5.128C31.1667 4.81867 31.0814 4.45067 31.0814 4.024C31.0814 3.624 31.1614 3.272 31.3214 2.968C31.4814 2.65867 31.708 2.416 32.0014 2.24C32.2947 2.064 32.644 1.976 33.0494 1.976C33.4334 1.976 33.7587 2.05867 34.0254 2.224C34.2974 2.38933 34.5027 2.62133 34.6414 2.92C34.7854 3.21867 34.8574 3.57333 34.8574 3.984V4.216H31.6174V3.72H34.3934L34.2414 3.88C34.2414 3.44267 34.1374 3.10667 33.9294 2.872C33.7267 2.63733 33.4334 2.52 33.0494 2.52C32.7987 2.52 32.5747 2.57867 32.3774 2.696C32.1854 2.808 32.036 2.968 31.9294 3.176C31.8227 3.384 31.7694 3.63733 31.7694 3.936V4.016C31.7694 4.336 31.828 4.60533 31.9454 4.824C32.0627 5.04267 32.2307 5.208 32.4494 5.32C32.668 5.432 32.9294 5.488 33.2334 5.488C33.452 5.488 33.6734 5.45867 33.8974 5.4C34.1267 5.336 34.34 5.224 34.5374 5.064L34.7774 5.576C34.5747 5.74667 34.332 5.872 34.0494 5.952C33.772 6.032 33.4974 6.072 33.2254 6.072ZM40.0187 6.072C39.7734 6.072 39.536 6.04533 39.3067 5.992C39.0827 5.93867 38.872 5.86133 38.6747 5.76C38.4774 5.65333 38.3014 5.52533 38.1467 5.376L38.4267 4.816C38.672 5.04 38.9227 5.20267 39.1787 5.304C39.44 5.4 39.72 5.448 40.0187 5.448C40.4134 5.448 40.72 5.34667 40.9387 5.144C41.1627 4.936 41.2747 4.64533 41.2747 4.272C41.2747 3.904 41.1707 3.61067 40.9627 3.392C40.7547 3.17333 40.4667 3.064 40.0987 3.064C39.8534 3.064 39.6294 3.11467 39.4267 3.216C39.2294 3.312 39.0454 3.47467 38.8747 3.704H38.3147V0.36H41.6907V0.976H38.9627V3.096H38.9307C39.0587 2.904 39.2347 2.74933 39.4587 2.632C39.6827 2.50933 39.9334 2.448 40.2107 2.448C40.5734 2.448 40.8854 2.52533 41.1467 2.68C41.408 2.82933 41.608 3.03733 41.7467 3.304C41.8907 3.57067 41.9627 3.88267 41.9627 4.24C41.9627 4.61867 41.8827 4.94667 41.7227 5.224C41.5627 5.496 41.3387 5.70667 41.0507 5.856C40.7627 6 40.4187 6.072 40.0187 6.072ZM44.7516 6.072C44.3196 6.072 43.9542 5.96267 43.6556 5.744C43.3569 5.52 43.1302 5.19467 42.9756 4.768C42.8262 4.336 42.7516 3.80533 42.7516 3.176C42.7516 2.54667 42.8262 2.01867 42.9756 1.592C43.1302 1.16533 43.3569 0.842666 43.6556 0.624C43.9542 0.4 44.3196 0.288 44.7516 0.288C45.1942 0.288 45.5622 0.397333 45.8556 0.616C46.1489 0.834666 46.3702 1.15733 46.5196 1.584C46.6742 2.01067 46.7516 2.53867 46.7516 3.168C46.7516 3.79733 46.6742 4.328 46.5196 4.76C46.3702 5.192 46.1462 5.52 45.8476 5.744C45.5489 5.96267 45.1836 6.072 44.7516 6.072ZM44.7516 5.448C45.1889 5.448 45.5142 5.264 45.7276 4.896C45.9409 4.528 46.0476 3.952 46.0476 3.168C46.0476 2.38933 45.9409 1.81867 45.7276 1.456C45.5196 1.09333 45.1969 0.912 44.7596 0.912C44.3169 0.912 43.9889 1.096 43.7756 1.464C43.5622 1.82667 43.4556 2.39733 43.4556 3.176C43.4556 3.94933 43.5622 4.52267 43.7756 4.896C43.9889 5.264 44.3142 5.448 44.7516 5.448ZM49.5484 6.072C49.1164 6.072 48.7511 5.96267 48.4524 5.744C48.1538 5.52 47.9271 5.19467 47.7724 4.768C47.6231 4.336 47.5484 3.80533 47.5484 3.176C47.5484 2.54667 47.6231 2.01867 47.7724 1.592C47.9271 1.16533 48.1538 0.842666 48.4524 0.624C48.7511 0.4 49.1164 0.288 49.5484 0.288C49.9911 0.288 50.3591 0.397333 50.6524 0.616C50.9458 0.834666 51.1671 1.15733 51.3164 1.584C51.4711 2.01067 51.5484 2.53867 51.5484 3.168C51.5484 3.79733 51.4711 4.328 51.3164 4.76C51.1671 5.192 50.9431 5.52 50.6444 5.744C50.3458 5.96267 49.9804 6.072 49.5484 6.072ZM49.5484 5.448C49.9858 5.448 50.3111 5.264 50.5244 4.896C50.7378 4.528 50.8444 3.952 50.8444 3.168C50.8444 2.38933 50.7378 1.81867 50.5244 1.456C50.3164 1.09333 49.9938 0.912 49.5564 0.912C49.1138 0.912 48.7858 1.096 48.5724 1.464C48.3591 1.82667 48.2524 2.39733 48.2524 3.176C48.2524 3.94933 48.3591 4.52267 48.5724 4.896C48.7858 5.264 49.1111 5.448 49.5484 5.448ZM52.6733 6V2.048H53.3293V2.912C53.3986 2.736 53.4946 2.57867 53.6173 2.44C53.7453 2.296 53.8973 2.184 54.0733 2.104C54.2546 2.01867 54.452 1.976 54.6653 1.976C55.012 1.976 55.2973 2.06133 55.5213 2.232C55.7453 2.40267 55.884 2.62667 55.9373 2.904H55.9293C56.036 2.64267 56.204 2.424 56.4333 2.248C56.668 2.06667 56.9613 1.976 57.3133 1.976C57.612 1.976 57.8653 2.03467 58.0733 2.152C58.2813 2.264 58.4386 2.43733 58.5453 2.672C58.652 2.90667 58.7053 3.20267 58.7053 3.56V6H58.0013V3.608C58.0013 3.26667 57.94 3.01067 57.8173 2.84C57.6946 2.66933 57.476 2.584 57.1613 2.584C56.9266 2.584 56.724 2.63733 56.5533 2.744C56.388 2.84533 56.26 2.98933 56.1693 3.176C56.084 3.35733 56.0413 3.56267 56.0413 3.792V6H55.3373V3.608C55.3373 3.272 55.268 3.01867 55.1293 2.848C54.9906 2.672 54.78 2.584 54.4973 2.584C54.268 2.584 54.068 2.64267 53.8973 2.76C53.732 2.872 53.604 3.01867 53.5133 3.2C53.4226 3.38133 53.3773 3.57333 53.3773 3.776V6H52.6733ZM61.3339 6.072C60.9499 6.072 60.6539 5.96 60.4459 5.736C60.2379 5.512 60.1339 5.19733 60.1339 4.792V0.36H60.8459V4.72C60.8459 4.88 60.8699 5.01867 60.9179 5.136C60.9659 5.248 61.0352 5.33333 61.1259 5.392C61.2165 5.45067 61.3259 5.48 61.4539 5.48C61.5339 5.48 61.6085 5.47733 61.6779 5.472C61.7525 5.46133 61.8272 5.44533 61.9019 5.424L61.9179 5.984C61.8272 6.016 61.7339 6.03733 61.6379 6.048C61.5472 6.064 61.4459 6.072 61.3339 6.072ZM66.4502 6V0.992H64.4182V0.36H69.1942V0.992H67.1622V6H66.4502ZM70.782 6.072C70.4993 6.072 70.246 6.02133 70.022 5.92C69.798 5.81333 69.622 5.66933 69.494 5.488C69.366 5.30667 69.302 5.104 69.302 4.88C69.302 4.576 69.3873 4.33867 69.558 4.168C69.7287 3.992 69.99 3.86667 70.342 3.792C70.6993 3.71733 71.1553 3.68 71.71 3.68H72.278V4.168H71.742C71.4327 4.168 71.1687 4.17867 70.95 4.2C70.7313 4.216 70.5527 4.25067 70.414 4.304C70.2753 4.352 70.174 4.41867 70.11 4.504C70.046 4.58933 70.014 4.70133 70.014 4.84C70.014 5.05333 70.0967 5.21867 70.262 5.336C70.4327 5.45333 70.6487 5.512 70.91 5.512C71.1393 5.512 71.3473 5.46133 71.534 5.36C71.726 5.25333 71.878 5.112 71.99 4.936C72.1073 4.76 72.166 4.56533 72.166 4.352V3.448C72.166 3.13333 72.078 2.90667 71.902 2.768C71.726 2.624 71.4647 2.552 71.118 2.552C70.8833 2.552 70.6487 2.584 70.414 2.648C70.1847 2.712 69.9473 2.81867 69.702 2.968L69.47 2.44C69.6353 2.33867 69.8113 2.256 69.998 2.192C70.1847 2.12267 70.3793 2.06933 70.582 2.032C70.7847 1.99467 70.9873 1.976 71.19 1.976C71.5313 1.976 71.8247 2.02933 72.07 2.136C72.3207 2.24267 72.5127 2.408 72.646 2.632C72.7847 2.856 72.854 3.14933 72.854 3.512V6H72.23V5.136C72.1553 5.30133 72.0513 5.456 71.918 5.6C71.7847 5.744 71.622 5.85867 71.43 5.944C71.2433 6.02933 71.0273 6.072 70.782 6.072ZM74.2827 6V2.048H74.9387V2.912C75.008 2.736 75.104 2.57867 75.2267 2.44C75.3547 2.296 75.5067 2.184 75.6827 2.104C75.864 2.01867 76.0614 1.976 76.2747 1.976C76.6214 1.976 76.9067 2.06133 77.1307 2.232C77.3547 2.40267 77.4934 2.62667 77.5467 2.904H77.5387C77.6454 2.64267 77.8134 2.424 78.0427 2.248C78.2774 2.06667 78.5707 1.976 78.9227 1.976C79.2214 1.976 79.4747 2.03467 79.6827 2.152C79.8907 2.264 80.048 2.43733 80.1547 2.672C80.2614 2.90667 80.3147 3.20267 80.3147 3.56V6H79.6107V3.608C79.6107 3.26667 79.5494 3.01067 79.4267 2.84C79.304 2.66933 79.0854 2.584 78.7707 2.584C78.536 2.584 78.3334 2.63733 78.1627 2.744C77.9974 2.84533 77.8694 2.98933 77.7787 3.176C77.6934 3.35733 77.6507 3.56267 77.6507 3.792V6H76.9467V3.608C76.9467 3.272 76.8774 3.01867 76.7387 2.848C76.6 2.672 76.3894 2.584 76.1067 2.584C75.8774 2.584 75.6774 2.64267 75.5067 2.76C75.3414 2.872 75.2134 3.01867 75.1227 3.2C75.032 3.38133 74.9867 3.57333 74.9867 3.776V6H74.2827ZM81.7433 7.44V2.04H82.3993V2.912C82.5166 2.61333 82.7006 2.384 82.9513 2.224C83.2073 2.05867 83.5059 1.976 83.8473 1.976C84.2153 1.976 84.5353 2.06133 84.8073 2.232C85.0793 2.40267 85.2899 2.64 85.4392 2.944C85.5886 3.248 85.6633 3.608 85.6633 4.024C85.6633 4.424 85.5886 4.77867 85.4392 5.088C85.2953 5.39733 85.0873 5.64 84.8153 5.816C84.5433 5.98667 84.2233 6.072 83.8553 6.072C83.5193 6.072 83.2286 5.992 82.9833 5.832C82.7433 5.66667 82.5673 5.448 82.4553 5.176V7.44H81.7433ZM83.6953 5.488C84.0846 5.488 84.3913 5.35733 84.6153 5.096C84.8393 4.82933 84.9513 4.46933 84.9513 4.016C84.9513 3.56267 84.8393 3.208 84.6153 2.952C84.3913 2.69067 84.0846 2.56 83.6953 2.56C83.3113 2.56 83.0073 2.69067 82.7833 2.952C82.5593 3.208 82.4473 3.56267 82.4473 4.016C82.4473 4.46933 82.5593 4.82933 82.7833 5.096C83.0073 5.35733 83.3113 5.488 83.6953 5.488ZM88.7488 6.072C88.3061 6.072 87.9221 5.992 87.5968 5.832C87.2768 5.66667 87.0315 5.432 86.8608 5.128C86.6901 4.81867 86.6048 4.45067 86.6048 4.024C86.6048 3.624 86.6848 3.272 86.8448 2.968C87.0048 2.65867 87.2315 2.416 87.5248 2.24C87.8181 2.064 88.1675 1.976 88.5728 1.976C88.9568 1.976 89.2821 2.05867 89.5488 2.224C89.8208 2.38933 90.0261 2.62133 90.1648 2.92C90.3088 3.21867 90.3808 3.57333 90.3808 3.984V4.216H87.1408V3.72H89.9168L89.7648 3.88C89.7648 3.44267 89.6608 3.10667 89.4528 2.872C89.2501 2.63733 88.9568 2.52 88.5728 2.52C88.3221 2.52 88.0981 2.57867 87.9008 2.696C87.7088 2.808 87.5595 2.968 87.4528 3.176C87.3461 3.384 87.2928 3.63733 87.2928 3.936V4.016C87.2928 4.336 87.3515 4.60533 87.4688 4.824C87.5861 5.04267 87.7541 5.208 87.9728 5.32C88.1915 5.432 88.4528 5.488 88.7568 5.488C88.9755 5.488 89.1968 5.45867 89.4208 5.4C89.6501 5.336 89.8635 5.224 90.0608 5.064L90.3008 5.576C90.0981 5.74667 89.8555 5.872 89.5728 5.952C89.2955 6.032 89.0208 6.072 88.7488 6.072ZM91.5558 6V2.048H92.2038V2.96H92.2118C92.3078 2.66667 92.4758 2.43733 92.7158 2.272C92.9558 2.10133 93.2491 2.00533 93.5958 1.984L93.9558 1.968L94.0198 2.616L93.4438 2.664C93.0758 2.696 92.7878 2.81867 92.5798 3.032C92.3718 3.24 92.2678 3.50133 92.2678 3.816V6H91.5558ZM94.576 4.144V3.568H96.816V4.144H94.576ZM98.2226 6V0.36H101.895V0.984H98.9266V2.832H101.735V3.456H98.9266V5.376H101.895V6H98.2226ZM104.246 6L102.59 2.048H103.35L104.638 5.296H104.598L105.886 2.048H106.622L104.958 6H104.246ZM107.421 1.096V0.304H108.285V1.096H107.421ZM107.501 6V2.048H108.213V6H107.501ZM111.21 6.072C110.847 6.072 110.53 5.98667 110.258 5.816C109.986 5.64533 109.773 5.40533 109.618 5.096C109.469 4.78667 109.394 4.42933 109.394 4.024C109.394 3.61333 109.469 3.256 109.618 2.952C109.767 2.64267 109.978 2.40267 110.25 2.232C110.522 2.06133 110.839 1.976 111.202 1.976C111.543 1.976 111.834 2.056 112.074 2.216C112.319 2.376 112.495 2.59467 112.602 2.872V0.36H113.314V6H112.658V5.128C112.541 5.42667 112.357 5.65867 112.106 5.824C111.855 5.98933 111.557 6.072 111.21 6.072ZM111.362 5.488C111.751 5.488 112.055 5.35733 112.274 5.096C112.498 4.83467 112.61 4.47733 112.61 4.024C112.61 3.57067 112.498 3.21333 112.274 2.952C112.055 2.69067 111.751 2.56 111.362 2.56C110.978 2.56 110.671 2.69067 110.442 2.952C110.218 3.21333 110.106 3.57067 110.106 4.024C110.106 4.47733 110.218 4.83467 110.442 5.096C110.666 5.35733 110.973 5.488 111.362 5.488ZM116.639 6.072C116.197 6.072 115.813 5.992 115.487 5.832C115.167 5.66667 114.922 5.432 114.751 5.128C114.581 4.81867 114.495 4.45067 114.495 4.024C114.495 3.624 114.575 3.272 114.735 2.968C114.895 2.65867 115.122 2.416 115.415 2.24C115.709 2.064 116.058 1.976 116.463 1.976C116.847 1.976 117.173 2.05867 117.439 2.224C117.711 2.38933 117.917 2.62133 118.055 2.92C118.199 3.21867 118.271 3.57333 118.271 3.984V4.216H115.031V3.72H117.807L117.655 3.88C117.655 3.44267 117.551 3.10667 117.343 2.872C117.141 2.63733 116.847 2.52 116.463 2.52C116.213 2.52 115.989 2.57867 115.791 2.696C115.599 2.808 115.45 2.968 115.343 3.176C115.237 3.384 115.183 3.63733 115.183 3.936V4.016C115.183 4.336 115.242 4.60533 115.359 4.824C115.477 5.04267 115.645 5.208 115.863 5.32C116.082 5.432 116.343 5.488 116.647 5.488C116.866 5.488 117.087 5.45867 117.311 5.4C117.541 5.336 117.754 5.224 117.951 5.064L118.191 5.576C117.989 5.74667 117.746 5.872 117.463 5.952C117.186 6.032 116.911 6.072 116.639 6.072ZM119.446 6V2.048H120.11V2.904C120.238 2.61067 120.43 2.384 120.686 2.224C120.942 2.05867 121.23 1.976 121.55 1.976C121.876 1.976 122.148 2.03467 122.366 2.152C122.585 2.264 122.748 2.44 122.854 2.68C122.966 2.91467 123.022 3.208 123.022 3.56V6H122.31V3.6C122.31 3.38667 122.281 3.20533 122.222 3.056C122.164 2.90667 122.065 2.792 121.926 2.712C121.793 2.62667 121.614 2.584 121.39 2.584C121.156 2.584 120.942 2.63733 120.75 2.744C120.564 2.85067 120.417 2.99467 120.31 3.176C120.209 3.35733 120.158 3.56 120.158 3.784V6H119.446ZM126.095 6.072C125.62 6.072 125.26 5.94667 125.015 5.696C124.775 5.44533 124.655 5.088 124.655 4.624V2.632H123.855V2.048H124.679V0.872H125.367V2.048H126.783V2.632H125.367V4.56C125.367 4.864 125.433 5.09067 125.567 5.24C125.705 5.384 125.916 5.456 126.199 5.456C126.311 5.456 126.417 5.44533 126.519 5.424C126.625 5.40267 126.727 5.37067 126.823 5.328L126.935 5.888C126.828 5.94667 126.697 5.992 126.543 6.024C126.393 6.056 126.244 6.072 126.095 6.072ZM0.832 17V11.36H3.152C3.76 11.36 4.22933 11.4987 4.56 11.776C4.89067 12.0533 5.056 12.456 5.056 12.984C5.056 13.2827 4.99467 13.5413 4.872 13.76C4.75467 13.9787 4.58667 14.1547 4.368 14.288C4.14933 14.416 3.89333 14.4987 3.6 14.536L3.624 14.528L3.704 14.544C3.83733 14.5653 3.95733 14.6213 4.064 14.712C4.17067 14.8027 4.27467 14.944 4.376 15.136L5.368 17H4.584L3.64 15.232C3.56 15.0773 3.47467 14.96 3.384 14.88C3.29333 14.8 3.184 14.744 3.056 14.712C2.93333 14.68 2.784 14.664 2.608 14.664H1.544V17H0.832ZM1.544 14.072H3.104C3.53067 14.072 3.84267 13.984 4.04 13.808C4.23733 13.6267 4.336 13.3573 4.336 13C4.336 12.6427 4.232 12.3813 4.024 12.216C3.82133 12.0507 3.504 11.968 3.072 11.968H1.544V14.072ZM8.26444 17.072C7.82177 17.072 7.43777 16.992 7.11244 16.832C6.79244 16.6667 6.5471 16.432 6.37644 16.128C6.20577 15.8187 6.12044 15.4507 6.12044 15.024C6.12044 14.624 6.20044 14.272 6.36044 13.968C6.52044 13.6587 6.7471 13.416 7.04044 13.24C7.33377 13.064 7.6831 12.976 8.08844 12.976C8.47244 12.976 8.79777 13.0587 9.06444 13.224C9.33644 13.3893 9.54177 13.6213 9.68044 13.92C9.82444 14.2187 9.89644 14.5733 9.89644 14.984V15.216H6.65644V14.72H9.43244L9.28044 14.88C9.28044 14.4427 9.17644 14.1067 8.96844 13.872C8.76577 13.6373 8.47244 13.52 8.08844 13.52C7.83777 13.52 7.61377 13.5787 7.41644 13.696C7.22444 13.808 7.0751 13.968 6.96844 14.176C6.86177 14.384 6.80844 14.6373 6.80844 14.936V15.016C6.80844 15.336 6.8671 15.6053 6.98444 15.824C7.10177 16.0427 7.26977 16.208 7.48844 16.32C7.7071 16.432 7.96844 16.488 8.27244 16.488C8.4911 16.488 8.71244 16.4587 8.93644 16.4C9.16577 16.336 9.3791 16.224 9.57644 16.064L9.81644 16.576C9.61377 16.7467 9.3711 16.872 9.08844 16.952C8.8111 17.032 8.53644 17.072 8.26444 17.072ZM12.8314 17.072C12.426 17.072 12.074 16.9867 11.7754 16.816C11.4767 16.6453 11.2447 16.408 11.0794 16.104C10.914 15.7947 10.8314 15.432 10.8314 15.016C10.8314 14.6 10.914 14.24 11.0794 13.936C11.2447 13.6267 11.4767 13.3893 11.7754 13.224C12.0794 13.0587 12.434 12.976 12.8394 12.976C13.1114 12.976 13.37 13.0213 13.6154 13.112C13.8607 13.2027 14.0634 13.3253 14.2234 13.48L13.9754 14.008C13.8207 13.8693 13.6474 13.7653 13.4554 13.696C13.2634 13.6213 13.0767 13.584 12.8954 13.584C12.4794 13.584 12.1514 13.7093 11.9114 13.96C11.6714 14.2107 11.5514 14.5653 11.5514 15.024C11.5514 15.4773 11.6714 15.832 11.9114 16.088C12.1514 16.3387 12.4767 16.464 12.8874 16.464C13.074 16.464 13.2607 16.4293 13.4474 16.36C13.6394 16.2853 13.81 16.1813 13.9594 16.048L14.2074 16.576C14.0527 16.7307 13.8527 16.8533 13.6074 16.944C13.362 17.0293 13.1034 17.072 12.8314 17.072ZM16.7979 17.072C16.3232 17.072 15.9632 16.9467 15.7179 16.696C15.4779 16.4453 15.3579 16.088 15.3579 15.624V13.632H14.5579V13.048H15.3819V11.872H16.0699V13.048H17.4859V13.632H16.0699V15.56C16.0699 15.864 16.1365 16.0907 16.2699 16.24C16.4085 16.384 16.6192 16.456 16.9019 16.456C17.0139 16.456 17.1205 16.4453 17.2219 16.424C17.3285 16.4027 17.4299 16.3707 17.5259 16.328L17.6379 16.888C17.5312 16.9467 17.4005 16.992 17.2459 17.024C17.0965 17.056 16.9472 17.072 16.7979 17.072ZM19.7898 17.072C19.5071 17.072 19.2538 17.0213 19.0298 16.92C18.8058 16.8133 18.6298 16.6693 18.5018 16.488C18.3738 16.3067 18.3098 16.104 18.3098 15.88C18.3098 15.576 18.3951 15.3387 18.5658 15.168C18.7365 14.992 18.9978 14.8667 19.3498 14.792C19.7071 14.7173 20.1631 14.68 20.7178 14.68H21.2858V15.168H20.7498C20.4405 15.168 20.1765 15.1787 19.9578 15.2C19.7391 15.216 19.5605 15.2507 19.4218 15.304C19.2831 15.352 19.1818 15.4187 19.1178 15.504C19.0538 15.5893 19.0218 15.7013 19.0218 15.84C19.0218 16.0533 19.1045 16.2187 19.2698 16.336C19.4405 16.4533 19.6565 16.512 19.9178 16.512C20.1471 16.512 20.3551 16.4613 20.5418 16.36C20.7338 16.2533 20.8858 16.112 20.9978 15.936C21.1151 15.76 21.1738 15.5653 21.1738 15.352V14.448C21.1738 14.1333 21.0858 13.9067 20.9098 13.768C20.7338 13.624 20.4725 13.552 20.1258 13.552C19.8911 13.552 19.6565 13.584 19.4218 13.648C19.1925 13.712 18.9551 13.8187 18.7098 13.968L18.4778 13.44C18.6431 13.3387 18.8191 13.256 19.0058 13.192C19.1925 13.1227 19.3871 13.0693 19.5898 13.032C19.7925 12.9947 19.9951 12.976 20.1978 12.976C20.5391 12.976 20.8325 13.0293 21.0778 13.136C21.3285 13.2427 21.5205 13.408 21.6538 13.632C21.7925 13.856 21.8618 14.1493 21.8618 14.512V17H21.2378V16.136C21.1631 16.3013 21.0591 16.456 20.9258 16.6C20.7925 16.744 20.6298 16.8587 20.4378 16.944C20.2511 17.0293 20.0351 17.072 19.7898 17.072ZM23.2745 17V13.048H23.9385V13.904C24.0665 13.6107 24.2585 13.384 24.5145 13.224C24.7705 13.0587 25.0585 12.976 25.3785 12.976C25.7038 12.976 25.9758 13.0347 26.1945 13.152C26.4132 13.264 26.5758 13.44 26.6825 13.68C26.7945 13.9147 26.8505 14.208 26.8505 14.56V17H26.1385V14.6C26.1385 14.3867 26.1092 14.2053 26.0505 14.056C25.9918 13.9067 25.8932 13.792 25.7545 13.712C25.6212 13.6267 25.4425 13.584 25.2185 13.584C24.9838 13.584 24.7705 13.6373 24.5785 13.744C24.3918 13.8507 24.2452 13.9947 24.1385 14.176C24.0372 14.3573 23.9865 14.56 23.9865 14.784V17H23.2745ZM29.9709 18.512C29.6562 18.512 29.3442 18.464 29.0349 18.368C28.7255 18.2773 28.4615 18.152 28.2429 17.992L28.4669 17.44C28.6162 17.536 28.7735 17.6187 28.9389 17.688C29.1042 17.7627 29.2722 17.816 29.4429 17.848C29.6189 17.8853 29.7922 17.904 29.9629 17.904C30.3735 17.904 30.6935 17.8 30.9229 17.592C31.1575 17.384 31.2749 17.088 31.2749 16.704V15.976H31.2589C31.1629 16.248 30.9895 16.4693 30.7389 16.64C30.4882 16.8053 30.1975 16.888 29.8669 16.888C29.4935 16.888 29.1682 16.808 28.8909 16.648C28.6135 16.4827 28.3975 16.2533 28.2429 15.96C28.0935 15.6667 28.0189 15.3227 28.0189 14.928C28.0189 14.5387 28.0935 14.1973 28.2429 13.904C28.3975 13.6107 28.6135 13.384 28.8909 13.224C29.1682 13.0587 29.4935 12.976 29.8669 12.976C30.1975 12.976 30.4882 13.0613 30.7389 13.232C30.9949 13.4027 31.1709 13.6293 31.2669 13.912H31.2749V13.048H31.9389V16.64C31.9389 17.024 31.8589 17.3547 31.6989 17.632C31.5442 17.9147 31.3202 18.1307 31.0269 18.28C30.7335 18.4347 30.3815 18.512 29.9709 18.512ZM29.9869 16.304C30.3762 16.304 30.6829 16.1787 30.9069 15.928C31.1362 15.6773 31.2509 15.344 31.2509 14.928C31.2509 14.512 31.1362 14.1813 30.9069 13.936C30.6829 13.6853 30.3762 13.56 29.9869 13.56C29.6029 13.56 29.2962 13.6853 29.0669 13.936C28.8429 14.1813 28.7309 14.512 28.7309 14.928C28.7309 15.344 28.8429 15.6773 29.0669 15.928C29.2962 16.1787 29.6029 16.304 29.9869 16.304ZM34.8404 17.072C34.5151 17.072 34.2404 17.0133 34.0164 16.896C33.7924 16.7787 33.6244 16.6027 33.5124 16.368C33.4004 16.1333 33.3444 15.84 33.3444 15.488V13.048H34.0564V15.456C34.0564 15.6587 34.0858 15.8373 34.1444 15.992C34.2084 16.1413 34.3071 16.2587 34.4404 16.344C34.5791 16.424 34.7604 16.464 34.9844 16.464C35.2084 16.464 35.4111 16.4107 35.5924 16.304C35.7738 16.192 35.9151 16.048 36.0164 15.872C36.1178 15.6907 36.1684 15.4907 36.1684 15.272V13.048H36.8804V17H36.2244V16.128C36.0911 16.4213 35.9098 16.6533 35.6804 16.824C35.4511 16.9893 35.1711 17.072 34.8404 17.072ZM39.5058 17.072C39.1218 17.072 38.8258 16.96 38.6178 16.736C38.4098 16.512 38.3058 16.1973 38.3058 15.792V11.36H39.0178V15.72C39.0178 15.88 39.0418 16.0187 39.0898 16.136C39.1378 16.248 39.2071 16.3333 39.2978 16.392C39.3884 16.4507 39.4978 16.48 39.6258 16.48C39.7058 16.48 39.7804 16.4773 39.8498 16.472C39.9244 16.4613 39.9991 16.4453 40.0738 16.424L40.0898 16.984C39.9991 17.016 39.9058 17.0373 39.8098 17.048C39.7191 17.064 39.6178 17.072 39.5058 17.072ZM42.2117 17.072C41.929 17.072 41.6757 17.0213 41.4517 16.92C41.2277 16.8133 41.0517 16.6693 40.9237 16.488C40.7957 16.3067 40.7317 16.104 40.7317 15.88C40.7317 15.576 40.817 15.3387 40.9877 15.168C41.1584 14.992 41.4197 14.8667 41.7717 14.792C42.129 14.7173 42.585 14.68 43.1397 14.68H43.7077V15.168H43.1717C42.8624 15.168 42.5984 15.1787 42.3797 15.2C42.161 15.216 41.9824 15.2507 41.8437 15.304C41.705 15.352 41.6037 15.4187 41.5397 15.504C41.4757 15.5893 41.4437 15.7013 41.4437 15.84C41.4437 16.0533 41.5264 16.2187 41.6917 16.336C41.8624 16.4533 42.0784 16.512 42.3397 16.512C42.569 16.512 42.777 16.4613 42.9637 16.36C43.1557 16.2533 43.3077 16.112 43.4197 15.936C43.537 15.76 43.5957 15.5653 43.5957 15.352V14.448C43.5957 14.1333 43.5077 13.9067 43.3317 13.768C43.1557 13.624 42.8944 13.552 42.5477 13.552C42.313 13.552 42.0784 13.584 41.8437 13.648C41.6144 13.712 41.377 13.8187 41.1317 13.968L40.8997 13.44C41.065 13.3387 41.241 13.256 41.4277 13.192C41.6144 13.1227 41.809 13.0693 42.0117 13.032C42.2144 12.9947 42.417 12.976 42.6197 12.976C42.961 12.976 43.2544 13.0293 43.4997 13.136C43.7504 13.2427 43.9424 13.408 44.0757 13.632C44.2144 13.856 44.2837 14.1493 44.2837 14.512V17H43.6597V16.136C43.585 16.3013 43.481 16.456 43.3477 16.6C43.2144 16.744 43.0517 16.8587 42.8597 16.944C42.673 17.0293 42.457 17.072 42.2117 17.072ZM45.6964 17V13.048H46.3444V13.96H46.3524C46.4484 13.6667 46.6164 13.4373 46.8564 13.272C47.0964 13.1013 47.3897 13.0053 47.7364 12.984L48.0964 12.968L48.1604 13.616L47.5844 13.664C47.2164 13.696 46.9284 13.8187 46.7204 14.032C46.5124 14.24 46.4084 14.5013 46.4084 14.816V17H45.6964ZM53.8025 17.072C53.2638 17.072 52.7945 16.9573 52.3945 16.728C51.9998 16.4933 51.6958 16.16 51.4825 15.728C51.2692 15.2907 51.1625 14.7733 51.1625 14.176C51.1625 13.5787 51.2692 13.064 51.4825 12.632C51.6958 12.2 51.9998 11.8693 52.3945 11.64C52.7892 11.4053 53.2585 11.288 53.8025 11.288C54.1972 11.288 54.5572 11.3493 54.8825 11.472C55.2078 11.5893 55.4878 11.7627 55.7225 11.992L55.4425 12.552C55.1972 12.3333 54.9438 12.176 54.6825 12.08C54.4265 11.984 54.1385 11.936 53.8185 11.936C53.2212 11.936 52.7518 12.128 52.4105 12.512C52.0745 12.8907 51.9065 13.4453 51.9065 14.176C51.9065 14.9013 52.0745 15.4587 52.4105 15.848C52.7465 16.232 53.2158 16.424 53.8185 16.424C54.1385 16.424 54.4265 16.376 54.6825 16.28C54.9438 16.184 55.1972 16.0267 55.4425 15.808L55.7225 16.368C55.4878 16.5973 55.2078 16.7733 54.8825 16.896C54.5572 17.0133 54.1972 17.072 53.8025 17.072ZM58.3539 17.072C57.9539 17.072 57.6072 16.9867 57.3139 16.816C57.0205 16.6453 56.7939 16.408 56.6339 16.104C56.4739 15.7947 56.3939 15.432 56.3939 15.016C56.3939 14.6053 56.4739 14.248 56.6339 13.944C56.7939 13.6347 57.0205 13.3973 57.3139 13.232C57.6072 13.0613 57.9539 12.976 58.3539 12.976C58.7539 12.976 59.0979 13.0613 59.3859 13.232C59.6792 13.3973 59.9059 13.6347 60.0659 13.944C60.2259 14.248 60.3059 14.6053 60.3059 15.016C60.3059 15.432 60.2259 15.7947 60.0659 16.104C59.9112 16.408 59.6872 16.6453 59.3939 16.816C59.1005 16.9867 58.7539 17.072 58.3539 17.072ZM58.3459 16.472C58.7352 16.472 59.0419 16.3413 59.2659 16.08C59.4899 15.8187 59.6019 15.464 59.6019 15.016C59.6019 14.568 59.4899 14.216 59.2659 13.96C59.0472 13.704 58.7432 13.576 58.3539 13.576C57.9645 13.576 57.6579 13.704 57.4339 13.96C57.2099 14.216 57.0979 14.568 57.0979 15.016C57.0979 15.464 57.2099 15.8187 57.4339 16.08C57.6632 16.3413 57.9672 16.472 58.3459 16.472ZM61.5011 17V13.048H62.1651V13.904C62.2931 13.6107 62.4851 13.384 62.7411 13.224C62.9971 13.0587 63.2851 12.976 63.6051 12.976C63.9304 12.976 64.2024 13.0347 64.4211 13.152C64.6397 13.264 64.8024 13.44 64.9091 13.68C65.0211 13.9147 65.0771 14.208 65.0771 14.56V17H64.3651V14.6C64.3651 14.3867 64.3357 14.2053 64.2771 14.056C64.2184 13.9067 64.1197 13.792 63.9811 13.712C63.8477 13.6267 63.6691 13.584 63.4451 13.584C63.2104 13.584 62.9971 13.6373 62.8051 13.744C62.6184 13.8507 62.4717 13.9947 62.3651 14.176C62.2637 14.3573 62.2131 14.56 62.2131 14.784V17H61.5011ZM68.1494 17.072C67.6748 17.072 67.3148 16.9467 67.0694 16.696C66.8294 16.4453 66.7094 16.088 66.7094 15.624V13.632H65.9094V13.048H66.7334V11.872H67.4214V13.048H68.8374V13.632H67.4214V15.56C67.4214 15.864 67.4881 16.0907 67.6214 16.24C67.7601 16.384 67.9708 16.456 68.2534 16.456C68.3654 16.456 68.4721 16.4453 68.5734 16.424C68.6801 16.4027 68.7814 16.3707 68.8774 16.328L68.9894 16.888C68.8828 16.9467 68.7521 16.992 68.5974 17.024C68.4481 17.056 68.2988 17.072 68.1494 17.072ZM71.1414 17.072C70.8587 17.072 70.6054 17.0213 70.3814 16.92C70.1574 16.8133 69.9814 16.6693 69.8534 16.488C69.7254 16.3067 69.6614 16.104 69.6614 15.88C69.6614 15.576 69.7467 15.3387 69.9174 15.168C70.088 14.992 70.3494 14.8667 70.7014 14.792C71.0587 14.7173 71.5147 14.68 72.0694 14.68H72.6374V15.168H72.1014C71.792 15.168 71.528 15.1787 71.3094 15.2C71.0907 15.216 70.912 15.2507 70.7734 15.304C70.6347 15.352 70.5334 15.4187 70.4694 15.504C70.4054 15.5893 70.3734 15.7013 70.3734 15.84C70.3734 16.0533 70.456 16.2187 70.6214 16.336C70.792 16.4533 71.008 16.512 71.2694 16.512C71.4987 16.512 71.7067 16.4613 71.8934 16.36C72.0854 16.2533 72.2374 16.112 72.3494 15.936C72.4667 15.76 72.5254 15.5653 72.5254 15.352V14.448C72.5254 14.1333 72.4374 13.9067 72.2614 13.768C72.0854 13.624 71.824 13.552 71.4774 13.552C71.2427 13.552 71.008 13.584 70.7734 13.648C70.544 13.712 70.3067 13.8187 70.0614 13.968L69.8294 13.44C69.9947 13.3387 70.1707 13.256 70.3574 13.192C70.544 13.1227 70.7387 13.0693 70.9414 13.032C71.144 12.9947 71.3467 12.976 71.5494 12.976C71.8907 12.976 72.184 13.0293 72.4294 13.136C72.68 13.2427 72.872 13.408 73.0054 13.632C73.144 13.856 73.2134 14.1493 73.2134 14.512V17H72.5894V16.136C72.5147 16.3013 72.4107 16.456 72.2774 16.6C72.144 16.744 71.9814 16.8587 71.7894 16.944C71.6027 17.0293 71.3867 17.072 71.1414 17.072ZM74.5461 12.096V11.304H75.4101V12.096H74.5461ZM74.6261 17V13.048H75.3381V17H74.6261ZM76.7589 17V13.048H77.4229V13.904C77.5509 13.6107 77.7429 13.384 77.9989 13.224C78.2549 13.0587 78.5429 12.976 78.8629 12.976C79.1882 12.976 79.4602 13.0347 79.6789 13.152C79.8975 13.264 80.0602 13.44 80.1669 13.68C80.2789 13.9147 80.3349 14.208 80.3349 14.56V17H79.6229V14.6C79.6229 14.3867 79.5935 14.2053 79.5349 14.056C79.4762 13.9067 79.3775 13.792 79.2389 13.712C79.1055 13.6267 78.9269 13.584 78.7029 13.584C78.4682 13.584 78.2549 13.6373 78.0629 13.744C77.8762 13.8507 77.7295 13.9947 77.6229 14.176C77.5215 14.3573 77.4709 14.56 77.4709 14.784V17H76.7589ZM83.6473 17.072C83.2046 17.072 82.8206 16.992 82.4953 16.832C82.1753 16.6667 81.9299 16.432 81.7593 16.128C81.5886 15.8187 81.5033 15.4507 81.5033 15.024C81.5033 14.624 81.5833 14.272 81.7433 13.968C81.9033 13.6587 82.1299 13.416 82.4233 13.24C82.7166 13.064 83.0659 12.976 83.4713 12.976C83.8553 12.976 84.1806 13.0587 84.4473 13.224C84.7193 13.3893 84.9246 13.6213 85.0633 13.92C85.2073 14.2187 85.2793 14.5733 85.2793 14.984V15.216H82.0393V14.72H84.8153L84.6633 14.88C84.6633 14.4427 84.5593 14.1067 84.3513 13.872C84.1486 13.6373 83.8553 13.52 83.4713 13.52C83.2206 13.52 82.9966 13.5787 82.7993 13.696C82.6073 13.808 82.4579 13.968 82.3513 14.176C82.2446 14.384 82.1913 14.6373 82.1913 14.936V15.016C82.1913 15.336 82.2499 15.6053 82.3673 15.824C82.4846 16.0427 82.6526 16.208 82.8713 16.32C83.0899 16.432 83.3513 16.488 83.6553 16.488C83.8739 16.488 84.0953 16.4587 84.3193 16.4C84.5486 16.336 84.7619 16.224 84.9593 16.064L85.1993 16.576C84.9966 16.7467 84.7539 16.872 84.4713 16.952C84.1939 17.032 83.9193 17.072 83.6473 17.072ZM86.4542 17V13.048H87.1022V13.96H87.1102C87.2062 13.6667 87.3742 13.4373 87.6142 13.272C87.8542 13.1013 88.1475 13.0053 88.4942 12.984L88.8542 12.968L88.9182 13.616L88.3422 13.664C87.9742 13.696 87.6862 13.8187 87.4782 14.032C87.2702 14.24 87.1662 14.5013 87.1662 14.816V17H86.4542ZM89.9059 18.152L89.5459 17.872C89.6419 17.7813 89.7165 17.6773 89.7699 17.56C89.8285 17.448 89.8712 17.3307 89.8979 17.208C89.9245 17.0907 89.9405 16.9813 89.9459 16.88L90.0819 17H89.4979V16.12H90.4099V16.776C90.4099 16.9413 90.3939 17.1067 90.3619 17.272C90.3299 17.4373 90.2765 17.5947 90.2019 17.744C90.1272 17.8933 90.0285 18.0293 89.9059 18.152ZM94.0508 17V11.36H94.7628V16.368H97.6267V17H94.0508ZM100.452 17.072C100.009 17.072 99.6253 16.992 99.2999 16.832C98.9799 16.6667 98.7346 16.432 98.5639 16.128C98.3933 15.8187 98.3079 15.4507 98.3079 15.024C98.3079 14.624 98.3879 14.272 98.5479 13.968C98.7079 13.6587 98.9346 13.416 99.2279 13.24C99.5213 13.064 99.8706 12.976 100.276 12.976C100.66 12.976 100.985 13.0587 101.252 13.224C101.524 13.3893 101.729 13.6213 101.868 13.92C102.012 14.2187 102.084 14.5733 102.084 14.984V15.216H98.8439V14.72H101.62L101.468 14.88C101.468 14.4427 101.364 14.1067 101.156 13.872C100.953 13.6373 100.66 13.52 100.276 13.52C100.025 13.52 99.8013 13.5787 99.6039 13.696C99.4119 13.808 99.2626 13.968 99.1559 14.176C99.0493 14.384 98.9959 14.6373 98.9959 14.936V15.016C98.9959 15.336 99.0546 15.6053 99.1719 15.824C99.2893 16.0427 99.4573 16.208 99.6759 16.32C99.8946 16.432 100.156 16.488 100.46 16.488C100.679 16.488 100.9 16.4587 101.124 16.4C101.353 16.336 101.567 16.224 101.764 16.064L102.004 16.576C101.801 16.7467 101.559 16.872 101.276 16.952C100.999 17.032 100.724 17.072 100.452 17.072ZM104.579 17.072C104.296 17.072 104.043 17.0213 103.819 16.92C103.595 16.8133 103.419 16.6693 103.291 16.488C103.163 16.3067 103.099 16.104 103.099 15.88C103.099 15.576 103.184 15.3387 103.355 15.168C103.526 14.992 103.787 14.8667 104.139 14.792C104.496 14.7173 104.952 14.68 105.507 14.68H106.075V15.168H105.539C105.23 15.168 104.966 15.1787 104.747 15.2C104.528 15.216 104.35 15.2507 104.211 15.304C104.072 15.352 103.971 15.4187 103.907 15.504C103.843 15.5893 103.811 15.7013 103.811 15.84C103.811 16.0533 103.894 16.2187 104.059 16.336C104.23 16.4533 104.446 16.512 104.707 16.512C104.936 16.512 105.144 16.4613 105.331 16.36C105.523 16.2533 105.675 16.112 105.787 15.936C105.904 15.76 105.963 15.5653 105.963 15.352V14.448C105.963 14.1333 105.875 13.9067 105.699 13.768C105.523 13.624 105.262 13.552 104.915 13.552C104.68 13.552 104.446 13.584 104.211 13.648C103.982 13.712 103.744 13.8187 103.499 13.968L103.267 13.44C103.432 13.3387 103.608 13.256 103.795 13.192C103.982 13.1227 104.176 13.0693 104.379 13.032C104.582 12.9947 104.784 12.976 104.987 12.976C105.328 12.976 105.622 13.0293 105.867 13.136C106.118 13.2427 106.31 13.408 106.443 13.632C106.582 13.856 106.651 14.1493 106.651 14.512V17H106.027V16.136C105.952 16.3013 105.848 16.456 105.715 16.6C105.582 16.744 105.419 16.8587 105.227 16.944C105.04 17.0293 104.824 17.072 104.579 17.072ZM108.064 17V11.36H108.776V14.808H108.808L110.584 13.048H111.464L109.344 15.12L109.36 14.808L111.664 17H110.76L108.808 15.168H108.776V17H108.064ZM111.998 15.144V14.568H114.238V15.144H111.998ZM0.832 28V22.36H3.152C3.76 22.36 4.22933 22.4987 4.56 22.776C4.89067 23.0533 5.056 23.456 5.056 23.984C5.056 24.2827 4.99467 24.5413 4.872 24.76C4.75467 24.9787 4.58667 25.1547 4.368 25.288C4.14933 25.416 3.89333 25.4987 3.6 25.536L3.624 25.528L3.704 25.544C3.83733 25.5653 3.95733 25.6213 4.064 25.712C4.17067 25.8027 4.27467 25.944 4.376 26.136L5.368 28H4.584L3.64 26.232C3.56 26.0773 3.47467 25.96 3.384 25.88C3.29333 25.8 3.184 25.744 3.056 25.712C2.93333 25.68 2.784 25.664 2.608 25.664H1.544V28H0.832ZM1.544 25.072H3.104C3.53067 25.072 3.84267 24.984 4.04 24.808C4.23733 24.6267 4.336 24.3573 4.336 24C4.336 23.6427 4.232 23.3813 4.024 23.216C3.82133 23.0507 3.504 22.968 3.072 22.968H1.544V25.072ZM8.26444 28.072C7.82177 28.072 7.43777 27.992 7.11244 27.832C6.79244 27.6667 6.5471 27.432 6.37644 27.128C6.20577 26.8187 6.12044 26.4507 6.12044 26.024C6.12044 25.624 6.20044 25.272 6.36044 24.968C6.52044 24.6587 6.7471 24.416 7.04044 24.24C7.33377 24.064 7.6831 23.976 8.08844 23.976C8.47244 23.976 8.79777 24.0587 9.06444 24.224C9.33644 24.3893 9.54177 24.6213 9.68044 24.92C9.82444 25.2187 9.89644 25.5733 9.89644 25.984V26.216H6.65644V25.72H9.43244L9.28044 25.88C9.28044 25.4427 9.17644 25.1067 8.96844 24.872C8.76577 24.6373 8.47244 24.52 8.08844 24.52C7.83777 24.52 7.61377 24.5787 7.41644 24.696C7.22444 24.808 7.0751 24.968 6.96844 25.176C6.86177 25.384 6.80844 25.6373 6.80844 25.936V26.016C6.80844 26.336 6.8671 26.6053 6.98444 26.824C7.10177 27.0427 7.26977 27.208 7.48844 27.32C7.7071 27.432 7.96844 27.488 8.27244 27.488C8.4911 27.488 8.71244 27.4587 8.93644 27.4C9.16577 27.336 9.3791 27.224 9.57644 27.064L9.81644 27.576C9.61377 27.7467 9.3711 27.872 9.08844 27.952C8.8111 28.032 8.53644 28.072 8.26444 28.072ZM12.5274 28.072C12.3087 28.072 12.0927 28.0507 11.8794 28.008C11.6714 27.9707 11.4767 27.9173 11.2954 27.848C11.1194 27.7733 10.9674 27.6827 10.8394 27.576L11.0714 27.072C11.2047 27.1733 11.3514 27.256 11.5114 27.32C11.6767 27.384 11.8447 27.432 12.0154 27.464C12.1914 27.4907 12.3594 27.504 12.5194 27.504C12.85 27.504 13.1034 27.4533 13.2794 27.352C13.4607 27.2507 13.5514 27.1093 13.5514 26.928C13.5514 26.7733 13.498 26.656 13.3914 26.576C13.29 26.4907 13.1194 26.4267 12.8794 26.384L12.0554 26.24C11.6874 26.1707 11.41 26.0453 11.2234 25.864C11.042 25.6827 10.9514 25.4453 10.9514 25.152C10.9514 24.9173 11.0154 24.712 11.1434 24.536C11.2767 24.36 11.466 24.224 11.7114 24.128C11.9567 24.0267 12.25 23.976 12.5914 23.976C12.778 23.976 12.9674 23.9947 13.1594 24.032C13.3567 24.0693 13.538 24.1253 13.7034 24.2C13.874 24.2693 14.0127 24.3573 14.1194 24.464L13.8794 24.968C13.7727 24.8667 13.6447 24.7867 13.4954 24.728C13.3514 24.664 13.1994 24.6187 13.0394 24.592C12.8847 24.56 12.7327 24.544 12.5834 24.544C12.274 24.544 12.034 24.5973 11.8634 24.704C11.6927 24.8053 11.6074 24.9493 11.6074 25.136C11.6074 25.2853 11.6554 25.4027 11.7514 25.488C11.8527 25.5733 12.0154 25.6373 12.2394 25.68L13.0394 25.824C13.434 25.8987 13.7274 26.024 13.9194 26.2C14.1114 26.3707 14.2074 26.608 14.2074 26.912C14.2074 27.1467 14.138 27.352 13.9994 27.528C13.8607 27.6987 13.666 27.832 13.4154 27.928C13.1647 28.024 12.8687 28.072 12.5274 28.072ZM15.3039 23.096V22.304H16.1679V23.096H15.3039ZM15.3839 28V24.048H16.0959V28H15.3839ZM18.9727 28.072C18.754 28.072 18.538 28.0507 18.3247 28.008C18.1167 27.9707 17.922 27.9173 17.7407 27.848C17.5647 27.7733 17.4127 27.6827 17.2847 27.576L17.5167 27.072C17.65 27.1733 17.7967 27.256 17.9567 27.32C18.122 27.384 18.29 27.432 18.4607 27.464C18.6367 27.4907 18.8047 27.504 18.9647 27.504C19.2954 27.504 19.5487 27.4533 19.7247 27.352C19.906 27.2507 19.9967 27.1093 19.9967 26.928C19.9967 26.7733 19.9434 26.656 19.8367 26.576C19.7354 26.4907 19.5647 26.4267 19.3247 26.384L18.5007 26.24C18.1327 26.1707 17.8554 26.0453 17.6687 25.864C17.4874 25.6827 17.3967 25.4453 17.3967 25.152C17.3967 24.9173 17.4607 24.712 17.5887 24.536C17.722 24.36 17.9114 24.224 18.1567 24.128C18.402 24.0267 18.6954 23.976 19.0367 23.976C19.2234 23.976 19.4127 23.9947 19.6047 24.032C19.802 24.0693 19.9834 24.1253 20.1487 24.2C20.3194 24.2693 20.458 24.3573 20.5647 24.464L20.3247 24.968C20.218 24.8667 20.09 24.7867 19.9407 24.728C19.7967 24.664 19.6447 24.6187 19.4847 24.592C19.33 24.56 19.178 24.544 19.0287 24.544C18.7194 24.544 18.4794 24.5973 18.3087 24.704C18.138 24.8053 18.0527 24.9493 18.0527 25.136C18.0527 25.2853 18.1007 25.4027 18.1967 25.488C18.298 25.5733 18.4607 25.6373 18.6847 25.68L19.4847 25.824C19.8794 25.8987 20.1727 26.024 20.3647 26.2C20.5567 26.3707 20.6527 26.608 20.6527 26.912C20.6527 27.1467 20.5834 27.352 20.4447 27.528C20.306 27.6987 20.1114 27.832 19.8607 27.928C19.61 28.024 19.314 28.072 18.9727 28.072ZM23.4541 28.072C22.9795 28.072 22.6195 27.9467 22.3741 27.696C22.1341 27.4453 22.0141 27.088 22.0141 26.624V24.632H21.2141V24.048H22.0381V22.872H22.7261V24.048H24.1421V24.632H22.7261V26.56C22.7261 26.864 22.7928 27.0907 22.9261 27.24C23.0648 27.384 23.2755 27.456 23.5581 27.456C23.6701 27.456 23.7768 27.4453 23.8781 27.424C23.9848 27.4027 24.0861 27.3707 24.1821 27.328L24.2941 27.888C24.1875 27.9467 24.0568 27.992 23.9021 28.024C23.7528 28.056 23.6035 28.072 23.4541 28.072ZM26.4461 28.072C26.1634 28.072 25.9101 28.0213 25.6861 27.92C25.4621 27.8133 25.2861 27.6693 25.1581 27.488C25.0301 27.3067 24.9661 27.104 24.9661 26.88C24.9661 26.576 25.0514 26.3387 25.2221 26.168C25.3927 25.992 25.6541 25.8667 26.0061 25.792C26.3634 25.7173 26.8194 25.68 27.3741 25.68H27.9421V26.168H27.4061C27.0967 26.168 26.8327 26.1787 26.6141 26.2C26.3954 26.216 26.2167 26.2507 26.0781 26.304C25.9394 26.352 25.8381 26.4187 25.7741 26.504C25.7101 26.5893 25.6781 26.7013 25.6781 26.84C25.6781 27.0533 25.7607 27.2187 25.9261 27.336C26.0967 27.4533 26.3127 27.512 26.5741 27.512C26.8034 27.512 27.0114 27.4613 27.1981 27.36C27.3901 27.2533 27.5421 27.112 27.6541 26.936C27.7714 26.76 27.8301 26.5653 27.8301 26.352V25.448C27.8301 25.1333 27.7421 24.9067 27.5661 24.768C27.3901 24.624 27.1287 24.552 26.7821 24.552C26.5474 24.552 26.3127 24.584 26.0781 24.648C25.8487 24.712 25.6114 24.8187 25.3661 24.968L25.1341 24.44C25.2994 24.3387 25.4754 24.256 25.6621 24.192C25.8487 24.1227 26.0434 24.0693 26.2461 24.032C26.4487 23.9947 26.6514 23.976 26.8541 23.976C27.1954 23.976 27.4887 24.0293 27.7341 24.136C27.9847 24.2427 28.1767 24.408 28.3101 24.632C28.4487 24.856 28.5181 25.1493 28.5181 25.512V28H27.8941V27.136C27.8194 27.3013 27.7154 27.456 27.5821 27.6C27.4487 27.744 27.2861 27.8587 27.0941 27.944C26.9074 28.0293 26.6914 28.072 26.4461 28.072ZM29.9308 28V24.048H30.5948V24.904C30.7228 24.6107 30.9148 24.384 31.1708 24.224C31.4268 24.0587 31.7148 23.976 32.0348 23.976C32.3601 23.976 32.6321 24.0347 32.8508 24.152C33.0694 24.264 33.2321 24.44 33.3388 24.68C33.4508 24.9147 33.5068 25.208 33.5068 25.56V28H32.7948V25.6C32.7948 25.3867 32.7654 25.2053 32.7068 25.056C32.6481 24.9067 32.5494 24.792 32.4108 24.712C32.2774 24.6267 32.0988 24.584 31.8748 24.584C31.6401 24.584 31.4268 24.6373 31.2348 24.744C31.0481 24.8507 30.9014 24.9947 30.7948 25.176C30.6934 25.3573 30.6428 25.56 30.6428 25.784V28H29.9308ZM36.5791 28.072C36.1045 28.072 35.7445 27.9467 35.4991 27.696C35.2591 27.4453 35.1391 27.088 35.1391 26.624V24.632H34.3391V24.048H35.1631V22.872H35.8511V24.048H37.2671V24.632H35.8511V26.56C35.8511 26.864 35.9178 27.0907 36.0511 27.24C36.1898 27.384 36.4005 27.456 36.6831 27.456C36.7951 27.456 36.9018 27.4453 37.0031 27.424C37.1098 27.4027 37.2111 27.3707 37.3071 27.328L37.4191 27.888C37.3125 27.9467 37.1818 27.992 37.0271 28.024C36.8778 28.056 36.7285 28.072 36.5791 28.072ZM38.6324 29.152L38.2724 28.872C38.3684 28.7813 38.4431 28.6773 38.4964 28.56C38.5551 28.448 38.5978 28.3307 38.6244 28.208C38.6511 28.0907 38.6671 27.9813 38.6724 27.88L38.8084 28H38.2244V27.12H39.1364V27.776C39.1364 27.9413 39.1204 28.1067 39.0884 28.272C39.0564 28.4373 39.0031 28.5947 38.9284 28.744C38.8538 28.8933 38.7551 29.0293 38.6324 29.152ZM42.7933 28V22.36H43.5853L45.6173 26.384H45.5693L47.5853 22.36H48.3773V28H47.6973V23.368H47.7293L45.8493 27.104H45.3293L43.4333 23.368H43.4733V28H42.7933ZM49.8586 23.096V22.304H50.7226V23.096H49.8586ZM49.9386 28V24.048H50.6506V28H49.9386ZM53.8314 28.072C53.426 28.072 53.074 27.9867 52.7754 27.816C52.4767 27.6453 52.2447 27.408 52.0794 27.104C51.914 26.7947 51.8314 26.432 51.8314 26.016C51.8314 25.6 51.914 25.24 52.0794 24.936C52.2447 24.6267 52.4767 24.3893 52.7754 24.224C53.0794 24.0587 53.434 23.976 53.8394 23.976C54.1114 23.976 54.37 24.0213 54.6154 24.112C54.8607 24.2027 55.0634 24.3253 55.2234 24.48L54.9754 25.008C54.8207 24.8693 54.6474 24.7653 54.4554 24.696C54.2634 24.6213 54.0767 24.584 53.8954 24.584C53.4794 24.584 53.1514 24.7093 52.9114 24.96C52.6714 25.2107 52.5514 25.5653 52.5514 26.024C52.5514 26.4773 52.6714 26.832 52.9114 27.088C53.1514 27.3387 53.4767 27.464 53.8874 27.464C54.074 27.464 54.2607 27.4293 54.4474 27.36C54.6394 27.2853 54.81 27.1813 54.9594 27.048L55.2074 27.576C55.0527 27.7307 54.8527 27.8533 54.6074 27.944C54.362 28.0293 54.1034 28.072 53.8314 28.072ZM56.1339 28V24.048H56.7819V24.96H56.7899C56.8859 24.6667 57.0539 24.4373 57.2939 24.272C57.5339 24.1013 57.8272 24.0053 58.1739 23.984L58.5339 23.968L58.5979 24.616L58.0219 24.664C57.6539 24.696 57.3659 24.8187 57.1579 25.032C56.9499 25.24 56.8459 25.5013 56.8459 25.816V28H56.1339ZM61.1508 28.072C60.7508 28.072 60.4041 27.9867 60.1108 27.816C59.8174 27.6453 59.5908 27.408 59.4308 27.104C59.2708 26.7947 59.1908 26.432 59.1908 26.016C59.1908 25.6053 59.2708 25.248 59.4308 24.944C59.5908 24.6347 59.8174 24.3973 60.1108 24.232C60.4041 24.0613 60.7508 23.976 61.1508 23.976C61.5508 23.976 61.8948 24.0613 62.1828 24.232C62.4761 24.3973 62.7028 24.6347 62.8628 24.944C63.0228 25.248 63.1028 25.6053 63.1028 26.016C63.1028 26.432 63.0228 26.7947 62.8628 27.104C62.7081 27.408 62.4841 27.6453 62.1908 27.816C61.8974 27.9867 61.5508 28.072 61.1508 28.072ZM61.1428 27.472C61.5321 27.472 61.8388 27.3413 62.0628 27.08C62.2868 26.8187 62.3988 26.464 62.3988 26.016C62.3988 25.568 62.2868 25.216 62.0628 24.96C61.8441 24.704 61.5401 24.576 61.1508 24.576C60.7614 24.576 60.4548 24.704 60.2308 24.96C60.0068 25.216 59.8947 25.568 59.8947 26.016C59.8947 26.464 60.0068 26.8187 60.2308 27.08C60.4601 27.3413 60.7641 27.472 61.1428 27.472ZM65.1393 28L63.7633 24.048H64.4833L65.5393 27.264H65.4993L66.6753 24.048H67.2913L68.4513 27.264H68.4113L69.4833 24.048H70.1873L68.8033 28H68.1393L66.9313 24.736H67.0193L65.8113 28H65.1393ZM72.3836 28.072C72.1009 28.072 71.8476 28.0213 71.6236 27.92C71.3996 27.8133 71.2236 27.6693 71.0956 27.488C70.9676 27.3067 70.9036 27.104 70.9036 26.88C70.9036 26.576 70.9889 26.3387 71.1596 26.168C71.3302 25.992 71.5916 25.8667 71.9436 25.792C72.3009 25.7173 72.7569 25.68 73.3116 25.68H73.8796V26.168H73.3436C73.0342 26.168 72.7702 26.1787 72.5516 26.2C72.3329 26.216 72.1542 26.2507 72.0156 26.304C71.8769 26.352 71.7756 26.4187 71.7116 26.504C71.6476 26.5893 71.6156 26.7013 71.6156 26.84C71.6156 27.0533 71.6982 27.2187 71.8636 27.336C72.0342 27.4533 72.2502 27.512 72.5116 27.512C72.7409 27.512 72.9489 27.4613 73.1356 27.36C73.3276 27.2533 73.4796 27.112 73.5916 26.936C73.7089 26.76 73.7676 26.5653 73.7676 26.352V25.448C73.7676 25.1333 73.6796 24.9067 73.5036 24.768C73.3276 24.624 73.0662 24.552 72.7196 24.552C72.4849 24.552 72.2502 24.584 72.0156 24.648C71.7862 24.712 71.5489 24.8187 71.3036 24.968L71.0716 24.44C71.2369 24.3387 71.4129 24.256 71.5996 24.192C71.7862 24.1227 71.9809 24.0693 72.1836 24.032C72.3862 23.9947 72.5889 23.976 72.7916 23.976C73.1329 23.976 73.4262 24.0293 73.6716 24.136C73.9222 24.2427 74.1142 24.408 74.2476 24.632C74.3862 24.856 74.4556 25.1493 74.4556 25.512V28H73.8316V27.136C73.7569 27.3013 73.6529 27.456 73.5196 27.6C73.3862 27.744 73.2236 27.8587 73.0316 27.944C72.8449 28.0293 72.6289 28.072 72.3836 28.072ZM76.9412 28L75.2852 24.048H76.0452L77.3332 27.296H77.2932L78.5812 24.048H79.3172L77.6532 28H76.9412ZM82.0457 28.072C81.603 28.072 81.219 27.992 80.8937 27.832C80.5737 27.6667 80.3284 27.432 80.1577 27.128C79.987 26.8187 79.9017 26.4507 79.9017 26.024C79.9017 25.624 79.9817 25.272 80.1417 24.968C80.3017 24.6587 80.5284 24.416 80.8217 24.24C81.115 24.064 81.4644 23.976 81.8697 23.976C82.2537 23.976 82.579 24.0587 82.8457 24.224C83.1177 24.3893 83.323 24.6213 83.4617 24.92C83.6057 25.2187 83.6777 25.5733 83.6777 25.984V26.216H80.4377V25.72H83.2137L83.0617 25.88C83.0617 25.4427 82.9577 25.1067 82.7497 24.872C82.547 24.6373 82.2537 24.52 81.8697 24.52C81.619 24.52 81.395 24.5787 81.1977 24.696C81.0057 24.808 80.8564 24.968 80.7497 25.176C80.643 25.384 80.5897 25.6373 80.5897 25.936V26.016C80.5897 26.336 80.6484 26.6053 80.7657 26.824C80.883 27.0427 81.051 27.208 81.2697 27.32C81.4884 27.432 81.7497 27.488 82.0537 27.488C82.2724 27.488 82.4937 27.4587 82.7177 27.4C82.947 27.336 83.1604 27.224 83.3577 27.064L83.5977 27.576C83.395 27.7467 83.1524 27.872 82.8697 27.952C82.5924 28.032 82.3177 28.072 82.0457 28.072ZM88.695 28.072C88.3163 28.072 87.9883 28.0133 87.711 27.896C87.439 27.7787 87.2283 27.616 87.079 27.408C86.935 27.1947 86.863 26.944 86.863 26.656C86.863 26.4 86.911 26.176 87.007 25.984C87.103 25.792 87.239 25.6133 87.415 25.448C87.591 25.2827 87.7963 25.1227 88.031 24.968L88.311 24.784L88.215 24.92C87.9483 24.6427 87.759 24.4027 87.647 24.2C87.535 23.992 87.479 23.7733 87.479 23.544C87.479 23.2987 87.5403 23.0827 87.663 22.896C87.7857 22.704 87.959 22.5547 88.183 22.448C88.407 22.3413 88.6657 22.288 88.959 22.288C89.2257 22.288 89.4577 22.336 89.655 22.432C89.8577 22.5227 90.015 22.6533 90.127 22.824C90.2443 22.9893 90.303 23.1867 90.303 23.416C90.303 23.608 90.2577 23.7893 90.167 23.96C90.0763 24.1307 89.9377 24.2987 89.751 24.464C89.5643 24.6293 89.3217 24.8053 89.023 24.992L88.975 24.856L90.495 26.512L90.391 26.52C90.5083 26.3173 90.6097 26.056 90.695 25.736C90.7803 25.4107 90.8283 25.0747 90.839 24.728H91.463C91.447 25.1707 91.3777 25.584 91.255 25.968C91.1323 26.3467 90.9777 26.672 90.791 26.944L90.743 26.76L91.935 28H91.103L90.391 27.232H90.551C90.3323 27.504 90.0603 27.712 89.735 27.856C89.415 28 89.0683 28.072 88.695 28.072ZM88.735 27.504C89.039 27.504 89.3137 27.448 89.559 27.336C89.8043 27.2187 90.0097 27.0453 90.175 26.816V27.024L88.431 25.16H88.711L88.455 25.32C88.2577 25.4587 88.0923 25.5893 87.959 25.712C87.8257 25.8347 87.727 25.968 87.663 26.112C87.599 26.2507 87.567 26.4133 87.567 26.6C87.567 26.888 87.6683 27.112 87.871 27.272C88.0737 27.4267 88.3617 27.504 88.735 27.504ZM88.959 22.824C88.7243 22.824 88.527 22.8907 88.367 23.024C88.2123 23.152 88.135 23.3253 88.135 23.544C88.135 23.656 88.1537 23.7653 88.191 23.872C88.2337 23.9733 88.303 24.0853 88.399 24.208C88.495 24.3307 88.623 24.4827 88.783 24.664L88.639 24.64C88.8843 24.4853 89.0843 24.3467 89.239 24.224C89.3937 24.096 89.5083 23.9733 89.583 23.856C89.6577 23.7333 89.695 23.608 89.695 23.48C89.695 23.272 89.623 23.112 89.479 23C89.3403 22.8827 89.167 22.824 88.959 22.824ZM95.0898 28V22.36H98.7378V22.984H95.8018V24.864H98.5778V25.48H95.8018V28H95.0898ZM99.7198 28V24.048H100.368V24.96H100.376C100.472 24.6667 100.64 24.4373 100.88 24.272C101.12 24.1013 101.413 24.0053 101.76 23.984L102.12 23.968L102.184 24.616L101.608 24.664C101.24 24.696 100.952 24.8187 100.744 25.032C100.536 25.24 100.432 25.5013 100.432 25.816V28H99.7198ZM104.921 28.072C104.478 28.072 104.094 27.992 103.769 27.832C103.449 27.6667 103.203 27.432 103.033 27.128C102.862 26.8187 102.777 26.4507 102.777 26.024C102.777 25.624 102.857 25.272 103.017 24.968C103.177 24.6587 103.403 24.416 103.697 24.24C103.99 24.064 104.339 23.976 104.745 23.976C105.129 23.976 105.454 24.0587 105.721 24.224C105.993 24.3893 106.198 24.6213 106.337 24.92C106.481 25.2187 106.553 25.5733 106.553 25.984V26.216H103.313V25.72H106.089L105.937 25.88C105.937 25.4427 105.833 25.1067 105.625 24.872C105.422 24.6373 105.129 24.52 104.745 24.52C104.494 24.52 104.27 24.5787 104.073 24.696C103.881 24.808 103.731 24.968 103.625 25.176C103.518 25.384 103.465 25.6373 103.465 25.936V26.016C103.465 26.336 103.523 26.6053 103.641 26.824C103.758 27.0427 103.926 27.208 104.145 27.32C104.363 27.432 104.625 27.488 104.929 27.488C105.147 27.488 105.369 27.4587 105.593 27.4C105.822 27.336 106.035 27.224 106.233 27.064L106.473 27.576C106.27 27.7467 106.027 27.872 105.745 27.952C105.467 28.032 105.193 28.072 104.921 28.072ZM109.632 28.072C109.189 28.072 108.805 27.992 108.48 27.832C108.16 27.6667 107.914 27.432 107.744 27.128C107.573 26.8187 107.488 26.4507 107.488 26.024C107.488 25.624 107.568 25.272 107.728 24.968C107.888 24.6587 108.114 24.416 108.408 24.24C108.701 24.064 109.05 23.976 109.456 23.976C109.84 23.976 110.165 24.0587 110.432 24.224C110.704 24.3893 110.909 24.6213 111.048 24.92C111.192 25.2187 111.264 25.5733 111.264 25.984V26.216H108.024V25.72H110.8L110.648 25.88C110.648 25.4427 110.544 25.1067 110.336 24.872C110.133 24.6373 109.84 24.52 109.456 24.52C109.205 24.52 108.981 24.5787 108.784 24.696C108.592 24.808 108.442 24.968 108.336 25.176C108.229 25.384 108.176 25.6373 108.176 25.936V26.016C108.176 26.336 108.234 26.6053 108.352 26.824C108.469 27.0427 108.637 27.208 108.856 27.32C109.074 27.432 109.336 27.488 109.64 27.488C109.858 27.488 110.08 27.4587 110.304 27.4C110.533 27.336 110.746 27.224 110.944 27.064L111.184 27.576C110.981 27.7467 110.738 27.872 110.456 27.952C110.178 28.032 109.904 28.072 109.632 28.072ZM112.191 28V27.544L114.695 24.416L114.735 24.64H112.247V24.048H115.399V24.504L112.871 27.656L112.831 27.408H115.487V28H112.191ZM118.397 28.072C117.955 28.072 117.571 27.992 117.245 27.832C116.925 27.6667 116.68 27.432 116.509 27.128C116.339 26.8187 116.253 26.4507 116.253 26.024C116.253 25.624 116.333 25.272 116.493 24.968C116.653 24.6587 116.88 24.416 117.173 24.24C117.467 24.064 117.816 23.976 118.221 23.976C118.605 23.976 118.931 24.0587 119.197 24.224C119.469 24.3893 119.675 24.6213 119.813 24.92C119.957 25.2187 120.029 25.5733 120.029 25.984V26.216H116.789V25.72H119.565L119.413 25.88C119.413 25.4427 119.309 25.1067 119.101 24.872C118.899 24.6373 118.605 24.52 118.221 24.52C117.971 24.52 117.747 24.5787 117.549 24.696C117.357 24.808 117.208 24.968 117.101 25.176C116.995 25.384 116.941 25.6373 116.941 25.936V26.016C116.941 26.336 117 26.6053 117.117 26.824C117.235 27.0427 117.403 27.208 117.621 27.32C117.84 27.432 118.101 27.488 118.405 27.488C118.624 27.488 118.845 27.4587 119.069 27.4C119.299 27.336 119.512 27.224 119.709 27.064L119.949 27.576C119.747 27.7467 119.504 27.872 119.221 27.952C118.944 28.032 118.669 28.072 118.397 28.072ZM121.204 28V24.048H121.852V24.96H121.86C121.956 24.6667 122.124 24.4373 122.364 24.272C122.604 24.1013 122.898 24.0053 123.244 23.984L123.604 23.968L123.668 24.616L123.092 24.664C122.724 24.696 122.436 24.8187 122.228 25.032C122.02 25.24 121.916 25.5013 121.916 25.816V28H121.204ZM128.79 28.072C128.481 28.072 128.188 28.048 127.91 28C127.633 27.952 127.38 27.88 127.15 27.784C126.921 27.688 126.721 27.5707 126.55 27.432L126.814 26.84C126.996 26.984 127.188 27.1013 127.39 27.192C127.598 27.2773 127.817 27.3387 128.046 27.376C128.281 27.4133 128.529 27.432 128.79 27.432C129.233 27.432 129.572 27.344 129.806 27.168C130.046 26.992 130.166 26.752 130.166 26.448C130.166 26.288 130.126 26.1547 130.046 26.048C129.972 25.9413 129.852 25.8533 129.686 25.784C129.526 25.7147 129.318 25.6533 129.062 25.6L128.142 25.424C127.625 25.3227 127.252 25.144 127.022 24.888C126.793 24.632 126.678 24.3093 126.678 23.92C126.678 23.5893 126.769 23.304 126.95 23.064C127.137 22.8187 127.393 22.6293 127.718 22.496C128.049 22.3573 128.425 22.288 128.846 22.288C129.113 22.288 129.361 22.3147 129.59 22.368C129.825 22.416 130.038 22.4907 130.23 22.592C130.428 22.6933 130.604 22.816 130.758 22.96L130.494 23.544C130.265 23.32 130.014 23.1627 129.742 23.072C129.47 22.976 129.169 22.928 128.838 22.928C128.561 22.928 128.313 22.968 128.094 23.048C127.876 23.1227 127.702 23.2347 127.574 23.384C127.452 23.528 127.39 23.7067 127.39 23.92C127.39 24.1547 127.465 24.3413 127.614 24.48C127.764 24.6133 128.017 24.7173 128.374 24.792L129.286 24.968C129.83 25.0693 130.233 25.24 130.494 25.48C130.756 25.72 130.886 26.032 130.886 26.416C130.886 26.736 130.798 27.0213 130.622 27.272C130.452 27.5227 130.209 27.72 129.894 27.864C129.585 28.0027 129.217 28.072 128.79 28.072ZM133.352 28.072C133.07 28.072 132.816 28.0213 132.592 27.92C132.368 27.8133 132.192 27.6693 132.064 27.488C131.936 27.3067 131.872 27.104 131.872 26.88C131.872 26.576 131.958 26.3387 132.128 26.168C132.299 25.992 132.56 25.8667 132.912 25.792C133.27 25.7173 133.726 25.68 134.28 25.68H134.848V26.168H134.312C134.003 26.168 133.739 26.1787 133.52 26.2C133.302 26.216 133.123 26.2507 132.984 26.304C132.846 26.352 132.744 26.4187 132.68 26.504C132.616 26.5893 132.584 26.7013 132.584 26.84C132.584 27.0533 132.667 27.2187 132.832 27.336C133.003 27.4533 133.219 27.512 133.48 27.512C133.71 27.512 133.918 27.4613 134.104 27.36C134.296 27.2533 134.448 27.112 134.56 26.936C134.678 26.76 134.736 26.5653 134.736 26.352V25.448C134.736 25.1333 134.648 24.9067 134.472 24.768C134.296 24.624 134.035 24.552 133.688 24.552C133.454 24.552 133.219 24.584 132.984 24.648C132.755 24.712 132.518 24.8187 132.272 24.968L132.04 24.44C132.206 24.3387 132.382 24.256 132.568 24.192C132.755 24.1227 132.95 24.0693 133.152 24.032C133.355 23.9947 133.558 23.976 133.76 23.976C134.102 23.976 134.395 24.0293 134.64 24.136C134.891 24.2427 135.083 24.408 135.216 24.632C135.355 24.856 135.424 25.1493 135.424 25.512V28H134.8V27.136C134.726 27.3013 134.622 27.456 134.488 27.6C134.355 27.744 134.192 27.8587 134 27.944C133.814 28.0293 133.598 28.072 133.352 28.072ZM137.077 28V24.608H136.269V24.048H137.261L137.077 24.232V23.976C137.077 23.4587 137.221 23.0667 137.509 22.8C137.797 22.528 138.216 22.376 138.765 22.344L139.181 22.32L139.237 22.904L138.757 22.936C138.565 22.9467 138.397 22.984 138.253 23.048C138.109 23.1067 137.994 23.2027 137.909 23.336C137.829 23.4693 137.789 23.656 137.789 23.896V24.128L137.677 24.048H139.037V24.608H137.789V28H137.077ZM141.749 28.072C141.306 28.072 140.922 27.992 140.597 27.832C140.277 27.6667 140.031 27.432 139.861 27.128C139.69 26.8187 139.605 26.4507 139.605 26.024C139.605 25.624 139.685 25.272 139.845 24.968C140.005 24.6587 140.231 24.416 140.525 24.24C140.818 24.064 141.167 23.976 141.573 23.976C141.957 23.976 142.282 24.0587 142.549 24.224C142.821 24.3893 143.026 24.6213 143.165 24.92C143.309 25.2187 143.381 25.5733 143.381 25.984V26.216H140.141V25.72H142.917L142.765 25.88C142.765 25.4427 142.661 25.1067 142.453 24.872C142.25 24.6373 141.957 24.52 141.573 24.52C141.322 24.52 141.098 24.5787 140.901 24.696C140.709 24.808 140.559 24.968 140.453 25.176C140.346 25.384 140.293 25.6373 140.293 25.936V26.016C140.293 26.336 140.351 26.6053 140.469 26.824C140.586 27.0427 140.754 27.208 140.973 27.32C141.191 27.432 141.453 27.488 141.757 27.488C141.975 27.488 142.197 27.4587 142.421 27.4C142.65 27.336 142.863 27.224 143.061 27.064L143.301 27.576C143.098 27.7467 142.855 27.872 142.573 27.952C142.295 28.032 142.021 28.072 141.749 28.072ZM144.828 29.152L144.468 28.872C144.564 28.7813 144.638 28.6773 144.692 28.56C144.75 28.448 144.793 28.3307 144.82 28.208C144.846 28.0907 144.862 27.9813 144.868 27.88L145.004 28H144.42V27.12H145.332V27.776C145.332 27.9413 145.316 28.1067 145.284 28.272C145.252 28.4373 145.198 28.5947 145.124 28.744C145.049 28.8933 144.95 29.0293 144.828 29.152Z" fill="black"/>
</svg>
