<svg width="225" height="95" viewBox="0 0 225 95" fill="none" xmlns="http://www.w3.org/2000/svg">
<rect x="0.5" y="0.5" width="224" height="94" rx="7.5" fill="#FAD4D4" stroke="#FEB6B6"/>
<path d="M18.78 20.108C18.34 20.108 17.924 20.068 17.532 19.988C17.148 19.908 16.792 19.796 16.464 19.652C16.144 19.5 15.852 19.316 15.588 19.1L15.936 18.308C16.208 18.508 16.484 18.68 16.764 18.824C17.052 18.96 17.36 19.064 17.688 19.136C18.024 19.2 18.388 19.232 18.78 19.232C19.5 19.232 20.032 19.1 20.376 18.836C20.728 18.564 20.904 18.208 20.904 17.768C20.904 17.536 20.848 17.336 20.736 17.168C20.632 17 20.456 16.856 20.208 16.736C19.968 16.616 19.652 16.516 19.26 16.436L18.012 16.184C17.26 16.024 16.696 15.764 16.32 15.404C15.952 15.036 15.768 14.548 15.768 13.94C15.768 13.436 15.896 12.996 16.152 12.62C16.416 12.244 16.78 11.952 17.244 11.744C17.716 11.536 18.252 11.432 18.852 11.432C19.236 11.432 19.6 11.472 19.944 11.552C20.288 11.632 20.604 11.752 20.892 11.912C21.188 12.064 21.448 12.252 21.672 12.476L21.324 13.244C20.964 12.916 20.584 12.68 20.184 12.536C19.784 12.384 19.336 12.308 18.84 12.308C18.416 12.308 18.048 12.372 17.736 12.5C17.432 12.628 17.192 12.816 17.016 13.064C16.848 13.304 16.764 13.584 16.764 13.904C16.764 14.288 16.88 14.592 17.112 14.816C17.352 15.04 17.74 15.204 18.276 15.308L19.524 15.572C20.332 15.74 20.928 15.996 21.312 16.34C21.704 16.676 21.9 17.136 21.9 17.72C21.9 18.184 21.772 18.6 21.516 18.968C21.268 19.328 20.908 19.608 20.436 19.808C19.972 20.008 19.42 20.108 18.78 20.108ZM25.9228 20.108C25.3068 20.108 24.7748 19.988 24.3268 19.748C23.8868 19.5 23.5428 19.152 23.2948 18.704C23.0548 18.256 22.9348 17.72 22.9348 17.096C22.9348 16.488 23.0548 15.96 23.2948 15.512C23.5348 15.056 23.8628 14.7 24.2788 14.444C24.7028 14.188 25.1908 14.06 25.7428 14.06C26.2708 14.06 26.7228 14.176 27.0988 14.408C27.4748 14.64 27.7628 14.968 27.9628 15.392C28.1708 15.816 28.2748 16.324 28.2748 16.916V17.288H23.6788V16.652H27.6268L27.4348 16.808C27.4348 16.168 27.2908 15.672 27.0028 15.32C26.7228 14.96 26.3108 14.78 25.7668 14.78C25.3588 14.78 25.0108 14.876 24.7228 15.068C24.4428 15.252 24.2308 15.512 24.0868 15.848C23.9428 16.176 23.8708 16.56 23.8708 17V17.072C23.8708 17.56 23.9468 17.972 24.0988 18.308C24.2588 18.644 24.4948 18.9 24.8068 19.076C25.1188 19.244 25.4908 19.328 25.9228 19.328C26.2668 19.328 26.5988 19.276 26.9188 19.172C27.2468 19.06 27.5548 18.88 27.8428 18.632L28.1788 19.316C27.9148 19.556 27.5788 19.748 27.1708 19.892C26.7628 20.036 26.3468 20.108 25.9228 20.108ZM32.1535 20.108C31.5695 20.108 31.0655 19.98 30.6415 19.724C30.2175 19.468 29.8895 19.112 29.6575 18.656C29.4335 18.192 29.3215 17.656 29.3215 17.048C29.3215 16.432 29.4335 15.9 29.6575 15.452C29.8895 15.004 30.2175 14.66 30.6415 14.42C31.0655 14.18 31.5695 14.06 32.1535 14.06C32.5135 14.06 32.8695 14.124 33.2215 14.252C33.5735 14.38 33.8655 14.56 34.0975 14.792L33.7615 15.5C33.5295 15.276 33.2735 15.112 32.9935 15.008C32.7215 14.904 32.4615 14.852 32.2135 14.852C31.6055 14.852 31.1375 15.044 30.8095 15.428C30.4815 15.804 30.3175 16.348 30.3175 17.06C30.3175 17.756 30.4815 18.308 30.8095 18.716C31.1375 19.116 31.6055 19.316 32.2135 19.316C32.4615 19.316 32.7215 19.264 32.9935 19.16C33.2735 19.056 33.5295 18.888 33.7615 18.656L34.0975 19.364C33.8655 19.596 33.5695 19.78 33.2095 19.916C32.8575 20.044 32.5055 20.108 32.1535 20.108ZM37.3002 20.108C36.8282 20.108 36.4362 20.024 36.1242 19.856C35.8202 19.68 35.5882 19.42 35.4282 19.076C35.2762 18.732 35.2002 18.304 35.2002 17.792V14.168H36.1722V17.78C36.1722 18.124 36.2162 18.412 36.3042 18.644C36.4002 18.868 36.5482 19.036 36.7482 19.148C36.9482 19.252 37.1962 19.304 37.4922 19.304C37.8282 19.304 38.1202 19.228 38.3682 19.076C38.6162 18.924 38.8122 18.712 38.9562 18.44C39.1002 18.168 39.1722 17.848 39.1722 17.48V14.168H40.1442V20H39.1962V18.656H39.3522C39.1922 19.128 38.9282 19.488 38.5602 19.736C38.2002 19.984 37.7802 20.108 37.3002 20.108ZM41.9628 20V14.168H42.9108V15.548H42.7908C42.9268 15.076 43.1628 14.72 43.4988 14.48C43.8348 14.232 44.2788 14.088 44.8308 14.048L45.1788 14.012L45.2508 14.852L44.6388 14.924C44.0948 14.972 43.6748 15.148 43.3788 15.452C43.0908 15.748 42.9468 16.156 42.9468 16.676V20H41.9628ZM48.8213 20.108C48.2053 20.108 47.6733 19.988 47.2253 19.748C46.7853 19.5 46.4413 19.152 46.1933 18.704C45.9533 18.256 45.8333 17.72 45.8333 17.096C45.8333 16.488 45.9533 15.96 46.1933 15.512C46.4333 15.056 46.7613 14.7 47.1773 14.444C47.6013 14.188 48.0893 14.06 48.6413 14.06C49.1693 14.06 49.6213 14.176 49.9973 14.408C50.3733 14.64 50.6613 14.968 50.8613 15.392C51.0693 15.816 51.1733 16.324 51.1733 16.916V17.288H46.5773V16.652H50.5253L50.3333 16.808C50.3333 16.168 50.1893 15.672 49.9013 15.32C49.6213 14.96 49.2093 14.78 48.6653 14.78C48.2573 14.78 47.9093 14.876 47.6213 15.068C47.3413 15.252 47.1293 15.512 46.9853 15.848C46.8413 16.176 46.7693 16.56 46.7693 17V17.072C46.7693 17.56 46.8453 17.972 46.9973 18.308C47.1573 18.644 47.3933 18.9 47.7053 19.076C48.0173 19.244 48.3893 19.328 48.8213 19.328C49.1653 19.328 49.4973 19.276 49.8173 19.172C50.1453 19.06 50.4533 18.88 50.7413 18.632L51.0773 19.316C50.8133 19.556 50.4773 19.748 50.0693 19.892C49.6613 20.036 49.2453 20.108 48.8213 20.108ZM52.928 21.368L52.472 21.02C52.616 20.868 52.724 20.724 52.796 20.588C52.876 20.46 52.928 20.328 52.952 20.192C52.984 20.064 53 19.932 53 19.796L53.216 20H52.424V18.776H53.648V19.64C53.648 19.856 53.624 20.06 53.576 20.252C53.536 20.452 53.464 20.644 53.36 20.828C53.256 21.012 53.112 21.192 52.928 21.368ZM58.5245 20V11.54H59.5085V19.136H63.8165V20H58.5245ZM67.4775 20.108C66.8615 20.108 66.3295 19.988 65.8815 19.748C65.4415 19.5 65.0975 19.152 64.8495 18.704C64.6095 18.256 64.4895 17.72 64.4895 17.096C64.4895 16.488 64.6095 15.96 64.8495 15.512C65.0895 15.056 65.4175 14.7 65.8335 14.444C66.2575 14.188 66.7455 14.06 67.2975 14.06C67.8255 14.06 68.2775 14.176 68.6535 14.408C69.0295 14.64 69.3175 14.968 69.5175 15.392C69.7255 15.816 69.8295 16.324 69.8295 16.916V17.288H65.2335V16.652H69.1815L68.9895 16.808C68.9895 16.168 68.8455 15.672 68.5575 15.32C68.2775 14.96 67.8655 14.78 67.3215 14.78C66.9135 14.78 66.5655 14.876 66.2775 15.068C65.9975 15.252 65.7855 15.512 65.6415 15.848C65.4975 16.176 65.4255 16.56 65.4255 17V17.072C65.4255 17.56 65.5015 17.972 65.6535 18.308C65.8135 18.644 66.0495 18.9 66.3615 19.076C66.6735 19.244 67.0455 19.328 67.4775 19.328C67.8215 19.328 68.1535 19.276 68.4735 19.172C68.8015 19.06 69.1095 18.88 69.3975 18.632L69.7335 19.316C69.4695 19.556 69.1335 19.748 68.7255 19.892C68.3175 20.036 67.9015 20.108 67.4775 20.108ZM73.0722 20.108C72.6722 20.108 72.3122 20.032 71.9922 19.88C71.6802 19.72 71.4322 19.504 71.2482 19.232C71.0642 18.96 70.9722 18.656 70.9722 18.32C70.9722 17.888 71.0802 17.548 71.2962 17.3C71.5202 17.052 71.8842 16.876 72.3882 16.772C72.9002 16.668 73.5962 16.616 74.4762 16.616H75.0162V17.252H74.4882C74.0002 17.252 73.5922 17.268 73.2642 17.3C72.9362 17.332 72.6762 17.388 72.4842 17.468C72.2922 17.548 72.1562 17.652 72.0762 17.78C71.9962 17.908 71.9562 18.068 71.9562 18.26C71.9562 18.588 72.0682 18.856 72.2922 19.064C72.5242 19.272 72.8362 19.376 73.2282 19.376C73.5482 19.376 73.8282 19.3 74.0682 19.148C74.3162 18.996 74.5082 18.788 74.6442 18.524C74.7882 18.26 74.8602 17.956 74.8602 17.612V16.244C74.8602 15.748 74.7602 15.392 74.5602 15.176C74.3602 14.952 74.0322 14.84 73.5762 14.84C73.2242 14.84 72.8842 14.892 72.5562 14.996C72.2282 15.092 71.8922 15.252 71.5482 15.476L71.2122 14.768C71.4202 14.624 71.6562 14.5 71.9202 14.396C72.1842 14.284 72.4602 14.2 72.7482 14.144C73.0362 14.088 73.3122 14.06 73.5762 14.06C74.0802 14.06 74.4962 14.144 74.8242 14.312C75.1522 14.472 75.3962 14.72 75.5562 15.056C75.7162 15.384 75.7962 15.808 75.7962 16.328V20H74.8842V18.644H74.9922C74.9282 18.948 74.8042 19.208 74.6202 19.424C74.4442 19.64 74.2242 19.808 73.9602 19.928C73.6962 20.048 73.4002 20.108 73.0722 20.108ZM77.5995 20V11.54H78.5715V16.76H78.5955L81.2955 14.168H82.5315L79.3275 17.24V16.712L82.7835 20H81.5475L78.5955 17.264H78.5715V20H77.5995ZM83.1999 17.204V16.4H86.5599V17.204H83.1999ZM88.4659 20V11.54H91.8139C92.7179 11.54 93.4139 11.752 93.9019 12.176C94.3899 12.6 94.6339 13.204 94.6339 13.988C94.6339 14.484 94.5219 14.916 94.2979 15.284C94.0819 15.644 93.7619 15.92 93.3379 16.112C92.9139 16.296 92.4059 16.388 91.8139 16.388L91.9339 16.232H92.1739C92.4859 16.232 92.7579 16.312 92.9899 16.472C93.2219 16.632 93.4339 16.888 93.6259 17.24L95.1139 20H94.0339L92.5699 17.288C92.4499 17.064 92.3139 16.888 92.1619 16.76C92.0179 16.632 91.8499 16.544 91.6579 16.496C91.4739 16.448 91.2499 16.424 90.9859 16.424H89.4499V20H88.4659ZM89.4499 15.644H91.6699C92.3259 15.644 92.8219 15.508 93.1579 15.236C93.4939 14.956 93.6619 14.54 93.6619 13.988C93.6619 13.452 93.4939 13.048 93.1579 12.776C92.8219 12.496 92.3259 12.356 91.6699 12.356H89.4499V15.644ZM98.8603 20.108C98.2443 20.108 97.7123 19.988 97.2643 19.748C96.8243 19.5 96.4803 19.152 96.2323 18.704C95.9923 18.256 95.8723 17.72 95.8723 17.096C95.8723 16.488 95.9923 15.96 96.2323 15.512C96.4723 15.056 96.8003 14.7 97.2163 14.444C97.6403 14.188 98.1283 14.06 98.6803 14.06C99.2083 14.06 99.6603 14.176 100.036 14.408C100.412 14.64 100.7 14.968 100.9 15.392C101.108 15.816 101.212 16.324 101.212 16.916V17.288H96.6163V16.652H100.564L100.372 16.808C100.372 16.168 100.228 15.672 99.9403 15.32C99.6603 14.96 99.2483 14.78 98.7043 14.78C98.2963 14.78 97.9483 14.876 97.6603 15.068C97.3803 15.252 97.1683 15.512 97.0243 15.848C96.8803 16.176 96.8083 16.56 96.8083 17V17.072C96.8083 17.56 96.8843 17.972 97.0363 18.308C97.1963 18.644 97.4323 18.9 97.7443 19.076C98.0563 19.244 98.4283 19.328 98.8603 19.328C99.2043 19.328 99.5363 19.276 99.8563 19.172C100.184 19.06 100.492 18.88 100.78 18.632L101.116 19.316C100.852 19.556 100.516 19.748 100.108 19.892C99.7003 20.036 99.2843 20.108 98.8603 20.108ZM104.587 20.108C104.283 20.108 103.987 20.076 103.699 20.012C103.419 19.956 103.155 19.876 102.907 19.772C102.667 19.66 102.459 19.528 102.283 19.376L102.595 18.692C102.787 18.844 102.995 18.972 103.219 19.076C103.443 19.172 103.671 19.244 103.903 19.292C104.135 19.34 104.371 19.364 104.611 19.364C105.067 19.364 105.411 19.28 105.643 19.112C105.875 18.944 105.991 18.716 105.991 18.428C105.991 18.204 105.915 18.028 105.763 17.9C105.611 17.764 105.371 17.66 105.043 17.588L103.951 17.348C103.447 17.244 103.071 17.064 102.823 16.808C102.583 16.552 102.463 16.22 102.463 15.812C102.463 15.452 102.555 15.144 102.739 14.888C102.931 14.624 103.199 14.42 103.543 14.276C103.887 14.132 104.287 14.06 104.743 14.06C105.015 14.06 105.275 14.088 105.523 14.144C105.771 14.2 106.003 14.284 106.219 14.396C106.443 14.5 106.635 14.632 106.795 14.792L106.471 15.476C106.319 15.332 106.147 15.212 105.955 15.116C105.763 15.012 105.563 14.936 105.355 14.888C105.155 14.832 104.951 14.804 104.743 14.804C104.295 14.804 103.955 14.892 103.723 15.068C103.491 15.244 103.375 15.476 103.375 15.764C103.375 15.988 103.447 16.172 103.591 16.316C103.735 16.46 103.959 16.564 104.263 16.628L105.355 16.856C105.875 16.968 106.263 17.148 106.519 17.396C106.783 17.636 106.915 17.964 106.915 18.38C106.915 18.732 106.819 19.04 106.627 19.304C106.435 19.56 106.163 19.76 105.811 19.904C105.467 20.04 105.059 20.108 104.587 20.108ZM108.276 12.716V11.624H109.476V12.716H108.276ZM108.396 20V14.168H109.368V20H108.396ZM113.153 20.108C112.849 20.108 112.553 20.076 112.265 20.012C111.985 19.956 111.721 19.876 111.473 19.772C111.233 19.66 111.025 19.528 110.849 19.376L111.161 18.692C111.353 18.844 111.561 18.972 111.785 19.076C112.009 19.172 112.237 19.244 112.469 19.292C112.701 19.34 112.937 19.364 113.177 19.364C113.633 19.364 113.977 19.28 114.209 19.112C114.441 18.944 114.557 18.716 114.557 18.428C114.557 18.204 114.481 18.028 114.329 17.9C114.177 17.764 113.937 17.66 113.609 17.588L112.517 17.348C112.013 17.244 111.637 17.064 111.389 16.808C111.149 16.552 111.029 16.22 111.029 15.812C111.029 15.452 111.121 15.144 111.305 14.888C111.497 14.624 111.765 14.42 112.109 14.276C112.453 14.132 112.853 14.06 113.309 14.06C113.581 14.06 113.841 14.088 114.089 14.144C114.337 14.2 114.569 14.284 114.785 14.396C115.009 14.5 115.201 14.632 115.361 14.792L115.037 15.476C114.885 15.332 114.713 15.212 114.521 15.116C114.329 15.012 114.129 14.936 113.921 14.888C113.721 14.832 113.517 14.804 113.309 14.804C112.861 14.804 112.521 14.892 112.289 15.068C112.057 15.244 111.941 15.476 111.941 15.764C111.941 15.988 112.013 16.172 112.157 16.316C112.301 16.46 112.525 16.564 112.829 16.628L113.921 16.856C114.441 16.968 114.829 17.148 115.085 17.396C115.349 17.636 115.481 17.964 115.481 18.38C115.481 18.732 115.385 19.04 115.193 19.304C115.001 19.56 114.729 19.76 114.377 19.904C114.033 20.04 113.625 20.108 113.153 20.108ZM119.244 20.108C118.556 20.108 118.04 19.924 117.696 19.556C117.352 19.188 117.18 18.664 117.18 17.984V14.924H116.04V14.168H117.18V12.38H118.152V14.168H120V14.924H118.152V17.888C118.152 18.344 118.248 18.692 118.44 18.932C118.632 19.164 118.944 19.28 119.376 19.28C119.504 19.28 119.632 19.264 119.76 19.232C119.888 19.2 120.004 19.168 120.108 19.136L120.276 19.88C120.172 19.936 120.02 19.988 119.82 20.036C119.62 20.084 119.428 20.108 119.244 20.108ZM122.936 20.108C122.536 20.108 122.176 20.032 121.856 19.88C121.544 19.72 121.296 19.504 121.112 19.232C120.928 18.96 120.836 18.656 120.836 18.32C120.836 17.888 120.944 17.548 121.16 17.3C121.384 17.052 121.748 16.876 122.252 16.772C122.764 16.668 123.46 16.616 124.34 16.616H124.88V17.252H124.352C123.864 17.252 123.456 17.268 123.128 17.3C122.8 17.332 122.54 17.388 122.348 17.468C122.156 17.548 122.02 17.652 121.94 17.78C121.86 17.908 121.82 18.068 121.82 18.26C121.82 18.588 121.932 18.856 122.156 19.064C122.388 19.272 122.7 19.376 123.092 19.376C123.412 19.376 123.692 19.3 123.932 19.148C124.18 18.996 124.372 18.788 124.508 18.524C124.652 18.26 124.724 17.956 124.724 17.612V16.244C124.724 15.748 124.624 15.392 124.424 15.176C124.224 14.952 123.896 14.84 123.44 14.84C123.088 14.84 122.748 14.892 122.42 14.996C122.092 15.092 121.756 15.252 121.412 15.476L121.076 14.768C121.284 14.624 121.52 14.5 121.784 14.396C122.048 14.284 122.324 14.2 122.612 14.144C122.9 14.088 123.176 14.06 123.44 14.06C123.944 14.06 124.36 14.144 124.688 14.312C125.016 14.472 125.26 14.72 125.42 15.056C125.58 15.384 125.66 15.808 125.66 16.328V20H124.748V18.644H124.856C124.792 18.948 124.668 19.208 124.484 19.424C124.308 19.64 124.088 19.808 123.824 19.928C123.56 20.048 123.264 20.108 122.936 20.108ZM127.463 20V14.168H128.411V15.464H128.279C128.447 15 128.719 14.652 129.095 14.42C129.479 14.18 129.919 14.06 130.415 14.06C130.879 14.06 131.263 14.144 131.567 14.312C131.879 14.472 132.111 14.724 132.263 15.068C132.415 15.412 132.491 15.844 132.491 16.364V20H131.519V16.424C131.519 16.064 131.471 15.768 131.375 15.536C131.287 15.304 131.143 15.132 130.943 15.02C130.751 14.908 130.499 14.852 130.187 14.852C129.835 14.852 129.527 14.928 129.263 15.08C128.999 15.232 128.795 15.444 128.651 15.716C128.507 15.988 128.435 16.308 128.435 16.676V20H127.463ZM136.623 20.108C135.935 20.108 135.419 19.924 135.075 19.556C134.731 19.188 134.559 18.664 134.559 17.984V14.924H133.419V14.168H134.559V12.38H135.531V14.168H137.379V14.924H135.531V17.888C135.531 18.344 135.627 18.692 135.819 18.932C136.011 19.164 136.323 19.28 136.755 19.28C136.883 19.28 137.011 19.264 137.139 19.232C137.267 19.2 137.383 19.168 137.487 19.136L137.655 19.88C137.551 19.936 137.399 19.988 137.199 20.036C136.999 20.084 136.807 20.108 136.623 20.108ZM145.352 20.108C144.52 20.108 143.808 19.932 143.216 19.58C142.624 19.228 142.168 18.728 141.848 18.08C141.536 17.432 141.38 16.66 141.38 15.764C141.38 14.868 141.536 14.1 141.848 13.46C142.168 12.812 142.624 12.312 143.216 11.96C143.808 11.608 144.52 11.432 145.352 11.432C145.936 11.432 146.476 11.524 146.972 11.708C147.468 11.892 147.884 12.16 148.22 12.512L147.836 13.316C147.468 12.972 147.084 12.724 146.684 12.572C146.292 12.412 145.856 12.332 145.376 12.332C144.424 12.332 143.696 12.632 143.192 13.232C142.688 13.832 142.436 14.676 142.436 15.764C142.436 16.852 142.688 17.7 143.192 18.308C143.696 18.908 144.424 19.208 145.376 19.208C145.856 19.208 146.292 19.132 146.684 18.98C147.084 18.82 147.468 18.568 147.836 18.224L148.22 19.028C147.884 19.372 147.468 19.64 146.972 19.832C146.476 20.016 145.936 20.108 145.352 20.108ZM151.637 20.108C151.069 20.108 150.577 19.984 150.161 19.736C149.745 19.488 149.421 19.14 149.189 18.692C148.965 18.236 148.853 17.7 148.853 17.084C148.853 16.468 148.965 15.936 149.189 15.488C149.421 15.032 149.745 14.68 150.161 14.432C150.577 14.184 151.069 14.06 151.637 14.06C152.205 14.06 152.697 14.184 153.113 14.432C153.529 14.68 153.849 15.032 154.073 15.488C154.305 15.936 154.421 16.468 154.421 17.084C154.421 17.7 154.305 18.236 154.073 18.692C153.849 19.14 153.529 19.488 153.113 19.736C152.697 19.984 152.205 20.108 151.637 20.108ZM151.637 19.328C152.189 19.328 152.625 19.136 152.945 18.752C153.273 18.36 153.437 17.8 153.437 17.072C153.437 16.352 153.273 15.8 152.945 15.416C152.625 15.032 152.189 14.84 151.637 14.84C151.093 14.84 150.657 15.032 150.329 15.416C150.001 15.8 149.837 16.352 149.837 17.072C149.837 17.8 150.001 18.36 150.329 18.752C150.657 19.136 151.093 19.328 151.637 19.328ZM155.881 20V14.168H156.829V15.464H156.697C156.865 15 157.137 14.652 157.513 14.42C157.897 14.18 158.337 14.06 158.833 14.06C159.297 14.06 159.681 14.144 159.985 14.312C160.297 14.472 160.529 14.724 160.681 15.068C160.833 15.412 160.909 15.844 160.909 16.364V20H159.937V16.424C159.937 16.064 159.889 15.768 159.793 15.536C159.705 15.304 159.561 15.132 159.361 15.02C159.169 14.908 158.917 14.852 158.605 14.852C158.253 14.852 157.945 14.928 157.681 15.08C157.417 15.232 157.213 15.444 157.069 15.716C156.925 15.988 156.853 16.308 156.853 16.676V20H155.881ZM165.041 20.108C164.353 20.108 163.837 19.924 163.493 19.556C163.149 19.188 162.977 18.664 162.977 17.984V14.924H161.837V14.168H162.977V12.38H163.949V14.168H165.797V14.924H163.949V17.888C163.949 18.344 164.045 18.692 164.237 18.932C164.429 19.164 164.741 19.28 165.173 19.28C165.301 19.28 165.429 19.264 165.557 19.232C165.685 19.2 165.801 19.168 165.905 19.136L166.073 19.88C165.969 19.936 165.817 19.988 165.617 20.036C165.417 20.084 165.225 20.108 165.041 20.108ZM168.732 20.108C168.332 20.108 167.972 20.032 167.652 19.88C167.34 19.72 167.092 19.504 166.908 19.232C166.724 18.96 166.632 18.656 166.632 18.32C166.632 17.888 166.74 17.548 166.956 17.3C167.18 17.052 167.544 16.876 168.048 16.772C168.56 16.668 169.256 16.616 170.136 16.616H170.676V17.252H170.148C169.66 17.252 169.252 17.268 168.924 17.3C168.596 17.332 168.336 17.388 168.144 17.468C167.952 17.548 167.816 17.652 167.736 17.78C167.656 17.908 167.616 18.068 167.616 18.26C167.616 18.588 167.728 18.856 167.952 19.064C168.184 19.272 168.496 19.376 168.888 19.376C169.208 19.376 169.488 19.3 169.728 19.148C169.976 18.996 170.168 18.788 170.304 18.524C170.448 18.26 170.52 17.956 170.52 17.612V16.244C170.52 15.748 170.42 15.392 170.22 15.176C170.02 14.952 169.692 14.84 169.236 14.84C168.884 14.84 168.544 14.892 168.216 14.996C167.888 15.092 167.552 15.252 167.208 15.476L166.872 14.768C167.08 14.624 167.316 14.5 167.58 14.396C167.844 14.284 168.12 14.2 168.408 14.144C168.696 14.088 168.972 14.06 169.236 14.06C169.74 14.06 170.156 14.144 170.484 14.312C170.812 14.472 171.056 14.72 171.216 15.056C171.376 15.384 171.456 15.808 171.456 16.328V20H170.544V18.644H170.652C170.588 18.948 170.464 19.208 170.28 19.424C170.104 19.64 169.884 19.808 169.62 19.928C169.356 20.048 169.06 20.108 168.732 20.108ZM173.14 12.716V11.624H174.34V12.716H173.14ZM173.26 20V14.168H174.232V20H173.26ZM176.049 20V14.168H176.997V15.464H176.865C177.033 15 177.305 14.652 177.681 14.42C178.065 14.18 178.505 14.06 179.001 14.06C179.465 14.06 179.849 14.144 180.153 14.312C180.465 14.472 180.697 14.724 180.849 15.068C181.001 15.412 181.077 15.844 181.077 16.364V20H180.105V16.424C180.105 16.064 180.057 15.768 179.961 15.536C179.873 15.304 179.729 15.132 179.529 15.02C179.337 14.908 179.085 14.852 178.773 14.852C178.421 14.852 178.113 14.928 177.849 15.08C177.585 15.232 177.381 15.444 177.237 15.716C177.093 15.988 177.021 16.308 177.021 16.676V20H176.049ZM185.497 20.108C184.881 20.108 184.349 19.988 183.901 19.748C183.461 19.5 183.117 19.152 182.869 18.704C182.629 18.256 182.509 17.72 182.509 17.096C182.509 16.488 182.629 15.96 182.869 15.512C183.109 15.056 183.437 14.7 183.853 14.444C184.277 14.188 184.765 14.06 185.317 14.06C185.845 14.06 186.297 14.176 186.673 14.408C187.049 14.64 187.337 14.968 187.537 15.392C187.745 15.816 187.849 16.324 187.849 16.916V17.288H183.253V16.652H187.201L187.009 16.808C187.009 16.168 186.865 15.672 186.577 15.32C186.297 14.96 185.885 14.78 185.341 14.78C184.933 14.78 184.585 14.876 184.297 15.068C184.017 15.252 183.805 15.512 183.661 15.848C183.517 16.176 183.445 16.56 183.445 17V17.072C183.445 17.56 183.521 17.972 183.673 18.308C183.833 18.644 184.069 18.9 184.381 19.076C184.693 19.244 185.065 19.328 185.497 19.328C185.841 19.328 186.173 19.276 186.493 19.172C186.821 19.06 187.129 18.88 187.417 18.632L187.753 19.316C187.489 19.556 187.153 19.748 186.745 19.892C186.337 20.036 185.921 20.108 185.497 20.108ZM189.256 20V14.168H190.204V15.548H190.084C190.22 15.076 190.456 14.72 190.792 14.48C191.128 14.232 191.572 14.088 192.124 14.048L192.472 14.012L192.544 14.852L191.932 14.924C191.388 14.972 190.968 15.148 190.672 15.452C190.384 15.748 190.24 16.156 190.24 16.676V20H189.256ZM195.466 20.108C195.162 20.108 194.866 20.076 194.578 20.012C194.298 19.956 194.034 19.876 193.786 19.772C193.546 19.66 193.338 19.528 193.162 19.376L193.474 18.692C193.666 18.844 193.874 18.972 194.098 19.076C194.322 19.172 194.55 19.244 194.782 19.292C195.014 19.34 195.25 19.364 195.49 19.364C195.946 19.364 196.29 19.28 196.522 19.112C196.754 18.944 196.87 18.716 196.87 18.428C196.87 18.204 196.794 18.028 196.642 17.9C196.49 17.764 196.25 17.66 195.922 17.588L194.83 17.348C194.326 17.244 193.95 17.064 193.702 16.808C193.462 16.552 193.342 16.22 193.342 15.812C193.342 15.452 193.434 15.144 193.618 14.888C193.81 14.624 194.078 14.42 194.422 14.276C194.766 14.132 195.166 14.06 195.622 14.06C195.894 14.06 196.154 14.088 196.402 14.144C196.65 14.2 196.882 14.284 197.098 14.396C197.322 14.5 197.514 14.632 197.674 14.792L197.35 15.476C197.198 15.332 197.026 15.212 196.834 15.116C196.642 15.012 196.442 14.936 196.234 14.888C196.034 14.832 195.83 14.804 195.622 14.804C195.174 14.804 194.834 14.892 194.602 15.068C194.37 15.244 194.254 15.476 194.254 15.764C194.254 15.988 194.326 16.172 194.47 16.316C194.614 16.46 194.838 16.564 195.142 16.628L196.234 16.856C196.754 16.968 197.142 17.148 197.398 17.396C197.662 17.636 197.794 17.964 197.794 18.38C197.794 18.732 197.698 19.04 197.506 19.304C197.314 19.56 197.042 19.76 196.69 19.904C196.346 20.04 195.938 20.108 195.466 20.108ZM16.044 36V27.54H18.9C19.82 27.54 20.596 27.704 21.228 28.032C21.868 28.352 22.352 28.828 22.68 29.46C23.016 30.084 23.184 30.852 23.184 31.764C23.184 32.676 23.016 33.448 22.68 34.08C22.352 34.712 21.868 35.192 21.228 35.52C20.596 35.84 19.82 36 18.9 36H16.044ZM17.028 35.16H18.828C19.94 35.16 20.768 34.876 21.312 34.308C21.864 33.74 22.14 32.892 22.14 31.764C22.14 30.636 21.864 29.792 21.312 29.232C20.76 28.664 19.932 28.38 18.828 28.38H17.028V35.16ZM27.4463 36.108C26.8303 36.108 26.2983 35.988 25.8503 35.748C25.4103 35.5 25.0663 35.152 24.8183 34.704C24.5783 34.256 24.4583 33.72 24.4583 33.096C24.4583 32.488 24.5783 31.96 24.8183 31.512C25.0583 31.056 25.3863 30.7 25.8023 30.444C26.2263 30.188 26.7143 30.06 27.2663 30.06C27.7943 30.06 28.2463 30.176 28.6223 30.408C28.9983 30.64 29.2863 30.968 29.4863 31.392C29.6943 31.816 29.7983 32.324 29.7983 32.916V33.288H25.2023V32.652H29.1503L28.9583 32.808C28.9583 32.168 28.8143 31.672 28.5263 31.32C28.2463 30.96 27.8343 30.78 27.2903 30.78C26.8823 30.78 26.5343 30.876 26.2463 31.068C25.9663 31.252 25.7543 31.512 25.6103 31.848C25.4663 32.176 25.3943 32.56 25.3943 33V33.072C25.3943 33.56 25.4703 33.972 25.6223 34.308C25.7823 34.644 26.0183 34.9 26.3303 35.076C26.6423 35.244 27.0143 35.328 27.4463 35.328C27.7903 35.328 28.1223 35.276 28.4423 35.172C28.7703 35.06 29.0783 34.88 29.3663 34.632L29.7023 35.316C29.4383 35.556 29.1023 35.748 28.6943 35.892C28.2863 36.036 27.8703 36.108 27.4463 36.108ZM33.173 36.108C32.869 36.108 32.573 36.076 32.285 36.012C32.005 35.956 31.741 35.876 31.493 35.772C31.253 35.66 31.045 35.528 30.869 35.376L31.181 34.692C31.373 34.844 31.581 34.972 31.805 35.076C32.029 35.172 32.257 35.244 32.489 35.292C32.721 35.34 32.957 35.364 33.197 35.364C33.653 35.364 33.997 35.28 34.229 35.112C34.461 34.944 34.577 34.716 34.577 34.428C34.577 34.204 34.501 34.028 34.349 33.9C34.197 33.764 33.957 33.66 33.629 33.588L32.537 33.348C32.033 33.244 31.657 33.064 31.409 32.808C31.169 32.552 31.049 32.22 31.049 31.812C31.049 31.452 31.141 31.144 31.325 30.888C31.517 30.624 31.785 30.42 32.129 30.276C32.473 30.132 32.873 30.06 33.329 30.06C33.601 30.06 33.861 30.088 34.109 30.144C34.357 30.2 34.589 30.284 34.805 30.396C35.029 30.5 35.221 30.632 35.381 30.792L35.057 31.476C34.905 31.332 34.733 31.212 34.541 31.116C34.349 31.012 34.149 30.936 33.941 30.888C33.741 30.832 33.537 30.804 33.329 30.804C32.881 30.804 32.541 30.892 32.309 31.068C32.077 31.244 31.961 31.476 31.961 31.764C31.961 31.988 32.033 32.172 32.177 32.316C32.321 32.46 32.545 32.564 32.849 32.628L33.941 32.856C34.461 32.968 34.849 33.148 35.105 33.396C35.369 33.636 35.501 33.964 35.501 34.38C35.501 34.732 35.405 35.04 35.213 35.304C35.021 35.56 34.749 35.76 34.397 35.904C34.053 36.04 33.645 36.108 33.173 36.108ZM36.8623 28.716V27.624H38.0623V28.716H36.8623ZM36.9823 36V30.168H37.9543V36H36.9823ZM42.3514 38.268C41.8474 38.268 41.3714 38.2 40.9234 38.064C40.4834 37.936 40.0914 37.74 39.7474 37.476L40.0714 36.768C40.3114 36.936 40.5474 37.072 40.7794 37.176C41.0194 37.288 41.2634 37.368 41.5114 37.416C41.7674 37.464 42.0314 37.488 42.3034 37.488C42.8714 37.488 43.2994 37.336 43.5874 37.032C43.8834 36.728 44.0314 36.288 44.0314 35.712V34.356H44.1514C44.0314 34.82 43.7754 35.188 43.3834 35.46C42.9994 35.732 42.5474 35.868 42.0274 35.868C41.4914 35.868 41.0274 35.748 40.6354 35.508C40.2434 35.26 39.9394 34.916 39.7234 34.476C39.5154 34.036 39.4114 33.528 39.4114 32.952C39.4114 32.376 39.5154 31.872 39.7234 31.44C39.9394 31 40.2434 30.66 40.6354 30.42C41.0274 30.18 41.4914 30.06 42.0274 30.06C42.5554 30.06 43.0114 30.196 43.3954 30.468C43.7794 30.732 44.0274 31.092 44.1394 31.548H44.0314V30.168H44.9794V35.58C44.9794 36.172 44.8794 36.668 44.6794 37.068C44.4874 37.468 44.1954 37.768 43.8034 37.968C43.4114 38.168 42.9274 38.268 42.3514 38.268ZM42.2074 35.076C42.7674 35.076 43.2114 34.884 43.5394 34.5C43.8674 34.116 44.0314 33.6 44.0314 32.952C44.0314 32.304 43.8674 31.792 43.5394 31.416C43.2114 31.032 42.7674 30.84 42.2074 30.84C41.6554 30.84 41.2154 31.032 40.8874 31.416C40.5594 31.792 40.3954 32.304 40.3954 32.952C40.3954 33.6 40.5594 34.116 40.8874 34.5C41.2154 34.884 41.6554 35.076 42.2074 35.076ZM46.8026 36V30.168H47.7506V31.464H47.6186C47.7866 31 48.0586 30.652 48.4346 30.42C48.8186 30.18 49.2586 30.06 49.7546 30.06C50.2186 30.06 50.6026 30.144 50.9066 30.312C51.2186 30.472 51.4506 30.724 51.6026 31.068C51.7546 31.412 51.8306 31.844 51.8306 32.364V36H50.8586V32.424C50.8586 32.064 50.8106 31.768 50.7146 31.536C50.6266 31.304 50.4826 31.132 50.2826 31.02C50.0906 30.908 49.8386 30.852 49.5266 30.852C49.1746 30.852 48.8666 30.928 48.6026 31.08C48.3386 31.232 48.1346 31.444 47.9906 31.716C47.8466 31.988 47.7746 32.308 47.7746 32.676V36H46.8026ZM56.2509 36.108C55.6349 36.108 55.1029 35.988 54.6549 35.748C54.2149 35.5 53.8709 35.152 53.6229 34.704C53.3829 34.256 53.2629 33.72 53.2629 33.096C53.2629 32.488 53.3829 31.96 53.6229 31.512C53.8629 31.056 54.1909 30.7 54.6069 30.444C55.0309 30.188 55.5189 30.06 56.0709 30.06C56.5989 30.06 57.0509 30.176 57.4269 30.408C57.8029 30.64 58.0909 30.968 58.2909 31.392C58.4989 31.816 58.6029 32.324 58.6029 32.916V33.288H54.0069V32.652H57.9549L57.7629 32.808C57.7629 32.168 57.6189 31.672 57.3309 31.32C57.0509 30.96 56.6389 30.78 56.0949 30.78C55.6869 30.78 55.3389 30.876 55.0509 31.068C54.7709 31.252 54.5589 31.512 54.4149 31.848C54.2709 32.176 54.1989 32.56 54.1989 33V33.072C54.1989 33.56 54.2749 33.972 54.4269 34.308C54.5869 34.644 54.8229 34.9 55.1349 35.076C55.4469 35.244 55.8189 35.328 56.2509 35.328C56.5949 35.328 56.9269 35.276 57.2469 35.172C57.5749 35.06 57.8829 34.88 58.1709 34.632L58.5069 35.316C58.2429 35.556 57.9069 35.748 57.4989 35.892C57.0909 36.036 56.6749 36.108 56.2509 36.108ZM62.2297 36.108C61.7097 36.108 61.2537 35.984 60.8617 35.736C60.4777 35.488 60.1777 35.14 59.9617 34.692C59.7537 34.236 59.6497 33.7 59.6497 33.084C59.6497 32.46 59.7537 31.924 59.9617 31.476C60.1777 31.02 60.4777 30.672 60.8617 30.432C61.2537 30.184 61.7097 30.06 62.2297 30.06C62.7577 30.06 63.2097 30.192 63.5857 30.456C63.9617 30.72 64.2137 31.076 64.3417 31.524H64.2097V27.54H65.1817V36H64.2337V34.608H64.3537C64.2257 35.064 63.9697 35.428 63.5857 35.7C63.2097 35.972 62.7577 36.108 62.2297 36.108ZM62.4337 35.328C62.9857 35.328 63.4217 35.136 63.7417 34.752C64.0697 34.36 64.2337 33.804 64.2337 33.084C64.2337 32.356 64.0697 31.8 63.7417 31.416C63.4217 31.032 62.9857 30.84 62.4337 30.84C61.8897 30.84 61.4537 31.032 61.1257 31.416C60.7977 31.8 60.6337 32.356 60.6337 33.084C60.6337 33.804 60.7977 34.36 61.1257 34.752C61.4537 35.136 61.8897 35.328 62.4337 35.328ZM72.2958 36V28.392H69.2238V27.54H76.3638V28.392H73.2918V36H72.2958ZM78.8165 36.108C78.2485 36.108 77.7565 35.984 77.3405 35.736C76.9245 35.488 76.6005 35.14 76.3685 34.692C76.1445 34.236 76.0325 33.7 76.0325 33.084C76.0325 32.468 76.1445 31.936 76.3685 31.488C76.6005 31.032 76.9245 30.68 77.3405 30.432C77.7565 30.184 78.2485 30.06 78.8165 30.06C79.3845 30.06 79.8765 30.184 80.2925 30.432C80.7085 30.68 81.0285 31.032 81.2525 31.488C81.4845 31.936 81.6005 32.468 81.6005 33.084C81.6005 33.7 81.4845 34.236 81.2525 34.692C81.0285 35.14 80.7085 35.488 80.2925 35.736C79.8765 35.984 79.3845 36.108 78.8165 36.108ZM78.8165 35.328C79.3685 35.328 79.8045 35.136 80.1245 34.752C80.4525 34.36 80.6165 33.8 80.6165 33.072C80.6165 32.352 80.4525 31.8 80.1245 31.416C79.8045 31.032 79.3685 30.84 78.8165 30.84C78.2725 30.84 77.8365 31.032 77.5085 31.416C77.1805 31.8 77.0165 32.352 77.0165 33.072C77.0165 33.8 77.1805 34.36 77.5085 34.752C77.8365 35.136 78.2725 35.328 78.8165 35.328ZM86.2745 36V27.54H87.2585V31.38H87.2825L91.3865 27.54H92.6465L87.9425 31.92L87.9545 31.392L92.9105 36H91.6145L87.2825 32.016H87.2585V36H86.2745ZM96.1416 36.108C95.5256 36.108 94.9936 35.988 94.5456 35.748C94.1056 35.5 93.7616 35.152 93.5136 34.704C93.2736 34.256 93.1536 33.72 93.1536 33.096C93.1536 32.488 93.2736 31.96 93.5136 31.512C93.7536 31.056 94.0816 30.7 94.4976 30.444C94.9216 30.188 95.4096 30.06 95.9616 30.06C96.4896 30.06 96.9416 30.176 97.3176 30.408C97.6936 30.64 97.9816 30.968 98.1816 31.392C98.3896 31.816 98.4936 32.324 98.4936 32.916V33.288H93.8976V32.652H97.8456L97.6536 32.808C97.6536 32.168 97.5096 31.672 97.2216 31.32C96.9416 30.96 96.5296 30.78 95.9856 30.78C95.5776 30.78 95.2296 30.876 94.9416 31.068C94.6616 31.252 94.4496 31.512 94.3056 31.848C94.1616 32.176 94.0896 32.56 94.0896 33V33.072C94.0896 33.56 94.1656 33.972 94.3176 34.308C94.4776 34.644 94.7136 34.9 95.0256 35.076C95.3376 35.244 95.7096 35.328 96.1416 35.328C96.4856 35.328 96.8176 35.276 97.1376 35.172C97.4656 35.06 97.7736 34.88 98.0616 34.632L98.3976 35.316C98.1336 35.556 97.7976 35.748 97.3896 35.892C96.9816 36.036 96.5656 36.108 96.1416 36.108ZM102.528 36.108C101.912 36.108 101.38 35.988 100.932 35.748C100.492 35.5 100.148 35.152 99.9003 34.704C99.6603 34.256 99.5403 33.72 99.5403 33.096C99.5403 32.488 99.6603 31.96 99.9003 31.512C100.14 31.056 100.468 30.7 100.884 30.444C101.308 30.188 101.796 30.06 102.348 30.06C102.876 30.06 103.328 30.176 103.704 30.408C104.08 30.64 104.368 30.968 104.568 31.392C104.776 31.816 104.88 32.324 104.88 32.916V33.288H100.284V32.652H104.232L104.04 32.808C104.04 32.168 103.896 31.672 103.608 31.32C103.328 30.96 102.916 30.78 102.372 30.78C101.964 30.78 101.616 30.876 101.328 31.068C101.048 31.252 100.836 31.512 100.692 31.848C100.548 32.176 100.476 32.56 100.476 33V33.072C100.476 33.56 100.552 33.972 100.704 34.308C100.864 34.644 101.1 34.9 101.412 35.076C101.724 35.244 102.096 35.328 102.528 35.328C102.872 35.328 103.204 35.276 103.524 35.172C103.852 35.06 104.16 34.88 104.448 34.632L104.784 35.316C104.52 35.556 104.184 35.748 103.776 35.892C103.368 36.036 102.952 36.108 102.528 36.108ZM106.287 38.16V30.168H107.235V31.548H107.115C107.243 31.092 107.495 30.732 107.871 30.468C108.255 30.196 108.711 30.06 109.239 30.06C109.759 30.06 110.211 30.184 110.595 30.432C110.987 30.672 111.287 31.02 111.495 31.476C111.711 31.924 111.819 32.46 111.819 33.084C111.819 33.7 111.711 34.236 111.495 34.692C111.287 35.14 110.991 35.488 110.607 35.736C110.223 35.984 109.767 36.108 109.239 36.108C108.711 36.108 108.259 35.976 107.883 35.712C107.507 35.44 107.251 35.08 107.115 34.632H107.259V38.16H106.287ZM109.035 35.328C109.587 35.328 110.023 35.136 110.343 34.752C110.671 34.36 110.835 33.804 110.835 33.084C110.835 32.356 110.671 31.8 110.343 31.416C110.023 31.032 109.587 30.84 109.035 30.84C108.491 30.84 108.055 31.032 107.727 31.416C107.399 31.8 107.235 32.356 107.235 33.084C107.235 33.804 107.399 34.36 107.727 34.752C108.055 35.136 108.491 35.328 109.035 35.328ZM116.497 36V27.54H121.729V28.368H117.481V31.32H121.489V32.148H117.481V36H116.497ZM125.141 36.108C124.573 36.108 124.081 35.984 123.665 35.736C123.249 35.488 122.925 35.14 122.693 34.692C122.469 34.236 122.357 33.7 122.357 33.084C122.357 32.468 122.469 31.936 122.693 31.488C122.925 31.032 123.249 30.68 123.665 30.432C124.081 30.184 124.573 30.06 125.141 30.06C125.709 30.06 126.201 30.184 126.617 30.432C127.033 30.68 127.353 31.032 127.577 31.488C127.809 31.936 127.925 32.468 127.925 33.084C127.925 33.7 127.809 34.236 127.577 34.692C127.353 35.14 127.033 35.488 126.617 35.736C126.201 35.984 125.709 36.108 125.141 36.108ZM125.141 35.328C125.693 35.328 126.129 35.136 126.449 34.752C126.777 34.36 126.941 33.8 126.941 33.072C126.941 32.352 126.777 31.8 126.449 31.416C126.129 31.032 125.693 30.84 125.141 30.84C124.597 30.84 124.161 31.032 123.833 31.416C123.505 31.8 123.341 32.352 123.341 33.072C123.341 33.8 123.505 34.36 123.833 34.752C124.161 35.136 124.597 35.328 125.141 35.328ZM131.809 36.108C131.241 36.108 130.749 35.984 130.333 35.736C129.917 35.488 129.593 35.14 129.361 34.692C129.137 34.236 129.025 33.7 129.025 33.084C129.025 32.468 129.137 31.936 129.361 31.488C129.593 31.032 129.917 30.68 130.333 30.432C130.749 30.184 131.241 30.06 131.809 30.06C132.377 30.06 132.869 30.184 133.285 30.432C133.701 30.68 134.021 31.032 134.245 31.488C134.477 31.936 134.593 32.468 134.593 33.084C134.593 33.7 134.477 34.236 134.245 34.692C134.021 35.14 133.701 35.488 133.285 35.736C132.869 35.984 132.377 36.108 131.809 36.108ZM131.809 35.328C132.361 35.328 132.797 35.136 133.117 34.752C133.445 34.36 133.609 33.8 133.609 33.072C133.609 32.352 133.445 31.8 133.117 31.416C132.797 31.032 132.361 30.84 131.809 30.84C131.265 30.84 130.829 31.032 130.501 31.416C130.173 31.8 130.009 32.352 130.009 33.072C130.009 33.8 130.173 34.36 130.501 34.752C130.829 35.136 131.265 35.328 131.809 35.328ZM138.273 36.108C137.753 36.108 137.297 35.984 136.905 35.736C136.521 35.488 136.221 35.14 136.005 34.692C135.797 34.236 135.693 33.7 135.693 33.084C135.693 32.46 135.797 31.924 136.005 31.476C136.221 31.02 136.521 30.672 136.905 30.432C137.297 30.184 137.753 30.06 138.273 30.06C138.801 30.06 139.253 30.192 139.629 30.456C140.005 30.72 140.257 31.076 140.385 31.524H140.253V27.54H141.225V36H140.277V34.608H140.397C140.269 35.064 140.013 35.428 139.629 35.7C139.253 35.972 138.801 36.108 138.273 36.108ZM138.477 35.328C139.029 35.328 139.465 35.136 139.785 34.752C140.113 34.36 140.277 33.804 140.277 33.084C140.277 32.356 140.113 31.8 139.785 31.416C139.465 31.032 139.029 30.84 138.477 30.84C137.933 30.84 137.497 31.032 137.169 31.416C136.841 31.8 136.677 32.356 136.677 33.084C136.677 33.804 136.841 34.36 137.169 34.752C137.497 35.136 137.933 35.328 138.477 35.328ZM146.263 36V27.54H151.495V28.368H147.247V31.32H151.255V32.148H147.247V36H146.263ZM152.588 36V30.168H153.536V31.548H153.416C153.552 31.076 153.788 30.72 154.124 30.48C154.46 30.232 154.904 30.088 155.456 30.048L155.804 30.012L155.876 30.852L155.264 30.924C154.72 30.972 154.3 31.148 154.004 31.452C153.716 31.748 153.572 32.156 153.572 32.676V36H152.588ZM159.446 36.108C158.83 36.108 158.298 35.988 157.85 35.748C157.41 35.5 157.066 35.152 156.818 34.704C156.578 34.256 156.458 33.72 156.458 33.096C156.458 32.488 156.578 31.96 156.818 31.512C157.058 31.056 157.386 30.7 157.802 30.444C158.226 30.188 158.714 30.06 159.266 30.06C159.794 30.06 160.246 30.176 160.622 30.408C160.998 30.64 161.286 30.968 161.486 31.392C161.694 31.816 161.798 32.324 161.798 32.916V33.288H157.202V32.652H161.15L160.958 32.808C160.958 32.168 160.814 31.672 160.526 31.32C160.246 30.96 159.834 30.78 159.29 30.78C158.882 30.78 158.534 30.876 158.246 31.068C157.966 31.252 157.754 31.512 157.61 31.848C157.466 32.176 157.394 32.56 157.394 33V33.072C157.394 33.56 157.47 33.972 157.622 34.308C157.782 34.644 158.018 34.9 158.33 35.076C158.642 35.244 159.014 35.328 159.446 35.328C159.79 35.328 160.122 35.276 160.442 35.172C160.77 35.06 161.078 34.88 161.366 34.632L161.702 35.316C161.438 35.556 161.102 35.748 160.694 35.892C160.286 36.036 159.87 36.108 159.446 36.108ZM165.173 36.108C164.869 36.108 164.573 36.076 164.285 36.012C164.005 35.956 163.741 35.876 163.493 35.772C163.253 35.66 163.045 35.528 162.869 35.376L163.181 34.692C163.373 34.844 163.581 34.972 163.805 35.076C164.029 35.172 164.257 35.244 164.489 35.292C164.721 35.34 164.957 35.364 165.197 35.364C165.653 35.364 165.997 35.28 166.229 35.112C166.461 34.944 166.577 34.716 166.577 34.428C166.577 34.204 166.501 34.028 166.349 33.9C166.197 33.764 165.957 33.66 165.629 33.588L164.537 33.348C164.033 33.244 163.657 33.064 163.409 32.808C163.169 32.552 163.049 32.22 163.049 31.812C163.049 31.452 163.141 31.144 163.325 30.888C163.517 30.624 163.785 30.42 164.129 30.276C164.473 30.132 164.873 30.06 165.329 30.06C165.601 30.06 165.861 30.088 166.109 30.144C166.357 30.2 166.589 30.284 166.805 30.396C167.029 30.5 167.221 30.632 167.381 30.792L167.057 31.476C166.905 31.332 166.733 31.212 166.541 31.116C166.349 31.012 166.149 30.936 165.941 30.888C165.741 30.832 165.537 30.804 165.329 30.804C164.881 30.804 164.541 30.892 164.309 31.068C164.077 31.244 163.961 31.476 163.961 31.764C163.961 31.988 164.033 32.172 164.177 32.316C164.321 32.46 164.545 32.564 164.849 32.628L165.941 32.856C166.461 32.968 166.849 33.148 167.105 33.396C167.369 33.636 167.501 33.964 167.501 34.38C167.501 34.732 167.405 35.04 167.213 35.304C167.021 35.56 166.749 35.76 166.397 35.904C166.053 36.04 165.645 36.108 165.173 36.108ZM168.982 36V27.54H169.954V31.464H169.798C169.966 31 170.238 30.652 170.614 30.42C170.998 30.18 171.438 30.06 171.934 30.06C172.398 30.06 172.782 30.144 173.086 30.312C173.398 30.48 173.63 30.736 173.782 31.08C173.934 31.416 174.01 31.844 174.01 32.364V36H173.038V32.424C173.038 32.064 172.99 31.768 172.894 31.536C172.806 31.304 172.662 31.132 172.462 31.02C172.27 30.908 172.018 30.852 171.706 30.852C171.354 30.852 171.046 30.928 170.782 31.08C170.518 31.232 170.314 31.444 170.17 31.716C170.026 31.988 169.954 32.308 169.954 32.676V36H168.982ZM178.201 36L181.933 27.54H182.773L186.505 36H185.485L184.441 33.588L184.921 33.84H179.761L180.253 33.588L179.221 36H178.201ZM182.341 28.692L180.409 33.24L180.121 33.012H184.561L184.297 33.24L182.365 28.692H182.341ZM187.627 36V30.168H188.575V31.464H188.443C188.611 31 188.883 30.652 189.259 30.42C189.643 30.18 190.083 30.06 190.579 30.06C191.043 30.06 191.427 30.144 191.731 30.312C192.043 30.472 192.275 30.724 192.427 31.068C192.579 31.412 192.655 31.844 192.655 32.364V36H191.683V32.424C191.683 32.064 191.635 31.768 191.539 31.536C191.451 31.304 191.307 31.132 191.107 31.02C190.915 30.908 190.663 30.852 190.351 30.852C189.999 30.852 189.691 30.928 189.427 31.08C189.163 31.232 188.959 31.444 188.815 31.716C188.671 31.988 188.599 32.308 188.599 32.676V36H187.627ZM196.667 36.108C196.147 36.108 195.691 35.984 195.299 35.736C194.915 35.488 194.615 35.14 194.399 34.692C194.191 34.236 194.087 33.7 194.087 33.084C194.087 32.46 194.191 31.924 194.399 31.476C194.615 31.02 194.915 30.672 195.299 30.432C195.691 30.184 196.147 30.06 196.667 30.06C197.195 30.06 197.647 30.192 198.023 30.456C198.399 30.72 198.651 31.076 198.779 31.524H198.647V27.54H199.619V36H198.671V34.608H198.791C198.663 35.064 198.407 35.428 198.023 35.7C197.647 35.972 197.195 36.108 196.667 36.108ZM196.871 35.328C197.423 35.328 197.859 35.136 198.179 34.752C198.507 34.36 198.671 33.804 198.671 33.084C198.671 32.356 198.507 31.8 198.179 31.416C197.859 31.032 197.423 30.84 196.871 30.84C196.327 30.84 195.891 31.032 195.563 31.416C195.235 31.8 195.071 32.356 195.071 33.084C195.071 33.804 195.235 34.36 195.563 34.752C195.891 35.136 196.327 35.328 196.871 35.328ZM18.78 52.108C18.34 52.108 17.924 52.068 17.532 51.988C17.148 51.908 16.792 51.796 16.464 51.652C16.144 51.5 15.852 51.316 15.588 51.1L15.936 50.308C16.208 50.508 16.484 50.68 16.764 50.824C17.052 50.96 17.36 51.064 17.688 51.136C18.024 51.2 18.388 51.232 18.78 51.232C19.5 51.232 20.032 51.1 20.376 50.836C20.728 50.564 20.904 50.208 20.904 49.768C20.904 49.536 20.848 49.336 20.736 49.168C20.632 49 20.456 48.856 20.208 48.736C19.968 48.616 19.652 48.516 19.26 48.436L18.012 48.184C17.26 48.024 16.696 47.764 16.32 47.404C15.952 47.036 15.768 46.548 15.768 45.94C15.768 45.436 15.896 44.996 16.152 44.62C16.416 44.244 16.78 43.952 17.244 43.744C17.716 43.536 18.252 43.432 18.852 43.432C19.236 43.432 19.6 43.472 19.944 43.552C20.288 43.632 20.604 43.752 20.892 43.912C21.188 44.064 21.448 44.252 21.672 44.476L21.324 45.244C20.964 44.916 20.584 44.68 20.184 44.536C19.784 44.384 19.336 44.308 18.84 44.308C18.416 44.308 18.048 44.372 17.736 44.5C17.432 44.628 17.192 44.816 17.016 45.064C16.848 45.304 16.764 45.584 16.764 45.904C16.764 46.288 16.88 46.592 17.112 46.816C17.352 47.04 17.74 47.204 18.276 47.308L19.524 47.572C20.332 47.74 20.928 47.996 21.312 48.34C21.704 48.676 21.9 49.136 21.9 49.72C21.9 50.184 21.772 50.6 21.516 50.968C21.268 51.328 20.908 51.608 20.436 51.808C19.972 52.008 19.42 52.108 18.78 52.108ZM25.1308 52.108C24.7308 52.108 24.3708 52.032 24.0508 51.88C23.7388 51.72 23.4908 51.504 23.3068 51.232C23.1228 50.96 23.0308 50.656 23.0308 50.32C23.0308 49.888 23.1388 49.548 23.3548 49.3C23.5788 49.052 23.9428 48.876 24.4468 48.772C24.9588 48.668 25.6548 48.616 26.5348 48.616H27.0748V49.252H26.5468C26.0588 49.252 25.6508 49.268 25.3228 49.3C24.9948 49.332 24.7348 49.388 24.5428 49.468C24.3508 49.548 24.2148 49.652 24.1348 49.78C24.0548 49.908 24.0148 50.068 24.0148 50.26C24.0148 50.588 24.1268 50.856 24.3508 51.064C24.5828 51.272 24.8948 51.376 25.2868 51.376C25.6068 51.376 25.8868 51.3 26.1268 51.148C26.3748 50.996 26.5668 50.788 26.7028 50.524C26.8468 50.26 26.9188 49.956 26.9188 49.612V48.244C26.9188 47.748 26.8188 47.392 26.6188 47.176C26.4188 46.952 26.0908 46.84 25.6348 46.84C25.2828 46.84 24.9428 46.892 24.6148 46.996C24.2868 47.092 23.9508 47.252 23.6068 47.476L23.2708 46.768C23.4788 46.624 23.7148 46.5 23.9788 46.396C24.2428 46.284 24.5188 46.2 24.8068 46.144C25.0948 46.088 25.3708 46.06 25.6348 46.06C26.1388 46.06 26.5548 46.144 26.8828 46.312C27.2108 46.472 27.4548 46.72 27.6148 47.056C27.7748 47.384 27.8548 47.808 27.8548 48.328V52H26.9428V50.644H27.0508C26.9868 50.948 26.8628 51.208 26.6788 51.424C26.5028 51.64 26.2828 51.808 26.0188 51.928C25.7548 52.048 25.4588 52.108 25.1308 52.108ZM29.9701 52V46.924H28.8181V46.168H30.2341L29.9701 46.42V45.964C29.9701 45.188 30.1621 44.6 30.5461 44.2C30.9381 43.8 31.5381 43.576 32.3461 43.528L32.8141 43.504L32.8981 44.248L32.3461 44.284C32.0181 44.308 31.7501 44.38 31.5421 44.5C31.3341 44.62 31.1821 44.792 31.0861 45.016C30.9901 45.24 30.9421 45.516 30.9421 45.844V46.348L30.7981 46.168H32.6221V46.924H30.9421V52H29.9701ZM36.1181 52.108C35.5021 52.108 34.9701 51.988 34.5221 51.748C34.0821 51.5 33.7381 51.152 33.4901 50.704C33.2501 50.256 33.1301 49.72 33.1301 49.096C33.1301 48.488 33.2501 47.96 33.4901 47.512C33.7301 47.056 34.0581 46.7 34.4741 46.444C34.8981 46.188 35.3861 46.06 35.9381 46.06C36.4661 46.06 36.9181 46.176 37.2941 46.408C37.6701 46.64 37.9581 46.968 38.1581 47.392C38.3661 47.816 38.4701 48.324 38.4701 48.916V49.288H33.8741V48.652H37.8221L37.6301 48.808C37.6301 48.168 37.4861 47.672 37.1981 47.32C36.9181 46.96 36.5061 46.78 35.9621 46.78C35.5541 46.78 35.2061 46.876 34.9181 47.068C34.6381 47.252 34.4261 47.512 34.2821 47.848C34.1381 48.176 34.0661 48.56 34.0661 49V49.072C34.0661 49.56 34.1421 49.972 34.2941 50.308C34.4541 50.644 34.6901 50.9 35.0021 51.076C35.3141 51.244 35.6861 51.328 36.1181 51.328C36.4621 51.328 36.7941 51.276 37.1141 51.172C37.4421 51.06 37.7501 50.88 38.0381 50.632L38.3741 51.316C38.1101 51.556 37.7741 51.748 37.3661 51.892C36.9581 52.036 36.5421 52.108 36.1181 52.108ZM39.7208 52V50.776H40.9448V52H39.7208ZM45.8213 52V43.54H46.8053V52H45.8213ZM50.9797 52.108C50.4597 52.108 50.0037 51.984 49.6117 51.736C49.2277 51.488 48.9277 51.14 48.7117 50.692C48.5037 50.236 48.3997 49.7 48.3997 49.084C48.3997 48.46 48.5037 47.924 48.7117 47.476C48.9277 47.02 49.2277 46.672 49.6117 46.432C50.0037 46.184 50.4597 46.06 50.9797 46.06C51.5077 46.06 51.9597 46.192 52.3357 46.456C52.7117 46.72 52.9637 47.076 53.0917 47.524H52.9597V43.54H53.9317V52H52.9837V50.608H53.1037C52.9757 51.064 52.7197 51.428 52.3357 51.7C51.9597 51.972 51.5077 52.108 50.9797 52.108ZM51.1837 51.328C51.7357 51.328 52.1717 51.136 52.4917 50.752C52.8197 50.36 52.9837 49.804 52.9837 49.084C52.9837 48.356 52.8197 47.8 52.4917 47.416C52.1717 47.032 51.7357 46.84 51.1837 46.84C50.6397 46.84 50.2037 47.032 49.8757 47.416C49.5477 47.8 49.3837 48.356 49.3837 49.084C49.3837 49.804 49.5477 50.36 49.8757 50.752C50.2037 51.136 50.6397 51.328 51.1837 51.328ZM58.3838 52.108C57.7678 52.108 57.2358 51.988 56.7878 51.748C56.3478 51.5 56.0038 51.152 55.7558 50.704C55.5158 50.256 55.3958 49.72 55.3958 49.096C55.3958 48.488 55.5158 47.96 55.7558 47.512C55.9958 47.056 56.3238 46.7 56.7398 46.444C57.1638 46.188 57.6518 46.06 58.2038 46.06C58.7318 46.06 59.1838 46.176 59.5598 46.408C59.9358 46.64 60.2238 46.968 60.4238 47.392C60.6318 47.816 60.7358 48.324 60.7358 48.916V49.288H56.1398V48.652H60.0878L59.8958 48.808C59.8958 48.168 59.7518 47.672 59.4638 47.32C59.1838 46.96 58.7718 46.78 58.2278 46.78C57.8198 46.78 57.4718 46.876 57.1838 47.068C56.9038 47.252 56.6918 47.512 56.5478 47.848C56.4038 48.176 56.3318 48.56 56.3318 49V49.072C56.3318 49.56 56.4078 49.972 56.5598 50.308C56.7198 50.644 56.9558 50.9 57.2678 51.076C57.5798 51.244 57.9518 51.328 58.3838 51.328C58.7278 51.328 59.0598 51.276 59.3798 51.172C59.7078 51.06 60.0158 50.88 60.3038 50.632L60.6398 51.316C60.3758 51.556 60.0398 51.748 59.6318 51.892C59.2238 52.036 58.8078 52.108 58.3838 52.108ZM63.9785 52.108C63.5785 52.108 63.2185 52.032 62.8985 51.88C62.5865 51.72 62.3385 51.504 62.1545 51.232C61.9705 50.96 61.8785 50.656 61.8785 50.32C61.8785 49.888 61.9865 49.548 62.2025 49.3C62.4265 49.052 62.7905 48.876 63.2945 48.772C63.8065 48.668 64.5025 48.616 65.3825 48.616H65.9225V49.252H65.3945C64.9065 49.252 64.4985 49.268 64.1705 49.3C63.8425 49.332 63.5825 49.388 63.3905 49.468C63.1985 49.548 63.0625 49.652 62.9825 49.78C62.9025 49.908 62.8625 50.068 62.8625 50.26C62.8625 50.588 62.9745 50.856 63.1985 51.064C63.4305 51.272 63.7425 51.376 64.1345 51.376C64.4545 51.376 64.7345 51.3 64.9745 51.148C65.2225 50.996 65.4145 50.788 65.5505 50.524C65.6945 50.26 65.7665 49.956 65.7665 49.612V48.244C65.7665 47.748 65.6665 47.392 65.4665 47.176C65.2665 46.952 64.9385 46.84 64.4825 46.84C64.1305 46.84 63.7905 46.892 63.4625 46.996C63.1345 47.092 62.7985 47.252 62.4545 47.476L62.1185 46.768C62.3265 46.624 62.5625 46.5 62.8265 46.396C63.0905 46.284 63.3665 46.2 63.6545 46.144C63.9425 46.088 64.2185 46.06 64.4825 46.06C64.9865 46.06 65.4025 46.144 65.7305 46.312C66.0585 46.472 66.3025 46.72 66.4625 47.056C66.6225 47.384 66.7025 47.808 66.7025 48.328V52H65.7905V50.644H65.8985C65.8345 50.948 65.7105 51.208 65.5265 51.424C65.3505 51.64 65.1305 51.808 64.8665 51.928C64.6025 52.048 64.3065 52.108 63.9785 52.108ZM70.2938 52.108C69.7018 52.108 69.2538 51.932 68.9498 51.58C68.6538 51.228 68.5058 50.724 68.5058 50.068V43.54H69.4778V49.996C69.4778 50.276 69.5138 50.512 69.5858 50.704C69.6658 50.896 69.7818 51.04 69.9338 51.136C70.0858 51.232 70.2738 51.28 70.4978 51.28C70.5938 51.28 70.6858 51.276 70.7738 51.268C70.8698 51.252 70.9578 51.232 71.0378 51.208L71.0138 52.024C70.8858 52.048 70.7618 52.068 70.6418 52.084C70.5298 52.1 70.4138 52.108 70.2938 52.108ZM75.2706 52V43.54H80.5026V44.368H76.2546V47.32H80.2626V48.148H76.2546V52H75.2706ZM83.9141 52.108C83.3461 52.108 82.8541 51.984 82.4381 51.736C82.0221 51.488 81.6981 51.14 81.4661 50.692C81.2421 50.236 81.1301 49.7 81.1301 49.084C81.1301 48.468 81.2421 47.936 81.4661 47.488C81.6981 47.032 82.0221 46.68 82.4381 46.432C82.8541 46.184 83.3461 46.06 83.9141 46.06C84.4821 46.06 84.9741 46.184 85.3901 46.432C85.8061 46.68 86.1261 47.032 86.3501 47.488C86.5821 47.936 86.6981 48.468 86.6981 49.084C86.6981 49.7 86.5821 50.236 86.3501 50.692C86.1261 51.14 85.8061 51.488 85.3901 51.736C84.9741 51.984 84.4821 52.108 83.9141 52.108ZM83.9141 51.328C84.4661 51.328 84.9021 51.136 85.2221 50.752C85.5501 50.36 85.7141 49.8 85.7141 49.072C85.7141 48.352 85.5501 47.8 85.2221 47.416C84.9021 47.032 84.4661 46.84 83.9141 46.84C83.3701 46.84 82.9341 47.032 82.6061 47.416C82.2781 47.8 82.1141 48.352 82.1141 49.072C82.1141 49.8 82.2781 50.36 82.6061 50.752C82.9341 51.136 83.3701 51.328 83.9141 51.328ZM88.1581 52V46.168H89.1061V47.548H88.9861C89.1221 47.076 89.3581 46.72 89.6941 46.48C90.0301 46.232 90.4741 46.088 91.0261 46.048L91.3741 46.012L91.4461 46.852L90.8341 46.924C90.2901 46.972 89.8701 47.148 89.5741 47.452C89.2861 47.748 89.1421 48.156 89.1421 48.676V52H88.1581ZM95.6729 52V43.54H98.5289C99.4489 43.54 100.225 43.704 100.857 44.032C101.497 44.352 101.981 44.828 102.309 45.46C102.645 46.084 102.813 46.852 102.813 47.764C102.813 48.676 102.645 49.448 102.309 50.08C101.981 50.712 101.497 51.192 100.857 51.52C100.225 51.84 99.4489 52 98.5289 52H95.6729ZM96.6569 51.16H98.4569C99.5689 51.16 100.397 50.876 100.941 50.308C101.493 49.74 101.769 48.892 101.769 47.764C101.769 46.636 101.493 45.792 100.941 45.232C100.389 44.664 99.5609 44.38 98.4569 44.38H96.6569V51.16ZM107.075 52.108C106.459 52.108 105.927 51.988 105.479 51.748C105.039 51.5 104.695 51.152 104.447 50.704C104.207 50.256 104.087 49.72 104.087 49.096C104.087 48.488 104.207 47.96 104.447 47.512C104.687 47.056 105.015 46.7 105.431 46.444C105.855 46.188 106.343 46.06 106.895 46.06C107.423 46.06 107.875 46.176 108.251 46.408C108.627 46.64 108.915 46.968 109.115 47.392C109.323 47.816 109.427 48.324 109.427 48.916V49.288H104.831V48.652H108.779L108.587 48.808C108.587 48.168 108.443 47.672 108.155 47.32C107.875 46.96 107.463 46.78 106.919 46.78C106.511 46.78 106.163 46.876 105.875 47.068C105.595 47.252 105.383 47.512 105.239 47.848C105.095 48.176 105.023 48.56 105.023 49V49.072C105.023 49.56 105.099 49.972 105.251 50.308C105.411 50.644 105.647 50.9 105.959 51.076C106.271 51.244 106.643 51.328 107.075 51.328C107.419 51.328 107.751 51.276 108.071 51.172C108.399 51.06 108.707 50.88 108.995 50.632L109.331 51.316C109.067 51.556 108.731 51.748 108.323 51.892C107.915 52.036 107.499 52.108 107.075 52.108ZM112.622 52.108C112.03 52.108 111.582 51.932 111.278 51.58C110.982 51.228 110.834 50.724 110.834 50.068V43.54H111.806V49.996C111.806 50.276 111.842 50.512 111.914 50.704C111.994 50.896 112.11 51.04 112.262 51.136C112.414 51.232 112.602 51.28 112.826 51.28C112.922 51.28 113.014 51.276 113.102 51.268C113.198 51.252 113.286 51.232 113.366 51.208L113.342 52.024C113.214 52.048 113.09 52.068 112.97 52.084C112.858 52.1 112.742 52.108 112.622 52.108ZM114.265 44.716V43.624H115.465V44.716H114.265ZM114.385 52V46.168H115.357V52H114.385ZM118.89 52L116.382 46.168H117.438L119.526 51.28H119.202L121.326 46.168H122.322L119.802 52H118.89ZM125.895 52.108C125.279 52.108 124.747 51.988 124.299 51.748C123.859 51.5 123.515 51.152 123.267 50.704C123.027 50.256 122.907 49.72 122.907 49.096C122.907 48.488 123.027 47.96 123.267 47.512C123.507 47.056 123.835 46.7 124.251 46.444C124.675 46.188 125.163 46.06 125.715 46.06C126.243 46.06 126.695 46.176 127.071 46.408C127.447 46.64 127.735 46.968 127.935 47.392C128.143 47.816 128.247 48.324 128.247 48.916V49.288H123.651V48.652H127.599L127.407 48.808C127.407 48.168 127.263 47.672 126.975 47.32C126.695 46.96 126.283 46.78 125.739 46.78C125.331 46.78 124.983 46.876 124.695 47.068C124.415 47.252 124.203 47.512 124.059 47.848C123.915 48.176 123.843 48.56 123.843 49V49.072C123.843 49.56 123.919 49.972 124.071 50.308C124.231 50.644 124.467 50.9 124.779 51.076C125.091 51.244 125.463 51.328 125.895 51.328C126.239 51.328 126.571 51.276 126.891 51.172C127.219 51.06 127.527 50.88 127.815 50.632L128.151 51.316C127.887 51.556 127.551 51.748 127.143 51.892C126.735 52.036 126.319 52.108 125.895 52.108ZM129.654 52V46.168H130.602V47.548H130.482C130.618 47.076 130.854 46.72 131.19 46.48C131.526 46.232 131.97 46.088 132.522 46.048L132.87 46.012L132.942 46.852L132.33 46.924C131.786 46.972 131.366 47.148 131.07 47.452C130.782 47.748 130.638 48.156 130.638 48.676V52H129.654ZM134.99 54.16L136.082 51.7V52.12L133.526 46.168H134.582L136.67 51.28H136.346L138.458 46.168H139.478L136.01 54.16H134.99ZM140.244 53.368L139.788 53.02C139.932 52.868 140.04 52.724 140.112 52.588C140.192 52.46 140.244 52.328 140.268 52.192C140.3 52.064 140.316 51.932 140.316 51.796L140.532 52H139.74V50.776H140.964V51.64C140.964 51.856 140.94 52.06 140.892 52.252C140.852 52.452 140.78 52.644 140.676 52.828C140.572 53.012 140.428 53.192 140.244 53.368ZM148.577 52.108C148.137 52.108 147.721 52.068 147.329 51.988C146.945 51.908 146.589 51.796 146.261 51.652C145.941 51.5 145.649 51.316 145.385 51.1L145.733 50.308C146.005 50.508 146.281 50.68 146.561 50.824C146.849 50.96 147.157 51.064 147.485 51.136C147.821 51.2 148.185 51.232 148.577 51.232C149.297 51.232 149.829 51.1 150.173 50.836C150.525 50.564 150.701 50.208 150.701 49.768C150.701 49.536 150.645 49.336 150.533 49.168C150.429 49 150.253 48.856 150.005 48.736C149.765 48.616 149.449 48.516 149.057 48.436L147.809 48.184C147.057 48.024 146.493 47.764 146.117 47.404C145.749 47.036 145.565 46.548 145.565 45.94C145.565 45.436 145.693 44.996 145.949 44.62C146.213 44.244 146.577 43.952 147.041 43.744C147.513 43.536 148.049 43.432 148.649 43.432C149.033 43.432 149.397 43.472 149.741 43.552C150.085 43.632 150.401 43.752 150.689 43.912C150.985 44.064 151.245 44.252 151.469 44.476L151.121 45.244C150.761 44.916 150.381 44.68 149.981 44.536C149.581 44.384 149.133 44.308 148.637 44.308C148.213 44.308 147.845 44.372 147.533 44.5C147.229 44.628 146.989 44.816 146.813 45.064C146.645 45.304 146.561 45.584 146.561 45.904C146.561 46.288 146.677 46.592 146.909 46.816C147.149 47.04 147.537 47.204 148.073 47.308L149.321 47.572C150.129 47.74 150.725 47.996 151.109 48.34C151.501 48.676 151.697 49.136 151.697 49.72C151.697 50.184 151.569 50.6 151.313 50.968C151.065 51.328 150.705 51.608 150.233 51.808C149.769 52.008 149.217 52.108 148.577 52.108ZM155.408 52.108C154.72 52.108 154.204 51.924 153.86 51.556C153.516 51.188 153.344 50.664 153.344 49.984V46.924H152.204V46.168H153.344V44.38H154.316V46.168H156.164V46.924H154.316V49.888C154.316 50.344 154.412 50.692 154.604 50.932C154.796 51.164 155.108 51.28 155.54 51.28C155.668 51.28 155.796 51.264 155.924 51.232C156.052 51.2 156.168 51.168 156.272 51.136L156.44 51.88C156.336 51.936 156.184 51.988 155.984 52.036C155.784 52.084 155.592 52.108 155.408 52.108ZM159.629 52.108C159.061 52.108 158.569 51.984 158.153 51.736C157.737 51.488 157.413 51.14 157.181 50.692C156.957 50.236 156.845 49.7 156.845 49.084C156.845 48.468 156.957 47.936 157.181 47.488C157.413 47.032 157.737 46.68 158.153 46.432C158.569 46.184 159.061 46.06 159.629 46.06C160.197 46.06 160.689 46.184 161.105 46.432C161.521 46.68 161.841 47.032 162.065 47.488C162.297 47.936 162.413 48.468 162.413 49.084C162.413 49.7 162.297 50.236 162.065 50.692C161.841 51.14 161.521 51.488 161.105 51.736C160.689 51.984 160.197 52.108 159.629 52.108ZM159.629 51.328C160.181 51.328 160.617 51.136 160.937 50.752C161.265 50.36 161.429 49.8 161.429 49.072C161.429 48.352 161.265 47.8 160.937 47.416C160.617 47.032 160.181 46.84 159.629 46.84C159.085 46.84 158.649 47.032 158.321 47.416C157.993 47.8 157.829 48.352 157.829 49.072C157.829 49.8 157.993 50.36 158.321 50.752C158.649 51.136 159.085 51.328 159.629 51.328ZM163.873 52V46.168H164.821V47.548H164.701C164.837 47.076 165.073 46.72 165.409 46.48C165.745 46.232 166.189 46.088 166.741 46.048L167.089 46.012L167.161 46.852L166.549 46.924C166.005 46.972 165.585 47.148 165.289 47.452C165.001 47.748 164.857 48.156 164.857 48.676V52H163.873ZM169.951 52.108C169.551 52.108 169.191 52.032 168.871 51.88C168.559 51.72 168.311 51.504 168.127 51.232C167.943 50.96 167.851 50.656 167.851 50.32C167.851 49.888 167.959 49.548 168.175 49.3C168.399 49.052 168.763 48.876 169.267 48.772C169.779 48.668 170.475 48.616 171.355 48.616H171.895V49.252H171.367C170.879 49.252 170.471 49.268 170.143 49.3C169.815 49.332 169.555 49.388 169.363 49.468C169.171 49.548 169.035 49.652 168.955 49.78C168.875 49.908 168.835 50.068 168.835 50.26C168.835 50.588 168.947 50.856 169.171 51.064C169.403 51.272 169.715 51.376 170.107 51.376C170.427 51.376 170.707 51.3 170.947 51.148C171.195 50.996 171.387 50.788 171.523 50.524C171.667 50.26 171.739 49.956 171.739 49.612V48.244C171.739 47.748 171.639 47.392 171.439 47.176C171.239 46.952 170.911 46.84 170.455 46.84C170.103 46.84 169.763 46.892 169.435 46.996C169.107 47.092 168.771 47.252 168.427 47.476L168.091 46.768C168.299 46.624 168.535 46.5 168.799 46.396C169.063 46.284 169.339 46.2 169.627 46.144C169.915 46.088 170.191 46.06 170.455 46.06C170.959 46.06 171.375 46.144 171.703 46.312C172.031 46.472 172.275 46.72 172.435 47.056C172.595 47.384 172.675 47.808 172.675 48.328V52H171.763V50.644H171.871C171.807 50.948 171.683 51.208 171.499 51.424C171.323 51.64 171.103 51.808 170.839 51.928C170.575 52.048 170.279 52.108 169.951 52.108ZM177.058 54.268C176.554 54.268 176.078 54.2 175.63 54.064C175.19 53.936 174.798 53.74 174.454 53.476L174.778 52.768C175.018 52.936 175.254 53.072 175.486 53.176C175.726 53.288 175.97 53.368 176.218 53.416C176.474 53.464 176.738 53.488 177.01 53.488C177.578 53.488 178.006 53.336 178.294 53.032C178.59 52.728 178.738 52.288 178.738 51.712V50.356H178.858C178.738 50.82 178.482 51.188 178.09 51.46C177.706 51.732 177.254 51.868 176.734 51.868C176.198 51.868 175.734 51.748 175.342 51.508C174.95 51.26 174.646 50.916 174.43 50.476C174.222 50.036 174.118 49.528 174.118 48.952C174.118 48.376 174.222 47.872 174.43 47.44C174.646 47 174.95 46.66 175.342 46.42C175.734 46.18 176.198 46.06 176.734 46.06C177.262 46.06 177.718 46.196 178.102 46.468C178.486 46.732 178.734 47.092 178.846 47.548H178.738V46.168H179.686V51.58C179.686 52.172 179.586 52.668 179.386 53.068C179.194 53.468 178.902 53.768 178.51 53.968C178.118 54.168 177.634 54.268 177.058 54.268ZM176.914 51.076C177.474 51.076 177.918 50.884 178.246 50.5C178.574 50.116 178.738 49.6 178.738 48.952C178.738 48.304 178.574 47.792 178.246 47.416C177.918 47.032 177.474 46.84 176.914 46.84C176.362 46.84 175.922 47.032 175.594 47.416C175.266 47.792 175.102 48.304 175.102 48.952C175.102 49.6 175.266 50.116 175.594 50.5C175.922 50.884 176.362 51.076 176.914 51.076ZM184.138 52.108C183.522 52.108 182.99 51.988 182.542 51.748C182.102 51.5 181.758 51.152 181.51 50.704C181.27 50.256 181.15 49.72 181.15 49.096C181.15 48.488 181.27 47.96 181.51 47.512C181.75 47.056 182.078 46.7 182.494 46.444C182.918 46.188 183.406 46.06 183.958 46.06C184.486 46.06 184.938 46.176 185.314 46.408C185.69 46.64 185.978 46.968 186.178 47.392C186.386 47.816 186.49 48.324 186.49 48.916V49.288H181.894V48.652H185.842L185.65 48.808C185.65 48.168 185.506 47.672 185.218 47.32C184.938 46.96 184.526 46.78 183.982 46.78C183.574 46.78 183.226 46.876 182.938 47.068C182.658 47.252 182.446 47.512 182.302 47.848C182.158 48.176 182.086 48.56 182.086 49V49.072C182.086 49.56 182.162 49.972 182.314 50.308C182.474 50.644 182.71 50.9 183.022 51.076C183.334 51.244 183.706 51.328 184.138 51.328C184.482 51.328 184.814 51.276 185.134 51.172C185.462 51.06 185.77 50.88 186.058 50.632L186.394 51.316C186.13 51.556 185.794 51.748 185.386 51.892C184.978 52.036 184.562 52.108 184.138 52.108ZM188.244 53.368L187.788 53.02C187.932 52.868 188.04 52.724 188.112 52.588C188.192 52.46 188.244 52.328 188.268 52.192C188.3 52.064 188.316 51.932 188.316 51.796L188.532 52H187.74V50.776H188.964V51.64C188.964 51.856 188.94 52.06 188.892 52.252C188.852 52.452 188.78 52.644 188.676 52.828C188.572 53.012 188.428 53.192 188.244 53.368ZM193.025 52L196.757 43.54H197.597L201.329 52H200.309L199.265 49.588L199.745 49.84H194.585L195.077 49.588L194.045 52H193.025ZM197.165 44.692L195.233 49.24L194.945 49.012H199.385L199.121 49.24L197.189 44.692H197.165ZM202.451 52V46.168H203.399V47.464H203.267C203.435 47 203.707 46.652 204.083 46.42C204.467 46.18 204.907 46.06 205.403 46.06C205.867 46.06 206.251 46.144 206.555 46.312C206.867 46.472 207.099 46.724 207.251 47.068C207.403 47.412 207.479 47.844 207.479 48.364V52H206.507V48.424C206.507 48.064 206.459 47.768 206.363 47.536C206.275 47.304 206.131 47.132 205.931 47.02C205.739 46.908 205.487 46.852 205.175 46.852C204.823 46.852 204.515 46.928 204.251 47.08C203.987 47.232 203.783 47.444 203.639 47.716C203.495 47.988 203.423 48.308 203.423 48.676V52H202.451ZM211.491 52.108C210.971 52.108 210.515 51.984 210.123 51.736C209.739 51.488 209.439 51.14 209.223 50.692C209.015 50.236 208.911 49.7 208.911 49.084C208.911 48.46 209.015 47.924 209.223 47.476C209.439 47.02 209.739 46.672 210.123 46.432C210.515 46.184 210.971 46.06 211.491 46.06C212.019 46.06 212.471 46.192 212.847 46.456C213.223 46.72 213.475 47.076 213.603 47.524H213.471V43.54H214.443V52H213.495V50.608H213.615C213.487 51.064 213.231 51.428 212.847 51.7C212.471 51.972 212.019 52.108 211.491 52.108ZM211.695 51.328C212.247 51.328 212.683 51.136 213.003 50.752C213.331 50.36 213.495 49.804 213.495 49.084C213.495 48.356 213.331 47.8 213.003 47.416C212.683 47.032 212.247 46.84 211.695 46.84C211.151 46.84 210.715 47.032 210.387 47.416C210.059 47.8 209.895 48.356 209.895 49.084C209.895 49.804 210.059 50.36 210.387 50.752C210.715 51.136 211.151 51.328 211.695 51.328ZM16.068 68V59.54H16.896L20.328 65.984H19.968L23.376 59.54H24.204V68H23.292V60.86H23.58L20.472 66.692H19.824L16.68 60.848H16.968V68H16.068ZM26.0576 60.716V59.624H27.2576V60.716H26.0576ZM26.1776 68V62.168H27.1496V68H26.1776ZM31.4387 68.108C30.8547 68.108 30.3507 67.98 29.9267 67.724C29.5027 67.468 29.1747 67.112 28.9427 66.656C28.7187 66.192 28.6067 65.656 28.6067 65.048C28.6067 64.432 28.7187 63.9 28.9427 63.452C29.1747 63.004 29.5027 62.66 29.9267 62.42C30.3507 62.18 30.8547 62.06 31.4387 62.06C31.7987 62.06 32.1547 62.124 32.5067 62.252C32.8587 62.38 33.1507 62.56 33.3827 62.792L33.0467 63.5C32.8147 63.276 32.5587 63.112 32.2787 63.008C32.0067 62.904 31.7467 62.852 31.4987 62.852C30.8907 62.852 30.4227 63.044 30.0947 63.428C29.7667 63.804 29.6027 64.348 29.6027 65.06C29.6027 65.756 29.7667 66.308 30.0947 66.716C30.4227 67.116 30.8907 67.316 31.4987 67.316C31.7467 67.316 32.0067 67.264 32.2787 67.16C32.5587 67.056 32.8147 66.888 33.0467 66.656L33.3827 67.364C33.1507 67.596 32.8547 67.78 32.4947 67.916C32.1427 68.044 31.7907 68.108 31.4387 68.108ZM34.5214 68V62.168H35.4694V63.548H35.3494C35.4854 63.076 35.7214 62.72 36.0574 62.48C36.3934 62.232 36.8374 62.088 37.3894 62.048L37.7374 62.012L37.8094 62.852L37.1974 62.924C36.6534 62.972 36.2334 63.148 35.9374 63.452C35.6494 63.748 35.5054 64.156 35.5054 64.676V68H34.5214ZM41.1758 68.108C40.6078 68.108 40.1158 67.984 39.6998 67.736C39.2838 67.488 38.9598 67.14 38.7278 66.692C38.5038 66.236 38.3918 65.7 38.3918 65.084C38.3918 64.468 38.5038 63.936 38.7278 63.488C38.9598 63.032 39.2838 62.68 39.6998 62.432C40.1158 62.184 40.6078 62.06 41.1758 62.06C41.7438 62.06 42.2358 62.184 42.6518 62.432C43.0678 62.68 43.3878 63.032 43.6118 63.488C43.8438 63.936 43.9598 64.468 43.9598 65.084C43.9598 65.7 43.8438 66.236 43.6118 66.692C43.3878 67.14 43.0678 67.488 42.6518 67.736C42.2358 67.984 41.7438 68.108 41.1758 68.108ZM41.1758 67.328C41.7278 67.328 42.1638 67.136 42.4838 66.752C42.8118 66.36 42.9758 65.8 42.9758 65.072C42.9758 64.352 42.8118 63.8 42.4838 63.416C42.1638 63.032 41.7278 62.84 41.1758 62.84C40.6318 62.84 40.1958 63.032 39.8678 63.416C39.5398 63.8 39.3758 64.352 39.3758 65.072C39.3758 65.8 39.5398 66.36 39.8678 66.752C40.1958 67.136 40.6318 67.328 41.1758 67.328ZM46.8858 68L44.7138 62.168H45.7338L47.5218 67.28H47.2338L49.0818 62.168H49.9098L51.7218 67.28H51.4458L53.2578 62.168H54.2298L52.0458 68H51.1218L49.2138 62.756H49.7298L47.8218 68H46.8858ZM57.1464 68.108C56.7464 68.108 56.3864 68.032 56.0664 67.88C55.7544 67.72 55.5064 67.504 55.3224 67.232C55.1384 66.96 55.0464 66.656 55.0464 66.32C55.0464 65.888 55.1544 65.548 55.3704 65.3C55.5944 65.052 55.9584 64.876 56.4624 64.772C56.9744 64.668 57.6704 64.616 58.5504 64.616H59.0904V65.252H58.5624C58.0744 65.252 57.6664 65.268 57.3384 65.3C57.0104 65.332 56.7504 65.388 56.5584 65.468C56.3664 65.548 56.2304 65.652 56.1504 65.78C56.0704 65.908 56.0304 66.068 56.0304 66.26C56.0304 66.588 56.1424 66.856 56.3664 67.064C56.5984 67.272 56.9104 67.376 57.3024 67.376C57.6224 67.376 57.9024 67.3 58.1424 67.148C58.3904 66.996 58.5824 66.788 58.7184 66.524C58.8624 66.26 58.9344 65.956 58.9344 65.612V64.244C58.9344 63.748 58.8344 63.392 58.6344 63.176C58.4344 62.952 58.1064 62.84 57.6504 62.84C57.2984 62.84 56.9584 62.892 56.6304 62.996C56.3024 63.092 55.9664 63.252 55.6224 63.476L55.2864 62.768C55.4944 62.624 55.7304 62.5 55.9944 62.396C56.2584 62.284 56.5344 62.2 56.8224 62.144C57.1104 62.088 57.3864 62.06 57.6504 62.06C58.1544 62.06 58.5704 62.144 58.8984 62.312C59.2264 62.472 59.4704 62.72 59.6304 63.056C59.7904 63.384 59.8704 63.808 59.8704 64.328V68H58.9584V66.644H59.0664C59.0024 66.948 58.8784 67.208 58.6944 67.424C58.5184 67.64 58.2984 67.808 58.0344 67.928C57.7704 68.048 57.4744 68.108 57.1464 68.108ZM63.3311 68L60.8231 62.168H61.8791L63.9671 67.28H63.6431L65.7671 62.168H66.7631L64.2431 68H63.3311ZM70.3369 68.108C69.7209 68.108 69.1889 67.988 68.7409 67.748C68.3009 67.5 67.9569 67.152 67.7089 66.704C67.4689 66.256 67.3489 65.72 67.3489 65.096C67.3489 64.488 67.4689 63.96 67.7089 63.512C67.9489 63.056 68.2769 62.7 68.6929 62.444C69.1169 62.188 69.6049 62.06 70.1569 62.06C70.6849 62.06 71.1369 62.176 71.5129 62.408C71.8889 62.64 72.1769 62.968 72.3769 63.392C72.5849 63.816 72.6889 64.324 72.6889 64.916V65.288H68.0929V64.652H72.0409L71.8489 64.808C71.8489 64.168 71.7049 63.672 71.4169 63.32C71.1369 62.96 70.7249 62.78 70.1809 62.78C69.7729 62.78 69.4249 62.876 69.1369 63.068C68.8569 63.252 68.6449 63.512 68.5009 63.848C68.3569 64.176 68.2849 64.56 68.2849 65V65.072C68.2849 65.56 68.3609 65.972 68.5129 66.308C68.6729 66.644 68.9089 66.9 69.2209 67.076C69.5329 67.244 69.9049 67.328 70.3369 67.328C70.6809 67.328 71.0129 67.276 71.3329 67.172C71.6609 67.06 71.9689 66.88 72.2569 66.632L72.5929 67.316C72.3289 67.556 71.9929 67.748 71.5849 67.892C71.1769 68.036 70.7609 68.108 70.3369 68.108ZM80.6456 68.108C79.5416 68.108 78.6976 67.816 78.1136 67.232C77.5376 66.64 77.2496 65.78 77.2496 64.652V59.54H78.2336V64.604C78.2336 65.484 78.4376 66.144 78.8456 66.584C79.2536 67.016 79.8536 67.232 80.6456 67.232C81.4376 67.232 82.0336 67.016 82.4336 66.584C82.8336 66.144 83.0336 65.484 83.0336 64.604V59.54H84.0176V64.652C84.0176 65.78 83.7296 66.64 83.1536 67.232C82.5856 67.816 81.7496 68.108 80.6456 68.108ZM87.8761 68.108C87.5721 68.108 87.2761 68.076 86.9881 68.012C86.7081 67.956 86.4441 67.876 86.1961 67.772C85.9561 67.66 85.7481 67.528 85.5721 67.376L85.8841 66.692C86.0761 66.844 86.2841 66.972 86.5081 67.076C86.7321 67.172 86.9601 67.244 87.1921 67.292C87.4241 67.34 87.6601 67.364 87.9001 67.364C88.3561 67.364 88.7001 67.28 88.9321 67.112C89.1641 66.944 89.2801 66.716 89.2801 66.428C89.2801 66.204 89.2041 66.028 89.0521 65.9C88.9001 65.764 88.6601 65.66 88.3321 65.588L87.2401 65.348C86.7361 65.244 86.3601 65.064 86.1121 64.808C85.8721 64.552 85.7521 64.22 85.7521 63.812C85.7521 63.452 85.8441 63.144 86.0281 62.888C86.2201 62.624 86.4881 62.42 86.8321 62.276C87.1761 62.132 87.5761 62.06 88.0321 62.06C88.3041 62.06 88.5641 62.088 88.8121 62.144C89.0601 62.2 89.2921 62.284 89.5081 62.396C89.7321 62.5 89.9241 62.632 90.0841 62.792L89.7601 63.476C89.6081 63.332 89.4361 63.212 89.2441 63.116C89.0521 63.012 88.8521 62.936 88.6441 62.888C88.4441 62.832 88.2401 62.804 88.0321 62.804C87.5841 62.804 87.2441 62.892 87.0121 63.068C86.7801 63.244 86.6641 63.476 86.6641 63.764C86.6641 63.988 86.7361 64.172 86.8801 64.316C87.0241 64.46 87.2481 64.564 87.5521 64.628L88.6441 64.856C89.1641 64.968 89.5521 65.148 89.8081 65.396C90.0721 65.636 90.2041 65.964 90.2041 66.38C90.2041 66.732 90.1081 67.04 89.9161 67.304C89.7241 67.56 89.4521 67.76 89.1001 67.904C88.7561 68.04 88.3481 68.108 87.8761 68.108ZM94.3134 68.108C93.6974 68.108 93.1654 67.988 92.7174 67.748C92.2774 67.5 91.9334 67.152 91.6854 66.704C91.4454 66.256 91.3254 65.72 91.3254 65.096C91.3254 64.488 91.4454 63.96 91.6854 63.512C91.9254 63.056 92.2534 62.7 92.6694 62.444C93.0934 62.188 93.5814 62.06 94.1334 62.06C94.6614 62.06 95.1134 62.176 95.4894 62.408C95.8654 62.64 96.1534 62.968 96.3534 63.392C96.5614 63.816 96.6654 64.324 96.6654 64.916V65.288H92.0694V64.652H96.0174L95.8254 64.808C95.8254 64.168 95.6814 63.672 95.3934 63.32C95.1134 62.96 94.7014 62.78 94.1574 62.78C93.7494 62.78 93.4014 62.876 93.1134 63.068C92.8334 63.252 92.6214 63.512 92.4774 63.848C92.3334 64.176 92.2614 64.56 92.2614 65V65.072C92.2614 65.56 92.3374 65.972 92.4894 66.308C92.6494 66.644 92.8854 66.9 93.1974 67.076C93.5094 67.244 93.8814 67.328 94.3134 67.328C94.6574 67.328 94.9894 67.276 95.3094 67.172C95.6374 67.06 95.9454 66.88 96.2334 66.632L96.5694 67.316C96.3054 67.556 95.9694 67.748 95.5614 67.892C95.1534 68.036 94.7374 68.108 94.3134 68.108ZM103.566 68L100.602 59.54H101.634L104.238 67.16H103.818L106.47 59.54H107.262L109.878 67.16H109.506L112.122 59.54H113.106L110.142 68H109.266L106.722 60.68H106.986L104.418 68H103.566ZM114.241 60.716V59.624H115.441V60.716H114.241ZM114.361 68V62.168H115.333V68H114.361ZM119.49 68.108C118.802 68.108 118.286 67.924 117.942 67.556C117.598 67.188 117.426 66.664 117.426 65.984V62.924H116.286V62.168H117.426V60.38H118.398V62.168H120.246V62.924H118.398V65.888C118.398 66.344 118.494 66.692 118.686 66.932C118.878 67.164 119.19 67.28 119.622 67.28C119.75 67.28 119.878 67.264 120.006 67.232C120.134 67.2 120.25 67.168 120.354 67.136L120.522 67.88C120.418 67.936 120.266 67.988 120.066 68.036C119.866 68.084 119.674 68.108 119.49 68.108ZM121.346 68V59.54H122.318V63.464H122.162C122.33 63 122.602 62.652 122.978 62.42C123.362 62.18 123.802 62.06 124.298 62.06C124.762 62.06 125.146 62.144 125.45 62.312C125.762 62.48 125.994 62.736 126.146 63.08C126.298 63.416 126.374 63.844 126.374 64.364V68H125.402V64.424C125.402 64.064 125.354 63.768 125.258 63.536C125.17 63.304 125.026 63.132 124.826 63.02C124.634 62.908 124.382 62.852 124.07 62.852C123.718 62.852 123.41 62.928 123.146 63.08C122.882 63.232 122.678 63.444 122.534 63.716C122.39 63.988 122.318 64.308 122.318 64.676V68H121.346ZM130.564 68L134.296 59.54H135.136L138.868 68H137.848L136.804 65.588L137.284 65.84H132.124L132.616 65.588L131.584 68H130.564ZM134.704 60.692L132.772 65.24L132.484 65.012H136.924L136.66 65.24L134.728 60.692H134.704ZM145.28 68V60.392H142.208V59.54H149.348V60.392H146.276V68H145.28ZM151.213 68.108C150.813 68.108 150.453 68.032 150.133 67.88C149.821 67.72 149.573 67.504 149.389 67.232C149.205 66.96 149.113 66.656 149.113 66.32C149.113 65.888 149.221 65.548 149.437 65.3C149.661 65.052 150.025 64.876 150.529 64.772C151.041 64.668 151.737 64.616 152.617 64.616H153.157V65.252H152.629C152.141 65.252 151.733 65.268 151.405 65.3C151.077 65.332 150.817 65.388 150.625 65.468C150.433 65.548 150.297 65.652 150.217 65.78C150.137 65.908 150.097 66.068 150.097 66.26C150.097 66.588 150.209 66.856 150.433 67.064C150.665 67.272 150.977 67.376 151.369 67.376C151.689 67.376 151.969 67.3 152.209 67.148C152.457 66.996 152.649 66.788 152.785 66.524C152.929 66.26 153.001 65.956 153.001 65.612V64.244C153.001 63.748 152.901 63.392 152.701 63.176C152.501 62.952 152.173 62.84 151.717 62.84C151.365 62.84 151.025 62.892 150.697 62.996C150.369 63.092 150.033 63.252 149.689 63.476L149.353 62.768C149.561 62.624 149.797 62.5 150.061 62.396C150.325 62.284 150.601 62.2 150.889 62.144C151.177 62.088 151.453 62.06 151.717 62.06C152.221 62.06 152.637 62.144 152.965 62.312C153.293 62.472 153.537 62.72 153.697 63.056C153.857 63.384 153.937 63.808 153.937 64.328V68H153.025V66.644H153.133C153.069 66.948 152.945 67.208 152.761 67.424C152.585 67.64 152.365 67.808 152.101 67.928C151.837 68.048 151.541 68.108 151.213 68.108ZM155.764 68V62.168H156.712V63.464H156.58C156.676 63.168 156.816 62.916 157 62.708C157.192 62.492 157.416 62.332 157.672 62.228C157.936 62.116 158.224 62.06 158.536 62.06C159.032 62.06 159.432 62.18 159.736 62.42C160.048 62.652 160.256 63.016 160.36 63.512H160.18C160.324 63.064 160.58 62.712 160.948 62.456C161.324 62.192 161.76 62.06 162.256 62.06C162.696 62.06 163.056 62.144 163.336 62.312C163.624 62.48 163.84 62.736 163.984 63.08C164.128 63.416 164.2 63.844 164.2 64.364V68H163.228V64.412C163.228 63.876 163.136 63.484 162.952 63.236C162.768 62.98 162.456 62.852 162.016 62.852C161.704 62.852 161.428 62.928 161.188 63.08C160.956 63.232 160.776 63.448 160.648 63.728C160.528 64 160.468 64.324 160.468 64.7V68H159.496V64.412C159.496 63.876 159.4 63.484 159.208 63.236C159.024 62.98 158.716 62.852 158.284 62.852C157.964 62.852 157.688 62.928 157.456 63.08C157.224 63.232 157.044 63.448 156.916 63.728C156.796 64 156.736 64.324 156.736 64.7V68H155.764ZM166.017 70.16V62.168H166.965V63.548H166.845C166.973 63.092 167.225 62.732 167.601 62.468C167.985 62.196 168.441 62.06 168.969 62.06C169.489 62.06 169.941 62.184 170.325 62.432C170.717 62.672 171.017 63.02 171.225 63.476C171.441 63.924 171.549 64.46 171.549 65.084C171.549 65.7 171.441 66.236 171.225 66.692C171.017 67.14 170.721 67.488 170.337 67.736C169.953 67.984 169.497 68.108 168.969 68.108C168.441 68.108 167.989 67.976 167.613 67.712C167.237 67.44 166.981 67.08 166.845 66.632H166.989V70.16H166.017ZM168.765 67.328C169.317 67.328 169.753 67.136 170.073 66.752C170.401 66.36 170.565 65.804 170.565 65.084C170.565 64.356 170.401 63.8 170.073 63.416C169.753 63.032 169.317 62.84 168.765 62.84C168.221 62.84 167.785 63.032 167.457 63.416C167.129 63.8 166.965 64.356 166.965 65.084C166.965 65.804 167.129 66.36 167.457 66.752C167.785 67.136 168.221 67.328 168.765 67.328ZM175.642 68.108C175.026 68.108 174.494 67.988 174.046 67.748C173.606 67.5 173.262 67.152 173.014 66.704C172.774 66.256 172.654 65.72 172.654 65.096C172.654 64.488 172.774 63.96 173.014 63.512C173.254 63.056 173.582 62.7 173.998 62.444C174.422 62.188 174.91 62.06 175.462 62.06C175.99 62.06 176.442 62.176 176.818 62.408C177.194 62.64 177.482 62.968 177.682 63.392C177.89 63.816 177.994 64.324 177.994 64.916V65.288H173.398V64.652H177.346L177.154 64.808C177.154 64.168 177.01 63.672 176.722 63.32C176.442 62.96 176.03 62.78 175.486 62.78C175.078 62.78 174.73 62.876 174.442 63.068C174.162 63.252 173.95 63.512 173.806 63.848C173.662 64.176 173.59 64.56 173.59 65V65.072C173.59 65.56 173.666 65.972 173.818 66.308C173.978 66.644 174.214 66.9 174.526 67.076C174.838 67.244 175.21 67.328 175.642 67.328C175.986 67.328 176.318 67.276 176.638 67.172C176.966 67.06 177.274 66.88 177.562 66.632L177.898 67.316C177.634 67.556 177.298 67.748 176.89 67.892C176.482 68.036 176.066 68.108 175.642 68.108ZM179.4 68V62.168H180.348V63.548H180.228C180.364 63.076 180.6 62.72 180.936 62.48C181.272 62.232 181.716 62.088 182.268 62.048L182.616 62.012L182.688 62.852L182.076 62.924C181.532 62.972 181.112 63.148 180.816 63.452C180.528 63.748 180.384 64.156 180.384 64.676V68H179.4ZM183.372 65.204V64.4H186.732V65.204H183.372ZM16.044 84V75.54H21.384V76.368H17.004V79.296H21.132V80.124H17.004V83.172H21.384V84H16.044ZM24.5186 84L22.0106 78.168H23.0666L25.1546 83.28H24.8306L26.9546 78.168H27.9506L25.4306 84H24.5186ZM28.8584 76.716V75.624H30.0584V76.716H28.8584ZM28.9784 84V78.168H29.9504V84H28.9784ZM33.9875 84.108C33.4675 84.108 33.0115 83.984 32.6195 83.736C32.2355 83.488 31.9355 83.14 31.7195 82.692C31.5115 82.236 31.4075 81.7 31.4075 81.084C31.4075 80.46 31.5115 79.924 31.7195 79.476C31.9355 79.02 32.2355 78.672 32.6195 78.432C33.0115 78.184 33.4675 78.06 33.9875 78.06C34.5155 78.06 34.9675 78.192 35.3435 78.456C35.7195 78.72 35.9715 79.076 36.0995 79.524H35.9675V75.54H36.9395V84H35.9915V82.608H36.1115C35.9835 83.064 35.7275 83.428 35.3435 83.7C34.9675 83.972 34.5155 84.108 33.9875 84.108ZM34.1915 83.328C34.7435 83.328 35.1795 83.136 35.4995 82.752C35.8275 82.36 35.9915 81.804 35.9915 81.084C35.9915 80.356 35.8275 79.8 35.4995 79.416C35.1795 79.032 34.7435 78.84 34.1915 78.84C33.6475 78.84 33.2115 79.032 32.8835 79.416C32.5555 79.8 32.3915 80.356 32.3915 81.084C32.3915 81.804 32.5555 82.36 32.8835 82.752C33.2115 83.136 33.6475 83.328 34.1915 83.328ZM41.3916 84.108C40.7756 84.108 40.2436 83.988 39.7956 83.748C39.3556 83.5 39.0116 83.152 38.7636 82.704C38.5236 82.256 38.4036 81.72 38.4036 81.096C38.4036 80.488 38.5236 79.96 38.7636 79.512C39.0036 79.056 39.3316 78.7 39.7476 78.444C40.1716 78.188 40.6596 78.06 41.2116 78.06C41.7396 78.06 42.1916 78.176 42.5676 78.408C42.9436 78.64 43.2316 78.968 43.4316 79.392C43.6396 79.816 43.7436 80.324 43.7436 80.916V81.288H39.1476V80.652H43.0956L42.9036 80.808C42.9036 80.168 42.7596 79.672 42.4716 79.32C42.1916 78.96 41.7796 78.78 41.2356 78.78C40.8276 78.78 40.4796 78.876 40.1916 79.068C39.9116 79.252 39.6996 79.512 39.5556 79.848C39.4116 80.176 39.3396 80.56 39.3396 81V81.072C39.3396 81.56 39.4156 81.972 39.5676 82.308C39.7276 82.644 39.9636 82.9 40.2756 83.076C40.5876 83.244 40.9596 83.328 41.3916 83.328C41.7356 83.328 42.0676 83.276 42.3876 83.172C42.7156 83.06 43.0236 82.88 43.3116 82.632L43.6476 83.316C43.3836 83.556 43.0476 83.748 42.6396 83.892C42.2316 84.036 41.8156 84.108 41.3916 84.108ZM45.1503 84V78.168H46.0983V79.464H45.9663C46.1343 79 46.4063 78.652 46.7823 78.42C47.1663 78.18 47.6063 78.06 48.1023 78.06C48.5663 78.06 48.9503 78.144 49.2543 78.312C49.5663 78.472 49.7983 78.724 49.9503 79.068C50.1023 79.412 50.1783 79.844 50.1783 80.364V84H49.2063V80.424C49.2063 80.064 49.1583 79.768 49.0623 79.536C48.9743 79.304 48.8303 79.132 48.6303 79.02C48.4383 78.908 48.1863 78.852 47.8743 78.852C47.5223 78.852 47.2143 78.928 46.9503 79.08C46.6863 79.232 46.4823 79.444 46.3383 79.716C46.1943 79.988 46.1223 80.308 46.1223 80.676V84H45.1503ZM54.3106 84.108C53.6226 84.108 53.1066 83.924 52.7626 83.556C52.4186 83.188 52.2466 82.664 52.2466 81.984V78.924H51.1066V78.168H52.2466V76.38H53.2186V78.168H55.0666V78.924H53.2186V81.888C53.2186 82.344 53.3146 82.692 53.5066 82.932C53.6986 83.164 54.0106 83.28 54.4426 83.28C54.5706 83.28 54.6986 83.264 54.8266 83.232C54.9546 83.2 55.0706 83.168 55.1746 83.136L55.3426 83.88C55.2386 83.936 55.0866 83.988 54.8866 84.036C54.6866 84.084 54.4946 84.108 54.3106 84.108ZM62.1159 84.108C61.6759 84.108 61.2599 84.068 60.8679 83.988C60.4839 83.908 60.1279 83.796 59.7999 83.652C59.4799 83.5 59.1879 83.316 58.9239 83.1L59.2719 82.308C59.5439 82.508 59.8199 82.68 60.0999 82.824C60.3879 82.96 60.6959 83.064 61.0239 83.136C61.3599 83.2 61.7239 83.232 62.1159 83.232C62.8359 83.232 63.3679 83.1 63.7119 82.836C64.0639 82.564 64.2399 82.208 64.2399 81.768C64.2399 81.536 64.1839 81.336 64.0719 81.168C63.9679 81 63.7919 80.856 63.5439 80.736C63.3039 80.616 62.9879 80.516 62.5959 80.436L61.3479 80.184C60.5959 80.024 60.0319 79.764 59.6559 79.404C59.2879 79.036 59.1039 78.548 59.1039 77.94C59.1039 77.436 59.2319 76.996 59.4879 76.62C59.7519 76.244 60.1159 75.952 60.5799 75.744C61.0519 75.536 61.5879 75.432 62.1879 75.432C62.5719 75.432 62.9359 75.472 63.2799 75.552C63.6239 75.632 63.9399 75.752 64.2279 75.912C64.5239 76.064 64.7839 76.252 65.0079 76.476L64.6599 77.244C64.2999 76.916 63.9199 76.68 63.5199 76.536C63.1199 76.384 62.6719 76.308 62.1759 76.308C61.7519 76.308 61.3839 76.372 61.0719 76.5C60.7679 76.628 60.5279 76.816 60.3519 77.064C60.1839 77.304 60.0999 77.584 60.0999 77.904C60.0999 78.288 60.2159 78.592 60.4479 78.816C60.6879 79.04 61.0759 79.204 61.6119 79.308L62.8599 79.572C63.6679 79.74 64.2639 79.996 64.6479 80.34C65.0399 80.676 65.2359 81.136 65.2359 81.72C65.2359 82.184 65.1079 82.6 64.8519 82.968C64.6039 83.328 64.2439 83.608 63.7719 83.808C63.3079 84.008 62.7559 84.108 62.1159 84.108ZM69.2588 84.108C68.6428 84.108 68.1108 83.988 67.6628 83.748C67.2228 83.5 66.8788 83.152 66.6308 82.704C66.3908 82.256 66.2708 81.72 66.2708 81.096C66.2708 80.488 66.3908 79.96 66.6308 79.512C66.8708 79.056 67.1988 78.7 67.6148 78.444C68.0388 78.188 68.5268 78.06 69.0788 78.06C69.6068 78.06 70.0588 78.176 70.4348 78.408C70.8108 78.64 71.0988 78.968 71.2988 79.392C71.5068 79.816 71.6108 80.324 71.6108 80.916V81.288H67.0148V80.652H70.9628L70.7708 80.808C70.7708 80.168 70.6268 79.672 70.3388 79.32C70.0588 78.96 69.6468 78.78 69.1028 78.78C68.6948 78.78 68.3468 78.876 68.0588 79.068C67.7788 79.252 67.5668 79.512 67.4228 79.848C67.2788 80.176 67.2068 80.56 67.2068 81V81.072C67.2068 81.56 67.2828 81.972 67.4348 82.308C67.5948 82.644 67.8308 82.9 68.1428 83.076C68.4548 83.244 68.8268 83.328 69.2588 83.328C69.6028 83.328 69.9348 83.276 70.2548 83.172C70.5828 83.06 70.8908 82.88 71.1788 82.632L71.5148 83.316C71.2508 83.556 70.9148 83.748 70.5068 83.892C70.0988 84.036 69.6828 84.108 69.2588 84.108ZM74.8535 84.108C74.4535 84.108 74.0935 84.032 73.7735 83.88C73.4615 83.72 73.2135 83.504 73.0295 83.232C72.8455 82.96 72.7535 82.656 72.7535 82.32C72.7535 81.888 72.8615 81.548 73.0775 81.3C73.3015 81.052 73.6655 80.876 74.1695 80.772C74.6815 80.668 75.3775 80.616 76.2575 80.616H76.7975V81.252H76.2695C75.7815 81.252 75.3735 81.268 75.0455 81.3C74.7175 81.332 74.4575 81.388 74.2655 81.468C74.0735 81.548 73.9375 81.652 73.8575 81.78C73.7775 81.908 73.7375 82.068 73.7375 82.26C73.7375 82.588 73.8495 82.856 74.0735 83.064C74.3055 83.272 74.6175 83.376 75.0095 83.376C75.3295 83.376 75.6095 83.3 75.8495 83.148C76.0975 82.996 76.2895 82.788 76.4255 82.524C76.5695 82.26 76.6415 81.956 76.6415 81.612V80.244C76.6415 79.748 76.5415 79.392 76.3415 79.176C76.1415 78.952 75.8135 78.84 75.3575 78.84C75.0055 78.84 74.6655 78.892 74.3375 78.996C74.0095 79.092 73.6735 79.252 73.3295 79.476L72.9935 78.768C73.2015 78.624 73.4375 78.5 73.7015 78.396C73.9655 78.284 74.2415 78.2 74.5295 78.144C74.8175 78.088 75.0935 78.06 75.3575 78.06C75.8615 78.06 76.2775 78.144 76.6055 78.312C76.9335 78.472 77.1775 78.72 77.3375 79.056C77.4975 79.384 77.5775 79.808 77.5775 80.328V84H76.6655V82.644H76.7735C76.7095 82.948 76.5855 83.208 76.4015 83.424C76.2255 83.64 76.0055 83.808 75.7415 83.928C75.4775 84.048 75.1815 84.108 74.8535 84.108ZM81.1688 84.108C80.5768 84.108 80.1288 83.932 79.8248 83.58C79.5288 83.228 79.3808 82.724 79.3808 82.068V75.54H80.3528V81.996C80.3528 82.276 80.3888 82.512 80.4608 82.704C80.5408 82.896 80.6568 83.04 80.8088 83.136C80.9608 83.232 81.1488 83.28 81.3728 83.28C81.4688 83.28 81.5608 83.276 81.6488 83.268C81.7448 83.252 81.8328 83.232 81.9128 83.208L81.8888 84.024C81.7608 84.048 81.6368 84.068 81.5168 84.084C81.4048 84.1 81.2888 84.108 81.1688 84.108ZM86.1456 84V75.54H91.3776V76.368H87.1296V79.32H91.1376V80.148H87.1296V84H86.1456ZM94.7891 84.108C94.2211 84.108 93.7291 83.984 93.3131 83.736C92.8971 83.488 92.5731 83.14 92.3411 82.692C92.1171 82.236 92.0051 81.7 92.0051 81.084C92.0051 80.468 92.1171 79.936 92.3411 79.488C92.5731 79.032 92.8971 78.68 93.3131 78.432C93.7291 78.184 94.2211 78.06 94.7891 78.06C95.3571 78.06 95.8491 78.184 96.2651 78.432C96.6811 78.68 97.0011 79.032 97.2251 79.488C97.4571 79.936 97.5731 80.468 97.5731 81.084C97.5731 81.7 97.4571 82.236 97.2251 82.692C97.0011 83.14 96.6811 83.488 96.2651 83.736C95.8491 83.984 95.3571 84.108 94.7891 84.108ZM94.7891 83.328C95.3411 83.328 95.7771 83.136 96.0971 82.752C96.4251 82.36 96.5891 81.8 96.5891 81.072C96.5891 80.352 96.4251 79.8 96.0971 79.416C95.7771 79.032 95.3411 78.84 94.7891 78.84C94.2451 78.84 93.8091 79.032 93.4811 79.416C93.1531 79.8 92.9891 80.352 92.9891 81.072C92.9891 81.8 93.1531 82.36 93.4811 82.752C93.8091 83.136 94.2451 83.328 94.7891 83.328ZM99.0331 84V78.168H99.9811V79.548H99.8611C99.9971 79.076 100.233 78.72 100.569 78.48C100.905 78.232 101.349 78.088 101.901 78.048L102.249 78.012L102.321 78.852L101.709 78.924C101.165 78.972 100.745 79.148 100.449 79.452C100.161 79.748 100.017 80.156 100.017 80.676V84H99.0331ZM105.732 84L109.464 75.54H110.304L114.036 84H113.016L111.972 81.588L112.452 81.84H107.292L107.784 81.588L106.752 84H105.732ZM109.872 76.692L107.94 81.24L107.652 81.012H112.092L111.828 81.24L109.896 76.692H109.872ZM117.32 84.108C116.8 84.108 116.344 83.984 115.951 83.736C115.568 83.488 115.268 83.14 115.052 82.692C114.844 82.236 114.74 81.7 114.74 81.084C114.74 80.46 114.844 79.924 115.052 79.476C115.268 79.02 115.568 78.672 115.951 78.432C116.344 78.184 116.8 78.06 117.32 78.06C117.848 78.06 118.3 78.192 118.676 78.456C119.052 78.72 119.304 79.076 119.432 79.524H119.3V75.54H120.272V84H119.324V82.608H119.444C119.316 83.064 119.06 83.428 118.676 83.7C118.3 83.972 117.848 84.108 117.32 84.108ZM117.524 83.328C118.076 83.328 118.512 83.136 118.832 82.752C119.16 82.36 119.324 81.804 119.324 81.084C119.324 80.356 119.16 79.8 118.832 79.416C118.512 79.032 118.076 78.84 117.524 78.84C116.98 78.84 116.544 79.032 116.216 79.416C115.888 79.8 115.724 80.356 115.724 81.084C115.724 81.804 115.888 82.36 116.216 82.752C116.544 83.136 116.98 83.328 117.524 83.328ZM124.316 84.108C123.796 84.108 123.34 83.984 122.948 83.736C122.564 83.488 122.264 83.14 122.048 82.692C121.84 82.236 121.736 81.7 121.736 81.084C121.736 80.46 121.84 79.924 122.048 79.476C122.264 79.02 122.564 78.672 122.948 78.432C123.34 78.184 123.796 78.06 124.316 78.06C124.844 78.06 125.296 78.192 125.672 78.456C126.048 78.72 126.3 79.076 126.428 79.524H126.296V75.54H127.268V84H126.32V82.608H126.44C126.312 83.064 126.056 83.428 125.672 83.7C125.296 83.972 124.844 84.108 124.316 84.108ZM124.52 83.328C125.072 83.328 125.508 83.136 125.828 82.752C126.156 82.36 126.32 81.804 126.32 81.084C126.32 80.356 126.156 79.8 125.828 79.416C125.508 79.032 125.072 78.84 124.52 78.84C123.976 78.84 123.54 79.032 123.212 79.416C122.884 79.8 122.72 80.356 122.72 81.084C122.72 81.804 122.884 82.36 123.212 82.752C123.54 83.136 123.976 83.328 124.52 83.328ZM131.72 84.108C131.104 84.108 130.572 83.988 130.124 83.748C129.684 83.5 129.34 83.152 129.092 82.704C128.852 82.256 128.732 81.72 128.732 81.096C128.732 80.488 128.852 79.96 129.092 79.512C129.332 79.056 129.66 78.7 130.076 78.444C130.5 78.188 130.988 78.06 131.54 78.06C132.068 78.06 132.52 78.176 132.896 78.408C133.272 78.64 133.56 78.968 133.76 79.392C133.968 79.816 134.072 80.324 134.072 80.916V81.288H129.476V80.652H133.424L133.232 80.808C133.232 80.168 133.088 79.672 132.8 79.32C132.52 78.96 132.108 78.78 131.564 78.78C131.156 78.78 130.808 78.876 130.52 79.068C130.24 79.252 130.028 79.512 129.884 79.848C129.74 80.176 129.668 80.56 129.668 81V81.072C129.668 81.56 129.744 81.972 129.896 82.308C130.056 82.644 130.292 82.9 130.604 83.076C130.916 83.244 131.288 83.328 131.72 83.328C132.064 83.328 132.396 83.276 132.716 83.172C133.044 83.06 133.352 82.88 133.64 82.632L133.976 83.316C133.712 83.556 133.376 83.748 132.968 83.892C132.56 84.036 132.144 84.108 131.72 84.108ZM137.698 84.108C137.178 84.108 136.722 83.984 136.33 83.736C135.946 83.488 135.646 83.14 135.43 82.692C135.222 82.236 135.118 81.7 135.118 81.084C135.118 80.46 135.222 79.924 135.43 79.476C135.646 79.02 135.946 78.672 136.33 78.432C136.722 78.184 137.178 78.06 137.698 78.06C138.226 78.06 138.678 78.192 139.054 78.456C139.43 78.72 139.682 79.076 139.81 79.524H139.678V75.54H140.65V84H139.702V82.608H139.822C139.694 83.064 139.438 83.428 139.054 83.7C138.678 83.972 138.226 84.108 137.698 84.108ZM137.902 83.328C138.454 83.328 138.89 83.136 139.21 82.752C139.538 82.36 139.702 81.804 139.702 81.084C139.702 80.356 139.538 79.8 139.21 79.416C138.89 79.032 138.454 78.84 137.902 78.84C137.358 78.84 136.922 79.032 136.594 79.416C136.266 79.8 136.102 80.356 136.102 81.084C136.102 81.804 136.266 82.36 136.594 82.752C136.922 83.136 137.358 83.328 137.902 83.328ZM147.765 84V76.392H144.693V75.54H151.833V76.392H148.761V84H147.765ZM151.861 84V78.168H152.809V79.548H152.689C152.825 79.076 153.061 78.72 153.397 78.48C153.733 78.232 154.177 78.088 154.729 78.048L155.077 78.012L155.149 78.852L154.537 78.924C153.993 78.972 153.573 79.148 153.277 79.452C152.989 79.748 152.845 80.156 152.845 80.676V84H151.861ZM158.226 84.108C157.754 84.108 157.362 84.024 157.05 83.856C156.746 83.68 156.514 83.42 156.354 83.076C156.202 82.732 156.126 82.304 156.126 81.792V78.168H157.098V81.78C157.098 82.124 157.142 82.412 157.23 82.644C157.326 82.868 157.474 83.036 157.674 83.148C157.874 83.252 158.122 83.304 158.418 83.304C158.754 83.304 159.046 83.228 159.294 83.076C159.542 82.924 159.738 82.712 159.882 82.44C160.026 82.168 160.098 81.848 160.098 81.48V78.168H161.07V84H160.122V82.656H160.278C160.118 83.128 159.854 83.488 159.486 83.736C159.126 83.984 158.706 84.108 158.226 84.108ZM164.857 84.108C164.553 84.108 164.257 84.076 163.969 84.012C163.689 83.956 163.425 83.876 163.177 83.772C162.937 83.66 162.729 83.528 162.553 83.376L162.865 82.692C163.057 82.844 163.265 82.972 163.489 83.076C163.713 83.172 163.941 83.244 164.173 83.292C164.405 83.34 164.641 83.364 164.881 83.364C165.337 83.364 165.681 83.28 165.913 83.112C166.145 82.944 166.261 82.716 166.261 82.428C166.261 82.204 166.185 82.028 166.033 81.9C165.881 81.764 165.641 81.66 165.313 81.588L164.221 81.348C163.717 81.244 163.341 81.064 163.093 80.808C162.853 80.552 162.733 80.22 162.733 79.812C162.733 79.452 162.825 79.144 163.009 78.888C163.201 78.624 163.469 78.42 163.813 78.276C164.157 78.132 164.557 78.06 165.013 78.06C165.285 78.06 165.545 78.088 165.793 78.144C166.041 78.2 166.273 78.284 166.489 78.396C166.713 78.5 166.905 78.632 167.065 78.792L166.741 79.476C166.589 79.332 166.417 79.212 166.225 79.116C166.033 79.012 165.833 78.936 165.625 78.888C165.425 78.832 165.221 78.804 165.013 78.804C164.565 78.804 164.225 78.892 163.993 79.068C163.761 79.244 163.645 79.476 163.645 79.764C163.645 79.988 163.717 80.172 163.861 80.316C164.005 80.46 164.229 80.564 164.533 80.628L165.625 80.856C166.145 80.968 166.533 81.148 166.789 81.396C167.053 81.636 167.185 81.964 167.185 82.38C167.185 82.732 167.089 83.04 166.897 83.304C166.705 83.56 166.433 83.76 166.081 83.904C165.737 84.04 165.329 84.108 164.857 84.108ZM170.947 84.108C170.259 84.108 169.743 83.924 169.399 83.556C169.055 83.188 168.883 82.664 168.883 81.984V78.924H167.743V78.168H168.883V76.38H169.855V78.168H171.703V78.924H169.855V81.888C169.855 82.344 169.951 82.692 170.143 82.932C170.335 83.164 170.647 83.28 171.079 83.28C171.207 83.28 171.335 83.264 171.463 83.232C171.591 83.2 171.707 83.168 171.811 83.136L171.979 83.88C171.875 83.936 171.723 83.988 171.523 84.036C171.323 84.084 171.131 84.108 170.947 84.108ZM172.811 84V82.776H174.035V84H172.811Z" fill="black"/>
</svg>
