<svg width="225" height="47" viewBox="0 0 225 47" fill="none" xmlns="http://www.w3.org/2000/svg">
<path d="M5.6595 17V3.368H0.2835V0.199999H14.9235V3.368H9.5475V17H5.6595ZM13.9637 17L21.4517 0.199999H25.2917L32.8037 17H28.7237L22.5797 2.168H24.1157L17.9477 17H13.9637ZM17.7077 13.4L18.7397 10.448H27.3797L28.4357 13.4H17.7077ZM34.5467 17V0.199999H37.7627L44.9147 12.056H43.2107L50.2427 0.199999H53.4347L53.4827 17H49.8347L49.8107 5.792H50.4827L44.8667 15.224H43.1147L37.3787 5.792H38.1947V17H34.5467ZM57.4686 17V0.199999H64.7406C66.2446 0.199999 67.5406 0.447999 68.6286 0.943999C69.7166 1.424 70.5566 2.12 71.1486 3.032C71.7406 3.944 72.0366 5.032 72.0366 6.296C72.0366 7.544 71.7406 8.624 71.1486 9.536C70.5566 10.448 69.7166 11.152 68.6286 11.648C67.5406 12.128 66.2446 12.368 64.7406 12.368H59.6286L61.3566 10.616V17H57.4686ZM61.3566 11.048L59.6286 9.2H64.5246C65.7246 9.2 66.6206 8.944 67.2126 8.432C67.8046 7.92 68.1006 7.208 68.1006 6.296C68.1006 5.368 67.8046 4.648 67.2126 4.136C66.6206 3.624 65.7246 3.368 64.5246 3.368H59.6286L61.3566 1.52V11.048ZM78.3883 6.968H86.4763V9.992H78.3883V6.968ZM78.6763 13.88H87.8203V17H74.8123V0.199999H87.5083V3.32H78.6763V13.88ZM90.9139 17V0.199999H98.1859C99.6899 0.199999 100.986 0.447999 102.074 0.943999C103.162 1.424 104.002 2.12 104.594 3.032C105.186 3.944 105.482 5.032 105.482 6.296C105.482 7.544 105.186 8.624 104.594 9.536C104.002 10.432 103.162 11.12 102.074 11.6C100.986 12.08 99.6899 12.32 98.1859 12.32H93.0739L94.8019 10.616V17H90.9139ZM101.594 17L97.3939 10.904H101.546L105.794 17H101.594ZM94.8019 11.048L93.0739 9.224H97.9699C99.1699 9.224 100.066 8.968 100.658 8.456C101.25 7.928 101.546 7.208 101.546 6.296C101.546 5.368 101.25 4.648 100.658 4.136C100.066 3.624 99.1699 3.368 97.9699 3.368H93.0739L94.8019 1.52V11.048ZM118.935 6.968H127.023V9.992H118.935V6.968ZM119.223 13.88H128.367V17H115.359V0.199999H128.055V3.32H119.223V13.88ZM136.266 17L129.018 0.199999H133.218L139.554 15.08H137.082L143.514 0.199999H147.378L140.106 17H136.266ZM148.781 17V0.199999H152.669V17H148.781ZM156.656 17V0.199999H164.288C166.112 0.199999 167.72 0.551999 169.112 1.256C170.504 1.944 171.592 2.912 172.376 4.16C173.16 5.408 173.552 6.888 173.552 8.6C173.552 10.296 173.16 11.776 172.376 13.04C171.592 14.288 170.504 15.264 169.112 15.968C167.72 16.656 166.112 17 164.288 17H156.656ZM160.544 13.808H164.096C165.216 13.808 166.184 13.6 167 13.184C167.832 12.752 168.472 12.144 168.92 11.36C169.384 10.576 169.616 9.656 169.616 8.6C169.616 7.528 169.384 6.608 168.92 5.84C168.472 5.056 167.832 4.456 167 4.04C166.184 3.608 165.216 3.392 164.096 3.392H160.544V13.808ZM180.06 6.968H188.148V9.992H180.06V6.968ZM180.348 13.88H189.492V17H176.484V0.199999H189.18V3.32H180.348V13.88ZM192.586 17V0.199999H195.802L205.714 12.296H204.154V0.199999H207.994V17H204.802L194.866 4.904H196.426V17H192.586ZM215.449 17V3.368H210.073V0.199999H224.713V3.368H219.337V17H215.449ZM19.0076 46V29.2H26.2796C27.7836 29.2 29.0796 29.448 30.1676 29.944C31.2556 30.424 32.0956 31.12 32.6876 32.032C33.2796 32.944 33.5756 34.032 33.5756 35.296C33.5756 36.544 33.2796 37.624 32.6876 38.536C32.0956 39.432 31.2556 40.12 30.1676 40.6C29.0796 41.08 27.7836 41.32 26.2796 41.32H21.1676L22.8956 39.616V46H19.0076ZM29.6876 46L25.4876 39.904H29.6396L33.8876 46H29.6876ZM22.8956 40.048L21.1676 38.224H26.0636C27.2636 38.224 28.1596 37.968 28.7516 37.456C29.3436 36.928 29.6396 36.208 29.6396 35.296C29.6396 34.368 29.3436 33.648 28.7516 33.136C28.1596 32.624 27.2636 32.368 26.0636 32.368H21.1676L22.8956 30.52V40.048ZM40.2321 35.968H48.3201V38.992H40.2321V35.968ZM40.5201 42.88H49.6641V46H36.6561V29.2H49.3521V32.32H40.5201V42.88ZM60.7976 46.288C59.5016 46.288 58.2936 46.08 57.1736 45.664C56.0696 45.232 55.1096 44.624 54.2936 43.84C53.4776 43.056 52.8376 42.136 52.3736 41.08C51.9256 40.024 51.7016 38.864 51.7016 37.6C51.7016 36.336 51.9256 35.176 52.3736 34.12C52.8376 33.064 53.4776 32.144 54.2936 31.36C55.1256 30.576 56.0936 29.976 57.1976 29.56C58.3016 29.128 59.5096 28.912 60.8216 28.912C62.2776 28.912 63.5896 29.168 64.7576 29.68C65.9416 30.176 66.9336 30.912 67.7336 31.888L65.2376 34.192C64.6616 33.536 64.0216 33.048 63.3176 32.728C62.6136 32.392 61.8456 32.224 61.0136 32.224C60.2296 32.224 59.5096 32.352 58.8536 32.608C58.1976 32.864 57.6296 33.232 57.1496 33.712C56.6696 34.192 56.2936 34.76 56.0216 35.416C55.7656 36.072 55.6376 36.8 55.6376 37.6C55.6376 38.4 55.7656 39.128 56.0216 39.784C56.2936 40.44 56.6696 41.008 57.1496 41.488C57.6296 41.968 58.1976 42.336 58.8536 42.592C59.5096 42.848 60.2296 42.976 61.0136 42.976C61.8456 42.976 62.6136 42.816 63.3176 42.496C64.0216 42.16 64.6616 41.656 65.2376 40.984L67.7336 43.288C66.9336 44.264 65.9416 45.008 64.7576 45.52C63.5896 46.032 62.2696 46.288 60.7976 46.288ZM73.6751 46V32.368H68.2991V29.2H82.9391V32.368H77.5631V46H73.6751ZM81.9793 46L89.4673 29.2H93.3073L100.819 46H96.7393L90.5953 31.168H92.1313L85.9633 46H81.9793ZM85.7233 42.4L86.7553 39.448H95.3953L96.4513 42.4H85.7233ZM102.562 46V29.2H105.778L115.69 41.296H114.13V29.2H117.97V46H114.778L104.842 33.904H106.402V46H102.562ZM130.057 46.288C128.729 46.288 127.505 46.08 126.385 45.664C125.281 45.232 124.313 44.624 123.481 43.84C122.665 43.056 122.025 42.136 121.561 41.08C121.113 40.024 120.889 38.864 120.889 37.6C120.889 36.336 121.113 35.176 121.561 34.12C122.025 33.064 122.673 32.144 123.505 31.36C124.337 30.576 125.313 29.976 126.433 29.56C127.553 29.128 128.785 28.912 130.129 28.912C131.617 28.912 132.953 29.16 134.137 29.656C135.337 30.152 136.345 30.872 137.161 31.816L134.665 34.12C134.057 33.48 133.393 33.008 132.673 32.704C131.953 32.384 131.169 32.224 130.321 32.224C129.505 32.224 128.761 32.352 128.089 32.608C127.417 32.864 126.833 33.232 126.337 33.712C125.857 34.192 125.481 34.76 125.209 35.416C124.953 36.072 124.825 36.8 124.825 37.6C124.825 38.384 124.953 39.104 125.209 39.76C125.481 40.416 125.857 40.992 126.337 41.488C126.833 41.968 127.409 42.336 128.065 42.592C128.737 42.848 129.473 42.976 130.273 42.976C131.041 42.976 131.785 42.856 132.505 42.616C133.241 42.36 133.953 41.936 134.641 41.344L136.849 44.152C135.937 44.84 134.873 45.368 133.657 45.736C132.457 46.104 131.257 46.288 130.057 46.288ZM133.297 43.648V37.336H136.849V44.152L133.297 43.648ZM147.925 46.288C145.541 46.288 143.677 45.624 142.333 44.296C140.989 42.968 140.317 41.072 140.317 38.608V29.2H144.205V38.464C144.205 40.064 144.533 41.216 145.189 41.92C145.845 42.624 146.765 42.976 147.949 42.976C149.133 42.976 150.053 42.624 150.709 41.92C151.365 41.216 151.693 40.064 151.693 38.464V29.2H155.533V38.608C155.533 41.072 154.861 42.968 153.517 44.296C152.173 45.624 150.309 46.288 147.925 46.288ZM159.375 46V29.2H163.263V42.832H171.687V46H159.375ZM171.745 46L179.233 29.2H183.073L190.585 46H186.505L180.361 31.168H181.897L175.729 46H171.745ZM175.489 42.4L176.521 39.448H185.161L186.217 42.4H175.489ZM192.328 46V29.2H199.6C201.104 29.2 202.4 29.448 203.488 29.944C204.576 30.424 205.416 31.12 206.008 32.032C206.6 32.944 206.896 34.032 206.896 35.296C206.896 36.544 206.6 37.624 206.008 38.536C205.416 39.432 204.576 40.12 203.488 40.6C202.4 41.08 201.104 41.32 199.6 41.32H194.488L196.216 39.616V46H192.328ZM203.008 46L198.808 39.904H202.96L207.208 46H203.008ZM196.216 40.048L194.488 38.224H199.384C200.584 38.224 201.48 37.968 202.072 37.456C202.664 36.928 202.96 36.208 202.96 35.296C202.96 34.368 202.664 33.648 202.072 33.136C201.48 32.624 200.584 32.368 199.384 32.368H194.488L196.216 30.52V40.048Z" fill="black"/>
</svg>
