<svg width="24" height="24" viewBox="0 0 24 24" fill="none" xmlns="http://www.w3.org/2000/svg">
<mask id="path-1-inside-1_325_112" fill="white">
<path d="M24 12C24 18.6274 18.6274 24 12 24C5.37258 24 0 18.6274 0 12C0 5.37258 5.37258 0 12 0C18.6274 0 24 5.37258 24 12ZM2.31547 12C2.31547 17.3486 6.65138 21.6845 12 21.6845C17.3486 21.6845 21.6845 17.3486 21.6845 12C21.6845 6.65138 17.3486 2.31547 12 2.31547C6.65138 2.31547 2.31547 6.65138 2.31547 12Z"/>
</mask>
<path d="M24 12C24 18.6274 18.6274 24 12 24C5.37258 24 0 18.6274 0 12C0 5.37258 5.37258 0 12 0C18.6274 0 24 5.37258 24 12ZM2.31547 12C2.31547 17.3486 6.65138 21.6845 12 21.6845C17.3486 21.6845 21.6845 17.3486 21.6845 12C21.6845 6.65138 17.3486 2.31547 12 2.31547C6.65138 2.31547 2.31547 6.65138 2.31547 12Z" stroke="#5E4E4E" stroke-width="3.09677" mask="url(#path-1-inside-1_325_112)"/>
<circle cx="11.9997" cy="11.9997" r="9.67742" fill="black"/>
<path d="M9.06589 15.277C8.56421 15.277 8.13995 15.15 7.79312 14.8961C7.45247 14.6359 7.19234 14.2581 7.01273 13.7626C6.83931 13.261 6.7526 12.6447 6.7526 11.9139C6.7526 11.183 6.83931 10.5699 7.01273 10.0744C7.19234 9.57271 7.45247 9.19491 7.79312 8.94097C8.13995 8.68704 8.56421 8.56007 9.06589 8.56007C9.57376 8.56007 9.99802 8.68704 10.3387 8.94097C10.6855 9.19491 10.9456 9.56962 11.1191 10.0651C11.2925 10.5606 11.3792 11.1737 11.3792 11.9046C11.3792 12.6354 11.2894 13.2517 11.1098 13.7534C10.9363 14.255 10.6762 14.6359 10.3294 14.8961C9.98873 15.15 9.56757 15.277 9.06589 15.277ZM9.06589 14.5709C9.57995 14.5709 9.96086 14.3572 10.2086 13.9299C10.4563 13.4963 10.5802 12.8212 10.5802 11.9046C10.5802 10.9941 10.4563 10.3283 10.2086 9.90717C9.96086 9.47981 9.57995 9.26613 9.06589 9.26613C8.55182 9.26613 8.17092 9.47981 7.92318 9.90717C7.67544 10.3345 7.55157 11.0034 7.55157 11.9139C7.55157 12.8181 7.67544 13.487 7.92318 13.9206C8.17092 14.3541 8.55182 14.5709 9.06589 14.5709ZM14.2184 15.277C13.983 15.277 13.7508 15.2491 13.5216 15.1934C13.2925 15.1314 13.0757 15.0447 12.8713 14.9332C12.6731 14.8156 12.4935 14.6731 12.3325 14.5059L12.639 13.8834C12.8806 14.1374 13.1345 14.317 13.4008 14.4223C13.6672 14.5214 13.9428 14.5709 14.2277 14.5709C14.5312 14.5709 14.7975 14.5152 15.0266 14.4037C15.262 14.286 15.4602 14.1157 15.6212 13.8927C15.7823 13.6636 15.903 13.3817 15.9836 13.0473C16.0641 12.7128 16.1043 12.3257 16.1043 11.886V11.2357H16.1229C16.0796 11.5516 15.9712 11.8241 15.7977 12.0532C15.6305 12.2762 15.4199 12.4496 15.166 12.5735C14.9121 12.6912 14.6303 12.75 14.3206 12.75C13.9304 12.75 13.5836 12.6633 13.2801 12.4899C12.9828 12.3165 12.7474 12.0749 12.574 11.7652C12.4068 11.4494 12.3232 11.0901 12.3232 10.6876C12.3232 10.2726 12.413 9.90717 12.5926 9.59129C12.7722 9.26923 13.0199 9.01839 13.3358 8.83878C13.6517 8.65297 14.0109 8.56007 14.4135 8.56007C14.9461 8.56007 15.3921 8.68704 15.7513 8.94097C16.1167 9.18871 16.3923 9.55104 16.5781 10.0279C16.7701 10.5048 16.8661 11.087 16.8661 11.7745C16.8661 12.5177 16.7608 13.1526 16.5503 13.679C16.3397 14.1993 16.0362 14.5957 15.6398 14.8682C15.2496 15.1407 14.7758 15.277 14.2184 15.277ZM14.4692 12.0811C14.7417 12.0811 14.9833 12.0223 15.1939 11.9046C15.4045 11.7807 15.5686 11.6135 15.6863 11.4029C15.8039 11.1861 15.8628 10.9384 15.8628 10.6597C15.8628 10.3748 15.8039 10.127 15.6863 9.91646C15.5686 9.70587 15.4045 9.54175 15.1939 9.42407C14.9895 9.30639 14.7448 9.24755 14.4599 9.24755C14.1874 9.24755 13.9459 9.30949 13.7353 9.43336C13.5309 9.55104 13.3699 9.71517 13.2522 9.92575C13.1407 10.1363 13.085 10.381 13.085 10.6597C13.085 10.9446 13.1438 11.1923 13.2615 11.4029C13.3792 11.6135 13.5402 11.7807 13.7446 11.9046C13.9552 12.0223 14.1967 12.0811 14.4692 12.0811Z" fill="white"/>
</svg>
