<svg width="117" height="117" viewBox="0 0 117 117" fill="none" xmlns="http://www.w3.org/2000/svg">
<g filter="url(#filter0_d_325_126)">
<rect x="9" y="9" width="99" height="99" rx="8" fill="white" shape-rendering="crispEdges"/>
<mask id="mask0_325_126" style="mask-type:alpha" maskUnits="userSpaceOnUse" x="42" y="29" width="33" height="32">
<rect x="42.5" y="29" width="32" height="32" fill="#D9D9D9"/>
</mask>
<g mask="url(#mask0_325_126)">
<path d="M58.8673 54.3337C59.134 54.3114 59.3618 54.2059 59.5507 54.017C59.7395 53.8281 59.834 53.6003 59.834 53.3337C59.834 53.0225 59.734 52.7725 59.534 52.5837C59.334 52.3948 59.0784 52.3114 58.7673 52.3337C57.8562 52.4003 56.8895 52.1503 55.8673 51.5837C54.8451 51.017 54.2007 49.9892 53.934 48.5003C53.8895 48.2559 53.7729 48.0559 53.584 47.9003C53.3951 47.7448 53.1784 47.667 52.934 47.667C52.6229 47.667 52.3673 47.7837 52.1673 48.017C51.9673 48.2503 51.9007 48.5225 51.9673 48.8337C52.3451 50.8559 53.234 52.3003 54.634 53.167C56.034 54.0337 57.4451 54.4225 58.8673 54.3337ZM58.5007 58.3337C55.4562 58.3337 52.9173 57.2892 50.884 55.2003C48.8507 53.1114 47.834 50.5114 47.834 47.4003C47.834 45.1781 48.7173 42.7614 50.484 40.1503C52.2507 37.5392 54.9229 34.7114 58.5007 31.667C62.0784 34.7114 64.7507 37.5392 66.5173 40.1503C68.284 42.7614 69.1673 45.1781 69.1673 47.4003C69.1673 50.5114 68.1507 53.1114 66.1173 55.2003C64.084 57.2892 61.5451 58.3337 58.5007 58.3337ZM58.5007 55.667C60.8118 55.667 62.7229 54.8837 64.234 53.317C65.7451 51.7503 66.5007 49.7781 66.5007 47.4003C66.5007 45.7781 65.8284 43.9448 64.484 41.9003C63.1395 39.8559 61.1451 37.6225 58.5007 35.2003C55.8562 37.6225 53.8618 39.8559 52.5173 41.9003C51.1729 43.9448 50.5007 45.7781 50.5007 47.4003C50.5007 49.7781 51.2562 51.7503 52.7673 53.317C54.2784 54.8837 56.1895 55.667 58.5007 55.667Z" fill="#CE3439"/>
</g>
<path d="M23.628 85V76.6H25.188V83.68H29.58V85H23.628ZM33.621 85.084C32.909 85.084 32.285 84.944 31.749 84.664C31.221 84.376 30.809 83.984 30.513 83.488C30.225 82.992 30.081 82.428 30.081 81.796C30.081 81.156 30.221 80.592 30.501 80.104C30.789 79.608 31.181 79.22 31.677 78.94C32.181 78.66 32.753 78.52 33.393 78.52C34.017 78.52 34.573 78.656 35.061 78.928C35.549 79.2 35.933 79.584 36.213 80.08C36.493 80.576 36.633 81.16 36.633 81.832C36.633 81.896 36.629 81.968 36.621 82.048C36.621 82.128 36.617 82.204 36.609 82.276H31.269V81.28H35.817L35.229 81.592C35.237 81.224 35.161 80.9 35.001 80.62C34.841 80.34 34.621 80.12 34.341 79.96C34.069 79.8 33.753 79.72 33.393 79.72C33.025 79.72 32.701 79.8 32.421 79.96C32.149 80.12 31.933 80.344 31.773 80.632C31.621 80.912 31.545 81.244 31.545 81.628V81.868C31.545 82.252 31.633 82.592 31.809 82.888C31.985 83.184 32.233 83.412 32.553 83.572C32.873 83.732 33.241 83.812 33.657 83.812C34.017 83.812 34.341 83.756 34.629 83.644C34.917 83.532 35.173 83.356 35.397 83.116L36.201 84.04C35.913 84.376 35.549 84.636 35.109 84.82C34.677 84.996 34.181 85.084 33.621 85.084ZM41.8461 85V83.704L41.7621 83.428V81.16C41.7621 80.72 41.6301 80.38 41.3661 80.14C41.1021 79.892 40.7021 79.768 40.1661 79.768C39.8061 79.768 39.4501 79.824 39.0981 79.936C38.7541 80.048 38.4621 80.204 38.2221 80.404L37.6341 79.312C37.9781 79.048 38.3861 78.852 38.8581 78.724C39.3381 78.588 39.8341 78.52 40.3461 78.52C41.2741 78.52 41.9901 78.744 42.4941 79.192C43.0061 79.632 43.2621 80.316 43.2621 81.244V85H41.8461ZM39.8301 85.084C39.3501 85.084 38.9301 85.004 38.5701 84.844C38.2101 84.676 37.9301 84.448 37.7301 84.16C37.5381 83.864 37.4421 83.532 37.4421 83.164C37.4421 82.804 37.5261 82.48 37.6941 82.192C37.8701 81.904 38.1541 81.676 38.5461 81.508C38.9381 81.34 39.4581 81.256 40.1061 81.256H41.9661V82.252H40.2141C39.7021 82.252 39.3581 82.336 39.1821 82.504C39.0061 82.664 38.9181 82.864 38.9181 83.104C38.9181 83.376 39.0261 83.592 39.2421 83.752C39.4581 83.912 39.7581 83.992 40.1421 83.992C40.5101 83.992 40.8381 83.908 41.1261 83.74C41.4221 83.572 41.6341 83.324 41.7621 82.996L42.0141 83.896C41.8701 84.272 41.6101 84.564 41.2341 84.772C40.8661 84.98 40.3981 85.084 39.8301 85.084ZM46.4111 83.572L46.4471 81.688L49.7951 78.592H51.5951L48.7511 81.448L47.9591 82.108L46.4111 83.572ZM45.1871 85V76.096H46.6871V85H45.1871ZM50.0231 85L47.6831 82.108L48.6311 80.908L51.8471 85H50.0231ZM52.1873 82.288V81.04H55.4873V82.288H52.1873ZM57.2725 85V76.6H60.7285C61.4725 76.6 62.1085 76.72 62.6365 76.96C63.1725 77.2 63.5845 77.544 63.8725 77.992C64.1605 78.44 64.3045 78.972 64.3045 79.588C64.3045 80.204 64.1605 80.736 63.8725 81.184C63.5845 81.632 63.1725 81.976 62.6365 82.216C62.1085 82.456 61.4725 82.576 60.7285 82.576H58.1365L58.8325 81.844V85H57.2725ZM58.8325 82.012L58.1365 81.256H60.6565C61.3445 81.256 61.8605 81.112 62.2045 80.824C62.5565 80.528 62.7325 80.116 62.7325 79.588C62.7325 79.052 62.5565 78.64 62.2045 78.352C61.8605 78.064 61.3445 77.92 60.6565 77.92H58.1365L58.8325 77.152V82.012ZM65.6598 85V78.592H67.0878V80.356L66.9198 79.84C67.1118 79.408 67.4118 79.08 67.8198 78.856C68.2358 78.632 68.7518 78.52 69.3678 78.52V79.948C69.3038 79.932 69.2438 79.924 69.1878 79.924C69.1318 79.916 69.0758 79.912 69.0198 79.912C68.4518 79.912 67.9998 80.08 67.6638 80.416C67.3278 80.744 67.1598 81.236 67.1598 81.892V85H65.6598ZM73.4617 85.084C72.8057 85.084 72.2217 84.944 71.7097 84.664C71.1977 84.376 70.7937 83.984 70.4977 83.488C70.2017 82.992 70.0537 82.428 70.0537 81.796C70.0537 81.156 70.2017 80.592 70.4977 80.104C70.7937 79.608 71.1977 79.22 71.7097 78.94C72.2217 78.66 72.8057 78.52 73.4617 78.52C74.1257 78.52 74.7137 78.66 75.2257 78.94C75.7457 79.22 76.1497 79.604 76.4377 80.092C76.7337 80.58 76.8817 81.148 76.8817 81.796C76.8817 82.428 76.7337 82.992 76.4377 83.488C76.1497 83.984 75.7457 84.376 75.2257 84.664C74.7137 84.944 74.1257 85.084 73.4617 85.084ZM73.4617 83.8C73.8297 83.8 74.1577 83.72 74.4457 83.56C74.7337 83.4 74.9577 83.168 75.1177 82.864C75.2857 82.56 75.3697 82.204 75.3697 81.796C75.3697 81.38 75.2857 81.024 75.1177 80.728C74.9577 80.424 74.7337 80.192 74.4457 80.032C74.1577 79.872 73.8337 79.792 73.4737 79.792C73.1057 79.792 72.7777 79.872 72.4897 80.032C72.2097 80.192 71.9857 80.424 71.8177 80.728C71.6497 81.024 71.5657 81.38 71.5657 81.796C71.5657 82.204 71.6497 82.56 71.8177 82.864C71.9857 83.168 72.2097 83.4 72.4897 83.56C72.7777 83.72 73.1017 83.8 73.4617 83.8ZM81.196 85.084C80.54 85.084 79.956 84.944 79.444 84.664C78.932 84.376 78.528 83.984 78.232 83.488C77.936 82.992 77.788 82.428 77.788 81.796C77.788 81.156 77.936 80.592 78.232 80.104C78.528 79.608 78.932 79.22 79.444 78.94C79.956 78.66 80.54 78.52 81.196 78.52C81.86 78.52 82.448 78.66 82.96 78.94C83.48 79.22 83.884 79.604 84.172 80.092C84.468 80.58 84.616 81.148 84.616 81.796C84.616 82.428 84.468 82.992 84.172 83.488C83.884 83.984 83.48 84.376 82.96 84.664C82.448 84.944 81.86 85.084 81.196 85.084ZM81.196 83.8C81.564 83.8 81.892 83.72 82.18 83.56C82.468 83.4 82.692 83.168 82.852 82.864C83.02 82.56 83.104 82.204 83.104 81.796C83.104 81.38 83.02 81.024 82.852 80.728C82.692 80.424 82.468 80.192 82.18 80.032C81.892 79.872 81.568 79.792 81.208 79.792C80.84 79.792 80.512 79.872 80.224 80.032C79.944 80.192 79.72 80.424 79.552 80.728C79.384 81.024 79.3 81.38 79.3 81.796C79.3 82.204 79.384 82.56 79.552 82.864C79.72 83.168 79.944 83.4 80.224 83.56C80.512 83.72 80.836 83.8 81.196 83.8ZM86.2544 85V78.232C86.2544 77.56 86.4504 77.024 86.8424 76.624C87.2424 76.216 87.8104 76.012 88.5464 76.012C88.8104 76.012 89.0584 76.04 89.2904 76.096C89.5304 76.152 89.7304 76.24 89.8904 76.36L89.4824 77.488C89.3704 77.4 89.2424 77.336 89.0984 77.296C88.9544 77.248 88.8064 77.224 88.6544 77.224C88.3424 77.224 88.1064 77.312 87.9464 77.488C87.7864 77.656 87.7064 77.912 87.7064 78.256V78.976L87.7544 79.648V85H86.2544ZM85.1984 79.84V78.64H89.4704V79.84H85.1984Z" fill="black"/>
</g>
<defs>
<filter id="filter0_d_325_126" x="0.8" y="0.8" width="115.4" height="115.4" filterUnits="userSpaceOnUse" color-interpolation-filters="sRGB">
<feFlood flood-opacity="0" result="BackgroundImageFix"/>
<feColorMatrix in="SourceAlpha" type="matrix" values="0 0 0 0 0 0 0 0 0 0 0 0 0 0 0 0 0 0 127 0" result="hardAlpha"/>
<feOffset/>
<feGaussianBlur stdDeviation="4.1"/>
<feComposite in2="hardAlpha" operator="out"/>
<feColorMatrix type="matrix" values="0 0 0 0 0 0 0 0 0 0 0 0 0 0 0 0 0 0 0.15 0"/>
<feBlend mode="normal" in2="BackgroundImageFix" result="effect1_dropShadow_325_126"/>
<feBlend mode="normal" in="SourceGraphic" in2="effect1_dropShadow_325_126" result="shape"/>
</filter>
</defs>
</svg>
