<svg width="117" height="117" viewBox="0 0 117 117" fill="none" xmlns="http://www.w3.org/2000/svg">
<g filter="url(#filter0_d_325_155)">
<rect x="9" y="9" width="99" height="99" rx="8" fill="white" shape-rendering="crispEdges"/>
<path d="M51.5 30.4997L56.5 35.4997M51.5 30.4997L53.8333 28.1664V27.833L51.9133 27.033C50.5333 26.4579 49.2408 25.6923 48.0733 24.7584L46.5 23.4997H46.1667L44.5 25.1664V25.4997L45.7587 27.073C46.6926 28.2405 47.4582 29.5331 48.0333 30.913L48.8333 32.833H49.1667L51.5 30.4997ZM60.812 44.1664C62.9038 46.54 64.9121 48.986 66.8333 51.4997H67.1667L72.5 46.1664V45.833C72.5 45.833 69.2067 43.3637 65.1667 39.8117M65.8333 36.833C66.9404 36.8334 68.0302 36.5579 69.0042 36.0317C69.9783 35.5054 70.8059 34.7448 71.4124 33.8187C72.019 32.8925 72.3853 31.8298 72.4783 30.7266C72.5714 29.6234 72.3882 28.5144 71.9453 27.4997H71.1667L67.1667 31.4997H64.5V28.833L68.5 24.833V24.0544C67.3049 23.5319 65.9829 23.3714 64.6975 23.5929C63.4121 23.8143 62.22 24.408 61.2687 25.3002C60.3173 26.1925 59.6487 27.3443 59.3454 28.6128C59.0422 29.8814 59.1177 31.211 59.5627 32.437L57.1667 34.833C51.1667 40.833 44.5 45.833 44.5 45.833V46.1664L49.8333 51.4997H50.1667C50.1667 51.4997 55.1667 44.833 61.1667 38.833L63.5627 36.437C64.2908 36.6999 65.0592 36.8339 65.8333 36.833Z" stroke="#CE3439" stroke-width="1.5"/>
<path d="M23.8917 77.5V69.1H25.1757L28.8477 75.232H28.1757L31.7877 69.1H33.0717L33.0837 77.5H31.6077L31.5957 71.416H31.9077L28.8357 76.54H28.1397L25.0197 71.416H25.3797V77.5H23.8917ZM39.1566 77.5V76.204L39.0726 75.928V73.66C39.0726 73.22 38.9406 72.88 38.6766 72.64C38.4126 72.392 38.0126 72.268 37.4766 72.268C37.1166 72.268 36.7606 72.324 36.4086 72.436C36.0646 72.548 35.7726 72.704 35.5326 72.904L34.9446 71.812C35.2886 71.548 35.6966 71.352 36.1686 71.224C36.6486 71.088 37.1446 71.02 37.6566 71.02C38.5846 71.02 39.3006 71.244 39.8046 71.692C40.3166 72.132 40.5726 72.816 40.5726 73.744V77.5H39.1566ZM37.1406 77.584C36.6606 77.584 36.2406 77.504 35.8806 77.344C35.5206 77.176 35.2406 76.948 35.0406 76.66C34.8486 76.364 34.7526 76.032 34.7526 75.664C34.7526 75.304 34.8366 74.98 35.0046 74.692C35.1806 74.404 35.4646 74.176 35.8566 74.008C36.2486 73.84 36.7686 73.756 37.4166 73.756H39.2766V74.752H37.5246C37.0126 74.752 36.6686 74.836 36.4926 75.004C36.3166 75.164 36.2286 75.364 36.2286 75.604C36.2286 75.876 36.3366 76.092 36.5526 76.252C36.7686 76.412 37.0686 76.492 37.4526 76.492C37.8206 76.492 38.1486 76.408 38.4366 76.24C38.7326 76.072 38.9446 75.824 39.0726 75.496L39.3246 76.396C39.1806 76.772 38.9206 77.064 38.5446 77.272C38.1766 77.48 37.7086 77.584 37.1406 77.584ZM45.2214 77.584C44.6054 77.584 44.0494 77.448 43.5534 77.176C43.0654 76.896 42.6814 76.512 42.4014 76.024C42.1214 75.536 41.9814 74.96 41.9814 74.296C41.9814 73.632 42.1214 73.056 42.4014 72.568C42.6814 72.08 43.0654 71.7 43.5534 71.428C44.0494 71.156 44.6054 71.02 45.2214 71.02C45.7574 71.02 46.2374 71.14 46.6614 71.38C47.0854 71.612 47.4214 71.968 47.6694 72.448C47.9174 72.928 48.0414 73.544 48.0414 74.296C48.0414 75.04 47.9214 75.656 47.6814 76.144C47.4414 76.624 47.1094 76.984 46.6854 77.224C46.2614 77.464 45.7734 77.584 45.2214 77.584ZM45.4014 76.3C45.7614 76.3 46.0814 76.22 46.3614 76.06C46.6494 75.9 46.8774 75.668 47.0454 75.364C47.2214 75.06 47.3094 74.704 47.3094 74.296C47.3094 73.88 47.2214 73.524 47.0454 73.228C46.8774 72.924 46.6494 72.692 46.3614 72.532C46.0814 72.372 45.7614 72.292 45.4014 72.292C45.0414 72.292 44.7174 72.372 44.4294 72.532C44.1494 72.692 43.9214 72.924 43.7454 73.228C43.5774 73.524 43.4934 73.88 43.4934 74.296C43.4934 74.704 43.5774 75.06 43.7454 75.364C43.9214 75.668 44.1494 75.9 44.4294 76.06C44.7174 76.22 45.0414 76.3 45.4014 76.3ZM47.3454 77.5V75.988L47.4054 74.284L47.2854 72.58V68.596H48.7734V77.5H47.3454ZM53.7597 77.584C53.0477 77.584 52.4237 77.444 51.8877 77.164C51.3597 76.876 50.9477 76.484 50.6517 75.988C50.3637 75.492 50.2197 74.928 50.2197 74.296C50.2197 73.656 50.3597 73.092 50.6397 72.604C50.9277 72.108 51.3197 71.72 51.8157 71.44C52.3197 71.16 52.8917 71.02 53.5317 71.02C54.1557 71.02 54.7117 71.156 55.1997 71.428C55.6877 71.7 56.0717 72.084 56.3517 72.58C56.6317 73.076 56.7717 73.66 56.7717 74.332C56.7717 74.396 56.7677 74.468 56.7597 74.548C56.7597 74.628 56.7557 74.704 56.7477 74.776H51.4077V73.78H55.9557L55.3677 74.092C55.3757 73.724 55.2997 73.4 55.1397 73.12C54.9797 72.84 54.7597 72.62 54.4797 72.46C54.2077 72.3 53.8917 72.22 53.5317 72.22C53.1637 72.22 52.8397 72.3 52.5597 72.46C52.2877 72.62 52.0717 72.844 51.9117 73.132C51.7597 73.412 51.6837 73.744 51.6837 74.128V74.368C51.6837 74.752 51.7717 75.092 51.9477 75.388C52.1237 75.684 52.3717 75.912 52.6917 76.072C53.0117 76.232 53.3797 76.312 53.7957 76.312C54.1557 76.312 54.4797 76.256 54.7677 76.144C55.0557 76.032 55.3117 75.856 55.5357 75.616L56.3397 76.54C56.0517 76.876 55.6877 77.136 55.2477 77.32C54.8157 77.496 54.3197 77.584 53.7597 77.584ZM63.6529 77.5L60.8689 69.1H62.4889L64.9729 76.696H64.1689L66.7489 69.1H68.1889L70.6969 76.696H69.9169L72.4609 69.1H73.9489L71.1649 77.5H69.5089L67.2169 70.648H67.6489L65.3209 77.5H63.6529ZM75.1344 77.5V71.092H76.6344V77.5H75.1344ZM75.8904 70.036C75.6104 70.036 75.3784 69.948 75.1944 69.772C75.0184 69.596 74.9304 69.384 74.9304 69.136C74.9304 68.88 75.0184 68.668 75.1944 68.5C75.3784 68.324 75.6104 68.236 75.8904 68.236C76.1704 68.236 76.3984 68.32 76.5744 68.488C76.7584 68.648 76.8504 68.852 76.8504 69.1C76.8504 69.364 76.7624 69.588 76.5864 69.772C76.4104 69.948 76.1784 70.036 75.8904 70.036ZM81.0151 77.584C80.3111 77.584 79.7671 77.404 79.3831 77.044C78.9991 76.676 78.8071 76.136 78.8071 75.424V69.676H80.3071V75.388C80.3071 75.692 80.3831 75.928 80.5351 76.096C80.6951 76.264 80.9151 76.348 81.1951 76.348C81.5311 76.348 81.8111 76.26 82.0351 76.084L82.4551 77.152C82.2791 77.296 82.0631 77.404 81.8071 77.476C81.5511 77.548 81.2871 77.584 81.0151 77.584ZM77.7511 72.34V71.14H82.0231V72.34H77.7511ZM87.3251 71.02C87.8371 71.02 88.2931 71.12 88.6931 71.32C89.1011 71.52 89.4211 71.828 89.6531 72.244C89.8851 72.652 90.0011 73.18 90.0011 73.828V77.5H88.5011V74.02C88.5011 73.452 88.3651 73.028 88.0931 72.748C87.8291 72.468 87.4571 72.328 86.9771 72.328C86.6251 72.328 86.3131 72.4 86.0411 72.544C85.7691 72.688 85.5571 72.904 85.4051 73.192C85.2611 73.472 85.1891 73.828 85.1891 74.26V77.5H83.6891V68.596H85.1891V72.82L84.8651 72.292C85.0891 71.884 85.4131 71.572 85.8371 71.356C86.2691 71.132 86.7651 71.02 87.3251 71.02ZM35.1007 92.5V84.1H38.7727C39.6847 84.1 40.4847 84.276 41.1727 84.628C41.8607 84.98 42.3967 85.468 42.7807 86.092C43.1647 86.716 43.3567 87.452 43.3567 88.3C43.3567 89.14 43.1647 89.876 42.7807 90.508C42.3967 91.132 41.8607 91.62 41.1727 91.972C40.4847 92.324 39.6847 92.5 38.7727 92.5H35.1007ZM36.6607 91.18H38.7007C39.3327 91.18 39.8767 91.06 40.3327 90.82C40.7967 90.58 41.1527 90.244 41.4007 89.812C41.6567 89.38 41.7847 88.876 41.7847 88.3C41.7847 87.716 41.6567 87.212 41.4007 86.788C41.1527 86.356 40.7967 86.02 40.3327 85.78C39.8767 85.54 39.3327 85.42 38.7007 85.42H36.6607V91.18ZM47.5827 92.584C47.0387 92.584 46.5587 92.484 46.1427 92.284C45.7267 92.076 45.4027 91.764 45.1707 91.348C44.9387 90.924 44.8227 90.392 44.8227 89.752V86.092H46.3227V89.548C46.3227 90.124 46.4507 90.556 46.7067 90.844C46.9707 91.124 47.3427 91.264 47.8227 91.264C48.1747 91.264 48.4787 91.192 48.7347 91.048C48.9987 90.904 49.2027 90.688 49.3467 90.4C49.4987 90.112 49.5747 89.756 49.5747 89.332V86.092H51.0747V92.5H49.6467V90.772L49.8987 91.3C49.6827 91.716 49.3667 92.036 48.9507 92.26C48.5347 92.476 48.0787 92.584 47.5827 92.584ZM53.0387 92.5V86.092H54.4667V87.856L54.2987 87.34C54.4907 86.908 54.7907 86.58 55.1987 86.356C55.6147 86.132 56.1307 86.02 56.7467 86.02V87.448C56.6827 87.432 56.6227 87.424 56.5667 87.424C56.5107 87.416 56.4547 87.412 56.3987 87.412C55.8307 87.412 55.3787 87.58 55.0427 87.916C54.7067 88.244 54.5387 88.736 54.5387 89.392V92.5H53.0387ZM61.5101 92.5V91.204L61.4261 90.928V88.66C61.4261 88.22 61.2941 87.88 61.0301 87.64C60.7661 87.392 60.3661 87.268 59.8301 87.268C59.4701 87.268 59.1141 87.324 58.7621 87.436C58.4181 87.548 58.1261 87.704 57.8861 87.904L57.2981 86.812C57.6421 86.548 58.0501 86.352 58.5221 86.224C59.0021 86.088 59.4981 86.02 60.0101 86.02C60.9381 86.02 61.6541 86.244 62.1581 86.692C62.6701 87.132 62.9261 87.816 62.9261 88.744V92.5H61.5101ZM59.4941 92.584C59.0141 92.584 58.5941 92.504 58.2341 92.344C57.8741 92.176 57.5941 91.948 57.3941 91.66C57.2021 91.364 57.1061 91.032 57.1061 90.664C57.1061 90.304 57.1901 89.98 57.3581 89.692C57.5341 89.404 57.8181 89.176 58.2101 89.008C58.6021 88.84 59.1221 88.756 59.7701 88.756H61.6301V89.752H59.8781C59.3661 89.752 59.0221 89.836 58.8461 90.004C58.6701 90.164 58.5821 90.364 58.5821 90.604C58.5821 90.876 58.6901 91.092 58.9061 91.252C59.1221 91.412 59.4221 91.492 59.8061 91.492C60.1741 91.492 60.5021 91.408 60.7901 91.24C61.0861 91.072 61.2981 90.824 61.4261 90.496L61.6781 91.396C61.5341 91.772 61.2741 92.064 60.8981 92.272C60.5301 92.48 60.0621 92.584 59.4941 92.584ZM68.4032 92.584C67.8592 92.584 67.3752 92.464 66.9512 92.224C66.5272 91.984 66.1912 91.624 65.9432 91.144C65.7032 90.656 65.5832 90.04 65.5832 89.296C65.5832 88.544 65.7072 87.928 65.9552 87.448C66.2112 86.968 66.5512 86.612 66.9752 86.38C67.4072 86.14 67.8832 86.02 68.4032 86.02C69.0352 86.02 69.5912 86.156 70.0712 86.428C70.5592 86.7 70.9432 87.08 71.2232 87.568C71.5112 88.056 71.6552 88.632 71.6552 89.296C71.6552 89.96 71.5112 90.536 71.2232 91.024C70.9432 91.512 70.5592 91.896 70.0712 92.176C69.5912 92.448 69.0352 92.584 68.4032 92.584ZM64.8512 92.5V83.596H66.3512V87.58L66.2312 89.284L66.2792 90.988V92.5H64.8512ZM68.2352 91.3C68.5952 91.3 68.9152 91.22 69.1952 91.06C69.4832 90.9 69.7112 90.668 69.8792 90.364C70.0472 90.06 70.1312 89.704 70.1312 89.296C70.1312 88.88 70.0472 88.524 69.8792 88.228C69.7112 87.924 69.4832 87.692 69.1952 87.532C68.9152 87.372 68.5952 87.292 68.2352 87.292C67.8752 87.292 67.5512 87.372 67.2632 87.532C66.9752 87.692 66.7472 87.924 66.5792 88.228C66.4112 88.524 66.3272 88.88 66.3272 89.296C66.3272 89.704 66.4112 90.06 66.5792 90.364C66.7472 90.668 66.9752 90.9 67.2632 91.06C67.5512 91.22 67.8752 91.3 68.2352 91.3ZM73.0778 92.5V83.596H74.5778V92.5H73.0778ZM79.5585 92.584C78.8465 92.584 78.2225 92.444 77.6865 92.164C77.1585 91.876 76.7465 91.484 76.4505 90.988C76.1625 90.492 76.0185 89.928 76.0185 89.296C76.0185 88.656 76.1585 88.092 76.4385 87.604C76.7265 87.108 77.1185 86.72 77.6145 86.44C78.1185 86.16 78.6905 86.02 79.3305 86.02C79.9545 86.02 80.5105 86.156 80.9985 86.428C81.4865 86.7 81.8705 87.084 82.1505 87.58C82.4305 88.076 82.5705 88.66 82.5705 89.332C82.5705 89.396 82.5665 89.468 82.5585 89.548C82.5585 89.628 82.5545 89.704 82.5465 89.776H77.2065V88.78H81.7545L81.1665 89.092C81.1745 88.724 81.0985 88.4 80.9385 88.12C80.7785 87.84 80.5585 87.62 80.2785 87.46C80.0065 87.3 79.6905 87.22 79.3305 87.22C78.9625 87.22 78.6385 87.3 78.3585 87.46C78.0865 87.62 77.8705 87.844 77.7105 88.132C77.5585 88.412 77.4825 88.744 77.4825 89.128V89.368C77.4825 89.752 77.5705 90.092 77.7465 90.388C77.9225 90.684 78.1705 90.912 78.4905 91.072C78.8105 91.232 79.1785 91.312 79.5945 91.312C79.9545 91.312 80.2785 91.256 80.5665 91.144C80.8545 91.032 81.1105 90.856 81.3345 90.616L82.1385 91.54C81.8505 91.876 81.4865 92.136 81.0465 92.32C80.6145 92.496 80.1185 92.584 79.5585 92.584Z" fill="black"/>
</g>
<defs>
<filter id="filter0_d_325_155" x="0.8" y="0.8" width="115.4" height="115.4" filterUnits="userSpaceOnUse" color-interpolation-filters="sRGB">
<feFlood flood-opacity="0" result="BackgroundImageFix"/>
<feColorMatrix in="SourceAlpha" type="matrix" values="0 0 0 0 0 0 0 0 0 0 0 0 0 0 0 0 0 0 127 0" result="hardAlpha"/>
<feOffset/>
<feGaussianBlur stdDeviation="4.1"/>
<feComposite in2="hardAlpha" operator="out"/>
<feColorMatrix type="matrix" values="0 0 0 0 0 0 0 0 0 0 0 0 0 0 0 0 0 0 0.15 0"/>
<feBlend mode="normal" in2="BackgroundImageFix" result="effect1_dropShadow_325_155"/>
<feBlend mode="normal" in="SourceGraphic" in2="effect1_dropShadow_325_155" result="shape"/>
</filter>
</defs>
</svg>
