<svg width="117" height="117" viewBox="0 0 117 117" fill="none" xmlns="http://www.w3.org/2000/svg">
<g filter="url(#filter0_d_325_132)">
<rect x="9" y="9" width="99" height="99" rx="8" fill="white" shape-rendering="crispEdges"/>
<mask id="mask0_325_132" style="mask-type:alpha" maskUnits="userSpaceOnUse" x="42" y="21" width="33" height="33">
<rect x="42.5" y="21.5" width="32" height="32" fill="#D9D9D9"/>
</mask>
<g mask="url(#mask0_325_132)">
<path d="M47.8327 48.1663C47.0993 48.1663 46.4716 47.9052 45.9493 47.383C45.4271 46.8608 45.166 46.233 45.166 45.4997V29.4997C45.166 28.7663 45.4271 28.1386 45.9493 27.6163C46.4716 27.0941 47.0993 26.833 47.8327 26.833H69.166C69.8993 26.833 70.5271 27.0941 71.0494 27.6163C71.5716 28.1386 71.8327 28.7663 71.8327 29.4997V45.4997C71.8327 46.233 71.5716 46.8608 71.0494 47.383C70.5271 47.9052 69.8993 48.1663 69.166 48.1663H47.8327ZM47.8327 45.4997H69.166V29.4997H47.8327V45.4997ZM49.166 44.1663H62.4993V30.833H49.166V44.1663ZM66.4994 44.1663C66.8771 44.1663 67.1938 44.0386 67.4493 43.783C67.7049 43.5275 67.8327 43.2108 67.8327 42.833C67.8327 42.4552 67.7049 42.1386 67.4493 41.883C67.1938 41.6275 66.8771 41.4997 66.4994 41.4997C66.1216 41.4997 65.8049 41.6275 65.5494 41.883C65.2938 42.1386 65.166 42.4552 65.166 42.833C65.166 43.2108 65.2938 43.5275 65.5494 43.783C65.8049 44.0386 66.1216 44.1663 66.4994 44.1663ZM51.8327 41.4997V33.4997H59.8327V41.4997H51.8327ZM66.4994 38.833C66.8771 38.833 67.1938 38.7052 67.4493 38.4497C67.7049 38.1941 67.8327 37.8775 67.8327 37.4997C67.8327 37.1219 67.7049 36.8052 67.4493 36.5497C67.1938 36.2941 66.8771 36.1663 66.4994 36.1663C66.1216 36.1663 65.8049 36.2941 65.5494 36.5497C65.2938 36.8052 65.166 37.1219 65.166 37.4997C65.166 37.8775 65.2938 38.1941 65.5494 38.4497C65.8049 38.7052 66.1216 38.833 66.4994 38.833ZM66.4994 33.4997C66.8771 33.4997 67.1938 33.3719 67.4493 33.1163C67.7049 32.8608 67.8327 32.5441 67.8327 32.1663C67.8327 31.7886 67.7049 31.4719 67.4493 31.2163C67.1938 30.9608 66.8771 30.833 66.4994 30.833C66.1216 30.833 65.8049 30.9608 65.5494 31.2163C65.2938 31.4719 65.166 31.7886 65.166 32.1663C65.166 32.5441 65.2938 32.8608 65.5494 33.1163C65.8049 33.3719 66.1216 33.4997 66.4994 33.4997Z" fill="#CE3439"/>
</g>
<path d="M24.6651 77.5V69.1H25.9491L29.6211 75.232H28.9491L32.5611 69.1H33.8451L33.8571 77.5H32.3811L32.3691 71.416H32.6811L29.6091 76.54H28.9131L25.7931 71.416H26.1531V77.5H24.6651ZM35.982 77.5V71.092H37.482V77.5H35.982ZM36.738 70.036C36.458 70.036 36.226 69.948 36.042 69.772C35.866 69.596 35.778 69.384 35.778 69.136C35.778 68.88 35.866 68.668 36.042 68.5C36.226 68.324 36.458 68.236 36.738 68.236C37.018 68.236 37.246 68.32 37.422 68.488C37.606 68.648 37.698 68.852 37.698 69.1C37.698 69.364 37.61 69.588 37.434 69.772C37.258 69.948 37.026 70.036 36.738 70.036ZM42.3908 77.584C41.7188 77.584 41.1188 77.444 40.5908 77.164C40.0708 76.876 39.6628 76.484 39.3668 75.988C39.0708 75.492 38.9228 74.928 38.9228 74.296C38.9228 73.656 39.0708 73.092 39.3668 72.604C39.6628 72.108 40.0708 71.72 40.5908 71.44C41.1188 71.16 41.7188 71.02 42.3908 71.02C43.0148 71.02 43.5628 71.148 44.0348 71.404C44.5148 71.652 44.8788 72.02 45.1268 72.508L43.9748 73.18C43.7828 72.876 43.5468 72.652 43.2668 72.508C42.9948 72.364 42.6988 72.292 42.3788 72.292C42.0108 72.292 41.6788 72.372 41.3828 72.532C41.0868 72.692 40.8548 72.924 40.6868 73.228C40.5188 73.524 40.4348 73.88 40.4348 74.296C40.4348 74.712 40.5188 75.072 40.6868 75.376C40.8548 75.672 41.0868 75.9 41.3828 76.06C41.6788 76.22 42.0108 76.3 42.3788 76.3C42.6988 76.3 42.9948 76.228 43.2668 76.084C43.5468 75.94 43.7828 75.716 43.9748 75.412L45.1268 76.084C44.8788 76.564 44.5148 76.936 44.0348 77.2C43.5628 77.456 43.0148 77.584 42.3908 77.584ZM46.4235 77.5V71.092H47.8515V72.856L47.6835 72.34C47.8755 71.908 48.1755 71.58 48.5835 71.356C48.9995 71.132 49.5155 71.02 50.1315 71.02V72.448C50.0675 72.432 50.0075 72.424 49.9515 72.424C49.8955 72.416 49.8395 72.412 49.7835 72.412C49.2155 72.412 48.7635 72.58 48.4275 72.916C48.0915 73.244 47.9235 73.736 47.9235 74.392V77.5H46.4235ZM54.2253 77.584C53.5693 77.584 52.9853 77.444 52.4733 77.164C51.9613 76.876 51.5573 76.484 51.2613 75.988C50.9653 75.492 50.8173 74.928 50.8173 74.296C50.8173 73.656 50.9653 73.092 51.2613 72.604C51.5573 72.108 51.9613 71.72 52.4733 71.44C52.9853 71.16 53.5693 71.02 54.2253 71.02C54.8893 71.02 55.4773 71.16 55.9893 71.44C56.5093 71.72 56.9133 72.104 57.2013 72.592C57.4973 73.08 57.6453 73.648 57.6453 74.296C57.6453 74.928 57.4973 75.492 57.2013 75.988C56.9133 76.484 56.5093 76.876 55.9893 77.164C55.4773 77.444 54.8893 77.584 54.2253 77.584ZM54.2253 76.3C54.5933 76.3 54.9213 76.22 55.2093 76.06C55.4973 75.9 55.7213 75.668 55.8813 75.364C56.0493 75.06 56.1333 74.704 56.1333 74.296C56.1333 73.88 56.0493 73.524 55.8813 73.228C55.7213 72.924 55.4973 72.692 55.2093 72.532C54.9213 72.372 54.5973 72.292 54.2373 72.292C53.8693 72.292 53.5413 72.372 53.2533 72.532C52.9733 72.692 52.7493 72.924 52.5813 73.228C52.4133 73.524 52.3293 73.88 52.3293 74.296C52.3293 74.704 52.4133 75.06 52.5813 75.364C52.7493 75.668 52.9733 75.9 53.2533 76.06C53.5413 76.22 53.8653 76.3 54.2253 76.3ZM60.3199 77.5L57.9679 71.092H59.3839L61.3999 76.744H60.7279L62.8399 71.092H64.0999L66.1519 76.744H65.4919L67.5679 71.092H68.8999L66.5359 77.5H65.0959L63.2239 72.496H63.6679L61.7599 77.5H60.3199ZM73.68 77.5V76.204L73.596 75.928V73.66C73.596 73.22 73.464 72.88 73.2 72.64C72.936 72.392 72.536 72.268 72 72.268C71.64 72.268 71.284 72.324 70.932 72.436C70.588 72.548 70.296 72.704 70.056 72.904L69.468 71.812C69.812 71.548 70.22 71.352 70.692 71.224C71.172 71.088 71.668 71.02 72.18 71.02C73.108 71.02 73.824 71.244 74.328 71.692C74.84 72.132 75.096 72.816 75.096 73.744V77.5H73.68ZM71.664 77.584C71.184 77.584 70.764 77.504 70.404 77.344C70.044 77.176 69.764 76.948 69.564 76.66C69.372 76.364 69.276 76.032 69.276 75.664C69.276 75.304 69.36 74.98 69.528 74.692C69.704 74.404 69.988 74.176 70.38 74.008C70.772 73.84 71.292 73.756 71.94 73.756H73.8V74.752H72.048C71.536 74.752 71.192 74.836 71.016 75.004C70.84 75.164 70.752 75.364 70.752 75.604C70.752 75.876 70.86 76.092 71.076 76.252C71.292 76.412 71.592 76.492 71.976 76.492C72.344 76.492 72.672 76.408 72.96 76.24C73.256 76.072 73.468 75.824 73.596 75.496L73.848 76.396C73.704 76.772 73.444 77.064 73.068 77.272C72.7 77.48 72.232 77.584 71.664 77.584ZM78.6079 77.5L75.8599 71.092H77.4199L79.7839 76.744H79.0159L81.4639 71.092H82.9039L80.1559 77.5H78.6079ZM86.6776 77.584C85.9656 77.584 85.3416 77.444 84.8056 77.164C84.2776 76.876 83.8656 76.484 83.5696 75.988C83.2816 75.492 83.1376 74.928 83.1376 74.296C83.1376 73.656 83.2776 73.092 83.5576 72.604C83.8456 72.108 84.2376 71.72 84.7336 71.44C85.2376 71.16 85.8096 71.02 86.4496 71.02C87.0736 71.02 87.6296 71.156 88.1176 71.428C88.6056 71.7 88.9896 72.084 89.2696 72.58C89.5496 73.076 89.6896 73.66 89.6896 74.332C89.6896 74.396 89.6856 74.468 89.6776 74.548C89.6776 74.628 89.6736 74.704 89.6656 74.776H84.3256V73.78H88.8736L88.2856 74.092C88.2936 73.724 88.2176 73.4 88.0576 73.12C87.8976 72.84 87.6776 72.62 87.3976 72.46C87.1256 72.3 86.8096 72.22 86.4496 72.22C86.0816 72.22 85.7576 72.3 85.4776 72.46C85.2056 72.62 84.9896 72.844 84.8296 73.132C84.6776 73.412 84.6016 73.744 84.6016 74.128V74.368C84.6016 74.752 84.6896 75.092 84.8656 75.388C85.0416 75.684 85.2896 75.912 85.6096 76.072C85.9296 76.232 86.2976 76.312 86.7136 76.312C87.0736 76.312 87.3976 76.256 87.6856 76.144C87.9736 76.032 88.2296 75.856 88.4536 75.616L89.2576 76.54C88.9696 76.876 88.6056 77.136 88.1656 77.32C87.7336 77.496 87.2376 77.584 86.6776 77.584ZM17.6086 92.62C17.0246 92.62 16.5006 92.524 16.0366 92.332C15.5726 92.14 15.2086 91.876 14.9446 91.54C14.6806 91.204 14.5486 90.816 14.5486 90.376C14.5486 89.976 14.6366 89.616 14.8126 89.296C14.9886 88.976 15.2686 88.672 15.6526 88.384C16.0366 88.088 16.5286 87.792 17.1286 87.496C17.6006 87.264 17.9686 87.06 18.2326 86.884C18.5046 86.708 18.6926 86.54 18.7966 86.38C18.9086 86.22 18.9646 86.052 18.9646 85.876C18.9646 85.636 18.8806 85.444 18.7126 85.3C18.5446 85.148 18.3046 85.072 17.9926 85.072C17.6566 85.072 17.3926 85.156 17.2006 85.324C17.0166 85.484 16.9246 85.696 16.9246 85.96C16.9246 86.096 16.9486 86.228 16.9966 86.356C17.0526 86.484 17.1486 86.628 17.2846 86.788C17.4206 86.948 17.6166 87.152 17.8726 87.4L22.3126 91.66L21.4846 92.632L16.6846 88.024C16.4126 87.76 16.1926 87.516 16.0246 87.292C15.8566 87.068 15.7366 86.852 15.6646 86.644C15.5926 86.428 15.5566 86.208 15.5566 85.984C15.5566 85.592 15.6566 85.248 15.8566 84.952C16.0566 84.648 16.3406 84.416 16.7086 84.256C17.0766 84.088 17.5046 84.004 17.9926 84.004C18.4486 84.004 18.8406 84.08 19.1686 84.232C19.5046 84.376 19.7646 84.588 19.9486 84.868C20.1406 85.14 20.2366 85.468 20.2366 85.852C20.2366 86.188 20.1526 86.5 19.9846 86.788C19.8166 87.068 19.5526 87.336 19.1926 87.592C18.8406 87.848 18.3686 88.116 17.7766 88.396C17.3366 88.612 16.9886 88.816 16.7326 89.008C16.4766 89.2 16.2926 89.392 16.1806 89.584C16.0686 89.776 16.0126 89.988 16.0126 90.22C16.0126 90.452 16.0806 90.656 16.2166 90.832C16.3606 91.008 16.5606 91.148 16.8166 91.252C17.0726 91.348 17.3726 91.396 17.7166 91.396C18.2286 91.396 18.6926 91.284 19.1086 91.06C19.5326 90.828 19.8886 90.484 20.1766 90.028C20.4646 89.572 20.6726 89.008 20.8006 88.336L22.0126 88.732C21.8446 89.54 21.5526 90.236 21.1366 90.82C20.7286 91.396 20.2246 91.84 19.6246 92.152C19.0246 92.464 18.3526 92.62 17.6086 92.62ZM28.4017 87.964H32.5897V89.284H28.4017V87.964ZM28.5337 92.5H26.9737V84.1H33.1057V85.408H28.5337V92.5ZM34.3531 92.5V86.092H35.7811V87.856L35.6131 87.34C35.8051 86.908 36.1051 86.58 36.5131 86.356C36.9291 86.132 37.4451 86.02 38.0611 86.02V87.448C37.9971 87.432 37.9371 87.424 37.8811 87.424C37.8251 87.416 37.7691 87.412 37.7131 87.412C37.1451 87.412 36.6931 87.58 36.3571 87.916C36.0211 88.244 35.8531 88.736 35.8531 89.392V92.5H34.3531ZM42.287 92.584C41.575 92.584 40.951 92.444 40.415 92.164C39.887 91.876 39.475 91.484 39.179 90.988C38.891 90.492 38.747 89.928 38.747 89.296C38.747 88.656 38.887 88.092 39.167 87.604C39.455 87.108 39.847 86.72 40.343 86.44C40.847 86.16 41.419 86.02 42.059 86.02C42.683 86.02 43.239 86.156 43.727 86.428C44.215 86.7 44.599 87.084 44.879 87.58C45.159 88.076 45.299 88.66 45.299 89.332C45.299 89.396 45.295 89.468 45.287 89.548C45.287 89.628 45.283 89.704 45.275 89.776H39.935V88.78H44.483L43.895 89.092C43.903 88.724 43.827 88.4 43.667 88.12C43.507 87.84 43.287 87.62 43.007 87.46C42.735 87.3 42.419 87.22 42.059 87.22C41.691 87.22 41.367 87.3 41.087 87.46C40.815 87.62 40.599 87.844 40.439 88.132C40.287 88.412 40.211 88.744 40.211 89.128V89.368C40.211 89.752 40.299 90.092 40.475 90.388C40.651 90.684 40.899 90.912 41.219 91.072C41.539 91.232 41.907 91.312 42.323 91.312C42.683 91.312 43.007 91.256 43.295 91.144C43.583 91.032 43.839 90.856 44.063 90.616L44.867 91.54C44.579 91.876 44.215 92.136 43.775 92.32C43.343 92.496 42.847 92.584 42.287 92.584ZM49.7519 92.584C49.0399 92.584 48.4159 92.444 47.8799 92.164C47.3519 91.876 46.9399 91.484 46.6439 90.988C46.3559 90.492 46.2119 89.928 46.2119 89.296C46.2119 88.656 46.3519 88.092 46.6319 87.604C46.9199 87.108 47.3119 86.72 47.8079 86.44C48.3119 86.16 48.8839 86.02 49.5239 86.02C50.1479 86.02 50.7039 86.156 51.1919 86.428C51.6799 86.7 52.0639 87.084 52.3439 87.58C52.6239 88.076 52.7639 88.66 52.7639 89.332C52.7639 89.396 52.7599 89.468 52.7519 89.548C52.7519 89.628 52.7479 89.704 52.7399 89.776H47.3999V88.78H51.9479L51.3599 89.092C51.3679 88.724 51.2919 88.4 51.1319 88.12C50.9719 87.84 50.7519 87.62 50.4719 87.46C50.1999 87.3 49.8839 87.22 49.5239 87.22C49.1559 87.22 48.8319 87.3 48.5519 87.46C48.2799 87.62 48.0639 87.844 47.9039 88.132C47.7519 88.412 47.6759 88.744 47.6759 89.128V89.368C47.6759 89.752 47.7639 90.092 47.9399 90.388C48.1159 90.684 48.3639 90.912 48.6839 91.072C49.0039 91.232 49.3719 91.312 49.7879 91.312C50.1479 91.312 50.4719 91.256 50.7599 91.144C51.0479 91.032 51.3039 90.856 51.5279 90.616L52.3319 91.54C52.0439 91.876 51.6799 92.136 51.2399 92.32C50.8079 92.496 50.3119 92.584 49.7519 92.584ZM53.6181 92.5V91.552L57.5661 86.776L57.8421 87.292H53.6901V86.092H59.0421V87.04L55.0941 91.816L54.7941 91.3H59.1501V92.5H53.6181ZM63.4511 92.584C62.7391 92.584 62.1151 92.444 61.5791 92.164C61.0511 91.876 60.6391 91.484 60.3431 90.988C60.0551 90.492 59.9111 89.928 59.9111 89.296C59.9111 88.656 60.0511 88.092 60.3311 87.604C60.6191 87.108 61.0111 86.72 61.5071 86.44C62.0111 86.16 62.5831 86.02 63.2231 86.02C63.8471 86.02 64.4031 86.156 64.8911 86.428C65.3791 86.7 65.7631 87.084 66.0431 87.58C66.3231 88.076 66.4631 88.66 66.4631 89.332C66.4631 89.396 66.4591 89.468 66.4511 89.548C66.4511 89.628 66.4471 89.704 66.4391 89.776H61.0991V88.78H65.6471L65.0591 89.092C65.0671 88.724 64.9911 88.4 64.8311 88.12C64.6711 87.84 64.4511 87.62 64.1711 87.46C63.8991 87.3 63.5831 87.22 63.2231 87.22C62.8551 87.22 62.5311 87.3 62.2511 87.46C61.9791 87.62 61.7631 87.844 61.6031 88.132C61.4511 88.412 61.3751 88.744 61.3751 89.128V89.368C61.3751 89.752 61.4631 90.092 61.6391 90.388C61.8151 90.684 62.0631 90.912 62.3831 91.072C62.7031 91.232 63.0711 91.312 63.4871 91.312C63.8471 91.312 64.1711 91.256 64.4591 91.144C64.7471 91.032 65.0031 90.856 65.2271 90.616L66.0311 91.54C65.7431 91.876 65.3791 92.136 64.9391 92.32C64.5071 92.496 64.0111 92.584 63.4511 92.584ZM67.9039 92.5V86.092H69.3319V87.856L69.1639 87.34C69.3559 86.908 69.6559 86.58 70.0639 86.356C70.4799 86.132 70.9959 86.02 71.6119 86.02V87.448C71.5479 87.432 71.4879 87.424 71.4319 87.424C71.3759 87.416 71.3199 87.412 71.2639 87.412C70.6959 87.412 70.2439 87.58 69.9079 87.916C69.5719 88.244 69.4039 88.736 69.4039 89.392V92.5H67.9039ZM72.5252 89.788V88.54H75.8252V89.788H72.5252ZM80.0386 92.62C79.3826 92.62 78.7546 92.528 78.1546 92.344C77.5546 92.152 77.0786 91.908 76.7266 91.612L77.2666 90.4C77.6026 90.664 78.0186 90.884 78.5146 91.06C79.0106 91.236 79.5186 91.324 80.0386 91.324C80.4786 91.324 80.8346 91.276 81.1066 91.18C81.3786 91.084 81.5786 90.956 81.7066 90.796C81.8346 90.628 81.8986 90.44 81.8986 90.232C81.8986 89.976 81.8066 89.772 81.6226 89.62C81.4386 89.46 81.1986 89.336 80.9026 89.248C80.6146 89.152 80.2906 89.064 79.9306 88.984C79.5786 88.904 79.2226 88.812 78.8626 88.708C78.5106 88.596 78.1866 88.456 77.8906 88.288C77.6026 88.112 77.3666 87.88 77.1826 87.592C76.9986 87.304 76.9066 86.936 76.9066 86.488C76.9066 86.032 77.0266 85.616 77.2666 85.24C77.5146 84.856 77.8866 84.552 78.3826 84.328C78.8866 84.096 79.5226 83.98 80.2906 83.98C80.7946 83.98 81.2946 84.044 81.7906 84.172C82.2866 84.3 82.7186 84.484 83.0866 84.724L82.5946 85.936C82.2186 85.712 81.8306 85.548 81.4306 85.444C81.0306 85.332 80.6466 85.276 80.2786 85.276C79.8466 85.276 79.4946 85.328 79.2226 85.432C78.9586 85.536 78.7626 85.672 78.6346 85.84C78.5146 86.008 78.4546 86.2 78.4546 86.416C78.4546 86.672 78.5426 86.88 78.7186 87.04C78.9026 87.192 79.1386 87.312 79.4266 87.4C79.7226 87.488 80.0506 87.576 80.4106 87.664C80.7706 87.744 81.1266 87.836 81.4786 87.94C81.8386 88.044 82.1626 88.18 82.4506 88.348C82.7466 88.516 82.9826 88.744 83.1586 89.032C83.3426 89.32 83.4346 89.684 83.4346 90.124C83.4346 90.572 83.3106 90.988 83.0626 91.372C82.8226 91.748 82.4506 92.052 81.9466 92.284C81.4426 92.508 80.8066 92.62 80.0386 92.62ZM88.7855 92.5V91.204L88.7015 90.928V88.66C88.7015 88.22 88.5695 87.88 88.3055 87.64C88.0415 87.392 87.6415 87.268 87.1055 87.268C86.7455 87.268 86.3895 87.324 86.0375 87.436C85.6935 87.548 85.4015 87.704 85.1615 87.904L84.5735 86.812C84.9175 86.548 85.3255 86.352 85.7975 86.224C86.2775 86.088 86.7735 86.02 87.2855 86.02C88.2135 86.02 88.9295 86.244 89.4335 86.692C89.9455 87.132 90.2015 87.816 90.2015 88.744V92.5H88.7855ZM86.7695 92.584C86.2895 92.584 85.8695 92.504 85.5095 92.344C85.1495 92.176 84.8695 91.948 84.6695 91.66C84.4775 91.364 84.3815 91.032 84.3815 90.664C84.3815 90.304 84.4655 89.98 84.6335 89.692C84.8095 89.404 85.0935 89.176 85.4855 89.008C85.8775 88.84 86.3975 88.756 87.0455 88.756H88.9055V89.752H87.1535C86.6415 89.752 86.2975 89.836 86.1215 90.004C85.9455 90.164 85.8575 90.364 85.8575 90.604C85.8575 90.876 85.9655 91.092 86.1815 91.252C86.3975 91.412 86.6975 91.492 87.0815 91.492C87.4495 91.492 87.7775 91.408 88.0655 91.24C88.3615 91.072 88.5735 90.824 88.7015 90.496L88.9535 91.396C88.8095 91.772 88.5495 92.064 88.1735 92.272C87.8055 92.48 87.3375 92.584 86.7695 92.584ZM92.3306 92.5V85.732C92.3306 85.06 92.5266 84.524 92.9186 84.124C93.3186 83.716 93.8866 83.512 94.6226 83.512C94.8866 83.512 95.1346 83.54 95.3666 83.596C95.6066 83.652 95.8066 83.74 95.9666 83.86L95.5586 84.988C95.4466 84.9 95.3186 84.836 95.1746 84.796C95.0306 84.748 94.8826 84.724 94.7306 84.724C94.4186 84.724 94.1826 84.812 94.0226 84.988C93.8626 85.156 93.7826 85.412 93.7826 85.756V86.476L93.8306 87.148V92.5H92.3306ZM91.2746 87.34V86.14H95.5466V87.34H91.2746ZM99.4745 92.584C98.7625 92.584 98.1385 92.444 97.6025 92.164C97.0745 91.876 96.6625 91.484 96.3665 90.988C96.0785 90.492 95.9345 89.928 95.9345 89.296C95.9345 88.656 96.0745 88.092 96.3545 87.604C96.6425 87.108 97.0345 86.72 97.5305 86.44C98.0345 86.16 98.6065 86.02 99.2465 86.02C99.8705 86.02 100.427 86.156 100.915 86.428C101.403 86.7 101.787 87.084 102.067 87.58C102.347 88.076 102.487 88.66 102.487 89.332C102.487 89.396 102.483 89.468 102.475 89.548C102.475 89.628 102.471 89.704 102.463 89.776H97.1225V88.78H101.671L101.083 89.092C101.091 88.724 101.015 88.4 100.855 88.12C100.695 87.84 100.475 87.62 100.195 87.46C99.9225 87.3 99.6065 87.22 99.2465 87.22C98.8785 87.22 98.5545 87.3 98.2745 87.46C98.0025 87.62 97.7865 87.844 97.6265 88.132C97.4745 88.412 97.3985 88.744 97.3985 89.128V89.368C97.3985 89.752 97.4865 90.092 97.6625 90.388C97.8385 90.684 98.0865 90.912 98.4065 91.072C98.7265 91.232 99.0945 91.312 99.5105 91.312C99.8705 91.312 100.195 91.256 100.483 91.144C100.771 91.032 101.027 90.856 101.251 90.616L102.055 91.54C101.767 91.876 101.403 92.136 100.963 92.32C100.531 92.496 100.035 92.584 99.4745 92.584Z" fill="black"/>
</g>
<defs>
<filter id="filter0_d_325_132" x="0.8" y="0.8" width="115.4" height="115.4" filterUnits="userSpaceOnUse" color-interpolation-filters="sRGB">
<feFlood flood-opacity="0" result="BackgroundImageFix"/>
<feColorMatrix in="SourceAlpha" type="matrix" values="0 0 0 0 0 0 0 0 0 0 0 0 0 0 0 0 0 0 127 0" result="hardAlpha"/>
<feOffset/>
<feGaussianBlur stdDeviation="4.1"/>
<feComposite in2="hardAlpha" operator="out"/>
<feColorMatrix type="matrix" values="0 0 0 0 0 0 0 0 0 0 0 0 0 0 0 0 0 0 0.15 0"/>
<feBlend mode="normal" in2="BackgroundImageFix" result="effect1_dropShadow_325_132"/>
<feBlend mode="normal" in="SourceGraphic" in2="effect1_dropShadow_325_132" result="shape"/>
</filter>
</defs>
</svg>
