<svg width="117" height="117" viewBox="0 0 117 117" fill="none" xmlns="http://www.w3.org/2000/svg">
<g filter="url(#filter0_d_325_138)">
<rect x="9" y="9" width="99" height="99" rx="8" fill="white" shape-rendering="crispEdges"/>
<path d="M44.5 39.0003L58.4934 30.9971" stroke="#CE3439" stroke-width="1.5" stroke-linecap="round" stroke-linejoin="round"/>
<path d="M44.5 39L58.5 47" stroke="#CE3439" stroke-width="1.5" stroke-linecap="round" stroke-linejoin="round"/>
<path d="M44.5 51L58.5 59" stroke="#CE3439" stroke-width="1.5" stroke-linecap="round" stroke-linejoin="round"/>
<path d="M58.5 31L72.5 39" stroke="#CE3439" stroke-width="1.5" stroke-linecap="round" stroke-linejoin="round"/>
<path d="M58.5 47L72.5 39" stroke="#CE3439" stroke-width="1.5" stroke-linecap="round" stroke-linejoin="round"/>
<path d="M58.5 59L72.5 51" stroke="#CE3439" stroke-width="1.5" stroke-linecap="round" stroke-linejoin="round"/>
<path d="M44.5 45L58.5 53" stroke="#CE3439" stroke-width="1.5" stroke-linecap="round" stroke-linejoin="round"/>
<path d="M58.5 53.0007L72.4934 45.001" stroke="#CE3439" stroke-width="1.5" stroke-linecap="round" stroke-linejoin="round"/>
<path d="M44.5 45.0003L49.754 42.002" stroke="#CE3439" stroke-width="1.5" stroke-linecap="round" stroke-linejoin="round"/>
<path d="M44.5 51.0001L49.7541 47.999" stroke="#CE3439" stroke-width="1.5" stroke-linecap="round" stroke-linejoin="round"/>
<path d="M72.4935 45.0003L67.2461 42.002" stroke="#CE3439" stroke-width="1.5" stroke-linecap="round" stroke-linejoin="round"/>
<path d="M72.5003 51.0002L67.2461 47.999" stroke="#CE3439" stroke-width="1.5" stroke-linecap="round" stroke-linejoin="round"/>
<path d="M31.232 85.12C30.576 85.12 29.948 85.028 29.348 84.844C28.748 84.652 28.272 84.408 27.92 84.112L28.46 82.9C28.796 83.164 29.212 83.384 29.708 83.56C30.204 83.736 30.712 83.824 31.232 83.824C31.672 83.824 32.028 83.776 32.3 83.68C32.572 83.584 32.772 83.456 32.9 83.296C33.028 83.128 33.092 82.94 33.092 82.732C33.092 82.476 33 82.272 32.816 82.12C32.632 81.96 32.392 81.836 32.096 81.748C31.808 81.652 31.484 81.564 31.124 81.484C30.772 81.404 30.416 81.312 30.056 81.208C29.704 81.096 29.38 80.956 29.084 80.788C28.796 80.612 28.56 80.38 28.376 80.092C28.192 79.804 28.1 79.436 28.1 78.988C28.1 78.532 28.22 78.116 28.46 77.74C28.708 77.356 29.08 77.052 29.576 76.828C30.08 76.596 30.716 76.48 31.484 76.48C31.988 76.48 32.488 76.544 32.984 76.672C33.48 76.8 33.912 76.984 34.28 77.224L33.788 78.436C33.412 78.212 33.024 78.048 32.624 77.944C32.224 77.832 31.84 77.776 31.472 77.776C31.04 77.776 30.688 77.828 30.416 77.932C30.152 78.036 29.956 78.172 29.828 78.34C29.708 78.508 29.648 78.7 29.648 78.916C29.648 79.172 29.736 79.38 29.912 79.54C30.096 79.692 30.332 79.812 30.62 79.9C30.916 79.988 31.244 80.076 31.604 80.164C31.964 80.244 32.32 80.336 32.672 80.44C33.032 80.544 33.356 80.68 33.644 80.848C33.94 81.016 34.176 81.244 34.352 81.532C34.536 81.82 34.628 82.184 34.628 82.624C34.628 83.072 34.504 83.488 34.256 83.872C34.016 84.248 33.644 84.552 33.14 84.784C32.636 85.008 32 85.12 31.232 85.12ZM38.4429 85.084C37.7389 85.084 37.1949 84.904 36.8109 84.544C36.4269 84.176 36.2349 83.636 36.2349 82.924V77.176H37.7349V82.888C37.7349 83.192 37.8109 83.428 37.9629 83.596C38.1229 83.764 38.3429 83.848 38.6229 83.848C38.9589 83.848 39.2389 83.76 39.4629 83.584L39.8829 84.652C39.7069 84.796 39.4909 84.904 39.2349 84.976C38.9789 85.048 38.7149 85.084 38.4429 85.084ZM35.1789 79.84V78.64H39.4509V79.84H35.1789ZM45.0648 85V83.704L44.9808 83.428V81.16C44.9808 80.72 44.8488 80.38 44.5848 80.14C44.3208 79.892 43.9208 79.768 43.3848 79.768C43.0248 79.768 42.6688 79.824 42.3168 79.936C41.9728 80.048 41.6808 80.204 41.4408 80.404L40.8528 79.312C41.1968 79.048 41.6048 78.852 42.0768 78.724C42.5568 78.588 43.0528 78.52 43.5648 78.52C44.4928 78.52 45.2088 78.744 45.7128 79.192C46.2248 79.632 46.4808 80.316 46.4808 81.244V85H45.0648ZM43.0488 85.084C42.5688 85.084 42.1488 85.004 41.7888 84.844C41.4288 84.676 41.1488 84.448 40.9488 84.16C40.7568 83.864 40.6608 83.532 40.6608 83.164C40.6608 82.804 40.7448 82.48 40.9128 82.192C41.0888 81.904 41.3728 81.676 41.7648 81.508C42.1568 81.34 42.6768 81.256 43.3248 81.256H45.1848V82.252H43.4328C42.9208 82.252 42.5768 82.336 42.4008 82.504C42.2248 82.664 42.1368 82.864 42.1368 83.104C42.1368 83.376 42.2448 83.592 42.4608 83.752C42.6768 83.912 42.9768 83.992 43.3608 83.992C43.7288 83.992 44.0568 83.908 44.3448 83.74C44.6408 83.572 44.8528 83.324 44.9808 82.996L45.2328 83.896C45.0888 84.272 44.8288 84.564 44.4528 84.772C44.0848 84.98 43.6168 85.084 43.0488 85.084ZM51.3576 85.084C50.6856 85.084 50.0856 84.944 49.5576 84.664C49.0376 84.376 48.6296 83.984 48.3336 83.488C48.0376 82.992 47.8896 82.428 47.8896 81.796C47.8896 81.156 48.0376 80.592 48.3336 80.104C48.6296 79.608 49.0376 79.22 49.5576 78.94C50.0856 78.66 50.6856 78.52 51.3576 78.52C51.9816 78.52 52.5296 78.648 53.0016 78.904C53.4816 79.152 53.8456 79.52 54.0936 80.008L52.9416 80.68C52.7496 80.376 52.5136 80.152 52.2336 80.008C51.9616 79.864 51.6656 79.792 51.3456 79.792C50.9776 79.792 50.6456 79.872 50.3496 80.032C50.0536 80.192 49.8216 80.424 49.6536 80.728C49.4856 81.024 49.4016 81.38 49.4016 81.796C49.4016 82.212 49.4856 82.572 49.6536 82.876C49.8216 83.172 50.0536 83.4 50.3496 83.56C50.6456 83.72 50.9776 83.8 51.3456 83.8C51.6656 83.8 51.9616 83.728 52.2336 83.584C52.5136 83.44 52.7496 83.216 52.9416 82.912L54.0936 83.584C53.8456 84.064 53.4816 84.436 53.0016 84.7C52.5296 84.956 51.9816 85.084 51.3576 85.084ZM56.5557 83.572L56.5917 81.688L59.9397 78.592H61.7397L58.8957 81.448L58.1037 82.108L56.5557 83.572ZM55.3317 85V76.096H56.8317V85H55.3317ZM60.1677 85L57.8277 82.108L58.7757 80.908L61.9917 85H60.1677ZM66.7914 85V83.704L66.7074 83.428V81.16C66.7074 80.72 66.5754 80.38 66.3114 80.14C66.0474 79.892 65.6474 79.768 65.1114 79.768C64.7514 79.768 64.3954 79.824 64.0434 79.936C63.6994 80.048 63.4074 80.204 63.1674 80.404L62.5794 79.312C62.9234 79.048 63.3314 78.852 63.8034 78.724C64.2834 78.588 64.7794 78.52 65.2914 78.52C66.2194 78.52 66.9354 78.744 67.4394 79.192C67.9514 79.632 68.2074 80.316 68.2074 81.244V85H66.7914ZM64.7754 85.084C64.2954 85.084 63.8754 85.004 63.5154 84.844C63.1554 84.676 62.8754 84.448 62.6754 84.16C62.4834 83.864 62.3874 83.532 62.3874 83.164C62.3874 82.804 62.4714 82.48 62.6394 82.192C62.8154 81.904 63.0994 81.676 63.4914 81.508C63.8834 81.34 64.4034 81.256 65.0514 81.256H66.9114V82.252H65.1594C64.6474 82.252 64.3034 82.336 64.1274 82.504C63.9514 82.664 63.8634 82.864 63.8634 83.104C63.8634 83.376 63.9714 83.592 64.1874 83.752C64.4034 83.912 64.7034 83.992 65.0874 83.992C65.4554 83.992 65.7834 83.908 66.0714 83.74C66.3674 83.572 66.5794 83.324 66.7074 82.996L66.9594 83.896C66.8154 84.272 66.5554 84.564 66.1794 84.772C65.8114 84.98 65.3434 85.084 64.7754 85.084ZM73.6844 85.084C73.1404 85.084 72.6564 84.964 72.2324 84.724C71.8084 84.484 71.4724 84.124 71.2244 83.644C70.9844 83.156 70.8644 82.54 70.8644 81.796C70.8644 81.044 70.9884 80.428 71.2364 79.948C71.4924 79.468 71.8324 79.112 72.2564 78.88C72.6884 78.64 73.1644 78.52 73.6844 78.52C74.3164 78.52 74.8724 78.656 75.3524 78.928C75.8404 79.2 76.2244 79.58 76.5044 80.068C76.7924 80.556 76.9364 81.132 76.9364 81.796C76.9364 82.46 76.7924 83.036 76.5044 83.524C76.2244 84.012 75.8404 84.396 75.3524 84.676C74.8724 84.948 74.3164 85.084 73.6844 85.084ZM70.1324 85V76.096H71.6324V80.08L71.5124 81.784L71.5604 83.488V85H70.1324ZM73.5164 83.8C73.8764 83.8 74.1964 83.72 74.4764 83.56C74.7644 83.4 74.9924 83.168 75.1604 82.864C75.3284 82.56 75.4124 82.204 75.4124 81.796C75.4124 81.38 75.3284 81.024 75.1604 80.728C74.9924 80.424 74.7644 80.192 74.4764 80.032C74.1964 79.872 73.8764 79.792 73.5164 79.792C73.1564 79.792 72.8324 79.872 72.5444 80.032C72.2564 80.192 72.0284 80.424 71.8604 80.728C71.6924 81.024 71.6084 81.38 71.6084 81.796C71.6084 82.204 71.6924 82.56 71.8604 82.864C72.0284 83.168 72.2564 83.4 72.5444 83.56C72.8324 83.72 73.1564 83.8 73.5164 83.8ZM78.359 85V76.096H79.859V85H78.359ZM84.8398 85.084C84.1278 85.084 83.5038 84.944 82.9678 84.664C82.4398 84.376 82.0278 83.984 81.7318 83.488C81.4438 82.992 81.2998 82.428 81.2998 81.796C81.2998 81.156 81.4398 80.592 81.7198 80.104C82.0078 79.608 82.3998 79.22 82.8958 78.94C83.3998 78.66 83.9718 78.52 84.6118 78.52C85.2358 78.52 85.7918 78.656 86.2798 78.928C86.7678 79.2 87.1518 79.584 87.4318 80.08C87.7118 80.576 87.8518 81.16 87.8518 81.832C87.8518 81.896 87.8478 81.968 87.8398 82.048C87.8398 82.128 87.8358 82.204 87.8278 82.276H82.4878V81.28H87.0358L86.4478 81.592C86.4558 81.224 86.3798 80.9 86.2198 80.62C86.0598 80.34 85.8398 80.12 85.5598 79.96C85.2878 79.8 84.9718 79.72 84.6118 79.72C84.2438 79.72 83.9198 79.8 83.6398 79.96C83.3678 80.12 83.1518 80.344 82.9918 80.632C82.8398 80.912 82.7638 81.244 82.7638 81.628V81.868C82.7638 82.252 82.8518 82.592 83.0278 82.888C83.2038 83.184 83.4518 83.412 83.7718 83.572C84.0918 83.732 84.4598 83.812 84.8758 83.812C85.2358 83.812 85.5598 83.756 85.8478 83.644C86.1358 83.532 86.3918 83.356 86.6158 83.116L87.4198 84.04C87.1318 84.376 86.7678 84.636 86.3278 84.82C85.8958 84.996 85.3998 85.084 84.8398 85.084Z" fill="black"/>
</g>
<defs>
<filter id="filter0_d_325_138" x="0.8" y="0.8" width="115.4" height="115.4" filterUnits="userSpaceOnUse" color-interpolation-filters="sRGB">
<feFlood flood-opacity="0" result="BackgroundImageFix"/>
<feColorMatrix in="SourceAlpha" type="matrix" values="0 0 0 0 0 0 0 0 0 0 0 0 0 0 0 0 0 0 127 0" result="hardAlpha"/>
<feOffset/>
<feGaussianBlur stdDeviation="4.1"/>
<feComposite in2="hardAlpha" operator="out"/>
<feColorMatrix type="matrix" values="0 0 0 0 0 0 0 0 0 0 0 0 0 0 0 0 0 0 0.15 0"/>
<feBlend mode="normal" in2="BackgroundImageFix" result="effect1_dropShadow_325_138"/>
<feBlend mode="normal" in="SourceGraphic" in2="effect1_dropShadow_325_138" result="shape"/>
</filter>
</defs>
</svg>
