<svg width="117" height="117" viewBox="0 0 117 117" fill="none" xmlns="http://www.w3.org/2000/svg">
<g filter="url(#filter0_d_325_165)">
<rect x="9" y="9" width="99" height="99" rx="8" fill="white" shape-rendering="crispEdges"/>
<path d="M53.2193 43.287C54.566 39.9403 56.086 36.1137 61.8327 34.8337C61.8327 34.8337 55.166 34.8337 53.006 41.007C53.006 41.007 51.8327 39.8337 51.8327 38.5003C51.8327 37.167 53.166 34.3403 56.4993 33.6737C57.446 33.5003 58.4993 33.327 59.5393 33.1803C62.166 32.8337 64.686 32.4603 65.166 31.5003C65.166 31.5003 63.166 42.8337 55.8327 42.8337C55.5927 42.8337 55.2593 42.7537 54.9393 42.6337L54.3127 44.167L53.046 43.727L53.2193 43.287ZM58.4993 26.8337C64.3793 26.8337 69.166 31.6203 69.166 37.5003C69.166 43.3803 64.3793 48.167 58.4993 48.167C52.6193 48.167 47.8327 43.3803 47.8327 37.5003C47.8327 31.6203 52.6193 26.8337 58.4993 26.8337ZM58.4993 24.167C51.166 24.167 45.166 30.167 45.166 37.5003C45.166 44.8337 51.166 50.8337 58.4993 50.8337C65.8327 50.8337 71.8327 44.8337 71.8327 37.5003C71.8327 30.167 65.8327 24.167 58.4993 24.167Z" fill="#CE3439"/>
<path d="M28.628 77.5V69.1H32.564C33.572 69.1 34.34 69.3 34.868 69.7C35.396 70.092 35.66 70.62 35.66 71.284C35.66 71.732 35.556 72.116 35.348 72.436C35.14 72.748 34.86 72.992 34.508 73.168C34.164 73.336 33.788 73.42 33.38 73.42L33.596 72.988C34.068 72.988 34.492 73.076 34.868 73.252C35.244 73.42 35.54 73.668 35.756 73.996C35.98 74.324 36.092 74.732 36.092 75.22C36.092 75.94 35.816 76.5 35.264 76.9C34.712 77.3 33.892 77.5 32.804 77.5H28.628ZM30.188 76.276H32.708C33.292 76.276 33.74 76.18 34.052 75.988C34.364 75.796 34.52 75.488 34.52 75.064C34.52 74.648 34.364 74.344 34.052 74.152C33.74 73.952 33.292 73.852 32.708 73.852H30.068V72.64H32.396C32.94 72.64 33.356 72.544 33.644 72.352C33.94 72.16 34.088 71.872 34.088 71.488C34.088 71.096 33.94 70.804 33.644 70.612C33.356 70.42 32.94 70.324 32.396 70.324H30.188V76.276ZM37.7569 77.5V69.1H41.2129C41.9569 69.1 42.5929 69.22 43.1209 69.46C43.6569 69.7 44.0689 70.044 44.3569 70.492C44.6449 70.94 44.7889 71.472 44.7889 72.088C44.7889 72.704 44.6449 73.236 44.3569 73.684C44.0689 74.132 43.6569 74.476 43.1209 74.716C42.5929 74.956 41.9569 75.076 41.2129 75.076H38.6209L39.3169 74.344V77.5H37.7569ZM39.3169 74.512L38.6209 73.756H41.1409C41.8289 73.756 42.3449 73.612 42.6889 73.324C43.0409 73.028 43.2169 72.616 43.2169 72.088C43.2169 71.552 43.0409 71.14 42.6889 70.852C42.3449 70.564 41.8289 70.42 41.1409 70.42H38.6209L39.3169 69.652V74.512ZM44.7369 77.5L48.5169 69.1H50.0529L53.8449 77.5H52.2129L48.9609 69.928H49.5849L46.3449 77.5H44.7369ZM46.4769 75.556L46.8969 74.332H51.4329L51.8529 75.556H46.4769ZM54.2108 74.788V73.54H57.5108V74.788H54.2108ZM60.724 72.964H64.912V74.284H60.724V72.964ZM60.856 77.5H59.296V69.1H65.428V70.408H60.856V77.5ZM66.6754 77.5V71.092H68.1034V72.856L67.9354 72.34C68.1274 71.908 68.4274 71.58 68.8354 71.356C69.2514 71.132 69.7674 71.02 70.3834 71.02V72.448C70.3194 72.432 70.2594 72.424 70.2034 72.424C70.1474 72.416 70.0914 72.412 70.0354 72.412C69.4674 72.412 69.0154 72.58 68.6794 72.916C68.3434 73.244 68.1754 73.736 68.1754 74.392V77.5H66.6754ZM74.6093 77.584C73.8973 77.584 73.2733 77.444 72.7373 77.164C72.2093 76.876 71.7973 76.484 71.5013 75.988C71.2133 75.492 71.0693 74.928 71.0693 74.296C71.0693 73.656 71.2093 73.092 71.4893 72.604C71.7773 72.108 72.1693 71.72 72.6653 71.44C73.1693 71.16 73.7413 71.02 74.3813 71.02C75.0053 71.02 75.5613 71.156 76.0493 71.428C76.5373 71.7 76.9213 72.084 77.2013 72.58C77.4813 73.076 77.6213 73.66 77.6213 74.332C77.6213 74.396 77.6173 74.468 77.6093 74.548C77.6093 74.628 77.6053 74.704 77.5973 74.776H72.2573V73.78H76.8053L76.2173 74.092C76.2253 73.724 76.1493 73.4 75.9893 73.12C75.8293 72.84 75.6093 72.62 75.3293 72.46C75.0573 72.3 74.7413 72.22 74.3813 72.22C74.0133 72.22 73.6893 72.3 73.4093 72.46C73.1373 72.62 72.9213 72.844 72.7613 73.132C72.6093 73.412 72.5333 73.744 72.5333 74.128V74.368C72.5333 74.752 72.6213 75.092 72.7973 75.388C72.9733 75.684 73.2213 75.912 73.5413 76.072C73.8613 76.232 74.2293 76.312 74.6453 76.312C75.0053 76.312 75.3293 76.256 75.6173 76.144C75.9053 76.032 76.1613 75.856 76.3853 75.616L77.1893 76.54C76.9013 76.876 76.5373 77.136 76.0973 77.32C75.6653 77.496 75.1693 77.584 74.6093 77.584ZM82.0741 77.584C81.3621 77.584 80.7381 77.444 80.2021 77.164C79.6741 76.876 79.2621 76.484 78.9661 75.988C78.6781 75.492 78.5341 74.928 78.5341 74.296C78.5341 73.656 78.6741 73.092 78.9541 72.604C79.2421 72.108 79.6341 71.72 80.1301 71.44C80.6341 71.16 81.2061 71.02 81.8461 71.02C82.4701 71.02 83.0261 71.156 83.5141 71.428C84.0021 71.7 84.3861 72.084 84.6661 72.58C84.9461 73.076 85.0861 73.66 85.0861 74.332C85.0861 74.396 85.0821 74.468 85.0741 74.548C85.0741 74.628 85.0701 74.704 85.0621 74.776H79.7221V73.78H84.2701L83.6821 74.092C83.6901 73.724 83.6141 73.4 83.4541 73.12C83.2941 72.84 83.0741 72.62 82.7941 72.46C82.5221 72.3 82.2061 72.22 81.8461 72.22C81.4781 72.22 81.1541 72.3 80.8741 72.46C80.6021 72.62 80.3861 72.844 80.2261 73.132C80.0741 73.412 79.9981 73.744 79.9981 74.128V74.368C79.9981 74.752 80.0861 75.092 80.2621 75.388C80.4381 75.684 80.6861 75.912 81.0061 76.072C81.3261 76.232 81.6941 76.312 82.1101 76.312C82.4701 76.312 82.7941 76.256 83.0821 76.144C83.3701 76.032 83.6261 75.856 83.8501 75.616L84.6541 76.54C84.3661 76.876 84.0021 77.136 83.5621 77.32C83.1301 77.496 82.6341 77.584 82.0741 77.584ZM28.628 92.5V84.1H29.912L33.584 90.232H32.912L36.524 84.1H37.808L37.82 92.5H36.344L36.332 86.416H36.644L33.572 91.54H32.876L29.756 86.416H30.116V92.5H28.628ZM43.8929 92.5V91.204L43.8089 90.928V88.66C43.8089 88.22 43.6769 87.88 43.4129 87.64C43.1489 87.392 42.7489 87.268 42.2129 87.268C41.8529 87.268 41.4969 87.324 41.1449 87.436C40.8009 87.548 40.5089 87.704 40.2689 87.904L39.6809 86.812C40.0249 86.548 40.4329 86.352 40.9049 86.224C41.3849 86.088 41.8809 86.02 42.3929 86.02C43.3209 86.02 44.0369 86.244 44.5409 86.692C45.0529 87.132 45.3089 87.816 45.3089 88.744V92.5H43.8929ZM41.8769 92.584C41.3969 92.584 40.9769 92.504 40.6169 92.344C40.2569 92.176 39.9769 91.948 39.7769 91.66C39.5849 91.364 39.4889 91.032 39.4889 90.664C39.4889 90.304 39.5729 89.98 39.7409 89.692C39.9169 89.404 40.2009 89.176 40.5929 89.008C40.9849 88.84 41.5049 88.756 42.1529 88.756H44.0129V89.752H42.2609C41.7489 89.752 41.4049 89.836 41.2289 90.004C41.0529 90.164 40.9649 90.364 40.9649 90.604C40.9649 90.876 41.0729 91.092 41.2889 91.252C41.5049 91.412 41.8049 91.492 42.1889 91.492C42.5569 91.492 42.8849 91.408 43.1729 91.24C43.4689 91.072 43.6809 90.824 43.8089 90.496L44.0609 91.396C43.9169 91.772 43.6569 92.064 43.2809 92.272C42.9129 92.48 42.4449 92.584 41.8769 92.584ZM49.646 92.584C48.942 92.584 48.398 92.404 48.014 92.044C47.63 91.676 47.438 91.136 47.438 90.424V84.676H48.938V90.388C48.938 90.692 49.014 90.928 49.166 91.096C49.326 91.264 49.546 91.348 49.826 91.348C50.162 91.348 50.442 91.26 50.666 91.084L51.086 92.152C50.91 92.296 50.694 92.404 50.438 92.476C50.182 92.548 49.918 92.584 49.646 92.584ZM46.382 87.34V86.14H50.654V87.34H46.382ZM55.121 92.584C54.409 92.584 53.785 92.444 53.249 92.164C52.721 91.876 52.309 91.484 52.013 90.988C51.725 90.492 51.581 89.928 51.581 89.296C51.581 88.656 51.721 88.092 52.001 87.604C52.289 87.108 52.681 86.72 53.177 86.44C53.681 86.16 54.253 86.02 54.893 86.02C55.517 86.02 56.073 86.156 56.561 86.428C57.049 86.7 57.433 87.084 57.713 87.58C57.993 88.076 58.133 88.66 58.133 89.332C58.133 89.396 58.129 89.468 58.121 89.548C58.121 89.628 58.117 89.704 58.109 89.776H52.769V88.78H57.317L56.729 89.092C56.737 88.724 56.661 88.4 56.501 88.12C56.341 87.84 56.121 87.62 55.841 87.46C55.569 87.3 55.253 87.22 54.893 87.22C54.525 87.22 54.201 87.3 53.921 87.46C53.649 87.62 53.433 87.844 53.273 88.132C53.121 88.412 53.045 88.744 53.045 89.128V89.368C53.045 89.752 53.133 90.092 53.309 90.388C53.485 90.684 53.733 90.912 54.053 91.072C54.373 91.232 54.741 91.312 55.157 91.312C55.517 91.312 55.841 91.256 56.129 91.144C56.417 91.032 56.673 90.856 56.897 90.616L57.701 91.54C57.413 91.876 57.049 92.136 56.609 92.32C56.177 92.496 55.681 92.584 55.121 92.584ZM59.5738 92.5V86.092H61.0018V87.856L60.8338 87.34C61.0258 86.908 61.3258 86.58 61.7338 86.356C62.1498 86.132 62.6658 86.02 63.2818 86.02V87.448C63.2178 87.432 63.1578 87.424 63.1018 87.424C63.0458 87.416 62.9898 87.412 62.9338 87.412C62.3658 87.412 61.9138 87.58 61.5778 87.916C61.2418 88.244 61.0738 88.736 61.0738 89.392V92.5H59.5738ZM64.5543 92.5V86.092H66.0543V92.5H64.5543ZM65.3103 85.036C65.0303 85.036 64.7983 84.948 64.6143 84.772C64.4383 84.596 64.3503 84.384 64.3503 84.136C64.3503 83.88 64.4383 83.668 64.6143 83.5C64.7983 83.324 65.0303 83.236 65.3103 83.236C65.5903 83.236 65.8183 83.32 65.9943 83.488C66.1783 83.648 66.2703 83.852 66.2703 84.1C66.2703 84.364 66.1823 84.588 66.0063 84.772C65.8303 84.948 65.5983 85.036 65.3103 85.036ZM71.9711 92.5V91.204L71.8871 90.928V88.66C71.8871 88.22 71.7551 87.88 71.4911 87.64C71.2271 87.392 70.8271 87.268 70.2911 87.268C69.9311 87.268 69.5751 87.324 69.2231 87.436C68.8791 87.548 68.5871 87.704 68.3471 87.904L67.7591 86.812C68.1031 86.548 68.5111 86.352 68.9831 86.224C69.4631 86.088 69.9591 86.02 70.4711 86.02C71.3991 86.02 72.1151 86.244 72.6191 86.692C73.1311 87.132 73.3871 87.816 73.3871 88.744V92.5H71.9711ZM69.9551 92.584C69.4751 92.584 69.0551 92.504 68.6951 92.344C68.3351 92.176 68.0551 91.948 67.8551 91.66C67.6631 91.364 67.5671 91.032 67.5671 90.664C67.5671 90.304 67.6511 89.98 67.8191 89.692C67.9951 89.404 68.2791 89.176 68.6711 89.008C69.0631 88.84 69.5831 88.756 70.2311 88.756H72.0911V89.752H70.3391C69.8271 89.752 69.4831 89.836 69.3071 90.004C69.1311 90.164 69.0431 90.364 69.0431 90.604C69.0431 90.876 69.1511 91.092 69.3671 91.252C69.5831 91.412 69.8831 91.492 70.2671 91.492C70.6351 91.492 70.9631 91.408 71.2511 91.24C71.5471 91.072 71.7591 90.824 71.8871 90.496L72.1391 91.396C71.9951 91.772 71.7351 92.064 71.3591 92.272C70.9911 92.48 70.5231 92.584 69.9551 92.584ZM75.3121 92.5V83.596H76.8121V92.5H75.3121ZM80.7609 92.584C80.2249 92.584 79.7089 92.516 79.2129 92.38C78.7249 92.236 78.3369 92.064 78.0489 91.864L78.6249 90.724C78.9129 90.908 79.2569 91.06 79.6569 91.18C80.0569 91.3 80.4569 91.36 80.8569 91.36C81.3289 91.36 81.6689 91.296 81.8769 91.168C82.0929 91.04 82.2009 90.868 82.2009 90.652C82.2009 90.476 82.1289 90.344 81.9849 90.256C81.8409 90.16 81.6529 90.088 81.4209 90.04C81.1889 89.992 80.9289 89.948 80.6409 89.908C80.3609 89.868 80.0769 89.816 79.7889 89.752C79.5089 89.68 79.2529 89.58 79.0209 89.452C78.7889 89.316 78.6009 89.136 78.4569 88.912C78.3129 88.688 78.2409 88.392 78.2409 88.024C78.2409 87.616 78.3569 87.264 78.5889 86.968C78.8209 86.664 79.1449 86.432 79.5609 86.272C79.9849 86.104 80.4849 86.02 81.0609 86.02C81.4929 86.02 81.9289 86.068 82.3689 86.164C82.8089 86.26 83.1729 86.396 83.4609 86.572L82.8849 87.712C82.5809 87.528 82.2729 87.404 81.9609 87.34C81.6569 87.268 81.3529 87.232 81.0489 87.232C80.5929 87.232 80.2529 87.3 80.0289 87.436C79.8129 87.572 79.7049 87.744 79.7049 87.952C79.7049 88.144 79.7769 88.288 79.9209 88.384C80.0649 88.48 80.2529 88.556 80.4849 88.612C80.7169 88.668 80.9729 88.716 81.2529 88.756C81.5409 88.788 81.8249 88.84 82.1049 88.912C82.3849 88.984 82.6409 89.084 82.8729 89.212C83.1129 89.332 83.3049 89.504 83.4489 89.728C83.5929 89.952 83.6649 90.244 83.6649 90.604C83.6649 91.004 83.5449 91.352 83.3049 91.648C83.0729 91.944 82.7409 92.176 82.3089 92.344C81.8769 92.504 81.3609 92.584 80.7609 92.584Z" fill="black"/>
</g>
<defs>
<filter id="filter0_d_325_165" x="0.8" y="0.8" width="115.4" height="115.4" filterUnits="userSpaceOnUse" color-interpolation-filters="sRGB">
<feFlood flood-opacity="0" result="BackgroundImageFix"/>
<feColorMatrix in="SourceAlpha" type="matrix" values="0 0 0 0 0 0 0 0 0 0 0 0 0 0 0 0 0 0 127 0" result="hardAlpha"/>
<feOffset/>
<feGaussianBlur stdDeviation="4.1"/>
<feComposite in2="hardAlpha" operator="out"/>
<feColorMatrix type="matrix" values="0 0 0 0 0 0 0 0 0 0 0 0 0 0 0 0 0 0 0.15 0"/>
<feBlend mode="normal" in2="BackgroundImageFix" result="effect1_dropShadow_325_165"/>
<feBlend mode="normal" in="SourceGraphic" in2="effect1_dropShadow_325_165" result="shape"/>
</filter>
</defs>
</svg>
