<svg width="117" height="117" viewBox="0 0 117 117" fill="none" xmlns="http://www.w3.org/2000/svg">
<g filter="url(#filter0_d_325_160)">
<rect x="9" y="9" width="99" height="99" rx="8" fill="white" shape-rendering="crispEdges"/>
<path fill-rule="evenodd" clip-rule="evenodd" d="M46.4527 25H53.4611C60.3362 25 60.4725 25.0039 60.6675 25.197C60.8596 25.387 60.8665 25.5249 60.8665 29.4318C60.8665 32.7409 60.8377 33.6076 60.7083 34.233C60.6208 34.6525 60.4397 35.2621 60.3044 35.5871C60.1691 35.9121 59.8646 36.4666 59.6278 36.8182C59.391 37.1708 58.8866 37.7469 58.5075 38.0985C58.1284 38.4511 57.5523 38.8933 57.228 39.0824C56.9036 39.2714 56.3694 39.5216 55.4441 39.8495V47.5855L57.4618 48.6767C58.5712 49.2775 59.5223 49.8359 59.5741 49.9167C59.6268 49.9984 59.6706 50.1639 59.6706 50.286C59.6716 50.4081 59.5631 50.6189 59.1841 51L53.5338 50.999C49.2475 50.997 47.8247 50.9675 47.6417 50.8759C47.5093 50.8089 47.3631 50.6317 47.3183 50.483C47.2606 50.2939 47.2815 50.1373 47.385 49.9659C47.4815 49.8064 48.2327 49.3484 51.51 47.6023L51.514 39.8712L51.2901 39.8023C51.1668 39.7649 50.731 39.5708 50.3201 39.3729C49.9101 39.1739 49.2943 38.8056 48.952 38.5545C48.6098 38.3033 48.0824 37.7991 47.78 37.4337C47.4775 37.0683 47.0556 36.4144 46.8437 35.9811C46.6318 35.5477 46.3791 34.9056 46.2826 34.553C46.1323 34.0064 46.0995 33.3042 46 25.5377L46.4527 25ZM47.4884 33.8144C47.9093 34.9972 48.2058 35.6177 48.4187 35.9564C48.6316 36.2952 49.0684 36.8103 49.3888 37.1018C49.7092 37.3943 50.1957 37.7597 50.4693 37.9153C50.7429 38.0709 51.325 38.3122 51.7627 38.4501C52.2005 38.5889 52.6383 38.777 52.7358 38.8677C52.901 39.0223 52.9129 39.3463 52.9099 43.6383L52.9069 48.2424C52.5478 48.5861 52.1229 48.852 51.7299 49.0549C51.3369 49.2578 51.0165 49.4686 51.0165 49.5227C51.0165 49.5858 51.8951 49.6212 53.4542 49.6212C54.7944 49.6212 55.9127 49.5877 55.9375 49.5473C55.9634 49.507 55.5833 49.2519 55.0948 48.9811C54.5884 48.7014 54.1606 48.3931 54.1029 48.267C54.0382 48.1262 54.0014 46.4096 54.0014 43.5644V39.0833C54.3795 38.7012 54.5585 38.5909 54.6431 38.5909C54.7277 38.5909 55.0769 38.4983 55.4192 38.3851C55.7604 38.2718 56.2868 38.0315 56.5882 37.8513C56.8887 37.6701 57.3812 37.2761 57.6827 36.9748C57.9832 36.6744 58.3981 36.1495 58.604 35.8107C58.81 35.4709 59.0766 34.9273 59.196 34.6023C59.4059 34.034 59.4139 33.8666 59.4189 30.1951L59.4248 26.3788H47.4198L47.4884 33.8144ZM63.4594 25C63.6205 25 63.8414 25.0886 63.9509 25.197C64.1399 25.3841 64.1499 25.5249 64.1499 30.5152H65.0453L65.0413 28.0284C65.0383 25.6786 65.0493 25.5269 65.2403 25.2708C65.3836 25.0798 65.5318 25 65.7418 25C65.9069 25 66.1288 25.0877 66.2392 25.197C66.4283 25.3841 66.4382 25.5249 66.4382 30.5152H67.3337L67.3297 28.0284C67.3267 25.6786 67.3377 25.5269 67.5287 25.2708C67.672 25.0798 67.8202 25 68.0302 25C68.1953 25 68.4172 25.0877 68.5276 25.197C68.7167 25.3841 68.7266 25.5249 68.7266 30.5152H69.6221L69.6181 28.0284C69.6151 25.6786 69.626 25.5269 69.8171 25.2708C69.9603 25.0798 70.1086 25 70.3185 25C70.4837 25 70.7056 25.0877 70.816 25.197C71.008 25.387 71.014 25.5082 70.9901 28.767C70.9662 32.02 70.9573 32.1559 70.7454 32.5833C70.625 32.8266 70.3524 33.2255 70.1404 33.4697C69.9275 33.713 69.5007 34.0458 68.6271 34.5038V42.0625C68.6271 48.1331 68.6013 49.6842 68.4948 49.9413C68.4212 50.1176 68.2311 50.3736 68.0719 50.5115C67.9118 50.6494 67.6023 50.8208 67.3834 50.8917C67.1446 50.9695 66.8462 50.9941 66.6372 50.9527C66.4452 50.9153 66.1547 50.806 65.9905 50.7085C65.8263 50.612 65.5796 50.3608 65.1945 49.7689L65.1448 34.4545L64.7219 34.2615C64.4891 34.1552 64.1021 33.8784 63.8623 33.646C63.6215 33.4136 63.2862 32.9349 62.8067 31.9432L62.7131 25.5367L62.941 25.2679C63.0932 25.0877 63.2634 25 63.4594 25ZM64.5966 32.411C64.7339 32.6139 65.0145 32.863 65.2194 32.9635C65.4244 33.0649 65.7607 33.1979 65.9656 33.2589C66.1706 33.321 66.3835 33.4598 66.4382 33.5682C66.5019 33.6942 66.5377 36.5552 66.5377 41.5455C66.5377 48.3301 66.5566 49.3445 66.687 49.4735C66.7686 49.5542 66.872 49.6212 66.9158 49.6212C66.9596 49.6212 67.0501 49.5661 67.1158 49.4981C67.2093 49.4036 67.2362 47.5776 67.2322 41.5947C67.2272 34.1355 67.2352 33.8045 67.4133 33.5682C67.5247 33.4214 67.7874 33.2717 68.064 33.1989C68.3187 33.1309 68.6898 32.932 68.8878 32.7557C69.0868 32.5794 69.3106 32.3135 69.3853 32.1648L69.5226 31.8939C65.5129 31.8939 64.3488 31.9274 64.3478 31.9678C64.3478 32.0082 64.4603 32.2081 64.5966 32.411Z" fill="#CE3439"/>
<path d="M23.0755 71.964H27.2635V73.284H23.0755V71.964ZM23.2075 76.5H21.6475V68.1H27.7795V69.408H23.2075V76.5ZM31.8484 76.584C31.1924 76.584 30.6084 76.444 30.0964 76.164C29.5844 75.876 29.1804 75.484 28.8844 74.988C28.5884 74.492 28.4404 73.928 28.4404 73.296C28.4404 72.656 28.5884 72.092 28.8844 71.604C29.1804 71.108 29.5844 70.72 30.0964 70.44C30.6084 70.16 31.1924 70.02 31.8484 70.02C32.5124 70.02 33.1004 70.16 33.6124 70.44C34.1324 70.72 34.5364 71.104 34.8244 71.592C35.1204 72.08 35.2684 72.648 35.2684 73.296C35.2684 73.928 35.1204 74.492 34.8244 74.988C34.5364 75.484 34.1324 75.876 33.6124 76.164C33.1004 76.444 32.5124 76.584 31.8484 76.584ZM31.8484 75.3C32.2164 75.3 32.5444 75.22 32.8324 75.06C33.1204 74.9 33.3444 74.668 33.5044 74.364C33.6724 74.06 33.7564 73.704 33.7564 73.296C33.7564 72.88 33.6724 72.524 33.5044 72.228C33.3444 71.924 33.1204 71.692 32.8324 71.532C32.5444 71.372 32.2204 71.292 31.8604 71.292C31.4924 71.292 31.1644 71.372 30.8764 71.532C30.5964 71.692 30.3724 71.924 30.2044 72.228C30.0364 72.524 29.9524 72.88 29.9524 73.296C29.9524 73.704 30.0364 74.06 30.2044 74.364C30.3724 74.668 30.5964 74.9 30.8764 75.06C31.1644 75.22 31.4884 75.3 31.8484 75.3ZM39.5828 76.584C38.9268 76.584 38.3428 76.444 37.8308 76.164C37.3188 75.876 36.9148 75.484 36.6188 74.988C36.3228 74.492 36.1748 73.928 36.1748 73.296C36.1748 72.656 36.3228 72.092 36.6188 71.604C36.9148 71.108 37.3188 70.72 37.8308 70.44C38.3428 70.16 38.9268 70.02 39.5828 70.02C40.2468 70.02 40.8348 70.16 41.3468 70.44C41.8668 70.72 42.2708 71.104 42.5588 71.592C42.8548 72.08 43.0028 72.648 43.0028 73.296C43.0028 73.928 42.8548 74.492 42.5588 74.988C42.2708 75.484 41.8668 75.876 41.3468 76.164C40.8348 76.444 40.2468 76.584 39.5828 76.584ZM39.5828 75.3C39.9508 75.3 40.2788 75.22 40.5668 75.06C40.8548 74.9 41.0788 74.668 41.2388 74.364C41.4068 74.06 41.4908 73.704 41.4908 73.296C41.4908 72.88 41.4068 72.524 41.2388 72.228C41.0788 71.924 40.8548 71.692 40.5668 71.532C40.2788 71.372 39.9548 71.292 39.5948 71.292C39.2268 71.292 38.8988 71.372 38.6108 71.532C38.3308 71.692 38.1068 71.924 37.9388 72.228C37.7708 72.524 37.6868 72.88 37.6868 73.296C37.6868 73.704 37.7708 74.06 37.9388 74.364C38.1068 74.668 38.3308 74.9 38.6108 75.06C38.8988 75.22 39.2228 75.3 39.5828 75.3ZM47.1491 76.584C46.5331 76.584 45.9771 76.448 45.4811 76.176C44.9931 75.896 44.6091 75.512 44.3291 75.024C44.0491 74.536 43.9091 73.96 43.9091 73.296C43.9091 72.632 44.0491 72.056 44.3291 71.568C44.6091 71.08 44.9931 70.7 45.4811 70.428C45.9771 70.156 46.5331 70.02 47.1491 70.02C47.6851 70.02 48.1651 70.14 48.5891 70.38C49.0131 70.612 49.3491 70.968 49.5971 71.448C49.8451 71.928 49.9691 72.544 49.9691 73.296C49.9691 74.04 49.8491 74.656 49.6091 75.144C49.3691 75.624 49.0371 75.984 48.6131 76.224C48.1891 76.464 47.7011 76.584 47.1491 76.584ZM47.3291 75.3C47.6891 75.3 48.0091 75.22 48.2891 75.06C48.5771 74.9 48.8051 74.668 48.9731 74.364C49.1491 74.06 49.2371 73.704 49.2371 73.296C49.2371 72.88 49.1491 72.524 48.9731 72.228C48.8051 71.924 48.5771 71.692 48.2891 71.532C48.0091 71.372 47.6891 71.292 47.3291 71.292C46.9691 71.292 46.6451 71.372 46.3571 71.532C46.0771 71.692 45.8491 71.924 45.6731 72.228C45.5051 72.524 45.4211 72.88 45.4211 73.296C45.4211 73.704 45.5051 74.06 45.6731 74.364C45.8491 74.668 46.0771 74.9 46.3571 75.06C46.6451 75.22 46.9691 75.3 47.3291 75.3ZM49.2731 76.5V74.988L49.3331 73.284L49.2131 71.58V67.596H50.7011V76.5H49.2731ZM52.3514 73.788V72.54H55.6514V73.788H52.3514ZM61.4192 76.62C60.7632 76.62 60.1592 76.516 59.6072 76.308C59.0632 76.092 58.5872 75.792 58.1792 75.408C57.7712 75.016 57.4552 74.556 57.2312 74.028C57.0072 73.5 56.8952 72.924 56.8952 72.3C56.8952 71.676 57.0072 71.1 57.2312 70.572C57.4552 70.044 57.7712 69.588 58.1792 69.204C58.5952 68.812 59.0792 68.512 59.6312 68.304C60.1832 68.088 60.7872 67.98 61.4432 67.98C62.1552 67.98 62.7952 68.096 63.3632 68.328C63.9392 68.56 64.4232 68.9 64.8152 69.348L63.8312 70.308C63.5032 69.98 63.1472 69.74 62.7632 69.588C62.3872 69.428 61.9712 69.348 61.5152 69.348C61.0752 69.348 60.6672 69.42 60.2912 69.564C59.9152 69.708 59.5912 69.912 59.3192 70.176C59.0472 70.44 58.8352 70.752 58.6832 71.112C58.5392 71.472 58.4672 71.868 58.4672 72.3C58.4672 72.724 58.5392 73.116 58.6832 73.476C58.8352 73.836 59.0472 74.152 59.3192 74.424C59.5912 74.688 59.9112 74.892 60.2792 75.036C60.6472 75.18 61.0552 75.252 61.5032 75.252C61.9192 75.252 62.3192 75.188 62.7032 75.06C63.0952 74.924 63.4672 74.7 63.8192 74.388L64.7072 75.552C64.2672 75.904 63.7552 76.172 63.1712 76.356C62.5952 76.532 62.0112 76.62 61.4192 76.62ZM63.2312 75.348V72.204H64.7072V75.552L63.2312 75.348ZM66.6207 76.5V70.092H68.0487V71.856L67.8807 71.34C68.0727 70.908 68.3727 70.58 68.7807 70.356C69.1967 70.132 69.7127 70.02 70.3287 70.02V71.448C70.2647 71.432 70.2047 71.424 70.1487 71.424C70.0927 71.416 70.0367 71.412 69.9807 71.412C69.4127 71.412 68.9607 71.58 68.6247 71.916C68.2887 72.244 68.1207 72.736 68.1207 73.392V76.5H66.6207ZM75.0922 76.5V75.204L75.0082 74.928V72.66C75.0082 72.22 74.8762 71.88 74.6122 71.64C74.3482 71.392 73.9482 71.268 73.4122 71.268C73.0522 71.268 72.6962 71.324 72.3442 71.436C72.0002 71.548 71.7082 71.704 71.4682 71.904L70.8802 70.812C71.2242 70.548 71.6322 70.352 72.1042 70.224C72.5842 70.088 73.0802 70.02 73.5922 70.02C74.5202 70.02 75.2362 70.244 75.7402 70.692C76.2522 71.132 76.5082 71.816 76.5082 72.744V76.5H75.0922ZM73.0762 76.584C72.5962 76.584 72.1762 76.504 71.8162 76.344C71.4562 76.176 71.1762 75.948 70.9762 75.66C70.7842 75.364 70.6882 75.032 70.6882 74.664C70.6882 74.304 70.7722 73.98 70.9402 73.692C71.1162 73.404 71.4002 73.176 71.7922 73.008C72.1842 72.84 72.7042 72.756 73.3522 72.756H75.2122V73.752H73.4602C72.9482 73.752 72.6042 73.836 72.4282 74.004C72.2522 74.164 72.1642 74.364 72.1642 74.604C72.1642 74.876 72.2722 75.092 72.4882 75.252C72.7042 75.412 73.0042 75.492 73.3882 75.492C73.7562 75.492 74.0842 75.408 74.3722 75.24C74.6682 75.072 74.8802 74.824 75.0082 74.496L75.2602 75.396C75.1162 75.772 74.8562 76.064 74.4802 76.272C74.1122 76.48 73.6442 76.584 73.0762 76.584ZM81.1569 76.584C80.5409 76.584 79.9849 76.448 79.4889 76.176C79.0009 75.896 78.6169 75.512 78.3369 75.024C78.0569 74.536 77.9169 73.96 77.9169 73.296C77.9169 72.632 78.0569 72.056 78.3369 71.568C78.6169 71.08 79.0009 70.7 79.4889 70.428C79.9849 70.156 80.5409 70.02 81.1569 70.02C81.6929 70.02 82.1729 70.14 82.5969 70.38C83.0209 70.612 83.3569 70.968 83.6049 71.448C83.8529 71.928 83.9769 72.544 83.9769 73.296C83.9769 74.04 83.8569 74.656 83.6169 75.144C83.3769 75.624 83.0449 75.984 82.6209 76.224C82.1969 76.464 81.7089 76.584 81.1569 76.584ZM81.3369 75.3C81.6969 75.3 82.0169 75.22 82.2969 75.06C82.5849 74.9 82.8129 74.668 82.9809 74.364C83.1569 74.06 83.2449 73.704 83.2449 73.296C83.2449 72.88 83.1569 72.524 82.9809 72.228C82.8129 71.924 82.5849 71.692 82.2969 71.532C82.0169 71.372 81.6969 71.292 81.3369 71.292C80.9769 71.292 80.6529 71.372 80.3649 71.532C80.0849 71.692 79.8569 71.924 79.6809 72.228C79.5129 72.524 79.4289 72.88 79.4289 73.296C79.4289 73.704 79.5129 74.06 79.6809 74.364C79.8569 74.668 80.0849 74.9 80.3649 75.06C80.6529 75.22 80.9769 75.3 81.3369 75.3ZM83.2809 76.5V74.988L83.3409 73.284L83.2209 71.58V67.596H84.7089V76.5H83.2809ZM89.6952 76.584C88.9832 76.584 88.3592 76.444 87.8232 76.164C87.2952 75.876 86.8832 75.484 86.5872 74.988C86.2992 74.492 86.1552 73.928 86.1552 73.296C86.1552 72.656 86.2952 72.092 86.5752 71.604C86.8632 71.108 87.2552 70.72 87.7512 70.44C88.2552 70.16 88.8272 70.02 89.4672 70.02C90.0912 70.02 90.6472 70.156 91.1352 70.428C91.6232 70.7 92.0072 71.084 92.2872 71.58C92.5672 72.076 92.7072 72.66 92.7072 73.332C92.7072 73.396 92.7032 73.468 92.6952 73.548C92.6952 73.628 92.6912 73.704 92.6832 73.776H87.3432V72.78H91.8912L91.3032 73.092C91.3112 72.724 91.2352 72.4 91.0752 72.12C90.9152 71.84 90.6952 71.62 90.4152 71.46C90.1432 71.3 89.8272 71.22 89.4672 71.22C89.0992 71.22 88.7752 71.3 88.4952 71.46C88.2232 71.62 88.0072 71.844 87.8472 72.132C87.6952 72.412 87.6192 72.744 87.6192 73.128V73.368C87.6192 73.752 87.7072 74.092 87.8832 74.388C88.0592 74.684 88.3072 74.912 88.6272 75.072C88.9472 75.232 89.3152 75.312 89.7312 75.312C90.0912 75.312 90.4152 75.256 90.7032 75.144C90.9912 75.032 91.2472 74.856 91.4712 74.616L92.2752 75.54C91.9872 75.876 91.6232 76.136 91.1832 76.32C90.7512 76.496 90.2552 76.584 89.6952 76.584ZM31.3917 91.5V83.1H32.6757L36.3477 89.232H35.6757L39.2877 83.1H40.5717L40.5837 91.5H39.1077L39.0957 85.416H39.4077L36.3357 90.54H35.6397L32.5197 85.416H32.8797V91.5H31.3917ZM46.6566 91.5V90.204L46.5726 89.928V87.66C46.5726 87.22 46.4406 86.88 46.1766 86.64C45.9126 86.392 45.5126 86.268 44.9766 86.268C44.6166 86.268 44.2606 86.324 43.9086 86.436C43.5646 86.548 43.2726 86.704 43.0326 86.904L42.4446 85.812C42.7886 85.548 43.1966 85.352 43.6686 85.224C44.1486 85.088 44.6446 85.02 45.1566 85.02C46.0846 85.02 46.8006 85.244 47.3046 85.692C47.8166 86.132 48.0726 86.816 48.0726 87.744V91.5H46.6566ZM44.6406 91.584C44.1606 91.584 43.7406 91.504 43.3806 91.344C43.0206 91.176 42.7406 90.948 42.5406 90.66C42.3486 90.364 42.2526 90.032 42.2526 89.664C42.2526 89.304 42.3366 88.98 42.5046 88.692C42.6806 88.404 42.9646 88.176 43.3566 88.008C43.7486 87.84 44.2686 87.756 44.9166 87.756H46.7766V88.752H45.0246C44.5126 88.752 44.1686 88.836 43.9926 89.004C43.8166 89.164 43.7286 89.364 43.7286 89.604C43.7286 89.876 43.8366 90.092 44.0526 90.252C44.2686 90.412 44.5686 90.492 44.9526 90.492C45.3206 90.492 45.6486 90.408 45.9366 90.24C46.2326 90.072 46.4446 89.824 46.5726 89.496L46.8246 90.396C46.6806 90.772 46.4206 91.064 46.0446 91.272C45.6766 91.48 45.2086 91.584 44.6406 91.584ZM52.4097 91.584C51.7057 91.584 51.1617 91.404 50.7777 91.044C50.3937 90.676 50.2017 90.136 50.2017 89.424V83.676H51.7017V89.388C51.7017 89.692 51.7777 89.928 51.9297 90.096C52.0897 90.264 52.3097 90.348 52.5897 90.348C52.9257 90.348 53.2057 90.26 53.4297 90.084L53.8497 91.152C53.6737 91.296 53.4577 91.404 53.2017 91.476C52.9457 91.548 52.6817 91.584 52.4097 91.584ZM49.1457 86.34V85.14H53.4177V86.34H49.1457ZM57.8847 91.584C57.1727 91.584 56.5487 91.444 56.0127 91.164C55.4847 90.876 55.0727 90.484 54.7767 89.988C54.4887 89.492 54.3447 88.928 54.3447 88.296C54.3447 87.656 54.4847 87.092 54.7647 86.604C55.0527 86.108 55.4447 85.72 55.9407 85.44C56.4447 85.16 57.0167 85.02 57.6567 85.02C58.2807 85.02 58.8367 85.156 59.3247 85.428C59.8127 85.7 60.1967 86.084 60.4767 86.58C60.7567 87.076 60.8967 87.66 60.8967 88.332C60.8967 88.396 60.8927 88.468 60.8847 88.548C60.8847 88.628 60.8807 88.704 60.8727 88.776H55.5327V87.78H60.0807L59.4927 88.092C59.5007 87.724 59.4247 87.4 59.2647 87.12C59.1047 86.84 58.8847 86.62 58.6047 86.46C58.3327 86.3 58.0167 86.22 57.6567 86.22C57.2887 86.22 56.9647 86.3 56.6847 86.46C56.4127 86.62 56.1967 86.844 56.0367 87.132C55.8847 87.412 55.8087 87.744 55.8087 88.128V88.368C55.8087 88.752 55.8967 89.092 56.0727 89.388C56.2487 89.684 56.4967 89.912 56.8167 90.072C57.1367 90.232 57.5047 90.312 57.9207 90.312C58.2807 90.312 58.6047 90.256 58.8927 90.144C59.1807 90.032 59.4367 89.856 59.6607 89.616L60.4647 90.54C60.1767 90.876 59.8127 91.136 59.3727 91.32C58.9407 91.496 58.4447 91.584 57.8847 91.584ZM62.3375 91.5V85.092H63.7655V86.856L63.5975 86.34C63.7895 85.908 64.0895 85.58 64.4975 85.356C64.9135 85.132 65.4295 85.02 66.0455 85.02V86.448C65.9815 86.432 65.9215 86.424 65.8655 86.424C65.8095 86.416 65.7535 86.412 65.6975 86.412C65.1295 86.412 64.6775 86.58 64.3415 86.916C64.0055 87.244 63.8375 87.736 63.8375 88.392V91.5H62.3375ZM67.318 91.5V85.092H68.818V91.5H67.318ZM68.074 84.036C67.794 84.036 67.562 83.948 67.378 83.772C67.202 83.596 67.114 83.384 67.114 83.136C67.114 82.88 67.202 82.668 67.378 82.5C67.562 82.324 67.794 82.236 68.074 82.236C68.354 82.236 68.582 82.32 68.758 82.488C68.942 82.648 69.034 82.852 69.034 83.1C69.034 83.364 68.946 83.588 68.77 83.772C68.594 83.948 68.362 84.036 68.074 84.036ZM74.7347 91.5V90.204L74.6507 89.928V87.66C74.6507 87.22 74.5187 86.88 74.2547 86.64C73.9907 86.392 73.5907 86.268 73.0547 86.268C72.6947 86.268 72.3387 86.324 71.9867 86.436C71.6427 86.548 71.3507 86.704 71.1107 86.904L70.5227 85.812C70.8667 85.548 71.2747 85.352 71.7467 85.224C72.2267 85.088 72.7227 85.02 73.2347 85.02C74.1627 85.02 74.8787 85.244 75.3827 85.692C75.8947 86.132 76.1507 86.816 76.1507 87.744V91.5H74.7347ZM72.7187 91.584C72.2387 91.584 71.8187 91.504 71.4587 91.344C71.0987 91.176 70.8187 90.948 70.6187 90.66C70.4267 90.364 70.3307 90.032 70.3307 89.664C70.3307 89.304 70.4147 88.98 70.5827 88.692C70.7587 88.404 71.0427 88.176 71.4347 88.008C71.8267 87.84 72.3467 87.756 72.9947 87.756H74.8547V88.752H73.1027C72.5907 88.752 72.2467 88.836 72.0707 89.004C71.8947 89.164 71.8067 89.364 71.8067 89.604C71.8067 89.876 71.9147 90.092 72.1307 90.252C72.3467 90.412 72.6467 90.492 73.0307 90.492C73.3987 90.492 73.7267 90.408 74.0147 90.24C74.3107 90.072 74.5227 89.824 74.6507 89.496L74.9027 90.396C74.7587 90.772 74.4987 91.064 74.1227 91.272C73.7547 91.48 73.2867 91.584 72.7187 91.584ZM78.0758 91.5V82.596H79.5758V91.5H78.0758ZM83.5245 91.584C82.9885 91.584 82.4725 91.516 81.9765 91.38C81.4885 91.236 81.1005 91.064 80.8125 90.864L81.3885 89.724C81.6765 89.908 82.0205 90.06 82.4205 90.18C82.8205 90.3 83.2205 90.36 83.6205 90.36C84.0925 90.36 84.4325 90.296 84.6405 90.168C84.8565 90.04 84.9645 89.868 84.9645 89.652C84.9645 89.476 84.8925 89.344 84.7485 89.256C84.6045 89.16 84.4165 89.088 84.1845 89.04C83.9525 88.992 83.6925 88.948 83.4045 88.908C83.1245 88.868 82.8405 88.816 82.5525 88.752C82.2725 88.68 82.0165 88.58 81.7845 88.452C81.5525 88.316 81.3645 88.136 81.2205 87.912C81.0765 87.688 81.0045 87.392 81.0045 87.024C81.0045 86.616 81.1205 86.264 81.3525 85.968C81.5845 85.664 81.9085 85.432 82.3245 85.272C82.7485 85.104 83.2485 85.02 83.8245 85.02C84.2565 85.02 84.6925 85.068 85.1325 85.164C85.5725 85.26 85.9365 85.396 86.2245 85.572L85.6485 86.712C85.3445 86.528 85.0365 86.404 84.7245 86.34C84.4205 86.268 84.1165 86.232 83.8125 86.232C83.3565 86.232 83.0165 86.3 82.7925 86.436C82.5765 86.572 82.4685 86.744 82.4685 86.952C82.4685 87.144 82.5405 87.288 82.6845 87.384C82.8285 87.48 83.0165 87.556 83.2485 87.612C83.4805 87.668 83.7365 87.716 84.0165 87.756C84.3045 87.788 84.5885 87.84 84.8685 87.912C85.1485 87.984 85.4045 88.084 85.6365 88.212C85.8765 88.332 86.0685 88.504 86.2125 88.728C86.3565 88.952 86.4285 89.244 86.4285 89.604C86.4285 90.004 86.3085 90.352 86.0685 90.648C85.8365 90.944 85.5045 91.176 85.0725 91.344C84.6405 91.504 84.1245 91.584 83.5245 91.584Z" fill="black"/>
</g>
<defs>
<filter id="filter0_d_325_160" x="0.8" y="0.8" width="115.4" height="115.4" filterUnits="userSpaceOnUse" color-interpolation-filters="sRGB">
<feFlood flood-opacity="0" result="BackgroundImageFix"/>
<feColorMatrix in="SourceAlpha" type="matrix" values="0 0 0 0 0 0 0 0 0 0 0 0 0 0 0 0 0 0 127 0" result="hardAlpha"/>
<feOffset/>
<feGaussianBlur stdDeviation="4.1"/>
<feComposite in2="hardAlpha" operator="out"/>
<feColorMatrix type="matrix" values="0 0 0 0 0 0 0 0 0 0 0 0 0 0 0 0 0 0 0.15 0"/>
<feBlend mode="normal" in2="BackgroundImageFix" result="effect1_dropShadow_325_160"/>
<feBlend mode="normal" in="SourceGraphic" in2="effect1_dropShadow_325_160" result="shape"/>
</filter>
</defs>
</svg>
