<svg width="117" height="117" viewBox="0 0 117 117" fill="none" xmlns="http://www.w3.org/2000/svg">
<g filter="url(#filter0_d_325_170)">
<rect x="9" y="9" width="99" height="99" rx="8" fill="white" shape-rendering="crispEdges"/>
<path d="M67.0006 38.0003L70.334 36.0003L73.0006 40.667L71.462 44.0003M71.462 44.0003L69.0006 49.3337H62.778M71.462 44.0003H62.778M65.0006 52.667L61.0007 46.667L65.0006 40.667M56.0353 45.1963L56.102 49.083L50.726 49.059L48.6087 46.0603M48.6087 46.0603L45.2207 41.2617L48.3313 35.8737M48.6087 46.0603L52.9513 38.5403M48.3313 35.8737L44.334 36.131M48.3313 35.8737L51.5313 35.667L52.9513 38.5403M52.9513 38.5403L54.726 42.131M55.6673 31.3337L52.334 29.3337L55.6673 24.667H59.0007M59.0007 24.667H65.0006L67.7473 30.123M59.0007 24.667L63.0006 32.0603M59.0007 31.3337L66.334 32.667L69.6673 26.667" stroke="#CE3439" stroke-width="1.5"/>
<path d="M29.9522 78V69.6H33.4082C34.1522 69.6 34.7882 69.72 35.3162 69.96C35.8522 70.2 36.2642 70.544 36.5522 70.992C36.8402 71.44 36.9842 71.972 36.9842 72.588C36.9842 73.204 36.8402 73.736 36.5522 74.184C36.2642 74.624 35.8522 74.964 35.3162 75.204C34.7882 75.436 34.1522 75.552 33.4082 75.552H30.8162L31.5122 74.844V78H29.9522ZM35.4482 78L33.3242 74.952H34.9922L37.1282 78H35.4482ZM31.5122 75.012L30.8162 74.268H33.3362C34.0242 74.268 34.5402 74.12 34.8842 73.824C35.2362 73.528 35.4122 73.116 35.4122 72.588C35.4122 72.052 35.2362 71.64 34.8842 71.352C34.5402 71.064 34.0242 70.92 33.3362 70.92H30.8162L31.5122 70.152V75.012ZM41.5976 78.084C40.8856 78.084 40.2616 77.944 39.7256 77.664C39.1976 77.376 38.7856 76.984 38.4896 76.488C38.2016 75.992 38.0576 75.428 38.0576 74.796C38.0576 74.156 38.1976 73.592 38.4776 73.104C38.7656 72.608 39.1576 72.22 39.6536 71.94C40.1576 71.66 40.7296 71.52 41.3696 71.52C41.9936 71.52 42.5496 71.656 43.0376 71.928C43.5256 72.2 43.9096 72.584 44.1896 73.08C44.4696 73.576 44.6096 74.16 44.6096 74.832C44.6096 74.896 44.6056 74.968 44.5976 75.048C44.5976 75.128 44.5936 75.204 44.5856 75.276H39.2456V74.28H43.7936L43.2056 74.592C43.2136 74.224 43.1376 73.9 42.9776 73.62C42.8176 73.34 42.5976 73.12 42.3176 72.96C42.0456 72.8 41.7296 72.72 41.3696 72.72C41.0016 72.72 40.6776 72.8 40.3976 72.96C40.1256 73.12 39.9096 73.344 39.7496 73.632C39.5976 73.912 39.5216 74.244 39.5216 74.628V74.868C39.5216 75.252 39.6096 75.592 39.7856 75.888C39.9616 76.184 40.2096 76.412 40.5296 76.572C40.8496 76.732 41.2176 76.812 41.6336 76.812C41.9936 76.812 42.3176 76.756 42.6056 76.644C42.8936 76.532 43.1496 76.356 43.3736 76.116L44.1776 77.04C43.8896 77.376 43.5256 77.636 43.0856 77.82C42.6536 77.996 42.1576 78.084 41.5976 78.084ZM48.7624 78.084C48.2184 78.084 47.7384 77.984 47.3224 77.784C46.9064 77.576 46.5824 77.264 46.3504 76.848C46.1184 76.424 46.0024 75.892 46.0024 75.252V71.592H47.5024V75.048C47.5024 75.624 47.6304 76.056 47.8864 76.344C48.1504 76.624 48.5224 76.764 49.0024 76.764C49.3544 76.764 49.6584 76.692 49.9144 76.548C50.1784 76.404 50.3824 76.188 50.5264 75.9C50.6784 75.612 50.7544 75.256 50.7544 74.832V71.592H52.2544V78H50.8264V76.272L51.0784 76.8C50.8624 77.216 50.5464 77.536 50.1304 77.76C49.7144 77.976 49.2584 78.084 48.7624 78.084ZM56.1984 78.084C55.6624 78.084 55.1464 78.016 54.6504 77.88C54.1624 77.736 53.7744 77.564 53.4864 77.364L54.0624 76.224C54.3504 76.408 54.6944 76.56 55.0944 76.68C55.4944 76.8 55.8944 76.86 56.2944 76.86C56.7664 76.86 57.1064 76.796 57.3144 76.668C57.5304 76.54 57.6384 76.368 57.6384 76.152C57.6384 75.976 57.5664 75.844 57.4224 75.756C57.2784 75.66 57.0904 75.588 56.8584 75.54C56.6264 75.492 56.3664 75.448 56.0784 75.408C55.7984 75.368 55.5144 75.316 55.2264 75.252C54.9464 75.18 54.6904 75.08 54.4584 74.952C54.2264 74.816 54.0384 74.636 53.8944 74.412C53.7504 74.188 53.6784 73.892 53.6784 73.524C53.6784 73.116 53.7944 72.764 54.0264 72.468C54.2584 72.164 54.5824 71.932 54.9984 71.772C55.4224 71.604 55.9224 71.52 56.4984 71.52C56.9304 71.52 57.3664 71.568 57.8064 71.664C58.2464 71.76 58.6104 71.896 58.8984 72.072L58.3224 73.212C58.0184 73.028 57.7104 72.904 57.3984 72.84C57.0944 72.768 56.7904 72.732 56.4864 72.732C56.0304 72.732 55.6904 72.8 55.4664 72.936C55.2504 73.072 55.1424 73.244 55.1424 73.452C55.1424 73.644 55.2144 73.788 55.3584 73.884C55.5024 73.98 55.6904 74.056 55.9224 74.112C56.1544 74.168 56.4104 74.216 56.6904 74.256C56.9784 74.288 57.2624 74.34 57.5424 74.412C57.8224 74.484 58.0784 74.584 58.3104 74.712C58.5504 74.832 58.7424 75.004 58.8864 75.228C59.0304 75.452 59.1024 75.744 59.1024 76.104C59.1024 76.504 58.9824 76.852 58.7424 77.148C58.5104 77.444 58.1784 77.676 57.7464 77.844C57.3144 78.004 56.7984 78.084 56.1984 78.084ZM64.3422 78V76.704L64.2582 76.428V74.16C64.2582 73.72 64.1262 73.38 63.8622 73.14C63.5982 72.892 63.1982 72.768 62.6622 72.768C62.3022 72.768 61.9462 72.824 61.5942 72.936C61.2502 73.048 60.9582 73.204 60.7182 73.404L60.1302 72.312C60.4742 72.048 60.8822 71.852 61.3542 71.724C61.8342 71.588 62.3302 71.52 62.8422 71.52C63.7702 71.52 64.4862 71.744 64.9902 72.192C65.5022 72.632 65.7582 73.316 65.7582 74.244V78H64.3422ZM62.3262 78.084C61.8462 78.084 61.4262 78.004 61.0662 77.844C60.7062 77.676 60.4262 77.448 60.2262 77.16C60.0342 76.864 59.9382 76.532 59.9382 76.164C59.9382 75.804 60.0222 75.48 60.1902 75.192C60.3662 74.904 60.6502 74.676 61.0422 74.508C61.4342 74.34 61.9542 74.256 62.6022 74.256H64.4622V75.252H62.7102C62.1982 75.252 61.8542 75.336 61.6782 75.504C61.5022 75.664 61.4142 75.864 61.4142 76.104C61.4142 76.376 61.5222 76.592 61.7382 76.752C61.9542 76.912 62.2542 76.992 62.6382 76.992C63.0062 76.992 63.3342 76.908 63.6222 76.74C63.9182 76.572 64.1302 76.324 64.2582 75.996L64.5102 76.896C64.3662 77.272 64.1062 77.564 63.7302 77.772C63.3622 77.98 62.8942 78.084 62.3262 78.084ZM71.2352 78.084C70.6912 78.084 70.2072 77.964 69.7832 77.724C69.3592 77.484 69.0232 77.124 68.7752 76.644C68.5352 76.156 68.4152 75.54 68.4152 74.796C68.4152 74.044 68.5392 73.428 68.7872 72.948C69.0432 72.468 69.3832 72.112 69.8072 71.88C70.2392 71.64 70.7152 71.52 71.2352 71.52C71.8672 71.52 72.4232 71.656 72.9032 71.928C73.3912 72.2 73.7752 72.58 74.0552 73.068C74.3432 73.556 74.4872 74.132 74.4872 74.796C74.4872 75.46 74.3432 76.036 74.0552 76.524C73.7752 77.012 73.3912 77.396 72.9032 77.676C72.4232 77.948 71.8672 78.084 71.2352 78.084ZM67.6832 78V69.096H69.1832V73.08L69.0632 74.784L69.1112 76.488V78H67.6832ZM71.0672 76.8C71.4272 76.8 71.7472 76.72 72.0272 76.56C72.3152 76.4 72.5432 76.168 72.7112 75.864C72.8792 75.56 72.9632 75.204 72.9632 74.796C72.9632 74.38 72.8792 74.024 72.7112 73.728C72.5432 73.424 72.3152 73.192 72.0272 73.032C71.7472 72.872 71.4272 72.792 71.0672 72.792C70.7072 72.792 70.3832 72.872 70.0952 73.032C69.8072 73.192 69.5792 73.424 69.4112 73.728C69.2432 74.024 69.1592 74.38 69.1592 74.796C69.1592 75.204 69.2432 75.56 69.4112 75.864C69.5792 76.168 69.8072 76.4 70.0952 76.56C70.3832 76.72 70.7072 76.8 71.0672 76.8ZM75.9098 78V69.096H77.4098V78H75.9098ZM82.3905 78.084C81.6785 78.084 81.0545 77.944 80.5185 77.664C79.9905 77.376 79.5785 76.984 79.2825 76.488C78.9945 75.992 78.8505 75.428 78.8505 74.796C78.8505 74.156 78.9905 73.592 79.2705 73.104C79.5585 72.608 79.9505 72.22 80.4465 71.94C80.9505 71.66 81.5225 71.52 82.1625 71.52C82.7865 71.52 83.3425 71.656 83.8305 71.928C84.3185 72.2 84.7025 72.584 84.9825 73.08C85.2625 73.576 85.4025 74.16 85.4025 74.832C85.4025 74.896 85.3985 74.968 85.3905 75.048C85.3905 75.128 85.3865 75.204 85.3785 75.276H80.0385V74.28H84.5865L83.9985 74.592C84.0065 74.224 83.9305 73.9 83.7705 73.62C83.6105 73.34 83.3905 73.12 83.1105 72.96C82.8385 72.8 82.5225 72.72 82.1625 72.72C81.7945 72.72 81.4705 72.8 81.1905 72.96C80.9185 73.12 80.7025 73.344 80.5425 73.632C80.3905 73.912 80.3145 74.244 80.3145 74.628V74.868C80.3145 75.252 80.4025 75.592 80.5785 75.888C80.7545 76.184 81.0025 76.412 81.3225 76.572C81.6425 76.732 82.0105 76.812 82.4265 76.812C82.7865 76.812 83.1105 76.756 83.3985 76.644C83.6865 76.532 83.9425 76.356 84.1665 76.116L84.9705 77.04C84.6825 77.376 84.3185 77.636 83.8785 77.82C83.4465 77.996 82.9505 78.084 82.3905 78.084ZM11.192 93L14.972 84.6H16.508L20.3 93H18.668L15.416 85.428H16.04L12.8 93H11.192ZM12.932 91.056L13.352 89.832H17.888L18.308 91.056H12.932ZM24.8602 86.52C25.3722 86.52 25.8282 86.62 26.2282 86.82C26.6362 87.02 26.9562 87.328 27.1882 87.744C27.4202 88.152 27.5362 88.68 27.5362 89.328V93H26.0362V89.52C26.0362 88.952 25.9002 88.528 25.6282 88.248C25.3642 87.968 24.9922 87.828 24.5122 87.828C24.1602 87.828 23.8482 87.9 23.5762 88.044C23.3042 88.188 23.0922 88.404 22.9402 88.692C22.7962 88.972 22.7242 89.328 22.7242 89.76V93H21.2242V86.592H22.6522V88.32L22.4002 87.792C22.6242 87.384 22.9482 87.072 23.3722 86.856C23.8042 86.632 24.3002 86.52 24.8602 86.52ZM32.1628 93.084C31.5468 93.084 30.9908 92.948 30.4948 92.676C30.0068 92.396 29.6228 92.012 29.3428 91.524C29.0628 91.036 28.9228 90.46 28.9228 89.796C28.9228 89.132 29.0628 88.556 29.3428 88.068C29.6228 87.58 30.0068 87.2 30.4948 86.928C30.9908 86.656 31.5468 86.52 32.1628 86.52C32.6988 86.52 33.1788 86.64 33.6028 86.88C34.0268 87.112 34.3628 87.468 34.6108 87.948C34.8588 88.428 34.9828 89.044 34.9828 89.796C34.9828 90.54 34.8628 91.156 34.6228 91.644C34.3828 92.124 34.0508 92.484 33.6268 92.724C33.2028 92.964 32.7148 93.084 32.1628 93.084ZM32.3428 91.8C32.7028 91.8 33.0228 91.72 33.3028 91.56C33.5908 91.4 33.8188 91.168 33.9868 90.864C34.1628 90.56 34.2508 90.204 34.2508 89.796C34.2508 89.38 34.1628 89.024 33.9868 88.728C33.8188 88.424 33.5908 88.192 33.3028 88.032C33.0228 87.872 32.7028 87.792 32.3428 87.792C31.9828 87.792 31.6588 87.872 31.3708 88.032C31.0908 88.192 30.8628 88.424 30.6868 88.728C30.5188 89.024 30.4348 89.38 30.4348 89.796C30.4348 90.204 30.5188 90.56 30.6868 90.864C30.8628 91.168 31.0908 91.4 31.3708 91.56C31.6588 91.72 31.9828 91.8 32.3428 91.8ZM34.2868 93V91.488L34.3468 89.784L34.2268 88.08V84.096H35.7148V93H34.2868ZM41.1495 93V84.6H44.6055C45.3495 84.6 45.9855 84.72 46.5135 84.96C47.0495 85.2 47.4615 85.544 47.7495 85.992C48.0375 86.44 48.1815 86.972 48.1815 87.588C48.1815 88.204 48.0375 88.736 47.7495 89.184C47.4615 89.624 47.0495 89.964 46.5135 90.204C45.9855 90.436 45.3495 90.552 44.6055 90.552H42.0135L42.7095 89.844V93H41.1495ZM46.6455 93L44.5215 89.952H46.1895L48.3255 93H46.6455ZM42.7095 90.012L42.0135 89.268H44.5335C45.2215 89.268 45.7375 89.12 46.0815 88.824C46.4335 88.528 46.6095 88.116 46.6095 87.588C46.6095 87.052 46.4335 86.64 46.0815 86.352C45.7375 86.064 45.2215 85.92 44.5335 85.92H42.0135L42.7095 85.152V90.012ZM52.7948 93.084C52.0828 93.084 51.4588 92.944 50.9228 92.664C50.3948 92.376 49.9828 91.984 49.6868 91.488C49.3988 90.992 49.2548 90.428 49.2548 89.796C49.2548 89.156 49.3948 88.592 49.6748 88.104C49.9628 87.608 50.3548 87.22 50.8508 86.94C51.3548 86.66 51.9268 86.52 52.5668 86.52C53.1908 86.52 53.7468 86.656 54.2348 86.928C54.7228 87.2 55.1068 87.584 55.3868 88.08C55.6668 88.576 55.8068 89.16 55.8068 89.832C55.8068 89.896 55.8028 89.968 55.7948 90.048C55.7948 90.128 55.7908 90.204 55.7828 90.276H50.4428V89.28H54.9908L54.4028 89.592C54.4108 89.224 54.3348 88.9 54.1748 88.62C54.0148 88.34 53.7948 88.12 53.5148 87.96C53.2428 87.8 52.9268 87.72 52.5668 87.72C52.1988 87.72 51.8748 87.8 51.5948 87.96C51.3228 88.12 51.1068 88.344 50.9468 88.632C50.7948 88.912 50.7188 89.244 50.7188 89.628V89.868C50.7188 90.252 50.8068 90.592 50.9828 90.888C51.1588 91.184 51.4068 91.412 51.7268 91.572C52.0468 91.732 52.4148 91.812 52.8308 91.812C53.1908 91.812 53.5148 91.756 53.8028 91.644C54.0908 91.532 54.3468 91.356 54.5708 91.116L55.3748 92.04C55.0868 92.376 54.7228 92.636 54.2828 92.82C53.8508 92.996 53.3548 93.084 52.7948 93.084ZM60.1877 93.084C59.5157 93.084 58.9157 92.944 58.3877 92.664C57.8677 92.376 57.4597 91.984 57.1637 91.488C56.8677 90.992 56.7197 90.428 56.7197 89.796C56.7197 89.156 56.8677 88.592 57.1637 88.104C57.4597 87.608 57.8677 87.22 58.3877 86.94C58.9157 86.66 59.5157 86.52 60.1877 86.52C60.8117 86.52 61.3597 86.648 61.8317 86.904C62.3117 87.152 62.6757 87.52 62.9237 88.008L61.7717 88.68C61.5797 88.376 61.3437 88.152 61.0637 88.008C60.7917 87.864 60.4957 87.792 60.1757 87.792C59.8077 87.792 59.4757 87.872 59.1797 88.032C58.8837 88.192 58.6517 88.424 58.4837 88.728C58.3157 89.024 58.2317 89.38 58.2317 89.796C58.2317 90.212 58.3157 90.572 58.4837 90.876C58.6517 91.172 58.8837 91.4 59.1797 91.56C59.4757 91.72 59.8077 91.8 60.1757 91.8C60.4957 91.8 60.7917 91.728 61.0637 91.584C61.3437 91.44 61.5797 91.216 61.7717 90.912L62.9237 91.584C62.6757 92.064 62.3117 92.436 61.8317 92.7C61.3597 92.956 60.8117 93.084 60.1877 93.084ZM64.6663 95.412C64.3543 95.412 64.0423 95.36 63.7303 95.256C63.4183 95.152 63.1583 95.008 62.9503 94.824L63.5503 93.72C63.7023 93.856 63.8743 93.964 64.0663 94.044C64.2583 94.124 64.4543 94.164 64.6543 94.164C64.9263 94.164 65.1463 94.096 65.3143 93.96C65.4823 93.824 65.6383 93.596 65.7823 93.276L66.1543 92.436L66.2743 92.256L68.6983 86.592H70.1383L67.1383 93.516C66.9383 93.996 66.7143 94.376 66.4663 94.656C66.2263 94.936 65.9543 95.132 65.6503 95.244C65.3543 95.356 65.0263 95.412 64.6663 95.412ZM65.9863 93.228L63.0943 86.592H64.6543L67.0063 92.124L65.9863 93.228ZM73.84 93.084C73.168 93.084 72.568 92.944 72.04 92.664C71.52 92.376 71.112 91.984 70.816 91.488C70.52 90.992 70.372 90.428 70.372 89.796C70.372 89.156 70.52 88.592 70.816 88.104C71.112 87.608 71.52 87.22 72.04 86.94C72.568 86.66 73.168 86.52 73.84 86.52C74.464 86.52 75.012 86.648 75.484 86.904C75.964 87.152 76.328 87.52 76.576 88.008L75.424 88.68C75.232 88.376 74.996 88.152 74.716 88.008C74.444 87.864 74.148 87.792 73.828 87.792C73.46 87.792 73.128 87.872 72.832 88.032C72.536 88.192 72.304 88.424 72.136 88.728C71.968 89.024 71.884 89.38 71.884 89.796C71.884 90.212 71.968 90.572 72.136 90.876C72.304 91.172 72.536 91.4 72.832 91.56C73.128 91.72 73.46 91.8 73.828 91.8C74.148 91.8 74.444 91.728 74.716 91.584C74.996 91.44 75.232 91.216 75.424 90.912L76.576 91.584C76.328 92.064 75.964 92.436 75.484 92.7C75.012 92.956 74.464 93.084 73.84 93.084ZM77.8141 93V84.096H79.3141V93H77.8141ZM85.2308 93V91.704L85.1468 91.428V89.16C85.1468 88.72 85.0148 88.38 84.7508 88.14C84.4868 87.892 84.0868 87.768 83.5508 87.768C83.1908 87.768 82.8348 87.824 82.4828 87.936C82.1388 88.048 81.8468 88.204 81.6068 88.404L81.0188 87.312C81.3628 87.048 81.7708 86.852 82.2428 86.724C82.7228 86.588 83.2188 86.52 83.7308 86.52C84.6588 86.52 85.3748 86.744 85.8788 87.192C86.3908 87.632 86.6468 88.316 86.6468 89.244V93H85.2308ZM83.2148 93.084C82.7348 93.084 82.3148 93.004 81.9548 92.844C81.5948 92.676 81.3148 92.448 81.1148 92.16C80.9228 91.864 80.8268 91.532 80.8268 91.164C80.8268 90.804 80.9108 90.48 81.0788 90.192C81.2548 89.904 81.5388 89.676 81.9308 89.508C82.3228 89.34 82.8428 89.256 83.4908 89.256H85.3508V90.252H83.5988C83.0868 90.252 82.7428 90.336 82.5668 90.504C82.3908 90.664 82.3028 90.864 82.3028 91.104C82.3028 91.376 82.4108 91.592 82.6268 91.752C82.8428 91.912 83.1428 91.992 83.5268 91.992C83.8948 91.992 84.2228 91.908 84.5108 91.74C84.8068 91.572 85.0188 91.324 85.1468 90.996L85.3988 91.896C85.2548 92.272 84.9948 92.564 84.6188 92.772C84.2508 92.98 83.7828 93.084 83.2148 93.084ZM92.1239 93.084C91.5799 93.084 91.0959 92.964 90.6719 92.724C90.2479 92.484 89.9119 92.124 89.6639 91.644C89.4239 91.156 89.3039 90.54 89.3039 89.796C89.3039 89.044 89.4279 88.428 89.6759 87.948C89.9319 87.468 90.2719 87.112 90.6959 86.88C91.1279 86.64 91.6039 86.52 92.1239 86.52C92.7559 86.52 93.3119 86.656 93.7919 86.928C94.2799 87.2 94.6639 87.58 94.9439 88.068C95.2319 88.556 95.3759 89.132 95.3759 89.796C95.3759 90.46 95.2319 91.036 94.9439 91.524C94.6639 92.012 94.2799 92.396 93.7919 92.676C93.3119 92.948 92.7559 93.084 92.1239 93.084ZM88.5719 93V84.096H90.0719V88.08L89.9519 89.784L89.9999 91.488V93H88.5719ZM91.9559 91.8C92.3159 91.8 92.6359 91.72 92.9159 91.56C93.2039 91.4 93.4319 91.168 93.5999 90.864C93.7679 90.56 93.8519 90.204 93.8519 89.796C93.8519 89.38 93.7679 89.024 93.5999 88.728C93.4319 88.424 93.2039 88.192 92.9159 88.032C92.6359 87.872 92.3159 87.792 91.9559 87.792C91.5959 87.792 91.2719 87.872 90.9839 88.032C90.6959 88.192 90.4679 88.424 90.2999 88.728C90.1319 89.024 90.0479 89.38 90.0479 89.796C90.0479 90.204 90.1319 90.56 90.2999 90.864C90.4679 91.168 90.6959 91.4 90.9839 91.56C91.2719 91.72 91.5959 91.8 91.9559 91.8ZM96.7985 93V84.096H98.2985V93H96.7985ZM103.279 93.084C102.567 93.084 101.943 92.944 101.407 92.664C100.879 92.376 100.467 91.984 100.171 91.488C99.8832 90.992 99.7392 90.428 99.7392 89.796C99.7392 89.156 99.8792 88.592 100.159 88.104C100.447 87.608 100.839 87.22 101.335 86.94C101.839 86.66 102.411 86.52 103.051 86.52C103.675 86.52 104.231 86.656 104.719 86.928C105.207 87.2 105.591 87.584 105.871 88.08C106.151 88.576 106.291 89.16 106.291 89.832C106.291 89.896 106.287 89.968 106.279 90.048C106.279 90.128 106.275 90.204 106.267 90.276H100.927V89.28H105.475L104.887 89.592C104.895 89.224 104.819 88.9 104.659 88.62C104.499 88.34 104.279 88.12 103.999 87.96C103.727 87.8 103.411 87.72 103.051 87.72C102.683 87.72 102.359 87.8 102.079 87.96C101.807 88.12 101.591 88.344 101.431 88.632C101.279 88.912 101.203 89.244 101.203 89.628V89.868C101.203 90.252 101.291 90.592 101.467 90.888C101.643 91.184 101.891 91.412 102.211 91.572C102.531 91.732 102.899 91.812 103.315 91.812C103.675 91.812 103.999 91.756 104.287 91.644C104.575 91.532 104.831 91.356 105.055 91.116L105.859 92.04C105.571 92.376 105.207 92.636 104.767 92.82C104.335 92.996 103.839 93.084 103.279 93.084Z" fill="black"/>
</g>
<defs>
<filter id="filter0_d_325_170" x="0.8" y="0.8" width="115.4" height="115.4" filterUnits="userSpaceOnUse" color-interpolation-filters="sRGB">
<feFlood flood-opacity="0" result="BackgroundImageFix"/>
<feColorMatrix in="SourceAlpha" type="matrix" values="0 0 0 0 0 0 0 0 0 0 0 0 0 0 0 0 0 0 127 0" result="hardAlpha"/>
<feOffset/>
<feGaussianBlur stdDeviation="4.1"/>
<feComposite in2="hardAlpha" operator="out"/>
<feColorMatrix type="matrix" values="0 0 0 0 0 0 0 0 0 0 0 0 0 0 0 0 0 0 0.15 0"/>
<feBlend mode="normal" in2="BackgroundImageFix" result="effect1_dropShadow_325_170"/>
<feBlend mode="normal" in="SourceGraphic" in2="effect1_dropShadow_325_170" result="shape"/>
</filter>
</defs>
</svg>
