<svg width="117" height="117" viewBox="0 0 117 117" fill="none" xmlns="http://www.w3.org/2000/svg">
<g filter="url(#filter0_d_325_120)">
<rect x="9" y="9" width="99" height="99" rx="8" fill="white" shape-rendering="crispEdges"/>
<mask id="mask0_325_120" style="mask-type:alpha" maskUnits="userSpaceOnUse" x="40" y="27" width="37" height="36">
<rect x="40.5" y="27" width="36" height="36" fill="#D9D9D9"/>
</mask>
<g mask="url(#mask0_325_120)">
<path d="M56.925 50.325L65.4 41.85L63.2625 39.7125L56.925 46.05L53.775 42.9L51.6375 45.0375L56.925 50.325ZM58.5 60C55.025 59.125 52.1563 57.1313 49.8938 54.0188C47.6313 50.9063 46.5 47.45 46.5 43.65V34.5L58.5 30L70.5 34.5V43.65C70.5 47.45 69.3688 50.9063 67.1063 54.0188C64.8438 57.1313 61.975 59.125 58.5 60ZM58.5 56.85C61.1 56.025 63.25 54.375 64.95 51.9C66.65 49.425 67.5 46.675 67.5 43.65V36.5625L58.5 33.1875L49.5 36.5625V43.65C49.5 46.675 50.35 49.425 52.05 51.9C53.75 54.375 55.9 56.025 58.5 56.85Z" fill="#CE3439"/>
</g>
<path d="M39.232 87.12C38.576 87.12 37.948 87.028 37.348 86.844C36.748 86.652 36.272 86.408 35.92 86.112L36.46 84.9C36.796 85.164 37.212 85.384 37.708 85.56C38.204 85.736 38.712 85.824 39.232 85.824C39.672 85.824 40.028 85.776 40.3 85.68C40.572 85.584 40.772 85.456 40.9 85.296C41.028 85.128 41.092 84.94 41.092 84.732C41.092 84.476 41 84.272 40.816 84.12C40.632 83.96 40.392 83.836 40.096 83.748C39.808 83.652 39.484 83.564 39.124 83.484C38.772 83.404 38.416 83.312 38.056 83.208C37.704 83.096 37.38 82.956 37.084 82.788C36.796 82.612 36.56 82.38 36.376 82.092C36.192 81.804 36.1 81.436 36.1 80.988C36.1 80.532 36.22 80.116 36.46 79.74C36.708 79.356 37.08 79.052 37.576 78.828C38.08 78.596 38.716 78.48 39.484 78.48C39.988 78.48 40.488 78.544 40.984 78.672C41.48 78.8 41.912 78.984 42.28 79.224L41.788 80.436C41.412 80.212 41.024 80.048 40.624 79.944C40.224 79.832 39.84 79.776 39.472 79.776C39.04 79.776 38.688 79.828 38.416 79.932C38.152 80.036 37.956 80.172 37.828 80.34C37.708 80.508 37.648 80.7 37.648 80.916C37.648 81.172 37.736 81.38 37.912 81.54C38.096 81.692 38.332 81.812 38.62 81.9C38.916 81.988 39.244 82.076 39.604 82.164C39.964 82.244 40.32 82.336 40.672 82.44C41.032 82.544 41.356 82.68 41.644 82.848C41.94 83.016 42.176 83.244 42.352 83.532C42.536 83.82 42.628 84.184 42.628 84.624C42.628 85.072 42.504 85.488 42.256 85.872C42.016 86.248 41.644 86.552 41.14 86.784C40.636 87.008 40 87.12 39.232 87.12ZM47.0429 87.084C46.3309 87.084 45.7069 86.944 45.1709 86.664C44.6429 86.376 44.2309 85.984 43.9349 85.488C43.6469 84.992 43.5029 84.428 43.5029 83.796C43.5029 83.156 43.6429 82.592 43.9229 82.104C44.2109 81.608 44.6029 81.22 45.0989 80.94C45.6029 80.66 46.1749 80.52 46.8149 80.52C47.4389 80.52 47.9949 80.656 48.4829 80.928C48.9709 81.2 49.3549 81.584 49.6349 82.08C49.9149 82.576 50.0549 83.16 50.0549 83.832C50.0549 83.896 50.0509 83.968 50.0429 84.048C50.0429 84.128 50.0389 84.204 50.0309 84.276H44.6909V83.28H49.2389L48.6509 83.592C48.6589 83.224 48.5829 82.9 48.4229 82.62C48.2629 82.34 48.0429 82.12 47.7629 81.96C47.4909 81.8 47.1749 81.72 46.8149 81.72C46.4469 81.72 46.1229 81.8 45.8429 81.96C45.5709 82.12 45.3549 82.344 45.1949 82.632C45.0429 82.912 44.9669 83.244 44.9669 83.628V83.868C44.9669 84.252 45.0549 84.592 45.2309 84.888C45.4069 85.184 45.6549 85.412 45.9749 85.572C46.2949 85.732 46.6629 85.812 47.0789 85.812C47.4389 85.812 47.7629 85.756 48.0509 85.644C48.3389 85.532 48.5949 85.356 48.8189 85.116L49.6229 86.04C49.3349 86.376 48.9709 86.636 48.5309 86.82C48.0989 86.996 47.6029 87.084 47.0429 87.084ZM54.4357 87.084C53.7637 87.084 53.1637 86.944 52.6357 86.664C52.1157 86.376 51.7077 85.984 51.4117 85.488C51.1157 84.992 50.9677 84.428 50.9677 83.796C50.9677 83.156 51.1157 82.592 51.4117 82.104C51.7077 81.608 52.1157 81.22 52.6357 80.94C53.1637 80.66 53.7637 80.52 54.4357 80.52C55.0597 80.52 55.6077 80.648 56.0797 80.904C56.5597 81.152 56.9237 81.52 57.1717 82.008L56.0197 82.68C55.8277 82.376 55.5917 82.152 55.3117 82.008C55.0397 81.864 54.7437 81.792 54.4237 81.792C54.0557 81.792 53.7237 81.872 53.4277 82.032C53.1317 82.192 52.8997 82.424 52.7317 82.728C52.5637 83.024 52.4797 83.38 52.4797 83.796C52.4797 84.212 52.5637 84.572 52.7317 84.876C52.8997 85.172 53.1317 85.4 53.4277 85.56C53.7237 85.72 54.0557 85.8 54.4237 85.8C54.7437 85.8 55.0397 85.728 55.3117 85.584C55.5917 85.44 55.8277 85.216 56.0197 84.912L57.1717 85.584C56.9237 86.064 56.5597 86.436 56.0797 86.7C55.6077 86.956 55.0597 87.084 54.4357 87.084ZM61.1804 87.084C60.6364 87.084 60.1564 86.984 59.7404 86.784C59.3244 86.576 59.0004 86.264 58.7684 85.848C58.5364 85.424 58.4204 84.892 58.4204 84.252V80.592H59.9204V84.048C59.9204 84.624 60.0484 85.056 60.3044 85.344C60.5684 85.624 60.9404 85.764 61.4204 85.764C61.7724 85.764 62.0764 85.692 62.3324 85.548C62.5964 85.404 62.8004 85.188 62.9444 84.9C63.0964 84.612 63.1724 84.256 63.1724 83.832V80.592H64.6724V87H63.2444V85.272L63.4964 85.8C63.2804 86.216 62.9644 86.536 62.5484 86.76C62.1324 86.976 61.6764 87.084 61.1804 87.084ZM66.6363 87V80.592H68.0643V82.356L67.8963 81.84C68.0883 81.408 68.3883 81.08 68.7963 80.856C69.2123 80.632 69.7283 80.52 70.3443 80.52V81.948C70.2803 81.932 70.2203 81.924 70.1643 81.924C70.1083 81.916 70.0523 81.912 69.9963 81.912C69.4283 81.912 68.9763 82.08 68.6403 82.416C68.3043 82.744 68.1363 83.236 68.1363 83.892V87H66.6363ZM74.5702 87.084C73.8582 87.084 73.2342 86.944 72.6982 86.664C72.1702 86.376 71.7582 85.984 71.4622 85.488C71.1742 84.992 71.0302 84.428 71.0302 83.796C71.0302 83.156 71.1702 82.592 71.4502 82.104C71.7382 81.608 72.1302 81.22 72.6262 80.94C73.1302 80.66 73.7022 80.52 74.3422 80.52C74.9662 80.52 75.5222 80.656 76.0102 80.928C76.4982 81.2 76.8822 81.584 77.1622 82.08C77.4422 82.576 77.5822 83.16 77.5822 83.832C77.5822 83.896 77.5782 83.968 77.5702 84.048C77.5702 84.128 77.5662 84.204 77.5582 84.276H72.2182V83.28H76.7662L76.1782 83.592C76.1862 83.224 76.1102 82.9 75.9502 82.62C75.7902 82.34 75.5702 82.12 75.2902 81.96C75.0182 81.8 74.7022 81.72 74.3422 81.72C73.9742 81.72 73.6502 81.8 73.3702 81.96C73.0982 82.12 72.8822 82.344 72.7222 82.632C72.5702 82.912 72.4942 83.244 72.4942 83.628V83.868C72.4942 84.252 72.5822 84.592 72.7582 84.888C72.9342 85.184 73.1822 85.412 73.5022 85.572C73.8222 85.732 74.1902 85.812 74.6062 85.812C74.9662 85.812 75.2902 85.756 75.5782 85.644C75.8662 85.532 76.1222 85.356 76.3462 85.116L77.1502 86.04C76.8622 86.376 76.4982 86.636 76.0582 86.82C75.6262 86.996 75.1302 87.084 74.5702 87.084Z" fill="black"/>
</g>
<defs>
<filter id="filter0_d_325_120" x="0.8" y="0.8" width="115.4" height="115.4" filterUnits="userSpaceOnUse" color-interpolation-filters="sRGB">
<feFlood flood-opacity="0" result="BackgroundImageFix"/>
<feColorMatrix in="SourceAlpha" type="matrix" values="0 0 0 0 0 0 0 0 0 0 0 0 0 0 0 0 0 0 127 0" result="hardAlpha"/>
<feOffset/>
<feGaussianBlur stdDeviation="4.1"/>
<feComposite in2="hardAlpha" operator="out"/>
<feColorMatrix type="matrix" values="0 0 0 0 0 0 0 0 0 0 0 0 0 0 0 0 0 0 0.15 0"/>
<feBlend mode="normal" in2="BackgroundImageFix" result="effect1_dropShadow_325_120"/>
<feBlend mode="normal" in="SourceGraphic" in2="effect1_dropShadow_325_120" result="shape"/>
</filter>
</defs>
</svg>
