<svg width="189" height="21" viewBox="0 0 189 21" fill="none" xmlns="http://www.w3.org/2000/svg">
<g filter="url(#filter0_d_325_119)">
<path d="M6.472 15.16L6.256 10.672L14.296 2.2H18.616L11.368 10L9.208 12.304L6.472 15.16ZM2.992 19V2.2H6.856V19H2.992ZM14.488 19L8.512 11.68L11.056 8.92L19.024 19H14.488ZM24.3336 8.968H32.4216V11.992H24.3336V8.968ZM24.6216 15.88H33.7656V19H20.7576V2.2H33.4536V5.32H24.6216V15.88ZM40.8711 19V12.136L41.7591 14.488L34.3671 2.2H38.4951L44.1591 11.632H41.7831L47.4711 2.2H51.2871L43.8951 14.488L44.7591 12.136V19H40.8711ZM63.3108 9.76H71.3748V12.88H63.3108V9.76ZM63.5988 19H59.7108V2.2H72.4068V5.32H63.5988V19ZM78.6149 8.968H86.7029V11.992H78.6149V8.968ZM78.9029 15.88H88.0469V19H75.0389V2.2H87.7349V5.32H78.9029V15.88ZM88.9324 19L96.4204 2.2H100.26L107.772 19H103.692L97.5484 4.168H99.0844L92.9164 19H88.9324ZM92.6764 15.4L93.7084 12.448H102.348L103.404 15.4H92.6764ZM112.152 19V5.368H106.776V2.2H121.416V5.368H116.04V19H112.152ZM130.69 19.288C128.306 19.288 126.442 18.624 125.098 17.296C123.754 15.968 123.082 14.072 123.082 11.608V2.2H126.97V11.464C126.97 13.064 127.298 14.216 127.954 14.92C128.61 15.624 129.53 15.976 130.714 15.976C131.898 15.976 132.818 15.624 133.474 14.92C134.13 14.216 134.458 13.064 134.458 11.464V2.2H138.298V11.608C138.298 14.072 137.626 15.968 136.282 17.296C134.938 18.624 133.074 19.288 130.69 19.288ZM142.14 19V2.2H149.412C150.916 2.2 152.212 2.448 153.3 2.944C154.388 3.424 155.228 4.12 155.82 5.032C156.412 5.944 156.708 7.032 156.708 8.296C156.708 9.544 156.412 10.624 155.82 11.536C155.228 12.432 154.388 13.12 153.3 13.6C152.212 14.08 150.916 14.32 149.412 14.32H144.3L146.028 12.616V19H142.14ZM152.82 19L148.62 12.904H152.772L157.02 19H152.82ZM146.028 13.048L144.3 11.224H149.196C150.396 11.224 151.292 10.968 151.884 10.456C152.476 9.928 152.772 9.208 152.772 8.296C152.772 7.368 152.476 6.648 151.884 6.136C151.292 5.624 150.396 5.368 149.196 5.368H144.3L146.028 3.52V13.048ZM163.365 8.968H171.453V11.992H163.365V8.968ZM163.653 15.88H172.797V19H159.789V2.2H172.485V5.32H163.653V15.88ZM181.41 19.288C180.066 19.288 178.778 19.112 177.546 18.76C176.314 18.392 175.322 17.92 174.57 17.344L175.89 14.416C176.61 14.928 177.458 15.352 178.434 15.688C179.426 16.008 180.426 16.168 181.434 16.168C182.202 16.168 182.818 16.096 183.282 15.952C183.762 15.792 184.114 15.576 184.338 15.304C184.562 15.032 184.674 14.72 184.674 14.368C184.674 13.92 184.498 13.568 184.146 13.312C183.794 13.04 183.33 12.824 182.754 12.664C182.178 12.488 181.538 12.328 180.834 12.184C180.146 12.024 179.45 11.832 178.746 11.608C178.058 11.384 177.426 11.096 176.85 10.744C176.274 10.392 175.802 9.928 175.434 9.352C175.082 8.776 174.906 8.04 174.906 7.144C174.906 6.184 175.162 5.312 175.674 4.528C176.202 3.728 176.986 3.096 178.026 2.632C179.082 2.152 180.402 1.912 181.986 1.912C183.042 1.912 184.082 2.04 185.106 2.296C186.13 2.536 187.034 2.904 187.818 3.4L186.618 6.352C185.834 5.904 185.05 5.576 184.266 5.368C183.482 5.144 182.714 5.032 181.962 5.032C181.21 5.032 180.594 5.12 180.114 5.296C179.634 5.472 179.29 5.704 179.082 5.992C178.874 6.264 178.77 6.584 178.77 6.952C178.77 7.384 178.946 7.736 179.298 8.008C179.65 8.264 180.114 8.472 180.69 8.632C181.266 8.792 181.898 8.952 182.586 9.112C183.29 9.272 183.986 9.456 184.674 9.664C185.378 9.872 186.018 10.152 186.594 10.504C187.17 10.856 187.634 11.32 187.986 11.896C188.354 12.472 188.538 13.2 188.538 14.08C188.538 15.024 188.274 15.888 187.746 16.672C187.218 17.456 186.426 18.088 185.37 18.568C184.33 19.048 183.01 19.288 181.41 19.288Z" fill="black"/>
</g>
<defs>
<filter id="filter0_d_325_119" x="0.892187" y="0.812109" width="187.747" height="19.576" filterUnits="userSpaceOnUse" color-interpolation-filters="sRGB">
<feFlood flood-opacity="0" result="BackgroundImageFix"/>
<feColorMatrix in="SourceAlpha" type="matrix" values="0 0 0 0 0 0 0 0 0 0 0 0 0 0 0 0 0 0 127 0" result="hardAlpha"/>
<feOffset dx="-1"/>
<feGaussianBlur stdDeviation="0.55"/>
<feComposite in2="hardAlpha" operator="out"/>
<feColorMatrix type="matrix" values="0 0 0 0 0 0 0 0 0 0 0 0 0 0 0 0 0 0 0.22 0"/>
<feBlend mode="normal" in2="BackgroundImageFix" result="effect1_dropShadow_325_119"/>
<feBlend mode="normal" in="SourceGraphic" in2="effect1_dropShadow_325_119" result="shape"/>
</filter>
</defs>
</svg>
