<svg width="253" height="42" viewBox="0 0 253 42" fill="none" xmlns="http://www.w3.org/2000/svg">
<path d="M211.5 0H-7V42H253L211.5 0Z" fill="url(#paint0_linear_325_230)"/>
<g filter="url(#filter0_d_325_230)">
<path d="M30.152 29.288C28.824 29.288 27.592 29.072 26.456 28.64C25.336 28.208 24.36 27.6 23.528 26.816C22.712 26.032 22.072 25.112 21.608 24.056C21.16 23 20.936 21.848 20.936 20.6C20.936 19.352 21.16 18.2 21.608 17.144C22.072 16.088 22.72 15.168 23.552 14.384C24.384 13.6 25.36 12.992 26.48 12.56C27.6 12.128 28.816 11.912 30.128 11.912C31.456 11.912 32.672 12.128 33.776 12.56C34.896 12.992 35.864 13.6 36.68 14.384C37.512 15.168 38.16 16.088 38.624 17.144C39.088 18.184 39.32 19.336 39.32 20.6C39.32 21.848 39.088 23.008 38.624 24.08C38.16 25.136 37.512 26.056 36.68 26.84C35.864 27.608 34.896 28.208 33.776 28.64C32.672 29.072 31.464 29.288 30.152 29.288ZM30.128 25.976C30.88 25.976 31.568 25.848 32.192 25.592C32.832 25.336 33.392 24.968 33.872 24.488C34.352 24.008 34.72 23.44 34.976 22.784C35.248 22.128 35.384 21.4 35.384 20.6C35.384 19.8 35.248 19.072 34.976 18.416C34.72 17.76 34.352 17.192 33.872 16.712C33.408 16.232 32.856 15.864 32.216 15.608C31.576 15.352 30.88 15.224 30.128 15.224C29.376 15.224 28.68 15.352 28.04 15.608C27.416 15.864 26.864 16.232 26.384 16.712C25.904 17.192 25.528 17.76 25.256 18.416C25 19.072 24.872 19.8 24.872 20.6C24.872 21.384 25 22.112 25.256 22.784C25.528 23.44 25.896 24.008 26.36 24.488C26.84 24.968 27.4 25.336 28.04 25.592C28.68 25.848 29.376 25.976 30.128 25.976ZM49.706 29.288C47.322 29.288 45.458 28.624 44.114 27.296C42.77 25.968 42.098 24.072 42.098 21.608V12.2H45.986V21.464C45.986 23.064 46.314 24.216 46.97 24.92C47.626 25.624 48.546 25.976 49.73 25.976C50.914 25.976 51.834 25.624 52.49 24.92C53.146 24.216 53.474 23.064 53.474 21.464V12.2H57.314V21.608C57.314 24.072 56.642 25.968 55.298 27.296C53.954 28.624 52.09 29.288 49.706 29.288ZM61.1561 29V12.2H68.4281C69.9321 12.2 71.2281 12.448 72.3161 12.944C73.4041 13.424 74.2441 14.12 74.8361 15.032C75.4281 15.944 75.7241 17.032 75.7241 18.296C75.7241 19.544 75.4281 20.624 74.8361 21.536C74.2441 22.432 73.4041 23.12 72.3161 23.6C71.2281 24.08 69.9321 24.32 68.4281 24.32H63.3161L65.0441 22.616V29H61.1561ZM71.8361 29L67.6361 22.904H71.7881L76.0361 29H71.8361ZM65.0441 23.048L63.3161 21.224H68.2121C69.4121 21.224 70.3081 20.968 70.9001 20.456C71.4921 19.928 71.7881 19.208 71.7881 18.296C71.7881 17.368 71.4921 16.648 70.9001 16.136C70.3081 15.624 69.4121 15.368 68.2121 15.368H63.3161L65.0441 13.52V23.048ZM93.6414 29.288C92.3454 29.288 91.1374 29.08 90.0174 28.664C88.9134 28.232 87.9534 27.624 87.1374 26.84C86.3214 26.056 85.6814 25.136 85.2174 24.08C84.7694 23.024 84.5454 21.864 84.5454 20.6C84.5454 19.336 84.7694 18.176 85.2174 17.12C85.6814 16.064 86.3214 15.144 87.1374 14.36C87.9694 13.576 88.9374 12.976 90.0414 12.56C91.1454 12.128 92.3534 11.912 93.6654 11.912C95.1214 11.912 96.4334 12.168 97.6014 12.68C98.7854 13.176 99.7774 13.912 100.577 14.888L98.0814 17.192C97.5054 16.536 96.8654 16.048 96.1614 15.728C95.4574 15.392 94.6894 15.224 93.8574 15.224C93.0734 15.224 92.3534 15.352 91.6974 15.608C91.0414 15.864 90.4734 16.232 89.9934 16.712C89.5134 17.192 89.1374 17.76 88.8654 18.416C88.6094 19.072 88.4814 19.8 88.4814 20.6C88.4814 21.4 88.6094 22.128 88.8654 22.784C89.1374 23.44 89.5134 24.008 89.9934 24.488C90.4734 24.968 91.0414 25.336 91.6974 25.592C92.3534 25.848 93.0734 25.976 93.8574 25.976C94.6894 25.976 95.4574 25.816 96.1614 25.496C96.8654 25.16 97.5054 24.656 98.0814 23.984L100.577 26.288C99.7774 27.264 98.7854 28.008 97.6014 28.52C96.4334 29.032 95.1134 29.288 93.6414 29.288ZM103.203 29V12.2H107.091V25.832H115.515V29H103.203ZM117.687 29V12.2H121.575V29H117.687ZM129.138 18.968H137.226V21.992H129.138V18.968ZM129.426 25.88H138.57V29H125.562V12.2H138.258V15.32H129.426V25.88ZM141.664 29V12.2H144.88L154.792 24.296H153.232V12.2H157.072V29H153.88L143.944 16.904H145.504V29H141.664ZM164.527 29V15.368H159.151V12.2H173.791V15.368H168.415V29H164.527ZM181.285 29.288C179.941 29.288 178.653 29.112 177.421 28.76C176.189 28.392 175.197 27.92 174.445 27.344L175.765 24.416C176.485 24.928 177.333 25.352 178.309 25.688C179.301 26.008 180.301 26.168 181.309 26.168C182.077 26.168 182.693 26.096 183.157 25.952C183.637 25.792 183.989 25.576 184.213 25.304C184.437 25.032 184.549 24.72 184.549 24.368C184.549 23.92 184.373 23.568 184.021 23.312C183.669 23.04 183.205 22.824 182.629 22.664C182.053 22.488 181.413 22.328 180.709 22.184C180.021 22.024 179.325 21.832 178.621 21.608C177.933 21.384 177.301 21.096 176.725 20.744C176.149 20.392 175.677 19.928 175.309 19.352C174.957 18.776 174.781 18.04 174.781 17.144C174.781 16.184 175.037 15.312 175.549 14.528C176.077 13.728 176.861 13.096 177.901 12.632C178.957 12.152 180.277 11.912 181.861 11.912C182.917 11.912 183.957 12.04 184.981 12.296C186.005 12.536 186.909 12.904 187.693 13.4L186.493 16.352C185.709 15.904 184.925 15.576 184.141 15.368C183.357 15.144 182.589 15.032 181.837 15.032C181.085 15.032 180.469 15.12 179.989 15.296C179.509 15.472 179.165 15.704 178.957 15.992C178.749 16.264 178.645 16.584 178.645 16.952C178.645 17.384 178.821 17.736 179.173 18.008C179.525 18.264 179.989 18.472 180.565 18.632C181.141 18.792 181.773 18.952 182.461 19.112C183.165 19.272 183.861 19.456 184.549 19.664C185.253 19.872 185.893 20.152 186.469 20.504C187.045 20.856 187.509 21.32 187.861 21.896C188.229 22.472 188.413 23.2 188.413 24.08C188.413 25.024 188.149 25.888 187.621 26.672C187.093 27.456 186.301 28.088 185.245 28.568C184.205 29.048 182.885 29.288 181.285 29.288Z" fill="#FDFFFE"/>
</g>
<defs>
<filter id="filter0_d_325_230" x="18.8355" y="10.8121" width="169.679" height="19.576" filterUnits="userSpaceOnUse" color-interpolation-filters="sRGB">
<feFlood flood-opacity="0" result="BackgroundImageFix"/>
<feColorMatrix in="SourceAlpha" type="matrix" values="0 0 0 0 0 0 0 0 0 0 0 0 0 0 0 0 0 0 127 0" result="hardAlpha"/>
<feOffset dx="-1"/>
<feGaussianBlur stdDeviation="0.55"/>
<feComposite in2="hardAlpha" operator="out"/>
<feColorMatrix type="matrix" values="0 0 0 0 0 0 0 0 0 0 0 0 0 0 0 0 0 0 0.22 0"/>
<feBlend mode="normal" in2="BackgroundImageFix" result="effect1_dropShadow_325_230"/>
<feBlend mode="normal" in="SourceGraphic" in2="effect1_dropShadow_325_230" result="shape"/>
</filter>
<linearGradient id="paint0_linear_325_230" x1="253" y1="21" x2="-7" y2="21" gradientUnits="userSpaceOnUse">
<stop stop-color="#B2201A"/>
<stop offset="0.5" stop-color="#BC2621"/>
<stop offset="0.932692" stop-color="#B4211C"/>
</linearGradient>
</defs>
</svg>
