<svg width="30" height="33" viewBox="0 0 30 33" fill="none" xmlns="http://www.w3.org/2000/svg">
<path d="M8.57773 31.54C6.82573 31.54 5.36173 31.192 4.18573 30.496C3.00973 29.776 2.12173 28.792 1.52173 27.544C0.921734 26.296 0.621734 24.844 0.621734 23.188V9.976C0.621734 8.272 0.897734 6.784 1.44973 5.512C2.02573 4.216 2.90173 3.208 4.07773 2.488C5.25373 1.768 6.75373 1.408 8.57773 1.408C10.4017 1.408 11.8897 1.768 13.0417 2.488C14.2177 3.208 15.0817 4.216 15.6337 5.512C16.2097 6.784 16.4977 8.272 16.4977 9.976V23.188C16.4977 24.82 16.1977 26.272 15.5977 27.544C14.9977 28.792 14.1097 29.776 12.9337 30.496C11.7577 31.192 10.3057 31.54 8.57773 31.54ZM8.57773 26.176C9.15374 26.176 9.56174 25.996 9.80173 25.636C10.0657 25.252 10.2217 24.82 10.2697 24.34C10.3417 23.836 10.3777 23.404 10.3777 23.044V10.12C10.3777 9.712 10.3537 9.256 10.3057 8.752C10.2577 8.224 10.1017 7.768 9.83773 7.384C9.59773 6.976 9.17773 6.772 8.57773 6.772C7.97773 6.772 7.54573 6.976 7.28173 7.384C7.04173 7.768 6.89773 8.224 6.84973 8.752C6.80173 9.256 6.77773 9.712 6.77773 10.12V23.044C6.77773 23.404 6.81373 23.836 6.88573 24.34C6.95773 24.82 7.11373 25.252 7.35373 25.636C7.61773 25.996 8.02573 26.176 8.57773 26.176ZM23.2587 31V7.78C22.9947 7.924 22.6947 8.068 22.3587 8.212C22.0227 8.356 21.6627 8.512 21.2787 8.68C20.9187 8.824 20.5587 8.968 20.1987 9.112C19.8627 9.256 19.5507 9.4 19.2627 9.544V5.08C19.5267 4.936 19.8987 4.744 20.3787 4.504C20.8587 4.24 21.3747 3.952 21.9267 3.64C22.4787 3.328 22.9947 3.016 23.4747 2.704C23.9547 2.368 24.3147 2.08 24.5547 1.84H29.2707V31H23.2587Z" fill="white"/>
<path d="M4.18573 30.496L3.92463 30.9225L3.93107 30.9263L4.18573 30.496ZM1.52173 27.544L1.97236 27.3274L1.97236 27.3274L1.52173 27.544ZM1.44973 5.512L0.992811 5.30892L0.991062 5.31295L1.44973 5.512ZM4.07773 2.488L3.81666 2.06157L3.81666 2.06157L4.07773 2.488ZM13.0417 2.488L12.7767 2.91202L12.7807 2.91442L13.0417 2.488ZM15.6337 5.512L15.1736 5.70798L15.1783 5.71825L15.6337 5.512ZM15.5977 27.544L16.0484 27.7607L16.05 27.7573L15.5977 27.544ZM12.9337 30.496L13.1884 30.9263L13.1948 30.9224L12.9337 30.496ZM9.80173 25.636L9.38967 25.3527L9.38571 25.3586L9.80173 25.636ZM10.2697 24.34L9.77476 24.2693L9.77327 24.2797L9.77222 24.2902L10.2697 24.34ZM10.3057 8.752L9.80778 8.79727L9.80799 8.7994L10.3057 8.752ZM9.83773 7.384L9.40677 7.63751L9.41572 7.65272L9.42571 7.66726L9.83773 7.384ZM7.28173 7.384L6.8619 7.11234L6.85774 7.119L7.28173 7.384ZM6.84973 8.752L7.34749 8.7994L7.34768 8.79727L6.84973 8.752ZM6.88573 24.34L6.39075 24.4107L6.39127 24.4142L6.88573 24.34ZM7.35373 25.636L6.92974 25.901L6.93956 25.9167L6.95053 25.9317L7.35373 25.636ZM8.57773 31.54V31.04C6.89052 31.04 5.52042 30.7049 4.4404 30.0657L4.18573 30.496L3.93107 30.9263C5.20305 31.6791 6.76095 32.04 8.57773 32.04V31.54ZM4.18573 30.496L4.44681 30.0696C3.35323 29.4 2.53086 28.489 1.97236 27.3274L1.52173 27.544L1.07111 27.7606C1.71261 29.095 2.66624 30.152 3.92466 30.9224L4.18573 30.496ZM1.52173 27.544L1.97236 27.3274C1.41061 26.1589 1.12173 24.7835 1.12173 23.188H0.621734H0.121734C0.121734 24.9045 0.432856 26.4331 1.07111 27.7606L1.52173 27.544ZM0.621734 23.188H1.12173V9.976H0.621734H0.121734V23.188H0.621734ZM0.621734 9.976H1.12173C1.12173 8.32522 1.38915 6.9076 1.90841 5.71105L1.44973 5.512L0.991062 5.31295C0.406319 6.6604 0.121734 8.21878 0.121734 9.976H0.621734ZM1.44973 5.512L1.90664 5.71507C2.44275 4.50883 3.25179 3.57995 4.33881 2.91442L4.07773 2.488L3.81666 2.06157C2.55168 2.83605 1.60872 3.92317 0.992829 5.30893L1.44973 5.512ZM4.07773 2.488L4.33881 2.91442C5.41472 2.25571 6.81689 1.908 8.57773 1.908V1.408V0.907999C6.69058 0.907999 5.09275 1.28029 3.81666 2.06157L4.07773 2.488ZM8.57773 1.408V1.908C10.3392 1.908 11.727 2.25594 12.7767 2.912L13.0417 2.488L13.3067 2.064C12.0524 1.28005 10.4643 0.907999 8.57773 0.907999V1.408ZM13.0417 2.488L12.7807 2.91442C13.866 3.5789 14.6615 4.50537 15.1737 5.70793L15.6337 5.512L16.0937 5.31607C15.502 3.92663 14.5695 2.8371 13.3028 2.06157L13.0417 2.488ZM15.6337 5.512L15.1783 5.71825C15.7192 6.91281 15.9977 8.3278 15.9977 9.976H16.4977H16.9977C16.9977 8.21619 16.7003 6.65519 16.0892 5.30575L15.6337 5.512ZM16.4977 9.976H15.9977V23.188H16.4977H16.9977V9.976H16.4977ZM16.4977 23.188H15.9977C15.9977 24.758 15.7094 26.1353 15.1455 27.3307L15.5977 27.544L16.05 27.7573C16.6861 26.4087 16.9977 24.882 16.9977 23.188H16.4977ZM15.5977 27.544L15.1471 27.3274C14.5886 28.489 13.7662 29.4 12.6727 30.0696L12.9337 30.496L13.1948 30.9224C14.4532 30.152 15.4069 29.095 16.0484 27.7606L15.5977 27.544ZM12.9337 30.496L12.6791 30.0657C11.5981 30.7055 10.2395 31.04 8.57773 31.04V31.54V32.04C10.372 32.04 11.9174 31.6785 13.1884 30.9263L12.9337 30.496ZM8.57773 26.176V26.676C9.2595 26.676 9.85548 26.4568 10.2178 25.9133L9.80173 25.636L9.38571 25.3586C9.26799 25.5352 9.04797 25.676 8.57773 25.676V26.176ZM9.80173 25.636L10.2138 25.9193C10.5272 25.4634 10.7112 24.9505 10.7673 24.3898L10.2697 24.34L9.77222 24.2902C9.73229 24.6895 9.60429 25.0406 9.38971 25.3527L9.80173 25.636ZM10.2697 24.34L10.7647 24.4107C10.8388 23.892 10.8777 23.4351 10.8777 23.044H10.3777H9.87774C9.87774 23.3729 9.84467 23.78 9.77476 24.2693L10.2697 24.34ZM10.3777 23.044H10.8777V10.12H10.3777H9.87774V23.044H10.3777ZM10.3777 10.12H10.8777C10.8777 9.69295 10.8526 9.22078 10.8035 8.70459L10.3057 8.752L9.80799 8.7994C9.85483 9.29122 9.87774 9.73105 9.87774 10.12H10.3777ZM10.3057 8.752L10.8037 8.70673C10.749 8.10528 10.5687 7.56465 10.2498 7.10073L9.83773 7.384L9.42571 7.66726C9.63477 7.97135 9.76647 8.34272 9.80779 8.79727L10.3057 8.752ZM9.83773 7.384L10.2687 7.13049C9.91419 6.52782 9.30016 6.272 8.57773 6.272V6.772V7.272C9.05531 7.272 9.28128 7.42417 9.40677 7.63751L9.83773 7.384ZM8.57773 6.772V6.272C7.85369 6.272 7.24037 6.52754 6.86195 7.11237L7.28173 7.384L7.70152 7.65562C7.8511 7.42446 8.10178 7.272 8.57773 7.272V6.772ZM7.28173 7.384L6.85774 7.119C6.56967 7.57991 6.40567 8.11401 6.35179 8.70673L6.84973 8.752L7.34768 8.79727C7.3898 8.33399 7.5138 7.95609 7.70573 7.649L7.28173 7.384ZM6.84973 8.752L6.35199 8.70459C6.30283 9.22078 6.27773 9.69295 6.27773 10.12H6.77773H7.27773C7.27773 9.73105 7.30064 9.29122 7.34748 8.7994L6.84973 8.752ZM6.77773 10.12H6.27773V23.044H6.77773H7.27773V10.12H6.77773ZM6.77773 23.044H6.27773C6.27773 23.4351 6.31667 23.892 6.39076 24.4107L6.88573 24.34L7.38071 24.2693C7.3108 23.78 7.27773 23.3729 7.27773 23.044H6.77773ZM6.88573 24.34L6.39127 24.4142C6.47269 24.957 6.65086 25.4548 6.92974 25.901L7.35373 25.636L7.77773 25.371C7.57661 25.0492 7.44278 24.683 7.3802 24.2658L6.88573 24.34ZM7.35373 25.636L6.95053 25.9317C7.33112 26.4507 7.90856 26.676 8.57773 26.676V26.176V25.676C8.1429 25.676 7.90435 25.5413 7.75694 25.3403L7.35373 25.636ZM23.2587 31H22.7587V31.5H23.2587V31ZM23.2587 7.78H23.7587V6.93773L23.0193 7.34105L23.2587 7.78ZM22.3587 8.212L22.5557 8.67157L22.5557 8.67157L22.3587 8.212ZM21.2787 8.68L21.4644 9.14424L21.4718 9.14128L21.4791 9.13808L21.2787 8.68ZM20.1987 9.112L20.013 8.64762L20.0017 8.65243L20.1987 9.112ZM19.2627 9.544H18.7627V10.353L19.4863 9.99121L19.2627 9.544ZM19.2627 5.08L19.0233 4.64105L18.7627 4.78318V5.08H19.2627ZM20.3787 4.504L20.6023 4.95121L20.6111 4.94683L20.6197 4.94211L20.3787 4.504ZM21.9267 3.64L21.6807 3.20472L21.6807 3.20472L21.9267 3.64ZM23.4747 2.704L23.7472 3.12322L23.7544 3.11854L23.7614 3.11362L23.4747 2.704ZM24.5547 1.84V1.34H24.3476L24.2011 1.48645L24.5547 1.84ZM29.2707 1.84H29.7707V1.34H29.2707V1.84ZM29.2707 31V31.5H29.7707V31H29.2707ZM23.2587 31H23.7587V7.78H23.2587H22.7587V31H23.2587ZM23.2587 7.78L23.0193 7.34105C22.7717 7.47611 22.4862 7.61336 22.1617 7.75243L22.3587 8.212L22.5557 8.67157C22.9032 8.52264 23.2177 8.37188 23.4981 8.21895L23.2587 7.78ZM22.3587 8.212L22.1617 7.75243C21.8244 7.89699 21.4633 8.05349 21.0783 8.22192L21.2787 8.68L21.4791 9.13808C21.8621 8.97051 22.221 8.81501 22.5557 8.67157L22.3587 8.212ZM21.2787 8.68L21.093 8.21576C21.0923 8.21604 21.0916 8.21632 21.0909 8.21661C21.0902 8.21689 21.0895 8.21717 21.0888 8.21745C21.0881 8.21773 21.0874 8.21801 21.0867 8.21829C21.086 8.21857 21.0853 8.21886 21.0846 8.21914C21.0839 8.21942 21.0832 8.2197 21.0825 8.21998C21.0818 8.22026 21.0811 8.22054 21.0804 8.22082C21.0796 8.22111 21.0789 8.22139 21.0782 8.22167C21.0775 8.22195 21.0768 8.22223 21.0761 8.22251C21.0754 8.22279 21.0747 8.22307 21.074 8.22336C21.0733 8.22364 21.0726 8.22392 21.0719 8.2242C21.0712 8.22448 21.0705 8.22476 21.0698 8.22504C21.0691 8.22532 21.0684 8.22561 21.0677 8.22589C21.067 8.22617 21.0663 8.22645 21.0656 8.22673C21.0649 8.22701 21.0642 8.22729 21.0635 8.22757C21.0628 8.22786 21.0621 8.22814 21.0614 8.22842C21.0607 8.2287 21.06 8.22898 21.0593 8.22926C21.0586 8.22954 21.0579 8.22982 21.0571 8.2301C21.0564 8.23039 21.0557 8.23067 21.055 8.23095C21.0543 8.23123 21.0536 8.23151 21.0529 8.23179C21.0522 8.23207 21.0515 8.23235 21.0508 8.23264C21.0501 8.23292 21.0494 8.2332 21.0487 8.23348C21.048 8.23376 21.0473 8.23404 21.0466 8.23432C21.0459 8.2346 21.0452 8.23489 21.0445 8.23517C21.0438 8.23545 21.0431 8.23573 21.0424 8.23601C21.0417 8.23629 21.041 8.23657 21.0403 8.23685C21.0396 8.23714 21.0389 8.23742 21.0382 8.2377C21.0375 8.23798 21.0368 8.23826 21.0361 8.23854C21.0354 8.23882 21.0346 8.2391 21.0339 8.23939C21.0332 8.23967 21.0325 8.23995 21.0318 8.24023C21.0311 8.24051 21.0304 8.24079 21.0297 8.24107C21.029 8.24135 21.0283 8.24164 21.0276 8.24192C21.0269 8.2422 21.0262 8.24248 21.0255 8.24276C21.0248 8.24304 21.0241 8.24332 21.0234 8.2436C21.0227 8.24389 21.022 8.24417 21.0213 8.24445C21.0206 8.24473 21.0199 8.24501 21.0192 8.24529C21.0185 8.24557 21.0178 8.24585 21.0171 8.24614C21.0164 8.24642 21.0157 8.2467 21.015 8.24698C21.0143 8.24726 21.0136 8.24754 21.0129 8.24782C21.0121 8.2481 21.0114 8.24839 21.0107 8.24867C21.01 8.24895 21.0093 8.24923 21.0086 8.24951C21.0079 8.24979 21.0072 8.25007 21.0065 8.25035C21.0058 8.25064 21.0051 8.25092 21.0044 8.2512C21.0037 8.25148 21.003 8.25176 21.0023 8.25204C21.0016 8.25232 21.0009 8.2526 21.0002 8.25289C20.9995 8.25317 20.9988 8.25345 20.9981 8.25373C20.9974 8.25401 20.9967 8.25429 20.996 8.25457C20.9953 8.25485 20.9946 8.25514 20.9939 8.25542C20.9932 8.2557 20.9925 8.25598 20.9918 8.25626C20.9911 8.25654 20.9904 8.25682 20.9896 8.2571C20.9889 8.25739 20.9882 8.25767 20.9875 8.25795C20.9868 8.25823 20.9861 8.25851 20.9854 8.25879C20.9847 8.25907 20.984 8.25935 20.9833 8.25964C20.9826 8.25992 20.9819 8.2602 20.9812 8.26048C20.9805 8.26076 20.9798 8.26104 20.9791 8.26132C20.9784 8.2616 20.9777 8.26189 20.977 8.26217C20.9763 8.26245 20.9756 8.26273 20.9749 8.26301C20.9742 8.26329 20.9735 8.26357 20.9728 8.26385C20.9721 8.26414 20.9714 8.26442 20.9707 8.2647C20.97 8.26498 20.9693 8.26526 20.9686 8.26554C20.9679 8.26582 20.9671 8.2661 20.9664 8.26639C20.9657 8.26667 20.965 8.26695 20.9643 8.26723C20.9636 8.26751 20.9629 8.26779 20.9622 8.26807C20.9615 8.26835 20.9608 8.26864 20.9601 8.26892C20.9594 8.2692 20.9587 8.26948 20.958 8.26976C20.9573 8.27004 20.9566 8.27032 20.9559 8.2706C20.9552 8.27089 20.9545 8.27117 20.9538 8.27145C20.9531 8.27173 20.9524 8.27201 20.9517 8.27229C20.951 8.27257 20.9503 8.27285 20.9496 8.27314C20.9489 8.27342 20.9482 8.2737 20.9475 8.27398C20.9468 8.27426 20.9461 8.27454 20.9454 8.27482C20.9446 8.2751 20.9439 8.27539 20.9432 8.27567C20.9425 8.27595 20.9418 8.27623 20.9411 8.27651C20.9404 8.27679 20.9397 8.27707 20.939 8.27735C20.9383 8.27764 20.9376 8.27792 20.9369 8.2782C20.9362 8.27848 20.9355 8.27876 20.9348 8.27904C20.9341 8.27932 20.9334 8.2796 20.9327 8.27989C20.932 8.28017 20.9313 8.28045 20.9306 8.28073C20.9299 8.28101 20.9292 8.28129 20.9285 8.28157C20.9278 8.28185 20.9271 8.28214 20.9264 8.28242C20.9257 8.2827 20.925 8.28298 20.9243 8.28326C20.9236 8.28354 20.9229 8.28382 20.9221 8.2841C20.9214 8.28439 20.9207 8.28467 20.92 8.28495C20.9193 8.28523 20.9186 8.28551 20.9179 8.28579C20.9172 8.28607 20.9165 8.28635 20.9158 8.28664C20.9151 8.28692 20.9144 8.2872 20.9137 8.28748C20.913 8.28776 20.9123 8.28804 20.9116 8.28832C20.9109 8.2886 20.9102 8.28889 20.9095 8.28917C20.9088 8.28945 20.9081 8.28973 20.9074 8.29001C20.9067 8.29029 20.906 8.29057 20.9053 8.29085C20.9046 8.29114 20.9039 8.29142 20.9032 8.2917C20.9025 8.29198 20.9018 8.29226 20.9011 8.29254C20.9004 8.29282 20.8996 8.2931 20.8989 8.29339C20.8982 8.29367 20.8975 8.29395 20.8968 8.29423C20.8961 8.29451 20.8954 8.29479 20.8947 8.29507C20.894 8.29535 20.8933 8.29564 20.8926 8.29592C20.8919 8.2962 20.8912 8.29648 20.8905 8.29676C20.8898 8.29704 20.8891 8.29732 20.8884 8.2976C20.8877 8.29789 20.887 8.29817 20.8863 8.29845C20.8856 8.29873 20.8849 8.29901 20.8842 8.29929C20.8835 8.29957 20.8828 8.29985 20.8821 8.30014C20.8814 8.30042 20.8807 8.3007 20.88 8.30098C20.8793 8.30126 20.8786 8.30154 20.8779 8.30182C20.8771 8.3021 20.8764 8.30239 20.8757 8.30267C20.875 8.30295 20.8743 8.30323 20.8736 8.30351C20.8729 8.30379 20.8722 8.30407 20.8715 8.30435C20.8708 8.30464 20.8701 8.30492 20.8694 8.3052C20.8687 8.30548 20.868 8.30576 20.8673 8.30604C20.8666 8.30632 20.8659 8.3066 20.8652 8.30689C20.8645 8.30717 20.8638 8.30745 20.8631 8.30773C20.8624 8.30801 20.8617 8.30829 20.861 8.30857C20.8603 8.30885 20.8596 8.30914 20.8589 8.30942C20.8582 8.3097 20.8575 8.30998 20.8568 8.31026C20.8561 8.31054 20.8554 8.31082 20.8546 8.3111C20.8539 8.31139 20.8532 8.31167 20.8525 8.31195C20.8518 8.31223 20.8511 8.31251 20.8504 8.31279C20.8497 8.31307 20.849 8.31335 20.8483 8.31364C20.8476 8.31392 20.8469 8.3142 20.8462 8.31448C20.8455 8.31476 20.8448 8.31504 20.8441 8.31532C20.8434 8.3156 20.8427 8.31589 20.842 8.31617C20.8413 8.31645 20.8406 8.31673 20.8399 8.31701C20.8392 8.31729 20.8385 8.31757 20.8378 8.31785C20.8371 8.31814 20.8364 8.31842 20.8357 8.3187C20.835 8.31898 20.8343 8.31926 20.8336 8.31954C20.8329 8.31982 20.8321 8.3201 20.8314 8.32039C20.8307 8.32067 20.83 8.32095 20.8293 8.32123C20.8286 8.32151 20.8279 8.32179 20.8272 8.32207C20.8265 8.32235 20.8258 8.32264 20.8251 8.32292C20.8244 8.3232 20.8237 8.32348 20.823 8.32376C20.8223 8.32404 20.8216 8.32432 20.8209 8.3246C20.8202 8.32489 20.8195 8.32517 20.8188 8.32545C20.8181 8.32573 20.8174 8.32601 20.8167 8.32629C20.816 8.32657 20.8153 8.32685 20.8146 8.32714C20.8139 8.32742 20.8132 8.3277 20.8125 8.32798C20.8118 8.32826 20.8111 8.32854 20.8104 8.32882C20.8096 8.3291 20.8089 8.32939 20.8082 8.32967C20.8075 8.32995 20.8068 8.33023 20.8061 8.33051C20.8054 8.33079 20.8047 8.33107 20.804 8.33135C20.8033 8.33164 20.8026 8.33192 20.8019 8.3322C20.8012 8.33248 20.8005 8.33276 20.7998 8.33304C20.7991 8.33332 20.7984 8.3336 20.7977 8.33389C20.797 8.33417 20.7963 8.33445 20.7956 8.33473C20.7949 8.33501 20.7942 8.33529 20.7935 8.33557C20.7928 8.33585 20.7921 8.33614 20.7914 8.33642C20.7907 8.3367 20.79 8.33698 20.7893 8.33726C20.7886 8.33754 20.7879 8.33782 20.7871 8.3381C20.7864 8.33839 20.7857 8.33867 20.785 8.33895C20.7843 8.33923 20.7836 8.33951 20.7829 8.33979C20.7822 8.34007 20.7815 8.34035 20.7808 8.34064C20.7801 8.34092 20.7794 8.3412 20.7787 8.34148C20.778 8.34176 20.7773 8.34204 20.7766 8.34232C20.7759 8.3426 20.7752 8.34289 20.7745 8.34317C20.7738 8.34345 20.7731 8.34373 20.7724 8.34401C20.7717 8.34429 20.771 8.34457 20.7703 8.34485C20.7696 8.34514 20.7689 8.34542 20.7682 8.3457C20.7675 8.34598 20.7668 8.34626 20.7661 8.34654C20.7654 8.34682 20.7646 8.3471 20.7639 8.34739C20.7632 8.34767 20.7625 8.34795 20.7618 8.34823C20.7611 8.34851 20.7604 8.34879 20.7597 8.34907C20.759 8.34935 20.7583 8.34964 20.7576 8.34992C20.7569 8.3502 20.7562 8.35048 20.7555 8.35076C20.7548 8.35104 20.7541 8.35132 20.7534 8.3516C20.7527 8.35189 20.752 8.35217 20.7513 8.35245C20.7506 8.35273 20.7499 8.35301 20.7492 8.35329C20.7485 8.35357 20.7478 8.35385 20.7471 8.35414C20.7464 8.35442 20.7457 8.3547 20.745 8.35498C20.7443 8.35526 20.7436 8.35554 20.7429 8.35582C20.7421 8.3561 20.7414 8.35639 20.7407 8.35667C20.74 8.35695 20.7393 8.35723 20.7386 8.35751C20.7379 8.35779 20.7372 8.35807 20.7365 8.35835C20.7358 8.35864 20.7351 8.35892 20.7344 8.3592C20.7337 8.35948 20.733 8.35976 20.7323 8.36004C20.7316 8.36032 20.7309 8.3606 20.7302 8.36089C20.7295 8.36117 20.7288 8.36145 20.7281 8.36173C20.7274 8.36201 20.7267 8.36229 20.726 8.36257C20.7253 8.36285 20.7246 8.36314 20.7239 8.36342C20.7232 8.3637 20.7225 8.36398 20.7218 8.36426C20.7211 8.36454 20.7204 8.36482 20.7196 8.3651C20.7189 8.36539 20.7182 8.36567 20.7175 8.36595C20.7168 8.36623 20.7161 8.36651 20.7154 8.36679C20.7147 8.36707 20.714 8.36735 20.7133 8.36764C20.7126 8.36792 20.7119 8.3682 20.7112 8.36848C20.7105 8.36876 20.7098 8.36904 20.7091 8.36932C20.7084 8.3696 20.7077 8.36989 20.707 8.37017C20.7063 8.37045 20.7056 8.37073 20.7049 8.37101C20.7042 8.37129 20.7035 8.37157 20.7028 8.37185C20.7021 8.37214 20.7014 8.37242 20.7007 8.3727C20.7 8.37298 20.6993 8.37326 20.6986 8.37354C20.6979 8.37382 20.6971 8.3741 20.6964 8.37439C20.6957 8.37467 20.695 8.37495 20.6943 8.37523C20.6936 8.37551 20.6929 8.37579 20.6922 8.37607C20.6915 8.37635 20.6908 8.37664 20.6901 8.37692C20.6894 8.3772 20.6887 8.37748 20.688 8.37776C20.6873 8.37804 20.6866 8.37832 20.6859 8.3786C20.6852 8.37889 20.6845 8.37917 20.6838 8.37945C20.6831 8.37973 20.6824 8.38001 20.6817 8.38029C20.681 8.38057 20.6803 8.38085 20.6796 8.38114C20.6789 8.38142 20.6782 8.3817 20.6775 8.38198C20.6768 8.38226 20.6761 8.38254 20.6754 8.38282C20.6746 8.3831 20.6739 8.38339 20.6732 8.38367C20.6725 8.38395 20.6718 8.38423 20.6711 8.38451C20.6704 8.38479 20.6697 8.38507 20.669 8.38535C20.6683 8.38564 20.6676 8.38592 20.6669 8.3862C20.6662 8.38648 20.6655 8.38676 20.6648 8.38704C20.6641 8.38732 20.6634 8.3876 20.6627 8.38789C20.662 8.38817 20.6613 8.38845 20.6606 8.38873C20.6599 8.38901 20.6592 8.38929 20.6585 8.38957C20.6578 8.38985 20.6571 8.39014 20.6564 8.39042C20.6557 8.3907 20.655 8.39098 20.6543 8.39126C20.6536 8.39154 20.6529 8.39182 20.6521 8.3921C20.6514 8.39239 20.6507 8.39267 20.65 8.39295C20.6493 8.39323 20.6486 8.39351 20.6479 8.39379C20.6472 8.39407 20.6465 8.39435 20.6458 8.39464C20.6451 8.39492 20.6444 8.3952 20.6437 8.39548C20.643 8.39576 20.6423 8.39604 20.6416 8.39632C20.6409 8.3966 20.6402 8.39689 20.6395 8.39717C20.6388 8.39745 20.6381 8.39773 20.6374 8.39801C20.6367 8.39829 20.636 8.39857 20.6353 8.39885C20.6346 8.39914 20.6339 8.39942 20.6332 8.3997C20.6325 8.39998 20.6318 8.40026 20.6311 8.40054C20.6304 8.40082 20.6296 8.4011 20.6289 8.40139C20.6282 8.40167 20.6275 8.40195 20.6268 8.40223C20.6261 8.40251 20.6254 8.40279 20.6247 8.40307C20.624 8.40335 20.6233 8.40364 20.6226 8.40392C20.6219 8.4042 20.6212 8.40448 20.6205 8.40476C20.6198 8.40504 20.6191 8.40532 20.6184 8.4056C20.6177 8.40589 20.617 8.40617 20.6163 8.40645C20.6156 8.40673 20.6149 8.40701 20.6142 8.40729C20.6135 8.40757 20.6128 8.40785 20.6121 8.40814C20.6114 8.40842 20.6107 8.4087 20.61 8.40898C20.6093 8.40926 20.6086 8.40954 20.6079 8.40982C20.6071 8.4101 20.6064 8.41039 20.6057 8.41067C20.605 8.41095 20.6043 8.41123 20.6036 8.41151C20.6029 8.41179 20.6022 8.41207 20.6015 8.41235C20.6008 8.41264 20.6001 8.41292 20.5994 8.4132C20.5987 8.41348 20.598 8.41376 20.5973 8.41404C20.5966 8.41432 20.5959 8.4146 20.5952 8.41489C20.5945 8.41517 20.5938 8.41545 20.5931 8.41573C20.5924 8.41601 20.5917 8.41629 20.591 8.41657C20.5903 8.41685 20.5896 8.41714 20.5889 8.41742C20.5882 8.4177 20.5875 8.41798 20.5868 8.41826C20.5861 8.41854 20.5854 8.41882 20.5846 8.4191C20.5839 8.41939 20.5832 8.41967 20.5825 8.41995C20.5818 8.42023 20.5811 8.42051 20.5804 8.42079C20.5797 8.42107 20.579 8.42135 20.5783 8.42164C20.5776 8.42192 20.5769 8.4222 20.5762 8.42248C20.5755 8.42276 20.5748 8.42304 20.5741 8.42332C20.5734 8.4236 20.5727 8.42389 20.572 8.42417C20.5713 8.42445 20.5706 8.42473 20.5699 8.42501C20.5692 8.42529 20.5685 8.42557 20.5678 8.42585C20.5671 8.42614 20.5664 8.42642 20.5657 8.4267C20.565 8.42698 20.5643 8.42726 20.5636 8.42754C20.5629 8.42782 20.5621 8.4281 20.5614 8.42839C20.5607 8.42867 20.56 8.42895 20.5593 8.42923C20.5586 8.42951 20.5579 8.42979 20.5572 8.43007C20.5565 8.43035 20.5558 8.43064 20.5551 8.43092C20.5544 8.4312 20.5537 8.43148 20.553 8.43176C20.5523 8.43204 20.5516 8.43232 20.5509 8.4326C20.5502 8.43289 20.5495 8.43317 20.5488 8.43345C20.5481 8.43373 20.5474 8.43401 20.5467 8.43429C20.546 8.43457 20.5453 8.43485 20.5446 8.43514C20.5439 8.43542 20.5432 8.4357 20.5425 8.43598C20.5418 8.43626 20.5411 8.43654 20.5404 8.43682C20.5396 8.4371 20.5389 8.43739 20.5382 8.43767C20.5375 8.43795 20.5368 8.43823 20.5361 8.43851C20.5354 8.43879 20.5347 8.43907 20.534 8.43935C20.5333 8.43964 20.5326 8.43992 20.5319 8.4402C20.5312 8.44048 20.5305 8.44076 20.5298 8.44104C20.5291 8.44132 20.5284 8.4416 20.5277 8.44189C20.527 8.44217 20.5263 8.44245 20.5256 8.44273C20.5249 8.44301 20.5242 8.44329 20.5235 8.44357C20.5228 8.44385 20.5221 8.44414 20.5214 8.44442C20.5207 8.4447 20.52 8.44498 20.5193 8.44526C20.5186 8.44554 20.5179 8.44582 20.5171 8.4461C20.5164 8.44639 20.5157 8.44667 20.515 8.44695C20.5143 8.44723 20.5136 8.44751 20.5129 8.44779C20.5122 8.44807 20.5115 8.44835 20.5108 8.44864C20.5101 8.44892 20.5094 8.4492 20.5087 8.44948C20.508 8.44976 20.5073 8.45004 20.5066 8.45032C20.5059 8.4506 20.5052 8.45089 20.5045 8.45117C20.5038 8.45145 20.5031 8.45173 20.5024 8.45201C20.5017 8.45229 20.501 8.45257 20.5003 8.45285C20.4996 8.45314 20.4989 8.45342 20.4982 8.4537C20.4975 8.45398 20.4968 8.45426 20.4961 8.45454C20.4954 8.45482 20.4946 8.4551 20.4939 8.45539C20.4932 8.45567 20.4925 8.45595 20.4918 8.45623C20.4911 8.45651 20.4904 8.45679 20.4897 8.45707C20.489 8.45735 20.4883 8.45764 20.4876 8.45792C20.4869 8.4582 20.4862 8.45848 20.4855 8.45876C20.4848 8.45904 20.4841 8.45932 20.4834 8.4596C20.4827 8.45989 20.482 8.46017 20.4813 8.46045C20.4806 8.46073 20.4799 8.46101 20.4792 8.46129C20.4785 8.46157 20.4778 8.46185 20.4771 8.46214C20.4764 8.46242 20.4757 8.4627 20.475 8.46298C20.4743 8.46326 20.4736 8.46354 20.4729 8.46382C20.4721 8.4641 20.4714 8.46439 20.4707 8.46467C20.47 8.46495 20.4693 8.46523 20.4686 8.46551C20.4679 8.46579 20.4672 8.46607 20.4665 8.46635C20.4658 8.46664 20.4651 8.46692 20.4644 8.4672C20.4637 8.46748 20.463 8.46776 20.4623 8.46804C20.4616 8.46832 20.4609 8.4686 20.4602 8.46889C20.4595 8.46917 20.4588 8.46945 20.4581 8.46973C20.4574 8.47001 20.4567 8.47029 20.456 8.47057C20.4553 8.47085 20.4546 8.47114 20.4539 8.47142C20.4532 8.4717 20.4525 8.47198 20.4518 8.47226C20.4511 8.47254 20.4504 8.47282 20.4496 8.4731C20.4489 8.47339 20.4482 8.47367 20.4475 8.47395C20.4468 8.47423 20.4461 8.47451 20.4454 8.47479C20.4447 8.47507 20.444 8.47535 20.4433 8.47564C20.4426 8.47592 20.4419 8.4762 20.4412 8.47648C20.4405 8.47676 20.4398 8.47704 20.4391 8.47732C20.4384 8.4776 20.4377 8.47789 20.437 8.47817C20.4363 8.47845 20.4356 8.47873 20.4349 8.47901C20.4342 8.47929 20.4335 8.47957 20.4328 8.47985C20.4321 8.48014 20.4314 8.48042 20.4307 8.4807C20.43 8.48098 20.4293 8.48126 20.4286 8.48154C20.4279 8.48182 20.4271 8.4821 20.4264 8.48239C20.4257 8.48267 20.425 8.48295 20.4243 8.48323C20.4236 8.48351 20.4229 8.48379 20.4222 8.48407C20.4215 8.48435 20.4208 8.48464 20.4201 8.48492C20.4194 8.4852 20.4187 8.48548 20.418 8.48576C20.4173 8.48604 20.4166 8.48632 20.4159 8.4866C20.4152 8.48689 20.4145 8.48717 20.4138 8.48745C20.4131 8.48773 20.4124 8.48801 20.4117 8.48829C20.411 8.48857 20.4103 8.48885 20.4096 8.48914C20.4089 8.48942 20.4082 8.4897 20.4075 8.48998C20.4068 8.49026 20.4061 8.49054 20.4054 8.49082C20.4046 8.4911 20.4039 8.49139 20.4032 8.49167C20.4025 8.49195 20.4018 8.49223 20.4011 8.49251C20.4004 8.49279 20.3997 8.49307 20.399 8.49335C20.3983 8.49364 20.3976 8.49392 20.3969 8.4942C20.3962 8.49448 20.3955 8.49476 20.3948 8.49504C20.3941 8.49532 20.3934 8.4956 20.3927 8.49589C20.392 8.49617 20.3913 8.49645 20.3906 8.49673C20.3899 8.49701 20.3892 8.49729 20.3885 8.49757C20.3878 8.49785 20.3871 8.49814 20.3864 8.49842C20.3857 8.4987 20.385 8.49898 20.3843 8.49926C20.3836 8.49954 20.3829 8.49982 20.3821 8.5001C20.3814 8.50039 20.3807 8.50067 20.38 8.50095C20.3793 8.50123 20.3786 8.50151 20.3779 8.50179C20.3772 8.50207 20.3765 8.50235 20.3758 8.50264C20.3751 8.50292 20.3744 8.5032 20.3737 8.50348C20.373 8.50376 20.3723 8.50404 20.3716 8.50432C20.3709 8.5046 20.3702 8.50489 20.3695 8.50517C20.3688 8.50545 20.3681 8.50573 20.3674 8.50601C20.3667 8.50629 20.366 8.50657 20.3653 8.50685C20.3646 8.50714 20.3639 8.50742 20.3632 8.5077C20.3625 8.50798 20.3618 8.50826 20.3611 8.50854C20.3604 8.50882 20.3596 8.5091 20.3589 8.50939C20.3582 8.50967 20.3575 8.50995 20.3568 8.51023C20.3561 8.51051 20.3554 8.51079 20.3547 8.51107C20.354 8.51135 20.3533 8.51164 20.3526 8.51192C20.3519 8.5122 20.3512 8.51248 20.3505 8.51276C20.3498 8.51304 20.3491 8.51332 20.3484 8.5136C20.3477 8.51389 20.347 8.51417 20.3463 8.51445C20.3456 8.51473 20.3449 8.51501 20.3442 8.51529C20.3435 8.51557 20.3428 8.51585 20.3421 8.51614C20.3414 8.51642 20.3407 8.5167 20.34 8.51698C20.3393 8.51726 20.3386 8.51754 20.3379 8.51782C20.3371 8.5181 20.3364 8.51839 20.3357 8.51867C20.335 8.51895 20.3343 8.51923 20.3336 8.51951C20.3329 8.51979 20.3322 8.52007 20.3315 8.52035C20.3308 8.52064 20.3301 8.52092 20.3294 8.5212C20.3287 8.52148 20.328 8.52176 20.3273 8.52204C20.3266 8.52232 20.3259 8.5226 20.3252 8.52289C20.3245 8.52317 20.3238 8.52345 20.3231 8.52373C20.3224 8.52401 20.3217 8.52429 20.321 8.52457C20.3203 8.52485 20.3196 8.52514 20.3189 8.52542C20.3182 8.5257 20.3175 8.52598 20.3168 8.52626C20.3161 8.52654 20.3154 8.52682 20.3146 8.5271C20.3139 8.52739 20.3132 8.52767 20.3125 8.52795C20.3118 8.52823 20.3111 8.52851 20.3104 8.52879C20.3097 8.52907 20.309 8.52935 20.3083 8.52964C20.3076 8.52992 20.3069 8.5302 20.3062 8.53048C20.3055 8.53076 20.3048 8.53104 20.3041 8.53132C20.3034 8.5316 20.3027 8.53189 20.302 8.53217C20.3013 8.53245 20.3006 8.53273 20.2999 8.53301C20.2992 8.53329 20.2985 8.53357 20.2978 8.53385C20.2971 8.53414 20.2964 8.53442 20.2957 8.5347C20.295 8.53498 20.2943 8.53526 20.2936 8.53554C20.2929 8.53582 20.2921 8.5361 20.2914 8.53639C20.2907 8.53667 20.29 8.53695 20.2893 8.53723C20.2886 8.53751 20.2879 8.53779 20.2872 8.53807C20.2865 8.53835 20.2858 8.53864 20.2851 8.53892C20.2844 8.5392 20.2837 8.53948 20.283 8.53976C20.2823 8.54004 20.2816 8.54032 20.2809 8.5406C20.2802 8.54089 20.2795 8.54117 20.2788 8.54145C20.2781 8.54173 20.2774 8.54201 20.2767 8.54229C20.276 8.54257 20.2753 8.54285 20.2746 8.54314C20.2739 8.54342 20.2732 8.5437 20.2725 8.54398C20.2718 8.54426 20.2711 8.54454 20.2704 8.54482C20.2696 8.5451 20.2689 8.54539 20.2682 8.54567C20.2675 8.54595 20.2668 8.54623 20.2661 8.54651C20.2654 8.54679 20.2647 8.54707 20.264 8.54735C20.2633 8.54764 20.2626 8.54792 20.2619 8.5482C20.2612 8.54848 20.2605 8.54876 20.2598 8.54904C20.2591 8.54932 20.2584 8.5496 20.2577 8.54989C20.257 8.55017 20.2563 8.55045 20.2556 8.55073C20.2549 8.55101 20.2542 8.55129 20.2535 8.55157C20.2528 8.55185 20.2521 8.55214 20.2514 8.55242C20.2507 8.5527 20.25 8.55298 20.2493 8.55326C20.2486 8.55354 20.2479 8.55382 20.2471 8.5541C20.2464 8.55439 20.2457 8.55467 20.245 8.55495C20.2443 8.55523 20.2436 8.55551 20.2429 8.55579C20.2422 8.55607 20.2415 8.55635 20.2408 8.55664C20.2401 8.55692 20.2394 8.5572 20.2387 8.55748C20.238 8.55776 20.2373 8.55804 20.2366 8.55832C20.2359 8.5586 20.2352 8.55889 20.2345 8.55917C20.2338 8.55945 20.2331 8.55973 20.2324 8.56001C20.2317 8.56029 20.231 8.56057 20.2303 8.56085C20.2296 8.56114 20.2289 8.56142 20.2282 8.5617C20.2275 8.56198 20.2268 8.56226 20.2261 8.56254C20.2254 8.56282 20.2246 8.5631 20.2239 8.56339C20.2232 8.56367 20.2225 8.56395 20.2218 8.56423C20.2211 8.56451 20.2204 8.56479 20.2197 8.56507C20.219 8.56535 20.2183 8.56564 20.2176 8.56592C20.2169 8.5662 20.2162 8.56648 20.2155 8.56676C20.2148 8.56704 20.2141 8.56732 20.2134 8.5676C20.2127 8.56789 20.212 8.56817 20.2113 8.56845C20.2106 8.56873 20.2099 8.56901 20.2092 8.56929C20.2085 8.56957 20.2078 8.56985 20.2071 8.57014C20.2064 8.57042 20.2057 8.5707 20.205 8.57098C20.2043 8.57126 20.2036 8.57154 20.2029 8.57182C20.2021 8.5721 20.2014 8.57239 20.2007 8.57267C20.2 8.57295 20.1993 8.57323 20.1986 8.57351C20.1979 8.57379 20.1972 8.57407 20.1965 8.57435C20.1958 8.57464 20.1951 8.57492 20.1944 8.5752C20.1937 8.57548 20.193 8.57576 20.1923 8.57604C20.1916 8.57632 20.1909 8.5766 20.1902 8.57689C20.1895 8.57717 20.1888 8.57745 20.1881 8.57773C20.1874 8.57801 20.1867 8.57829 20.186 8.57857C20.1853 8.57885 20.1846 8.57914 20.1839 8.57942C20.1832 8.5797 20.1825 8.57998 20.1818 8.58026C20.1811 8.58054 20.1804 8.58082 20.1796 8.5811C20.1789 8.58139 20.1782 8.58167 20.1775 8.58195C20.1768 8.58223 20.1761 8.58251 20.1754 8.58279C20.1747 8.58307 20.174 8.58335 20.1733 8.58364C20.1726 8.58392 20.1719 8.5842 20.1712 8.58448C20.1705 8.58476 20.1698 8.58504 20.1691 8.58532C20.1684 8.5856 20.1677 8.58589 20.167 8.58617C20.1663 8.58645 20.1656 8.58673 20.1649 8.58701C20.1642 8.58729 20.1635 8.58757 20.1628 8.58785C20.1621 8.58814 20.1614 8.58842 20.1607 8.5887C20.16 8.58898 20.1593 8.58926 20.1586 8.58954C20.1579 8.58982 20.1571 8.5901 20.1564 8.59039C20.1557 8.59067 20.155 8.59095 20.1543 8.59123C20.1536 8.59151 20.1529 8.59179 20.1522 8.59207C20.1515 8.59235 20.1508 8.59264 20.1501 8.59292C20.1494 8.5932 20.1487 8.59348 20.148 8.59376C20.1473 8.59404 20.1466 8.59432 20.1459 8.5946C20.1452 8.59489 20.1445 8.59517 20.1438 8.59545C20.1431 8.59573 20.1424 8.59601 20.1417 8.59629C20.141 8.59657 20.1403 8.59685 20.1396 8.59714C20.1389 8.59742 20.1382 8.5977 20.1375 8.59798C20.1368 8.59826 20.1361 8.59854 20.1354 8.59882C20.1346 8.5991 20.1339 8.59939 20.1332 8.59967C20.1325 8.59995 20.1318 8.60023 20.1311 8.60051C20.1304 8.60079 20.1297 8.60107 20.129 8.60135C20.1283 8.60164 20.1276 8.60192 20.1269 8.6022C20.1262 8.60248 20.1255 8.60276 20.1248 8.60304C20.1241 8.60332 20.1234 8.6036 20.1227 8.60389C20.122 8.60417 20.1213 8.60445 20.1206 8.60473C20.1199 8.60501 20.1192 8.60529 20.1185 8.60557C20.1178 8.60585 20.1171 8.60614 20.1164 8.60642C20.1157 8.6067 20.115 8.60698 20.1143 8.60726C20.1136 8.60754 20.1129 8.60782 20.1121 8.6081C20.1114 8.60839 20.1107 8.60867 20.11 8.60895C20.1093 8.60923 20.1086 8.60951 20.1079 8.60979C20.1072 8.61007 20.1065 8.61035 20.1058 8.61064C20.1051 8.61092 20.1044 8.6112 20.1037 8.61148C20.103 8.61176 20.1023 8.61204 20.1016 8.61232C20.1009 8.6126 20.1002 8.61289 20.0995 8.61317C20.0988 8.61345 20.0981 8.61373 20.0974 8.61401C20.0967 8.61429 20.096 8.61457 20.0953 8.61485C20.0946 8.61514 20.0939 8.61542 20.0932 8.6157C20.0925 8.61598 20.0918 8.61626 20.0911 8.61654C20.0904 8.61682 20.0896 8.6171 20.0889 8.61739C20.0882 8.61767 20.0875 8.61795 20.0868 8.61823C20.0861 8.61851 20.0854 8.61879 20.0847 8.61907C20.084 8.61935 20.0833 8.61964 20.0826 8.61992C20.0819 8.6202 20.0812 8.62048 20.0805 8.62076C20.0798 8.62104 20.0791 8.62132 20.0784 8.6216C20.0777 8.62189 20.077 8.62217 20.0763 8.62245C20.0756 8.62273 20.0749 8.62301 20.0742 8.62329C20.0735 8.62357 20.0728 8.62385 20.0721 8.62414C20.0714 8.62442 20.0707 8.6247 20.07 8.62498C20.0693 8.62526 20.0686 8.62554 20.0679 8.62582C20.0671 8.6261 20.0664 8.62639 20.0657 8.62667C20.065 8.62695 20.0643 8.62723 20.0636 8.62751C20.0629 8.62779 20.0622 8.62807 20.0615 8.62835C20.0608 8.62864 20.0601 8.62892 20.0594 8.6292C20.0587 8.62948 20.058 8.62976 20.0573 8.63004C20.0566 8.63032 20.0559 8.6306 20.0552 8.63089C20.0545 8.63117 20.0538 8.63145 20.0531 8.63173C20.0524 8.63201 20.0517 8.63229 20.051 8.63257C20.0503 8.63285 20.0496 8.63314 20.0489 8.63342C20.0482 8.6337 20.0475 8.63398 20.0468 8.63426C20.0461 8.63454 20.0454 8.63482 20.0446 8.6351C20.0439 8.63539 20.0432 8.63567 20.0425 8.63595C20.0418 8.63623 20.0411 8.63651 20.0404 8.63679C20.0397 8.63707 20.039 8.63735 20.0383 8.63764C20.0376 8.63792 20.0369 8.6382 20.0362 8.63848C20.0355 8.63876 20.0348 8.63904 20.0341 8.63932C20.0334 8.6396 20.0327 8.63989 20.032 8.64017C20.0313 8.64045 20.0306 8.64073 20.0299 8.64101C20.0292 8.64129 20.0285 8.64157 20.0278 8.64185C20.0271 8.64214 20.0264 8.64242 20.0257 8.6427C20.025 8.64298 20.0243 8.64326 20.0236 8.64354C20.0229 8.64382 20.0221 8.6441 20.0214 8.64439C20.0207 8.64467 20.02 8.64495 20.0193 8.64523C20.0186 8.64551 20.0179 8.64579 20.0172 8.64607C20.0165 8.64635 20.0158 8.64664 20.0151 8.64692C20.0144 8.6472 20.0137 8.64748 20.013 8.64776L20.1987 9.112L20.3844 9.57624C20.3851 9.57596 20.3858 9.57567 20.3865 9.57539C20.3872 9.57511 20.3879 9.57483 20.3886 9.57455C20.3893 9.57427 20.39 9.57399 20.3907 9.57371C20.3914 9.57342 20.3921 9.57314 20.3928 9.57286C20.3935 9.57258 20.3942 9.5723 20.3949 9.57202C20.3956 9.57174 20.3964 9.57146 20.3971 9.57117C20.3978 9.57089 20.3985 9.57061 20.3992 9.57033C20.3999 9.57005 20.4006 9.56977 20.4013 9.56949C20.402 9.56921 20.4027 9.56892 20.4034 9.56864C20.4041 9.56836 20.4048 9.56808 20.4055 9.5678C20.4062 9.56752 20.4069 9.56724 20.4076 9.56696C20.4083 9.56667 20.409 9.56639 20.4097 9.56611C20.4104 9.56583 20.4111 9.56555 20.4118 9.56527C20.4125 9.56499 20.4132 9.56471 20.4139 9.56442C20.4146 9.56414 20.4153 9.56386 20.416 9.56358C20.4167 9.5633 20.4174 9.56302 20.4181 9.56274C20.4189 9.56246 20.4196 9.56217 20.4203 9.56189C20.421 9.56161 20.4217 9.56133 20.4224 9.56105C20.4231 9.56077 20.4238 9.56049 20.4245 9.56021C20.4252 9.55992 20.4259 9.55964 20.4266 9.55936C20.4273 9.55908 20.428 9.5588 20.4287 9.55852C20.4294 9.55824 20.4301 9.55796 20.4308 9.55767C20.4315 9.55739 20.4322 9.55711 20.4329 9.55683C20.4336 9.55655 20.4343 9.55627 20.435 9.55599C20.4357 9.55571 20.4364 9.55542 20.4371 9.55514C20.4378 9.55486 20.4385 9.55458 20.4392 9.5543C20.4399 9.55402 20.4406 9.55374 20.4414 9.55346C20.4421 9.55317 20.4428 9.55289 20.4435 9.55261C20.4442 9.55233 20.4449 9.55205 20.4456 9.55177C20.4463 9.55149 20.447 9.55121 20.4477 9.55092C20.4484 9.55064 20.4491 9.55036 20.4498 9.55008C20.4505 9.5498 20.4512 9.54952 20.4519 9.54924C20.4526 9.54896 20.4533 9.54867 20.454 9.54839C20.4547 9.54811 20.4554 9.54783 20.4561 9.54755C20.4568 9.54727 20.4575 9.54699 20.4582 9.54671C20.4589 9.54642 20.4596 9.54614 20.4603 9.54586C20.461 9.54558 20.4617 9.5453 20.4624 9.54502C20.4631 9.54474 20.4639 9.54446 20.4646 9.54417C20.4653 9.54389 20.466 9.54361 20.4667 9.54333C20.4674 9.54305 20.4681 9.54277 20.4688 9.54249C20.4695 9.54221 20.4702 9.54192 20.4709 9.54164C20.4716 9.54136 20.4723 9.54108 20.473 9.5408C20.4737 9.54052 20.4744 9.54024 20.4751 9.53996C20.4758 9.53967 20.4765 9.53939 20.4772 9.53911C20.4779 9.53883 20.4786 9.53855 20.4793 9.53827C20.48 9.53799 20.4807 9.53771 20.4814 9.53742C20.4821 9.53714 20.4828 9.53686 20.4835 9.53658C20.4842 9.5363 20.4849 9.53602 20.4856 9.53574C20.4864 9.53546 20.4871 9.53517 20.4878 9.53489C20.4885 9.53461 20.4892 9.53433 20.4899 9.53405C20.4906 9.53377 20.4913 9.53349 20.492 9.53321C20.4927 9.53292 20.4934 9.53264 20.4941 9.53236C20.4948 9.53208 20.4955 9.5318 20.4962 9.53152C20.4969 9.53124 20.4976 9.53096 20.4983 9.53067C20.499 9.53039 20.4997 9.53011 20.5004 9.52983C20.5011 9.52955 20.5018 9.52927 20.5025 9.52899C20.5032 9.52871 20.5039 9.52842 20.5046 9.52814C20.5053 9.52786 20.506 9.52758 20.5067 9.5273C20.5074 9.52702 20.5081 9.52674 20.5089 9.52646C20.5096 9.52617 20.5103 9.52589 20.511 9.52561C20.5117 9.52533 20.5124 9.52505 20.5131 9.52477C20.5138 9.52449 20.5145 9.52421 20.5152 9.52392C20.5159 9.52364 20.5166 9.52336 20.5173 9.52308C20.518 9.5228 20.5187 9.52252 20.5194 9.52224C20.5201 9.52196 20.5208 9.52167 20.5215 9.52139C20.5222 9.52111 20.5229 9.52083 20.5236 9.52055C20.5243 9.52027 20.525 9.51999 20.5257 9.51971C20.5264 9.51942 20.5271 9.51914 20.5278 9.51886C20.5285 9.51858 20.5292 9.5183 20.5299 9.51802C20.5306 9.51774 20.5314 9.51746 20.5321 9.51717C20.5328 9.51689 20.5335 9.51661 20.5342 9.51633C20.5349 9.51605 20.5356 9.51577 20.5363 9.51549C20.537 9.51521 20.5377 9.51492 20.5384 9.51464C20.5391 9.51436 20.5398 9.51408 20.5405 9.5138C20.5412 9.51352 20.5419 9.51324 20.5426 9.51296C20.5433 9.51267 20.544 9.51239 20.5447 9.51211C20.5454 9.51183 20.5461 9.51155 20.5468 9.51127C20.5475 9.51099 20.5482 9.51071 20.5489 9.51042C20.5496 9.51014 20.5503 9.50986 20.551 9.50958C20.5517 9.5093 20.5524 9.50902 20.5531 9.50874C20.5539 9.50846 20.5546 9.50817 20.5553 9.50789C20.556 9.50761 20.5567 9.50733 20.5574 9.50705C20.5581 9.50677 20.5588 9.50649 20.5595 9.50621C20.5602 9.50592 20.5609 9.50564 20.5616 9.50536C20.5623 9.50508 20.563 9.5048 20.5637 9.50452C20.5644 9.50424 20.5651 9.50396 20.5658 9.50367C20.5665 9.50339 20.5672 9.50311 20.5679 9.50283C20.5686 9.50255 20.5693 9.50227 20.57 9.50199C20.5707 9.50171 20.5714 9.50142 20.5721 9.50114C20.5728 9.50086 20.5735 9.50058 20.5742 9.5003C20.5749 9.50002 20.5756 9.49974 20.5764 9.49946C20.5771 9.49917 20.5778 9.49889 20.5785 9.49861C20.5792 9.49833 20.5799 9.49805 20.5806 9.49777C20.5813 9.49749 20.582 9.49721 20.5827 9.49692C20.5834 9.49664 20.5841 9.49636 20.5848 9.49608C20.5855 9.4958 20.5862 9.49552 20.5869 9.49524C20.5876 9.49496 20.5883 9.49467 20.589 9.49439C20.5897 9.49411 20.5904 9.49383 20.5911 9.49355C20.5918 9.49327 20.5925 9.49299 20.5932 9.49271C20.5939 9.49242 20.5946 9.49214 20.5953 9.49186C20.596 9.49158 20.5967 9.4913 20.5974 9.49102C20.5981 9.49074 20.5989 9.49046 20.5996 9.49017C20.6003 9.48989 20.601 9.48961 20.6017 9.48933C20.6024 9.48905 20.6031 9.48877 20.6038 9.48849C20.6045 9.48821 20.6052 9.48792 20.6059 9.48764C20.6066 9.48736 20.6073 9.48708 20.608 9.4868C20.6087 9.48652 20.6094 9.48624 20.6101 9.48596C20.6108 9.48567 20.6115 9.48539 20.6122 9.48511C20.6129 9.48483 20.6136 9.48455 20.6143 9.48427C20.615 9.48399 20.6157 9.48371 20.6164 9.48342C20.6171 9.48314 20.6178 9.48286 20.6185 9.48258C20.6192 9.4823 20.6199 9.48202 20.6206 9.48174C20.6214 9.48146 20.6221 9.48117 20.6228 9.48089C20.6235 9.48061 20.6242 9.48033 20.6249 9.48005C20.6256 9.47977 20.6263 9.47949 20.627 9.47921C20.6277 9.47892 20.6284 9.47864 20.6291 9.47836C20.6298 9.47808 20.6305 9.4778 20.6312 9.47752C20.6319 9.47724 20.6326 9.47696 20.6333 9.47667C20.634 9.47639 20.6347 9.47611 20.6354 9.47583C20.6361 9.47555 20.6368 9.47527 20.6375 9.47499C20.6382 9.47471 20.6389 9.47442 20.6396 9.47414C20.6403 9.47386 20.641 9.47358 20.6417 9.4733C20.6424 9.47302 20.6431 9.47274 20.6439 9.47246C20.6446 9.47217 20.6453 9.47189 20.646 9.47161C20.6467 9.47133 20.6474 9.47105 20.6481 9.47077C20.6488 9.47049 20.6495 9.47021 20.6502 9.46992C20.6509 9.46964 20.6516 9.46936 20.6523 9.46908C20.653 9.4688 20.6537 9.46852 20.6544 9.46824C20.6551 9.46796 20.6558 9.46767 20.6565 9.46739C20.6572 9.46711 20.6579 9.46683 20.6586 9.46655C20.6593 9.46627 20.66 9.46599 20.6607 9.46571C20.6614 9.46542 20.6621 9.46514 20.6628 9.46486C20.6635 9.46458 20.6642 9.4643 20.6649 9.46402C20.6656 9.46374 20.6664 9.46346 20.6671 9.46317C20.6678 9.46289 20.6685 9.46261 20.6692 9.46233C20.6699 9.46205 20.6706 9.46177 20.6713 9.46149C20.672 9.46121 20.6727 9.46092 20.6734 9.46064C20.6741 9.46036 20.6748 9.46008 20.6755 9.4598C20.6762 9.45952 20.6769 9.45924 20.6776 9.45896C20.6783 9.45867 20.679 9.45839 20.6797 9.45811C20.6804 9.45783 20.6811 9.45755 20.6818 9.45727C20.6825 9.45699 20.6832 9.45671 20.6839 9.45642C20.6846 9.45614 20.6853 9.45586 20.686 9.45558C20.6867 9.4553 20.6874 9.45502 20.6881 9.45474C20.6889 9.45446 20.6896 9.45417 20.6903 9.45389C20.691 9.45361 20.6917 9.45333 20.6924 9.45305C20.6931 9.45277 20.6938 9.45249 20.6945 9.45221C20.6952 9.45192 20.6959 9.45164 20.6966 9.45136C20.6973 9.45108 20.698 9.4508 20.6987 9.45052C20.6994 9.45024 20.7001 9.44996 20.7008 9.44967C20.7015 9.44939 20.7022 9.44911 20.7029 9.44883C20.7036 9.44855 20.7043 9.44827 20.705 9.44799C20.7057 9.44771 20.7064 9.44742 20.7071 9.44714C20.7078 9.44686 20.7085 9.44658 20.7092 9.4463C20.7099 9.44602 20.7106 9.44574 20.7114 9.44546C20.7121 9.44517 20.7128 9.44489 20.7135 9.44461C20.7142 9.44433 20.7149 9.44405 20.7156 9.44377C20.7163 9.44349 20.717 9.44321 20.7177 9.44292C20.7184 9.44264 20.7191 9.44236 20.7198 9.44208C20.7205 9.4418 20.7212 9.44152 20.7219 9.44124C20.7226 9.44096 20.7233 9.44067 20.724 9.44039C20.7247 9.44011 20.7254 9.43983 20.7261 9.43955C20.7268 9.43927 20.7275 9.43899 20.7282 9.43871C20.7289 9.43842 20.7296 9.43814 20.7303 9.43786C20.731 9.43758 20.7317 9.4373 20.7324 9.43702C20.7331 9.43674 20.7339 9.43646 20.7346 9.43618C20.7353 9.43589 20.736 9.43561 20.7367 9.43533C20.7374 9.43505 20.7381 9.43477 20.7388 9.43449C20.7395 9.43421 20.7402 9.43393 20.7409 9.43364C20.7416 9.43336 20.7423 9.43308 20.743 9.4328C20.7437 9.43252 20.7444 9.43224 20.7451 9.43196C20.7458 9.43168 20.7465 9.43139 20.7472 9.43111C20.7479 9.43083 20.7486 9.43055 20.7493 9.43027C20.75 9.42999 20.7507 9.42971 20.7514 9.42943C20.7521 9.42914 20.7528 9.42886 20.7535 9.42858C20.7542 9.4283 20.7549 9.42802 20.7556 9.42774C20.7564 9.42746 20.7571 9.42718 20.7578 9.42689C20.7585 9.42661 20.7592 9.42633 20.7599 9.42605C20.7606 9.42577 20.7613 9.42549 20.762 9.42521C20.7627 9.42493 20.7634 9.42464 20.7641 9.42436C20.7648 9.42408 20.7655 9.4238 20.7662 9.42352C20.7669 9.42324 20.7676 9.42296 20.7683 9.42268C20.769 9.42239 20.7697 9.42211 20.7704 9.42183C20.7711 9.42155 20.7718 9.42127 20.7725 9.42099C20.7732 9.42071 20.7739 9.42043 20.7746 9.42014C20.7753 9.41986 20.776 9.41958 20.7767 9.4193C20.7774 9.41902 20.7781 9.41874 20.7789 9.41846C20.7796 9.41818 20.7803 9.41789 20.781 9.41761C20.7817 9.41733 20.7824 9.41705 20.7831 9.41677C20.7838 9.41649 20.7845 9.41621 20.7852 9.41593C20.7859 9.41564 20.7866 9.41536 20.7873 9.41508C20.788 9.4148 20.7887 9.41452 20.7894 9.41424C20.7901 9.41396 20.7908 9.41368 20.7915 9.41339C20.7922 9.41311 20.7929 9.41283 20.7936 9.41255C20.7943 9.41227 20.795 9.41199 20.7957 9.41171C20.7964 9.41143 20.7971 9.41114 20.7978 9.41086C20.7985 9.41058 20.7992 9.4103 20.7999 9.41002C20.8006 9.40974 20.8014 9.40946 20.8021 9.40918C20.8028 9.40889 20.8035 9.40861 20.8042 9.40833C20.8049 9.40805 20.8056 9.40777 20.8063 9.40749C20.807 9.40721 20.8077 9.40693 20.8084 9.40664C20.8091 9.40636 20.8098 9.40608 20.8105 9.4058C20.8112 9.40552 20.8119 9.40524 20.8126 9.40496C20.8133 9.40468 20.814 9.40439 20.8147 9.40411C20.8154 9.40383 20.8161 9.40355 20.8168 9.40327C20.8175 9.40299 20.8182 9.40271 20.8189 9.40243C20.8196 9.40214 20.8203 9.40186 20.821 9.40158C20.8217 9.4013 20.8224 9.40102 20.8231 9.40074C20.8239 9.40046 20.8246 9.40018 20.8253 9.39989C20.826 9.39961 20.8267 9.39933 20.8274 9.39905C20.8281 9.39877 20.8288 9.39849 20.8295 9.39821C20.8302 9.39793 20.8309 9.39764 20.8316 9.39736C20.8323 9.39708 20.833 9.3968 20.8337 9.39652C20.8344 9.39624 20.8351 9.39596 20.8358 9.39568C20.8365 9.39539 20.8372 9.39511 20.8379 9.39483C20.8386 9.39455 20.8393 9.39427 20.84 9.39399C20.8407 9.39371 20.8414 9.39343 20.8421 9.39314C20.8428 9.39286 20.8435 9.39258 20.8442 9.3923C20.8449 9.39202 20.8456 9.39174 20.8464 9.39146C20.8471 9.39118 20.8478 9.39089 20.8485 9.39061C20.8492 9.39033 20.8499 9.39005 20.8506 9.38977C20.8513 9.38949 20.852 9.38921 20.8527 9.38893C20.8534 9.38864 20.8541 9.38836 20.8548 9.38808C20.8555 9.3878 20.8562 9.38752 20.8569 9.38724C20.8576 9.38696 20.8583 9.38668 20.859 9.38639C20.8597 9.38611 20.8604 9.38583 20.8611 9.38555C20.8618 9.38527 20.8625 9.38499 20.8632 9.38471C20.8639 9.38443 20.8646 9.38414 20.8653 9.38386C20.866 9.38358 20.8667 9.3833 20.8674 9.38302C20.8681 9.38274 20.8689 9.38246 20.8696 9.38218C20.8703 9.38189 20.871 9.38161 20.8717 9.38133C20.8724 9.38105 20.8731 9.38077 20.8738 9.38049C20.8745 9.38021 20.8752 9.37993 20.8759 9.37964C20.8766 9.37936 20.8773 9.37908 20.878 9.3788C20.8787 9.37852 20.8794 9.37824 20.8801 9.37796C20.8808 9.37768 20.8815 9.37739 20.8822 9.37711C20.8829 9.37683 20.8836 9.37655 20.8843 9.37627C20.885 9.37599 20.8857 9.37571 20.8864 9.37543C20.8871 9.37514 20.8878 9.37486 20.8885 9.37458C20.8892 9.3743 20.8899 9.37402 20.8906 9.37374C20.8914 9.37346 20.8921 9.37318 20.8928 9.37289C20.8935 9.37261 20.8942 9.37233 20.8949 9.37205C20.8956 9.37177 20.8963 9.37149 20.897 9.37121C20.8977 9.37093 20.8984 9.37064 20.8991 9.37036C20.8998 9.37008 20.9005 9.3698 20.9012 9.36952C20.9019 9.36924 20.9026 9.36896 20.9033 9.36868C20.904 9.36839 20.9047 9.36811 20.9054 9.36783C20.9061 9.36755 20.9068 9.36727 20.9075 9.36699C20.9082 9.36671 20.9089 9.36643 20.9096 9.36614C20.9103 9.36586 20.911 9.36558 20.9117 9.3653C20.9124 9.36502 20.9131 9.36474 20.9139 9.36446C20.9146 9.36418 20.9153 9.36389 20.916 9.36361C20.9167 9.36333 20.9174 9.36305 20.9181 9.36277C20.9188 9.36249 20.9195 9.36221 20.9202 9.36193C20.9209 9.36164 20.9216 9.36136 20.9223 9.36108C20.923 9.3608 20.9237 9.36052 20.9244 9.36024C20.9251 9.35996 20.9258 9.35968 20.9265 9.35939C20.9272 9.35911 20.9279 9.35883 20.9286 9.35855C20.9293 9.35827 20.93 9.35799 20.9307 9.35771C20.9314 9.35743 20.9321 9.35714 20.9328 9.35686C20.9335 9.35658 20.9342 9.3563 20.9349 9.35602C20.9356 9.35574 20.9364 9.35546 20.9371 9.35518C20.9378 9.35489 20.9385 9.35461 20.9392 9.35433C20.9399 9.35405 20.9406 9.35377 20.9413 9.35349C20.942 9.35321 20.9427 9.35293 20.9434 9.35264C20.9441 9.35236 20.9448 9.35208 20.9455 9.3518C20.9462 9.35152 20.9469 9.35124 20.9476 9.35096C20.9483 9.35068 20.949 9.35039 20.9497 9.35011C20.9504 9.34983 20.9511 9.34955 20.9518 9.34927C20.9525 9.34899 20.9532 9.34871 20.9539 9.34843C20.9546 9.34814 20.9553 9.34786 20.956 9.34758C20.9567 9.3473 20.9574 9.34702 20.9581 9.34674C20.9589 9.34646 20.9596 9.34618 20.9603 9.34589C20.961 9.34561 20.9617 9.34533 20.9624 9.34505C20.9631 9.34477 20.9638 9.34449 20.9645 9.34421C20.9652 9.34393 20.9659 9.34364 20.9666 9.34336C20.9673 9.34308 20.968 9.3428 20.9687 9.34252C20.9694 9.34224 20.9701 9.34196 20.9708 9.34168C20.9715 9.34139 20.9722 9.34111 20.9729 9.34083C20.9736 9.34055 20.9743 9.34027 20.975 9.33999C20.9757 9.33971 20.9764 9.33943 20.9771 9.33914C20.9778 9.33886 20.9785 9.33858 20.9792 9.3383C20.9799 9.33802 20.9806 9.33774 20.9814 9.33746C20.9821 9.33718 20.9828 9.33689 20.9835 9.33661C20.9842 9.33633 20.9849 9.33605 20.9856 9.33577C20.9863 9.33549 20.987 9.33521 20.9877 9.33493C20.9884 9.33464 20.9891 9.33436 20.9898 9.33408C20.9905 9.3338 20.9912 9.33352 20.9919 9.33324C20.9926 9.33296 20.9933 9.33268 20.994 9.33239C20.9947 9.33211 20.9954 9.33183 20.9961 9.33155C20.9968 9.33127 20.9975 9.33099 20.9982 9.33071C20.9989 9.33043 20.9996 9.33014 21.0003 9.32986C21.001 9.32958 21.0017 9.3293 21.0024 9.32902C21.0031 9.32874 21.0039 9.32846 21.0046 9.32818C21.0053 9.32789 21.006 9.32761 21.0067 9.32733C21.0074 9.32705 21.0081 9.32677 21.0088 9.32649C21.0095 9.32621 21.0102 9.32593 21.0109 9.32564C21.0116 9.32536 21.0123 9.32508 21.013 9.3248C21.0137 9.32452 21.0144 9.32424 21.0151 9.32396C21.0158 9.32368 21.0165 9.32339 21.0172 9.32311C21.0179 9.32283 21.0186 9.32255 21.0193 9.32227C21.02 9.32199 21.0207 9.32171 21.0214 9.32143C21.0221 9.32114 21.0228 9.32086 21.0235 9.32058C21.0242 9.3203 21.0249 9.32002 21.0256 9.31974C21.0264 9.31946 21.0271 9.31918 21.0278 9.31889C21.0285 9.31861 21.0292 9.31833 21.0299 9.31805C21.0306 9.31777 21.0313 9.31749 21.032 9.31721C21.0327 9.31693 21.0334 9.31664 21.0341 9.31636C21.0348 9.31608 21.0355 9.3158 21.0362 9.31552C21.0369 9.31524 21.0376 9.31496 21.0383 9.31468C21.039 9.31439 21.0397 9.31411 21.0404 9.31383C21.0411 9.31355 21.0418 9.31327 21.0425 9.31299C21.0432 9.31271 21.0439 9.31243 21.0446 9.31214C21.0453 9.31186 21.046 9.31158 21.0467 9.3113C21.0474 9.31102 21.0481 9.31074 21.0489 9.31046C21.0496 9.31018 21.0503 9.30989 21.051 9.30961C21.0517 9.30933 21.0524 9.30905 21.0531 9.30877C21.0538 9.30849 21.0545 9.30821 21.0552 9.30793C21.0559 9.30764 21.0566 9.30736 21.0573 9.30708C21.058 9.3068 21.0587 9.30652 21.0594 9.30624C21.0601 9.30596 21.0608 9.30568 21.0615 9.30539C21.0622 9.30511 21.0629 9.30483 21.0636 9.30455C21.0643 9.30427 21.065 9.30399 21.0657 9.30371C21.0664 9.30343 21.0671 9.30314 21.0678 9.30286C21.0685 9.30258 21.0692 9.3023 21.0699 9.30202C21.0706 9.30174 21.0714 9.30146 21.0721 9.30118C21.0728 9.30089 21.0735 9.30061 21.0742 9.30033C21.0749 9.30005 21.0756 9.29977 21.0763 9.29949C21.077 9.29921 21.0777 9.29893 21.0784 9.29864C21.0791 9.29836 21.0798 9.29808 21.0805 9.2978C21.0812 9.29752 21.0819 9.29724 21.0826 9.29696C21.0833 9.29668 21.084 9.29639 21.0847 9.29611C21.0854 9.29583 21.0861 9.29555 21.0868 9.29527C21.0875 9.29499 21.0882 9.29471 21.0889 9.29443C21.0896 9.29414 21.0903 9.29386 21.091 9.29358C21.0917 9.2933 21.0924 9.29302 21.0931 9.29274C21.0939 9.29246 21.0946 9.29218 21.0953 9.29189C21.096 9.29161 21.0967 9.29133 21.0974 9.29105C21.0981 9.29077 21.0988 9.29049 21.0995 9.29021C21.1002 9.28993 21.1009 9.28964 21.1016 9.28936C21.1023 9.28908 21.103 9.2888 21.1037 9.28852C21.1044 9.28824 21.1051 9.28796 21.1058 9.28768C21.1065 9.28739 21.1072 9.28711 21.1079 9.28683C21.1086 9.28655 21.1093 9.28627 21.11 9.28599C21.1107 9.28571 21.1114 9.28543 21.1121 9.28514C21.1128 9.28486 21.1135 9.28458 21.1142 9.2843C21.1149 9.28402 21.1156 9.28374 21.1164 9.28346C21.1171 9.28318 21.1178 9.28289 21.1185 9.28261C21.1192 9.28233 21.1199 9.28205 21.1206 9.28177C21.1213 9.28149 21.122 9.28121 21.1227 9.28093C21.1234 9.28064 21.1241 9.28036 21.1248 9.28008C21.1255 9.2798 21.1262 9.27952 21.1269 9.27924C21.1276 9.27896 21.1283 9.27868 21.129 9.27839C21.1297 9.27811 21.1304 9.27783 21.1311 9.27755C21.1318 9.27727 21.1325 9.27699 21.1332 9.27671C21.1339 9.27643 21.1346 9.27614 21.1353 9.27586C21.136 9.27558 21.1367 9.2753 21.1374 9.27502C21.1381 9.27474 21.1389 9.27446 21.1396 9.27418C21.1403 9.27389 21.141 9.27361 21.1417 9.27333C21.1424 9.27305 21.1431 9.27277 21.1438 9.27249C21.1445 9.27221 21.1452 9.27193 21.1459 9.27164C21.1466 9.27136 21.1473 9.27108 21.148 9.2708C21.1487 9.27052 21.1494 9.27024 21.1501 9.26996C21.1508 9.26968 21.1515 9.26939 21.1522 9.26911C21.1529 9.26883 21.1536 9.26855 21.1543 9.26827C21.155 9.26799 21.1557 9.26771 21.1564 9.26743C21.1571 9.26714 21.1578 9.26686 21.1585 9.26658C21.1592 9.2663 21.1599 9.26602 21.1606 9.26574C21.1614 9.26546 21.1621 9.26518 21.1628 9.26489C21.1635 9.26461 21.1642 9.26433 21.1649 9.26405C21.1656 9.26377 21.1663 9.26349 21.167 9.26321C21.1677 9.26293 21.1684 9.26264 21.1691 9.26236C21.1698 9.26208 21.1705 9.2618 21.1712 9.26152C21.1719 9.26124 21.1726 9.26096 21.1733 9.26068C21.174 9.26039 21.1747 9.26011 21.1754 9.25983C21.1761 9.25955 21.1768 9.25927 21.1775 9.25899C21.1782 9.25871 21.1789 9.25843 21.1796 9.25814C21.1803 9.25786 21.181 9.25758 21.1817 9.2573C21.1824 9.25702 21.1831 9.25674 21.1839 9.25646C21.1846 9.25618 21.1853 9.25589 21.186 9.25561C21.1867 9.25533 21.1874 9.25505 21.1881 9.25477C21.1888 9.25449 21.1895 9.25421 21.1902 9.25393C21.1909 9.25364 21.1916 9.25336 21.1923 9.25308C21.193 9.2528 21.1937 9.25252 21.1944 9.25224C21.1951 9.25196 21.1958 9.25168 21.1965 9.25139C21.1972 9.25111 21.1979 9.25083 21.1986 9.25055C21.1993 9.25027 21.2 9.24999 21.2007 9.24971C21.2014 9.24943 21.2021 9.24914 21.2028 9.24886C21.2035 9.24858 21.2042 9.2483 21.2049 9.24802C21.2056 9.24774 21.2064 9.24746 21.2071 9.24718C21.2078 9.24689 21.2085 9.24661 21.2092 9.24633C21.2099 9.24605 21.2106 9.24577 21.2113 9.24549C21.212 9.24521 21.2127 9.24493 21.2134 9.24464C21.2141 9.24436 21.2148 9.24408 21.2155 9.2438C21.2162 9.24352 21.2169 9.24324 21.2176 9.24296C21.2183 9.24268 21.219 9.24239 21.2197 9.24211C21.2204 9.24183 21.2211 9.24155 21.2218 9.24127C21.2225 9.24099 21.2232 9.24071 21.2239 9.24043C21.2246 9.24014 21.2253 9.23986 21.226 9.23958C21.2267 9.2393 21.2274 9.23902 21.2281 9.23874C21.2289 9.23846 21.2296 9.23818 21.2303 9.23789C21.231 9.23761 21.2317 9.23733 21.2324 9.23705C21.2331 9.23677 21.2338 9.23649 21.2345 9.23621C21.2352 9.23593 21.2359 9.23564 21.2366 9.23536C21.2373 9.23508 21.238 9.2348 21.2387 9.23452C21.2394 9.23424 21.2401 9.23396 21.2408 9.23368C21.2415 9.23339 21.2422 9.23311 21.2429 9.23283C21.2436 9.23255 21.2443 9.23227 21.245 9.23199C21.2457 9.23171 21.2464 9.23143 21.2471 9.23114C21.2478 9.23086 21.2485 9.23058 21.2492 9.2303C21.2499 9.23002 21.2506 9.22974 21.2514 9.22946C21.2521 9.22918 21.2528 9.22889 21.2535 9.22861C21.2542 9.22833 21.2549 9.22805 21.2556 9.22777C21.2563 9.22749 21.257 9.22721 21.2577 9.22693C21.2584 9.22664 21.2591 9.22636 21.2598 9.22608C21.2605 9.2258 21.2612 9.22552 21.2619 9.22524C21.2626 9.22496 21.2633 9.22468 21.264 9.22439C21.2647 9.22411 21.2654 9.22383 21.2661 9.22355C21.2668 9.22327 21.2675 9.22299 21.2682 9.22271C21.2689 9.22243 21.2696 9.22214 21.2703 9.22186C21.271 9.22158 21.2717 9.2213 21.2724 9.22102C21.2731 9.22074 21.2739 9.22046 21.2746 9.22018C21.2753 9.21989 21.276 9.21961 21.2767 9.21933C21.2774 9.21905 21.2781 9.21877 21.2788 9.21849C21.2795 9.21821 21.2802 9.21793 21.2809 9.21764C21.2816 9.21736 21.2823 9.21708 21.283 9.2168C21.2837 9.21652 21.2844 9.21624 21.2851 9.21596C21.2858 9.21568 21.2865 9.21539 21.2872 9.21511C21.2879 9.21483 21.2886 9.21455 21.2893 9.21427C21.29 9.21399 21.2907 9.21371 21.2914 9.21343C21.2921 9.21314 21.2928 9.21286 21.2935 9.21258C21.2942 9.2123 21.2949 9.21202 21.2956 9.21174C21.2964 9.21146 21.2971 9.21118 21.2978 9.21089C21.2985 9.21061 21.2992 9.21033 21.2999 9.21005C21.3006 9.20977 21.3013 9.20949 21.302 9.20921C21.3027 9.20893 21.3034 9.20864 21.3041 9.20836C21.3048 9.20808 21.3055 9.2078 21.3062 9.20752C21.3069 9.20724 21.3076 9.20696 21.3083 9.20668C21.309 9.20639 21.3097 9.20611 21.3104 9.20583C21.3111 9.20555 21.3118 9.20527 21.3125 9.20499C21.3132 9.20471 21.3139 9.20443 21.3146 9.20414C21.3153 9.20386 21.316 9.20358 21.3167 9.2033C21.3174 9.20302 21.3181 9.20274 21.3189 9.20246C21.3196 9.20218 21.3203 9.20189 21.321 9.20161C21.3217 9.20133 21.3224 9.20105 21.3231 9.20077C21.3238 9.20049 21.3245 9.20021 21.3252 9.19993C21.3259 9.19964 21.3266 9.19936 21.3273 9.19908C21.328 9.1988 21.3287 9.19852 21.3294 9.19824C21.3301 9.19796 21.3308 9.19768 21.3315 9.19739C21.3322 9.19711 21.3329 9.19683 21.3336 9.19655C21.3343 9.19627 21.335 9.19599 21.3357 9.19571C21.3364 9.19543 21.3371 9.19514 21.3378 9.19486C21.3385 9.19458 21.3392 9.1943 21.3399 9.19402C21.3406 9.19374 21.3414 9.19346 21.3421 9.19318C21.3428 9.19289 21.3435 9.19261 21.3442 9.19233C21.3449 9.19205 21.3456 9.19177 21.3463 9.19149C21.347 9.19121 21.3477 9.19093 21.3484 9.19064C21.3491 9.19036 21.3498 9.19008 21.3505 9.1898C21.3512 9.18952 21.3519 9.18924 21.3526 9.18896C21.3533 9.18868 21.354 9.18839 21.3547 9.18811C21.3554 9.18783 21.3561 9.18755 21.3568 9.18727C21.3575 9.18699 21.3582 9.18671 21.3589 9.18643C21.3596 9.18614 21.3603 9.18586 21.361 9.18558C21.3617 9.1853 21.3624 9.18502 21.3631 9.18474C21.3639 9.18446 21.3646 9.18418 21.3653 9.18389C21.366 9.18361 21.3667 9.18333 21.3674 9.18305C21.3681 9.18277 21.3688 9.18249 21.3695 9.18221C21.3702 9.18193 21.3709 9.18164 21.3716 9.18136C21.3723 9.18108 21.373 9.1808 21.3737 9.18052C21.3744 9.18024 21.3751 9.17996 21.3758 9.17968C21.3765 9.17939 21.3772 9.17911 21.3779 9.17883C21.3786 9.17855 21.3793 9.17827 21.38 9.17799C21.3807 9.17771 21.3814 9.17743 21.3821 9.17714C21.3828 9.17686 21.3835 9.17658 21.3842 9.1763C21.3849 9.17602 21.3856 9.17574 21.3864 9.17546C21.3871 9.17518 21.3878 9.17489 21.3885 9.17461C21.3892 9.17433 21.3899 9.17405 21.3906 9.17377C21.3913 9.17349 21.392 9.17321 21.3927 9.17293C21.3934 9.17264 21.3941 9.17236 21.3948 9.17208C21.3955 9.1718 21.3962 9.17152 21.3969 9.17124C21.3976 9.17096 21.3983 9.17068 21.399 9.17039C21.3997 9.17011 21.4004 9.16983 21.4011 9.16955C21.4018 9.16927 21.4025 9.16899 21.4032 9.16871C21.4039 9.16843 21.4046 9.16814 21.4053 9.16786C21.406 9.16758 21.4067 9.1673 21.4074 9.16702C21.4081 9.16674 21.4089 9.16646 21.4096 9.16618C21.4103 9.16589 21.411 9.16561 21.4117 9.16533C21.4124 9.16505 21.4131 9.16477 21.4138 9.16449C21.4145 9.16421 21.4152 9.16393 21.4159 9.16364C21.4166 9.16336 21.4173 9.16308 21.418 9.1628C21.4187 9.16252 21.4194 9.16224 21.4201 9.16196C21.4208 9.16168 21.4215 9.16139 21.4222 9.16111C21.4229 9.16083 21.4236 9.16055 21.4243 9.16027C21.425 9.15999 21.4257 9.15971 21.4264 9.15943C21.4271 9.15914 21.4278 9.15886 21.4285 9.15858C21.4292 9.1583 21.4299 9.15802 21.4306 9.15774C21.4314 9.15746 21.4321 9.15718 21.4328 9.15689C21.4335 9.15661 21.4342 9.15633 21.4349 9.15605C21.4356 9.15577 21.4363 9.15549 21.437 9.15521C21.4377 9.15493 21.4384 9.15464 21.4391 9.15436C21.4398 9.15408 21.4405 9.1538 21.4412 9.15352C21.4419 9.15324 21.4426 9.15296 21.4433 9.15268C21.444 9.15239 21.4447 9.15211 21.4454 9.15183C21.4461 9.15155 21.4468 9.15127 21.4475 9.15099C21.4482 9.15071 21.4489 9.15043 21.4496 9.15014C21.4503 9.14986 21.451 9.14958 21.4517 9.1493C21.4524 9.14902 21.4531 9.14874 21.4539 9.14846C21.4546 9.14818 21.4553 9.14789 21.456 9.14761C21.4567 9.14733 21.4574 9.14705 21.4581 9.14677C21.4588 9.14649 21.4595 9.14621 21.4602 9.14593C21.4609 9.14564 21.4616 9.14536 21.4623 9.14508C21.463 9.1448 21.4637 9.14452 21.4644 9.14424L21.2787 8.68ZM20.1987 9.112L20.0017 8.65243C19.6579 8.79978 19.3369 8.94787 19.0391 9.09679L19.2627 9.544L19.4863 9.99121C19.7645 9.85213 20.0675 9.71222 20.3957 9.57157L20.1987 9.112ZM19.2627 9.544H19.7627V5.08H19.2627H18.7627V9.544H19.2627ZM19.2627 5.08L19.5021 5.51895C19.7584 5.37918 20.1242 5.19026 20.6023 4.95121L20.3787 4.504L20.1551 4.05678C19.6732 4.29774 19.295 4.49282 19.0233 4.64105L19.2627 5.08ZM20.3787 4.504L20.6197 4.94211C21.1016 4.67704 21.6193 4.38809 22.1727 4.07528L21.9267 3.64L21.6807 3.20472C21.1301 3.51591 20.6158 3.80295 20.1377 4.06589L20.3787 4.504ZM21.9267 3.64L22.1727 4.07528C22.7328 3.75873 23.2577 3.44141 23.7472 3.12322L23.4747 2.704L23.2022 2.28478C22.7317 2.59059 22.2246 2.89726 21.6807 3.20472L21.9267 3.64ZM23.4747 2.704L23.7614 3.11362C24.2508 2.77105 24.6381 2.46372 24.9083 2.19355L24.5547 1.84L24.2011 1.48645C23.9913 1.69628 23.6586 1.96495 23.188 2.29438L23.4747 2.704ZM24.5547 1.84V2.34H29.2707V1.84V1.34H24.5547V1.84ZM29.2707 1.84H28.7707V31H29.2707H29.7707V1.84H29.2707ZM29.2707 31V30.5H23.2587V31V31.5H29.2707V31Z" fill="black"/>
</svg>
