<svg width="50" height="101" viewBox="0 0 50 101" fill="none" xmlns="http://www.w3.org/2000/svg">
<path d="M50.5 101C43.8682 101 37.3014 99.6938 31.1745 97.1559C25.0475 94.6181 19.4805 90.8983 14.7911 86.2089C10.1017 81.5195 6.38195 75.9525 3.84408 69.8255C1.30622 63.6986 0 57.1318 0 50.5C0 43.8682 1.30622 37.3014 3.84408 31.1745C6.38195 25.0475 10.1017 19.4805 14.7911 14.7911C19.4805 10.1017 25.0475 6.38195 31.1745 3.84408C37.3014 1.30622 43.8682 -2.89883e-07 50.5 0L50.5 50.5L50.5 101Z" fill="#CE3439"/>
<path d="M17.9647 62.92L17.6974 63.3426L17.7019 63.3454L17.9647 62.92ZM14.1127 58.456L13.6622 58.6729L14.1127 58.456ZM14.1127 44.344L14.5632 44.5609L14.5632 44.5609L14.1127 44.344ZM17.9647 39.916L18.2274 40.3414L18.2319 40.3386L17.9647 39.916ZM29.0527 39.916L28.7826 40.3369L28.7899 40.3414L29.0527 39.916ZM32.9047 44.344L32.4542 44.5609L32.4542 44.5609L32.9047 44.344ZM32.9047 58.456L32.4542 58.2391L32.4542 58.2391L32.9047 58.456ZM29.0527 62.92L29.3183 63.3436L29.3199 63.3426L29.0527 62.92ZM26.0647 58.672L25.7667 58.2704L25.7605 58.2752L26.0647 58.672ZM27.7927 56.044L27.3222 55.8746L27.3193 55.883L27.7927 56.044ZM27.7927 46.756L27.3192 46.917L27.3222 46.9254L27.7927 46.756ZM26.0647 44.128L25.7604 44.5249L25.7668 44.5295L26.0647 44.128ZM20.9527 44.128L20.6547 43.7264L20.6485 43.7312L20.9527 44.128ZM19.2247 46.756L18.7542 46.5866L18.7513 46.595L19.2247 46.756ZM19.2247 56.044L18.7512 56.205L18.7542 56.2134L19.2247 56.044ZM20.9527 58.672L20.6484 59.0689L20.6548 59.0735L20.9527 58.672ZM23.5087 64.432V63.932C21.5302 63.932 19.7745 63.4501 18.2274 62.4946L17.9647 62.92L17.7019 63.3454C19.4189 64.4059 21.3592 64.932 23.5087 64.932V64.432ZM17.9647 62.92L18.2319 62.4974C16.6881 61.5212 15.4635 60.1089 14.5632 58.2391L14.1127 58.456L13.6622 58.6729C14.6339 60.6911 15.9773 62.2548 17.6975 63.3426L17.9647 62.92ZM14.1127 58.456L14.5632 58.2391C13.6676 56.3789 13.2087 54.1052 13.2087 51.4H12.7087H12.2087C12.2087 54.2148 12.6858 56.6451 13.6622 58.6729L14.1127 58.456ZM12.7087 51.4H13.2087C13.2087 48.6948 13.6676 46.4211 14.5632 44.5609L14.1127 44.344L13.6622 44.1271C12.6858 46.1549 12.2087 48.5852 12.2087 51.4H12.7087ZM14.1127 44.344L14.5632 44.5609C15.4631 42.6918 16.6865 41.2932 18.2274 40.3414L17.9647 39.916L17.7019 39.4906C15.9789 40.5548 14.6343 42.1082 13.6622 44.1271L14.1127 44.344ZM17.9647 39.916L18.2319 40.3386C19.7784 39.3607 21.5325 38.868 23.5087 38.868V38.368V37.868C21.3569 37.868 19.415 38.4073 17.6975 39.4934L17.9647 39.916ZM23.5087 38.368V38.868C25.5102 38.868 27.2626 39.3613 28.7826 40.3368L29.0527 39.916L29.3227 39.4952C27.6267 38.4067 25.6832 37.868 23.5087 37.868V38.368ZM29.0527 39.916L28.7899 40.3414C30.3309 41.2932 31.5543 42.6918 32.4542 44.5609L32.9047 44.344L33.3552 44.1271C32.3831 42.1082 31.0385 40.5548 29.3154 39.4906L29.0527 39.916ZM32.9047 44.344L32.4542 44.5609C33.3498 46.4211 33.8087 48.6948 33.8087 51.4H34.3087H34.8087C34.8087 48.5852 34.3316 46.1549 33.3552 44.1271L32.9047 44.344ZM34.3087 51.4H33.8087C33.8087 54.1052 33.3498 56.3789 32.4542 58.2391L32.9047 58.456L33.3552 58.6729C34.3316 56.6451 34.8087 54.2148 34.8087 51.4H34.3087ZM32.9047 58.456L32.4542 58.2391C31.5539 60.1089 30.3293 61.5212 28.7855 62.4974L29.0527 62.92L29.3199 63.3426C31.0401 62.2548 32.3835 60.6911 33.3552 58.6729L32.9047 58.456ZM29.0527 62.92L28.7871 62.4964C27.2666 63.4495 25.5125 63.932 23.5087 63.932V64.432V64.932C25.6809 64.932 27.6228 64.4065 29.3183 63.3436L29.0527 62.92ZM23.5087 59.5V60C24.5928 60 25.5541 59.6935 26.3689 59.0688L26.0647 58.672L25.7605 58.2752C25.1353 58.7545 24.3926 59 23.5087 59V59.5ZM26.0647 58.672L26.3626 59.0735C27.2132 58.4424 27.8371 57.4666 28.2661 56.205L27.7927 56.044L27.3193 55.883C26.9323 57.0214 26.4041 57.7976 25.7668 58.2705L26.0647 58.672ZM27.7927 56.044L28.2631 56.2134C28.7217 54.9394 28.9407 53.3284 28.9407 51.4H28.4407H27.9407C27.9407 53.2636 27.7276 54.7486 27.3222 55.8746L27.7927 56.044ZM28.4407 51.4H28.9407C28.9407 49.4716 28.7217 47.8606 28.2631 46.5866L27.7927 46.756L27.3222 46.9254C27.7276 48.0514 27.9407 49.5364 27.9407 51.4H28.4407ZM27.7927 46.756L28.2661 46.595C27.8371 45.3334 27.2132 44.3576 26.3626 43.7264L26.0647 44.128L25.7668 44.5295C26.4041 45.0024 26.9323 45.7786 27.3193 46.917L27.7927 46.756ZM26.0647 44.128L26.3689 43.7312C25.5541 43.1065 24.5928 42.8 23.5087 42.8V43.3V43.8C24.3926 43.8 25.1353 44.0455 25.7605 44.5248L26.0647 44.128ZM23.5087 43.3V42.8C22.4456 42.8 21.4882 43.1081 20.6548 43.7264L20.9527 44.128L21.2506 44.5295C21.9052 44.0439 22.6518 43.8 23.5087 43.8V43.3ZM20.9527 44.128L20.6485 43.7312C19.8274 44.3607 19.2061 45.3315 18.7542 46.5866L19.2247 46.756L19.6951 46.9254C20.1073 45.7805 20.6379 44.9993 21.2569 44.5248L20.9527 44.128ZM19.2247 46.756L18.7513 46.595C18.3192 47.8658 18.1127 49.4736 18.1127 51.4H18.6127H19.1127C19.1127 49.5344 19.3141 48.0462 19.6981 46.917L19.2247 46.756ZM18.6127 51.4H18.1127C18.1127 53.3264 18.3192 54.9342 18.7513 56.205L19.2247 56.044L19.6981 55.883C19.3141 54.7538 19.1127 53.2656 19.1127 51.4H18.6127ZM19.2247 56.044L18.7542 56.2134C19.2061 57.4685 19.8274 58.4393 20.6485 59.0688L20.9527 58.672L21.2569 58.2752C20.6379 57.8007 20.1073 57.0195 19.6951 55.8746L19.2247 56.044ZM20.9527 58.672L20.6548 59.0735C21.4882 59.6919 22.4456 60 23.5087 60V59.5V59C22.6518 59 21.9052 58.7561 21.2506 58.2705L20.9527 58.672ZM40.8897 64H40.3897V64.5H40.8897V64ZM40.8897 40.96L41.2432 40.6064L40.3897 39.7529V40.96H40.8897ZM43.4097 43.48V43.98H44.6168L43.7632 43.1264L43.4097 43.48ZM35.8497 43.48H35.3497V43.98H35.8497V43.48ZM35.8497 38.8V38.3H35.3497V38.8H35.8497ZM46.7217 38.8H47.2217V38.3H46.7217V38.8ZM46.7217 64V64.5H47.2217V64H46.7217ZM40.8897 64H41.3897V40.96H40.8897H40.3897V64H40.8897ZM40.8897 40.96L40.5361 41.3136L43.0561 43.8336L43.4097 43.48L43.7632 43.1264L41.2432 40.6064L40.8897 40.96ZM43.4097 43.48V42.98H35.8497V43.48V43.98H43.4097V43.48ZM35.8497 43.48H36.3497V38.8H35.8497H35.3497V43.48H35.8497ZM35.8497 38.8V39.3H46.7217V38.8V38.3H35.8497V38.8ZM46.7217 38.8H46.2217V64H46.7217H47.2217V38.8H46.7217ZM46.7217 64V63.5H40.8897V64V64.5H46.7217V64Z" fill="white"/>
</svg>
