<svg width="46" height="29" viewBox="0 0 46 29" fill="none" xmlns="http://www.w3.org/2000/svg">
<mask id="path-1-outside-1_78_68" maskUnits="userSpaceOnUse" x="0" y="0" width="46" height="29" fill="black">
<rect fill="white" width="46" height="29"/>
<path d="M12.4403 27.432C10.3763 27.432 8.52833 26.928 6.89633 25.92C5.26433 24.888 3.98033 23.4 3.04433 21.456C2.10833 19.512 1.64033 17.16 1.64033 14.4C1.64033 11.64 2.10833 9.288 3.04433 7.344C3.98033 5.4 5.26433 3.924 6.89633 2.916C8.52833 1.884 10.3763 1.368 12.4403 1.368C14.5283 1.368 16.3763 1.884 17.9843 2.916C19.6163 3.924 20.9003 5.4 21.8363 7.344C22.7723 9.288 23.2403 11.64 23.2403 14.4C23.2403 17.16 22.7723 19.512 21.8363 21.456C20.9003 23.4 19.6163 24.888 17.9843 25.92C16.3763 26.928 14.5283 27.432 12.4403 27.432ZM12.4403 22.5C13.4243 22.5 14.2763 22.224 14.9963 21.672C15.7403 21.12 16.3163 20.244 16.7243 19.044C17.1563 17.844 17.3723 16.296 17.3723 14.4C17.3723 12.504 17.1563 10.956 16.7243 9.756C16.3163 8.556 15.7403 7.68 14.9963 7.128C14.2763 6.576 13.4243 6.3 12.4403 6.3C11.4803 6.3 10.6283 6.576 9.88433 7.128C9.16433 7.68 8.58833 8.556 8.15633 9.756C7.74833 10.956 7.54433 12.504 7.54433 14.4C7.54433 16.296 7.74833 17.844 8.15633 19.044C8.58833 20.244 9.16433 21.12 9.88433 21.672C10.6283 22.224 11.4803 22.5 12.4403 22.5ZM25.7173 27V23.22L35.4373 14.04C36.2053 13.344 36.7693 12.72 37.1293 12.168C37.4893 11.616 37.7293 11.112 37.8493 10.656C37.9933 10.2 38.0653 9.78 38.0653 9.396C38.0653 8.388 37.7173 7.62 37.0213 7.092C36.3493 6.54 35.3533 6.264 34.0333 6.264C32.9773 6.264 31.9933 6.468 31.0813 6.876C30.1933 7.284 29.4373 7.92 28.8133 8.784L24.5653 6.048C25.5253 4.608 26.8693 3.468 28.5973 2.628C30.3253 1.788 32.3173 1.368 34.5733 1.368C36.4453 1.368 38.0773 1.68 39.4693 2.304C40.8853 2.904 41.9773 3.756 42.7453 4.86C43.5373 5.964 43.9333 7.284 43.9333 8.82C43.9333 9.636 43.8253 10.452 43.6093 11.268C43.4173 12.06 43.0093 12.9 42.3853 13.788C41.7853 14.676 40.8973 15.672 39.7213 16.776L31.6573 24.372L30.5413 22.248H44.7613V27H25.7173Z"/>
</mask>
<path d="M12.4403 27.432C10.3763 27.432 8.52833 26.928 6.89633 25.92C5.26433 24.888 3.98033 23.4 3.04433 21.456C2.10833 19.512 1.64033 17.16 1.64033 14.4C1.64033 11.64 2.10833 9.288 3.04433 7.344C3.98033 5.4 5.26433 3.924 6.89633 2.916C8.52833 1.884 10.3763 1.368 12.4403 1.368C14.5283 1.368 16.3763 1.884 17.9843 2.916C19.6163 3.924 20.9003 5.4 21.8363 7.344C22.7723 9.288 23.2403 11.64 23.2403 14.4C23.2403 17.16 22.7723 19.512 21.8363 21.456C20.9003 23.4 19.6163 24.888 17.9843 25.92C16.3763 26.928 14.5283 27.432 12.4403 27.432ZM12.4403 22.5C13.4243 22.5 14.2763 22.224 14.9963 21.672C15.7403 21.12 16.3163 20.244 16.7243 19.044C17.1563 17.844 17.3723 16.296 17.3723 14.4C17.3723 12.504 17.1563 10.956 16.7243 9.756C16.3163 8.556 15.7403 7.68 14.9963 7.128C14.2763 6.576 13.4243 6.3 12.4403 6.3C11.4803 6.3 10.6283 6.576 9.88433 7.128C9.16433 7.68 8.58833 8.556 8.15633 9.756C7.74833 10.956 7.54433 12.504 7.54433 14.4C7.54433 16.296 7.74833 17.844 8.15633 19.044C8.58833 20.244 9.16433 21.12 9.88433 21.672C10.6283 22.224 11.4803 22.5 12.4403 22.5ZM25.7173 27V23.22L35.4373 14.04C36.2053 13.344 36.7693 12.72 37.1293 12.168C37.4893 11.616 37.7293 11.112 37.8493 10.656C37.9933 10.2 38.0653 9.78 38.0653 9.396C38.0653 8.388 37.7173 7.62 37.0213 7.092C36.3493 6.54 35.3533 6.264 34.0333 6.264C32.9773 6.264 31.9933 6.468 31.0813 6.876C30.1933 7.284 29.4373 7.92 28.8133 8.784L24.5653 6.048C25.5253 4.608 26.8693 3.468 28.5973 2.628C30.3253 1.788 32.3173 1.368 34.5733 1.368C36.4453 1.368 38.0773 1.68 39.4693 2.304C40.8853 2.904 41.9773 3.756 42.7453 4.86C43.5373 5.964 43.9333 7.284 43.9333 8.82C43.9333 9.636 43.8253 10.452 43.6093 11.268C43.4173 12.06 43.0093 12.9 42.3853 13.788C41.7853 14.676 40.8973 15.672 39.7213 16.776L31.6573 24.372L30.5413 22.248H44.7613V27H25.7173Z" fill="white"/>
<path d="M6.89633 25.92L6.36184 26.7652L6.37084 26.7708L6.89633 25.92ZM3.04433 21.456L2.14333 21.8898L3.04433 21.456ZM3.04433 7.344L3.94533 7.77782L3.94533 7.77782L3.04433 7.344ZM6.89633 2.916L7.42185 3.76684L7.43079 3.76119L6.89633 2.916ZM17.9843 2.916L17.4442 3.75759L17.4515 3.76225L17.4588 3.7668L17.9843 2.916ZM21.8363 7.344L20.9353 7.77782L20.9353 7.77782L21.8363 7.344ZM21.8363 21.456L20.9353 21.0222L20.9353 21.0222L21.8363 21.456ZM17.9843 25.92L18.5155 26.7673L18.5188 26.7652L17.9843 25.92ZM14.9963 21.672L14.4005 20.8689L14.3942 20.8736L14.3879 20.8784L14.9963 21.672ZM16.7243 19.044L15.7834 18.7053L15.7804 18.7137L15.7776 18.7221L16.7243 19.044ZM16.7243 9.756L15.7776 10.0779L15.7804 10.0863L15.7834 10.0947L16.7243 9.756ZM14.9963 7.128L14.3879 7.9216L14.3942 7.9264L14.4005 7.9311L14.9963 7.128ZM9.88433 7.128L9.28848 6.3249L9.28215 6.3296L9.2759 6.33439L9.88433 7.128ZM8.15633 9.756L7.21544 9.41728L7.21242 9.42566L7.20956 9.4341L8.15633 9.756ZM8.15633 19.044L7.20956 19.3659L7.21242 19.3743L7.21544 19.3827L8.15633 19.044ZM9.88433 21.672L9.2759 22.4656L9.28215 22.4704L9.28848 22.4751L9.88433 21.672ZM12.4403 27.432V26.432C10.5473 26.432 8.88387 25.9722 7.42182 25.0692L6.89633 25.92L6.37084 26.7708C8.17279 27.8838 10.2054 28.432 12.4403 28.432V27.432ZM6.89633 25.92L7.43079 25.0748C5.97519 24.1544 4.80991 22.8178 3.94533 21.0222L3.04433 21.456L2.14333 21.8898C3.15075 23.9822 4.55347 25.6216 6.36187 26.7652L6.89633 25.92ZM3.04433 21.456L3.94533 21.0222C3.09005 19.2458 2.64033 17.0504 2.64033 14.4H1.64033H0.640328C0.640328 17.2696 1.1266 19.7782 2.14333 21.8898L3.04433 21.456ZM1.64033 14.4H2.64033C2.64033 11.7496 3.09005 9.55416 3.94533 7.77782L3.04433 7.344L2.14333 6.91018C1.1266 9.02184 0.640328 11.5304 0.640328 14.4H1.64033ZM3.04433 7.344L3.94533 7.77782C4.80917 5.98368 5.97192 4.66233 7.42182 3.7668L6.89633 2.916L6.37084 2.0652C4.55674 3.18567 3.15148 4.81632 2.14333 6.91018L3.04433 7.344ZM6.89633 2.916L7.43079 3.76119C8.89174 2.83736 10.5519 2.368 12.4403 2.368V1.368V0.368C10.2007 0.368 8.16492 0.930641 6.36187 2.07081L6.89633 2.916ZM12.4403 1.368V2.368C14.3553 2.368 16.0122 2.83856 17.4442 3.75759L17.9843 2.916L18.5245 2.07441C16.7404 0.929438 14.7014 0.368 12.4403 0.368V1.368ZM17.9843 2.916L17.4588 3.7668C18.9087 4.66233 20.0715 5.98368 20.9353 7.77782L21.8363 7.344L22.7373 6.91018C21.7292 4.81632 20.3239 3.18567 18.5098 2.0652L17.9843 2.916ZM21.8363 7.344L20.9353 7.77782C21.7906 9.55416 22.2403 11.7496 22.2403 14.4H23.2403H24.2403C24.2403 11.5304 23.7541 9.02184 22.7373 6.91018L21.8363 7.344ZM23.2403 14.4H22.2403C22.2403 17.0504 21.7906 19.2458 20.9353 21.0222L21.8363 21.456L22.7373 21.8898C23.7541 19.7782 24.2403 17.2696 24.2403 14.4H23.2403ZM21.8363 21.456L20.9353 21.0222C20.0708 22.8178 18.9055 24.1544 17.4499 25.0748L17.9843 25.92L18.5188 26.7652C20.3272 25.6216 21.7299 23.9822 22.7373 21.8898L21.8363 21.456ZM17.9843 25.92L17.4532 25.0727C16.0201 25.9711 14.3599 26.432 12.4403 26.432V27.432V28.432C14.6967 28.432 16.7325 27.8849 18.5155 26.7673L17.9843 25.92ZM12.4403 22.5V23.5C13.6245 23.5 14.6951 23.163 15.6048 22.4656L14.9963 21.672L14.3879 20.8784C13.8576 21.285 13.2241 21.5 12.4403 21.5V22.5ZM14.9963 21.672L15.5922 22.4751C16.5494 21.7649 17.2212 20.6892 17.6711 19.3659L16.7243 19.044L15.7776 18.7221C15.4115 19.7988 14.9312 20.4751 14.4005 20.8689L14.9963 21.672ZM16.7243 19.044L17.6652 19.3827C18.1504 18.0349 18.3723 16.3608 18.3723 14.4H17.3723H16.3723C16.3723 16.2312 16.1622 17.6531 15.7834 18.7053L16.7243 19.044ZM17.3723 14.4H18.3723C18.3723 12.4392 18.1504 10.7651 17.6652 9.41728L16.7243 9.756L15.7834 10.0947C16.1622 11.1469 16.3723 12.5688 16.3723 14.4H17.3723ZM16.7243 9.756L17.6711 9.4341C17.2212 8.1108 16.5494 7.03511 15.5922 6.3249L14.9963 7.128L14.4005 7.9311C14.9312 8.32489 15.4115 9.00119 15.7776 10.0779L16.7243 9.756ZM14.9963 7.128L15.6048 6.33439C14.6951 5.63699 13.6245 5.3 12.4403 5.3V6.3V7.3C13.2241 7.3 13.8576 7.51501 14.3879 7.9216L14.9963 7.128ZM12.4403 6.3V5.3C11.2741 5.3 10.2114 5.64015 9.28848 6.3249L9.88433 7.128L10.4802 7.9311C11.0453 7.51184 11.6866 7.3 12.4403 7.3V6.3ZM9.88433 7.128L9.2759 6.33439C8.35382 7.04132 7.68713 8.10704 7.21544 9.41728L8.15633 9.756L9.09722 10.0947C9.48953 9.00496 9.97484 8.31868 10.4928 7.9216L9.88433 7.128ZM8.15633 9.756L7.20956 9.4341C6.75344 10.7756 6.54433 12.4433 6.54433 14.4H7.54433H8.54433C8.54433 12.5647 8.74321 11.1364 9.1031 10.0779L8.15633 9.756ZM7.54433 14.4H6.54433C6.54433 16.3567 6.75344 18.0244 7.20956 19.3659L8.15633 19.044L9.1031 18.7221C8.74321 17.6636 8.54433 16.2353 8.54433 14.4H7.54433ZM8.15633 19.044L7.21544 19.3827C7.68713 20.693 8.35382 21.7587 9.2759 22.4656L9.88433 21.672L10.4928 20.8784C9.97484 20.4813 9.48953 19.795 9.09722 18.7053L8.15633 19.044ZM9.88433 21.672L9.28848 22.4751C10.2114 23.1598 11.2741 23.5 12.4403 23.5V22.5V21.5C11.6866 21.5 11.0453 21.2882 10.4802 20.8689L9.88433 21.672ZM25.7173 27H24.7173V28H25.7173V27ZM25.7173 23.22L25.0307 22.493L24.7173 22.789V23.22H25.7173ZM35.4373 14.04L34.7658 13.299L34.7582 13.3059L34.7507 13.313L35.4373 14.04ZM37.1293 12.168L37.9669 12.7143L37.9669 12.7143L37.1293 12.168ZM37.8493 10.656L36.8957 10.3549L36.8884 10.378L36.8822 10.4015L37.8493 10.656ZM37.0213 7.092L36.3866 7.86473L36.4015 7.877L36.4169 7.88869L37.0213 7.092ZM31.0813 6.876L30.6729 5.96314L30.6638 5.96732L31.0813 6.876ZM28.8133 8.784L28.2718 9.62471L29.0689 10.1381L29.624 9.36949L28.8133 8.784ZM24.5653 6.048L23.7332 5.4933L23.1697 6.33861L24.0238 6.88871L24.5653 6.048ZM28.5973 2.628L28.1601 1.72863L28.1601 1.72863L28.5973 2.628ZM39.4693 2.304L39.0602 3.21651L39.0697 3.22073L39.0791 3.22475L39.4693 2.304ZM42.7453 4.86L41.9244 5.43106L41.9285 5.43702L41.9328 5.44291L42.7453 4.86ZM43.6093 11.268L42.6426 11.0121L42.6399 11.0222L42.6374 11.0324L43.6093 11.268ZM42.3853 13.788L41.5671 13.2131L41.5618 13.2206L41.5567 13.2281L42.3853 13.788ZM39.7213 16.776L39.0369 16.0469L39.0356 16.0481L39.7213 16.776ZM31.6573 24.372L30.7721 24.8371L31.3845 26.0028L32.343 25.0999L31.6573 24.372ZM30.5413 22.248V21.248H28.8862L29.6561 22.7131L30.5413 22.248ZM44.7613 22.248H45.7613V21.248H44.7613V22.248ZM44.7613 27V28H45.7613V27H44.7613ZM25.7173 27H26.7173V23.22H25.7173H24.7173V27H25.7173ZM25.7173 23.22L26.4039 23.947L36.1239 14.767L35.4373 14.04L34.7507 13.313L25.0307 22.493L25.7173 23.22ZM35.4373 14.04L36.1088 14.781C36.9085 14.0563 37.5414 13.3668 37.9669 12.7143L37.1293 12.168L36.2917 11.6217C35.9972 12.0732 35.5021 12.6317 34.7658 13.299L35.4373 14.04ZM37.1293 12.168L37.9669 12.7143C38.364 12.1054 38.6607 11.5022 38.8164 10.9105L37.8493 10.656L36.8822 10.4015C36.7979 10.7218 36.6146 11.1266 36.2917 11.6217L37.1293 12.168ZM37.8493 10.656L38.8029 10.9571C38.9704 10.4266 39.0653 9.90363 39.0653 9.396H38.0653H37.0653C37.0653 9.65637 37.0162 9.97344 36.8957 10.3549L37.8493 10.656ZM38.0653 9.396H39.0653C39.0653 8.12982 38.6114 7.04313 37.6257 6.29531L37.0213 7.092L36.4169 7.88869C36.8232 8.19687 37.0653 8.64618 37.0653 9.396H38.0653ZM37.0213 7.092L37.656 6.31927C36.733 5.56108 35.4701 5.264 34.0333 5.264V6.264V7.264C35.2365 7.264 35.9656 7.51891 36.3866 7.86473L37.0213 7.092ZM34.0333 6.264V5.264C32.8447 5.264 31.7207 5.49446 30.6729 5.96318L31.0813 6.876L31.4897 7.78882C32.2659 7.44154 33.1099 7.264 34.0333 7.264V6.264ZM31.0813 6.876L30.6638 5.96732C29.6051 6.45376 28.7182 7.20769 28.0026 8.19851L28.8133 8.784L29.624 9.36949C30.1564 8.6323 30.7815 8.11424 31.4988 7.78468L31.0813 6.876ZM28.8133 8.784L29.3548 7.94328L25.1068 5.20728L24.5653 6.048L24.0238 6.88871L28.2718 9.62471L28.8133 8.784ZM24.5653 6.048L25.3973 6.6027C26.2481 5.32652 27.4483 4.29841 29.0345 3.52737L28.5973 2.628L28.1601 1.72863C26.2903 2.63758 24.8025 3.88947 23.7332 5.4933L24.5653 6.048ZM28.5973 2.628L29.0345 3.52737C30.6045 2.76418 32.4425 2.368 34.5733 2.368V1.368V0.368C32.1921 0.368 30.0461 0.811823 28.1601 1.72863L28.5973 2.628ZM34.5733 1.368V2.368C36.3356 2.368 37.8227 2.66173 39.0602 3.21651L39.4693 2.304L39.8784 1.39149C38.3319 0.69827 36.555 0.368 34.5733 0.368V1.368ZM39.4693 2.304L39.0791 3.22475C40.347 3.76197 41.2789 4.50321 41.9244 5.43106L42.7453 4.86L43.5662 4.28894C42.6757 3.00879 41.4236 2.04603 39.8594 1.38325L39.4693 2.304ZM42.7453 4.86L41.9328 5.44291C42.5873 6.35526 42.9333 7.4647 42.9333 8.82H43.9333H44.9333C44.9333 7.1033 44.4873 5.57274 43.5578 4.27709L42.7453 4.86ZM43.9333 8.82H42.9333C42.9333 9.54669 42.8373 10.2767 42.6426 11.0121L43.6093 11.268L44.576 11.5239C44.8133 10.6273 44.9333 9.72531 44.9333 8.82H43.9333ZM43.6093 11.268L42.6374 11.0324C42.483 11.6696 42.1416 12.3955 41.5671 13.2131L42.3853 13.788L43.2035 14.3629C43.877 13.4045 44.3516 12.4504 44.5811 11.5036L43.6093 11.268ZM42.3853 13.788L41.5567 13.2281C41.0135 14.032 40.1829 14.971 39.0369 16.0469L39.7213 16.776L40.4057 17.5051C41.6116 16.373 42.557 15.32 43.2139 14.3479L42.3853 13.788ZM39.7213 16.776L39.0356 16.0481L30.9716 23.6441L31.6573 24.372L32.343 25.0999L40.407 17.5039L39.7213 16.776ZM31.6573 24.372L32.5425 23.9069L31.4265 21.7829L30.5413 22.248L29.6561 22.7131L30.7721 24.8371L31.6573 24.372ZM30.5413 22.248V23.248H44.7613V22.248V21.248H30.5413V22.248ZM44.7613 22.248H43.7613V27H44.7613H45.7613V22.248H44.7613ZM44.7613 27V26H25.7173V27V28H44.7613V27Z" fill="black" mask="url(#path-1-outside-1_78_68)"/>
</svg>
