<svg width="51" height="101" viewBox="0 0 51 101" fill="none" xmlns="http://www.w3.org/2000/svg">
<path d="M0.499998 101C7.13175 101 13.6986 99.6938 19.8255 97.1559C25.9525 94.6181 31.5195 90.8983 36.2089 86.2089C40.8983 81.5195 44.6181 75.9525 47.1559 69.8255C49.6938 63.6986 51 57.1318 51 50.5C51 43.8682 49.6938 37.3014 47.1559 31.1745C44.6181 25.0475 40.8983 19.4805 36.2089 14.7911C31.5195 10.1017 25.9525 6.38195 19.8255 3.84408C13.6986 1.30622 7.13175 -2.89883e-07 0.499998 0L0.5 50.5L0.499998 101Z" fill="#CE3439"/>
<mask id="path-2-outside-1_78_66" maskUnits="userSpaceOnUse" x="2" y="37" width="46" height="29" fill="black">
<rect fill="white" x="2" y="37" width="46" height="29"/>
<path d="M14.4403 64.432C12.3763 64.432 10.5283 63.928 8.89633 62.92C7.26433 61.888 5.98033 60.4 5.04433 58.456C4.10833 56.512 3.64033 54.16 3.64033 51.4C3.64033 48.64 4.10833 46.288 5.04433 44.344C5.98033 42.4 7.26433 40.924 8.89633 39.916C10.5283 38.884 12.3763 38.368 14.4403 38.368C16.5283 38.368 18.3763 38.884 19.9843 39.916C21.6163 40.924 22.9003 42.4 23.8363 44.344C24.7723 46.288 25.2403 48.64 25.2403 51.4C25.2403 54.16 24.7723 56.512 23.8363 58.456C22.9003 60.4 21.6163 61.888 19.9843 62.92C18.3763 63.928 16.5283 64.432 14.4403 64.432ZM14.4403 59.5C15.4243 59.5 16.2763 59.224 16.9963 58.672C17.7403 58.12 18.3163 57.244 18.7243 56.044C19.1563 54.844 19.3723 53.296 19.3723 51.4C19.3723 49.504 19.1563 47.956 18.7243 46.756C18.3163 45.556 17.7403 44.68 16.9963 44.128C16.2763 43.576 15.4243 43.3 14.4403 43.3C13.4803 43.3 12.6283 43.576 11.8843 44.128C11.1643 44.68 10.5883 45.556 10.1563 46.756C9.74833 47.956 9.54433 49.504 9.54433 51.4C9.54433 53.296 9.74833 54.844 10.1563 56.044C10.5883 57.244 11.1643 58.12 11.8843 58.672C12.6283 59.224 13.4803 59.5 14.4403 59.5ZM27.7173 64V60.22L37.4373 51.04C38.2053 50.344 38.7693 49.72 39.1293 49.168C39.4893 48.616 39.7293 48.112 39.8493 47.656C39.9933 47.2 40.0653 46.78 40.0653 46.396C40.0653 45.388 39.7173 44.62 39.0213 44.092C38.3493 43.54 37.3533 43.264 36.0333 43.264C34.9773 43.264 33.9933 43.468 33.0813 43.876C32.1933 44.284 31.4373 44.92 30.8133 45.784L26.5653 43.048C27.5253 41.608 28.8693 40.468 30.5973 39.628C32.3253 38.788 34.3173 38.368 36.5733 38.368C38.4453 38.368 40.0773 38.68 41.4693 39.304C42.8853 39.904 43.9773 40.756 44.7453 41.86C45.5373 42.964 45.9333 44.284 45.9333 45.82C45.9333 46.636 45.8253 47.452 45.6093 48.268C45.4173 49.06 45.0093 49.9 44.3853 50.788C43.7853 51.676 42.8973 52.672 41.7213 53.776L33.6573 61.372L32.5413 59.248H46.7613V64H27.7173Z"/>
</mask>
<path d="M8.89633 62.92L8.36184 63.7652L8.37084 63.7708L8.89633 62.92ZM5.04433 58.456L4.14333 58.8898L5.04433 58.456ZM5.04433 44.344L5.94533 44.7778L5.94533 44.7778L5.04433 44.344ZM8.89633 39.916L9.42185 40.7668L9.43079 40.7612L8.89633 39.916ZM19.9843 39.916L19.4442 40.7576L19.4515 40.7623L19.4588 40.7668L19.9843 39.916ZM23.8363 44.344L22.9353 44.7778L22.9353 44.7778L23.8363 44.344ZM23.8363 58.456L22.9353 58.0222L22.9353 58.0222L23.8363 58.456ZM19.9843 62.92L20.5155 63.7673L20.5188 63.7652L19.9843 62.92ZM16.9963 58.672L16.4005 57.8689L16.3942 57.8736L16.3879 57.8784L16.9963 58.672ZM18.7243 56.044L17.7834 55.7053L17.7804 55.7137L17.7776 55.7221L18.7243 56.044ZM18.7243 46.756L17.7776 47.0779L17.7804 47.0863L17.7834 47.0947L18.7243 46.756ZM16.9963 44.128L16.3879 44.9216L16.3942 44.9264L16.4005 44.9311L16.9963 44.128ZM11.8843 44.128L11.2885 43.3249L11.2822 43.3296L11.2759 43.3344L11.8843 44.128ZM10.1563 46.756L9.21544 46.4173L9.21242 46.4257L9.20956 46.4341L10.1563 46.756ZM10.1563 56.044L9.20956 56.3659L9.21242 56.3743L9.21544 56.3827L10.1563 56.044ZM11.8843 58.672L11.2759 59.4656L11.2822 59.4704L11.2885 59.4751L11.8843 58.672ZM14.4403 64.432V63.432C12.5473 63.432 10.8839 62.9722 9.42182 62.0692L8.89633 62.92L8.37084 63.7708C10.1728 64.8838 12.2054 65.432 14.4403 65.432V64.432ZM8.89633 62.92L9.43079 62.0748C7.97519 61.1544 6.80991 59.8178 5.94533 58.0222L5.04433 58.456L4.14333 58.8898C5.15075 60.9822 6.55347 62.6216 8.36187 63.7652L8.89633 62.92ZM5.04433 58.456L5.94533 58.0222C5.09005 56.2458 4.64033 54.0504 4.64033 51.4H3.64033H2.64033C2.64033 54.2696 3.1266 56.7782 4.14333 58.8898L5.04433 58.456ZM3.64033 51.4H4.64033C4.64033 48.7496 5.09005 46.5542 5.94533 44.7778L5.04433 44.344L4.14333 43.9102C3.1266 46.0218 2.64033 48.5304 2.64033 51.4H3.64033ZM5.04433 44.344L5.94533 44.7778C6.80917 42.9837 7.97192 41.6623 9.42182 40.7668L8.89633 39.916L8.37084 39.0652C6.55674 40.1857 5.15148 41.8163 4.14333 43.9102L5.04433 44.344ZM8.89633 39.916L9.43079 40.7612C10.8917 39.8374 12.5519 39.368 14.4403 39.368V38.368V37.368C12.2007 37.368 10.1649 37.9306 8.36187 39.0708L8.89633 39.916ZM14.4403 38.368V39.368C16.3553 39.368 18.0122 39.8386 19.4442 40.7576L19.9843 39.916L20.5245 39.0744C18.7404 37.9294 16.7014 37.368 14.4403 37.368V38.368ZM19.9843 39.916L19.4588 40.7668C20.9087 41.6623 22.0715 42.9837 22.9353 44.7778L23.8363 44.344L24.7373 43.9102C23.7292 41.8163 22.3239 40.1857 20.5098 39.0652L19.9843 39.916ZM23.8363 44.344L22.9353 44.7778C23.7906 46.5542 24.2403 48.7496 24.2403 51.4H25.2403H26.2403C26.2403 48.5304 25.7541 46.0218 24.7373 43.9102L23.8363 44.344ZM25.2403 51.4H24.2403C24.2403 54.0504 23.7906 56.2458 22.9353 58.0222L23.8363 58.456L24.7373 58.8898C25.7541 56.7782 26.2403 54.2696 26.2403 51.4H25.2403ZM23.8363 58.456L22.9353 58.0222C22.0708 59.8178 20.9055 61.1544 19.4499 62.0748L19.9843 62.92L20.5188 63.7652C22.3272 62.6216 23.7299 60.9822 24.7373 58.8898L23.8363 58.456ZM19.9843 62.92L19.4532 62.0727C18.0201 62.9711 16.3599 63.432 14.4403 63.432V64.432V65.432C16.6967 65.432 18.7325 64.8849 20.5155 63.7673L19.9843 62.92ZM14.4403 59.5V60.5C15.6245 60.5 16.6951 60.163 17.6048 59.4656L16.9963 58.672L16.3879 57.8784C15.8576 58.285 15.2241 58.5 14.4403 58.5V59.5ZM16.9963 58.672L17.5922 59.4751C18.5494 58.7649 19.2212 57.6892 19.6711 56.3659L18.7243 56.044L17.7776 55.7221C17.4115 56.7988 16.9312 57.4751 16.4005 57.8689L16.9963 58.672ZM18.7243 56.044L19.6652 56.3827C20.1504 55.0349 20.3723 53.3608 20.3723 51.4H19.3723H18.3723C18.3723 53.2312 18.1622 54.6531 17.7834 55.7053L18.7243 56.044ZM19.3723 51.4H20.3723C20.3723 49.4392 20.1504 47.7651 19.6652 46.4173L18.7243 46.756L17.7834 47.0947C18.1622 48.1469 18.3723 49.5688 18.3723 51.4H19.3723ZM18.7243 46.756L19.6711 46.4341C19.2212 45.1108 18.5494 44.0351 17.5922 43.3249L16.9963 44.128L16.4005 44.9311C16.9312 45.3249 17.4115 46.0012 17.7776 47.0779L18.7243 46.756ZM16.9963 44.128L17.6048 43.3344C16.6951 42.637 15.6245 42.3 14.4403 42.3V43.3V44.3C15.2241 44.3 15.8576 44.515 16.3879 44.9216L16.9963 44.128ZM14.4403 43.3V42.3C13.2741 42.3 12.2114 42.6402 11.2885 43.3249L11.8843 44.128L12.4802 44.9311C13.0453 44.5118 13.6866 44.3 14.4403 44.3V43.3ZM11.8843 44.128L11.2759 43.3344C10.3538 44.0413 9.68713 45.107 9.21544 46.4173L10.1563 46.756L11.0972 47.0947C11.4895 46.005 11.9748 45.3187 12.4928 44.9216L11.8843 44.128ZM10.1563 46.756L9.20956 46.4341C8.75344 47.7756 8.54433 49.4433 8.54433 51.4H9.54433H10.5443C10.5443 49.5647 10.7432 48.1364 11.1031 47.0779L10.1563 46.756ZM9.54433 51.4H8.54433C8.54433 53.3567 8.75344 55.0244 9.20956 56.3659L10.1563 56.044L11.1031 55.7221C10.7432 54.6636 10.5443 53.2353 10.5443 51.4H9.54433ZM10.1563 56.044L9.21544 56.3827C9.68713 57.693 10.3538 58.7587 11.2759 59.4656L11.8843 58.672L12.4928 57.8784C11.9748 57.4813 11.4895 56.795 11.0972 55.7053L10.1563 56.044ZM11.8843 58.672L11.2885 59.4751C12.2114 60.1598 13.2741 60.5 14.4403 60.5V59.5V58.5C13.6866 58.5 13.0453 58.2882 12.4802 57.8689L11.8843 58.672ZM27.7173 64H26.7173V65H27.7173V64ZM27.7173 60.22L27.0307 59.493L26.7173 59.789V60.22H27.7173ZM37.4373 51.04L36.7658 50.299L36.7582 50.3059L36.7507 50.313L37.4373 51.04ZM39.1293 49.168L39.9669 49.7143L39.9669 49.7143L39.1293 49.168ZM39.8493 47.656L38.8957 47.3549L38.8884 47.378L38.8822 47.4015L39.8493 47.656ZM39.0213 44.092L38.3866 44.8647L38.4015 44.877L38.4169 44.8887L39.0213 44.092ZM33.0813 43.876L32.6729 42.9631L32.6638 42.9673L33.0813 43.876ZM30.8133 45.784L30.2718 46.6247L31.0689 47.1381L31.624 46.3695L30.8133 45.784ZM26.5653 43.048L25.7332 42.4933L25.1697 43.3386L26.0238 43.8887L26.5653 43.048ZM30.5973 39.628L30.1601 38.7286L30.1601 38.7286L30.5973 39.628ZM41.4693 39.304L41.0602 40.2165L41.0697 40.2207L41.0791 40.2247L41.4693 39.304ZM44.7453 41.86L43.9244 42.4311L43.9285 42.437L43.9328 42.4429L44.7453 41.86ZM45.6093 48.268L44.6426 48.0121L44.6399 48.0222L44.6374 48.0324L45.6093 48.268ZM44.3853 50.788L43.5671 50.2131L43.5618 50.2206L43.5567 50.2281L44.3853 50.788ZM41.7213 53.776L41.0369 53.0469L41.0356 53.0481L41.7213 53.776ZM33.6573 61.372L32.7721 61.8371L33.3845 63.0028L34.343 62.0999L33.6573 61.372ZM32.5413 59.248V58.248H30.8862L31.6561 59.7131L32.5413 59.248ZM46.7613 59.248H47.7613V58.248H46.7613V59.248ZM46.7613 64V65H47.7613V64H46.7613ZM27.7173 64H28.7173V60.22H27.7173H26.7173V64H27.7173ZM27.7173 60.22L28.4039 60.947L38.1239 51.767L37.4373 51.04L36.7507 50.313L27.0307 59.493L27.7173 60.22ZM37.4373 51.04L38.1088 51.781C38.9085 51.0563 39.5414 50.3668 39.9669 49.7143L39.1293 49.168L38.2917 48.6217C37.9972 49.0732 37.5021 49.6317 36.7658 50.299L37.4373 51.04ZM39.1293 49.168L39.9669 49.7143C40.364 49.1054 40.6607 48.5022 40.8164 47.9105L39.8493 47.656L38.8822 47.4015C38.7979 47.7218 38.6146 48.1266 38.2917 48.6217L39.1293 49.168ZM39.8493 47.656L40.8029 47.9571C40.9704 47.4266 41.0653 46.9036 41.0653 46.396H40.0653H39.0653C39.0653 46.6564 39.0162 46.9734 38.8957 47.3549L39.8493 47.656ZM40.0653 46.396H41.0653C41.0653 45.1298 40.6114 44.0431 39.6257 43.2953L39.0213 44.092L38.4169 44.8887C38.8232 45.1969 39.0653 45.6462 39.0653 46.396H40.0653ZM39.0213 44.092L39.656 43.3193C38.733 42.5611 37.4701 42.264 36.0333 42.264V43.264V44.264C37.2365 44.264 37.9656 44.5189 38.3866 44.8647L39.0213 44.092ZM36.0333 43.264V42.264C34.8447 42.264 33.7207 42.4945 32.6729 42.9632L33.0813 43.876L33.4897 44.7888C34.2659 44.4415 35.1099 44.264 36.0333 44.264V43.264ZM33.0813 43.876L32.6638 42.9673C31.6051 43.4538 30.7182 44.2077 30.0026 45.1985L30.8133 45.784L31.624 46.3695C32.1564 45.6323 32.7815 45.1142 33.4988 44.7847L33.0813 43.876ZM30.8133 45.784L31.3548 44.9433L27.1068 42.2073L26.5653 43.048L26.0238 43.8887L30.2718 46.6247L30.8133 45.784ZM26.5653 43.048L27.3973 43.6027C28.2481 42.3265 29.4483 41.2984 31.0345 40.5274L30.5973 39.628L30.1601 38.7286C28.2903 39.6376 26.8025 40.8895 25.7332 42.4933L26.5653 43.048ZM30.5973 39.628L31.0345 40.5274C32.6045 39.7642 34.4425 39.368 36.5733 39.368V38.368V37.368C34.1921 37.368 32.0461 37.8118 30.1601 38.7286L30.5973 39.628ZM36.5733 38.368V39.368C38.3356 39.368 39.8227 39.6617 41.0602 40.2165L41.4693 39.304L41.8784 38.3915C40.3319 37.6983 38.555 37.368 36.5733 37.368V38.368ZM41.4693 39.304L41.0791 40.2247C42.347 40.762 43.2789 41.5032 43.9244 42.4311L44.7453 41.86L45.5662 41.2889C44.6757 40.0088 43.4236 39.046 41.8594 38.3832L41.4693 39.304ZM44.7453 41.86L43.9328 42.4429C44.5873 43.3553 44.9333 44.4647 44.9333 45.82H45.9333H46.9333C46.9333 44.1033 46.4873 42.5727 45.5578 41.2771L44.7453 41.86ZM45.9333 45.82H44.9333C44.9333 46.5467 44.8373 47.2767 44.6426 48.0121L45.6093 48.268L46.576 48.5239C46.8133 47.6273 46.9333 46.7253 46.9333 45.82H45.9333ZM45.6093 48.268L44.6374 48.0324C44.483 48.6696 44.1416 49.3955 43.5671 50.2131L44.3853 50.788L45.2035 51.3629C45.877 50.4045 46.3516 49.4504 46.5811 48.5036L45.6093 48.268ZM44.3853 50.788L43.5567 50.2281C43.0135 51.032 42.1829 51.971 41.0369 53.0469L41.7213 53.776L42.4057 54.5051C43.6116 53.373 44.557 52.32 45.2139 51.3479L44.3853 50.788ZM41.7213 53.776L41.0356 53.0481L32.9716 60.6441L33.6573 61.372L34.343 62.0999L42.407 54.5039L41.7213 53.776ZM33.6573 61.372L34.5425 60.9069L33.4265 58.7829L32.5413 59.248L31.6561 59.7131L32.7721 61.8371L33.6573 61.372ZM32.5413 59.248V60.248H46.7613V59.248V58.248H32.5413V59.248ZM46.7613 59.248H45.7613V64H46.7613H47.7613V59.248H46.7613ZM46.7613 64V63H27.7173V64V65H46.7613V64Z" fill="white" mask="url(#path-2-outside-1_78_66)"/>
</svg>
