<svg width="46" height="29" viewBox="0 0 46 29" fill="none" xmlns="http://www.w3.org/2000/svg">
<mask id="path-1-outside-1_78_65" maskUnits="userSpaceOnUse" x="0" y="0" width="46" height="29" fill="black">
<rect fill="white" width="46" height="29"/>
<path d="M12.5106 27.432C10.4466 27.432 8.59864 26.928 6.96664 25.92C5.33464 24.888 4.05064 23.4 3.11464 21.456C2.17864 19.512 1.71064 17.16 1.71064 14.4C1.71064 11.64 2.17864 9.288 3.11464 7.344C4.05064 5.4 5.33464 3.924 6.96664 2.916C8.59864 1.884 10.4466 1.368 12.5106 1.368C14.5986 1.368 16.4466 1.884 18.0546 2.916C19.6866 3.924 20.9706 5.4 21.9066 7.344C22.8426 9.288 23.3106 11.64 23.3106 14.4C23.3106 17.16 22.8426 19.512 21.9066 21.456C20.9706 23.4 19.6866 24.888 18.0546 25.92C16.4466 26.928 14.5986 27.432 12.5106 27.432ZM12.5106 22.5C13.4946 22.5 14.3466 22.224 15.0666 21.672C15.8106 21.12 16.3866 20.244 16.7946 19.044C17.2266 17.844 17.4426 16.296 17.4426 14.4C17.4426 12.504 17.2266 10.956 16.7946 9.756C16.3866 8.556 15.8106 7.68 15.0666 7.128C14.3466 6.576 13.4946 6.3 12.5106 6.3C11.5506 6.3 10.6986 6.576 9.95464 7.128C9.23464 7.68 8.65864 8.556 8.22664 9.756C7.81864 10.956 7.61464 12.504 7.61464 14.4C7.61464 16.296 7.81864 17.844 8.22664 19.044C8.65864 20.244 9.23464 21.12 9.95464 21.672C10.6986 22.224 11.5506 22.5 12.5106 22.5ZM33.9647 27.432C32.2127 27.432 30.4727 27.204 28.7447 26.748C27.0167 26.268 25.5527 25.596 24.3527 24.732L26.6207 20.268C27.5807 20.964 28.6967 21.516 29.9687 21.924C31.2407 22.332 32.5247 22.536 33.8207 22.536C35.2847 22.536 36.4367 22.248 37.2767 21.672C38.1167 21.096 38.5367 20.304 38.5367 19.296C38.5367 18.336 38.1647 17.58 37.4207 17.028C36.6767 16.476 35.4767 16.2 33.8207 16.2H31.1567V12.348L38.1767 4.392L38.8247 6.48H25.6127V1.8H43.2527V5.58L36.2687 13.536L33.3167 11.844H35.0087C38.1047 11.844 40.4447 12.54 42.0287 13.932C43.6127 15.324 44.4047 17.112 44.4047 19.296C44.4047 20.712 44.0327 22.044 43.2887 23.292C42.5447 24.516 41.4047 25.512 39.8687 26.28C38.3327 27.048 36.3647 27.432 33.9647 27.432Z"/>
</mask>
<path d="M12.5106 27.432C10.4466 27.432 8.59864 26.928 6.96664 25.92C5.33464 24.888 4.05064 23.4 3.11464 21.456C2.17864 19.512 1.71064 17.16 1.71064 14.4C1.71064 11.64 2.17864 9.288 3.11464 7.344C4.05064 5.4 5.33464 3.924 6.96664 2.916C8.59864 1.884 10.4466 1.368 12.5106 1.368C14.5986 1.368 16.4466 1.884 18.0546 2.916C19.6866 3.924 20.9706 5.4 21.9066 7.344C22.8426 9.288 23.3106 11.64 23.3106 14.4C23.3106 17.16 22.8426 19.512 21.9066 21.456C20.9706 23.4 19.6866 24.888 18.0546 25.92C16.4466 26.928 14.5986 27.432 12.5106 27.432ZM12.5106 22.5C13.4946 22.5 14.3466 22.224 15.0666 21.672C15.8106 21.12 16.3866 20.244 16.7946 19.044C17.2266 17.844 17.4426 16.296 17.4426 14.4C17.4426 12.504 17.2266 10.956 16.7946 9.756C16.3866 8.556 15.8106 7.68 15.0666 7.128C14.3466 6.576 13.4946 6.3 12.5106 6.3C11.5506 6.3 10.6986 6.576 9.95464 7.128C9.23464 7.68 8.65864 8.556 8.22664 9.756C7.81864 10.956 7.61464 12.504 7.61464 14.4C7.61464 16.296 7.81864 17.844 8.22664 19.044C8.65864 20.244 9.23464 21.12 9.95464 21.672C10.6986 22.224 11.5506 22.5 12.5106 22.5ZM33.9647 27.432C32.2127 27.432 30.4727 27.204 28.7447 26.748C27.0167 26.268 25.5527 25.596 24.3527 24.732L26.6207 20.268C27.5807 20.964 28.6967 21.516 29.9687 21.924C31.2407 22.332 32.5247 22.536 33.8207 22.536C35.2847 22.536 36.4367 22.248 37.2767 21.672C38.1167 21.096 38.5367 20.304 38.5367 19.296C38.5367 18.336 38.1647 17.58 37.4207 17.028C36.6767 16.476 35.4767 16.2 33.8207 16.2H31.1567V12.348L38.1767 4.392L38.8247 6.48H25.6127V1.8H43.2527V5.58L36.2687 13.536L33.3167 11.844H35.0087C38.1047 11.844 40.4447 12.54 42.0287 13.932C43.6127 15.324 44.4047 17.112 44.4047 19.296C44.4047 20.712 44.0327 22.044 43.2887 23.292C42.5447 24.516 41.4047 25.512 39.8687 26.28C38.3327 27.048 36.3647 27.432 33.9647 27.432Z" fill="white"/>
<path d="M6.96664 25.92L6.43215 26.7652L6.44115 26.7708L6.96664 25.92ZM3.11464 21.456L2.21364 21.8898L3.11464 21.456ZM3.11464 7.344L4.01564 7.77782L4.01564 7.77782L3.11464 7.344ZM6.96664 2.916L7.49216 3.76684L7.5011 3.76119L6.96664 2.916ZM18.0546 2.916L17.5145 3.75759L17.5218 3.76225L17.5291 3.7668L18.0546 2.916ZM21.9066 7.344L21.0056 7.77782L21.0056 7.77782L21.9066 7.344ZM21.9066 21.456L21.0056 21.0222L21.0056 21.0222L21.9066 21.456ZM18.0546 25.92L18.5858 26.7673L18.5891 26.7652L18.0546 25.92ZM15.0666 21.672L14.4708 20.8689L14.4645 20.8736L14.4582 20.8784L15.0666 21.672ZM16.7946 19.044L15.8538 18.7053L15.8507 18.7137L15.8479 18.7221L16.7946 19.044ZM16.7946 9.756L15.8479 10.0779L15.8507 10.0863L15.8538 10.0947L16.7946 9.756ZM15.0666 7.128L14.4582 7.9216L14.4645 7.9264L14.4708 7.9311L15.0666 7.128ZM9.95464 7.128L9.35879 6.3249L9.35246 6.3296L9.34621 6.33439L9.95464 7.128ZM8.22664 9.756L7.28575 9.41728L7.28274 9.42566L7.27987 9.4341L8.22664 9.756ZM8.22664 19.044L7.27987 19.3659L7.28274 19.3743L7.28575 19.3827L8.22664 19.044ZM9.95464 21.672L9.34621 22.4656L9.35246 22.4704L9.35879 22.4751L9.95464 21.672ZM12.5106 27.432V26.432C10.6176 26.432 8.95418 25.9722 7.49213 25.0692L6.96664 25.92L6.44115 26.7708C8.2431 27.8838 10.2757 28.432 12.5106 28.432V27.432ZM6.96664 25.92L7.5011 25.0748C6.0455 24.1544 4.88022 22.8178 4.01564 21.0222L3.11464 21.456L2.21364 21.8898C3.22106 23.9822 4.62378 25.6216 6.43218 26.7652L6.96664 25.92ZM3.11464 21.456L4.01564 21.0222C3.16037 19.2458 2.71064 17.0504 2.71064 14.4H1.71064H0.710641C0.710641 17.2696 1.19691 19.7782 2.21364 21.8898L3.11464 21.456ZM1.71064 14.4H2.71064C2.71064 11.7496 3.16037 9.55416 4.01564 7.77782L3.11464 7.344L2.21364 6.91018C1.19691 9.02184 0.710641 11.5304 0.710641 14.4H1.71064ZM3.11464 7.344L4.01564 7.77782C4.87948 5.98368 6.04223 4.66233 7.49213 3.7668L6.96664 2.916L6.44115 2.0652C4.62705 3.18567 3.2218 4.81632 2.21364 6.91018L3.11464 7.344ZM6.96664 2.916L7.5011 3.76119C8.96205 2.83736 10.6222 2.368 12.5106 2.368V1.368V0.368C10.271 0.368 8.23523 0.930641 6.43218 2.07081L6.96664 2.916ZM12.5106 1.368V2.368C14.4256 2.368 16.0825 2.83856 17.5145 3.75759L18.0546 2.916L18.5948 2.07441C16.8107 0.929438 14.7717 0.368 12.5106 0.368V1.368ZM18.0546 2.916L17.5291 3.7668C18.9791 4.66233 20.1418 5.98368 21.0056 7.77782L21.9066 7.344L22.8076 6.91018C21.7995 4.81632 20.3942 3.18567 18.5801 2.0652L18.0546 2.916ZM21.9066 7.344L21.0056 7.77782C21.8609 9.55416 22.3106 11.7496 22.3106 14.4H23.3106H24.3106C24.3106 11.5304 23.8244 9.02184 22.8076 6.91018L21.9066 7.344ZM23.3106 14.4H22.3106C22.3106 17.0504 21.8609 19.2458 21.0056 21.0222L21.9066 21.456L22.8076 21.8898C23.8244 19.7782 24.3106 17.2696 24.3106 14.4H23.3106ZM21.9066 21.456L21.0056 21.0222C20.1411 22.8178 18.9758 24.1544 17.5202 25.0748L18.0546 25.92L18.5891 26.7652C20.3975 25.6216 21.8002 23.9822 22.8076 21.8898L21.9066 21.456ZM18.0546 25.92L17.5235 25.0727C16.0904 25.9711 14.4303 26.432 12.5106 26.432V27.432V28.432C14.767 28.432 16.8029 27.8849 18.5858 26.7673L18.0546 25.92ZM12.5106 22.5V23.5C13.6949 23.5 14.7654 23.163 15.6751 22.4656L15.0666 21.672L14.4582 20.8784C13.9279 21.285 13.2944 21.5 12.5106 21.5V22.5ZM15.0666 21.672L15.6625 22.4751C16.6197 21.7649 17.2915 20.6892 17.7414 19.3659L16.7946 19.044L15.8479 18.7221C15.4818 19.7988 15.0016 20.4751 14.4708 20.8689L15.0666 21.672ZM16.7946 19.044L17.7355 19.3827C18.2208 18.0349 18.4426 16.3608 18.4426 14.4H17.4426H16.4426C16.4426 16.2312 16.2325 17.6531 15.8538 18.7053L16.7946 19.044ZM17.4426 14.4H18.4426C18.4426 12.4392 18.2208 10.7651 17.7355 9.41728L16.7946 9.756L15.8538 10.0947C16.2325 11.1469 16.4426 12.5688 16.4426 14.4H17.4426ZM16.7946 9.756L17.7414 9.4341C17.2915 8.1108 16.6197 7.03511 15.6625 6.3249L15.0666 7.128L14.4708 7.9311C15.0016 8.32489 15.4818 9.00119 15.8479 10.0779L16.7946 9.756ZM15.0666 7.128L15.6751 6.33439C14.7654 5.63699 13.6949 5.3 12.5106 5.3V6.3V7.3C13.2944 7.3 13.9279 7.51501 14.4582 7.9216L15.0666 7.128ZM12.5106 6.3V5.3C11.3444 5.3 10.2817 5.64015 9.35879 6.3249L9.95464 7.128L10.5505 7.9311C11.1156 7.51184 11.7569 7.3 12.5106 7.3V6.3ZM9.95464 7.128L9.34621 6.33439C8.42413 7.04132 7.75744 8.10704 7.28575 9.41728L8.22664 9.756L9.16753 10.0947C9.55984 9.00496 10.0451 8.31868 10.5631 7.9216L9.95464 7.128ZM8.22664 9.756L7.27987 9.4341C6.82376 10.7756 6.61464 12.4433 6.61464 14.4H7.61464H8.61464C8.61464 12.5647 8.81353 11.1364 9.17341 10.0779L8.22664 9.756ZM7.61464 14.4H6.61464C6.61464 16.3567 6.82376 18.0244 7.27987 19.3659L8.22664 19.044L9.17341 18.7221C8.81353 17.6636 8.61464 16.2353 8.61464 14.4H7.61464ZM8.22664 19.044L7.28575 19.3827C7.75744 20.693 8.42413 21.7587 9.34621 22.4656L9.95464 21.672L10.5631 20.8784C10.0451 20.4813 9.55984 19.795 9.16753 18.7053L8.22664 19.044ZM9.95464 21.672L9.35879 22.4751C10.2817 23.1598 11.3444 23.5 12.5106 23.5V22.5V21.5C11.7569 21.5 11.1156 21.2882 10.5505 20.8689L9.95464 21.672ZM28.7447 26.748L28.477 27.7116L28.4895 27.7149L28.7447 26.748ZM24.3527 24.732L23.4611 24.279L23.073 25.0429L23.7684 25.5435L24.3527 24.732ZM26.6207 20.268L27.2076 19.4584L26.2596 18.771L25.7291 19.815L26.6207 20.268ZM29.9687 21.924L29.6632 22.8762L29.6632 22.8762L29.9687 21.924ZM37.2767 21.672L37.8422 22.4967L37.8422 22.4967L37.2767 21.672ZM31.1567 16.2H30.1567V17.2H31.1567V16.2ZM31.1567 12.348L30.4068 11.6864L30.1567 11.9699V12.348H31.1567ZM38.1767 4.392L39.1317 4.0956L38.6043 2.39596L37.4268 3.73038L38.1767 4.392ZM38.8247 6.48V7.48H40.1821L39.7797 6.1836L38.8247 6.48ZM25.6127 6.48H24.6127V7.48H25.6127V6.48ZM25.6127 1.8V0.799998H24.6127V1.8H25.6127ZM43.2527 1.8H44.2527V0.799998H43.2527V1.8ZM43.2527 5.58L44.0042 6.23971L44.2527 5.95665V5.58H43.2527ZM36.2687 13.536L35.7714 14.4036L36.4808 14.8102L37.0202 14.1957L36.2687 13.536ZM33.3167 11.844V10.844H29.561L32.8194 12.7116L33.3167 11.844ZM42.0287 13.932L41.3686 14.6832L41.3686 14.6832L42.0287 13.932ZM43.2887 23.292L44.1432 23.8114L44.1476 23.8041L43.2887 23.292ZM39.8687 26.28L39.4215 25.3856L39.4215 25.3856L39.8687 26.28ZM33.9647 27.432V26.432C32.3005 26.432 30.6462 26.2156 28.9998 25.7811L28.7447 26.748L28.4895 27.7149C30.2991 28.1924 32.1248 28.432 33.9647 28.432V27.432ZM28.7447 26.748L29.0123 25.7845C27.3745 25.3295 26.0233 24.7026 24.937 23.9205L24.3527 24.732L23.7684 25.5435C25.0821 26.4894 26.6588 27.2065 28.477 27.7115L28.7447 26.748ZM24.3527 24.732L25.2442 25.185L27.5122 20.721L26.6207 20.268L25.7291 19.815L23.4611 24.279L24.3527 24.732ZM26.6207 20.268L26.0337 21.0776C27.0895 21.8431 28.303 22.4399 29.6632 22.8762L29.9687 21.924L30.2741 20.9718C29.0903 20.5921 28.0718 20.0849 27.2076 19.4584L26.6207 20.268ZM29.9687 21.924L29.6632 22.8762C31.0309 23.3149 32.4178 23.536 33.8207 23.536V22.536V21.536C32.6315 21.536 31.4504 21.3491 30.2741 20.9718L29.9687 21.924ZM33.8207 22.536V23.536C35.4021 23.536 36.7775 23.2268 37.8422 22.4967L37.2767 21.672L36.7111 20.8473C36.0958 21.2692 35.1673 21.536 33.8207 21.536V22.536ZM37.2767 21.672L37.8422 22.4967C38.9507 21.7366 39.5367 20.6378 39.5367 19.296H38.5367H37.5367C37.5367 19.9702 37.2826 20.4554 36.7111 20.8473L37.2767 21.672ZM38.5367 19.296H39.5367C39.5367 18.0329 39.0254 16.9734 38.0165 16.2249L37.4207 17.028L36.8248 17.8311C37.3039 18.1866 37.5367 18.6391 37.5367 19.296H38.5367ZM37.4207 17.028L38.0165 16.2249C37.0101 15.4782 35.5423 15.2 33.8207 15.2V16.2V17.2C35.411 17.2 36.3432 17.4738 36.8248 17.8311L37.4207 17.028ZM33.8207 16.2V15.2H31.1567V16.2V17.2H33.8207V16.2ZM31.1567 16.2H32.1567V12.348H31.1567H30.1567V16.2H31.1567ZM31.1567 12.348L31.9065 13.0096L38.9265 5.05362L38.1767 4.392L37.4268 3.73038L30.4068 11.6864L31.1567 12.348ZM38.1767 4.392L37.2216 4.6884L37.8696 6.7764L38.8247 6.48L39.7797 6.1836L39.1317 4.0956L38.1767 4.392ZM38.8247 6.48V5.48H25.6127V6.48V7.48H38.8247V6.48ZM25.6127 6.48H26.6127V1.8H25.6127H24.6127V6.48H25.6127ZM25.6127 1.8V2.8H43.2527V1.8V0.799998H25.6127V1.8ZM43.2527 1.8H42.2527V5.58H43.2527H44.2527V1.8H43.2527ZM43.2527 5.58L42.5012 4.92029L35.5171 12.8763L36.2687 13.536L37.0202 14.1957L44.0042 6.23971L43.2527 5.58ZM36.2687 13.536L36.766 12.6684L33.814 10.9764L33.3167 11.844L32.8194 12.7116L35.7714 14.4036L36.2687 13.536ZM33.3167 11.844V12.844H35.0087V11.844V10.844H33.3167V11.844ZM35.0087 11.844V12.844C37.973 12.844 40.0362 13.5123 41.3686 14.6832L42.0287 13.932L42.6888 13.1808C40.8532 11.5677 38.2364 10.844 35.0087 10.844V11.844ZM42.0287 13.932L41.3686 14.6832C42.7279 15.8777 43.4047 17.3879 43.4047 19.296H44.4047H45.4047C45.4047 16.8361 44.4975 14.7703 42.6888 13.1808L42.0287 13.932ZM44.4047 19.296H43.4047C43.4047 20.5268 43.0839 21.6825 42.4297 22.7799L43.2887 23.292L44.1476 23.8041C44.9814 22.4055 45.4047 20.8972 45.4047 19.296H44.4047ZM43.2887 23.292L42.4342 22.7726C41.8058 23.8062 40.8229 24.6849 39.4215 25.3856L39.8687 26.28L40.3159 27.1744C41.9864 26.3391 43.2835 25.2258 44.1432 23.8114L43.2887 23.292ZM39.8687 26.28L39.4215 25.3856C38.0683 26.0622 36.2675 26.432 33.9647 26.432V27.432V28.432C36.4619 28.432 38.5971 28.0338 40.3159 27.1744L39.8687 26.28Z" fill="black" mask="url(#path-1-outside-1_78_65)"/>
</svg>
