<svg width="50" height="101" viewBox="0 0 50 101" fill="none" xmlns="http://www.w3.org/2000/svg">
<path d="M50.5 101C43.8682 101 37.3014 99.6938 31.1745 97.1559C25.0475 94.6181 19.4805 90.8983 14.7911 86.2089C10.1017 81.5195 6.38195 75.9525 3.84408 69.8255C1.30622 63.6986 0 57.1318 0 50.5C0 43.8682 1.30622 37.3014 3.84408 31.1745C6.38195 25.0475 10.1017 19.4805 14.7911 14.7911C19.4805 10.1017 25.0475 6.38195 31.1745 3.84408C37.3014 1.30622 43.8682 -2.89883e-07 50.5 0L50.5 50.5L50.5 101Z" fill="#CE3439"/>
<mask id="path-2-outside-1_78_63" maskUnits="userSpaceOnUse" x="5" y="37" width="46" height="29" fill="black">
<rect fill="white" x="5" y="37" width="46" height="29"/>
<path d="M17.5106 64.432C15.4466 64.432 13.5986 63.928 11.9666 62.92C10.3346 61.888 9.05064 60.4 8.11464 58.456C7.17864 56.512 6.71064 54.16 6.71064 51.4C6.71064 48.64 7.17864 46.288 8.11464 44.344C9.05064 42.4 10.3346 40.924 11.9666 39.916C13.5986 38.884 15.4466 38.368 17.5106 38.368C19.5986 38.368 21.4466 38.884 23.0546 39.916C24.6866 40.924 25.9706 42.4 26.9066 44.344C27.8426 46.288 28.3106 48.64 28.3106 51.4C28.3106 54.16 27.8426 56.512 26.9066 58.456C25.9706 60.4 24.6866 61.888 23.0546 62.92C21.4466 63.928 19.5986 64.432 17.5106 64.432ZM17.5106 59.5C18.4946 59.5 19.3466 59.224 20.0666 58.672C20.8106 58.12 21.3866 57.244 21.7946 56.044C22.2266 54.844 22.4426 53.296 22.4426 51.4C22.4426 49.504 22.2266 47.956 21.7946 46.756C21.3866 45.556 20.8106 44.68 20.0666 44.128C19.3466 43.576 18.4946 43.3 17.5106 43.3C16.5506 43.3 15.6986 43.576 14.9546 44.128C14.2346 44.68 13.6586 45.556 13.2266 46.756C12.8186 47.956 12.6146 49.504 12.6146 51.4C12.6146 53.296 12.8186 54.844 13.2266 56.044C13.6586 57.244 14.2346 58.12 14.9546 58.672C15.6986 59.224 16.5506 59.5 17.5106 59.5ZM38.9647 64.432C37.2127 64.432 35.4727 64.204 33.7447 63.748C32.0167 63.268 30.5527 62.596 29.3527 61.732L31.6207 57.268C32.5807 57.964 33.6967 58.516 34.9687 58.924C36.2407 59.332 37.5247 59.536 38.8207 59.536C40.2847 59.536 41.4367 59.248 42.2767 58.672C43.1167 58.096 43.5367 57.304 43.5367 56.296C43.5367 55.336 43.1647 54.58 42.4207 54.028C41.6767 53.476 40.4767 53.2 38.8207 53.2H36.1567V49.348L43.1767 41.392L43.8247 43.48H30.6127V38.8H48.2527V42.58L41.2687 50.536L38.3167 48.844H40.0087C43.1047 48.844 45.4447 49.54 47.0287 50.932C48.6127 52.324 49.4047 54.112 49.4047 56.296C49.4047 57.712 49.0327 59.044 48.2887 60.292C47.5447 61.516 46.4047 62.512 44.8687 63.28C43.3327 64.048 41.3647 64.432 38.9647 64.432Z"/>
</mask>
<path d="M11.9666 62.92L11.4322 63.7652L11.4411 63.7708L11.9666 62.92ZM8.11464 58.456L7.21364 58.8898L8.11464 58.456ZM8.11464 44.344L9.01564 44.7778L9.01564 44.7778L8.11464 44.344ZM11.9666 39.916L12.4922 40.7668L12.5011 40.7612L11.9666 39.916ZM23.0546 39.916L22.5145 40.7576L22.5218 40.7623L22.5291 40.7668L23.0546 39.916ZM26.9066 44.344L26.0056 44.7778L26.0056 44.7778L26.9066 44.344ZM26.9066 58.456L26.0056 58.0222L26.0056 58.0222L26.9066 58.456ZM23.0546 62.92L23.5858 63.7673L23.5891 63.7652L23.0546 62.92ZM20.0666 58.672L19.4708 57.8689L19.4645 57.8736L19.4582 57.8784L20.0666 58.672ZM21.7946 56.044L20.8538 55.7053L20.8507 55.7137L20.8479 55.7221L21.7946 56.044ZM21.7946 46.756L20.8479 47.0779L20.8507 47.0863L20.8538 47.0947L21.7946 46.756ZM20.0666 44.128L19.4582 44.9216L19.4645 44.9264L19.4708 44.9311L20.0666 44.128ZM14.9546 44.128L14.3588 43.3249L14.3525 43.3296L14.3462 43.3344L14.9546 44.128ZM13.2266 46.756L12.2858 46.4173L12.2827 46.4257L12.2799 46.4341L13.2266 46.756ZM13.2266 56.044L12.2799 56.3659L12.2827 56.3743L12.2858 56.3827L13.2266 56.044ZM14.9546 58.672L14.3462 59.4656L14.3525 59.4704L14.3588 59.4751L14.9546 58.672ZM17.5106 64.432V63.432C15.6176 63.432 13.9542 62.9722 12.4921 62.0692L11.9666 62.92L11.4411 63.7708C13.2431 64.8838 15.2757 65.432 17.5106 65.432V64.432ZM11.9666 62.92L12.5011 62.0748C11.0455 61.1544 9.88022 59.8178 9.01564 58.0222L8.11464 58.456L7.21364 58.8898C8.22106 60.9822 9.62378 62.6216 11.4322 63.7652L11.9666 62.92ZM8.11464 58.456L9.01564 58.0222C8.16037 56.2458 7.71064 54.0504 7.71064 51.4H6.71064H5.71064C5.71064 54.2696 6.19691 56.7782 7.21364 58.8898L8.11464 58.456ZM6.71064 51.4H7.71064C7.71064 48.7496 8.16037 46.5542 9.01564 44.7778L8.11464 44.344L7.21364 43.9102C6.19691 46.0218 5.71064 48.5304 5.71064 51.4H6.71064ZM8.11464 44.344L9.01564 44.7778C9.87948 42.9837 11.0422 41.6623 12.4921 40.7668L11.9666 39.916L11.4411 39.0652C9.62705 40.1857 8.2218 41.8163 7.21364 43.9102L8.11464 44.344ZM11.9666 39.916L12.5011 40.7612C13.962 39.8374 15.6222 39.368 17.5106 39.368V38.368V37.368C15.271 37.368 13.2352 37.9306 11.4322 39.0708L11.9666 39.916ZM17.5106 38.368V39.368C19.4256 39.368 21.0825 39.8386 22.5145 40.7576L23.0546 39.916L23.5948 39.0744C21.8107 37.9294 19.7717 37.368 17.5106 37.368V38.368ZM23.0546 39.916L22.5291 40.7668C23.9791 41.6623 25.1418 42.9837 26.0056 44.7778L26.9066 44.344L27.8076 43.9102C26.7995 41.8163 25.3942 40.1857 23.5801 39.0652L23.0546 39.916ZM26.9066 44.344L26.0056 44.7778C26.8609 46.5542 27.3106 48.7496 27.3106 51.4H28.3106H29.3106C29.3106 48.5304 28.8244 46.0218 27.8076 43.9102L26.9066 44.344ZM28.3106 51.4H27.3106C27.3106 54.0504 26.8609 56.2458 26.0056 58.0222L26.9066 58.456L27.8076 58.8898C28.8244 56.7782 29.3106 54.2696 29.3106 51.4H28.3106ZM26.9066 58.456L26.0056 58.0222C25.1411 59.8178 23.9758 61.1544 22.5202 62.0748L23.0546 62.92L23.5891 63.7652C25.3975 62.6216 26.8002 60.9822 27.8076 58.8898L26.9066 58.456ZM23.0546 62.92L22.5235 62.0727C21.0904 62.9711 19.4303 63.432 17.5106 63.432V64.432V65.432C19.767 65.432 21.8029 64.8849 23.5858 63.7673L23.0546 62.92ZM17.5106 59.5V60.5C18.6949 60.5 19.7654 60.163 20.6751 59.4656L20.0666 58.672L19.4582 57.8784C18.9279 58.285 18.2944 58.5 17.5106 58.5V59.5ZM20.0666 58.672L20.6625 59.4751C21.6197 58.7649 22.2915 57.6892 22.7414 56.3659L21.7946 56.044L20.8479 55.7221C20.4818 56.7988 20.0016 57.4751 19.4708 57.8689L20.0666 58.672ZM21.7946 56.044L22.7355 56.3827C23.2208 55.0349 23.4426 53.3608 23.4426 51.4H22.4426H21.4426C21.4426 53.2312 21.2325 54.6531 20.8538 55.7053L21.7946 56.044ZM22.4426 51.4H23.4426C23.4426 49.4392 23.2208 47.7651 22.7355 46.4173L21.7946 46.756L20.8538 47.0947C21.2325 48.1469 21.4426 49.5688 21.4426 51.4H22.4426ZM21.7946 46.756L22.7414 46.4341C22.2915 45.1108 21.6197 44.0351 20.6625 43.3249L20.0666 44.128L19.4708 44.9311C20.0016 45.3249 20.4818 46.0012 20.8479 47.0779L21.7946 46.756ZM20.0666 44.128L20.6751 43.3344C19.7654 42.637 18.6949 42.3 17.5106 42.3V43.3V44.3C18.2944 44.3 18.9279 44.515 19.4582 44.9216L20.0666 44.128ZM17.5106 43.3V42.3C16.3444 42.3 15.2817 42.6402 14.3588 43.3249L14.9546 44.128L15.5505 44.9311C16.1156 44.5118 16.7569 44.3 17.5106 44.3V43.3ZM14.9546 44.128L14.3462 43.3344C13.4241 44.0413 12.7574 45.107 12.2858 46.4173L13.2266 46.756L14.1675 47.0947C14.5598 46.005 15.0451 45.3187 15.5631 44.9216L14.9546 44.128ZM13.2266 46.756L12.2799 46.4341C11.8238 47.7756 11.6146 49.4433 11.6146 51.4H12.6146H13.6146C13.6146 49.5647 13.8135 48.1364 14.1734 47.0779L13.2266 46.756ZM12.6146 51.4H11.6146C11.6146 53.3567 11.8238 55.0244 12.2799 56.3659L13.2266 56.044L14.1734 55.7221C13.8135 54.6636 13.6146 53.2353 13.6146 51.4H12.6146ZM13.2266 56.044L12.2858 56.3827C12.7574 57.693 13.4241 58.7587 14.3462 59.4656L14.9546 58.672L15.5631 57.8784C15.0451 57.4813 14.5598 56.795 14.1675 55.7053L13.2266 56.044ZM14.9546 58.672L14.3588 59.4751C15.2817 60.1598 16.3444 60.5 17.5106 60.5V59.5V58.5C16.7569 58.5 16.1156 58.2882 15.5505 57.8689L14.9546 58.672ZM33.7447 63.748L33.477 64.7116L33.4895 64.7149L33.7447 63.748ZM29.3527 61.732L28.4611 61.279L28.073 62.0429L28.7684 62.5435L29.3527 61.732ZM31.6207 57.268L32.2076 56.4584L31.2596 55.771L30.7291 56.815L31.6207 57.268ZM34.9687 58.924L34.6632 59.8762L34.6632 59.8762L34.9687 58.924ZM42.2767 58.672L42.8422 59.4967L42.8422 59.4967L42.2767 58.672ZM36.1567 53.2H35.1567V54.2H36.1567V53.2ZM36.1567 49.348L35.4068 48.6864L35.1567 48.9699V49.348H36.1567ZM43.1767 41.392L44.1317 41.0956L43.6043 39.396L42.4268 40.7304L43.1767 41.392ZM43.8247 43.48V44.48H45.1821L44.7797 43.1836L43.8247 43.48ZM30.6127 43.48H29.6127V44.48H30.6127V43.48ZM30.6127 38.8V37.8H29.6127V38.8H30.6127ZM48.2527 38.8H49.2527V37.8H48.2527V38.8ZM48.2527 42.58L49.0042 43.2397L49.2527 42.9566V42.58H48.2527ZM41.2687 50.536L40.7714 51.4036L41.4808 51.8102L42.0202 51.1957L41.2687 50.536ZM38.3167 48.844V47.844H34.561L37.8194 49.7116L38.3167 48.844ZM47.0287 50.932L46.3686 51.6832L46.3686 51.6832L47.0287 50.932ZM48.2887 60.292L49.1432 60.8114L49.1476 60.8041L48.2887 60.292ZM44.8687 63.28L44.4215 62.3856L44.4215 62.3856L44.8687 63.28ZM38.9647 64.432V63.432C37.3005 63.432 35.6462 63.2156 33.9998 62.7811L33.7447 63.748L33.4895 64.7149C35.2991 65.1924 37.1248 65.432 38.9647 65.432V64.432ZM33.7447 63.748L34.0123 62.7845C32.3745 62.3295 31.0233 61.7026 29.937 60.9205L29.3527 61.732L28.7684 62.5435C30.0821 63.4894 31.6588 64.2065 33.477 64.7115L33.7447 63.748ZM29.3527 61.732L30.2442 62.185L32.5122 57.721L31.6207 57.268L30.7291 56.815L28.4611 61.279L29.3527 61.732ZM31.6207 57.268L31.0337 58.0776C32.0895 58.8431 33.303 59.4399 34.6632 59.8762L34.9687 58.924L35.2741 57.9718C34.0903 57.5921 33.0718 57.0849 32.2076 56.4584L31.6207 57.268ZM34.9687 58.924L34.6632 59.8762C36.0309 60.3149 37.4178 60.536 38.8207 60.536V59.536V58.536C37.6315 58.536 36.4504 58.3491 35.2741 57.9718L34.9687 58.924ZM38.8207 59.536V60.536C40.4021 60.536 41.7775 60.2268 42.8422 59.4967L42.2767 58.672L41.7111 57.8473C41.0958 58.2692 40.1673 58.536 38.8207 58.536V59.536ZM42.2767 58.672L42.8422 59.4967C43.9507 58.7366 44.5367 57.6378 44.5367 56.296H43.5367H42.5367C42.5367 56.9702 42.2826 57.4554 41.7111 57.8473L42.2767 58.672ZM43.5367 56.296H44.5367C44.5367 55.0329 44.0254 53.9734 43.0165 53.2249L42.4207 54.028L41.8248 54.8311C42.3039 55.1866 42.5367 55.6391 42.5367 56.296H43.5367ZM42.4207 54.028L43.0165 53.2249C42.0101 52.4782 40.5423 52.2 38.8207 52.2V53.2V54.2C40.411 54.2 41.3432 54.4738 41.8248 54.8311L42.4207 54.028ZM38.8207 53.2V52.2H36.1567V53.2V54.2H38.8207V53.2ZM36.1567 53.2H37.1567V49.348H36.1567H35.1567V53.2H36.1567ZM36.1567 49.348L36.9065 50.0096L43.9265 42.0536L43.1767 41.392L42.4268 40.7304L35.4068 48.6864L36.1567 49.348ZM43.1767 41.392L42.2216 41.6884L42.8696 43.7764L43.8247 43.48L44.7797 43.1836L44.1317 41.0956L43.1767 41.392ZM43.8247 43.48V42.48H30.6127V43.48V44.48H43.8247V43.48ZM30.6127 43.48H31.6127V38.8H30.6127H29.6127V43.48H30.6127ZM30.6127 38.8V39.8H48.2527V38.8V37.8H30.6127V38.8ZM48.2527 38.8H47.2527V42.58H48.2527H49.2527V38.8H48.2527ZM48.2527 42.58L47.5012 41.9203L40.5171 49.8763L41.2687 50.536L42.0202 51.1957L49.0042 43.2397L48.2527 42.58ZM41.2687 50.536L41.766 49.6684L38.814 47.9764L38.3167 48.844L37.8194 49.7116L40.7714 51.4036L41.2687 50.536ZM38.3167 48.844V49.844H40.0087V48.844V47.844H38.3167V48.844ZM40.0087 48.844V49.844C42.973 49.844 45.0362 50.5123 46.3686 51.6832L47.0287 50.932L47.6888 50.1808C45.8532 48.5677 43.2364 47.844 40.0087 47.844V48.844ZM47.0287 50.932L46.3686 51.6832C47.7279 52.8777 48.4047 54.3879 48.4047 56.296H49.4047H50.4047C50.4047 53.8361 49.4975 51.7703 47.6888 50.1808L47.0287 50.932ZM49.4047 56.296H48.4047C48.4047 57.5268 48.0839 58.6825 47.4297 59.7799L48.2887 60.292L49.1476 60.8041C49.9814 59.4055 50.4047 57.8972 50.4047 56.296H49.4047ZM48.2887 60.292L47.4342 59.7726C46.8058 60.8062 45.8229 61.6849 44.4215 62.3856L44.8687 63.28L45.3159 64.1744C46.9864 63.3391 48.2835 62.2258 49.1432 60.8114L48.2887 60.292ZM44.8687 63.28L44.4215 62.3856C43.0683 63.0622 41.2675 63.432 38.9647 63.432V64.432V65.432C41.4619 65.432 43.5971 65.0338 45.3159 64.1744L44.8687 63.28Z" fill="white" mask="url(#path-2-outside-1_78_63)"/>
</svg>
