<svg width="36" height="28" viewBox="0 0 36 28" fill="none" xmlns="http://www.w3.org/2000/svg">
<path d="M5.96469 25.92L5.69744 26.3426L5.70194 26.3454L5.96469 25.92ZM2.11269 21.456L1.66219 21.6729L2.11269 21.456ZM2.11269 7.344L2.56319 7.56091V7.56091L2.11269 7.344ZM5.96469 2.916L6.22745 3.34142L6.23192 3.3386L5.96469 2.916ZM17.0527 2.916L16.7826 3.33685L16.7899 3.3414L17.0527 2.916ZM20.9047 7.344L20.4542 7.56091V7.56091L20.9047 7.344ZM20.9047 21.456L20.4542 21.2391L20.9047 21.456ZM17.0527 25.92L17.3183 26.3436L17.3199 26.3426L17.0527 25.92ZM14.0647 21.672L13.7667 21.2704L13.7605 21.2752L14.0647 21.672ZM15.7927 19.044L15.3222 18.8746L15.3193 18.883L15.7927 19.044ZM15.7927 9.756L15.3192 9.91698L15.3222 9.92536L15.7927 9.756ZM14.0647 7.128L13.7604 7.52485L13.7668 7.52955L14.0647 7.128ZM8.95269 7.128L8.65473 6.7264L8.64847 6.7312L8.95269 7.128ZM7.22469 9.756L6.75417 9.58661L6.7513 9.59505L7.22469 9.756ZM7.22469 19.044L6.75123 19.205L6.75424 19.2134L7.22469 19.044ZM8.95269 21.672L8.64843 22.0689L8.65476 22.0735L8.95269 21.672ZM11.5087 27.432V26.932C9.53016 26.932 7.77446 26.4501 6.22743 25.4946L5.96469 25.92L5.70194 26.3454C7.41892 27.4059 9.35922 27.932 11.5087 27.932V27.432ZM5.96469 25.92L6.23192 25.4974C4.68812 24.5212 3.46348 23.1089 2.56319 21.2391L2.11269 21.456L1.66219 21.6729C2.6339 23.6911 3.97726 25.2548 5.69746 26.3426L5.96469 25.92ZM2.11269 21.456L2.56319 21.2391C1.66755 19.3789 1.20869 17.1052 1.20869 14.4H0.708688H0.208688C0.208688 17.2148 0.685824 19.6451 1.66219 21.6729L2.11269 21.456ZM0.708688 14.4H1.20869C1.20869 11.6948 1.66755 9.42108 2.56319 7.56091L2.11269 7.344L1.66219 7.12709C0.685824 9.15492 0.208688 11.5852 0.208688 14.4H0.708688ZM2.11269 7.344L2.56319 7.56091C3.46311 5.69184 4.68648 4.29316 6.22743 3.3414L5.96469 2.916L5.70194 2.4906C3.97889 3.55483 2.63427 5.10816 1.66219 7.12709L2.11269 7.344ZM5.96469 2.916L6.23192 3.3386C7.77839 2.36068 9.53249 1.868 11.5087 1.868V1.368V0.868C9.35689 0.868 7.41498 1.40732 5.69746 2.4934L5.96469 2.916ZM11.5087 1.368V1.868C13.5102 1.868 15.2626 2.36128 16.7826 3.33679L17.0527 2.916L17.3228 2.49521C15.6267 1.40672 13.6832 0.868 11.5087 0.868V1.368ZM17.0527 2.916L16.7899 3.3414C18.3309 4.29316 19.5543 5.69184 20.4542 7.56091L20.9047 7.344L21.3552 7.12709C20.3831 5.10816 19.0385 3.55483 17.3154 2.4906L17.0527 2.916ZM20.9047 7.344L20.4542 7.56091C21.3498 9.42108 21.8087 11.6948 21.8087 14.4H22.3087H22.8087C22.8087 11.5852 22.3316 9.15492 21.3552 7.12709L20.9047 7.344ZM22.3087 14.4H21.8087C21.8087 17.1052 21.3498 19.3789 20.4542 21.2391L20.9047 21.456L21.3552 21.6729C22.3316 19.6451 22.8087 17.2148 22.8087 14.4H22.3087ZM20.9047 21.456L20.4542 21.2391C19.5539 23.1089 18.3293 24.5212 16.7855 25.4974L17.0527 25.92L17.3199 26.3426C19.0401 25.2548 20.3835 23.6911 21.3552 21.6729L20.9047 21.456ZM17.0527 25.92L16.7871 25.4964C15.2666 26.4495 13.5125 26.932 11.5087 26.932V27.432V27.932C13.6809 27.932 15.6228 27.4065 17.3183 26.3436L17.0527 25.92ZM11.5087 22.5V23C12.5928 23 13.5541 22.6935 14.3689 22.0688L14.0647 21.672L13.7605 21.2752C13.1353 21.7545 12.3926 22 11.5087 22V22.5ZM14.0647 21.672L14.3626 22.0735C15.2132 21.4424 15.8371 20.4666 16.2661 19.205L15.7927 19.044L15.3193 18.883C14.9323 20.0214 14.4041 20.7976 13.7668 21.2705L14.0647 21.672ZM15.7927 19.044L16.2631 19.2134C16.7217 17.9394 16.9407 16.3284 16.9407 14.4H16.4407H15.9407C15.9407 16.2636 15.7276 17.7486 15.3222 18.8746L15.7927 19.044ZM16.4407 14.4H16.9407C16.9407 12.4716 16.7217 10.8606 16.2631 9.58664L15.7927 9.756L15.3222 9.92536C15.7276 11.0514 15.9407 12.5364 15.9407 14.4H16.4407ZM15.7927 9.756L16.2661 9.59505C15.8371 8.3334 15.2132 7.35756 14.3626 6.72645L14.0647 7.128L13.7668 7.52955C14.4041 8.00244 14.9323 8.7786 15.3193 9.91695L15.7927 9.756ZM14.0647 7.128L14.3689 6.7312C13.5541 6.10649 12.5928 5.8 11.5087 5.8V6.3V6.8C12.3926 6.8 13.1353 7.0455 13.7605 7.5248L14.0647 7.128ZM11.5087 6.3V5.8C10.4456 5.8 9.48822 6.10808 8.65476 6.72645L8.95269 7.128L9.25061 7.52955C9.90515 7.04392 10.6518 6.8 11.5087 6.8V6.3ZM8.95269 7.128L8.64847 6.7312C7.82743 7.36066 7.20609 8.33152 6.75424 9.58664L7.22469 9.756L7.69513 9.92536C8.10729 8.78048 8.63794 7.99934 9.2569 7.5248L8.95269 7.128ZM7.22469 9.756L6.7513 9.59505C6.31925 10.8658 6.11269 12.4736 6.11269 14.4H6.61269H7.11269C7.11269 12.5344 7.31413 11.0462 7.69807 9.91695L7.22469 9.756ZM6.61269 14.4H6.11269C6.11269 16.3264 6.31925 17.9342 6.7513 19.205L7.22469 19.044L7.69807 18.883C7.31413 17.7538 7.11269 16.2656 7.11269 14.4H6.61269ZM7.22469 19.044L6.75424 19.2134C7.20609 20.4685 7.82743 21.4393 8.64847 22.0688L8.95269 21.672L9.2569 21.2752C8.63794 20.8007 8.10729 20.0195 7.69513 18.8746L7.22469 19.044ZM8.95269 21.672L8.65476 22.0735C9.48822 22.6919 10.4456 23 11.5087 23V22.5V22C10.6518 22 9.90515 21.7561 9.25061 21.2705L8.95269 21.672ZM28.8897 27H28.3897V27.5H28.8897V27ZM28.8897 3.96L29.2432 3.60644L28.3897 2.75289V3.96H28.8897ZM31.4097 6.48V6.98H32.6168L31.7632 6.12644L31.4097 6.48ZM23.8497 6.48H23.3497V6.98H23.8497V6.48ZM23.8497 1.8V1.3H23.3497V1.8H23.8497ZM34.7217 1.8H35.2217V1.3H34.7217V1.8ZM34.7217 27V27.5H35.2217V27H34.7217ZM28.8897 27H29.3897V3.96H28.8897H28.3897V27H28.8897ZM28.8897 3.96L28.5361 4.31355L31.0561 6.83355L31.4097 6.48L31.7632 6.12644L29.2432 3.60644L28.8897 3.96ZM31.4097 6.48V5.98H23.8497V6.48V6.98H31.4097V6.48ZM23.8497 6.48H24.3497V1.8H23.8497H23.3497V6.48H23.8497ZM23.8497 1.8V2.3H34.7217V1.8V1.3H23.8497V1.8ZM34.7217 1.8H34.2217V27H34.7217H35.2217V1.8H34.7217ZM34.7217 27V26.5H28.8897V27V27.5H34.7217V27Z" fill="white"/>
</svg>
