<svg width="39" height="33" viewBox="0 0 39 33" fill="none" xmlns="http://www.w3.org/2000/svg">
<mask id="path-1-outside-1_221_356" maskUnits="userSpaceOnUse" x="0" y="0" width="39" height="33" fill="black">
<rect fill="white" width="39" height="33"/>
<path d="M9.75742 31.54C8.00542 31.54 6.54142 31.192 5.36542 30.496C4.18942 29.776 3.30142 28.792 2.70142 27.544C2.10142 26.296 1.80142 24.844 1.80142 23.188V9.976C1.80142 8.272 2.07742 6.784 2.62942 5.512C3.20542 4.216 4.08142 3.208 5.25742 2.488C6.43342 1.768 7.93342 1.408 9.75742 1.408C11.5814 1.408 13.0694 1.768 14.2214 2.488C15.3974 3.208 16.2614 4.216 16.8134 5.512C17.3894 6.784 17.6774 8.272 17.6774 9.976V23.188C17.6774 24.82 17.3774 26.272 16.7774 27.544C16.1774 28.792 15.2894 29.776 14.1134 30.496C12.9374 31.192 11.4854 31.54 9.75742 31.54ZM9.75742 26.176C10.3334 26.176 10.7414 25.996 10.9814 25.636C11.2454 25.252 11.4014 24.82 11.4494 24.34C11.5214 23.836 11.5574 23.404 11.5574 23.044V10.12C11.5574 9.712 11.5334 9.256 11.4854 8.752C11.4374 8.224 11.2814 7.768 11.0174 7.384C10.7774 6.976 10.3574 6.772 9.75742 6.772C9.15742 6.772 8.72542 6.976 8.46142 7.384C8.22142 7.768 8.07742 8.224 8.02942 8.752C7.98142 9.256 7.95742 9.712 7.95742 10.12V23.044C7.95742 23.404 7.99342 23.836 8.06542 24.34C8.13742 24.82 8.29342 25.252 8.53342 25.636C8.79742 25.996 9.20542 26.176 9.75742 26.176ZM21.1264 31V26.752L28.1104 16.024C28.6384 15.232 29.1304 14.464 29.5864 13.72C30.0664 12.976 30.4504 12.22 30.7384 11.452C31.0504 10.684 31.2064 9.88 31.2064 9.04C31.2064 8.2 31.0384 7.576 30.7024 7.168C30.3664 6.76 29.9104 6.556 29.3344 6.556C28.6864 6.556 28.1824 6.736 27.8224 7.096C27.4624 7.456 27.2104 7.936 27.0664 8.536C26.9464 9.136 26.8864 9.808 26.8864 10.552V11.992H21.0544V10.444C21.0544 8.716 21.3304 7.18 21.8824 5.836C22.4344 4.468 23.3104 3.4 24.5104 2.632C25.7104 1.84 27.2824 1.444 29.2264 1.444C31.8424 1.444 33.8104 2.128 35.1304 3.496C36.4744 4.84 37.1464 6.724 37.1464 9.148C37.1464 10.324 36.9544 11.416 36.5704 12.424C36.2104 13.432 35.7184 14.416 35.0944 15.376C34.4944 16.312 33.8464 17.296 33.1504 18.328L27.8224 26.284H36.3544V31H21.1264Z"/>
</mask>
<path d="M5.36542 30.496L4.84327 31.3489L4.84966 31.3528L4.8561 31.3566L5.36542 30.496ZM2.70142 27.544L3.60267 27.1107L3.60267 27.1107L2.70142 27.544ZM2.62942 5.512L1.71558 5.10585L1.71208 5.11391L2.62942 5.512ZM5.25742 2.488L4.73527 1.63515L4.73527 1.63515L5.25742 2.488ZM14.2214 2.488L13.6914 3.33603L13.6993 3.34085L14.2214 2.488ZM16.8134 5.512L15.8934 5.90386L15.8978 5.91424L15.9025 5.92451L16.8134 5.512ZM16.7774 27.544L17.6787 27.9773L17.6819 27.9706L16.7774 27.544ZM14.1134 30.496L14.6227 31.3566L14.6292 31.3528L14.6356 31.3489L14.1134 30.496ZM10.9814 25.636L10.1574 25.0695L10.1533 25.0754L10.1494 25.0813L10.9814 25.636ZM11.4494 24.34L10.4595 24.1986L10.4565 24.2195L10.4544 24.2405L11.4494 24.34ZM11.4854 8.752L10.4895 8.84254L10.4899 8.84681L11.4854 8.752ZM11.0174 7.384L10.1555 7.89102L10.1734 7.92144L10.1934 7.95053L11.0174 7.384ZM8.46142 7.384L7.62185 6.84075L7.61759 6.84734L7.61342 6.854L8.46142 7.384ZM8.02942 8.752L9.02493 8.84681L9.02532 8.84253L8.02942 8.752ZM8.06542 24.34L7.07545 24.4814L7.07649 24.4883L8.06542 24.34ZM8.53342 25.636L7.68542 26.166L7.70508 26.1975L7.72702 26.2274L8.53342 25.636ZM9.75742 31.54V30.54C8.13498 30.54 6.85878 30.2178 5.87474 29.6354L5.36542 30.496L4.8561 31.3566C6.22406 32.1662 7.87586 32.54 9.75742 32.54V31.54ZM5.36542 30.496L5.88758 29.6431C4.87641 29.0241 4.11968 28.1861 3.60267 27.1107L2.70142 27.544L1.80017 27.9773C2.48317 29.3979 3.50243 30.5279 4.84327 31.3489L5.36542 30.496ZM2.70142 27.544L3.60267 27.1107C3.07918 26.0218 2.80142 24.723 2.80142 23.188H1.80142H0.801422C0.801422 24.965 1.12366 26.5702 1.80017 27.9773L2.70142 27.544ZM1.80142 23.188H2.80142V9.976H1.80142H0.801422V23.188H1.80142ZM1.80142 9.976H2.80142C2.80142 8.37844 3.06025 7.03119 3.54677 5.91009L2.62942 5.512L1.71208 5.11391C1.09459 6.53681 0.801422 8.16556 0.801422 9.976H1.80142ZM2.62942 5.512L3.54323 5.91814C4.03945 4.80166 4.78154 3.95189 5.77958 3.34085L5.25742 2.488L4.73527 1.63515C3.3813 2.46411 2.3714 3.63034 1.71561 5.10586L2.62942 5.512ZM5.25742 2.488L5.77958 3.34085C6.75539 2.74341 8.05973 2.408 9.75742 2.408V1.408V0.407999C7.80711 0.407999 6.11146 0.792583 4.73527 1.63515L5.25742 2.488ZM9.75742 1.408V2.408C11.4564 2.408 12.7441 2.74389 13.6914 3.336L14.2214 2.488L14.7514 1.64C13.3948 0.792108 11.7065 0.407999 9.75742 0.407999V1.408ZM14.2214 2.488L13.6993 3.34085C14.6939 3.9498 15.421 4.79473 15.8934 5.90386L16.8134 5.512L17.7334 5.12014C17.1019 3.63727 16.101 2.46619 14.7436 1.63515L14.2214 2.488ZM16.8134 5.512L15.9025 5.92451C16.4083 7.04161 16.6774 8.38361 16.6774 9.976H17.6774H18.6774C18.6774 8.16039 18.3705 6.52639 17.7244 5.09949L16.8134 5.512ZM17.6774 9.976H16.6774V23.188H17.6774H18.6774V9.976H17.6774ZM17.6774 23.188H16.6774C16.6774 24.6961 16.4007 25.9986 15.873 27.1174L16.7774 27.544L17.6819 27.9706C18.3541 26.5454 18.6774 24.9439 18.6774 23.188H17.6774ZM16.7774 27.544L15.8762 27.1107C15.3592 28.1861 14.6024 29.0241 13.5913 29.6431L14.1134 30.496L14.6356 31.3489C15.9764 30.5279 16.9957 29.3979 17.6787 27.9773L16.7774 27.544ZM14.1134 30.496L13.6041 29.6354C12.6181 30.219 11.353 30.54 9.75742 30.54V31.54V32.54C11.6179 32.54 13.2567 32.165 14.6227 31.3566L14.1134 30.496ZM9.75742 26.176V27.176C10.545 27.176 11.3289 26.9175 11.8135 26.1907L10.9814 25.636L10.1494 25.0813C10.1383 25.0978 10.1272 25.1104 10.0918 25.1261C10.0463 25.1462 9.94529 25.176 9.75742 25.176V26.176ZM10.9814 25.636L11.8055 26.2025C12.1683 25.6747 12.3803 25.081 12.4445 24.4395L11.4494 24.34L10.4544 24.2405C10.4225 24.559 10.3225 24.8293 10.1574 25.0695L10.9814 25.636ZM11.4494 24.34L12.4394 24.4814C12.5156 23.9481 12.5574 23.4662 12.5574 23.044H11.5574H10.5574C10.5574 23.3418 10.5273 23.7239 10.4595 24.1986L11.4494 24.34ZM11.5574 23.044H12.5574V10.12H11.5574H10.5574V23.044H11.5574ZM11.5574 10.12H12.5574C12.5574 9.67389 12.5312 9.18555 12.4809 8.65719L11.4854 8.752L10.4899 8.84681C10.5356 9.32645 10.5574 9.75011 10.5574 10.12H11.5574ZM11.4854 8.752L12.4813 8.66146C12.42 7.98656 12.2153 7.36129 11.8415 6.81747L11.0174 7.384L10.1934 7.95053C10.3475 8.1747 10.4549 8.46144 10.4895 8.84253L11.4854 8.752ZM11.0174 7.384L11.8794 6.87698C11.4103 6.07965 10.6023 5.772 9.75742 5.772V6.772V7.772C9.94774 7.772 10.0448 7.80471 10.0855 7.82451C10.1157 7.83916 10.1339 7.85438 10.1555 7.89102L11.0174 7.384ZM9.75742 6.772V5.772C8.90933 5.772 8.11469 6.07909 7.62185 6.84075L8.46142 7.384L9.30099 7.92725C9.33615 7.87291 9.40552 7.772 9.75742 7.772V6.772ZM8.46142 7.384L7.61342 6.854C7.27729 7.39181 7.0933 8.00401 7.03353 8.66146L8.02942 8.752L9.02532 8.84253C9.06155 8.44398 9.16555 8.14418 9.30942 7.914L8.46142 7.384ZM8.02942 8.752L7.03393 8.65719C6.98361 9.18555 6.95742 9.67389 6.95742 10.12H7.95742H8.95742C8.95742 9.75011 8.97924 9.32645 9.02492 8.84681L8.02942 8.752ZM7.95742 10.12H6.95742V23.044H7.95742H8.95742V10.12H7.95742ZM7.95742 23.044H6.95742C6.95742 23.4662 6.99928 23.9481 7.07547 24.4814L8.06542 24.34L9.05537 24.1986C8.98756 23.7239 8.95742 23.3418 8.95742 23.044H7.95742ZM8.06542 24.34L7.07649 24.4883C7.16733 25.094 7.36768 25.6576 7.68542 26.166L8.53342 25.636L9.38142 25.106C9.21917 24.8464 9.10751 24.546 9.05436 24.1917L8.06542 24.34ZM8.53342 25.636L7.72702 26.2274C8.22419 26.9053 8.97108 27.176 9.75742 27.176V26.176V25.176C9.43976 25.176 9.37065 25.0867 9.33983 25.0446L8.53342 25.636ZM21.1264 31H20.1264V32H21.1264V31ZM21.1264 26.752L20.2883 26.2064L20.1264 26.4552V26.752H21.1264ZM28.1104 16.024L27.2783 15.4693L27.2723 15.4784L28.1104 16.024ZM29.5864 13.72L28.7461 13.1779L28.7398 13.1876L28.7338 13.1974L29.5864 13.72ZM30.7384 11.452L29.8119 11.0756L29.8068 11.0882L29.8021 11.1009L30.7384 11.452ZM30.7024 7.168L31.4743 6.53229L31.4743 6.53229L30.7024 7.168ZM27.0664 8.536L26.094 8.30263L26.0896 8.32118L26.0858 8.33988L27.0664 8.536ZM26.8864 11.992V12.992H27.8864V11.992H26.8864ZM21.0544 11.992H20.0544V12.992H21.0544V11.992ZM21.8824 5.836L22.8074 6.21592L22.8097 6.21019L21.8824 5.836ZM24.5104 2.632L25.0495 3.47435L25.0612 3.46661L24.5104 2.632ZM35.1304 3.496L34.4108 4.19037L34.417 4.19679L34.4233 4.2031L35.1304 3.496ZM36.5704 12.424L35.6359 12.068L35.6322 12.0778L35.6286 12.0877L36.5704 12.424ZM35.0944 15.376L34.2559 14.831L34.2525 14.8363L35.0944 15.376ZM33.1504 18.328L32.3213 17.7689L32.3195 17.7716L33.1504 18.328ZM27.8224 26.284L26.9915 25.7276L25.9492 27.284H27.8224V26.284ZM36.3544 26.284H37.3544V25.284H36.3544V26.284ZM36.3544 31V32H37.3544V31H36.3544ZM21.1264 31H22.1264V26.752H21.1264H20.1264V31H21.1264ZM21.1264 26.752L21.9644 27.2976L28.9484 16.5696L28.1104 16.024L27.2723 15.4784L20.2883 26.2064L21.1264 26.752ZM28.1104 16.024L28.9424 16.5787C29.4769 15.7771 29.9758 14.9983 30.439 14.2426L29.5864 13.72L28.7338 13.1974C28.285 13.9297 27.7999 14.6869 27.2783 15.4693L28.1104 16.024ZM29.5864 13.72L30.4267 14.2621C30.9424 13.4628 31.3597 12.6431 31.6747 11.8031L30.7384 11.452L29.8021 11.1009C29.5411 11.7969 29.1904 12.4892 28.7461 13.1779L29.5864 13.72ZM30.7384 11.452L31.6649 11.8284C32.0261 10.9392 32.2064 10.0073 32.2064 9.04H31.2064H30.2064C30.2064 9.75273 30.0747 10.4288 29.8119 11.0756L30.7384 11.452ZM31.2064 9.04H32.2064C32.2064 8.09643 32.0227 7.19821 31.4743 6.53229L30.7024 7.168L29.9305 7.8037C30.0541 7.95379 30.2064 8.30357 30.2064 9.04H31.2064ZM30.7024 7.168L31.4743 6.53229C30.9298 5.87105 30.1787 5.556 29.3344 5.556V6.556V7.556C29.6421 7.556 29.803 7.64895 29.9305 7.80371L30.7024 7.168ZM29.3344 6.556V5.556C28.4971 5.556 27.7105 5.79372 27.1153 6.38889L27.8224 7.096L28.5295 7.80311C28.6543 7.67828 28.8756 7.556 29.3344 7.556V6.556ZM27.8224 7.096L27.1153 6.38889C26.5997 6.90452 26.2719 7.56142 26.094 8.30263L27.0664 8.536L28.0388 8.76937C28.1489 8.31058 28.3251 8.00748 28.5295 7.80311L27.8224 7.096ZM27.0664 8.536L26.0858 8.33988C25.9505 9.01651 25.8864 9.7557 25.8864 10.552H26.8864H27.8864C27.8864 9.86029 27.9423 9.25548 28.047 8.73212L27.0664 8.536ZM26.8864 10.552H25.8864V11.992H26.8864H27.8864V10.552H26.8864ZM26.8864 11.992V10.992H21.0544V11.992V12.992H26.8864V11.992ZM21.0544 11.992H22.0544V10.444H21.0544H20.0544V11.992H21.0544ZM21.0544 10.444H22.0544C22.0544 8.82212 22.3133 7.41885 22.8074 6.21592L21.8824 5.836L20.9574 5.45608C20.3474 6.94115 20.0544 8.60988 20.0544 10.444H21.0544ZM21.8824 5.836L22.8097 6.21019C23.287 5.02748 24.0308 4.12619 25.0494 3.47427L24.5104 2.632L23.9713 1.78973C22.59 2.67381 21.5818 3.90852 20.955 5.4618L21.8824 5.836ZM24.5104 2.632L25.0612 3.46661C26.0495 2.81434 27.4111 2.444 29.2264 2.444V1.444V0.443999C27.1537 0.443999 25.3713 0.865654 23.9595 1.79739L24.5104 2.632ZM29.2264 1.444V2.444C31.6758 2.444 33.3414 3.08207 34.4108 4.19037L35.1304 3.496L35.85 2.80163C34.2794 1.17392 32.009 0.443999 29.2264 0.443999V1.444ZM35.1304 3.496L34.4233 4.2031C35.5318 5.31157 36.1464 6.91261 36.1464 9.148H37.1464H38.1464C38.1464 6.53539 37.417 4.36842 35.8375 2.78889L35.1304 3.496ZM37.1464 9.148H36.1464C36.1464 10.2133 35.9728 11.1835 35.6359 12.068L36.5704 12.424L37.5049 12.78C37.9359 11.6485 38.1464 10.4347 38.1464 9.148H37.1464ZM36.5704 12.424L35.6286 12.0877C35.2966 13.0174 34.8404 13.9318 34.2559 14.831L35.0944 15.376L35.9328 15.921C36.5963 14.9002 37.1242 13.8466 37.5121 12.7603L36.5704 12.424ZM35.0944 15.376L34.2525 14.8363C33.6572 15.7651 33.0135 16.7426 32.3213 17.7689L33.1504 18.328L33.9795 18.8871C34.6793 17.8494 35.3316 16.8589 35.9363 15.9157L35.0944 15.376ZM33.1504 18.328L32.3195 17.7716L26.9915 25.7276L27.8224 26.284L28.6533 26.8404L33.9813 18.8844L33.1504 18.328ZM27.8224 26.284V27.284H36.3544V26.284V25.284H27.8224V26.284ZM36.3544 26.284H35.3544V31H36.3544H37.3544V26.284H36.3544ZM36.3544 31V30H21.1264V31V32H36.3544V31Z" fill="white" mask="url(#path-1-outside-1_221_356)"/>
</svg>
