<svg width="68" height="3" viewBox="0 0 68 3" fill="none" xmlns="http://www.w3.org/2000/svg">
<path d="M0.941922 2.06C0.765922 2.06 0.613922 1.996 0.485922 1.868C0.365922 1.74 0.305922 1.584 0.305922 1.4C0.305922 1.208 0.365922 1.052 0.485922 0.932C0.613922 0.812 0.765922 0.752 0.941922 0.752C1.11792 0.752 1.26592 0.812 1.38592 0.932C1.51392 1.052 1.57792 1.208 1.57792 1.4C1.57792 1.584 1.51392 1.74 1.38592 1.868C1.26592 1.996 1.11792 2.06 0.941922 2.06ZM3.48489 2.06C3.30889 2.06 3.15689 1.996 3.02889 1.868C2.90889 1.74 2.84889 1.584 2.84889 1.4C2.84889 1.208 2.90889 1.052 3.02889 0.932C3.15689 0.812 3.30889 0.752 3.48489 0.752C3.66089 0.752 3.80889 0.812 3.92889 0.932C4.05689 1.052 4.12089 1.208 4.12089 1.4C4.12089 1.584 4.05689 1.74 3.92889 1.868C3.80889 1.996 3.66089 2.06 3.48489 2.06ZM6.02786 2.06C5.85186 2.06 5.69986 1.996 5.57186 1.868C5.45186 1.74 5.39186 1.584 5.39186 1.4C5.39186 1.208 5.45186 1.052 5.57186 0.932C5.69986 0.812 5.85186 0.752 6.02786 0.752C6.20386 0.752 6.35186 0.812 6.47186 0.932C6.59986 1.052 6.66386 1.208 6.66386 1.4C6.66386 1.584 6.59986 1.74 6.47186 1.868C6.35186 1.996 6.20386 2.06 6.02786 2.06ZM8.57083 2.06C8.39483 2.06 8.24283 1.996 8.11483 1.868C7.99483 1.74 7.93483 1.584 7.93483 1.4C7.93483 1.208 7.99483 1.052 8.11483 0.932C8.24283 0.812 8.39483 0.752 8.57083 0.752C8.74683 0.752 8.89483 0.812 9.01483 0.932C9.14283 1.052 9.20683 1.208 9.20683 1.4C9.20683 1.584 9.14283 1.74 9.01483 1.868C8.89483 1.996 8.74683 2.06 8.57083 2.06ZM11.1138 2.06C10.9378 2.06 10.7858 1.996 10.6578 1.868C10.5378 1.74 10.4778 1.584 10.4778 1.4C10.4778 1.208 10.5378 1.052 10.6578 0.932C10.7858 0.812 10.9378 0.752 11.1138 0.752C11.2898 0.752 11.4378 0.812 11.5578 0.932C11.6858 1.052 11.7498 1.208 11.7498 1.4C11.7498 1.584 11.6858 1.74 11.5578 1.868C11.4378 1.996 11.2898 2.06 11.1138 2.06ZM13.6568 2.06C13.4808 2.06 13.3288 1.996 13.2008 1.868C13.0808 1.74 13.0208 1.584 13.0208 1.4C13.0208 1.208 13.0808 1.052 13.2008 0.932C13.3288 0.812 13.4808 0.752 13.6568 0.752C13.8328 0.752 13.9808 0.812 14.1008 0.932C14.2288 1.052 14.2928 1.208 14.2928 1.4C14.2928 1.584 14.2288 1.74 14.1008 1.868C13.9808 1.996 13.8328 2.06 13.6568 2.06ZM16.1997 2.06C16.0237 2.06 15.8717 1.996 15.7437 1.868C15.6237 1.74 15.5637 1.584 15.5637 1.4C15.5637 1.208 15.6237 1.052 15.7437 0.932C15.8717 0.812 16.0237 0.752 16.1997 0.752C16.3757 0.752 16.5237 0.812 16.6437 0.932C16.7717 1.052 16.8357 1.208 16.8357 1.4C16.8357 1.584 16.7717 1.74 16.6437 1.868C16.5237 1.996 16.3757 2.06 16.1997 2.06ZM18.7427 2.06C18.5667 2.06 18.4147 1.996 18.2867 1.868C18.1667 1.74 18.1067 1.584 18.1067 1.4C18.1067 1.208 18.1667 1.052 18.2867 0.932C18.4147 0.812 18.5667 0.752 18.7427 0.752C18.9187 0.752 19.0667 0.812 19.1867 0.932C19.3147 1.052 19.3787 1.208 19.3787 1.4C19.3787 1.584 19.3147 1.74 19.1867 1.868C19.0667 1.996 18.9187 2.06 18.7427 2.06ZM21.2857 2.06C21.1097 2.06 20.9577 1.996 20.8297 1.868C20.7097 1.74 20.6497 1.584 20.6497 1.4C20.6497 1.208 20.7097 1.052 20.8297 0.932C20.9577 0.812 21.1097 0.752 21.2857 0.752C21.4617 0.752 21.6097 0.812 21.7297 0.932C21.8577 1.052 21.9217 1.208 21.9217 1.4C21.9217 1.584 21.8577 1.74 21.7297 1.868C21.6097 1.996 21.4617 2.06 21.2857 2.06ZM23.8286 2.06C23.6526 2.06 23.5006 1.996 23.3726 1.868C23.2526 1.74 23.1926 1.584 23.1926 1.4C23.1926 1.208 23.2526 1.052 23.3726 0.932C23.5006 0.812 23.6526 0.752 23.8286 0.752C24.0046 0.752 24.1526 0.812 24.2726 0.932C24.4006 1.052 24.4646 1.208 24.4646 1.4C24.4646 1.584 24.4006 1.74 24.2726 1.868C24.1526 1.996 24.0046 2.06 23.8286 2.06ZM26.3716 2.06C26.1956 2.06 26.0436 1.996 25.9156 1.868C25.7956 1.74 25.7356 1.584 25.7356 1.4C25.7356 1.208 25.7956 1.052 25.9156 0.932C26.0436 0.812 26.1956 0.752 26.3716 0.752C26.5476 0.752 26.6956 0.812 26.8156 0.932C26.9436 1.052 27.0076 1.208 27.0076 1.4C27.0076 1.584 26.9436 1.74 26.8156 1.868C26.6956 1.996 26.5476 2.06 26.3716 2.06ZM28.9146 2.06C28.7386 2.06 28.5866 1.996 28.4586 1.868C28.3386 1.74 28.2786 1.584 28.2786 1.4C28.2786 1.208 28.3386 1.052 28.4586 0.932C28.5866 0.812 28.7386 0.752 28.9146 0.752C29.0906 0.752 29.2386 0.812 29.3586 0.932C29.4866 1.052 29.5506 1.208 29.5506 1.4C29.5506 1.584 29.4866 1.74 29.3586 1.868C29.2386 1.996 29.0906 2.06 28.9146 2.06ZM31.4575 2.06C31.2815 2.06 31.1295 1.996 31.0015 1.868C30.8815 1.74 30.8215 1.584 30.8215 1.4C30.8215 1.208 30.8815 1.052 31.0015 0.932C31.1295 0.812 31.2815 0.752 31.4575 0.752C31.6335 0.752 31.7815 0.812 31.9015 0.932C32.0295 1.052 32.0935 1.208 32.0935 1.4C32.0935 1.584 32.0295 1.74 31.9015 1.868C31.7815 1.996 31.6335 2.06 31.4575 2.06ZM34.0005 2.06C33.8245 2.06 33.6725 1.996 33.5445 1.868C33.4245 1.74 33.3645 1.584 33.3645 1.4C33.3645 1.208 33.4245 1.052 33.5445 0.932C33.6725 0.812 33.8245 0.752 34.0005 0.752C34.1765 0.752 34.3245 0.812 34.4445 0.932C34.5725 1.052 34.6365 1.208 34.6365 1.4C34.6365 1.584 34.5725 1.74 34.4445 1.868C34.3245 1.996 34.1765 2.06 34.0005 2.06ZM36.5435 2.06C36.3675 2.06 36.2155 1.996 36.0875 1.868C35.9675 1.74 35.9075 1.584 35.9075 1.4C35.9075 1.208 35.9675 1.052 36.0875 0.932C36.2155 0.812 36.3675 0.752 36.5435 0.752C36.7195 0.752 36.8675 0.812 36.9875 0.932C37.1155 1.052 37.1795 1.208 37.1795 1.4C37.1795 1.584 37.1155 1.74 36.9875 1.868C36.8675 1.996 36.7195 2.06 36.5435 2.06ZM39.0865 2.06C38.9105 2.06 38.7585 1.996 38.6305 1.868C38.5105 1.74 38.4505 1.584 38.4505 1.4C38.4505 1.208 38.5105 1.052 38.6305 0.932C38.7585 0.812 38.9105 0.752 39.0865 0.752C39.2625 0.752 39.4105 0.812 39.5305 0.932C39.6585 1.052 39.7225 1.208 39.7225 1.4C39.7225 1.584 39.6585 1.74 39.5305 1.868C39.4105 1.996 39.2625 2.06 39.0865 2.06ZM41.6294 2.06C41.4534 2.06 41.3014 1.996 41.1734 1.868C41.0534 1.74 40.9934 1.584 40.9934 1.4C40.9934 1.208 41.0534 1.052 41.1734 0.932C41.3014 0.812 41.4534 0.752 41.6294 0.752C41.8054 0.752 41.9534 0.812 42.0734 0.932C42.2014 1.052 42.2654 1.208 42.2654 1.4C42.2654 1.584 42.2014 1.74 42.0734 1.868C41.9534 1.996 41.8054 2.06 41.6294 2.06ZM44.1724 2.06C43.9964 2.06 43.8444 1.996 43.7164 1.868C43.5964 1.74 43.5364 1.584 43.5364 1.4C43.5364 1.208 43.5964 1.052 43.7164 0.932C43.8444 0.812 43.9964 0.752 44.1724 0.752C44.3484 0.752 44.4964 0.812 44.6164 0.932C44.7444 1.052 44.8084 1.208 44.8084 1.4C44.8084 1.584 44.7444 1.74 44.6164 1.868C44.4964 1.996 44.3484 2.06 44.1724 2.06ZM46.7154 2.06C46.5394 2.06 46.3874 1.996 46.2594 1.868C46.1394 1.74 46.0794 1.584 46.0794 1.4C46.0794 1.208 46.1394 1.052 46.2594 0.932C46.3874 0.812 46.5394 0.752 46.7154 0.752C46.8914 0.752 47.0394 0.812 47.1594 0.932C47.2874 1.052 47.3514 1.208 47.3514 1.4C47.3514 1.584 47.2874 1.74 47.1594 1.868C47.0394 1.996 46.8914 2.06 46.7154 2.06ZM49.2583 2.06C49.0823 2.06 48.9303 1.996 48.8023 1.868C48.6823 1.74 48.6223 1.584 48.6223 1.4C48.6223 1.208 48.6823 1.052 48.8023 0.932C48.9303 0.812 49.0823 0.752 49.2583 0.752C49.4343 0.752 49.5823 0.812 49.7023 0.932C49.8303 1.052 49.8943 1.208 49.8943 1.4C49.8943 1.584 49.8303 1.74 49.7023 1.868C49.5823 1.996 49.4343 2.06 49.2583 2.06ZM51.8013 2.06C51.6253 2.06 51.4733 1.996 51.3453 1.868C51.2253 1.74 51.1653 1.584 51.1653 1.4C51.1653 1.208 51.2253 1.052 51.3453 0.932C51.4733 0.812 51.6253 0.752 51.8013 0.752C51.9773 0.752 52.1253 0.812 52.2453 0.932C52.3733 1.052 52.4373 1.208 52.4373 1.4C52.4373 1.584 52.3733 1.74 52.2453 1.868C52.1253 1.996 51.9773 2.06 51.8013 2.06ZM54.3443 2.06C54.1683 2.06 54.0163 1.996 53.8883 1.868C53.7683 1.74 53.7083 1.584 53.7083 1.4C53.7083 1.208 53.7683 1.052 53.8883 0.932C54.0163 0.812 54.1683 0.752 54.3443 0.752C54.5203 0.752 54.6683 0.812 54.7883 0.932C54.9163 1.052 54.9803 1.208 54.9803 1.4C54.9803 1.584 54.9163 1.74 54.7883 1.868C54.6683 1.996 54.5203 2.06 54.3443 2.06ZM56.8872 2.06C56.7112 2.06 56.5592 1.996 56.4312 1.868C56.3112 1.74 56.2512 1.584 56.2512 1.4C56.2512 1.208 56.3112 1.052 56.4312 0.932C56.5592 0.812 56.7112 0.752 56.8872 0.752C57.0632 0.752 57.2112 0.812 57.3312 0.932C57.4592 1.052 57.5232 1.208 57.5232 1.4C57.5232 1.584 57.4592 1.74 57.3312 1.868C57.2112 1.996 57.0632 2.06 56.8872 2.06ZM59.4302 2.06C59.2542 2.06 59.1022 1.996 58.9742 1.868C58.8542 1.74 58.7942 1.584 58.7942 1.4C58.7942 1.208 58.8542 1.052 58.9742 0.932C59.1022 0.812 59.2542 0.752 59.4302 0.752C59.6062 0.752 59.7542 0.812 59.8742 0.932C60.0022 1.052 60.0662 1.208 60.0662 1.4C60.0662 1.584 60.0022 1.74 59.8742 1.868C59.7542 1.996 59.6062 2.06 59.4302 2.06ZM61.9732 2.06C61.7972 2.06 61.6452 1.996 61.5172 1.868C61.3972 1.74 61.3372 1.584 61.3372 1.4C61.3372 1.208 61.3972 1.052 61.5172 0.932C61.6452 0.812 61.7972 0.752 61.9732 0.752C62.1492 0.752 62.2972 0.812 62.4172 0.932C62.5452 1.052 62.6092 1.208 62.6092 1.4C62.6092 1.584 62.5452 1.74 62.4172 1.868C62.2972 1.996 62.1492 2.06 61.9732 2.06ZM64.5161 2.06C64.3401 2.06 64.1881 1.996 64.0601 1.868C63.9401 1.74 63.8801 1.584 63.8801 1.4C63.8801 1.208 63.9401 1.052 64.0601 0.932C64.1881 0.812 64.3401 0.752 64.5161 0.752C64.6921 0.752 64.8401 0.812 64.9601 0.932C65.0881 1.052 65.1521 1.208 65.1521 1.4C65.1521 1.584 65.0881 1.74 64.9601 1.868C64.8401 1.996 64.6921 2.06 64.5161 2.06ZM67.0591 2.06C66.8831 2.06 66.7311 1.996 66.6031 1.868C66.4831 1.74 66.4231 1.584 66.4231 1.4C66.4231 1.208 66.4831 1.052 66.6031 0.932C66.7311 0.812 66.8831 0.752 67.0591 0.752C67.2351 0.752 67.3831 0.812 67.5031 0.932C67.6311 1.052 67.6951 1.208 67.6951 1.4C67.6951 1.584 67.6311 1.74 67.5031 1.868C67.3831 1.996 67.2351 2.06 67.0591 2.06Z" fill="black"/>
</svg>
