<svg width="187" height="21" viewBox="0 0 187 21" fill="none" xmlns="http://www.w3.org/2000/svg">
<g filter="url(#filter0_d_271_821)">
<path d="M2.992 19V2.2H10.264C11.768 2.2 13.064 2.448 14.152 2.944C15.24 3.424 16.08 4.12 16.672 5.032C17.264 5.944 17.56 7.032 17.56 8.296C17.56 9.544 17.264 10.624 16.672 11.536C16.08 12.448 15.24 13.152 14.152 13.648C13.064 14.128 11.768 14.368 10.264 14.368H5.152L6.88 12.616V19H2.992ZM6.88 13.048L5.152 11.2H10.048C11.248 11.2 12.144 10.944 12.736 10.432C13.328 9.92 13.624 9.208 13.624 8.296C13.624 7.368 13.328 6.648 12.736 6.136C12.144 5.624 11.248 5.368 10.048 5.368H5.152L6.88 3.52V13.048ZM20.3358 19V2.2H27.6078C29.1118 2.2 30.4078 2.448 31.4958 2.944C32.5838 3.424 33.4238 4.12 34.0158 5.032C34.6078 5.944 34.9038 7.032 34.9038 8.296C34.9038 9.544 34.6078 10.624 34.0158 11.536C33.4238 12.432 32.5838 13.12 31.4958 13.6C30.4078 14.08 29.1118 14.32 27.6078 14.32H22.4958L24.2238 12.616V19H20.3358ZM31.0157 19L26.8158 12.904H30.9678L35.2158 19H31.0157ZM24.2238 13.048L22.4958 11.224H27.3918C28.5918 11.224 29.4878 10.968 30.0798 10.456C30.6718 9.928 30.9678 9.208 30.9678 8.296C30.9678 7.368 30.6718 6.648 30.0798 6.136C29.4878 5.624 28.5918 5.368 27.3918 5.368H22.4958L24.2238 3.52V13.048ZM46.1442 19.288C44.8162 19.288 43.5842 19.072 42.4482 18.64C41.3282 18.208 40.3522 17.6 39.5202 16.816C38.7042 16.032 38.0642 15.112 37.6002 14.056C37.1522 13 36.9282 11.848 36.9282 10.6C36.9282 9.352 37.1522 8.2 37.6002 7.144C38.0642 6.088 38.7122 5.168 39.5442 4.384C40.3762 3.6 41.3522 2.992 42.4722 2.56C43.5922 2.128 44.8082 1.912 46.1202 1.912C47.4482 1.912 48.6642 2.128 49.7682 2.56C50.8882 2.992 51.8562 3.6 52.6722 4.384C53.5042 5.168 54.1522 6.088 54.6162 7.144C55.0802 8.184 55.3122 9.336 55.3122 10.6C55.3122 11.848 55.0802 13.008 54.6162 14.08C54.1522 15.136 53.5042 16.056 52.6722 16.84C51.8562 17.608 50.8882 18.208 49.7682 18.64C48.6642 19.072 47.4562 19.288 46.1442 19.288ZM46.1202 15.976C46.8722 15.976 47.5602 15.848 48.1842 15.592C48.8242 15.336 49.3842 14.968 49.8642 14.488C50.3442 14.008 50.7122 13.44 50.9682 12.784C51.2402 12.128 51.3762 11.4 51.3762 10.6C51.3762 9.8 51.2402 9.072 50.9682 8.416C50.7122 7.76 50.3442 7.192 49.8642 6.712C49.4002 6.232 48.8482 5.864 48.2082 5.608C47.5682 5.352 46.8722 5.224 46.1202 5.224C45.3682 5.224 44.6722 5.352 44.0322 5.608C43.4082 5.864 42.8562 6.232 42.3762 6.712C41.8962 7.192 41.5202 7.76 41.2482 8.416C40.9922 9.072 40.8642 9.8 40.8642 10.6C40.8642 11.384 40.9922 12.112 41.2482 12.784C41.5202 13.44 41.8882 14.008 42.3522 14.488C42.8322 14.968 43.3922 15.336 44.0322 15.592C44.6722 15.848 45.3682 15.976 46.1202 15.976ZM58.2342 19V2.2H65.8662C67.6902 2.2 69.2982 2.552 70.6902 3.256C72.0822 3.944 73.1702 4.912 73.9542 6.16C74.7382 7.408 75.1302 8.888 75.1302 10.6C75.1302 12.296 74.7382 13.776 73.9542 15.04C73.1702 16.288 72.0822 17.264 70.6902 17.968C69.2982 18.656 67.6902 19 65.8662 19H58.2342ZM62.1222 15.808H65.6742C66.7942 15.808 67.7622 15.6 68.5782 15.184C69.4102 14.752 70.0502 14.144 70.4982 13.36C70.9622 12.576 71.1942 11.656 71.1942 10.6C71.1942 9.528 70.9622 8.608 70.4982 7.84C70.0502 7.056 69.4102 6.456 68.5782 6.04C67.7622 5.608 66.7942 5.392 65.6742 5.392H62.1222V15.808ZM85.5263 19.288C83.1423 19.288 81.2783 18.624 79.9343 17.296C78.5903 15.968 77.9183 14.072 77.9183 11.608V2.2H81.8063V11.464C81.8063 13.064 82.1343 14.216 82.7903 14.92C83.4463 15.624 84.3663 15.976 85.5503 15.976C86.7343 15.976 87.6543 15.624 88.3103 14.92C88.9663 14.216 89.2943 13.064 89.2943 11.464V2.2H93.1343V11.608C93.1343 14.072 92.4623 15.968 91.1183 17.296C89.7743 18.624 87.9103 19.288 85.5263 19.288ZM105.016 19.288C103.72 19.288 102.512 19.08 101.392 18.664C100.288 18.232 99.3284 17.624 98.5124 16.84C97.6964 16.056 97.0564 15.136 96.5924 14.08C96.1444 13.024 95.9204 11.864 95.9204 10.6C95.9204 9.336 96.1444 8.176 96.5924 7.12C97.0564 6.064 97.6964 5.144 98.5124 4.36C99.3444 3.576 100.312 2.976 101.416 2.56C102.52 2.128 103.728 1.912 105.04 1.912C106.496 1.912 107.808 2.168 108.976 2.68C110.16 3.176 111.152 3.912 111.952 4.888L109.456 7.192C108.88 6.536 108.24 6.048 107.536 5.728C106.832 5.392 106.064 5.224 105.232 5.224C104.448 5.224 103.728 5.352 103.072 5.608C102.416 5.864 101.848 6.232 101.368 6.712C100.888 7.192 100.512 7.76 100.24 8.416C99.9844 9.072 99.8564 9.8 99.8564 10.6C99.8564 11.4 99.9844 12.128 100.24 12.784C100.512 13.44 100.888 14.008 101.368 14.488C101.848 14.968 102.416 15.336 103.072 15.592C103.728 15.848 104.448 15.976 105.232 15.976C106.064 15.976 106.832 15.816 107.536 15.496C108.24 15.16 108.88 14.656 109.456 13.984L111.952 16.288C111.152 17.264 110.16 18.008 108.976 18.52C107.808 19.032 106.488 19.288 105.016 19.288ZM117.894 19V5.368H112.518V2.2H127.158V5.368H121.782V19H117.894ZM136.047 19V2.2H139.935V15.832H148.359V19H136.047ZM150.531 19V2.2H154.419V19H150.531ZM163.926 19.288C162.582 19.288 161.294 19.112 160.062 18.76C158.83 18.392 157.838 17.92 157.086 17.344L158.406 14.416C159.126 14.928 159.974 15.352 160.95 15.688C161.942 16.008 162.942 16.168 163.95 16.168C164.718 16.168 165.334 16.096 165.798 15.952C166.278 15.792 166.63 15.576 166.854 15.304C167.078 15.032 167.19 14.72 167.19 14.368C167.19 13.92 167.014 13.568 166.662 13.312C166.31 13.04 165.846 12.824 165.27 12.664C164.694 12.488 164.054 12.328 163.35 12.184C162.662 12.024 161.966 11.832 161.262 11.608C160.574 11.384 159.942 11.096 159.366 10.744C158.79 10.392 158.318 9.928 157.95 9.352C157.598 8.776 157.422 8.04 157.422 7.144C157.422 6.184 157.678 5.312 158.19 4.528C158.718 3.728 159.502 3.096 160.542 2.632C161.598 2.152 162.918 1.912 164.502 1.912C165.558 1.912 166.598 2.04 167.622 2.296C168.646 2.536 169.55 2.904 170.334 3.4L169.134 6.352C168.35 5.904 167.566 5.576 166.782 5.368C165.998 5.144 165.23 5.032 164.478 5.032C163.726 5.032 163.11 5.12 162.63 5.296C162.15 5.472 161.806 5.704 161.598 5.992C161.39 6.264 161.286 6.584 161.286 6.952C161.286 7.384 161.462 7.736 161.814 8.008C162.166 8.264 162.63 8.472 163.206 8.632C163.782 8.792 164.414 8.952 165.102 9.112C165.806 9.272 166.502 9.456 167.19 9.664C167.894 9.872 168.534 10.152 169.11 10.504C169.686 10.856 170.15 11.32 170.502 11.896C170.87 12.472 171.054 13.2 171.054 14.08C171.054 15.024 170.79 15.888 170.262 16.672C169.734 17.456 168.942 18.088 167.886 18.568C166.846 19.048 165.526 19.288 163.926 19.288ZM176.956 19V5.368H171.58V2.2H186.22V5.368H180.844V19H176.956Z" fill="black"/>
</g>
<defs>
<filter id="filter0_d_271_821" x="0.892187" y="0.812109" width="185.429" height="19.576" filterUnits="userSpaceOnUse" color-interpolation-filters="sRGB">
<feFlood flood-opacity="0" result="BackgroundImageFix"/>
<feColorMatrix in="SourceAlpha" type="matrix" values="0 0 0 0 0 0 0 0 0 0 0 0 0 0 0 0 0 0 127 0" result="hardAlpha"/>
<feOffset dx="-1"/>
<feGaussianBlur stdDeviation="0.55"/>
<feComposite in2="hardAlpha" operator="out"/>
<feColorMatrix type="matrix" values="0 0 0 0 0 0 0 0 0 0 0 0 0 0 0 0 0 0 0.22 0"/>
<feBlend mode="normal" in2="BackgroundImageFix" result="effect1_dropShadow_271_821"/>
<feBlend mode="normal" in="SourceGraphic" in2="effect1_dropShadow_271_821" result="shape"/>
</filter>
</defs>
</svg>
