<svg width="276" height="21" viewBox="0 0 276 21" fill="none" xmlns="http://www.w3.org/2000/svg">
<g filter="url(#filter0_d_271_821)">
<path d="M7.472 19V5.368H2.096V2.2H16.736V5.368H11.36V19H7.472ZM15.7762 19L23.2642 2.2H27.1042L34.6162 19H30.5362L24.3922 4.168H25.9282L19.7602 19H15.7762ZM19.5202 15.4L20.5522 12.448H29.1922L30.2482 15.4H19.5202ZM36.3592 19V2.2H44.5672C46.6792 2.2 48.2632 2.6 49.3192 3.4C50.3912 4.2 50.9272 5.256 50.9272 6.568C50.9272 7.448 50.7112 8.216 50.2792 8.872C49.8472 9.512 49.2552 10.008 48.5032 10.36C47.7512 10.712 46.8872 10.888 45.9112 10.888L46.3672 9.904C47.4232 9.904 48.3592 10.08 49.1752 10.432C49.9912 10.768 50.6232 11.272 51.0712 11.944C51.5352 12.616 51.7672 13.44 51.7672 14.416C51.7672 15.856 51.1992 16.984 50.0632 17.8C48.9272 18.6 47.2552 19 45.0472 19H36.3592ZM40.2232 16.072H44.7592C45.7672 16.072 46.5272 15.912 47.0392 15.592C47.5672 15.256 47.8312 14.728 47.8312 14.008C47.8312 13.304 47.5672 12.784 47.0392 12.448C46.5272 12.096 45.7672 11.92 44.7592 11.92H39.9352V9.088H44.0872C45.0312 9.088 45.7512 8.928 46.2472 8.608C46.7592 8.272 47.0152 7.768 47.0152 7.096C47.0152 6.44 46.7592 5.952 46.2472 5.632C45.7512 5.296 45.0312 5.128 44.0872 5.128H40.2232V16.072ZM54.7108 19V2.2H58.5988V15.832H67.0228V19H54.7108ZM72.7711 8.968H80.8591V11.992H72.7711V8.968ZM73.0591 15.88H82.2031V19H69.1951V2.2H81.8911V5.32H73.0591V15.88ZM100.254 19.288C98.9256 19.288 97.6936 19.072 96.5576 18.64C95.4376 18.208 94.4616 17.6 93.6296 16.816C92.8136 16.032 92.1736 15.112 91.7096 14.056C91.2616 13 91.0376 11.848 91.0376 10.6C91.0376 9.352 91.2616 8.2 91.7096 7.144C92.1736 6.088 92.8216 5.168 93.6536 4.384C94.4856 3.6 95.4616 2.992 96.5816 2.56C97.7016 2.128 98.9176 1.912 100.23 1.912C101.558 1.912 102.774 2.128 103.878 2.56C104.998 2.992 105.966 3.6 106.782 4.384C107.614 5.168 108.262 6.088 108.726 7.144C109.19 8.184 109.422 9.336 109.422 10.6C109.422 11.848 109.19 13.008 108.726 14.08C108.262 15.136 107.614 16.056 106.782 16.84C105.966 17.608 104.998 18.208 103.878 18.64C102.774 19.072 101.566 19.288 100.254 19.288ZM100.23 15.976C100.982 15.976 101.67 15.848 102.294 15.592C102.934 15.336 103.494 14.968 103.974 14.488C104.454 14.008 104.822 13.44 105.078 12.784C105.35 12.128 105.486 11.4 105.486 10.6C105.486 9.8 105.35 9.072 105.078 8.416C104.822 7.76 104.454 7.192 103.974 6.712C103.51 6.232 102.958 5.864 102.318 5.608C101.678 5.352 100.982 5.224 100.23 5.224C99.4776 5.224 98.7816 5.352 98.1416 5.608C97.5176 5.864 96.9656 6.232 96.4856 6.712C96.0056 7.192 95.6296 7.76 95.3576 8.416C95.1016 9.072 94.9736 9.8 94.9736 10.6C94.9736 11.384 95.1016 12.112 95.3576 12.784C95.6296 13.44 95.9976 14.008 96.4616 14.488C96.9416 14.968 97.5016 15.336 98.1416 15.592C98.7816 15.848 99.4776 15.976 100.23 15.976ZM115.944 9.76H124.008V12.88H115.944V9.76ZM116.232 19H112.344V2.2H125.04V5.32H116.232V19ZM149.305 19.288C148.009 19.288 146.801 19.08 145.681 18.664C144.577 18.232 143.617 17.624 142.801 16.84C141.985 16.056 141.345 15.136 140.881 14.08C140.433 13.024 140.209 11.864 140.209 10.6C140.209 9.336 140.433 8.176 140.881 7.12C141.345 6.064 141.985 5.144 142.801 4.36C143.633 3.576 144.601 2.976 145.705 2.56C146.809 2.128 148.017 1.912 149.329 1.912C150.785 1.912 152.097 2.168 153.265 2.68C154.449 3.176 155.441 3.912 156.241 4.888L153.745 7.192C153.169 6.536 152.529 6.048 151.825 5.728C151.121 5.392 150.353 5.224 149.521 5.224C148.737 5.224 148.017 5.352 147.361 5.608C146.705 5.864 146.137 6.232 145.657 6.712C145.177 7.192 144.801 7.76 144.529 8.416C144.273 9.072 144.145 9.8 144.145 10.6C144.145 11.4 144.273 12.128 144.529 12.784C144.801 13.44 145.177 14.008 145.657 14.488C146.137 14.968 146.705 15.336 147.361 15.592C148.017 15.848 148.737 15.976 149.521 15.976C150.353 15.976 151.121 15.816 151.825 15.496C152.529 15.16 153.169 14.656 153.745 13.984L156.241 16.288C155.441 17.264 154.449 18.008 153.265 18.52C152.097 19.032 150.777 19.288 149.305 19.288ZM166.675 19.288C165.347 19.288 164.115 19.072 162.979 18.64C161.859 18.208 160.883 17.6 160.051 16.816C159.235 16.032 158.595 15.112 158.131 14.056C157.683 13 157.459 11.848 157.459 10.6C157.459 9.352 157.683 8.2 158.131 7.144C158.595 6.088 159.243 5.168 160.075 4.384C160.907 3.6 161.883 2.992 163.003 2.56C164.123 2.128 165.339 1.912 166.651 1.912C167.979 1.912 169.195 2.128 170.299 2.56C171.419 2.992 172.387 3.6 173.203 4.384C174.035 5.168 174.683 6.088 175.147 7.144C175.611 8.184 175.843 9.336 175.843 10.6C175.843 11.848 175.611 13.008 175.147 14.08C174.683 15.136 174.035 16.056 173.203 16.84C172.387 17.608 171.419 18.208 170.299 18.64C169.195 19.072 167.987 19.288 166.675 19.288ZM166.651 15.976C167.403 15.976 168.091 15.848 168.715 15.592C169.355 15.336 169.915 14.968 170.395 14.488C170.875 14.008 171.243 13.44 171.499 12.784C171.771 12.128 171.907 11.4 171.907 10.6C171.907 9.8 171.771 9.072 171.499 8.416C171.243 7.76 170.875 7.192 170.395 6.712C169.931 6.232 169.379 5.864 168.739 5.608C168.099 5.352 167.403 5.224 166.651 5.224C165.899 5.224 165.203 5.352 164.563 5.608C163.939 5.864 163.387 6.232 162.907 6.712C162.427 7.192 162.051 7.76 161.779 8.416C161.523 9.072 161.395 9.8 161.395 10.6C161.395 11.384 161.523 12.112 161.779 12.784C162.051 13.44 162.419 14.008 162.883 14.488C163.363 14.968 163.923 15.336 164.563 15.592C165.203 15.848 165.899 15.976 166.651 15.976ZM178.765 19V2.2H181.981L191.893 14.296H190.333V2.2H194.173V19H190.981L181.045 6.904H182.605V19H178.765ZM201.628 19V5.368H196.252V2.2H210.892V5.368H205.516V19H201.628ZM216.56 8.968H224.648V11.992H216.56V8.968ZM216.848 15.88H225.992V19H212.984V2.2H225.68V5.32H216.848V15.88ZM229.086 19V2.2H232.302L242.214 14.296H240.654V2.2H244.494V19H241.302L231.366 6.904H232.926V19H229.086ZM251.949 19V5.368H246.573V2.2H261.213V5.368H255.837V19H251.949ZM268.707 19.288C267.363 19.288 266.075 19.112 264.843 18.76C263.611 18.392 262.619 17.92 261.867 17.344L263.187 14.416C263.907 14.928 264.755 15.352 265.731 15.688C266.723 16.008 267.723 16.168 268.731 16.168C269.499 16.168 270.115 16.096 270.579 15.952C271.059 15.792 271.411 15.576 271.635 15.304C271.859 15.032 271.971 14.72 271.971 14.368C271.971 13.92 271.795 13.568 271.443 13.312C271.091 13.04 270.627 12.824 270.051 12.664C269.475 12.488 268.835 12.328 268.131 12.184C267.443 12.024 266.747 11.832 266.043 11.608C265.355 11.384 264.723 11.096 264.147 10.744C263.571 10.392 263.099 9.928 262.731 9.352C262.379 8.776 262.203 8.04 262.203 7.144C262.203 6.184 262.459 5.312 262.971 4.528C263.499 3.728 264.283 3.096 265.323 2.632C266.379 2.152 267.699 1.912 269.283 1.912C270.339 1.912 271.379 2.04 272.403 2.296C273.427 2.536 274.331 2.904 275.115 3.4L273.915 6.352C273.131 5.904 272.347 5.576 271.563 5.368C270.779 5.144 270.011 5.032 269.259 5.032C268.507 5.032 267.891 5.12 267.411 5.296C266.931 5.472 266.587 5.704 266.379 5.992C266.171 6.264 266.067 6.584 266.067 6.952C266.067 7.384 266.243 7.736 266.595 8.008C266.947 8.264 267.411 8.472 267.987 8.632C268.563 8.792 269.195 8.952 269.883 9.112C270.587 9.272 271.283 9.456 271.971 9.664C272.675 9.872 273.315 10.152 273.891 10.504C274.467 10.856 274.931 11.32 275.283 11.896C275.651 12.472 275.835 13.2 275.835 14.08C275.835 15.024 275.571 15.888 275.043 16.672C274.515 17.456 273.723 18.088 272.667 18.568C271.627 19.048 270.307 19.288 268.707 19.288Z" fill="black"/>
</g>
<defs>
<filter id="filter0_d_271_821" x="-0.0042969" y="0.812109" width="275.94" height="19.576" filterUnits="userSpaceOnUse" color-interpolation-filters="sRGB">
<feFlood flood-opacity="0" result="BackgroundImageFix"/>
<feColorMatrix in="SourceAlpha" type="matrix" values="0 0 0 0 0 0 0 0 0 0 0 0 0 0 0 0 0 0 127 0" result="hardAlpha"/>
<feOffset dx="-1"/>
<feGaussianBlur stdDeviation="0.55"/>
<feComposite in2="hardAlpha" operator="out"/>
<feColorMatrix type="matrix" values="0 0 0 0 0 0 0 0 0 0 0 0 0 0 0 0 0 0 0.22 0"/>
<feBlend mode="normal" in2="BackgroundImageFix" result="effect1_dropShadow_271_821"/>
<feBlend mode="normal" in="SourceGraphic" in2="effect1_dropShadow_271_821" result="shape"/>
</filter>
</defs>
</svg>
