<svg width="279" height="21" viewBox="0 0 279 21" fill="none" xmlns="http://www.w3.org/2000/svg">
<g filter="url(#filter0_d_78_59)">
<path d="M7.256 19V5.968H2.096V2.2H17.144V5.968H12.008V19H7.256ZM16.0546 19L23.4706 2.2H28.1506L35.5906 19H30.6466L24.8386 4.528H26.7106L20.9026 19H16.0546ZM20.1106 15.736L21.3346 12.232H29.5426L30.7666 15.736H20.1106ZM36.9378 19V2.2H45.5298C47.7378 2.2 49.3858 2.608 50.4738 3.424C51.5618 4.224 52.1058 5.28 52.1058 6.592C52.1058 7.456 51.8738 8.216 51.4098 8.872C50.9618 9.512 50.3218 10.024 49.4898 10.408C48.6738 10.776 47.6978 10.96 46.5618 10.96L47.0418 9.808C48.2258 9.808 49.2578 9.992 50.1378 10.36C51.0178 10.712 51.6978 11.232 52.1778 11.92C52.6738 12.592 52.9218 13.416 52.9218 14.392C52.9218 15.848 52.3298 16.984 51.1458 17.8C49.9778 18.6 48.2658 19 46.0098 19H36.9378ZM41.6418 15.568H45.6258C46.4418 15.568 47.0578 15.432 47.4738 15.16C47.9058 14.872 48.1218 14.44 48.1218 13.864C48.1218 13.288 47.9058 12.864 47.4738 12.592C47.0578 12.304 46.4418 12.16 45.6258 12.16H41.3058V8.872H44.9058C45.7058 8.872 46.3058 8.736 46.7058 8.464C47.1058 8.192 47.3058 7.784 47.3058 7.24C47.3058 6.696 47.1058 6.296 46.7058 6.04C46.3058 5.768 45.7058 5.632 44.9058 5.632H41.6418V15.568ZM55.3831 19V2.2H60.1351V15.232H68.1511V19H55.3831ZM70.0316 19V2.2H83.2076V5.872H74.7356V15.328H83.5196V19H70.0316ZM74.3996 12.256V8.704H82.1996V12.256H74.3996ZM101.613 19.336C100.269 19.336 99.0289 19.12 97.8929 18.688C96.7569 18.256 95.7649 17.648 94.9169 16.864C94.0849 16.064 93.4369 15.136 92.9729 14.08C92.5089 13.024 92.2769 11.864 92.2769 10.6C92.2769 9.336 92.5089 8.176 92.9729 7.12C93.4369 6.064 94.0849 5.144 94.9169 4.36C95.7649 3.56 96.7569 2.944 97.8929 2.512C99.0289 2.08 100.269 1.864 101.613 1.864C102.973 1.864 104.213 2.08 105.333 2.512C106.469 2.944 107.453 3.56 108.285 4.36C109.117 5.144 109.765 6.064 110.229 7.12C110.709 8.176 110.949 9.336 110.949 10.6C110.949 11.864 110.709 13.032 110.229 14.104C109.765 15.16 109.117 16.08 108.285 16.864C107.453 17.648 106.469 18.256 105.333 18.688C104.213 19.12 102.973 19.336 101.613 19.336ZM101.613 15.4C102.253 15.4 102.845 15.288 103.389 15.064C103.949 14.84 104.429 14.52 104.829 14.104C105.245 13.672 105.565 13.16 105.789 12.568C106.029 11.976 106.149 11.32 106.149 10.6C106.149 9.864 106.029 9.208 105.789 8.632C105.565 8.04 105.245 7.536 104.829 7.12C104.429 6.688 103.949 6.36 103.389 6.136C102.845 5.912 102.253 5.8 101.613 5.8C100.973 5.8 100.373 5.912 99.8129 6.136C99.2689 6.36 98.7889 6.688 98.3729 7.12C97.9729 7.536 97.6529 8.04 97.4129 8.632C97.1889 9.208 97.0769 9.864 97.0769 10.6C97.0769 11.32 97.1889 11.976 97.4129 12.568C97.6529 13.16 97.9729 13.672 98.3729 14.104C98.7889 14.52 99.2689 14.84 99.8129 15.064C100.373 15.288 100.973 15.4 101.613 15.4ZM113.438 19V2.2H126.614V5.872H118.19V19H113.438ZM117.854 13.24V9.568H125.606V13.24H117.854ZM151.181 19.336C149.853 19.336 148.621 19.128 147.485 18.712C146.365 18.28 145.389 17.672 144.557 16.888C143.741 16.104 143.101 15.184 142.637 14.128C142.173 13.056 141.941 11.88 141.941 10.6C141.941 9.32 142.173 8.152 142.637 7.096C143.101 6.024 143.741 5.096 144.557 4.312C145.389 3.528 146.365 2.928 147.485 2.512C148.621 2.08 149.853 1.864 151.181 1.864C152.733 1.864 154.117 2.136 155.333 2.68C156.565 3.224 157.589 4.008 158.405 5.032L155.381 7.768C154.837 7.128 154.237 6.64 153.581 6.304C152.941 5.968 152.221 5.8 151.421 5.8C150.733 5.8 150.101 5.912 149.525 6.136C148.949 6.36 148.453 6.688 148.037 7.12C147.637 7.536 147.317 8.04 147.077 8.632C146.853 9.224 146.741 9.88 146.741 10.6C146.741 11.32 146.853 11.976 147.077 12.568C147.317 13.16 147.637 13.672 148.037 14.104C148.453 14.52 148.949 14.84 149.525 15.064C150.101 15.288 150.733 15.4 151.421 15.4C152.221 15.4 152.941 15.232 153.581 14.896C154.237 14.56 154.837 14.072 155.381 13.432L158.405 16.168C157.589 17.176 156.565 17.96 155.333 18.52C154.117 19.064 152.733 19.336 151.181 19.336ZM168.129 19.336C166.785 19.336 165.545 19.12 164.409 18.688C163.273 18.256 162.281 17.648 161.433 16.864C160.601 16.064 159.953 15.136 159.489 14.08C159.025 13.024 158.793 11.864 158.793 10.6C158.793 9.336 159.025 8.176 159.489 7.12C159.953 6.064 160.601 5.144 161.433 4.36C162.281 3.56 163.273 2.944 164.409 2.512C165.545 2.08 166.785 1.864 168.129 1.864C169.489 1.864 170.729 2.08 171.849 2.512C172.985 2.944 173.969 3.56 174.801 4.36C175.633 5.144 176.281 6.064 176.745 7.12C177.225 8.176 177.465 9.336 177.465 10.6C177.465 11.864 177.225 13.032 176.745 14.104C176.281 15.16 175.633 16.08 174.801 16.864C173.969 17.648 172.985 18.256 171.849 18.688C170.729 19.12 169.489 19.336 168.129 19.336ZM168.129 15.4C168.769 15.4 169.361 15.288 169.905 15.064C170.465 14.84 170.945 14.52 171.345 14.104C171.761 13.672 172.081 13.16 172.305 12.568C172.545 11.976 172.665 11.32 172.665 10.6C172.665 9.864 172.545 9.208 172.305 8.632C172.081 8.04 171.761 7.536 171.345 7.12C170.945 6.688 170.465 6.36 169.905 6.136C169.361 5.912 168.769 5.8 168.129 5.8C167.489 5.8 166.889 5.912 166.329 6.136C165.785 6.36 165.305 6.688 164.889 7.12C164.489 7.536 164.169 8.04 163.929 8.632C163.705 9.208 163.593 9.864 163.593 10.6C163.593 11.32 163.705 11.976 163.929 12.568C164.169 13.16 164.489 13.672 164.889 14.104C165.305 14.52 165.785 14.84 166.329 15.064C166.889 15.288 167.489 15.4 168.129 15.4ZM179.953 19V2.2H183.865L193.129 13.384H191.281V2.2H195.937V19H192.025L182.761 7.816H184.609V19H179.953ZM202.865 19V5.968H197.705V2.2H212.753V5.968H207.617V19H202.865ZM214.524 19V2.2H227.7V5.872H219.228V15.328H228.012V19H214.524ZM218.892 12.256V8.704H226.692V12.256H218.892ZM230.649 19V2.2H234.561L243.825 13.384H241.977V2.2H246.633V19H242.721L233.457 7.816H235.305V19H230.649ZM253.561 19V5.968H248.401V2.2H263.449V5.968H258.313V19H253.561ZM271.076 19.336C269.7 19.336 268.372 19.168 267.092 18.832C265.828 18.48 264.796 18.032 263.996 17.488L265.556 13.984C266.308 14.464 267.172 14.864 268.148 15.184C269.14 15.488 270.124 15.64 271.1 15.64C271.756 15.64 272.284 15.584 272.684 15.472C273.084 15.344 273.372 15.184 273.548 14.992C273.74 14.784 273.836 14.544 273.836 14.272C273.836 13.888 273.66 13.584 273.308 13.36C272.956 13.136 272.5 12.952 271.94 12.808C271.38 12.664 270.756 12.52 270.068 12.376C269.396 12.232 268.716 12.048 268.028 11.824C267.356 11.6 266.74 11.312 266.18 10.96C265.62 10.592 265.164 10.12 264.812 9.544C264.46 8.952 264.284 8.208 264.284 7.312C264.284 6.304 264.556 5.392 265.1 4.576C265.66 3.76 266.492 3.104 267.596 2.608C268.7 2.112 270.076 1.864 271.724 1.864C272.828 1.864 273.908 1.992 274.964 2.248C276.036 2.488 276.988 2.848 277.82 3.328L276.356 6.856C275.556 6.424 274.764 6.104 273.98 5.896C273.196 5.672 272.436 5.56 271.7 5.56C271.044 5.56 270.516 5.632 270.116 5.776C269.716 5.904 269.428 6.08 269.252 6.304C269.076 6.528 268.988 6.784 268.988 7.072C268.988 7.44 269.156 7.736 269.492 7.96C269.844 8.168 270.3 8.344 270.86 8.488C271.436 8.616 272.06 8.752 272.732 8.896C273.42 9.04 274.1 9.224 274.772 9.448C275.46 9.656 276.084 9.944 276.644 10.312C277.204 10.664 277.652 11.136 277.988 11.728C278.34 12.304 278.516 13.032 278.516 13.912C278.516 14.888 278.236 15.792 277.676 16.624C277.132 17.44 276.308 18.096 275.204 18.592C274.116 19.088 272.74 19.336 271.076 19.336Z" fill="black"/>
</g>
<defs>
<filter id="filter0_d_78_59" x="-0.00400698" y="0.764014" width="278.62" height="19.672" filterUnits="userSpaceOnUse" color-interpolation-filters="sRGB">
<feFlood flood-opacity="0" result="BackgroundImageFix"/>
<feColorMatrix in="SourceAlpha" type="matrix" values="0 0 0 0 0 0 0 0 0 0 0 0 0 0 0 0 0 0 127 0" result="hardAlpha"/>
<feOffset dx="-1"/>
<feGaussianBlur stdDeviation="0.55"/>
<feComposite in2="hardAlpha" operator="out"/>
<feColorMatrix type="matrix" values="0 0 0 0 0 0 0 0 0 0 0 0 0 0 0 0 0 0 0.22 0"/>
<feBlend mode="normal" in2="BackgroundImageFix" result="effect1_dropShadow_78_59"/>
<feBlend mode="normal" in="SourceGraphic" in2="effect1_dropShadow_78_59" result="shape"/>
</filter>
</defs>
</svg>
