<svg width="24" height="24" viewBox="0 0 24 24" fill="none" xmlns="http://www.w3.org/2000/svg">
<mask id="path-1-inside-1_264_274" fill="white">
<path d="M24 12C24 18.6274 18.6274 24 12 24C5.37258 24 0 18.6274 0 12C0 5.37258 5.37258 0 12 0C18.6274 0 24 5.37258 24 12ZM2.31547 12C2.31547 17.3486 6.65138 21.6845 12 21.6845C17.3486 21.6845 21.6845 17.3486 21.6845 12C21.6845 6.65138 17.3486 2.31547 12 2.31547C6.65138 2.31547 2.31547 6.65138 2.31547 12Z"/>
</mask>
<path d="M24 12C24 18.6274 18.6274 24 12 24C5.37258 24 0 18.6274 0 12C0 5.37258 5.37258 0 12 0C18.6274 0 24 5.37258 24 12ZM2.31547 12C2.31547 17.3486 6.65138 21.6845 12 21.6845C17.3486 21.6845 21.6845 17.3486 21.6845 12C21.6845 6.65138 17.3486 2.31547 12 2.31547C6.65138 2.31547 2.31547 6.65138 2.31547 12Z" stroke="#5E4E4E" stroke-width="3.09677" mask="url(#path-1-inside-1_264_274)"/>
<circle cx="11.9997" cy="11.9997" r="9.67742" fill="black"/>
<path d="M9.06491 15.277C8.56324 15.277 8.13898 15.15 7.79214 14.8961C7.45149 14.6359 7.19136 14.2581 7.01175 13.7626C6.83833 13.261 6.75162 12.6447 6.75162 11.9139C6.75162 11.183 6.83833 10.5699 7.01175 10.0744C7.19136 9.57271 7.45149 9.19491 7.79214 8.94097C8.13898 8.68704 8.56324 8.56007 9.06491 8.56007C9.57278 8.56007 9.99704 8.68704 10.3377 8.94097C10.6845 9.19491 10.9447 9.56962 11.1181 10.0651C11.2915 10.5606 11.3782 11.1737 11.3782 11.9046C11.3782 12.6354 11.2884 13.2517 11.1088 13.7534C10.9354 14.255 10.6752 14.6359 10.3284 14.8961C9.98775 15.15 9.56659 15.277 9.06491 15.277ZM9.06491 14.5709C9.57898 14.5709 9.95988 14.3572 10.2076 13.9299C10.4554 13.4963 10.5792 12.8212 10.5792 11.9046C10.5792 10.9941 10.4554 10.3283 10.2076 9.90717C9.95988 9.47981 9.57898 9.26613 9.06491 9.26613C8.55085 9.26613 8.16995 9.47981 7.9222 9.90717C7.67446 10.3345 7.55059 11.0034 7.55059 11.9139C7.55059 12.8181 7.67446 13.487 7.9222 13.9206C8.16995 14.3541 8.55085 14.5709 9.06491 14.5709ZM14.6355 15.277C13.8984 15.277 13.3224 15.119 12.9075 14.8032C12.4925 14.4811 12.285 14.0352 12.285 13.4654C12.285 13.1681 12.3439 12.9048 12.4615 12.6757C12.5792 12.4465 12.7433 12.2576 12.9539 12.109C13.1707 11.9603 13.4184 11.8643 13.6972 11.821V11.8767C13.4494 11.8148 13.2295 11.7095 13.0375 11.5608C12.8517 11.4122 12.7062 11.2326 12.6009 11.022C12.4956 10.8052 12.443 10.5668 12.443 10.3066C12.443 9.76162 12.6412 9.33426 13.0375 9.02458C13.4339 8.71491 13.9666 8.56007 14.6355 8.56007C15.3044 8.56007 15.837 8.71491 16.2334 9.02458C16.636 9.33426 16.8373 9.76162 16.8373 10.3066C16.8373 10.5606 16.7815 10.7959 16.6701 11.0127C16.5648 11.2295 16.4161 11.4122 16.2241 11.5608C16.0383 11.7095 15.8215 11.8148 15.5738 11.8767V11.821C15.8463 11.8643 16.0879 11.9603 16.2984 12.109C16.5152 12.2576 16.6824 12.4465 16.8001 12.6757C16.924 12.9048 16.9859 13.1681 16.9859 13.4654C16.9859 14.0352 16.7784 14.4811 16.3635 14.8032C15.9485 15.119 15.3725 15.277 14.6355 15.277ZM14.6355 14.5988C15.1557 14.5988 15.549 14.4997 15.8153 14.3015C16.0879 14.0971 16.2241 13.7998 16.2241 13.4096C16.2241 13.0132 16.0879 12.7159 15.8153 12.5177C15.549 12.3134 15.1557 12.2112 14.6355 12.2112C14.1214 12.2112 13.7281 12.3134 13.4556 12.5177C13.1831 12.7159 13.0468 13.0132 13.0468 13.4096C13.0468 13.7998 13.1831 14.0971 13.4556 14.3015C13.7281 14.4997 14.1214 14.5988 14.6355 14.5988ZM14.6355 11.533C15.0876 11.533 15.4375 11.4308 15.6853 11.2264C15.9392 11.022 16.0662 10.7371 16.0662 10.3717C16.0662 10.0125 15.9392 9.73375 15.6853 9.53555C15.4375 9.33117 15.0876 9.22897 14.6355 9.22897C14.1895 9.22897 13.8396 9.33117 13.5857 9.53555C13.3317 9.73375 13.2048 10.0125 13.2048 10.3717C13.2048 10.7371 13.3317 11.022 13.5857 11.2264C13.8396 11.4308 14.1895 11.533 14.6355 11.533Z" fill="white"/>
</svg>
