<svg width="243" height="16" viewBox="0 0 243 16" fill="none" xmlns="http://www.w3.org/2000/svg">
<path d="M0.594 15V13.11L5.454 8.52C5.838 8.172 6.12 7.86 6.3 7.584C6.48 7.308 6.6 7.056 6.66 6.828C6.732 6.6 6.768 6.39 6.768 6.198C6.768 5.694 6.594 5.31 6.246 5.046C5.91 4.77 5.412 4.632 4.752 4.632C4.224 4.632 3.732 4.734 3.276 4.938C2.832 5.142 2.454 5.46 2.142 5.892L0.018 4.524C0.498 3.804 1.17 3.234 2.034 2.814C2.898 2.394 3.894 2.184 5.022 2.184C5.958 2.184 6.774 2.34 7.47 2.652C8.178 2.952 8.724 3.378 9.108 3.93C9.504 4.482 9.702 5.142 9.702 5.91C9.702 6.318 9.648 6.726 9.54 7.134C9.444 7.53 9.24 7.95 8.928 8.394C8.628 8.838 8.184 9.336 7.596 9.888L3.564 13.686L3.006 12.624H10.116V15H0.594ZM15.6032 15.216C14.7272 15.216 13.8572 15.102 12.9932 14.874C12.1412 14.634 11.4092 14.298 10.7972 13.866L11.9492 11.634C12.4292 11.982 12.9812 12.258 13.6052 12.462C14.2412 12.666 14.8832 12.768 15.5312 12.768C16.2632 12.768 16.8392 12.624 17.2592 12.336C17.6792 12.048 17.8892 11.646 17.8892 11.13C17.8892 10.806 17.8052 10.518 17.6372 10.266C17.4692 10.014 17.1692 9.822 16.7372 9.69C16.3172 9.558 15.7232 9.492 14.9552 9.492H11.7332L12.3812 2.4H20.0672V4.74H13.4252L14.9372 3.408L14.4872 8.466L12.9752 7.134H15.6392C16.8872 7.134 17.8892 7.308 18.6452 7.656C19.4132 7.992 19.9712 8.454 20.3192 9.042C20.6672 9.63 20.8412 10.296 20.8412 11.04C20.8412 11.784 20.6552 12.474 20.2832 13.11C19.9112 13.734 19.3352 14.244 18.5552 14.64C17.7872 15.024 16.8032 15.216 15.6032 15.216ZM27.4243 15.216C26.3923 15.216 25.4683 14.964 24.6523 14.46C23.8363 13.944 23.1943 13.2 22.7263 12.228C22.2583 11.256 22.0243 10.08 22.0243 8.7C22.0243 7.32 22.2583 6.144 22.7263 5.172C23.1943 4.2 23.8363 3.462 24.6523 2.958C25.4683 2.442 26.3923 2.184 27.4243 2.184C28.4683 2.184 29.3923 2.442 30.1963 2.958C31.0123 3.462 31.6543 4.2 32.1223 5.172C32.5903 6.144 32.8243 7.32 32.8243 8.7C32.8243 10.08 32.5903 11.256 32.1223 12.228C31.6543 13.2 31.0123 13.944 30.1963 14.46C29.3923 14.964 28.4683 15.216 27.4243 15.216ZM27.4243 12.75C27.9163 12.75 28.3423 12.612 28.7023 12.336C29.0743 12.06 29.3623 11.622 29.5663 11.022C29.7823 10.422 29.8903 9.648 29.8903 8.7C29.8903 7.752 29.7823 6.978 29.5663 6.378C29.3623 5.778 29.0743 5.34 28.7023 5.064C28.3423 4.788 27.9163 4.65 27.4243 4.65C26.9443 4.65 26.5183 4.788 26.1463 5.064C25.7863 5.34 25.4983 5.778 25.2823 6.378C25.0783 6.978 24.9763 7.752 24.9763 8.7C24.9763 9.648 25.0783 10.422 25.2823 11.022C25.4983 11.622 25.7863 12.06 26.1463 12.336C26.5183 12.612 26.9443 12.75 27.4243 12.75ZM47.2371 5.172C48.0051 5.172 48.6831 5.328 49.2711 5.64C49.8711 5.94 50.3391 6.408 50.6751 7.044C51.0231 7.668 51.1971 8.472 51.1971 9.456V15H48.3891V9.888C48.3891 9.108 48.2271 8.532 47.9031 8.16C47.5791 7.788 47.1231 7.602 46.5351 7.602C46.1271 7.602 45.7611 7.698 45.4371 7.89C45.1131 8.07 44.8611 8.346 44.6811 8.718C44.5011 9.09 44.4111 9.564 44.4111 10.14V15H41.6031V9.888C41.6031 9.108 41.4411 8.532 41.1171 8.16C40.8051 7.788 40.3551 7.602 39.7671 7.602C39.3591 7.602 38.9931 7.698 38.6691 7.89C38.3451 8.07 38.0931 8.346 37.9131 8.718C37.7331 9.09 37.6431 9.564 37.6431 10.14V15H34.8351V5.316H37.5171V7.962L37.0131 7.188C37.3491 6.528 37.8231 6.03 38.4351 5.694C39.0591 5.346 39.7671 5.172 40.5591 5.172C41.4471 5.172 42.2211 5.4 42.8811 5.856C43.5531 6.3 43.9971 6.984 44.2131 7.908L43.2231 7.638C43.5471 6.882 44.0631 6.282 44.7711 5.838C45.4911 5.394 46.3131 5.172 47.2371 5.172ZM53.714 15V1.644H56.522V15H53.714ZM75.6053 15.216C74.6093 15.216 73.6913 15.06 72.8513 14.748C72.0233 14.424 71.2973 13.968 70.6733 13.38C70.0613 12.792 69.5813 12.102 69.2333 11.31C68.8973 10.518 68.7293 9.648 68.7293 8.7C68.7293 7.752 68.8973 6.882 69.2333 6.09C69.5813 5.298 70.0673 4.608 70.6913 4.02C71.3153 3.432 72.0473 2.982 72.8873 2.67C73.7273 2.346 74.6513 2.184 75.6593 2.184C76.7753 2.184 77.7773 2.37 78.6653 2.742C79.5653 3.114 80.3213 3.654 80.9333 4.362L79.0613 6.09C78.6053 5.61 78.1073 5.256 77.5673 5.028C77.0273 4.788 76.4393 4.668 75.8033 4.668C75.1913 4.668 74.6333 4.764 74.1293 4.956C73.6253 5.148 73.1873 5.424 72.8153 5.784C72.4553 6.144 72.1733 6.57 71.9693 7.062C71.7773 7.554 71.6813 8.1 71.6813 8.7C71.6813 9.288 71.7773 9.828 71.9693 10.32C72.1733 10.812 72.4553 11.244 72.8153 11.616C73.1873 11.976 73.6193 12.252 74.1113 12.444C74.6153 12.636 75.1673 12.732 75.7673 12.732C76.3433 12.732 76.9013 12.642 77.4413 12.462C77.9933 12.27 78.5273 11.952 79.0433 11.508L80.6993 13.614C80.0153 14.13 79.2173 14.526 78.3053 14.802C77.4053 15.078 76.5053 15.216 75.6053 15.216ZM78.0353 13.236V8.502H80.6993V13.614L78.0353 13.236ZM83.2101 15V1.644H86.0181V15H83.2101ZM94.5641 15V13.11L94.3841 12.696V9.312C94.3841 8.712 94.1981 8.244 93.8261 7.908C93.4661 7.572 92.9081 7.404 92.1521 7.404C91.6361 7.404 91.1261 7.488 90.6221 7.656C90.1301 7.812 89.7101 8.028 89.3621 8.304L88.3541 6.342C88.8821 5.97 89.5181 5.682 90.2621 5.478C91.0061 5.274 91.7621 5.172 92.5301 5.172C94.0061 5.172 95.1521 5.52 95.9681 6.216C96.7841 6.912 97.1921 7.998 97.1921 9.474V15H94.5641ZM91.6121 15.144C90.8561 15.144 90.2081 15.018 89.6681 14.766C89.1281 14.502 88.7141 14.148 88.4261 13.704C88.1381 13.26 87.9941 12.762 87.9941 12.21C87.9941 11.634 88.1321 11.13 88.4081 10.698C88.6961 10.266 89.1461 9.93 89.7581 9.69C90.3701 9.438 91.1681 9.312 92.1521 9.312H94.7261V10.95H92.4581C91.7981 10.95 91.3421 11.058 91.0901 11.274C90.8501 11.49 90.7301 11.76 90.7301 12.084C90.7301 12.444 90.8681 12.732 91.1441 12.948C91.4321 13.152 91.8221 13.254 92.3141 13.254C92.7821 13.254 93.2021 13.146 93.5741 12.93C93.9461 12.702 94.2161 12.372 94.3841 11.94L94.8161 13.236C94.6121 13.86 94.2401 14.334 93.7001 14.658C93.1601 14.982 92.4641 15.144 91.6121 15.144ZM102.992 15.144C102.164 15.144 101.366 15.048 100.598 14.856C99.8415 14.652 99.2415 14.4 98.7975 14.1L99.7335 12.084C100.178 12.36 100.7 12.588 101.3 12.768C101.912 12.936 102.512 13.02 103.1 13.02C103.748 13.02 104.204 12.942 104.468 12.786C104.744 12.63 104.882 12.414 104.882 12.138C104.882 11.91 104.774 11.742 104.558 11.634C104.354 11.514 104.078 11.424 103.729 11.364C103.382 11.304 102.998 11.244 102.578 11.184C102.17 11.124 101.756 11.046 101.336 10.95C100.916 10.842 100.532 10.686 100.184 10.482C99.8355 10.278 99.5535 10.002 99.3375 9.654C99.1335 9.306 99.0315 8.856 99.0315 8.304C99.0315 7.692 99.2055 7.152 99.5535 6.684C99.9135 6.216 100.43 5.85 101.102 5.586C101.774 5.31 102.578 5.172 103.514 5.172C104.174 5.172 104.846 5.244 105.53 5.388C106.214 5.532 106.784 5.742 107.24 6.018L106.304 8.016C105.836 7.74 105.362 7.554 104.882 7.458C104.414 7.35 103.958 7.296 103.514 7.296C102.89 7.296 102.434 7.38 102.146 7.548C101.858 7.716 101.714 7.932 101.714 8.196C101.714 8.436 101.816 8.616 102.02 8.736C102.236 8.856 102.518 8.952 102.866 9.024C103.214 9.096 103.592 9.162 104 9.222C104.42 9.27 104.84 9.348 105.26 9.456C105.68 9.564 106.058 9.72 106.394 9.924C106.742 10.116 107.024 10.386 107.24 10.734C107.456 11.07 107.564 11.514 107.564 12.066C107.564 12.666 107.384 13.2 107.024 13.668C106.664 14.124 106.142 14.484 105.458 14.748C104.786 15.012 103.964 15.144 102.992 15.144ZM112.554 15.144C111.726 15.144 110.928 15.048 110.16 14.856C109.404 14.652 108.804 14.4 108.36 14.1L109.296 12.084C109.74 12.36 110.262 12.588 110.862 12.768C111.474 12.936 112.074 13.02 112.662 13.02C113.31 13.02 113.766 12.942 114.03 12.786C114.306 12.63 114.444 12.414 114.444 12.138C114.444 11.91 114.336 11.742 114.12 11.634C113.916 11.514 113.64 11.424 113.292 11.364C112.944 11.304 112.56 11.244 112.14 11.184C111.732 11.124 111.318 11.046 110.898 10.95C110.478 10.842 110.094 10.686 109.746 10.482C109.398 10.278 109.116 10.002 108.9 9.654C108.696 9.306 108.594 8.856 108.594 8.304C108.594 7.692 108.768 7.152 109.116 6.684C109.476 6.216 109.992 5.85 110.664 5.586C111.336 5.31 112.14 5.172 113.076 5.172C113.736 5.172 114.408 5.244 115.092 5.388C115.776 5.532 116.346 5.742 116.802 6.018L115.866 8.016C115.398 7.74 114.924 7.554 114.444 7.458C113.976 7.35 113.52 7.296 113.076 7.296C112.452 7.296 111.996 7.38 111.708 7.548C111.42 7.716 111.276 7.932 111.276 8.196C111.276 8.436 111.378 8.616 111.582 8.736C111.798 8.856 112.08 8.952 112.428 9.024C112.776 9.096 113.154 9.162 113.562 9.222C113.982 9.27 114.402 9.348 114.822 9.456C115.242 9.564 115.62 9.72 115.956 9.924C116.304 10.116 116.586 10.386 116.802 10.734C117.018 11.07 117.126 11.514 117.126 12.066C117.126 12.666 116.946 13.2 116.586 13.668C116.226 14.124 115.704 14.484 115.02 14.748C114.348 15.012 113.526 15.144 112.554 15.144ZM127.178 15L123.056 2.4H126.08L129.662 13.56H128.15L131.894 2.4H134.594L138.194 13.56H136.736L140.408 2.4H143.198L139.076 15H135.944L132.758 5.208H133.586L130.31 15H127.178ZM144.804 15V5.316H147.612V15H144.804ZM146.208 3.966C145.692 3.966 145.272 3.816 144.948 3.516C144.624 3.216 144.462 2.844 144.462 2.4C144.462 1.956 144.624 1.584 144.948 1.284C145.272 0.983999 145.692 0.833999 146.208 0.833999C146.724 0.833999 147.144 0.977999 147.468 1.266C147.792 1.542 147.954 1.902 147.954 2.346C147.954 2.814 147.792 3.204 147.468 3.516C147.156 3.816 146.736 3.966 146.208 3.966ZM154.178 15.144C153.038 15.144 152.15 14.856 151.514 14.28C150.878 13.692 150.56 12.822 150.56 11.67V3.174H153.368V11.634C153.368 12.042 153.476 12.36 153.692 12.588C153.908 12.804 154.202 12.912 154.574 12.912C155.018 12.912 155.396 12.792 155.708 12.552L156.464 14.532C156.176 14.736 155.828 14.892 155.42 15C155.024 15.096 154.61 15.144 154.178 15.144ZM149.066 7.692V5.532H155.78V7.692H149.066ZM163.926 5.172C164.694 5.172 165.378 5.328 165.978 5.64C166.59 5.94 167.07 6.408 167.418 7.044C167.766 7.668 167.94 8.472 167.94 9.456V15H165.132V9.888C165.132 9.108 164.958 8.532 164.61 8.16C164.274 7.788 163.794 7.602 163.17 7.602C162.726 7.602 162.324 7.698 161.964 7.89C161.616 8.07 161.34 8.352 161.136 8.736C160.944 9.12 160.848 9.612 160.848 10.212V15H158.04V1.644H160.848V7.998L160.218 7.188C160.566 6.54 161.064 6.042 161.712 5.694C162.36 5.346 163.098 5.172 163.926 5.172ZM178.481 8.07H184.529V10.41H178.481V8.07ZM178.697 15H175.781V2.4H185.303V4.74H178.697V15ZM187.079 15V1.644H189.887V15H187.079ZM198.433 15V13.11L198.253 12.696V9.312C198.253 8.712 198.067 8.244 197.695 7.908C197.335 7.572 196.777 7.404 196.021 7.404C195.505 7.404 194.995 7.488 194.491 7.656C193.999 7.812 193.579 8.028 193.231 8.304L192.223 6.342C192.751 5.97 193.387 5.682 194.131 5.478C194.875 5.274 195.631 5.172 196.399 5.172C197.875 5.172 199.021 5.52 199.837 6.216C200.653 6.912 201.061 7.998 201.061 9.474V15H198.433ZM195.481 15.144C194.725 15.144 194.077 15.018 193.537 14.766C192.997 14.502 192.583 14.148 192.295 13.704C192.007 13.26 191.863 12.762 191.863 12.21C191.863 11.634 192.001 11.13 192.277 10.698C192.565 10.266 193.015 9.93 193.627 9.69C194.239 9.438 195.037 9.312 196.021 9.312H198.595V10.95H196.327C195.667 10.95 195.211 11.058 194.959 11.274C194.719 11.49 194.599 11.76 194.599 12.084C194.599 12.444 194.737 12.732 195.013 12.948C195.301 13.152 195.691 13.254 196.183 13.254C196.651 13.254 197.071 13.146 197.443 12.93C197.815 12.702 198.085 12.372 198.253 11.94L198.685 13.236C198.481 13.86 198.109 14.334 197.569 14.658C197.029 14.982 196.333 15.144 195.481 15.144ZM207.563 15.144C206.423 15.144 205.535 14.856 204.899 14.28C204.263 13.692 203.945 12.822 203.945 11.67V3.174H206.753V11.634C206.753 12.042 206.861 12.36 207.077 12.588C207.293 12.804 207.587 12.912 207.959 12.912C208.403 12.912 208.781 12.792 209.093 12.552L209.849 14.532C209.561 14.736 209.213 14.892 208.805 15C208.409 15.096 207.995 15.144 207.563 15.144ZM202.451 7.692V5.532H209.165V7.692H202.451ZM216.721 15V2.4H219.637V12.624H225.955V15H216.721ZM227.386 15V5.316H230.194V15H227.386ZM228.79 3.966C228.274 3.966 227.854 3.816 227.53 3.516C227.206 3.216 227.044 2.844 227.044 2.4C227.044 1.956 227.206 1.584 227.53 1.284C227.854 0.983999 228.274 0.833999 228.79 0.833999C229.306 0.833999 229.726 0.977999 230.05 1.266C230.374 1.542 230.536 1.902 230.536 2.346C230.536 2.814 230.374 3.204 230.05 3.516C229.738 3.816 229.318 3.966 228.79 3.966ZM236.958 15.144C236.046 15.144 235.224 14.94 234.492 14.532C233.76 14.112 233.178 13.53 232.746 12.786C232.326 12.042 232.116 11.166 232.116 10.158C232.116 9.138 232.326 8.256 232.746 7.512C233.178 6.768 233.76 6.192 234.492 5.784C235.224 5.376 236.046 5.172 236.958 5.172C237.774 5.172 238.488 5.352 239.1 5.712C239.712 6.072 240.186 6.618 240.522 7.35C240.858 8.082 241.026 9.018 241.026 10.158C241.026 11.286 240.864 12.222 240.54 12.966C240.216 13.698 239.748 14.244 239.136 14.604C238.536 14.964 237.81 15.144 236.958 15.144ZM237.444 12.84C237.9 12.84 238.314 12.732 238.686 12.516C239.058 12.3 239.352 11.994 239.568 11.598C239.796 11.19 239.91 10.71 239.91 10.158C239.91 9.594 239.796 9.114 239.568 8.718C239.352 8.322 239.058 8.016 238.686 7.8C238.314 7.584 237.9 7.476 237.444 7.476C236.976 7.476 236.556 7.584 236.184 7.8C235.812 8.016 235.512 8.322 235.284 8.718C235.068 9.114 234.96 9.594 234.96 10.158C234.96 10.71 235.068 11.19 235.284 11.598C235.512 11.994 235.812 12.3 236.184 12.516C236.556 12.732 236.976 12.84 237.444 12.84ZM239.982 15V13.02L240.036 10.14L239.856 7.278V1.644H242.664V15H239.982Z" fill="#CE3439"/>
</svg>
