<svg width="113" height="15" viewBox="0 0 113 15" fill="none" xmlns="http://www.w3.org/2000/svg">
<path d="M5.46378 14.216C4.58778 14.216 3.71778 14.102 2.85378 13.874C1.98978 13.634 1.25778 13.298 0.657781 12.866L1.79178 10.634C2.27178 10.982 2.82978 11.258 3.46578 11.462C4.10178 11.666 4.74378 11.768 5.39178 11.768C6.12378 11.768 6.69978 11.624 7.11978 11.336C7.53978 11.048 7.74978 10.652 7.74978 10.148C7.74978 9.668 7.56378 9.29 7.19178 9.014C6.81978 8.738 6.21978 8.6 5.39178 8.6H4.05978V6.674L7.56978 2.696L7.89378 3.74H1.28778V1.4H10.1078V3.29L6.61578 7.268L5.13978 6.422H5.98578C7.53378 6.422 8.70378 6.77 9.49578 7.466C10.2878 8.162 10.6838 9.056 10.6838 10.148C10.6838 10.856 10.4978 11.522 10.1258 12.146C9.75378 12.758 9.18378 13.256 8.41578 13.64C7.64778 14.024 6.66378 14.216 5.46378 14.216ZM16.1383 14.216C15.2623 14.216 14.3923 14.102 13.5283 13.874C12.6763 13.634 11.9443 13.298 11.3323 12.866L12.4843 10.634C12.9643 10.982 13.5163 11.258 14.1403 11.462C14.7763 11.666 15.4183 11.768 16.0663 11.768C16.7983 11.768 17.3743 11.624 17.7943 11.336C18.2143 11.048 18.4243 10.646 18.4243 10.13C18.4243 9.806 18.3403 9.518 18.1723 9.266C18.0043 9.014 17.7043 8.822 17.2723 8.69C16.8523 8.558 16.2583 8.492 15.4903 8.492H12.2683L12.9163 1.4H20.6023V3.74H13.9603L15.4723 2.408L15.0223 7.466L13.5103 6.134H16.1743C17.4223 6.134 18.4243 6.308 19.1803 6.656C19.9483 6.992 20.5063 7.454 20.8543 8.042C21.2023 8.63 21.3763 9.296 21.3763 10.04C21.3763 10.784 21.1903 11.474 20.8183 12.11C20.4463 12.734 19.8703 13.244 19.0903 13.64C18.3223 14.024 17.3383 14.216 16.1383 14.216ZM27.9594 14.216C26.9274 14.216 26.0034 13.964 25.1874 13.46C24.3714 12.944 23.7294 12.2 23.2614 11.228C22.7934 10.256 22.5594 9.08 22.5594 7.7C22.5594 6.32 22.7934 5.144 23.2614 4.172C23.7294 3.2 24.3714 2.462 25.1874 1.958C26.0034 1.442 26.9274 1.184 27.9594 1.184C29.0034 1.184 29.9274 1.442 30.7314 1.958C31.5474 2.462 32.1894 3.2 32.6574 4.172C33.1254 5.144 33.3594 6.32 33.3594 7.7C33.3594 9.08 33.1254 10.256 32.6574 11.228C32.1894 12.2 31.5474 12.944 30.7314 13.46C29.9274 13.964 29.0034 14.216 27.9594 14.216ZM27.9594 11.75C28.4514 11.75 28.8774 11.612 29.2374 11.336C29.6094 11.06 29.8974 10.622 30.1014 10.022C30.3174 9.422 30.4254 8.648 30.4254 7.7C30.4254 6.752 30.3174 5.978 30.1014 5.378C29.8974 4.778 29.6094 4.34 29.2374 4.064C28.8774 3.788 28.4514 3.65 27.9594 3.65C27.4794 3.65 27.0534 3.788 26.6814 4.064C26.3214 4.34 26.0334 4.778 25.8174 5.378C25.6134 5.978 25.5114 6.752 25.5114 7.7C25.5114 8.648 25.6134 9.422 25.8174 10.022C26.0334 10.622 26.3214 11.06 26.6814 11.336C27.0534 11.612 27.4794 11.75 27.9594 11.75ZM47.7722 4.172C48.5402 4.172 49.2182 4.328 49.8062 4.64C50.4062 4.94 50.8742 5.408 51.2102 6.044C51.5582 6.668 51.7322 7.472 51.7322 8.456V14H48.9242V8.888C48.9242 8.108 48.7622 7.532 48.4382 7.16C48.1142 6.788 47.6582 6.602 47.0702 6.602C46.6622 6.602 46.2962 6.698 45.9722 6.89C45.6482 7.07 45.3962 7.346 45.2162 7.718C45.0362 8.09 44.9462 8.564 44.9462 9.14V14H42.1382V8.888C42.1382 8.108 41.9762 7.532 41.6522 7.16C41.3402 6.788 40.8902 6.602 40.3022 6.602C39.8942 6.602 39.5282 6.698 39.2042 6.89C38.8802 7.07 38.6282 7.346 38.4482 7.718C38.2682 8.09 38.1782 8.564 38.1782 9.14V14H35.3702V4.316H38.0522V6.962L37.5482 6.188C37.8842 5.528 38.3582 5.03 38.9702 4.694C39.5942 4.346 40.3022 4.172 41.0942 4.172C41.9822 4.172 42.7562 4.4 43.4162 4.856C44.0882 5.3 44.5322 5.984 44.7482 6.908L43.7582 6.638C44.0822 5.882 44.5982 5.282 45.3062 4.838C46.0262 4.394 46.8482 4.172 47.7722 4.172ZM54.2491 14V0.643999H57.0571V14H54.2491ZM71.0428 14.216C70.0468 14.216 69.1288 14.06 68.2888 13.748C67.4608 13.424 66.7348 12.968 66.1108 12.38C65.4988 11.792 65.0188 11.102 64.6708 10.31C64.3348 9.518 64.1668 8.648 64.1668 7.7C64.1668 6.752 64.3348 5.882 64.6708 5.09C65.0188 4.298 65.5048 3.608 66.1288 3.02C66.7528 2.432 67.4848 1.982 68.3248 1.67C69.1648 1.346 70.0888 1.184 71.0968 1.184C72.2128 1.184 73.2148 1.37 74.1028 1.742C75.0028 2.114 75.7588 2.654 76.3708 3.362L74.4988 5.09C74.0428 4.61 73.5448 4.256 73.0048 4.028C72.4648 3.788 71.8768 3.668 71.2408 3.668C70.6288 3.668 70.0708 3.764 69.5668 3.956C69.0628 4.148 68.6248 4.424 68.2528 4.784C67.8928 5.144 67.6108 5.57 67.4068 6.062C67.2148 6.554 67.1188 7.1 67.1188 7.7C67.1188 8.288 67.2148 8.828 67.4068 9.32C67.6108 9.812 67.8928 10.244 68.2528 10.616C68.6248 10.976 69.0568 11.252 69.5488 11.444C70.0528 11.636 70.6048 11.732 71.2048 11.732C71.7808 11.732 72.3388 11.642 72.8788 11.462C73.4308 11.27 73.9648 10.952 74.4808 10.508L76.1368 12.614C75.4528 13.13 74.6548 13.526 73.7428 13.802C72.8428 14.078 71.9428 14.216 71.0428 14.216ZM73.4728 12.236V7.502H76.1368V12.614L73.4728 12.236ZM78.6476 14V0.643999H81.4556V14H78.6476ZM90.0016 14V12.11L89.8216 11.696V8.312C89.8216 7.712 89.6356 7.244 89.2636 6.908C88.9036 6.572 88.3456 6.404 87.5896 6.404C87.0736 6.404 86.5636 6.488 86.0596 6.656C85.5676 6.812 85.1476 7.028 84.7996 7.304L83.7916 5.342C84.3196 4.97 84.9556 4.682 85.6996 4.478C86.4436 4.274 87.1996 4.172 87.9676 4.172C89.4436 4.172 90.5896 4.52 91.4056 5.216C92.2216 5.912 92.6296 6.998 92.6296 8.474V14H90.0016ZM87.0496 14.144C86.2936 14.144 85.6456 14.018 85.1056 13.766C84.5656 13.502 84.1516 13.148 83.8636 12.704C83.5756 12.26 83.4316 11.762 83.4316 11.21C83.4316 10.634 83.5696 10.13 83.8456 9.698C84.1336 9.266 84.5836 8.93 85.1956 8.69C85.8076 8.438 86.6056 8.312 87.5896 8.312H90.1636V9.95H87.8956C87.2356 9.95 86.7796 10.058 86.5276 10.274C86.2876 10.49 86.1676 10.76 86.1676 11.084C86.1676 11.444 86.3056 11.732 86.5816 11.948C86.8696 12.152 87.2596 12.254 87.7516 12.254C88.2196 12.254 88.6396 12.146 89.0116 11.93C89.3836 11.702 89.6536 11.372 89.8216 10.94L90.2536 12.236C90.0496 12.86 89.6776 13.334 89.1376 13.658C88.5976 13.982 87.9016 14.144 87.0496 14.144ZM98.429 14.144C97.601 14.144 96.803 14.048 96.035 13.856C95.279 13.652 94.679 13.4 94.235 13.1L95.171 11.084C95.615 11.36 96.137 11.588 96.737 11.768C97.349 11.936 97.949 12.02 98.537 12.02C99.185 12.02 99.641 11.942 99.905 11.786C100.181 11.63 100.319 11.414 100.319 11.138C100.319 10.91 100.211 10.742 99.995 10.634C99.791 10.514 99.515 10.424 99.167 10.364C98.819 10.304 98.435 10.244 98.015 10.184C97.607 10.124 97.193 10.046 96.773 9.95C96.353 9.842 95.969 9.686 95.621 9.482C95.273 9.278 94.991 9.002 94.775 8.654C94.571 8.306 94.469 7.856 94.469 7.304C94.469 6.692 94.643 6.152 94.991 5.684C95.351 5.216 95.867 4.85 96.539 4.586C97.211 4.31 98.015 4.172 98.951 4.172C99.611 4.172 100.283 4.244 100.967 4.388C101.651 4.532 102.221 4.742 102.677 5.018L101.741 7.016C101.273 6.74 100.799 6.554 100.319 6.458C99.851 6.35 99.395 6.296 98.951 6.296C98.327 6.296 97.871 6.38 97.583 6.548C97.295 6.716 97.151 6.932 97.151 7.196C97.151 7.436 97.253 7.616 97.457 7.736C97.673 7.856 97.955 7.952 98.303 8.024C98.651 8.096 99.029 8.162 99.437 8.222C99.857 8.27 100.277 8.348 100.697 8.456C101.117 8.564 101.495 8.72 101.831 8.924C102.179 9.116 102.461 9.386 102.677 9.734C102.893 10.07 103.001 10.514 103.001 11.066C103.001 11.666 102.821 12.2 102.461 12.668C102.101 13.124 101.579 13.484 100.895 13.748C100.223 14.012 99.401 14.144 98.429 14.144ZM107.992 14.144C107.164 14.144 106.366 14.048 105.598 13.856C104.842 13.652 104.242 13.4 103.798 13.1L104.734 11.084C105.178 11.36 105.7 11.588 106.3 11.768C106.912 11.936 107.512 12.02 108.1 12.02C108.748 12.02 109.204 11.942 109.468 11.786C109.744 11.63 109.882 11.414 109.882 11.138C109.882 10.91 109.774 10.742 109.558 10.634C109.354 10.514 109.078 10.424 108.729 10.364C108.382 10.304 107.998 10.244 107.578 10.184C107.17 10.124 106.756 10.046 106.336 9.95C105.916 9.842 105.532 9.686 105.184 9.482C104.836 9.278 104.554 9.002 104.338 8.654C104.134 8.306 104.031 7.856 104.031 7.304C104.031 6.692 104.206 6.152 104.554 5.684C104.914 5.216 105.43 4.85 106.102 4.586C106.774 4.31 107.578 4.172 108.514 4.172C109.174 4.172 109.846 4.244 110.53 4.388C111.214 4.532 111.784 4.742 112.24 5.018L111.304 7.016C110.836 6.74 110.362 6.554 109.882 6.458C109.414 6.35 108.958 6.296 108.514 6.296C107.89 6.296 107.434 6.38 107.146 6.548C106.858 6.716 106.714 6.932 106.714 7.196C106.714 7.436 106.816 7.616 107.02 7.736C107.236 7.856 107.518 7.952 107.866 8.024C108.214 8.096 108.592 8.162 109 8.222C109.42 8.27 109.84 8.348 110.26 8.456C110.68 8.564 111.058 8.72 111.394 8.924C111.742 9.116 112.024 9.386 112.24 9.734C112.456 10.07 112.564 10.514 112.564 11.066C112.564 11.666 112.384 12.2 112.024 12.668C111.664 13.124 111.142 13.484 110.458 13.748C109.786 14.012 108.964 14.144 107.992 14.144Z" fill="#CE3439"/>
</svg>
