<svg width="195" height="19" viewBox="0 0 195 19" fill="none" xmlns="http://www.w3.org/2000/svg">
<path d="M5.788 15.216C4.912 15.216 4.042 15.102 3.178 14.874C2.314 14.634 1.582 14.298 0.982 13.866L2.116 11.634C2.596 11.982 3.154 12.258 3.79 12.462C4.426 12.666 5.068 12.768 5.716 12.768C6.448 12.768 7.024 12.624 7.444 12.336C7.864 12.048 8.074 11.652 8.074 11.148C8.074 10.668 7.888 10.29 7.516 10.014C7.144 9.738 6.544 9.6 5.716 9.6H4.384V7.674L7.894 3.696L8.218 4.74H1.612V2.4H10.432V4.29L6.94 8.268L5.464 7.422H6.31C7.858 7.422 9.028 7.77 9.82 8.466C10.612 9.162 11.008 10.056 11.008 11.148C11.008 11.856 10.822 12.522 10.45 13.146C10.078 13.758 9.508 14.256 8.74 14.64C7.972 15.024 6.988 15.216 5.788 15.216ZM16.4626 15.216C15.5866 15.216 14.7166 15.102 13.8526 14.874C13.0006 14.634 12.2686 14.298 11.6566 13.866L12.8086 11.634C13.2886 11.982 13.8406 12.258 14.4646 12.462C15.1006 12.666 15.7426 12.768 16.3906 12.768C17.1226 12.768 17.6986 12.624 18.1186 12.336C18.5386 12.048 18.7486 11.646 18.7486 11.13C18.7486 10.806 18.6646 10.518 18.4966 10.266C18.3286 10.014 18.0286 9.822 17.5966 9.69C17.1766 9.558 16.5826 9.492 15.8146 9.492H12.5926L13.2406 2.4H20.9266V4.74H14.2846L15.7966 3.408L15.3466 8.466L13.8346 7.134H16.4986C17.7466 7.134 18.7486 7.308 19.5046 7.656C20.2726 7.992 20.8306 8.454 21.1786 9.042C21.5266 9.63 21.7006 10.296 21.7006 11.04C21.7006 11.784 21.5146 12.474 21.1426 13.11C20.7706 13.734 20.1946 14.244 19.4146 14.64C18.6466 15.024 17.6626 15.216 16.4626 15.216ZM28.2836 15.216C27.2516 15.216 26.3276 14.964 25.5116 14.46C24.6956 13.944 24.0536 13.2 23.5856 12.228C23.1176 11.256 22.8836 10.08 22.8836 8.7C22.8836 7.32 23.1176 6.144 23.5856 5.172C24.0536 4.2 24.6956 3.462 25.5116 2.958C26.3276 2.442 27.2516 2.184 28.2836 2.184C29.3276 2.184 30.2516 2.442 31.0556 2.958C31.8716 3.462 32.5136 4.2 32.9816 5.172C33.4496 6.144 33.6836 7.32 33.6836 8.7C33.6836 10.08 33.4496 11.256 32.9816 12.228C32.5136 13.2 31.8716 13.944 31.0556 14.46C30.2516 14.964 29.3276 15.216 28.2836 15.216ZM28.2836 12.75C28.7756 12.75 29.2016 12.612 29.5616 12.336C29.9336 12.06 30.2216 11.622 30.4256 11.022C30.6416 10.422 30.7496 9.648 30.7496 8.7C30.7496 7.752 30.6416 6.978 30.4256 6.378C30.2216 5.778 29.9336 5.34 29.5616 5.064C29.2016 4.788 28.7756 4.65 28.2836 4.65C27.8036 4.65 27.3776 4.788 27.0056 5.064C26.6456 5.34 26.3576 5.778 26.1416 6.378C25.9376 6.978 25.8356 7.752 25.8356 8.7C25.8356 9.648 25.9376 10.422 26.1416 11.022C26.3576 11.622 26.6456 12.06 27.0056 12.336C27.3776 12.612 27.8036 12.75 28.2836 12.75ZM48.0964 5.172C48.8644 5.172 49.5424 5.328 50.1304 5.64C50.7304 5.94 51.1984 6.408 51.5344 7.044C51.8824 7.668 52.0564 8.472 52.0564 9.456V15H49.2484V9.888C49.2484 9.108 49.0864 8.532 48.7624 8.16C48.4384 7.788 47.9824 7.602 47.3944 7.602C46.9864 7.602 46.6204 7.698 46.2964 7.89C45.9724 8.07 45.7204 8.346 45.5404 8.718C45.3604 9.09 45.2704 9.564 45.2704 10.14V15H42.4624V9.888C42.4624 9.108 42.3004 8.532 41.9764 8.16C41.6644 7.788 41.2144 7.602 40.6264 7.602C40.2184 7.602 39.8524 7.698 39.5284 7.89C39.2044 8.07 38.9524 8.346 38.7724 8.718C38.5924 9.09 38.5024 9.564 38.5024 10.14V15H35.6944V5.316H38.3764V7.962L37.8724 7.188C38.2084 6.528 38.6824 6.03 39.2944 5.694C39.9184 5.346 40.6264 5.172 41.4184 5.172C42.3064 5.172 43.0804 5.4 43.7404 5.856C44.4124 6.3 44.8564 6.984 45.0724 7.908L44.0824 7.638C44.4064 6.882 44.9224 6.282 45.6304 5.838C46.3504 5.394 47.1724 5.172 48.0964 5.172ZM54.5733 15V1.644H57.3813V15H54.5733ZM69.4231 15.216C68.4151 15.216 67.4491 15.084 66.5251 14.82C65.6011 14.544 64.8571 14.19 64.2931 13.758L65.2831 11.562C65.8231 11.946 66.4591 12.264 67.1911 12.516C67.9351 12.756 68.6851 12.876 69.4411 12.876C70.0171 12.876 70.4791 12.822 70.8271 12.714C71.1871 12.594 71.4511 12.432 71.6191 12.228C71.7871 12.024 71.8711 11.79 71.8711 11.526C71.8711 11.19 71.7391 10.926 71.4751 10.734C71.2111 10.53 70.8631 10.368 70.4311 10.248C69.9991 10.116 69.5191 9.996 68.9911 9.888C68.4751 9.768 67.9531 9.624 67.4251 9.456C66.9091 9.288 66.4351 9.072 66.0031 8.808C65.5711 8.544 65.2171 8.196 64.9411 7.764C64.6771 7.332 64.5451 6.78 64.5451 6.108C64.5451 5.388 64.7371 4.734 65.1211 4.146C65.5171 3.546 66.1051 3.072 66.8851 2.724C67.6771 2.364 68.6671 2.184 69.8551 2.184C70.6471 2.184 71.4271 2.28 72.1951 2.472C72.9631 2.652 73.6411 2.928 74.2291 3.3L73.3291 5.514C72.7411 5.178 72.1531 4.932 71.5651 4.776C70.9771 4.608 70.4011 4.524 69.8371 4.524C69.2731 4.524 68.8111 4.59 68.4511 4.722C68.0911 4.854 67.8331 5.028 67.6771 5.244C67.5211 5.448 67.4431 5.688 67.4431 5.964C67.4431 6.288 67.5751 6.552 67.8391 6.756C68.1031 6.948 68.4511 7.104 68.8831 7.224C69.3151 7.344 69.7891 7.464 70.3051 7.584C70.8331 7.704 71.3551 7.842 71.8711 7.998C72.3991 8.154 72.8791 8.364 73.3111 8.628C73.7431 8.892 74.0911 9.24 74.3551 9.672C74.6311 10.104 74.7691 10.65 74.7691 11.31C74.7691 12.018 74.5711 12.666 74.1751 13.254C73.7791 13.842 73.1851 14.316 72.3931 14.676C71.6131 15.036 70.6231 15.216 69.4231 15.216ZM76.5636 15V5.316H79.3716V15H76.5636ZM77.9676 3.966C77.4516 3.966 77.0316 3.816 76.7076 3.516C76.3836 3.216 76.2216 2.844 76.2216 2.4C76.2216 1.956 76.3836 1.584 76.7076 1.284C77.0316 0.983999 77.4516 0.833999 77.9676 0.833999C78.4836 0.833999 78.9036 0.977999 79.2276 1.266C79.5516 1.542 79.7136 1.902 79.7136 2.346C79.7136 2.814 79.5516 3.204 79.2276 3.516C78.9156 3.816 78.4956 3.966 77.9676 3.966ZM87.7016 15.144C86.8856 15.144 86.1716 14.964 85.5596 14.604C84.9476 14.244 84.4676 13.698 84.1196 12.966C83.7836 12.222 83.6156 11.286 83.6156 10.158C83.6156 9.018 83.7776 8.082 84.1016 7.35C84.4256 6.618 84.8936 6.072 85.5056 5.712C86.1176 5.352 86.8496 5.172 87.7016 5.172C88.6136 5.172 89.4296 5.382 90.1496 5.802C90.8816 6.21 91.4576 6.786 91.8776 7.53C92.3096 8.274 92.5256 9.15 92.5256 10.158C92.5256 11.178 92.3096 12.06 91.8776 12.804C91.4576 13.548 90.8816 14.124 90.1496 14.532C89.4296 14.94 88.6136 15.144 87.7016 15.144ZM81.9776 18.492V5.316H84.6596V7.296L84.6056 10.176L84.7856 13.038V18.492H81.9776ZM87.2156 12.84C87.6836 12.84 88.0976 12.732 88.4576 12.516C88.8296 12.3 89.1236 11.994 89.3396 11.598C89.5676 11.19 89.6816 10.71 89.6816 10.158C89.6816 9.594 89.5676 9.114 89.3396 8.718C89.1236 8.322 88.8296 8.016 88.4576 7.8C88.0976 7.584 87.6836 7.476 87.2156 7.476C86.7476 7.476 86.3276 7.584 85.9556 7.8C85.5836 8.016 85.2896 8.322 85.0736 8.718C84.8576 9.114 84.7496 9.594 84.7496 10.158C84.7496 10.71 84.8576 11.19 85.0736 11.598C85.2896 11.994 85.5836 12.3 85.9556 12.516C86.3276 12.732 86.7476 12.84 87.2156 12.84ZM100.129 15.144C99.3134 15.144 98.5994 14.964 97.9874 14.604C97.3754 14.244 96.8954 13.698 96.5474 12.966C96.2114 12.222 96.0434 11.286 96.0434 10.158C96.0434 9.018 96.2054 8.082 96.5294 7.35C96.8534 6.618 97.3214 6.072 97.9334 5.712C98.5454 5.352 99.2774 5.172 100.129 5.172C101.041 5.172 101.857 5.382 102.577 5.802C103.309 6.21 103.885 6.786 104.305 7.53C104.737 8.274 104.953 9.15 104.953 10.158C104.953 11.178 104.737 12.06 104.305 12.804C103.885 13.548 103.309 14.124 102.577 14.532C101.857 14.94 101.041 15.144 100.129 15.144ZM94.4054 18.492V5.316H97.0874V7.296L97.0334 10.176L97.2134 13.038V18.492H94.4054ZM99.6434 12.84C100.111 12.84 100.525 12.732 100.885 12.516C101.257 12.3 101.551 11.994 101.767 11.598C101.995 11.19 102.109 10.71 102.109 10.158C102.109 9.594 101.995 9.114 101.767 8.718C101.551 8.322 101.257 8.016 100.885 7.8C100.525 7.584 100.111 7.476 99.6434 7.476C99.1754 7.476 98.7554 7.584 98.3834 7.8C98.0114 8.016 97.7174 8.322 97.5014 8.718C97.2854 9.114 97.1774 9.594 97.1774 10.158C97.1774 10.71 97.2854 11.19 97.5014 11.598C97.7174 11.994 98.0114 12.3 98.3834 12.516C98.7554 12.732 99.1754 12.84 99.6434 12.84ZM111.639 15.144C110.535 15.144 109.563 14.928 108.723 14.496C107.895 14.064 107.253 13.476 106.797 12.732C106.341 11.976 106.113 11.118 106.113 10.158C106.113 9.186 106.335 8.328 106.779 7.584C107.235 6.828 107.853 6.24 108.633 5.82C109.413 5.388 110.295 5.172 111.279 5.172C112.227 5.172 113.079 5.376 113.835 5.784C114.603 6.18 115.209 6.756 115.653 7.512C116.097 8.256 116.319 9.15 116.319 10.194C116.319 10.302 116.313 10.428 116.301 10.572C116.289 10.704 116.277 10.83 116.265 10.95H108.399V9.312H114.789L113.709 9.798C113.709 9.294 113.607 8.856 113.403 8.484C113.199 8.112 112.917 7.824 112.557 7.62C112.197 7.404 111.777 7.296 111.297 7.296C110.817 7.296 110.391 7.404 110.019 7.62C109.659 7.824 109.377 8.118 109.173 8.502C108.969 8.874 108.867 9.318 108.867 9.834V10.266C108.867 10.794 108.981 11.262 109.209 11.67C109.449 12.066 109.779 12.372 110.199 12.588C110.631 12.792 111.135 12.894 111.711 12.894C112.227 12.894 112.677 12.816 113.061 12.66C113.457 12.504 113.817 12.27 114.141 11.958L115.635 13.578C115.191 14.082 114.633 14.472 113.961 14.748C113.289 15.012 112.515 15.144 111.639 15.144ZM118.189 15V5.316H120.871V8.052L120.493 7.26C120.781 6.576 121.243 6.06 121.879 5.712C122.515 5.352 123.289 5.172 124.201 5.172V7.764C124.081 7.752 123.973 7.746 123.877 7.746C123.781 7.734 123.679 7.728 123.571 7.728C122.803 7.728 122.179 7.95 121.699 8.394C121.231 8.826 120.997 9.504 120.997 10.428V15H118.189ZM137.32 15.216C136.324 15.216 135.406 15.06 134.566 14.748C133.738 14.424 133.012 13.968 132.388 13.38C131.776 12.792 131.296 12.102 130.948 11.31C130.612 10.518 130.444 9.648 130.444 8.7C130.444 7.752 130.612 6.882 130.948 6.09C131.296 5.298 131.782 4.608 132.406 4.02C133.03 3.432 133.762 2.982 134.602 2.67C135.442 2.346 136.366 2.184 137.374 2.184C138.49 2.184 139.492 2.37 140.38 2.742C141.28 3.114 142.036 3.654 142.648 4.362L140.776 6.09C140.32 5.61 139.822 5.256 139.282 5.028C138.742 4.788 138.154 4.668 137.518 4.668C136.906 4.668 136.348 4.764 135.844 4.956C135.34 5.148 134.902 5.424 134.53 5.784C134.17 6.144 133.888 6.57 133.684 7.062C133.492 7.554 133.396 8.1 133.396 8.7C133.396 9.288 133.492 9.828 133.684 10.32C133.888 10.812 134.17 11.244 134.53 11.616C134.902 11.976 135.334 12.252 135.826 12.444C136.33 12.636 136.882 12.732 137.482 12.732C138.058 12.732 138.616 12.642 139.156 12.462C139.708 12.27 140.242 11.952 140.758 11.508L142.414 13.614C141.73 14.13 140.932 14.526 140.02 14.802C139.12 15.078 138.22 15.216 137.32 15.216ZM139.75 13.236V8.502H142.414V13.614L139.75 13.236ZM144.925 15V1.644H147.733V15H144.925ZM156.279 15V13.11L156.099 12.696V9.312C156.099 8.712 155.913 8.244 155.541 7.908C155.181 7.572 154.623 7.404 153.867 7.404C153.351 7.404 152.841 7.488 152.337 7.656C151.845 7.812 151.425 8.028 151.077 8.304L150.069 6.342C150.597 5.97 151.233 5.682 151.977 5.478C152.721 5.274 153.477 5.172 154.245 5.172C155.721 5.172 156.867 5.52 157.683 6.216C158.499 6.912 158.907 7.998 158.907 9.474V15H156.279ZM153.327 15.144C152.571 15.144 151.923 15.018 151.383 14.766C150.843 14.502 150.429 14.148 150.141 13.704C149.853 13.26 149.709 12.762 149.709 12.21C149.709 11.634 149.847 11.13 150.123 10.698C150.411 10.266 150.861 9.93 151.473 9.69C152.085 9.438 152.883 9.312 153.867 9.312H156.441V10.95H154.173C153.513 10.95 153.057 11.058 152.805 11.274C152.565 11.49 152.445 11.76 152.445 12.084C152.445 12.444 152.583 12.732 152.859 12.948C153.147 13.152 153.537 13.254 154.029 13.254C154.497 13.254 154.917 13.146 155.289 12.93C155.661 12.702 155.931 12.372 156.099 11.94L156.531 13.236C156.327 13.86 155.955 14.334 155.415 14.658C154.875 14.982 154.179 15.144 153.327 15.144ZM164.706 15.144C163.878 15.144 163.08 15.048 162.312 14.856C161.556 14.652 160.956 14.4 160.512 14.1L161.448 12.084C161.892 12.36 162.414 12.588 163.014 12.768C163.626 12.936 164.226 13.02 164.814 13.02C165.462 13.02 165.918 12.942 166.182 12.786C166.458 12.63 166.596 12.414 166.596 12.138C166.596 11.91 166.488 11.742 166.272 11.634C166.068 11.514 165.792 11.424 165.444 11.364C165.096 11.304 164.712 11.244 164.292 11.184C163.884 11.124 163.47 11.046 163.05 10.95C162.63 10.842 162.246 10.686 161.898 10.482C161.55 10.278 161.268 10.002 161.052 9.654C160.848 9.306 160.746 8.856 160.746 8.304C160.746 7.692 160.92 7.152 161.268 6.684C161.628 6.216 162.144 5.85 162.816 5.586C163.488 5.31 164.292 5.172 165.228 5.172C165.888 5.172 166.56 5.244 167.244 5.388C167.928 5.532 168.498 5.742 168.954 6.018L168.018 8.016C167.55 7.74 167.076 7.554 166.596 7.458C166.128 7.35 165.672 7.296 165.228 7.296C164.604 7.296 164.148 7.38 163.86 7.548C163.572 7.716 163.428 7.932 163.428 8.196C163.428 8.436 163.53 8.616 163.734 8.736C163.95 8.856 164.232 8.952 164.58 9.024C164.928 9.096 165.306 9.162 165.714 9.222C166.134 9.27 166.554 9.348 166.974 9.456C167.394 9.564 167.772 9.72 168.108 9.924C168.456 10.116 168.738 10.386 168.954 10.734C169.17 11.07 169.278 11.514 169.278 12.066C169.278 12.666 169.098 13.2 168.738 13.668C168.378 14.124 167.856 14.484 167.172 14.748C166.5 15.012 165.678 15.144 164.706 15.144ZM174.269 15.144C173.441 15.144 172.643 15.048 171.875 14.856C171.119 14.652 170.519 14.4 170.075 14.1L171.011 12.084C171.455 12.36 171.977 12.588 172.577 12.768C173.189 12.936 173.789 13.02 174.377 13.02C175.025 13.02 175.481 12.942 175.745 12.786C176.021 12.63 176.159 12.414 176.159 12.138C176.159 11.91 176.051 11.742 175.835 11.634C175.631 11.514 175.355 11.424 175.007 11.364C174.659 11.304 174.275 11.244 173.855 11.184C173.447 11.124 173.033 11.046 172.613 10.95C172.193 10.842 171.809 10.686 171.461 10.482C171.113 10.278 170.831 10.002 170.615 9.654C170.411 9.306 170.309 8.856 170.309 8.304C170.309 7.692 170.483 7.152 170.831 6.684C171.191 6.216 171.707 5.85 172.379 5.586C173.051 5.31 173.855 5.172 174.791 5.172C175.451 5.172 176.123 5.244 176.807 5.388C177.491 5.532 178.061 5.742 178.517 6.018L177.581 8.016C177.113 7.74 176.639 7.554 176.159 7.458C175.691 7.35 175.235 7.296 174.791 7.296C174.167 7.296 173.711 7.38 173.423 7.548C173.135 7.716 172.991 7.932 172.991 8.196C172.991 8.436 173.093 8.616 173.297 8.736C173.513 8.856 173.795 8.952 174.143 9.024C174.491 9.096 174.869 9.162 175.277 9.222C175.697 9.27 176.117 9.348 176.537 9.456C176.957 9.564 177.335 9.72 177.671 9.924C178.019 10.116 178.301 10.386 178.517 10.734C178.733 11.07 178.841 11.514 178.841 12.066C178.841 12.666 178.661 13.2 178.301 13.668C177.941 14.124 177.419 14.484 176.735 14.748C176.063 15.012 175.241 15.144 174.269 15.144ZM185.491 13.128V10.878L193.213 8.07V9.33L185.491 6.522V4.272L194.059 7.53V9.87L185.491 13.128Z" fill="#CE3439"/>
</svg>
