<svg width="29" height="15" viewBox="0 0 29 15" fill="none" xmlns="http://www.w3.org/2000/svg">
<path d="M8.83594 1.72461C9.16828 1.73258 9.39374 1.75401 9.52246 1.79004C9.62785 1.81939 9.82221 1.89515 9.9541 1.95801C10.127 2.04092 10.2562 2.13527 10.4199 2.29883C10.5556 2.43409 10.686 2.60131 10.7441 2.71582C10.7975 2.82111 10.8675 2.99335 10.8994 3.09863C10.9415 3.23703 10.957 3.38691 10.9551 3.64062C10.9532 3.94055 10.9392 4.03165 10.8604 4.26074C10.8096 4.40836 10.7392 4.5607 10.7041 4.59863C10.6689 4.63707 10.6112 4.72289 10.5762 4.79004C10.5397 4.85956 10.4303 4.97272 10.3213 5.05273C10.2159 5.12995 10.0431 5.23775 9.74609 5.38867L9.98535 5.47266C10.1169 5.51892 10.2969 5.60703 10.3848 5.66797C10.4723 5.72896 10.6127 5.8508 10.6963 5.93848C10.7799 6.02628 10.897 6.19186 10.957 6.30566C11.0167 6.41984 11.0911 6.60588 11.1211 6.71973C11.1511 6.83385 11.1764 7.04925 11.1787 7.19824C11.1809 7.34756 11.1733 7.54915 11.1602 7.64551C11.1474 7.74188 11.1067 7.90745 11.0703 8.0127C11.0342 8.11802 10.9582 8.29034 10.9023 8.39551C10.8431 8.50723 10.6939 8.69397 10.5449 8.84375C10.3399 9.04986 10.2287 9.13107 9.98535 9.25391C9.81387 9.34034 9.55033 9.44002 9.37891 9.4834C9.21188 9.52551 8.96584 9.57122 8.83203 9.58398C8.6553 9.60119 8.5748 9.59637 8.53711 9.56738C8.49559 9.53548 8.47168 9.53548 8.4209 9.56738C8.37012 9.59925 8.28949 9.5989 8.01367 9.56445C7.82462 9.54114 7.5478 9.48738 7.39844 9.44434C7.2491 9.40127 7.02723 9.3181 6.9043 9.25977C6.78139 9.20172 6.64995 9.12696 6.54395 9.0332L6.69141 8.40625C6.77282 8.06177 6.84751 7.77227 6.85645 7.7627C6.8672 7.7545 6.97395 7.79509 7.0957 7.85449C7.21864 7.91446 7.42673 7.99826 7.55859 8.04102C7.69017 8.08409 7.87352 8.13449 7.96582 8.15332C8.0581 8.17214 8.24482 8.18815 8.38086 8.18848C8.51691 8.18848 8.71492 8.16579 8.82031 8.13867C8.92565 8.11152 9.08311 8.04175 9.1709 7.98438C9.25872 7.92694 9.37741 7.80912 9.43457 7.72266C9.492 7.63627 9.55368 7.494 9.57227 7.40625C9.59079 7.31851 9.62011 7.23239 9.63672 7.21484C9.6558 7.19472 9.64941 7.14743 9.61914 7.08691C9.59303 7.03442 9.5711 6.96294 9.57129 6.92773C9.57129 6.89264 9.53596 6.79184 9.49316 6.7041C9.45037 6.61644 9.3576 6.49054 9.28613 6.4248C9.21429 6.35909 9.09426 6.27496 9.01953 6.2373C8.9448 6.19966 8.84078 6.15361 8.78809 6.13574C8.735 6.1182 8.45591 6.09605 7.64648 6.06641L7.63867 4.81348L8.08594 4.79785C8.43431 4.78509 8.57842 4.76641 8.74023 4.71094C8.85425 4.67169 9.00925 4.59761 9.08398 4.54688C9.1586 4.49611 9.25409 4.39388 9.29688 4.31934C9.33967 4.24467 9.38268 4.14388 9.39258 4.0957C9.40248 4.04753 9.39647 3.98644 9.37891 3.95996C9.35731 3.92781 9.35832 3.89399 9.38184 3.85645C9.40738 3.81562 9.40632 3.76213 9.37793 3.65723C9.34823 3.54748 9.29298 3.47012 9.14355 3.33008C8.94907 3.14757 8.94593 3.14608 8.70801 3.12598C8.57647 3.11484 8.33961 3.11518 8.18164 3.12695C8.02379 3.13874 7.88021 3.16111 7.8623 3.17578C7.84474 3.19014 7.77241 3.21951 7.70215 3.24121C7.63195 3.2629 7.4564 3.34377 7.31152 3.4209C7.11875 3.5234 7.04817 3.54842 7.04785 3.51367C7.04785 3.48824 7.04433 3.46698 7.04004 3.46582C7.03557 3.46614 6.95306 3.48821 6.85645 3.51465C6.75985 3.54108 6.66624 3.57449 6.64844 3.58984C6.63088 3.60484 6.53017 3.64123 6.4248 3.6709C6.31946 3.70056 6.04665 3.78336 5.81836 3.85449C5.59008 3.92562 5.38876 3.98735 5.37109 3.99121C5.35353 3.99472 5.30286 4.01342 5.25879 4.0332C5.21453 4.05317 4.99243 4.14065 4.76465 4.22754C4.53631 4.31464 4.24127 4.43145 4.10938 4.48633C3.97761 4.54131 3.63225 4.70251 3.34277 4.84473C3.0533 4.98726 2.78058 5.12811 2.73633 5.15723C2.69259 5.18657 2.46246 5.3375 2.22559 5.49219C1.90335 5.70245 1.70867 5.85895 1.45605 6.11133C1.27053 6.2967 1.07717 6.52373 1.02539 6.61621C0.974293 6.70842 0.920977 6.77285 0.908203 6.75977C0.895734 6.74751 0.876633 6.77997 0.866211 6.83203C0.855305 6.88477 0.823939 6.99935 0.795898 7.08691C0.766525 7.1791 0.743814 7.36095 0.743164 7.51758C0.742206 7.6953 0.76244 7.84998 0.799805 7.96484C0.831335 8.06121 0.873761 8.17959 0.894531 8.22852C0.91497 8.27733 0.946302 8.31836 0.963867 8.31836C0.981525 8.31884 1.05718 8.40455 1.13184 8.50879C1.20661 8.61304 1.36414 8.77812 1.48242 8.87598C1.6009 8.97361 1.81358 9.13048 1.9541 9.22461C2.09462 9.31841 2.41832 9.50198 2.67285 9.63184C2.92716 9.76126 3.22867 9.90818 3.34277 9.95801C3.45678 10.0078 3.56544 10.0522 3.58301 10.0557C3.60343 10.0606 3.78917 10.1253 3.99805 10.2002C4.20785 10.2755 4.40001 10.3519 4.42578 10.3711C4.45069 10.3896 4.50136 10.4066 4.53809 10.4082C4.57602 10.4098 4.843 10.4765 5.13184 10.5566C5.4215 10.637 5.881 10.7536 6.15332 10.8154C6.42573 10.8776 6.82479 10.9614 7.04004 11.002C7.25554 11.0425 7.43196 11.0865 7.43164 11.0996C7.43201 11.1123 7.4489 11.1136 7.4707 11.1025C7.49281 11.0914 7.62613 11.1004 7.7666 11.123C7.90701 11.1457 8.05084 11.1837 8.08594 11.2061C8.12177 11.2287 8.2653 11.2555 8.40527 11.2656L8.85156 11.2988C8.95692 11.3068 9.30206 11.3418 9.61816 11.376C9.93433 11.4098 10.2874 11.4465 10.4014 11.458C10.5982 11.478 10.6096 11.4756 10.6338 11.4053C10.6482 11.3644 10.6665 11.1795 10.6748 10.9951C10.6834 10.8113 10.7014 10.5691 10.7139 10.457C10.7276 10.3323 10.7548 10.2395 10.7842 10.2197C10.8217 10.1951 10.9739 10.2837 11.4551 10.6104C11.7977 10.8429 12.1314 11.0679 12.1973 11.1104C12.2631 11.1525 12.3094 11.2012 12.3008 11.2188C12.2922 11.2363 12.3316 11.2663 12.3887 11.2852C12.4458 11.3037 12.6703 11.4433 12.8877 11.5957C13.1052 11.7479 13.3359 11.9034 13.3994 11.9414C13.4629 11.979 13.5506 12.0452 13.5947 12.0879C13.6385 12.1306 13.6998 12.175 13.7305 12.1865C13.7613 12.1981 13.8937 12.2796 14.0254 12.3672C14.1841 12.4728 14.2623 12.5456 14.2568 12.5811C14.2507 12.6137 14.1069 12.7095 13.8975 12.8203C13.7049 12.922 13.5045 13.0111 13.4512 13.0186C13.3985 13.0259 13.3261 13.0576 13.291 13.0889C13.2557 13.1205 12.7524 13.3735 12.1729 13.6514L11.8262 13.8184C11.3663 14.0391 10.9442 14.2417 10.8066 14.3076C10.533 14.4389 10.4892 14.4513 10.4521 14.4092C10.4174 14.3691 10.4179 14.2844 10.4551 13.915C10.4797 13.6694 10.499 13.4214 10.498 13.3643C10.4971 13.3072 10.5108 13.2246 10.5283 13.1807C10.5576 13.1075 10.5543 13.1033 10.4883 13.124C10.4302 13.1424 10.4224 13.1375 10.4482 13.0996C10.4727 13.0634 10.4696 13.0601 10.4326 13.082C10.404 13.0989 10.2803 13.0919 10.124 13.0654C9.98178 13.0414 9.86973 13.0151 9.87305 13.0059C9.87847 12.9973 9.83831 12.9883 9.7832 12.9873C9.72797 12.986 9.52789 12.9576 9.33887 12.9238C9.15013 12.8897 8.99577 12.8546 8.99609 12.8457C8.99492 12.8372 8.94803 12.8267 8.8916 12.8232C8.83397 12.8193 8.61555 12.7786 8.40527 12.7324L8.38477 12.7285C8.1779 12.6831 7.93215 12.6284 7.83008 12.6064C7.72468 12.5835 7.53032 12.5367 7.39844 12.502C7.26654 12.4671 6.9145 12.3713 6.61621 12.2891C6.31806 12.2069 6.01702 12.1117 5.94629 12.0781C5.87603 12.0446 5.78904 12.0176 5.75391 12.0176C5.71802 12.0173 5.53153 11.966 5.33887 11.9023C5.14566 11.8389 4.89427 11.7511 4.78027 11.708C4.66626 11.6646 4.56558 11.6162 4.55664 11.5996C4.54743 11.5834 4.49016 11.5653 4.42871 11.5596C4.36689 11.554 4.15178 11.4799 3.9502 11.3955C3.74895 11.3115 3.56924 11.2245 3.55078 11.2021C3.53323 11.1805 3.42541 11.1304 3.31152 11.0918C3.19724 11.0532 2.93144 10.928 2.7207 10.8135C2.51012 10.699 2.27246 10.5618 2.19336 10.5078C2.11488 10.4542 2.03972 10.3948 2.02637 10.376C2.01331 10.3572 2.00202 10.3523 2.00195 10.3652C2.00163 10.3783 1.87621 10.3035 1.72266 10.1992C1.56904 10.0949 1.3247 9.90431 1.18066 9.77637C1.03637 9.64814 0.892614 9.50788 0.861328 9.46387C0.829937 9.42011 0.755905 9.34064 0.696289 9.28809C0.636763 9.23515 0.511675 9.0776 0.417969 8.9375C0.317691 8.78754 0.201193 8.55392 0.134766 8.37109C0.0402353 8.1101 0.0192725 8.00459 0.00585938 7.7168C-0.00688833 7.44534 0.000148957 7.35951 0.0380859 7.30273C0.0642734 7.26317 0.0962813 7.15003 0.109375 7.05176C0.122448 6.9534 0.152156 6.85728 0.174805 6.83691C0.197724 6.81688 0.215678 6.77138 0.214844 6.73633C0.214205 6.70125 0.279954 6.572 0.361328 6.44922C0.443084 6.32638 0.65612 6.08174 0.834961 5.90625C1.01377 5.73083 1.27392 5.50641 1.41309 5.40723C1.55265 5.308 1.79602 5.1518 1.9541 5.06055C2.1121 4.96968 2.39166 4.82473 2.57617 4.73828C2.76076 4.65181 2.93011 4.58171 2.95215 4.58203C2.97448 4.58208 3.03881 4.55383 3.0957 4.51953C3.15318 4.48499 3.36486 4.39752 3.56641 4.3252C3.76824 4.25245 4.12795 4.13126 4.36523 4.05469C4.60251 3.97812 4.92592 3.87933 5.08398 3.83594C5.24189 3.7923 5.38175 3.76621 5.39453 3.77832C5.40728 3.79042 5.43567 3.78433 5.45801 3.76465C5.48035 3.74488 5.63148 3.69845 5.79395 3.66113C5.95581 3.62396 6.1025 3.60107 6.12109 3.60938C6.13849 3.61822 6.15305 3.61434 6.15332 3.60156C6.153 3.58848 6.25034 3.55679 6.36914 3.53223C6.48783 3.5077 6.62805 3.48529 6.68066 3.48242C6.73336 3.47986 6.81246 3.47421 6.85645 3.4707C6.90011 3.46714 6.95528 3.45444 6.97852 3.44141C7.01237 3.4229 6.99403 3.30571 6.8877 2.85938C6.81456 2.55243 6.76322 2.28276 6.77344 2.26074C6.78513 2.23828 6.91144 2.16258 7.05566 2.0918C7.2006 2.02037 7.43372 1.92721 7.57422 1.88477C7.71474 1.84233 7.94542 1.78691 8.08594 1.76074C8.26566 1.72729 8.48779 1.71632 8.83594 1.72461ZM23.2871 3.65723C23.3142 3.65739 23.634 3.74277 23.998 3.84668C24.3624 3.95102 24.8763 4.10996 25.1396 4.20117C25.4031 4.29211 25.7699 4.43064 25.9541 4.50879C26.1384 4.58698 26.4475 4.73017 26.6406 4.82617C26.8338 4.92251 27.171 5.12019 27.3906 5.26562C27.61 5.41144 27.9251 5.65843 28.0898 5.81445C28.2545 5.97008 28.4536 6.18375 28.5322 6.28906C28.611 6.39424 28.7074 6.54483 28.7471 6.62402C28.7866 6.70293 28.8138 6.78532 28.8076 6.80762C28.8012 6.82963 28.8106 6.84766 28.8281 6.84766C28.8458 6.84847 28.8912 6.9523 28.9297 7.0791C28.9846 7.2587 29.0006 7.38875 29 7.66113C28.9994 7.9719 28.9872 8.0471 28.8955 8.31543C28.8387 8.48223 28.7283 8.72229 28.6504 8.84961C28.5725 8.97692 28.4941 9.08105 28.4766 9.08105C28.459 9.0811 28.4444 9.10249 28.4443 9.12891C28.4443 9.15537 28.3119 9.31471 28.1494 9.4834C27.9869 9.6525 27.7312 9.88749 27.582 10.0059C27.4329 10.1242 27.1635 10.3162 26.9834 10.4326C26.8056 10.5476 26.6604 10.6315 26.6572 10.6211C26.6575 10.608 26.6249 10.6277 26.585 10.665C26.5439 10.7031 26.3604 10.8125 26.1768 10.9092C25.9925 11.0061 25.6696 11.1588 25.459 11.249C25.2484 11.3395 25.0472 11.4296 25.0117 11.4492C24.9766 11.4684 24.7822 11.5455 24.5801 11.6211C24.3784 11.6965 24.2032 11.7518 24.1895 11.7441C24.1764 11.7358 24.1617 11.7422 24.1572 11.7578C24.1524 11.7735 23.9982 11.838 23.8145 11.9014C23.6302 11.9649 23.4422 12.0169 23.3984 12.0166C23.3543 12.0164 23.2682 12.0434 23.207 12.0762C23.1455 12.1091 22.9155 12.1895 22.6963 12.2549C22.4766 12.3203 22.2605 12.3747 22.2168 12.375C22.1729 12.3754 22.1297 12.3857 22.1211 12.3984C22.1109 12.4119 21.8671 12.4815 21.5781 12.5537C21.2883 12.6261 20.822 12.7346 20.541 12.7949C20.26 12.8555 19.8643 12.9343 19.6621 12.9697L18.7363 13.1299C18.5342 13.165 18.2899 13.205 18.1934 13.2178C18.097 13.2305 17.9533 13.2395 17.874 13.2383C17.7951 13.237 17.7228 13.2488 17.7139 13.2646C17.7052 13.2806 17.6028 13.2976 17.4863 13.3018C17.3694 13.3059 17.2791 13.3199 17.2861 13.333C17.2925 13.3461 17.2376 13.3578 17.1631 13.3594C17.0884 13.3607 16.9843 13.3667 16.9316 13.3721C16.8788 13.3772 16.7351 13.3969 16.6123 13.416C16.4892 13.4349 16.1225 13.4729 15.7979 13.5C15.4728 13.5274 15.1707 13.5552 15.127 13.5625C15.0832 13.5697 15.0263 13.5636 15 13.5479C14.9649 13.5268 14.9464 13.4342 14.9326 13.2061C14.9222 13.0355 14.9257 12.8783 14.9404 12.8545C14.9558 12.8315 14.9538 12.8071 14.9355 12.7979C14.9166 12.7866 14.9074 12.6358 14.9121 12.418C14.9166 12.2176 14.9083 12.042 14.8945 12.0273C14.8808 12.0126 14.8708 11.9397 14.8711 11.8652C14.8717 11.7906 14.8907 11.7115 14.9141 11.6895C14.9451 11.6601 15.326 11.638 16.3428 11.6074C17.1057 11.5844 17.7881 11.5598 17.8584 11.5527C17.9294 11.5453 18.195 11.524 18.4492 11.5049C18.7042 11.486 19.185 11.4426 19.5186 11.4082C19.8523 11.3737 20.2187 11.3314 20.333 11.3145C20.4473 11.2975 20.6271 11.2838 20.7324 11.2832C20.8378 11.2829 21.0176 11.2665 21.1318 11.2471C21.246 11.2276 21.3535 11.1989 21.3711 11.1846C21.3898 11.1697 21.5728 11.1284 21.7783 11.0928C21.9845 11.0567 22.168 11.0344 22.1855 11.043C22.2031 11.0515 22.2348 11.0455 22.2568 11.0293C22.2789 11.013 22.426 10.9706 22.584 10.9355C22.7421 10.9001 22.9081 10.8654 22.9521 10.8574C22.9966 10.849 23.1834 10.8043 23.3672 10.7578C23.5515 10.7112 23.9183 10.6101 24.1816 10.5332C24.4451 10.456 24.8549 10.3214 25.0918 10.2344C25.3286 10.1476 25.6264 10.0318 25.7539 9.97754C25.8801 9.9238 25.9841 9.89024 25.9863 9.90234C25.9863 9.91537 25.9968 9.91119 26.0098 9.89258C26.0225 9.87409 26.159 9.79124 26.3125 9.70898C26.4649 9.62761 26.6047 9.56769 26.624 9.5752C26.6416 9.58381 26.6562 9.57712 26.6562 9.55957C26.6564 9.54211 26.6777 9.52737 26.7041 9.52734C26.7305 9.52734 26.7518 9.51356 26.752 9.49609C26.752 9.47855 26.8347 9.41512 26.9355 9.35547C27.0364 9.29553 27.2198 9.16961 27.3428 9.0752C27.4657 8.98075 27.5811 8.89633 27.5986 8.88867C27.6167 8.87997 27.7094 8.78059 27.8057 8.66699C27.9021 8.55277 28.0281 8.37956 28.0859 8.2832C28.1434 8.18688 28.2154 8.02898 28.2451 7.93262C28.2748 7.83626 28.3111 7.74983 28.3252 7.74121C28.3391 7.73182 28.3285 7.57326 28.3018 7.38965C28.2663 7.14785 28.2227 6.99329 28.1455 6.83203C28.0867 6.70919 27.9677 6.51629 27.8818 6.4043C27.796 6.29212 27.7016 6.16282 27.6709 6.11719C27.6406 6.07131 27.6043 6.03662 27.5908 6.03906C27.5774 6.04193 27.5021 5.9832 27.4229 5.90918C27.3437 5.8352 27.1569 5.6846 27.0078 5.57422C26.8587 5.46382 26.6063 5.29295 26.4482 5.19531C26.29 5.0973 25.9596 4.915 25.7139 4.79004C25.468 4.665 25.1522 4.51107 25.0117 4.44824C24.8713 4.38544 24.6201 4.28192 24.4531 4.21777C24.2861 4.15364 24.1281 4.08957 24.1016 4.07617C24.0749 4.06241 23.8856 3.99596 23.6807 3.92676C23.4756 3.85752 23.3139 3.78945 23.3213 3.77637C23.3284 3.76341 23.3062 3.76333 23.2715 3.77637C23.2195 3.79579 23.2111 3.78862 23.2217 3.73633C23.2286 3.7017 23.235 3.66987 23.2363 3.66504C23.2379 3.66057 23.2606 3.65723 23.2871 3.65723ZM16.4258 2.19727C16.4322 2.46496 16.4365 2.77383 16.4365 3.08301H16.2695C16.1773 3.08301 15.9725 3.09836 15.8145 3.11621C15.6564 3.1344 15.49 3.14977 15.4463 3.15137C15.4022 3.15309 15.324 3.17381 15.2715 3.19727C15.2188 3.22088 15.0671 3.28363 14.9355 3.33691C14.8036 3.39021 14.6023 3.50369 14.4883 3.58887C14.3743 3.67406 14.2179 3.82068 14.1406 3.91504C14.0637 4.0098 13.9453 4.20239 13.8779 4.34277C13.8103 4.483 13.7356 4.67696 13.7109 4.77344C13.6867 4.86839 13.6711 4.95413 13.6768 4.96484C13.6828 4.97346 13.7725 4.90202 13.875 4.80566C13.9775 4.7094 14.1386 4.59085 14.2344 4.54297C14.3302 4.49543 14.4952 4.435 14.6006 4.4082C14.7059 4.38111 14.9211 4.35909 15.0791 4.35938C15.237 4.35969 15.4601 4.38209 15.5742 4.40918C15.6885 4.4363 15.8829 4.5114 16.0059 4.57617C16.1326 4.64256 16.3127 4.77698 16.4219 4.88574C16.5278 4.99095 16.6752 5.17698 16.749 5.2998C16.8228 5.42265 16.9188 5.62423 16.9619 5.74707C17.0053 5.86997 17.0644 6.10665 17.0938 6.27344C17.133 6.49706 17.1427 6.68113 17.1299 6.97559C17.1197 7.2138 17.0871 7.47038 17.0498 7.61328C17.0153 7.74506 16.9493 7.94664 16.9033 8.06055C16.857 8.1747 16.7729 8.34613 16.7158 8.44238C16.659 8.53869 16.4832 8.74838 16.3252 8.9082C16.0778 9.15827 15.9954 9.2191 15.7344 9.34473C15.5674 9.42481 15.3266 9.51294 15.1992 9.54102C15.0718 9.56877 14.8458 9.59179 14.6963 9.5918C14.5468 9.5918 14.3208 9.56911 14.1934 9.54199C14.066 9.51489 13.8759 9.45713 13.7705 9.41406C13.6652 9.3707 13.5015 9.28953 13.4072 9.23242C13.313 9.17563 13.14 9.03512 13.0234 8.9209C12.907 8.80668 12.7448 8.60593 12.6621 8.47461C12.5791 8.34315 12.4604 8.10953 12.3984 7.95605C12.3362 7.80258 12.2568 7.55885 12.2227 7.41406C12.1882 7.26921 12.1441 6.99284 12.124 6.7998C12.1042 6.60677 12.0739 6.43454 12.0576 6.41699C12.0414 6.3992 12.0283 6.33479 12.0283 6.27344C12.0283 6.21232 12.0414 6.14761 12.0566 6.12988C12.0723 6.11233 12.1013 5.92543 12.1221 5.71484C12.1425 5.50435 12.1878 5.19619 12.2217 5.0293C12.2552 4.86249 12.3259 4.58974 12.3799 4.42285C12.4335 4.25599 12.5552 3.96159 12.6504 3.76855C12.7454 3.57582 12.8601 3.37865 12.9053 3.33008C12.9506 3.2819 12.9803 3.24219 12.9717 3.24219C12.9634 3.24184 13.0243 3.15378 13.1074 3.0459C13.1908 2.93742 13.3741 2.75051 13.5146 2.63086C13.6552 2.5109 13.7955 2.41309 13.8262 2.41309C13.8571 2.41299 13.8968 2.38367 13.9141 2.34863C13.9326 2.313 14.0915 2.21514 14.2734 2.12793C14.4535 2.04182 14.7013 1.9423 14.8242 1.90723C14.9472 1.87214 15.1339 1.82639 15.2393 1.80566C15.3446 1.78461 15.553 1.75625 15.7021 1.74316C15.8512 1.73009 16.0729 1.71796 16.4141 1.71094L16.4258 2.19727ZM20.3486 1.72266C20.6635 1.73095 20.775 1.74815 20.9717 1.81738C21.1033 1.86365 21.3046 1.96544 21.4189 2.04297C21.5332 2.12047 21.687 2.24942 21.7617 2.33008C21.8364 2.41039 21.9604 2.57307 22.0371 2.69141C22.1138 2.80978 22.2201 3.00802 22.2734 3.13086C22.3267 3.25368 22.4085 3.47606 22.4551 3.625C22.502 3.77432 22.568 4.06202 22.6025 4.26367C22.637 4.46571 22.6807 4.83831 22.6992 5.09277C22.7174 5.34739 22.7237 5.7212 22.7129 5.92285C22.702 6.12482 22.6783 6.42603 22.6602 6.59277C22.6419 6.75956 22.5986 7.03145 22.5645 7.19824C22.53 7.36511 22.4586 7.63113 22.4053 7.78906C22.3519 7.94701 22.2452 8.1987 22.168 8.34766C22.091 8.49661 21.9486 8.71567 21.8516 8.83398C21.7542 8.95233 21.5991 9.10587 21.5068 9.1748C21.4147 9.24395 21.2462 9.34381 21.1318 9.39746C21.0175 9.45106 20.8231 9.51681 20.7002 9.54297C20.5772 9.56913 20.3542 9.59082 20.2051 9.59082C20.056 9.59081 19.8442 9.5688 19.7344 9.54297C19.6245 9.51681 19.4515 9.45905 19.3506 9.41406C19.2497 9.36874 19.1026 9.28493 19.0234 9.22754C18.9445 9.17062 18.8552 9.1143 18.8242 9.10254C18.7936 9.09108 18.7687 9.0526 18.7686 9.01758C18.7686 8.98252 18.7442 8.94282 18.7148 8.92969C18.6858 8.91661 18.6014 8.81916 18.5273 8.71387C18.4533 8.6086 18.3352 8.40794 18.2656 8.26758C18.1957 8.12719 18.1007 7.89722 18.0547 7.75684C18.0087 7.61645 17.9493 7.40811 17.9229 7.29395C17.8964 7.18018 17.875 7.01544 17.875 6.92773C17.875 6.84018 17.8606 6.75413 17.8438 6.73633C17.8265 6.71878 17.7958 6.49582 17.7754 6.24121C17.7537 5.97321 17.747 5.59072 17.7588 5.33203C17.77 5.08655 17.8013 4.73498 17.8281 4.55078C17.8552 4.36688 17.8996 4.12987 17.9258 4.02441C17.9516 3.91912 18.0107 3.71754 18.0566 3.57715C18.1029 3.4368 18.1596 3.28621 18.1826 3.24219C18.2055 3.19873 18.2247 3.14868 18.2246 3.13086C18.2243 3.11331 18.304 2.96946 18.4023 2.81152C18.5116 2.63574 18.6761 2.43158 18.8271 2.28516C18.9959 2.12137 19.1482 2.00841 19.3115 1.92676C19.4427 1.86108 19.6434 1.78567 19.7578 1.75977C19.8976 1.72787 20.0904 1.71565 20.3486 1.72266ZM14.6484 5.61621C14.552 5.60951 14.415 5.62188 14.3447 5.64453C14.2744 5.66722 14.1524 5.73163 14.0732 5.78711C13.9941 5.84262 13.8993 5.92778 13.8623 5.97656C13.8256 6.0257 13.7626 6.13083 13.7227 6.20996C13.679 6.29611 13.641 6.44245 13.6289 6.57617C13.6149 6.72732 13.6258 6.89723 13.6621 7.10254C13.6915 7.2692 13.7472 7.48452 13.7861 7.58105C13.8248 7.67736 13.8961 7.81454 13.9453 7.88477C13.9944 7.95487 14.0758 8.04969 14.126 8.0957C14.1761 8.14164 14.2891 8.20241 14.377 8.23145C14.4648 8.26016 14.6051 8.2845 14.6885 8.28418C14.7718 8.28414 14.8942 8.26147 14.96 8.23438C15.0258 8.20723 15.1348 8.13147 15.2021 8.06641C15.2695 8.00166 15.3589 7.88012 15.4014 7.79688C15.4435 7.7136 15.5015 7.54806 15.5293 7.42969C15.5657 7.27532 15.5766 7.11076 15.5674 6.84766C15.5578 6.57166 15.5364 6.43296 15.4834 6.28906C15.4441 6.18388 15.374 6.04795 15.3262 5.9873C15.2789 5.92704 15.2326 5.8583 15.2236 5.83398C15.215 5.80974 15.121 5.75365 15.0156 5.70898C14.9103 5.66433 14.7449 5.62262 14.6484 5.61621ZM20.2207 3.05078C20.1477 3.05123 20.0401 3.08208 19.9688 3.12305C19.9005 3.16258 19.7881 3.27381 19.7197 3.37012C19.6447 3.47564 19.5598 3.65859 19.5049 3.83203C19.4551 3.98997 19.3971 4.24929 19.376 4.40723C19.3549 4.56482 19.3282 4.75089 19.3164 4.82129C19.3049 4.89148 19.3039 5.35141 19.3145 5.84277C19.3282 6.4642 19.3493 6.82133 19.3857 7.01562C19.4148 7.16908 19.4712 7.39149 19.5107 7.50977C19.55 7.62813 19.6257 7.79671 19.6787 7.88379C19.7314 7.97062 19.8313 8.08165 19.9014 8.13086C19.9716 8.18 20.0803 8.22971 20.1416 8.24023C20.203 8.25103 20.3074 8.25041 20.373 8.23926C20.4477 8.22707 20.542 8.1742 20.624 8.09961C20.6965 8.03389 20.7885 7.92271 20.8291 7.85254C20.8693 7.78234 20.9323 7.63148 20.9678 7.51758C21.0035 7.40333 21.0556 7.18803 21.083 7.03906C21.1105 6.88971 21.1478 6.52385 21.166 6.22559C21.189 5.851 21.1887 5.50532 21.166 5.1084C21.1478 4.79259 21.1105 4.40495 21.083 4.24707C21.0552 4.08914 20.9972 3.85913 20.9541 3.73633C20.9106 3.61349 20.8213 3.4325 20.7559 3.33398C20.661 3.1914 20.6065 3.14401 20.4922 3.10254C20.413 3.07388 20.2909 3.05046 20.2207 3.05078ZM23.1113 0.00390625C23.2375 0.0134782 23.3814 0.0500962 23.4785 0.0966797C23.5663 0.139136 23.7067 0.246301 23.79 0.335938C23.8731 0.424996 23.941 0.519411 23.9414 0.545898C23.9414 0.572381 23.9674 0.633123 23.998 0.680664C24.0388 0.743501 24.0537 0.832671 24.0537 1.00879C24.0537 1.18492 24.0388 1.27408 23.998 1.33691C23.9674 1.38445 23.9414 1.44552 23.9414 1.47168C23.9409 1.49853 23.8662 1.59876 23.7744 1.69531C23.6735 1.80156 23.5424 1.89927 23.4463 1.94043C23.3315 1.98978 23.2197 2.00976 23.0479 2.01074C22.8588 2.0117 22.7715 1.99515 22.6357 1.93262C22.5378 1.88758 22.4034 1.78949 22.3242 1.70312C22.2476 1.61985 22.1535 1.48269 22.1143 1.39941C22.0606 1.28491 22.043 1.18964 22.043 1.00879C22.043 0.836896 22.0608 0.72899 22.1074 0.625977C22.1432 0.54717 22.2362 0.412339 22.3145 0.327148C22.3927 0.241639 22.5 0.149191 22.5527 0.12207C22.6055 0.0946309 22.7062 0.0535184 22.7764 0.0302734C22.8556 0.00388221 22.9828 -0.00564616 23.1113 0.00390625ZM22.9355 0.561523C22.9178 0.562018 22.8601 0.591307 22.8076 0.625977C22.755 0.660566 22.6868 0.735696 22.6562 0.792969C22.6254 0.850355 22.6007 0.954295 22.6006 1.02441C22.6009 1.09903 22.6274 1.1922 22.665 1.24805C22.7005 1.30066 22.7685 1.36876 22.8164 1.39941C22.8642 1.43 22.961 1.45469 23.0312 1.45508C23.1015 1.45508 23.2075 1.43036 23.2666 1.39941C23.3256 1.36877 23.4013 1.29395 23.4346 1.23242C23.4678 1.17085 23.4951 1.07037 23.4951 1.00879C23.4951 0.947209 23.4678 0.846736 23.4346 0.785156C23.4001 0.721482 23.3231 0.648109 23.2549 0.614258C23.154 0.564484 23.1278 0.562259 23.0898 0.598633C23.0535 0.633578 23.0368 0.63406 23.0059 0.601562C22.9845 0.57959 22.9531 0.561205 22.9355 0.561523Z" fill="white"/>
</svg>
