<svg width="29" height="15" viewBox="0 0 29 15" fill="none" xmlns="http://www.w3.org/2000/svg">
<path d="M8.83594 1.72461C9.16815 1.73258 9.39371 1.75403 9.52246 1.79004C9.62785 1.81939 9.82221 1.89515 9.9541 1.95801C10.1271 2.04093 10.2562 2.13527 10.4199 2.29883C10.5555 2.43397 10.6859 2.60129 10.7441 2.71582C10.7974 2.82097 10.8674 2.9933 10.8994 3.09863C10.9416 3.23711 10.957 3.38763 10.9551 3.6416C10.9532 3.94144 10.9392 4.03169 10.8604 4.26074C10.8096 4.40847 10.7392 4.56066 10.7041 4.59863C10.669 4.63692 10.6113 4.72278 10.5762 4.79004C10.5398 4.8596 10.4305 4.97363 10.3213 5.05371C10.2159 5.13092 10.0431 5.23777 9.74609 5.38867L9.98535 5.47266C10.1169 5.51892 10.2969 5.60703 10.3848 5.66797C10.4723 5.72891 10.6126 5.85074 10.6963 5.93848C10.7799 6.02619 10.897 6.19176 10.957 6.30566C11.0168 6.41989 11.0911 6.6068 11.1211 6.7207C11.1511 6.835 11.1775 7.05034 11.1797 7.19922C11.1819 7.34836 11.1732 7.54906 11.1602 7.64551C11.1474 7.74186 11.1067 7.9074 11.0703 8.0127C11.0342 8.11799 10.9582 8.29022 10.9023 8.39551C10.8433 8.50714 10.694 8.69385 10.5449 8.84375C10.3399 9.04987 10.2287 9.13204 9.98535 9.25488C9.81384 9.34129 9.55024 9.44102 9.37891 9.48438C9.21188 9.52648 8.96581 9.57122 8.83203 9.58398C8.65566 9.60115 8.5749 9.59719 8.53711 9.56836C8.49559 9.53645 8.47168 9.53645 8.4209 9.56836C8.3701 9.60006 8.289 9.59981 8.01367 9.56543C7.8248 9.54214 7.54888 9.48736 7.39941 9.44434C7.24999 9.40127 7.02727 9.31815 6.9043 9.25977C6.78149 9.20176 6.64991 9.12783 6.54395 9.03418L6.69141 8.40723C6.77263 8.06353 6.84719 7.77467 6.85645 7.76367C6.86539 7.75442 6.97275 7.79548 7.0957 7.85547C7.21869 7.91544 7.42679 7.99927 7.55859 8.04199C7.69017 8.08506 7.87353 8.13547 7.96582 8.1543C8.05811 8.17311 8.24485 8.18815 8.38086 8.18848C8.51691 8.18848 8.71492 8.16579 8.82031 8.13867C8.9257 8.1115 9.08413 8.04273 9.17188 7.98535C9.25955 7.92793 9.37738 7.80997 9.43457 7.72363C9.49205 7.63717 9.55374 7.49399 9.57227 7.40625C9.59079 7.31856 9.62012 7.23238 9.63672 7.21484C9.65551 7.19465 9.64912 7.148 9.61914 7.08789C9.59295 7.03524 9.57097 6.96283 9.57129 6.92773C9.57119 6.89251 9.5359 6.79172 9.49316 6.7041C9.45034 6.61656 9.35747 6.49148 9.28613 6.42578C9.21428 6.36005 9.09426 6.27495 9.01953 6.2373C8.94481 6.19967 8.84074 6.15457 8.78809 6.13672C8.7353 6.11917 8.45652 6.09607 7.64648 6.06641L7.63867 4.81445L8.08594 4.79883C8.43443 4.78607 8.57837 4.76644 8.74023 4.71094C8.85425 4.67169 9.00925 4.59761 9.08398 4.54688C9.15864 4.49603 9.25418 4.39383 9.29688 4.31934C9.33964 4.24469 9.38268 4.14385 9.39258 4.0957C9.40233 4.04773 9.39631 3.98746 9.37891 3.96094C9.35719 3.92871 9.3582 3.89409 9.38184 3.85645C9.40728 3.81562 9.40632 3.76206 9.37793 3.65723C9.34821 3.54764 9.29287 3.47001 9.14355 3.33008C8.94926 3.14776 8.94585 3.14705 8.70801 3.12695C8.57644 3.11582 8.33961 3.11615 8.18164 3.12793C8.02435 3.13968 7.88104 3.16111 7.8623 3.17578C7.84474 3.19014 7.77241 3.22049 7.70215 3.24219C7.63178 3.26397 7.45632 3.34478 7.31152 3.42188C7.11831 3.52461 7.04785 3.54877 7.04785 3.51367C7.04783 3.48858 7.04426 3.46831 7.04004 3.4668C7.03557 3.46712 6.95303 3.48822 6.85645 3.51465C6.75968 3.54113 6.666 3.57551 6.64844 3.59082C6.63035 3.60592 6.52982 3.64231 6.4248 3.67188C6.31939 3.70156 6.04655 3.78339 5.81836 3.85449C5.59031 3.92555 5.3891 3.98724 5.37109 3.99121C5.35353 3.99472 5.30286 4.0144 5.25879 4.03418C5.21397 4.05435 4.9921 4.14175 4.76465 4.22852C4.53631 4.31562 4.24127 4.43145 4.10938 4.48633C3.9777 4.54126 3.63234 4.70345 3.34277 4.8457C3.05377 4.98801 2.7811 5.12786 2.73633 5.15723C2.69258 5.18658 2.46255 5.33842 2.22559 5.49316C1.90339 5.7034 1.70863 5.85899 1.45605 6.11133C1.27021 6.297 1.07683 6.52496 1.02539 6.61719C0.974293 6.7094 0.920977 6.77382 0.908203 6.76074C0.895752 6.74782 0.876708 6.77971 0.866211 6.83203C0.855353 6.88468 0.824002 7.00015 0.795898 7.08789C0.766571 7.18021 0.743802 7.36208 0.743164 7.51855C0.742238 7.6961 0.762468 7.85007 0.799805 7.96484C0.831417 8.0615 0.873782 8.1807 0.894531 8.22949C0.914971 8.27826 0.946316 8.31836 0.963867 8.31836C0.981432 8.31868 1.05711 8.40445 1.13184 8.50879C1.20657 8.61309 1.36399 8.77902 1.48242 8.87695C1.6009 8.97459 1.81358 9.13146 1.9541 9.22559C2.09473 9.31943 2.41845 9.50204 2.67285 9.63184C2.92706 9.76121 3.22848 9.90808 3.34277 9.95801C3.45678 10.0078 3.56544 10.0522 3.58301 10.0557C3.6027 10.0603 3.78868 10.1251 3.99805 10.2002C4.20855 10.2757 4.40093 10.3532 4.42578 10.3721C4.45069 10.3906 4.50136 10.4066 4.53809 10.4082C4.57579 10.4098 4.84285 10.4774 5.13184 10.5576C5.42145 10.638 5.88101 10.7535 6.15332 10.8154C6.42573 10.8776 6.82479 10.9614 7.04004 11.002C7.25535 11.0424 7.43156 11.0865 7.43164 11.0996C7.43164 11.1126 7.44877 11.1146 7.4707 11.1035C7.49274 11.0923 7.62608 11.1014 7.7666 11.124C7.90699 11.1467 8.05084 11.1837 8.08594 11.2061C8.12138 11.2287 8.26499 11.2564 8.40527 11.2666L8.85156 11.2998C8.95691 11.3078 9.30209 11.3418 9.61816 11.376C9.93433 11.4098 10.2874 11.4475 10.4014 11.459C10.5986 11.479 10.6095 11.476 10.6338 11.4053C10.6482 11.3644 10.6665 11.1805 10.6748 10.9961C10.6834 10.812 10.7014 10.569 10.7139 10.457C10.7276 10.3323 10.7548 10.2405 10.7842 10.2207C10.8212 10.1955 10.9728 10.284 11.4551 10.6113C11.7972 10.8436 12.1309 11.0675 12.1973 11.1104C12.2631 11.1525 12.3094 11.2022 12.3008 11.2197C12.2931 11.2373 12.3322 11.2665 12.3887 11.2852C12.4458 11.3037 12.6703 11.4442 12.8877 11.5967C13.1052 11.7489 13.3359 11.9044 13.3994 11.9424C13.4629 11.9801 13.5507 12.0462 13.5947 12.0889C13.6385 12.1316 13.6998 12.176 13.7305 12.1875C13.7616 12.1993 13.8939 12.2807 14.0254 12.3682C14.1841 12.4738 14.2623 12.5456 14.2568 12.5811C14.252 12.6133 14.1079 12.709 13.8975 12.8203C13.7047 12.9221 13.5043 13.0122 13.4512 13.0195C13.3986 13.0269 13.3262 13.0576 13.291 13.0889C13.2559 13.1204 12.7533 13.3745 12.1738 13.6523L11.8262 13.8193C11.3668 14.0398 10.9456 14.2415 10.8076 14.3076C10.5343 14.4387 10.4901 14.4519 10.4531 14.4102C10.418 14.3703 10.4177 14.2858 10.4551 13.915C10.4796 13.6698 10.499 13.4227 10.498 13.3652C10.4971 13.3082 10.5108 13.2257 10.5283 13.1816C10.5577 13.1083 10.5544 13.1033 10.4883 13.124C10.4302 13.1424 10.4226 13.1383 10.4482 13.1006C10.4728 13.0642 10.4696 13.06 10.4326 13.082C10.4042 13.0989 10.2805 13.0929 10.124 13.0664C9.98031 13.0422 9.8673 13.0148 9.87305 13.0059C9.8784 12.9973 9.83829 12.9893 9.7832 12.9883C9.72797 12.987 9.52787 12.9586 9.33887 12.9248C9.1516 12.8909 8.99817 12.8559 8.99609 12.8467C8.99609 12.8381 8.94877 12.8277 8.8916 12.8242C8.83396 12.8203 8.61552 12.7795 8.40527 12.7334L8.38477 12.7285C8.17794 12.6831 7.93215 12.6294 7.83008 12.6074C7.72478 12.5845 7.5313 12.5367 7.39941 12.502C7.26784 12.4672 6.91481 12.3714 6.61621 12.2891C6.31835 12.2069 6.01732 12.1128 5.94629 12.0791C5.87603 12.0456 5.78904 12.0176 5.75391 12.0176C5.71791 12.0172 5.53145 11.9659 5.33887 11.9023C5.14576 11.8389 4.8943 11.7521 4.78027 11.709C4.66679 11.6658 4.56638 11.6174 4.55664 11.6006C4.5477 11.5843 4.49035 11.5663 4.42871 11.5605C4.36691 11.555 4.15174 11.4809 3.9502 11.3965C3.74836 11.3123 3.56835 11.2242 3.55078 11.2021C3.533 11.1804 3.4252 11.1313 3.31152 11.0928C3.19727 11.0542 2.93141 10.9289 2.7207 10.8145C2.50993 10.6999 2.27224 10.5617 2.19336 10.5078C2.11448 10.4539 2.03914 10.3945 2.02637 10.376C2.01328 10.3572 2.00195 10.3531 2.00195 10.3662C1.99778 10.3764 1.87369 10.3028 1.72266 10.2002C1.56907 10.0959 1.32471 9.90529 1.18066 9.77734C1.03642 9.64918 0.892774 9.50899 0.861328 9.46484C0.830031 9.42113 0.756009 9.34171 0.696289 9.28906C0.636908 9.23638 0.511775 9.07868 0.417969 8.93848C0.317774 8.78864 0.201221 8.55483 0.134766 8.37207C0.0402583 8.11114 0.0192728 8.00541 0.00585938 7.71777C-0.006915 7.44593 8.21819e-05 7.35953 0.0380859 7.30273C0.0642118 7.26305 0.096265 7.15074 0.109375 7.05273C0.122469 6.95414 0.15213 6.85702 0.174805 6.83691C0.19777 6.81679 0.215801 6.77139 0.214844 6.73633C0.214343 6.70107 0.279976 6.57193 0.361328 6.44922C0.443127 6.32635 0.656162 6.08267 0.834961 5.90723C1.0138 5.73175 1.27386 5.50645 1.41309 5.40723C1.55267 5.30799 1.79607 5.15177 1.9541 5.06055C2.11216 4.96965 2.39173 4.8247 2.57617 4.73828C2.76076 4.65181 2.93011 4.58171 2.95215 4.58203C2.97443 4.58212 3.03878 4.55481 3.0957 4.52051C3.15284 4.48607 3.36466 4.39858 3.56641 4.32617C3.76824 4.25342 4.12795 4.13126 4.36523 4.05469C4.6025 3.97812 4.92594 3.8803 5.08398 3.83691C5.24197 3.79324 5.38176 3.76718 5.39453 3.7793C5.40742 3.79112 5.43579 3.78431 5.45801 3.76465C5.48055 3.74485 5.63159 3.69843 5.79395 3.66113C5.95523 3.62409 6.10167 3.60132 6.12109 3.60938C6.13866 3.61831 6.15332 3.61464 6.15332 3.60156C6.15331 3.58845 6.25053 3.55773 6.36914 3.5332C6.48786 3.50867 6.62803 3.48627 6.68066 3.4834C6.73336 3.48084 6.81244 3.47518 6.85645 3.47168C6.90014 3.46812 6.95527 3.45445 6.97852 3.44141C7.01217 3.42265 6.99389 3.30512 6.8877 2.85938C6.81472 2.55305 6.76342 2.28442 6.77344 2.26172C6.78397 2.23971 6.91072 2.16391 7.05566 2.09277C7.20053 2.02136 7.43366 1.92823 7.57422 1.88574C7.71474 1.84331 7.94542 1.78691 8.08594 1.76074C8.26565 1.7273 8.48784 1.71633 8.83594 1.72461ZM23.2871 3.65723C23.3138 3.6573 23.6338 3.74271 23.998 3.84668C24.3624 3.95102 24.8763 4.11093 25.1396 4.20215C25.4031 4.29308 25.7699 4.43163 25.9541 4.50977C26.1384 4.58797 26.4475 4.73117 26.6406 4.82715C26.8339 4.92355 27.171 5.1212 27.3906 5.2666C27.61 5.41241 27.9251 5.65941 28.0898 5.81543C28.2546 5.9711 28.4537 6.18482 28.5322 6.29004C28.6111 6.39532 28.7075 6.54592 28.7471 6.625C28.7866 6.70408 28.814 6.78659 28.8076 6.80859C28.8014 6.83047 28.8106 6.84766 28.8281 6.84766C28.8458 6.84825 28.8912 6.95236 28.9297 7.0791C28.9846 7.25874 29.0006 7.38963 29 7.66211C28.9994 7.97245 28.987 8.04745 28.8955 8.31543C28.8387 8.4823 28.7283 8.72328 28.6504 8.85059C28.5725 8.97778 28.4941 9.08203 28.4766 9.08203C28.459 9.08212 28.4443 9.10345 28.4443 9.12988C28.4428 9.15774 28.311 9.31657 28.1494 9.48438C27.9869 9.65348 27.7312 9.88847 27.582 10.0068C27.4328 10.1252 27.1634 10.3172 26.9834 10.4336C26.8036 10.5499 26.6569 10.634 26.6572 10.6211C26.6575 10.608 26.6249 10.6277 26.585 10.665C26.5443 10.7028 26.3615 10.8124 26.1777 10.9092C25.9935 11.0061 25.6698 11.1597 25.459 11.25C25.2487 11.3404 25.0476 11.4294 25.0117 11.4492C24.9766 11.4684 24.7822 11.5465 24.5801 11.6221C24.3794 11.6971 24.2045 11.7522 24.1895 11.7451C24.1765 11.7369 24.1618 11.7424 24.1572 11.7578C24.1528 11.7734 23.9986 11.8389 23.8145 11.9023C23.6302 11.9658 23.4422 12.0179 23.3984 12.0176C23.3542 12.0174 23.2682 12.0434 23.207 12.0762C23.1457 12.109 22.9157 12.1905 22.6963 12.2559C22.4766 12.3213 22.2605 12.3747 22.2168 12.375C22.1731 12.3754 22.1299 12.3858 22.1211 12.3984C22.1125 12.4115 21.8681 12.4823 21.5781 12.5547C21.2882 12.6271 20.8219 12.7356 20.541 12.7959C20.26 12.8565 19.8643 12.9353 19.6621 12.9707L18.7363 13.1309C18.5342 13.1659 18.2899 13.205 18.1934 13.2178C18.0969 13.2305 17.9532 13.2395 17.874 13.2383C17.7948 13.237 17.7225 13.2497 17.7139 13.2656C17.7042 13.2815 17.6021 13.2976 17.4863 13.3018C17.3694 13.3059 17.2801 13.3199 17.2871 13.333C17.2935 13.3461 17.2376 13.3588 17.1631 13.3604C17.0884 13.3616 16.9843 13.3667 16.9316 13.3721C16.8788 13.3772 16.7351 13.3969 16.6123 13.416C16.4892 13.4348 16.1225 13.4729 15.7979 13.5C15.4739 13.5273 15.1731 13.556 15.1279 13.5635C15.084 13.5708 15.0263 13.5637 15 13.5479C14.9649 13.5268 14.9463 13.435 14.9326 13.207C14.9221 13.0351 14.9264 12.8765 14.9414 12.8545C14.9566 12.8316 14.9537 12.808 14.9355 12.7988C14.9165 12.7885 14.9073 12.6366 14.9121 12.418C14.9166 12.2178 14.9083 12.042 14.8945 12.0273C14.8809 12.012 14.8708 11.9394 14.8711 11.8652C14.8718 11.7906 14.8908 11.7115 14.9141 11.6895C14.9465 11.6602 15.3282 11.639 16.3428 11.6084C17.1057 11.5854 17.7881 11.5607 17.8584 11.5537C17.9292 11.5463 18.1948 11.525 18.4492 11.5059C18.7042 11.487 19.185 11.4426 19.5186 11.4082C19.8522 11.3737 20.2186 11.3323 20.333 11.3154C20.4473 11.2985 20.627 11.2838 20.7324 11.2832C20.8378 11.2829 21.0176 11.2665 21.1318 11.2471C21.2458 11.2276 21.3533 11.1999 21.3711 11.1855C21.3887 11.1709 21.572 11.1295 21.7783 11.0938C21.9846 11.0577 22.168 11.0353 22.1855 11.0439C22.2031 11.0523 22.2349 11.0463 22.2568 11.0303C22.2789 11.014 22.4269 10.9716 22.585 10.9365C22.7429 10.9011 22.9081 10.8654 22.9521 10.8574C22.9966 10.8489 23.1835 10.8043 23.3672 10.7578C23.5516 10.7112 23.9183 10.6101 24.1816 10.5332C24.4451 10.456 24.8549 10.3214 25.0918 10.2344C25.3286 10.1476 25.6265 10.0318 25.7539 9.97754C25.8813 9.9233 25.986 9.89024 25.9863 9.90332C25.9864 9.91621 25.9967 9.91133 26.0098 9.89258C26.0226 9.87402 26.1599 9.79224 26.3135 9.70996C26.4662 9.62843 26.6053 9.5683 26.624 9.57617C26.6415 9.58472 26.656 9.57782 26.6562 9.56055C26.6562 9.55194 26.6615 9.54384 26.6699 9.53809L26.7383 9.51855C26.7468 9.51279 26.752 9.50478 26.752 9.49609C26.7527 9.47822 26.8353 9.41576 26.9355 9.35645C27.0364 9.29648 27.2198 9.16963 27.3428 9.0752C27.4657 8.98075 27.5811 8.89731 27.5986 8.88965C27.6162 8.88167 27.7089 8.78117 27.8057 8.66699C27.902 8.55293 28.028 8.38062 28.0859 8.28418C28.1434 8.18782 28.2154 8.02897 28.2451 7.93262C28.2748 7.83637 28.3112 7.74982 28.3252 7.74121C28.3388 7.73058 28.3284 7.57339 28.3018 7.39062C28.2663 7.14845 28.2228 6.99348 28.1455 6.83203C28.0868 6.70935 27.9687 6.5173 27.8828 6.40527C27.7972 6.29329 27.7018 6.16415 27.6709 6.11816C27.6406 6.07233 27.6043 6.03669 27.5908 6.03906C27.5774 6.04193 27.502 5.98407 27.4229 5.91016C27.3437 5.83614 27.1569 5.68461 27.0078 5.57422C26.8588 5.46393 26.6073 5.29397 26.4492 5.19629C26.2911 5.09834 25.9598 4.91609 25.7139 4.79102C25.4681 4.666 25.1523 4.5121 25.0117 4.44922C24.8713 4.38639 24.6202 4.28191 24.4531 4.21777C24.2864 4.15376 24.1285 4.0907 24.1016 4.07715C24.0751 4.06343 23.8857 3.996 23.6807 3.92676C23.4772 3.85803 23.3164 3.79109 23.3213 3.77734C23.3286 3.76426 23.3063 3.76426 23.2715 3.77734C23.2197 3.79666 23.2112 3.78953 23.2217 3.7373C23.2287 3.70221 23.2351 3.66951 23.2363 3.66504C23.2385 3.66067 23.261 3.65723 23.2871 3.65723ZM16.4258 2.19727C16.4322 2.46492 16.4365 2.77388 16.4365 3.08301H16.2695C16.1773 3.08301 15.9725 3.09836 15.8145 3.11621C15.6569 3.13434 15.4917 3.15066 15.4473 3.15234C15.4032 3.15394 15.3242 3.17467 15.2715 3.19824C15.2188 3.22185 15.0671 3.28461 14.9355 3.33789C14.8036 3.39122 14.6022 3.50374 14.4883 3.58887C14.3743 3.67407 14.2179 3.82161 14.1406 3.91602C14.0637 4.01086 13.9462 4.20347 13.8789 4.34375C13.8112 4.48413 13.7355 4.67807 13.7109 4.77441C13.6865 4.87038 13.6705 4.95671 13.6768 4.96582C13.6828 4.97443 13.7725 4.90202 13.875 4.80566C13.9774 4.70952 14.1386 4.59187 14.2344 4.54395C14.3302 4.4964 14.4952 4.435 14.6006 4.4082C14.7059 4.38112 14.9211 4.3591 15.0791 4.35938C15.2371 4.35969 15.4601 4.38306 15.5742 4.41016C15.6885 4.43728 15.8829 4.51238 16.0059 4.57715C16.1326 4.64354 16.3127 4.77707 16.4219 4.88574C16.5279 4.99103 16.6753 5.17794 16.749 5.30078C16.8227 5.42355 16.9188 5.62422 16.9619 5.74707C17.0053 5.86983 17.0643 6.10659 17.0938 6.27344C17.133 6.49706 17.1426 6.68119 17.1299 6.97559C17.1197 7.21393 17.0872 7.47132 17.0498 7.61426C17.0153 7.74604 16.9493 7.94676 16.9033 8.06055C16.857 8.17477 16.773 8.34704 16.7158 8.44336C16.6588 8.53982 16.4832 8.74945 16.3252 8.90918C16.0777 9.15929 15.9956 9.22 15.7344 9.3457C15.5674 9.42579 15.3266 9.51391 15.1992 9.54199C15.0718 9.56974 14.8457 9.5918 14.6963 9.5918C14.5469 9.59179 14.3208 9.57008 14.1934 9.54297C14.0661 9.51587 13.876 9.4581 13.7705 9.41504C13.6651 9.37165 13.5014 9.28953 13.4072 9.23242C13.313 9.17561 13.14 9.03608 13.0234 8.92188C12.9069 8.80763 12.7448 8.60602 12.6621 8.47461C12.5791 8.3432 12.4604 8.11047 12.3984 7.95703C12.3362 7.80356 12.2568 7.55892 12.2227 7.41406C12.1882 7.26909 12.1441 6.99265 12.124 6.7998C12.1042 6.60694 12.0739 6.43453 12.0576 6.41699C12.0415 6.39883 12.0283 6.33451 12.0283 6.27344C12.0284 6.21228 12.0413 6.1474 12.0566 6.12988C12.0723 6.1117 12.1023 5.92584 12.123 5.71582C12.1435 5.50524 12.1878 5.19617 12.2217 5.0293C12.2552 4.86241 12.3259 4.58965 12.3799 4.42285C12.4335 4.25609 12.5553 3.96249 12.6504 3.76953C12.7456 3.57651 12.8602 3.37828 12.9053 3.33008C12.9506 3.2819 12.9803 3.24316 12.9717 3.24316C12.9634 3.24272 13.0243 3.15379 13.1074 3.0459C13.1908 2.9374 13.3742 2.75047 13.5146 2.63086C13.6551 2.51098 13.7955 2.41309 13.8262 2.41309C13.8571 2.41302 13.8968 2.38458 13.9141 2.34961C13.9319 2.31419 14.0911 2.21633 14.2734 2.12891C14.4536 2.04277 14.7013 1.94232 14.8242 1.90723C14.9472 1.87214 15.1339 1.82639 15.2393 1.80566C15.3446 1.78462 15.5531 1.75722 15.7021 1.74414C15.8512 1.73106 16.0729 1.71796 16.4141 1.71094L16.4258 2.19727ZM20.3486 1.72363C20.6634 1.73193 20.775 1.74819 20.9717 1.81738C21.1033 1.86365 21.3046 1.96544 21.4189 2.04297C21.5331 2.12037 21.6869 2.24934 21.7617 2.33008C21.8364 2.41047 21.9605 2.57402 22.0371 2.69238C22.1137 2.81068 22.2201 3.008 22.2734 3.13086C22.3268 3.2537 22.4085 3.47697 22.4551 3.62598C22.502 3.77535 22.5681 4.06215 22.6025 4.26367C22.637 4.46552 22.6807 4.83817 22.6992 5.09277C22.7174 5.34739 22.7237 5.7212 22.7129 5.92285C22.702 6.12477 22.6784 6.42589 22.6602 6.59277C22.642 6.75964 22.5986 7.03235 22.5645 7.19922C22.53 7.36601 22.4586 7.63115 22.4053 7.78906C22.3519 7.94699 22.2453 8.19865 22.168 8.34766C22.0911 8.49652 21.9486 8.71553 21.8516 8.83398C21.7542 8.95225 21.5992 9.1058 21.5068 9.1748C21.4146 9.244 21.2462 9.34481 21.1318 9.39844C21.0175 9.45204 20.8231 9.51681 20.7002 9.54297C20.5772 9.56913 20.3542 9.59082 20.2051 9.59082C20.056 9.5908 19.8442 9.56976 19.7344 9.54395C19.6245 9.51778 19.4515 9.45905 19.3506 9.41406C19.2497 9.36871 19.1025 9.28489 19.0234 9.22754C18.9444 9.17056 18.855 9.11413 18.8242 9.10254C18.7936 9.09105 18.7686 9.05268 18.7686 9.01758C18.7685 8.98253 18.7442 8.94275 18.7148 8.92969C18.6857 8.91645 18.6013 8.81991 18.5273 8.71484C18.4533 8.60955 18.3352 8.40797 18.2656 8.26758C18.1957 8.12725 18.1007 7.89814 18.0547 7.75781C18.0087 7.61745 17.9494 7.40916 17.9229 7.29492C17.8963 7.18102 17.875 7.01548 17.875 6.92773C17.875 6.84004 17.8607 6.75387 17.8438 6.73633C17.8265 6.71777 17.7958 6.49602 17.7754 6.24219C17.7537 5.97433 17.747 5.59176 17.7588 5.33301C17.77 5.08733 17.8013 4.73488 17.8281 4.55078C17.8553 4.36668 17.8996 4.12971 17.9258 4.02441C17.9516 3.9192 18.0107 3.71846 18.0566 3.57812C18.1028 3.4382 18.1595 3.28775 18.1826 3.24316C18.2056 3.19945 18.2249 3.14841 18.2246 3.13086C18.2247 3.11267 18.3042 2.96903 18.4023 2.81152C18.5116 2.63581 18.6762 2.4315 18.8271 2.28516C18.996 2.12131 19.1491 2.00839 19.3125 1.92676C19.4436 1.86116 19.6435 1.78665 19.7578 1.76074C19.8976 1.72885 20.0904 1.71663 20.3486 1.72363ZM14.6484 5.61621C14.552 5.60951 14.415 5.62285 14.3447 5.64551C14.2744 5.66826 14.1523 5.73168 14.0732 5.78711C13.994 5.84263 13.8993 5.92872 13.8623 5.97754C13.8255 6.02681 13.7625 6.13101 13.7227 6.20996C13.6789 6.29612 13.641 6.44318 13.6289 6.57715C13.6149 6.72831 13.6257 6.89817 13.6621 7.10352C13.6915 7.27037 13.7472 7.4857 13.7861 7.58203C13.8247 7.67819 13.8962 7.81446 13.9453 7.88477C13.9945 7.95496 14.0758 8.05073 14.126 8.09668C14.1761 8.14262 14.2892 8.2034 14.377 8.23242C14.4648 8.26113 14.6051 8.2845 14.6885 8.28418C14.7718 8.28415 14.8942 8.26148 14.96 8.23438C15.0257 8.20722 15.1348 8.13236 15.2021 8.06738C15.2695 8.00261 15.3589 7.88015 15.4014 7.79688C15.4435 7.71361 15.5015 7.54892 15.5293 7.43066C15.5657 7.27624 15.5766 7.11088 15.5674 6.84766C15.5578 6.5721 15.5363 6.43378 15.4834 6.29004C15.4442 6.185 15.3741 6.04912 15.3262 5.98828C15.2786 5.92767 15.2323 5.85793 15.2236 5.83398C15.215 5.80974 15.121 5.75365 15.0156 5.70898C14.9102 5.66435 14.7448 5.6226 14.6484 5.61621ZM20.2217 3.05176C20.1486 3.05208 20.0403 3.08289 19.9688 3.12402C19.9004 3.16359 19.7881 3.27474 19.7197 3.37109C19.6447 3.47673 19.5598 3.65952 19.5049 3.83301C19.4551 3.99094 19.3971 4.24931 19.376 4.40723C19.3549 4.56516 19.3282 4.75207 19.3164 4.82227C19.3049 4.89305 19.3039 5.35193 19.3145 5.84277C19.3282 6.46426 19.3493 6.8213 19.3857 7.01562C19.4148 7.16895 19.4711 7.39131 19.5107 7.50977C19.55 7.62814 19.6257 7.79668 19.6787 7.88379C19.7314 7.97076 19.8312 8.08264 19.9014 8.13184C19.9716 8.18097 20.0803 8.22971 20.1416 8.24023C20.2029 8.25105 20.3073 8.25139 20.373 8.24023C20.4477 8.2281 20.542 8.17513 20.624 8.10059C20.6964 8.03501 20.7884 7.92374 20.8291 7.85352C20.8693 7.7834 20.9323 7.63241 20.9678 7.51855C21.0035 7.40433 21.0555 7.18807 21.083 7.03906C21.1105 6.88943 21.1478 6.52358 21.166 6.22559C21.189 5.85119 21.1887 5.5061 21.166 5.10938C21.1478 4.79373 21.1105 4.4062 21.083 4.24805C21.0552 4.09018 20.9972 3.86019 20.9541 3.7373C20.9107 3.61459 20.8213 3.43362 20.7559 3.33496C20.661 3.19234 20.6065 3.14402 20.4922 3.10254C20.4131 3.07398 20.2919 3.05154 20.2217 3.05176ZM23.1113 0.00390625C23.2374 0.0134733 23.3814 0.0501303 23.4785 0.0966797C23.5663 0.139082 23.7067 0.246323 23.79 0.335938C23.8734 0.425276 23.9414 0.520712 23.9414 0.546875C23.9416 0.573509 23.9675 0.6333 23.998 0.680664C24.0389 0.743468 24.0537 0.832646 24.0537 1.00879C24.0537 1.18523 24.0389 1.27503 23.998 1.33789C23.9675 1.38531 23.9415 1.44543 23.9414 1.47168C23.9414 1.49815 23.8667 1.59932 23.7744 1.69629C23.6735 1.80254 23.5424 1.90025 23.4463 1.94141C23.3315 1.99069 23.2196 2.01074 23.0479 2.01172C22.8588 2.01268 22.7715 1.99613 22.6357 1.93359C22.5377 1.88858 22.4034 1.78956 22.3242 1.70312C22.2477 1.61994 22.1536 1.48363 22.1143 1.40039C22.0606 1.28585 22.043 1.1897 22.043 1.00879C22.043 0.837064 22.0608 0.728948 22.1074 0.625977C22.1432 0.547237 22.2363 0.413258 22.3145 0.328125C22.3927 0.242616 22.5 0.150167 22.5527 0.123047C22.6054 0.0956073 22.7061 0.0545318 22.7764 0.03125C22.8556 0.00481446 22.9827 -0.00564463 23.1113 0.00390625ZM22.9355 0.5625C22.9177 0.563056 22.8601 0.591345 22.8076 0.625977C22.755 0.660484 22.6869 0.735652 22.6562 0.792969C22.6253 0.8504 22.6006 0.955196 22.6006 1.02539C22.601 1.09982 22.6275 1.19222 22.665 1.24805C22.7004 1.30058 22.7685 1.36869 22.8164 1.39941C22.8642 1.43 22.961 1.45566 23.0312 1.45605C23.1015 1.45605 23.2075 1.4313 23.2666 1.40039C23.3257 1.36976 23.4014 1.294 23.4346 1.23242C23.4677 1.17082 23.4951 1.07029 23.4951 1.00879C23.495 0.94724 23.4677 0.847588 23.4346 0.786133C23.4002 0.722468 23.3231 0.64916 23.2549 0.615234C23.154 0.565478 23.1278 0.562301 23.0898 0.598633C23.0534 0.63373 23.0368 0.634107 23.0059 0.601562C22.9845 0.579705 22.953 0.562183 22.9355 0.5625Z" fill="black"/>
</svg>
