<svg width="95" height="13" viewBox="0 0 95 13" fill="none" xmlns="http://www.w3.org/2000/svg">
<path d="M6.032 12V9.584H0.832V8.592L6.256 0.719999H7.36V8.464H9.04V9.584H7.36V12H6.032ZM6.032 8.464V2.304H6.416L1.952 8.816V8.464H6.032ZM11.0178 12V0.719999H12.1218L16.6978 9.312H16.2178L20.7618 0.719999H21.8658V12H20.6498V2.48H21.0338L16.8898 10.256H16.0258L11.8338 2.464H12.2178V12H11.0178ZM24.6733 12V0.719999H29.1373C29.9479 0.719999 30.6306 0.853333 31.1853 1.12C31.7506 1.376 32.1773 1.76 32.4653 2.272C32.7533 2.77333 32.8973 3.38667 32.8973 4.112C32.8973 4.816 32.7533 5.424 32.4653 5.936C32.1773 6.448 31.7506 6.83733 31.1853 7.104C30.6306 7.37067 29.9479 7.504 29.1373 7.504H25.9853V12H24.6733ZM25.9853 6.4H28.9773C29.8413 6.4 30.4919 6.208 30.9293 5.824C31.3773 5.42933 31.6013 4.85867 31.6013 4.112C31.6013 3.35467 31.3773 2.784 30.9293 2.4C30.4919 2.00533 29.8413 1.808 28.9773 1.808H25.9853V6.4ZM34.0895 8.272V7.2H38.5695V8.272H34.0895ZM46.2628 12.144C45.0574 12.144 44.0388 11.9147 43.2068 11.456C42.3854 10.9973 41.7614 10.336 41.3348 9.472C40.9081 8.608 40.6948 7.57333 40.6948 6.368C40.6948 5.17333 40.9081 4.144 41.3348 3.28C41.7614 2.416 42.3748 1.74933 43.1748 1.28C43.9748 0.810666 44.9401 0.575999 46.0708 0.575999C46.6041 0.575999 47.1054 0.629333 47.5748 0.735999C48.0548 0.842666 48.4974 1.00267 48.9028 1.216C49.3188 1.41867 49.6814 1.67467 49.9908 1.984L49.4788 3.04C48.9668 2.592 48.4388 2.26667 47.8948 2.064C47.3508 1.86133 46.7374 1.76 46.0548 1.76C44.7641 1.76 43.7774 2.16 43.0948 2.96C42.4228 3.76 42.0868 4.896 42.0868 6.368C42.0868 7.86133 42.4334 9.00267 43.1268 9.792C43.8308 10.5813 44.8868 10.976 46.2948 10.976C46.8068 10.976 47.3081 10.928 47.7987 10.832C48.2894 10.7253 48.7534 10.5813 49.1908 10.4L48.9028 11.152V7.168H46.0388V6.128H50.0388V11.344C49.7508 11.4933 49.3934 11.632 48.9668 11.76C48.5401 11.8773 48.0921 11.968 47.6228 12.032C47.1534 12.1067 46.7001 12.144 46.2628 12.144ZM52.7201 12V0.719999H59.6961V1.824H54.0321V5.76H59.3761V6.864H54.0321V12H52.7201ZM61.152 8.272V7.2H65.632V8.272H61.152ZM68.2213 12V11.008L72.0773 6.848C72.4399 6.45333 72.7333 6.08533 72.9573 5.744C73.1813 5.392 73.3466 5.05067 73.4533 4.72C73.5599 4.38933 73.6133 4.05333 73.6133 3.712C73.6133 3.072 73.4159 2.58667 73.0213 2.256C72.6373 1.91467 72.0719 1.744 71.3253 1.744C70.7493 1.744 70.2106 1.85067 69.7093 2.064C69.2186 2.26667 68.7493 2.58667 68.3013 3.024L67.8053 2C68.2213 1.57333 68.7493 1.232 69.3893 0.976C70.0399 0.709333 70.7226 0.575999 71.4373 0.575999C72.1946 0.575999 72.8346 0.693333 73.3573 0.927999C73.8799 1.16267 74.2746 1.50933 74.5413 1.968C74.8079 2.416 74.9413 2.96533 74.9413 3.616C74.9413 3.95733 74.8986 4.29333 74.8133 4.624C74.7386 4.944 74.6159 5.26933 74.4453 5.6C74.2853 5.92 74.0773 6.25067 73.8213 6.592C73.5759 6.93333 73.2773 7.28533 72.9253 7.648L69.5333 11.248V10.88H75.4053V12H68.2213ZM81.415 12.144C80.935 12.144 80.4657 12.0907 80.007 11.984C79.5483 11.8773 79.1163 11.7227 78.711 11.52C78.3163 11.3173 77.9643 11.0773 77.655 10.8L78.151 9.76C78.663 10.176 79.1803 10.4853 79.703 10.688C80.2363 10.88 80.8017 10.976 81.399 10.976C82.1883 10.976 82.8017 10.7573 83.239 10.32C83.687 9.88267 83.911 9.30667 83.911 8.592C83.911 7.856 83.6977 7.25333 83.271 6.784C82.8443 6.31467 82.2577 6.08 81.511 6.08C80.967 6.08 80.487 6.192 80.071 6.416C79.6657 6.62933 79.2977 6.96533 78.967 7.424H78.007V0.719999H84.551V1.84H79.303V6.336H78.951C79.2283 5.888 79.6123 5.54667 80.103 5.312C80.5937 5.06667 81.143 4.944 81.751 4.944C82.4657 4.944 83.079 5.09333 83.591 5.392C84.1137 5.69067 84.5137 6.112 84.791 6.656C85.079 7.18933 85.223 7.81333 85.223 8.528C85.223 9.232 85.0683 9.856 84.759 10.4C84.4497 10.944 84.0123 11.3707 83.447 11.68C82.8817 11.9893 82.2043 12.144 81.415 12.144ZM90.7688 12.144C89.9154 12.144 89.1901 11.9253 88.5928 11.488C88.0061 11.04 87.5634 10.384 87.2648 9.52C86.9661 8.656 86.8168 7.6 86.8168 6.352C86.8168 5.09333 86.9661 4.03733 87.2648 3.184C87.5634 2.32 88.0061 1.66933 88.5928 1.232C89.1901 0.794666 89.9154 0.575999 90.7688 0.575999C91.6328 0.575999 92.3581 0.794666 92.9448 1.232C93.5314 1.66933 93.9741 2.31467 94.2728 3.168C94.5714 4.02133 94.7208 5.07733 94.7208 6.336C94.7208 7.59467 94.5714 8.656 94.2728 9.52C93.9741 10.384 93.5314 11.04 92.9448 11.488C92.3581 11.9253 91.6328 12.144 90.7688 12.144ZM90.7688 11.008C91.6648 11.008 92.3261 10.6293 92.7528 9.872C93.1901 9.11467 93.4088 7.936 93.4088 6.336C93.4088 4.736 93.1954 3.568 92.7688 2.832C92.3421 2.08533 91.6754 1.712 90.7688 1.712C89.8834 1.712 89.2221 2.08533 88.7848 2.832C88.3474 3.57867 88.1288 4.74667 88.1288 6.336C88.1288 7.936 88.3421 9.11467 88.7688 9.872C89.2061 10.6293 89.8728 11.008 90.7688 11.008Z" fill="black"/>
</svg>
