<svg width="90" height="82" viewBox="0 0 90 82" fill="none" xmlns="http://www.w3.org/2000/svg">
<g filter="url(#filter0_d_271_461)">
<rect x="4" y="24" width="82" height="50" rx="2" fill="white"/>
<rect x="4.25" y="24.25" width="81.5" height="49.5" rx="1.75" stroke="white" stroke-width="0.5"/>
</g>
<rect x="29.2715" y="0.078125" width="30.0846" height="30.2388" rx="3" fill="#CB3335"/>
<g clip-path="url(#clip0_271_461)">
<path fill-rule="evenodd" clip-rule="evenodd" d="M35.6592 10.7537C35.7152 10.7746 35.7807 10.8212 35.805 10.8576C35.8412 10.9115 35.8491 11.3821 35.8488 15.9013L35.7682 15.984C35.7119 16.0415 35.6517 16.0667 35.5707 16.0667C35.4901 16.0667 35.4286 16.0412 35.2894 15.9013V13.4208C35.2894 11.8332 35.3012 10.9164 35.3223 10.8741C35.3404 10.8377 35.4009 10.7875 35.4565 10.762C35.5358 10.7263 35.5799 10.7246 35.6592 10.7537ZM51.9472 10.7537C52.0032 10.7746 52.0686 10.8212 52.093 10.8576C52.1292 10.9115 52.1371 11.3821 52.1367 15.9013L52.0561 15.984C51.9999 16.0415 51.9396 16.0667 51.8587 16.0667C51.7781 16.0667 51.7166 16.0412 51.5774 15.9013V13.4208C51.5774 11.8332 51.5892 10.9164 51.6103 10.8741C51.6284 10.8377 51.6889 10.7875 51.7445 10.762C51.8238 10.7263 51.8679 10.7246 51.9472 10.7537ZM51.9778 16.9431L52.1367 17.125V18.8945C52.1367 20.0081 52.1246 20.6884 52.1038 20.7301C52.0857 20.7664 52.0193 20.8187 51.9558 20.8458C51.8544 20.8895 50.8643 20.8954 43.7131 20.8954C36.5618 20.8954 35.5717 20.8895 35.4704 20.8458C35.4069 20.8187 35.3404 20.7664 35.3223 20.7301C35.3016 20.6884 35.2894 20.01 35.2891 18.9027C35.2891 17.3374 35.2947 17.133 35.3417 17.0648C35.371 17.0225 35.4266 16.9752 35.4654 16.9593C35.5049 16.9431 39.1699 16.9332 51.9778 16.9431ZM35.8652 20.3166H51.5609L51.5662 17.4888H50.7218C50.7202 18.0402 50.7047 18.1877 50.6797 18.2224C50.6577 18.2532 50.5951 18.2952 50.5409 18.316C50.4612 18.3468 50.4214 18.3438 50.3352 18.3018C50.2651 18.2674 50.2167 18.2125 50.1947 18.142C50.1763 18.0828 50.1615 17.9118 50.1618 17.7617L50.1624 17.4888H49.0437C49.0437 18.7003 49.042 18.7142 48.9644 18.8035C48.9048 18.8716 48.8548 18.8945 48.764 18.8945C48.6732 18.8945 48.6232 18.8716 48.5636 18.8035C48.4859 18.7142 48.4843 18.7003 48.4843 18.1007V17.4888H47.3655C47.3501 18.1434 47.3408 18.19 47.2757 18.2552C47.228 18.3031 47.1609 18.3296 47.0839 18.3306C46.994 18.3319 46.9453 18.3097 46.8854 18.2413C46.813 18.1582 46.8061 18.1219 46.8061 17.8196V17.4888H45.6874C45.6874 18.4774 45.6755 18.6415 45.638 18.7291C45.6084 18.7989 45.5528 18.8587 45.4982 18.8799C45.4485 18.8991 45.3744 18.9064 45.3336 18.8964C45.2928 18.8862 45.2297 18.8445 45.1931 18.8035C45.1313 18.7344 45.1267 18.6851 45.1273 18.109L45.128 17.4888H44.0092C44.0089 17.886 43.9941 18.0574 43.976 18.1255C43.9516 18.2184 43.9144 18.2641 43.8282 18.3074C43.7187 18.3626 43.7075 18.3626 43.5979 18.3074C43.5117 18.2641 43.4745 18.2184 43.4502 18.1255C43.4321 18.0574 43.4173 17.886 43.4173 17.7452L43.4169 17.4888H42.2982C42.2965 18.5442 42.284 18.7446 42.256 18.7817C42.234 18.8105 42.1827 18.8515 42.1419 18.8726C42.1011 18.8938 42.0234 18.9037 41.9691 18.8945C41.9033 18.8834 41.8485 18.8421 41.8046 18.7704C41.7457 18.6735 41.7391 18.6044 41.7388 18.0759V17.4888H40.62C40.62 18.1219 40.6131 18.1582 40.5407 18.2413C40.4818 18.3084 40.4305 18.3322 40.3439 18.3322C40.2661 18.3322 40.2021 18.3071 40.1521 18.2568C40.085 18.1897 40.0761 18.1457 40.0688 17.8351L40.0606 17.4888H38.9418C38.9257 18.7155 38.9221 18.7473 38.852 18.8174C38.8043 18.8654 38.7372 18.8918 38.6602 18.8928C38.5703 18.8941 38.5216 18.872 38.4618 18.8035C38.3841 18.7142 38.3825 18.7003 38.3825 18.1007V17.4888H37.2637C37.2647 17.9118 37.2499 18.0828 37.2314 18.142C37.2094 18.2125 37.161 18.2674 37.0909 18.3018C37.0047 18.3438 36.9649 18.3468 36.8853 18.316C36.831 18.2952 36.7685 18.2532 36.7464 18.2224C36.7214 18.1877 36.706 18.0402 36.7053 17.8278L36.7043 17.4888H35.8481L35.8652 20.3166ZM37.9751 11.5687C38.0182 11.5687 38.0942 11.6047 38.2344 11.7281L38.2508 13.2554H49.1753L49.1918 11.7281L49.2822 11.6484C49.3319 11.6047 49.406 11.568 49.4468 11.5673C49.4876 11.5663 49.5534 11.5925 49.5929 11.6252C49.6327 11.6576 49.9624 12.0714 50.3257 12.5443C50.6893 13.0173 50.9953 13.4416 51.0061 13.4869C51.0176 13.5345 51.0045 13.6116 50.9752 13.6688C50.9472 13.7234 50.6774 14.0882 50.376 14.4791C50.0743 14.8704 49.7696 15.261 49.6988 15.3473C49.5975 15.471 49.5491 15.5044 49.4714 15.5044C49.4171 15.5044 49.3431 15.4895 49.3069 15.4713C49.2707 15.4532 49.226 15.39 49.2075 15.3308C49.1891 15.2716 49.1743 14.9071 49.1753 13.8177H38.2508L38.2515 14.5205C38.2515 14.9071 38.2367 15.2716 38.2186 15.3308C38.2002 15.39 38.1554 15.4532 38.1192 15.4713C38.083 15.4895 38.009 15.5044 37.9547 15.5044C37.877 15.5044 37.8287 15.471 37.7273 15.3473C37.6562 15.261 37.3515 14.8704 37.0501 14.4791C36.7484 14.0882 36.4789 13.7234 36.4509 13.6688C36.4217 13.6116 36.4085 13.5345 36.42 13.4869C36.4309 13.4416 36.7369 13.0173 37.1002 12.5443C37.4634 12.0714 37.7915 11.6583 37.829 11.6265C37.8662 11.5948 37.932 11.5687 37.9751 11.5687ZM37.0659 13.6027C37.0896 13.6391 37.2361 13.8345 37.3917 14.0373C37.5477 14.24 37.6862 14.4001 37.6997 14.3928C37.7132 14.3859 37.7244 14.0006 37.7244 13.5365C37.7244 13.0702 37.7112 12.6932 37.6951 12.6932C37.6793 12.6932 37.5217 12.883 37.3446 13.1148C37.0544 13.4962 37.0274 13.5428 37.0659 13.6027ZM49.7265 14.3928C49.7399 14.4001 49.8785 14.24 50.0341 14.0373C50.1898 13.8345 50.3365 13.6391 50.3599 13.6027C50.3984 13.5428 50.3714 13.4962 50.0769 13.1135C49.8976 12.8807 49.7399 12.6908 49.7265 12.6918C49.713 12.6925 49.7018 13.0728 49.7018 13.5365C49.7018 14.0006 49.713 14.3859 49.7265 14.3928Z" fill="white"/>
</g>
<path d="M24.3828 46V40.36H26.3588C26.9614 40.36 27.4734 40.4693 27.8948 40.688C28.3161 40.9067 28.6361 41.2267 28.8548 41.648C29.0788 42.064 29.1908 42.5733 29.1908 43.176C29.1908 43.7787 29.0788 44.2907 28.8548 44.712C28.6361 45.1333 28.3161 45.4533 27.8948 45.672C27.4734 45.8907 26.9614 46 26.3588 46H24.3828ZM25.0948 45.376H26.3188C27.0174 45.376 27.5454 45.1947 27.9028 44.832C28.2654 44.4693 28.4468 43.9173 28.4468 43.176C28.4468 42.4347 28.2654 41.8853 27.9028 41.528C27.5454 41.1653 27.0174 40.984 26.3188 40.984H25.0948V45.376ZM30.425 41.096V40.304H31.289V41.096H30.425ZM30.505 46V42.048H31.217V46H30.505ZM32.6538 46V42.048H33.3098V42.912C33.3791 42.736 33.4751 42.5787 33.5978 42.44C33.7258 42.296 33.8778 42.184 34.0538 42.104C34.2351 42.0187 34.4324 41.976 34.6458 41.976C34.9924 41.976 35.2778 42.0613 35.5018 42.232C35.7258 42.4027 35.8644 42.6267 35.9178 42.904H35.9098C36.0164 42.6427 36.1844 42.424 36.4138 42.248C36.6484 42.0667 36.9418 41.976 37.2938 41.976C37.5924 41.976 37.8458 42.0347 38.0538 42.152C38.2618 42.264 38.4191 42.4373 38.5258 42.672C38.6324 42.9067 38.6858 43.2027 38.6858 43.56V46H37.9818V43.608C37.9818 43.2667 37.9204 43.0107 37.7978 42.84C37.6751 42.6693 37.4564 42.584 37.1418 42.584C36.9071 42.584 36.7044 42.6373 36.5338 42.744C36.3684 42.8453 36.2404 42.9893 36.1498 43.176C36.0644 43.3573 36.0218 43.5627 36.0218 43.792V46H35.3178V43.608C35.3178 43.272 35.2484 43.0187 35.1098 42.848C34.9711 42.672 34.7604 42.584 34.4778 42.584C34.2484 42.584 34.0484 42.6427 33.8778 42.76C33.7124 42.872 33.5844 43.0187 33.4938 43.2C33.4031 43.3813 33.3578 43.5733 33.3578 43.776V46H32.6538ZM42.0183 46.072C41.5757 46.072 41.1917 45.992 40.8663 45.832C40.5463 45.6667 40.301 45.432 40.1303 45.128C39.9597 44.8187 39.8743 44.4507 39.8743 44.024C39.8743 43.624 39.9543 43.272 40.1143 42.968C40.2743 42.6587 40.501 42.416 40.7943 42.24C41.0877 42.064 41.437 41.976 41.8423 41.976C42.2263 41.976 42.5517 42.0587 42.8183 42.224C43.0903 42.3893 43.2957 42.6213 43.4343 42.92C43.5783 43.2187 43.6503 43.5733 43.6503 43.984V44.216H40.4103V43.72H43.1863L43.0343 43.88C43.0343 43.4427 42.9303 43.1067 42.7223 42.872C42.5197 42.6373 42.2263 42.52 41.8423 42.52C41.5917 42.52 41.3677 42.5787 41.1703 42.696C40.9783 42.808 40.829 42.968 40.7223 43.176C40.6157 43.384 40.5623 43.6373 40.5623 43.936V44.016C40.5623 44.336 40.621 44.6053 40.7383 44.824C40.8557 45.0427 41.0237 45.208 41.2423 45.32C41.461 45.432 41.7223 45.488 42.0263 45.488C42.245 45.488 42.4663 45.4587 42.6903 45.4C42.9197 45.336 43.133 45.224 43.3303 45.064L43.5703 45.576C43.3677 45.7467 43.125 45.872 42.8423 45.952C42.565 46.032 42.2903 46.072 42.0183 46.072ZM44.8253 46V42.048H45.4893V42.904C45.6173 42.6107 45.8093 42.384 46.0653 42.224C46.3213 42.0587 46.6093 41.976 46.9293 41.976C47.2546 41.976 47.5266 42.0347 47.7453 42.152C47.9639 42.264 48.1266 42.44 48.2333 42.68C48.3453 42.9147 48.4013 43.208 48.4013 43.56V46H47.6893V43.6C47.6893 43.3867 47.6599 43.2053 47.6013 43.056C47.5426 42.9067 47.4439 42.792 47.3053 42.712C47.1719 42.6267 46.9933 42.584 46.7693 42.584C46.5346 42.584 46.3213 42.6373 46.1293 42.744C45.9426 42.8507 45.7959 42.9947 45.6893 43.176C45.5879 43.3573 45.5373 43.56 45.5373 43.784V46H44.8253ZM51.2657 46.072C51.047 46.072 50.831 46.0507 50.6177 46.008C50.4097 45.9707 50.215 45.9173 50.0337 45.848C49.8577 45.7733 49.7057 45.6827 49.5777 45.576L49.8097 45.072C49.943 45.1733 50.0897 45.256 50.2497 45.32C50.415 45.384 50.583 45.432 50.7537 45.464C50.9297 45.4907 51.0977 45.504 51.2577 45.504C51.5883 45.504 51.8417 45.4533 52.0177 45.352C52.199 45.2507 52.2897 45.1093 52.2897 44.928C52.2897 44.7733 52.2363 44.656 52.1297 44.576C52.0283 44.4907 51.8577 44.4267 51.6177 44.384L50.7937 44.24C50.4257 44.1707 50.1483 44.0453 49.9617 43.864C49.7803 43.6827 49.6897 43.4453 49.6897 43.152C49.6897 42.9173 49.7537 42.712 49.8817 42.536C50.015 42.36 50.2043 42.224 50.4497 42.128C50.695 42.0267 50.9883 41.976 51.3297 41.976C51.5163 41.976 51.7057 41.9947 51.8977 42.032C52.095 42.0693 52.2763 42.1253 52.4417 42.2C52.6123 42.2693 52.751 42.3573 52.8577 42.464L52.6177 42.968C52.511 42.8667 52.383 42.7867 52.2337 42.728C52.0897 42.664 51.9377 42.6187 51.7777 42.592C51.623 42.56 51.471 42.544 51.3217 42.544C51.0123 42.544 50.7723 42.5973 50.6017 42.704C50.431 42.8053 50.3457 42.9493 50.3457 43.136C50.3457 43.2853 50.3937 43.4027 50.4897 43.488C50.591 43.5733 50.7537 43.6373 50.9777 43.68L51.7777 43.824C52.1723 43.8987 52.4657 44.024 52.6577 44.2C52.8497 44.3707 52.9457 44.608 52.9457 44.912C52.9457 45.1467 52.8763 45.352 52.7377 45.528C52.599 45.6987 52.4043 45.832 52.1537 45.928C51.903 46.024 51.607 46.072 51.2657 46.072ZM54.0422 41.096V40.304H54.9062V41.096H54.0422ZM54.1222 46V42.048H54.8342V46H54.1222ZM57.975 46.072C57.575 46.072 57.2283 45.9867 56.935 45.816C56.6416 45.6453 56.415 45.408 56.255 45.104C56.095 44.7947 56.015 44.432 56.015 44.016C56.015 43.6053 56.095 43.248 56.255 42.944C56.415 42.6347 56.6416 42.3973 56.935 42.232C57.2283 42.0613 57.575 41.976 57.975 41.976C58.375 41.976 58.719 42.0613 59.007 42.232C59.3003 42.3973 59.527 42.6347 59.687 42.944C59.847 43.248 59.927 43.6053 59.927 44.016C59.927 44.432 59.847 44.7947 59.687 45.104C59.5323 45.408 59.3083 45.6453 59.015 45.816C58.7216 45.9867 58.375 46.072 57.975 46.072ZM57.967 45.472C58.3563 45.472 58.663 45.3413 58.887 45.08C59.111 44.8187 59.223 44.464 59.223 44.016C59.223 43.568 59.111 43.216 58.887 42.96C58.6683 42.704 58.3643 42.576 57.975 42.576C57.5856 42.576 57.279 42.704 57.055 42.96C56.831 43.216 56.719 43.568 56.719 44.016C56.719 44.464 56.831 44.8187 57.055 45.08C57.2843 45.3413 57.5883 45.472 57.967 45.472ZM61.1222 46V42.048H61.7862V42.904C61.9142 42.6107 62.1062 42.384 62.3622 42.224C62.6182 42.0587 62.9062 41.976 63.2262 41.976C63.5515 41.976 63.8235 42.0347 64.0422 42.152C64.2608 42.264 64.4235 42.44 64.5302 42.68C64.6422 42.9147 64.6982 43.208 64.6982 43.56V46H63.9862V43.6C63.9862 43.3867 63.9568 43.2053 63.8982 43.056C63.8395 42.9067 63.7408 42.792 63.6022 42.712C63.4688 42.6267 63.2902 42.584 63.0662 42.584C62.8315 42.584 62.6182 42.6373 62.4262 42.744C62.2395 42.8507 62.0928 42.9947 61.9862 43.176C61.8848 43.3573 61.8342 43.56 61.8342 43.784V46H61.1222Z" fill="#CE3439"/>
<path d="M27.2905 59L30.0505 53.648L30.0825 53.992H26.9065V53.36H30.6745V53.896L28.0665 59H27.2905ZM33.6554 59.072C33.4101 59.072 33.1727 59.0453 32.9434 58.992C32.7194 58.9387 32.5087 58.8613 32.3114 58.76C32.1141 58.6533 31.9381 58.5253 31.7834 58.376L32.0634 57.816C32.3087 58.04 32.5594 58.2027 32.8154 58.304C33.0767 58.4 33.3567 58.448 33.6554 58.448C34.0501 58.448 34.3567 58.3467 34.5754 58.144C34.7994 57.936 34.9114 57.6453 34.9114 57.272C34.9114 56.904 34.8074 56.6107 34.5994 56.392C34.3914 56.1733 34.1034 56.064 33.7354 56.064C33.4901 56.064 33.2661 56.1147 33.0634 56.216C32.8661 56.312 32.6821 56.4747 32.5114 56.704H31.9514V53.36H35.3274V53.976H32.5994V56.096H32.5674C32.6954 55.904 32.8714 55.7493 33.0954 55.632C33.3194 55.5093 33.5701 55.448 33.8474 55.448C34.2101 55.448 34.5221 55.5253 34.7834 55.68C35.0447 55.8293 35.2447 56.0373 35.3834 56.304C35.5274 56.5707 35.5994 56.8827 35.5994 57.24C35.5994 57.6187 35.5194 57.9467 35.3594 58.224C35.1994 58.496 34.9754 58.7067 34.6874 58.856C34.3994 59 34.0554 59.072 33.6554 59.072ZM37.3083 56.312L36.8363 56.032L37.5403 54.968L37.5563 54.992L36.2683 55.072V54.52L37.5563 54.6L37.5323 54.616L36.8363 53.56L37.3163 53.28L37.8843 54.464H37.8763L38.4283 53.28L38.9083 53.56L38.2043 54.616L38.1803 54.6L39.4763 54.52V55.072L38.1883 54.992L38.2123 54.968L38.9083 56.032L38.4363 56.312L37.8763 55.136H37.8843L37.3083 56.312ZM42.8019 59V57.832H40.1699V57.296L42.7699 53.36H43.4819V57.232H44.2659V57.832H43.4819V59H42.8019ZM42.8259 57.232V54.24H42.8579L40.7939 57.368L40.7379 57.232H42.8259ZM47.0148 59.072C46.7694 59.072 46.5321 59.0453 46.3028 58.992C46.0788 58.9387 45.8681 58.8613 45.6708 58.76C45.4734 58.6533 45.2974 58.5253 45.1428 58.376L45.4228 57.816C45.6681 58.04 45.9188 58.2027 46.1748 58.304C46.4361 58.4 46.7161 58.448 47.0148 58.448C47.4094 58.448 47.7161 58.3467 47.9348 58.144C48.1588 57.936 48.2708 57.6453 48.2708 57.272C48.2708 56.904 48.1668 56.6107 47.9588 56.392C47.7508 56.1733 47.4628 56.064 47.0948 56.064C46.8494 56.064 46.6254 56.1147 46.4228 56.216C46.2254 56.312 46.0414 56.4747 45.8708 56.704H45.3108V53.36H48.6868V53.976H45.9588V56.096H45.9268C46.0548 55.904 46.2308 55.7493 46.4548 55.632C46.6788 55.5093 46.9294 55.448 47.2068 55.448C47.5694 55.448 47.8814 55.5253 48.1428 55.68C48.4041 55.8293 48.6041 56.0373 48.7428 56.304C48.8868 56.5707 48.9588 56.8827 48.9588 57.24C48.9588 57.6187 48.8788 57.9467 48.7188 58.224C48.5588 58.496 48.3348 58.7067 48.0468 58.856C47.7588 59 47.4148 59.072 47.0148 59.072ZM50.6677 56.312L50.1957 56.032L50.8997 54.968L50.9157 54.992L49.6277 55.072V54.52L50.9157 54.6L50.8917 54.616L50.1957 53.56L50.6757 53.28L51.2437 54.464H51.2357L51.7877 53.28L52.2677 53.56L51.5637 54.616L51.5397 54.6L52.8357 54.52V55.072L51.5477 54.992L51.5717 54.968L52.2677 56.032L51.7957 56.312L51.2357 55.136H51.2437L50.6677 56.312ZM55.1613 59.072C54.9533 59.072 54.7506 59.048 54.5533 59C54.3613 58.952 54.1773 58.88 54.0013 58.784C53.8306 58.6827 53.6706 58.56 53.5213 58.416L53.7933 57.872C54.0119 58.0907 54.2333 58.2427 54.4573 58.328C54.6813 58.408 54.9186 58.448 55.1693 58.448C55.4306 58.448 55.6599 58.4 55.8573 58.304C56.0599 58.2027 56.2306 58.056 56.3693 57.864C56.5079 57.6667 56.6119 57.424 56.6813 57.136C56.7506 56.848 56.7853 56.5173 56.7853 56.144V55.68H56.7773C56.7346 55.9307 56.6386 56.1493 56.4893 56.336C56.3453 56.5173 56.1666 56.656 55.9533 56.752C55.7399 56.848 55.5053 56.896 55.2493 56.896C54.9133 56.896 54.6146 56.8213 54.3533 56.672C54.0919 56.5227 53.8866 56.3147 53.7373 56.048C53.5933 55.7813 53.5213 55.472 53.5213 55.12C53.5213 54.768 53.5986 54.4533 53.7533 54.176C53.9079 53.8987 54.1213 53.6827 54.3933 53.528C54.6653 53.368 54.9773 53.288 55.3293 53.288C55.7879 53.288 56.1746 53.3973 56.4893 53.616C56.8039 53.8293 57.0413 54.1413 57.2013 54.552C57.3613 54.9627 57.4413 55.464 57.4413 56.056C57.4413 56.696 57.3506 57.2427 57.1693 57.696C56.9879 58.144 56.7266 58.4853 56.3853 58.72C56.0493 58.9547 55.6413 59.072 55.1613 59.072ZM55.3693 56.304C55.6039 56.304 55.8119 56.2533 55.9933 56.152C56.1746 56.0507 56.3159 55.9093 56.4173 55.728C56.5186 55.5467 56.5693 55.3387 56.5693 55.104C56.5693 54.8587 56.5186 54.6453 56.4173 54.464C56.3213 54.2827 56.1826 54.144 56.0013 54.048C55.8199 53.9467 55.6066 53.896 55.3613 53.896C55.1266 53.896 54.9213 53.9467 54.7453 54.048C54.5693 54.1493 54.4306 54.2907 54.3293 54.472C54.2333 54.6533 54.1853 54.864 54.1853 55.104C54.1853 55.3387 54.2359 55.5467 54.3373 55.728C54.4386 55.9093 54.5773 56.0507 54.7533 56.152C54.9293 56.2533 55.1346 56.304 55.3693 56.304ZM60.2302 59.072C59.9955 59.072 59.7635 59.048 59.5342 59C59.3048 58.952 59.0862 58.8773 58.8782 58.776C58.6755 58.6747 58.4888 58.5493 58.3182 58.4L58.5902 57.84C58.8462 58.0587 59.1128 58.216 59.3902 58.312C59.6675 58.4027 59.9475 58.448 60.2302 58.448C60.4648 58.448 60.6755 58.4133 60.8622 58.344C61.0542 58.2693 61.2035 58.16 61.3102 58.016C61.4222 57.8667 61.4782 57.6747 61.4782 57.44C61.4782 57.1147 61.3688 56.8693 61.1502 56.704C60.9315 56.5333 60.6142 56.448 60.1982 56.448H59.3502V55.832H60.0942C60.3342 55.832 60.5475 55.7947 60.7342 55.72C60.9262 55.64 61.0755 55.5227 61.1822 55.368C61.2888 55.2133 61.3422 55.0213 61.3422 54.792C61.3422 54.4987 61.2408 54.28 61.0382 54.136C60.8355 53.9867 60.5742 53.912 60.2542 53.912C59.9715 53.912 59.6942 53.96 59.4222 54.056C59.1555 54.152 58.9102 54.3173 58.6862 54.552L58.4222 54C58.6462 53.76 58.9235 53.5813 59.2542 53.464C59.5848 53.3467 59.9288 53.288 60.2862 53.288C60.6435 53.288 60.9502 53.3467 61.2062 53.464C61.4675 53.576 61.6702 53.7413 61.8142 53.96C61.9582 54.1733 62.0302 54.432 62.0302 54.736C62.0302 55.056 61.9395 55.3387 61.7582 55.584C61.5768 55.8293 61.3315 56.0027 61.0222 56.104V56.096C61.2462 56.1387 61.4435 56.2213 61.6142 56.344C61.7848 56.4613 61.9208 56.616 62.0222 56.808C62.1235 56.9947 62.1742 57.216 62.1742 57.472C62.1742 57.808 62.0915 58.096 61.9262 58.336C61.7662 58.576 61.5395 58.76 61.2462 58.888C60.9582 59.0107 60.6195 59.072 60.2302 59.072Z" fill="black"/>
<defs>
<filter id="filter0_d_271_461" x="0.0999999" y="24" width="89.8" height="57.9" filterUnits="userSpaceOnUse" color-interpolation-filters="sRGB">
<feFlood flood-opacity="0" result="BackgroundImageFix"/>
<feColorMatrix in="SourceAlpha" type="matrix" values="0 0 0 0 0 0 0 0 0 0 0 0 0 0 0 0 0 0 127 0" result="hardAlpha"/>
<feOffset dy="4"/>
<feGaussianBlur stdDeviation="1.95"/>
<feComposite in2="hardAlpha" operator="out"/>
<feColorMatrix type="matrix" values="0 0 0 0 0 0 0 0 0 0 0 0 0 0 0 0 0 0 0.2 0"/>
<feBlend mode="normal" in2="BackgroundImageFix" result="effect1_dropShadow_271_461"/>
<feBlend mode="normal" in="SourceGraphic" in2="effect1_dropShadow_271_461" result="shape"/>
</filter>
<clipPath id="clip0_271_461">
<rect width="16.8474" height="16.9337" fill="white" transform="translate(35.2891 7.33496)"/>
</clipPath>
</defs>
</svg>
