<svg width="90" height="83" viewBox="0 0 90 83" fill="none" xmlns="http://www.w3.org/2000/svg">
<g filter="url(#filter0_d_271_470)">
<rect x="4" y="25" width="82" height="50" rx="2" fill="white"/>
<rect x="4.25" y="25.25" width="81.5" height="49.5" rx="1.75" stroke="white" stroke-width="0.5"/>
</g>
<rect x="29.2715" y="0.96582" width="30.0846" height="30.2233" rx="3" fill="#CB3335"/>
<g clip-path="url(#clip0_271_470)">
<path fill-rule="evenodd" clip-rule="evenodd" d="M35.6592 11.6365C35.7152 11.6573 35.7807 11.704 35.805 11.7403C35.8412 11.7942 35.8491 12.2646 35.8488 16.7815L35.7682 16.8641C35.7119 16.9216 35.6517 16.9468 35.5707 16.9468C35.4901 16.9468 35.4286 16.9213 35.2894 16.7815V14.3022C35.2894 12.7155 35.3012 11.7992 35.3223 11.7568C35.3404 11.7205 35.4009 11.6702 35.4565 11.6448C35.5358 11.6091 35.5799 11.6074 35.6592 11.6365ZM51.9472 11.6365C52.0032 11.6573 52.0686 11.704 52.093 11.7403C52.1292 11.7942 52.1371 12.2646 52.1367 16.7815L52.0561 16.8641C51.9999 16.9216 51.9396 16.9468 51.8587 16.9468C51.7781 16.9468 51.7165 16.9213 51.5774 16.7815V14.3022C51.5774 12.7155 51.5892 11.7992 51.6103 11.7568C51.6284 11.7205 51.6889 11.6702 51.7445 11.6448C51.8238 11.6091 51.8679 11.6074 51.9472 11.6365ZM51.9778 17.8228L52.1367 18.0046V19.7731C52.1367 20.8861 52.1246 21.5661 52.1038 21.6078C52.0857 21.6441 52.0193 21.6964 51.9558 21.7235C51.8544 21.7671 50.8643 21.773 43.7131 21.773C36.5618 21.773 35.5717 21.7671 35.4704 21.7235C35.4069 21.6964 35.3404 21.6441 35.3223 21.6078C35.3016 21.5661 35.2894 20.8881 35.2891 19.7814C35.2891 18.2168 35.2947 18.0125 35.3417 17.9444C35.371 17.9021 35.4266 17.8548 35.4654 17.839C35.5049 17.8228 39.1699 17.8128 51.9778 17.8228ZM35.8652 21.1945H51.5609L51.5662 18.3682H50.7218C50.7202 18.9193 50.7047 19.0667 50.6797 19.1014C50.6577 19.1321 50.5951 19.1741 50.5409 19.1949C50.4612 19.2257 50.4214 19.2227 50.3352 19.1807C50.2651 19.1464 50.2167 19.0915 50.1947 19.0211C50.1763 18.9619 50.1615 18.791 50.1618 18.6409L50.1624 18.3682H49.0437C49.0437 19.5791 49.042 19.5929 48.9644 19.6822C48.9048 19.7503 48.8548 19.7731 48.764 19.7731C48.6732 19.7731 48.6232 19.7503 48.5636 19.6822C48.4859 19.5929 48.4843 19.5791 48.4843 18.9797V18.3682H47.3655C47.3501 19.0224 47.3408 19.069 47.2757 19.1341C47.228 19.1821 47.1609 19.2085 47.0839 19.2095C46.994 19.2108 46.9453 19.1887 46.8854 19.1202C46.813 19.0373 46.8061 19.0009 46.8061 18.6988V18.3682H45.6874C45.6874 19.3563 45.6755 19.5202 45.638 19.6078C45.6084 19.6776 45.5528 19.7374 45.4982 19.7586C45.4485 19.7777 45.3744 19.785 45.3336 19.7751C45.2928 19.7648 45.2297 19.7232 45.1931 19.6822C45.1313 19.6131 45.1267 19.5639 45.1273 18.988L45.128 18.3682H44.0092C44.0089 18.7652 43.9941 18.9364 43.976 19.0045C43.9516 19.0974 43.9144 19.143 43.8282 19.1864C43.7187 19.2416 43.7075 19.2416 43.5979 19.1864C43.5117 19.143 43.4745 19.0974 43.4502 19.0045C43.4321 18.9364 43.4173 18.7652 43.4173 18.6244L43.4169 18.3682H42.2982C42.2965 19.423 42.284 19.6234 42.256 19.6604C42.234 19.6891 42.1827 19.7301 42.1419 19.7513C42.1011 19.7724 42.0234 19.7824 41.9691 19.7731C41.9033 19.7621 41.8485 19.7208 41.8046 19.6491C41.7457 19.5523 41.7391 19.4832 41.7388 18.955V18.3682H40.62C40.62 19.0009 40.6131 19.0373 40.5407 19.1202C40.4818 19.1873 40.4305 19.2111 40.3439 19.2111C40.2661 19.2111 40.2021 19.186 40.1521 19.1358C40.085 19.0687 40.0761 19.0247 40.0688 18.7143L40.0606 18.3682H38.9418C38.9257 19.5943 38.9221 19.626 38.852 19.6961C38.8043 19.744 38.7372 19.7705 38.6602 19.7715C38.5703 19.7728 38.5216 19.7506 38.4618 19.6822C38.3841 19.5929 38.3825 19.5791 38.3825 18.9797V18.3682H37.2637C37.2647 18.791 37.2499 18.9619 37.2314 19.0211C37.2094 19.0915 37.161 19.1464 37.0909 19.1807C37.0047 19.2227 36.9649 19.2257 36.8853 19.1949C36.831 19.1741 36.7685 19.1321 36.7464 19.1014C36.7214 19.0667 36.706 18.9193 36.7053 18.707L36.7043 18.3682H35.8481L35.8652 21.1945ZM37.9751 12.451C38.0182 12.451 38.0942 12.4871 38.2344 12.6104L38.2508 14.1369H49.1753L49.1917 12.6104L49.2822 12.5307C49.3319 12.4871 49.406 12.4504 49.4468 12.4497C49.4876 12.4487 49.5534 12.4748 49.5929 12.5076C49.6327 12.54 49.9624 12.9535 50.3257 13.4262C50.6893 13.8989 50.9953 14.323 51.0061 14.3683C51.0176 14.4159 51.0045 14.493 50.9752 14.5501C50.9472 14.6047 50.6774 14.9693 50.376 15.36C50.0743 15.7511 49.7696 16.1415 49.6988 16.2278C49.5975 16.3514 49.5491 16.3848 49.4714 16.3848C49.4171 16.3848 49.3431 16.3699 49.3069 16.3517C49.2707 16.3336 49.226 16.2704 49.2075 16.2112C49.1891 16.1521 49.1743 15.7878 49.1753 14.6989H38.2508L38.2515 15.4014C38.2515 15.7878 38.2367 16.1521 38.2186 16.2112C38.2002 16.2704 38.1554 16.3336 38.1192 16.3517C38.083 16.3699 38.009 16.3848 37.9547 16.3848C37.877 16.3848 37.8287 16.3514 37.7273 16.2278C37.6562 16.1415 37.3515 15.7511 37.0501 15.36C36.7484 14.9693 36.4789 14.6047 36.4509 14.5501C36.4217 14.493 36.4085 14.4159 36.42 14.3683C36.4309 14.323 36.7369 13.8989 37.1002 13.4262C37.4634 12.9535 37.7915 12.5406 37.829 12.5089C37.8662 12.4772 37.932 12.451 37.9751 12.451ZM37.0659 14.484C37.0896 14.5204 37.2361 14.7158 37.3917 14.9184C37.5477 15.121 37.6862 15.281 37.6997 15.2738C37.7132 15.2668 37.7244 14.8817 37.7244 14.4179C37.7244 13.9518 37.7112 13.575 37.6951 13.575C37.6793 13.575 37.5217 13.7647 37.3446 13.9964C37.0544 14.3776 37.0274 14.4242 37.0659 14.484ZM49.7265 15.2738C49.7399 15.281 49.8785 15.121 50.0341 14.9184C50.1898 14.7158 50.3365 14.5204 50.3599 14.484C50.3984 14.4242 50.3714 14.3776 50.0769 13.9951C49.8976 13.7624 49.7399 13.5727 49.7265 13.5736C49.713 13.5743 49.7018 13.9545 49.7018 14.4179C49.7018 14.8817 49.713 15.2668 49.7265 15.2738Z" fill="white"/>
</g>
<path d="M24.6972 47V41.36H26.6732C27.2759 41.36 27.7879 41.4693 28.2092 41.688C28.6306 41.9067 28.9506 42.2267 29.1692 42.648C29.3932 43.064 29.5052 43.5733 29.5052 44.176C29.5052 44.7787 29.3932 45.2907 29.1692 45.712C28.9506 46.1333 28.6306 46.4533 28.2092 46.672C27.7879 46.8907 27.2759 47 26.6732 47H24.6972ZM25.4092 46.376H26.6332C27.3319 46.376 27.8599 46.1947 28.2172 45.832C28.5799 45.4693 28.7612 44.9173 28.7612 44.176C28.7612 43.4347 28.5799 42.8853 28.2172 42.528C27.8599 42.1653 27.3319 41.984 26.6332 41.984H25.4092V46.376ZM30.7394 42.096V41.304H31.6034V42.096H30.7394ZM30.8194 47V43.048H31.5314V47H30.8194ZM32.9682 47V43.048H33.6242V43.912C33.6936 43.736 33.7896 43.5787 33.9122 43.44C34.0402 43.296 34.1922 43.184 34.3682 43.104C34.5496 43.0187 34.7469 42.976 34.9602 42.976C35.3069 42.976 35.5922 43.0613 35.8162 43.232C36.0402 43.4027 36.1789 43.6267 36.2322 43.904H36.2242C36.3309 43.6427 36.4989 43.424 36.7282 43.248C36.9629 43.0667 37.2562 42.976 37.6082 42.976C37.9069 42.976 38.1602 43.0347 38.3682 43.152C38.5762 43.264 38.7336 43.4373 38.8402 43.672C38.9469 43.9067 39.0002 44.2027 39.0002 44.56V47H38.2962V44.608C38.2962 44.2667 38.2349 44.0107 38.1122 43.84C37.9896 43.6693 37.7709 43.584 37.4562 43.584C37.2216 43.584 37.0189 43.6373 36.8482 43.744C36.6829 43.8453 36.5549 43.9893 36.4642 44.176C36.3789 44.3573 36.3362 44.5627 36.3362 44.792V47H35.6322V44.608C35.6322 44.272 35.5629 44.0187 35.4242 43.848C35.2856 43.672 35.0749 43.584 34.7922 43.584C34.5629 43.584 34.3629 43.6427 34.1922 43.76C34.0269 43.872 33.8989 44.0187 33.8082 44.2C33.7176 44.3813 33.6722 44.5733 33.6722 44.776V47H32.9682ZM42.3328 47.072C41.8901 47.072 41.5061 46.992 41.1808 46.832C40.8608 46.6667 40.6155 46.432 40.4448 46.128C40.2741 45.8187 40.1888 45.4507 40.1888 45.024C40.1888 44.624 40.2688 44.272 40.4288 43.968C40.5888 43.6587 40.8155 43.416 41.1088 43.24C41.4021 43.064 41.7515 42.976 42.1568 42.976C42.5408 42.976 42.8661 43.0587 43.1328 43.224C43.4048 43.3893 43.6101 43.6213 43.7488 43.92C43.8928 44.2187 43.9648 44.5733 43.9648 44.984V45.216H40.7248V44.72H43.5008L43.3488 44.88C43.3488 44.4427 43.2448 44.1067 43.0368 43.872C42.8341 43.6373 42.5408 43.52 42.1568 43.52C41.9061 43.52 41.6821 43.5787 41.4848 43.696C41.2928 43.808 41.1435 43.968 41.0368 44.176C40.9301 44.384 40.8768 44.6373 40.8768 44.936V45.016C40.8768 45.336 40.9355 45.6053 41.0528 45.824C41.1701 46.0427 41.3381 46.208 41.5568 46.32C41.7755 46.432 42.0368 46.488 42.3408 46.488C42.5595 46.488 42.7808 46.4587 43.0048 46.4C43.2341 46.336 43.4475 46.224 43.6448 46.064L43.8848 46.576C43.6821 46.7467 43.4395 46.872 43.1568 46.952C42.8795 47.032 42.6048 47.072 42.3328 47.072ZM45.1397 47V43.048H45.8037V43.904C45.9317 43.6107 46.1237 43.384 46.3797 43.224C46.6357 43.0587 46.9237 42.976 47.2437 42.976C47.5691 42.976 47.8411 43.0347 48.0597 43.152C48.2784 43.264 48.4411 43.44 48.5477 43.68C48.6597 43.9147 48.7157 44.208 48.7157 44.56V47H48.0037V44.6C48.0037 44.3867 47.9744 44.2053 47.9157 44.056C47.8571 43.9067 47.7584 43.792 47.6197 43.712C47.4864 43.6267 47.3077 43.584 47.0837 43.584C46.8491 43.584 46.6357 43.6373 46.4437 43.744C46.2571 43.8507 46.1104 43.9947 46.0037 44.176C45.9024 44.3573 45.8517 44.56 45.8517 44.784V47H45.1397ZM51.5801 47.072C51.3614 47.072 51.1454 47.0507 50.9321 47.008C50.7241 46.9707 50.5294 46.9173 50.3481 46.848C50.1721 46.7733 50.0201 46.6827 49.8921 46.576L50.1241 46.072C50.2574 46.1733 50.4041 46.256 50.5641 46.32C50.7294 46.384 50.8974 46.432 51.0681 46.464C51.2441 46.4907 51.4121 46.504 51.5721 46.504C51.9028 46.504 52.1561 46.4533 52.3321 46.352C52.5134 46.2507 52.6041 46.1093 52.6041 45.928C52.6041 45.7733 52.5508 45.656 52.4441 45.576C52.3428 45.4907 52.1721 45.4267 51.9321 45.384L51.1081 45.24C50.7401 45.1707 50.4628 45.0453 50.2761 44.864C50.0948 44.6827 50.0041 44.4453 50.0041 44.152C50.0041 43.9173 50.0681 43.712 50.1961 43.536C50.3294 43.36 50.5188 43.224 50.7641 43.128C51.0094 43.0267 51.3028 42.976 51.6441 42.976C51.8308 42.976 52.0201 42.9947 52.2121 43.032C52.4094 43.0693 52.5908 43.1253 52.7561 43.2C52.9268 43.2693 53.0654 43.3573 53.1721 43.464L52.9321 43.968C52.8254 43.8667 52.6974 43.7867 52.5481 43.728C52.4041 43.664 52.2521 43.6187 52.0921 43.592C51.9374 43.56 51.7854 43.544 51.6361 43.544C51.3268 43.544 51.0868 43.5973 50.9161 43.704C50.7454 43.8053 50.6601 43.9493 50.6601 44.136C50.6601 44.2853 50.7081 44.4027 50.8041 44.488C50.9054 44.5733 51.0681 44.6373 51.2921 44.68L52.0921 44.824C52.4868 44.8987 52.7801 45.024 52.9721 45.2C53.1641 45.3707 53.2601 45.608 53.2601 45.912C53.2601 46.1467 53.1908 46.352 53.0521 46.528C52.9134 46.6987 52.7188 46.832 52.4681 46.928C52.2174 47.024 51.9214 47.072 51.5801 47.072ZM54.3566 42.096V41.304H55.2206V42.096H54.3566ZM54.4366 47V43.048H55.1486V47H54.4366ZM58.2894 47.072C57.8894 47.072 57.5428 46.9867 57.2494 46.816C56.9561 46.6453 56.7294 46.408 56.5694 46.104C56.4094 45.7947 56.3294 45.432 56.3294 45.016C56.3294 44.6053 56.4094 44.248 56.5694 43.944C56.7294 43.6347 56.9561 43.3973 57.2494 43.232C57.5428 43.0613 57.8894 42.976 58.2894 42.976C58.6894 42.976 59.0334 43.0613 59.3214 43.232C59.6148 43.3973 59.8414 43.6347 60.0014 43.944C60.1614 44.248 60.2414 44.6053 60.2414 45.016C60.2414 45.432 60.1614 45.7947 60.0014 46.104C59.8468 46.408 59.6228 46.6453 59.3294 46.816C59.0361 46.9867 58.6894 47.072 58.2894 47.072ZM58.2814 46.472C58.6708 46.472 58.9774 46.3413 59.2014 46.08C59.4254 45.8187 59.5374 45.464 59.5374 45.016C59.5374 44.568 59.4254 44.216 59.2014 43.96C58.9828 43.704 58.6788 43.576 58.2894 43.576C57.9001 43.576 57.5934 43.704 57.3694 43.96C57.1454 44.216 57.0334 44.568 57.0334 45.016C57.0334 45.464 57.1454 45.8187 57.3694 46.08C57.5988 46.3413 57.9028 46.472 58.2814 46.472ZM61.4366 47V43.048H62.1006V43.904C62.2286 43.6107 62.4206 43.384 62.6766 43.224C62.9326 43.0587 63.2206 42.976 63.5406 42.976C63.8659 42.976 64.1379 43.0347 64.3566 43.152C64.5753 43.264 64.7379 43.44 64.8446 43.68C64.9566 43.9147 65.0126 44.208 65.0126 44.56V47H64.3006V44.6C64.3006 44.3867 64.2713 44.2053 64.2126 44.056C64.1539 43.9067 64.0553 43.792 63.9166 43.712C63.7833 43.6267 63.6046 43.584 63.3806 43.584C63.1459 43.584 62.9326 43.6373 62.7406 43.744C62.5539 43.8507 62.4073 43.9947 62.3006 44.176C62.1993 44.3573 62.1486 44.56 62.1486 44.784V47H61.4366Z" fill="#CE3439"/>
<path d="M26.7105 60.072C26.0812 60.072 25.5852 59.936 25.2225 59.664C24.8599 59.3867 24.6785 59.0027 24.6785 58.512C24.6785 58.2613 24.7265 58.04 24.8225 57.848C24.9239 57.6507 25.0625 57.4907 25.2385 57.368C25.4199 57.24 25.6279 57.1547 25.8625 57.112V57.12C25.6599 57.072 25.4785 56.984 25.3185 56.856C25.1639 56.728 25.0412 56.5733 24.9505 56.392C24.8599 56.2107 24.8145 56.0107 24.8145 55.792C24.8145 55.3227 24.9852 54.9547 25.3265 54.688C25.6732 54.4213 26.1345 54.288 26.7105 54.288C27.2865 54.288 27.7452 54.4213 28.0865 54.688C28.4332 54.9547 28.6065 55.3227 28.6065 55.792C28.6065 56.0053 28.5612 56.2053 28.4705 56.392C28.3799 56.5733 28.2545 56.728 28.0945 56.856C27.9399 56.984 27.7585 57.072 27.5505 57.12V57.112C27.7799 57.1493 27.9825 57.232 28.1585 57.36C28.3399 57.488 28.4812 57.6507 28.5825 57.848C28.6892 58.04 28.7425 58.2613 28.7425 58.512C28.7425 59.0027 28.5612 59.3867 28.1985 59.664C27.8412 59.936 27.3452 60.072 26.7105 60.072ZM26.7105 59.472C27.1532 59.472 27.4892 59.3867 27.7185 59.216C27.9532 59.0453 28.0705 58.7947 28.0705 58.464C28.0705 58.1333 27.9532 57.88 27.7185 57.704C27.4892 57.528 27.1532 57.44 26.7105 57.44C26.2679 57.44 25.9292 57.528 25.6945 57.704C25.4652 57.88 25.3505 58.1333 25.3505 58.464C25.3505 58.7947 25.4652 59.0453 25.6945 59.216C25.9292 59.3867 26.2679 59.472 26.7105 59.472ZM26.7105 56.84C27.0945 56.84 27.3959 56.7547 27.6145 56.584C27.8332 56.408 27.9425 56.1653 27.9425 55.856C27.9425 55.552 27.8332 55.3147 27.6145 55.144C27.3959 54.968 27.0945 54.88 26.7105 54.88C26.3319 54.88 26.0332 54.968 25.8145 55.144C25.5959 55.3147 25.4865 55.552 25.4865 55.856C25.4865 56.1653 25.5959 56.408 25.8145 56.584C26.0332 56.7547 26.3319 56.84 26.7105 56.84ZM31.5714 60.072C31.3261 60.072 31.0888 60.0453 30.8594 59.992C30.6354 59.9387 30.4248 59.8613 30.2274 59.76C30.0301 59.6533 29.8541 59.5253 29.6994 59.376L29.9794 58.816C30.2248 59.04 30.4754 59.2027 30.7314 59.304C30.9928 59.4 31.2728 59.448 31.5714 59.448C31.9661 59.448 32.2728 59.3467 32.4914 59.144C32.7154 58.936 32.8274 58.6453 32.8274 58.272C32.8274 57.904 32.7234 57.6107 32.5154 57.392C32.3074 57.1733 32.0194 57.064 31.6514 57.064C31.4061 57.064 31.1821 57.1147 30.9794 57.216C30.7821 57.312 30.5981 57.4747 30.4274 57.704H29.8674V54.36H33.2434V54.976H30.5154V57.096H30.4834C30.6114 56.904 30.7874 56.7493 31.0114 56.632C31.2354 56.5093 31.4861 56.448 31.7634 56.448C32.1261 56.448 32.4381 56.5253 32.6994 56.68C32.9608 56.8293 33.1608 57.0373 33.2994 57.304C33.4434 57.5707 33.5154 57.8827 33.5154 58.24C33.5154 58.6187 33.4354 58.9467 33.2754 59.224C33.1154 59.496 32.8914 59.7067 32.6034 59.856C32.3154 60 31.9714 60.072 31.5714 60.072ZM35.2243 57.312L34.7523 57.032L35.4563 55.968L35.4723 55.992L34.1843 56.072V55.52L35.4723 55.6L35.4483 55.616L34.7523 54.56L35.2323 54.28L35.8003 55.464H35.7923L36.3443 54.28L36.8243 54.56L36.1203 55.616L36.0963 55.6L37.3923 55.52V56.072L36.1043 55.992L36.1283 55.968L36.8243 57.032L36.3523 57.312L35.7923 56.136H35.8003L35.2243 57.312ZM40.1339 60.072C39.8886 60.072 39.6513 60.0453 39.4219 59.992C39.1979 59.9387 38.9873 59.8613 38.7899 59.76C38.5926 59.6533 38.4166 59.5253 38.2619 59.376L38.5419 58.816C38.7873 59.04 39.0379 59.2027 39.2939 59.304C39.5553 59.4 39.8353 59.448 40.1339 59.448C40.5286 59.448 40.8353 59.3467 41.0539 59.144C41.2779 58.936 41.3899 58.6453 41.3899 58.272C41.3899 57.904 41.2859 57.6107 41.0779 57.392C40.8699 57.1733 40.5819 57.064 40.2139 57.064C39.9686 57.064 39.7446 57.1147 39.5419 57.216C39.3446 57.312 39.1606 57.4747 38.9899 57.704H38.4299V54.36H41.8059V54.976H39.0779V57.096H39.0459C39.1739 56.904 39.3499 56.7493 39.5739 56.632C39.7979 56.5093 40.0486 56.448 40.3259 56.448C40.6886 56.448 41.0006 56.5253 41.2619 56.68C41.5233 56.8293 41.7233 57.0373 41.8619 57.304C42.0059 57.5707 42.0779 57.8827 42.0779 58.24C42.0779 58.6187 41.9979 58.9467 41.8379 59.224C41.6779 59.496 41.4539 59.7067 41.1659 59.856C40.8779 60 40.5339 60.072 40.1339 60.072ZM44.8668 60.072C44.4348 60.072 44.0695 59.9627 43.7708 59.744C43.4721 59.52 43.2455 59.1947 43.0908 58.768C42.9415 58.336 42.8668 57.8053 42.8668 57.176C42.8668 56.5467 42.9415 56.0187 43.0908 55.592C43.2455 55.1653 43.4721 54.8427 43.7708 54.624C44.0695 54.4 44.4348 54.288 44.8668 54.288C45.3095 54.288 45.6775 54.3973 45.9708 54.616C46.2641 54.8347 46.4855 55.1573 46.6348 55.584C46.7895 56.0107 46.8668 56.5387 46.8668 57.168C46.8668 57.7973 46.7895 58.328 46.6348 58.76C46.4855 59.192 46.2615 59.52 45.9628 59.744C45.6641 59.9627 45.2988 60.072 44.8668 60.072ZM44.8668 59.448C45.3041 59.448 45.6295 59.264 45.8428 58.896C46.0561 58.528 46.1628 57.952 46.1628 57.168C46.1628 56.3893 46.0561 55.8187 45.8428 55.456C45.6348 55.0933 45.3121 54.912 44.8748 54.912C44.4321 54.912 44.1041 55.096 43.8908 55.464C43.6775 55.8267 43.5708 56.3973 43.5708 57.176C43.5708 57.9493 43.6775 58.5227 43.8908 58.896C44.1041 59.264 44.4295 59.448 44.8668 59.448ZM48.5837 57.312L48.1117 57.032L48.8157 55.968L48.8317 55.992L47.5437 56.072V55.52L48.8317 55.6L48.8077 55.616L48.1117 54.56L48.5917 54.28L49.1597 55.464H49.1517L49.7037 54.28L50.1837 54.56L49.4797 55.616L49.4557 55.6L50.7517 55.52V56.072L49.4637 55.992L49.4877 55.968L50.1837 57.032L49.7117 57.312L49.1517 56.136H49.1597L48.5837 57.312ZM51.7653 60V59.392H53.3093V54.928L53.6853 54.984L52.0453 56.04L51.7253 55.488L53.4933 54.36H54.0133V59.392H55.4373V60H51.7653ZM58.1462 60.072C57.9115 60.072 57.6795 60.048 57.4502 60C57.2208 59.952 57.0022 59.8773 56.7942 59.776C56.5915 59.6747 56.4048 59.5493 56.2342 59.4L56.5062 58.84C56.7622 59.0587 57.0288 59.216 57.3062 59.312C57.5835 59.4027 57.8635 59.448 58.1462 59.448C58.3808 59.448 58.5915 59.4133 58.7782 59.344C58.9702 59.2693 59.1195 59.16 59.2262 59.016C59.3382 58.8667 59.3942 58.6747 59.3942 58.44C59.3942 58.1147 59.2848 57.8693 59.0662 57.704C58.8475 57.5333 58.5302 57.448 58.1142 57.448H57.2662V56.832H58.0102C58.2502 56.832 58.4635 56.7947 58.6502 56.72C58.8422 56.64 58.9915 56.5227 59.0982 56.368C59.2048 56.2133 59.2582 56.0213 59.2582 55.792C59.2582 55.4987 59.1568 55.28 58.9542 55.136C58.7515 54.9867 58.4902 54.912 58.1702 54.912C57.8875 54.912 57.6102 54.96 57.3382 55.056C57.0715 55.152 56.8262 55.3173 56.6022 55.552L56.3382 55C56.5622 54.76 56.8395 54.5813 57.1702 54.464C57.5008 54.3467 57.8448 54.288 58.2022 54.288C58.5595 54.288 58.8662 54.3467 59.1222 54.464C59.3835 54.576 59.5862 54.7413 59.7302 54.96C59.8742 55.1733 59.9462 55.432 59.9462 55.736C59.9462 56.056 59.8555 56.3387 59.6742 56.584C59.4928 56.8293 59.2475 57.0027 58.9382 57.104V57.096C59.1622 57.1387 59.3595 57.2213 59.5302 57.344C59.7008 57.4613 59.8368 57.616 59.9382 57.808C60.0395 57.9947 60.0902 58.216 60.0902 58.472C60.0902 58.808 60.0075 59.096 59.8422 59.336C59.6822 59.576 59.4555 59.76 59.1622 59.888C58.8742 60.0107 58.5355 60.072 58.1462 60.072ZM63.023 60.072C62.591 60.072 62.2257 59.9627 61.927 59.744C61.6284 59.52 61.4017 59.1947 61.247 58.768C61.0977 58.336 61.023 57.8053 61.023 57.176C61.023 56.5467 61.0977 56.0187 61.247 55.592C61.4017 55.1653 61.6284 54.8427 61.927 54.624C62.2257 54.4 62.591 54.288 63.023 54.288C63.4657 54.288 63.8337 54.3973 64.127 54.616C64.4204 54.8347 64.6417 55.1573 64.791 55.584C64.9457 56.0107 65.023 56.5387 65.023 57.168C65.023 57.7973 64.9457 58.328 64.791 58.76C64.6417 59.192 64.4177 59.52 64.119 59.744C63.8204 59.9627 63.455 60.072 63.023 60.072ZM63.023 59.448C63.4604 59.448 63.7857 59.264 63.999 58.896C64.2124 58.528 64.319 57.952 64.319 57.168C64.319 56.3893 64.2124 55.8187 63.999 55.456C63.791 55.0933 63.4684 54.912 63.031 54.912C62.5884 54.912 62.2604 55.096 62.047 55.464C61.8337 55.8267 61.727 56.3973 61.727 57.176C61.727 57.9493 61.8337 58.5227 62.047 58.896C62.2604 59.264 62.5857 59.448 63.023 59.448Z" fill="black"/>
<defs>
<filter id="filter0_d_271_470" x="0.0999999" y="25" width="89.8" height="57.9" filterUnits="userSpaceOnUse" color-interpolation-filters="sRGB">
<feFlood flood-opacity="0" result="BackgroundImageFix"/>
<feColorMatrix in="SourceAlpha" type="matrix" values="0 0 0 0 0 0 0 0 0 0 0 0 0 0 0 0 0 0 127 0" result="hardAlpha"/>
<feOffset dy="4"/>
<feGaussianBlur stdDeviation="1.95"/>
<feComposite in2="hardAlpha" operator="out"/>
<feColorMatrix type="matrix" values="0 0 0 0 0 0 0 0 0 0 0 0 0 0 0 0 0 0 0.2 0"/>
<feBlend mode="normal" in2="BackgroundImageFix" result="effect1_dropShadow_271_470"/>
<feBlend mode="normal" in="SourceGraphic" in2="effect1_dropShadow_271_470" result="shape"/>
</filter>
<clipPath id="clip0_271_470">
<rect width="16.8474" height="16.9251" fill="white" transform="translate(35.2891 8.21973)"/>
</clipPath>
</defs>
</svg>
