<svg width="286" height="28" viewBox="0 0 286 28" fill="none" xmlns="http://www.w3.org/2000/svg">
<path d="M0.228 9L3.96 0.539999H4.8L8.532 9H7.512L6.468 6.588L6.948 6.84H1.788L2.28 6.588L1.248 9H0.228ZM4.368 1.692L2.436 6.24L2.148 6.012H6.588L6.324 6.24L4.392 1.692H4.368ZM15.5082 9L11.8122 0.539999H12.8682L16.1682 8.208H15.7842L19.0722 0.539999H20.1042L16.3962 9H15.5082ZM22.9345 9.108C22.3185 9.108 21.7865 8.988 21.3385 8.748C20.8985 8.5 20.5545 8.152 20.3065 7.704C20.0665 7.256 19.9465 6.72 19.9465 6.096C19.9465 5.488 20.0665 4.96 20.3065 4.512C20.5465 4.056 20.8745 3.7 21.2905 3.444C21.7145 3.188 22.2025 3.06 22.7545 3.06C23.2825 3.06 23.7345 3.176 24.1105 3.408C24.4865 3.64 24.7745 3.968 24.9745 4.392C25.1825 4.816 25.2865 5.324 25.2865 5.916V6.288H20.6905V5.652H24.6385L24.4465 5.808C24.4465 5.168 24.3025 4.672 24.0145 4.32C23.7345 3.96 23.3225 3.78 22.7785 3.78C22.3705 3.78 22.0225 3.876 21.7345 4.068C21.4545 4.252 21.2425 4.512 21.0985 4.848C20.9545 5.176 20.8825 5.56 20.8825 6V6.072C20.8825 6.56 20.9585 6.972 21.1105 7.308C21.2705 7.644 21.5065 7.9 21.8185 8.076C22.1305 8.244 22.5025 8.328 22.9345 8.328C23.2785 8.328 23.6105 8.276 23.9305 8.172C24.2585 8.06 24.5665 7.88 24.8545 7.632L25.1905 8.316C24.9265 8.556 24.5905 8.748 24.1825 8.892C23.7745 9.036 23.3585 9.108 22.9345 9.108ZM26.6933 9V3.168H27.6413V4.548H27.5213C27.6573 4.076 27.8933 3.72 28.2293 3.48C28.5653 3.232 29.0093 3.088 29.5613 3.048L29.9093 3.012L29.9813 3.852L29.3693 3.924C28.8253 3.972 28.4053 4.148 28.1093 4.452C27.8213 4.748 27.6773 5.156 27.6773 5.676V9H26.6933ZM32.9034 9.108C32.5994 9.108 32.3034 9.076 32.0154 9.012C31.7354 8.956 31.4714 8.876 31.2234 8.772C30.9834 8.66 30.7754 8.528 30.5994 8.376L30.9114 7.692C31.1034 7.844 31.3114 7.972 31.5354 8.076C31.7594 8.172 31.9874 8.244 32.2194 8.292C32.4514 8.34 32.6874 8.364 32.9274 8.364C33.3834 8.364 33.7274 8.28 33.9594 8.112C34.1914 7.944 34.3074 7.716 34.3074 7.428C34.3074 7.204 34.2314 7.028 34.0794 6.9C33.9274 6.764 33.6874 6.66 33.3594 6.588L32.2674 6.348C31.7634 6.244 31.3874 6.064 31.1394 5.808C30.8994 5.552 30.7794 5.22 30.7794 4.812C30.7794 4.452 30.8714 4.144 31.0554 3.888C31.2474 3.624 31.5154 3.42 31.8594 3.276C32.2034 3.132 32.6034 3.06 33.0594 3.06C33.3314 3.06 33.5914 3.088 33.8394 3.144C34.0874 3.2 34.3194 3.284 34.5354 3.396C34.7594 3.5 34.9514 3.632 35.1114 3.792L34.7874 4.476C34.6354 4.332 34.4634 4.212 34.2714 4.116C34.0794 4.012 33.8794 3.936 33.6714 3.888C33.4714 3.832 33.2674 3.804 33.0594 3.804C32.6114 3.804 32.2714 3.892 32.0394 4.068C31.8074 4.244 31.6914 4.476 31.6914 4.764C31.6914 4.988 31.7634 5.172 31.9074 5.316C32.0514 5.46 32.2754 5.564 32.5794 5.628L33.6714 5.856C34.1914 5.968 34.5794 6.148 34.8354 6.396C35.0994 6.636 35.2314 6.964 35.2314 7.38C35.2314 7.732 35.1354 8.04 34.9434 8.304C34.7514 8.56 34.4794 8.76 34.1274 8.904C33.7834 9.04 33.3754 9.108 32.9034 9.108ZM38.5488 9.108C38.1488 9.108 37.7888 9.032 37.4688 8.88C37.1568 8.72 36.9088 8.504 36.7248 8.232C36.5408 7.96 36.4488 7.656 36.4488 7.32C36.4488 6.888 36.5568 6.548 36.7728 6.3C36.9968 6.052 37.3608 5.876 37.8648 5.772C38.3768 5.668 39.0728 5.616 39.9528 5.616H40.4928V6.252H39.9648C39.4768 6.252 39.0688 6.268 38.7408 6.3C38.4128 6.332 38.1528 6.388 37.9608 6.468C37.7688 6.548 37.6328 6.652 37.5528 6.78C37.4728 6.908 37.4328 7.068 37.4328 7.26C37.4328 7.588 37.5448 7.856 37.7688 8.064C38.0008 8.272 38.3128 8.376 38.7048 8.376C39.0248 8.376 39.3048 8.3 39.5448 8.148C39.7928 7.996 39.9848 7.788 40.1208 7.524C40.2648 7.26 40.3368 6.956 40.3368 6.612V5.244C40.3368 4.748 40.2368 4.392 40.0368 4.176C39.8368 3.952 39.5088 3.84 39.0528 3.84C38.7008 3.84 38.3608 3.892 38.0328 3.996C37.7048 4.092 37.3688 4.252 37.0248 4.476L36.6888 3.768C36.8968 3.624 37.1328 3.5 37.3968 3.396C37.6608 3.284 37.9368 3.2 38.2248 3.144C38.5128 3.088 38.7888 3.06 39.0528 3.06C39.5568 3.06 39.9728 3.144 40.3008 3.312C40.6288 3.472 40.8728 3.72 41.0328 4.056C41.1928 4.384 41.2728 4.808 41.2728 5.328V9H40.3608V7.644H40.4688C40.4048 7.948 40.2808 8.208 40.0968 8.424C39.9208 8.64 39.7008 8.808 39.4368 8.928C39.1728 9.048 38.8768 9.108 38.5488 9.108ZM45.4161 9.108C44.7281 9.108 44.2121 8.924 43.8681 8.556C43.5241 8.188 43.3521 7.664 43.3521 6.984V3.924H42.2121V3.168H43.3521V1.38H44.3241V3.168H46.1721V3.924H44.3241V6.888C44.3241 7.344 44.4201 7.692 44.6121 7.932C44.8041 8.164 45.1161 8.28 45.5481 8.28C45.6761 8.28 45.8041 8.264 45.9321 8.232C46.0601 8.2 46.1761 8.168 46.2801 8.136L46.4481 8.88C46.3441 8.936 46.1921 8.988 45.9921 9.036C45.7921 9.084 45.6001 9.108 45.4161 9.108ZM47.1514 1.716V0.624H48.3514V1.716H47.1514ZM47.2714 9V3.168H48.2434V9H47.2714ZM51.8484 9.108C51.2564 9.108 50.8084 8.932 50.5044 8.58C50.2084 8.228 50.0604 7.724 50.0604 7.068V0.539999H51.0324V6.996C51.0324 7.276 51.0684 7.512 51.1404 7.704C51.2204 7.896 51.3364 8.04 51.4884 8.136C51.6404 8.232 51.8284 8.28 52.0524 8.28C52.1484 8.28 52.2404 8.276 52.3284 8.268C52.4244 8.252 52.5124 8.232 52.5924 8.208L52.5684 9.024C52.4404 9.048 52.3164 9.068 52.1964 9.084C52.0844 9.1 51.9684 9.108 51.8484 9.108ZM56.1806 9.108C55.5646 9.108 55.0326 8.988 54.5846 8.748C54.1446 8.5 53.8006 8.152 53.5526 7.704C53.3126 7.256 53.1926 6.72 53.1926 6.096C53.1926 5.488 53.3126 4.96 53.5526 4.512C53.7926 4.056 54.1206 3.7 54.5366 3.444C54.9606 3.188 55.4486 3.06 56.0006 3.06C56.5286 3.06 56.9806 3.176 57.3566 3.408C57.7326 3.64 58.0206 3.968 58.2206 4.392C58.4286 4.816 58.5326 5.324 58.5326 5.916V6.288H53.9366V5.652H57.8846L57.6926 5.808C57.6926 5.168 57.5486 4.672 57.2606 4.32C56.9806 3.96 56.5686 3.78 56.0246 3.78C55.6166 3.78 55.2686 3.876 54.9806 4.068C54.7006 4.252 54.4886 4.512 54.3446 4.848C54.2006 5.176 54.1286 5.56 54.1286 6V6.072C54.1286 6.56 54.2046 6.972 54.3566 7.308C54.5166 7.644 54.7526 7.9 55.0646 8.076C55.3766 8.244 55.7486 8.328 56.1806 8.328C56.5246 8.328 56.8566 8.276 57.1766 8.172C57.5046 8.06 57.8126 7.88 58.1006 7.632L58.4366 8.316C58.1726 8.556 57.8366 8.748 57.4286 8.892C57.0206 9.036 56.6046 9.108 56.1806 9.108ZM66.6334 9V7.188H62.7334V6.444L66.8014 0.539999H67.6294V6.348H68.8894V7.188H67.6294V9H66.6334ZM66.6334 6.348V1.728H66.9214L63.5734 6.612V6.348H66.6334ZM72.6407 9.108C72.0727 9.108 71.5807 8.984 71.1647 8.736C70.7487 8.488 70.4247 8.14 70.1927 7.692C69.9687 7.236 69.8567 6.7 69.8567 6.084C69.8567 5.468 69.9687 4.936 70.1927 4.488C70.4247 4.032 70.7487 3.68 71.1647 3.432C71.5807 3.184 72.0727 3.06 72.6407 3.06C73.2087 3.06 73.7007 3.184 74.1167 3.432C74.5327 3.68 74.8527 4.032 75.0767 4.488C75.3087 4.936 75.4247 5.468 75.4247 6.084C75.4247 6.7 75.3087 7.236 75.0767 7.692C74.8527 8.14 74.5327 8.488 74.1167 8.736C73.7007 8.984 73.2087 9.108 72.6407 9.108ZM72.6407 8.328C73.1927 8.328 73.6287 8.136 73.9487 7.752C74.2767 7.36 74.4407 6.8 74.4407 6.072C74.4407 5.352 74.2767 4.8 73.9487 4.416C73.6287 4.032 73.1927 3.84 72.6407 3.84C72.0967 3.84 71.6607 4.032 71.3327 4.416C71.0047 4.8 70.8407 5.352 70.8407 6.072C70.8407 6.8 71.0047 7.36 71.3327 7.752C71.6607 8.136 72.0967 8.328 72.6407 8.328ZM76.5623 9V8.352L80.0783 3.672V3.924H76.5623V3.168H80.9783V3.816L77.4263 8.52V8.244H81.1103V9H76.5623ZM89.2431 9.108C88.4111 9.108 87.6991 8.932 87.1071 8.58C86.5151 8.228 86.0591 7.728 85.7391 7.08C85.4271 6.432 85.2711 5.66 85.2711 4.764C85.2711 3.868 85.4271 3.1 85.7391 2.46C86.0591 1.812 86.5151 1.312 87.1071 0.96C87.6991 0.608 88.4111 0.431999 89.2431 0.431999C89.8271 0.431999 90.3671 0.523999 90.8631 0.707999C91.3591 0.891999 91.7751 1.16 92.1111 1.512L91.7271 2.316C91.3591 1.972 90.9751 1.724 90.5751 1.572C90.1831 1.412 89.7471 1.332 89.2671 1.332C88.3151 1.332 87.5871 1.632 87.0831 2.232C86.5791 2.832 86.3271 3.676 86.3271 4.764C86.3271 5.852 86.5791 6.7 87.0831 7.308C87.5871 7.908 88.3151 8.208 89.2671 8.208C89.7471 8.208 90.1831 8.132 90.5751 7.98C90.9751 7.82 91.3591 7.568 91.7271 7.224L92.1111 8.028C91.7751 8.372 91.3591 8.64 90.8631 8.832C90.3671 9.016 89.8271 9.108 89.2431 9.108ZM95.5274 9.108C94.9594 9.108 94.4674 8.984 94.0514 8.736C93.6354 8.488 93.3114 8.14 93.0794 7.692C92.8554 7.236 92.7434 6.7 92.7434 6.084C92.7434 5.468 92.8554 4.936 93.0794 4.488C93.3114 4.032 93.6354 3.68 94.0514 3.432C94.4674 3.184 94.9594 3.06 95.5274 3.06C96.0954 3.06 96.5874 3.184 97.0034 3.432C97.4194 3.68 97.7394 4.032 97.9634 4.488C98.1954 4.936 98.3114 5.468 98.3114 6.084C98.3114 6.7 98.1954 7.236 97.9634 7.692C97.7394 8.14 97.4194 8.488 97.0034 8.736C96.5874 8.984 96.0954 9.108 95.5274 9.108ZM95.5274 8.328C96.0794 8.328 96.5154 8.136 96.8354 7.752C97.1634 7.36 97.3274 6.8 97.3274 6.072C97.3274 5.352 97.1634 4.8 96.8354 4.416C96.5154 4.032 96.0794 3.84 95.5274 3.84C94.9834 3.84 94.5474 4.032 94.2194 4.416C93.8914 4.8 93.7274 5.352 93.7274 6.072C93.7274 6.8 93.8914 7.36 94.2194 7.752C94.5474 8.136 94.9834 8.328 95.5274 8.328ZM99.7714 9V3.168H100.719V4.464H100.587C100.755 4 101.027 3.652 101.403 3.42C101.787 3.18 102.227 3.06 102.723 3.06C103.187 3.06 103.571 3.144 103.875 3.312C104.187 3.472 104.419 3.724 104.571 4.068C104.723 4.412 104.799 4.844 104.799 5.364V9H103.827V5.424C103.827 5.064 103.779 4.768 103.683 4.536C103.595 4.304 103.451 4.132 103.251 4.02C103.059 3.908 102.807 3.852 102.495 3.852C102.143 3.852 101.835 3.928 101.571 4.08C101.307 4.232 101.103 4.444 100.959 4.716C100.815 4.988 100.743 5.308 100.743 5.676V9H99.7714ZM108.932 9.108C108.244 9.108 107.728 8.924 107.384 8.556C107.04 8.188 106.868 7.664 106.868 6.984V3.924H105.728V3.168H106.868V1.38H107.84V3.168H109.688V3.924H107.84V6.888C107.84 7.344 107.936 7.692 108.128 7.932C108.32 8.164 108.632 8.28 109.064 8.28C109.192 8.28 109.32 8.264 109.448 8.232C109.576 8.2 109.692 8.168 109.796 8.136L109.964 8.88C109.86 8.936 109.708 8.988 109.508 9.036C109.308 9.084 109.116 9.108 108.932 9.108ZM112.623 9.108C112.223 9.108 111.863 9.032 111.543 8.88C111.231 8.72 110.983 8.504 110.799 8.232C110.615 7.96 110.523 7.656 110.523 7.32C110.523 6.888 110.631 6.548 110.847 6.3C111.071 6.052 111.435 5.876 111.939 5.772C112.451 5.668 113.147 5.616 114.027 5.616H114.567V6.252H114.039C113.551 6.252 113.143 6.268 112.815 6.3C112.487 6.332 112.227 6.388 112.035 6.468C111.843 6.548 111.707 6.652 111.627 6.78C111.547 6.908 111.507 7.068 111.507 7.26C111.507 7.588 111.619 7.856 111.843 8.064C112.075 8.272 112.387 8.376 112.779 8.376C113.099 8.376 113.379 8.3 113.619 8.148C113.867 7.996 114.059 7.788 114.195 7.524C114.339 7.26 114.411 6.956 114.411 6.612V5.244C114.411 4.748 114.311 4.392 114.111 4.176C113.911 3.952 113.583 3.84 113.127 3.84C112.775 3.84 112.435 3.892 112.107 3.996C111.779 4.092 111.443 4.252 111.099 4.476L110.763 3.768C110.971 3.624 111.207 3.5 111.471 3.396C111.735 3.284 112.011 3.2 112.299 3.144C112.587 3.088 112.863 3.06 113.127 3.06C113.631 3.06 114.047 3.144 114.375 3.312C114.703 3.472 114.947 3.72 115.107 4.056C115.267 4.384 115.347 4.808 115.347 5.328V9H114.435V7.644H114.543C114.479 7.948 114.355 8.208 114.171 8.424C113.995 8.64 113.775 8.808 113.511 8.928C113.247 9.048 112.951 9.108 112.623 9.108ZM117.03 1.716V0.624H118.23V1.716H117.03ZM117.15 9V3.168H118.122V9H117.15ZM119.939 9V3.168H120.887V4.464H120.755C120.923 4 121.195 3.652 121.571 3.42C121.955 3.18 122.395 3.06 122.891 3.06C123.355 3.06 123.739 3.144 124.043 3.312C124.355 3.472 124.587 3.724 124.739 4.068C124.891 4.412 124.967 4.844 124.967 5.364V9H123.995V5.424C123.995 5.064 123.947 4.768 123.851 4.536C123.763 4.304 123.619 4.132 123.419 4.02C123.227 3.908 122.975 3.852 122.663 3.852C122.311 3.852 122.003 3.928 121.739 4.08C121.475 4.232 121.271 4.444 121.127 4.716C120.983 4.988 120.911 5.308 120.911 5.676V9H119.939ZM129.388 9.108C128.772 9.108 128.24 8.988 127.792 8.748C127.352 8.5 127.008 8.152 126.76 7.704C126.52 7.256 126.4 6.72 126.4 6.096C126.4 5.488 126.52 4.96 126.76 4.512C127 4.056 127.328 3.7 127.744 3.444C128.168 3.188 128.656 3.06 129.208 3.06C129.736 3.06 130.188 3.176 130.564 3.408C130.94 3.64 131.228 3.968 131.428 4.392C131.636 4.816 131.74 5.324 131.74 5.916V6.288H127.144V5.652H131.092L130.9 5.808C130.9 5.168 130.756 4.672 130.468 4.32C130.188 3.96 129.776 3.78 129.232 3.78C128.824 3.78 128.476 3.876 128.188 4.068C127.908 4.252 127.696 4.512 127.552 4.848C127.408 5.176 127.336 5.56 127.336 6V6.072C127.336 6.56 127.412 6.972 127.564 7.308C127.724 7.644 127.96 7.9 128.272 8.076C128.584 8.244 128.956 8.328 129.388 8.328C129.732 8.328 130.064 8.276 130.384 8.172C130.712 8.06 131.02 7.88 131.308 7.632L131.644 8.316C131.38 8.556 131.044 8.748 130.636 8.892C130.228 9.036 129.812 9.108 129.388 9.108ZM133.146 9V3.168H134.094V4.548H133.974C134.11 4.076 134.346 3.72 134.682 3.48C135.018 3.232 135.462 3.088 136.014 3.048L136.362 3.012L136.434 3.852L135.822 3.924C135.278 3.972 134.858 4.148 134.562 4.452C134.274 4.748 134.13 5.156 134.13 5.676V9H133.146ZM140.661 9V0.539999H145.893V1.368H141.645V4.32H145.653V5.148H141.645V9H140.661ZM149.305 9.108C148.737 9.108 148.245 8.984 147.829 8.736C147.413 8.488 147.089 8.14 146.857 7.692C146.633 7.236 146.521 6.7 146.521 6.084C146.521 5.468 146.633 4.936 146.857 4.488C147.089 4.032 147.413 3.68 147.829 3.432C148.245 3.184 148.737 3.06 149.305 3.06C149.873 3.06 150.365 3.184 150.781 3.432C151.197 3.68 151.517 4.032 151.741 4.488C151.973 4.936 152.089 5.468 152.089 6.084C152.089 6.7 151.973 7.236 151.741 7.692C151.517 8.14 151.197 8.488 150.781 8.736C150.365 8.984 149.873 9.108 149.305 9.108ZM149.305 8.328C149.857 8.328 150.293 8.136 150.613 7.752C150.941 7.36 151.105 6.8 151.105 6.072C151.105 5.352 150.941 4.8 150.613 4.416C150.293 4.032 149.857 3.84 149.305 3.84C148.761 3.84 148.325 4.032 147.997 4.416C147.669 4.8 147.505 5.352 147.505 6.072C147.505 6.8 147.669 7.36 147.997 7.752C148.325 8.136 148.761 8.328 149.305 8.328ZM153.549 9V3.168H154.497V4.548H154.377C154.513 4.076 154.749 3.72 155.085 3.48C155.421 3.232 155.865 3.088 156.417 3.048L156.765 3.012L156.837 3.852L156.225 3.924C155.681 3.972 155.261 4.148 154.965 4.452C154.677 4.748 154.533 5.156 154.533 5.676V9H153.549ZM163.8 9.108C163.36 9.108 162.944 9.068 162.552 8.988C162.168 8.908 161.812 8.796 161.484 8.652C161.164 8.5 160.872 8.316 160.608 8.1L160.956 7.308C161.228 7.508 161.504 7.68 161.784 7.824C162.072 7.96 162.38 8.064 162.708 8.136C163.044 8.2 163.408 8.232 163.8 8.232C164.52 8.232 165.052 8.1 165.396 7.836C165.748 7.564 165.924 7.208 165.924 6.768C165.924 6.536 165.868 6.336 165.756 6.168C165.652 6 165.476 5.856 165.228 5.736C164.988 5.616 164.672 5.516 164.28 5.436L163.032 5.184C162.28 5.024 161.716 4.764 161.34 4.404C160.972 4.036 160.788 3.548 160.788 2.94C160.788 2.436 160.916 1.996 161.172 1.62C161.436 1.244 161.8 0.951999 162.264 0.744C162.736 0.536 163.272 0.431999 163.872 0.431999C164.256 0.431999 164.62 0.471999 164.964 0.551999C165.308 0.632 165.624 0.752 165.912 0.912C166.208 1.064 166.468 1.252 166.692 1.476L166.344 2.244C165.984 1.916 165.604 1.68 165.204 1.536C164.804 1.384 164.356 1.308 163.86 1.308C163.436 1.308 163.068 1.372 162.756 1.5C162.452 1.628 162.212 1.816 162.036 2.064C161.868 2.304 161.784 2.584 161.784 2.904C161.784 3.288 161.9 3.592 162.132 3.816C162.372 4.04 162.76 4.204 163.296 4.308L164.544 4.572C165.352 4.74 165.948 4.996 166.332 5.34C166.724 5.676 166.92 6.136 166.92 6.72C166.92 7.184 166.792 7.6 166.536 7.968C166.288 8.328 165.928 8.608 165.456 8.808C164.992 9.008 164.44 9.108 163.8 9.108ZM168.194 1.716V0.624H169.394V1.716H168.194ZM168.314 9V3.168H169.286V9H168.314ZM173.323 9.108C172.803 9.108 172.347 8.984 171.955 8.736C171.571 8.488 171.271 8.14 171.055 7.692C170.847 7.236 170.743 6.7 170.743 6.084C170.743 5.46 170.847 4.924 171.055 4.476C171.271 4.02 171.571 3.672 171.955 3.432C172.347 3.184 172.803 3.06 173.323 3.06C173.851 3.06 174.303 3.192 174.679 3.456C175.055 3.72 175.307 4.076 175.435 4.524H175.303V0.539999H176.275V9H175.327V7.608H175.447C175.319 8.064 175.063 8.428 174.679 8.7C174.303 8.972 173.851 9.108 173.323 9.108ZM173.527 8.328C174.079 8.328 174.515 8.136 174.835 7.752C175.163 7.36 175.327 6.804 175.327 6.084C175.327 5.356 175.163 4.8 174.835 4.416C174.515 4.032 174.079 3.84 173.527 3.84C172.983 3.84 172.547 4.032 172.219 4.416C171.891 4.8 171.727 5.356 171.727 6.084C171.727 6.804 171.891 7.36 172.219 7.752C172.547 8.136 172.983 8.328 173.527 8.328ZM180.728 9.108C180.112 9.108 179.58 8.988 179.132 8.748C178.692 8.5 178.348 8.152 178.1 7.704C177.86 7.256 177.74 6.72 177.74 6.096C177.74 5.488 177.86 4.96 178.1 4.512C178.34 4.056 178.668 3.7 179.084 3.444C179.508 3.188 179.996 3.06 180.548 3.06C181.076 3.06 181.528 3.176 181.904 3.408C182.28 3.64 182.568 3.968 182.768 4.392C182.976 4.816 183.08 5.324 183.08 5.916V6.288H178.484V5.652H182.432L182.24 5.808C182.24 5.168 182.096 4.672 181.808 4.32C181.528 3.96 181.116 3.78 180.572 3.78C180.164 3.78 179.816 3.876 179.528 4.068C179.248 4.252 179.036 4.512 178.892 4.848C178.748 5.176 178.676 5.56 178.676 6V6.072C178.676 6.56 178.752 6.972 178.904 7.308C179.064 7.644 179.3 7.9 179.612 8.076C179.924 8.244 180.296 8.328 180.728 8.328C181.072 8.328 181.404 8.276 181.724 8.172C182.052 8.06 182.36 7.88 182.648 7.632L182.984 8.316C182.72 8.556 182.384 8.748 181.976 8.892C181.568 9.036 181.152 9.108 180.728 9.108ZM186.454 9.108C186.15 9.108 185.854 9.076 185.566 9.012C185.286 8.956 185.022 8.876 184.774 8.772C184.534 8.66 184.326 8.528 184.15 8.376L184.462 7.692C184.654 7.844 184.862 7.972 185.086 8.076C185.31 8.172 185.538 8.244 185.77 8.292C186.002 8.34 186.238 8.364 186.478 8.364C186.934 8.364 187.278 8.28 187.51 8.112C187.742 7.944 187.858 7.716 187.858 7.428C187.858 7.204 187.782 7.028 187.63 6.9C187.478 6.764 187.238 6.66 186.91 6.588L185.818 6.348C185.314 6.244 184.938 6.064 184.69 5.808C184.45 5.552 184.33 5.22 184.33 4.812C184.33 4.452 184.422 4.144 184.606 3.888C184.798 3.624 185.066 3.42 185.41 3.276C185.754 3.132 186.154 3.06 186.61 3.06C186.882 3.06 187.142 3.088 187.39 3.144C187.638 3.2 187.87 3.284 188.086 3.396C188.31 3.5 188.502 3.632 188.662 3.792L188.338 4.476C188.186 4.332 188.014 4.212 187.822 4.116C187.63 4.012 187.43 3.936 187.222 3.888C187.022 3.832 186.818 3.804 186.61 3.804C186.162 3.804 185.822 3.892 185.59 4.068C185.358 4.244 185.242 4.476 185.242 4.764C185.242 4.988 185.314 5.172 185.458 5.316C185.602 5.46 185.826 5.564 186.13 5.628L187.222 5.856C187.742 5.968 188.13 6.148 188.386 6.396C188.65 6.636 188.782 6.964 188.782 7.38C188.782 7.732 188.686 8.04 188.494 8.304C188.302 8.56 188.03 8.76 187.678 8.904C187.334 9.04 186.926 9.108 186.454 9.108ZM190.553 10.368L190.097 10.02C190.241 9.868 190.349 9.724 190.421 9.588C190.501 9.46 190.553 9.328 190.577 9.192C190.609 9.064 190.625 8.932 190.625 8.796L190.841 9H190.049V7.776H191.273V8.64C191.273 8.856 191.249 9.06 191.201 9.252C191.161 9.452 191.089 9.644 190.985 9.828C190.881 10.012 190.737 10.192 190.553 10.368ZM198.885 9.108C198.445 9.108 198.029 9.068 197.637 8.988C197.253 8.908 196.897 8.796 196.569 8.652C196.249 8.5 195.957 8.316 195.693 8.1L196.041 7.308C196.313 7.508 196.589 7.68 196.869 7.824C197.157 7.96 197.465 8.064 197.793 8.136C198.129 8.2 198.493 8.232 198.885 8.232C199.605 8.232 200.137 8.1 200.481 7.836C200.833 7.564 201.009 7.208 201.009 6.768C201.009 6.536 200.953 6.336 200.841 6.168C200.737 6 200.561 5.856 200.313 5.736C200.073 5.616 199.757 5.516 199.365 5.436L198.117 5.184C197.365 5.024 196.801 4.764 196.425 4.404C196.057 4.036 195.873 3.548 195.873 2.94C195.873 2.436 196.001 1.996 196.257 1.62C196.521 1.244 196.885 0.951999 197.349 0.744C197.821 0.536 198.357 0.431999 198.957 0.431999C199.341 0.431999 199.705 0.471999 200.049 0.551999C200.393 0.632 200.709 0.752 200.997 0.912C201.293 1.064 201.553 1.252 201.777 1.476L201.429 2.244C201.069 1.916 200.689 1.68 200.289 1.536C199.889 1.384 199.441 1.308 198.945 1.308C198.521 1.308 198.153 1.372 197.841 1.5C197.537 1.628 197.297 1.816 197.121 2.064C196.953 2.304 196.869 2.584 196.869 2.904C196.869 3.288 196.985 3.592 197.217 3.816C197.457 4.04 197.845 4.204 198.381 4.308L199.629 4.572C200.437 4.74 201.033 4.996 201.417 5.34C201.809 5.676 202.005 6.136 202.005 6.72C202.005 7.184 201.877 7.6 201.621 7.968C201.373 8.328 201.013 8.608 200.541 8.808C200.077 9.008 199.525 9.108 198.885 9.108ZM205.824 9.108C205.256 9.108 204.764 8.984 204.348 8.736C203.932 8.488 203.608 8.14 203.376 7.692C203.152 7.236 203.04 6.7 203.04 6.084C203.04 5.468 203.152 4.936 203.376 4.488C203.608 4.032 203.932 3.68 204.348 3.432C204.764 3.184 205.256 3.06 205.824 3.06C206.392 3.06 206.884 3.184 207.3 3.432C207.716 3.68 208.036 4.032 208.26 4.488C208.492 4.936 208.608 5.468 208.608 6.084C208.608 6.7 208.492 7.236 208.26 7.692C208.036 8.14 207.716 8.488 207.3 8.736C206.884 8.984 206.392 9.108 205.824 9.108ZM205.824 8.328C206.376 8.328 206.812 8.136 207.132 7.752C207.46 7.36 207.624 6.8 207.624 6.072C207.624 5.352 207.46 4.8 207.132 4.416C206.812 4.032 206.376 3.84 205.824 3.84C205.28 3.84 204.844 4.032 204.516 4.416C204.188 4.8 204.024 5.352 204.024 6.072C204.024 6.8 204.188 7.36 204.516 7.752C204.844 8.136 205.28 8.328 205.824 8.328ZM212.132 9.108C211.66 9.108 211.268 9.024 210.956 8.856C210.652 8.68 210.42 8.42 210.26 8.076C210.108 7.732 210.032 7.304 210.032 6.792V3.168H211.004V6.78C211.004 7.124 211.048 7.412 211.136 7.644C211.232 7.868 211.38 8.036 211.58 8.148C211.78 8.252 212.028 8.304 212.324 8.304C212.66 8.304 212.952 8.228 213.2 8.076C213.448 7.924 213.644 7.712 213.788 7.44C213.932 7.168 214.004 6.848 214.004 6.48V3.168H214.976V9H214.028V7.656H214.184C214.024 8.128 213.76 8.488 213.392 8.736C213.032 8.984 212.612 9.108 212.132 9.108ZM216.795 11.16V3.168H217.743V4.548H217.623C217.751 4.092 218.003 3.732 218.379 3.468C218.763 3.196 219.219 3.06 219.747 3.06C220.267 3.06 220.719 3.184 221.103 3.432C221.495 3.672 221.795 4.02 222.003 4.476C222.219 4.924 222.327 5.46 222.327 6.084C222.327 6.7 222.219 7.236 222.003 7.692C221.795 8.14 221.499 8.488 221.115 8.736C220.731 8.984 220.275 9.108 219.747 9.108C219.219 9.108 218.767 8.976 218.391 8.712C218.015 8.44 217.759 8.08 217.623 7.632H217.767V11.16H216.795ZM219.543 8.328C220.095 8.328 220.531 8.136 220.851 7.752C221.179 7.36 221.343 6.804 221.343 6.084C221.343 5.356 221.179 4.8 220.851 4.416C220.531 4.032 220.095 3.84 219.543 3.84C218.999 3.84 218.563 4.032 218.235 4.416C217.907 4.8 217.743 5.356 217.743 6.084C217.743 6.804 217.907 7.36 218.235 7.752C218.563 8.136 218.999 8.328 219.543 8.328ZM225.759 9.108C225.455 9.108 225.159 9.076 224.871 9.012C224.591 8.956 224.327 8.876 224.079 8.772C223.839 8.66 223.631 8.528 223.455 8.376L223.767 7.692C223.959 7.844 224.167 7.972 224.391 8.076C224.615 8.172 224.843 8.244 225.075 8.292C225.307 8.34 225.543 8.364 225.783 8.364C226.239 8.364 226.583 8.28 226.815 8.112C227.047 7.944 227.163 7.716 227.163 7.428C227.163 7.204 227.087 7.028 226.935 6.9C226.783 6.764 226.543 6.66 226.215 6.588L225.123 6.348C224.619 6.244 224.243 6.064 223.995 5.808C223.755 5.552 223.635 5.22 223.635 4.812C223.635 4.452 223.727 4.144 223.911 3.888C224.103 3.624 224.371 3.42 224.715 3.276C225.059 3.132 225.459 3.06 225.915 3.06C226.187 3.06 226.447 3.088 226.695 3.144C226.943 3.2 227.175 3.284 227.391 3.396C227.615 3.5 227.807 3.632 227.967 3.792L227.643 4.476C227.491 4.332 227.319 4.212 227.127 4.116C226.935 4.012 226.735 3.936 226.527 3.888C226.327 3.832 226.123 3.804 225.915 3.804C225.467 3.804 225.127 3.892 224.895 4.068C224.663 4.244 224.547 4.476 224.547 4.764C224.547 4.988 224.619 5.172 224.763 5.316C224.907 5.46 225.131 5.564 225.435 5.628L226.527 5.856C227.047 5.968 227.435 6.148 227.691 6.396C227.955 6.636 228.087 6.964 228.087 7.38C228.087 7.732 227.991 8.04 227.799 8.304C227.607 8.56 227.335 8.76 226.983 8.904C226.639 9.04 226.231 9.108 225.759 9.108ZM229.858 10.368L229.402 10.02C229.546 9.868 229.654 9.724 229.726 9.588C229.806 9.46 229.858 9.328 229.882 9.192C229.914 9.064 229.93 8.932 229.93 8.796L230.146 9H229.354V7.776H230.578V8.64C230.578 8.856 230.554 9.06 230.506 9.252C230.466 9.452 230.394 9.644 230.29 9.828C230.186 10.012 230.042 10.192 229.858 10.368ZM238.19 9.108C237.75 9.108 237.334 9.068 236.942 8.988C236.558 8.908 236.202 8.796 235.874 8.652C235.554 8.5 235.262 8.316 234.998 8.1L235.346 7.308C235.618 7.508 235.894 7.68 236.174 7.824C236.462 7.96 236.77 8.064 237.098 8.136C237.434 8.2 237.798 8.232 238.19 8.232C238.91 8.232 239.442 8.1 239.786 7.836C240.138 7.564 240.314 7.208 240.314 6.768C240.314 6.536 240.258 6.336 240.146 6.168C240.042 6 239.866 5.856 239.618 5.736C239.378 5.616 239.062 5.516 238.67 5.436L237.422 5.184C236.67 5.024 236.106 4.764 235.73 4.404C235.362 4.036 235.178 3.548 235.178 2.94C235.178 2.436 235.306 1.996 235.562 1.62C235.826 1.244 236.19 0.951999 236.654 0.744C237.126 0.536 237.662 0.431999 238.262 0.431999C238.646 0.431999 239.01 0.471999 239.354 0.551999C239.698 0.632 240.014 0.752 240.302 0.912C240.598 1.064 240.858 1.252 241.082 1.476L240.734 2.244C240.374 1.916 239.994 1.68 239.594 1.536C239.194 1.384 238.746 1.308 238.25 1.308C237.826 1.308 237.458 1.372 237.146 1.5C236.842 1.628 236.602 1.816 236.426 2.064C236.258 2.304 236.174 2.584 236.174 2.904C236.174 3.288 236.29 3.592 236.522 3.816C236.762 4.04 237.15 4.204 237.686 4.308L238.934 4.572C239.742 4.74 240.338 4.996 240.722 5.34C241.114 5.676 241.31 6.136 241.31 6.72C241.31 7.184 241.182 7.6 240.926 7.968C240.678 8.328 240.318 8.608 239.846 8.808C239.382 9.008 238.83 9.108 238.19 9.108ZM244.541 9.108C244.141 9.108 243.781 9.032 243.461 8.88C243.149 8.72 242.901 8.504 242.717 8.232C242.533 7.96 242.441 7.656 242.441 7.32C242.441 6.888 242.549 6.548 242.765 6.3C242.989 6.052 243.353 5.876 243.857 5.772C244.369 5.668 245.065 5.616 245.945 5.616H246.485V6.252H245.957C245.469 6.252 245.061 6.268 244.733 6.3C244.405 6.332 244.145 6.388 243.953 6.468C243.761 6.548 243.625 6.652 243.545 6.78C243.465 6.908 243.425 7.068 243.425 7.26C243.425 7.588 243.537 7.856 243.761 8.064C243.993 8.272 244.305 8.376 244.697 8.376C245.017 8.376 245.297 8.3 245.537 8.148C245.785 7.996 245.977 7.788 246.113 7.524C246.257 7.26 246.329 6.956 246.329 6.612V5.244C246.329 4.748 246.229 4.392 246.029 4.176C245.829 3.952 245.501 3.84 245.045 3.84C244.693 3.84 244.353 3.892 244.025 3.996C243.697 4.092 243.361 4.252 243.017 4.476L242.681 3.768C242.889 3.624 243.125 3.5 243.389 3.396C243.653 3.284 243.929 3.2 244.217 3.144C244.505 3.088 244.781 3.06 245.045 3.06C245.549 3.06 245.965 3.144 246.293 3.312C246.621 3.472 246.865 3.72 247.025 4.056C247.185 4.384 247.265 4.808 247.265 5.328V9H246.353V7.644H246.461C246.397 7.948 246.273 8.208 246.089 8.424C245.913 8.64 245.693 8.808 245.429 8.928C245.165 9.048 244.869 9.108 244.541 9.108ZM251.132 9.108C250.66 9.108 250.268 9.024 249.956 8.856C249.652 8.68 249.42 8.42 249.26 8.076C249.108 7.732 249.032 7.304 249.032 6.792V3.168H250.004V6.78C250.004 7.124 250.048 7.412 250.136 7.644C250.232 7.868 250.38 8.036 250.58 8.148C250.78 8.252 251.028 8.304 251.324 8.304C251.66 8.304 251.952 8.228 252.2 8.076C252.448 7.924 252.644 7.712 252.788 7.44C252.932 7.168 253.004 6.848 253.004 6.48V3.168H253.976V9H253.028V7.656H253.184C253.024 8.128 252.76 8.488 252.392 8.736C252.032 8.984 251.612 9.108 251.132 9.108ZM258.267 9.108C257.683 9.108 257.179 8.98 256.755 8.724C256.331 8.468 256.003 8.112 255.771 7.656C255.547 7.192 255.435 6.656 255.435 6.048C255.435 5.432 255.547 4.9 255.771 4.452C256.003 4.004 256.331 3.66 256.755 3.42C257.179 3.18 257.683 3.06 258.267 3.06C258.627 3.06 258.983 3.124 259.335 3.252C259.687 3.38 259.979 3.56 260.211 3.792L259.875 4.5C259.643 4.276 259.387 4.112 259.107 4.008C258.835 3.904 258.575 3.852 258.327 3.852C257.719 3.852 257.251 4.044 256.923 4.428C256.595 4.804 256.431 5.348 256.431 6.06C256.431 6.756 256.595 7.308 256.923 7.716C257.251 8.116 257.719 8.316 258.327 8.316C258.575 8.316 258.835 8.264 259.107 8.16C259.387 8.056 259.643 7.888 259.875 7.656L260.211 8.364C259.979 8.596 259.683 8.78 259.323 8.916C258.971 9.044 258.619 9.108 258.267 9.108ZM263.86 9.108C263.244 9.108 262.712 8.988 262.264 8.748C261.824 8.5 261.48 8.152 261.232 7.704C260.992 7.256 260.872 6.72 260.872 6.096C260.872 5.488 260.992 4.96 261.232 4.512C261.472 4.056 261.8 3.7 262.216 3.444C262.64 3.188 263.128 3.06 263.68 3.06C264.208 3.06 264.66 3.176 265.036 3.408C265.412 3.64 265.7 3.968 265.9 4.392C266.108 4.816 266.212 5.324 266.212 5.916V6.288H261.616V5.652H265.564L265.372 5.808C265.372 5.168 265.228 4.672 264.94 4.32C264.66 3.96 264.248 3.78 263.704 3.78C263.296 3.78 262.948 3.876 262.66 4.068C262.38 4.252 262.168 4.512 262.024 4.848C261.88 5.176 261.808 5.56 261.808 6V6.072C261.808 6.56 261.884 6.972 262.036 7.308C262.196 7.644 262.432 7.9 262.744 8.076C263.056 8.244 263.428 8.328 263.86 8.328C264.204 8.328 264.536 8.276 264.856 8.172C265.184 8.06 265.492 7.88 265.78 7.632L266.116 8.316C265.852 8.556 265.516 8.748 265.108 8.892C264.7 9.036 264.284 9.108 263.86 9.108ZM269.587 9.108C269.283 9.108 268.987 9.076 268.699 9.012C268.419 8.956 268.155 8.876 267.907 8.772C267.667 8.66 267.459 8.528 267.283 8.376L267.595 7.692C267.787 7.844 267.995 7.972 268.219 8.076C268.443 8.172 268.671 8.244 268.903 8.292C269.135 8.34 269.371 8.364 269.611 8.364C270.067 8.364 270.411 8.28 270.643 8.112C270.875 7.944 270.991 7.716 270.991 7.428C270.991 7.204 270.915 7.028 270.763 6.9C270.611 6.764 270.371 6.66 270.043 6.588L268.951 6.348C268.447 6.244 268.071 6.064 267.823 5.808C267.583 5.552 267.463 5.22 267.463 4.812C267.463 4.452 267.555 4.144 267.739 3.888C267.931 3.624 268.199 3.42 268.543 3.276C268.887 3.132 269.287 3.06 269.743 3.06C270.015 3.06 270.275 3.088 270.523 3.144C270.771 3.2 271.003 3.284 271.219 3.396C271.443 3.5 271.635 3.632 271.795 3.792L271.471 4.476C271.319 4.332 271.147 4.212 270.955 4.116C270.763 4.012 270.563 3.936 270.355 3.888C270.155 3.832 269.951 3.804 269.743 3.804C269.295 3.804 268.955 3.892 268.723 4.068C268.491 4.244 268.375 4.476 268.375 4.764C268.375 4.988 268.447 5.172 268.591 5.316C268.735 5.46 268.959 5.564 269.263 5.628L270.355 5.856C270.875 5.968 271.263 6.148 271.519 6.396C271.783 6.636 271.915 6.964 271.915 7.38C271.915 7.732 271.819 8.04 271.627 8.304C271.435 8.56 271.163 8.76 270.811 8.904C270.467 9.04 270.059 9.108 269.587 9.108ZM273.686 10.368L273.23 10.02C273.374 9.868 273.482 9.724 273.554 9.588C273.634 9.46 273.686 9.328 273.71 9.192C273.742 9.064 273.758 8.932 273.758 8.796L273.974 9H273.182V7.776H274.406V8.64C274.406 8.856 274.382 9.06 274.334 9.252C274.294 9.452 274.222 9.644 274.118 9.828C274.014 10.012 273.87 10.192 273.686 10.368ZM0.228 25L3.96 16.54H4.8L8.532 25H7.512L6.468 22.588L6.948 22.84H1.788L2.28 22.588L1.248 25H0.228ZM4.368 17.692L2.436 22.24L2.148 22.012H6.588L6.324 22.24L4.392 17.692H4.368ZM9.65419 25V19.168H10.6022V20.464H10.4702C10.6382 20 10.9102 19.652 11.2862 19.42C11.6702 19.18 12.1102 19.06 12.6062 19.06C13.0702 19.06 13.4542 19.144 13.7582 19.312C14.0702 19.472 14.3022 19.724 14.4542 20.068C14.6062 20.412 14.6822 20.844 14.6822 21.364V25H13.7102V21.424C13.7102 21.064 13.6622 20.768 13.5662 20.536C13.4782 20.304 13.3342 20.132 13.1342 20.02C12.9422 19.908 12.6902 19.852 12.3782 19.852C12.0262 19.852 11.7182 19.928 11.4542 20.08C11.1902 20.232 10.9862 20.444 10.8422 20.716C10.6982 20.988 10.6262 21.308 10.6262 21.676V25H9.65419ZM18.6945 25.108C18.1745 25.108 17.7185 24.984 17.3265 24.736C16.9425 24.488 16.6425 24.14 16.4265 23.692C16.2185 23.236 16.1145 22.7 16.1145 22.084C16.1145 21.46 16.2185 20.924 16.4265 20.476C16.6425 20.02 16.9425 19.672 17.3265 19.432C17.7185 19.184 18.1745 19.06 18.6945 19.06C19.2225 19.06 19.6745 19.192 20.0505 19.456C20.4265 19.72 20.6785 20.076 20.8065 20.524H20.6745V16.54H21.6465V25H20.6985V23.608H20.8185C20.6905 24.064 20.4345 24.428 20.0505 24.7C19.6745 24.972 19.2225 25.108 18.6945 25.108ZM18.8985 24.328C19.4505 24.328 19.8865 24.136 20.2065 23.752C20.5345 23.36 20.6985 22.804 20.6985 22.084C20.6985 21.356 20.5345 20.8 20.2065 20.416C19.8865 20.032 19.4505 19.84 18.8985 19.84C18.3545 19.84 17.9185 20.032 17.5905 20.416C17.2625 20.8 17.0985 21.356 17.0985 22.084C17.0985 22.804 17.2625 23.36 17.5905 23.752C17.9185 24.136 18.3545 24.328 18.8985 24.328ZM26.6846 25V16.54H29.5406C30.4606 16.54 31.2366 16.704 31.8686 17.032C32.5086 17.352 32.9926 17.828 33.3206 18.46C33.6566 19.084 33.8246 19.852 33.8246 20.764C33.8246 21.676 33.6566 22.448 33.3206 23.08C32.9926 23.712 32.5086 24.192 31.8686 24.52C31.2366 24.84 30.4606 25 29.5406 25H26.6846ZM27.6686 24.16H29.4686C30.5806 24.16 31.4086 23.876 31.9526 23.308C32.5046 22.74 32.7806 21.892 32.7806 20.764C32.7806 19.636 32.5046 18.792 31.9526 18.232C31.4006 17.664 30.5726 17.38 29.4686 17.38H27.6686V24.16ZM35.3389 17.716V16.624H36.5389V17.716H35.3389ZM35.4589 25V19.168H36.4309V25H35.4589ZM38.2479 27.16V19.168H39.1959V20.548H39.0759C39.2039 20.092 39.4559 19.732 39.8319 19.468C40.2159 19.196 40.6719 19.06 41.1999 19.06C41.7199 19.06 42.1719 19.184 42.5559 19.432C42.9479 19.672 43.2479 20.02 43.4559 20.476C43.6719 20.924 43.7799 21.46 43.7799 22.084C43.7799 22.7 43.6719 23.236 43.4559 23.692C43.2479 24.14 42.9519 24.488 42.5679 24.736C42.1839 24.984 41.7279 25.108 41.1999 25.108C40.6719 25.108 40.2199 24.976 39.8439 24.712C39.4679 24.44 39.2119 24.08 39.0759 23.632H39.2199V27.16H38.2479ZM40.9959 24.328C41.5479 24.328 41.9839 24.136 42.3039 23.752C42.6319 23.36 42.7959 22.804 42.7959 22.084C42.7959 21.356 42.6319 20.8 42.3039 20.416C41.9839 20.032 41.5479 19.84 40.9959 19.84C40.4519 19.84 40.0159 20.032 39.6879 20.416C39.3599 20.8 39.1959 21.356 39.1959 22.084C39.1959 22.804 39.3599 23.36 39.6879 23.752C40.0159 24.136 40.4519 24.328 40.9959 24.328ZM47.212 25.108C46.908 25.108 46.612 25.076 46.324 25.012C46.044 24.956 45.78 24.876 45.532 24.772C45.292 24.66 45.084 24.528 44.908 24.376L45.22 23.692C45.412 23.844 45.62 23.972 45.844 24.076C46.068 24.172 46.296 24.244 46.528 24.292C46.76 24.34 46.996 24.364 47.236 24.364C47.692 24.364 48.036 24.28 48.268 24.112C48.5 23.944 48.616 23.716 48.616 23.428C48.616 23.204 48.54 23.028 48.388 22.9C48.236 22.764 47.996 22.66 47.668 22.588L46.576 22.348C46.072 22.244 45.696 22.064 45.448 21.808C45.208 21.552 45.088 21.22 45.088 20.812C45.088 20.452 45.18 20.144 45.364 19.888C45.556 19.624 45.824 19.42 46.168 19.276C46.512 19.132 46.912 19.06 47.368 19.06C47.64 19.06 47.9 19.088 48.148 19.144C48.396 19.2 48.628 19.284 48.844 19.396C49.068 19.5 49.26 19.632 49.42 19.792L49.096 20.476C48.944 20.332 48.772 20.212 48.58 20.116C48.388 20.012 48.188 19.936 47.98 19.888C47.78 19.832 47.576 19.804 47.368 19.804C46.92 19.804 46.58 19.892 46.348 20.068C46.116 20.244 46 20.476 46 20.764C46 20.988 46.072 21.172 46.216 21.316C46.36 21.46 46.584 21.564 46.888 21.628L47.98 21.856C48.5 21.968 48.888 22.148 49.144 22.396C49.408 22.636 49.54 22.964 49.54 23.38C49.54 23.732 49.444 24.04 49.252 24.304C49.06 24.56 48.788 24.76 48.436 24.904C48.092 25.04 47.684 25.108 47.212 25.108ZM50.8068 25V23.776H52.0308V25H50.8068ZM56.9313 25V16.54H57.7593L61.1913 22.984H60.8313L64.2393 16.54H65.0673V25H64.1553V17.86H64.4433L61.3353 23.692H60.6873L57.5433 17.848H57.8313V25H56.9313ZM68.8769 25.108C68.4769 25.108 68.1169 25.032 67.7969 24.88C67.4849 24.72 67.2369 24.504 67.0529 24.232C66.8689 23.96 66.7769 23.656 66.7769 23.32C66.7769 22.888 66.8849 22.548 67.1009 22.3C67.3249 22.052 67.6889 21.876 68.1929 21.772C68.7049 21.668 69.4009 21.616 70.2809 21.616H70.8209V22.252H70.2929C69.8049 22.252 69.3969 22.268 69.0689 22.3C68.7409 22.332 68.4809 22.388 68.2889 22.468C68.0969 22.548 67.9609 22.652 67.8809 22.78C67.8009 22.908 67.7609 23.068 67.7609 23.26C67.7609 23.588 67.8729 23.856 68.0969 24.064C68.3289 24.272 68.6409 24.376 69.0329 24.376C69.3529 24.376 69.6329 24.3 69.8729 24.148C70.1209 23.996 70.3129 23.788 70.4489 23.524C70.5929 23.26 70.6649 22.956 70.6649 22.612V21.244C70.6649 20.748 70.5649 20.392 70.3649 20.176C70.1649 19.952 69.8369 19.84 69.3809 19.84C69.0289 19.84 68.6889 19.892 68.3609 19.996C68.0329 20.092 67.6969 20.252 67.3529 20.476L67.0169 19.768C67.2249 19.624 67.4609 19.5 67.7249 19.396C67.9889 19.284 68.2649 19.2 68.5529 19.144C68.8409 19.088 69.1169 19.06 69.3809 19.06C69.8849 19.06 70.3009 19.144 70.6289 19.312C70.9569 19.472 71.2009 19.72 71.3609 20.056C71.5209 20.384 71.6009 20.808 71.6009 21.328V25H70.6889V23.644H70.7969C70.7329 23.948 70.6089 24.208 70.4249 24.424C70.2489 24.64 70.0289 24.808 69.7649 24.928C69.5009 25.048 69.2049 25.108 68.8769 25.108ZM75.6242 25.108C75.1042 25.108 74.6482 24.984 74.2562 24.736C73.8722 24.488 73.5722 24.14 73.3562 23.692C73.1482 23.236 73.0442 22.7 73.0442 22.084C73.0442 21.46 73.1482 20.924 73.3562 20.476C73.5722 20.02 73.8722 19.672 74.2562 19.432C74.6482 19.184 75.1042 19.06 75.6242 19.06C76.1522 19.06 76.6042 19.192 76.9802 19.456C77.3562 19.72 77.6082 20.076 77.7362 20.524H77.6042V16.54H78.5762V25H77.6282V23.608H77.7482C77.6202 24.064 77.3642 24.428 76.9802 24.7C76.6042 24.972 76.1522 25.108 75.6242 25.108ZM75.8282 24.328C76.3802 24.328 76.8162 24.136 77.1362 23.752C77.4642 23.36 77.6282 22.804 77.6282 22.084C77.6282 21.356 77.4642 20.8 77.1362 20.416C76.8162 20.032 76.3802 19.84 75.8282 19.84C75.2842 19.84 74.8482 20.032 74.5202 20.416C74.1922 20.8 74.0282 21.356 74.0282 22.084C74.0282 22.804 74.1922 23.36 74.5202 23.752C74.8482 24.136 75.2842 24.328 75.8282 24.328ZM83.0283 25.108C82.4123 25.108 81.8803 24.988 81.4323 24.748C80.9923 24.5 80.6483 24.152 80.4003 23.704C80.1603 23.256 80.0403 22.72 80.0403 22.096C80.0403 21.488 80.1603 20.96 80.4003 20.512C80.6403 20.056 80.9683 19.7 81.3843 19.444C81.8083 19.188 82.2963 19.06 82.8483 19.06C83.3763 19.06 83.8283 19.176 84.2043 19.408C84.5803 19.64 84.8683 19.968 85.0683 20.392C85.2763 20.816 85.3803 21.324 85.3803 21.916V22.288H80.7843V21.652H84.7323L84.5403 21.808C84.5403 21.168 84.3963 20.672 84.1083 20.32C83.8283 19.96 83.4163 19.78 82.8723 19.78C82.4643 19.78 82.1163 19.876 81.8283 20.068C81.5483 20.252 81.3363 20.512 81.1923 20.848C81.0483 21.176 80.9763 21.56 80.9763 22V22.072C80.9763 22.56 81.0523 22.972 81.2043 23.308C81.3643 23.644 81.6003 23.9 81.9123 24.076C82.2243 24.244 82.5963 24.328 83.0283 24.328C83.3723 24.328 83.7043 24.276 84.0243 24.172C84.3523 24.06 84.6603 23.88 84.9483 23.632L85.2843 24.316C85.0203 24.556 84.6843 24.748 84.2763 24.892C83.8683 25.036 83.4523 25.108 83.0283 25.108ZM90.001 25V16.54H95.233V17.368H90.985V20.32H94.993V21.148H90.985V25H90.001ZM96.3261 25V19.168H97.2741V20.548H97.1541C97.2901 20.076 97.5261 19.72 97.8621 19.48C98.1981 19.232 98.6421 19.088 99.1941 19.048L99.5421 19.012L99.6141 19.852L99.0021 19.924C98.4581 19.972 98.0381 20.148 97.7421 20.452C97.4541 20.748 97.3101 21.156 97.3101 21.676V25H96.3261ZM102.981 25.108C102.413 25.108 101.921 24.984 101.505 24.736C101.089 24.488 100.765 24.14 100.533 23.692C100.309 23.236 100.197 22.7 100.197 22.084C100.197 21.468 100.309 20.936 100.533 20.488C100.765 20.032 101.089 19.68 101.505 19.432C101.921 19.184 102.413 19.06 102.981 19.06C103.549 19.06 104.041 19.184 104.457 19.432C104.873 19.68 105.193 20.032 105.417 20.488C105.649 20.936 105.765 21.468 105.765 22.084C105.765 22.7 105.649 23.236 105.417 23.692C105.193 24.14 104.873 24.488 104.457 24.736C104.041 24.984 103.549 25.108 102.981 25.108ZM102.981 24.328C103.533 24.328 103.969 24.136 104.289 23.752C104.617 23.36 104.781 22.8 104.781 22.072C104.781 21.352 104.617 20.8 104.289 20.416C103.969 20.032 103.533 19.84 102.981 19.84C102.437 19.84 102.001 20.032 101.673 20.416C101.345 20.8 101.181 21.352 101.181 22.072C101.181 22.8 101.345 23.36 101.673 23.752C102.001 24.136 102.437 24.328 102.981 24.328ZM107.249 25V19.168H108.197V20.464H108.065C108.161 20.168 108.301 19.916 108.485 19.708C108.677 19.492 108.901 19.332 109.157 19.228C109.421 19.116 109.709 19.06 110.021 19.06C110.517 19.06 110.917 19.18 111.221 19.42C111.533 19.652 111.741 20.016 111.845 20.512H111.665C111.809 20.064 112.065 19.712 112.433 19.456C112.809 19.192 113.245 19.06 113.741 19.06C114.181 19.06 114.541 19.144 114.821 19.312C115.109 19.48 115.325 19.736 115.469 20.08C115.613 20.416 115.685 20.844 115.685 21.364V25H114.713V21.412C114.713 20.876 114.621 20.484 114.437 20.236C114.253 19.98 113.941 19.852 113.501 19.852C113.189 19.852 112.913 19.928 112.673 20.08C112.441 20.232 112.261 20.448 112.133 20.728C112.013 21 111.953 21.324 111.953 21.7V25H110.981V21.412C110.981 20.876 110.885 20.484 110.693 20.236C110.509 19.98 110.201 19.852 109.769 19.852C109.449 19.852 109.173 19.928 108.941 20.08C108.709 20.232 108.529 20.448 108.401 20.728C108.281 21 108.221 21.324 108.221 21.7V25H107.249ZM120.716 25V16.54H123.572C124.492 16.54 125.268 16.704 125.9 17.032C126.54 17.352 127.024 17.828 127.352 18.46C127.688 19.084 127.856 19.852 127.856 20.764C127.856 21.676 127.688 22.448 127.352 23.08C127.024 23.712 126.54 24.192 125.9 24.52C125.268 24.84 124.492 25 123.572 25H120.716ZM121.7 24.16H123.5C124.612 24.16 125.44 23.876 125.984 23.308C126.536 22.74 126.812 21.892 126.812 20.764C126.812 19.636 126.536 18.792 125.984 18.232C125.432 17.664 124.604 17.38 123.5 17.38H121.7V24.16ZM131.554 25.108C131.082 25.108 130.69 25.024 130.378 24.856C130.074 24.68 129.842 24.42 129.682 24.076C129.53 23.732 129.454 23.304 129.454 22.792V19.168H130.426V22.78C130.426 23.124 130.47 23.412 130.558 23.644C130.654 23.868 130.802 24.036 131.002 24.148C131.202 24.252 131.45 24.304 131.746 24.304C132.082 24.304 132.374 24.228 132.622 24.076C132.87 23.924 133.066 23.712 133.21 23.44C133.354 23.168 133.426 22.848 133.426 22.48V19.168H134.398V25H133.45V23.656H133.606C133.446 24.128 133.182 24.488 132.814 24.736C132.454 24.984 132.034 25.108 131.554 25.108ZM136.217 25V19.168H137.165V20.548H137.045C137.181 20.076 137.417 19.72 137.753 19.48C138.089 19.232 138.533 19.088 139.085 19.048L139.433 19.012L139.505 19.852L138.893 19.924C138.349 19.972 137.929 20.148 137.633 20.452C137.345 20.748 137.201 21.156 137.201 21.676V25H136.217ZM142.295 25.108C141.895 25.108 141.535 25.032 141.215 24.88C140.903 24.72 140.655 24.504 140.471 24.232C140.287 23.96 140.195 23.656 140.195 23.32C140.195 22.888 140.303 22.548 140.519 22.3C140.743 22.052 141.107 21.876 141.611 21.772C142.123 21.668 142.819 21.616 143.699 21.616H144.239V22.252H143.711C143.223 22.252 142.815 22.268 142.487 22.3C142.159 22.332 141.899 22.388 141.707 22.468C141.515 22.548 141.379 22.652 141.299 22.78C141.219 22.908 141.179 23.068 141.179 23.26C141.179 23.588 141.291 23.856 141.515 24.064C141.747 24.272 142.059 24.376 142.451 24.376C142.771 24.376 143.051 24.3 143.291 24.148C143.539 23.996 143.731 23.788 143.867 23.524C144.011 23.26 144.083 22.956 144.083 22.612V21.244C144.083 20.748 143.983 20.392 143.783 20.176C143.583 19.952 143.255 19.84 142.799 19.84C142.447 19.84 142.107 19.892 141.779 19.996C141.451 20.092 141.115 20.252 140.771 20.476L140.435 19.768C140.643 19.624 140.879 19.5 141.143 19.396C141.407 19.284 141.683 19.2 141.971 19.144C142.259 19.088 142.535 19.06 142.799 19.06C143.303 19.06 143.719 19.144 144.047 19.312C144.375 19.472 144.619 19.72 144.779 20.056C144.939 20.384 145.019 20.808 145.019 21.328V25H144.107V23.644H144.215C144.151 23.948 144.027 24.208 143.843 24.424C143.667 24.64 143.447 24.808 143.183 24.928C142.919 25.048 142.623 25.108 142.295 25.108ZM149.774 25.108C149.246 25.108 148.79 24.972 148.406 24.7C148.03 24.428 147.778 24.064 147.65 23.608H147.77V25H146.822V16.54H147.794V20.524H147.65C147.786 20.076 148.042 19.72 148.418 19.456C148.794 19.192 149.246 19.06 149.774 19.06C150.302 19.06 150.758 19.184 151.142 19.432C151.526 19.672 151.822 20.02 152.03 20.476C152.246 20.924 152.354 21.46 152.354 22.084C152.354 22.7 152.246 23.236 152.03 23.692C151.822 24.14 151.522 24.488 151.13 24.736C150.746 24.984 150.294 25.108 149.774 25.108ZM149.57 24.328C150.122 24.328 150.558 24.136 150.878 23.752C151.206 23.36 151.37 22.804 151.37 22.084C151.37 21.356 151.206 20.8 150.878 20.416C150.558 20.032 150.122 19.84 149.57 19.84C149.026 19.84 148.59 20.032 148.262 20.416C147.934 20.8 147.77 21.356 147.77 22.084C147.77 22.804 147.934 23.36 148.262 23.752C148.59 24.136 149.026 24.328 149.57 24.328ZM155.606 25.108C155.014 25.108 154.566 24.932 154.262 24.58C153.966 24.228 153.818 23.724 153.818 23.068V16.54H154.79V22.996C154.79 23.276 154.826 23.512 154.898 23.704C154.978 23.896 155.094 24.04 155.246 24.136C155.398 24.232 155.586 24.28 155.81 24.28C155.906 24.28 155.998 24.276 156.086 24.268C156.182 24.252 156.27 24.232 156.35 24.208L156.326 25.024C156.198 25.048 156.074 25.068 155.954 25.084C155.842 25.1 155.726 25.108 155.606 25.108ZM159.938 25.108C159.322 25.108 158.79 24.988 158.342 24.748C157.902 24.5 157.558 24.152 157.31 23.704C157.07 23.256 156.95 22.72 156.95 22.096C156.95 21.488 157.07 20.96 157.31 20.512C157.55 20.056 157.878 19.7 158.294 19.444C158.718 19.188 159.206 19.06 159.758 19.06C160.286 19.06 160.738 19.176 161.114 19.408C161.49 19.64 161.778 19.968 161.978 20.392C162.186 20.816 162.29 21.324 162.29 21.916V22.288H157.694V21.652H161.642L161.45 21.808C161.45 21.168 161.306 20.672 161.018 20.32C160.738 19.96 160.326 19.78 159.782 19.78C159.374 19.78 159.026 19.876 158.738 20.068C158.458 20.252 158.246 20.512 158.102 20.848C157.958 21.176 157.886 21.56 157.886 22V22.072C157.886 22.56 157.962 22.972 158.114 23.308C158.274 23.644 158.51 23.9 158.822 24.076C159.134 24.244 159.506 24.328 159.938 24.328C160.282 24.328 160.614 24.276 160.934 24.172C161.262 24.06 161.57 23.88 161.858 23.632L162.194 24.316C161.93 24.556 161.594 24.748 161.186 24.892C160.778 25.036 160.362 25.108 159.938 25.108ZM164.045 26.368L163.589 26.02C163.733 25.868 163.841 25.724 163.913 25.588C163.993 25.46 164.045 25.328 164.069 25.192C164.101 25.064 164.117 24.932 164.117 24.796L164.333 25H163.541V23.776H164.765V24.64C164.765 24.856 164.741 25.06 164.693 25.252C164.653 25.452 164.581 25.644 164.477 25.828C164.373 26.012 164.229 26.192 164.045 26.368ZM169.642 25V16.54H174.874V17.368H170.626V20.32H174.634V21.148H170.626V25H169.642ZM178.285 25.108C177.717 25.108 177.225 24.984 176.809 24.736C176.393 24.488 176.069 24.14 175.837 23.692C175.613 23.236 175.501 22.7 175.501 22.084C175.501 21.468 175.613 20.936 175.837 20.488C176.069 20.032 176.393 19.68 176.809 19.432C177.225 19.184 177.717 19.06 178.285 19.06C178.853 19.06 179.345 19.184 179.761 19.432C180.177 19.68 180.497 20.032 180.721 20.488C180.953 20.936 181.069 21.468 181.069 22.084C181.069 22.7 180.953 23.236 180.721 23.692C180.497 24.14 180.177 24.488 179.761 24.736C179.345 24.984 178.853 25.108 178.285 25.108ZM178.285 24.328C178.837 24.328 179.273 24.136 179.593 23.752C179.921 23.36 180.085 22.8 180.085 22.072C180.085 21.352 179.921 20.8 179.593 20.416C179.273 20.032 178.837 19.84 178.285 19.84C177.741 19.84 177.305 20.032 176.977 20.416C176.649 20.8 176.485 21.352 176.485 22.072C176.485 22.8 176.649 23.36 176.977 23.752C177.305 24.136 177.741 24.328 178.285 24.328ZM184.953 25.108C184.385 25.108 183.893 24.984 183.477 24.736C183.061 24.488 182.737 24.14 182.505 23.692C182.281 23.236 182.169 22.7 182.169 22.084C182.169 21.468 182.281 20.936 182.505 20.488C182.737 20.032 183.061 19.68 183.477 19.432C183.893 19.184 184.385 19.06 184.953 19.06C185.521 19.06 186.013 19.184 186.429 19.432C186.845 19.68 187.165 20.032 187.389 20.488C187.621 20.936 187.737 21.468 187.737 22.084C187.737 22.7 187.621 23.236 187.389 23.692C187.165 24.14 186.845 24.488 186.429 24.736C186.013 24.984 185.521 25.108 184.953 25.108ZM184.953 24.328C185.505 24.328 185.941 24.136 186.261 23.752C186.589 23.36 186.753 22.8 186.753 22.072C186.753 21.352 186.589 20.8 186.261 20.416C185.941 20.032 185.505 19.84 184.953 19.84C184.409 19.84 183.973 20.032 183.645 20.416C183.317 20.8 183.153 21.352 183.153 22.072C183.153 22.8 183.317 23.36 183.645 23.752C183.973 24.136 184.409 24.328 184.953 24.328ZM191.417 25.108C190.897 25.108 190.441 24.984 190.049 24.736C189.665 24.488 189.365 24.14 189.149 23.692C188.941 23.236 188.837 22.7 188.837 22.084C188.837 21.46 188.941 20.924 189.149 20.476C189.365 20.02 189.665 19.672 190.049 19.432C190.441 19.184 190.897 19.06 191.417 19.06C191.945 19.06 192.397 19.192 192.773 19.456C193.149 19.72 193.401 20.076 193.529 20.524H193.397V16.54H194.369V25H193.421V23.608H193.541C193.413 24.064 193.157 24.428 192.773 24.7C192.397 24.972 191.945 25.108 191.417 25.108ZM191.621 24.328C192.173 24.328 192.609 24.136 192.929 23.752C193.257 23.36 193.421 22.804 193.421 22.084C193.421 21.356 193.257 20.8 192.929 20.416C192.609 20.032 192.173 19.84 191.621 19.84C191.077 19.84 190.641 20.032 190.313 20.416C189.985 20.8 189.821 21.356 189.821 22.084C189.821 22.804 189.985 23.36 190.313 23.752C190.641 24.136 191.077 24.328 191.621 24.328ZM196.145 22.204V21.4H199.505V22.204H196.145ZM205.275 25.108C204.371 25.108 203.607 24.936 202.983 24.592C202.367 24.248 201.899 23.752 201.579 23.104C201.259 22.456 201.099 21.68 201.099 20.776C201.099 19.88 201.259 19.108 201.579 18.46C201.899 17.812 202.359 17.312 202.959 16.96C203.559 16.608 204.283 16.432 205.131 16.432C205.531 16.432 205.907 16.472 206.259 16.552C206.619 16.632 206.951 16.752 207.255 16.912C207.567 17.064 207.839 17.256 208.071 17.488L207.687 18.28C207.303 17.944 206.907 17.7 206.499 17.548C206.091 17.396 205.631 17.32 205.119 17.32C204.151 17.32 203.411 17.62 202.899 18.22C202.395 18.82 202.143 19.672 202.143 20.776C202.143 21.896 202.403 22.752 202.923 23.344C203.451 23.936 204.243 24.232 205.299 24.232C205.683 24.232 206.059 24.196 206.427 24.124C206.795 24.044 207.143 23.936 207.471 23.8L207.255 24.364V21.376H205.107V20.596H208.107V24.508C207.891 24.62 207.623 24.724 207.303 24.82C206.983 24.908 206.647 24.976 206.295 25.024C205.943 25.08 205.603 25.108 205.275 25.108ZM209.986 25V19.168H210.934V20.548H210.814C210.95 20.076 211.186 19.72 211.522 19.48C211.858 19.232 212.302 19.088 212.854 19.048L213.202 19.012L213.274 19.852L212.662 19.924C212.118 19.972 211.698 20.148 211.402 20.452C211.114 20.748 210.97 21.156 210.97 21.676V25H209.986ZM216.064 25.108C215.664 25.108 215.304 25.032 214.984 24.88C214.672 24.72 214.424 24.504 214.24 24.232C214.056 23.96 213.964 23.656 213.964 23.32C213.964 22.888 214.072 22.548 214.288 22.3C214.512 22.052 214.876 21.876 215.38 21.772C215.892 21.668 216.588 21.616 217.468 21.616H218.008V22.252H217.48C216.992 22.252 216.584 22.268 216.256 22.3C215.928 22.332 215.668 22.388 215.476 22.468C215.284 22.548 215.148 22.652 215.068 22.78C214.988 22.908 214.948 23.068 214.948 23.26C214.948 23.588 215.06 23.856 215.284 24.064C215.516 24.272 215.828 24.376 216.22 24.376C216.54 24.376 216.82 24.3 217.06 24.148C217.308 23.996 217.5 23.788 217.636 23.524C217.78 23.26 217.852 22.956 217.852 22.612V21.244C217.852 20.748 217.752 20.392 217.552 20.176C217.352 19.952 217.024 19.84 216.568 19.84C216.216 19.84 215.876 19.892 215.548 19.996C215.22 20.092 214.884 20.252 214.54 20.476L214.204 19.768C214.412 19.624 214.648 19.5 214.912 19.396C215.176 19.284 215.452 19.2 215.74 19.144C216.028 19.088 216.304 19.06 216.568 19.06C217.072 19.06 217.488 19.144 217.816 19.312C218.144 19.472 218.388 19.72 218.548 20.056C218.708 20.384 218.788 20.808 218.788 21.328V25H217.876V23.644H217.984C217.92 23.948 217.796 24.208 217.612 24.424C217.436 24.64 217.216 24.808 216.952 24.928C216.688 25.048 216.392 25.108 216.064 25.108ZM222.812 25.108C222.292 25.108 221.836 24.984 221.444 24.736C221.06 24.488 220.76 24.14 220.544 23.692C220.336 23.236 220.232 22.7 220.232 22.084C220.232 21.46 220.336 20.924 220.544 20.476C220.76 20.02 221.06 19.672 221.444 19.432C221.836 19.184 222.292 19.06 222.812 19.06C223.34 19.06 223.792 19.192 224.168 19.456C224.544 19.72 224.796 20.076 224.924 20.524H224.792V16.54H225.764V25H224.816V23.608H224.936C224.808 24.064 224.552 24.428 224.168 24.7C223.792 24.972 223.34 25.108 222.812 25.108ZM223.016 24.328C223.568 24.328 224.004 24.136 224.324 23.752C224.652 23.36 224.816 22.804 224.816 22.084C224.816 21.356 224.652 20.8 224.324 20.416C224.004 20.032 223.568 19.84 223.016 19.84C222.472 19.84 222.036 20.032 221.708 20.416C221.38 20.8 221.216 21.356 221.216 22.084C221.216 22.804 221.38 23.36 221.708 23.752C222.036 24.136 222.472 24.328 223.016 24.328ZM230.216 25.108C229.6 25.108 229.068 24.988 228.62 24.748C228.18 24.5 227.836 24.152 227.588 23.704C227.348 23.256 227.228 22.72 227.228 22.096C227.228 21.488 227.348 20.96 227.588 20.512C227.828 20.056 228.156 19.7 228.572 19.444C228.996 19.188 229.484 19.06 230.036 19.06C230.564 19.06 231.016 19.176 231.392 19.408C231.768 19.64 232.056 19.968 232.256 20.392C232.464 20.816 232.568 21.324 232.568 21.916V22.288H227.972V21.652H231.92L231.728 21.808C231.728 21.168 231.584 20.672 231.296 20.32C231.016 19.96 230.604 19.78 230.06 19.78C229.652 19.78 229.304 19.876 229.016 20.068C228.736 20.252 228.524 20.512 228.38 20.848C228.236 21.176 228.164 21.56 228.164 22V22.072C228.164 22.56 228.24 22.972 228.392 23.308C228.552 23.644 228.788 23.9 229.1 24.076C229.412 24.244 229.784 24.328 230.216 24.328C230.56 24.328 230.892 24.276 231.212 24.172C231.54 24.06 231.848 23.88 232.136 23.632L232.472 24.316C232.208 24.556 231.872 24.748 231.464 24.892C231.056 25.036 230.64 25.108 230.216 25.108ZM237.189 25V16.54H240.537C241.145 16.54 241.657 16.64 242.073 16.84C242.497 17.032 242.817 17.32 243.033 17.704C243.249 18.08 243.357 18.54 243.357 19.084C243.357 19.612 243.249 20.068 243.033 20.452C242.817 20.836 242.497 21.128 242.073 21.328C241.657 21.528 241.145 21.628 240.537 21.628H238.173V25H237.189ZM238.173 20.8H240.417C241.065 20.8 241.553 20.656 241.881 20.368C242.217 20.072 242.385 19.644 242.385 19.084C242.385 18.516 242.217 18.088 241.881 17.8C241.553 17.504 241.065 17.356 240.417 17.356H238.173V20.8ZM246.438 25.108C245.846 25.108 245.398 24.932 245.094 24.58C244.798 24.228 244.65 23.724 244.65 23.068V16.54H245.622V22.996C245.622 23.276 245.658 23.512 245.73 23.704C245.81 23.896 245.926 24.04 246.078 24.136C246.23 24.232 246.418 24.28 246.642 24.28C246.738 24.28 246.83 24.276 246.918 24.268C247.014 24.252 247.102 24.232 247.182 24.208L247.158 25.024C247.03 25.048 246.906 25.068 246.786 25.084C246.674 25.1 246.558 25.108 246.438 25.108ZM250.037 25.108C249.637 25.108 249.277 25.032 248.957 24.88C248.645 24.72 248.397 24.504 248.213 24.232C248.029 23.96 247.937 23.656 247.937 23.32C247.937 22.888 248.045 22.548 248.261 22.3C248.485 22.052 248.849 21.876 249.353 21.772C249.865 21.668 250.561 21.616 251.441 21.616H251.981V22.252H251.453C250.965 22.252 250.557 22.268 250.229 22.3C249.901 22.332 249.641 22.388 249.449 22.468C249.257 22.548 249.121 22.652 249.041 22.78C248.961 22.908 248.921 23.068 248.921 23.26C248.921 23.588 249.033 23.856 249.257 24.064C249.489 24.272 249.801 24.376 250.193 24.376C250.513 24.376 250.793 24.3 251.033 24.148C251.281 23.996 251.473 23.788 251.609 23.524C251.753 23.26 251.825 22.956 251.825 22.612V21.244C251.825 20.748 251.725 20.392 251.525 20.176C251.325 19.952 250.997 19.84 250.541 19.84C250.189 19.84 249.849 19.892 249.521 19.996C249.193 20.092 248.857 20.252 248.513 20.476L248.177 19.768C248.385 19.624 248.621 19.5 248.885 19.396C249.149 19.284 249.425 19.2 249.713 19.144C250.001 19.088 250.277 19.06 250.541 19.06C251.045 19.06 251.461 19.144 251.789 19.312C252.117 19.472 252.361 19.72 252.521 20.056C252.681 20.384 252.761 20.808 252.761 21.328V25H251.849V23.644H251.957C251.893 23.948 251.769 24.208 251.585 24.424C251.409 24.64 251.189 24.808 250.925 24.928C250.661 25.048 250.365 25.108 250.037 25.108ZM256.532 25.108C256.228 25.108 255.932 25.076 255.644 25.012C255.364 24.956 255.1 24.876 254.852 24.772C254.612 24.66 254.404 24.528 254.228 24.376L254.54 23.692C254.732 23.844 254.94 23.972 255.164 24.076C255.388 24.172 255.616 24.244 255.848 24.292C256.08 24.34 256.316 24.364 256.556 24.364C257.012 24.364 257.356 24.28 257.588 24.112C257.82 23.944 257.936 23.716 257.936 23.428C257.936 23.204 257.86 23.028 257.708 22.9C257.556 22.764 257.316 22.66 256.988 22.588L255.896 22.348C255.392 22.244 255.016 22.064 254.768 21.808C254.528 21.552 254.408 21.22 254.408 20.812C254.408 20.452 254.5 20.144 254.684 19.888C254.876 19.624 255.144 19.42 255.488 19.276C255.832 19.132 256.232 19.06 256.688 19.06C256.96 19.06 257.22 19.088 257.468 19.144C257.716 19.2 257.948 19.284 258.164 19.396C258.388 19.5 258.58 19.632 258.74 19.792L258.416 20.476C258.264 20.332 258.092 20.212 257.9 20.116C257.708 20.012 257.508 19.936 257.3 19.888C257.1 19.832 256.896 19.804 256.688 19.804C256.24 19.804 255.9 19.892 255.668 20.068C255.436 20.244 255.32 20.476 255.32 20.764C255.32 20.988 255.392 21.172 255.536 21.316C255.68 21.46 255.904 21.564 256.208 21.628L257.3 21.856C257.82 21.968 258.208 22.148 258.464 22.396C258.728 22.636 258.86 22.964 258.86 23.38C258.86 23.732 258.764 24.04 258.572 24.304C258.38 24.56 258.108 24.76 257.756 24.904C257.412 25.04 257.004 25.108 256.532 25.108ZM262.623 25.108C261.935 25.108 261.419 24.924 261.075 24.556C260.731 24.188 260.559 23.664 260.559 22.984V19.924H259.419V19.168H260.559V17.38H261.531V19.168H263.379V19.924H261.531V22.888C261.531 23.344 261.627 23.692 261.819 23.932C262.011 24.164 262.323 24.28 262.755 24.28C262.883 24.28 263.011 24.264 263.139 24.232C263.267 24.2 263.383 24.168 263.487 24.136L263.655 24.88C263.551 24.936 263.399 24.988 263.199 25.036C262.999 25.084 262.807 25.108 262.623 25.108ZM264.358 17.716V16.624H265.558V17.716H264.358ZM264.478 25V19.168H265.45V25H264.478ZM269.739 25.108C269.155 25.108 268.651 24.98 268.227 24.724C267.803 24.468 267.475 24.112 267.243 23.656C267.019 23.192 266.907 22.656 266.907 22.048C266.907 21.432 267.019 20.9 267.243 20.452C267.475 20.004 267.803 19.66 268.227 19.42C268.651 19.18 269.155 19.06 269.739 19.06C270.099 19.06 270.455 19.124 270.807 19.252C271.159 19.38 271.451 19.56 271.683 19.792L271.347 20.5C271.115 20.276 270.859 20.112 270.579 20.008C270.307 19.904 270.047 19.852 269.799 19.852C269.191 19.852 268.723 20.044 268.395 20.428C268.067 20.804 267.903 21.348 267.903 22.06C267.903 22.756 268.067 23.308 268.395 23.716C268.723 24.116 269.191 24.316 269.799 24.316C270.047 24.316 270.307 24.264 270.579 24.16C270.859 24.056 271.115 23.888 271.347 23.656L271.683 24.364C271.451 24.596 271.155 24.78 270.795 24.916C270.443 25.044 270.091 25.108 269.739 25.108ZM273.287 26.368L272.831 26.02C272.975 25.868 273.083 25.724 273.155 25.588C273.235 25.46 273.287 25.328 273.311 25.192C273.343 25.064 273.359 24.932 273.359 24.796L273.575 25H272.783V23.776H274.007V24.64C274.007 24.856 273.983 25.06 273.935 25.252C273.895 25.452 273.823 25.644 273.719 25.828C273.615 26.012 273.471 26.192 273.287 26.368ZM278.884 25V16.54H279.868V25H278.884ZM284.162 25.108C283.474 25.108 282.958 24.924 282.614 24.556C282.27 24.188 282.098 23.664 282.098 22.984V19.924H280.958V19.168H282.098V17.38H283.07V19.168H284.918V19.924H283.07V22.888C283.07 23.344 283.166 23.692 283.358 23.932C283.55 24.164 283.862 24.28 284.294 24.28C284.422 24.28 284.55 24.264 284.678 24.232C284.806 24.2 284.922 24.168 285.026 24.136L285.194 24.88C285.09 24.936 284.938 24.988 284.738 25.036C284.538 25.084 284.346 25.108 284.162 25.108Z" fill="black"/>
</svg>
