<svg width="90" height="82" viewBox="0 0 90 82" fill="none" xmlns="http://www.w3.org/2000/svg">
<g filter="url(#filter0_d_271_506)">
<rect x="4" y="24" width="82" height="50" rx="2" fill="#EBDBBA"/>
<rect x="4.25" y="24.25" width="81.5" height="49.5" rx="1.75" stroke="#EBDBBA" stroke-width="0.5"/>
</g>
<rect x="29.834" width="30.2083" height="30.2083" rx="3" fill="#CB3335"/>
<g clip-path="url(#clip0_271_506)">
<path d="M52.5908 17.8232L49.9476 12.5368H50.6771C50.8173 12.5368 50.9518 12.4811 51.0509 12.3819C51.15 12.2828 51.2057 12.1483 51.2057 12.0081C51.2057 11.8679 51.15 11.7335 51.0509 11.6343C50.9518 11.5352 50.8173 11.4795 50.6771 11.4795H49.8418C49.2739 10.8609 48.5895 10.3604 47.8279 10.0066C47.0663 9.6528 46.2424 9.45271 45.4033 9.41777L45.3906 9.36491C45.3906 9.0845 45.2792 8.81557 45.081 8.61729C44.8827 8.41901 44.6137 8.30762 44.3333 8.30762C44.0529 8.30762 43.784 8.41901 43.5857 8.61729C43.3874 8.81557 43.276 9.0845 43.276 9.36491V9.41777C41.5673 9.48883 39.9548 10.2281 38.7857 11.4763L37.9896 11.4795C37.8494 11.4795 37.7149 11.5352 37.6158 11.6343C37.5166 11.7335 37.4609 11.8679 37.4609 12.0081C37.4609 12.1483 37.5166 12.2828 37.6158 12.3819C37.7149 12.4811 37.8494 12.5368 37.9896 12.5368H38.7191L36.0759 17.8232H35.875C35.875 18.9863 37.2918 19.9378 39.0469 19.9378C40.802 19.9378 42.2188 18.9863 42.2188 17.8232H42.0179L39.3218 12.4416C39.3886 12.4024 39.446 12.349 39.4899 12.2851C39.9575 11.7357 40.5359 11.2913 41.1874 10.9812C41.8388 10.6711 42.5484 10.5022 43.2697 10.4856L43.276 22.0524H42.2188V23.1097H40.1042V24.167H48.5625V23.1097H46.4479V22.0524H45.3906V10.4856C46.1038 10.4991 46.8056 10.666 47.4485 10.9748C48.0914 11.2837 48.6603 11.7274 49.1165 12.2756C49.1654 12.3585 49.2359 12.4265 49.3206 12.4723L46.6488 17.8232H46.4479C46.4479 18.9863 47.8647 19.9378 49.6198 19.9378C51.3749 19.9378 52.7917 18.9863 52.7917 17.8232H52.5908ZM41.1615 17.8232H36.9323L39.0469 13.6575L41.1615 17.8232ZM47.5052 17.8232L49.6198 13.6575L51.7344 17.8232H47.5052Z" fill="#EBDBBA"/>
</g>
<rect width="45" height="23" transform="translate(23 37)" fill="#EBDBBA"/>
<path d="M33.168 45L31.36 39.36H32.112L33.584 44.144H33.512L35.152 39.36H35.736L37.36 44.144H37.304L38.792 39.36H39.512L37.696 45H37.016L35.424 40.344H35.456L33.832 45H33.168ZM42.0223 45.072C41.5796 45.072 41.1956 44.992 40.8703 44.832C40.5503 44.6667 40.3049 44.432 40.1343 44.128C39.9636 43.8187 39.8783 43.4507 39.8783 43.024C39.8783 42.624 39.9583 42.272 40.1183 41.968C40.2783 41.6587 40.5049 41.416 40.7983 41.24C41.0916 41.064 41.4409 40.976 41.8463 40.976C42.2303 40.976 42.5556 41.0587 42.8223 41.224C43.0943 41.3893 43.2996 41.6213 43.4383 41.92C43.5823 42.2187 43.6543 42.5733 43.6543 42.984V43.216H40.4143V42.72H43.1903L43.0383 42.88C43.0383 42.4427 42.9343 42.1067 42.7263 41.872C42.5236 41.6373 42.2303 41.52 41.8463 41.52C41.5956 41.52 41.3716 41.5787 41.1743 41.696C40.9823 41.808 40.8329 41.968 40.7263 42.176C40.6196 42.384 40.5663 42.6373 40.5663 42.936V43.016C40.5663 43.336 40.6249 43.6053 40.7423 43.824C40.8596 44.0427 41.0276 44.208 41.2463 44.32C41.4649 44.432 41.7263 44.488 42.0303 44.488C42.2489 44.488 42.4703 44.4587 42.6943 44.4C42.9236 44.336 43.1369 44.224 43.3343 44.064L43.5743 44.576C43.3716 44.7467 43.1289 44.872 42.8463 44.952C42.5689 45.032 42.2943 45.072 42.0223 45.072ZM44.7492 40.096V39.304H45.6132V40.096H44.7492ZM44.8292 45V41.048H45.5412V45H44.8292ZM48.674 46.512C48.3593 46.512 48.0473 46.464 47.738 46.368C47.4287 46.2773 47.1647 46.152 46.946 45.992L47.17 45.44C47.3193 45.536 47.4767 45.6187 47.642 45.688C47.8073 45.7627 47.9753 45.816 48.146 45.848C48.322 45.8853 48.4953 45.904 48.666 45.904C49.0767 45.904 49.3967 45.8 49.626 45.592C49.8607 45.384 49.978 45.088 49.978 44.704V43.976H49.962C49.866 44.248 49.6927 44.4693 49.442 44.64C49.1913 44.8053 48.9007 44.888 48.57 44.888C48.1967 44.888 47.8713 44.808 47.594 44.648C47.3167 44.4827 47.1007 44.2533 46.946 43.96C46.7967 43.6667 46.722 43.3227 46.722 42.928C46.722 42.5387 46.7967 42.1973 46.946 41.904C47.1007 41.6107 47.3167 41.384 47.594 41.224C47.8713 41.0587 48.1967 40.976 48.57 40.976C48.9007 40.976 49.1913 41.0613 49.442 41.232C49.698 41.4027 49.874 41.6293 49.97 41.912H49.978V41.048H50.642V44.64C50.642 45.024 50.562 45.3547 50.402 45.632C50.2473 45.9147 50.0233 46.1307 49.73 46.28C49.4367 46.4347 49.0847 46.512 48.674 46.512ZM48.69 44.304C49.0793 44.304 49.386 44.1787 49.61 43.928C49.8393 43.6773 49.954 43.344 49.954 42.928C49.954 42.512 49.8393 42.1813 49.61 41.936C49.386 41.6853 49.0793 41.56 48.69 41.56C48.306 41.56 47.9993 41.6853 47.77 41.936C47.546 42.1813 47.434 42.512 47.434 42.928C47.434 43.344 47.546 43.6773 47.77 43.928C47.9993 44.1787 48.306 44.304 48.69 44.304ZM52.0636 45V39.36H52.7516V41.888C52.8689 41.6053 53.0529 41.384 53.3036 41.224C53.5596 41.0587 53.8476 40.976 54.1676 40.976C54.4929 40.976 54.7649 41.0347 54.9836 41.152C55.2022 41.264 55.3649 41.44 55.4716 41.68C55.5836 41.9147 55.6396 42.208 55.6396 42.56V45H54.9276V42.6C54.9276 42.3867 54.8956 42.2053 54.8316 42.056C54.7729 41.9067 54.6769 41.792 54.5436 41.712C54.4102 41.6267 54.2316 41.584 54.0076 41.584C53.7729 41.584 53.5622 41.6373 53.3756 41.744C53.1889 41.8507 53.0422 41.9947 52.9356 42.176C52.8289 42.3573 52.7756 42.56 52.7756 42.784V45H52.0636ZM58.7119 45.072C58.2373 45.072 57.8773 44.9467 57.6319 44.696C57.3919 44.4453 57.2719 44.088 57.2719 43.624V41.632H56.4719V41.048H57.2959V39.872H57.9839V41.048H59.3999V41.632H57.9839V43.56C57.9839 43.864 58.0506 44.0907 58.1839 44.24C58.3226 44.384 58.5333 44.456 58.8159 44.456C58.9279 44.456 59.0346 44.4453 59.1359 44.424C59.2426 44.4027 59.3439 44.3707 59.4399 44.328L59.5519 44.888C59.4453 44.9467 59.3146 44.992 59.1599 45.024C59.0106 45.056 58.8613 45.072 58.7119 45.072Z" fill="#CE3439"/>
<path d="M23.236 58V57.392H24.78V52.928L25.156 52.984L23.516 54.04L23.196 53.488L24.964 52.36H25.484V57.392H26.908V58H23.236ZM29.6169 58.072C29.3822 58.072 29.1502 58.048 28.9209 58C28.6915 57.952 28.4729 57.8773 28.2649 57.776C28.0622 57.6747 27.8755 57.5493 27.7049 57.4L27.9769 56.84C28.2329 57.0587 28.4995 57.216 28.7769 57.312C29.0542 57.4027 29.3342 57.448 29.6169 57.448C29.8515 57.448 30.0622 57.4133 30.2489 57.344C30.4409 57.2693 30.5902 57.16 30.6969 57.016C30.8089 56.8667 30.8649 56.6747 30.8649 56.44C30.8649 56.1147 30.7555 55.8693 30.5369 55.704C30.3182 55.5333 30.0009 55.448 29.5849 55.448H28.7369V54.832H29.4809C29.7209 54.832 29.9342 54.7947 30.1209 54.72C30.3129 54.64 30.4622 54.5227 30.5689 54.368C30.6755 54.2133 30.7289 54.0213 30.7289 53.792C30.7289 53.4987 30.6275 53.28 30.4249 53.136C30.2222 52.9867 29.9609 52.912 29.6409 52.912C29.3582 52.912 29.0809 52.96 28.8089 53.056C28.5422 53.152 28.2969 53.3173 28.0729 53.552L27.8089 53C28.0329 52.76 28.3102 52.5813 28.6409 52.464C28.9715 52.3467 29.3155 52.288 29.6729 52.288C30.0302 52.288 30.3369 52.3467 30.5929 52.464C30.8542 52.576 31.0569 52.7413 31.2009 52.96C31.3449 53.1733 31.4169 53.432 31.4169 53.736C31.4169 54.056 31.3262 54.3387 31.1449 54.584C30.9635 54.8293 30.7182 55.0027 30.4089 55.104V55.096C30.6329 55.1387 30.8302 55.2213 31.0009 55.344C31.1715 55.4613 31.3075 55.616 31.4089 55.808C31.5102 55.9947 31.5609 56.216 31.5609 56.472C31.5609 56.808 31.4782 57.096 31.3129 57.336C31.1529 57.576 30.9262 57.76 30.6329 57.888C30.3449 58.0107 30.0062 58.072 29.6169 58.072ZM32.6698 58V57.12H33.5818V58H32.6698ZM36.5563 58.072C35.9269 58.072 35.4309 57.936 35.0683 57.664C34.7056 57.3867 34.5243 57.0027 34.5243 56.512C34.5243 56.2613 34.5723 56.04 34.6683 55.848C34.7696 55.6507 34.9083 55.4907 35.0843 55.368C35.2656 55.24 35.4736 55.1547 35.7083 55.112V55.12C35.5056 55.072 35.3243 54.984 35.1643 54.856C35.0096 54.728 34.8869 54.5733 34.7963 54.392C34.7056 54.2107 34.6603 54.0107 34.6603 53.792C34.6603 53.3227 34.8309 52.9547 35.1723 52.688C35.5189 52.4213 35.9803 52.288 36.5563 52.288C37.1323 52.288 37.5909 52.4213 37.9323 52.688C38.2789 52.9547 38.4523 53.3227 38.4523 53.792C38.4523 54.0053 38.4069 54.2053 38.3163 54.392C38.2256 54.5733 38.1003 54.728 37.9403 54.856C37.7856 54.984 37.6043 55.072 37.3963 55.12V55.112C37.6256 55.1493 37.8283 55.232 38.0043 55.36C38.1856 55.488 38.3269 55.6507 38.4283 55.848C38.5349 56.04 38.5883 56.2613 38.5883 56.512C38.5883 57.0027 38.4069 57.3867 38.0443 57.664C37.6869 57.936 37.1909 58.072 36.5563 58.072ZM36.5563 57.472C36.9989 57.472 37.3349 57.3867 37.5643 57.216C37.7989 57.0453 37.9163 56.7947 37.9163 56.464C37.9163 56.1333 37.7989 55.88 37.5643 55.704C37.3349 55.528 36.9989 55.44 36.5563 55.44C36.1136 55.44 35.7749 55.528 35.5403 55.704C35.3109 55.88 35.1963 56.1333 35.1963 56.464C35.1963 56.7947 35.3109 57.0453 35.5403 57.216C35.7749 57.3867 36.1136 57.472 36.5563 57.472ZM36.5563 54.84C36.9403 54.84 37.2416 54.7547 37.4603 54.584C37.6789 54.408 37.7883 54.1653 37.7883 53.856C37.7883 53.552 37.6789 53.3147 37.4603 53.144C37.2416 52.968 36.9403 52.88 36.5563 52.88C36.1776 52.88 35.8789 52.968 35.6603 53.144C35.4416 53.3147 35.3322 53.552 35.3322 53.856C35.3322 54.1653 35.4416 54.408 35.6603 54.584C35.8789 54.7547 36.1776 54.84 36.5563 54.84ZM41.3531 58.072C40.9211 58.072 40.5558 57.9627 40.2571 57.744C39.9585 57.52 39.7318 57.1947 39.5771 56.768C39.4278 56.336 39.3531 55.8053 39.3531 55.176C39.3531 54.5467 39.4278 54.0187 39.5771 53.592C39.7318 53.1653 39.9585 52.8427 40.2571 52.624C40.5558 52.4 40.9211 52.288 41.3531 52.288C41.7958 52.288 42.1638 52.3973 42.4571 52.616C42.7505 52.8347 42.9718 53.1573 43.1211 53.584C43.2758 54.0107 43.3531 54.5387 43.3531 55.168C43.3531 55.7973 43.2758 56.328 43.1211 56.76C42.9718 57.192 42.7478 57.52 42.4491 57.744C42.1505 57.9627 41.7851 58.072 41.3531 58.072ZM41.3531 57.448C41.7905 57.448 42.1158 57.264 42.3291 56.896C42.5425 56.528 42.6491 55.952 42.6491 55.168C42.6491 54.3893 42.5425 53.8187 42.3291 53.456C42.1211 53.0933 41.7985 52.912 41.3611 52.912C40.9185 52.912 40.5905 53.096 40.3771 53.464C40.1638 53.8267 40.0571 54.3973 40.0571 55.176C40.0571 55.9493 40.1638 56.5227 40.3771 56.896C40.5905 57.264 40.9158 57.448 41.3531 57.448ZM47.8724 59.536C47.4937 58.96 47.2137 58.3733 47.0324 57.776C46.8564 57.1733 46.7684 56.5467 46.7684 55.896C46.7684 55.2453 46.8564 54.6213 47.0324 54.024C47.2137 53.4267 47.4937 52.8373 47.8724 52.256L48.3844 52.44C48.1817 52.8187 48.0137 53.2 47.8804 53.584C47.747 53.968 47.6457 54.352 47.5764 54.736C47.5124 55.1147 47.4804 55.5013 47.4804 55.896C47.4804 56.2853 47.5124 56.672 47.5764 57.056C47.6457 57.44 47.747 57.8213 47.8804 58.2C48.0137 58.584 48.1817 58.968 48.3844 59.352L47.8724 59.536ZM51.9936 58.072C51.4069 58.072 50.9056 57.9573 50.4896 57.728C50.0736 57.4987 49.7536 57.1707 49.5296 56.744C49.3109 56.312 49.2016 55.7893 49.2016 55.176C49.2016 54.5733 49.3082 54.0587 49.5216 53.632C49.7402 53.2 50.0522 52.8693 50.4576 52.64C50.8629 52.4053 51.3482 52.288 51.9136 52.288C52.1909 52.288 52.4549 52.3147 52.7056 52.368C52.9562 52.4213 53.1882 52.5013 53.4016 52.608C53.6149 52.7093 53.7962 52.8373 53.9456 52.992L53.6736 53.544C53.4229 53.3253 53.1536 53.1707 52.8656 53.08C52.5776 52.984 52.2576 52.936 51.9056 52.936C51.2869 52.936 50.8042 53.128 50.4576 53.512C50.1162 53.8907 49.9456 54.4453 49.9456 55.176C49.9456 55.9333 50.1216 56.5013 50.4736 56.88C50.8309 57.2533 51.3482 57.44 52.0256 57.44C52.3242 57.44 52.6016 57.416 52.8576 57.368C53.1189 57.32 53.3562 57.2507 53.5696 57.16L53.3616 57.576V55.616H51.9536V55.008H54.0096V57.672C53.8602 57.7467 53.6736 57.816 53.4496 57.88C53.2256 57.9387 52.9882 57.984 52.7376 58.016C52.4869 58.0533 52.2389 58.072 51.9936 58.072ZM55.4854 58V54.048H56.1334V54.96H56.1414C56.2374 54.6667 56.4054 54.4373 56.6454 54.272C56.8854 54.1013 57.1788 54.0053 57.5254 53.984L57.8854 53.968L57.9494 54.616L57.3734 54.664C57.0054 54.696 56.7174 54.8187 56.5094 55.032C56.3014 55.24 56.1974 55.5013 56.1974 55.816V58H55.4854ZM58.8452 58V54.048H59.5012V54.912C59.5705 54.736 59.6665 54.5787 59.7892 54.44C59.9172 54.296 60.0692 54.184 60.2452 54.104C60.4265 54.0187 60.6239 53.976 60.8372 53.976C61.1839 53.976 61.4692 54.0613 61.6932 54.232C61.9172 54.4027 62.0559 54.6267 62.1092 54.904H62.1012C62.2079 54.6427 62.3759 54.424 62.6052 54.248C62.8399 54.0667 63.1332 53.976 63.4852 53.976C63.7839 53.976 64.0372 54.0347 64.2452 54.152C64.4532 54.264 64.6105 54.4373 64.7172 54.672C64.8239 54.9067 64.8772 55.2027 64.8772 55.56V58H64.1732V55.608C64.1732 55.2667 64.1119 55.0107 63.9892 54.84C63.8665 54.6693 63.6479 54.584 63.3332 54.584C63.0985 54.584 62.8959 54.6373 62.7252 54.744C62.5599 54.8453 62.4319 54.9893 62.3412 55.176C62.2559 55.3573 62.2132 55.5627 62.2132 55.792V58H61.5092V55.608C61.5092 55.272 61.4399 55.0187 61.3012 54.848C61.1625 54.672 60.9519 54.584 60.6692 54.584C60.4399 54.584 60.2399 54.6427 60.0692 54.76C59.9039 54.872 59.7759 55.0187 59.6852 55.2C59.5945 55.3813 59.5492 55.5733 59.5492 55.776V58H58.8452ZM66.4018 59.536L65.8818 59.352C66.0898 58.9627 66.2604 58.576 66.3938 58.192C66.5271 57.8133 66.6258 57.4347 66.6898 57.056C66.7538 56.672 66.7858 56.2853 66.7858 55.896C66.7858 55.5067 66.7538 55.1227 66.6898 54.744C66.6258 54.36 66.5271 53.976 66.3938 53.592C66.2604 53.208 66.0898 52.824 65.8818 52.44L66.4018 52.256C66.7751 52.832 67.0498 53.4213 67.2258 54.024C67.4071 54.6213 67.4978 55.2453 67.4978 55.896C67.4978 56.5413 67.4071 57.1653 67.2258 57.768C67.0498 58.3653 66.7751 58.9547 66.4018 59.536Z" fill="black"/>
<defs>
<filter id="filter0_d_271_506" x="0.0999999" y="24" width="89.8" height="57.9" filterUnits="userSpaceOnUse" color-interpolation-filters="sRGB">
<feFlood flood-opacity="0" result="BackgroundImageFix"/>
<feColorMatrix in="SourceAlpha" type="matrix" values="0 0 0 0 0 0 0 0 0 0 0 0 0 0 0 0 0 0 127 0" result="hardAlpha"/>
<feOffset dy="4"/>
<feGaussianBlur stdDeviation="1.95"/>
<feComposite in2="hardAlpha" operator="out"/>
<feColorMatrix type="matrix" values="0 0 0 0 0 0 0 0 0 0 0 0 0 0 0 0 0 0 0.2 0"/>
<feBlend mode="normal" in2="BackgroundImageFix" result="effect1_dropShadow_271_506"/>
<feBlend mode="normal" in="SourceGraphic" in2="effect1_dropShadow_271_506" result="shape"/>
</filter>
<clipPath id="clip0_271_506">
<rect width="16.9167" height="16.9167" fill="white" transform="translate(35.875 7.25)"/>
</clipPath>
</defs>
</svg>
