<svg width="136" height="83" viewBox="0 0 136 83" fill="none" xmlns="http://www.w3.org/2000/svg">
<g filter="url(#filter0_d_271_531)">
<rect x="4" y="25" width="128" height="50" rx="2" fill="white"/>
<rect x="4.25" y="25.25" width="127.5" height="49.5" rx="1.75" stroke="white" stroke-width="0.5"/>
</g>
<rect x="52.5" y="0.96582" width="30.1136" height="30.1144" rx="3" fill="#CB3335"/>
<g clip-path="url(#clip0_271_531)">
<path fill-rule="evenodd" clip-rule="evenodd" d="M67.0378 3.38291C67.1195 3.37782 67.2051 3.39137 67.2284 3.41255C67.2517 3.43372 67.8903 3.76955 68.647 4.15915C69.4042 4.54833 70.3473 5.03407 70.7432 5.23819C71.1391 5.44188 72.8449 6.31849 74.5333 7.18621C76.2221 8.05351 77.6361 8.7946 77.6763 8.83272C77.7441 8.89709 77.7491 9.25239 77.7517 14.2165C77.7538 18.4678 77.7432 19.5464 77.7 19.6083C77.6704 19.6506 75.2735 20.8944 72.3736 22.3719C69.4736 23.8499 67.0632 25.0589 67.0166 25.0589C66.9701 25.0589 66.7223 24.948 66.4661 24.8129C66.2099 24.6774 63.8105 23.4433 61.1342 22.0704C57.1239 20.0127 56.2541 19.5511 56.1884 19.4465C56.127 19.3487 56.1126 19.2614 56.1253 19.0654C56.1346 18.9256 56.1753 16.5723 56.2155 13.8353C56.2562 11.0984 56.3066 8.81154 56.3278 8.75353C56.3599 8.66502 57.2276 8.2174 61.6279 6.01994C65.144 4.26375 66.9387 3.38926 67.0378 3.38291ZM57.3737 8.89836C57.3788 8.91191 58.0352 9.26975 58.833 9.69366C59.6308 10.1176 60.3313 10.4915 60.3893 10.525C60.4909 10.5838 60.6827 10.489 65.2698 8.11364C67.8958 6.75341 70.0301 5.62864 70.0127 5.61339C69.9953 5.59815 69.3284 5.25047 68.5306 4.84054C67.7327 4.4306 67.0564 4.09648 67.0272 4.09775C66.998 4.09902 64.812 5.17424 62.1696 6.48704C59.5271 7.79984 57.3691 8.88481 57.3737 8.89836ZM64.2738 9.36758C62.604 10.2294 61.2371 10.9438 61.2371 10.9556C61.2367 10.9671 61.6411 11.1941 62.1361 11.4596L63.036 11.9419C63.4955 11.7069 65.637 10.594 68.091 9.31718C70.545 8.0408 72.5552 6.97701 72.5586 6.95372C72.5616 6.93043 72.1699 6.70641 71.6875 6.45613C71.2056 6.20585 70.8055 6.00131 70.7983 6.00215C70.7915 6.003 70.0034 6.40785 69.0476 6.90205C68.0918 7.39626 65.9436 8.50579 64.2738 9.36758ZM66.4992 10.8794C65.0034 11.6548 63.7788 12.304 63.7783 12.3214C63.7775 12.3387 64.4919 12.7343 65.3651 13.2001L66.9531 14.0471C74.3868 10.2421 76.5774 9.11306 76.6176 9.083C76.6807 9.03599 76.477 8.91953 75.0393 8.18182C74.131 7.71599 73.3742 7.33231 73.3573 7.32935C73.3404 7.32639 72.4024 7.80662 71.2725 8.39653C70.1427 8.98602 67.9949 10.1036 66.4992 10.8794ZM56.8783 14.2588C56.8249 17.7123 56.8169 19.0785 56.8499 19.1128C56.8749 19.1386 57.3627 19.3986 57.9331 19.6908C58.504 19.9826 60.7048 21.1104 62.8243 22.1966C64.9437 23.2824 66.6821 24.1658 66.6876 24.159C66.6927 24.1527 66.6791 22.0031 66.6571 19.383C66.6351 16.7625 66.6118 14.6158 66.605 14.612C66.5987 14.6082 65.869 14.2152 64.984 13.7392L63.3748 12.8736C63.3333 13.0773 63.3096 13.6414 63.2947 14.2588C63.2714 15.2574 63.26 15.3929 63.1906 15.4869C63.1383 15.5575 63.0642 15.5966 62.9682 15.6042C62.8522 15.614 62.5867 15.4907 61.5983 14.969C60.9241 14.6133 60.3287 14.2889 60.2749 14.2482L60.1775 14.1741L60.1564 11.1487C58.2855 10.1434 57.566 9.75718 57.35 9.64199C57.134 9.52638 56.9562 9.4366 56.9549 9.44211C56.9541 9.44762 56.9193 11.615 56.8783 14.2588ZM67.3203 14.6056C67.3012 14.6128 67.3012 16.7675 67.3203 19.3936C67.3397 22.0196 67.3652 24.1692 67.3766 24.1696C67.388 24.1705 69.5795 23.0584 72.2465 21.6982L77.0953 19.2254C77.1118 11.7662 77.1025 9.60176 77.0847 9.60346C77.0673 9.60558 74.8712 10.7287 72.2042 12.0999C69.5372 13.4711 67.3397 14.5984 67.3203 14.6056ZM60.8136 13.8142C62.1289 14.5032 62.5333 14.709 62.5617 14.7153C62.599 14.7238 62.621 14.5358 62.6443 14.0166C62.6621 13.6257 62.676 13.1247 62.676 12.9037V12.5014C61.2976 11.7628 60.8784 11.5485 60.8551 11.5485C60.828 11.5485 60.8128 11.9542 60.8132 12.6813L60.8136 13.8142Z" fill="white"/>
</g>
<path d="M16.832 42V36.36H19.152C19.5573 36.36 19.9013 36.4267 20.184 36.56C20.4667 36.6933 20.6827 36.888 20.832 37.144C20.9867 37.3947 21.064 37.6987 21.064 38.056C21.064 38.4133 20.9867 38.72 20.832 38.976C20.6827 39.232 20.464 39.4293 20.176 39.568C19.8933 39.7067 19.552 39.776 19.152 39.776H17.544V42H16.832ZM17.544 39.168H19.048C19.4747 39.168 19.7973 39.0773 20.016 38.896C20.2347 38.7093 20.344 38.432 20.344 38.064C20.344 37.6907 20.2347 37.416 20.016 37.24C19.7973 37.0587 19.4747 36.968 19.048 36.968H17.544V39.168ZM21.7242 37.096V36.304H22.5882V37.096H21.7242ZM21.8042 42V38.048H22.5162V42H21.8042ZM25.441 42.072C24.9983 42.072 24.6143 41.992 24.289 41.832C23.969 41.6667 23.7237 41.432 23.553 41.128C23.3823 40.8187 23.297 40.4507 23.297 40.024C23.297 39.624 23.377 39.272 23.537 38.968C23.697 38.6587 23.9237 38.416 24.217 38.24C24.5103 38.064 24.8597 37.976 25.265 37.976C25.649 37.976 25.9743 38.0587 26.241 38.224C26.513 38.3893 26.7183 38.6213 26.857 38.92C27.001 39.2187 27.073 39.5733 27.073 39.984V40.216H23.833V39.72H26.609L26.457 39.88C26.457 39.4427 26.353 39.1067 26.145 38.872C25.9423 38.6373 25.649 38.52 25.265 38.52C25.0143 38.52 24.7903 38.5787 24.593 38.696C24.401 38.808 24.2517 38.968 24.145 39.176C24.0383 39.384 23.985 39.6373 23.985 39.936V40.016C23.985 40.336 24.0437 40.6053 24.161 40.824C24.2783 41.0427 24.4463 41.208 24.665 41.32C24.8837 41.432 25.145 41.488 25.449 41.488C25.6677 41.488 25.889 41.4587 26.113 41.4C26.3423 41.336 26.5557 41.224 26.753 41.064L26.993 41.576C26.7903 41.7467 26.5477 41.872 26.265 41.952C25.9877 42.032 25.713 42.072 25.441 42.072ZM29.6079 42.072C29.2026 42.072 28.8506 41.9867 28.5519 41.816C28.2533 41.6453 28.0213 41.408 27.8559 41.104C27.6906 40.7947 27.6079 40.432 27.6079 40.016C27.6079 39.6 27.6906 39.24 27.8559 38.936C28.0213 38.6267 28.2533 38.3893 28.5519 38.224C28.8559 38.0587 29.2106 37.976 29.6159 37.976C29.8879 37.976 30.1466 38.0213 30.3919 38.112C30.6373 38.2027 30.8399 38.3253 30.9999 38.48L30.7519 39.008C30.5973 38.8693 30.4239 38.7653 30.2319 38.696C30.0399 38.6213 29.8533 38.584 29.6719 38.584C29.2559 38.584 28.9279 38.7093 28.6879 38.96C28.4479 39.2107 28.3279 39.5653 28.3279 40.024C28.3279 40.4773 28.4479 40.832 28.6879 41.088C28.9279 41.3387 29.2533 41.464 29.6639 41.464C29.8506 41.464 30.0373 41.4293 30.2239 41.36C30.4159 41.2853 30.5866 41.1813 30.7359 41.048L30.9839 41.576C30.8293 41.7307 30.6293 41.8533 30.3839 41.944C30.1386 42.0293 29.8799 42.072 29.6079 42.072ZM33.3363 42.072C32.8936 42.072 32.5096 41.992 32.1843 41.832C31.8643 41.6667 31.619 41.432 31.4483 41.128C31.2776 40.8187 31.1923 40.4507 31.1923 40.024C31.1923 39.624 31.2723 39.272 31.4323 38.968C31.5923 38.6587 31.819 38.416 32.1123 38.24C32.4056 38.064 32.755 37.976 33.1603 37.976C33.5443 37.976 33.8696 38.0587 34.1363 38.224C34.4083 38.3893 34.6136 38.6213 34.7523 38.92C34.8963 39.2187 34.9683 39.5733 34.9683 39.984V40.216H31.7283V39.72H34.5043L34.3523 39.88C34.3523 39.4427 34.2483 39.1067 34.0403 38.872C33.8376 38.6373 33.5443 38.52 33.1603 38.52C32.9096 38.52 32.6856 38.5787 32.4883 38.696C32.2963 38.808 32.147 38.968 32.0403 39.176C31.9336 39.384 31.8803 39.6373 31.8803 39.936V40.016C31.8803 40.336 31.939 40.6053 32.0563 40.824C32.1736 41.0427 32.3416 41.208 32.5603 41.32C32.779 41.432 33.0403 41.488 33.3443 41.488C33.563 41.488 33.7843 41.4587 34.0083 41.4C34.2376 41.336 34.451 41.224 34.6483 41.064L34.8883 41.576C34.6856 41.7467 34.443 41.872 34.1603 41.952C33.883 42.032 33.6083 42.072 33.3363 42.072ZM37.1993 42.072C36.9806 42.072 36.7646 42.0507 36.5513 42.008C36.3433 41.9707 36.1486 41.9173 35.9673 41.848C35.7913 41.7733 35.6393 41.6827 35.5113 41.576L35.7433 41.072C35.8766 41.1733 36.0233 41.256 36.1833 41.32C36.3486 41.384 36.5166 41.432 36.6873 41.464C36.8633 41.4907 37.0313 41.504 37.1913 41.504C37.5219 41.504 37.7753 41.4533 37.9513 41.352C38.1326 41.2507 38.2233 41.1093 38.2233 40.928C38.2233 40.7733 38.1699 40.656 38.0633 40.576C37.9619 40.4907 37.7913 40.4267 37.5513 40.384L36.7273 40.24C36.3593 40.1707 36.0819 40.0453 35.8953 39.864C35.7139 39.6827 35.6233 39.4453 35.6233 39.152C35.6233 38.9173 35.6873 38.712 35.8153 38.536C35.9486 38.36 36.1379 38.224 36.3833 38.128C36.6286 38.0267 36.9219 37.976 37.2633 37.976C37.4499 37.976 37.6393 37.9947 37.8313 38.032C38.0286 38.0693 38.2099 38.1253 38.3753 38.2C38.5459 38.2693 38.6846 38.3573 38.7913 38.464L38.5513 38.968C38.4446 38.8667 38.3166 38.7867 38.1673 38.728C38.0233 38.664 37.8713 38.6187 37.7113 38.592C37.5566 38.56 37.4046 38.544 37.2553 38.544C36.9459 38.544 36.7059 38.5973 36.5353 38.704C36.3646 38.8053 36.2793 38.9493 36.2793 39.136C36.2793 39.2853 36.3273 39.4027 36.4233 39.488C36.5246 39.5733 36.6873 39.6373 36.9113 39.68L37.7113 39.824C38.1059 39.8987 38.3993 40.024 38.5913 40.2C38.7833 40.3707 38.8793 40.608 38.8793 40.912C38.8793 41.1467 38.8099 41.352 38.6713 41.528C38.5326 41.6987 38.3379 41.832 38.0873 41.928C37.8366 42.024 37.5406 42.072 37.1993 42.072Z" fill="#CE3439"/>
<path d="M55.1774 42V41.392H56.7214V36.928L57.0974 36.984L55.4574 38.04L55.1374 37.488L56.9054 36.36H57.4254V41.392H58.8494V42H55.1774ZM61.6383 42.072C61.2063 42.072 60.8409 41.9627 60.5423 41.744C60.2436 41.52 60.0169 41.1947 59.8623 40.768C59.7129 40.336 59.6383 39.8053 59.6383 39.176C59.6383 38.5467 59.7129 38.0187 59.8623 37.592C60.0169 37.1653 60.2436 36.8427 60.5423 36.624C60.8409 36.4 61.2063 36.288 61.6383 36.288C62.0809 36.288 62.4489 36.3973 62.7423 36.616C63.0356 36.8347 63.2569 37.1573 63.4063 37.584C63.5609 38.0107 63.6383 38.5387 63.6383 39.168C63.6383 39.7973 63.5609 40.328 63.4063 40.76C63.2569 41.192 63.0329 41.52 62.7343 41.744C62.4356 41.9627 62.0703 42.072 61.6383 42.072ZM61.6383 41.448C62.0756 41.448 62.4009 41.264 62.6143 40.896C62.8276 40.528 62.9343 39.952 62.9343 39.168C62.9343 38.3893 62.8276 37.8187 62.6143 37.456C62.4063 37.0933 62.0836 36.912 61.6463 36.912C61.2036 36.912 60.8756 37.096 60.6623 37.464C60.4489 37.8267 60.3423 38.3973 60.3423 39.176C60.3423 39.9493 60.4489 40.5227 60.6623 40.896C60.8756 41.264 61.2009 41.448 61.6383 41.448ZM66.4352 42.072C66.0032 42.072 65.6378 41.9627 65.3392 41.744C65.0405 41.52 64.8138 41.1947 64.6592 40.768C64.5098 40.336 64.4352 39.8053 64.4352 39.176C64.4352 38.5467 64.5098 38.0187 64.6592 37.592C64.8138 37.1653 65.0405 36.8427 65.3392 36.624C65.6378 36.4 66.0032 36.288 66.4352 36.288C66.8778 36.288 67.2458 36.3973 67.5392 36.616C67.8325 36.8347 68.0538 37.1573 68.2032 37.584C68.3578 38.0107 68.4352 38.5387 68.4352 39.168C68.4352 39.7973 68.3578 40.328 68.2032 40.76C68.0538 41.192 67.8298 41.52 67.5312 41.744C67.2325 41.9627 66.8672 42.072 66.4352 42.072ZM66.4352 41.448C66.8725 41.448 67.1978 41.264 67.4112 40.896C67.6245 40.528 67.7312 39.952 67.7312 39.168C67.7312 38.3893 67.6245 37.8187 67.4112 37.456C67.2032 37.0933 66.8805 36.912 66.4432 36.912C66.0005 36.912 65.6725 37.096 65.4592 37.464C65.2458 37.8267 65.1392 38.3973 65.1392 39.176C65.1392 39.9493 65.2458 40.5227 65.4592 40.896C65.6725 41.264 65.9978 41.448 66.4352 41.448ZM71.232 42.072C70.8 42.072 70.4347 41.9627 70.136 41.744C69.8374 41.52 69.6107 41.1947 69.456 40.768C69.3067 40.336 69.232 39.8053 69.232 39.176C69.232 38.5467 69.3067 38.0187 69.456 37.592C69.6107 37.1653 69.8374 36.8427 70.136 36.624C70.4347 36.4 70.8 36.288 71.232 36.288C71.6747 36.288 72.0427 36.3973 72.336 36.616C72.6294 36.8347 72.8507 37.1573 73 37.584C73.1547 38.0107 73.232 38.5387 73.232 39.168C73.232 39.7973 73.1547 40.328 73 40.76C72.8507 41.192 72.6267 41.52 72.328 41.744C72.0294 41.9627 71.664 42.072 71.232 42.072ZM71.232 41.448C71.6694 41.448 71.9947 41.264 72.208 40.896C72.4214 40.528 72.528 39.952 72.528 39.168C72.528 38.3893 72.4214 37.8187 72.208 37.456C72 37.0933 71.6774 36.912 71.24 36.912C70.7974 36.912 70.4694 37.096 70.256 37.464C70.0427 37.8267 69.936 38.3973 69.936 39.176C69.936 39.9493 70.0427 40.5227 70.256 40.896C70.4694 41.264 70.7947 41.448 71.232 41.448ZM76.6953 42V36.36H77.3273L80.7833 40.952H80.7513V36.36H81.4313V42H80.7833L77.3433 37.424H77.3753V42H76.6953ZM84.6937 42.072C84.2937 42.072 83.9471 41.9867 83.6537 41.816C83.3604 41.6453 83.1337 41.408 82.9737 41.104C82.8137 40.7947 82.7337 40.432 82.7337 40.016C82.7337 39.6053 82.8137 39.248 82.9737 38.944C83.1337 38.6347 83.3604 38.3973 83.6537 38.232C83.9471 38.0613 84.2937 37.976 84.6937 37.976C85.0937 37.976 85.4377 38.0613 85.7257 38.232C86.0191 38.3973 86.2457 38.6347 86.4057 38.944C86.5657 39.248 86.6457 39.6053 86.6457 40.016C86.6457 40.432 86.5657 40.7947 86.4057 41.104C86.2511 41.408 86.0271 41.6453 85.7337 41.816C85.4404 41.9867 85.0937 42.072 84.6937 42.072ZM84.6857 41.472C85.0751 41.472 85.3817 41.3413 85.6057 41.08C85.8297 40.8187 85.9417 40.464 85.9417 40.016C85.9417 39.568 85.8297 39.216 85.6057 38.96C85.3871 38.704 85.0831 38.576 84.6937 38.576C84.3044 38.576 83.9977 38.704 83.7737 38.96C83.5497 39.216 83.4377 39.568 83.4377 40.016C83.4377 40.464 83.5497 40.8187 83.7737 41.08C84.0031 41.3413 84.3071 41.472 84.6857 41.472ZM89.2969 42.072C89.0782 42.072 88.8622 42.0507 88.6489 42.008C88.4409 41.9707 88.2462 41.9173 88.0649 41.848C87.8889 41.7733 87.7369 41.6827 87.6089 41.576L87.8409 41.072C87.9742 41.1733 88.1209 41.256 88.2809 41.32C88.4462 41.384 88.6142 41.432 88.7849 41.464C88.9609 41.4907 89.1289 41.504 89.2889 41.504C89.6196 41.504 89.8729 41.4533 90.0489 41.352C90.2302 41.2507 90.3209 41.1093 90.3209 40.928C90.3209 40.7733 90.2676 40.656 90.1609 40.576C90.0596 40.4907 89.8889 40.4267 89.6489 40.384L88.8249 40.24C88.4569 40.1707 88.1796 40.0453 87.9929 39.864C87.8116 39.6827 87.7209 39.4453 87.7209 39.152C87.7209 38.9173 87.7849 38.712 87.9129 38.536C88.0462 38.36 88.2356 38.224 88.4809 38.128C88.7262 38.0267 89.0196 37.976 89.3609 37.976C89.5476 37.976 89.7369 37.9947 89.9289 38.032C90.1262 38.0693 90.3076 38.1253 90.4729 38.2C90.6436 38.2693 90.7822 38.3573 90.8889 38.464L90.6489 38.968C90.5422 38.8667 90.4142 38.7867 90.2649 38.728C90.1209 38.664 89.9689 38.6187 89.8089 38.592C89.6542 38.56 89.5022 38.544 89.3529 38.544C89.0436 38.544 88.8036 38.5973 88.6329 38.704C88.4622 38.8053 88.3769 38.9493 88.3769 39.136C88.3769 39.2853 88.4249 39.4027 88.5209 39.488C88.6222 39.5733 88.7849 39.6373 89.0089 39.68L89.8089 39.824C90.2036 39.8987 90.4969 40.024 90.6889 40.2C90.8809 40.3707 90.9769 40.608 90.9769 40.912C90.9769 41.1467 90.9076 41.352 90.7689 41.528C90.6302 41.6987 90.4356 41.832 90.1849 41.928C89.9342 42.024 89.6382 42.072 89.2969 42.072ZM91.8814 42.504L91.3214 42.352L93.3614 35.984L93.9134 36.136L91.8814 42.504ZM96.9627 42.072C96.424 42.072 95.9547 41.9573 95.5547 41.728C95.16 41.4933 94.856 41.16 94.6427 40.728C94.4293 40.2907 94.3227 39.7733 94.3227 39.176C94.3227 38.5787 94.4293 38.064 94.6427 37.632C94.856 37.2 95.16 36.8693 95.5547 36.64C95.9493 36.4053 96.4187 36.288 96.9627 36.288C97.3573 36.288 97.7173 36.3493 98.0427 36.472C98.368 36.5893 98.648 36.7627 98.8827 36.992L98.6027 37.552C98.3573 37.3333 98.104 37.176 97.8427 37.08C97.5867 36.984 97.2987 36.936 96.9787 36.936C96.3813 36.936 95.912 37.128 95.5707 37.512C95.2347 37.8907 95.0667 38.4453 95.0667 39.176C95.0667 39.9013 95.2347 40.4587 95.5707 40.848C95.9067 41.232 96.376 41.424 96.9787 41.424C97.2987 41.424 97.5867 41.376 97.8427 41.28C98.104 41.184 98.3573 41.0267 98.6027 40.808L98.8827 41.368C98.648 41.5973 98.368 41.7733 98.0427 41.896C97.7173 42.0133 97.3573 42.072 96.9627 42.072ZM101.614 42.072C101.14 42.072 100.78 41.9467 100.534 41.696C100.294 41.4453 100.174 41.088 100.174 40.624V38.632H99.3743V38.048H100.198V36.872H100.886V38.048H102.302V38.632H100.886V40.56C100.886 40.864 100.953 41.0907 101.086 41.24C101.225 41.384 101.436 41.456 101.718 41.456C101.83 41.456 101.937 41.4453 102.038 41.424C102.145 41.4027 102.246 41.3707 102.342 41.328L102.454 41.888C102.348 41.9467 102.217 41.992 102.062 42.024C101.913 42.056 101.764 42.072 101.614 42.072ZM103.286 42V38.048H103.95V38.904C104.078 38.6107 104.27 38.384 104.526 38.224C104.782 38.0587 105.07 37.976 105.39 37.976C105.716 37.976 105.988 38.0347 106.206 38.152C106.425 38.264 106.588 38.44 106.694 38.68C106.806 38.9147 106.862 39.208 106.862 39.56V42H106.15V39.6C106.15 39.3867 106.121 39.2053 106.062 39.056C106.004 38.9067 105.905 38.792 105.766 38.712C105.633 38.6267 105.454 38.584 105.23 38.584C104.996 38.584 104.782 38.6373 104.59 38.744C104.404 38.8507 104.257 38.9947 104.15 39.176C104.049 39.3573 103.998 39.56 103.998 39.784V42H103.286Z" fill="black"/>
<path d="M18.72 55.072C18.4107 55.072 18.1173 55.048 17.84 55C17.5627 54.952 17.3093 54.88 17.08 54.784C16.8507 54.688 16.6507 54.5707 16.48 54.432L16.744 53.84C16.9253 53.984 17.1173 54.1013 17.32 54.192C17.528 54.2773 17.7467 54.3387 17.976 54.376C18.2107 54.4133 18.4587 54.432 18.72 54.432C19.1627 54.432 19.5013 54.344 19.736 54.168C19.976 53.992 20.096 53.752 20.096 53.448C20.096 53.288 20.056 53.1547 19.976 53.048C19.9013 52.9413 19.7813 52.8533 19.616 52.784C19.456 52.7147 19.248 52.6533 18.992 52.6L18.072 52.424C17.5547 52.3227 17.1813 52.144 16.952 51.888C16.7227 51.632 16.608 51.3093 16.608 50.92C16.608 50.5893 16.6987 50.304 16.88 50.064C17.0667 49.8187 17.3227 49.6293 17.648 49.496C17.9787 49.3573 18.3547 49.288 18.776 49.288C19.0427 49.288 19.2907 49.3147 19.52 49.368C19.7547 49.416 19.968 49.4907 20.16 49.592C20.3573 49.6933 20.5333 49.816 20.688 49.96L20.424 50.544C20.1947 50.32 19.944 50.1627 19.672 50.072C19.4 49.976 19.0987 49.928 18.768 49.928C18.4907 49.928 18.2427 49.968 18.024 50.048C17.8053 50.1227 17.632 50.2347 17.504 50.384C17.3813 50.528 17.32 50.7067 17.32 50.92C17.32 51.1547 17.3947 51.3413 17.544 51.48C17.6933 51.6133 17.9467 51.7173 18.304 51.792L19.216 51.968C19.76 52.0693 20.1627 52.24 20.424 52.48C20.6853 52.72 20.816 53.032 20.816 53.416C20.816 53.736 20.728 54.0213 20.552 54.272C20.3813 54.5227 20.1387 54.72 19.824 54.864C19.5147 55.0027 19.1467 55.072 18.72 55.072ZM21.882 50.096V49.304H22.746V50.096H21.882ZM21.962 55V51.048H22.674V55H21.962ZM23.8628 55V54.544L26.3668 51.416L26.4068 51.64H23.9188V51.048H27.0708V51.504L24.5428 54.656L24.5028 54.408H27.1588V55H23.8628ZM30.0691 55.072C29.6265 55.072 29.2425 54.992 28.9171 54.832C28.5971 54.6667 28.3518 54.432 28.1811 54.128C28.0105 53.8187 27.9251 53.4507 27.9251 53.024C27.9251 52.624 28.0051 52.272 28.1651 51.968C28.3251 51.6587 28.5518 51.416 28.8451 51.24C29.1385 51.064 29.4878 50.976 29.8931 50.976C30.2771 50.976 30.6025 51.0587 30.8691 51.224C31.1411 51.3893 31.3465 51.6213 31.4851 51.92C31.6291 52.2187 31.7011 52.5733 31.7011 52.984V53.216H28.4611V52.72H31.2371L31.0851 52.88C31.0851 52.4427 30.9811 52.1067 30.7731 51.872C30.5705 51.6373 30.2771 51.52 29.8931 51.52C29.6425 51.52 29.4185 51.5787 29.2211 51.696C29.0291 51.808 28.8798 51.968 28.7731 52.176C28.6665 52.384 28.6131 52.6373 28.6131 52.936V53.016C28.6131 53.336 28.6718 53.6053 28.7891 53.824C28.9065 54.0427 29.0745 54.208 29.2931 54.32C29.5118 54.432 29.7731 54.488 30.0771 54.488C30.2958 54.488 30.5171 54.4587 30.7411 54.4C30.9705 54.336 31.1838 54.224 31.3811 54.064L31.6211 54.576C31.4185 54.7467 31.1758 54.872 30.8931 54.952C30.6158 55.032 30.3411 55.072 30.0691 55.072Z" fill="#CE3439"/>
<path d="M58.464 55.072C58.2187 55.072 57.9813 55.0453 57.752 54.992C57.528 54.9387 57.3173 54.8613 57.12 54.76C56.9227 54.6533 56.7467 54.5253 56.592 54.376L56.872 53.816C57.1173 54.04 57.368 54.2027 57.624 54.304C57.8853 54.4 58.1653 54.448 58.464 54.448C58.8587 54.448 59.1653 54.3467 59.384 54.144C59.608 53.936 59.72 53.6453 59.72 53.272C59.72 52.904 59.616 52.6107 59.408 52.392C59.2 52.1733 58.912 52.064 58.544 52.064C58.2987 52.064 58.0747 52.1147 57.872 52.216C57.6747 52.312 57.4907 52.4747 57.32 52.704H56.76V49.36H60.136V49.976H57.408V52.096H57.376C57.504 51.904 57.68 51.7493 57.904 51.632C58.128 51.5093 58.3787 51.448 58.656 51.448C59.0187 51.448 59.3307 51.5253 59.592 51.68C59.8533 51.8293 60.0533 52.0373 60.192 52.304C60.336 52.5707 60.408 52.8827 60.408 53.24C60.408 53.6187 60.328 53.9467 60.168 54.224C60.008 54.496 59.784 54.7067 59.496 54.856C59.208 55 58.864 55.072 58.464 55.072ZM61.4529 55V54.472L63.4369 52.392C63.6289 52.1893 63.7782 52.0053 63.8849 51.84C63.9915 51.6747 64.0689 51.5147 64.1169 51.36C64.1649 51.2053 64.1889 51.048 64.1889 50.888C64.1889 50.5733 64.0875 50.3333 63.8849 50.168C63.6875 49.9973 63.4129 49.912 63.0609 49.912C62.7942 49.912 62.5302 49.9653 62.2689 50.072C62.0129 50.1733 61.7675 50.336 61.5329 50.56L61.2609 50C61.4955 49.776 61.7755 49.6027 62.1009 49.48C62.4262 49.352 62.7622 49.288 63.1089 49.288C63.4769 49.288 63.7942 49.352 64.0609 49.48C64.3275 49.6027 64.5302 49.7813 64.6689 50.016C64.8129 50.2453 64.8849 50.5227 64.8849 50.848C64.8849 51.0133 64.8662 51.176 64.8289 51.336C64.7915 51.4907 64.7329 51.6453 64.6529 51.8C64.5782 51.9547 64.4795 52.1147 64.3569 52.28C64.2342 52.4453 64.0849 52.6187 63.9089 52.8L62.3569 54.416V54.384H65.1169V55H61.4529ZM67.9938 55.072C67.5618 55.072 67.1964 54.9627 66.8978 54.744C66.5991 54.52 66.3724 54.1947 66.2178 53.768C66.0684 53.336 65.9938 52.8053 65.9938 52.176C65.9938 51.5467 66.0684 51.0187 66.2178 50.592C66.3724 50.1653 66.5991 49.8427 66.8978 49.624C67.1964 49.4 67.5618 49.288 67.9938 49.288C68.4364 49.288 68.8044 49.3973 69.0978 49.616C69.3911 49.8347 69.6124 50.1573 69.7618 50.584C69.9164 51.0107 69.9938 51.5387 69.9938 52.168C69.9938 52.7973 69.9164 53.328 69.7618 53.76C69.6124 54.192 69.3884 54.52 69.0898 54.744C68.7911 54.9627 68.4258 55.072 67.9938 55.072ZM67.9938 54.448C68.4311 54.448 68.7564 54.264 68.9698 53.896C69.1831 53.528 69.2898 52.952 69.2898 52.168C69.2898 51.3893 69.1831 50.8187 68.9698 50.456C68.7618 50.0933 68.4391 49.912 68.0018 49.912C67.5591 49.912 67.2311 50.096 67.0178 50.464C66.8044 50.8267 66.6978 51.3973 66.6978 52.176C66.6978 52.9493 66.8044 53.5227 67.0178 53.896C67.2311 54.264 67.5564 54.448 67.9938 54.448ZM72.817 55L74.905 51.976V52.24L72.929 49.36H73.753L75.353 51.712H75.313L76.913 49.36H77.737L75.745 52.24V51.976L77.841 55H77.009L75.297 52.496H75.353L73.641 55H72.817ZM82.7296 55.072C82.4843 55.072 82.247 55.0453 82.0176 54.992C81.7936 54.9387 81.583 54.8613 81.3856 54.76C81.1883 54.6533 81.0123 54.5253 80.8576 54.376L81.1376 53.816C81.383 54.04 81.6336 54.2027 81.8896 54.304C82.151 54.4 82.431 54.448 82.7296 54.448C83.1243 54.448 83.431 54.3467 83.6496 54.144C83.8736 53.936 83.9856 53.6453 83.9856 53.272C83.9856 52.904 83.8816 52.6107 83.6736 52.392C83.4656 52.1733 83.1776 52.064 82.8096 52.064C82.5643 52.064 82.3403 52.1147 82.1376 52.216C81.9403 52.312 81.7563 52.4747 81.5856 52.704H81.0256V49.36H84.4016V49.976H81.6736V52.096H81.6416C81.7696 51.904 81.9456 51.7493 82.1696 51.632C82.3936 51.5093 82.6443 51.448 82.9216 51.448C83.2843 51.448 83.5963 51.5253 83.8576 51.68C84.119 51.8293 84.319 52.0373 84.4576 52.304C84.6016 52.5707 84.6736 52.8827 84.6736 53.24C84.6736 53.6187 84.5936 53.9467 84.4336 54.224C84.2736 54.496 84.0496 54.7067 83.7616 54.856C83.4736 55 83.1296 55.072 82.7296 55.072ZM87.4625 55.072C87.0305 55.072 86.6652 54.9627 86.3665 54.744C86.0678 54.52 85.8412 54.1947 85.6865 53.768C85.5372 53.336 85.4625 52.8053 85.4625 52.176C85.4625 51.5467 85.5372 51.0187 85.6865 50.592C85.8412 50.1653 86.0678 49.8427 86.3665 49.624C86.6652 49.4 87.0305 49.288 87.4625 49.288C87.9052 49.288 88.2732 49.3973 88.5665 49.616C88.8598 49.8347 89.0812 50.1573 89.2305 50.584C89.3852 51.0107 89.4625 51.5387 89.4625 52.168C89.4625 52.7973 89.3852 53.328 89.2305 53.76C89.0812 54.192 88.8572 54.52 88.5585 54.744C88.2598 54.9627 87.8945 55.072 87.4625 55.072ZM87.4625 54.448C87.8998 54.448 88.2252 54.264 88.4385 53.896C88.6518 53.528 88.7585 52.952 88.7585 52.168C88.7585 51.3893 88.6518 50.8187 88.4385 50.456C88.2305 50.0933 87.9078 49.912 87.4705 49.912C87.0278 49.912 86.6998 50.096 86.4865 50.464C86.2732 50.8267 86.1665 51.3973 86.1665 52.176C86.1665 52.9493 86.2732 53.5227 86.4865 53.896C86.6998 54.264 87.0252 54.448 87.4625 54.448ZM92.2594 55.072C91.63 55.072 91.134 54.936 90.7714 54.664C90.4087 54.3867 90.2274 54.0027 90.2274 53.512C90.2274 53.2613 90.2754 53.04 90.3714 52.848C90.4727 52.6507 90.6114 52.4907 90.7874 52.368C90.9687 52.24 91.1767 52.1547 91.4114 52.112V52.12C91.2087 52.072 91.0274 51.984 90.8674 51.856C90.7127 51.728 90.59 51.5733 90.4994 51.392C90.4087 51.2107 90.3634 51.0107 90.3634 50.792C90.3634 50.3227 90.534 49.9547 90.8754 49.688C91.222 49.4213 91.6834 49.288 92.2594 49.288C92.8354 49.288 93.294 49.4213 93.6354 49.688C93.982 49.9547 94.1554 50.3227 94.1554 50.792C94.1554 51.0053 94.11 51.2053 94.0194 51.392C93.9287 51.5733 93.8034 51.728 93.6434 51.856C93.4887 51.984 93.3074 52.072 93.0994 52.12V52.112C93.3287 52.1493 93.5314 52.232 93.7074 52.36C93.8887 52.488 94.03 52.6507 94.1314 52.848C94.238 53.04 94.2914 53.2613 94.2914 53.512C94.2914 54.0027 94.11 54.3867 93.7474 54.664C93.39 54.936 92.894 55.072 92.2594 55.072ZM92.2594 54.472C92.702 54.472 93.038 54.3867 93.2674 54.216C93.502 54.0453 93.6194 53.7947 93.6194 53.464C93.6194 53.1333 93.502 52.88 93.2674 52.704C93.038 52.528 92.702 52.44 92.2594 52.44C91.8167 52.44 91.478 52.528 91.2434 52.704C91.014 52.88 90.8994 53.1333 90.8994 53.464C90.8994 53.7947 91.014 54.0453 91.2434 54.216C91.478 54.3867 91.8167 54.472 92.2594 54.472ZM92.2594 51.84C92.6434 51.84 92.9447 51.7547 93.1634 51.584C93.382 51.408 93.4914 51.1653 93.4914 50.856C93.4914 50.552 93.382 50.3147 93.1634 50.144C92.9447 49.968 92.6434 49.88 92.2594 49.88C91.8807 49.88 91.582 49.968 91.3634 50.144C91.1447 50.3147 91.0354 50.552 91.0354 50.856C91.0354 51.1653 91.1447 51.408 91.3634 51.584C91.582 51.7547 91.8807 51.84 92.2594 51.84ZM97.0826 55L99.1706 51.976V52.24L97.1946 49.36H98.0186L99.6186 51.712H99.5786L101.179 49.36H102.003L100.011 52.24V51.976L102.107 55H101.275L99.5626 52.496H99.6186L97.9066 55H97.0826ZM107.579 55V53.832H104.947V53.296L107.547 49.36H108.259V53.232H109.043V53.832H108.259V55H107.579ZM107.603 53.232V50.24H107.635L105.571 53.368L105.515 53.232H107.603ZM111.648 55.072C111.413 55.072 111.181 55.048 110.952 55C110.723 54.952 110.504 54.8773 110.296 54.776C110.093 54.6747 109.907 54.5493 109.736 54.4L110.008 53.84C110.264 54.0587 110.531 54.216 110.808 54.312C111.085 54.4027 111.365 54.448 111.648 54.448C111.883 54.448 112.093 54.4133 112.28 54.344C112.472 54.2693 112.621 54.16 112.728 54.016C112.84 53.8667 112.896 53.6747 112.896 53.44C112.896 53.1147 112.787 52.8693 112.568 52.704C112.349 52.5333 112.032 52.448 111.616 52.448H110.768V51.832H111.512C111.752 51.832 111.965 51.7947 112.152 51.72C112.344 51.64 112.493 51.5227 112.6 51.368C112.707 51.2133 112.76 51.0213 112.76 50.792C112.76 50.4987 112.659 50.28 112.456 50.136C112.253 49.9867 111.992 49.912 111.672 49.912C111.389 49.912 111.112 49.96 110.84 50.056C110.573 50.152 110.328 50.3173 110.104 50.552L109.84 50C110.064 49.76 110.341 49.5813 110.672 49.464C111.003 49.3467 111.347 49.288 111.704 49.288C112.061 49.288 112.368 49.3467 112.624 49.464C112.885 49.576 113.088 49.7413 113.232 49.96C113.376 50.1733 113.448 50.432 113.448 50.736C113.448 51.056 113.357 51.3387 113.176 51.584C112.995 51.8293 112.749 52.0027 112.44 52.104V52.096C112.664 52.1387 112.861 52.2213 113.032 52.344C113.203 52.4613 113.339 52.616 113.44 52.808C113.541 52.9947 113.592 53.216 113.592 53.472C113.592 53.808 113.509 54.096 113.344 54.336C113.184 54.576 112.957 54.76 112.664 54.888C112.376 55.0107 112.037 55.072 111.648 55.072ZM116.525 55.072C115.896 55.072 115.4 54.936 115.037 54.664C114.674 54.3867 114.493 54.0027 114.493 53.512C114.493 53.2613 114.541 53.04 114.637 52.848C114.738 52.6507 114.877 52.4907 115.053 52.368C115.234 52.24 115.442 52.1547 115.677 52.112V52.12C115.474 52.072 115.293 51.984 115.133 51.856C114.978 51.728 114.856 51.5733 114.765 51.392C114.674 51.2107 114.629 51.0107 114.629 50.792C114.629 50.3227 114.8 49.9547 115.141 49.688C115.488 49.4213 115.949 49.288 116.525 49.288C117.101 49.288 117.56 49.4213 117.901 49.688C118.248 49.9547 118.421 50.3227 118.421 50.792C118.421 51.0053 118.376 51.2053 118.285 51.392C118.194 51.5733 118.069 51.728 117.909 51.856C117.754 51.984 117.573 52.072 117.365 52.12V52.112C117.594 52.1493 117.797 52.232 117.973 52.36C118.154 52.488 118.296 52.6507 118.397 52.848C118.504 53.04 118.557 53.2613 118.557 53.512C118.557 54.0027 118.376 54.3867 118.013 54.664C117.656 54.936 117.16 55.072 116.525 55.072ZM116.525 54.472C116.968 54.472 117.304 54.3867 117.533 54.216C117.768 54.0453 117.885 53.7947 117.885 53.464C117.885 53.1333 117.768 52.88 117.533 52.704C117.304 52.528 116.968 52.44 116.525 52.44C116.082 52.44 115.744 52.528 115.509 52.704C115.28 52.88 115.165 53.1333 115.165 53.464C115.165 53.7947 115.28 54.0453 115.509 54.216C115.744 54.3867 116.082 54.472 116.525 54.472ZM116.525 51.84C116.909 51.84 117.21 51.7547 117.429 51.584C117.648 51.408 117.757 51.1653 117.757 50.856C117.757 50.552 117.648 50.3147 117.429 50.144C117.21 49.968 116.909 49.88 116.525 49.88C116.146 49.88 115.848 49.968 115.629 50.144C115.41 50.3147 115.301 50.552 115.301 50.856C115.301 51.1653 115.41 51.408 115.629 51.584C115.848 51.7547 116.146 51.84 116.525 51.84Z" fill="black"/>
<path d="M18.168 68L16.36 62.36H17.112L18.584 67.144H18.512L20.152 62.36H20.736L22.36 67.144H22.304L23.792 62.36H24.512L22.696 68H22.016L20.424 63.344H20.456L18.832 68H18.168ZM27.0223 68.072C26.5796 68.072 26.1956 67.992 25.8703 67.832C25.5503 67.6667 25.3049 67.432 25.1343 67.128C24.9636 66.8187 24.8783 66.4507 24.8783 66.024C24.8783 65.624 24.9583 65.272 25.1183 64.968C25.2783 64.6587 25.5049 64.416 25.7983 64.24C26.0916 64.064 26.4409 63.976 26.8463 63.976C27.2303 63.976 27.5556 64.0587 27.8223 64.224C28.0943 64.3893 28.2996 64.6213 28.4383 64.92C28.5823 65.2187 28.6543 65.5733 28.6543 65.984V66.216H25.4143V65.72H28.1903L28.0383 65.88C28.0383 65.4427 27.9343 65.1067 27.7263 64.872C27.5236 64.6373 27.2303 64.52 26.8463 64.52C26.5956 64.52 26.3716 64.5787 26.1743 64.696C25.9823 64.808 25.8329 64.968 25.7263 65.176C25.6196 65.384 25.5663 65.6373 25.5663 65.936V66.016C25.5663 66.336 25.6249 66.6053 25.7423 66.824C25.8596 67.0427 26.0276 67.208 26.2463 67.32C26.4649 67.432 26.7263 67.488 27.0303 67.488C27.2489 67.488 27.4703 67.4587 27.6943 67.4C27.9236 67.336 28.1369 67.224 28.3343 67.064L28.5743 67.576C28.3716 67.7467 28.1289 67.872 27.8463 67.952C27.5689 68.032 27.2943 68.072 27.0223 68.072ZM29.7492 63.096V62.304H30.6132V63.096H29.7492ZM29.8292 68V64.048H30.5412V68H29.8292ZM33.674 69.512C33.3593 69.512 33.0473 69.464 32.738 69.368C32.4287 69.2773 32.1647 69.152 31.946 68.992L32.17 68.44C32.3193 68.536 32.4767 68.6187 32.642 68.688C32.8073 68.7627 32.9753 68.816 33.146 68.848C33.322 68.8853 33.4953 68.904 33.666 68.904C34.0767 68.904 34.3967 68.8 34.626 68.592C34.8607 68.384 34.978 68.088 34.978 67.704V66.976H34.962C34.866 67.248 34.6927 67.4693 34.442 67.64C34.1913 67.8053 33.9007 67.888 33.57 67.888C33.1967 67.888 32.8713 67.808 32.594 67.648C32.3167 67.4827 32.1007 67.2533 31.946 66.96C31.7967 66.6667 31.722 66.3227 31.722 65.928C31.722 65.5387 31.7967 65.1973 31.946 64.904C32.1007 64.6107 32.3167 64.384 32.594 64.224C32.8713 64.0587 33.1967 63.976 33.57 63.976C33.9007 63.976 34.1913 64.0613 34.442 64.232C34.698 64.4027 34.874 64.6293 34.97 64.912H34.978V64.048H35.642V67.64C35.642 68.024 35.562 68.3547 35.402 68.632C35.2473 68.9147 35.0233 69.1307 34.73 69.28C34.4367 69.4347 34.0847 69.512 33.674 69.512ZM33.69 67.304C34.0793 67.304 34.386 67.1787 34.61 66.928C34.8393 66.6773 34.954 66.344 34.954 65.928C34.954 65.512 34.8393 65.1813 34.61 64.936C34.386 64.6853 34.0793 64.56 33.69 64.56C33.306 64.56 32.9993 64.6853 32.77 64.936C32.546 65.1813 32.434 65.512 32.434 65.928C32.434 66.344 32.546 66.6773 32.77 66.928C32.9993 67.1787 33.306 67.304 33.69 67.304ZM37.0636 68V62.36H37.7516V64.888C37.8689 64.6053 38.0529 64.384 38.3036 64.224C38.5596 64.0587 38.8476 63.976 39.1676 63.976C39.4929 63.976 39.7649 64.0347 39.9836 64.152C40.2022 64.264 40.3649 64.44 40.4716 64.68C40.5836 64.9147 40.6396 65.208 40.6396 65.56V68H39.9276V65.6C39.9276 65.3867 39.8956 65.2053 39.8316 65.056C39.7729 64.9067 39.6769 64.792 39.5436 64.712C39.4102 64.6267 39.2316 64.584 39.0076 64.584C38.7729 64.584 38.5622 64.6373 38.3756 64.744C38.1889 64.8507 38.0422 64.9947 37.9356 65.176C37.8289 65.3573 37.7756 65.56 37.7756 65.784V68H37.0636ZM43.7119 68.072C43.2373 68.072 42.8773 67.9467 42.6319 67.696C42.3919 67.4453 42.2719 67.088 42.2719 66.624V64.632H41.4719V64.048H42.2959V62.872H42.9839V64.048H44.3999V64.632H42.9839V66.56C42.9839 66.864 43.0506 67.0907 43.1839 67.24C43.3226 67.384 43.5333 67.456 43.8159 67.456C43.9279 67.456 44.0346 67.4453 44.1359 67.424C44.2426 67.4027 44.3439 67.3707 44.4399 67.328L44.5519 67.888C44.4453 67.9467 44.3146 67.992 44.1599 68.024C44.0106 68.056 43.8613 68.072 43.7119 68.072Z" fill="#CE3439"/>
<path d="M57.8357 68V67.472L59.8197 65.392C60.0117 65.1893 60.161 65.0053 60.2677 64.84C60.3744 64.6747 60.4517 64.5147 60.4997 64.36C60.5477 64.2053 60.5717 64.048 60.5717 63.888C60.5717 63.5733 60.4704 63.3333 60.2677 63.168C60.0704 62.9973 59.7957 62.912 59.4437 62.912C59.177 62.912 58.913 62.9653 58.6517 63.072C58.3957 63.1733 58.1504 63.336 57.9157 63.56L57.6437 63C57.8784 62.776 58.1584 62.6027 58.4837 62.48C58.809 62.352 59.145 62.288 59.4917 62.288C59.8597 62.288 60.177 62.352 60.4437 62.48C60.7104 62.6027 60.913 62.7813 61.0517 63.016C61.1957 63.2453 61.2677 63.5227 61.2677 63.848C61.2677 64.0133 61.249 64.176 61.2117 64.336C61.1744 64.4907 61.1157 64.6453 61.0357 64.8C60.961 64.9547 60.8624 65.1147 60.7397 65.28C60.617 65.4453 60.4677 65.6187 60.2917 65.8L58.7397 67.416V67.384H61.4997V68H57.8357ZM62.7126 68V67.392H64.2566V62.928L64.6326 62.984L62.9926 64.04L62.6726 63.488L64.4406 62.36H64.9606V67.392H66.3846V68H62.7126ZM68.6614 69.536C68.2828 68.96 68.0028 68.3733 67.8214 67.776C67.6454 67.1733 67.5574 66.5467 67.5574 65.896C67.5574 65.2453 67.6454 64.6213 67.8214 64.024C68.0028 63.4267 68.2828 62.8373 68.6614 62.256L69.1734 62.44C68.9708 62.8187 68.8028 63.2 68.6694 63.584C68.5361 63.968 68.4348 64.352 68.3654 64.736C68.3014 65.1147 68.2694 65.5013 68.2694 65.896C68.2694 66.2853 68.3014 66.672 68.3654 67.056C68.4348 67.44 68.5361 67.8213 68.6694 68.2C68.8028 68.584 68.9708 68.968 69.1734 69.352L68.6614 69.536ZM70.2929 68V62.36H71.0049V64.904H71.0369L73.7169 62.36H74.6209L71.5089 65.312L71.5569 64.92L74.8129 68H73.8609L71.0369 65.352H71.0049V68H70.2929ZM77.1428 69.512C76.8281 69.512 76.5161 69.464 76.2068 69.368C75.8974 69.2773 75.6334 69.152 75.4148 68.992L75.6388 68.44C75.7881 68.536 75.9454 68.6187 76.1108 68.688C76.2761 68.7627 76.4441 68.816 76.6148 68.848C76.7908 68.8853 76.9641 68.904 77.1348 68.904C77.5454 68.904 77.8654 68.8 78.0948 68.592C78.3294 68.384 78.4468 68.088 78.4468 67.704V66.976H78.4308C78.3348 67.248 78.1614 67.4693 77.9108 67.64C77.6601 67.8053 77.3694 67.888 77.0388 67.888C76.6654 67.888 76.3401 67.808 76.0628 67.648C75.7854 67.4827 75.5694 67.2533 75.4148 66.96C75.2654 66.6667 75.1908 66.3227 75.1908 65.928C75.1908 65.5387 75.2654 65.1973 75.4148 64.904C75.5694 64.6107 75.7854 64.384 76.0628 64.224C76.3401 64.0587 76.6654 63.976 77.0388 63.976C77.3694 63.976 77.6601 64.0613 77.9108 64.232C78.1668 64.4027 78.3428 64.6293 78.4388 64.912H78.4468V64.048H79.1108V67.64C79.1108 68.024 79.0308 68.3547 78.8708 68.632C78.7161 68.9147 78.4921 69.1307 78.1988 69.28C77.9054 69.4347 77.5534 69.512 77.1428 69.512ZM77.1588 67.304C77.5481 67.304 77.8548 67.1787 78.0788 66.928C78.3081 66.6773 78.4228 66.344 78.4228 65.928C78.4228 65.512 78.3081 65.1813 78.0788 64.936C77.8548 64.6853 77.5481 64.56 77.1588 64.56C76.7748 64.56 76.4681 64.6853 76.2388 64.936C76.0148 65.1813 75.9028 65.512 75.9028 65.928C75.9028 66.344 76.0148 66.6773 76.2388 66.928C76.4681 67.1787 76.7748 67.304 77.1588 67.304ZM81.9883 68.072C81.7696 68.072 81.5536 68.0507 81.3403 68.008C81.1323 67.9707 80.9376 67.9173 80.7563 67.848C80.5803 67.7733 80.4283 67.6827 80.3003 67.576L80.5323 67.072C80.6656 67.1733 80.8123 67.256 80.9723 67.32C81.1376 67.384 81.3056 67.432 81.4763 67.464C81.6523 67.4907 81.8203 67.504 81.9803 67.504C82.311 67.504 82.5643 67.4533 82.7403 67.352C82.9216 67.2507 83.0123 67.1093 83.0123 66.928C83.0123 66.7733 82.959 66.656 82.8523 66.576C82.751 66.4907 82.5803 66.4267 82.3403 66.384L81.5163 66.24C81.1483 66.1707 80.871 66.0453 80.6843 65.864C80.503 65.6827 80.4123 65.4453 80.4123 65.152C80.4123 64.9173 80.4763 64.712 80.6043 64.536C80.7376 64.36 80.927 64.224 81.1723 64.128C81.4176 64.0267 81.711 63.976 82.0523 63.976C82.239 63.976 82.4283 63.9947 82.6203 64.032C82.8176 64.0693 82.999 64.1253 83.1643 64.2C83.335 64.2693 83.4736 64.3573 83.5803 64.464L83.3403 64.968C83.2336 64.8667 83.1056 64.7867 82.9563 64.728C82.8123 64.664 82.6603 64.6187 82.5003 64.592C82.3456 64.56 82.1936 64.544 82.0443 64.544C81.735 64.544 81.495 64.5973 81.3243 64.704C81.1536 64.8053 81.0683 64.9493 81.0683 65.136C81.0683 65.2853 81.1163 65.4027 81.2123 65.488C81.3136 65.5733 81.4763 65.6373 81.7003 65.68L82.5003 65.824C82.895 65.8987 83.1883 66.024 83.3803 66.2C83.5723 66.3707 83.6683 66.608 83.6683 66.912C83.6683 67.1467 83.599 67.352 83.4603 67.528C83.3216 67.6987 83.127 67.832 82.8763 67.928C82.6256 68.024 82.3296 68.072 81.9883 68.072ZM84.9408 69.536L84.4208 69.352C84.6288 68.9627 84.7995 68.576 84.9328 68.192C85.0661 67.8133 85.1648 67.4347 85.2288 67.056C85.2928 66.672 85.3248 66.2853 85.3248 65.896C85.3248 65.5067 85.2928 65.1227 85.2288 64.744C85.1648 64.36 85.0661 63.976 84.9328 63.592C84.7995 63.208 84.6288 62.824 84.4208 62.44L84.9408 62.256C85.3141 62.832 85.5888 63.4213 85.7648 64.024C85.9461 64.6213 86.0368 65.2453 86.0368 65.896C86.0368 66.5413 85.9461 67.1653 85.7648 67.768C85.5888 68.3653 85.3141 68.9547 84.9408 69.536Z" fill="black"/>
<defs>
<filter id="filter0_d_271_531" x="0.0999999" y="25" width="135.8" height="57.9" filterUnits="userSpaceOnUse" color-interpolation-filters="sRGB">
<feFlood flood-opacity="0" result="BackgroundImageFix"/>
<feColorMatrix in="SourceAlpha" type="matrix" values="0 0 0 0 0 0 0 0 0 0 0 0 0 0 0 0 0 0 127 0" result="hardAlpha"/>
<feOffset dy="4"/>
<feGaussianBlur stdDeviation="1.95"/>
<feComposite in2="hardAlpha" operator="out"/>
<feColorMatrix type="matrix" values="0 0 0 0 0 0 0 0 0 0 0 0 0 0 0 0 0 0 0.2 0"/>
<feBlend mode="normal" in2="BackgroundImageFix" result="effect1_dropShadow_271_531"/>
<feBlend mode="normal" in="SourceGraphic" in2="effect1_dropShadow_271_531" result="shape"/>
</filter>
<clipPath id="clip0_271_531">
<rect width="21.6818" height="21.6824" fill="white" transform="translate(56.1133 3.375)"/>
</clipPath>
</defs>
</svg>
