<svg width="90" height="82" viewBox="0 0 90 82" fill="none" xmlns="http://www.w3.org/2000/svg">
<g filter="url(#filter0_d_271_479)">
<rect x="4" y="24" width="82" height="50" rx="2" fill="#EBDBBA"/>
<rect x="4.25" y="24.25" width="81.5" height="49.5" rx="1.75" stroke="#EBDBBA" stroke-width="0.5"/>
</g>
<rect x="29.375" width="30.2083" height="30.2083" rx="3" fill="#CB3335"/>
<g clip-path="url(#clip0_271_479)">
<path fill-rule="evenodd" clip-rule="evenodd" d="M35.7877 10.6648C35.8439 10.6856 35.9096 10.7322 35.9341 10.7686C35.9704 10.8224 35.9784 11.2926 35.978 15.8072L35.8971 15.8898C35.8406 15.9473 35.7801 15.9724 35.6988 15.9724C35.6179 15.9724 35.5561 15.947 35.4163 15.8072V13.3292C35.4163 11.7433 35.4282 10.8274 35.4494 10.7851C35.4676 10.7488 35.5284 10.6985 35.5842 10.6731C35.6638 10.6374 35.7081 10.6358 35.7877 10.6648ZM52.1427 10.6648C52.1989 10.6856 52.2646 10.7322 52.2891 10.7686C52.3254 10.8224 52.3333 11.2926 52.333 15.8072L52.2521 15.8898C52.1956 15.9473 52.1351 15.9724 52.0538 15.9724C51.9729 15.9724 51.9111 15.947 51.7713 15.8072V13.3292C51.7713 11.7433 51.7832 10.8274 51.8044 10.7851C51.8225 10.7488 51.8833 10.6985 51.9392 10.6731C52.0188 10.6374 52.0631 10.6358 52.1427 10.6648ZM52.1734 16.848L52.333 17.0297V18.7974C52.333 19.9099 52.3208 20.5895 52.3 20.6311C52.2818 20.6675 52.2151 20.7197 52.1513 20.7468C52.0495 20.7904 51.0553 20.7963 43.8747 20.7963C36.694 20.7963 35.6998 20.7904 35.5981 20.7468C35.5343 20.7197 35.4676 20.6675 35.4494 20.6311C35.4286 20.5895 35.4163 19.9118 35.416 18.8056C35.416 17.2418 35.4216 17.0377 35.4689 16.9696C35.4983 16.9273 35.5541 16.8801 35.5931 16.8642C35.6328 16.848 39.3128 16.8381 52.1734 16.848ZM35.9946 20.2181H51.7548L51.7601 17.3932H50.9123C50.9106 17.944 50.8951 18.0913 50.87 18.126C50.8478 18.1567 50.7851 18.1987 50.7306 18.2195C50.6506 18.2502 50.6106 18.2473 50.5241 18.2053C50.4537 18.1709 50.4051 18.1161 50.383 18.0457C50.3645 17.9866 50.3496 17.8158 50.3499 17.6658L50.3506 17.3932H49.2272C49.2272 18.6034 49.2256 18.6173 49.1476 18.7065C49.0878 18.7746 49.0376 18.7974 48.9464 18.7974C48.8552 18.7974 48.805 18.7746 48.7452 18.7065C48.6672 18.6173 48.6655 18.6034 48.6655 18.0044V17.3932H47.5422C47.5266 18.047 47.5174 18.0936 47.452 18.1587C47.4041 18.2066 47.3366 18.2331 47.2593 18.234C47.1691 18.2354 47.1202 18.2132 47.0601 18.1448C46.9874 18.0619 46.9805 18.0256 46.9805 17.7236V17.3932H45.8571C45.8571 18.3807 45.8452 18.5446 45.8075 18.6322C45.7778 18.7019 45.722 18.7617 45.6671 18.7828C45.6172 18.802 45.5429 18.8093 45.5019 18.7994C45.4609 18.7891 45.3975 18.7475 45.3608 18.7065C45.2987 18.6375 45.2941 18.5882 45.2948 18.0127L45.2954 17.3932H44.172C44.1717 17.79 44.1568 17.9611 44.1387 18.0292C44.1142 18.122 44.0769 18.1676 43.9903 18.2109C43.8803 18.2661 43.8691 18.2661 43.759 18.2109C43.6725 18.1676 43.6351 18.122 43.6107 18.0292C43.5925 17.9611 43.5776 17.79 43.5776 17.6492L43.5773 17.3932H42.4539C42.4523 18.4475 42.4397 18.6477 42.4117 18.6847C42.3895 18.7135 42.338 18.7544 42.297 18.7756C42.256 18.7967 42.1781 18.8066 42.1235 18.7974C42.0575 18.7864 42.0024 18.7451 41.9583 18.6735C41.8992 18.5767 41.8926 18.5076 41.8923 17.9796V17.3932H40.7689C40.7689 18.0256 40.7619 18.0619 40.6893 18.1448C40.6301 18.2119 40.5786 18.2357 40.4917 18.2357C40.4135 18.2357 40.3493 18.2106 40.2991 18.1604C40.2316 18.0933 40.2227 18.0493 40.2155 17.7391L40.2072 17.3932H39.0838C39.0676 18.6186 39.064 18.6504 38.9936 18.7204C38.9457 18.7683 38.8783 18.7947 38.801 18.7957C38.7108 18.7971 38.6619 18.7749 38.6018 18.7065C38.5238 18.6173 38.5221 18.6034 38.5221 18.0044V17.3932H37.3988C37.3998 17.8158 37.3849 17.9866 37.3664 18.0457C37.3443 18.1161 37.2957 18.1709 37.2253 18.2053C37.1387 18.2473 37.0988 18.2502 37.0188 18.2195C36.9643 18.1987 36.9015 18.1567 36.8794 18.126C36.8543 18.0913 36.8387 17.944 36.8381 17.7318L36.8371 17.3932H35.9774L35.9946 20.2181ZM38.1131 11.4789C38.1564 11.4789 38.2327 11.515 38.3735 11.6382L38.39 13.164H49.3594L49.3759 11.6382L49.4668 11.5586C49.5167 11.515 49.591 11.4783 49.632 11.4776C49.6729 11.4766 49.739 11.5027 49.7787 11.5354C49.8186 11.5678 50.1497 11.9812 50.5145 12.4536C50.8796 12.9261 51.1868 13.35 51.1977 13.3953C51.2093 13.4429 51.1961 13.5198 51.1667 13.577C51.1386 13.6315 50.8677 13.996 50.565 14.3865C50.262 14.7774 49.9561 15.1676 49.8851 15.2538C49.7833 15.3774 49.7347 15.4107 49.6567 15.4107C49.6022 15.4107 49.5279 15.3959 49.4915 15.3777C49.4552 15.3595 49.4103 15.2964 49.3918 15.2373C49.3733 15.1781 49.3584 14.814 49.3594 13.7257H38.39L38.3906 14.4278C38.3906 14.814 38.3758 15.1781 38.3576 15.2373C38.3391 15.2964 38.2942 15.3595 38.2578 15.3777C38.2215 15.3959 38.1471 15.4107 38.0926 15.4107C38.0146 15.4107 37.9661 15.3774 37.8643 15.2538C37.7929 15.1676 37.487 14.7774 37.1843 14.3865C36.8814 13.996 36.6108 13.6315 36.5827 13.577C36.5533 13.5198 36.54 13.4429 36.5516 13.3953C36.5625 13.35 36.8698 12.9261 37.2346 12.4536C37.5993 11.9812 37.9287 11.5685 37.9664 11.5368C38.0037 11.505 38.0698 11.4789 38.1131 11.4789ZM37.2002 13.5109C37.224 13.5473 37.371 13.7425 37.5273 13.9451C37.6839 14.1476 37.823 14.3075 37.8366 14.3003C37.8501 14.2933 37.8613 13.9084 37.8613 13.4448C37.8613 12.979 37.8481 12.6023 37.8319 12.6023C37.8161 12.6023 37.6578 12.792 37.48 13.0236C37.1886 13.4045 37.1615 13.4511 37.2002 13.5109ZM49.9128 14.3003C49.9264 14.3075 50.0655 14.1476 50.2217 13.9451C50.378 13.7425 50.5254 13.5473 50.5488 13.5109C50.5875 13.4511 50.5604 13.4045 50.2647 13.0223C50.0846 12.7897 49.9264 12.6 49.9128 12.601C49.8993 12.6017 49.888 12.9816 49.888 13.4448C49.888 13.9084 49.8993 14.2933 49.9128 14.3003Z" fill="#EBDBBA"/>
</g>
<path d="M25.332 46V40.36H27.308C27.9107 40.36 28.4227 40.4693 28.844 40.688C29.2653 40.9067 29.5853 41.2267 29.804 41.648C30.028 42.064 30.14 42.5733 30.14 43.176C30.14 43.7787 30.028 44.2907 29.804 44.712C29.5853 45.1333 29.2653 45.4533 28.844 45.672C28.4227 45.8907 27.9107 46 27.308 46H25.332ZM26.044 45.376H27.268C27.9667 45.376 28.4947 45.1947 28.852 44.832C29.2147 44.4693 29.396 43.9173 29.396 43.176C29.396 42.4347 29.2147 41.8853 28.852 41.528C28.4947 41.1653 27.9667 40.984 27.268 40.984H26.044V45.376ZM31.3742 41.096V40.304H32.2382V41.096H31.3742ZM31.4542 46V42.048H32.1662V46H31.4542ZM33.603 46V42.048H34.259V42.912C34.3283 42.736 34.4243 42.5787 34.547 42.44C34.675 42.296 34.827 42.184 35.003 42.104C35.1843 42.0187 35.3817 41.976 35.595 41.976C35.9417 41.976 36.227 42.0613 36.451 42.232C36.675 42.4027 36.8137 42.6267 36.867 42.904H36.859C36.9657 42.6427 37.1337 42.424 37.363 42.248C37.5977 42.0667 37.891 41.976 38.243 41.976C38.5417 41.976 38.795 42.0347 39.003 42.152C39.211 42.264 39.3683 42.4373 39.475 42.672C39.5817 42.9067 39.635 43.2027 39.635 43.56V46H38.931V43.608C38.931 43.2667 38.8697 43.0107 38.747 42.84C38.6243 42.6693 38.4057 42.584 38.091 42.584C37.8563 42.584 37.6537 42.6373 37.483 42.744C37.3177 42.8453 37.1897 42.9893 37.099 43.176C37.0137 43.3573 36.971 43.5627 36.971 43.792V46H36.267V43.608C36.267 43.272 36.1977 43.0187 36.059 42.848C35.9203 42.672 35.7097 42.584 35.427 42.584C35.1977 42.584 34.9977 42.6427 34.827 42.76C34.6617 42.872 34.5337 43.0187 34.443 43.2C34.3523 43.3813 34.307 43.5733 34.307 43.776V46H33.603ZM42.9676 46.072C42.5249 46.072 42.1409 45.992 41.8156 45.832C41.4956 45.6667 41.2502 45.432 41.0796 45.128C40.9089 44.8187 40.8236 44.4507 40.8236 44.024C40.8236 43.624 40.9036 43.272 41.0636 42.968C41.2236 42.6587 41.4502 42.416 41.7436 42.24C42.0369 42.064 42.3862 41.976 42.7916 41.976C43.1756 41.976 43.5009 42.0587 43.7676 42.224C44.0396 42.3893 44.2449 42.6213 44.3836 42.92C44.5276 43.2187 44.5996 43.5733 44.5996 43.984V44.216H41.3596V43.72H44.1356L43.9836 43.88C43.9836 43.4427 43.8796 43.1067 43.6716 42.872C43.4689 42.6373 43.1756 42.52 42.7916 42.52C42.5409 42.52 42.3169 42.5787 42.1196 42.696C41.9276 42.808 41.7782 42.968 41.6716 43.176C41.5649 43.384 41.5116 43.6373 41.5116 43.936V44.016C41.5116 44.336 41.5702 44.6053 41.6876 44.824C41.8049 45.0427 41.9729 45.208 42.1916 45.32C42.4102 45.432 42.6716 45.488 42.9756 45.488C43.1942 45.488 43.4156 45.4587 43.6396 45.4C43.8689 45.336 44.0822 45.224 44.2796 45.064L44.5196 45.576C44.3169 45.7467 44.0742 45.872 43.7916 45.952C43.5142 46.032 43.2396 46.072 42.9676 46.072ZM45.7745 46V42.048H46.4385V42.904C46.5665 42.6107 46.7585 42.384 47.0145 42.224C47.2705 42.0587 47.5585 41.976 47.8785 41.976C48.2038 41.976 48.4758 42.0347 48.6945 42.152C48.9132 42.264 49.0758 42.44 49.1825 42.68C49.2945 42.9147 49.3505 43.208 49.3505 43.56V46H48.6385V43.6C48.6385 43.3867 48.6092 43.2053 48.5505 43.056C48.4918 42.9067 48.3932 42.792 48.2545 42.712C48.1212 42.6267 47.9425 42.584 47.7185 42.584C47.4838 42.584 47.2705 42.6373 47.0785 42.744C46.8918 42.8507 46.7452 42.9947 46.6385 43.176C46.5372 43.3573 46.4865 43.56 46.4865 43.784V46H45.7745ZM52.2149 46.072C51.9962 46.072 51.7802 46.0507 51.5669 46.008C51.3589 45.9707 51.1642 45.9173 50.9829 45.848C50.8069 45.7733 50.6549 45.6827 50.5269 45.576L50.7589 45.072C50.8922 45.1733 51.0389 45.256 51.1989 45.32C51.3642 45.384 51.5322 45.432 51.7029 45.464C51.8789 45.4907 52.0469 45.504 52.2069 45.504C52.5375 45.504 52.7909 45.4533 52.9669 45.352C53.1482 45.2507 53.2389 45.1093 53.2389 44.928C53.2389 44.7733 53.1855 44.656 53.0789 44.576C52.9775 44.4907 52.8069 44.4267 52.5669 44.384L51.7429 44.24C51.3749 44.1707 51.0975 44.0453 50.9109 43.864C50.7295 43.6827 50.6389 43.4453 50.6389 43.152C50.6389 42.9173 50.7029 42.712 50.8309 42.536C50.9642 42.36 51.1535 42.224 51.3989 42.128C51.6442 42.0267 51.9375 41.976 52.2789 41.976C52.4655 41.976 52.6549 41.9947 52.8469 42.032C53.0442 42.0693 53.2255 42.1253 53.3909 42.2C53.5615 42.2693 53.7002 42.3573 53.8069 42.464L53.5669 42.968C53.4602 42.8667 53.3322 42.7867 53.1829 42.728C53.0389 42.664 52.8869 42.6187 52.7269 42.592C52.5722 42.56 52.4202 42.544 52.2709 42.544C51.9615 42.544 51.7215 42.5973 51.5509 42.704C51.3802 42.8053 51.2949 42.9493 51.2949 43.136C51.2949 43.2853 51.3429 43.4027 51.4389 43.488C51.5402 43.5733 51.7029 43.6373 51.9269 43.68L52.7269 43.824C53.1215 43.8987 53.4149 44.024 53.6069 44.2C53.7989 44.3707 53.8949 44.608 53.8949 44.912C53.8949 45.1467 53.8255 45.352 53.6869 45.528C53.5482 45.6987 53.3535 45.832 53.1029 45.928C52.8522 46.024 52.5562 46.072 52.2149 46.072ZM54.9914 41.096V40.304H55.8554V41.096H54.9914ZM55.0714 46V42.048H55.7834V46H55.0714ZM58.9242 46.072C58.5242 46.072 58.1775 45.9867 57.8842 45.816C57.5909 45.6453 57.3642 45.408 57.2042 45.104C57.0442 44.7947 56.9642 44.432 56.9642 44.016C56.9642 43.6053 57.0442 43.248 57.2042 42.944C57.3642 42.6347 57.5909 42.3973 57.8842 42.232C58.1775 42.0613 58.5242 41.976 58.9242 41.976C59.3242 41.976 59.6682 42.0613 59.9562 42.232C60.2495 42.3973 60.4762 42.6347 60.6362 42.944C60.7962 43.248 60.8762 43.6053 60.8762 44.016C60.8762 44.432 60.7962 44.7947 60.6362 45.104C60.4815 45.408 60.2575 45.6453 59.9642 45.816C59.6709 45.9867 59.3242 46.072 58.9242 46.072ZM58.9162 45.472C59.3055 45.472 59.6122 45.3413 59.8362 45.08C60.0602 44.8187 60.1722 44.464 60.1722 44.016C60.1722 43.568 60.0602 43.216 59.8362 42.96C59.6175 42.704 59.3135 42.576 58.9242 42.576C58.5349 42.576 58.2282 42.704 58.0042 42.96C57.7802 43.216 57.6682 43.568 57.6682 44.016C57.6682 44.464 57.7802 44.8187 58.0042 45.08C58.2335 45.3413 58.5375 45.472 58.9162 45.472ZM62.0714 46V42.048H62.7354V42.904C62.8634 42.6107 63.0554 42.384 63.3114 42.224C63.5674 42.0587 63.8554 41.976 64.1754 41.976C64.5007 41.976 64.7727 42.0347 64.9914 42.152C65.21 42.264 65.3727 42.44 65.4794 42.68C65.5914 42.9147 65.6474 43.208 65.6474 43.56V46H64.9354V43.6C64.9354 43.3867 64.906 43.2053 64.8474 43.056C64.7887 42.9067 64.69 42.792 64.5514 42.712C64.418 42.6267 64.2394 42.584 64.0154 42.584C63.7807 42.584 63.5674 42.6373 63.3754 42.744C63.1887 42.8507 63.042 42.9947 62.9354 43.176C62.834 43.3573 62.7834 43.56 62.7834 43.784V46H62.0714Z" fill="#CE3439"/>
<path d="M27.3453 59.072C26.716 59.072 26.22 58.936 25.8573 58.664C25.4946 58.3867 25.3133 58.0027 25.3133 57.512C25.3133 57.2613 25.3613 57.04 25.4573 56.848C25.5586 56.6507 25.6973 56.4907 25.8733 56.368C26.0546 56.24 26.2626 56.1547 26.4973 56.112V56.12C26.2946 56.072 26.1133 55.984 25.9533 55.856C25.7986 55.728 25.676 55.5733 25.5853 55.392C25.4946 55.2107 25.4493 55.0107 25.4493 54.792C25.4493 54.3227 25.62 53.9547 25.9613 53.688C26.308 53.4213 26.7693 53.288 27.3453 53.288C27.9213 53.288 28.38 53.4213 28.7213 53.688C29.068 53.9547 29.2413 54.3227 29.2413 54.792C29.2413 55.0053 29.196 55.2053 29.1053 55.392C29.0146 55.5733 28.8893 55.728 28.7293 55.856C28.5746 55.984 28.3933 56.072 28.1853 56.12V56.112C28.4146 56.1493 28.6173 56.232 28.7933 56.36C28.9746 56.488 29.116 56.6507 29.2173 56.848C29.324 57.04 29.3773 57.2613 29.3773 57.512C29.3773 58.0027 29.196 58.3867 28.8333 58.664C28.476 58.936 27.98 59.072 27.3453 59.072ZM27.3453 58.472C27.788 58.472 28.124 58.3867 28.3533 58.216C28.588 58.0453 28.7053 57.7947 28.7053 57.464C28.7053 57.1333 28.588 56.88 28.3533 56.704C28.124 56.528 27.788 56.44 27.3453 56.44C26.9026 56.44 26.564 56.528 26.3293 56.704C26.1 56.88 25.9853 57.1333 25.9853 57.464C25.9853 57.7947 26.1 58.0453 26.3293 58.216C26.564 58.3867 26.9026 58.472 27.3453 58.472ZM27.3453 55.84C27.7293 55.84 28.0306 55.7547 28.2493 55.584C28.468 55.408 28.5773 55.1653 28.5773 54.856C28.5773 54.552 28.468 54.3147 28.2493 54.144C28.0306 53.968 27.7293 53.88 27.3453 53.88C26.9666 53.88 26.668 53.968 26.4493 54.144C26.2306 54.3147 26.1213 54.552 26.1213 54.856C26.1213 55.1653 26.2306 55.408 26.4493 55.584C26.668 55.7547 26.9666 55.84 27.3453 55.84ZM32.2062 59.072C31.9609 59.072 31.7235 59.0453 31.4942 58.992C31.2702 58.9387 31.0595 58.8613 30.8622 58.76C30.6649 58.6533 30.4889 58.5253 30.3342 58.376L30.6142 57.816C30.8595 58.04 31.1102 58.2027 31.3662 58.304C31.6275 58.4 31.9075 58.448 32.2062 58.448C32.6009 58.448 32.9075 58.3467 33.1262 58.144C33.3502 57.936 33.4622 57.6453 33.4622 57.272C33.4622 56.904 33.3582 56.6107 33.1502 56.392C32.9422 56.1733 32.6542 56.064 32.2862 56.064C32.0409 56.064 31.8169 56.1147 31.6142 56.216C31.4169 56.312 31.2329 56.4747 31.0622 56.704H30.5022V53.36H33.8782V53.976H31.1502V56.096H31.1182C31.2462 55.904 31.4222 55.7493 31.6462 55.632C31.8702 55.5093 32.1209 55.448 32.3982 55.448C32.7609 55.448 33.0729 55.5253 33.3342 55.68C33.5955 55.8293 33.7955 56.0373 33.9342 56.304C34.0782 56.5707 34.1502 56.8827 34.1502 57.24C34.1502 57.6187 34.0702 57.9467 33.9102 58.224C33.7502 58.496 33.5262 58.7067 33.2382 58.856C32.9502 59 32.6062 59.072 32.2062 59.072ZM35.8591 56.312L35.3871 56.032L36.0911 54.968L36.1071 54.992L34.8191 55.072V54.52L36.1071 54.6L36.0831 54.616L35.3871 53.56L35.8671 53.28L36.4351 54.464H36.4271L36.9791 53.28L37.4591 53.56L36.7551 54.616L36.7311 54.6L38.0271 54.52V55.072L36.7391 54.992L36.7631 54.968L37.4591 56.032L36.9871 56.312L36.4271 55.136H36.4351L35.8591 56.312ZM40.7687 59.072C40.5234 59.072 40.286 59.0453 40.0567 58.992C39.8327 58.9387 39.622 58.8613 39.4247 58.76C39.2274 58.6533 39.0514 58.5253 38.8967 58.376L39.1767 57.816C39.422 58.04 39.6727 58.2027 39.9287 58.304C40.19 58.4 40.47 58.448 40.7687 58.448C41.1634 58.448 41.47 58.3467 41.6887 58.144C41.9127 57.936 42.0247 57.6453 42.0247 57.272C42.0247 56.904 41.9207 56.6107 41.7127 56.392C41.5047 56.1733 41.2167 56.064 40.8487 56.064C40.6034 56.064 40.3794 56.1147 40.1767 56.216C39.9794 56.312 39.7954 56.4747 39.6247 56.704H39.0647V53.36H42.4407V53.976H39.7127V56.096H39.6807C39.8087 55.904 39.9847 55.7493 40.2087 55.632C40.4327 55.5093 40.6834 55.448 40.9607 55.448C41.3234 55.448 41.6354 55.5253 41.8967 55.68C42.158 55.8293 42.358 56.0373 42.4967 56.304C42.6407 56.5707 42.7127 56.8827 42.7127 57.24C42.7127 57.6187 42.6327 57.9467 42.4727 58.224C42.3127 58.496 42.0887 58.7067 41.8007 58.856C41.5127 59 41.1687 59.072 40.7687 59.072ZM45.5016 59.072C45.0696 59.072 44.7042 58.9627 44.4056 58.744C44.1069 58.52 43.8802 58.1947 43.7256 57.768C43.5762 57.336 43.5016 56.8053 43.5016 56.176C43.5016 55.5467 43.5762 55.0187 43.7256 54.592C43.8802 54.1653 44.1069 53.8427 44.4056 53.624C44.7042 53.4 45.0696 53.288 45.5016 53.288C45.9442 53.288 46.3122 53.3973 46.6056 53.616C46.8989 53.8347 47.1202 54.1573 47.2696 54.584C47.4242 55.0107 47.5016 55.5387 47.5016 56.168C47.5016 56.7973 47.4242 57.328 47.2696 57.76C47.1202 58.192 46.8962 58.52 46.5976 58.744C46.2989 58.9627 45.9336 59.072 45.5016 59.072ZM45.5016 58.448C45.9389 58.448 46.2642 58.264 46.4776 57.896C46.6909 57.528 46.7976 56.952 46.7976 56.168C46.7976 55.3893 46.6909 54.8187 46.4776 54.456C46.2696 54.0933 45.9469 53.912 45.5096 53.912C45.0669 53.912 44.7389 54.096 44.5256 54.464C44.3122 54.8267 44.2056 55.3973 44.2056 56.176C44.2056 56.9493 44.3122 57.5227 44.5256 57.896C44.7389 58.264 45.0642 58.448 45.5016 58.448ZM49.2184 56.312L48.7464 56.032L49.4504 54.968L49.4664 54.992L48.1784 55.072V54.52L49.4664 54.6L49.4424 54.616L48.7464 53.56L49.2264 53.28L49.7944 54.464H49.7864L50.3384 53.28L50.8184 53.56L50.1144 54.616L50.0904 54.6L51.3864 54.52V55.072L50.0984 54.992L50.1224 54.968L50.8184 56.032L50.3464 56.312L49.7864 55.136H49.7944L49.2184 56.312ZM52.4001 59V58.392H53.9441V53.928L54.3201 53.984L52.6801 55.04L52.3601 54.488L54.1281 53.36H54.6481V58.392H56.0721V59H52.4001ZM57.1169 59V58.472L59.1009 56.392C59.2929 56.1893 59.4423 56.0053 59.5489 55.84C59.6556 55.6747 59.7329 55.5147 59.7809 55.36C59.8289 55.2053 59.8529 55.048 59.8529 54.888C59.8529 54.5733 59.7516 54.3333 59.5489 54.168C59.3516 53.9973 59.0769 53.912 58.7249 53.912C58.4583 53.912 58.1943 53.9653 57.9329 54.072C57.6769 54.1733 57.4316 54.336 57.1969 54.56L56.9249 54C57.1596 53.776 57.4396 53.6027 57.7649 53.48C58.0903 53.352 58.4263 53.288 58.7729 53.288C59.1409 53.288 59.4583 53.352 59.7249 53.48C59.9916 53.6027 60.1943 53.7813 60.3329 54.016C60.4769 54.2453 60.5489 54.5227 60.5489 54.848C60.5489 55.0133 60.5303 55.176 60.4929 55.336C60.4556 55.4907 60.3969 55.6453 60.3169 55.8C60.2423 55.9547 60.1436 56.1147 60.0209 56.28C59.8983 56.4453 59.7489 56.6187 59.5729 56.8L58.0209 58.416V58.384H60.7809V59H57.1169ZM63.6578 59.072C63.2258 59.072 62.8605 58.9627 62.5618 58.744C62.2631 58.52 62.0365 58.1947 61.8818 57.768C61.7325 57.336 61.6578 56.8053 61.6578 56.176C61.6578 55.5467 61.7325 55.0187 61.8818 54.592C62.0365 54.1653 62.2631 53.8427 62.5618 53.624C62.8605 53.4 63.2258 53.288 63.6578 53.288C64.1005 53.288 64.4685 53.3973 64.7618 53.616C65.0551 53.8347 65.2765 54.1573 65.4258 54.584C65.5805 55.0107 65.6578 55.5387 65.6578 56.168C65.6578 56.7973 65.5805 57.328 65.4258 57.76C65.2765 58.192 65.0525 58.52 64.7538 58.744C64.4551 58.9627 64.0898 59.072 63.6578 59.072ZM63.6578 58.448C64.0951 58.448 64.4205 58.264 64.6338 57.896C64.8471 57.528 64.9538 56.952 64.9538 56.168C64.9538 55.3893 64.8471 54.8187 64.6338 54.456C64.4258 54.0933 64.1031 53.912 63.6658 53.912C63.2231 53.912 62.8951 54.096 62.6818 54.464C62.4685 54.8267 62.3618 55.3973 62.3618 56.176C62.3618 56.9493 62.4685 57.5227 62.6818 57.896C62.8951 58.264 63.2205 58.448 63.6578 58.448Z" fill="black"/>
<defs>
<filter id="filter0_d_271_479" x="0.0999999" y="24" width="89.8" height="57.9" filterUnits="userSpaceOnUse" color-interpolation-filters="sRGB">
<feFlood flood-opacity="0" result="BackgroundImageFix"/>
<feColorMatrix in="SourceAlpha" type="matrix" values="0 0 0 0 0 0 0 0 0 0 0 0 0 0 0 0 0 0 127 0" result="hardAlpha"/>
<feOffset dy="4"/>
<feGaussianBlur stdDeviation="1.95"/>
<feComposite in2="hardAlpha" operator="out"/>
<feColorMatrix type="matrix" values="0 0 0 0 0 0 0 0 0 0 0 0 0 0 0 0 0 0 0.2 0"/>
<feBlend mode="normal" in2="BackgroundImageFix" result="effect1_dropShadow_271_479"/>
<feBlend mode="normal" in="SourceGraphic" in2="effect1_dropShadow_271_479" result="shape"/>
</filter>
<clipPath id="clip0_271_479">
<rect width="16.9167" height="16.9167" fill="white" transform="translate(35.416 7.25)"/>
</clipPath>
</defs>
</svg>
