<svg width="136" height="82" viewBox="0 0 136 82" fill="none" xmlns="http://www.w3.org/2000/svg">
<g filter="url(#filter0_d_271_547)">
<rect x="4" y="24" width="128" height="50" rx="2" fill="#EBDBBA"/>
<rect x="4.25" y="24.25" width="127.5" height="49.5" rx="1.75" stroke="#EBDBBA" stroke-width="0.5"/>
</g>
<rect x="52.25" width="30.2083" height="30.2083" rx="3" fill="#CB3335"/>
<g clip-path="url(#clip0_271_547)">
<path fill-rule="evenodd" clip-rule="evenodd" d="M66.8358 2.4249C66.9178 2.4198 67.0036 2.4334 67.027 2.45464C67.0503 2.47588 67.6909 2.81275 68.4501 3.20357C69.2096 3.59396 70.1557 4.08121 70.5529 4.28597C70.95 4.4903 72.6612 5.36965 74.3549 6.24007C76.049 7.11007 77.4674 7.85348 77.5078 7.89171C77.5757 7.95628 77.5808 8.31269 77.5834 13.2923C77.5855 17.5569 77.5749 18.6388 77.5315 18.7009C77.5018 18.7433 75.0974 19.991 72.1883 21.4731C69.2793 22.9557 66.8613 24.1685 66.8146 24.1685C66.7678 24.1685 66.5193 24.0572 66.2623 23.9217C66.0053 23.7858 63.5984 22.5479 60.9136 21.1707C56.8907 19.1066 56.0182 18.6435 55.9523 18.5386C55.8907 18.4405 55.8763 18.3529 55.889 18.1563C55.8984 18.0161 55.9391 15.6554 55.9795 12.9099C56.0203 10.1644 56.0708 7.87047 56.0921 7.81227C56.1244 7.72349 56.9948 7.27447 61.4089 5.07016C64.9361 3.30849 66.7364 2.43127 66.8358 2.4249ZM57.1413 7.95756C57.1464 7.97115 57.8049 8.33011 58.6052 8.75534C59.4056 9.18057 60.1082 9.55567 60.1664 9.58923C60.2683 9.64828 60.4608 9.55312 65.0623 7.17039C67.6965 5.80592 69.8375 4.67764 69.8201 4.66235C69.8026 4.64705 69.1336 4.29829 68.3332 3.88708C67.5329 3.47587 66.8545 3.1407 66.8252 3.14197C66.7959 3.14325 64.603 4.22182 61.9523 5.53872C59.3015 6.85561 57.1367 7.94396 57.1413 7.95756ZM64.0631 8.42824C62.3881 9.29272 61.0168 10.0094 61.0168 10.0213C61.0164 10.0327 61.4221 10.2604 61.9187 10.5268L62.8214 11.0106C63.2823 10.7749 65.4306 9.65847 67.8923 8.37769C70.354 7.09733 72.3706 6.03022 72.374 6.00685C72.377 5.98349 71.984 5.75877 71.5002 5.50771C71.0167 5.25665 70.6153 5.05147 70.6081 5.05232C70.6013 5.05317 69.8107 5.45928 68.8519 5.95503C67.8931 6.45077 65.7381 7.56376 64.0631 8.42824ZM66.2955 9.94479C64.795 10.7226 63.5665 11.3738 63.5661 11.3913C63.5652 11.4087 64.2819 11.8054 65.1578 12.2727L66.7508 13.1223C74.2079 9.30546 76.4054 8.17293 76.4457 8.14277C76.509 8.09562 76.3047 7.9788 74.8625 7.23879C73.9513 6.7715 73.1922 6.38663 73.1752 6.38365C73.1582 6.38068 72.2172 6.86241 71.0839 7.45416C69.9505 8.04549 67.7959 9.16655 66.2955 9.94479ZM56.6443 13.3347C56.5908 16.799 56.5827 18.1694 56.6159 18.2038C56.6409 18.2298 57.1303 18.4906 57.7025 18.7837C58.2751 19.0764 60.4829 20.2076 62.609 21.2973C64.7352 22.3865 66.479 23.2726 66.4845 23.2658C66.4896 23.2594 66.476 21.1031 66.4539 18.4749C66.4318 15.8462 66.4085 13.6928 66.4017 13.689C66.3953 13.6852 65.6633 13.291 64.7755 12.8135L63.1612 11.9452C63.1196 12.1495 63.0958 12.7154 63.081 13.3347C63.0576 14.3364 63.0461 14.4724 62.9765 14.5667C62.9241 14.6375 62.8497 14.6767 62.7534 14.6843C62.637 14.6941 62.3707 14.5705 61.3792 14.0471C60.7029 13.6903 60.1056 13.3649 60.0517 13.3241L59.954 13.2498L59.9327 10.215C58.0559 9.20648 57.3342 8.81906 57.1176 8.70351C56.9009 8.58754 56.7225 8.49748 56.7212 8.503C56.7204 8.50853 56.6855 10.6827 56.6443 13.3347ZM67.1192 13.6826C67.1 13.6899 67.1 15.8513 67.1192 18.4855C67.1387 21.1197 67.1642 23.276 67.1757 23.2764C67.1871 23.2773 69.3855 22.1617 72.0609 20.7973L76.9249 18.3168C76.9415 10.8343 76.9321 8.66316 76.9143 8.66486C76.8969 8.66698 74.6938 9.79356 72.0184 11.1691C69.343 12.5446 67.1387 13.6754 67.1192 13.6826ZM60.592 12.8887C61.9115 13.5798 62.3172 13.7863 62.3456 13.7927C62.383 13.8012 62.4051 13.6126 62.4285 13.0917C62.4463 12.6996 62.4603 12.1971 62.4603 11.9754V11.5718C61.0776 10.8309 60.657 10.616 60.6337 10.616C60.6065 10.616 60.5912 11.0229 60.5916 11.7523L60.592 12.8887Z" fill="#EBDBBA"/>
</g>
<path d="M16.832 41V35.36H19.152C19.5573 35.36 19.9013 35.4267 20.184 35.56C20.4667 35.6933 20.6827 35.888 20.832 36.144C20.9867 36.3947 21.064 36.6987 21.064 37.056C21.064 37.4133 20.9867 37.72 20.832 37.976C20.6827 38.232 20.464 38.4293 20.176 38.568C19.8933 38.7067 19.552 38.776 19.152 38.776H17.544V41H16.832ZM17.544 38.168H19.048C19.4747 38.168 19.7973 38.0773 20.016 37.896C20.2347 37.7093 20.344 37.432 20.344 37.064C20.344 36.6907 20.2347 36.416 20.016 36.24C19.7973 36.0587 19.4747 35.968 19.048 35.968H17.544V38.168ZM21.7242 36.096V35.304H22.5882V36.096H21.7242ZM21.8042 41V37.048H22.5162V41H21.8042ZM25.441 41.072C24.9983 41.072 24.6143 40.992 24.289 40.832C23.969 40.6667 23.7237 40.432 23.553 40.128C23.3823 39.8187 23.297 39.4507 23.297 39.024C23.297 38.624 23.377 38.272 23.537 37.968C23.697 37.6587 23.9237 37.416 24.217 37.24C24.5103 37.064 24.8597 36.976 25.265 36.976C25.649 36.976 25.9743 37.0587 26.241 37.224C26.513 37.3893 26.7183 37.6213 26.857 37.92C27.001 38.2187 27.073 38.5733 27.073 38.984V39.216H23.833V38.72H26.609L26.457 38.88C26.457 38.4427 26.353 38.1067 26.145 37.872C25.9423 37.6373 25.649 37.52 25.265 37.52C25.0143 37.52 24.7903 37.5787 24.593 37.696C24.401 37.808 24.2517 37.968 24.145 38.176C24.0383 38.384 23.985 38.6373 23.985 38.936V39.016C23.985 39.336 24.0437 39.6053 24.161 39.824C24.2783 40.0427 24.4463 40.208 24.665 40.32C24.8837 40.432 25.145 40.488 25.449 40.488C25.6677 40.488 25.889 40.4587 26.113 40.4C26.3423 40.336 26.5557 40.224 26.753 40.064L26.993 40.576C26.7903 40.7467 26.5477 40.872 26.265 40.952C25.9877 41.032 25.713 41.072 25.441 41.072ZM29.6079 41.072C29.2026 41.072 28.8506 40.9867 28.5519 40.816C28.2533 40.6453 28.0213 40.408 27.8559 40.104C27.6906 39.7947 27.6079 39.432 27.6079 39.016C27.6079 38.6 27.6906 38.24 27.8559 37.936C28.0213 37.6267 28.2533 37.3893 28.5519 37.224C28.8559 37.0587 29.2106 36.976 29.6159 36.976C29.8879 36.976 30.1466 37.0213 30.3919 37.112C30.6373 37.2027 30.8399 37.3253 30.9999 37.48L30.7519 38.008C30.5973 37.8693 30.4239 37.7653 30.2319 37.696C30.0399 37.6213 29.8533 37.584 29.6719 37.584C29.2559 37.584 28.9279 37.7093 28.6879 37.96C28.4479 38.2107 28.3279 38.5653 28.3279 39.024C28.3279 39.4773 28.4479 39.832 28.6879 40.088C28.9279 40.3387 29.2533 40.464 29.6639 40.464C29.8506 40.464 30.0373 40.4293 30.2239 40.36C30.4159 40.2853 30.5866 40.1813 30.7359 40.048L30.9839 40.576C30.8293 40.7307 30.6293 40.8533 30.3839 40.944C30.1386 41.0293 29.8799 41.072 29.6079 41.072ZM33.3363 41.072C32.8936 41.072 32.5096 40.992 32.1843 40.832C31.8643 40.6667 31.619 40.432 31.4483 40.128C31.2776 39.8187 31.1923 39.4507 31.1923 39.024C31.1923 38.624 31.2723 38.272 31.4323 37.968C31.5923 37.6587 31.819 37.416 32.1123 37.24C32.4056 37.064 32.755 36.976 33.1603 36.976C33.5443 36.976 33.8696 37.0587 34.1363 37.224C34.4083 37.3893 34.6136 37.6213 34.7523 37.92C34.8963 38.2187 34.9683 38.5733 34.9683 38.984V39.216H31.7283V38.72H34.5043L34.3523 38.88C34.3523 38.4427 34.2483 38.1067 34.0403 37.872C33.8376 37.6373 33.5443 37.52 33.1603 37.52C32.9096 37.52 32.6856 37.5787 32.4883 37.696C32.2963 37.808 32.147 37.968 32.0403 38.176C31.9336 38.384 31.8803 38.6373 31.8803 38.936V39.016C31.8803 39.336 31.939 39.6053 32.0563 39.824C32.1736 40.0427 32.3416 40.208 32.5603 40.32C32.779 40.432 33.0403 40.488 33.3443 40.488C33.563 40.488 33.7843 40.4587 34.0083 40.4C34.2376 40.336 34.451 40.224 34.6483 40.064L34.8883 40.576C34.6856 40.7467 34.443 40.872 34.1603 40.952C33.883 41.032 33.6083 41.072 33.3363 41.072ZM37.1993 41.072C36.9806 41.072 36.7646 41.0507 36.5513 41.008C36.3433 40.9707 36.1486 40.9173 35.9673 40.848C35.7913 40.7733 35.6393 40.6827 35.5113 40.576L35.7433 40.072C35.8766 40.1733 36.0233 40.256 36.1833 40.32C36.3486 40.384 36.5166 40.432 36.6873 40.464C36.8633 40.4907 37.0313 40.504 37.1913 40.504C37.5219 40.504 37.7753 40.4533 37.9513 40.352C38.1326 40.2507 38.2233 40.1093 38.2233 39.928C38.2233 39.7733 38.1699 39.656 38.0633 39.576C37.9619 39.4907 37.7913 39.4267 37.5513 39.384L36.7273 39.24C36.3593 39.1707 36.0819 39.0453 35.8953 38.864C35.7139 38.6827 35.6233 38.4453 35.6233 38.152C35.6233 37.9173 35.6873 37.712 35.8153 37.536C35.9486 37.36 36.1379 37.224 36.3833 37.128C36.6286 37.0267 36.9219 36.976 37.2633 36.976C37.4499 36.976 37.6393 36.9947 37.8313 37.032C38.0286 37.0693 38.2099 37.1253 38.3753 37.2C38.5459 37.2693 38.6846 37.3573 38.7913 37.464L38.5513 37.968C38.4446 37.8667 38.3166 37.7867 38.1673 37.728C38.0233 37.664 37.8713 37.6187 37.7113 37.592C37.5566 37.56 37.4046 37.544 37.2553 37.544C36.9459 37.544 36.7059 37.5973 36.5353 37.704C36.3646 37.8053 36.2793 37.9493 36.2793 38.136C36.2793 38.2853 36.3273 38.4027 36.4233 38.488C36.5246 38.5733 36.6873 38.6373 36.9113 38.68L37.7113 38.824C38.1059 38.8987 38.3993 39.024 38.5913 39.2C38.7833 39.3707 38.8793 39.608 38.8793 39.912C38.8793 40.1467 38.8099 40.352 38.6713 40.528C38.5326 40.6987 38.3379 40.832 38.0873 40.928C37.8366 41.024 37.5406 41.072 37.1993 41.072Z" fill="#CE3439"/>
<path d="M55.1774 41V40.392H56.7214V35.928L57.0974 35.984L55.4574 37.04L55.1374 36.488L56.9054 35.36H57.4254V40.392H58.8494V41H55.1774ZM61.7023 41.072C61.4569 41.072 61.2196 41.0453 60.9903 40.992C60.7663 40.9387 60.5556 40.8613 60.3583 40.76C60.1609 40.6533 59.9849 40.5253 59.8303 40.376L60.1103 39.816C60.3556 40.04 60.6063 40.2027 60.8623 40.304C61.1236 40.4 61.4036 40.448 61.7023 40.448C62.0969 40.448 62.4036 40.3467 62.6223 40.144C62.8463 39.936 62.9583 39.6453 62.9583 39.272C62.9583 38.904 62.8543 38.6107 62.6463 38.392C62.4383 38.1733 62.1503 38.064 61.7823 38.064C61.5369 38.064 61.3129 38.1147 61.1103 38.216C60.9129 38.312 60.7289 38.4747 60.5583 38.704H59.9983V35.36H63.3743V35.976H60.6463V38.096H60.6143C60.7423 37.904 60.9183 37.7493 61.1423 37.632C61.3663 37.5093 61.6169 37.448 61.8943 37.448C62.2569 37.448 62.5689 37.5253 62.8303 37.68C63.0916 37.8293 63.2916 38.0373 63.4303 38.304C63.5743 38.5707 63.6463 38.8827 63.6463 39.24C63.6463 39.6187 63.5663 39.9467 63.4063 40.224C63.2463 40.496 63.0223 40.7067 62.7343 40.856C62.4463 41 62.1023 41.072 61.7023 41.072ZM66.4352 41.072C66.0032 41.072 65.6378 40.9627 65.3392 40.744C65.0405 40.52 64.8138 40.1947 64.6592 39.768C64.5098 39.336 64.4352 38.8053 64.4352 38.176C64.4352 37.5467 64.5098 37.0187 64.6592 36.592C64.8138 36.1653 65.0405 35.8427 65.3392 35.624C65.6378 35.4 66.0032 35.288 66.4352 35.288C66.8778 35.288 67.2458 35.3973 67.5392 35.616C67.8325 35.8347 68.0538 36.1573 68.2032 36.584C68.3578 37.0107 68.4352 37.5387 68.4352 38.168C68.4352 38.7973 68.3578 39.328 68.2032 39.76C68.0538 40.192 67.8298 40.52 67.5312 40.744C67.2325 40.9627 66.8672 41.072 66.4352 41.072ZM66.4352 40.448C66.8725 40.448 67.1978 40.264 67.4112 39.896C67.6245 39.528 67.7312 38.952 67.7312 38.168C67.7312 37.3893 67.6245 36.8187 67.4112 36.456C67.2032 36.0933 66.8805 35.912 66.4432 35.912C66.0005 35.912 65.6725 36.096 65.4592 36.464C65.2458 36.8267 65.1392 37.3973 65.1392 38.176C65.1392 38.9493 65.2458 39.5227 65.4592 39.896C65.6725 40.264 65.9978 40.448 66.4352 40.448ZM71.232 41.072C70.8 41.072 70.4347 40.9627 70.136 40.744C69.8374 40.52 69.6107 40.1947 69.456 39.768C69.3067 39.336 69.232 38.8053 69.232 38.176C69.232 37.5467 69.3067 37.0187 69.456 36.592C69.6107 36.1653 69.8374 35.8427 70.136 35.624C70.4347 35.4 70.8 35.288 71.232 35.288C71.6747 35.288 72.0427 35.3973 72.336 35.616C72.6294 35.8347 72.8507 36.1573 73 36.584C73.1547 37.0107 73.232 37.5387 73.232 38.168C73.232 38.7973 73.1547 39.328 73 39.76C72.8507 40.192 72.6267 40.52 72.328 40.744C72.0294 40.9627 71.664 41.072 71.232 41.072ZM71.232 40.448C71.6694 40.448 71.9947 40.264 72.208 39.896C72.4214 39.528 72.528 38.952 72.528 38.168C72.528 37.3893 72.4214 36.8187 72.208 36.456C72 36.0933 71.6774 35.912 71.24 35.912C70.7974 35.912 70.4694 36.096 70.256 36.464C70.0427 36.8267 69.936 37.3973 69.936 38.176C69.936 38.9493 70.0427 39.5227 70.256 39.896C70.4694 40.264 70.7947 40.448 71.232 40.448ZM76.6953 41V35.36H77.3273L80.7833 39.952H80.7513V35.36H81.4313V41H80.7833L77.3433 36.424H77.3753V41H76.6953ZM84.6937 41.072C84.2937 41.072 83.9471 40.9867 83.6537 40.816C83.3604 40.6453 83.1337 40.408 82.9737 40.104C82.8137 39.7947 82.7337 39.432 82.7337 39.016C82.7337 38.6053 82.8137 38.248 82.9737 37.944C83.1337 37.6347 83.3604 37.3973 83.6537 37.232C83.9471 37.0613 84.2937 36.976 84.6937 36.976C85.0937 36.976 85.4377 37.0613 85.7257 37.232C86.0191 37.3973 86.2457 37.6347 86.4057 37.944C86.5657 38.248 86.6457 38.6053 86.6457 39.016C86.6457 39.432 86.5657 39.7947 86.4057 40.104C86.2511 40.408 86.0271 40.6453 85.7337 40.816C85.4404 40.9867 85.0937 41.072 84.6937 41.072ZM84.6857 40.472C85.0751 40.472 85.3817 40.3413 85.6057 40.08C85.8297 39.8187 85.9417 39.464 85.9417 39.016C85.9417 38.568 85.8297 38.216 85.6057 37.96C85.3871 37.704 85.0831 37.576 84.6937 37.576C84.3044 37.576 83.9977 37.704 83.7737 37.96C83.5497 38.216 83.4377 38.568 83.4377 39.016C83.4377 39.464 83.5497 39.8187 83.7737 40.08C84.0031 40.3413 84.3071 40.472 84.6857 40.472ZM89.2969 41.072C89.0782 41.072 88.8622 41.0507 88.6489 41.008C88.4409 40.9707 88.2462 40.9173 88.0649 40.848C87.8889 40.7733 87.7369 40.6827 87.6089 40.576L87.8409 40.072C87.9742 40.1733 88.1209 40.256 88.2809 40.32C88.4462 40.384 88.6142 40.432 88.7849 40.464C88.9609 40.4907 89.1289 40.504 89.2889 40.504C89.6196 40.504 89.8729 40.4533 90.0489 40.352C90.2302 40.2507 90.3209 40.1093 90.3209 39.928C90.3209 39.7733 90.2676 39.656 90.1609 39.576C90.0596 39.4907 89.8889 39.4267 89.6489 39.384L88.8249 39.24C88.4569 39.1707 88.1796 39.0453 87.9929 38.864C87.8116 38.6827 87.7209 38.4453 87.7209 38.152C87.7209 37.9173 87.7849 37.712 87.9129 37.536C88.0462 37.36 88.2356 37.224 88.4809 37.128C88.7262 37.0267 89.0196 36.976 89.3609 36.976C89.5476 36.976 89.7369 36.9947 89.9289 37.032C90.1262 37.0693 90.3076 37.1253 90.4729 37.2C90.6436 37.2693 90.7822 37.3573 90.8889 37.464L90.6489 37.968C90.5422 37.8667 90.4142 37.7867 90.2649 37.728C90.1209 37.664 89.9689 37.6187 89.8089 37.592C89.6542 37.56 89.5022 37.544 89.3529 37.544C89.0436 37.544 88.8036 37.5973 88.6329 37.704C88.4622 37.8053 88.3769 37.9493 88.3769 38.136C88.3769 38.2853 88.4249 38.4027 88.5209 38.488C88.6222 38.5733 88.7849 38.6373 89.0089 38.68L89.8089 38.824C90.2036 38.8987 90.4969 39.024 90.6889 39.2C90.8809 39.3707 90.9769 39.608 90.9769 39.912C90.9769 40.1467 90.9076 40.352 90.7689 40.528C90.6302 40.6987 90.4356 40.832 90.1849 40.928C89.9342 41.024 89.6382 41.072 89.2969 41.072ZM91.8814 41.504L91.3214 41.352L93.3614 34.984L93.9134 35.136L91.8814 41.504ZM96.9627 41.072C96.424 41.072 95.9547 40.9573 95.5547 40.728C95.16 40.4933 94.856 40.16 94.6427 39.728C94.4293 39.2907 94.3227 38.7733 94.3227 38.176C94.3227 37.5787 94.4293 37.064 94.6427 36.632C94.856 36.2 95.16 35.8693 95.5547 35.64C95.9493 35.4053 96.4187 35.288 96.9627 35.288C97.3573 35.288 97.7173 35.3493 98.0427 35.472C98.368 35.5893 98.648 35.7627 98.8827 35.992L98.6027 36.552C98.3573 36.3333 98.104 36.176 97.8427 36.08C97.5867 35.984 97.2987 35.936 96.9787 35.936C96.3813 35.936 95.912 36.128 95.5707 36.512C95.2347 36.8907 95.0667 37.4453 95.0667 38.176C95.0667 38.9013 95.2347 39.4587 95.5707 39.848C95.9067 40.232 96.376 40.424 96.9787 40.424C97.2987 40.424 97.5867 40.376 97.8427 40.28C98.104 40.184 98.3573 40.0267 98.6027 39.808L98.8827 40.368C98.648 40.5973 98.368 40.7733 98.0427 40.896C97.7173 41.0133 97.3573 41.072 96.9627 41.072ZM101.614 41.072C101.14 41.072 100.78 40.9467 100.534 40.696C100.294 40.4453 100.174 40.088 100.174 39.624V37.632H99.3743V37.048H100.198V35.872H100.886V37.048H102.302V37.632H100.886V39.56C100.886 39.864 100.953 40.0907 101.086 40.24C101.225 40.384 101.436 40.456 101.718 40.456C101.83 40.456 101.937 40.4453 102.038 40.424C102.145 40.4027 102.246 40.3707 102.342 40.328L102.454 40.888C102.348 40.9467 102.217 40.992 102.062 41.024C101.913 41.056 101.764 41.072 101.614 41.072ZM103.286 41V37.048H103.95V37.904C104.078 37.6107 104.27 37.384 104.526 37.224C104.782 37.0587 105.07 36.976 105.39 36.976C105.716 36.976 105.988 37.0347 106.206 37.152C106.425 37.264 106.588 37.44 106.694 37.68C106.806 37.9147 106.862 38.208 106.862 38.56V41H106.15V38.6C106.15 38.3867 106.121 38.2053 106.062 38.056C106.004 37.9067 105.905 37.792 105.766 37.712C105.633 37.6267 105.454 37.584 105.23 37.584C104.996 37.584 104.782 37.6373 104.59 37.744C104.404 37.8507 104.257 37.9947 104.15 38.176C104.049 38.3573 103.998 38.56 103.998 38.784V41H103.286Z" fill="black"/>
<path d="M18.72 54.072C18.4107 54.072 18.1173 54.048 17.84 54C17.5627 53.952 17.3093 53.88 17.08 53.784C16.8507 53.688 16.6507 53.5707 16.48 53.432L16.744 52.84C16.9253 52.984 17.1173 53.1013 17.32 53.192C17.528 53.2773 17.7467 53.3387 17.976 53.376C18.2107 53.4133 18.4587 53.432 18.72 53.432C19.1627 53.432 19.5013 53.344 19.736 53.168C19.976 52.992 20.096 52.752 20.096 52.448C20.096 52.288 20.056 52.1547 19.976 52.048C19.9013 51.9413 19.7813 51.8533 19.616 51.784C19.456 51.7147 19.248 51.6533 18.992 51.6L18.072 51.424C17.5547 51.3227 17.1813 51.144 16.952 50.888C16.7227 50.632 16.608 50.3093 16.608 49.92C16.608 49.5893 16.6987 49.304 16.88 49.064C17.0667 48.8187 17.3227 48.6293 17.648 48.496C17.9787 48.3573 18.3547 48.288 18.776 48.288C19.0427 48.288 19.2907 48.3147 19.52 48.368C19.7547 48.416 19.968 48.4907 20.16 48.592C20.3573 48.6933 20.5333 48.816 20.688 48.96L20.424 49.544C20.1947 49.32 19.944 49.1627 19.672 49.072C19.4 48.976 19.0987 48.928 18.768 48.928C18.4907 48.928 18.2427 48.968 18.024 49.048C17.8053 49.1227 17.632 49.2347 17.504 49.384C17.3813 49.528 17.32 49.7067 17.32 49.92C17.32 50.1547 17.3947 50.3413 17.544 50.48C17.6933 50.6133 17.9467 50.7173 18.304 50.792L19.216 50.968C19.76 51.0693 20.1627 51.24 20.424 51.48C20.6853 51.72 20.816 52.032 20.816 52.416C20.816 52.736 20.728 53.0213 20.552 53.272C20.3813 53.5227 20.1387 53.72 19.824 53.864C19.5147 54.0027 19.1467 54.072 18.72 54.072ZM21.882 49.096V48.304H22.746V49.096H21.882ZM21.962 54V50.048H22.674V54H21.962ZM23.8628 54V53.544L26.3668 50.416L26.4068 50.64H23.9188V50.048H27.0708V50.504L24.5428 53.656L24.5028 53.408H27.1588V54H23.8628ZM30.0691 54.072C29.6265 54.072 29.2425 53.992 28.9171 53.832C28.5971 53.6667 28.3518 53.432 28.1811 53.128C28.0105 52.8187 27.9251 52.4507 27.9251 52.024C27.9251 51.624 28.0051 51.272 28.1651 50.968C28.3251 50.6587 28.5518 50.416 28.8451 50.24C29.1385 50.064 29.4878 49.976 29.8931 49.976C30.2771 49.976 30.6025 50.0587 30.8691 50.224C31.1411 50.3893 31.3465 50.6213 31.4851 50.92C31.6291 51.2187 31.7011 51.5733 31.7011 51.984V52.216H28.4611V51.72H31.2371L31.0851 51.88C31.0851 51.4427 30.9811 51.1067 30.7731 50.872C30.5705 50.6373 30.2771 50.52 29.8931 50.52C29.6425 50.52 29.4185 50.5787 29.2211 50.696C29.0291 50.808 28.8798 50.968 28.7731 51.176C28.6665 51.384 28.6131 51.6373 28.6131 51.936V52.016C28.6131 52.336 28.6718 52.6053 28.7891 52.824C28.9065 53.0427 29.0745 53.208 29.2931 53.32C29.5118 53.432 29.7731 53.488 30.0771 53.488C30.2958 53.488 30.5171 53.4587 30.7411 53.4C30.9705 53.336 31.1838 53.224 31.3811 53.064L31.6211 53.576C31.4185 53.7467 31.1758 53.872 30.8931 53.952C30.6158 54.032 30.3411 54.072 30.0691 54.072Z" fill="#CE3439"/>
<path d="M59.464 54.072C59.2187 54.072 58.9813 54.0453 58.752 53.992C58.528 53.9387 58.3173 53.8613 58.12 53.76C57.9227 53.6533 57.7467 53.5253 57.592 53.376L57.872 52.816C58.1173 53.04 58.368 53.2027 58.624 53.304C58.8853 53.4 59.1653 53.448 59.464 53.448C59.8587 53.448 60.1653 53.3467 60.384 53.144C60.608 52.936 60.72 52.6453 60.72 52.272C60.72 51.904 60.616 51.6107 60.408 51.392C60.2 51.1733 59.912 51.064 59.544 51.064C59.2987 51.064 59.0747 51.1147 58.872 51.216C58.6747 51.312 58.4907 51.4747 58.32 51.704H57.76V48.36H61.136V48.976H58.408V51.096H58.376C58.504 50.904 58.68 50.7493 58.904 50.632C59.128 50.5093 59.3787 50.448 59.656 50.448C60.0187 50.448 60.3307 50.5253 60.592 50.68C60.8533 50.8293 61.0533 51.0373 61.192 51.304C61.336 51.5707 61.408 51.8827 61.408 52.24C61.408 52.6187 61.328 52.9467 61.168 53.224C61.008 53.496 60.784 53.7067 60.496 53.856C60.208 54 59.864 54.072 59.464 54.072ZM62.4529 54V53.472L64.4369 51.392C64.6289 51.1893 64.7782 51.0053 64.8849 50.84C64.9915 50.6747 65.0689 50.5147 65.1169 50.36C65.1649 50.2053 65.1889 50.048 65.1889 49.888C65.1889 49.5733 65.0875 49.3333 64.8849 49.168C64.6875 48.9973 64.4129 48.912 64.0609 48.912C63.7942 48.912 63.5302 48.9653 63.2689 49.072C63.0129 49.1733 62.7675 49.336 62.5329 49.56L62.2609 49C62.4955 48.776 62.7755 48.6027 63.1009 48.48C63.4262 48.352 63.7622 48.288 64.1089 48.288C64.4769 48.288 64.7942 48.352 65.0609 48.48C65.3275 48.6027 65.5302 48.7813 65.6689 49.016C65.8129 49.2453 65.8849 49.5227 65.8849 49.848C65.8849 50.0133 65.8662 50.176 65.8289 50.336C65.7915 50.4907 65.7329 50.6453 65.6529 50.8C65.5782 50.9547 65.4795 51.1147 65.3569 51.28C65.2342 51.4453 65.0849 51.6187 64.9089 51.8L63.3569 53.416V53.384H66.1169V54H62.4529ZM68.9938 54.072C68.5618 54.072 68.1964 53.9627 67.8978 53.744C67.5991 53.52 67.3724 53.1947 67.2178 52.768C67.0684 52.336 66.9938 51.8053 66.9938 51.176C66.9938 50.5467 67.0684 50.0187 67.2178 49.592C67.3724 49.1653 67.5991 48.8427 67.8978 48.624C68.1964 48.4 68.5618 48.288 68.9938 48.288C69.4364 48.288 69.8044 48.3973 70.0978 48.616C70.3911 48.8347 70.6124 49.1573 70.7618 49.584C70.9164 50.0107 70.9938 50.5387 70.9938 51.168C70.9938 51.7973 70.9164 52.328 70.7618 52.76C70.6124 53.192 70.3884 53.52 70.0898 53.744C69.7911 53.9627 69.4258 54.072 68.9938 54.072ZM68.9938 53.448C69.4311 53.448 69.7564 53.264 69.9698 52.896C70.1831 52.528 70.2898 51.952 70.2898 51.168C70.2898 50.3893 70.1831 49.8187 69.9698 49.456C69.7618 49.0933 69.4391 48.912 69.0018 48.912C68.5591 48.912 68.2311 49.096 68.0178 49.464C67.8044 49.8267 67.6978 50.3973 67.6978 51.176C67.6978 51.9493 67.8044 52.5227 68.0178 52.896C68.2311 53.264 68.5564 53.448 68.9938 53.448ZM73.817 54L75.905 50.976V51.24L73.929 48.36H74.753L76.353 50.712H76.313L77.913 48.36H78.737L76.745 51.24V50.976L78.841 54H78.009L76.297 51.496H76.353L74.641 54H73.817ZM83.7296 54.072C83.4843 54.072 83.247 54.0453 83.0176 53.992C82.7936 53.9387 82.583 53.8613 82.3856 53.76C82.1883 53.6533 82.0123 53.5253 81.8576 53.376L82.1376 52.816C82.383 53.04 82.6336 53.2027 82.8896 53.304C83.151 53.4 83.431 53.448 83.7296 53.448C84.1243 53.448 84.431 53.3467 84.6496 53.144C84.8736 52.936 84.9856 52.6453 84.9856 52.272C84.9856 51.904 84.8816 51.6107 84.6736 51.392C84.4656 51.1733 84.1776 51.064 83.8096 51.064C83.5643 51.064 83.3403 51.1147 83.1376 51.216C82.9403 51.312 82.7563 51.4747 82.5856 51.704H82.0256V48.36H85.4016V48.976H82.6736V51.096H82.6416C82.7696 50.904 82.9456 50.7493 83.1696 50.632C83.3936 50.5093 83.6443 50.448 83.9216 50.448C84.2843 50.448 84.5963 50.5253 84.8576 50.68C85.119 50.8293 85.319 51.0373 85.4576 51.304C85.6016 51.5707 85.6736 51.8827 85.6736 52.24C85.6736 52.6187 85.5936 52.9467 85.4336 53.224C85.2736 53.496 85.0496 53.7067 84.7616 53.856C84.4736 54 84.1296 54.072 83.7296 54.072ZM88.4625 54.072C88.0305 54.072 87.6652 53.9627 87.3665 53.744C87.0678 53.52 86.8412 53.1947 86.6865 52.768C86.5372 52.336 86.4625 51.8053 86.4625 51.176C86.4625 50.5467 86.5372 50.0187 86.6865 49.592C86.8412 49.1653 87.0678 48.8427 87.3665 48.624C87.6652 48.4 88.0305 48.288 88.4625 48.288C88.9052 48.288 89.2732 48.3973 89.5665 48.616C89.8598 48.8347 90.0812 49.1573 90.2305 49.584C90.3852 50.0107 90.4625 50.5387 90.4625 51.168C90.4625 51.7973 90.3852 52.328 90.2305 52.76C90.0812 53.192 89.8572 53.52 89.5585 53.744C89.2598 53.9627 88.8945 54.072 88.4625 54.072ZM88.4625 53.448C88.8998 53.448 89.2252 53.264 89.4385 52.896C89.6518 52.528 89.7585 51.952 89.7585 51.168C89.7585 50.3893 89.6518 49.8187 89.4385 49.456C89.2305 49.0933 88.9078 48.912 88.4705 48.912C88.0278 48.912 87.6998 49.096 87.4865 49.464C87.2732 49.8267 87.1665 50.3973 87.1665 51.176C87.1665 51.9493 87.2732 52.5227 87.4865 52.896C87.6998 53.264 88.0252 53.448 88.4625 53.448ZM93.2594 54.072C92.63 54.072 92.134 53.936 91.7714 53.664C91.4087 53.3867 91.2274 53.0027 91.2274 52.512C91.2274 52.2613 91.2754 52.04 91.3714 51.848C91.4727 51.6507 91.6114 51.4907 91.7874 51.368C91.9687 51.24 92.1767 51.1547 92.4114 51.112V51.12C92.2087 51.072 92.0274 50.984 91.8674 50.856C91.7127 50.728 91.59 50.5733 91.4994 50.392C91.4087 50.2107 91.3634 50.0107 91.3634 49.792C91.3634 49.3227 91.534 48.9547 91.8754 48.688C92.222 48.4213 92.6834 48.288 93.2594 48.288C93.8354 48.288 94.294 48.4213 94.6354 48.688C94.982 48.9547 95.1554 49.3227 95.1554 49.792C95.1554 50.0053 95.11 50.2053 95.0194 50.392C94.9287 50.5733 94.8034 50.728 94.6434 50.856C94.4887 50.984 94.3074 51.072 94.0994 51.12V51.112C94.3287 51.1493 94.5314 51.232 94.7074 51.36C94.8887 51.488 95.03 51.6507 95.1314 51.848C95.238 52.04 95.2914 52.2613 95.2914 52.512C95.2914 53.0027 95.11 53.3867 94.7474 53.664C94.39 53.936 93.894 54.072 93.2594 54.072ZM93.2594 53.472C93.702 53.472 94.038 53.3867 94.2674 53.216C94.502 53.0453 94.6194 52.7947 94.6194 52.464C94.6194 52.1333 94.502 51.88 94.2674 51.704C94.038 51.528 93.702 51.44 93.2594 51.44C92.8167 51.44 92.478 51.528 92.2434 51.704C92.014 51.88 91.8994 52.1333 91.8994 52.464C91.8994 52.7947 92.014 53.0453 92.2434 53.216C92.478 53.3867 92.8167 53.472 93.2594 53.472ZM93.2594 50.84C93.6434 50.84 93.9447 50.7547 94.1634 50.584C94.382 50.408 94.4914 50.1653 94.4914 49.856C94.4914 49.552 94.382 49.3147 94.1634 49.144C93.9447 48.968 93.6434 48.88 93.2594 48.88C92.8807 48.88 92.582 48.968 92.3634 49.144C92.1447 49.3147 92.0354 49.552 92.0354 49.856C92.0354 50.1653 92.1447 50.408 92.3634 50.584C92.582 50.7547 92.8807 50.84 93.2594 50.84ZM98.0826 54L100.171 50.976V51.24L98.1946 48.36H99.0186L100.619 50.712H100.579L102.179 48.36H103.003L101.011 51.24V50.976L103.107 54H102.275L100.563 51.496H100.619L98.9066 54H98.0826ZM108.579 54V52.832H105.947V52.296L108.547 48.36H109.259V52.232H110.043V52.832H109.259V54H108.579ZM108.603 52.232V49.24H108.635L106.571 52.368L106.515 52.232H108.603ZM112.648 54.072C112.413 54.072 112.181 54.048 111.952 54C111.723 53.952 111.504 53.8773 111.296 53.776C111.093 53.6747 110.907 53.5493 110.736 53.4L111.008 52.84C111.264 53.0587 111.531 53.216 111.808 53.312C112.085 53.4027 112.365 53.448 112.648 53.448C112.883 53.448 113.093 53.4133 113.28 53.344C113.472 53.2693 113.621 53.16 113.728 53.016C113.84 52.8667 113.896 52.6747 113.896 52.44C113.896 52.1147 113.787 51.8693 113.568 51.704C113.349 51.5333 113.032 51.448 112.616 51.448H111.768V50.832H112.512C112.752 50.832 112.965 50.7947 113.152 50.72C113.344 50.64 113.493 50.5227 113.6 50.368C113.707 50.2133 113.76 50.0213 113.76 49.792C113.76 49.4987 113.659 49.28 113.456 49.136C113.253 48.9867 112.992 48.912 112.672 48.912C112.389 48.912 112.112 48.96 111.84 49.056C111.573 49.152 111.328 49.3173 111.104 49.552L110.84 49C111.064 48.76 111.341 48.5813 111.672 48.464C112.003 48.3467 112.347 48.288 112.704 48.288C113.061 48.288 113.368 48.3467 113.624 48.464C113.885 48.576 114.088 48.7413 114.232 48.96C114.376 49.1733 114.448 49.432 114.448 49.736C114.448 50.056 114.357 50.3387 114.176 50.584C113.995 50.8293 113.749 51.0027 113.44 51.104V51.096C113.664 51.1387 113.861 51.2213 114.032 51.344C114.203 51.4613 114.339 51.616 114.44 51.808C114.541 51.9947 114.592 52.216 114.592 52.472C114.592 52.808 114.509 53.096 114.344 53.336C114.184 53.576 113.957 53.76 113.664 53.888C113.376 54.0107 113.037 54.072 112.648 54.072ZM117.525 54.072C116.896 54.072 116.4 53.936 116.037 53.664C115.674 53.3867 115.493 53.0027 115.493 52.512C115.493 52.2613 115.541 52.04 115.637 51.848C115.738 51.6507 115.877 51.4907 116.053 51.368C116.234 51.24 116.442 51.1547 116.677 51.112V51.12C116.474 51.072 116.293 50.984 116.133 50.856C115.978 50.728 115.856 50.5733 115.765 50.392C115.674 50.2107 115.629 50.0107 115.629 49.792C115.629 49.3227 115.8 48.9547 116.141 48.688C116.488 48.4213 116.949 48.288 117.525 48.288C118.101 48.288 118.56 48.4213 118.901 48.688C119.248 48.9547 119.421 49.3227 119.421 49.792C119.421 50.0053 119.376 50.2053 119.285 50.392C119.194 50.5733 119.069 50.728 118.909 50.856C118.754 50.984 118.573 51.072 118.365 51.12V51.112C118.594 51.1493 118.797 51.232 118.973 51.36C119.154 51.488 119.296 51.6507 119.397 51.848C119.504 52.04 119.557 52.2613 119.557 52.512C119.557 53.0027 119.376 53.3867 119.013 53.664C118.656 53.936 118.16 54.072 117.525 54.072ZM117.525 53.472C117.968 53.472 118.304 53.3867 118.533 53.216C118.768 53.0453 118.885 52.7947 118.885 52.464C118.885 52.1333 118.768 51.88 118.533 51.704C118.304 51.528 117.968 51.44 117.525 51.44C117.082 51.44 116.744 51.528 116.509 51.704C116.28 51.88 116.165 52.1333 116.165 52.464C116.165 52.7947 116.28 53.0453 116.509 53.216C116.744 53.3867 117.082 53.472 117.525 53.472ZM117.525 50.84C117.909 50.84 118.21 50.7547 118.429 50.584C118.648 50.408 118.757 50.1653 118.757 49.856C118.757 49.552 118.648 49.3147 118.429 49.144C118.21 48.968 117.909 48.88 117.525 48.88C117.146 48.88 116.848 48.968 116.629 49.144C116.41 49.3147 116.301 49.552 116.301 49.856C116.301 50.1653 116.41 50.408 116.629 50.584C116.848 50.7547 117.146 50.84 117.525 50.84Z" fill="black"/>
<path d="M18.168 67L16.36 61.36H17.112L18.584 66.144H18.512L20.152 61.36H20.736L22.36 66.144H22.304L23.792 61.36H24.512L22.696 67H22.016L20.424 62.344H20.456L18.832 67H18.168ZM27.0223 67.072C26.5796 67.072 26.1956 66.992 25.8703 66.832C25.5503 66.6667 25.3049 66.432 25.1343 66.128C24.9636 65.8187 24.8783 65.4507 24.8783 65.024C24.8783 64.624 24.9583 64.272 25.1183 63.968C25.2783 63.6587 25.5049 63.416 25.7983 63.24C26.0916 63.064 26.4409 62.976 26.8463 62.976C27.2303 62.976 27.5556 63.0587 27.8223 63.224C28.0943 63.3893 28.2996 63.6213 28.4383 63.92C28.5823 64.2187 28.6543 64.5733 28.6543 64.984V65.216H25.4143V64.72H28.1903L28.0383 64.88C28.0383 64.4427 27.9343 64.1067 27.7263 63.872C27.5236 63.6373 27.2303 63.52 26.8463 63.52C26.5956 63.52 26.3716 63.5787 26.1743 63.696C25.9823 63.808 25.8329 63.968 25.7263 64.176C25.6196 64.384 25.5663 64.6373 25.5663 64.936V65.016C25.5663 65.336 25.6249 65.6053 25.7423 65.824C25.8596 66.0427 26.0276 66.208 26.2463 66.32C26.4649 66.432 26.7263 66.488 27.0303 66.488C27.2489 66.488 27.4703 66.4587 27.6943 66.4C27.9236 66.336 28.1369 66.224 28.3343 66.064L28.5743 66.576C28.3716 66.7467 28.1289 66.872 27.8463 66.952C27.5689 67.032 27.2943 67.072 27.0223 67.072ZM29.7492 62.096V61.304H30.6132V62.096H29.7492ZM29.8292 67V63.048H30.5412V67H29.8292ZM33.674 68.512C33.3593 68.512 33.0473 68.464 32.738 68.368C32.4287 68.2773 32.1647 68.152 31.946 67.992L32.17 67.44C32.3193 67.536 32.4767 67.6187 32.642 67.688C32.8073 67.7627 32.9753 67.816 33.146 67.848C33.322 67.8853 33.4953 67.904 33.666 67.904C34.0767 67.904 34.3967 67.8 34.626 67.592C34.8607 67.384 34.978 67.088 34.978 66.704V65.976H34.962C34.866 66.248 34.6927 66.4693 34.442 66.64C34.1913 66.8053 33.9007 66.888 33.57 66.888C33.1967 66.888 32.8713 66.808 32.594 66.648C32.3167 66.4827 32.1007 66.2533 31.946 65.96C31.7967 65.6667 31.722 65.3227 31.722 64.928C31.722 64.5387 31.7967 64.1973 31.946 63.904C32.1007 63.6107 32.3167 63.384 32.594 63.224C32.8713 63.0587 33.1967 62.976 33.57 62.976C33.9007 62.976 34.1913 63.0613 34.442 63.232C34.698 63.4027 34.874 63.6293 34.97 63.912H34.978V63.048H35.642V66.64C35.642 67.024 35.562 67.3547 35.402 67.632C35.2473 67.9147 35.0233 68.1307 34.73 68.28C34.4367 68.4347 34.0847 68.512 33.674 68.512ZM33.69 66.304C34.0793 66.304 34.386 66.1787 34.61 65.928C34.8393 65.6773 34.954 65.344 34.954 64.928C34.954 64.512 34.8393 64.1813 34.61 63.936C34.386 63.6853 34.0793 63.56 33.69 63.56C33.306 63.56 32.9993 63.6853 32.77 63.936C32.546 64.1813 32.434 64.512 32.434 64.928C32.434 65.344 32.546 65.6773 32.77 65.928C32.9993 66.1787 33.306 66.304 33.69 66.304ZM37.0636 67V61.36H37.7516V63.888C37.8689 63.6053 38.0529 63.384 38.3036 63.224C38.5596 63.0587 38.8476 62.976 39.1676 62.976C39.4929 62.976 39.7649 63.0347 39.9836 63.152C40.2022 63.264 40.3649 63.44 40.4716 63.68C40.5836 63.9147 40.6396 64.208 40.6396 64.56V67H39.9276V64.6C39.9276 64.3867 39.8956 64.2053 39.8316 64.056C39.7729 63.9067 39.6769 63.792 39.5436 63.712C39.4102 63.6267 39.2316 63.584 39.0076 63.584C38.7729 63.584 38.5622 63.6373 38.3756 63.744C38.1889 63.8507 38.0422 63.9947 37.9356 64.176C37.8289 64.3573 37.7756 64.56 37.7756 64.784V67H37.0636ZM43.7119 67.072C43.2373 67.072 42.8773 66.9467 42.6319 66.696C42.3919 66.4453 42.2719 66.088 42.2719 65.624V63.632H41.4719V63.048H42.2959V61.872H42.9839V63.048H44.3999V63.632H42.9839V65.56C42.9839 65.864 43.0506 66.0907 43.1839 66.24C43.3226 66.384 43.5333 66.456 43.8159 66.456C43.9279 66.456 44.0346 66.4453 44.1359 66.424C44.2426 66.4027 44.3439 66.3707 44.4399 66.328L44.5519 66.888C44.4453 66.9467 44.3146 66.992 44.1599 67.024C44.0106 67.056 43.8613 67.072 43.7119 67.072Z" fill="#CE3439"/>
<path d="M58.8357 67V66.472L60.8197 64.392C61.0117 64.1893 61.161 64.0053 61.2677 63.84C61.3744 63.6747 61.4517 63.5147 61.4997 63.36C61.5477 63.2053 61.5717 63.048 61.5717 62.888C61.5717 62.5733 61.4704 62.3333 61.2677 62.168C61.0704 61.9973 60.7957 61.912 60.4437 61.912C60.177 61.912 59.913 61.9653 59.6517 62.072C59.3957 62.1733 59.1504 62.336 58.9157 62.56L58.6437 62C58.8784 61.776 59.1584 61.6027 59.4837 61.48C59.809 61.352 60.145 61.288 60.4917 61.288C60.8597 61.288 61.177 61.352 61.4437 61.48C61.7104 61.6027 61.913 61.7813 62.0517 62.016C62.1957 62.2453 62.2677 62.5227 62.2677 62.848C62.2677 63.0133 62.249 63.176 62.2117 63.336C62.1744 63.4907 62.1157 63.6453 62.0357 63.8C61.961 63.9547 61.8624 64.1147 61.7397 64.28C61.617 64.4453 61.4677 64.6187 61.2917 64.8L59.7397 66.416V66.384H62.4997V67H58.8357ZM63.7126 67V66.392H65.2566V61.928L65.6326 61.984L63.9926 63.04L63.6726 62.488L65.4406 61.36H65.9606V66.392H67.3846V67H63.7126ZM69.6614 68.536C69.2828 67.96 69.0028 67.3733 68.8214 66.776C68.6454 66.1733 68.5574 65.5467 68.5574 64.896C68.5574 64.2453 68.6454 63.6213 68.8214 63.024C69.0028 62.4267 69.2828 61.8373 69.6614 61.256L70.1734 61.44C69.9708 61.8187 69.8028 62.2 69.6694 62.584C69.5361 62.968 69.4348 63.352 69.3654 63.736C69.3014 64.1147 69.2694 64.5013 69.2694 64.896C69.2694 65.2853 69.3014 65.672 69.3654 66.056C69.4348 66.44 69.5361 66.8213 69.6694 67.2C69.8028 67.584 69.9708 67.968 70.1734 68.352L69.6614 68.536ZM71.2929 67V61.36H72.0049V63.904H72.0369L74.7169 61.36H75.6209L72.5089 64.312L72.5569 63.92L75.8129 67H74.8609L72.0369 64.352H72.0049V67H71.2929ZM78.1428 68.512C77.8281 68.512 77.5161 68.464 77.2068 68.368C76.8974 68.2773 76.6334 68.152 76.4148 67.992L76.6388 67.44C76.7881 67.536 76.9454 67.6187 77.1108 67.688C77.2761 67.7627 77.4441 67.816 77.6148 67.848C77.7908 67.8853 77.9641 67.904 78.1348 67.904C78.5454 67.904 78.8654 67.8 79.0948 67.592C79.3294 67.384 79.4468 67.088 79.4468 66.704V65.976H79.4308C79.3348 66.248 79.1614 66.4693 78.9108 66.64C78.6601 66.8053 78.3694 66.888 78.0388 66.888C77.6654 66.888 77.3401 66.808 77.0628 66.648C76.7854 66.4827 76.5694 66.2533 76.4148 65.96C76.2654 65.6667 76.1908 65.3227 76.1908 64.928C76.1908 64.5387 76.2654 64.1973 76.4148 63.904C76.5694 63.6107 76.7854 63.384 77.0628 63.224C77.3401 63.0587 77.6654 62.976 78.0388 62.976C78.3694 62.976 78.6601 63.0613 78.9108 63.232C79.1668 63.4027 79.3428 63.6293 79.4388 63.912H79.4468V63.048H80.1108V66.64C80.1108 67.024 80.0308 67.3547 79.8708 67.632C79.7161 67.9147 79.4921 68.1307 79.1988 68.28C78.9054 68.4347 78.5534 68.512 78.1428 68.512ZM78.1588 66.304C78.5481 66.304 78.8548 66.1787 79.0788 65.928C79.3081 65.6773 79.4228 65.344 79.4228 64.928C79.4228 64.512 79.3081 64.1813 79.0788 63.936C78.8548 63.6853 78.5481 63.56 78.1588 63.56C77.7748 63.56 77.4681 63.6853 77.2388 63.936C77.0148 64.1813 76.9028 64.512 76.9028 64.928C76.9028 65.344 77.0148 65.6773 77.2388 65.928C77.4681 66.1787 77.7748 66.304 78.1588 66.304ZM82.9883 67.072C82.7696 67.072 82.5536 67.0507 82.3403 67.008C82.1323 66.9707 81.9376 66.9173 81.7563 66.848C81.5803 66.7733 81.4283 66.6827 81.3003 66.576L81.5323 66.072C81.6656 66.1733 81.8123 66.256 81.9723 66.32C82.1376 66.384 82.3056 66.432 82.4763 66.464C82.6523 66.4907 82.8203 66.504 82.9803 66.504C83.311 66.504 83.5643 66.4533 83.7403 66.352C83.9216 66.2507 84.0123 66.1093 84.0123 65.928C84.0123 65.7733 83.959 65.656 83.8523 65.576C83.751 65.4907 83.5803 65.4267 83.3403 65.384L82.5163 65.24C82.1483 65.1707 81.871 65.0453 81.6843 64.864C81.503 64.6827 81.4123 64.4453 81.4123 64.152C81.4123 63.9173 81.4763 63.712 81.6043 63.536C81.7376 63.36 81.927 63.224 82.1723 63.128C82.4176 63.0267 82.711 62.976 83.0523 62.976C83.239 62.976 83.4283 62.9947 83.6203 63.032C83.8176 63.0693 83.999 63.1253 84.1643 63.2C84.335 63.2693 84.4736 63.3573 84.5803 63.464L84.3403 63.968C84.2336 63.8667 84.1056 63.7867 83.9563 63.728C83.8123 63.664 83.6603 63.6187 83.5003 63.592C83.3456 63.56 83.1936 63.544 83.0443 63.544C82.735 63.544 82.495 63.5973 82.3243 63.704C82.1536 63.8053 82.0683 63.9493 82.0683 64.136C82.0683 64.2853 82.1163 64.4027 82.2123 64.488C82.3136 64.5733 82.4763 64.6373 82.7003 64.68L83.5003 64.824C83.895 64.8987 84.1883 65.024 84.3803 65.2C84.5723 65.3707 84.6683 65.608 84.6683 65.912C84.6683 66.1467 84.599 66.352 84.4603 66.528C84.3216 66.6987 84.127 66.832 83.8763 66.928C83.6256 67.024 83.3296 67.072 82.9883 67.072ZM85.9408 68.536L85.4208 68.352C85.6288 67.9627 85.7995 67.576 85.9328 67.192C86.0661 66.8133 86.1648 66.4347 86.2288 66.056C86.2928 65.672 86.3248 65.2853 86.3248 64.896C86.3248 64.5067 86.2928 64.1227 86.2288 63.744C86.1648 63.36 86.0661 62.976 85.9328 62.592C85.7995 62.208 85.6288 61.824 85.4208 61.44L85.9408 61.256C86.3141 61.832 86.5888 62.4213 86.7648 63.024C86.9461 63.6213 87.0368 64.2453 87.0368 64.896C87.0368 65.5413 86.9461 66.1653 86.7648 66.768C86.5888 67.3653 86.3141 67.9547 85.9408 68.536Z" fill="black"/>
<defs>
<filter id="filter0_d_271_547" x="0.0999999" y="24" width="135.8" height="57.9" filterUnits="userSpaceOnUse" color-interpolation-filters="sRGB">
<feFlood flood-opacity="0" result="BackgroundImageFix"/>
<feColorMatrix in="SourceAlpha" type="matrix" values="0 0 0 0 0 0 0 0 0 0 0 0 0 0 0 0 0 0 127 0" result="hardAlpha"/>
<feOffset dy="4"/>
<feGaussianBlur stdDeviation="1.95"/>
<feComposite in2="hardAlpha" operator="out"/>
<feColorMatrix type="matrix" values="0 0 0 0 0 0 0 0 0 0 0 0 0 0 0 0 0 0 0.2 0"/>
<feBlend mode="normal" in2="BackgroundImageFix" result="effect1_dropShadow_271_547"/>
<feBlend mode="normal" in="SourceGraphic" in2="effect1_dropShadow_271_547" result="shape"/>
</filter>
<clipPath id="clip0_271_547">
<rect width="21.75" height="21.75" fill="white" transform="translate(55.875 2.41699)"/>
</clipPath>
</defs>
</svg>
