<svg width="90" height="82" viewBox="0 0 90 82" fill="none" xmlns="http://www.w3.org/2000/svg">
<g filter="url(#filter0_d_271_488)">
<rect x="4" y="24" width="82" height="50" rx="2" fill="white"/>
<rect x="4.25" y="24.25" width="81.5" height="49.5" rx="1.75" stroke="white" stroke-width="0.5"/>
</g>
<rect x="29.0762" y="0.078125" width="30.0189" height="30.2388" rx="3" fill="#CB3335"/>
<g clip-path="url(#clip0_271_488)">
<path d="M51.7205 17.9114L49.0843 12.6389H49.8119C49.9517 12.6389 50.0858 12.5834 50.1847 12.4845C50.2836 12.3856 50.3391 12.2515 50.3391 12.1117C50.3391 11.9718 50.2836 11.8377 50.1847 11.7388C50.0858 11.64 49.9517 11.5844 49.8119 11.5844H48.9788C48.4124 10.9674 47.7298 10.4682 46.9702 10.1154C46.2106 9.76253 45.3888 9.56297 44.552 9.52813L44.5394 9.4754C44.5394 9.19573 44.4283 8.92751 44.2305 8.72976C44.0327 8.532 43.7645 8.4209 43.4849 8.4209C43.2052 8.4209 42.937 8.532 42.7392 8.72976C42.5414 8.92751 42.4303 9.19573 42.4303 9.4754V9.52813C40.7261 9.59899 39.1179 10.3363 37.9519 11.5812L37.1578 11.5844C37.018 11.5844 36.8839 11.64 36.785 11.7388C36.6861 11.8377 36.6306 11.9718 36.6306 12.1117C36.6306 12.2515 36.6861 12.3856 36.785 12.4845C36.8839 12.5834 37.018 12.6389 37.1578 12.6389H37.8854L35.2492 17.9114H35.0488C35.0488 19.0714 36.4619 20.0204 38.2123 20.0204C39.9628 20.0204 41.3758 19.0714 41.3758 17.9114H41.1755L38.4865 12.544C38.5532 12.5049 38.6104 12.4516 38.6542 12.3879C39.1205 11.8399 39.6975 11.3967 40.3472 11.0874C40.9969 10.7781 41.7046 10.6097 42.424 10.5932L42.4303 22.1294H41.3758V23.1839H39.2668V24.2384H47.7029V23.1839H45.5939V22.1294H44.5394V10.5932C45.2506 10.6066 45.9506 10.773 46.5918 11.0811C47.233 11.3891 47.8004 11.8316 48.2554 12.3784C48.3041 12.4611 48.3745 12.5289 48.4589 12.5746L45.7942 17.9114H45.5939C45.5939 19.0714 47.0069 20.0204 48.7574 20.0204C50.5078 20.0204 51.9209 19.0714 51.9209 17.9114H51.7205ZM40.3213 17.9114H36.1033L38.2123 13.7567L40.3213 17.9114ZM46.6484 17.9114L48.7574 13.7567L50.8664 17.9114H46.6484Z" fill="white"/>
</g>
<rect width="44" height="24.1757" transform="translate(23 37)" fill="white"/>
<path d="M32.668 45L30.86 39.36H31.612L33.084 44.144H33.012L34.652 39.36H35.236L36.86 44.144H36.804L38.292 39.36H39.012L37.196 45H36.516L34.924 40.344H34.956L33.332 45H32.668ZM41.5223 45.072C41.0796 45.072 40.6956 44.992 40.3703 44.832C40.0503 44.6667 39.8049 44.432 39.6343 44.128C39.4636 43.8187 39.3783 43.4507 39.3783 43.024C39.3783 42.624 39.4583 42.272 39.6183 41.968C39.7783 41.6587 40.0049 41.416 40.2983 41.24C40.5916 41.064 40.9409 40.976 41.3463 40.976C41.7303 40.976 42.0556 41.0587 42.3223 41.224C42.5943 41.3893 42.7996 41.6213 42.9383 41.92C43.0823 42.2187 43.1543 42.5733 43.1543 42.984V43.216H39.9143V42.72H42.6903L42.5383 42.88C42.5383 42.4427 42.4343 42.1067 42.2263 41.872C42.0236 41.6373 41.7303 41.52 41.3463 41.52C41.0956 41.52 40.8716 41.5787 40.6743 41.696C40.4823 41.808 40.3329 41.968 40.2263 42.176C40.1196 42.384 40.0663 42.6373 40.0663 42.936V43.016C40.0663 43.336 40.1249 43.6053 40.2423 43.824C40.3596 44.0427 40.5276 44.208 40.7463 44.32C40.9649 44.432 41.2263 44.488 41.5303 44.488C41.7489 44.488 41.9703 44.4587 42.1943 44.4C42.4236 44.336 42.6369 44.224 42.8343 44.064L43.0743 44.576C42.8716 44.7467 42.6289 44.872 42.3463 44.952C42.0689 45.032 41.7943 45.072 41.5223 45.072ZM44.2492 40.096V39.304H45.1132V40.096H44.2492ZM44.3292 45V41.048H45.0412V45H44.3292ZM48.174 46.512C47.8593 46.512 47.5473 46.464 47.238 46.368C46.9287 46.2773 46.6647 46.152 46.446 45.992L46.67 45.44C46.8193 45.536 46.9767 45.6187 47.142 45.688C47.3073 45.7627 47.4753 45.816 47.646 45.848C47.822 45.8853 47.9953 45.904 48.166 45.904C48.5767 45.904 48.8967 45.8 49.126 45.592C49.3607 45.384 49.478 45.088 49.478 44.704V43.976H49.462C49.366 44.248 49.1927 44.4693 48.942 44.64C48.6913 44.8053 48.4007 44.888 48.07 44.888C47.6967 44.888 47.3713 44.808 47.094 44.648C46.8167 44.4827 46.6007 44.2533 46.446 43.96C46.2967 43.6667 46.222 43.3227 46.222 42.928C46.222 42.5387 46.2967 42.1973 46.446 41.904C46.6007 41.6107 46.8167 41.384 47.094 41.224C47.3713 41.0587 47.6967 40.976 48.07 40.976C48.4007 40.976 48.6913 41.0613 48.942 41.232C49.198 41.4027 49.374 41.6293 49.47 41.912H49.478V41.048H50.142V44.64C50.142 45.024 50.062 45.3547 49.902 45.632C49.7473 45.9147 49.5233 46.1307 49.23 46.28C48.9367 46.4347 48.5847 46.512 48.174 46.512ZM48.19 44.304C48.5793 44.304 48.886 44.1787 49.11 43.928C49.3393 43.6773 49.454 43.344 49.454 42.928C49.454 42.512 49.3393 42.1813 49.11 41.936C48.886 41.6853 48.5793 41.56 48.19 41.56C47.806 41.56 47.4993 41.6853 47.27 41.936C47.046 42.1813 46.934 42.512 46.934 42.928C46.934 43.344 47.046 43.6773 47.27 43.928C47.4993 44.1787 47.806 44.304 48.19 44.304ZM51.5636 45V39.36H52.2516V41.888C52.3689 41.6053 52.5529 41.384 52.8036 41.224C53.0596 41.0587 53.3476 40.976 53.6676 40.976C53.9929 40.976 54.2649 41.0347 54.4836 41.152C54.7022 41.264 54.8649 41.44 54.9716 41.68C55.0836 41.9147 55.1396 42.208 55.1396 42.56V45H54.4276V42.6C54.4276 42.3867 54.3956 42.2053 54.3316 42.056C54.2729 41.9067 54.1769 41.792 54.0436 41.712C53.9102 41.6267 53.7316 41.584 53.5076 41.584C53.2729 41.584 53.0622 41.6373 52.8756 41.744C52.6889 41.8507 52.5422 41.9947 52.4356 42.176C52.3289 42.3573 52.2756 42.56 52.2756 42.784V45H51.5636ZM58.2119 45.072C57.7373 45.072 57.3773 44.9467 57.1319 44.696C56.8919 44.4453 56.7719 44.088 56.7719 43.624V41.632H55.9719V41.048H56.7959V39.872H57.4839V41.048H58.8999V41.632H57.4839V43.56C57.4839 43.864 57.5506 44.0907 57.6839 44.24C57.8226 44.384 58.0333 44.456 58.3159 44.456C58.4279 44.456 58.5346 44.4453 58.6359 44.424C58.7426 44.4027 58.8439 44.3707 58.9399 44.328L59.0519 44.888C58.9453 44.9467 58.8146 44.992 58.6599 45.024C58.5106 45.056 58.3613 45.072 58.2119 45.072Z" fill="#CE3439"/>
<path d="M22.736 58V57.392H24.28V52.928L24.656 52.984L23.016 54.04L22.696 53.488L24.464 52.36H24.984V57.392H26.408V58H22.736ZM29.1169 58.072C28.8822 58.072 28.6502 58.048 28.4209 58C28.1915 57.952 27.9729 57.8773 27.7649 57.776C27.5622 57.6747 27.3755 57.5493 27.2049 57.4L27.4769 56.84C27.7329 57.0587 27.9995 57.216 28.2769 57.312C28.5542 57.4027 28.8342 57.448 29.1169 57.448C29.3515 57.448 29.5622 57.4133 29.7489 57.344C29.9409 57.2693 30.0902 57.16 30.1969 57.016C30.3089 56.8667 30.3649 56.6747 30.3649 56.44C30.3649 56.1147 30.2555 55.8693 30.0369 55.704C29.8182 55.5333 29.5009 55.448 29.0849 55.448H28.2369V54.832H28.9809C29.2209 54.832 29.4342 54.7947 29.6209 54.72C29.8129 54.64 29.9622 54.5227 30.0689 54.368C30.1755 54.2133 30.2289 54.0213 30.2289 53.792C30.2289 53.4987 30.1275 53.28 29.9249 53.136C29.7222 52.9867 29.4609 52.912 29.1409 52.912C28.8582 52.912 28.5809 52.96 28.3089 53.056C28.0422 53.152 27.7969 53.3173 27.5729 53.552L27.3089 53C27.5329 52.76 27.8102 52.5813 28.1409 52.464C28.4715 52.3467 28.8155 52.288 29.1729 52.288C29.5302 52.288 29.8369 52.3467 30.0929 52.464C30.3542 52.576 30.5569 52.7413 30.7009 52.96C30.8449 53.1733 30.9169 53.432 30.9169 53.736C30.9169 54.056 30.8262 54.3387 30.6449 54.584C30.4635 54.8293 30.2182 55.0027 29.9089 55.104V55.096C30.1329 55.1387 30.3302 55.2213 30.5009 55.344C30.6715 55.4613 30.8075 55.616 30.9089 55.808C31.0102 55.9947 31.0609 56.216 31.0609 56.472C31.0609 56.808 30.9782 57.096 30.8129 57.336C30.6529 57.576 30.4262 57.76 30.1329 57.888C29.8449 58.0107 29.5062 58.072 29.1169 58.072ZM32.1698 58V57.12H33.0818V58H32.1698ZM36.0563 58.072C35.6243 58.072 35.2589 57.9627 34.9603 57.744C34.6616 57.52 34.4349 57.1947 34.2803 56.768C34.1309 56.336 34.0563 55.8053 34.0563 55.176C34.0563 54.5467 34.1309 54.0187 34.2803 53.592C34.4349 53.1653 34.6616 52.8427 34.9603 52.624C35.2589 52.4 35.6243 52.288 36.0563 52.288C36.4989 52.288 36.8669 52.3973 37.1603 52.616C37.4536 52.8347 37.6749 53.1573 37.8243 53.584C37.9789 54.0107 38.0563 54.5387 38.0563 55.168C38.0563 55.7973 37.9789 56.328 37.8243 56.76C37.6749 57.192 37.4509 57.52 37.1523 57.744C36.8536 57.9627 36.4883 58.072 36.0563 58.072ZM36.0563 57.448C36.4936 57.448 36.8189 57.264 37.0323 56.896C37.2456 56.528 37.3523 55.952 37.3523 55.168C37.3523 54.3893 37.2456 53.8187 37.0323 53.456C36.8243 53.0933 36.5016 52.912 36.0643 52.912C35.6216 52.912 35.2936 53.096 35.0803 53.464C34.8669 53.8267 34.7603 54.3973 34.7603 55.176C34.7603 55.9493 34.8669 56.5227 35.0803 56.896C35.2936 57.264 35.6189 57.448 36.0563 57.448ZM40.8531 58.072C40.4211 58.072 40.0558 57.9627 39.7571 57.744C39.4585 57.52 39.2318 57.1947 39.0771 56.768C38.9278 56.336 38.8531 55.8053 38.8531 55.176C38.8531 54.5467 38.9278 54.0187 39.0771 53.592C39.2318 53.1653 39.4585 52.8427 39.7571 52.624C40.0558 52.4 40.4211 52.288 40.8531 52.288C41.2958 52.288 41.6638 52.3973 41.9571 52.616C42.2505 52.8347 42.4718 53.1573 42.6211 53.584C42.7758 54.0107 42.8531 54.5387 42.8531 55.168C42.8531 55.7973 42.7758 56.328 42.6211 56.76C42.4718 57.192 42.2478 57.52 41.9491 57.744C41.6505 57.9627 41.2851 58.072 40.8531 58.072ZM40.8531 57.448C41.2905 57.448 41.6158 57.264 41.8291 56.896C42.0425 56.528 42.1491 55.952 42.1491 55.168C42.1491 54.3893 42.0425 53.8187 41.8291 53.456C41.6211 53.0933 41.2985 52.912 40.8611 52.912C40.4185 52.912 40.0905 53.096 39.8771 53.464C39.6638 53.8267 39.5571 54.3973 39.5571 55.176C39.5571 55.9493 39.6638 56.5227 39.8771 56.896C40.0905 57.264 40.4158 57.448 40.8531 57.448ZM47.3724 59.536C46.9937 58.96 46.7137 58.3733 46.5324 57.776C46.3564 57.1733 46.2684 56.5467 46.2684 55.896C46.2684 55.2453 46.3564 54.6213 46.5324 54.024C46.7137 53.4267 46.9937 52.8373 47.3724 52.256L47.8844 52.44C47.6817 52.8187 47.5137 53.2 47.3804 53.584C47.247 53.968 47.1457 54.352 47.0764 54.736C47.0124 55.1147 46.9804 55.5013 46.9804 55.896C46.9804 56.2853 47.0124 56.672 47.0764 57.056C47.1457 57.44 47.247 57.8213 47.3804 58.2C47.5137 58.584 47.6817 58.968 47.8844 59.352L47.3724 59.536ZM51.4936 58.072C50.9069 58.072 50.4056 57.9573 49.9896 57.728C49.5736 57.4987 49.2536 57.1707 49.0296 56.744C48.8109 56.312 48.7016 55.7893 48.7016 55.176C48.7016 54.5733 48.8082 54.0587 49.0216 53.632C49.2402 53.2 49.5522 52.8693 49.9576 52.64C50.3629 52.4053 50.8482 52.288 51.4136 52.288C51.6909 52.288 51.9549 52.3147 52.2056 52.368C52.4562 52.4213 52.6882 52.5013 52.9016 52.608C53.1149 52.7093 53.2962 52.8373 53.4456 52.992L53.1736 53.544C52.9229 53.3253 52.6536 53.1707 52.3656 53.08C52.0776 52.984 51.7576 52.936 51.4056 52.936C50.7869 52.936 50.3042 53.128 49.9576 53.512C49.6162 53.8907 49.4456 54.4453 49.4456 55.176C49.4456 55.9333 49.6216 56.5013 49.9736 56.88C50.3309 57.2533 50.8482 57.44 51.5256 57.44C51.8242 57.44 52.1016 57.416 52.3576 57.368C52.6189 57.32 52.8562 57.2507 53.0696 57.16L52.8616 57.576V55.616H51.4536V55.008H53.5096V57.672C53.3602 57.7467 53.1736 57.816 52.9496 57.88C52.7256 57.9387 52.4882 57.984 52.2376 58.016C51.9869 58.0533 51.7389 58.072 51.4936 58.072ZM54.9854 58V54.048H55.6334V54.96H55.6414C55.7374 54.6667 55.9054 54.4373 56.1454 54.272C56.3854 54.1013 56.6788 54.0053 57.0254 53.984L57.3854 53.968L57.4494 54.616L56.8734 54.664C56.5054 54.696 56.2174 54.8187 56.0094 55.032C55.8014 55.24 55.6974 55.5013 55.6974 55.816V58H54.9854ZM58.3452 58V54.048H59.0012V54.912C59.0705 54.736 59.1665 54.5787 59.2892 54.44C59.4172 54.296 59.5692 54.184 59.7452 54.104C59.9265 54.0187 60.1239 53.976 60.3372 53.976C60.6839 53.976 60.9692 54.0613 61.1932 54.232C61.4172 54.4027 61.5559 54.6267 61.6092 54.904H61.6012C61.7079 54.6427 61.8759 54.424 62.1052 54.248C62.3399 54.0667 62.6332 53.976 62.9852 53.976C63.2839 53.976 63.5372 54.0347 63.7452 54.152C63.9532 54.264 64.1105 54.4373 64.2172 54.672C64.3239 54.9067 64.3772 55.2027 64.3772 55.56V58H63.6732V55.608C63.6732 55.2667 63.6119 55.0107 63.4892 54.84C63.3665 54.6693 63.1479 54.584 62.8332 54.584C62.5985 54.584 62.3959 54.6373 62.2252 54.744C62.0599 54.8453 61.9319 54.9893 61.8412 55.176C61.7559 55.3573 61.7132 55.5627 61.7132 55.792V58H61.0092V55.608C61.0092 55.272 60.9399 55.0187 60.8012 54.848C60.6625 54.672 60.4519 54.584 60.1692 54.584C59.9399 54.584 59.7399 54.6427 59.5692 54.76C59.4039 54.872 59.2759 55.0187 59.1852 55.2C59.0945 55.3813 59.0492 55.5733 59.0492 55.776V58H58.3452ZM65.9018 59.536L65.3818 59.352C65.5898 58.9627 65.7604 58.576 65.8938 58.192C66.0271 57.8133 66.1258 57.4347 66.1898 57.056C66.2538 56.672 66.2858 56.2853 66.2858 55.896C66.2858 55.5067 66.2538 55.1227 66.1898 54.744C66.1258 54.36 66.0271 53.976 65.8938 53.592C65.7604 53.208 65.5898 52.824 65.3818 52.44L65.9018 52.256C66.2751 52.832 66.5498 53.4213 66.7258 54.024C66.9071 54.6213 66.9978 55.2453 66.9978 55.896C66.9978 56.5413 66.9071 57.1653 66.7258 57.768C66.5498 58.3653 66.2751 58.9547 65.9018 59.536Z" fill="black"/>
<defs>
<filter id="filter0_d_271_488" x="0.0999999" y="24" width="89.8" height="57.9" filterUnits="userSpaceOnUse" color-interpolation-filters="sRGB">
<feFlood flood-opacity="0" result="BackgroundImageFix"/>
<feColorMatrix in="SourceAlpha" type="matrix" values="0 0 0 0 0 0 0 0 0 0 0 0 0 0 0 0 0 0 127 0" result="hardAlpha"/>
<feOffset dy="4"/>
<feGaussianBlur stdDeviation="1.95"/>
<feComposite in2="hardAlpha" operator="out"/>
<feColorMatrix type="matrix" values="0 0 0 0 0 0 0 0 0 0 0 0 0 0 0 0 0 0 0.2 0"/>
<feBlend mode="normal" in2="BackgroundImageFix" result="effect1_dropShadow_271_488"/>
<feBlend mode="normal" in="SourceGraphic" in2="effect1_dropShadow_271_488" result="shape"/>
</filter>
<clipPath id="clip0_271_488">
<rect width="16.872" height="16.872" fill="white" transform="translate(35.0488 7.36621)"/>
</clipPath>
</defs>
</svg>
