<svg width="135" height="82" viewBox="0 0 135 82" fill="none" xmlns="http://www.w3.org/2000/svg">
<g filter="url(#filter0_d_271_515)">
<rect x="4" y="24" width="127" height="50" rx="2" fill="white"/>
<rect x="4.25" y="24.25" width="126.5" height="49.5" rx="1.75" stroke="white" stroke-width="0.5"/>
</g>
<rect x="51.75" y="0.078125" width="30.0189" height="30.1539" rx="3" fill="#CB3335"/>
<g clip-path="url(#clip0_271_515)">
<path fill-rule="evenodd" clip-rule="evenodd" d="M66.2418 2.49814C66.3232 2.49305 66.4085 2.50662 66.4317 2.52782C66.4549 2.54903 67.0915 2.88529 67.8459 3.2754C68.6007 3.6651 69.5408 4.15147 69.9355 4.35586C70.3302 4.55982 72.0306 5.43758 73.7137 6.30644C75.3972 7.17487 76.8067 7.91694 76.8468 7.9551C76.9143 8.01956 76.9194 8.37533 76.9219 13.3459C76.9241 17.6028 76.9135 18.6829 76.8704 18.7448C76.8409 18.7872 74.4516 20.0326 71.5607 21.5121C68.6699 22.992 66.2671 24.2026 66.2207 24.2026C66.1742 24.2026 65.9273 24.0915 65.6719 23.9562C65.4165 23.8205 63.0246 22.5849 60.3567 21.2101C56.359 19.1497 55.4919 18.6875 55.4265 18.5828C55.3653 18.4848 55.3509 18.3975 55.3636 18.2012C55.3729 18.0612 55.4134 15.7048 55.4535 12.9643C55.494 10.2237 55.5443 7.9339 55.5654 7.87581C55.5975 7.78718 56.4624 7.33897 60.8489 5.13863C64.3539 3.38014 66.143 2.5045 66.2418 2.49814ZM56.6081 8.02083C56.6131 8.0344 57.2675 8.39271 58.0628 8.81717C58.8581 9.24164 59.5563 9.61607 59.6141 9.64956C59.7155 9.70851 59.9067 9.61352 64.4793 7.23508C67.097 5.87307 69.2246 4.74682 69.2073 4.73156C69.19 4.71629 68.5251 4.36815 67.7298 3.95768C66.9345 3.54721 66.2603 3.21265 66.2312 3.21392C66.2021 3.21519 64.023 4.29183 61.3888 5.60635C58.7547 6.92087 56.6034 8.00726 56.6081 8.02083ZM63.4864 8.49066C61.8219 9.35358 60.4593 10.0689 60.4593 10.0808C60.4588 10.0923 60.862 10.3195 61.3555 10.5854L62.2525 11.0684C62.7105 10.8331 64.8453 9.71868 67.2916 8.4402C69.7379 7.16215 71.7418 6.09696 71.7452 6.07364C71.7482 6.05032 71.3577 5.826 70.8769 5.57539C70.3965 5.32479 69.9976 5.11998 69.9904 5.12082C69.9836 5.12167 69.198 5.52705 68.2452 6.02191C67.2925 6.51676 65.1509 7.62774 63.4864 8.49066ZM65.7048 10.0045C64.2138 10.7809 62.993 11.431 62.9925 11.4483C62.9917 11.4657 63.7038 11.8618 64.5743 12.3282L66.1573 13.1763C73.5676 9.36631 75.7513 8.23582 75.7914 8.20571C75.8543 8.15864 75.6513 8.04203 74.2181 7.30335C73.3126 6.83691 72.5583 6.45273 72.5414 6.44976C72.5245 6.4468 71.5894 6.92766 70.4632 7.51834C69.3369 8.1086 67.1958 9.22764 65.7048 10.0045ZM56.1142 13.3883C56.061 16.8464 56.053 18.2143 56.0859 18.2487C56.1108 18.2745 56.5971 18.5349 57.1657 18.8275C57.7348 19.1196 59.9286 20.2489 62.0415 21.3365C64.1543 22.4237 65.8872 23.3083 65.8927 23.3015C65.8977 23.2951 65.8842 21.1427 65.8623 18.5192C65.8403 15.8952 65.8171 13.7458 65.8103 13.742C65.804 13.7382 65.0767 13.3446 64.1944 12.868L62.5902 12.0013C62.5489 12.2052 62.5252 12.7701 62.5105 13.3883C62.4872 14.3882 62.4758 14.5239 62.4066 14.618C62.3545 14.6887 62.2807 14.7279 62.185 14.7355C62.0693 14.7452 61.8046 14.6218 60.8194 14.0994C60.1473 13.7432 59.5538 13.4184 59.5002 13.3777L59.4031 13.3035L59.382 10.2742C57.5169 9.2675 56.7997 8.88078 56.5844 8.76544C56.3691 8.64968 56.1918 8.55978 56.1906 8.5653C56.1897 8.57081 56.1551 10.741 56.1142 13.3883ZM66.5233 13.7356C66.5043 13.7428 66.5043 15.9003 66.5233 18.5298C66.5427 21.1593 66.5681 23.3117 66.5795 23.3121C66.5909 23.313 68.7755 22.1994 71.4341 20.8374L76.2676 18.3615C76.2841 10.8924 76.2748 8.72516 76.2571 8.72685C76.2398 8.72897 74.0505 9.85353 71.3919 11.2266C68.7332 12.5996 66.5427 13.7284 66.5233 13.7356ZM60.0371 12.9431C61.3483 13.633 61.7514 13.8391 61.7797 13.8454C61.8169 13.8539 61.8388 13.6656 61.862 13.1458C61.8798 12.7544 61.8937 12.2527 61.8937 12.0314V11.6286C60.5196 10.889 60.1017 10.6745 60.0785 10.6745C60.0515 10.6745 60.0363 11.0807 60.0367 11.8088L60.0371 12.9431Z" fill="white"/>
</g>
<path d="M17.832 41V35.36H20.152C20.5573 35.36 20.9013 35.4267 21.184 35.56C21.4667 35.6933 21.6827 35.888 21.832 36.144C21.9867 36.3947 22.064 36.6987 22.064 37.056C22.064 37.4133 21.9867 37.72 21.832 37.976C21.6827 38.232 21.464 38.4293 21.176 38.568C20.8933 38.7067 20.552 38.776 20.152 38.776H18.544V41H17.832ZM18.544 38.168H20.048C20.4747 38.168 20.7973 38.0773 21.016 37.896C21.2347 37.7093 21.344 37.432 21.344 37.064C21.344 36.6907 21.2347 36.416 21.016 36.24C20.7973 36.0587 20.4747 35.968 20.048 35.968H18.544V38.168ZM22.7242 36.096V35.304H23.5882V36.096H22.7242ZM22.8042 41V37.048H23.5162V41H22.8042ZM26.441 41.072C25.9983 41.072 25.6143 40.992 25.289 40.832C24.969 40.6667 24.7237 40.432 24.553 40.128C24.3823 39.8187 24.297 39.4507 24.297 39.024C24.297 38.624 24.377 38.272 24.537 37.968C24.697 37.6587 24.9237 37.416 25.217 37.24C25.5103 37.064 25.8597 36.976 26.265 36.976C26.649 36.976 26.9743 37.0587 27.241 37.224C27.513 37.3893 27.7183 37.6213 27.857 37.92C28.001 38.2187 28.073 38.5733 28.073 38.984V39.216H24.833V38.72H27.609L27.457 38.88C27.457 38.4427 27.353 38.1067 27.145 37.872C26.9423 37.6373 26.649 37.52 26.265 37.52C26.0143 37.52 25.7903 37.5787 25.593 37.696C25.401 37.808 25.2517 37.968 25.145 38.176C25.0383 38.384 24.985 38.6373 24.985 38.936V39.016C24.985 39.336 25.0437 39.6053 25.161 39.824C25.2783 40.0427 25.4463 40.208 25.665 40.32C25.8837 40.432 26.145 40.488 26.449 40.488C26.6677 40.488 26.889 40.4587 27.113 40.4C27.3423 40.336 27.5557 40.224 27.753 40.064L27.993 40.576C27.7903 40.7467 27.5477 40.872 27.265 40.952C26.9877 41.032 26.713 41.072 26.441 41.072ZM30.6079 41.072C30.2026 41.072 29.8506 40.9867 29.5519 40.816C29.2533 40.6453 29.0213 40.408 28.8559 40.104C28.6906 39.7947 28.6079 39.432 28.6079 39.016C28.6079 38.6 28.6906 38.24 28.8559 37.936C29.0213 37.6267 29.2533 37.3893 29.5519 37.224C29.8559 37.0587 30.2106 36.976 30.6159 36.976C30.8879 36.976 31.1466 37.0213 31.3919 37.112C31.6373 37.2027 31.8399 37.3253 31.9999 37.48L31.7519 38.008C31.5973 37.8693 31.4239 37.7653 31.2319 37.696C31.0399 37.6213 30.8533 37.584 30.6719 37.584C30.2559 37.584 29.9279 37.7093 29.6879 37.96C29.4479 38.2107 29.3279 38.5653 29.3279 39.024C29.3279 39.4773 29.4479 39.832 29.6879 40.088C29.9279 40.3387 30.2533 40.464 30.6639 40.464C30.8506 40.464 31.0373 40.4293 31.2239 40.36C31.4159 40.2853 31.5866 40.1813 31.7359 40.048L31.9839 40.576C31.8293 40.7307 31.6293 40.8533 31.3839 40.944C31.1386 41.0293 30.8799 41.072 30.6079 41.072ZM34.3363 41.072C33.8936 41.072 33.5096 40.992 33.1843 40.832C32.8643 40.6667 32.619 40.432 32.4483 40.128C32.2776 39.8187 32.1923 39.4507 32.1923 39.024C32.1923 38.624 32.2723 38.272 32.4323 37.968C32.5923 37.6587 32.819 37.416 33.1123 37.24C33.4056 37.064 33.755 36.976 34.1603 36.976C34.5443 36.976 34.8696 37.0587 35.1363 37.224C35.4083 37.3893 35.6136 37.6213 35.7523 37.92C35.8963 38.2187 35.9683 38.5733 35.9683 38.984V39.216H32.7283V38.72H35.5043L35.3523 38.88C35.3523 38.4427 35.2483 38.1067 35.0403 37.872C34.8376 37.6373 34.5443 37.52 34.1603 37.52C33.9096 37.52 33.6856 37.5787 33.4883 37.696C33.2963 37.808 33.147 37.968 33.0403 38.176C32.9336 38.384 32.8803 38.6373 32.8803 38.936V39.016C32.8803 39.336 32.939 39.6053 33.0563 39.824C33.1736 40.0427 33.3416 40.208 33.5603 40.32C33.779 40.432 34.0403 40.488 34.3443 40.488C34.563 40.488 34.7843 40.4587 35.0083 40.4C35.2376 40.336 35.451 40.224 35.6483 40.064L35.8883 40.576C35.6856 40.7467 35.443 40.872 35.1603 40.952C34.883 41.032 34.6083 41.072 34.3363 41.072ZM38.1993 41.072C37.9806 41.072 37.7646 41.0507 37.5513 41.008C37.3433 40.9707 37.1486 40.9173 36.9673 40.848C36.7913 40.7733 36.6393 40.6827 36.5113 40.576L36.7433 40.072C36.8766 40.1733 37.0233 40.256 37.1833 40.32C37.3486 40.384 37.5166 40.432 37.6873 40.464C37.8633 40.4907 38.0313 40.504 38.1913 40.504C38.5219 40.504 38.7753 40.4533 38.9513 40.352C39.1326 40.2507 39.2233 40.1093 39.2233 39.928C39.2233 39.7733 39.1699 39.656 39.0633 39.576C38.9619 39.4907 38.7913 39.4267 38.5513 39.384L37.7273 39.24C37.3593 39.1707 37.0819 39.0453 36.8953 38.864C36.7139 38.6827 36.6233 38.4453 36.6233 38.152C36.6233 37.9173 36.6873 37.712 36.8153 37.536C36.9486 37.36 37.1379 37.224 37.3833 37.128C37.6286 37.0267 37.9219 36.976 38.2633 36.976C38.4499 36.976 38.6393 36.9947 38.8313 37.032C39.0286 37.0693 39.2099 37.1253 39.3753 37.2C39.5459 37.2693 39.6846 37.3573 39.7913 37.464L39.5513 37.968C39.4446 37.8667 39.3166 37.7867 39.1673 37.728C39.0233 37.664 38.8713 37.6187 38.7113 37.592C38.5566 37.56 38.4046 37.544 38.2553 37.544C37.9459 37.544 37.7059 37.5973 37.5353 37.704C37.3646 37.8053 37.2793 37.9493 37.2793 38.136C37.2793 38.2853 37.3273 38.4027 37.4233 38.488C37.5246 38.5733 37.6873 38.6373 37.9113 38.68L38.7113 38.824C39.1059 38.8987 39.3993 39.024 39.5913 39.2C39.7833 39.3707 39.8793 39.608 39.8793 39.912C39.8793 40.1467 39.8099 40.352 39.6713 40.528C39.5326 40.6987 39.3379 40.832 39.0873 40.928C38.8366 41.024 38.5406 41.072 38.1993 41.072Z" fill="#CE3439"/>
<path d="M56.1774 41V40.392H57.7214V35.928L58.0974 35.984L56.4574 37.04L56.1374 36.488L57.9054 35.36H58.4254V40.392H59.8494V41H56.1774ZM62.6383 41.072C62.2063 41.072 61.8409 40.9627 61.5423 40.744C61.2436 40.52 61.0169 40.1947 60.8623 39.768C60.7129 39.336 60.6383 38.8053 60.6383 38.176C60.6383 37.5467 60.7129 37.0187 60.8623 36.592C61.0169 36.1653 61.2436 35.8427 61.5423 35.624C61.8409 35.4 62.2063 35.288 62.6383 35.288C63.0809 35.288 63.4489 35.3973 63.7423 35.616C64.0356 35.8347 64.2569 36.1573 64.4063 36.584C64.5609 37.0107 64.6383 37.5387 64.6383 38.168C64.6383 38.7973 64.5609 39.328 64.4063 39.76C64.2569 40.192 64.0329 40.52 63.7343 40.744C63.4356 40.9627 63.0703 41.072 62.6383 41.072ZM62.6383 40.448C63.0756 40.448 63.4009 40.264 63.6143 39.896C63.8276 39.528 63.9343 38.952 63.9343 38.168C63.9343 37.3893 63.8276 36.8187 63.6143 36.456C63.4063 36.0933 63.0836 35.912 62.6463 35.912C62.2036 35.912 61.8756 36.096 61.6623 36.464C61.4489 36.8267 61.3423 37.3973 61.3423 38.176C61.3423 38.9493 61.4489 39.5227 61.6623 39.896C61.8756 40.264 62.2009 40.448 62.6383 40.448ZM67.4352 41.072C67.0032 41.072 66.6378 40.9627 66.3392 40.744C66.0405 40.52 65.8138 40.1947 65.6592 39.768C65.5098 39.336 65.4352 38.8053 65.4352 38.176C65.4352 37.5467 65.5098 37.0187 65.6592 36.592C65.8138 36.1653 66.0405 35.8427 66.3392 35.624C66.6378 35.4 67.0032 35.288 67.4352 35.288C67.8778 35.288 68.2458 35.3973 68.5392 35.616C68.8325 35.8347 69.0538 36.1573 69.2032 36.584C69.3578 37.0107 69.4352 37.5387 69.4352 38.168C69.4352 38.7973 69.3578 39.328 69.2032 39.76C69.0538 40.192 68.8298 40.52 68.5312 40.744C68.2325 40.9627 67.8672 41.072 67.4352 41.072ZM67.4352 40.448C67.8725 40.448 68.1978 40.264 68.4112 39.896C68.6245 39.528 68.7312 38.952 68.7312 38.168C68.7312 37.3893 68.6245 36.8187 68.4112 36.456C68.2032 36.0933 67.8805 35.912 67.4432 35.912C67.0005 35.912 66.6725 36.096 66.4592 36.464C66.2458 36.8267 66.1392 37.3973 66.1392 38.176C66.1392 38.9493 66.2458 39.5227 66.4592 39.896C66.6725 40.264 66.9978 40.448 67.4352 40.448ZM72.232 41.072C71.8 41.072 71.4347 40.9627 71.136 40.744C70.8374 40.52 70.6107 40.1947 70.456 39.768C70.3067 39.336 70.232 38.8053 70.232 38.176C70.232 37.5467 70.3067 37.0187 70.456 36.592C70.6107 36.1653 70.8374 35.8427 71.136 35.624C71.4347 35.4 71.8 35.288 72.232 35.288C72.6747 35.288 73.0427 35.3973 73.336 35.616C73.6294 35.8347 73.8507 36.1573 74 36.584C74.1547 37.0107 74.232 37.5387 74.232 38.168C74.232 38.7973 74.1547 39.328 74 39.76C73.8507 40.192 73.6267 40.52 73.328 40.744C73.0294 40.9627 72.664 41.072 72.232 41.072ZM72.232 40.448C72.6694 40.448 72.9947 40.264 73.208 39.896C73.4214 39.528 73.528 38.952 73.528 38.168C73.528 37.3893 73.4214 36.8187 73.208 36.456C73 36.0933 72.6774 35.912 72.24 35.912C71.7974 35.912 71.4694 36.096 71.256 36.464C71.0427 36.8267 70.936 37.3973 70.936 38.176C70.936 38.9493 71.0427 39.5227 71.256 39.896C71.4694 40.264 71.7947 40.448 72.232 40.448ZM77.6953 41V35.36H78.3273L81.7833 39.952H81.7513V35.36H82.4313V41H81.7833L78.3433 36.424H78.3753V41H77.6953ZM85.6937 41.072C85.2937 41.072 84.9471 40.9867 84.6537 40.816C84.3604 40.6453 84.1337 40.408 83.9737 40.104C83.8137 39.7947 83.7337 39.432 83.7337 39.016C83.7337 38.6053 83.8137 38.248 83.9737 37.944C84.1337 37.6347 84.3604 37.3973 84.6537 37.232C84.9471 37.0613 85.2937 36.976 85.6937 36.976C86.0937 36.976 86.4377 37.0613 86.7257 37.232C87.0191 37.3973 87.2457 37.6347 87.4057 37.944C87.5657 38.248 87.6457 38.6053 87.6457 39.016C87.6457 39.432 87.5657 39.7947 87.4057 40.104C87.2511 40.408 87.0271 40.6453 86.7337 40.816C86.4404 40.9867 86.0937 41.072 85.6937 41.072ZM85.6857 40.472C86.0751 40.472 86.3817 40.3413 86.6057 40.08C86.8297 39.8187 86.9417 39.464 86.9417 39.016C86.9417 38.568 86.8297 38.216 86.6057 37.96C86.3871 37.704 86.0831 37.576 85.6937 37.576C85.3044 37.576 84.9977 37.704 84.7737 37.96C84.5497 38.216 84.4377 38.568 84.4377 39.016C84.4377 39.464 84.5497 39.8187 84.7737 40.08C85.0031 40.3413 85.3071 40.472 85.6857 40.472ZM90.2969 41.072C90.0782 41.072 89.8622 41.0507 89.6489 41.008C89.4409 40.9707 89.2462 40.9173 89.0649 40.848C88.8889 40.7733 88.7369 40.6827 88.6089 40.576L88.8409 40.072C88.9742 40.1733 89.1209 40.256 89.2809 40.32C89.4462 40.384 89.6142 40.432 89.7849 40.464C89.9609 40.4907 90.1289 40.504 90.2889 40.504C90.6196 40.504 90.8729 40.4533 91.0489 40.352C91.2302 40.2507 91.3209 40.1093 91.3209 39.928C91.3209 39.7733 91.2676 39.656 91.1609 39.576C91.0596 39.4907 90.8889 39.4267 90.6489 39.384L89.8249 39.24C89.4569 39.1707 89.1796 39.0453 88.9929 38.864C88.8116 38.6827 88.7209 38.4453 88.7209 38.152C88.7209 37.9173 88.7849 37.712 88.9129 37.536C89.0462 37.36 89.2356 37.224 89.4809 37.128C89.7262 37.0267 90.0196 36.976 90.3609 36.976C90.5476 36.976 90.7369 36.9947 90.9289 37.032C91.1262 37.0693 91.3076 37.1253 91.4729 37.2C91.6436 37.2693 91.7822 37.3573 91.8889 37.464L91.6489 37.968C91.5422 37.8667 91.4142 37.7867 91.2649 37.728C91.1209 37.664 90.9689 37.6187 90.8089 37.592C90.6542 37.56 90.5022 37.544 90.3529 37.544C90.0436 37.544 89.8036 37.5973 89.6329 37.704C89.4622 37.8053 89.3769 37.9493 89.3769 38.136C89.3769 38.2853 89.4249 38.4027 89.5209 38.488C89.6222 38.5733 89.7849 38.6373 90.0089 38.68L90.8089 38.824C91.2036 38.8987 91.4969 39.024 91.6889 39.2C91.8809 39.3707 91.9769 39.608 91.9769 39.912C91.9769 40.1467 91.9076 40.352 91.7689 40.528C91.6302 40.6987 91.4356 40.832 91.1849 40.928C90.9342 41.024 90.6382 41.072 90.2969 41.072ZM92.8814 41.504L92.3214 41.352L94.3614 34.984L94.9134 35.136L92.8814 41.504ZM97.9627 41.072C97.424 41.072 96.9547 40.9573 96.5547 40.728C96.16 40.4933 95.856 40.16 95.6427 39.728C95.4293 39.2907 95.3227 38.7733 95.3227 38.176C95.3227 37.5787 95.4293 37.064 95.6427 36.632C95.856 36.2 96.16 35.8693 96.5547 35.64C96.9493 35.4053 97.4187 35.288 97.9627 35.288C98.3573 35.288 98.7173 35.3493 99.0427 35.472C99.368 35.5893 99.648 35.7627 99.8827 35.992L99.6027 36.552C99.3573 36.3333 99.104 36.176 98.8427 36.08C98.5867 35.984 98.2987 35.936 97.9787 35.936C97.3813 35.936 96.912 36.128 96.5707 36.512C96.2347 36.8907 96.0667 37.4453 96.0667 38.176C96.0667 38.9013 96.2347 39.4587 96.5707 39.848C96.9067 40.232 97.376 40.424 97.9787 40.424C98.2987 40.424 98.5867 40.376 98.8427 40.28C99.104 40.184 99.3573 40.0267 99.6027 39.808L99.8827 40.368C99.648 40.5973 99.368 40.7733 99.0427 40.896C98.7173 41.0133 98.3573 41.072 97.9627 41.072ZM102.614 41.072C102.14 41.072 101.78 40.9467 101.534 40.696C101.294 40.4453 101.174 40.088 101.174 39.624V37.632H100.374V37.048H101.198V35.872H101.886V37.048H103.302V37.632H101.886V39.56C101.886 39.864 101.953 40.0907 102.086 40.24C102.225 40.384 102.436 40.456 102.718 40.456C102.83 40.456 102.937 40.4453 103.038 40.424C103.145 40.4027 103.246 40.3707 103.342 40.328L103.454 40.888C103.348 40.9467 103.217 40.992 103.062 41.024C102.913 41.056 102.764 41.072 102.614 41.072ZM104.286 41V37.048H104.95V37.904C105.078 37.6107 105.27 37.384 105.526 37.224C105.782 37.0587 106.07 36.976 106.39 36.976C106.716 36.976 106.988 37.0347 107.206 37.152C107.425 37.264 107.588 37.44 107.694 37.68C107.806 37.9147 107.862 38.208 107.862 38.56V41H107.15V38.6C107.15 38.3867 107.121 38.2053 107.062 38.056C107.004 37.9067 106.905 37.792 106.766 37.712C106.633 37.6267 106.454 37.584 106.23 37.584C105.996 37.584 105.782 37.6373 105.59 37.744C105.404 37.8507 105.257 37.9947 105.15 38.176C105.049 38.3573 104.998 38.56 104.998 38.784V41H104.286Z" fill="black"/>
<path d="M19.72 54.072C19.4107 54.072 19.1173 54.048 18.84 54C18.5627 53.952 18.3093 53.88 18.08 53.784C17.8507 53.688 17.6507 53.5707 17.48 53.432L17.744 52.84C17.9253 52.984 18.1173 53.1013 18.32 53.192C18.528 53.2773 18.7467 53.3387 18.976 53.376C19.2107 53.4133 19.4587 53.432 19.72 53.432C20.1627 53.432 20.5013 53.344 20.736 53.168C20.976 52.992 21.096 52.752 21.096 52.448C21.096 52.288 21.056 52.1547 20.976 52.048C20.9013 51.9413 20.7813 51.8533 20.616 51.784C20.456 51.7147 20.248 51.6533 19.992 51.6L19.072 51.424C18.5547 51.3227 18.1813 51.144 17.952 50.888C17.7227 50.632 17.608 50.3093 17.608 49.92C17.608 49.5893 17.6987 49.304 17.88 49.064C18.0667 48.8187 18.3227 48.6293 18.648 48.496C18.9787 48.3573 19.3547 48.288 19.776 48.288C20.0427 48.288 20.2907 48.3147 20.52 48.368C20.7547 48.416 20.968 48.4907 21.16 48.592C21.3573 48.6933 21.5333 48.816 21.688 48.96L21.424 49.544C21.1947 49.32 20.944 49.1627 20.672 49.072C20.4 48.976 20.0987 48.928 19.768 48.928C19.4907 48.928 19.2427 48.968 19.024 49.048C18.8053 49.1227 18.632 49.2347 18.504 49.384C18.3813 49.528 18.32 49.7067 18.32 49.92C18.32 50.1547 18.3947 50.3413 18.544 50.48C18.6933 50.6133 18.9467 50.7173 19.304 50.792L20.216 50.968C20.76 51.0693 21.1627 51.24 21.424 51.48C21.6853 51.72 21.816 52.032 21.816 52.416C21.816 52.736 21.728 53.0213 21.552 53.272C21.3813 53.5227 21.1387 53.72 20.824 53.864C20.5147 54.0027 20.1467 54.072 19.72 54.072ZM22.882 49.096V48.304H23.746V49.096H22.882ZM22.962 54V50.048H23.674V54H22.962ZM24.8628 54V53.544L27.3668 50.416L27.4068 50.64H24.9188V50.048H28.0708V50.504L25.5428 53.656L25.5028 53.408H28.1588V54H24.8628ZM31.0691 54.072C30.6265 54.072 30.2425 53.992 29.9171 53.832C29.5971 53.6667 29.3518 53.432 29.1811 53.128C29.0105 52.8187 28.9251 52.4507 28.9251 52.024C28.9251 51.624 29.0051 51.272 29.1651 50.968C29.3251 50.6587 29.5518 50.416 29.8451 50.24C30.1385 50.064 30.4878 49.976 30.8931 49.976C31.2771 49.976 31.6025 50.0587 31.8691 50.224C32.1411 50.3893 32.3465 50.6213 32.4851 50.92C32.6291 51.2187 32.7011 51.5733 32.7011 51.984V52.216H29.4611V51.72H32.2371L32.0851 51.88C32.0851 51.4427 31.9811 51.1067 31.7731 50.872C31.5705 50.6373 31.2771 50.52 30.8931 50.52C30.6425 50.52 30.4185 50.5787 30.2211 50.696C30.0291 50.808 29.8798 50.968 29.7731 51.176C29.6665 51.384 29.6131 51.6373 29.6131 51.936V52.016C29.6131 52.336 29.6718 52.6053 29.7891 52.824C29.9065 53.0427 30.0745 53.208 30.2931 53.32C30.5118 53.432 30.7731 53.488 31.0771 53.488C31.2958 53.488 31.5171 53.4587 31.7411 53.4C31.9705 53.336 32.1838 53.224 32.3811 53.064L32.6211 53.576C32.4185 53.7467 32.1758 53.872 31.8931 53.952C31.6158 54.032 31.3411 54.072 31.0691 54.072Z" fill="#CE3439"/>
<path d="M60.048 54V52.832H57.416V52.296L60.016 48.36H60.728V52.232H61.512V52.832H60.728V54H60.048ZM60.072 52.232V49.24H60.104L58.04 52.368L57.984 52.232H60.072ZM63.8449 54.072C63.6369 54.072 63.4342 54.048 63.2369 54C63.0449 53.952 62.8609 53.88 62.6849 53.784C62.5142 53.6827 62.3542 53.56 62.2049 53.416L62.4769 52.872C62.6955 53.0907 62.9169 53.2427 63.1409 53.328C63.3649 53.408 63.6022 53.448 63.8529 53.448C64.1142 53.448 64.3435 53.4 64.5409 53.304C64.7435 53.2027 64.9142 53.056 65.0529 52.864C65.1915 52.6667 65.2955 52.424 65.3649 52.136C65.4342 51.848 65.4689 51.5173 65.4689 51.144V50.68H65.4609C65.4182 50.9307 65.3222 51.1493 65.1729 51.336C65.0289 51.5173 64.8502 51.656 64.6369 51.752C64.4235 51.848 64.1889 51.896 63.9329 51.896C63.5969 51.896 63.2982 51.8213 63.0369 51.672C62.7755 51.5227 62.5702 51.3147 62.4209 51.048C62.2769 50.7813 62.2049 50.472 62.2049 50.12C62.2049 49.768 62.2822 49.4533 62.4369 49.176C62.5915 48.8987 62.8049 48.6827 63.0769 48.528C63.3489 48.368 63.6609 48.288 64.0129 48.288C64.4715 48.288 64.8582 48.3973 65.1729 48.616C65.4875 48.8293 65.7249 49.1413 65.8849 49.552C66.0449 49.9627 66.1249 50.464 66.1249 51.056C66.1249 51.696 66.0342 52.2427 65.8529 52.696C65.6715 53.144 65.4102 53.4853 65.0689 53.72C64.7329 53.9547 64.3249 54.072 63.8449 54.072ZM64.0529 51.304C64.2875 51.304 64.4955 51.2533 64.6769 51.152C64.8582 51.0507 64.9995 50.9093 65.1009 50.728C65.2022 50.5467 65.2529 50.3387 65.2529 50.104C65.2529 49.8587 65.2022 49.6453 65.1009 49.464C65.0049 49.2827 64.8662 49.144 64.6849 49.048C64.5035 48.9467 64.2902 48.896 64.0449 48.896C63.8102 48.896 63.6049 48.9467 63.4289 49.048C63.2529 49.1493 63.1142 49.2907 63.0129 49.472C62.9169 49.6533 62.8689 49.864 62.8689 50.104C62.8689 50.3387 62.9195 50.5467 63.0209 50.728C63.1222 50.9093 63.2609 51.0507 63.4369 51.152C63.6129 51.2533 63.8182 51.304 64.0529 51.304ZM68.9938 54.072C68.5618 54.072 68.1964 53.9627 67.8978 53.744C67.5991 53.52 67.3724 53.1947 67.2178 52.768C67.0684 52.336 66.9938 51.8053 66.9938 51.176C66.9938 50.5467 67.0684 50.0187 67.2178 49.592C67.3724 49.1653 67.5991 48.8427 67.8978 48.624C68.1964 48.4 68.5618 48.288 68.9938 48.288C69.4364 48.288 69.8044 48.3973 70.0978 48.616C70.3911 48.8347 70.6124 49.1573 70.7618 49.584C70.9164 50.0107 70.9938 50.5387 70.9938 51.168C70.9938 51.7973 70.9164 52.328 70.7618 52.76C70.6124 53.192 70.3884 53.52 70.0898 53.744C69.7911 53.9627 69.4258 54.072 68.9938 54.072ZM68.9938 53.448C69.4311 53.448 69.7564 53.264 69.9698 52.896C70.1831 52.528 70.2898 51.952 70.2898 51.168C70.2898 50.3893 70.1831 49.8187 69.9698 49.456C69.7618 49.0933 69.4391 48.912 69.0018 48.912C68.5591 48.912 68.2311 49.096 68.0178 49.464C67.8044 49.8267 67.6978 50.3973 67.6978 51.176C67.6978 51.9493 67.8044 52.5227 68.0178 52.896C68.2311 53.264 68.5564 53.448 68.9938 53.448ZM73.817 54L75.905 50.976V51.24L73.929 48.36H74.753L76.353 50.712H76.313L77.913 48.36H78.737L76.745 51.24V50.976L78.841 54H78.009L76.297 51.496H76.353L74.641 54H73.817ZM84.3136 54V52.832H81.6816V52.296L84.2816 48.36H84.9936V52.232H85.7776V52.832H84.9936V54H84.3136ZM84.3376 52.232V49.24H84.3696L82.3056 52.368L82.2496 52.232H84.3376ZM88.4625 54.072C87.8332 54.072 87.3372 53.936 86.9745 53.664C86.6118 53.3867 86.4305 53.0027 86.4305 52.512C86.4305 52.2613 86.4785 52.04 86.5745 51.848C86.6758 51.6507 86.8145 51.4907 86.9905 51.368C87.1718 51.24 87.3798 51.1547 87.6145 51.112V51.12C87.4118 51.072 87.2305 50.984 87.0705 50.856C86.9158 50.728 86.7932 50.5733 86.7025 50.392C86.6118 50.2107 86.5665 50.0107 86.5665 49.792C86.5665 49.3227 86.7372 48.9547 87.0785 48.688C87.4252 48.4213 87.8865 48.288 88.4625 48.288C89.0385 48.288 89.4972 48.4213 89.8385 48.688C90.1852 48.9547 90.3585 49.3227 90.3585 49.792C90.3585 50.0053 90.3132 50.2053 90.2225 50.392C90.1318 50.5733 90.0065 50.728 89.8465 50.856C89.6918 50.984 89.5105 51.072 89.3025 51.12V51.112C89.5318 51.1493 89.7345 51.232 89.9105 51.36C90.0918 51.488 90.2332 51.6507 90.3345 51.848C90.4412 52.04 90.4945 52.2613 90.4945 52.512C90.4945 53.0027 90.3132 53.3867 89.9505 53.664C89.5932 53.936 89.0972 54.072 88.4625 54.072ZM88.4625 53.472C88.9052 53.472 89.2412 53.3867 89.4705 53.216C89.7052 53.0453 89.8225 52.7947 89.8225 52.464C89.8225 52.1333 89.7052 51.88 89.4705 51.704C89.2412 51.528 88.9052 51.44 88.4625 51.44C88.0198 51.44 87.6812 51.528 87.4465 51.704C87.2172 51.88 87.1025 52.1333 87.1025 52.464C87.1025 52.7947 87.2172 53.0453 87.4465 53.216C87.6812 53.3867 88.0198 53.472 88.4625 53.472ZM88.4625 50.84C88.8465 50.84 89.1478 50.7547 89.3665 50.584C89.5852 50.408 89.6945 50.1653 89.6945 49.856C89.6945 49.552 89.5852 49.3147 89.3665 49.144C89.1478 48.968 88.8465 48.88 88.4625 48.88C88.0838 48.88 87.7852 48.968 87.5665 49.144C87.3478 49.3147 87.2385 49.552 87.2385 49.856C87.2385 50.1653 87.3478 50.408 87.5665 50.584C87.7852 50.7547 88.0838 50.84 88.4625 50.84ZM93.2594 54.072C92.8274 54.072 92.462 53.9627 92.1634 53.744C91.8647 53.52 91.638 53.1947 91.4834 52.768C91.334 52.336 91.2594 51.8053 91.2594 51.176C91.2594 50.5467 91.334 50.0187 91.4834 49.592C91.638 49.1653 91.8647 48.8427 92.1634 48.624C92.462 48.4 92.8274 48.288 93.2594 48.288C93.702 48.288 94.07 48.3973 94.3634 48.616C94.6567 48.8347 94.878 49.1573 95.0274 49.584C95.182 50.0107 95.2594 50.5387 95.2594 51.168C95.2594 51.7973 95.182 52.328 95.0274 52.76C94.878 53.192 94.654 53.52 94.3554 53.744C94.0567 53.9627 93.6914 54.072 93.2594 54.072ZM93.2594 53.448C93.6967 53.448 94.022 53.264 94.2354 52.896C94.4487 52.528 94.5554 51.952 94.5554 51.168C94.5554 50.3893 94.4487 49.8187 94.2354 49.456C94.0274 49.0933 93.7047 48.912 93.2674 48.912C92.8247 48.912 92.4967 49.096 92.2834 49.464C92.07 49.8267 91.9634 50.3973 91.9634 51.176C91.9634 51.9493 92.07 52.5227 92.2834 52.896C92.4967 53.264 92.822 53.448 93.2594 53.448ZM98.0826 54L100.171 50.976V51.24L98.1946 48.36H99.0186L100.619 50.712H100.579L102.179 48.36H103.003L101.011 51.24V50.976L103.107 54H102.275L100.563 51.496H100.619L98.9066 54H98.0826ZM108.579 54V52.832H105.947V52.296L108.547 48.36H109.259V52.232H110.043V52.832H109.259V54H108.579ZM108.603 52.232V49.24H108.635L106.571 52.368L106.515 52.232H108.603ZM112.728 54.072C112.296 54.072 111.931 53.9627 111.632 53.744C111.333 53.52 111.107 53.1947 110.952 52.768C110.803 52.336 110.728 51.8053 110.728 51.176C110.728 50.5467 110.803 50.0187 110.952 49.592C111.107 49.1653 111.333 48.8427 111.632 48.624C111.931 48.4 112.296 48.288 112.728 48.288C113.171 48.288 113.539 48.3973 113.832 48.616C114.125 48.8347 114.347 49.1573 114.496 49.584C114.651 50.0107 114.728 50.5387 114.728 51.168C114.728 51.7973 114.651 52.328 114.496 52.76C114.347 53.192 114.123 53.52 113.824 53.744C113.525 53.9627 113.16 54.072 112.728 54.072ZM112.728 53.448C113.165 53.448 113.491 53.264 113.704 52.896C113.917 52.528 114.024 51.952 114.024 51.168C114.024 50.3893 113.917 49.8187 113.704 49.456C113.496 49.0933 113.173 48.912 112.736 48.912C112.293 48.912 111.965 49.096 111.752 49.464C111.539 49.8267 111.432 50.3973 111.432 51.176C111.432 51.9493 111.539 52.5227 111.752 52.896C111.965 53.264 112.291 53.448 112.728 53.448ZM117.525 54.072C117.093 54.072 116.728 53.9627 116.429 53.744C116.13 53.52 115.904 53.1947 115.749 52.768C115.6 52.336 115.525 51.8053 115.525 51.176C115.525 50.5467 115.6 50.0187 115.749 49.592C115.904 49.1653 116.13 48.8427 116.429 48.624C116.728 48.4 117.093 48.288 117.525 48.288C117.968 48.288 118.336 48.3973 118.629 48.616C118.922 48.8347 119.144 49.1573 119.293 49.584C119.448 50.0107 119.525 50.5387 119.525 51.168C119.525 51.7973 119.448 52.328 119.293 52.76C119.144 53.192 118.92 53.52 118.621 53.744C118.322 53.9627 117.957 54.072 117.525 54.072ZM117.525 53.448C117.962 53.448 118.288 53.264 118.501 52.896C118.714 52.528 118.821 51.952 118.821 51.168C118.821 50.3893 118.714 49.8187 118.501 49.456C118.293 49.0933 117.97 48.912 117.533 48.912C117.09 48.912 116.762 49.096 116.549 49.464C116.336 49.8267 116.229 50.3973 116.229 51.176C116.229 51.9493 116.336 52.5227 116.549 52.896C116.762 53.264 117.088 53.448 117.525 53.448Z" fill="black"/>
<path d="M19.168 67L17.36 61.36H18.112L19.584 66.144H19.512L21.152 61.36H21.736L23.36 66.144H23.304L24.792 61.36H25.512L23.696 67H23.016L21.424 62.344H21.456L19.832 67H19.168ZM28.0223 67.072C27.5796 67.072 27.1956 66.992 26.8703 66.832C26.5503 66.6667 26.3049 66.432 26.1343 66.128C25.9636 65.8187 25.8783 65.4507 25.8783 65.024C25.8783 64.624 25.9583 64.272 26.1183 63.968C26.2783 63.6587 26.5049 63.416 26.7983 63.24C27.0916 63.064 27.4409 62.976 27.8463 62.976C28.2303 62.976 28.5556 63.0587 28.8223 63.224C29.0943 63.3893 29.2996 63.6213 29.4383 63.92C29.5823 64.2187 29.6543 64.5733 29.6543 64.984V65.216H26.4143V64.72H29.1903L29.0383 64.88C29.0383 64.4427 28.9343 64.1067 28.7263 63.872C28.5236 63.6373 28.2303 63.52 27.8463 63.52C27.5956 63.52 27.3716 63.5787 27.1743 63.696C26.9823 63.808 26.8329 63.968 26.7263 64.176C26.6196 64.384 26.5663 64.6373 26.5663 64.936V65.016C26.5663 65.336 26.6249 65.6053 26.7423 65.824C26.8596 66.0427 27.0276 66.208 27.2463 66.32C27.4649 66.432 27.7263 66.488 28.0303 66.488C28.2489 66.488 28.4703 66.4587 28.6943 66.4C28.9236 66.336 29.1369 66.224 29.3343 66.064L29.5743 66.576C29.3716 66.7467 29.1289 66.872 28.8463 66.952C28.5689 67.032 28.2943 67.072 28.0223 67.072ZM30.7492 62.096V61.304H31.6132V62.096H30.7492ZM30.8292 67V63.048H31.5412V67H30.8292ZM34.674 68.512C34.3593 68.512 34.0473 68.464 33.738 68.368C33.4287 68.2773 33.1647 68.152 32.946 67.992L33.17 67.44C33.3193 67.536 33.4767 67.6187 33.642 67.688C33.8073 67.7627 33.9753 67.816 34.146 67.848C34.322 67.8853 34.4953 67.904 34.666 67.904C35.0767 67.904 35.3967 67.8 35.626 67.592C35.8607 67.384 35.978 67.088 35.978 66.704V65.976H35.962C35.866 66.248 35.6927 66.4693 35.442 66.64C35.1913 66.8053 34.9007 66.888 34.57 66.888C34.1967 66.888 33.8713 66.808 33.594 66.648C33.3167 66.4827 33.1007 66.2533 32.946 65.96C32.7967 65.6667 32.722 65.3227 32.722 64.928C32.722 64.5387 32.7967 64.1973 32.946 63.904C33.1007 63.6107 33.3167 63.384 33.594 63.224C33.8713 63.0587 34.1967 62.976 34.57 62.976C34.9007 62.976 35.1913 63.0613 35.442 63.232C35.698 63.4027 35.874 63.6293 35.97 63.912H35.978V63.048H36.642V66.64C36.642 67.024 36.562 67.3547 36.402 67.632C36.2473 67.9147 36.0233 68.1307 35.73 68.28C35.4367 68.4347 35.0847 68.512 34.674 68.512ZM34.69 66.304C35.0793 66.304 35.386 66.1787 35.61 65.928C35.8393 65.6773 35.954 65.344 35.954 64.928C35.954 64.512 35.8393 64.1813 35.61 63.936C35.386 63.6853 35.0793 63.56 34.69 63.56C34.306 63.56 33.9993 63.6853 33.77 63.936C33.546 64.1813 33.434 64.512 33.434 64.928C33.434 65.344 33.546 65.6773 33.77 65.928C33.9993 66.1787 34.306 66.304 34.69 66.304ZM38.0636 67V61.36H38.7516V63.888C38.8689 63.6053 39.0529 63.384 39.3036 63.224C39.5596 63.0587 39.8476 62.976 40.1676 62.976C40.4929 62.976 40.7649 63.0347 40.9836 63.152C41.2022 63.264 41.3649 63.44 41.4716 63.68C41.5836 63.9147 41.6396 64.208 41.6396 64.56V67H40.9276V64.6C40.9276 64.3867 40.8956 64.2053 40.8316 64.056C40.7729 63.9067 40.6769 63.792 40.5436 63.712C40.4102 63.6267 40.2316 63.584 40.0076 63.584C39.7729 63.584 39.5622 63.6373 39.3756 63.744C39.1889 63.8507 39.0422 63.9947 38.9356 64.176C38.8289 64.3573 38.7756 64.56 38.7756 64.784V67H38.0636ZM44.7119 67.072C44.2373 67.072 43.8773 66.9467 43.6319 66.696C43.3919 66.4453 43.2719 66.088 43.2719 65.624V63.632H42.4719V63.048H43.2959V61.872H43.9839V63.048H45.3999V63.632H43.9839V65.56C43.9839 65.864 44.0506 66.0907 44.1839 66.24C44.3226 66.384 44.5333 66.456 44.8159 66.456C44.9279 66.456 45.0346 66.4453 45.1359 66.424C45.2426 66.4027 45.3439 66.3707 45.4399 66.328L45.5519 66.888C45.4453 66.9467 45.3146 66.992 45.1599 67.024C45.0106 67.056 44.8613 67.072 44.7119 67.072Z" fill="#CE3439"/>
<path d="M59.9157 67V66.392H61.4597V61.928L61.8357 61.984L60.1957 63.04L59.8757 62.488L61.6437 61.36H62.1637V66.392H63.5877V67H59.9157ZM64.8726 67L67.6326 61.648L67.6646 61.992H64.4886V61.36H68.2566V61.896L65.6486 67H64.8726ZM70.6614 68.536C70.2828 67.96 70.0028 67.3733 69.8214 66.776C69.6454 66.1733 69.5574 65.5467 69.5574 64.896C69.5574 64.2453 69.6454 63.6213 69.8214 63.024C70.0028 62.4267 70.2828 61.8373 70.6614 61.256L71.1734 61.44C70.9708 61.8187 70.8028 62.2 70.6694 62.584C70.5361 62.968 70.4348 63.352 70.3654 63.736C70.3014 64.1147 70.2694 64.5013 70.2694 64.896C70.2694 65.2853 70.3014 65.672 70.3654 66.056C70.4348 66.44 70.5361 66.8213 70.6694 67.2C70.8028 67.584 70.9708 67.968 71.1734 68.352L70.6614 68.536ZM72.2929 67V61.36H73.0049V63.904H73.0369L75.7169 61.36H76.6209L73.5089 64.312L73.5569 63.92L76.8129 67H75.8609L73.0369 64.352H73.0049V67H72.2929ZM79.1428 68.512C78.8281 68.512 78.5161 68.464 78.2068 68.368C77.8974 68.2773 77.6334 68.152 77.4148 67.992L77.6388 67.44C77.7881 67.536 77.9454 67.6187 78.1108 67.688C78.2761 67.7627 78.4441 67.816 78.6148 67.848C78.7908 67.8853 78.9641 67.904 79.1348 67.904C79.5454 67.904 79.8654 67.8 80.0948 67.592C80.3294 67.384 80.4468 67.088 80.4468 66.704V65.976H80.4308C80.3348 66.248 80.1614 66.4693 79.9108 66.64C79.6601 66.8053 79.3694 66.888 79.0388 66.888C78.6654 66.888 78.3401 66.808 78.0628 66.648C77.7854 66.4827 77.5694 66.2533 77.4148 65.96C77.2654 65.6667 77.1908 65.3227 77.1908 64.928C77.1908 64.5387 77.2654 64.1973 77.4148 63.904C77.5694 63.6107 77.7854 63.384 78.0628 63.224C78.3401 63.0587 78.6654 62.976 79.0388 62.976C79.3694 62.976 79.6601 63.0613 79.9108 63.232C80.1668 63.4027 80.3428 63.6293 80.4388 63.912H80.4468V63.048H81.1108V66.64C81.1108 67.024 81.0308 67.3547 80.8708 67.632C80.7161 67.9147 80.4921 68.1307 80.1988 68.28C79.9054 68.4347 79.5534 68.512 79.1428 68.512ZM79.1588 66.304C79.5481 66.304 79.8548 66.1787 80.0788 65.928C80.3081 65.6773 80.4228 65.344 80.4228 64.928C80.4228 64.512 80.3081 64.1813 80.0788 63.936C79.8548 63.6853 79.5481 63.56 79.1588 63.56C78.7748 63.56 78.4681 63.6853 78.2388 63.936C78.0148 64.1813 77.9028 64.512 77.9028 64.928C77.9028 65.344 78.0148 65.6773 78.2388 65.928C78.4681 66.1787 78.7748 66.304 79.1588 66.304ZM83.9883 67.072C83.7696 67.072 83.5536 67.0507 83.3403 67.008C83.1323 66.9707 82.9376 66.9173 82.7563 66.848C82.5803 66.7733 82.4283 66.6827 82.3003 66.576L82.5323 66.072C82.6656 66.1733 82.8123 66.256 82.9723 66.32C83.1376 66.384 83.3056 66.432 83.4763 66.464C83.6523 66.4907 83.8203 66.504 83.9803 66.504C84.311 66.504 84.5643 66.4533 84.7403 66.352C84.9216 66.2507 85.0123 66.1093 85.0123 65.928C85.0123 65.7733 84.959 65.656 84.8523 65.576C84.751 65.4907 84.5803 65.4267 84.3403 65.384L83.5163 65.24C83.1483 65.1707 82.871 65.0453 82.6843 64.864C82.503 64.6827 82.4123 64.4453 82.4123 64.152C82.4123 63.9173 82.4763 63.712 82.6043 63.536C82.7376 63.36 82.927 63.224 83.1723 63.128C83.4176 63.0267 83.711 62.976 84.0523 62.976C84.239 62.976 84.4283 62.9947 84.6203 63.032C84.8176 63.0693 84.999 63.1253 85.1643 63.2C85.335 63.2693 85.4736 63.3573 85.5803 63.464L85.3403 63.968C85.2336 63.8667 85.1056 63.7867 84.9563 63.728C84.8123 63.664 84.6603 63.6187 84.5003 63.592C84.3456 63.56 84.1936 63.544 84.0443 63.544C83.735 63.544 83.495 63.5973 83.3243 63.704C83.1536 63.8053 83.0683 63.9493 83.0683 64.136C83.0683 64.2853 83.1163 64.4027 83.2123 64.488C83.3136 64.5733 83.4763 64.6373 83.7003 64.68L84.5003 64.824C84.895 64.8987 85.1883 65.024 85.3803 65.2C85.5723 65.3707 85.6683 65.608 85.6683 65.912C85.6683 66.1467 85.599 66.352 85.4603 66.528C85.3216 66.6987 85.127 66.832 84.8763 66.928C84.6256 67.024 84.3296 67.072 83.9883 67.072ZM86.9408 68.536L86.4208 68.352C86.6288 67.9627 86.7995 67.576 86.9328 67.192C87.0661 66.8133 87.1648 66.4347 87.2288 66.056C87.2928 65.672 87.3248 65.2853 87.3248 64.896C87.3248 64.5067 87.2928 64.1227 87.2288 63.744C87.1648 63.36 87.0661 62.976 86.9328 62.592C86.7995 62.208 86.6288 61.824 86.4208 61.44L86.9408 61.256C87.3141 61.832 87.5888 62.4213 87.7648 63.024C87.9461 63.6213 88.0368 64.2453 88.0368 64.896C88.0368 65.5413 87.9461 66.1653 87.7648 66.768C87.5888 67.3653 87.3141 67.9547 86.9408 68.536Z" fill="black"/>
<defs>
<filter id="filter0_d_271_515" x="0.0999999" y="24" width="134.8" height="57.9" filterUnits="userSpaceOnUse" color-interpolation-filters="sRGB">
<feFlood flood-opacity="0" result="BackgroundImageFix"/>
<feColorMatrix in="SourceAlpha" type="matrix" values="0 0 0 0 0 0 0 0 0 0 0 0 0 0 0 0 0 0 127 0" result="hardAlpha"/>
<feOffset dy="4"/>
<feGaussianBlur stdDeviation="1.95"/>
<feComposite in2="hardAlpha" operator="out"/>
<feColorMatrix type="matrix" values="0 0 0 0 0 0 0 0 0 0 0 0 0 0 0 0 0 0 0.2 0"/>
<feBlend mode="normal" in2="BackgroundImageFix" result="effect1_dropShadow_271_515"/>
<feBlend mode="normal" in="SourceGraphic" in2="effect1_dropShadow_271_515" result="shape"/>
</filter>
<clipPath id="clip0_271_515">
<rect width="21.6136" height="21.7108" fill="white" transform="translate(55.3516 2.49023)"/>
</clipPath>
</defs>
</svg>
