<svg width="90" height="83" viewBox="0 0 90 83" fill="none" xmlns="http://www.w3.org/2000/svg">
<g filter="url(#filter0_d_271_497)">
<rect x="4" y="25" width="82" height="50" rx="2" fill="white"/>
<rect x="4.25" y="25.25" width="81.5" height="49.5" rx="1.75" stroke="white" stroke-width="0.5"/>
</g>
<rect x="29.4551" y="0.96582" width="30.1136" height="30.2233" rx="3" fill="#CB3335"/>
<g clip-path="url(#clip0_271_497)">
<path d="M52.1566 18.7931L49.5169 13.5136H50.2454C50.3854 13.5136 50.5197 13.458 50.6187 13.359C50.7177 13.26 50.7734 13.1257 50.7734 12.9857C50.7734 12.8457 50.7177 12.7114 50.6187 12.6124C50.5197 12.5133 50.3854 12.4577 50.2454 12.4577H49.4113C48.8441 11.8399 48.1606 11.3401 47.4 10.9868C46.6394 10.6334 45.8166 10.4336 44.9786 10.3987L44.9659 10.3459C44.9659 10.0659 44.8547 9.79732 44.6567 9.5993C44.4587 9.40128 44.1901 9.29004 43.9101 9.29004C43.63 9.29004 43.3614 9.40128 43.1634 9.5993C42.9654 9.79732 42.8542 10.0659 42.8542 10.3459V10.3987C41.1477 10.4697 39.5373 11.208 38.3698 12.4546L37.5747 12.4577C37.4347 12.4577 37.3004 12.5133 37.2014 12.6124C37.1024 12.7114 37.0467 12.8457 37.0467 12.9857C37.0467 13.1257 37.1024 13.26 37.2014 13.359C37.3004 13.458 37.4347 13.5136 37.5747 13.5136H38.3032L35.6635 18.7931H35.4629C35.4629 19.9546 36.8778 20.9049 38.6306 20.9049C40.3834 20.9049 41.7983 19.9546 41.7983 18.7931H41.5976L38.9051 13.4186C38.9718 13.3794 39.0292 13.3261 39.073 13.2623C39.54 12.7136 40.1177 12.2698 40.7682 11.9601C41.4188 11.6504 42.1275 11.4817 42.8478 11.4652L42.8542 23.0167H41.7983V24.0726H39.6865V25.1285H48.1336V24.0726H46.0218V23.0167H44.9659V11.4652C45.6781 11.4787 46.3791 11.6453 47.0211 11.9537C47.6632 12.2622 48.2313 12.7053 48.6869 13.2528C48.7357 13.3356 48.8062 13.4035 48.8907 13.4492L46.2225 18.7931H46.0218C46.0218 19.9546 47.4367 20.9049 49.1895 20.9049C50.9423 20.9049 52.3572 19.9546 52.3572 18.7931H52.1566ZM40.7424 18.7931H36.5188L38.6306 14.6329L40.7424 18.7931ZM47.0777 18.7931L49.1895 14.6329L51.3013 18.7931H47.0777Z" fill="white"/>
</g>
<rect width="43" height="24.0874" transform="translate(24 38)" fill="white"/>
<path d="M33.168 46L31.36 40.36H32.112L33.584 45.144H33.512L35.152 40.36H35.736L37.36 45.144H37.304L38.792 40.36H39.512L37.696 46H37.016L35.424 41.344H35.456L33.832 46H33.168ZM42.0223 46.072C41.5796 46.072 41.1956 45.992 40.8703 45.832C40.5503 45.6667 40.3049 45.432 40.1343 45.128C39.9636 44.8187 39.8783 44.4507 39.8783 44.024C39.8783 43.624 39.9583 43.272 40.1183 42.968C40.2783 42.6587 40.5049 42.416 40.7983 42.24C41.0916 42.064 41.4409 41.976 41.8463 41.976C42.2303 41.976 42.5556 42.0587 42.8223 42.224C43.0943 42.3893 43.2996 42.6213 43.4383 42.92C43.5823 43.2187 43.6543 43.5733 43.6543 43.984V44.216H40.4143V43.72H43.1903L43.0383 43.88C43.0383 43.4427 42.9343 43.1067 42.7263 42.872C42.5236 42.6373 42.2303 42.52 41.8463 42.52C41.5956 42.52 41.3716 42.5787 41.1743 42.696C40.9823 42.808 40.8329 42.968 40.7263 43.176C40.6196 43.384 40.5663 43.6373 40.5663 43.936V44.016C40.5663 44.336 40.6249 44.6053 40.7423 44.824C40.8596 45.0427 41.0276 45.208 41.2463 45.32C41.4649 45.432 41.7263 45.488 42.0303 45.488C42.2489 45.488 42.4703 45.4587 42.6943 45.4C42.9236 45.336 43.1369 45.224 43.3343 45.064L43.5743 45.576C43.3716 45.7467 43.1289 45.872 42.8463 45.952C42.5689 46.032 42.2943 46.072 42.0223 46.072ZM44.7492 41.096V40.304H45.6132V41.096H44.7492ZM44.8292 46V42.048H45.5412V46H44.8292ZM48.674 47.512C48.3593 47.512 48.0473 47.464 47.738 47.368C47.4287 47.2773 47.1647 47.152 46.946 46.992L47.17 46.44C47.3193 46.536 47.4767 46.6187 47.642 46.688C47.8073 46.7627 47.9753 46.816 48.146 46.848C48.322 46.8853 48.4953 46.904 48.666 46.904C49.0767 46.904 49.3967 46.8 49.626 46.592C49.8607 46.384 49.978 46.088 49.978 45.704V44.976H49.962C49.866 45.248 49.6927 45.4693 49.442 45.64C49.1913 45.8053 48.9007 45.888 48.57 45.888C48.1967 45.888 47.8713 45.808 47.594 45.648C47.3167 45.4827 47.1007 45.2533 46.946 44.96C46.7967 44.6667 46.722 44.3227 46.722 43.928C46.722 43.5387 46.7967 43.1973 46.946 42.904C47.1007 42.6107 47.3167 42.384 47.594 42.224C47.8713 42.0587 48.1967 41.976 48.57 41.976C48.9007 41.976 49.1913 42.0613 49.442 42.232C49.698 42.4027 49.874 42.6293 49.97 42.912H49.978V42.048H50.642V45.64C50.642 46.024 50.562 46.3547 50.402 46.632C50.2473 46.9147 50.0233 47.1307 49.73 47.28C49.4367 47.4347 49.0847 47.512 48.674 47.512ZM48.69 45.304C49.0793 45.304 49.386 45.1787 49.61 44.928C49.8393 44.6773 49.954 44.344 49.954 43.928C49.954 43.512 49.8393 43.1813 49.61 42.936C49.386 42.6853 49.0793 42.56 48.69 42.56C48.306 42.56 47.9993 42.6853 47.77 42.936C47.546 43.1813 47.434 43.512 47.434 43.928C47.434 44.344 47.546 44.6773 47.77 44.928C47.9993 45.1787 48.306 45.304 48.69 45.304ZM52.0636 46V40.36H52.7516V42.888C52.8689 42.6053 53.0529 42.384 53.3036 42.224C53.5596 42.0587 53.8476 41.976 54.1676 41.976C54.4929 41.976 54.7649 42.0347 54.9836 42.152C55.2022 42.264 55.3649 42.44 55.4716 42.68C55.5836 42.9147 55.6396 43.208 55.6396 43.56V46H54.9276V43.6C54.9276 43.3867 54.8956 43.2053 54.8316 43.056C54.7729 42.9067 54.6769 42.792 54.5436 42.712C54.4102 42.6267 54.2316 42.584 54.0076 42.584C53.7729 42.584 53.5622 42.6373 53.3756 42.744C53.1889 42.8507 53.0422 42.9947 52.9356 43.176C52.8289 43.3573 52.7756 43.56 52.7756 43.784V46H52.0636ZM58.7119 46.072C58.2373 46.072 57.8773 45.9467 57.6319 45.696C57.3919 45.4453 57.2719 45.088 57.2719 44.624V42.632H56.4719V42.048H57.2959V40.872H57.9839V42.048H59.3999V42.632H57.9839V44.56C57.9839 44.864 58.0506 45.0907 58.1839 45.24C58.3226 45.384 58.5333 45.456 58.8159 45.456C58.9279 45.456 59.0346 45.4453 59.1359 45.424C59.2426 45.4027 59.3439 45.3707 59.4399 45.328L59.5519 45.888C59.4453 45.9467 59.3146 45.992 59.1599 46.024C59.0106 46.056 58.8613 46.072 58.7119 46.072Z" fill="#CE3439"/>
<path d="M23.236 59V58.392H24.78V53.928L25.156 53.984L23.516 55.04L23.196 54.488L24.964 53.36H25.484V58.392H26.908V59H23.236ZM28.1929 59L30.9529 53.648L30.9849 53.992H27.8089V53.36H31.5769V53.896L28.9689 59H28.1929ZM32.6698 59V58.12H33.5818V59H32.6698ZM36.7483 59.072C36.2949 59.072 35.9109 58.9627 35.5963 58.744C35.2816 58.5253 35.0416 58.2107 34.8763 57.8C34.7109 57.384 34.6283 56.8853 34.6283 56.304C34.6283 55.6533 34.7189 55.1067 34.9003 54.664C35.0816 54.216 35.3429 53.8747 35.6843 53.64C36.0256 53.4053 36.4363 53.288 36.9163 53.288C37.1296 53.288 37.3323 53.3147 37.5243 53.368C37.7163 53.416 37.8976 53.4907 38.0683 53.592C38.2389 53.6933 38.3989 53.8187 38.5483 53.968L38.2843 54.52C38.0763 54.3013 37.8576 54.1467 37.6283 54.056C37.3989 53.96 37.1616 53.912 36.9163 53.912C36.6549 53.912 36.4229 53.9627 36.2203 54.064C36.0176 54.16 35.8469 54.3067 35.7083 54.504C35.5696 54.696 35.4629 54.936 35.3883 55.224C35.3189 55.5067 35.2843 55.8373 35.2843 56.216V56.68H35.2923C35.3403 56.424 35.4363 56.2053 35.5803 56.024C35.7243 55.8373 35.9029 55.696 36.1163 55.6C36.3296 55.4987 36.5643 55.448 36.8203 55.448C37.1616 55.448 37.4603 55.5253 37.7163 55.68C37.9776 55.8293 38.1803 56.04 38.3243 56.312C38.4736 56.5787 38.5483 56.888 38.5483 57.24C38.5483 57.592 38.4709 57.9067 38.3163 58.184C38.1669 58.4613 37.9563 58.68 37.6843 58.84C37.4123 58.9947 37.1003 59.072 36.7483 59.072ZM36.7083 58.464C36.9429 58.464 37.1483 58.4133 37.3243 58.312C37.5003 58.2107 37.6363 58.0693 37.7323 57.888C37.8336 57.7067 37.8843 57.496 37.8843 57.256C37.8843 57.016 37.8336 56.808 37.7323 56.632C37.6363 56.4507 37.5003 56.3093 37.3243 56.208C37.1483 56.1067 36.9403 56.056 36.7003 56.056C36.4656 56.056 36.2576 56.1067 36.0763 56.208C35.9003 56.3093 35.7589 56.4507 35.6523 56.632C35.5509 56.808 35.5003 57.016 35.5003 57.256C35.5003 57.496 35.5509 57.7067 35.6523 57.888C35.7536 58.0693 35.8949 58.2107 36.0763 58.312C36.2576 58.4133 36.4683 58.464 36.7083 58.464ZM41.3531 59.072C40.9211 59.072 40.5558 58.9627 40.2571 58.744C39.9585 58.52 39.7318 58.1947 39.5771 57.768C39.4278 57.336 39.3531 56.8053 39.3531 56.176C39.3531 55.5467 39.4278 55.0187 39.5771 54.592C39.7318 54.1653 39.9585 53.8427 40.2571 53.624C40.5558 53.4 40.9211 53.288 41.3531 53.288C41.7958 53.288 42.1638 53.3973 42.4571 53.616C42.7505 53.8347 42.9718 54.1573 43.1211 54.584C43.2758 55.0107 43.3531 55.5387 43.3531 56.168C43.3531 56.7973 43.2758 57.328 43.1211 57.76C42.9718 58.192 42.7478 58.52 42.4491 58.744C42.1505 58.9627 41.7851 59.072 41.3531 59.072ZM41.3531 58.448C41.7905 58.448 42.1158 58.264 42.3291 57.896C42.5425 57.528 42.6491 56.952 42.6491 56.168C42.6491 55.3893 42.5425 54.8187 42.3291 54.456C42.1211 54.0933 41.7985 53.912 41.3611 53.912C40.9185 53.912 40.5905 54.096 40.3771 54.464C40.1638 54.8267 40.0571 55.3973 40.0571 56.176C40.0571 56.9493 40.1638 57.5227 40.3771 57.896C40.5905 58.264 40.9158 58.448 41.3531 58.448ZM47.8724 60.536C47.4937 59.96 47.2137 59.3733 47.0324 58.776C46.8564 58.1733 46.7684 57.5467 46.7684 56.896C46.7684 56.2453 46.8564 55.6213 47.0324 55.024C47.2137 54.4267 47.4937 53.8373 47.8724 53.256L48.3844 53.44C48.1817 53.8187 48.0137 54.2 47.8804 54.584C47.747 54.968 47.6457 55.352 47.5764 55.736C47.5124 56.1147 47.4804 56.5013 47.4804 56.896C47.4804 57.2853 47.5124 57.672 47.5764 58.056C47.6457 58.44 47.747 58.8213 47.8804 59.2C48.0137 59.584 48.1817 59.968 48.3844 60.352L47.8724 60.536ZM51.9936 59.072C51.4069 59.072 50.9056 58.9573 50.4896 58.728C50.0736 58.4987 49.7536 58.1707 49.5296 57.744C49.3109 57.312 49.2016 56.7893 49.2016 56.176C49.2016 55.5733 49.3082 55.0587 49.5216 54.632C49.7402 54.2 50.0522 53.8693 50.4576 53.64C50.8629 53.4053 51.3482 53.288 51.9136 53.288C52.1909 53.288 52.4549 53.3147 52.7056 53.368C52.9562 53.4213 53.1882 53.5013 53.4016 53.608C53.6149 53.7093 53.7962 53.8373 53.9456 53.992L53.6736 54.544C53.4229 54.3253 53.1536 54.1707 52.8656 54.08C52.5776 53.984 52.2576 53.936 51.9056 53.936C51.2869 53.936 50.8042 54.128 50.4576 54.512C50.1162 54.8907 49.9456 55.4453 49.9456 56.176C49.9456 56.9333 50.1216 57.5013 50.4736 57.88C50.8309 58.2533 51.3482 58.44 52.0256 58.44C52.3242 58.44 52.6016 58.416 52.8576 58.368C53.1189 58.32 53.3562 58.2507 53.5696 58.16L53.3616 58.576V56.616H51.9536V56.008H54.0096V58.672C53.8602 58.7467 53.6736 58.816 53.4496 58.88C53.2256 58.9387 52.9882 58.984 52.7376 59.016C52.4869 59.0533 52.2389 59.072 51.9936 59.072ZM55.4854 59V55.048H56.1334V55.96H56.1414C56.2374 55.6667 56.4054 55.4373 56.6454 55.272C56.8854 55.1013 57.1788 55.0053 57.5254 54.984L57.8854 54.968L57.9494 55.616L57.3734 55.664C57.0054 55.696 56.7174 55.8187 56.5094 56.032C56.3014 56.24 56.1974 56.5013 56.1974 56.816V59H55.4854ZM58.8452 59V55.048H59.5012V55.912C59.5705 55.736 59.6665 55.5787 59.7892 55.44C59.9172 55.296 60.0692 55.184 60.2452 55.104C60.4265 55.0187 60.6239 54.976 60.8372 54.976C61.1839 54.976 61.4692 55.0613 61.6932 55.232C61.9172 55.4027 62.0559 55.6267 62.1092 55.904H62.1012C62.2079 55.6427 62.3759 55.424 62.6052 55.248C62.8399 55.0667 63.1332 54.976 63.4852 54.976C63.7839 54.976 64.0372 55.0347 64.2452 55.152C64.4532 55.264 64.6105 55.4373 64.7172 55.672C64.8239 55.9067 64.8772 56.2027 64.8772 56.56V59H64.1732V56.608C64.1732 56.2667 64.1119 56.0107 63.9892 55.84C63.8665 55.6693 63.6479 55.584 63.3332 55.584C63.0985 55.584 62.8959 55.6373 62.7252 55.744C62.5599 55.8453 62.4319 55.9893 62.3412 56.176C62.2559 56.3573 62.2132 56.5627 62.2132 56.792V59H61.5092V56.608C61.5092 56.272 61.4399 56.0187 61.3012 55.848C61.1625 55.672 60.9519 55.584 60.6692 55.584C60.4399 55.584 60.2399 55.6427 60.0692 55.76C59.9039 55.872 59.7759 56.0187 59.6852 56.2C59.5945 56.3813 59.5492 56.5733 59.5492 56.776V59H58.8452ZM66.4018 60.536L65.8818 60.352C66.0898 59.9627 66.2604 59.576 66.3938 59.192C66.5271 58.8133 66.6258 58.4347 66.6898 58.056C66.7538 57.672 66.7858 57.2853 66.7858 56.896C66.7858 56.5067 66.7538 56.1227 66.6898 55.744C66.6258 55.36 66.5271 54.976 66.3938 54.592C66.2604 54.208 66.0898 53.824 65.8818 53.44L66.4018 53.256C66.7751 53.832 67.0498 54.4213 67.2258 55.024C67.4071 55.6213 67.4978 56.2453 67.4978 56.896C67.4978 57.5413 67.4071 58.1653 67.2258 58.768C67.0498 59.3653 66.7751 59.9547 66.4018 60.536Z" fill="black"/>
<defs>
<filter id="filter0_d_271_497" x="0.0999999" y="25" width="89.8" height="57.9" filterUnits="userSpaceOnUse" color-interpolation-filters="sRGB">
<feFlood flood-opacity="0" result="BackgroundImageFix"/>
<feColorMatrix in="SourceAlpha" type="matrix" values="0 0 0 0 0 0 0 0 0 0 0 0 0 0 0 0 0 0 127 0" result="hardAlpha"/>
<feOffset dy="4"/>
<feGaussianBlur stdDeviation="1.95"/>
<feComposite in2="hardAlpha" operator="out"/>
<feColorMatrix type="matrix" values="0 0 0 0 0 0 0 0 0 0 0 0 0 0 0 0 0 0 0.2 0"/>
<feBlend mode="normal" in2="BackgroundImageFix" result="effect1_dropShadow_271_497"/>
<feBlend mode="normal" in="SourceGraphic" in2="effect1_dropShadow_271_497" result="shape"/>
</filter>
<clipPath id="clip0_271_497">
<rect width="16.8943" height="16.8943" fill="white" transform="translate(35.4629 8.23438)"/>
</clipPath>
</defs>
</svg>
