<svg width="228" height="86" viewBox="0 0 228 86" fill="none" xmlns="http://www.w3.org/2000/svg">
<path d="M108.854 14.8898V11.8956L116.142 1.75267H120.901L113.821 11.8956L111.64 11.2458H124.336V14.8898H108.854ZM117.442 18V14.8898L117.582 11.2458V8.48371H121.922V18H117.442ZM126.104 18V1.75267H129.888L136.619 12.8009H134.623L141.168 1.75267H144.951L144.998 18H140.773L140.727 8.18197H141.446L136.549 16.3985H134.506L129.47 8.18197H130.352V18H126.104ZM155.004 18V1.75267H162.431C163.917 1.75267 165.193 1.99251 166.261 2.4722C167.344 2.95188 168.18 3.64819 168.768 4.56114C169.356 5.45861 169.65 6.52629 169.65 7.76418C169.65 8.9866 169.356 10.0465 168.768 10.944C168.18 11.8415 167.344 12.5378 166.261 13.033C165.193 13.5126 163.917 13.7525 162.431 13.7525H157.557L159.6 11.7564V18H155.004ZM159.6 12.2438L157.557 10.1317H162.153C163.112 10.1317 163.824 9.92276 164.288 9.50497C164.768 9.08718 165.008 8.50692 165.008 7.76418C165.008 7.00597 164.768 6.41798 164.288 6.00019C163.824 5.5824 163.112 5.3735 162.153 5.3735H157.557L159.6 3.26135V12.2438ZM179.251 18V15.6557L178.949 15.0755V10.7583C178.949 10.062 178.733 9.52818 178.299 9.15681C177.882 8.76997 177.208 8.57655 176.28 8.57655C175.677 8.57655 175.065 8.67713 174.446 8.87829C173.827 9.06397 173.301 9.32702 172.868 9.66744L171.383 6.67329C172.094 6.20908 172.945 5.85319 173.936 5.60561C174.942 5.34256 175.94 5.21103 176.93 5.21103C178.972 5.21103 180.551 5.68298 181.665 6.62687C182.794 7.55529 183.359 9.01755 183.359 11.0136V18H179.251ZM175.537 18.2089C174.532 18.2089 173.68 18.0387 172.984 17.6983C172.288 17.3578 171.754 16.8936 171.383 16.3056C171.027 15.7176 170.849 15.06 170.849 14.3327C170.849 13.5591 171.042 12.8937 171.429 12.3366C171.831 11.7641 172.443 11.3309 173.263 11.0369C174.083 10.7274 175.143 10.5726 176.443 10.5726H179.413V12.8705H177.046C176.334 12.8705 175.831 12.9865 175.537 13.2186C175.259 13.4507 175.12 13.7602 175.12 14.1471C175.12 14.5339 175.267 14.8434 175.561 15.0755C175.855 15.3076 176.257 15.4236 176.767 15.4236C177.247 15.4236 177.68 15.3076 178.067 15.0755C178.47 14.8279 178.764 14.4565 178.949 13.9614L179.553 15.5861C179.321 16.4526 178.864 17.1103 178.183 17.559C177.518 17.9923 176.636 18.2089 175.537 18.2089ZM192.731 18.2089C191.338 18.2089 190.093 17.9304 188.994 17.3733C187.911 16.8163 187.06 16.0503 186.441 15.0755C185.822 14.0852 185.512 12.9556 185.512 11.6868C185.512 10.4179 185.822 9.29607 186.441 8.32123C187.06 7.34639 187.911 6.58819 188.994 6.04661C190.093 5.48956 191.338 5.21103 192.731 5.21103C194.154 5.21103 195.385 5.51277 196.421 6.11624C197.458 6.71971 198.193 7.57076 198.626 8.66939L195.214 10.4102C194.92 9.82218 194.557 9.39665 194.123 9.1336C193.69 8.85508 193.218 8.71581 192.708 8.71581C192.197 8.71581 191.733 8.83186 191.315 9.06397C190.897 9.29607 190.565 9.63649 190.317 10.0852C190.085 10.5185 189.969 11.0523 189.969 11.6868C189.969 12.3366 190.085 12.886 190.317 13.3347C190.565 13.7834 190.897 14.1239 191.315 14.356C191.733 14.5881 192.197 14.7041 192.708 14.7041C193.218 14.7041 193.69 14.5726 194.123 14.3095C194.557 14.031 194.92 13.5977 195.214 13.0097L198.626 14.7505C198.193 15.8492 197.458 16.7002 196.421 17.3037C195.385 17.9072 194.154 18.2089 192.731 18.2089ZM203.909 15.679L204.025 10.4102L209.154 5.41992H214.377L208.69 11.2922L206.439 13.1026L203.909 15.679ZM200.241 18V0.777832H204.651V18H200.241ZM209.479 18L205.626 13.1722L208.365 9.78349L214.818 18H209.479ZM220.295 18.2089C219.227 18.2089 218.183 18.0851 217.162 17.8375C216.156 17.5899 215.344 17.2805 214.725 16.9091L216.048 13.8917C216.636 14.2476 217.324 14.5339 218.113 14.7505C218.902 14.9517 219.676 15.0523 220.434 15.0523C221.177 15.0523 221.688 14.9749 221.966 14.8202C222.26 14.6654 222.407 14.4565 222.407 14.1935C222.407 13.9459 222.268 13.768 221.989 13.6596C221.726 13.5359 221.371 13.443 220.922 13.3811C220.489 13.3192 220.009 13.2496 219.483 13.1722C218.957 13.0949 218.423 12.9943 217.881 12.8705C217.355 12.7312 216.868 12.5301 216.419 12.267C215.986 11.9885 215.638 11.6171 215.374 11.1529C215.111 10.6887 214.98 10.1007 214.98 9.38892C214.98 8.58429 215.212 7.8725 215.676 7.25355C216.156 6.61913 216.852 6.12398 217.765 5.76808C218.678 5.39672 219.792 5.21103 221.107 5.21103C221.989 5.21103 222.879 5.30387 223.777 5.48956C224.69 5.65977 225.456 5.92282 226.075 6.27871L224.752 9.27286C224.133 8.91697 223.514 8.67713 222.895 8.55334C222.276 8.41408 221.688 8.34444 221.131 8.34444C220.388 8.34444 219.862 8.42955 219.552 8.59976C219.258 8.76997 219.111 8.97886 219.111 9.22644C219.111 9.47402 219.243 9.66744 219.506 9.8067C219.769 9.93049 220.117 10.0311 220.55 10.1084C220.999 10.1703 221.487 10.24 222.013 10.3173C222.539 10.3792 223.065 10.4798 223.591 10.6191C224.133 10.7583 224.62 10.9672 225.053 11.2458C225.502 11.5088 225.858 11.8724 226.121 12.3366C226.384 12.7854 226.516 13.3656 226.516 14.0774C226.516 14.8511 226.276 15.5474 225.796 16.1664C225.332 16.7853 224.635 17.2805 223.707 17.6518C222.794 18.0232 221.657 18.2089 220.295 18.2089ZM0.305351 52V35.7527H7.7327C9.21817 35.7527 10.4947 35.9925 11.5624 36.4722C12.6456 36.9519 13.4812 37.6482 14.0692 38.5611C14.6572 39.4586 14.9512 40.5263 14.9512 41.7642C14.9512 42.9866 14.6572 44.0465 14.0692 44.944C13.4812 45.8415 12.6456 46.5378 11.5624 47.033C10.4947 47.5126 9.21817 47.7525 7.7327 47.7525H2.8585L4.90102 45.7564V52H0.305351ZM4.90102 46.2438L2.8585 44.1317H7.45418C8.41354 44.1317 9.12533 43.9228 9.58954 43.505C10.0692 43.0872 10.3091 42.5069 10.3091 41.7642C10.3091 41.006 10.0692 40.418 9.58954 40.0002C9.12533 39.5824 8.41354 39.3735 7.45418 39.3735H2.8585L4.90102 37.2614V46.2438ZM24.5523 52V49.6557L24.2506 49.0755V44.7583C24.2506 44.062 24.0339 43.5282 23.6007 43.1568C23.1829 42.77 22.5098 42.5765 21.5814 42.5765C20.9779 42.5765 20.3667 42.6771 19.7477 42.8783C19.1288 43.064 18.6027 43.327 18.1694 43.6674L16.684 40.6733C17.3958 40.2091 18.2468 39.8532 19.2371 39.6056C20.2429 39.3426 21.241 39.211 22.2313 39.211C24.2738 39.211 25.8521 39.683 26.9662 40.6269C28.0958 41.5553 28.6606 43.0175 28.6606 45.0136V52H24.5523ZM20.8386 52.2089C19.8328 52.2089 18.9818 52.0387 18.2855 51.6983C17.5892 51.3578 17.0553 50.8936 16.684 50.3056C16.3281 49.7176 16.1501 49.06 16.1501 48.3327C16.1501 47.5591 16.3435 46.8937 16.7304 46.3366C17.1327 45.7641 17.7439 45.3309 18.564 45.0369C19.3841 44.7274 20.4441 44.5726 21.7438 44.5726H24.7148V46.8705H22.3473C21.6355 46.8705 21.1326 46.9865 20.8386 47.2186C20.5601 47.4507 20.4208 47.7602 20.4208 48.1471C20.4208 48.5339 20.5678 48.8434 20.8618 49.0755C21.1558 49.3076 21.5582 49.4236 22.0688 49.4236C22.5485 49.4236 22.9817 49.3076 23.3686 49.0755C23.7709 48.8279 24.0649 48.4565 24.2506 47.9614L24.854 49.5861C24.6219 50.4526 24.1655 51.1103 23.4846 51.559C22.8193 51.9923 21.9373 52.2089 20.8386 52.2089ZM38.0322 52.2089C36.6395 52.2089 35.3939 51.9304 34.2953 51.3733C33.2121 50.8163 32.3611 50.0503 31.7421 49.0755C31.1232 48.0852 30.8137 46.9556 30.8137 45.6868C30.8137 44.4179 31.1232 43.2961 31.7421 42.3212C32.3611 41.3464 33.2121 40.5882 34.2953 40.0466C35.3939 39.4896 36.6395 39.211 38.0322 39.211C39.4557 39.211 40.6859 39.5128 41.7226 40.1162C42.7593 40.7197 43.4943 41.5708 43.9276 42.6694L40.5157 44.4102C40.2217 43.8222 39.858 43.3967 39.4248 43.1336C38.9915 42.8551 38.5196 42.7158 38.0089 42.7158C37.4983 42.7158 37.0341 42.8319 36.6163 43.064C36.1985 43.2961 35.8658 43.6365 35.6183 44.0852C35.3862 44.5185 35.2701 45.0523 35.2701 45.6868C35.2701 46.3366 35.3862 46.886 35.6183 47.3347C35.8658 47.7834 36.1985 48.1239 36.6163 48.356C37.0341 48.5881 37.4983 48.7041 38.0089 48.7041C38.5196 48.7041 38.9915 48.5726 39.4248 48.3095C39.858 48.031 40.2217 47.5977 40.5157 47.0097L43.9276 48.7505C43.4943 49.8492 42.7593 50.7002 41.7226 51.3037C40.6859 51.9072 39.4557 52.2089 38.0322 52.2089ZM49.21 49.679L49.326 44.4102L54.4556 39.4199H59.6779L53.9913 45.2922L51.7399 47.1026L49.21 49.679ZM45.5427 52V34.7778H49.9527V52H45.5427ZM54.7805 52L50.9276 47.1722L53.6664 43.7835L60.1189 52H54.7805ZM68.9106 52V49.6557L68.6089 49.0755V44.7583C68.6089 44.062 68.3922 43.5282 67.959 43.1568C67.5412 42.77 66.8681 42.5765 65.9397 42.5765C65.3362 42.5765 64.725 42.6771 64.106 42.8783C63.4871 43.064 62.961 43.327 62.5277 43.6674L61.0423 40.6733C61.754 40.2091 62.6051 39.8532 63.5954 39.6056C64.6012 39.3426 65.5992 39.211 66.5896 39.211C68.6321 39.211 70.2104 39.683 71.3245 40.6269C72.4541 41.5553 73.0189 43.0175 73.0189 45.0136V52H68.9106ZM65.1969 52.2089C64.1911 52.2089 63.3401 52.0387 62.6438 51.6983C61.9475 51.3578 61.4136 50.8936 61.0423 50.3056C60.6864 49.7176 60.5084 49.06 60.5084 48.3327C60.5084 47.5591 60.7018 46.8937 61.0887 46.3366C61.491 45.7641 62.1022 45.3309 62.9223 45.0369C63.7424 44.7274 64.8023 44.5726 66.1021 44.5726H69.0731V46.8705H66.7056C65.9938 46.8705 65.4909 46.9865 65.1969 47.2186C64.9184 47.4507 64.7791 47.7602 64.7791 48.1471C64.7791 48.5339 64.9261 48.8434 65.2201 49.0755C65.5141 49.3076 65.9164 49.4236 66.4271 49.4236C66.9068 49.4236 67.34 49.3076 67.7269 49.0755C68.1292 48.8279 68.4232 48.4565 68.6089 47.9614L69.2123 49.5861C68.9802 50.4526 68.5238 51.1103 67.8429 51.559C67.1776 51.9923 66.2956 52.2089 65.1969 52.2089ZM82.1119 56.7117C80.905 56.7117 79.7522 56.5725 78.6536 56.2939C77.5704 56.0154 76.642 55.6054 75.8683 55.0638L77.4698 51.9768C77.9959 52.3946 78.6458 52.7195 79.4195 52.9516C80.2087 53.1992 80.9746 53.323 81.7173 53.323C82.9088 53.323 83.7676 53.0599 84.2937 52.5338C84.8198 52.0232 85.0829 51.2727 85.0829 50.2824V48.797L85.315 45.269L85.2918 41.7178V39.4199H89.4928V49.7022C89.4928 52.0851 88.8507 53.8491 87.5664 54.9942C86.2821 56.1392 84.4639 56.7117 82.1119 56.7117ZM81.346 51.3501C80.2319 51.3501 79.2029 51.1025 78.259 50.6074C77.3306 50.0967 76.5801 49.3927 76.0076 48.4952C75.4505 47.5823 75.172 46.5069 75.172 45.269C75.172 44.0311 75.4505 42.9634 76.0076 42.0659C76.5801 41.153 77.3306 40.4489 78.259 39.9538C79.2029 39.4586 80.2319 39.211 81.346 39.211C82.4137 39.211 83.3266 39.4277 84.0848 39.8609C84.843 40.2787 85.4155 40.9363 85.8024 41.8338C86.2047 42.7313 86.4059 43.8763 86.4059 45.269C86.4059 46.6616 86.2047 47.8066 85.8024 48.7041C85.4155 49.6016 84.843 50.267 84.0848 50.7002C83.3266 51.1335 82.4137 51.3501 81.346 51.3501ZM82.3904 47.8453C82.9165 47.8453 83.3808 47.737 83.7831 47.5204C84.2009 47.3037 84.5258 47.002 84.7579 46.6152C85.0055 46.2283 85.1293 45.7796 85.1293 45.269C85.1293 44.7583 85.0055 44.3096 84.7579 43.9228C84.5258 43.5359 84.2009 43.2419 83.7831 43.0408C83.3808 42.8241 82.9165 42.7158 82.3904 42.7158C81.8643 42.7158 81.3924 42.8241 80.9746 43.0408C80.5568 43.2419 80.2241 43.5359 79.9766 43.9228C79.7444 44.3096 79.6284 44.7583 79.6284 45.269C79.6284 45.7796 79.7444 46.2283 79.9766 46.6152C80.2241 47.002 80.5568 47.3037 80.9746 47.5204C81.3924 47.737 81.8643 47.8453 82.3904 47.8453ZM92.3263 52V39.4199H96.7363V52H92.3263ZM94.5313 38.0273C93.7267 38.0273 93.0768 37.8029 92.5816 37.3542C92.0865 36.9055 91.8389 36.3484 91.8389 35.683C91.8389 35.0177 92.0865 34.4606 92.5816 34.0119C93.0768 33.5632 93.7267 33.3388 94.5313 33.3388C95.336 33.3388 95.9858 33.5554 96.481 33.9887C96.9762 34.4065 97.2237 34.948 97.2237 35.6134C97.2237 36.3097 96.9762 36.89 96.481 37.3542C96.0013 37.8029 95.3514 38.0273 94.5313 38.0273ZM107.796 39.211C108.77 39.211 109.652 39.4122 110.442 39.8145C111.231 40.2013 111.85 40.8048 112.298 41.6249C112.763 42.445 112.995 43.505 112.995 44.8048V52H108.585V45.5243C108.585 44.6268 108.399 43.9769 108.028 43.5746C107.672 43.1568 107.169 42.9479 106.519 42.9479C106.055 42.9479 105.629 43.0562 105.242 43.2729C104.856 43.474 104.554 43.7912 104.337 44.2245C104.121 44.6578 104.012 45.2225 104.012 45.9189V52H99.6023V39.4199H103.803V42.9943L102.991 41.9499C103.471 41.0369 104.128 40.3561 104.964 39.9073C105.799 39.4431 106.743 39.211 107.796 39.211ZM122.073 56.7117C120.866 56.7117 119.713 56.5725 118.615 56.2939C117.531 56.0154 116.603 55.6054 115.829 55.0638L117.431 51.9768C117.957 52.3946 118.607 52.7195 119.38 52.9516C120.17 53.1992 120.936 53.323 121.678 53.323C122.87 53.323 123.729 53.0599 124.255 52.5338C124.781 52.0232 125.044 51.2727 125.044 50.2824V48.797L125.276 45.269L125.253 41.7178V39.4199H129.454V49.7022C129.454 52.0851 128.812 53.8491 127.527 54.9942C126.243 56.1392 124.425 56.7117 122.073 56.7117ZM121.307 51.3501C120.193 51.3501 119.164 51.1025 118.22 50.6074C117.292 50.0967 116.541 49.3927 115.969 48.4952C115.411 47.5823 115.133 46.5069 115.133 45.269C115.133 44.0311 115.411 42.9634 115.969 42.0659C116.541 41.153 117.292 40.4489 118.22 39.9538C119.164 39.4586 120.193 39.211 121.307 39.211C122.375 39.211 123.288 39.4277 124.046 39.8609C124.804 40.2787 125.377 40.9363 125.763 41.8338C126.166 42.7313 126.367 43.8763 126.367 45.269C126.367 46.6616 126.166 47.8066 125.763 48.7041C125.377 49.6016 124.804 50.267 124.046 50.7002C123.288 51.1335 122.375 51.3501 121.307 51.3501ZM122.351 47.8453C122.878 47.8453 123.342 47.737 123.744 47.5204C124.162 47.3037 124.487 47.002 124.719 46.6152C124.966 46.2283 125.09 45.7796 125.09 45.269C125.09 44.7583 124.966 44.3096 124.719 43.9228C124.487 43.5359 124.162 43.2419 123.744 43.0408C123.342 42.8241 122.878 42.7158 122.351 42.7158C121.825 42.7158 121.353 42.8241 120.936 43.0408C120.518 43.2419 120.185 43.5359 119.938 43.9228C119.705 44.3096 119.589 44.7583 119.589 45.269C119.589 45.7796 119.705 46.2283 119.938 46.6152C120.185 47.002 120.518 47.3037 120.936 47.5204C121.353 47.737 121.825 47.8453 122.351 47.8453ZM147.444 52.3249C146.144 52.3249 144.945 52.1161 143.847 51.6983C142.748 51.2805 141.789 50.6925 140.968 49.9343C140.164 49.1606 139.537 48.2631 139.088 47.2419C138.64 46.2206 138.415 45.0988 138.415 43.8763C138.415 42.6539 138.64 41.5321 139.088 40.5108C139.537 39.4896 140.164 38.5998 140.968 37.8416C141.789 37.0679 142.748 36.4722 143.847 36.0544C144.945 35.6366 146.144 35.4277 147.444 35.4277C148.759 35.4277 149.959 35.6366 151.042 36.0544C152.14 36.4722 153.092 37.0602 153.897 37.8184C154.701 38.5766 155.328 39.4741 155.777 40.5108C156.241 41.5321 156.473 42.6539 156.473 43.8763C156.473 45.0988 156.241 46.2283 155.777 47.2651C155.328 48.2863 154.701 49.1761 153.897 49.9343C153.092 50.6925 152.14 51.2805 151.042 51.6983C149.959 52.1161 148.759 52.3249 147.444 52.3249ZM152.759 55.9226C152.063 55.9226 151.413 55.8452 150.81 55.6905C150.206 55.5512 149.61 55.3191 149.022 54.9942C148.45 54.6692 147.846 54.2282 147.212 53.6712C146.593 53.1141 145.897 52.4255 145.123 51.6054L149.928 50.3985C150.314 50.971 150.663 51.4197 150.972 51.7447C151.282 52.0696 151.583 52.3017 151.877 52.441C152.187 52.5803 152.512 52.6499 152.852 52.6499C153.75 52.6499 154.57 52.2708 155.312 51.5126L157.309 53.88C156.179 55.2417 154.663 55.9226 152.759 55.9226ZM147.444 48.5184C148.063 48.5184 148.636 48.4101 149.162 48.1935C149.703 47.9769 150.167 47.6674 150.554 47.2651C150.957 46.8473 151.266 46.3521 151.483 45.7796C151.715 45.2071 151.831 44.5726 151.831 43.8763C151.831 43.1645 151.715 42.5301 151.483 41.9731C151.266 41.4006 150.957 40.9131 150.554 40.5108C150.167 40.093 149.703 39.7758 149.162 39.5592C148.636 39.3426 148.063 39.2342 147.444 39.2342C146.825 39.2342 146.245 39.3426 145.703 39.5592C145.177 39.7758 144.713 40.093 144.311 40.5108C143.924 40.9131 143.614 41.4006 143.382 41.9731C143.166 42.5301 143.057 43.1645 143.057 43.8763C143.057 44.5726 143.166 45.2071 143.382 45.7796C143.614 46.3521 143.924 46.8473 144.311 47.2651C144.713 47.6674 145.177 47.9769 145.703 48.1935C146.245 48.4101 146.825 48.5184 147.444 48.5184ZM163.963 52.2089C162.942 52.2089 162.021 52.0077 161.201 51.6054C160.396 51.2031 159.762 50.5764 159.298 49.7254C158.849 48.8588 158.625 47.768 158.625 46.4527V39.4199H163.035V45.7332C163.035 46.708 163.213 47.4043 163.569 47.8221C163.94 48.2399 164.458 48.4488 165.124 48.4488C165.557 48.4488 165.951 48.3482 166.307 48.1471C166.663 47.9459 166.95 47.6287 167.166 47.1954C167.383 46.7467 167.491 46.1742 167.491 45.4779V39.4199H171.901V52H167.7V48.4488L168.512 49.4468C168.079 50.3753 167.452 51.0716 166.632 51.5358C165.812 51.9845 164.922 52.2089 163.963 52.2089ZM182.424 52V49.6557L182.123 49.0755V44.7583C182.123 44.062 181.906 43.5282 181.473 43.1568C181.055 42.77 180.382 42.5765 179.453 42.5765C178.85 42.5765 178.239 42.6771 177.62 42.8783C177.001 43.064 176.475 43.327 176.041 43.6674L174.556 40.6733C175.268 40.2091 176.119 39.8532 177.109 39.6056C178.115 39.3426 179.113 39.211 180.103 39.211C182.146 39.211 183.724 39.683 184.838 40.6269C185.968 41.5553 186.533 43.0175 186.533 45.0136V52H182.424ZM178.711 52.2089C177.705 52.2089 176.854 52.0387 176.157 51.6983C175.461 51.3578 174.927 50.8936 174.556 50.3056C174.2 49.7176 174.022 49.06 174.022 48.3327C174.022 47.5591 174.216 46.8937 174.602 46.3366C175.005 45.7641 175.616 45.3309 176.436 45.0369C177.256 44.7274 178.316 44.5726 179.616 44.5726H182.587V46.8705H180.219C179.508 46.8705 179.005 46.9865 178.711 47.2186C178.432 47.4507 178.293 47.7602 178.293 48.1471C178.293 48.5339 178.44 48.8434 178.734 49.0755C179.028 49.3076 179.43 49.4236 179.941 49.4236C180.42 49.4236 180.854 49.3076 181.241 49.0755C181.643 48.8279 181.937 48.4565 182.123 47.9614L182.726 49.5861C182.494 50.4526 182.037 51.1103 181.357 51.559C180.691 51.9923 179.809 52.2089 178.711 52.2089ZM189.316 52V34.7778H193.726V52H189.316ZM196.592 52V39.4199H201.002V52H196.592ZM198.797 38.0273C197.992 38.0273 197.343 37.8029 196.847 37.3542C196.352 36.9055 196.105 36.3484 196.105 35.683C196.105 35.0177 196.352 34.4606 196.847 34.0119C197.343 33.5632 197.992 33.3388 198.797 33.3388C199.602 33.3388 200.252 33.5554 200.747 33.9887C201.242 34.4065 201.49 34.948 201.49 35.6134C201.49 36.3097 201.242 36.89 200.747 37.3542C200.267 37.8029 199.617 38.0273 198.797 38.0273ZM209.485 52.2089C207.876 52.2089 206.622 51.8143 205.725 51.0252C204.827 50.2205 204.379 49.0136 204.379 47.4043V36.6115H208.789V47.3579C208.789 47.8066 208.912 48.1625 209.16 48.4256C209.408 48.6732 209.725 48.797 210.112 48.797C210.638 48.797 211.087 48.6654 211.458 48.4024L212.549 51.4894C212.177 51.7369 211.721 51.9149 211.179 52.0232C210.638 52.147 210.073 52.2089 209.485 52.2089ZM202.545 43.18V39.8841H211.667V43.18H202.545ZM216.181 56.7117C215.516 56.7117 214.843 56.6034 214.162 56.3868C213.497 56.1856 212.955 55.9148 212.537 55.5744L214.069 52.4874C214.332 52.7195 214.634 52.8975 214.974 53.0213C215.33 53.1605 215.678 53.2302 216.019 53.2302C216.498 53.2302 216.878 53.1218 217.156 52.9052C217.435 52.6886 217.674 52.3482 217.876 51.8839L218.456 50.4217L218.804 49.9807L223.075 39.4199H227.276L221.845 52.5106C221.411 53.5938 220.908 54.4371 220.336 55.0406C219.779 55.6595 219.152 56.0928 218.456 56.3404C217.775 56.5879 217.017 56.7117 216.181 56.7117ZM217.899 52.5338L212.351 39.4199H216.878L220.963 49.5861L217.899 52.5338ZM54.4385 85V78.1297L55.5062 80.8917L48.2413 68.7527H53.0923L58.3379 77.5494H55.5294L60.7982 68.7527H65.2546L58.0129 80.8917L59.0342 78.1297V85H54.4385ZM71.1451 85.2089C69.768 85.2089 68.5456 84.9304 67.4779 84.3733C66.4102 83.8163 65.5669 83.0503 64.948 82.0755C64.3445 81.0852 64.0427 79.9556 64.0427 78.6868C64.0427 77.4179 64.3445 76.2961 64.948 75.3212C65.5669 74.3464 66.4102 73.5882 67.4779 73.0466C68.5456 72.4896 69.768 72.211 71.1451 72.211C72.5223 72.211 73.7447 72.4896 74.8124 73.0466C75.8956 73.5882 76.7389 74.3464 77.3423 75.3212C77.9458 76.2961 78.2476 77.4179 78.2476 78.6868C78.2476 79.9556 77.9458 81.0852 77.3423 82.0755C76.7389 83.0503 75.8956 83.8163 74.8124 84.3733C73.7447 84.9304 72.5223 85.2089 71.1451 85.2089ZM71.1451 81.7041C71.6558 81.7041 72.1045 81.5881 72.4914 81.356C72.8937 81.1239 73.2109 80.7834 73.443 80.3347C73.6751 79.8705 73.7911 79.3212 73.7911 78.6868C73.7911 78.0523 73.6751 77.5185 73.443 77.0852C73.2109 76.6365 72.8937 76.2961 72.4914 76.064C72.1045 75.8319 71.6558 75.7158 71.1451 75.7158C70.65 75.7158 70.2013 75.8319 69.7989 76.064C69.4121 76.2961 69.0949 76.6365 68.8473 77.0852C68.6152 77.5185 68.4992 78.0523 68.4992 78.6868C68.4992 79.3212 68.6152 79.8705 68.8473 80.3347C69.0949 80.7834 69.4121 81.1239 69.7989 81.356C70.2013 81.5881 70.65 81.7041 71.1451 81.7041ZM85.5824 85.2089C84.5612 85.2089 83.6405 85.0077 82.8204 84.6054C82.0157 84.2031 81.3813 83.5764 80.9171 82.7254C80.4684 81.8588 80.244 80.768 80.244 79.4527V72.4199H84.654V78.7332C84.654 79.708 84.8319 80.4043 85.1878 80.8221C85.5592 81.2399 86.0776 81.4488 86.7429 81.4488C87.1762 81.4488 87.5708 81.3482 87.9267 81.1471C88.2826 80.9459 88.5688 80.6287 88.7855 80.1954C89.0021 79.7467 89.1104 79.1742 89.1104 78.4779V72.4199H93.5204V85H89.3193V81.4488L90.1317 82.4468C89.6984 83.3753 89.0717 84.0716 88.2516 84.5358C87.4315 84.9845 86.5418 85.2089 85.5824 85.2089ZM111.425 85.3249C110.141 85.3249 108.949 85.1238 107.851 84.7215C106.767 84.3037 105.823 83.7157 105.019 82.9575C104.23 82.1993 103.611 81.3095 103.162 80.2883C102.713 79.2515 102.489 78.1142 102.489 76.8763C102.489 75.6384 102.713 74.5089 103.162 73.4876C103.611 72.4509 104.23 71.5534 105.019 70.7952C105.823 70.037 106.767 69.4567 107.851 69.0544C108.949 68.6366 110.141 68.4277 111.425 68.4277C112.926 68.4277 114.264 68.6908 115.44 69.2169C116.632 69.743 117.622 70.5012 118.411 71.4915L115.487 74.1375C114.961 73.5186 114.38 73.0466 113.746 72.7217C113.127 72.3967 112.431 72.2342 111.657 72.2342C110.992 72.2342 110.38 72.3426 109.823 72.5592C109.266 72.7758 108.787 73.093 108.384 73.5108C107.998 73.9131 107.688 74.4006 107.456 74.9731C107.239 75.5456 107.131 76.18 107.131 76.8763C107.131 77.5726 107.239 78.2071 107.456 78.7796C107.688 79.3521 107.998 79.8473 108.384 80.2651C108.787 80.6674 109.266 80.9769 109.823 81.1935C110.38 81.4101 110.992 81.5184 111.657 81.5184C112.431 81.5184 113.127 81.356 113.746 81.031C114.38 80.7061 114.961 80.2341 115.487 79.6152L118.411 82.2612C117.622 83.236 116.632 83.9942 115.44 84.5358C114.264 85.0619 112.926 85.3249 111.425 85.3249ZM127.889 85V82.6557L127.587 82.0755V77.7583C127.587 77.062 127.37 76.5282 126.937 76.1568C126.519 75.77 125.846 75.5765 124.918 75.5765C124.314 75.5765 123.703 75.6771 123.084 75.8783C122.465 76.064 121.939 76.327 121.506 76.6674L120.02 73.6733C120.732 73.2091 121.583 72.8532 122.574 72.6056C123.579 72.3426 124.577 72.211 125.568 72.211C127.61 72.211 129.189 72.683 130.303 73.6269C131.432 74.5553 131.997 76.0175 131.997 78.0136V85H127.889ZM124.175 85.2089C123.169 85.2089 122.318 85.0387 121.622 84.6983C120.926 84.3578 120.392 83.8936 120.02 83.3056C119.665 82.7176 119.487 82.06 119.487 81.3327C119.487 80.5591 119.68 79.8937 120.067 79.3366C120.469 78.7641 121.08 78.3309 121.9 78.0369C122.721 77.7274 123.781 77.5726 125.08 77.5726H128.051V79.8705H125.684C124.972 79.8705 124.469 79.9865 124.175 80.2186C123.897 80.4507 123.757 80.7602 123.757 81.1471C123.757 81.5339 123.904 81.8434 124.198 82.0755C124.492 82.3076 124.895 82.4236 125.405 82.4236C125.885 82.4236 126.318 82.3076 126.705 82.0755C127.107 81.8279 127.401 81.4565 127.587 80.9614L128.19 82.5861C127.958 83.4526 127.502 84.1103 126.821 84.559C126.156 84.9923 125.274 85.2089 124.175 85.2089ZM142.974 72.211C143.949 72.211 144.831 72.4122 145.62 72.8145C146.409 73.2013 147.028 73.8048 147.477 74.6249C147.941 75.445 148.173 76.505 148.173 77.8048V85H143.763V78.5243C143.763 77.6268 143.577 76.9769 143.206 76.5746C142.85 76.1568 142.347 75.9479 141.697 75.9479C141.233 75.9479 140.808 76.0562 140.421 76.2729C140.034 76.474 139.732 76.7912 139.516 77.2245C139.299 77.6578 139.191 78.2225 139.191 78.9189V85H134.781V72.4199H138.982V75.9943L138.169 74.9499C138.649 74.0369 139.307 73.3561 140.142 72.9073C140.978 72.4431 141.922 72.211 142.974 72.211ZM161.364 85V72.3967H156.373V68.7527H170.926V72.3967H165.959V85H161.364ZM172.18 85V72.4199H176.381V76.0872L175.755 75.0427C176.126 74.0988 176.73 73.3948 177.565 72.9306C178.401 72.4509 179.414 72.211 180.606 72.211V76.18C180.405 76.1491 180.227 76.1336 180.072 76.1336C179.933 76.1181 179.778 76.1104 179.608 76.1104C178.71 76.1104 177.983 76.358 177.426 76.8531C176.869 77.3328 176.59 78.122 176.59 79.2206V85H172.18ZM187.763 85.2089C186.742 85.2089 185.821 85.0077 185.001 84.6054C184.196 84.2031 183.562 83.5764 183.098 82.7254C182.649 81.8588 182.424 80.768 182.424 79.4527V72.4199H186.834V78.7332C186.834 79.708 187.012 80.4043 187.368 80.8221C187.74 81.2399 188.258 81.4488 188.923 81.4488C189.357 81.4488 189.751 81.3482 190.107 81.1471C190.463 80.9459 190.749 80.6287 190.966 80.1954C191.183 79.7467 191.291 79.1742 191.291 78.4779V72.4199H195.701V85H191.5V81.4488L192.312 82.4468C191.879 83.3753 191.252 84.0716 190.432 84.5358C189.612 84.9845 188.722 85.2089 187.763 85.2089ZM203.114 85.2089C202.046 85.2089 201.002 85.0851 199.98 84.8375C198.975 84.5899 198.162 84.2805 197.543 83.9091L198.866 80.8917C199.454 81.2476 200.143 81.5339 200.932 81.7505C201.721 81.9517 202.495 82.0523 203.253 82.0523C203.996 82.0523 204.507 81.9749 204.785 81.8202C205.079 81.6654 205.226 81.4565 205.226 81.1935C205.226 80.9459 205.087 80.768 204.808 80.6596C204.545 80.5359 204.189 80.443 203.741 80.3811C203.307 80.3192 202.828 80.2496 202.302 80.1722C201.775 80.0949 201.242 79.9943 200.7 79.8705C200.174 79.7312 199.686 79.5301 199.238 79.267C198.804 78.9885 198.456 78.6171 198.193 78.1529C197.93 77.6887 197.799 77.1007 197.799 76.3889C197.799 75.5843 198.031 74.8725 198.495 74.2536C198.975 73.6191 199.671 73.124 200.584 72.7681C201.497 72.3967 202.611 72.211 203.926 72.211C204.808 72.211 205.698 72.3039 206.595 72.4896C207.508 72.6598 208.274 72.9228 208.893 73.2787L207.57 76.2729C206.951 75.917 206.332 75.6771 205.713 75.5533C205.095 75.4141 204.507 75.3444 203.949 75.3444C203.207 75.3444 202.681 75.4295 202.371 75.5998C202.077 75.77 201.93 75.9789 201.93 76.2264C201.93 76.474 202.062 76.6674 202.325 76.8067C202.588 76.9305 202.936 77.0311 203.369 77.1084C203.818 77.1703 204.305 77.24 204.831 77.3173C205.358 77.3792 205.884 77.4798 206.41 77.6191C206.951 77.7583 207.439 77.9672 207.872 78.2458C208.321 78.5088 208.677 78.8724 208.94 79.3366C209.203 79.7854 209.334 80.3656 209.334 81.0774C209.334 81.8511 209.094 82.5474 208.615 83.1664C208.151 83.7853 207.454 84.2805 206.526 84.6518C205.613 85.0232 204.476 85.2089 203.114 85.2089ZM216.852 85.2089C215.242 85.2089 213.989 84.8143 213.091 84.0252C212.194 83.2205 211.745 82.0136 211.745 80.4043V69.6115H216.155V80.3579C216.155 80.8066 216.279 81.1625 216.527 81.4256C216.774 81.6732 217.091 81.797 217.478 81.797C218.004 81.797 218.453 81.6654 218.824 81.4024L219.915 84.4894C219.544 84.7369 219.088 84.9149 218.546 85.0232C218.004 85.147 217.44 85.2089 216.852 85.2089ZM209.912 76.18V72.8841H219.033V76.18H209.912ZM223.699 85.2089C222.957 85.2089 222.33 84.9613 221.819 84.4662C221.309 83.971 221.053 83.3443 221.053 82.5861C221.053 81.797 221.309 81.1703 221.819 80.7061C222.33 80.2264 222.957 79.9865 223.699 79.9865C224.442 79.9865 225.069 80.2264 225.579 80.7061C226.09 81.1703 226.345 81.797 226.345 82.5861C226.345 83.3443 226.09 83.971 225.579 84.4662C225.069 84.9613 224.442 85.2089 223.699 85.2089Z" fill="#545652"/>
</svg>
