<svg width="217" height="108" viewBox="0 0 217 108" fill="none" xmlns="http://www.w3.org/2000/svg">
<path d="M0.766 27L8.878 8.8H13.038L21.176 27H16.756L10.1 10.932H11.764L5.082 27H0.766ZM4.822 23.1L5.94 19.902H15.3L16.444 23.1H4.822ZM31.0463 27.208C29.8156 27.208 28.7583 26.948 27.8743 26.428C26.9903 25.908 26.3143 25.1193 25.8463 24.062C25.3783 22.9873 25.1443 21.6353 25.1443 20.006C25.1443 18.3593 25.3869 17.0073 25.8723 15.95C26.3749 14.8927 27.0683 14.104 27.9523 13.584C28.8363 13.064 29.8676 12.804 31.0463 12.804C32.3636 12.804 33.5423 13.0987 34.5823 13.688C35.6396 14.2773 36.4716 15.1093 37.0783 16.184C37.7023 17.2587 38.0143 18.5327 38.0143 20.006C38.0143 21.462 37.7023 22.7273 37.0783 23.802C36.4716 24.8767 35.6396 25.7173 34.5823 26.324C33.5423 26.9133 32.3636 27.208 31.0463 27.208ZM22.7783 27V7.708H26.8343V15.846L26.5743 19.98L26.6523 24.14V27H22.7783ZM30.3443 23.88C31.0203 23.88 31.6183 23.724 32.1383 23.412C32.6756 23.1 33.1003 22.658 33.4123 22.086C33.7416 21.4967 33.9062 20.8033 33.9062 20.006C33.9062 19.1913 33.7416 18.498 33.4123 17.926C33.1003 17.354 32.6756 16.912 32.1383 16.6C31.6183 16.288 31.0203 16.132 30.3443 16.132C29.6683 16.132 29.0616 16.288 28.5243 16.6C27.9869 16.912 27.5623 17.354 27.2503 17.926C26.9383 18.498 26.7823 19.1913 26.7823 20.006C26.7823 20.8033 26.9383 21.4967 27.2503 22.086C27.5623 22.658 27.9869 23.1 28.5243 23.412C29.0616 23.724 29.6683 23.88 30.3443 23.88ZM47.3854 27.208C45.8948 27.208 44.5688 26.896 43.4074 26.272C42.2634 25.648 41.3534 24.7987 40.6774 23.724C40.0188 22.632 39.6894 21.3927 39.6894 20.006C39.6894 18.602 40.0188 17.3627 40.6774 16.288C41.3534 15.196 42.2634 14.3467 43.4074 13.74C44.5688 13.116 45.8948 12.804 47.3854 12.804C48.8588 12.804 50.1761 13.116 51.3374 13.74C52.4988 14.3467 53.4088 15.1873 54.0674 16.262C54.7261 17.3367 55.0554 18.5847 55.0554 20.006C55.0554 21.3927 54.7261 22.632 54.0674 23.724C53.4088 24.7987 52.4988 25.648 51.3374 26.272C50.1761 26.896 48.8588 27.208 47.3854 27.208ZM47.3854 23.88C48.0614 23.88 48.6681 23.724 49.2054 23.412C49.7428 23.1 50.1674 22.658 50.4794 22.086C50.7914 21.4967 50.9474 20.8033 50.9474 20.006C50.9474 19.1913 50.7914 18.498 50.4794 17.926C50.1674 17.354 49.7428 16.912 49.2054 16.6C48.6681 16.288 48.0614 16.132 47.3854 16.132C46.7094 16.132 46.1028 16.288 45.5654 16.6C45.0281 16.912 44.5948 17.354 44.2654 17.926C43.9534 18.498 43.7974 19.1913 43.7974 20.006C43.7974 20.8033 43.9534 21.4967 44.2654 22.086C44.5948 22.658 45.0281 23.1 45.5654 23.412C46.1028 23.724 46.7094 23.88 47.3854 23.88ZM63.6685 27.208C62.5072 27.208 61.4672 26.9827 60.5485 26.532C59.6472 26.0813 58.9452 25.3967 58.4425 24.478C57.9399 23.542 57.6885 22.3547 57.6885 20.916V13.012H61.7445V20.318C61.7445 21.4793 61.9872 22.3373 62.4725 22.892C62.9752 23.4293 63.6772 23.698 64.5785 23.698C65.2025 23.698 65.7572 23.568 66.2425 23.308C66.7279 23.0307 67.1092 22.6147 67.3865 22.06C67.6639 21.488 67.8025 20.7773 67.8025 19.928V13.012H71.8585V27H68.0105V23.152L68.7125 24.27C68.2445 25.2407 67.5512 25.9773 66.6325 26.48C65.7312 26.9653 64.7432 27.208 63.6685 27.208ZM81.3361 27.208C79.6895 27.208 78.4068 26.792 77.4881 25.96C76.5695 25.1107 76.1101 23.854 76.1101 22.19V9.918H80.1661V22.138C80.1661 22.7273 80.3221 23.1867 80.6341 23.516C80.9461 23.828 81.3708 23.984 81.9081 23.984C82.5495 23.984 83.0955 23.8107 83.5461 23.464L84.6381 26.324C84.2221 26.6187 83.7195 26.844 83.1301 27C82.5581 27.1387 81.9601 27.208 81.3361 27.208ZM73.9521 16.444V13.324H83.6501V16.444H73.9521ZM102.65 27.312C100.068 27.312 98.0483 26.5927 96.5923 25.154C95.1363 23.7153 94.4083 21.6613 94.4083 18.992V8.8H98.6203V18.836C98.6203 20.5693 98.9756 21.8173 99.6863 22.58C100.397 23.3427 101.394 23.724 102.676 23.724C103.959 23.724 104.956 23.3427 105.666 22.58C106.377 21.8173 106.732 20.5693 106.732 18.836V8.8H110.892V18.992C110.892 21.6613 110.164 23.7153 108.708 25.154C107.252 26.5927 105.233 27.312 102.65 27.312ZM119.474 27.208C118.278 27.208 117.126 27.0693 116.016 26.792C114.924 26.4973 114.058 26.1333 113.416 25.7L114.768 22.788C115.41 23.1867 116.164 23.516 117.03 23.776C117.914 24.0187 118.781 24.14 119.63 24.14C120.566 24.14 121.225 24.0273 121.606 23.802C122.005 23.5767 122.204 23.2647 122.204 22.866C122.204 22.5367 122.048 22.294 121.736 22.138C121.442 21.9647 121.043 21.8347 120.54 21.748C120.038 21.6613 119.483 21.5747 118.876 21.488C118.287 21.4013 117.689 21.2887 117.082 21.15C116.476 20.994 115.921 20.7687 115.418 20.474C114.916 20.1793 114.508 19.7807 114.196 19.278C113.902 18.7753 113.754 18.1253 113.754 17.328C113.754 16.444 114.006 15.664 114.508 14.988C115.028 14.312 115.774 13.7833 116.744 13.402C117.715 13.0033 118.876 12.804 120.228 12.804C121.182 12.804 122.152 12.908 123.14 13.116C124.128 13.324 124.952 13.6273 125.61 14.026L124.258 16.912C123.582 16.5133 122.898 16.2447 122.204 16.106C121.528 15.95 120.87 15.872 120.228 15.872C119.327 15.872 118.668 15.9933 118.252 16.236C117.836 16.4787 117.628 16.7907 117.628 17.172C117.628 17.5187 117.776 17.7787 118.07 17.952C118.382 18.1253 118.79 18.264 119.292 18.368C119.795 18.472 120.341 18.5673 120.93 18.654C121.537 18.7233 122.144 18.836 122.75 18.992C123.357 19.148 123.903 19.3733 124.388 19.668C124.891 19.9453 125.298 20.3353 125.61 20.838C125.922 21.3233 126.078 21.9647 126.078 22.762C126.078 23.6287 125.818 24.4 125.298 25.076C124.778 25.7347 124.024 26.2547 123.036 26.636C122.066 27.0173 120.878 27.208 119.474 27.208Z" fill="black"/>
<path d="M14.536 65.384C12.7653 65.384 11.1227 65.096 9.608 64.52C8.11467 63.944 6.81333 63.1333 5.704 62.088C4.616 61.0427 3.76267 59.816 3.144 58.408C2.54667 57 2.248 55.464 2.248 53.8C2.248 52.136 2.54667 50.6 3.144 49.192C3.76267 47.784 4.62667 46.5573 5.736 45.512C6.84533 44.4667 8.14667 43.656 9.64 43.08C11.1333 42.504 12.7547 42.216 14.504 42.216C16.2747 42.216 17.896 42.504 19.368 43.08C20.8613 43.656 22.152 44.4667 23.24 45.512C24.3493 46.5573 25.2133 47.784 25.832 49.192C26.4507 50.5787 26.76 52.1147 26.76 53.8C26.76 55.464 26.4507 57.0107 25.832 58.44C25.2133 59.848 24.3493 61.0747 23.24 62.12C22.152 63.144 20.8613 63.944 19.368 64.52C17.896 65.096 16.2853 65.384 14.536 65.384ZM14.504 60.968C15.5067 60.968 16.424 60.7973 17.256 60.456C18.1093 60.1147 18.856 59.624 19.496 58.984C20.136 58.344 20.6267 57.5867 20.968 56.712C21.3307 55.8373 21.512 54.8667 21.512 53.8C21.512 52.7333 21.3307 51.7627 20.968 50.888C20.6267 50.0133 20.136 49.256 19.496 48.616C18.8773 47.976 18.1413 47.4853 17.288 47.144C16.4347 46.8027 15.5067 46.632 14.504 46.632C13.5013 46.632 12.5733 46.8027 11.72 47.144C10.888 47.4853 10.152 47.976 9.512 48.616C8.872 49.256 8.37067 50.0133 8.008 50.888C7.66667 51.7627 7.496 52.7333 7.496 53.8C7.496 54.8453 7.66667 55.816 8.008 56.712C8.37067 57.5867 8.86133 58.344 9.48 58.984C10.12 59.624 10.8667 60.1147 11.72 60.456C12.5733 60.7973 13.5013 60.968 14.504 60.968ZM37.568 65.256C36.1387 65.256 34.8587 64.9787 33.728 64.424C32.6187 63.8693 31.7547 63.0267 31.136 61.896C30.5173 60.744 30.208 59.2827 30.208 57.512V47.784H35.2V56.776C35.2 58.2053 35.4987 59.2613 36.096 59.944C36.7147 60.6053 37.5787 60.936 38.688 60.936C39.456 60.936 40.1387 60.776 40.736 60.456C41.3333 60.1147 41.8027 59.6027 42.144 58.92C42.4853 58.216 42.656 57.3413 42.656 56.296V47.784H47.648V65H42.912V60.264L43.776 61.64C43.2 62.8347 42.3467 63.7413 41.216 64.36C40.1067 64.9573 38.8907 65.256 37.568 65.256ZM52.2728 65V47.784H57.0408V52.648L56.3688 51.24C56.8808 50.024 57.7021 49.1067 58.8328 48.488C59.9634 47.848 61.3394 47.528 62.9608 47.528V52.136C62.7474 52.1147 62.5554 52.104 62.3848 52.104C62.2141 52.0827 62.0328 52.072 61.8408 52.072C60.4754 52.072 59.3661 52.4667 58.5128 53.256C57.6808 54.024 57.2648 55.2293 57.2648 56.872V65H52.2728ZM82.1885 65L72.5245 42.6H78.1245L86.5725 62.44H83.2765L91.8525 42.6H97.0045L87.3085 65H82.1885ZM98.804 65V47.784H103.796V65H98.804ZM101.3 45.384C100.383 45.384 99.636 45.1173 99.06 44.584C98.484 44.0507 98.196 43.3893 98.196 42.6C98.196 41.8107 98.484 41.1493 99.06 40.616C99.636 40.0827 100.383 39.816 101.3 39.816C102.217 39.816 102.964 40.072 103.54 40.584C104.116 41.0747 104.404 41.7147 104.404 42.504C104.404 43.336 104.116 44.0293 103.54 44.584C102.985 45.1173 102.239 45.384 101.3 45.384ZM114.221 65.256C112.749 65.256 111.33 65.0853 109.965 64.744C108.621 64.3813 107.554 63.9333 106.765 63.4L108.429 59.816C109.218 60.3067 110.146 60.712 111.213 61.032C112.301 61.3307 113.368 61.48 114.413 61.48C115.565 61.48 116.376 61.3413 116.845 61.064C117.336 60.7867 117.581 60.4027 117.581 59.912C117.581 59.5067 117.389 59.208 117.005 59.016C116.642 58.8027 116.152 58.6427 115.533 58.536C114.914 58.4293 114.232 58.3227 113.485 58.216C112.76 58.1093 112.024 57.9707 111.277 57.8C110.53 57.608 109.848 57.3307 109.229 56.968C108.61 56.6053 108.109 56.1147 107.725 55.496C107.362 54.8773 107.181 54.0773 107.181 53.096C107.181 52.008 107.49 51.048 108.109 50.216C108.749 49.384 109.666 48.7333 110.861 48.264C112.056 47.7733 113.485 47.528 115.149 47.528C116.322 47.528 117.517 47.656 118.733 47.912C119.949 48.168 120.962 48.5413 121.773 49.032L120.109 52.584C119.277 52.0933 118.434 51.7627 117.581 51.592C116.749 51.4 115.938 51.304 115.149 51.304C114.04 51.304 113.229 51.4533 112.717 51.752C112.205 52.0507 111.949 52.4347 111.949 52.904C111.949 53.3307 112.13 53.6507 112.493 53.864C112.877 54.0773 113.378 54.248 113.997 54.376C114.616 54.504 115.288 54.6213 116.013 54.728C116.76 54.8133 117.506 54.952 118.253 55.144C119 55.336 119.672 55.6133 120.269 55.976C120.888 56.3173 121.389 56.7973 121.773 57.416C122.157 58.0133 122.349 58.8027 122.349 59.784C122.349 60.8507 122.029 61.8 121.389 62.632C120.749 63.4427 119.821 64.0827 118.605 64.552C117.41 65.0213 115.949 65.256 114.221 65.256ZM125.429 65V47.784H130.421V65H125.429ZM127.925 45.384C127.008 45.384 126.261 45.1173 125.685 44.584C125.109 44.0507 124.821 43.3893 124.821 42.6C124.821 41.8107 125.109 41.1493 125.685 40.616C126.261 40.0827 127.008 39.816 127.925 39.816C128.842 39.816 129.589 40.072 130.165 40.584C130.741 41.0747 131.029 41.7147 131.029 42.504C131.029 43.336 130.741 44.0293 130.165 44.584C129.61 45.1173 128.864 45.384 127.925 45.384ZM143.246 65.256C141.411 65.256 139.779 64.872 138.35 64.104C136.942 63.336 135.822 62.2907 134.99 60.968C134.179 59.624 133.774 58.0987 133.774 56.392C133.774 54.664 134.179 53.1387 134.99 51.816C135.822 50.472 136.942 49.4267 138.35 48.68C139.779 47.912 141.411 47.528 143.246 47.528C145.059 47.528 146.681 47.912 148.11 48.68C149.539 49.4267 150.659 50.4613 151.47 51.784C152.281 53.1067 152.686 54.6427 152.686 56.392C152.686 58.0987 152.281 59.624 151.47 60.968C150.659 62.2907 149.539 63.336 148.11 64.104C146.681 64.872 145.059 65.256 143.246 65.256ZM143.246 61.16C144.078 61.16 144.825 60.968 145.486 60.584C146.147 60.2 146.67 59.656 147.054 58.952C147.438 58.2267 147.63 57.3733 147.63 56.392C147.63 55.3893 147.438 54.536 147.054 53.832C146.67 53.128 146.147 52.584 145.486 52.2C144.825 51.816 144.078 51.624 143.246 51.624C142.414 51.624 141.667 51.816 141.006 52.2C140.345 52.584 139.811 53.128 139.406 53.832C139.022 54.536 138.83 55.3893 138.83 56.392C138.83 57.3733 139.022 58.2267 139.406 58.952C139.811 59.656 140.345 60.2 141.006 60.584C141.667 60.968 142.414 61.16 143.246 61.16ZM166.487 47.528C167.852 47.528 169.068 47.8053 170.135 48.36C171.223 48.8933 172.076 49.7253 172.695 50.856C173.313 51.9653 173.623 53.3947 173.623 55.144V65H168.631V55.912C168.631 54.5253 168.321 53.5013 167.703 52.84C167.105 52.1787 166.252 51.848 165.143 51.848C164.353 51.848 163.639 52.0187 162.999 52.36C162.38 52.68 161.889 53.1813 161.527 53.864C161.185 54.5467 161.015 55.4213 161.015 56.488V65H156.023V47.784H160.791V52.552L159.895 51.112C160.513 49.96 161.399 49.0747 162.551 48.456C163.703 47.8373 165.015 47.528 166.487 47.528Z" fill="#912229"/>
<path d="M4.857 96L1.323 86.728H3.299L6.016 94.385H5.56L8.353 86.728H9.835L12.571 94.385H12.153L14.889 86.728H16.77L13.236 96H11.488L8.562 88.096H9.512L6.605 96H4.857ZM22.6014 96.171C21.588 96.171 20.714 95.981 19.9794 95.601C19.2574 95.2083 18.6937 94.6573 18.2884 93.948C17.8957 93.226 17.6994 92.371 17.6994 91.383C17.6994 90.4203 17.8957 89.578 18.2884 88.856C18.681 88.134 19.2194 87.5703 19.9034 87.165C20.5874 86.7597 21.3664 86.557 22.2404 86.557C23.1017 86.557 23.8364 86.747 24.4444 87.127C25.065 87.4943 25.54 88.02 25.8694 88.704C26.1987 89.388 26.3634 90.205 26.3634 91.155V91.801H19.2194V90.623H25.0714L24.7484 90.889C24.7484 89.939 24.5394 89.2043 24.1214 88.685C23.7034 88.1657 23.1017 87.906 22.3164 87.906C21.721 87.906 21.2144 88.0453 20.7964 88.324C20.391 88.6027 20.0807 88.989 19.8654 89.483C19.65 89.977 19.5424 90.5533 19.5424 91.212V91.326C19.5424 92.0607 19.6564 92.6813 19.8844 93.188C20.125 93.682 20.4734 94.0557 20.9294 94.309C21.3854 94.5623 21.949 94.689 22.6204 94.689C23.1524 94.689 23.6717 94.6067 24.1784 94.442C24.6977 94.2647 25.1854 93.9923 25.6414 93.625L26.2114 94.955C25.7934 95.335 25.255 95.6327 24.5964 95.848C23.9377 96.0633 23.2727 96.171 22.6014 96.171ZM31.4764 96.171C30.4631 96.171 29.7031 95.886 29.1964 95.316C28.7024 94.7333 28.4554 93.8973 28.4554 92.808V82.605H30.3744V92.694C30.3744 93.0993 30.4314 93.4477 30.5454 93.739C30.6594 94.0177 30.8304 94.2267 31.0584 94.366C31.2864 94.5053 31.5714 94.575 31.9134 94.575C32.0654 94.575 32.2111 94.5687 32.3504 94.556C32.4898 94.5433 32.6228 94.518 32.7494 94.48L32.7114 96.019C32.4961 96.0697 32.2871 96.1077 32.0844 96.133C31.8818 96.1583 31.6791 96.171 31.4764 96.171ZM38.2553 96.171C37.3053 96.171 36.482 95.9747 35.7853 95.582C35.1013 95.1767 34.5693 94.613 34.1893 93.891C33.8093 93.1563 33.6193 92.295 33.6193 91.307C33.6193 90.3317 33.8093 89.4893 34.1893 88.78C34.5693 88.0707 35.1013 87.526 35.7853 87.146C36.482 86.7533 37.3053 86.557 38.2553 86.557C38.838 86.557 39.4143 86.6583 39.9843 86.861C40.5543 87.051 41.023 87.3297 41.3903 87.697L40.7823 89.046C40.4403 88.7167 40.054 88.476 39.6233 88.324C39.1926 88.1593 38.7873 88.077 38.4073 88.077C37.508 88.077 36.8113 88.362 36.3173 88.932C35.836 89.4893 35.5953 90.2873 35.5953 91.326C35.5953 92.3647 35.836 93.1817 36.3173 93.777C36.8113 94.3597 37.508 94.651 38.4073 94.651C38.7873 94.651 39.1926 94.575 39.6233 94.423C40.054 94.2583 40.4403 94.0113 40.7823 93.682L41.3903 95.05C41.023 95.392 40.548 95.6643 39.9653 95.867C39.3953 96.0697 38.8253 96.171 38.2553 96.171ZM46.8819 96.171C45.9445 96.171 45.1339 95.9747 44.4499 95.582C43.7785 95.1893 43.2529 94.632 42.8729 93.91C42.4929 93.188 42.3029 92.3393 42.3029 91.364C42.3029 90.376 42.4929 89.5273 42.8729 88.818C43.2529 88.096 43.7785 87.5387 44.4499 87.146C45.1339 86.7533 45.9445 86.557 46.8819 86.557C47.8065 86.557 48.6045 86.7533 49.2759 87.146C49.9599 87.5387 50.4919 88.096 50.8719 88.818C51.2519 89.54 51.4419 90.3887 51.4419 91.364C51.4419 92.3393 51.2519 93.188 50.8719 93.91C50.4919 94.632 49.9599 95.1893 49.2759 95.582C48.6045 95.9747 47.8065 96.171 46.8819 96.171ZM46.8629 94.689C47.6609 94.689 48.3005 94.404 48.7819 93.834C49.2632 93.264 49.5039 92.4407 49.5039 91.364C49.5039 90.2747 49.2632 89.4513 48.7819 88.894C48.3005 88.3367 47.6609 88.058 46.8629 88.058C46.0775 88.058 45.4442 88.3367 44.9629 88.894C44.4815 89.4513 44.2409 90.2747 44.2409 91.364C44.2409 92.4407 44.4815 93.264 44.9629 93.834C45.4442 94.404 46.0775 94.689 46.8629 94.689ZM53.635 96V86.728H55.497V88.704H55.288C55.4527 88.248 55.6807 87.8617 55.972 87.545C56.2634 87.2283 56.6117 86.9877 57.017 86.823C57.435 86.6457 57.891 86.557 58.385 86.557C59.1577 86.557 59.7847 86.7407 60.266 87.108C60.7474 87.4753 61.0767 88.039 61.254 88.799H60.988C61.2287 88.1023 61.6404 87.5577 62.223 87.165C62.8057 86.7597 63.4834 86.557 64.256 86.557C64.9654 86.557 65.548 86.6963 66.004 86.975C66.46 87.241 66.802 87.6527 67.03 88.21C67.258 88.7547 67.372 89.445 67.372 90.281V96H65.453V90.376C65.453 89.5907 65.3137 89.0143 65.035 88.647C64.769 88.2797 64.3257 88.096 63.705 88.096C63.249 88.096 62.85 88.2037 62.508 88.419C62.166 88.6343 61.9 88.951 61.71 89.369C61.5327 89.7743 61.444 90.2557 61.444 90.813V96H59.525V90.376C59.525 89.5907 59.392 89.0143 59.126 88.647C58.86 88.2797 58.4167 88.096 57.796 88.096C57.3274 88.096 56.922 88.2037 56.58 88.419C56.2507 88.6343 55.9974 88.951 55.82 89.369C55.6427 89.7743 55.554 90.2557 55.554 90.813V96H53.635ZM74.4061 96.171C73.3927 96.171 72.5187 95.981 71.7841 95.601C71.0621 95.2083 70.4984 94.6573 70.0931 93.948C69.7004 93.226 69.5041 92.371 69.5041 91.383C69.5041 90.4203 69.7004 89.578 70.0931 88.856C70.4857 88.134 71.0241 87.5703 71.7081 87.165C72.3921 86.7597 73.1711 86.557 74.0451 86.557C74.9064 86.557 75.6411 86.747 76.2491 87.127C76.8697 87.4943 77.3447 88.02 77.6741 88.704C78.0034 89.388 78.1681 90.205 78.1681 91.155V91.801H71.0241V90.623H76.8761L76.5531 90.889C76.5531 89.939 76.3441 89.2043 75.9261 88.685C75.5081 88.1657 74.9064 87.906 74.1211 87.906C73.5257 87.906 73.0191 88.0453 72.6011 88.324C72.1957 88.6027 71.8854 88.989 71.6701 89.483C71.4547 89.977 71.3471 90.5533 71.3471 91.212V91.326C71.3471 92.0607 71.4611 92.6813 71.6891 93.188C71.9297 93.682 72.2781 94.0557 72.7341 94.309C73.1901 94.5623 73.7537 94.689 74.4251 94.689C74.9571 94.689 75.4764 94.6067 75.9831 94.442C76.5024 94.2647 76.9901 93.9923 77.4461 93.625L78.0161 94.955C77.5981 95.335 77.0597 95.6327 76.4011 95.848C75.7424 96.0633 75.0774 96.171 74.4061 96.171ZM90.8183 96V93.283H84.7953V91.82L91.1603 82.605H92.7753V91.63H94.7323V93.283H92.7753V96H90.8183ZM90.8183 91.63V84.961H91.3313L86.3913 92.162V91.63H90.8183ZM96.6819 96V86.728H98.5439V88.704H98.3349C98.4996 88.248 98.7276 87.8617 99.0189 87.545C99.3103 87.2283 99.6586 86.9877 100.064 86.823C100.482 86.6457 100.938 86.557 101.432 86.557C102.205 86.557 102.832 86.7407 103.313 87.108C103.794 87.4753 104.124 88.039 104.301 88.799H104.035C104.276 88.1023 104.687 87.5577 105.27 87.165C105.853 86.7597 106.53 86.557 107.303 86.557C108.012 86.557 108.595 86.6963 109.051 86.975C109.507 87.241 109.849 87.6527 110.077 88.21C110.305 88.7547 110.419 89.445 110.419 90.281V96H108.5V90.376C108.5 89.5907 108.361 89.0143 108.082 88.647C107.816 88.2797 107.373 88.096 106.752 88.096C106.296 88.096 105.897 88.2037 105.555 88.419C105.213 88.6343 104.947 88.951 104.757 89.369C104.58 89.7743 104.491 90.2557 104.491 90.813V96H102.572V90.376C102.572 89.5907 102.439 89.0143 102.173 88.647C101.907 88.2797 101.464 88.096 100.843 88.096C100.374 88.096 99.9689 88.2037 99.6269 88.419C99.2976 88.6343 99.0443 88.951 98.8669 89.369C98.6896 89.7743 98.6009 90.2557 98.6009 90.813V96H96.6819ZM118.093 99.42V86.728H119.974V88.818H119.765C119.968 88.134 120.367 87.5893 120.962 87.184C121.557 86.766 122.26 86.557 123.071 86.557C123.894 86.557 124.61 86.7533 125.218 87.146C125.839 87.5387 126.314 88.0897 126.643 88.799C126.985 89.5083 127.156 90.3633 127.156 91.364C127.156 92.3393 126.985 93.1943 126.643 93.929C126.314 94.651 125.845 95.2083 125.237 95.601C124.629 95.981 123.907 96.171 123.071 96.171C122.273 96.171 121.576 95.9683 120.981 95.563C120.386 95.1577 119.987 94.6193 119.784 93.948H120.012V99.42H118.093ZM122.596 94.689C123.394 94.689 124.027 94.404 124.496 93.834C124.977 93.264 125.218 92.4407 125.218 91.364C125.218 90.2747 124.977 89.4513 124.496 88.894C124.027 88.3367 123.394 88.058 122.596 88.058C121.811 88.058 121.177 88.3367 120.696 88.894C120.215 89.4513 119.974 90.2747 119.974 91.364C119.974 92.4407 120.215 93.264 120.696 93.834C121.177 94.404 121.811 94.689 122.596 94.689ZM132.283 96.171C131.637 96.171 131.054 96.0443 130.535 95.791C130.028 95.5377 129.629 95.1957 129.338 94.765C129.046 94.3343 128.901 93.8467 128.901 93.302C128.901 92.618 129.072 92.0797 129.414 91.687C129.768 91.2817 130.345 90.9967 131.143 90.832C131.953 90.6547 133.043 90.566 134.411 90.566H135.304V91.744H134.43C133.746 91.744 133.169 91.7693 132.701 91.82C132.232 91.8707 131.858 91.953 131.58 92.067C131.301 92.1683 131.098 92.314 130.972 92.504C130.858 92.694 130.801 92.922 130.801 93.188C130.801 93.6693 130.965 94.062 131.295 94.366C131.624 94.6573 132.08 94.803 132.663 94.803C133.131 94.803 133.543 94.6953 133.898 94.48C134.252 94.252 134.531 93.948 134.734 93.568C134.949 93.188 135.057 92.751 135.057 92.257V90.072C135.057 89.35 134.905 88.8307 134.601 88.514C134.297 88.1973 133.796 88.039 133.1 88.039C132.568 88.039 132.036 88.1213 131.504 88.286C130.972 88.438 130.427 88.685 129.87 89.027L129.281 87.678C129.61 87.45 129.99 87.2537 130.421 87.089C130.851 86.9243 131.301 86.7977 131.77 86.709C132.251 86.6077 132.713 86.557 133.157 86.557C134.005 86.557 134.702 86.69 135.247 86.956C135.804 87.222 136.216 87.6273 136.482 88.172C136.748 88.7167 136.881 89.4197 136.881 90.281V96H135.076V93.929H135.247C135.145 94.3977 134.955 94.803 134.677 95.145C134.411 95.4743 134.075 95.7277 133.67 95.905C133.264 96.0823 132.802 96.171 132.283 96.171ZM143.609 96.171C142.659 96.171 141.835 95.9747 141.139 95.582C140.455 95.1767 139.923 94.613 139.543 93.891C139.163 93.1563 138.973 92.295 138.973 91.307C138.973 90.3317 139.163 89.4893 139.543 88.78C139.923 88.0707 140.455 87.526 141.139 87.146C141.835 86.7533 142.659 86.557 143.609 86.557C144.191 86.557 144.768 86.6583 145.338 86.861C145.908 87.051 146.376 87.3297 146.744 87.697L146.136 89.046C145.794 88.7167 145.407 88.476 144.977 88.324C144.546 88.1593 144.141 88.077 143.761 88.077C142.861 88.077 142.165 88.362 141.671 88.932C141.189 89.4893 140.949 90.2873 140.949 91.326C140.949 92.3647 141.189 93.1817 141.671 93.777C142.165 94.3597 142.861 94.651 143.761 94.651C144.141 94.651 144.546 94.575 144.977 94.423C145.407 94.2583 145.794 94.0113 146.136 93.682L146.744 95.05C146.376 95.392 145.901 95.6643 145.319 95.867C144.749 96.0697 144.179 96.171 143.609 96.171ZM148.393 96V82.605H150.312V90.775H150.35L154.378 86.728H156.753L151.87 91.63V90.737L157.095 96H154.701L150.35 91.763H150.312V96H148.393ZM161.272 96.171C160.778 96.171 160.296 96.1267 159.828 96.038C159.359 95.9493 158.928 95.8227 158.536 95.658C158.143 95.4933 157.795 95.2907 157.491 95.05L158.042 93.758C158.358 93.9733 158.694 94.1633 159.049 94.328C159.403 94.48 159.771 94.594 160.151 94.67C160.543 94.746 160.923 94.784 161.291 94.784C161.962 94.784 162.469 94.6637 162.811 94.423C163.153 94.1823 163.324 93.8593 163.324 93.454C163.324 93.1247 163.21 92.8713 162.982 92.694C162.754 92.504 162.412 92.3583 161.956 92.257L160.151 91.896C159.365 91.7313 158.77 91.44 158.365 91.022C157.959 90.604 157.757 90.072 157.757 89.426C157.757 88.8433 157.915 88.3367 158.232 87.906C158.548 87.4753 158.992 87.146 159.562 86.918C160.132 86.6773 160.79 86.557 161.538 86.557C161.968 86.557 162.386 86.6013 162.792 86.69C163.197 86.7787 163.577 86.9053 163.932 87.07C164.299 87.2347 164.609 87.4437 164.863 87.697L164.312 88.989C164.071 88.7737 163.792 88.59 163.476 88.438C163.172 88.286 162.855 88.172 162.526 88.096C162.196 88.0073 161.867 87.963 161.538 87.963C160.866 87.963 160.36 88.0897 160.018 88.343C159.688 88.5837 159.524 88.913 159.524 89.331C159.524 89.6477 159.625 89.9073 159.828 90.11C160.03 90.3127 160.347 90.4583 160.778 90.547L162.583 90.908C163.406 91.0727 164.027 91.3513 164.445 91.744C164.875 92.1367 165.091 92.6687 165.091 93.34C165.091 93.9227 164.932 94.4293 164.616 94.86C164.299 95.2907 163.849 95.62 163.267 95.848C162.697 96.0633 162.032 96.171 161.272 96.171Z" fill="black"/>
</svg>
