<svg width="181" height="33" viewBox="0 0 181 33" fill="none" xmlns="http://www.w3.org/2000/svg">
<path d="M30.2756 0H204V33H0L30.2756 0Z" fill="url(#paint0_linear_182_2)"/>
<path d="M23.1321 19V17.71H24.7821V13.25L25.5221 13.28L23.5021 14.47L22.9021 13.31L25.2321 11.95H26.3421V17.71H27.8821V19H23.1321ZM31.1982 19.11C30.6249 19.11 30.1416 18.97 29.7482 18.69C29.3549 18.4033 29.0582 17.99 28.8582 17.45C28.6582 16.9033 28.5582 16.24 28.5582 15.46C28.5582 14.6733 28.6582 14.0133 28.8582 13.48C29.0582 12.94 29.3549 12.5333 29.7482 12.26C30.1416 11.98 30.6249 11.84 31.1982 11.84C31.7782 11.84 32.2649 11.98 32.6582 12.26C33.0516 12.5333 33.3449 12.94 33.5382 13.48C33.7382 14.0133 33.8382 14.67 33.8382 15.45C33.8382 16.23 33.7382 16.8933 33.5382 17.44C33.3382 17.98 33.0416 18.3933 32.6482 18.68C32.2616 18.9667 31.7782 19.11 31.1982 19.11ZM31.1982 17.83C31.5849 17.83 31.8716 17.64 32.0582 17.26C32.2449 16.88 32.3382 16.2767 32.3382 15.45C32.3382 14.6367 32.2449 14.0467 32.0582 13.68C31.8716 13.3067 31.5849 13.12 31.1982 13.12C30.8182 13.12 30.5316 13.3067 30.3382 13.68C30.1516 14.0467 30.0582 14.64 30.0582 15.46C30.0582 16.2733 30.1516 16.8733 30.3382 17.26C30.5249 17.64 30.8116 17.83 31.1982 17.83ZM37.1943 19.11C36.621 19.11 36.1377 18.97 35.7443 18.69C35.351 18.4033 35.0543 17.99 34.8543 17.45C34.6543 16.9033 34.5543 16.24 34.5543 15.46C34.5543 14.6733 34.6543 14.0133 34.8543 13.48C35.0543 12.94 35.351 12.5333 35.7443 12.26C36.1377 11.98 36.621 11.84 37.1943 11.84C37.7743 11.84 38.261 11.98 38.6543 12.26C39.0477 12.5333 39.341 12.94 39.5343 13.48C39.7343 14.0133 39.8343 14.67 39.8343 15.45C39.8343 16.23 39.7343 16.8933 39.5343 17.44C39.3343 17.98 39.0377 18.3933 38.6443 18.68C38.2577 18.9667 37.7743 19.11 37.1943 19.11ZM37.1943 17.83C37.581 17.83 37.8677 17.64 38.0543 17.26C38.241 16.88 38.3343 16.2767 38.3343 15.45C38.3343 14.6367 38.241 14.0467 38.0543 13.68C37.8677 13.3067 37.581 13.12 37.1943 13.12C36.8143 13.12 36.5277 13.3067 36.3343 13.68C36.1477 14.0467 36.0543 14.64 36.0543 15.46C36.0543 16.2733 36.1477 16.8733 36.3343 17.26C36.521 17.64 36.8077 17.83 37.1943 17.83ZM43.4404 19.3L42.4704 18.73L46.5704 11.65L47.5404 12.22L43.4404 19.3ZM42.4104 16.15C42.0238 16.15 41.6904 16.0633 41.4104 15.89C41.1371 15.71 40.9271 15.46 40.7804 15.14C40.6338 14.8133 40.5604 14.43 40.5604 13.99C40.5604 13.3233 40.7238 12.8 41.0504 12.42C41.3838 12.0333 41.8371 11.84 42.4104 11.84C42.7971 11.84 43.1271 11.93 43.4004 12.11C43.6804 12.2833 43.8938 12.53 44.0404 12.85C44.1938 13.17 44.2704 13.55 44.2704 13.99C44.2704 14.43 44.1938 14.8133 44.0404 15.14C43.8938 15.46 43.6804 15.71 43.4004 15.89C43.1271 16.0633 42.7971 16.15 42.4104 16.15ZM42.4104 15.19C42.6171 15.19 42.7771 15.0967 42.8904 14.91C43.0038 14.7167 43.0604 14.41 43.0604 13.99C43.0604 13.57 43.0004 13.27 42.8804 13.09C42.7671 12.9033 42.6104 12.81 42.4104 12.81C42.2104 12.81 42.0504 12.9 41.9304 13.08C41.8171 13.2533 41.7604 13.5567 41.7604 13.99C41.7604 14.4233 41.8171 14.7333 41.9304 14.92C42.0504 15.1 42.2104 15.19 42.4104 15.19ZM47.6004 19.11C47.2204 19.11 46.8904 19.02 46.6104 18.84C46.3371 18.66 46.1238 18.41 45.9704 18.09C45.8238 17.7633 45.7504 17.38 45.7504 16.94C45.7504 16.28 45.9171 15.76 46.2504 15.38C46.5838 14.9933 47.0338 14.8 47.6004 14.8C47.9871 14.8 48.3171 14.8867 48.5904 15.06C48.8704 15.2333 49.0838 15.48 49.2304 15.8C49.3838 16.12 49.4604 16.5 49.4604 16.94C49.4604 17.38 49.3871 17.7633 49.2404 18.09C49.0938 18.41 48.8804 18.66 48.6004 18.84C48.3271 19.02 47.9938 19.11 47.6004 19.11ZM47.6004 18.14C47.8071 18.14 47.9671 18.0467 48.0804 17.86C48.1938 17.6733 48.2504 17.3667 48.2504 16.94C48.2504 16.52 48.1938 16.22 48.0804 16.04C47.9671 15.8533 47.8071 15.76 47.6004 15.76C47.4004 15.76 47.2438 15.85 47.1304 16.03C47.0171 16.2033 46.9604 16.5067 46.9604 16.94C46.9604 17.3733 47.0171 17.6833 47.1304 17.87C47.2438 18.05 47.4004 18.14 47.6004 18.14ZM55.1497 19V15.37L55.4597 16.35L52.4597 11.95H54.2597L56.0597 14.64H55.8697L57.6797 11.95H59.4297L56.4397 16.35L56.7397 15.37V19H55.1497ZM61.395 19.11C60.855 19.11 60.385 19.0033 59.985 18.79C59.585 18.5767 59.275 18.2767 59.055 17.89C58.8416 17.4967 58.735 17.04 58.735 16.52C58.735 15.9933 58.8416 15.5367 59.055 15.15C59.275 14.7633 59.585 14.4667 59.985 14.26C60.385 14.0467 60.855 13.94 61.395 13.94C61.935 13.94 62.4016 14.0467 62.795 14.26C63.195 14.4667 63.505 14.7633 63.725 15.15C63.945 15.5367 64.055 15.9933 64.055 16.52C64.055 17.04 63.945 17.4967 63.725 17.89C63.505 18.2767 63.195 18.5767 62.795 18.79C62.4016 19.0033 61.935 19.11 61.395 19.11ZM61.395 17.92C61.735 17.92 62.005 17.8 62.205 17.56C62.4116 17.32 62.515 16.97 62.515 16.51C62.515 16.05 62.4116 15.7067 62.205 15.48C62.005 15.2467 61.735 15.13 61.395 15.13C61.055 15.13 60.7816 15.2467 60.575 15.48C60.375 15.7067 60.275 16.05 60.275 16.51C60.275 16.97 60.375 17.32 60.575 17.56C60.7816 17.8 61.055 17.92 61.395 17.92ZM66.968 19.11C66.5547 19.11 66.208 19.0333 65.928 18.88C65.648 18.72 65.438 18.4833 65.298 18.17C65.158 17.8567 65.088 17.46 65.088 16.98V14.04H66.648V16.98C66.648 17.1733 66.6747 17.3367 66.728 17.47C66.7813 17.6033 66.8647 17.7033 66.978 17.77C67.098 17.8367 67.248 17.87 67.428 17.87C67.6213 17.87 67.7947 17.8233 67.948 17.73C68.1013 17.6367 68.2213 17.5067 68.308 17.34C68.3947 17.1733 68.438 16.9833 68.438 16.77V14.04H69.998V19H68.528V18.02H68.608C68.4547 18.3667 68.238 18.6367 67.958 18.83C67.678 19.0167 67.348 19.11 66.968 19.11ZM71.2994 19V14.04H72.7394V15.27H72.6994C72.7927 14.8767 72.9727 14.5667 73.2394 14.34C73.5127 14.1133 73.8661 13.9867 74.2994 13.96L74.8294 13.92L74.9394 15.28L74.0094 15.37C73.6294 15.4033 73.3427 15.52 73.1494 15.72C72.9627 15.92 72.8694 16.19 72.8694 16.53V19H71.2994ZM80.4143 19V13.27H78.0843V11.95H84.3343V13.27H82.0043V19H80.4143ZM84.3365 19V14.04H85.7765V15.27H85.7365C85.8299 14.8767 86.0099 14.5667 86.2765 14.34C86.5499 14.1133 86.9032 13.9867 87.3365 13.96L87.8665 13.92L87.9765 15.28L87.0465 15.37C86.6665 15.4033 86.3799 15.52 86.1865 15.72C85.9999 15.92 85.9065 16.19 85.9065 16.53V19H84.3365ZM90.5911 19.11C90.1777 19.11 89.8311 19.0333 89.5511 18.88C89.2711 18.72 89.0611 18.4833 88.9211 18.17C88.7811 17.8567 88.7111 17.46 88.7111 16.98V14.04H90.2711V16.98C90.2711 17.1733 90.2977 17.3367 90.3511 17.47C90.4044 17.6033 90.4877 17.7033 90.6011 17.77C90.7211 17.8367 90.8711 17.87 91.0511 17.87C91.2444 17.87 91.4177 17.8233 91.5711 17.73C91.7244 17.6367 91.8444 17.5067 91.9311 17.34C92.0177 17.1733 92.0611 16.9833 92.0611 16.77V14.04H93.6211V19H92.1511V18.02H92.2311C92.0777 18.3667 91.8611 18.6367 91.5811 18.83C91.3011 19.0167 90.9711 19.11 90.5911 19.11ZM96.8825 19.11C96.5825 19.11 96.2925 19.0867 96.0125 19.04C95.7391 19 95.4858 18.94 95.2525 18.86C95.0258 18.78 94.8258 18.68 94.6525 18.56L95.0225 17.54C95.1958 17.64 95.3825 17.7267 95.5825 17.8C95.7891 17.8733 95.9991 17.93 96.2125 17.97C96.4325 18.0033 96.6458 18.02 96.8525 18.02C97.1658 18.02 97.3958 17.98 97.5425 17.9C97.6891 17.8133 97.7625 17.6967 97.7625 17.55C97.7625 17.4233 97.7158 17.3267 97.6225 17.26C97.5358 17.1933 97.4025 17.1467 97.2225 17.12L96.1225 16.95C95.6758 16.8767 95.3358 16.72 95.1025 16.48C94.8758 16.2333 94.7625 15.93 94.7625 15.57C94.7625 15.2433 94.8525 14.96 95.0325 14.72C95.2125 14.4733 95.4725 14.2833 95.8125 14.15C96.1591 14.01 96.5691 13.94 97.0425 13.94C97.2891 13.94 97.5325 13.96 97.7725 14C98.0125 14.04 98.2358 14.1 98.4425 14.18C98.6558 14.2533 98.8425 14.3533 99.0025 14.48L98.6025 15.49C98.4691 15.39 98.3158 15.3067 98.1425 15.24C97.9691 15.1667 97.7858 15.1133 97.5925 15.08C97.4058 15.04 97.2291 15.02 97.0625 15.02C96.7358 15.02 96.4991 15.0633 96.3525 15.15C96.2058 15.2367 96.1325 15.3567 96.1325 15.51C96.1325 15.6233 96.1725 15.7167 96.2525 15.79C96.3391 15.8567 96.4691 15.9033 96.6425 15.93L97.7125 16.1C98.1925 16.18 98.5491 16.3333 98.7825 16.56C99.0225 16.7867 99.1425 17.0933 99.1425 17.48C99.1425 17.82 99.0491 18.1133 98.8625 18.36C98.6758 18.6 98.4125 18.7867 98.0725 18.92C97.7325 19.0467 97.3358 19.11 96.8825 19.11ZM102.529 19.11C101.803 19.11 101.266 18.9333 100.919 18.58C100.573 18.2267 100.399 17.7133 100.399 17.04V15.2H99.4492V14.04H100.439V12.63H101.949V14.04H103.509V15.2H101.949V16.99C101.949 17.2767 102.019 17.4933 102.159 17.64C102.299 17.78 102.516 17.85 102.809 17.85C102.909 17.85 103.013 17.84 103.119 17.82C103.233 17.7933 103.346 17.7633 103.459 17.73L103.679 18.86C103.519 18.94 103.339 19 103.139 19.04C102.939 19.0867 102.736 19.11 102.529 19.11ZM106.987 19.11C106.373 19.11 105.85 19.0033 105.417 18.79C104.983 18.5767 104.653 18.2767 104.427 17.89C104.2 17.5033 104.087 17.0467 104.087 16.52C104.087 16.02 104.193 15.5767 104.407 15.19C104.627 14.8033 104.93 14.5 105.317 14.28C105.71 14.0533 106.167 13.94 106.687 13.94C107.173 13.94 107.597 14.0433 107.957 14.25C108.317 14.45 108.597 14.7433 108.797 15.13C108.997 15.51 109.097 15.9633 109.097 16.49V16.89H105.347V16.06H107.947L107.807 16.21C107.807 15.7967 107.713 15.4867 107.527 15.28C107.34 15.0733 107.077 14.97 106.737 14.97C106.49 14.97 106.277 15.0267 106.097 15.14C105.923 15.2467 105.787 15.4033 105.687 15.61C105.593 15.8167 105.547 16.07 105.547 16.37V16.48C105.547 16.82 105.6 17.1 105.707 17.32C105.813 17.5333 105.977 17.6933 106.197 17.8C106.423 17.9 106.703 17.95 107.037 17.95C107.297 17.95 107.563 17.9133 107.837 17.84C108.117 17.7667 108.363 17.6533 108.577 17.5L108.987 18.53C108.727 18.7167 108.417 18.86 108.057 18.96C107.697 19.06 107.34 19.11 106.987 19.11ZM112.068 19.11C111.621 19.11 111.231 19.0033 110.898 18.79C110.565 18.5767 110.308 18.2767 110.128 17.89C109.948 17.4967 109.858 17.04 109.858 16.52C109.858 16 109.948 15.5467 110.128 15.16C110.308 14.7733 110.561 14.4733 110.888 14.26C111.221 14.0467 111.608 13.94 112.048 13.94C112.441 13.94 112.781 14.03 113.068 14.21C113.355 14.39 113.558 14.6233 113.678 14.91H113.618V11.95H115.178V19H113.718V18.03H113.758C113.631 18.37 113.418 18.6367 113.118 18.83C112.818 19.0167 112.468 19.11 112.068 19.11ZM112.528 17.94C112.875 17.94 113.148 17.82 113.348 17.58C113.548 17.34 113.648 16.9867 113.648 16.52C113.648 16.0467 113.548 15.6933 113.348 15.46C113.148 15.2267 112.875 15.11 112.528 15.11C112.188 15.11 111.915 15.2267 111.708 15.46C111.508 15.6933 111.408 16.0467 111.408 16.52C111.408 16.9867 111.508 17.34 111.708 17.58C111.915 17.82 112.188 17.94 112.528 17.94ZM119.516 19V11.95H121.096V19H119.516ZM122.7 19V11.95H124.17L126.55 16.41H126.35L128.72 11.95H130.16V19H128.7V14.34H128.82L126.89 17.9H125.96L124.02 14.34H124.15V19H122.7ZM131.752 19V11.95H133.332V17.66H136.602V19H131.752ZM140.58 19V11.95H143.87C144.39 11.95 144.833 12.04 145.2 12.22C145.573 12.4 145.857 12.66 146.05 13C146.25 13.3333 146.35 13.7367 146.35 14.21C146.35 14.6767 146.25 15.08 146.05 15.42C145.857 15.76 145.573 16.0233 145.2 16.21C144.833 16.3967 144.39 16.49 143.87 16.49H142.16V19H140.58ZM142.16 15.24H143.59C143.99 15.24 144.29 15.1567 144.49 14.99C144.697 14.8167 144.8 14.56 144.8 14.22C144.8 13.8733 144.697 13.6167 144.49 13.45C144.29 13.2833 143.99 13.2 143.59 13.2H142.16V15.24ZM148.83 19.11C148.463 19.11 148.133 19.04 147.84 18.9C147.553 18.7533 147.327 18.56 147.16 18.32C146.993 18.08 146.91 17.8067 146.91 17.5C146.91 17.14 147.01 16.8533 147.21 16.64C147.41 16.42 147.723 16.26 148.15 16.16C148.583 16.06 149.153 16.01 149.86 16.01H150.45V16.82H149.9C149.64 16.82 149.417 16.8333 149.23 16.86C149.043 16.88 148.89 16.9133 148.77 16.96C148.65 17.0067 148.56 17.07 148.5 17.15C148.447 17.2233 148.42 17.3167 148.42 17.43C148.42 17.6233 148.49 17.7767 148.63 17.89C148.77 17.9967 148.96 18.05 149.2 18.05C149.4 18.05 149.58 18.0067 149.74 17.92C149.9 17.8267 150.027 17.7 150.12 17.54C150.22 17.3733 150.27 17.1867 150.27 16.98V15.87C150.27 15.5767 150.19 15.37 150.03 15.25C149.877 15.13 149.623 15.07 149.27 15.07C149.01 15.07 148.73 15.11 148.43 15.19C148.137 15.27 147.833 15.3933 147.52 15.56L147.12 14.53C147.32 14.41 147.547 14.3067 147.8 14.22C148.06 14.1267 148.33 14.0567 148.61 14.01C148.89 13.9633 149.163 13.94 149.43 13.94C149.937 13.94 150.363 14.0167 150.71 14.17C151.057 14.3167 151.317 14.5467 151.49 14.86C151.67 15.1733 151.76 15.58 151.76 16.08V19H150.38V18.01H150.4C150.34 18.23 150.237 18.4233 150.09 18.59C149.95 18.75 149.773 18.8767 149.56 18.97C149.353 19.0633 149.11 19.11 148.83 19.11ZM153.028 19V14.04H154.468V15.27H154.428C154.521 14.8767 154.701 14.5667 154.968 14.34C155.241 14.1133 155.595 13.9867 156.028 13.96L156.558 13.92L156.668 15.28L155.738 15.37C155.358 15.4033 155.071 15.52 154.878 15.72C154.691 15.92 154.598 16.19 154.598 16.53V19H153.028ZM160.185 19.11C159.459 19.11 158.922 18.9333 158.575 18.58C158.229 18.2267 158.055 17.7133 158.055 17.04V15.2H157.105V14.04H158.095V12.63H159.605V14.04H161.165V15.2H159.605V16.99C159.605 17.2767 159.675 17.4933 159.815 17.64C159.955 17.78 160.172 17.85 160.465 17.85C160.565 17.85 160.669 17.84 160.775 17.82C160.889 17.7933 161.002 17.7633 161.115 17.73L161.335 18.86C161.175 18.94 160.995 19 160.795 19.04C160.595 19.0867 160.392 19.11 160.185 19.11ZM162.042 19V14.04H163.512V14.99H163.462C163.622 14.65 163.855 14.39 164.162 14.21C164.475 14.03 164.825 13.94 165.212 13.94C165.612 13.94 165.945 14.0167 166.212 14.17C166.478 14.3233 166.678 14.56 166.812 14.88C166.945 15.1933 167.012 15.5933 167.012 16.08V19H165.452V16.14C165.452 15.9133 165.422 15.73 165.362 15.59C165.308 15.45 165.225 15.3467 165.112 15.28C164.998 15.2067 164.852 15.17 164.672 15.17C164.458 15.17 164.272 15.2167 164.112 15.31C163.952 15.4033 163.825 15.5367 163.732 15.71C163.645 15.8767 163.602 16.07 163.602 16.29V19H162.042ZM170.932 19.11C170.319 19.11 169.795 19.0033 169.362 18.79C168.929 18.5767 168.599 18.2767 168.372 17.89C168.145 17.5033 168.032 17.0467 168.032 16.52C168.032 16.02 168.139 15.5767 168.352 15.19C168.572 14.8033 168.875 14.5 169.262 14.28C169.655 14.0533 170.112 13.94 170.632 13.94C171.119 13.94 171.542 14.0433 171.902 14.25C172.262 14.45 172.542 14.7433 172.742 15.13C172.942 15.51 173.042 15.9633 173.042 16.49V16.89H169.292V16.06H171.892L171.752 16.21C171.752 15.7967 171.659 15.4867 171.472 15.28C171.285 15.0733 171.022 14.97 170.682 14.97C170.435 14.97 170.222 15.0267 170.042 15.14C169.869 15.2467 169.732 15.4033 169.632 15.61C169.539 15.8167 169.492 16.07 169.492 16.37V16.48C169.492 16.82 169.545 17.1 169.652 17.32C169.759 17.5333 169.922 17.6933 170.142 17.8C170.369 17.9 170.649 17.95 170.982 17.95C171.242 17.95 171.509 17.9133 171.782 17.84C172.062 17.7667 172.309 17.6533 172.522 17.5L172.932 18.53C172.672 18.7167 172.362 18.86 172.002 18.96C171.642 19.06 171.285 19.11 170.932 19.11ZM174.053 19V14.04H175.493V15.27H175.453C175.547 14.8767 175.727 14.5667 175.993 14.34C176.267 14.1133 176.62 13.9867 177.053 13.96L177.583 13.92L177.693 15.28L176.763 15.37C176.383 15.4033 176.097 15.52 175.903 15.72C175.717 15.92 175.623 16.19 175.623 16.53V19H174.053Z" fill="white"/>
<defs>
<linearGradient id="paint0_linear_182_2" x1="0" y1="16.5" x2="204" y2="16.5" gradientUnits="userSpaceOnUse">
<stop stop-color="#B2201A"/>
<stop offset="0.5" stop-color="#BC2621"/>
<stop offset="0.932692" stop-color="#B4211C"/>
</linearGradient>
</defs>
</svg>
