<svg width="291" height="46" viewBox="0 0 291 46" fill="none" xmlns="http://www.w3.org/2000/svg">
<g clip-path="url(#clip0_172_92)">
<path fill-rule="evenodd" clip-rule="evenodd" d="M7.08984 0.0117925C7.51953 0.0235112 7.96484 0.0547612 8.14453 0.0899175C8.31641 0.121167 8.58203 0.179761 8.73047 0.214918C8.87891 0.250074 9.17969 0.339918 9.39453 0.418043C9.60937 0.492261 9.92578 0.625074 10.0977 0.711011C10.2695 0.796949 10.5156 0.929761 10.6445 1.00789C10.7734 1.08601 11.043 1.2657 11.2422 1.41414C11.4375 1.55867 11.7734 1.85164 11.9844 2.06257C12.1953 2.26961 12.4727 2.58211 12.6016 2.75398C12.7344 2.92586 12.9102 3.17976 13 3.32039C13.0859 3.46101 13.2578 3.77742 13.375 4.02351C13.4922 4.26961 13.6367 4.61336 13.6914 4.78523C13.75 4.95711 13.8359 5.28132 13.8867 5.50789C13.9375 5.73445 14 6.12117 14.0273 6.36726C14.0547 6.6407 14.0664 7.0157 14.0508 7.32429C14.0391 7.60554 14 7.99226 13.9648 8.18367C13.9336 8.37507 13.8594 8.7032 13.8008 8.90632C13.7461 9.10945 13.6484 9.41023 13.5859 9.57039C13.5234 9.73054 13.3945 10.0157 13.2969 10.2071C13.2031 10.3946 13.043 10.6759 12.7656 11.1134L13.6523 11.9884L13.8281 11.8282C13.9258 11.7423 14.0469 11.6563 14.1016 11.6368C14.1641 11.6134 14.2422 11.6134 14.3164 11.6407C14.3906 11.6641 15.375 12.6212 17.0547 14.3048C19.6406 16.8985 19.6758 16.9376 19.8047 17.2266C19.875 17.3868 19.9492 17.6329 19.9727 17.7735C19.9961 17.9454 19.9961 18.1212 19.9648 18.3204C19.9375 18.504 19.8711 18.7188 19.7852 18.8985C19.7109 19.0509 19.5664 19.2696 19.4609 19.379C19.3594 19.4884 19.1992 19.6251 19.1016 19.6798C19.0039 19.7384 18.8086 19.8321 18.6602 19.8907C18.4414 19.9805 18.3398 20.0001 18.0586 20.0001C17.8047 20.0001 17.6602 19.9805 17.5 19.918C17.3828 19.8712 17.1992 19.793 17.0898 19.7384C16.9414 19.6641 16.293 19.043 14.3008 17.0587C12.8789 15.6368 11.6875 14.418 11.6602 14.3555C11.6328 14.293 11.6172 14.1954 11.625 14.1407C11.6367 14.086 11.7227 13.9532 11.9883 13.6524L11.1133 12.7657L10.832 12.9454C10.6758 13.043 10.3945 13.2032 10.2031 13.2969C10.0156 13.3946 9.73047 13.5235 9.57031 13.586C9.41016 13.6485 9.10937 13.7462 8.90625 13.8009C8.70312 13.8594 8.375 13.9337 8.18359 13.9649C7.99219 14.0001 7.60547 14.0391 7.32422 14.0509C7.01562 14.0665 6.64062 14.0548 6.36719 14.0274C6.12109 14.0001 5.75781 13.9454 5.56641 13.9024C5.375 13.8594 5.04688 13.7735 4.84375 13.7071C4.64063 13.6407 4.26953 13.4923 4.02344 13.3712C3.77734 13.254 3.46094 13.086 3.32031 13.0001C3.17969 12.9102 2.92578 12.7345 2.75391 12.6016C2.58203 12.4727 2.26953 12.1954 2.05859 11.9844C1.85156 11.7735 1.55859 11.4376 1.41406 11.2384C1.26563 11.043 1.07812 10.7657 0.996094 10.6251C0.910156 10.4844 0.777344 10.2384 0.699219 10.0782C0.621094 9.91804 0.496094 9.60945 0.417969 9.39461C0.339844 9.17976 0.246094 8.85554 0.203125 8.67195C0.160156 8.48836 0.101562 8.19929 0.0742187 8.02742C0.046875 7.85554 0.0234375 7.40632 0.0234375 7.03132C0.0234375 6.65632 0.046875 6.20711 0.0742187 6.03523C0.101562 5.86336 0.164063 5.55476 0.214844 5.35164C0.265625 5.14851 0.363281 4.82039 0.433594 4.62898C0.5 4.43367 0.625 4.13679 0.710938 3.96492C0.796875 3.79304 0.929687 3.54695 1.00781 3.41804C1.08594 3.28914 1.26563 3.01961 1.41406 2.82039C1.55859 2.62507 1.85547 2.28523 2.07031 2.07039C2.28516 1.85554 2.625 1.55867 2.82422 1.41414C3.01953 1.2657 3.28906 1.08601 3.41797 1.00789C3.54688 0.929761 3.79297 0.796949 3.96484 0.711011C4.13672 0.625074 4.43359 0.500074 4.62891 0.433668C4.82422 0.363355 5.14844 0.265699 5.35156 0.214918C5.55469 0.164136 5.85547 0.101636 6.01562 0.0781987C6.17578 0.0547612 6.31641 0.0235112 6.32812 0.0156987C6.33984 0.00397999 6.67969 0.00397999 7.08984 0.0117925ZM5.78125 0.918043C5.59766 0.953199 5.30859 1.02742 5.13672 1.08211C4.96484 1.13289 4.66797 1.25007 4.47266 1.33992C4.27734 1.42586 3.98828 1.5782 3.82813 1.67195C3.66797 1.76961 3.40234 1.94929 3.24219 2.07039C3.08203 2.19148 2.80078 2.44148 2.62109 2.62117C2.44141 2.80086 2.19141 3.08211 2.07031 3.24226C1.94922 3.40242 1.76953 3.66804 1.67188 3.8282C1.57813 3.98836 1.42578 4.27742 1.33984 4.47273C1.25 4.66414 1.13281 4.96492 1.08203 5.13679C1.02734 5.30867 0.957031 5.58211 0.921875 5.74226C0.886719 5.90242 0.839844 6.25398 0.8125 6.52351C0.777344 6.89851 0.777344 7.13679 0.8125 7.53914C0.839844 7.8282 0.902344 8.24226 0.957031 8.45711C1.00781 8.67195 1.09375 8.97273 1.14453 9.12117C1.19922 9.26961 1.29688 9.50789 1.35938 9.64851C1.42188 9.78914 1.55859 10.043 1.66016 10.2149C1.76172 10.3868 1.94922 10.6602 2.07031 10.8204C2.19141 10.9805 2.44141 11.2618 2.62109 11.4415C2.80078 11.6212 3.08203 11.8712 3.24219 11.9923C3.40234 12.1173 3.66797 12.293 3.82813 12.3907C3.98828 12.4845 4.27734 12.6368 4.47266 12.7227C4.66797 12.8087 4.9375 12.918 5.07812 12.9649C5.21875 13.0079 5.48047 13.0782 5.66406 13.1212C5.84766 13.1641 6.16797 13.2188 6.37891 13.2384C6.58594 13.2618 6.91016 13.2813 7.09766 13.2813C7.28906 13.2813 7.61719 13.254 7.83203 13.2227C8.04687 13.1915 8.33594 13.1407 8.47656 13.1095C8.61719 13.0743 8.87891 12.9962 9.0625 12.9337C9.24609 12.8712 9.50781 12.7696 9.64844 12.7071C9.78906 12.6407 10.0352 12.5118 10.1953 12.4141C10.3555 12.3204 10.6211 12.1446 10.7812 12.0274C10.9414 11.9063 11.2383 11.6446 11.4414 11.4415C11.6445 11.2384 11.9023 10.9454 12.0195 10.7891C12.1328 10.6368 12.3008 10.3907 12.3867 10.2423C12.4766 10.0977 12.6094 9.84773 12.6836 9.68757C12.7578 9.52742 12.8633 9.26961 12.9141 9.12117C12.9687 8.97273 13.0469 8.70711 13.0898 8.53523C13.1328 8.36336 13.1953 8.03914 13.2266 7.81257C13.2539 7.58601 13.2812 7.23445 13.2812 7.03132C13.2812 6.8282 13.2539 6.47664 13.2266 6.25007C13.1953 6.02351 13.1328 5.69929 13.0898 5.52742C13.0469 5.35554 12.9687 5.08992 12.9141 4.94148C12.8633 4.79304 12.7656 4.55476 12.7031 4.41414C12.6406 4.27351 12.5039 4.01961 12.4023 3.84773C12.3008 3.67586 12.1172 3.40242 11.9922 3.24226C11.8711 3.08211 11.6211 2.80086 11.4414 2.62117C11.2617 2.44148 10.9805 2.19148 10.8203 2.07039C10.6602 1.94539 10.3789 1.75789 10.1953 1.65242C10.0117 1.54304 9.72266 1.39461 9.55078 1.32039C9.37891 1.24226 9.125 1.14461 8.98437 1.09773C8.84375 1.05476 8.58203 0.984449 8.39844 0.94148C8.21484 0.898511 7.88281 0.843824 7.65625 0.820386C7.42969 0.800855 7.11328 0.781324 6.95312 0.78523C6.79297 0.789136 6.53516 0.804761 6.38672 0.820386C6.23828 0.836011 5.96484 0.87898 5.78125 0.918043ZM11.7187 12.2852L12.5391 13.1055L13.1055 12.5391L12.2852 11.7188L11.7187 12.2852ZM12.5586 14.2188L13.6523 15.3126L15.3125 13.6524C14.4805 12.8204 14.2305 12.5782 14.2187 12.5782C14.207 12.5782 13.8281 12.9454 13.3789 13.3985L12.5586 14.2188ZM14.2148 15.879C17.1875 18.8399 17.4258 19.0626 17.5977 19.1251C17.7227 19.172 17.8906 19.1993 18.0664 19.1954C18.2539 19.1954 18.3945 19.172 18.5156 19.1173C18.6094 19.0743 18.7695 18.961 18.8633 18.8634C18.9609 18.7696 19.0742 18.6134 19.1172 18.5157C19.1758 18.3868 19.1953 18.2579 19.1953 18.047C19.1953 17.8243 19.1758 17.7071 19.1094 17.5587C19.0352 17.4024 18.6992 17.043 17.4492 15.7891L15.8789 14.2188L14.2148 15.879ZM6.98828 1.56648C7.17187 1.56257 7.50391 1.58601 7.73047 1.61726C7.95703 1.64851 8.27344 1.70711 8.43359 1.75007C8.59375 1.78914 8.90234 1.89851 9.11719 1.98836C9.33203 2.0782 9.63281 2.22273 9.78125 2.31257C9.93359 2.39851 10.1602 2.55086 10.2891 2.64851C10.418 2.74226 10.6602 2.95711 10.8281 3.12117C11 3.28132 11.2383 3.54695 11.3594 3.71101C11.4844 3.87117 11.6563 4.12507 11.7461 4.27742C11.8359 4.42586 11.9805 4.72664 12.0703 4.94148C12.1602 5.15632 12.2734 5.50007 12.3242 5.71101C12.375 5.92195 12.4375 6.29695 12.4648 6.55086C12.5 6.90242 12.5 7.12507 12.4609 7.50007C12.4375 7.7657 12.375 8.15242 12.3242 8.35945C12.2734 8.56257 12.1602 8.90632 12.0703 9.12117C11.9805 9.33601 11.8359 9.63289 11.7461 9.78523C11.6563 9.93367 11.5078 10.1641 11.4102 10.293C11.3125 10.4219 11.1016 10.6641 10.9375 10.8321C10.7734 11.0001 10.5078 11.2384 10.3477 11.3634C10.1875 11.4844 9.93359 11.6602 9.78125 11.7462C9.63281 11.836 9.36719 11.9688 9.19531 12.0469C9.02344 12.1212 8.72656 12.2266 8.53125 12.2813C8.33984 12.3399 8.00391 12.4102 7.78906 12.4415C7.57422 12.4727 7.24219 12.4962 7.04687 12.4962C6.85547 12.4962 6.51172 12.4727 6.28516 12.4415C6.05859 12.4102 5.71875 12.3399 5.52344 12.2813C5.33203 12.2266 5.03125 12.1212 4.85938 12.0469C4.6875 11.9688 4.42578 11.836 4.27344 11.7462C4.125 11.6602 3.86719 11.4844 3.70703 11.3634C3.54688 11.2384 3.28125 11.0001 3.11719 10.8321C2.95313 10.6641 2.74219 10.4219 2.64453 10.293C2.55078 10.1641 2.39844 9.93367 2.30859 9.78523C2.21875 9.63289 2.07422 9.33601 1.98828 9.12117C1.89844 8.90632 1.78516 8.56257 1.73438 8.35945C1.68359 8.15242 1.62109 7.7657 1.59375 7.50007C1.55859 7.12507 1.55859 6.89851 1.59375 6.54304C1.62109 6.28523 1.68359 5.90632 1.73438 5.7032C1.78516 5.49617 1.87109 5.22664 1.92578 5.09773C1.97656 4.96882 2.05078 4.79304 2.08594 4.70711C2.12109 4.62117 2.22656 4.42586 2.3125 4.27742C2.39844 4.12507 2.57031 3.87117 2.69531 3.71101C2.81641 3.54695 3.05469 3.28132 3.22656 3.12117C3.39453 2.95711 3.63672 2.74226 3.76563 2.64851C3.89453 2.55086 4.125 2.39851 4.27344 2.31257C4.42578 2.22273 4.71484 2.0782 4.91797 1.99617C5.12109 1.91023 5.42969 1.80086 5.60156 1.75398C5.77344 1.70711 6.08203 1.64461 6.28516 1.61726C6.48828 1.58992 6.80469 1.56648 6.98828 1.56648ZM5.79687 2.51179C5.66797 2.54695 5.44922 2.61726 5.30859 2.67586C5.16797 2.73054 4.92188 2.84773 4.76172 2.93367C4.60156 3.02351 4.36328 3.17586 4.23438 3.27351C4.10547 3.37117 3.90625 3.54304 3.78906 3.64851C3.67578 3.75789 3.46875 3.98836 3.33594 4.16023C3.20313 4.33211 3.00391 4.63679 2.89453 4.84382C2.78516 5.04695 2.64453 5.37898 2.58203 5.58601C2.51562 5.78914 2.44141 6.07039 2.41406 6.21101C2.38672 6.34773 2.36328 6.71882 2.36328 7.03132C2.36328 7.42976 2.38281 7.69539 2.43359 7.92976C2.47266 8.10945 2.55469 8.41023 2.61719 8.59382C2.67969 8.77351 2.81641 9.07429 2.91406 9.25789C3.01172 9.43757 3.19531 9.71882 3.32031 9.88289C3.44141 10.043 3.64453 10.2735 3.77344 10.3946C3.89844 10.5157 4.125 10.7032 4.27344 10.8165C4.42578 10.9298 4.74219 11.1173 4.97656 11.2305C5.21484 11.3477 5.57422 11.4844 5.77734 11.5391C5.98047 11.5899 6.29687 11.6563 6.48047 11.6798C6.67969 11.711 6.98437 11.7188 7.24219 11.7032C7.48047 11.6915 7.83203 11.6446 8.02344 11.6055C8.21875 11.5626 8.5 11.4805 8.64844 11.4259C8.80078 11.3673 9.0625 11.2462 9.23437 11.1563C9.40625 11.0665 9.65234 10.9141 9.78125 10.8204C9.91016 10.7266 10.1289 10.5391 10.2656 10.4102C10.4023 10.2813 10.6211 10.0352 10.75 9.86336C10.8828 9.69148 11.0703 9.3907 11.1719 9.19929C11.2734 9.00398 11.3984 8.71492 11.4531 8.55476C11.5078 8.3907 11.5859 8.10945 11.625 7.92976C11.6719 7.69539 11.6953 7.42586 11.6953 7.03132C11.6953 6.63289 11.6719 6.36336 11.625 6.13289C11.5859 5.94929 11.5078 5.66804 11.4531 5.50789C11.3984 5.34382 11.2656 5.04695 11.1602 4.84382C11.0508 4.63679 10.8828 4.36726 10.7852 4.23836C10.6836 4.10945 10.5156 3.90632 10.4062 3.79304C10.3008 3.67586 10.0703 3.47273 9.89844 3.33601C9.72656 3.2032 9.41797 3.00398 9.21484 2.89851C9.01172 2.78914 8.71094 2.65632 8.55078 2.60164C8.39062 2.54695 8.11719 2.47664 7.94531 2.43757C7.77344 2.40242 7.41406 2.36726 7.14453 2.35945C6.84766 2.35164 6.53516 2.36336 6.34375 2.39851C6.17187 2.42586 5.92578 2.47664 5.79687 2.51179ZM6.94141 3.13679C7.16797 3.1407 7.19922 3.15242 7.30469 3.26961C7.36719 3.33992 7.41797 3.44148 7.41797 3.49617C7.41797 3.54695 7.39453 3.6407 7.36328 3.69929C7.33594 3.75789 7.26172 3.8282 7.19922 3.85164C7.13672 3.87898 6.95312 3.91023 6.79297 3.92195C6.63281 3.93367 6.37891 3.97664 6.22656 4.01961C6.07812 4.05867 5.86719 4.13289 5.75781 4.17976C5.65234 4.22273 5.44922 4.33992 5.30859 4.43367C5.16797 4.52351 4.95313 4.7032 4.82812 4.8282C4.70312 4.9532 4.52344 5.17195 4.42969 5.31257C4.33594 5.44929 4.21094 5.67976 4.15625 5.82039C4.09766 5.95711 4.01563 6.11336 3.96875 6.16023C3.92187 6.21101 3.83203 6.25789 3.76563 6.26961C3.70313 6.28523 3.60547 6.27351 3.55078 6.25007C3.49609 6.22664 3.42188 6.15242 3.37891 6.08211C3.33203 6.00007 3.3125 5.91414 3.32422 5.83992C3.33594 5.77351 3.41797 5.56257 3.50781 5.37117C3.60156 5.17586 3.75391 4.90242 3.85547 4.7657C3.95703 4.62507 4.14453 4.40242 4.27344 4.27351C4.40234 4.14461 4.62109 3.95711 4.76172 3.85945C4.90234 3.75789 5.14062 3.61726 5.28906 3.54304C5.44141 3.46882 5.67578 3.36726 5.81641 3.32039C5.95703 3.27351 6.21094 3.21101 6.38281 3.18367C6.55469 3.15242 6.80859 3.12898 6.94141 3.13679ZM3.50781 7.07039C3.57422 7.07039 3.67188 7.08992 3.72656 7.11726C3.78125 7.14461 3.85156 7.22273 3.88281 7.29304C3.92969 7.3907 3.93359 7.4532 3.90234 7.55867C3.87891 7.63679 3.81641 7.72273 3.75781 7.76179C3.69531 7.79695 3.60156 7.8282 3.54688 7.8282C3.49219 7.8282 3.39844 7.80476 3.34375 7.77351C3.28516 7.73836 3.22266 7.67195 3.19922 7.62507C3.17969 7.5782 3.16016 7.48445 3.16406 7.41804C3.16406 7.33992 3.20703 7.25398 3.27734 7.18367C3.35156 7.10554 3.42578 7.07039 3.50781 7.07039Z" fill="white"/>
</g>
<path d="M28.68 13V6.7H26.13V5.95H32.09V6.7H29.54V13H28.68ZM32.2692 13V8.1H33.0692V9.24H33.0292C33.1426 8.86 33.3426 8.57 33.6292 8.37C33.9226 8.16333 34.2926 8.04333 34.7392 8.01L35.1092 7.98L35.1892 8.74L34.5692 8.8C34.1092 8.84 33.7526 8.99 33.4992 9.25C33.2526 9.50333 33.1292 9.83667 33.1292 10.25V13H32.2692ZM37.6873 13.09C37.3473 13.09 37.0407 13.0267 36.7673 12.9C36.5007 12.7667 36.2873 12.5867 36.1273 12.36C35.974 12.1333 35.8973 11.88 35.8973 11.6C35.8973 11.2333 35.994 10.9433 36.1873 10.73C36.3873 10.5167 36.704 10.3667 37.1373 10.28C37.5707 10.1867 38.144 10.14 38.8573 10.14H39.4373V10.71H38.8873C38.4873 10.71 38.1507 10.7233 37.8773 10.75C37.604 10.7767 37.384 10.8233 37.2173 10.89C37.0507 10.95 36.9307 11.0333 36.8573 11.14C36.784 11.2467 36.7473 11.3833 36.7473 11.55C36.7473 11.8233 36.8473 12.04 37.0473 12.2C37.2473 12.36 37.5107 12.44 37.8373 12.44C38.1173 12.44 38.364 12.3767 38.5773 12.25C38.7973 12.1167 38.9707 11.94 39.0973 11.72C39.2307 11.5 39.2973 11.2533 39.2973 10.98V9.84C39.2973 9.44 39.2007 9.15 39.0073 8.97C38.814 8.78333 38.514 8.69 38.1073 8.69C37.8207 8.69 37.534 8.73333 37.2473 8.82C36.9673 8.9 36.6773 9.03333 36.3773 9.22L36.0973 8.6C36.284 8.47333 36.4907 8.36667 36.7173 8.28C36.9507 8.19333 37.1907 8.12667 37.4373 8.08C37.684 8.03333 37.924 8.01 38.1573 8.01C38.584 8.01 38.9407 8.07667 39.2273 8.21C39.5207 8.34333 39.744 8.55 39.8973 8.83C40.0507 9.11 40.1273 9.47 40.1273 9.91V13H39.3573V11.89H39.3973C39.324 12.1233 39.2073 12.33 39.0473 12.51C38.894 12.69 38.7007 12.8333 38.4673 12.94C38.2407 13.04 37.9807 13.09 37.6873 13.09ZM41.7516 13V8.1H42.5616V9.18H42.5116C42.6583 8.8 42.8916 8.51 43.2116 8.31C43.5316 8.11 43.895 8.01 44.3016 8.01C44.7016 8.01 45.0316 8.08 45.2916 8.22C45.5583 8.36 45.7583 8.57667 45.8916 8.87C46.025 9.15667 46.0916 9.52 46.0916 9.96V13H45.2416V10.01C45.2416 9.73 45.2016 9.49333 45.1216 9.3C45.0483 9.10667 44.9283 8.96333 44.7616 8.87C44.595 8.77 44.3783 8.72 44.1116 8.72C43.8116 8.72 43.5483 8.78667 43.3216 8.92C43.095 9.04667 42.9183 9.22333 42.7916 9.45C42.665 9.67667 42.6016 9.93667 42.6016 10.23V13H41.7516ZM49.4387 13.09C49.1787 13.09 48.922 13.0633 48.6687 13.01C48.422 12.9633 48.192 12.8967 47.9787 12.81C47.7653 12.7167 47.582 12.6067 47.4287 12.48L47.6987 11.87C47.8653 11.9967 48.0453 12.1033 48.2387 12.19C48.432 12.27 48.632 12.33 48.8387 12.37C49.0453 12.4033 49.2487 12.42 49.4487 12.42C49.842 12.42 50.142 12.3567 50.3487 12.23C50.562 12.0967 50.6687 11.9133 50.6687 11.68C50.6687 11.4867 50.602 11.3367 50.4687 11.23C50.342 11.1233 50.1353 11.04 49.8487 10.98L48.8787 10.8C48.4453 10.7133 48.1187 10.56 47.8987 10.34C47.6787 10.1133 47.5687 9.82333 47.5687 9.47C47.5687 9.17667 47.6487 8.92 47.8087 8.7C47.9687 8.48 48.1987 8.31 48.4987 8.19C48.7987 8.07 49.1487 8.01 49.5487 8.01C49.7753 8.01 50.002 8.03333 50.2287 8.08C50.4553 8.12667 50.6653 8.19667 50.8587 8.29C51.0587 8.37667 51.2253 8.48667 51.3587 8.62L51.0787 9.22C50.9453 9.1 50.792 9 50.6187 8.92C50.452 8.83333 50.2753 8.77 50.0887 8.73C49.902 8.69 49.7187 8.67 49.5387 8.67C49.1653 8.67 48.8753 8.74 48.6687 8.88C48.462 9.02 48.3587 9.20667 48.3587 9.44C48.3587 9.63333 48.4187 9.78667 48.5387 9.9C48.6653 10.0067 48.862 10.0867 49.1287 10.14L50.0787 10.33C50.5453 10.4233 50.892 10.5767 51.1187 10.79C51.352 10.9967 51.4687 11.28 51.4687 11.64C51.4687 11.94 51.382 12.2 51.2087 12.42C51.042 12.6333 50.8087 12.8 50.5087 12.92C50.2087 13.0333 49.852 13.09 49.4387 13.09ZM52.8063 14.8V8.1H53.6163V9.21H53.5663C53.693 8.83667 53.913 8.54333 54.2263 8.33C54.5463 8.11667 54.923 8.01 55.3563 8.01C55.803 8.01 56.1897 8.11667 56.5163 8.33C56.8497 8.53667 57.1063 8.83 57.2863 9.21C57.473 9.58333 57.5663 10.03 57.5663 10.55C57.5663 11.0567 57.4763 11.5033 57.2963 11.89C57.1163 12.27 56.8597 12.5667 56.5263 12.78C56.1997 12.9867 55.8097 13.09 55.3563 13.09C54.9297 13.09 54.5597 12.9833 54.2463 12.77C53.9397 12.5567 53.723 12.2733 53.5963 11.92H53.6563V14.8H52.8063ZM55.1763 12.4C55.6497 12.4 56.023 12.2367 56.2963 11.91C56.5697 11.5833 56.7063 11.1267 56.7063 10.54C56.7063 9.95333 56.5697 9.5 56.2963 9.18C56.023 8.86 55.6497 8.7 55.1763 8.7C54.7097 8.7 54.3363 8.86 54.0563 9.18C53.783 9.5 53.6463 9.95333 53.6463 10.54C53.6463 11.1267 53.783 11.5833 54.0563 11.91C54.3363 12.2367 54.7097 12.4 55.1763 12.4ZM60.5096 13.09C60.1696 13.09 59.8629 13.0267 59.5896 12.9C59.3229 12.7667 59.1096 12.5867 58.9496 12.36C58.7963 12.1333 58.7196 11.88 58.7196 11.6C58.7196 11.2333 58.8163 10.9433 59.0096 10.73C59.2096 10.5167 59.5263 10.3667 59.9596 10.28C60.3929 10.1867 60.9663 10.14 61.6796 10.14H62.2596V10.71H61.7096C61.3096 10.71 60.9729 10.7233 60.6996 10.75C60.4263 10.7767 60.2063 10.8233 60.0396 10.89C59.8729 10.95 59.7529 11.0333 59.6796 11.14C59.6063 11.2467 59.5696 11.3833 59.5696 11.55C59.5696 11.8233 59.6696 12.04 59.8696 12.2C60.0696 12.36 60.3329 12.44 60.6596 12.44C60.9396 12.44 61.1863 12.3767 61.3996 12.25C61.6196 12.1167 61.7929 11.94 61.9196 11.72C62.0529 11.5 62.1196 11.2533 62.1196 10.98V9.84C62.1196 9.44 62.0229 9.15 61.8296 8.97C61.6363 8.78333 61.3363 8.69 60.9296 8.69C60.6429 8.69 60.3563 8.73333 60.0696 8.82C59.7896 8.9 59.4996 9.03333 59.1996 9.22L58.9196 8.6C59.1063 8.47333 59.3129 8.36667 59.5396 8.28C59.7729 8.19333 60.0129 8.12667 60.2596 8.08C60.5063 8.03333 60.7463 8.01 60.9796 8.01C61.4063 8.01 61.7629 8.07667 62.0496 8.21C62.3429 8.34333 62.5663 8.55 62.7196 8.83C62.8729 9.11 62.9496 9.47 62.9496 9.91V13H62.1796V11.89H62.2196C62.1463 12.1233 62.0296 12.33 61.8696 12.51C61.7163 12.69 61.5229 12.8333 61.2896 12.94C61.0629 13.04 60.8029 13.09 60.5096 13.09ZM64.5739 13V8.1H65.3739V9.24H65.3339C65.4472 8.86 65.6472 8.57 65.9339 8.37C66.2272 8.16333 66.5972 8.04333 67.0439 8.01L67.4139 7.98L67.4939 8.74L66.8739 8.8C66.4139 8.84 66.0572 8.99 65.8039 9.25C65.5572 9.50333 65.4339 9.83667 65.4339 10.25V13H64.5739ZM70.6823 13.09C70.1489 13.09 69.6889 12.99 69.3023 12.79C68.9156 12.5833 68.6189 12.29 68.4123 11.91C68.2056 11.53 68.1023 11.0767 68.1023 10.55C68.1023 10.05 68.1989 9.61 68.3923 9.23C68.5923 8.85 68.8723 8.55333 69.2323 8.34C69.5923 8.12 70.0123 8.01 70.4923 8.01C70.9589 8.01 71.3523 8.11 71.6723 8.31C71.9989 8.51 72.2489 8.79333 72.4223 9.16C72.5956 9.52 72.6823 9.95333 72.6823 10.46V10.76H68.7423V10.18H72.1223L71.9523 10.34C71.9523 9.80667 71.8289 9.39333 71.5823 9.1C71.3356 8.8 70.9756 8.65 70.5023 8.65C70.1756 8.65 69.8923 8.72667 69.6523 8.88C69.4189 9.02667 69.2389 9.23667 69.1123 9.51C68.9856 9.77667 68.9223 10.0933 68.9223 10.46V10.54C68.9223 10.9467 68.9889 11.2867 69.1223 11.56C69.2623 11.8333 69.4656 12.0433 69.7323 12.19C69.9989 12.33 70.3189 12.4 70.6923 12.4C70.9723 12.4 71.2489 12.36 71.5223 12.28C71.7956 12.1933 72.0556 12.05 72.3023 11.85L72.5923 12.45C72.3523 12.6567 72.0589 12.8167 71.7123 12.93C71.3723 13.0367 71.0289 13.09 70.6823 13.09ZM73.988 13V8.1H74.798V9.18H74.748C74.8946 8.8 75.128 8.51 75.448 8.31C75.768 8.11 76.1313 8.01 76.538 8.01C76.938 8.01 77.268 8.08 77.528 8.22C77.7946 8.36 77.9946 8.57667 78.128 8.87C78.2613 9.15667 78.328 9.52 78.328 9.96V13H77.478V10.01C77.478 9.73 77.438 9.49333 77.358 9.3C77.2846 9.10667 77.1646 8.96333 76.998 8.87C76.8313 8.77 76.6146 8.72 76.348 8.72C76.048 8.72 75.7846 8.78667 75.558 8.92C75.3313 9.04667 75.1546 9.22333 75.028 9.45C74.9013 9.67667 74.838 9.93667 74.838 10.23V13H73.988ZM81.965 13.09C81.3783 13.09 80.9383 12.9367 80.645 12.63C80.3517 12.3167 80.205 11.8733 80.205 11.3V8.78H79.225V8.1H80.225V6.62H81.055V8.1H82.715V8.78H81.055V11.22C81.055 11.6 81.135 11.8867 81.295 12.08C81.4617 12.2667 81.725 12.36 82.085 12.36C82.205 12.36 82.325 12.3467 82.445 12.32C82.565 12.2933 82.675 12.26 82.775 12.22L82.925 12.88C82.8117 12.94 82.665 12.99 82.485 13.03C82.3117 13.07 82.1383 13.09 81.965 13.09ZM86.5887 13V5.95H89.0187C89.7787 5.95 90.422 6.08667 90.9487 6.36C91.482 6.62667 91.8853 7.02333 92.1587 7.55C92.432 8.07 92.5687 8.71 92.5687 9.47C92.5687 10.23 92.4287 10.8733 92.1487 11.4C91.8753 11.92 91.4753 12.3167 90.9487 12.59C90.422 12.8633 89.7787 13 89.0187 13H86.5887ZM87.4487 12.26H88.9687C89.862 12.26 90.5353 12.03 90.9887 11.57C91.4487 11.1033 91.6787 10.4033 91.6787 9.47C91.6787 8.53667 91.4487 7.84 90.9887 7.38C90.5353 6.92 89.862 6.69 88.9687 6.69H87.4487V12.26ZM96.3561 13.09C95.8228 13.09 95.3628 12.99 94.9761 12.79C94.5894 12.5833 94.2928 12.29 94.0861 11.91C93.8794 11.53 93.7761 11.0767 93.7761 10.55C93.7761 10.05 93.8728 9.61 94.0661 9.23C94.2661 8.85 94.5461 8.55333 94.9061 8.34C95.2661 8.12 95.6861 8.01 96.1661 8.01C96.6328 8.01 97.0261 8.11 97.3461 8.31C97.6728 8.51 97.9228 8.79333 98.0961 9.16C98.2694 9.52 98.3561 9.95333 98.3561 10.46V10.76H94.4161V10.18H97.7961L97.6261 10.34C97.6261 9.80667 97.5028 9.39333 97.2561 9.1C97.0094 8.8 96.6494 8.65 96.1761 8.65C95.8494 8.65 95.5661 8.72667 95.3261 8.88C95.0928 9.02667 94.9128 9.23667 94.7861 9.51C94.6594 9.77667 94.5961 10.0933 94.5961 10.46V10.54C94.5961 10.9467 94.6628 11.2867 94.7961 11.56C94.9361 11.8333 95.1394 12.0433 95.4061 12.19C95.6728 12.33 95.9928 12.4 96.3661 12.4C96.6461 12.4 96.9228 12.36 97.1961 12.28C97.4694 12.1933 97.7294 12.05 97.9761 11.85L98.2661 12.45C98.0261 12.6567 97.7328 12.8167 97.3861 12.93C97.0461 13.0367 96.7028 13.09 96.3561 13.09ZM101.392 13.09C101.132 13.09 100.875 13.0633 100.622 13.01C100.375 12.9633 100.145 12.8967 99.9318 12.81C99.7185 12.7167 99.5351 12.6067 99.3818 12.48L99.6518 11.87C99.8185 11.9967 99.9985 12.1033 100.192 12.19C100.385 12.27 100.585 12.33 100.792 12.37C100.998 12.4033 101.202 12.42 101.402 12.42C101.795 12.42 102.095 12.3567 102.302 12.23C102.515 12.0967 102.622 11.9133 102.622 11.68C102.622 11.4867 102.555 11.3367 102.422 11.23C102.295 11.1233 102.088 11.04 101.802 10.98L100.832 10.8C100.398 10.7133 100.072 10.56 99.8518 10.34C99.6318 10.1133 99.5218 9.82333 99.5218 9.47C99.5218 9.17667 99.6018 8.92 99.7618 8.7C99.9218 8.48 100.152 8.31 100.452 8.19C100.752 8.07 101.102 8.01 101.502 8.01C101.728 8.01 101.955 8.03333 102.182 8.08C102.408 8.12667 102.618 8.19667 102.812 8.29C103.012 8.37667 103.178 8.48667 103.312 8.62L103.032 9.22C102.898 9.1 102.745 9 102.572 8.92C102.405 8.83333 102.228 8.77 102.042 8.73C101.855 8.69 101.672 8.67 101.492 8.67C101.118 8.67 100.828 8.74 100.622 8.88C100.415 9.02 100.312 9.20667 100.312 9.44C100.312 9.63333 100.372 9.78667 100.492 9.9C100.618 10.0067 100.815 10.0867 101.082 10.14L102.032 10.33C102.498 10.4233 102.845 10.5767 103.072 10.79C103.305 10.9967 103.422 11.28 103.422 11.64C103.422 11.94 103.335 12.2 103.162 12.42C102.995 12.6333 102.762 12.8 102.462 12.92C102.162 13.0333 101.805 13.09 101.392 13.09ZM104.659 6.9V5.95H105.699V6.9H104.659ZM104.759 13V8.1H105.609V13H104.759ZM109.409 14.89C109.003 14.89 108.609 14.8333 108.229 14.72C107.856 14.6067 107.526 14.4433 107.239 14.23L107.519 13.59C107.713 13.7233 107.909 13.8333 108.109 13.92C108.316 14.0133 108.523 14.08 108.729 14.12C108.943 14.1667 109.159 14.19 109.379 14.19C109.879 14.19 110.259 14.06 110.519 13.8C110.786 13.54 110.919 13.1733 110.919 12.7V11.68H110.959C110.853 12.04 110.639 12.33 110.319 12.55C109.999 12.7633 109.629 12.87 109.209 12.87C108.756 12.87 108.359 12.77 108.019 12.57C107.686 12.3633 107.426 12.0767 107.239 11.71C107.059 11.3433 106.969 10.92 106.969 10.44C106.969 9.95333 107.059 9.52667 107.239 9.16C107.426 8.79333 107.686 8.51 108.019 8.31C108.359 8.11 108.756 8.01 109.209 8.01C109.636 8.01 110.009 8.12 110.329 8.34C110.649 8.55333 110.863 8.84667 110.969 9.22H110.919V8.1H111.739V12.6C111.739 13.0867 111.649 13.5 111.469 13.84C111.289 14.1867 111.026 14.4467 110.679 14.62C110.333 14.8 109.909 14.89 109.409 14.89ZM109.359 12.18C109.833 12.18 110.209 12.0233 110.489 11.71C110.769 11.39 110.909 10.9667 110.909 10.44C110.909 9.90667 110.769 9.48333 110.489 9.17C110.209 8.85667 109.833 8.7 109.359 8.7C108.886 8.7 108.509 8.85667 108.229 9.17C107.956 9.48333 107.819 9.90667 107.819 10.44C107.819 10.9667 107.956 11.39 108.229 11.71C108.509 12.0233 108.886 12.18 109.359 12.18ZM113.383 13V8.1H114.193V9.18H114.143C114.289 8.8 114.523 8.51 114.843 8.31C115.163 8.11 115.526 8.01 115.933 8.01C116.333 8.01 116.663 8.08 116.923 8.22C117.189 8.36 117.389 8.57667 117.523 8.87C117.656 9.15667 117.723 9.52 117.723 9.96V13H116.873V10.01C116.873 9.73 116.833 9.49333 116.753 9.3C116.679 9.10667 116.559 8.96333 116.393 8.87C116.226 8.77 116.009 8.72 115.743 8.72C115.443 8.72 115.179 8.78667 114.953 8.92C114.726 9.04667 114.549 9.22333 114.423 9.45C114.296 9.67667 114.233 9.93667 114.233 10.23V13H113.383Z" fill="white"/>
<path fill-rule="evenodd" clip-rule="evenodd" d="M176.919 25.9642C177.414 25.9591 178.164 26.0122 178.587 26.0807C179.01 26.1501 179.723 26.3248 180.169 26.4687C180.616 26.6134 181.286 26.8935 181.658 27.0922C182.031 27.2909 182.348 27.4922 182.365 27.5393C182.382 27.5864 182.148 27.8947 181.296 28.824L180.626 28.5071C180.257 28.3332 179.609 28.0891 179.186 27.9658C178.639 27.8056 178.131 27.7268 177.433 27.6943C176.728 27.6609 176.225 27.6874 175.658 27.7859C175.223 27.8622 174.55 28.0403 174.161 28.1816C173.773 28.3221 173.167 28.6082 172.815 28.8163C172.461 29.0244 171.942 29.3918 171.66 29.6325C171.378 29.8732 170.927 30.3288 170.659 30.6457C170.389 30.9626 170.005 31.5116 169.803 31.8645C169.602 32.2182 169.33 32.8152 169.197 33.192C169.065 33.5689 168.897 34.2241 168.823 34.6481C168.729 35.1902 168.704 35.699 168.737 36.361C168.763 36.8792 168.861 37.5926 168.953 37.9455C169.046 38.2992 169.2 38.7994 169.297 39.0589C169.394 39.3184 169.667 39.8477 169.903 40.2366C170.275 40.8455 170.32 40.9654 170.228 41.1016C170.169 41.189 169.919 41.4776 169.672 41.744C169.424 42.0104 169.204 42.2279 169.18 42.2279C169.157 42.2279 168.938 41.929 168.693 41.5641C168.45 41.1993 168.107 40.592 167.934 40.2152C167.76 39.8383 167.535 39.2602 167.434 38.9305C167.332 38.6007 167.192 37.984 167.124 37.5601C167.056 37.1361 167 36.4227 167 35.9756C167 35.5285 167.056 34.8151 167.124 34.3911C167.192 33.9672 167.333 33.3505 167.434 33.0207C167.536 32.691 167.753 32.1317 167.914 31.7788C168.077 31.4251 168.423 30.8085 168.684 30.4085C168.946 30.0085 169.51 29.3285 169.939 28.8994C170.385 28.4531 171.049 27.9041 171.489 27.6189C171.912 27.344 172.528 26.9963 172.857 26.8447C173.187 26.6939 173.725 26.4884 174.055 26.3882C174.384 26.2871 174.961 26.1526 175.337 26.0884C175.714 26.025 176.425 25.9685 176.919 25.9642V25.9642ZM183.068 28.0078C183.097 28.0061 183.38 28.2373 183.697 28.5217C184.014 28.8052 184.274 29.0767 184.274 29.1238C184.274 29.1709 182.787 30.8573 180.969 32.8709C179.151 34.8844 176.159 38.2007 174.32 40.2392C172.481 42.2784 170.956 43.9468 170.933 43.9468C170.909 43.9468 170.63 43.7139 170.313 43.4295C169.996 43.146 169.726 42.878 169.714 42.836C169.703 42.7932 171.521 40.7402 173.755 38.2727C175.99 35.806 178.987 32.4872 180.417 30.8984C181.847 29.3105 183.04 28.0086 183.068 28.0078ZM184.809 29.7284C184.844 29.725 185.072 30.0222 185.317 30.3871C185.56 30.7519 185.907 31.3686 186.086 31.7574C186.265 32.1463 186.504 32.7818 186.617 33.1706C186.729 33.5595 186.869 34.2438 186.929 34.6909C186.997 35.2039 187.018 35.8685 186.984 36.4895C186.955 37.0308 186.857 37.8016 186.767 38.2024C186.676 38.6033 186.454 39.297 186.272 39.7441C186.09 40.1912 185.73 40.9021 185.471 41.3226C185.17 41.8116 184.693 42.4009 184.146 42.9593C183.676 43.439 183.002 44.0239 182.649 44.2595C182.296 44.495 181.768 44.8085 181.473 44.9566C181.179 45.1048 180.602 45.3395 180.191 45.4782C179.779 45.6178 179.076 45.7908 178.63 45.8636C178.183 45.9365 177.451 45.9955 177.005 45.9955C176.558 45.9955 175.827 45.9365 175.38 45.8628C174.933 45.79 174.221 45.6153 173.798 45.4748C173.375 45.3343 172.72 45.0517 172.344 44.847C171.968 44.6432 171.663 44.4368 171.666 44.3888C171.669 44.3408 171.91 44.0282 172.729 43.0844L173.178 43.3362C173.425 43.4741 173.973 43.7028 174.397 43.8441C174.82 43.9845 175.493 44.1464 175.893 44.2038C176.332 44.2672 176.976 44.2877 177.518 44.256C178.087 44.2235 178.698 44.1233 179.186 43.9837C179.609 43.8621 180.302 43.5923 180.725 43.3833C181.148 43.1743 181.783 42.7726 182.136 42.4917C182.489 42.2099 183.003 41.7174 183.277 41.3971C183.552 41.0768 183.947 40.5252 184.154 40.1723C184.361 39.8186 184.647 39.2122 184.787 38.8234C184.928 38.4345 185.102 37.7793 185.173 37.3674C185.244 36.9554 185.301 36.2908 185.3 35.8899C185.299 35.4891 185.226 34.8151 185.139 34.3911C185.051 33.9672 184.86 33.3119 184.715 32.9351C184.568 32.5582 184.276 31.9707 184.063 31.629C183.73 31.0954 183.691 30.9857 183.782 30.8504C183.841 30.7631 184.082 30.4761 184.317 30.2123C184.552 29.9486 184.774 29.731 184.809 29.7284V29.7284ZM174.18 30.2346C174.205 30.2329 174.734 31.0911 175.357 32.1403C175.979 33.1895 176.489 34.0776 176.49 34.1128C176.491 34.1479 175.251 35.5499 173.734 37.2278C171.207 40.0225 170.966 40.2648 170.862 40.1184C170.8 40.0302 170.679 39.8238 170.594 39.6585C170.508 39.4932 170.371 39.1274 170.289 38.8448C170.178 38.4602 170.151 38.1468 170.185 37.6029C170.211 37.1755 170.299 36.6976 170.399 36.4467C170.493 36.2111 170.757 35.7272 170.986 35.3709C171.216 35.0146 172.018 33.7145 172.769 32.4803C173.521 31.247 174.156 30.2363 174.18 30.2346ZM178.047 37.3074C178.095 37.334 178.13 37.5558 178.126 37.8008C178.121 38.0449 178.059 38.4671 177.989 38.7377C177.918 39.0084 177.774 39.4126 177.668 39.6362C177.562 39.8589 177.263 40.2674 177.005 40.5441C176.746 40.8198 176.342 41.1547 176.107 41.2866C175.872 41.4185 175.467 41.5881 175.209 41.6643C174.95 41.7397 174.556 41.8014 173.926 41.7997L174.332 41.3269C174.556 41.0665 174.777 40.855 174.824 40.8558C174.871 40.8567 175.141 40.7479 175.423 40.6134C175.705 40.479 176.104 40.1998 176.31 39.9925C176.515 39.7852 176.771 39.4418 176.878 39.2302C176.985 39.0187 177.102 38.6906 177.136 38.5022C177.177 38.2821 177.334 37.9995 177.58 37.7091C177.789 37.4616 178 37.2809 178.047 37.3074V37.3074Z" fill="white"/>
<path d="M178.823 38.7918C178.885 38.6248 179.415 37.7084 180 36.756C180.585 35.8027 181.094 35.0344 181.13 35.0473C181.168 35.0601 181.61 35.7642 182.113 36.6121C182.616 37.46 183.108 38.3079 183.205 38.4963C183.344 38.7618 183.383 38.9931 183.381 39.5241C183.379 40.0517 183.338 40.2881 183.199 40.5519C183.1 40.7403 182.842 41.058 182.624 41.2585C182.366 41.4966 182.074 41.667 181.78 41.7518C181.533 41.8229 181.216 41.8811 181.075 41.8811C180.934 41.8811 180.626 41.8255 180.391 41.7569C180.129 41.6807 179.8 41.4889 179.545 41.2636C179.316 41.0606 179.05 40.7403 178.955 40.5519C178.856 40.3549 178.767 39.9729 178.746 39.6526C178.724 39.3108 178.754 38.9785 178.823 38.7918Z" fill="white"/>
<path d="M182.55 39.2235C182.585 39.2226 182.599 39.107 182.581 38.9665C182.562 38.8141 182.587 38.7104 182.646 38.7104C182.699 38.7104 182.747 38.7781 182.752 38.8603C182.758 38.9426 182.768 39.256 182.774 39.5567C182.782 39.9592 182.74 40.1836 182.614 40.4088C182.52 40.5767 182.276 40.8319 182.072 40.9758C181.758 41.1968 181.612 41.2396 181.131 41.2542C180.818 41.2636 180.629 41.2542 180.711 41.2328C180.793 41.2114 180.861 41.1557 180.861 41.1086C180.861 41.0615 180.967 41.0041 181.096 40.9801C181.225 40.957 181.531 40.7737 181.775 40.5733C182.02 40.3729 182.221 40.1613 182.224 40.1022C182.227 40.0431 182.268 39.9952 182.315 39.9952C182.362 39.9952 182.381 39.9566 182.357 39.9095C182.333 39.8624 182.353 39.8239 182.4 39.8239C182.447 39.8239 182.467 39.7656 182.443 39.6954C182.419 39.6252 182.439 39.5472 182.486 39.5241C182.533 39.5001 182.552 39.423 182.528 39.3528C182.504 39.2826 182.515 39.2243 182.55 39.2235Z" fill="black"/>
<path d="M193.95 38.9795V31.9295H194.81V38.2195H198.39V38.9795H193.95ZM201.696 39.0695C201.163 39.0695 200.703 38.9695 200.316 38.7695C199.929 38.5628 199.633 38.2695 199.426 37.8895C199.219 37.5095 199.116 37.0562 199.116 36.5295C199.116 36.0295 199.213 35.5895 199.406 35.2095C199.606 34.8295 199.886 34.5328 200.246 34.3195C200.606 34.0995 201.026 33.9895 201.506 33.9895C201.973 33.9895 202.366 34.0895 202.686 34.2895C203.013 34.4895 203.263 34.7728 203.436 35.1395C203.609 35.4995 203.696 35.9328 203.696 36.4395V36.7395H199.756V36.1595H203.136L202.966 36.3195C202.966 35.7862 202.843 35.3728 202.596 35.0795C202.349 34.7795 201.989 34.6295 201.516 34.6295C201.189 34.6295 200.906 34.7062 200.666 34.8595C200.433 35.0062 200.253 35.2162 200.126 35.4895C199.999 35.7562 199.936 36.0728 199.936 36.4395V36.5195C199.936 36.9262 200.003 37.2662 200.136 37.5395C200.276 37.8128 200.479 38.0228 200.746 38.1695C201.013 38.3095 201.333 38.3795 201.706 38.3795C201.986 38.3795 202.263 38.3395 202.536 38.2595C202.809 38.1728 203.069 38.0295 203.316 37.8295L203.606 38.4295C203.366 38.6362 203.073 38.7962 202.726 38.9095C202.386 39.0162 202.043 39.0695 201.696 39.0695ZM206.592 39.0695C206.252 39.0695 205.945 39.0062 205.672 38.8795C205.405 38.7462 205.192 38.5662 205.032 38.3395C204.878 38.1128 204.802 37.8595 204.802 37.5795C204.802 37.2128 204.898 36.9228 205.092 36.7095C205.292 36.4962 205.608 36.3462 206.042 36.2595C206.475 36.1662 207.048 36.1195 207.762 36.1195H208.342V36.6895H207.792C207.392 36.6895 207.055 36.7028 206.782 36.7295C206.508 36.7562 206.288 36.8028 206.122 36.8695C205.955 36.9295 205.835 37.0128 205.762 37.1195C205.688 37.2262 205.652 37.3628 205.652 37.5295C205.652 37.8028 205.752 38.0195 205.952 38.1795C206.152 38.3395 206.415 38.4195 206.742 38.4195C207.022 38.4195 207.268 38.3562 207.482 38.2295C207.702 38.0962 207.875 37.9195 208.002 37.6995C208.135 37.4795 208.202 37.2328 208.202 36.9595V35.8195C208.202 35.4195 208.105 35.1295 207.912 34.9495C207.718 34.7628 207.418 34.6695 207.012 34.6695C206.725 34.6695 206.438 34.7128 206.152 34.7995C205.872 34.8795 205.582 35.0128 205.282 35.1995L205.002 34.5795C205.188 34.4528 205.395 34.3462 205.622 34.2595C205.855 34.1728 206.095 34.1062 206.342 34.0595C206.588 34.0128 206.828 33.9895 207.062 33.9895C207.488 33.9895 207.845 34.0562 208.132 34.1895C208.425 34.3228 208.648 34.5295 208.802 34.8095C208.955 35.0895 209.032 35.4495 209.032 35.8895V38.9795H208.262V37.8695H208.302C208.228 38.1028 208.112 38.3095 207.952 38.4895C207.798 38.6695 207.605 38.8128 207.372 38.9195C207.145 39.0195 206.885 39.0695 206.592 39.0695ZM210.656 38.9795V31.9295H211.506V36.2595H211.536L213.776 34.0795H214.836L212.176 36.6595L212.186 36.2395L215.066 38.9795H213.986L211.536 36.6995H211.506V38.9795H210.656ZM215.449 36.6595V35.9595H218.249V36.6595H215.449ZM219.917 38.9795V31.9295H222.767C223.273 31.9295 223.703 32.0128 224.057 32.1795C224.41 32.3462 224.677 32.5862 224.857 32.8995C225.043 33.2128 225.137 33.5962 225.137 34.0495C225.137 34.4962 225.043 34.8795 224.857 35.1995C224.67 35.5128 224.4 35.7562 224.047 35.9295C223.7 36.0962 223.273 36.1795 222.767 36.1795H220.777V38.9795H219.917ZM220.777 35.4595H222.657C223.19 35.4595 223.593 35.3428 223.867 35.1095C224.14 34.8695 224.277 34.5162 224.277 34.0495C224.277 33.5828 224.14 33.2328 223.867 32.9995C223.593 32.7662 223.19 32.6495 222.657 32.6495H220.777V35.4595ZM226.291 38.9795V34.0795H227.091V35.2195H227.051C227.164 34.8395 227.364 34.5495 227.651 34.3495C227.944 34.1428 228.314 34.0228 228.761 33.9895L229.131 33.9595L229.211 34.7195L228.591 34.7795C228.131 34.8195 227.774 34.9695 227.521 35.2295C227.274 35.4828 227.151 35.8162 227.151 36.2295V38.9795H226.291ZM232.199 39.0695C231.712 39.0695 231.289 38.9662 230.929 38.7595C230.576 38.5462 230.302 38.2495 230.109 37.8695C229.916 37.4895 229.819 37.0395 229.819 36.5195C229.819 36.0062 229.916 35.5628 230.109 35.1895C230.302 34.8095 230.576 34.5162 230.929 34.3095C231.289 34.0962 231.712 33.9895 232.199 33.9895C232.686 33.9895 233.106 34.0962 233.459 34.3095C233.819 34.5162 234.096 34.8095 234.289 35.1895C234.482 35.5628 234.579 36.0062 234.579 36.5195C234.579 37.0395 234.482 37.4895 234.289 37.8695C234.096 38.2495 233.819 38.5462 233.459 38.7595C233.106 38.9662 232.686 39.0695 232.199 39.0695ZM232.199 38.3695C232.672 38.3695 233.046 38.2062 233.319 37.8795C233.592 37.5528 233.729 37.0995 233.729 36.5195C233.729 35.9395 233.592 35.4895 233.319 35.1695C233.046 34.8495 232.672 34.6895 232.199 34.6895C231.726 34.6895 231.352 34.8495 231.079 35.1695C230.806 35.4895 230.669 35.9395 230.669 36.5195C230.669 37.0995 230.806 37.5528 231.079 37.8795C231.359 38.2062 231.732 38.3695 232.199 38.3695ZM238.019 39.0695C237.533 39.0695 237.109 38.9662 236.749 38.7595C236.396 38.5462 236.123 38.2495 235.929 37.8695C235.736 37.4895 235.639 37.0395 235.639 36.5195C235.639 36.0062 235.736 35.5628 235.929 35.1895C236.123 34.8095 236.396 34.5162 236.749 34.3095C237.109 34.0962 237.533 33.9895 238.019 33.9895C238.506 33.9895 238.926 34.0962 239.279 34.3095C239.639 34.5162 239.916 34.8095 240.109 35.1895C240.303 35.5628 240.399 36.0062 240.399 36.5195C240.399 37.0395 240.303 37.4895 240.109 37.8695C239.916 38.2495 239.639 38.5462 239.279 38.7595C238.926 38.9662 238.506 39.0695 238.019 39.0695ZM238.019 38.3695C238.493 38.3695 238.866 38.2062 239.139 37.8795C239.413 37.5528 239.549 37.0995 239.549 36.5195C239.549 35.9395 239.413 35.4895 239.139 35.1695C238.866 34.8495 238.493 34.6895 238.019 34.6895C237.546 34.6895 237.173 34.8495 236.899 35.1695C236.626 35.4895 236.489 35.9395 236.489 36.5195C236.489 37.0995 236.626 37.5528 236.899 37.8795C237.179 38.2062 237.553 38.3695 238.019 38.3695ZM241.981 38.9795V34.7395H241.001V34.0795H242.211L241.981 34.2995V33.9495C241.981 33.3028 242.151 32.8128 242.491 32.4795C242.838 32.1395 243.351 31.9528 244.031 31.9195L244.481 31.8895L244.551 32.5695L244.021 32.5995C243.768 32.6128 243.551 32.6662 243.371 32.7595C243.198 32.8462 243.064 32.9795 242.971 33.1595C242.878 33.3328 242.831 33.5628 242.831 33.8495V34.1995L242.711 34.0795H244.311V34.7395H242.831V38.9795H241.981Z" fill="white"/>
<path fill-rule="evenodd" clip-rule="evenodd" d="M7.81752 26.2345C8.14504 26.4197 8.83413 26.9791 9.3483 27.4747C9.86247 27.9715 10.5069 28.7017 10.7805 29.0987C11.054 29.4956 11.4273 30.1176 11.6092 30.482C11.79 30.8465 12.1269 31.7042 12.357 32.3899C12.5859 33.0756 12.8266 33.6338 12.8912 33.6289C12.9557 33.6253 13.0567 33.3619 13.1154 33.0443C13.1858 32.6666 13.1741 32.0507 13.0825 31.264C13.0062 30.6023 12.9581 30.049 12.9757 30.0346C12.9945 30.0201 13.2938 30.3726 13.6436 30.8165C13.9923 31.2616 14.5182 32.0038 14.8128 32.4669C15.1075 32.93 15.543 33.7697 15.7813 34.3315C16.0184 34.8932 16.3201 35.787 16.4504 36.3163C16.5819 36.8456 16.7216 37.6853 16.7627 38.1809C16.812 38.7727 16.778 39.4139 16.6653 40.0454C16.5702 40.5747 16.4094 41.2111 16.306 41.4589C16.1311 41.8811 16.103 41.9004 15.8553 41.7524C15.7097 41.6646 14.9044 41.1666 14.0651 40.6445C13.2257 40.1224 12.5026 39.6388 12.4568 39.5691C12.4122 39.5005 12.3429 39.2551 12.303 39.0229C12.2631 38.7908 11.9966 38.1015 11.7102 37.4892C11.3263 36.6688 10.9812 36.1515 10.3966 35.52C9.96108 35.0484 9.45864 34.5612 9.28138 34.4373C9.10412 34.3134 8.93156 34.2244 8.89986 34.2412C8.86699 34.2581 8.91982 34.6238 9.01491 35.0532C9.11117 35.4839 9.19099 36.2273 9.19334 37.5794L8.00652 36.8276C7.35265 36.4138 6.60018 35.9446 6.3337 35.7834C6.06605 35.6234 5.54483 35.2986 4.50358 34.6322L4.98488 34.0307C5.25018 33.6999 5.6634 33.1321 5.90522 32.7676C6.14588 32.4031 6.51566 31.7548 6.72579 31.3241C6.93709 30.8947 7.20826 30.1368 7.33035 29.64C7.45244 29.1444 7.55222 28.4407 7.55222 28.0762C7.55339 27.7129 7.47357 27.1439 7.37613 26.8131C7.27987 26.4823 7.20474 26.1406 7.21061 26.054C7.21883 25.9445 7.40548 25.9999 7.81752 26.2345V26.2345ZM3.50693 30.5422C3.60436 30.6745 3.79219 31.0799 3.92602 31.4444C4.05984 31.8089 4.22184 32.4573 4.28523 32.8879C4.35097 33.3342 4.35919 33.8371 4.20423 34.4518L3.03032 33.7095L3.17237 32.8482C3.25102 32.3731 3.31793 31.6068 3.32263 31.1437C3.33084 30.3678 3.34493 30.3209 3.50693 30.5422V30.5422ZM0.729464 33.1887C0.832768 33.2296 4.76066 35.6836 18 44.0151L17.7136 44.4963C17.5551 44.761 17.3567 44.9751 17.271 44.9715C17.1865 44.9679 13.2868 42.5656 8.60639 39.6328C3.92484 36.6989 0.0579885 34.2665 0.0110321 34.2256C-0.0347503 34.1847 0.0662058 33.9176 0.235249 33.6313C0.455943 33.2584 0.594464 33.1333 0.729464 33.1887V33.1887ZM1.92685 36.3765C1.98437 36.3765 2.90354 36.931 3.96945 37.6095C5.14923 38.3601 5.86883 38.8894 5.81131 38.9628C5.75849 39.0289 5.34057 39.5703 4.88158 40.1657C4.42258 40.7612 3.93893 41.4926 3.80628 41.7897C3.67245 42.088 3.5621 42.5752 3.55976 42.8724C3.55858 43.1707 3.65132 43.6025 3.76754 43.8347C3.88375 44.0669 4.06923 44.4049 4.17958 44.5865C4.35097 44.8692 4.35449 44.9174 4.20423 44.9174C4.1068 44.9174 3.74523 44.6335 3.4001 44.2858C3.05498 43.9382 2.55137 43.3018 2.2802 42.8724C2.0102 42.4429 1.68503 41.8065 1.55824 41.4589C1.43146 41.1112 1.27064 40.4352 1.2002 39.9552C1.10629 39.3104 1.10864 38.8786 1.20959 38.3012C1.28472 37.8717 1.45259 37.2618 1.5829 36.9479C1.71437 36.6339 1.86815 36.3765 1.92685 36.3765V36.3765ZM7.72596 39.948C7.81635 39.9829 7.89382 40.0599 7.89617 40.1188C7.89969 40.1778 7.78348 40.3053 7.63791 40.4039C7.49235 40.5014 7.3597 40.5687 7.34091 40.5543C7.32331 40.5386 7.36557 40.3823 7.43483 40.2054C7.5123 40.0057 7.62265 39.9083 7.72596 39.948ZM12.5883 43.0023L13.3854 43.5015C13.8232 43.777 14.2083 44.02 14.2411 44.0416C14.2728 44.0645 14.1672 44.2112 14.0064 44.3688C13.8444 44.5264 13.3032 44.9583 12.8031 45.3276C12.303 45.6981 11.8405 46 11.7759 46C11.709 46 11.729 45.8581 11.8229 45.6692C11.9121 45.4875 12.0929 44.9595 12.2244 44.4963C12.3558 44.0332 12.4908 43.5075 12.5249 43.3283L12.5883 43.0023Z" fill="white"/>
<path d="M24.95 41V33.95H25.81V37.05H29.99V33.95H30.85V41H29.99V37.8H25.81V41H24.95ZM34.9127 41.09C34.3794 41.09 33.9194 40.99 33.5327 40.79C33.1461 40.5833 32.8494 40.29 32.6427 39.91C32.4361 39.53 32.3327 39.0767 32.3327 38.55C32.3327 38.05 32.4294 37.61 32.6227 37.23C32.8227 36.85 33.1027 36.5533 33.4627 36.34C33.8227 36.12 34.2427 36.01 34.7227 36.01C35.1894 36.01 35.5827 36.11 35.9027 36.31C36.2294 36.51 36.4794 36.7933 36.6527 37.16C36.8261 37.52 36.9127 37.9533 36.9127 38.46V38.76H32.9727V38.18H36.3527L36.1827 38.34C36.1827 37.8067 36.0594 37.3933 35.8127 37.1C35.5661 36.8 35.2061 36.65 34.7327 36.65C34.4061 36.65 34.1227 36.7267 33.8827 36.88C33.6494 37.0267 33.4694 37.2367 33.3427 37.51C33.2161 37.7767 33.1527 38.0933 33.1527 38.46V38.54C33.1527 38.9467 33.2194 39.2867 33.3527 39.56C33.4927 39.8333 33.6961 40.0433 33.9627 40.19C34.2294 40.33 34.5494 40.4 34.9227 40.4C35.2027 40.4 35.4794 40.36 35.7527 40.28C36.0261 40.1933 36.2861 40.05 36.5327 39.85L36.8227 40.45C36.5827 40.6567 36.2894 40.8167 35.9427 40.93C35.6027 41.0367 35.2594 41.09 34.9127 41.09ZM39.8084 41.09C39.4684 41.09 39.1618 41.0267 38.8884 40.9C38.6218 40.7667 38.4084 40.5867 38.2484 40.36C38.0951 40.1333 38.0184 39.88 38.0184 39.6C38.0184 39.2333 38.1151 38.9433 38.3084 38.73C38.5084 38.5167 38.8251 38.3667 39.2584 38.28C39.6918 38.1867 40.2651 38.14 40.9784 38.14H41.5584V38.71H41.0084C40.6084 38.71 40.2718 38.7233 39.9984 38.75C39.7251 38.7767 39.5051 38.8233 39.3384 38.89C39.1718 38.95 39.0518 39.0333 38.9784 39.14C38.9051 39.2467 38.8684 39.3833 38.8684 39.55C38.8684 39.8233 38.9684 40.04 39.1684 40.2C39.3684 40.36 39.6318 40.44 39.9584 40.44C40.2384 40.44 40.4851 40.3767 40.6984 40.25C40.9184 40.1167 41.0918 39.94 41.2184 39.72C41.3518 39.5 41.4184 39.2533 41.4184 38.98V37.84C41.4184 37.44 41.3218 37.15 41.1284 36.97C40.9351 36.7833 40.6351 36.69 40.2284 36.69C39.9418 36.69 39.6551 36.7333 39.3684 36.82C39.0884 36.9 38.7984 37.0333 38.4984 37.22L38.2184 36.6C38.4051 36.4733 38.6118 36.3667 38.8384 36.28C39.0718 36.1933 39.3118 36.1267 39.5584 36.08C39.8051 36.0333 40.0451 36.01 40.2784 36.01C40.7051 36.01 41.0618 36.0767 41.3484 36.21C41.6418 36.3433 41.8651 36.55 42.0184 36.83C42.1718 37.11 42.2484 37.47 42.2484 37.91V41H41.4784V39.89H41.5184C41.4451 40.1233 41.3284 40.33 41.1684 40.51C41.0151 40.69 40.8218 40.8333 40.5884 40.94C40.3618 41.04 40.1018 41.09 39.8084 41.09ZM45.8927 41.09C45.3061 41.09 44.8661 40.9367 44.5727 40.63C44.2794 40.3167 44.1327 39.8733 44.1327 39.3V36.78H43.1527V36.1H44.1527V34.62H44.9827V36.1H46.6427V36.78H44.9827V39.22C44.9827 39.6 45.0627 39.8867 45.2227 40.08C45.3894 40.2667 45.6527 40.36 46.0127 40.36C46.1327 40.36 46.2527 40.3467 46.3727 40.32C46.4927 40.2933 46.6027 40.26 46.7027 40.22L46.8527 40.88C46.7394 40.94 46.5927 40.99 46.4127 41.03C46.2394 41.07 46.0661 41.09 45.8927 41.09ZM50.5164 41V33.95H53.3664C54.1264 33.95 54.7097 34.1267 55.1164 34.48C55.5231 34.8267 55.7264 35.3267 55.7264 35.98C55.7264 36.38 55.6431 36.7233 55.4764 37.01C55.3097 37.2967 55.0697 37.52 54.7564 37.68C54.4497 37.84 54.0797 37.9333 53.6464 37.96L53.7164 37.88L53.8664 37.89C54.0797 37.9033 54.2664 37.9733 54.4264 38.1C54.5864 38.22 54.7397 38.4133 54.8864 38.68L56.1264 41H55.1864L53.9864 38.77C53.8864 38.5767 53.7764 38.43 53.6564 38.33C53.5364 38.2233 53.3964 38.15 53.2364 38.11C53.0831 38.07 52.8964 38.05 52.6764 38.05H51.3764V41H50.5164ZM51.3764 37.35H53.2764C53.8164 37.35 54.2164 37.2367 54.4764 37.01C54.7431 36.7833 54.8764 36.4467 54.8764 36C54.8764 35.5533 54.7431 35.22 54.4764 35C54.2097 34.78 53.8031 34.67 53.2564 34.67H51.3764V37.35ZM59.5026 41.09C58.9692 41.09 58.5092 40.99 58.1226 40.79C57.7359 40.5833 57.4392 40.29 57.2326 39.91C57.0259 39.53 56.9226 39.0767 56.9226 38.55C56.9226 38.05 57.0192 37.61 57.2126 37.23C57.4126 36.85 57.6926 36.5533 58.0526 36.34C58.4126 36.12 58.8326 36.01 59.3126 36.01C59.7792 36.01 60.1726 36.11 60.4926 36.31C60.8192 36.51 61.0692 36.7933 61.2426 37.16C61.4159 37.52 61.5026 37.9533 61.5026 38.46V38.76H57.5626V38.18H60.9426L60.7726 38.34C60.7726 37.8067 60.6492 37.3933 60.4026 37.1C60.1559 36.8 59.7959 36.65 59.3226 36.65C58.9959 36.65 58.7126 36.7267 58.4726 36.88C58.2392 37.0267 58.0592 37.2367 57.9326 37.51C57.8059 37.7767 57.7426 38.0933 57.7426 38.46V38.54C57.7426 38.9467 57.8092 39.2867 57.9426 39.56C58.0826 39.8333 58.2859 40.0433 58.5526 40.19C58.8192 40.33 59.1392 40.4 59.5126 40.4C59.7926 40.4 60.0692 40.36 60.3426 40.28C60.6159 40.1933 60.8759 40.05 61.1226 39.85L61.4126 40.45C61.1726 40.6567 60.8792 40.8167 60.5326 40.93C60.1926 41.0367 59.8492 41.09 59.5026 41.09ZM64.5383 41.09C64.2783 41.09 64.0216 41.0633 63.7683 41.01C63.5216 40.9633 63.2916 40.8967 63.0783 40.81C62.8649 40.7167 62.6816 40.6067 62.5283 40.48L62.7983 39.87C62.9649 39.9967 63.1449 40.1033 63.3383 40.19C63.5316 40.27 63.7316 40.33 63.9383 40.37C64.1449 40.4033 64.3483 40.42 64.5483 40.42C64.9416 40.42 65.2416 40.3567 65.4483 40.23C65.6616 40.0967 65.7683 39.9133 65.7683 39.68C65.7683 39.4867 65.7016 39.3367 65.5683 39.23C65.4416 39.1233 65.2349 39.04 64.9483 38.98L63.9783 38.8C63.5449 38.7133 63.2183 38.56 62.9983 38.34C62.7783 38.1133 62.6683 37.8233 62.6683 37.47C62.6683 37.1767 62.7483 36.92 62.9083 36.7C63.0683 36.48 63.2983 36.31 63.5983 36.19C63.8983 36.07 64.2483 36.01 64.6483 36.01C64.8749 36.01 65.1016 36.0333 65.3283 36.08C65.5549 36.1267 65.7649 36.1967 65.9583 36.29C66.1583 36.3767 66.3249 36.4867 66.4583 36.62L66.1783 37.22C66.0449 37.1 65.8916 37 65.7183 36.92C65.5516 36.8333 65.3749 36.77 65.1883 36.73C65.0016 36.69 64.8183 36.67 64.6383 36.67C64.2649 36.67 63.9749 36.74 63.7683 36.88C63.5616 37.02 63.4583 37.2067 63.4583 37.44C63.4583 37.6333 63.5183 37.7867 63.6383 37.9C63.7649 38.0067 63.9616 38.0867 64.2283 38.14L65.1783 38.33C65.6449 38.4233 65.9916 38.5767 66.2183 38.79C66.4516 38.9967 66.5683 39.28 66.5683 39.64C66.5683 39.94 66.4816 40.2 66.3083 40.42C66.1416 40.6333 65.9083 40.8 65.6083 40.92C65.3083 41.0333 64.9516 41.09 64.5383 41.09ZM67.8059 34.9V33.95H68.8459V34.9H67.8059ZM67.9059 41V36.1H68.7559V41H67.9059ZM72.1359 41.09C71.8759 41.09 71.6193 41.0633 71.3659 41.01C71.1193 40.9633 70.8893 40.8967 70.6759 40.81C70.4626 40.7167 70.2793 40.6067 70.1259 40.48L70.3959 39.87C70.5626 39.9967 70.7426 40.1033 70.9359 40.19C71.1293 40.27 71.3293 40.33 71.5359 40.37C71.7426 40.4033 71.9459 40.42 72.1459 40.42C72.5393 40.42 72.8393 40.3567 73.0459 40.23C73.2593 40.0967 73.3659 39.9133 73.3659 39.68C73.3659 39.4867 73.2993 39.3367 73.1659 39.23C73.0393 39.1233 72.8326 39.04 72.5459 38.98L71.5759 38.8C71.1426 38.7133 70.8159 38.56 70.5959 38.34C70.3759 38.1133 70.2659 37.8233 70.2659 37.47C70.2659 37.1767 70.3459 36.92 70.5059 36.7C70.6659 36.48 70.8959 36.31 71.1959 36.19C71.4959 36.07 71.8459 36.01 72.2459 36.01C72.4726 36.01 72.6993 36.0333 72.9259 36.08C73.1526 36.1267 73.3626 36.1967 73.5559 36.29C73.7559 36.3767 73.9226 36.4867 74.0559 36.62L73.7759 37.22C73.6426 37.1 73.4893 37 73.3159 36.92C73.1493 36.8333 72.9726 36.77 72.7859 36.73C72.5993 36.69 72.4159 36.67 72.2359 36.67C71.8626 36.67 71.5726 36.74 71.3659 36.88C71.1593 37.02 71.0559 37.2067 71.0559 37.44C71.0559 37.6333 71.1159 37.7867 71.2359 37.9C71.3626 38.0067 71.5593 38.0867 71.8259 38.14L72.7759 38.33C73.2426 38.4233 73.5893 38.5767 73.8159 38.79C74.0493 38.9967 74.1659 39.28 74.1659 39.64C74.1659 39.94 74.0793 40.2 73.9059 40.42C73.7393 40.6333 73.5059 40.8 73.2059 40.92C72.9059 41.0333 72.5493 41.09 72.1359 41.09ZM77.4748 41.09C76.8881 41.09 76.4481 40.9367 76.1548 40.63C75.8614 40.3167 75.7148 39.8733 75.7148 39.3V36.78H74.7348V36.1H75.7348V34.62H76.5648V36.1H78.2248V36.78H76.5648V39.22C76.5648 39.6 76.6448 39.8867 76.8048 40.08C76.9714 40.2667 77.2348 40.36 77.5948 40.36C77.7148 40.36 77.8348 40.3467 77.9548 40.32C78.0748 40.2933 78.1848 40.26 78.2848 40.22L78.4348 40.88C78.3214 40.94 78.1748 40.99 77.9948 41.03C77.8214 41.07 77.6481 41.09 77.4748 41.09ZM80.8827 41.09C80.5427 41.09 80.236 41.0267 79.9627 40.9C79.696 40.7667 79.4827 40.5867 79.3227 40.36C79.1693 40.1333 79.0927 39.88 79.0927 39.6C79.0927 39.2333 79.1893 38.9433 79.3827 38.73C79.5827 38.5167 79.8993 38.3667 80.3327 38.28C80.766 38.1867 81.3393 38.14 82.0527 38.14H82.6327V38.71H82.0827C81.6827 38.71 81.346 38.7233 81.0727 38.75C80.7993 38.7767 80.5793 38.8233 80.4127 38.89C80.246 38.95 80.126 39.0333 80.0527 39.14C79.9793 39.2467 79.9427 39.3833 79.9427 39.55C79.9427 39.8233 80.0427 40.04 80.2427 40.2C80.4427 40.36 80.706 40.44 81.0327 40.44C81.3127 40.44 81.5593 40.3767 81.7727 40.25C81.9927 40.1167 82.166 39.94 82.2927 39.72C82.426 39.5 82.4927 39.2533 82.4927 38.98V37.84C82.4927 37.44 82.396 37.15 82.2027 36.97C82.0093 36.7833 81.7093 36.69 81.3027 36.69C81.016 36.69 80.7293 36.7333 80.4427 36.82C80.1627 36.9 79.8727 37.0333 79.5727 37.22L79.2927 36.6C79.4793 36.4733 79.686 36.3667 79.9127 36.28C80.146 36.1933 80.386 36.1267 80.6327 36.08C80.8793 36.0333 81.1193 36.01 81.3527 36.01C81.7793 36.01 82.136 36.0767 82.4227 36.21C82.716 36.3433 82.9393 36.55 83.0927 36.83C83.246 37.11 83.3227 37.47 83.3227 37.91V41H82.5527V39.89H82.5927C82.5193 40.1233 82.4027 40.33 82.2427 40.51C82.0893 40.69 81.896 40.8333 81.6627 40.94C81.436 41.04 81.176 41.09 80.8827 41.09ZM84.947 41V36.1H85.757V37.18H85.707C85.8536 36.8 86.087 36.51 86.407 36.31C86.727 36.11 87.0903 36.01 87.497 36.01C87.897 36.01 88.227 36.08 88.487 36.22C88.7536 36.36 88.9536 36.5767 89.087 36.87C89.2203 37.1567 89.287 37.52 89.287 37.96V41H88.437V38.01C88.437 37.73 88.397 37.4933 88.317 37.3C88.2436 37.1067 88.1236 36.9633 87.957 36.87C87.7903 36.77 87.5736 36.72 87.307 36.72C87.007 36.72 86.7436 36.7867 86.517 36.92C86.2903 37.0467 86.1136 37.2233 85.987 37.45C85.8603 37.6767 85.797 37.9367 85.797 38.23V41H84.947ZM92.924 41.09C92.3373 41.09 91.8973 40.9367 91.604 40.63C91.3107 40.3167 91.164 39.8733 91.164 39.3V36.78H90.184V36.1H91.184V34.62H92.014V36.1H93.674V36.78H92.014V39.22C92.014 39.6 92.094 39.8867 92.254 40.08C92.4207 40.2667 92.684 40.36 93.044 40.36C93.164 40.36 93.284 40.3467 93.404 40.32C93.524 40.2933 93.634 40.26 93.734 40.22L93.884 40.88C93.7707 40.94 93.624 40.99 93.444 41.03C93.2707 41.07 93.0973 41.09 92.924 41.09Z" fill="white"/>
<path d="M177.156 3.5979C177.78 3.61061 178.113 3.64642 178.457 3.73657C178.712 3.80363 179.154 3.95048 179.441 4.06372C179.727 4.177 180.209 4.43569 180.511 4.63794C180.813 4.84015 181.24 5.18284 181.459 5.40063C181.679 5.61792 181.966 5.9394 182.099 6.1145C182.231 6.28961 182.427 6.57518 182.532 6.75024C182.638 6.9254 182.813 7.27547 182.92 7.52954C183.027 7.78381 183.173 8.21319 183.244 8.48364C183.355 8.90294 183.374 9.12216 183.374 9.9856C183.374 10.8472 183.355 11.0701 183.244 11.4885C183.173 11.759 183.02 12.2005 182.905 12.4709C182.789 12.7414 182.534 13.2094 182.337 13.511C182.141 13.8125 181.8 14.2424 181.578 14.4661C181.357 14.6891 181.033 14.977 180.858 15.1047C180.682 15.2324 180.397 15.4247 180.222 15.5305C180.047 15.6368 179.695 15.8113 179.441 15.9182C179.186 16.0251 178.757 16.1703 178.487 16.2415C178.067 16.3524 177.846 16.3713 176.982 16.3713C176.12 16.3713 175.897 16.3528 175.478 16.2424C175.207 16.1713 174.765 16.0191 174.494 15.9036C174.224 15.7885 173.755 15.5312 173.453 15.3313C173.151 15.1314 172.699 14.7636 172.448 14.5139C172.196 14.2643 171.827 13.8126 171.627 13.511C171.428 13.2094 171.208 12.8189 171.14 12.6438C171.071 12.4688 170.98 12.2479 170.936 12.1526C170.892 12.0569 170.797 11.7587 170.726 11.4885C170.617 11.0748 170.596 10.8424 170.593 10.0149C170.591 9.23532 170.613 8.94272 170.699 8.59888C170.76 8.36082 170.912 7.90591 171.038 7.58813C171.164 7.27034 171.386 6.82823 171.53 6.60571C171.674 6.3833 171.898 6.07172 172.03 5.91333C172.161 5.75504 172.398 5.50465 172.557 5.35669C172.716 5.20875 172.924 5.02277 173.02 4.9436C173.115 4.8644 173.375 4.6827 173.598 4.53833C173.821 4.39445 174.263 4.1731 174.581 4.04712C174.899 3.92118 175.342 3.77632 175.565 3.72485C175.787 3.67342 176.048 3.62056 176.144 3.60669C176.24 3.59287 176.695 3.58867 177.156 3.5979ZM180.077 6.95337C179.971 6.93257 179.836 6.95493 179.73 7.01099C179.634 7.06126 179.478 7.18695 179.383 7.29028C179.288 7.39372 178.676 8.07564 178.025 8.80493C177.373 9.53418 176.813 10.1597 176.781 10.1956C176.748 10.2312 176.562 10.4397 176.367 10.6584C176.172 10.8768 175.964 11.1175 175.905 11.1926C175.811 11.3104 175.784 11.3184 175.709 11.2502C175.662 11.2061 175.532 11.0961 175.42 11.0061C175.308 10.9153 175.1 10.7322 174.957 10.5989C174.814 10.4654 174.593 10.2712 174.466 10.1672C174.295 10.0274 174.174 9.97637 174.003 9.9729C173.865 9.97003 173.705 10.0132 173.606 10.0784C173.514 10.139 173.403 10.2606 173.36 10.3479C173.316 10.4352 173.281 10.5912 173.282 10.6946C173.283 10.798 173.316 10.9387 173.355 11.0081C173.394 11.0773 173.685 11.3604 174.003 11.6379C174.321 11.9152 174.76 12.3008 174.978 12.4944C175.196 12.6885 175.483 12.9437 175.615 13.0627C175.746 13.1812 175.874 13.279 175.898 13.2795C175.922 13.2794 176.13 13.0672 176.361 12.8079C176.591 12.5478 176.921 12.1775 177.093 11.9846C177.265 11.791 177.512 11.5165 177.643 11.3733C177.774 11.2305 178.167 10.7884 178.516 10.3909C178.865 9.99386 179.23 9.57999 179.325 9.47192C179.421 9.364 179.554 9.22158 179.623 9.15454C179.692 9.08808 179.959 8.78588 180.216 8.48364C180.473 8.18209 180.693 7.87 180.705 7.79028C180.718 7.71106 180.705 7.56161 180.677 7.45825C180.649 7.35426 180.543 7.20675 180.439 7.12817C180.335 7.05028 180.173 6.97201 180.077 6.95337Z" fill="white"/>
<path d="M176.979 0C177.074 -0.00283658 177.256 0.0313592 177.383 0.0751953C177.51 0.119115 177.747 0.242521 177.908 0.350586L178.66 0.852539C178.912 1.02069 179.21 1.18382 179.321 1.21387C179.433 1.24388 179.7 1.26855 179.914 1.26855C180.129 1.26912 180.507 1.24072 180.753 1.20605C181.091 1.15871 181.286 1.16076 181.548 1.21387C181.739 1.25314 181.973 1.33027 182.068 1.38574C182.164 1.44122 182.326 1.61328 182.427 1.76758C182.529 1.92244 182.681 2.20481 182.766 2.39551C182.85 2.58621 182.972 2.85961 183.037 3.00293C183.102 3.14632 183.302 3.40513 183.48 3.58008C183.734 3.82799 183.926 3.94958 184.353 4.12988C184.654 4.25701 185.018 4.43549 185.162 4.52734C185.306 4.61866 185.482 4.76253 185.554 4.8457C185.625 4.9284 185.726 5.13942 185.777 5.31445C185.857 5.58695 185.861 5.7229 185.806 6.26758C185.77 6.61719 185.742 7.03347 185.742 7.19238C185.742 7.35129 185.768 7.5721 185.798 7.68359C185.828 7.79532 185.99 8.09205 186.158 8.34375C186.327 8.59563 186.561 8.94714 186.679 9.12402C186.796 9.30076 186.923 9.54956 186.96 9.67676C186.997 9.80379 187.011 10.0252 186.991 10.168C186.969 10.3298 186.863 10.5742 186.71 10.8135C186.575 11.0256 186.343 11.3766 186.193 11.5938C186.045 11.811 185.881 12.1064 185.831 12.249C185.781 12.3918 185.74 12.639 185.74 12.7979C185.741 12.9569 185.772 13.3731 185.808 13.7227C185.863 14.2614 185.86 14.406 185.783 14.6758C185.722 14.8919 185.623 15.0658 185.472 15.2178C185.339 15.3524 185.03 15.544 184.7 15.6982C184.398 15.8397 184.061 15.9995 183.95 16.0527C183.84 16.1059 183.618 16.28 183.458 16.4395C183.298 16.5989 183.124 16.8203 183.07 16.9307C183.017 17.0411 182.858 17.3785 182.716 17.6807C182.56 18.0135 182.37 18.3163 182.234 18.4492C182.083 18.5977 181.907 18.6981 181.692 18.7588C181.477 18.82 181.272 18.8369 181.057 18.8115C180.881 18.7907 180.478 18.7583 180.16 18.7393C179.705 18.7115 179.52 18.7247 179.292 18.7998C179.133 18.853 178.82 19.0254 178.598 19.1826C178.375 19.3398 178.011 19.5795 177.789 19.7158C177.422 19.9406 177.351 19.9639 177.007 19.9639C176.662 19.9639 176.593 19.9416 176.225 19.7139C176.003 19.5769 175.645 19.3369 175.431 19.1797C175.216 19.0232 174.905 18.8516 174.737 18.7988C174.482 18.7179 174.328 18.7096 173.768 18.7529C173.401 18.7812 172.959 18.8031 172.784 18.8008C172.609 18.7984 172.363 18.768 172.235 18.7334C172.105 18.6982 171.907 18.575 171.78 18.4502C171.645 18.3167 171.454 18.0124 171.299 17.6807C171.158 17.3784 171.011 17.067 170.973 16.9873C170.935 16.9082 170.853 16.764 170.789 16.667C170.725 16.5699 170.634 16.4519 170.585 16.4062C170.536 16.36 170.419 16.2694 170.324 16.2041C170.23 16.1388 170.061 16.0436 169.95 15.9922C169.839 15.9413 169.591 15.8309 169.4 15.7471C169.21 15.6633 168.926 15.5109 168.771 15.4092C168.617 15.3081 168.445 15.1471 168.39 15.0518C168.334 14.9564 168.257 14.722 168.218 14.5312C168.165 14.2695 168.163 14.0743 168.21 13.7363C168.245 13.4901 168.273 13.1127 168.272 12.8984C168.272 12.6841 168.247 12.4181 168.217 12.3066C168.187 12.1951 168.025 11.8978 167.856 11.6465C167.688 11.3945 167.453 11.043 167.336 10.8662C167.219 10.6888 167.089 10.4203 167.047 10.2695C166.984 10.0431 166.984 9.94707 167.047 9.7207C167.088 9.56998 167.205 9.31617 167.306 9.15723C167.407 8.99831 167.599 8.7249 167.731 8.5498C167.864 8.37482 168.04 8.09005 168.122 7.91504C168.242 7.65961 168.272 7.50846 168.272 7.14844C168.273 6.90222 168.245 6.49897 168.21 6.25293C168.164 5.91906 168.166 5.70989 168.218 5.42969C168.28 5.09282 168.318 5.02422 168.584 4.76367C168.804 4.54702 169.027 4.40765 169.458 4.21875C169.776 4.07952 170.167 3.88298 170.326 3.78125C170.521 3.65758 170.684 3.4847 170.826 3.25586C170.941 3.06855 171.116 2.72093 171.214 2.48242C171.312 2.24448 171.471 1.93907 171.567 1.80371C171.664 1.6685 171.828 1.49701 171.932 1.42188C172.035 1.34733 172.276 1.25356 172.467 1.21484C172.729 1.16116 172.923 1.15869 173.262 1.20605C173.508 1.24073 173.886 1.26913 174.101 1.26855C174.315 1.26855 174.582 1.24389 174.693 1.21387C174.805 1.18382 175.102 1.0207 175.354 0.852539L176.106 0.350586C176.268 0.242521 176.491 0.12053 176.603 0.0800781C176.714 0.0390784 176.883 0.00288773 176.979 0ZM176.949 2.26074C176.615 2.26421 176.277 2.27693 176.197 2.28906C176.117 2.30065 175.897 2.33802 175.706 2.37207C175.515 2.40617 175.124 2.49878 174.838 2.5791C174.552 2.65944 174.069 2.84086 173.768 2.98242C173.466 3.12387 173.089 3.32183 172.93 3.42188C172.771 3.52182 172.498 3.7124 172.322 3.84473C172.147 3.97761 171.808 4.27712 171.569 4.51172C171.33 4.74634 171.017 5.09445 170.872 5.28516C170.728 5.47586 170.528 5.762 170.428 5.9209C170.328 6.0799 170.13 6.45723 169.988 6.75879C169.847 7.06045 169.665 7.54208 169.585 7.82812C169.505 8.11395 169.406 8.50355 169.363 8.69434C169.315 8.91157 169.287 9.40703 169.289 10.0234C169.291 10.6059 169.322 11.1123 169.363 11.2666C169.402 11.409 169.442 11.5778 169.452 11.6416C169.463 11.7052 169.528 11.9655 169.599 12.2197C169.669 12.474 169.878 12.9946 170.063 13.376C170.249 13.7573 170.555 14.2771 170.744 14.5312C170.933 14.7855 171.282 15.1895 171.518 15.4287C171.753 15.6685 172.102 15.9847 172.293 16.1309C172.484 16.2771 172.836 16.5106 173.074 16.6504C173.313 16.7908 173.716 16.9985 173.971 17.1123C174.225 17.2261 174.694 17.3857 175.012 17.4678C175.33 17.5498 175.824 17.6489 176.11 17.6865C176.419 17.727 176.926 17.7408 177.354 17.7217C177.752 17.7032 178.273 17.647 178.512 17.5967C178.751 17.5464 179.154 17.4379 179.408 17.3564C179.663 17.2744 180.092 17.0975 180.362 16.9629C180.633 16.8288 181.01 16.6198 181.201 16.499C181.392 16.3783 181.692 16.1607 181.866 16.0156C182.041 15.87 182.316 15.6196 182.477 15.459C182.637 15.2985 182.887 15.0242 183.033 14.8496C183.178 14.6751 183.397 14.3753 183.518 14.1846C183.638 13.9939 183.847 13.6171 183.981 13.3467C184.116 13.0763 184.294 12.6479 184.376 12.3936C184.458 12.1393 184.566 11.7352 184.617 11.4971C184.668 11.2582 184.722 10.7132 184.739 10.2842C184.761 9.73172 184.744 9.33493 184.681 8.92578C184.632 8.60803 184.523 8.1142 184.44 7.82812C184.358 7.54207 184.207 7.12581 184.106 6.90332C184.006 6.68083 183.803 6.29039 183.655 6.03613C183.507 5.78188 183.248 5.40512 183.079 5.19824C182.91 4.99136 182.639 4.69013 182.478 4.52832C182.316 4.36649 182.028 4.11008 181.837 3.95703C181.646 3.80449 181.354 3.59168 181.187 3.48535C181.019 3.37902 180.681 3.19007 180.435 3.06641C180.188 2.94336 179.792 2.77663 179.553 2.69629C179.314 2.61596 178.949 2.50966 178.742 2.45996C178.536 2.41029 178.184 2.34387 177.962 2.31152C177.739 2.27974 177.284 2.2567 176.949 2.26074Z" fill="white"/>
<path d="M196.27 13.0719C195.897 13.0719 195.543 13.0419 195.21 12.9819C194.877 12.9153 194.57 12.8219 194.29 12.7019C194.01 12.5819 193.76 12.4319 193.54 12.2519L193.85 11.5519C194.083 11.7253 194.323 11.8686 194.57 11.9819C194.817 12.0953 195.08 12.1786 195.36 12.2319C195.64 12.2853 195.943 12.3119 196.27 12.3119C196.85 12.3119 197.287 12.2019 197.58 11.9819C197.873 11.7553 198.02 11.4553 198.02 11.0819C198.02 10.8819 197.973 10.7153 197.88 10.5819C197.787 10.4419 197.637 10.3253 197.43 10.2319C197.23 10.1386 196.967 10.0619 196.64 10.0019L195.55 9.78193C194.91 9.6486 194.44 9.4286 194.14 9.12193C193.847 8.8086 193.7 8.40193 193.7 7.90193C193.7 7.4886 193.81 7.1286 194.03 6.82193C194.257 6.5086 194.57 6.2686 194.97 6.10193C195.37 5.9286 195.827 5.84193 196.34 5.84193C196.667 5.84193 196.973 5.87527 197.26 5.94193C197.547 6.00193 197.813 6.0986 198.06 6.23193C198.307 6.3586 198.523 6.51193 198.71 6.69193L198.4 7.38193C198.107 7.1086 197.79 6.91193 197.45 6.79193C197.117 6.66527 196.743 6.60193 196.33 6.60193C195.983 6.60193 195.677 6.65527 195.41 6.76193C195.143 6.86193 194.933 7.0086 194.78 7.20193C194.633 7.39527 194.56 7.62527 194.56 7.89193C194.56 8.1986 194.653 8.44193 194.84 8.62193C195.033 8.79527 195.357 8.9286 195.81 9.02193L196.89 9.24193C197.57 9.37527 198.07 9.5886 198.39 9.88193C198.717 10.1686 198.88 10.5553 198.88 11.0419C198.88 11.4353 198.773 11.7853 198.56 12.0919C198.353 12.3986 198.053 12.6386 197.66 12.8119C197.267 12.9853 196.803 13.0719 196.27 13.0719ZM201.758 13.0719C201.418 13.0719 201.111 13.0086 200.838 12.8819C200.571 12.7486 200.358 12.5686 200.198 12.3419C200.044 12.1153 199.968 11.8619 199.968 11.5819C199.968 11.2153 200.064 10.9253 200.258 10.7119C200.458 10.4986 200.774 10.3486 201.208 10.2619C201.641 10.1686 202.214 10.1219 202.928 10.1219H203.508V10.6919H202.958C202.558 10.6919 202.221 10.7053 201.948 10.7319C201.674 10.7586 201.454 10.8053 201.288 10.8719C201.121 10.9319 201.001 11.0153 200.928 11.1219C200.854 11.2286 200.818 11.3653 200.818 11.5319C200.818 11.8053 200.918 12.0219 201.118 12.1819C201.318 12.3419 201.581 12.4219 201.908 12.4219C202.188 12.4219 202.434 12.3586 202.648 12.2319C202.868 12.0986 203.041 11.9219 203.168 11.7019C203.301 11.4819 203.368 11.2353 203.368 10.9619V9.82193C203.368 9.42193 203.271 9.13193 203.078 8.95193C202.884 8.76527 202.584 8.67193 202.178 8.67193C201.891 8.67193 201.604 8.71527 201.318 8.80193C201.038 8.88193 200.748 9.01527 200.448 9.20193L200.168 8.58193C200.354 8.45527 200.561 8.3486 200.788 8.26193C201.021 8.17527 201.261 8.1086 201.508 8.06193C201.754 8.01527 201.994 7.99193 202.228 7.99193C202.654 7.99193 203.011 8.0586 203.298 8.19193C203.591 8.32527 203.814 8.53193 203.968 8.81193C204.121 9.09193 204.198 9.45193 204.198 9.89193V12.9819H203.428V11.8719H203.468C203.394 12.1053 203.278 12.3119 203.118 12.4919C202.964 12.6719 202.771 12.8153 202.538 12.9219C202.311 13.0219 202.051 13.0719 201.758 13.0719ZM206.102 12.9819V8.74193H205.122V8.08193H206.332L206.102 8.30193V7.95193C206.102 7.30527 206.272 6.81527 206.612 6.48193C206.959 6.14193 207.472 5.95527 208.152 5.92193L208.602 5.89193L208.672 6.57193L208.142 6.60193C207.889 6.61527 207.672 6.6686 207.492 6.76193C207.319 6.8486 207.185 6.98193 207.092 7.16193C206.999 7.33527 206.952 7.56527 206.952 7.85193V8.20193L206.832 8.08193H208.432V8.74193H206.952V12.9819H206.102ZM211.589 13.0719C211.055 13.0719 210.595 12.9719 210.209 12.7719C209.822 12.5653 209.525 12.2719 209.319 11.8919C209.112 11.5119 209.009 11.0586 209.009 10.5319C209.009 10.0319 209.105 9.59193 209.299 9.21193C209.499 8.83193 209.779 8.53527 210.139 8.32193C210.499 8.10193 210.919 7.99193 211.399 7.99193C211.865 7.99193 212.259 8.09193 212.579 8.29193C212.905 8.49193 213.155 8.77527 213.329 9.14193C213.502 9.50193 213.589 9.93527 213.589 10.4419V10.7419H209.649V10.1619H213.029L212.859 10.3219C212.859 9.7886 212.735 9.37527 212.489 9.08193C212.242 8.78193 211.882 8.63193 211.409 8.63193C211.082 8.63193 210.799 8.7086 210.559 8.86193C210.325 9.0086 210.145 9.2186 210.019 9.49193C209.892 9.7586 209.829 10.0753 209.829 10.4419V10.5219C209.829 10.9286 209.895 11.2686 210.029 11.5419C210.169 11.8153 210.372 12.0253 210.639 12.1719C210.905 12.3119 211.225 12.3819 211.599 12.3819C211.879 12.3819 212.155 12.3419 212.429 12.2619C212.702 12.1753 212.962 12.0319 213.209 11.8319L213.499 12.4319C213.259 12.6386 212.965 12.7986 212.619 12.9119C212.279 13.0186 211.935 13.0719 211.589 13.0719ZM220.02 13.0719C219.647 13.0719 219.293 13.0419 218.96 12.9819C218.627 12.9153 218.32 12.8219 218.04 12.7019C217.76 12.5819 217.51 12.4319 217.29 12.2519L217.6 11.5519C217.833 11.7253 218.073 11.8686 218.32 11.9819C218.567 12.0953 218.83 12.1786 219.11 12.2319C219.39 12.2853 219.693 12.3119 220.02 12.3119C220.6 12.3119 221.037 12.2019 221.33 11.9819C221.623 11.7553 221.77 11.4553 221.77 11.0819C221.77 10.8819 221.723 10.7153 221.63 10.5819C221.537 10.4419 221.387 10.3253 221.18 10.2319C220.98 10.1386 220.717 10.0619 220.39 10.0019L219.3 9.78193C218.66 9.6486 218.19 9.4286 217.89 9.12193C217.597 8.8086 217.45 8.40193 217.45 7.90193C217.45 7.4886 217.56 7.1286 217.78 6.82193C218.007 6.5086 218.32 6.2686 218.72 6.10193C219.12 5.9286 219.577 5.84193 220.09 5.84193C220.417 5.84193 220.723 5.87527 221.01 5.94193C221.297 6.00193 221.563 6.0986 221.81 6.23193C222.057 6.3586 222.273 6.51193 222.46 6.69193L222.15 7.38193C221.857 7.1086 221.54 6.91193 221.2 6.79193C220.867 6.66527 220.493 6.60193 220.08 6.60193C219.733 6.60193 219.427 6.65527 219.16 6.76193C218.893 6.86193 218.683 7.0086 218.53 7.20193C218.383 7.39527 218.31 7.62527 218.31 7.89193C218.31 8.1986 218.403 8.44193 218.59 8.62193C218.783 8.79527 219.107 8.9286 219.56 9.02193L220.64 9.24193C221.32 9.37527 221.82 9.5886 222.14 9.88193C222.467 10.1686 222.63 10.5553 222.63 11.0419C222.63 11.4353 222.523 11.7853 222.31 12.0919C222.103 12.3986 221.803 12.6386 221.41 12.8119C221.017 12.9853 220.553 13.0719 220.02 13.0719ZM226.208 13.0719C225.674 13.0719 225.214 12.9719 224.828 12.7719C224.441 12.5653 224.144 12.2719 223.938 11.8919C223.731 11.5119 223.628 11.0586 223.628 10.5319C223.628 10.0319 223.724 9.59193 223.918 9.21193C224.118 8.83193 224.398 8.53527 224.758 8.32193C225.118 8.10193 225.538 7.99193 226.018 7.99193C226.484 7.99193 226.878 8.09193 227.198 8.29193C227.524 8.49193 227.774 8.77527 227.948 9.14193C228.121 9.50193 228.208 9.93527 228.208 10.4419V10.7419H224.268V10.1619H227.648L227.478 10.3219C227.478 9.7886 227.354 9.37527 227.108 9.08193C226.861 8.78193 226.501 8.63193 226.028 8.63193C225.701 8.63193 225.418 8.7086 225.178 8.86193C224.944 9.0086 224.764 9.2186 224.638 9.49193C224.511 9.7586 224.448 10.0753 224.448 10.4419V10.5219C224.448 10.9286 224.514 11.2686 224.648 11.5419C224.788 11.8153 224.991 12.0253 225.258 12.1719C225.524 12.3119 225.844 12.3819 226.218 12.3819C226.498 12.3819 226.774 12.3419 227.048 12.2619C227.321 12.1753 227.581 12.0319 227.828 11.8319L228.118 12.4319C227.878 12.6386 227.584 12.7986 227.238 12.9119C226.898 13.0186 226.554 13.0719 226.208 13.0719ZM231.103 13.0719C230.763 13.0719 230.457 13.0086 230.183 12.8819C229.917 12.7486 229.703 12.5686 229.543 12.3419C229.39 12.1153 229.313 11.8619 229.313 11.5819C229.313 11.2153 229.41 10.9253 229.603 10.7119C229.803 10.4986 230.12 10.3486 230.553 10.2619C230.987 10.1686 231.56 10.1219 232.273 10.1219H232.853V10.6919H232.303C231.903 10.6919 231.567 10.7053 231.293 10.7319C231.02 10.7586 230.8 10.8053 230.633 10.8719C230.467 10.9319 230.347 11.0153 230.273 11.1219C230.2 11.2286 230.163 11.3653 230.163 11.5319C230.163 11.8053 230.263 12.0219 230.463 12.1819C230.663 12.3419 230.927 12.4219 231.253 12.4219C231.533 12.4219 231.78 12.3586 231.993 12.2319C232.213 12.0986 232.387 11.9219 232.513 11.7019C232.647 11.4819 232.713 11.2353 232.713 10.9619V9.82193C232.713 9.42193 232.617 9.13193 232.423 8.95193C232.23 8.76527 231.93 8.67193 231.523 8.67193C231.237 8.67193 230.95 8.71527 230.663 8.80193C230.383 8.88193 230.093 9.01527 229.793 9.20193L229.513 8.58193C229.7 8.45527 229.907 8.3486 230.133 8.26193C230.367 8.17527 230.607 8.1086 230.853 8.06193C231.1 8.01527 231.34 7.99193 231.573 7.99193C232 7.99193 232.357 8.0586 232.643 8.19193C232.937 8.32527 233.16 8.53193 233.313 8.81193C233.467 9.09193 233.543 9.45193 233.543 9.89193V12.9819H232.773V11.8719H232.813C232.74 12.1053 232.623 12.3119 232.463 12.4919C232.31 12.6719 232.117 12.8153 231.883 12.9219C231.657 13.0219 231.397 13.0719 231.103 13.0719ZM236.668 13.0719C236.181 13.0719 235.808 12.9286 235.548 12.6419C235.294 12.3553 235.168 11.9486 235.168 11.4219V5.93193H236.018V11.3519C236.018 11.5653 236.048 11.7486 236.108 11.9019C236.174 12.0553 236.268 12.1686 236.388 12.2419C236.508 12.3153 236.654 12.3519 236.828 12.3519C236.914 12.3519 236.998 12.3486 237.078 12.3419C237.164 12.3353 237.251 12.3186 237.338 12.2919L237.328 12.9819C237.221 13.0086 237.114 13.0286 237.008 13.0419C236.901 13.0619 236.788 13.0719 236.668 13.0719Z" fill="white"/>
<defs>
<clipPath id="clip0_172_92">
<rect width="20" height="20" fill="white"/>
</clipPath>
</defs>
</svg>
