<svg width="151" height="16" viewBox="0 0 151 16" fill="none" xmlns="http://www.w3.org/2000/svg">
<path d="M2.66659 13.3334C2.29992 13.3334 1.98614 13.203 1.72525 12.9421C1.46436 12.6812 1.3337 12.3672 1.33325 12.0001V4.00008C1.33325 3.63341 1.46392 3.31964 1.72525 3.05875C1.98659 2.79786 2.30036 2.66719 2.66659 2.66675H13.3333C13.6999 2.66675 14.0139 2.79741 14.2753 3.05875C14.5366 3.32008 14.667 3.63386 14.6666 4.00008V12.0001C14.6666 12.3667 14.5361 12.6807 14.2753 12.9421C14.0144 13.2034 13.7004 13.3339 13.3333 13.3334H2.66659ZM7.99992 8.66675L13.3333 5.33341V4.00008L7.99992 7.33341L2.66659 4.00008V5.33341L7.99992 8.66675Z" fill="white"/>
<path d="M26.584 12.1C26.1947 12.1 25.816 12.044 25.448 11.932C25.0853 11.8253 24.7893 11.6707 24.56 11.468L24.928 10.876C25.1253 11.0467 25.368 11.18 25.656 11.276C25.944 11.3773 26.2453 11.428 26.56 11.428C27.0613 11.428 27.4293 11.3107 27.664 11.076C27.8987 10.8413 28.016 10.484 28.016 10.004V9.108L28.096 8.268L28.056 7.42V6.26H28.784V9.924C28.784 10.6707 28.5973 11.22 28.224 11.572C27.8507 11.924 27.304 12.1 26.584 12.1ZM26.488 10.324C26.0773 10.324 25.7093 10.2387 25.384 10.068C25.064 9.892 24.808 9.64933 24.616 9.34C24.4293 9.03067 24.336 8.67333 24.336 8.268C24.336 7.85733 24.4293 7.5 24.616 7.196C24.808 6.88667 25.064 6.64667 25.384 6.476C25.7093 6.30533 26.0773 6.22 26.488 6.22C26.8507 6.22 27.1813 6.29467 27.48 6.444C27.7787 6.588 28.016 6.812 28.192 7.116C28.3733 7.42 28.464 7.804 28.464 8.268C28.464 8.72667 28.3733 9.108 28.192 9.412C28.016 9.716 27.7787 9.94533 27.48 10.1C27.1813 10.2493 26.8507 10.324 26.488 10.324ZM26.576 9.652C26.8587 9.652 27.1093 9.59333 27.328 9.476C27.5467 9.35867 27.7173 9.196 27.84 8.988C27.968 8.78 28.032 8.54 28.032 8.268C28.032 7.996 27.968 7.756 27.84 7.548C27.7173 7.34 27.5467 7.18 27.328 7.068C27.1093 6.95067 26.8587 6.892 26.576 6.892C26.2933 6.892 26.04 6.95067 25.816 7.068C25.5973 7.18 25.424 7.34 25.296 7.548C25.1733 7.756 25.112 7.996 25.112 8.268C25.112 8.54 25.1733 8.78 25.296 8.988C25.424 9.196 25.5973 9.35867 25.816 9.476C26.04 9.59333 26.2933 9.652 26.576 9.652ZM32.8834 10.5V9.604L32.8434 9.436V7.908C32.8434 7.58267 32.7474 7.332 32.5554 7.156C32.3688 6.97467 32.0861 6.884 31.7074 6.884C31.4568 6.884 31.2114 6.92667 30.9714 7.012C30.7314 7.092 30.5288 7.20133 30.3634 7.34L30.0434 6.764C30.2621 6.588 30.5234 6.45467 30.8274 6.364C31.1368 6.268 31.4594 6.22 31.7954 6.22C32.3768 6.22 32.8248 6.36133 33.1394 6.644C33.4541 6.92667 33.6114 7.35867 33.6114 7.94V10.5H32.8834ZM31.4914 10.548C31.1768 10.548 30.8994 10.4947 30.6594 10.388C30.4248 10.2813 30.2434 10.1347 30.1154 9.948C29.9874 9.756 29.9234 9.54 29.9234 9.3C29.9234 9.07067 29.9768 8.86267 30.0834 8.676C30.1954 8.48933 30.3741 8.34 30.6194 8.228C30.8701 8.116 31.2061 8.06 31.6274 8.06H32.9714V8.612H31.6594C31.2754 8.612 31.0168 8.676 30.8834 8.804C30.7501 8.932 30.6834 9.08667 30.6834 9.268C30.6834 9.476 30.7661 9.644 30.9314 9.772C31.0968 9.89467 31.3261 9.956 31.6194 9.956C31.9074 9.956 32.1581 9.892 32.3714 9.764C32.5901 9.636 32.7474 9.44933 32.8434 9.204L32.9954 9.732C32.8941 9.98267 32.7154 10.1827 32.4594 10.332C32.2034 10.476 31.8808 10.548 31.4914 10.548ZM37.2967 6.22C37.6434 6.22 37.9474 6.28667 38.2087 6.42C38.4754 6.55333 38.6834 6.756 38.8327 7.028C38.982 7.3 39.0567 7.644 39.0567 8.06V10.5H38.2887V8.148C38.2887 7.73733 38.1874 7.428 37.9847 7.22C37.7874 7.012 37.5074 6.908 37.1447 6.908C36.8727 6.908 36.6354 6.96133 36.4327 7.068C36.23 7.17467 36.0727 7.332 35.9607 7.54C35.854 7.748 35.8007 8.00667 35.8007 8.316V10.5H35.0327V6.26H35.7687V7.404L35.6487 7.1C35.7874 6.82267 36.0007 6.60667 36.2887 6.452C36.5767 6.29733 36.9127 6.22 37.2967 6.22ZM42.366 10.548C41.9127 10.548 41.5127 10.4547 41.166 10.268C40.8247 10.0813 40.558 9.82533 40.366 9.5C40.1793 9.17467 40.086 8.80133 40.086 8.38C40.086 7.95867 40.1767 7.58533 40.358 7.26C40.5447 6.93467 40.798 6.68133 41.118 6.5C41.4433 6.31333 41.8087 6.22 42.214 6.22C42.6247 6.22 42.9873 6.31067 43.302 6.492C43.6167 6.67333 43.862 6.92933 44.038 7.26C44.2193 7.58533 44.31 7.96667 44.31 8.404C44.31 8.436 44.3073 8.47333 44.302 8.516C44.302 8.55867 44.2993 8.59867 44.294 8.636H40.686V8.084H43.894L43.582 8.276C43.5873 8.004 43.5313 7.76133 43.414 7.548C43.2967 7.33467 43.134 7.16933 42.926 7.052C42.7233 6.92933 42.486 6.868 42.214 6.868C41.9473 6.868 41.71 6.92933 41.502 7.052C41.294 7.16933 41.1313 7.33733 41.014 7.556C40.8967 7.76933 40.838 8.01467 40.838 8.292V8.42C40.838 8.70267 40.902 8.956 41.03 9.18C41.1633 9.39867 41.3473 9.56933 41.582 9.692C41.8167 9.81467 42.086 9.876 42.39 9.876C42.6407 9.876 42.8673 9.83333 43.07 9.748C43.278 9.66267 43.4593 9.53467 43.614 9.364L44.038 9.86C43.846 10.084 43.606 10.2547 43.318 10.372C43.0353 10.4893 42.718 10.548 42.366 10.548ZM46.5924 10.548C46.2404 10.548 45.9044 10.5 45.5844 10.404C45.2698 10.308 45.0218 10.1907 44.8404 10.052L45.1604 9.444C45.3418 9.56667 45.5658 9.67067 45.8324 9.756C46.0991 9.84133 46.3711 9.884 46.6484 9.884C47.0058 9.884 47.2618 9.83333 47.4164 9.732C47.5764 9.63067 47.6564 9.48933 47.6564 9.308C47.6564 9.17467 47.6084 9.07067 47.5124 8.996C47.4164 8.92133 47.2884 8.86533 47.1284 8.828C46.9738 8.79067 46.8004 8.75867 46.6084 8.732C46.4164 8.7 46.2244 8.66267 46.0324 8.62C45.8404 8.572 45.6644 8.508 45.5044 8.428C45.3444 8.34267 45.2164 8.228 45.1204 8.084C45.0244 7.93467 44.9764 7.73733 44.9764 7.492C44.9764 7.236 45.0484 7.012 45.1924 6.82C45.3364 6.628 45.5391 6.48133 45.8004 6.38C46.0671 6.27333 46.3818 6.22 46.7444 6.22C47.0218 6.22 47.3018 6.25467 47.5844 6.324C47.8724 6.388 48.1071 6.48133 48.2884 6.604L47.9604 7.212C47.7684 7.084 47.5684 6.996 47.3604 6.948C47.1524 6.9 46.9444 6.876 46.7364 6.876C46.4004 6.876 46.1498 6.932 45.9844 7.044C45.8191 7.15067 45.7364 7.28933 45.7364 7.46C45.7364 7.604 45.7844 7.716 45.8804 7.796C45.9818 7.87067 46.1098 7.92933 46.2644 7.972C46.4244 8.01467 46.6004 8.052 46.7924 8.084C46.9844 8.11067 47.1764 8.148 47.3684 8.196C47.5604 8.23867 47.7338 8.3 47.8884 8.38C48.0484 8.46 48.1764 8.572 48.2724 8.716C48.3738 8.86 48.4244 9.052 48.4244 9.292C48.4244 9.548 48.3498 9.76933 48.2004 9.956C48.0511 10.1427 47.8404 10.2893 47.5684 10.396C47.2964 10.4973 46.9711 10.548 46.5924 10.548ZM51.6483 6.22C51.9949 6.22 52.2989 6.28667 52.5603 6.42C52.8269 6.55333 53.0349 6.756 53.1843 7.028C53.3336 7.3 53.4083 7.644 53.4083 8.06V10.5H52.6403V8.148C52.6403 7.73733 52.5389 7.428 52.3363 7.22C52.1389 7.012 51.8589 6.908 51.4963 6.908C51.2243 6.908 50.9869 6.96133 50.7843 7.068C50.5816 7.17467 50.4243 7.332 50.3123 7.54C50.2056 7.748 50.1523 8.00667 50.1523 8.316V10.5H49.3843V4.564H50.1523V7.404L50.0003 7.1C50.1389 6.82267 50.3523 6.60667 50.6403 6.452C50.9283 6.29733 51.2643 6.22 51.6483 6.22ZM58.2296 12.116C57.6749 12.116 57.1682 12.0253 56.7096 11.844C56.2509 11.6627 55.8562 11.4093 55.5256 11.084C55.1949 10.7587 54.9389 10.3747 54.7576 9.932C54.5762 9.484 54.4856 8.996 54.4856 8.468C54.4856 7.94 54.5762 7.45467 54.7576 7.012C54.9389 6.56933 55.1949 6.18533 55.5256 5.86C55.8616 5.53467 56.2616 5.284 56.7256 5.108C57.1896 4.932 57.7016 4.844 58.2616 4.844C58.8109 4.844 59.3122 4.92933 59.7656 5.1C60.2189 5.27067 60.6109 5.51333 60.9416 5.828C61.2776 6.13733 61.5362 6.508 61.7176 6.94C61.8989 7.36667 61.9896 7.83867 61.9896 8.356C61.9896 8.80933 61.9336 9.19867 61.8216 9.524C61.7096 9.84933 61.5469 10.1027 61.3336 10.284C61.1256 10.46 60.8696 10.548 60.5656 10.548C60.2669 10.548 60.0269 10.4573 59.8456 10.276C59.6696 10.0947 59.5816 9.836 59.5816 9.5V8.956L59.6216 8.468L59.5496 7.548V6.484H60.2456V9.364C60.2456 9.57733 60.2882 9.72667 60.3736 9.812C60.4642 9.89733 60.5736 9.94 60.7016 9.94C60.8562 9.94 60.9896 9.87867 61.1016 9.756C61.2189 9.63333 61.3042 9.45467 61.3576 9.22C61.4162 8.98 61.4456 8.69467 61.4456 8.364C61.4456 7.916 61.3682 7.51067 61.2136 7.148C61.0642 6.78 60.8456 6.46267 60.5576 6.196C60.2749 5.92933 59.9389 5.72667 59.5496 5.588C59.1656 5.444 58.7362 5.372 58.2616 5.372C57.7869 5.372 57.3522 5.44933 56.9576 5.604C56.5682 5.75333 56.2322 5.96667 55.9496 6.244C55.6669 6.516 55.4482 6.84133 55.2936 7.22C55.1442 7.59867 55.0696 8.01467 55.0696 8.468C55.0696 8.92667 55.1442 9.348 55.2936 9.732C55.4429 10.1107 55.6562 10.436 55.9336 10.708C56.2162 10.9853 56.5496 11.1987 56.9336 11.348C57.3229 11.5027 57.7549 11.58 58.2296 11.58C58.4749 11.58 58.7336 11.5507 59.0056 11.492C59.2776 11.4387 59.5336 11.3507 59.7736 11.228L59.9496 11.74C59.7042 11.8627 59.4269 11.956 59.1176 12.02C58.8082 12.084 58.5122 12.116 58.2296 12.116ZM58.0856 10.548C57.7069 10.548 57.3709 10.46 57.0776 10.284C56.7842 10.1027 56.5522 9.85733 56.3816 9.548C56.2109 9.23867 56.1256 8.88667 56.1256 8.492C56.1256 8.092 56.2109 7.74 56.3816 7.436C56.5522 7.12667 56.7842 6.88667 57.0776 6.716C57.3709 6.54 57.7069 6.452 58.0856 6.452C58.4536 6.452 58.7762 6.532 59.0536 6.692C59.3309 6.84667 59.5469 7.076 59.7016 7.38C59.8616 7.684 59.9416 8.05467 59.9416 8.492C59.9416 8.92933 59.8642 9.3 59.7096 9.604C59.5549 9.908 59.3389 10.1427 59.0616 10.308C58.7842 10.468 58.4589 10.548 58.0856 10.548ZM58.1976 9.924C58.4589 9.924 58.6909 9.868 58.8936 9.756C59.1016 9.63867 59.2642 9.47333 59.3816 9.26C59.5042 9.04133 59.5656 8.78533 59.5656 8.492C59.5656 8.19333 59.5042 7.93733 59.3816 7.724C59.2642 7.51067 59.1016 7.348 58.8936 7.236C58.6909 7.124 58.4589 7.068 58.1976 7.068C57.9309 7.068 57.6936 7.12667 57.4856 7.244C57.2829 7.356 57.1229 7.51867 57.0056 7.732C56.8936 7.94533 56.8376 8.19867 56.8376 8.492C56.8376 8.78 56.8936 9.03067 57.0056 9.244C57.1229 9.45733 57.2829 9.62533 57.4856 9.748C57.6936 9.86533 57.9309 9.924 58.1976 9.924ZM62.679 9.124V8.564L65.543 4.9H66.407L63.567 8.564L63.159 8.436H67.631V9.124H62.679ZM65.791 10.5V9.124L65.815 8.436V7.22H66.567V10.5H65.791ZM73.7586 6.22C74.0999 6.22 74.4012 6.28667 74.6626 6.42C74.9239 6.55333 75.1266 6.756 75.2706 7.028C75.4199 7.3 75.4946 7.644 75.4946 8.06V10.5H74.7266V8.148C74.7266 7.73733 74.6306 7.428 74.4386 7.22C74.2466 7.012 73.9772 6.908 73.6306 6.908C73.3746 6.908 73.1506 6.96133 72.9586 7.068C72.7666 7.17467 72.6172 7.332 72.5106 7.54C72.4092 7.748 72.3586 8.00667 72.3586 8.316V10.5H71.5906V8.148C71.5906 7.73733 71.4946 7.428 71.3026 7.22C71.1159 7.012 70.8466 6.908 70.4946 6.908C70.2439 6.908 70.0226 6.96133 69.8306 7.068C69.6386 7.17467 69.4892 7.332 69.3826 7.54C69.2759 7.748 69.2226 8.00667 69.2226 8.316V10.5H68.4546V6.26H69.1906V7.388L69.0706 7.1C69.2039 6.82267 69.4092 6.60667 69.6866 6.452C69.9639 6.29733 70.2866 6.22 70.6546 6.22C71.0599 6.22 71.4092 6.32133 71.7026 6.524C71.9959 6.72133 72.1879 7.02267 72.2786 7.428L71.9666 7.3C72.0946 6.97467 72.3186 6.71333 72.6386 6.516C72.9586 6.31867 73.3319 6.22 73.7586 6.22ZM79.1557 10.548C78.8037 10.548 78.481 10.468 78.1877 10.308C77.8997 10.1427 77.6677 9.9 77.4917 9.58C77.321 9.26 77.2357 8.86 77.2357 8.38C77.2357 7.9 77.3184 7.5 77.4837 7.18C77.6544 6.86 77.8837 6.62 78.1717 6.46C78.465 6.3 78.793 6.22 79.1557 6.22C79.5717 6.22 79.9397 6.31067 80.2597 6.492C80.5797 6.67333 80.833 6.92667 81.0197 7.252C81.2064 7.572 81.2997 7.948 81.2997 8.38C81.2997 8.812 81.2064 9.19067 81.0197 9.516C80.833 9.84133 80.5797 10.0947 80.2597 10.276C79.9397 10.4573 79.5717 10.548 79.1557 10.548ZM76.9077 12.052V6.26H77.6437V7.404L77.5957 8.388L77.6757 9.372V12.052H76.9077ZM79.0917 9.876C79.3637 9.876 79.6064 9.81467 79.8197 9.692C80.0384 9.56933 80.209 9.396 80.3317 9.172C80.4597 8.94267 80.5237 8.67867 80.5237 8.38C80.5237 8.076 80.4597 7.81467 80.3317 7.596C80.209 7.372 80.0384 7.19867 79.8197 7.076C79.6064 6.95333 79.3637 6.892 79.0917 6.892C78.825 6.892 78.5824 6.95333 78.3637 7.076C78.1504 7.19867 77.9797 7.372 77.8517 7.596C77.729 7.81467 77.6677 8.076 77.6677 8.38C77.6677 8.67867 77.729 8.94267 77.8517 9.172C77.9797 9.396 78.1504 9.56933 78.3637 9.692C78.5824 9.81467 78.825 9.876 79.0917 9.876ZM84.9538 10.5V9.604L84.9138 9.436V7.908C84.9138 7.58267 84.8178 7.332 84.6258 7.156C84.4391 6.97467 84.1564 6.884 83.7778 6.884C83.5271 6.884 83.2818 6.92667 83.0418 7.012C82.8018 7.092 82.5991 7.20133 82.4338 7.34L82.1138 6.764C82.3324 6.588 82.5938 6.45467 82.8978 6.364C83.2071 6.268 83.5298 6.22 83.8658 6.22C84.4471 6.22 84.8951 6.36133 85.2098 6.644C85.5244 6.92667 85.6818 7.35867 85.6818 7.94V10.5H84.9538ZM83.5618 10.548C83.2471 10.548 82.9698 10.4947 82.7298 10.388C82.4951 10.2813 82.3138 10.1347 82.1858 9.948C82.0578 9.756 81.9938 9.54 81.9938 9.3C81.9938 9.07067 82.0471 8.86267 82.1538 8.676C82.2658 8.48933 82.4444 8.34 82.6898 8.228C82.9404 8.116 83.2764 8.06 83.6978 8.06H85.0418V8.612H83.7298C83.3458 8.612 83.0871 8.676 82.9538 8.804C82.8204 8.932 82.7538 9.08667 82.7538 9.268C82.7538 9.476 82.8364 9.644 83.0018 9.772C83.1671 9.89467 83.3964 9.956 83.6898 9.956C83.9778 9.956 84.2284 9.892 84.4418 9.764C84.6604 9.636 84.8178 9.44933 84.9138 9.204L85.0658 9.732C84.9644 9.98267 84.7858 10.1827 84.5298 10.332C84.2738 10.476 83.9511 10.548 83.5618 10.548ZM88.951 10.548C88.519 10.548 88.1323 10.4547 87.791 10.268C87.455 10.0813 87.191 9.82533 86.999 9.5C86.807 9.17467 86.711 8.80133 86.711 8.38C86.711 7.95867 86.807 7.58533 86.999 7.26C87.191 6.93467 87.455 6.68133 87.791 6.5C88.1323 6.31333 88.519 6.22 88.951 6.22C89.335 6.22 89.6763 6.29733 89.975 6.452C90.279 6.60133 90.5137 6.82533 90.679 7.124L90.095 7.5C89.9563 7.292 89.7857 7.14 89.583 7.044C89.3857 6.94267 89.1723 6.892 88.943 6.892C88.6657 6.892 88.4177 6.95333 88.199 7.076C87.9803 7.19867 87.807 7.372 87.679 7.596C87.551 7.81467 87.487 8.076 87.487 8.38C87.487 8.684 87.551 8.948 87.679 9.172C87.807 9.396 87.9803 9.56933 88.199 9.692C88.4177 9.81467 88.6657 9.876 88.943 9.876C89.1723 9.876 89.3857 9.828 89.583 9.732C89.7857 9.63067 89.9563 9.476 90.095 9.268L90.679 9.636C90.5137 9.92933 90.279 10.156 89.975 10.316C89.6763 10.4707 89.335 10.548 88.951 10.548ZM92.2426 9.476L92.2586 8.492L94.6986 6.26H95.6266L93.7546 8.1L93.3386 8.452L92.2426 9.476ZM91.6186 10.5V4.564H92.3866V10.5H91.6186ZM94.8586 10.5L93.1946 8.436L93.6906 7.82L95.8026 10.5H94.8586ZM97.6315 10.548C97.2795 10.548 96.9435 10.5 96.6235 10.404C96.3088 10.308 96.0608 10.1907 95.8795 10.052L96.1995 9.444C96.3808 9.56667 96.6048 9.67067 96.8715 9.756C97.1382 9.84133 97.4102 9.884 97.6875 9.884C98.0448 9.884 98.3008 9.83333 98.4555 9.732C98.6155 9.63067 98.6955 9.48933 98.6955 9.308C98.6955 9.17467 98.6475 9.07067 98.5515 8.996C98.4555 8.92133 98.3275 8.86533 98.1675 8.828C98.0128 8.79067 97.8395 8.75867 97.6475 8.732C97.4555 8.7 97.2635 8.66267 97.0715 8.62C96.8795 8.572 96.7035 8.508 96.5435 8.428C96.3835 8.34267 96.2555 8.228 96.1595 8.084C96.0635 7.93467 96.0155 7.73733 96.0155 7.492C96.0155 7.236 96.0875 7.012 96.2315 6.82C96.3755 6.628 96.5782 6.48133 96.8395 6.38C97.1062 6.27333 97.4208 6.22 97.7835 6.22C98.0608 6.22 98.3408 6.25467 98.6235 6.324C98.9115 6.388 99.1462 6.48133 99.3275 6.604L98.9995 7.212C98.8075 7.084 98.6075 6.996 98.3995 6.948C98.1915 6.9 97.9835 6.876 97.7755 6.876C97.4395 6.876 97.1888 6.932 97.0235 7.044C96.8582 7.15067 96.7755 7.28933 96.7755 7.46C96.7755 7.604 96.8235 7.716 96.9195 7.796C97.0208 7.87067 97.1488 7.92933 97.3035 7.972C97.4635 8.01467 97.6395 8.052 97.8315 8.084C98.0235 8.11067 98.2155 8.148 98.4075 8.196C98.5995 8.23867 98.7728 8.3 98.9275 8.38C99.0875 8.46 99.2155 8.572 99.3115 8.716C99.4128 8.86 99.4635 9.052 99.4635 9.292C99.4635 9.548 99.3888 9.76933 99.2395 9.956C99.0902 10.1427 98.8795 10.2893 98.6075 10.396C98.3355 10.4973 98.0102 10.548 97.6315 10.548ZM103.823 12.116C103.269 12.116 102.762 12.0253 102.303 11.844C101.845 11.6627 101.45 11.4093 101.119 11.084C100.789 10.7587 100.533 10.3747 100.351 9.932C100.17 9.484 100.079 8.996 100.079 8.468C100.079 7.94 100.17 7.45467 100.351 7.012C100.533 6.56933 100.789 6.18533 101.119 5.86C101.455 5.53467 101.855 5.284 102.319 5.108C102.783 4.932 103.295 4.844 103.855 4.844C104.405 4.844 104.906 4.92933 105.359 5.1C105.813 5.27067 106.205 5.51333 106.535 5.828C106.871 6.13733 107.13 6.508 107.311 6.94C107.493 7.36667 107.583 7.83867 107.583 8.356C107.583 8.80933 107.527 9.19867 107.415 9.524C107.303 9.84933 107.141 10.1027 106.927 10.284C106.719 10.46 106.463 10.548 106.159 10.548C105.861 10.548 105.621 10.4573 105.439 10.276C105.263 10.0947 105.175 9.836 105.175 9.5V8.956L105.215 8.468L105.143 7.548V6.484H105.839V9.364C105.839 9.57733 105.882 9.72667 105.967 9.812C106.058 9.89733 106.167 9.94 106.295 9.94C106.45 9.94 106.583 9.87867 106.695 9.756C106.813 9.63333 106.898 9.45467 106.951 9.22C107.01 8.98 107.039 8.69467 107.039 8.364C107.039 7.916 106.962 7.51067 106.807 7.148C106.658 6.78 106.439 6.46267 106.151 6.196C105.869 5.92933 105.533 5.72667 105.143 5.588C104.759 5.444 104.33 5.372 103.855 5.372C103.381 5.372 102.946 5.44933 102.551 5.604C102.162 5.75333 101.826 5.96667 101.543 6.244C101.261 6.516 101.042 6.84133 100.887 7.22C100.738 7.59867 100.663 8.01467 100.663 8.468C100.663 8.92667 100.738 9.348 100.887 9.732C101.037 10.1107 101.25 10.436 101.527 10.708C101.81 10.9853 102.143 11.1987 102.527 11.348C102.917 11.5027 103.349 11.58 103.823 11.58C104.069 11.58 104.327 11.5507 104.599 11.492C104.871 11.4387 105.127 11.3507 105.367 11.228L105.543 11.74C105.298 11.8627 105.021 11.956 104.711 12.02C104.402 12.084 104.106 12.116 103.823 12.116ZM103.679 10.548C103.301 10.548 102.965 10.46 102.671 10.284C102.378 10.1027 102.146 9.85733 101.975 9.548C101.805 9.23867 101.719 8.88667 101.719 8.492C101.719 8.092 101.805 7.74 101.975 7.436C102.146 7.12667 102.378 6.88667 102.671 6.716C102.965 6.54 103.301 6.452 103.679 6.452C104.047 6.452 104.37 6.532 104.647 6.692C104.925 6.84667 105.141 7.076 105.295 7.38C105.455 7.684 105.535 8.05467 105.535 8.492C105.535 8.92933 105.458 9.3 105.303 9.604C105.149 9.908 104.933 10.1427 104.655 10.308C104.378 10.468 104.053 10.548 103.679 10.548ZM103.791 9.924C104.053 9.924 104.285 9.868 104.487 9.756C104.695 9.63867 104.858 9.47333 104.975 9.26C105.098 9.04133 105.159 8.78533 105.159 8.492C105.159 8.19333 105.098 7.93733 104.975 7.724C104.858 7.51067 104.695 7.348 104.487 7.236C104.285 7.124 104.053 7.068 103.791 7.068C103.525 7.068 103.287 7.12667 103.079 7.244C102.877 7.356 102.717 7.51867 102.599 7.732C102.487 7.94533 102.431 8.19867 102.431 8.492C102.431 8.78 102.487 9.03067 102.599 9.244C102.717 9.45733 102.877 9.62533 103.079 9.748C103.287 9.86533 103.525 9.924 103.791 9.924ZM110.553 12.1C110.163 12.1 109.785 12.044 109.417 11.932C109.054 11.8253 108.758 11.6707 108.529 11.468L108.897 10.876C109.094 11.0467 109.337 11.18 109.625 11.276C109.913 11.3773 110.214 11.428 110.529 11.428C111.03 11.428 111.398 11.3107 111.633 11.076C111.867 10.8413 111.985 10.484 111.985 10.004V9.108L112.065 8.268L112.025 7.42V6.26H112.753V9.924C112.753 10.6707 112.566 11.22 112.193 11.572C111.819 11.924 111.273 12.1 110.553 12.1ZM110.457 10.324C110.046 10.324 109.678 10.2387 109.353 10.068C109.033 9.892 108.777 9.64933 108.585 9.34C108.398 9.03067 108.305 8.67333 108.305 8.268C108.305 7.85733 108.398 7.5 108.585 7.196C108.777 6.88667 109.033 6.64667 109.353 6.476C109.678 6.30533 110.046 6.22 110.457 6.22C110.819 6.22 111.15 6.29467 111.449 6.444C111.747 6.588 111.985 6.812 112.161 7.116C112.342 7.42 112.433 7.804 112.433 8.268C112.433 8.72667 112.342 9.108 112.161 9.412C111.985 9.716 111.747 9.94533 111.449 10.1C111.15 10.2493 110.819 10.324 110.457 10.324ZM110.545 9.652C110.827 9.652 111.078 9.59333 111.297 9.476C111.515 9.35867 111.686 9.196 111.809 8.988C111.937 8.78 112.001 8.54 112.001 8.268C112.001 7.996 111.937 7.756 111.809 7.548C111.686 7.34 111.515 7.18 111.297 7.068C111.078 6.95067 110.827 6.892 110.545 6.892C110.262 6.892 110.009 6.95067 109.785 7.068C109.566 7.18 109.393 7.34 109.265 7.548C109.142 7.756 109.081 7.996 109.081 8.268C109.081 8.54 109.142 8.78 109.265 8.988C109.393 9.196 109.566 9.35867 109.785 9.476C110.009 9.59333 110.262 9.652 110.545 9.652ZM119.524 6.22C119.866 6.22 120.167 6.28667 120.428 6.42C120.69 6.55333 120.892 6.756 121.036 7.028C121.186 7.3 121.26 7.644 121.26 8.06V10.5H120.492V8.148C120.492 7.73733 120.396 7.428 120.204 7.22C120.012 7.012 119.743 6.908 119.396 6.908C119.14 6.908 118.916 6.96133 118.724 7.068C118.532 7.17467 118.383 7.332 118.276 7.54C118.175 7.748 118.124 8.00667 118.124 8.316V10.5H117.356V8.148C117.356 7.73733 117.26 7.428 117.068 7.22C116.882 7.012 116.612 6.908 116.26 6.908C116.01 6.908 115.788 6.96133 115.596 7.068C115.404 7.17467 115.255 7.332 115.148 7.54C115.042 7.748 114.988 8.00667 114.988 8.316V10.5H114.22V6.26H114.956V7.388L114.836 7.1C114.97 6.82267 115.175 6.60667 115.452 6.452C115.73 6.29733 116.052 6.22 116.42 6.22C116.826 6.22 117.175 6.32133 117.468 6.524C117.762 6.72133 117.954 7.02267 118.044 7.428L117.732 7.3C117.86 6.97467 118.084 6.71333 118.404 6.516C118.724 6.31867 119.098 6.22 119.524 6.22ZM125.305 10.5V9.604L125.265 9.436V7.908C125.265 7.58267 125.169 7.332 124.977 7.156C124.791 6.97467 124.508 6.884 124.129 6.884C123.879 6.884 123.633 6.92667 123.393 7.012C123.153 7.092 122.951 7.20133 122.785 7.34L122.465 6.764C122.684 6.588 122.945 6.45467 123.249 6.364C123.559 6.268 123.881 6.22 124.217 6.22C124.799 6.22 125.247 6.36133 125.561 6.644C125.876 6.92667 126.033 7.35867 126.033 7.94V10.5H125.305ZM123.913 10.548C123.599 10.548 123.321 10.4947 123.081 10.388C122.847 10.2813 122.665 10.1347 122.537 9.948C122.409 9.756 122.345 9.54 122.345 9.3C122.345 9.07067 122.399 8.86267 122.505 8.676C122.617 8.48933 122.796 8.34 123.041 8.228C123.292 8.116 123.628 8.06 124.049 8.06H125.393V8.612H124.081C123.697 8.612 123.439 8.676 123.305 8.804C123.172 8.932 123.105 9.08667 123.105 9.268C123.105 9.476 123.188 9.644 123.353 9.772C123.519 9.89467 123.748 9.956 124.041 9.956C124.329 9.956 124.58 9.892 124.793 9.764C125.012 9.636 125.169 9.44933 125.265 9.204L125.417 9.732C125.316 9.98267 125.137 10.1827 124.881 10.332C124.625 10.476 124.303 10.548 123.913 10.548ZM127.455 10.5V6.26H128.223V10.5H127.455ZM127.839 5.444C127.689 5.444 127.564 5.396 127.463 5.3C127.367 5.204 127.319 5.08667 127.319 4.948C127.319 4.804 127.367 4.684 127.463 4.588C127.564 4.492 127.689 4.444 127.839 4.444C127.988 4.444 128.111 4.492 128.207 4.588C128.308 4.67867 128.359 4.79333 128.359 4.932C128.359 5.076 128.311 5.19867 128.215 5.3C128.119 5.396 127.993 5.444 127.839 5.444ZM129.689 10.5V4.564H130.457V10.5H129.689ZM132.107 10.548C131.958 10.548 131.83 10.4973 131.723 10.396C131.617 10.2893 131.563 10.156 131.563 9.996C131.563 9.836 131.617 9.70533 131.723 9.604C131.83 9.50267 131.958 9.452 132.107 9.452C132.251 9.452 132.374 9.50267 132.475 9.604C132.582 9.70533 132.635 9.836 132.635 9.996C132.635 10.156 132.582 10.2893 132.475 10.396C132.374 10.4973 132.251 10.548 132.107 10.548ZM135.49 10.548C135.058 10.548 134.671 10.4547 134.33 10.268C133.994 10.0813 133.73 9.82533 133.538 9.5C133.346 9.17467 133.25 8.80133 133.25 8.38C133.25 7.95867 133.346 7.58533 133.538 7.26C133.73 6.93467 133.994 6.68133 134.33 6.5C134.671 6.31333 135.058 6.22 135.49 6.22C135.874 6.22 136.215 6.29733 136.514 6.452C136.818 6.60133 137.053 6.82533 137.218 7.124L136.634 7.5C136.495 7.292 136.325 7.14 136.122 7.044C135.925 6.94267 135.711 6.892 135.482 6.892C135.205 6.892 134.957 6.95333 134.738 7.076C134.519 7.19867 134.346 7.372 134.218 7.596C134.09 7.81467 134.026 8.076 134.026 8.38C134.026 8.684 134.09 8.948 134.218 9.172C134.346 9.396 134.519 9.56933 134.738 9.692C134.957 9.81467 135.205 9.876 135.482 9.876C135.711 9.876 135.925 9.828 136.122 9.732C136.325 9.63067 136.495 9.476 136.634 9.268L137.218 9.636C137.053 9.92933 136.818 10.156 136.514 10.316C136.215 10.4707 135.874 10.548 135.49 10.548ZM139.966 10.548C139.539 10.548 139.161 10.4547 138.83 10.268C138.499 10.0813 138.238 9.82533 138.046 9.5C137.854 9.16933 137.758 8.796 137.758 8.38C137.758 7.95867 137.854 7.58533 138.046 7.26C138.238 6.93467 138.499 6.68133 138.83 6.5C139.161 6.31333 139.539 6.22 139.966 6.22C140.387 6.22 140.763 6.31333 141.094 6.5C141.43 6.68133 141.691 6.93467 141.878 7.26C142.07 7.58 142.166 7.95333 142.166 8.38C142.166 8.80133 142.07 9.17467 141.878 9.5C141.691 9.82533 141.43 10.0813 141.094 10.268C140.763 10.4547 140.387 10.548 139.966 10.548ZM139.966 9.876C140.238 9.876 140.481 9.81467 140.694 9.692C140.913 9.56933 141.083 9.396 141.206 9.172C141.329 8.94267 141.39 8.67867 141.39 8.38C141.39 8.076 141.329 7.81467 141.206 7.596C141.083 7.372 140.913 7.19867 140.694 7.076C140.481 6.95333 140.238 6.892 139.966 6.892C139.694 6.892 139.451 6.95333 139.238 7.076C139.025 7.19867 138.854 7.372 138.726 7.596C138.598 7.81467 138.534 8.076 138.534 8.38C138.534 8.67867 138.598 8.94267 138.726 9.172C138.854 9.396 139.025 9.56933 139.238 9.692C139.451 9.81467 139.694 9.876 139.966 9.876ZM148.532 6.22C148.873 6.22 149.175 6.28667 149.436 6.42C149.697 6.55333 149.9 6.756 150.044 7.028C150.193 7.3 150.268 7.644 150.268 8.06V10.5H149.5V8.148C149.5 7.73733 149.404 7.428 149.212 7.22C149.02 7.012 148.751 6.908 148.404 6.908C148.148 6.908 147.924 6.96133 147.732 7.068C147.54 7.17467 147.391 7.332 147.284 7.54C147.183 7.748 147.132 8.00667 147.132 8.316V10.5H146.364V8.148C146.364 7.73733 146.268 7.428 146.076 7.22C145.889 7.012 145.62 6.908 145.268 6.908C145.017 6.908 144.796 6.96133 144.604 7.068C144.412 7.17467 144.263 7.332 144.156 7.54C144.049 7.748 143.996 8.00667 143.996 8.316V10.5H143.228V6.26H143.964V7.388L143.844 7.1C143.977 6.82267 144.183 6.60667 144.46 6.452C144.737 6.29733 145.06 6.22 145.428 6.22C145.833 6.22 146.183 6.32133 146.476 6.524C146.769 6.72133 146.961 7.02267 147.052 7.428L146.74 7.3C146.868 6.97467 147.092 6.71333 147.412 6.516C147.732 6.31867 148.105 6.22 148.532 6.22Z" fill="white"/>
</svg>
