<svg width="177" height="16" viewBox="0 0 177 16" fill="none" xmlns="http://www.w3.org/2000/svg">
<path d="M2.66634 13.3337C2.29967 13.3337 1.9859 13.2032 1.72501 12.9423C1.46412 12.6814 1.33345 12.3674 1.33301 12.0003V4.00033C1.33301 3.63366 1.46367 3.31988 1.72501 3.05899C1.98634 2.7981 2.30012 2.66744 2.66634 2.66699H13.333C13.6997 2.66699 14.0137 2.79766 14.275 3.05899C14.5363 3.32033 14.6668 3.6341 14.6663 4.00033V12.0003C14.6663 12.367 14.5359 12.681 14.275 12.9423C14.0141 13.2037 13.7001 13.3341 13.333 13.3337H2.66634ZM7.99967 8.66699L13.333 5.33366V4.00033L7.99967 7.33366L2.66634 4.00033V5.33366L7.99967 8.66699Z" fill="white"/>
<path d="M24.84 10.5V4.9H25.64V10.5H24.84ZM29.4686 6.22C29.8152 6.22 30.1192 6.28667 30.3806 6.42C30.6472 6.55333 30.8552 6.756 31.0046 7.028C31.1539 7.3 31.2286 7.644 31.2286 8.06V10.5H30.4606V8.148C30.4606 7.73733 30.3592 7.428 30.1566 7.22C29.9592 7.012 29.6792 6.908 29.3166 6.908C29.0446 6.908 28.8072 6.96133 28.6046 7.068C28.4019 7.17467 28.2446 7.332 28.1326 7.54C28.0259 7.748 27.9726 8.00667 27.9726 8.316V10.5H27.2046V6.26H27.9406V7.404L27.8206 7.1C27.9592 6.82267 28.1726 6.60667 28.4606 6.452C28.7486 6.29733 29.0846 6.22 29.4686 6.22ZM32.7619 10.5V5.884C32.7619 5.468 32.8819 5.13733 33.1219 4.892C33.3672 4.64133 33.7139 4.516 34.1619 4.516C34.3272 4.516 34.4845 4.53733 34.6339 4.58C34.7885 4.61733 34.9192 4.67867 35.0259 4.764L34.7939 5.348C34.7139 5.284 34.6232 5.236 34.5219 5.204C34.4205 5.16667 34.3139 5.148 34.2019 5.148C33.9779 5.148 33.8072 5.212 33.6899 5.34C33.5725 5.46267 33.5139 5.64667 33.5139 5.892V6.46L33.5299 6.812V10.5H32.7619ZM32.0419 6.892V6.26H34.7459V6.892H32.0419ZM37.2237 10.548C36.797 10.548 36.4184 10.4547 36.0877 10.268C35.757 10.0813 35.4957 9.82533 35.3037 9.5C35.1117 9.16933 35.0157 8.796 35.0157 8.38C35.0157 7.95867 35.1117 7.58533 35.3037 7.26C35.4957 6.93467 35.757 6.68133 36.0877 6.5C36.4184 6.31333 36.797 6.22 37.2237 6.22C37.645 6.22 38.021 6.31333 38.3517 6.5C38.6877 6.68133 38.949 6.93467 39.1357 7.26C39.3277 7.58 39.4237 7.95333 39.4237 8.38C39.4237 8.80133 39.3277 9.17467 39.1357 9.5C38.949 9.82533 38.6877 10.0813 38.3517 10.268C38.021 10.4547 37.645 10.548 37.2237 10.548ZM37.2237 9.876C37.4957 9.876 37.7384 9.81467 37.9517 9.692C38.1704 9.56933 38.341 9.396 38.4637 9.172C38.5864 8.94267 38.6477 8.67867 38.6477 8.38C38.6477 8.076 38.5864 7.81467 38.4637 7.596C38.341 7.372 38.1704 7.19867 37.9517 7.076C37.7384 6.95333 37.4957 6.892 37.2237 6.892C36.9517 6.892 36.709 6.95333 36.4957 7.076C36.2824 7.19867 36.1117 7.372 35.9837 7.596C35.8557 7.81467 35.7917 8.076 35.7917 8.38C35.7917 8.67867 35.8557 8.94267 35.9837 9.172C36.1117 9.396 36.2824 9.56933 36.4957 9.692C36.709 9.81467 36.9517 9.876 37.2237 9.876ZM43.8858 12.116C43.3311 12.116 42.8245 12.0253 42.3658 11.844C41.9071 11.6627 41.5125 11.4093 41.1818 11.084C40.8511 10.7587 40.5951 10.3747 40.4138 9.932C40.2325 9.484 40.1418 8.996 40.1418 8.468C40.1418 7.94 40.2325 7.45467 40.4138 7.012C40.5951 6.56933 40.8511 6.18533 41.1818 5.86C41.5178 5.53467 41.9178 5.284 42.3818 5.108C42.8458 4.932 43.3578 4.844 43.9178 4.844C44.4671 4.844 44.9685 4.92933 45.4218 5.1C45.8751 5.27067 46.2671 5.51333 46.5978 5.828C46.9338 6.13733 47.1925 6.508 47.3738 6.94C47.5551 7.36667 47.6458 7.83867 47.6458 8.356C47.6458 8.80933 47.5898 9.19867 47.4778 9.524C47.3658 9.84933 47.2031 10.1027 46.9898 10.284C46.7818 10.46 46.5258 10.548 46.2218 10.548C45.9231 10.548 45.6831 10.4573 45.5018 10.276C45.3258 10.0947 45.2378 9.836 45.2378 9.5V8.956L45.2778 8.468L45.2058 7.548V6.484H45.9018V9.364C45.9018 9.57733 45.9445 9.72667 46.0298 9.812C46.1205 9.89733 46.2298 9.94 46.3578 9.94C46.5125 9.94 46.6458 9.87867 46.7578 9.756C46.8751 9.63333 46.9605 9.45467 47.0138 9.22C47.0725 8.98 47.1018 8.69467 47.1018 8.364C47.1018 7.916 47.0245 7.51067 46.8698 7.148C46.7205 6.78 46.5018 6.46267 46.2138 6.196C45.9311 5.92933 45.5951 5.72667 45.2058 5.588C44.8218 5.444 44.3925 5.372 43.9178 5.372C43.4431 5.372 43.0085 5.44933 42.6138 5.604C42.2245 5.75333 41.8885 5.96667 41.6058 6.244C41.3231 6.516 41.1045 6.84133 40.9498 7.22C40.8005 7.59867 40.7258 8.01467 40.7258 8.468C40.7258 8.92667 40.8005 9.348 40.9498 9.732C41.0991 10.1107 41.3125 10.436 41.5898 10.708C41.8725 10.9853 42.2058 11.1987 42.5898 11.348C42.9791 11.5027 43.4111 11.58 43.8858 11.58C44.1311 11.58 44.3898 11.5507 44.6618 11.492C44.9338 11.4387 45.1898 11.3507 45.4298 11.228L45.6058 11.74C45.3605 11.8627 45.0831 11.956 44.7738 12.02C44.4645 12.084 44.1685 12.116 43.8858 12.116ZM43.7418 10.548C43.3631 10.548 43.0271 10.46 42.7338 10.284C42.4405 10.1027 42.2085 9.85733 42.0378 9.548C41.8671 9.23867 41.7818 8.88667 41.7818 8.492C41.7818 8.092 41.8671 7.74 42.0378 7.436C42.2085 7.12667 42.4405 6.88667 42.7338 6.716C43.0271 6.54 43.3631 6.452 43.7418 6.452C44.1098 6.452 44.4325 6.532 44.7098 6.692C44.9871 6.84667 45.2031 7.076 45.3578 7.38C45.5178 7.684 45.5978 8.05467 45.5978 8.492C45.5978 8.92933 45.5205 9.3 45.3658 9.604C45.2111 9.908 44.9951 10.1427 44.7178 10.308C44.4405 10.468 44.1151 10.548 43.7418 10.548ZM43.8538 9.924C44.1151 9.924 44.3471 9.868 44.5498 9.756C44.7578 9.63867 44.9205 9.47333 45.0378 9.26C45.1605 9.04133 45.2218 8.78533 45.2218 8.492C45.2218 8.19333 45.1605 7.93733 45.0378 7.724C44.9205 7.51067 44.7578 7.348 44.5498 7.236C44.3471 7.124 44.1151 7.068 43.8538 7.068C43.5871 7.068 43.3498 7.12667 43.1418 7.244C42.9391 7.356 42.7791 7.51867 42.6618 7.732C42.5498 7.94533 42.4938 8.19867 42.4938 8.492C42.4938 8.78 42.5498 9.03067 42.6618 9.244C42.7791 9.45733 42.9391 9.62533 43.1418 9.748C43.3498 9.86533 43.5871 9.924 43.8538 9.924ZM48.3353 9.124V8.564L51.1993 4.9H52.0633L49.2233 8.564L48.8153 8.436H53.2873V9.124H48.3353ZM51.4473 10.5V9.124L51.4713 8.436V7.22H52.2233V10.5H51.4473ZM59.4148 6.22C59.7561 6.22 60.0575 6.28667 60.3188 6.42C60.5801 6.55333 60.7828 6.756 60.9268 7.028C61.0761 7.3 61.1508 7.644 61.1508 8.06V10.5H60.3828V8.148C60.3828 7.73733 60.2868 7.428 60.0948 7.22C59.9028 7.012 59.6335 6.908 59.2868 6.908C59.0308 6.908 58.8068 6.96133 58.6148 7.068C58.4228 7.17467 58.2735 7.332 58.1668 7.54C58.0655 7.748 58.0148 8.00667 58.0148 8.316V10.5H57.2468V8.148C57.2468 7.73733 57.1508 7.428 56.9588 7.22C56.7721 7.012 56.5028 6.908 56.1508 6.908C55.9001 6.908 55.6788 6.96133 55.4868 7.068C55.2948 7.17467 55.1455 7.332 55.0388 7.54C54.9321 7.748 54.8788 8.00667 54.8788 8.316V10.5H54.1108V6.26H54.8468V7.388L54.7268 7.1C54.8601 6.82267 55.0655 6.60667 55.3428 6.452C55.6201 6.29733 55.9428 6.22 56.3108 6.22C56.7161 6.22 57.0655 6.32133 57.3588 6.524C57.6521 6.72133 57.8441 7.02267 57.9348 7.428L57.6228 7.3C57.7508 6.97467 57.9748 6.71333 58.2948 6.516C58.6148 6.31867 58.9881 6.22 59.4148 6.22ZM64.8119 10.548C64.4599 10.548 64.1373 10.468 63.8439 10.308C63.5559 10.1427 63.3239 9.9 63.1479 9.58C62.9773 9.26 62.8919 8.86 62.8919 8.38C62.8919 7.9 62.9746 7.5 63.1399 7.18C63.3106 6.86 63.5399 6.62 63.8279 6.46C64.1213 6.3 64.4493 6.22 64.8119 6.22C65.2279 6.22 65.5959 6.31067 65.9159 6.492C66.2359 6.67333 66.4893 6.92667 66.6759 7.252C66.8626 7.572 66.9559 7.948 66.9559 8.38C66.9559 8.812 66.8626 9.19067 66.6759 9.516C66.4893 9.84133 66.2359 10.0947 65.9159 10.276C65.5959 10.4573 65.2279 10.548 64.8119 10.548ZM62.5639 12.052V6.26H63.2999V7.404L63.2519 8.388L63.3319 9.372V12.052H62.5639ZM64.7479 9.876C65.0199 9.876 65.2626 9.81467 65.4759 9.692C65.6946 9.56933 65.8653 9.396 65.9879 9.172C66.1159 8.94267 66.1799 8.67867 66.1799 8.38C66.1799 8.076 66.1159 7.81467 65.9879 7.596C65.8653 7.372 65.6946 7.19867 65.4759 7.076C65.2626 6.95333 65.0199 6.892 64.7479 6.892C64.4813 6.892 64.2386 6.95333 64.0199 7.076C63.8066 7.19867 63.6359 7.372 63.5079 7.596C63.3853 7.81467 63.3239 8.076 63.3239 8.38C63.3239 8.67867 63.3853 8.94267 63.5079 9.172C63.6359 9.396 63.8066 9.56933 64.0199 9.692C64.2386 9.81467 64.4813 9.876 64.7479 9.876ZM70.61 10.5V9.604L70.57 9.436V7.908C70.57 7.58267 70.474 7.332 70.282 7.156C70.0953 6.97467 69.8127 6.884 69.434 6.884C69.1833 6.884 68.938 6.92667 68.698 7.012C68.458 7.092 68.2553 7.20133 68.09 7.34L67.77 6.764C67.9887 6.588 68.25 6.45467 68.554 6.364C68.8633 6.268 69.186 6.22 69.522 6.22C70.1033 6.22 70.5513 6.36133 70.866 6.644C71.1807 6.92667 71.338 7.35867 71.338 7.94V10.5H70.61ZM69.218 10.548C68.9033 10.548 68.626 10.4947 68.386 10.388C68.1513 10.2813 67.97 10.1347 67.842 9.948C67.714 9.756 67.65 9.54 67.65 9.3C67.65 9.07067 67.7033 8.86267 67.81 8.676C67.922 8.48933 68.1007 8.34 68.346 8.228C68.5967 8.116 68.9327 8.06 69.354 8.06H70.698V8.612H69.386C69.002 8.612 68.7433 8.676 68.61 8.804C68.4767 8.932 68.41 9.08667 68.41 9.268C68.41 9.476 68.4927 9.644 68.658 9.772C68.8233 9.89467 69.0527 9.956 69.346 9.956C69.634 9.956 69.8847 9.892 70.098 9.764C70.3167 9.636 70.474 9.44933 70.57 9.204L70.722 9.732C70.6207 9.98267 70.442 10.1827 70.186 10.332C69.93 10.476 69.6073 10.548 69.218 10.548ZM74.6073 10.548C74.1753 10.548 73.7886 10.4547 73.4473 10.268C73.1113 10.0813 72.8473 9.82533 72.6553 9.5C72.4633 9.17467 72.3673 8.80133 72.3673 8.38C72.3673 7.95867 72.4633 7.58533 72.6553 7.26C72.8473 6.93467 73.1113 6.68133 73.4473 6.5C73.7886 6.31333 74.1753 6.22 74.6073 6.22C74.9913 6.22 75.3326 6.29733 75.6313 6.452C75.9353 6.60133 76.1699 6.82533 76.3353 7.124L75.7513 7.5C75.6126 7.292 75.4419 7.14 75.2393 7.044C75.0419 6.94267 74.8286 6.892 74.5993 6.892C74.3219 6.892 74.0739 6.95333 73.8553 7.076C73.6366 7.19867 73.4633 7.372 73.3353 7.596C73.2073 7.81467 73.1433 8.076 73.1433 8.38C73.1433 8.684 73.2073 8.948 73.3353 9.172C73.4633 9.396 73.6366 9.56933 73.8553 9.692C74.0739 9.81467 74.3219 9.876 74.5993 9.876C74.8286 9.876 75.0419 9.828 75.2393 9.732C75.4419 9.63067 75.6126 9.476 75.7513 9.268L76.3353 9.636C76.1699 9.92933 75.9353 10.156 75.6313 10.316C75.3326 10.4707 74.9913 10.548 74.6073 10.548ZM77.8989 9.476L77.9149 8.492L80.3549 6.26H81.2829L79.4109 8.1L78.9949 8.452L77.8989 9.476ZM77.2749 10.5V4.564H78.0429V10.5H77.2749ZM80.5149 10.5L78.8509 8.436L79.3469 7.82L81.4589 10.5H80.5149ZM83.2878 10.548C82.9358 10.548 82.5998 10.5 82.2798 10.404C81.9651 10.308 81.7171 10.1907 81.5358 10.052L81.8558 9.444C82.0371 9.56667 82.2611 9.67067 82.5278 9.756C82.7944 9.84133 83.0664 9.884 83.3438 9.884C83.7011 9.884 83.9571 9.83333 84.1118 9.732C84.2718 9.63067 84.3518 9.48933 84.3518 9.308C84.3518 9.17467 84.3038 9.07067 84.2078 8.996C84.1118 8.92133 83.9838 8.86533 83.8238 8.828C83.6691 8.79067 83.4958 8.75867 83.3038 8.732C83.1118 8.7 82.9198 8.66267 82.7278 8.62C82.5358 8.572 82.3598 8.508 82.1998 8.428C82.0398 8.34267 81.9118 8.228 81.8158 8.084C81.7198 7.93467 81.6718 7.73733 81.6718 7.492C81.6718 7.236 81.7438 7.012 81.8878 6.82C82.0318 6.628 82.2344 6.48133 82.4958 6.38C82.7624 6.27333 83.0771 6.22 83.4398 6.22C83.7171 6.22 83.9971 6.25467 84.2798 6.324C84.5678 6.388 84.8024 6.48133 84.9838 6.604L84.6558 7.212C84.4638 7.084 84.2638 6.996 84.0558 6.948C83.8478 6.9 83.6398 6.876 83.4318 6.876C83.0958 6.876 82.8451 6.932 82.6798 7.044C82.5144 7.15067 82.4318 7.28933 82.4318 7.46C82.4318 7.604 82.4798 7.716 82.5758 7.796C82.6771 7.87067 82.8051 7.92933 82.9598 7.972C83.1198 8.01467 83.2958 8.052 83.4878 8.084C83.6798 8.11067 83.8718 8.148 84.0638 8.196C84.2558 8.23867 84.4291 8.3 84.5838 8.38C84.7438 8.46 84.8718 8.572 84.9678 8.716C85.0691 8.86 85.1198 9.052 85.1198 9.292C85.1198 9.548 85.0451 9.76933 84.8958 9.956C84.7464 10.1427 84.5358 10.2893 84.2638 10.396C83.9918 10.4973 83.6664 10.548 83.2878 10.548ZM86.2636 10.548C86.1142 10.548 85.9862 10.4973 85.8796 10.396C85.7729 10.2893 85.7196 10.156 85.7196 9.996C85.7196 9.836 85.7729 9.70533 85.8796 9.604C85.9862 9.50267 86.1142 9.452 86.2636 9.452C86.4076 9.452 86.5302 9.50267 86.6316 9.604C86.7382 9.70533 86.7916 9.836 86.7916 9.996C86.7916 10.156 86.7382 10.2893 86.6316 10.396C86.5302 10.4973 86.4076 10.548 86.2636 10.548ZM89.6463 10.548C89.2143 10.548 88.8276 10.4547 88.4863 10.268C88.1503 10.0813 87.8863 9.82533 87.6943 9.5C87.5023 9.17467 87.4063 8.80133 87.4063 8.38C87.4063 7.95867 87.5023 7.58533 87.6943 7.26C87.8863 6.93467 88.1503 6.68133 88.4863 6.5C88.8276 6.31333 89.2143 6.22 89.6463 6.22C90.0303 6.22 90.3716 6.29733 90.6703 6.452C90.9743 6.60133 91.209 6.82533 91.3743 7.124L90.7903 7.5C90.6516 7.292 90.481 7.14 90.2783 7.044C90.081 6.94267 89.8676 6.892 89.6383 6.892C89.361 6.892 89.113 6.95333 88.8943 7.076C88.6756 7.19867 88.5023 7.372 88.3743 7.596C88.2463 7.81467 88.1823 8.076 88.1823 8.38C88.1823 8.684 88.2463 8.948 88.3743 9.172C88.5023 9.396 88.6756 9.56933 88.8943 9.692C89.113 9.81467 89.361 9.876 89.6383 9.876C89.8676 9.876 90.081 9.828 90.2783 9.732C90.481 9.63067 90.6516 9.476 90.7903 9.268L91.3743 9.636C91.209 9.92933 90.9743 10.156 90.6703 10.316C90.3716 10.4707 90.0303 10.548 89.6463 10.548ZM94.1221 10.548C93.6955 10.548 93.3168 10.4547 92.9861 10.268C92.6555 10.0813 92.3941 9.82533 92.2021 9.5C92.0101 9.16933 91.9141 8.796 91.9141 8.38C91.9141 7.95867 92.0101 7.58533 92.2021 7.26C92.3941 6.93467 92.6555 6.68133 92.9861 6.5C93.3168 6.31333 93.6955 6.22 94.1221 6.22C94.5435 6.22 94.9195 6.31333 95.2501 6.5C95.5861 6.68133 95.8475 6.93467 96.0341 7.26C96.2261 7.58 96.3221 7.95333 96.3221 8.38C96.3221 8.80133 96.2261 9.17467 96.0341 9.5C95.8475 9.82533 95.5861 10.0813 95.2501 10.268C94.9195 10.4547 94.5435 10.548 94.1221 10.548ZM94.1221 9.876C94.3941 9.876 94.6368 9.81467 94.8501 9.692C95.0688 9.56933 95.2395 9.396 95.3621 9.172C95.4848 8.94267 95.5461 8.67867 95.5461 8.38C95.5461 8.076 95.4848 7.81467 95.3621 7.596C95.2395 7.372 95.0688 7.19867 94.8501 7.076C94.6368 6.95333 94.3941 6.892 94.1221 6.892C93.8501 6.892 93.6075 6.95333 93.3941 7.076C93.1808 7.19867 93.0101 7.372 92.8821 7.596C92.7541 7.81467 92.6901 8.076 92.6901 8.38C92.6901 8.67867 92.7541 8.94267 92.8821 9.172C93.0101 9.396 93.1808 9.56933 93.3941 9.692C93.6075 9.81467 93.8501 9.876 94.1221 9.876ZM102.688 6.22C103.03 6.22 103.331 6.28667 103.592 6.42C103.854 6.55333 104.056 6.756 104.2 7.028C104.35 7.3 104.424 7.644 104.424 8.06V10.5H103.656V8.148C103.656 7.73733 103.56 7.428 103.368 7.22C103.176 7.012 102.907 6.908 102.56 6.908C102.304 6.908 102.08 6.96133 101.888 7.068C101.696 7.17467 101.547 7.332 101.44 7.54C101.339 7.748 101.288 8.00667 101.288 8.316V10.5H100.52V8.148C100.52 7.73733 100.424 7.428 100.232 7.22C100.046 7.012 99.7763 6.908 99.4243 6.908C99.1736 6.908 98.9523 6.96133 98.7603 7.068C98.5683 7.17467 98.4189 7.332 98.3123 7.54C98.2056 7.748 98.1523 8.00667 98.1523 8.316V10.5H97.3843V6.26H98.1203V7.388L98.0003 7.1C98.1336 6.82267 98.3389 6.60667 98.6163 6.452C98.8936 6.29733 99.2163 6.22 99.5843 6.22C99.9896 6.22 100.339 6.32133 100.632 6.524C100.926 6.72133 101.118 7.02267 101.208 7.428L100.896 7.3C101.024 6.97467 101.248 6.71333 101.568 6.516C101.888 6.31867 102.262 6.22 102.688 6.22Z" fill="white"/>
</svg>
