<svg width="298" height="22" viewBox="0 0 298 22" fill="none" xmlns="http://www.w3.org/2000/svg">
<path d="M8 4.33325C9.5913 4.33325 11.1174 4.96539 12.2426 6.09061C13.3679 7.21583 14 8.74195 14 10.3333C14 12.3826 12.8827 14.0599 11.7053 15.2633C11.1171 15.858 10.4753 16.3971 9.788 16.8739L9.504 17.0673L9.37067 17.1559L9.11933 17.3159L8.89533 17.4526L8.618 17.6139C8.42976 17.7214 8.21675 17.7779 8 17.7779C7.78325 17.7779 7.57024 17.7214 7.382 17.6139L7.10467 17.4526L6.758 17.2393L6.63 17.1559L6.35667 16.9739C5.61522 16.4723 4.9246 15.8993 4.29467 15.2633C3.11733 14.0593 2 12.3826 2 10.3333C2 8.74195 2.63214 7.21583 3.75736 6.09061C4.88258 4.96539 6.4087 4.33325 8 4.33325ZM8 8.33325C7.73736 8.33325 7.47728 8.38498 7.23463 8.48549C6.99198 8.586 6.7715 8.73332 6.58579 8.91904C6.40007 9.10476 6.25275 9.32523 6.15224 9.56788C6.05173 9.81054 6 10.0706 6 10.3333C6 10.5959 6.05173 10.856 6.15224 11.0986C6.25275 11.3413 6.40007 11.5617 6.58579 11.7475C6.7715 11.9332 6.99198 12.0805 7.23463 12.181C7.47728 12.2815 7.73736 12.3333 8 12.3333C8.53043 12.3333 9.03914 12.1225 9.41421 11.7475C9.78929 11.3724 10 10.8637 10 10.3333C10 9.80282 9.78929 9.29411 9.41421 8.91904C9.03914 8.54397 8.53043 8.33325 8 8.33325Z" fill="white"/>
<path d="M24.304 6.624V6.064L27.168 2.4H28.032L25.192 6.064L24.784 5.936H29.256V6.624H24.304ZM27.416 8V6.624L27.44 5.936V4.72H28.192V8H27.416ZM30.2716 8V2.4H30.9276L33.4396 6.632H33.0876L35.5676 2.4H36.2236L36.2316 8H35.4636L35.4556 3.608H35.6396L33.4316 7.32H33.0636L30.8396 3.608H31.0396V8H30.2716ZM40.2206 8V2.4H42.4046C42.8953 2.4 43.314 2.47733 43.6606 2.632C44.0073 2.78667 44.274 3.01067 44.4606 3.304C44.6473 3.59733 44.7406 3.94667 44.7406 4.352C44.7406 4.75733 44.6473 5.10667 44.4606 5.4C44.274 5.688 44.0073 5.912 43.6606 6.072C43.314 6.22667 42.8953 6.304 42.4046 6.304H40.6606L41.0206 5.928V8H40.2206ZM41.0206 6.008L40.6606 5.608H42.3806C42.8926 5.608 43.2793 5.49867 43.5406 5.28C43.8073 5.06133 43.9406 4.752 43.9406 4.352C43.9406 3.952 43.8073 3.64267 43.5406 3.424C43.2793 3.20533 42.8926 3.096 42.3806 3.096H40.6606L41.0206 2.696V6.008ZM45.9621 8V2.064H46.7301V8H45.9621ZM50.9084 8V7.104L50.8684 6.936V5.408C50.8684 5.08267 50.7724 4.832 50.5804 4.656C50.3938 4.47467 50.1111 4.384 49.7324 4.384C49.4818 4.384 49.2364 4.42667 48.9964 4.512C48.7564 4.592 48.5538 4.70133 48.3884 4.84L48.0684 4.264C48.2871 4.088 48.5484 3.95467 48.8524 3.864C49.1618 3.768 49.4844 3.72 49.8204 3.72C50.4018 3.72 50.8498 3.86133 51.1644 4.144C51.4791 4.42667 51.6364 4.85867 51.6364 5.44V8H50.9084ZM49.5164 8.048C49.2018 8.048 48.9244 7.99467 48.6844 7.888C48.4498 7.78133 48.2684 7.63467 48.1404 7.448C48.0124 7.256 47.9484 7.04 47.9484 6.8C47.9484 6.57067 48.0018 6.36267 48.1084 6.176C48.2204 5.98933 48.3991 5.84 48.6444 5.728C48.8951 5.616 49.2311 5.56 49.6524 5.56H50.9964V6.112H49.6844C49.3004 6.112 49.0418 6.176 48.9084 6.304C48.7751 6.432 48.7084 6.58667 48.7084 6.768C48.7084 6.976 48.7911 7.144 48.9564 7.272C49.1218 7.39467 49.3511 7.456 49.6444 7.456C49.9324 7.456 50.1831 7.392 50.3964 7.264C50.6151 7.136 50.7724 6.94933 50.8684 6.704L51.0204 7.232C50.9191 7.48267 50.7404 7.68267 50.4844 7.832C50.2284 7.976 49.9058 8.048 49.5164 8.048ZM55.7697 8V7.104L55.7297 6.936V5.408C55.7297 5.08267 55.6337 4.832 55.4417 4.656C55.255 4.47467 54.9724 4.384 54.5937 4.384C54.343 4.384 54.0977 4.42667 53.8577 4.512C53.6177 4.592 53.415 4.70133 53.2497 4.84L52.9297 4.264C53.1484 4.088 53.4097 3.95467 53.7137 3.864C54.023 3.768 54.3457 3.72 54.6817 3.72C55.263 3.72 55.711 3.86133 56.0257 4.144C56.3404 4.42667 56.4977 4.85867 56.4977 5.44V8H55.7697ZM54.3777 8.048C54.063 8.048 53.7857 7.99467 53.5457 7.888C53.311 7.78133 53.1297 7.63467 53.0017 7.448C52.8737 7.256 52.8097 7.04 52.8097 6.8C52.8097 6.57067 52.863 6.36267 52.9697 6.176C53.0817 5.98933 53.2604 5.84 53.5057 5.728C53.7564 5.616 54.0924 5.56 54.5137 5.56H55.8577V6.112H54.5457C54.1617 6.112 53.903 6.176 53.7697 6.304C53.6364 6.432 53.5697 6.58667 53.5697 6.768C53.5697 6.976 53.6524 7.144 53.8177 7.272C53.983 7.39467 54.2124 7.456 54.5057 7.456C54.7937 7.456 55.0444 7.392 55.2577 7.264C55.4764 7.136 55.6337 6.94933 55.7297 6.704L55.8817 7.232C55.7804 7.48267 55.6017 7.68267 55.3457 7.832C55.0897 7.976 54.767 8.048 54.3777 8.048ZM59.2149 8.048C58.8629 8.048 58.5269 8 58.2069 7.904C57.8923 7.808 57.6443 7.69067 57.4629 7.552L57.7829 6.944C57.9643 7.06667 58.1883 7.17067 58.4549 7.256C58.7216 7.34133 58.9936 7.384 59.2709 7.384C59.6283 7.384 59.8843 7.33333 60.0389 7.232C60.1989 7.13067 60.2789 6.98933 60.2789 6.808C60.2789 6.67467 60.2309 6.57067 60.1349 6.496C60.0389 6.42133 59.9109 6.36533 59.7509 6.328C59.5963 6.29067 59.4229 6.25867 59.2309 6.232C59.0389 6.2 58.8469 6.16267 58.6549 6.12C58.4629 6.072 58.2869 6.008 58.1269 5.928C57.9669 5.84267 57.8389 5.728 57.7429 5.584C57.6469 5.43467 57.5989 5.23733 57.5989 4.992C57.5989 4.736 57.6709 4.512 57.8149 4.32C57.9589 4.128 58.1616 3.98133 58.4229 3.88C58.6896 3.77333 59.0043 3.72 59.3669 3.72C59.6443 3.72 59.9243 3.75467 60.2069 3.824C60.4949 3.888 60.7296 3.98133 60.9109 4.104L60.5829 4.712C60.3909 4.584 60.1909 4.496 59.9829 4.448C59.7749 4.4 59.5669 4.376 59.3589 4.376C59.0229 4.376 58.7723 4.432 58.6069 4.544C58.4416 4.65067 58.3589 4.78933 58.3589 4.96C58.3589 5.104 58.4069 5.216 58.5029 5.296C58.6043 5.37067 58.7323 5.42933 58.8869 5.472C59.0469 5.51467 59.2229 5.552 59.4149 5.584C59.6069 5.61067 59.7989 5.648 59.9909 5.696C60.1829 5.73867 60.3563 5.8 60.5109 5.88C60.6709 5.96 60.7989 6.072 60.8949 6.216C60.9963 6.36 61.0469 6.552 61.0469 6.792C61.0469 7.048 60.9723 7.26933 60.8229 7.456C60.6736 7.64267 60.4629 7.78933 60.1909 7.896C59.9189 7.99733 59.5936 8.048 59.2149 8.048ZM63.5427 8.048C63.1161 8.048 62.7854 7.93333 62.5507 7.704C62.3161 7.47467 62.1987 7.14667 62.1987 6.72V2.832H62.9667V6.688C62.9667 6.91733 63.0227 7.09333 63.1347 7.216C63.2521 7.33867 63.4174 7.4 63.6307 7.4C63.8707 7.4 64.0707 7.33333 64.2307 7.2L64.4707 7.752C64.3534 7.85333 64.2121 7.928 64.0467 7.976C63.8867 8.024 63.7187 8.048 63.5427 8.048ZM61.4787 4.392V3.76H64.1827V4.392H61.4787ZM67.2266 8.048C66.7733 8.048 66.3733 7.95467 66.0266 7.768C65.6853 7.58133 65.4186 7.32533 65.2266 7C65.04 6.67467 64.9466 6.30133 64.9466 5.88C64.9466 5.45867 65.0373 5.08533 65.2186 4.76C65.4053 4.43467 65.6586 4.18133 65.9786 4C66.304 3.81333 66.6693 3.72 67.0746 3.72C67.4853 3.72 67.848 3.81067 68.1626 3.992C68.4773 4.17333 68.7226 4.42933 68.8986 4.76C69.08 5.08533 69.1706 5.46667 69.1706 5.904C69.1706 5.936 69.168 5.97333 69.1626 6.016C69.1626 6.05867 69.16 6.09867 69.1546 6.136H65.5466V5.584H68.7546L68.4426 5.776C68.448 5.504 68.392 5.26133 68.2746 5.048C68.1573 4.83467 67.9946 4.66933 67.7866 4.552C67.584 4.42933 67.3466 4.368 67.0746 4.368C66.808 4.368 66.5706 4.42933 66.3626 4.552C66.1546 4.66933 65.992 4.83733 65.8746 5.056C65.7573 5.26933 65.6986 5.51467 65.6986 5.792V5.92C65.6986 6.20267 65.7626 6.456 65.8906 6.68C66.024 6.89867 66.208 7.06933 66.4426 7.192C66.6773 7.31467 66.9466 7.376 67.2506 7.376C67.5013 7.376 67.728 7.33333 67.9306 7.248C68.1386 7.16267 68.32 7.03467 68.4746 6.864L68.8986 7.36C68.7066 7.584 68.4666 7.75467 68.1786 7.872C67.896 7.98933 67.5786 8.048 67.2266 8.048ZM72.1651 8.048C71.7331 8.048 71.3464 7.95467 71.0051 7.768C70.6691 7.58133 70.4051 7.32533 70.2131 7C70.0211 6.67467 69.9251 6.30133 69.9251 5.88C69.9251 5.45867 70.0211 5.08533 70.2131 4.76C70.4051 4.43467 70.6691 4.18133 71.0051 4C71.3464 3.81333 71.7331 3.72 72.1651 3.72C72.5491 3.72 72.8904 3.79733 73.1891 3.952C73.4931 4.10133 73.7277 4.32533 73.8931 4.624L73.3091 5C73.1704 4.792 72.9997 4.64 72.7971 4.544C72.5997 4.44267 72.3864 4.392 72.1571 4.392C71.8797 4.392 71.6317 4.45333 71.4131 4.576C71.1944 4.69867 71.0211 4.872 70.8931 5.096C70.7651 5.31467 70.7011 5.576 70.7011 5.88C70.7011 6.184 70.7651 6.448 70.8931 6.672C71.0211 6.896 71.1944 7.06933 71.4131 7.192C71.6317 7.31467 71.8797 7.376 72.1571 7.376C72.3864 7.376 72.5997 7.328 72.7971 7.232C72.9997 7.13067 73.1704 6.976 73.3091 6.768L73.8931 7.136C73.7277 7.42933 73.4931 7.656 73.1891 7.816C72.8904 7.97067 72.5491 8.048 72.1651 8.048ZM77.1767 3.72C77.5234 3.72 77.8274 3.78667 78.0887 3.92C78.3554 4.05333 78.5634 4.256 78.7127 4.528C78.862 4.8 78.9367 5.144 78.9367 5.56V8H78.1687V5.648C78.1687 5.23733 78.0674 4.928 77.8647 4.72C77.6674 4.512 77.3874 4.408 77.0247 4.408C76.7527 4.408 76.5154 4.46133 76.3127 4.568C76.11 4.67467 75.9527 4.832 75.8407 5.04C75.734 5.248 75.6807 5.50667 75.6807 5.816V8H74.9127V2.064H75.6807V4.904L75.5287 4.6C75.6674 4.32267 75.8807 4.10667 76.1687 3.952C76.4567 3.79733 76.7927 3.72 77.1767 3.72ZM82.7784 8V2.4H83.4344L87.1384 7H86.7944V2.4H87.5944V8H86.9384L83.2344 3.4H83.5784V8H82.7784ZM91.0546 8.048C90.628 8.048 90.2493 7.95467 89.9186 7.768C89.588 7.58133 89.3266 7.32533 89.1346 7C88.9426 6.66933 88.8466 6.296 88.8466 5.88C88.8466 5.45867 88.9426 5.08533 89.1346 4.76C89.3266 4.43467 89.588 4.18133 89.9186 4C90.2493 3.81333 90.628 3.72 91.0546 3.72C91.476 3.72 91.852 3.81333 92.1826 4C92.5186 4.18133 92.78 4.43467 92.9666 4.76C93.1586 5.08 93.2546 5.45333 93.2546 5.88C93.2546 6.30133 93.1586 6.67467 92.9666 7C92.78 7.32533 92.5186 7.58133 92.1826 7.768C91.852 7.95467 91.476 8.048 91.0546 8.048ZM91.0546 7.376C91.3266 7.376 91.5693 7.31467 91.7826 7.192C92.0013 7.06933 92.172 6.896 92.2946 6.672C92.4173 6.44267 92.4786 6.17867 92.4786 5.88C92.4786 5.576 92.4173 5.31467 92.2946 5.096C92.172 4.872 92.0013 4.69867 91.7826 4.576C91.5693 4.45333 91.3266 4.392 91.0546 4.392C90.7826 4.392 90.54 4.45333 90.3266 4.576C90.1133 4.69867 89.9426 4.872 89.8146 5.096C89.6866 5.31467 89.6226 5.576 89.6226 5.88C89.6226 6.17867 89.6866 6.44267 89.8146 6.672C89.9426 6.896 90.1133 7.06933 90.3266 7.192C90.54 7.31467 90.7826 7.376 91.0546 7.376ZM94.487 8.048C94.3377 8.048 94.2097 7.99733 94.103 7.896C93.9963 7.78933 93.943 7.656 93.943 7.496C93.943 7.336 93.9963 7.20533 94.103 7.104C94.2097 7.00267 94.3377 6.952 94.487 6.952C94.631 6.952 94.7537 7.00267 94.855 7.104C94.9617 7.20533 95.015 7.336 95.015 7.496C95.015 7.656 94.9617 7.78933 94.855 7.896C94.7537 7.99733 94.631 8.048 94.487 8.048ZM96.7179 8L99.0939 2.736L99.3019 3.096H95.9739L96.3739 2.704V4.096H95.6059V2.4H99.8299V2.944L97.5659 8H96.7179ZM102.279 8.064C101.884 8.064 101.5 8.00267 101.127 7.88C100.759 7.75733 100.457 7.592 100.223 7.384L100.591 6.752C100.777 6.928 101.02 7.072 101.319 7.184C101.617 7.296 101.935 7.352 102.271 7.352C102.697 7.352 103.025 7.26133 103.255 7.08C103.484 6.89867 103.599 6.656 103.599 6.352C103.599 6.144 103.548 5.96267 103.447 5.808C103.345 5.65333 103.169 5.536 102.919 5.456C102.673 5.37067 102.335 5.328 101.903 5.328H100.631L100.927 2.4H104.087V3.096H101.223L101.639 2.704L101.407 5.016L100.991 4.632H102.071C102.631 4.632 103.081 4.704 103.423 4.848C103.764 4.992 104.012 5.192 104.167 5.448C104.321 5.69867 104.399 5.98933 104.399 6.32C104.399 6.64 104.321 6.93333 104.167 7.2C104.012 7.46133 103.777 7.672 103.463 7.832C103.153 7.98667 102.759 8.064 102.279 8.064ZM105.184 9.184L105.584 7.568L105.688 8.032C105.534 8.032 105.403 7.984 105.296 7.888C105.195 7.792 105.144 7.66133 105.144 7.496C105.144 7.336 105.195 7.20533 105.296 7.104C105.403 7.00267 105.531 6.952 105.68 6.952C105.835 6.952 105.96 7.00533 106.056 7.112C106.152 7.21333 106.2 7.34133 106.2 7.496C106.2 7.54933 106.195 7.60267 106.184 7.656C106.179 7.704 106.166 7.76267 106.144 7.832C106.128 7.896 106.102 7.976 106.064 8.072L105.688 9.184H105.184ZM110.833 8V3.096H108.913V2.4H113.545V3.096H111.625V8H110.833ZM116.649 3.72C116.995 3.72 117.299 3.78667 117.561 3.92C117.827 4.05333 118.035 4.256 118.185 4.528C118.334 4.8 118.409 5.144 118.409 5.56V8H117.641V5.648C117.641 5.23733 117.539 4.928 117.337 4.72C117.139 4.512 116.859 4.408 116.497 4.408C116.225 4.408 115.987 4.46133 115.785 4.568C115.582 4.67467 115.425 4.832 115.313 5.04C115.206 5.248 115.153 5.50667 115.153 5.816V8H114.385V2.064H115.153V4.904L115.001 4.6C115.139 4.32267 115.353 4.10667 115.641 3.952C115.929 3.79733 116.265 3.72 116.649 3.72ZM121.726 8.048C121.299 8.048 120.921 7.95467 120.59 7.768C120.259 7.58133 119.998 7.32533 119.806 7C119.614 6.66933 119.518 6.296 119.518 5.88C119.518 5.45867 119.614 5.08533 119.806 4.76C119.998 4.43467 120.259 4.18133 120.59 4C120.921 3.81333 121.299 3.72 121.726 3.72C122.147 3.72 122.523 3.81333 122.854 4C123.19 4.18133 123.451 4.43467 123.638 4.76C123.83 5.08 123.926 5.45333 123.926 5.88C123.926 6.30133 123.83 6.67467 123.638 7C123.451 7.32533 123.19 7.58133 122.854 7.768C122.523 7.95467 122.147 8.048 121.726 8.048ZM121.726 7.376C121.998 7.376 122.241 7.31467 122.454 7.192C122.673 7.06933 122.843 6.896 122.966 6.672C123.089 6.44267 123.15 6.17867 123.15 5.88C123.15 5.576 123.089 5.31467 122.966 5.096C122.843 4.872 122.673 4.69867 122.454 4.576C122.241 4.45333 121.998 4.392 121.726 4.392C121.454 4.392 121.211 4.45333 120.998 4.576C120.785 4.69867 120.614 4.872 120.486 5.096C120.358 5.31467 120.294 5.576 120.294 5.88C120.294 6.17867 120.358 6.44267 120.486 6.672C120.614 6.896 120.785 7.06933 120.998 7.192C121.211 7.31467 121.454 7.376 121.726 7.376ZM125.068 8V2.064H125.836V8H125.068ZM128.598 8.048C128.246 8.048 127.91 8 127.59 7.904C127.276 7.808 127.028 7.69067 126.846 7.552L127.166 6.944C127.348 7.06667 127.572 7.17067 127.838 7.256C128.105 7.34133 128.377 7.384 128.654 7.384C129.012 7.384 129.268 7.33333 129.422 7.232C129.582 7.13067 129.662 6.98933 129.662 6.808C129.662 6.67467 129.614 6.57067 129.518 6.496C129.422 6.42133 129.294 6.36533 129.134 6.328C128.98 6.29067 128.806 6.25867 128.614 6.232C128.422 6.2 128.23 6.16267 128.038 6.12C127.846 6.072 127.67 6.008 127.51 5.928C127.35 5.84267 127.222 5.728 127.126 5.584C127.03 5.43467 126.982 5.23733 126.982 4.992C126.982 4.736 127.054 4.512 127.198 4.32C127.342 4.128 127.545 3.98133 127.806 3.88C128.073 3.77333 128.388 3.72 128.75 3.72C129.028 3.72 129.308 3.75467 129.59 3.824C129.878 3.888 130.113 3.98133 130.294 4.104L129.966 4.712C129.774 4.584 129.574 4.496 129.366 4.448C129.158 4.4 128.95 4.376 128.742 4.376C128.406 4.376 128.156 4.432 127.99 4.544C127.825 4.65067 127.742 4.78933 127.742 4.96C127.742 5.104 127.79 5.216 127.886 5.296C127.988 5.37067 128.116 5.42933 128.27 5.472C128.43 5.51467 128.606 5.552 128.798 5.584C128.99 5.61067 129.182 5.648 129.374 5.696C129.566 5.73867 129.74 5.8 129.894 5.88C130.054 5.96 130.182 6.072 130.278 6.216C130.38 6.36 130.43 6.552 130.43 6.792C130.43 7.048 130.356 7.26933 130.206 7.456C130.057 7.64267 129.846 7.78933 129.574 7.896C129.302 7.99733 128.977 8.048 128.598 8.048ZM133.734 3.72C134.081 3.72 134.385 3.78667 134.646 3.92C134.913 4.05333 135.121 4.256 135.27 4.528C135.42 4.8 135.494 5.144 135.494 5.56V8H134.726V5.648C134.726 5.23733 134.625 4.928 134.422 4.72C134.225 4.512 133.945 4.408 133.582 4.408C133.31 4.408 133.073 4.46133 132.87 4.568C132.668 4.67467 132.51 4.832 132.398 5.04C132.292 5.248 132.238 5.50667 132.238 5.816V8H131.47V2.064H132.238V4.904L132.086 4.6C132.225 4.32267 132.438 4.10667 132.726 3.952C133.014 3.79733 133.35 3.72 133.734 3.72ZM138.812 8.048C138.385 8.048 138.006 7.95467 137.676 7.768C137.345 7.58133 137.084 7.32533 136.892 7C136.7 6.66933 136.604 6.296 136.604 5.88C136.604 5.45867 136.7 5.08533 136.892 4.76C137.084 4.43467 137.345 4.18133 137.676 4C138.006 3.81333 138.385 3.72 138.812 3.72C139.233 3.72 139.609 3.81333 139.94 4C140.276 4.18133 140.537 4.43467 140.724 4.76C140.916 5.08 141.012 5.45333 141.012 5.88C141.012 6.30133 140.916 6.67467 140.724 7C140.537 7.32533 140.276 7.58133 139.94 7.768C139.609 7.95467 139.233 8.048 138.812 8.048ZM138.812 7.376C139.084 7.376 139.326 7.31467 139.54 7.192C139.758 7.06933 139.929 6.896 140.052 6.672C140.174 6.44267 140.236 6.17867 140.236 5.88C140.236 5.576 140.174 5.31467 140.052 5.096C139.929 4.872 139.758 4.69867 139.54 4.576C139.326 4.45333 139.084 4.392 138.812 4.392C138.54 4.392 138.297 4.45333 138.084 4.576C137.87 4.69867 137.7 4.872 137.572 5.096C137.444 5.31467 137.38 5.576 137.38 5.88C137.38 6.17867 137.444 6.44267 137.572 6.672C137.7 6.896 137.87 7.06933 138.084 7.192C138.297 7.31467 138.54 7.376 138.812 7.376ZM144.402 8.048C144.05 8.048 143.727 7.968 143.434 7.808C143.146 7.64267 142.914 7.4 142.738 7.08C142.567 6.76 142.482 6.36 142.482 5.88C142.482 5.4 142.564 5 142.73 4.68C142.9 4.36 143.13 4.12 143.418 3.96C143.711 3.8 144.039 3.72 144.402 3.72C144.818 3.72 145.186 3.81067 145.506 3.992C145.826 4.17333 146.079 4.42667 146.266 4.752C146.452 5.072 146.546 5.448 146.546 5.88C146.546 6.312 146.452 6.69067 146.266 7.016C146.079 7.34133 145.826 7.59467 145.506 7.776C145.186 7.95733 144.818 8.048 144.402 8.048ZM142.154 9.552V3.76H142.89V4.904L142.842 5.888L142.922 6.872V9.552H142.154ZM144.338 7.376C144.61 7.376 144.852 7.31467 145.066 7.192C145.284 7.06933 145.455 6.896 145.578 6.672C145.706 6.44267 145.77 6.17867 145.77 5.88C145.77 5.576 145.706 5.31467 145.578 5.096C145.455 4.872 145.284 4.69867 145.066 4.576C144.852 4.45333 144.61 4.392 144.338 4.392C144.071 4.392 143.828 4.45333 143.61 4.576C143.396 4.69867 143.226 4.872 143.098 5.096C142.975 5.31467 142.914 5.576 142.914 5.88C142.914 6.17867 142.975 6.44267 143.098 6.672C143.226 6.896 143.396 7.06933 143.61 7.192C143.828 7.31467 144.071 7.376 144.338 7.376ZM152.991 3.72C153.332 3.72 153.633 3.78667 153.895 3.92C154.156 4.05333 154.359 4.256 154.503 4.528C154.652 4.8 154.727 5.144 154.727 5.56V8H153.959V5.648C153.959 5.23733 153.863 4.928 153.671 4.72C153.479 4.512 153.209 4.408 152.863 4.408C152.607 4.408 152.383 4.46133 152.191 4.568C151.999 4.67467 151.849 4.832 151.743 5.04C151.641 5.248 151.591 5.50667 151.591 5.816V8H150.823V5.648C150.823 5.23733 150.727 4.928 150.535 4.72C150.348 4.512 150.079 4.408 149.727 4.408C149.476 4.408 149.255 4.46133 149.063 4.568C148.871 4.67467 148.721 4.832 148.615 5.04C148.508 5.248 148.455 5.50667 148.455 5.816V8H147.687V3.76H148.423V4.888L148.303 4.6C148.436 4.32267 148.641 4.10667 148.919 3.952C149.196 3.79733 149.519 3.72 149.887 3.72C150.292 3.72 150.641 3.82133 150.935 4.024C151.228 4.22133 151.42 4.52267 151.511 4.928L151.199 4.8C151.327 4.47467 151.551 4.21333 151.871 4.016C152.191 3.81867 152.564 3.72 152.991 3.72ZM158.108 8.048C157.655 8.048 157.255 7.95467 156.908 7.768C156.567 7.58133 156.3 7.32533 156.108 7C155.921 6.67467 155.828 6.30133 155.828 5.88C155.828 5.45867 155.919 5.08533 156.1 4.76C156.287 4.43467 156.54 4.18133 156.86 4C157.185 3.81333 157.551 3.72 157.956 3.72C158.367 3.72 158.729 3.81067 159.044 3.992C159.359 4.17333 159.604 4.42933 159.78 4.76C159.961 5.08533 160.052 5.46667 160.052 5.904C160.052 5.936 160.049 5.97333 160.044 6.016C160.044 6.05867 160.041 6.09867 160.036 6.136H156.428V5.584H159.636L159.324 5.776C159.329 5.504 159.273 5.26133 159.156 5.048C159.039 4.83467 158.876 4.66933 158.668 4.552C158.465 4.42933 158.228 4.368 157.956 4.368C157.689 4.368 157.452 4.42933 157.244 4.552C157.036 4.66933 156.873 4.83733 156.756 5.056C156.639 5.26933 156.58 5.51467 156.58 5.792V5.92C156.58 6.20267 156.644 6.456 156.772 6.68C156.905 6.89867 157.089 7.06933 157.324 7.192C157.559 7.31467 157.828 7.376 158.132 7.376C158.383 7.376 158.609 7.33333 158.812 7.248C159.02 7.16267 159.201 7.03467 159.356 6.864L159.78 7.36C159.588 7.584 159.348 7.75467 159.06 7.872C158.777 7.98933 158.46 8.048 158.108 8.048ZM162.95 8.048C162.54 8.048 162.172 7.95733 161.846 7.776C161.526 7.59467 161.273 7.34133 161.086 7.016C160.9 6.69067 160.806 6.312 160.806 5.88C160.806 5.448 160.9 5.072 161.086 4.752C161.273 4.42667 161.526 4.17333 161.846 3.992C162.172 3.81067 162.54 3.72 162.95 3.72C163.308 3.72 163.63 3.8 163.918 3.96C164.206 4.12 164.436 4.36 164.606 4.68C164.782 5 164.87 5.4 164.87 5.88C164.87 6.36 164.785 6.76 164.614 7.08C164.449 7.4 164.222 7.64267 163.934 7.808C163.646 7.968 163.318 8.048 162.95 8.048ZM163.014 7.376C163.281 7.376 163.521 7.31467 163.734 7.192C163.953 7.06933 164.124 6.896 164.246 6.672C164.374 6.44267 164.438 6.17867 164.438 5.88C164.438 5.576 164.374 5.31467 164.246 5.096C164.124 4.872 163.953 4.69867 163.734 4.576C163.521 4.45333 163.281 4.392 163.014 4.392C162.742 4.392 162.5 4.45333 162.286 4.576C162.073 4.69867 161.902 4.872 161.774 5.096C161.646 5.31467 161.582 5.576 161.582 5.88C161.582 6.17867 161.646 6.44267 161.774 6.672C161.902 6.896 162.073 7.06933 162.286 7.192C162.5 7.31467 162.742 7.376 163.014 7.376ZM164.462 8V6.856L164.51 5.872L164.43 4.888V2.064H165.198V8H164.462ZM168.515 8.048C168.153 8.048 167.833 7.98133 167.555 7.848C167.283 7.71467 167.07 7.512 166.915 7.24C166.766 6.96267 166.691 6.616 166.691 6.2V3.76H167.459V6.112C167.459 6.528 167.558 6.84 167.755 7.048C167.958 7.256 168.241 7.36 168.603 7.36C168.87 7.36 169.102 7.30667 169.299 7.2C169.497 7.088 169.649 6.928 169.755 6.72C169.862 6.50667 169.915 6.25067 169.915 5.952V3.76H170.683V8H169.955V6.856L170.075 7.16C169.937 7.44267 169.729 7.66133 169.451 7.816C169.174 7.97067 168.862 8.048 168.515 8.048ZM171.921 9.184L172.321 7.568L172.425 8.032C172.271 8.032 172.14 7.984 172.033 7.888C171.932 7.792 171.881 7.66133 171.881 7.496C171.881 7.336 171.932 7.20533 172.033 7.104C172.14 7.00267 172.268 6.952 172.417 6.952C172.572 6.952 172.697 7.00533 172.793 7.112C172.889 7.21333 172.937 7.34133 172.937 7.496C172.937 7.54933 172.932 7.60267 172.921 7.656C172.916 7.704 172.903 7.76267 172.881 7.832C172.865 7.896 172.839 7.976 172.801 8.072L172.425 9.184H171.921ZM177.57 8V3.096H175.65V2.4H180.282V3.096H178.362V8H177.57ZM183.386 3.72C183.732 3.72 184.036 3.78667 184.298 3.92C184.564 4.05333 184.772 4.256 184.922 4.528C185.071 4.8 185.146 5.144 185.146 5.56V8H184.378V5.648C184.378 5.23733 184.276 4.928 184.074 4.72C183.876 4.512 183.596 4.408 183.234 4.408C182.962 4.408 182.724 4.46133 182.522 4.568C182.319 4.67467 182.162 4.832 182.05 5.04C181.943 5.248 181.89 5.50667 181.89 5.816V8H181.122V2.064H181.89V4.904L181.738 4.6C181.876 4.32267 182.09 4.10667 182.378 3.952C182.666 3.79733 183.002 3.72 183.386 3.72ZM186.647 8V3.76H187.415V8H186.647ZM187.031 2.944C186.882 2.944 186.756 2.896 186.655 2.8C186.559 2.704 186.511 2.58667 186.511 2.448C186.511 2.304 186.559 2.184 186.655 2.088C186.756 1.992 186.882 1.944 187.031 1.944C187.18 1.944 187.303 1.992 187.399 2.088C187.5 2.17867 187.551 2.29333 187.551 2.432C187.551 2.576 187.503 2.69867 187.407 2.8C187.311 2.896 187.186 2.944 187.031 2.944ZM188.961 8V3.76H189.697V4.912L189.625 4.624C189.743 4.33067 189.94 4.10667 190.217 3.952C190.495 3.79733 190.836 3.72 191.241 3.72V4.464C191.209 4.45867 191.177 4.456 191.145 4.456C191.119 4.456 191.092 4.456 191.065 4.456C190.655 4.456 190.329 4.57867 190.089 4.824C189.849 5.06933 189.729 5.424 189.729 5.888V8H188.961ZM194.107 8.048C193.744 8.048 193.424 7.98133 193.147 7.848C192.875 7.71467 192.661 7.512 192.507 7.24C192.357 6.96267 192.283 6.616 192.283 6.2V3.76H193.051V6.112C193.051 6.528 193.149 6.84 193.347 7.048C193.549 7.256 193.832 7.36 194.195 7.36C194.461 7.36 194.693 7.30667 194.891 7.2C195.088 7.088 195.24 6.928 195.347 6.72C195.453 6.50667 195.507 6.25067 195.507 5.952V3.76H196.275V8H195.547V6.856L195.667 7.16C195.528 7.44267 195.32 7.66133 195.043 7.816C194.765 7.97067 194.453 8.048 194.107 8.048ZM203.121 3.72C203.462 3.72 203.763 3.78667 204.025 3.92C204.286 4.05333 204.489 4.256 204.633 4.528C204.782 4.8 204.857 5.144 204.857 5.56V8H204.089V5.648C204.089 5.23733 203.993 4.928 203.801 4.72C203.609 4.512 203.339 4.408 202.993 4.408C202.737 4.408 202.513 4.46133 202.321 4.568C202.129 4.67467 201.979 4.832 201.873 5.04C201.771 5.248 201.721 5.50667 201.721 5.816V8H200.953V5.648C200.953 5.23733 200.857 4.928 200.665 4.72C200.478 4.512 200.209 4.408 199.857 4.408C199.606 4.408 199.385 4.46133 199.193 4.568C199.001 4.67467 198.851 4.832 198.745 5.04C198.638 5.248 198.585 5.50667 198.585 5.816V8H197.817V3.76H198.553V4.888L198.433 4.6C198.566 4.32267 198.771 4.10667 199.049 3.952C199.326 3.79733 199.649 3.72 200.017 3.72C200.422 3.72 200.771 3.82133 201.065 4.024C201.358 4.22133 201.55 4.52267 201.641 4.928L201.329 4.8C201.457 4.47467 201.681 4.21333 202.001 4.016C202.321 3.81867 202.694 3.72 203.121 3.72ZM208.982 8V7.104L208.942 6.936V5.408C208.942 5.08267 208.846 4.832 208.654 4.656C208.467 4.47467 208.185 4.384 207.806 4.384C207.555 4.384 207.31 4.42667 207.07 4.512C206.83 4.592 206.627 4.70133 206.462 4.84L206.142 4.264C206.361 4.088 206.622 3.95467 206.926 3.864C207.235 3.768 207.558 3.72 207.894 3.72C208.475 3.72 208.923 3.86133 209.238 4.144C209.553 4.42667 209.71 4.85867 209.71 5.44V8H208.982ZM207.59 8.048C207.275 8.048 206.998 7.99467 206.758 7.888C206.523 7.78133 206.342 7.63467 206.214 7.448C206.086 7.256 206.022 7.04 206.022 6.8C206.022 6.57067 206.075 6.36267 206.182 6.176C206.294 5.98933 206.473 5.84 206.718 5.728C206.969 5.616 207.305 5.56 207.726 5.56H209.07V6.112H207.758C207.374 6.112 207.115 6.176 206.982 6.304C206.849 6.432 206.782 6.58667 206.782 6.768C206.782 6.976 206.865 7.144 207.03 7.272C207.195 7.39467 207.425 7.456 207.718 7.456C208.006 7.456 208.257 7.392 208.47 7.264C208.689 7.136 208.846 6.94933 208.942 6.704L209.094 7.232C208.993 7.48267 208.814 7.68267 208.558 7.832C208.302 7.976 207.979 8.048 207.59 8.048ZM211.211 8V2.064H211.979V8H211.211ZM216.158 8V7.104L216.118 6.936V5.408C216.118 5.08267 216.022 4.832 215.83 4.656C215.643 4.47467 215.36 4.384 214.982 4.384C214.731 4.384 214.486 4.42667 214.246 4.512C214.006 4.592 213.803 4.70133 213.638 4.84L213.318 4.264C213.536 4.088 213.798 3.95467 214.102 3.864C214.411 3.768 214.734 3.72 215.07 3.72C215.651 3.72 216.099 3.86133 216.414 4.144C216.728 4.42667 216.886 4.85867 216.886 5.44V8H216.158ZM214.766 8.048C214.451 8.048 214.174 7.99467 213.934 7.888C213.699 7.78133 213.518 7.63467 213.39 7.448C213.262 7.256 213.198 7.04 213.198 6.8C213.198 6.57067 213.251 6.36267 213.358 6.176C213.47 5.98933 213.648 5.84 213.894 5.728C214.144 5.616 214.48 5.56 214.902 5.56H216.246V6.112H214.934C214.55 6.112 214.291 6.176 214.158 6.304C214.024 6.432 213.958 6.58667 213.958 6.768C213.958 6.976 214.04 7.144 214.206 7.272C214.371 7.39467 214.6 7.456 214.894 7.456C215.182 7.456 215.432 7.392 215.646 7.264C215.864 7.136 216.022 6.94933 216.118 6.704L216.27 7.232C216.168 7.48267 215.99 7.68267 215.734 7.832C215.478 7.976 215.155 8.048 214.766 8.048ZM218.387 8V3.76H219.155V8H218.387ZM218.771 2.944C218.621 2.944 218.496 2.896 218.395 2.8C218.299 2.704 218.251 2.58667 218.251 2.448C218.251 2.304 218.299 2.184 218.395 2.088C218.496 1.992 218.621 1.944 218.771 1.944C218.92 1.944 219.043 1.992 219.139 2.088C219.24 2.17867 219.291 2.29333 219.291 2.432C219.291 2.576 219.243 2.69867 219.147 2.8C219.051 2.896 218.925 2.944 218.771 2.944ZM222.965 3.72C223.312 3.72 223.616 3.78667 223.877 3.92C224.144 4.05333 224.352 4.256 224.501 4.528C224.65 4.8 224.725 5.144 224.725 5.56V8H223.957V5.648C223.957 5.23733 223.856 4.928 223.653 4.72C223.456 4.512 223.176 4.408 222.813 4.408C222.541 4.408 222.304 4.46133 222.101 4.568C221.898 4.67467 221.741 4.832 221.629 5.04C221.522 5.248 221.469 5.50667 221.469 5.816V8H220.701V3.76H221.437V4.904L221.317 4.6C221.456 4.32267 221.669 4.10667 221.957 3.952C222.245 3.79733 222.581 3.72 222.965 3.72ZM228.858 8V7.104L228.818 6.936V5.408C228.818 5.08267 228.722 4.832 228.53 4.656C228.344 4.47467 228.061 4.384 227.682 4.384C227.432 4.384 227.186 4.42667 226.946 4.512C226.706 4.592 226.504 4.70133 226.338 4.84L226.018 4.264C226.237 4.088 226.498 3.95467 226.802 3.864C227.112 3.768 227.434 3.72 227.77 3.72C228.352 3.72 228.8 3.86133 229.114 4.144C229.429 4.42667 229.586 4.85867 229.586 5.44V8H228.858ZM227.466 8.048C227.152 8.048 226.874 7.99467 226.634 7.888C226.4 7.78133 226.218 7.63467 226.09 7.448C225.962 7.256 225.898 7.04 225.898 6.8C225.898 6.57067 225.952 6.36267 226.058 6.176C226.17 5.98933 226.349 5.84 226.594 5.728C226.845 5.616 227.181 5.56 227.602 5.56H228.946V6.112H227.634C227.25 6.112 226.992 6.176 226.858 6.304C226.725 6.432 226.658 6.58667 226.658 6.768C226.658 6.976 226.741 7.144 226.906 7.272C227.072 7.39467 227.301 7.456 227.594 7.456C227.882 7.456 228.133 7.392 228.346 7.264C228.565 7.136 228.722 6.94933 228.818 6.704L228.97 7.232C228.869 7.48267 228.69 7.68267 228.434 7.832C228.178 7.976 227.856 8.048 227.466 8.048ZM231.088 8V3.76H231.856V8H231.088ZM231.472 2.944C231.322 2.944 231.197 2.896 231.096 2.8C231 2.704 230.952 2.58667 230.952 2.448C230.952 2.304 231 2.184 231.096 2.088C231.197 1.992 231.322 1.944 231.472 1.944C231.621 1.944 231.744 1.992 231.84 2.088C231.941 2.17867 231.992 2.29333 231.992 2.432C231.992 2.576 231.944 2.69867 231.848 2.8C231.752 2.896 231.626 2.944 231.472 2.944ZM235.25 8.048C234.818 8.048 234.431 7.95467 234.09 7.768C233.754 7.58133 233.49 7.32533 233.298 7C233.106 6.67467 233.01 6.30133 233.01 5.88C233.01 5.45867 233.106 5.08533 233.298 4.76C233.49 4.43467 233.754 4.18133 234.09 4C234.431 3.81333 234.818 3.72 235.25 3.72C235.634 3.72 235.975 3.79733 236.274 3.952C236.578 4.10133 236.813 4.32533 236.978 4.624L236.394 5C236.255 4.792 236.085 4.64 235.882 4.544C235.685 4.44267 235.471 4.392 235.242 4.392C234.965 4.392 234.717 4.45333 234.498 4.576C234.279 4.69867 234.106 4.872 233.978 5.096C233.85 5.31467 233.786 5.576 233.786 5.88C233.786 6.184 233.85 6.448 233.978 6.672C234.106 6.896 234.279 7.06933 234.498 7.192C234.717 7.31467 234.965 7.376 235.242 7.376C235.471 7.376 235.685 7.328 235.882 7.232C236.085 7.13067 236.255 6.976 236.394 6.768L236.978 7.136C236.813 7.42933 236.578 7.656 236.274 7.816C235.975 7.97067 235.634 8.048 235.25 8.048ZM238.622 6.976L238.638 5.992L241.078 3.76H242.006L240.134 5.6L239.718 5.952L238.622 6.976ZM237.998 8V2.064H238.766V8H237.998ZM241.238 8L239.574 5.936L240.07 5.32L242.182 8H241.238ZM244.723 8.048C244.27 8.048 243.87 7.95467 243.523 7.768C243.182 7.58133 242.915 7.32533 242.723 7C242.537 6.67467 242.443 6.30133 242.443 5.88C242.443 5.45867 242.534 5.08533 242.715 4.76C242.902 4.43467 243.155 4.18133 243.475 4C243.801 3.81333 244.166 3.72 244.571 3.72C244.982 3.72 245.345 3.81067 245.659 3.992C245.974 4.17333 246.219 4.42933 246.395 4.76C246.577 5.08533 246.667 5.46667 246.667 5.904C246.667 5.936 246.665 5.97333 246.659 6.016C246.659 6.05867 246.657 6.09867 246.651 6.136H243.043V5.584H246.251L245.939 5.776C245.945 5.504 245.889 5.26133 245.771 5.048C245.654 4.83467 245.491 4.66933 245.283 4.552C245.081 4.42933 244.843 4.368 244.571 4.368C244.305 4.368 244.067 4.42933 243.859 4.552C243.651 4.66933 243.489 4.83733 243.371 5.056C243.254 5.26933 243.195 5.51467 243.195 5.792V5.92C243.195 6.20267 243.259 6.456 243.387 6.68C243.521 6.89867 243.705 7.06933 243.939 7.192C244.174 7.31467 244.443 7.376 244.747 7.376C244.998 7.376 245.225 7.33333 245.427 7.248C245.635 7.16267 245.817 7.03467 245.971 6.864L246.395 7.36C246.203 7.584 245.963 7.75467 245.675 7.872C245.393 7.98933 245.075 8.048 244.723 8.048ZM250.078 3.72C250.425 3.72 250.729 3.78667 250.99 3.92C251.257 4.05333 251.465 4.256 251.614 4.528C251.763 4.8 251.838 5.144 251.838 5.56V8H251.07V5.648C251.07 5.23733 250.969 4.928 250.766 4.72C250.569 4.512 250.289 4.408 249.926 4.408C249.654 4.408 249.417 4.46133 249.214 4.568C249.011 4.67467 248.854 4.832 248.742 5.04C248.635 5.248 248.582 5.50667 248.582 5.816V8H247.814V3.76H248.55V4.904L248.43 4.6C248.569 4.32267 248.782 4.10667 249.07 3.952C249.358 3.79733 249.694 3.72 250.078 3.72ZM255.587 8.048C255.235 8.048 254.913 7.968 254.619 7.808C254.331 7.64267 254.099 7.4 253.923 7.08C253.753 6.76 253.667 6.36 253.667 5.88C253.667 5.4 253.75 5 253.915 4.68C254.086 4.36 254.315 4.12 254.603 3.96C254.897 3.8 255.225 3.72 255.587 3.72C256.003 3.72 256.371 3.81067 256.691 3.992C257.011 4.17333 257.265 4.42667 257.451 4.752C257.638 5.072 257.731 5.448 257.731 5.88C257.731 6.312 257.638 6.69067 257.451 7.016C257.265 7.34133 257.011 7.59467 256.691 7.776C256.371 7.95733 256.003 8.048 255.587 8.048ZM253.339 9.552V3.76H254.075V4.904L254.027 5.888L254.107 6.872V9.552H253.339ZM255.523 7.376C255.795 7.376 256.038 7.31467 256.251 7.192C256.47 7.06933 256.641 6.896 256.763 6.672C256.891 6.44267 256.955 6.17867 256.955 5.88C256.955 5.576 256.891 5.31467 256.763 5.096C256.641 4.872 256.47 4.69867 256.251 4.576C256.038 4.45333 255.795 4.392 255.523 4.392C255.257 4.392 255.014 4.45333 254.795 4.576C254.582 4.69867 254.411 4.872 254.283 5.096C254.161 5.31467 254.099 5.576 254.099 5.88C254.099 6.17867 254.161 6.44267 254.283 6.672C254.411 6.896 254.582 7.06933 254.795 7.192C255.014 7.31467 255.257 7.376 255.523 7.376ZM261.465 8V7.104L261.425 6.936V5.408C261.425 5.08267 261.329 4.832 261.137 4.656C260.951 4.47467 260.668 4.384 260.289 4.384C260.039 4.384 259.793 4.42667 259.553 4.512C259.313 4.592 259.111 4.70133 258.945 4.84L258.625 4.264C258.844 4.088 259.105 3.95467 259.409 3.864C259.719 3.768 260.041 3.72 260.377 3.72C260.959 3.72 261.407 3.86133 261.721 4.144C262.036 4.42667 262.193 4.85867 262.193 5.44V8H261.465ZM260.073 8.048C259.759 8.048 259.481 7.99467 259.241 7.888C259.007 7.78133 258.825 7.63467 258.697 7.448C258.569 7.256 258.505 7.04 258.505 6.8C258.505 6.57067 258.559 6.36267 258.665 6.176C258.777 5.98933 258.956 5.84 259.201 5.728C259.452 5.616 259.788 5.56 260.209 5.56H261.553V6.112H260.241C259.857 6.112 259.599 6.176 259.465 6.304C259.332 6.432 259.265 6.58667 259.265 6.768C259.265 6.976 259.348 7.144 259.513 7.272C259.679 7.39467 259.908 7.456 260.201 7.456C260.489 7.456 260.74 7.392 260.953 7.264C261.172 7.136 261.329 6.94933 261.425 6.704L261.577 7.232C261.476 7.48267 261.297 7.68267 261.041 7.832C260.785 7.976 260.463 8.048 260.073 8.048ZM263.695 8V2.064H264.463V8H263.695ZM268.641 8V7.104L268.601 6.936V5.408C268.601 5.08267 268.505 4.832 268.313 4.656C268.126 4.47467 267.844 4.384 267.465 4.384C267.214 4.384 266.969 4.42667 266.729 4.512C266.489 4.592 266.286 4.70133 266.121 4.84L265.801 4.264C266.02 4.088 266.281 3.95467 266.585 3.864C266.894 3.768 267.217 3.72 267.553 3.72C268.134 3.72 268.582 3.86133 268.897 4.144C269.212 4.42667 269.369 4.85867 269.369 5.44V8H268.641ZM267.249 8.048C266.934 8.048 266.657 7.99467 266.417 7.888C266.182 7.78133 266.001 7.63467 265.873 7.448C265.745 7.256 265.681 7.04 265.681 6.8C265.681 6.57067 265.734 6.36267 265.841 6.176C265.953 5.98933 266.132 5.84 266.377 5.728C266.628 5.616 266.964 5.56 267.385 5.56H268.729V6.112H267.417C267.033 6.112 266.774 6.176 266.641 6.304C266.508 6.432 266.441 6.58667 266.441 6.768C266.441 6.976 266.524 7.144 266.689 7.272C266.854 7.39467 267.084 7.456 267.377 7.456C267.665 7.456 267.916 7.392 268.129 7.264C268.348 7.136 268.505 6.94933 268.601 6.704L268.753 7.232C268.652 7.48267 268.473 7.68267 268.217 7.832C267.961 7.976 267.638 8.048 267.249 8.048ZM270.976 9.6C270.773 9.6 270.576 9.56533 270.384 9.496C270.192 9.432 270.027 9.336 269.888 9.208L270.216 8.632C270.323 8.73333 270.44 8.81067 270.568 8.864C270.696 8.91733 270.832 8.944 270.976 8.944C271.163 8.944 271.317 8.896 271.44 8.8C271.563 8.704 271.677 8.53333 271.784 8.288L272.048 7.704L272.128 7.608L273.792 3.76H274.544L272.488 8.424C272.365 8.72267 272.227 8.95733 272.072 9.128C271.923 9.29867 271.757 9.41867 271.576 9.488C271.395 9.56267 271.195 9.6 270.976 9.6ZM271.984 8.136L270.048 3.76H270.848L272.496 7.536L271.984 8.136ZM277.84 8V7.104L277.8 6.936V5.408C277.8 5.08267 277.704 4.832 277.512 4.656C277.325 4.47467 277.043 4.384 276.664 4.384C276.413 4.384 276.168 4.42667 275.928 4.512C275.688 4.592 275.485 4.70133 275.32 4.84L275 4.264C275.219 4.088 275.48 3.95467 275.784 3.864C276.093 3.768 276.416 3.72 276.752 3.72C277.333 3.72 277.781 3.86133 278.096 4.144C278.411 4.42667 278.568 4.85867 278.568 5.44V8H277.84ZM276.448 8.048C276.133 8.048 275.856 7.99467 275.616 7.888C275.381 7.78133 275.2 7.63467 275.072 7.448C274.944 7.256 274.88 7.04 274.88 6.8C274.88 6.57067 274.933 6.36267 275.04 6.176C275.152 5.98933 275.331 5.84 275.576 5.728C275.827 5.616 276.163 5.56 276.584 5.56H277.928V6.112H276.616C276.232 6.112 275.973 6.176 275.84 6.304C275.707 6.432 275.64 6.58667 275.64 6.768C275.64 6.976 275.723 7.144 275.888 7.272C276.053 7.39467 276.283 7.456 276.576 7.456C276.864 7.456 277.115 7.392 277.328 7.264C277.547 7.136 277.704 6.94933 277.8 6.704L277.952 7.232C277.851 7.48267 277.672 7.68267 277.416 7.832C277.16 7.976 276.837 8.048 276.448 8.048ZM285.373 3.72C285.715 3.72 286.016 3.78667 286.277 3.92C286.539 4.05333 286.741 4.256 286.885 4.528C287.035 4.8 287.109 5.144 287.109 5.56V8H286.341V5.648C286.341 5.23733 286.245 4.928 286.053 4.72C285.861 4.512 285.592 4.408 285.245 4.408C284.989 4.408 284.765 4.46133 284.573 4.568C284.381 4.67467 284.232 4.832 284.125 5.04C284.024 5.248 283.973 5.50667 283.973 5.816V8H283.205V5.648C283.205 5.23733 283.109 4.928 282.917 4.72C282.731 4.512 282.461 4.408 282.109 4.408C281.859 4.408 281.637 4.46133 281.445 4.568C281.253 4.67467 281.104 4.832 280.997 5.04C280.891 5.248 280.837 5.50667 280.837 5.816V8H280.069V3.76H280.805V4.888L280.685 4.6C280.819 4.32267 281.024 4.10667 281.301 3.952C281.579 3.79733 281.901 3.72 282.269 3.72C282.675 3.72 283.024 3.82133 283.317 4.024C283.611 4.22133 283.803 4.52267 283.893 4.928L283.581 4.8C283.709 4.47467 283.933 4.21333 284.253 4.016C284.573 3.81867 284.947 3.72 285.373 3.72ZM288.298 9.184L288.698 7.568L288.802 8.032C288.648 8.032 288.517 7.984 288.41 7.888C288.309 7.792 288.258 7.66133 288.258 7.496C288.258 7.336 288.309 7.20533 288.41 7.104C288.517 7.00267 288.645 6.952 288.794 6.952C288.949 6.952 289.074 7.00533 289.17 7.112C289.266 7.21333 289.314 7.34133 289.314 7.496C289.314 7.54933 289.309 7.60267 289.298 7.656C289.293 7.704 289.28 7.76267 289.258 7.832C289.242 7.896 289.216 7.976 289.178 8.072L288.802 9.184H288.298ZM25.56 19.064C25.2293 19.064 24.92 18.9947 24.632 18.856C24.344 18.7173 24.1093 18.5173 23.928 18.256L24.392 17.712C24.5467 17.9253 24.72 18.0907 24.912 18.208C25.1093 18.32 25.3253 18.376 25.56 18.376C26.2 18.376 26.52 17.9973 26.52 17.24V14.096H24.496V13.4H27.312V17.2C27.312 17.824 27.1627 18.2907 26.864 18.6C26.5707 18.9093 26.136 19.064 25.56 19.064ZM30.7256 19.048C30.2989 19.048 29.9202 18.9547 29.5896 18.768C29.2589 18.5813 28.9976 18.3253 28.8056 18C28.6136 17.6693 28.5176 17.296 28.5176 16.88C28.5176 16.4587 28.6136 16.0853 28.8056 15.76C28.9976 15.4347 29.2589 15.1813 29.5896 15C29.9202 14.8133 30.2989 14.72 30.7256 14.72C31.1469 14.72 31.5229 14.8133 31.8536 15C32.1896 15.1813 32.4509 15.4347 32.6376 15.76C32.8296 16.08 32.9256 16.4533 32.9256 16.88C32.9256 17.3013 32.8296 17.6747 32.6376 18C32.4509 18.3253 32.1896 18.5813 31.8536 18.768C31.5229 18.9547 31.1469 19.048 30.7256 19.048ZM30.7256 18.376C30.9976 18.376 31.2402 18.3147 31.4536 18.192C31.6722 18.0693 31.8429 17.896 31.9656 17.672C32.0882 17.4427 32.1496 17.1787 32.1496 16.88C32.1496 16.576 32.0882 16.3147 31.9656 16.096C31.8429 15.872 31.6722 15.6987 31.4536 15.576C31.2402 15.4533 30.9976 15.392 30.7256 15.392C30.4536 15.392 30.2109 15.4533 29.9976 15.576C29.7842 15.6987 29.6136 15.872 29.4856 16.096C29.3576 16.3147 29.2936 16.576 29.2936 16.88C29.2936 17.1787 29.3576 17.4427 29.4856 17.672C29.6136 17.896 29.7842 18.0693 29.9976 18.192C30.2109 18.3147 30.4536 18.376 30.7256 18.376ZM35.5237 19.048C35.097 19.048 34.7664 18.9333 34.5317 18.704C34.297 18.4747 34.1797 18.1467 34.1797 17.72V13.832H34.9477V17.688C34.9477 17.9173 35.0037 18.0933 35.1157 18.216C35.233 18.3387 35.3984 18.4 35.6117 18.4C35.8517 18.4 36.0517 18.3333 36.2117 18.2L36.4517 18.752C36.3344 18.8533 36.193 18.928 36.0277 18.976C35.8677 19.024 35.6997 19.048 35.5237 19.048ZM33.4597 15.392V14.76H36.1637V15.392H33.4597ZM39.7242 14.72C40.0709 14.72 40.3749 14.7867 40.6362 14.92C40.9029 15.0533 41.1109 15.256 41.2602 15.528C41.4095 15.8 41.4842 16.144 41.4842 16.56V19H40.7162V16.648C40.7162 16.2373 40.6149 15.928 40.4122 15.72C40.2149 15.512 39.9349 15.408 39.5722 15.408C39.3002 15.408 39.0629 15.4613 38.8602 15.568C38.6575 15.6747 38.5002 15.832 38.3882 16.04C38.2815 16.248 38.2282 16.5067 38.2282 16.816V19H37.4602V13.064H38.2282V15.904L38.0762 15.6C38.2149 15.3227 38.4282 15.1067 38.7162 14.952C39.0042 14.7973 39.3402 14.72 39.7242 14.72ZM42.9855 19V14.76H43.7535V19H42.9855ZM43.3695 13.944C43.2202 13.944 43.0948 13.896 42.9935 13.8C42.8975 13.704 42.8495 13.5867 42.8495 13.448C42.8495 13.304 42.8975 13.184 42.9935 13.088C43.0948 12.992 43.2202 12.944 43.3695 12.944C43.5188 12.944 43.6415 12.992 43.7375 13.088C43.8388 13.1787 43.8895 13.2933 43.8895 13.432C43.8895 13.576 43.8415 13.6987 43.7455 13.8C43.6495 13.896 43.5242 13.944 43.3695 13.944ZM47.5479 19.048C47.1959 19.048 46.8732 18.968 46.5799 18.808C46.2919 18.6427 46.0599 18.4 45.8839 18.08C45.7132 17.76 45.6279 17.36 45.6279 16.88C45.6279 16.4 45.7105 16 45.8759 15.68C46.0465 15.36 46.2759 15.12 46.5639 14.96C46.8572 14.8 47.1852 14.72 47.5479 14.72C47.9639 14.72 48.3319 14.8107 48.6519 14.992C48.9719 15.1733 49.2252 15.4267 49.4119 15.752C49.5985 16.072 49.6919 16.448 49.6919 16.88C49.6919 17.312 49.5985 17.6907 49.4119 18.016C49.2252 18.3413 48.9719 18.5947 48.6519 18.776C48.3319 18.9573 47.9639 19.048 47.5479 19.048ZM45.2999 20.552V14.76H46.0359V15.904L45.9879 16.888L46.0679 17.872V20.552H45.2999ZM47.4839 18.376C47.7559 18.376 47.9985 18.3147 48.2119 18.192C48.4305 18.0693 48.6012 17.896 48.7239 17.672C48.8519 17.4427 48.9159 17.1787 48.9159 16.88C48.9159 16.576 48.8519 16.3147 48.7239 16.096C48.6012 15.872 48.4305 15.6987 48.2119 15.576C47.9985 15.4533 47.7559 15.392 47.4839 15.392C47.2172 15.392 46.9745 15.4533 46.7559 15.576C46.5425 15.6987 46.3719 15.872 46.2439 16.096C46.1212 16.3147 46.0599 16.576 46.0599 16.88C46.0599 17.1787 46.1212 17.4427 46.2439 17.672C46.3719 17.896 46.5425 18.0693 46.7559 18.192C46.9745 18.3147 47.2172 18.376 47.4839 18.376ZM52.617 19.048C52.2543 19.048 51.9343 18.9813 51.657 18.848C51.385 18.7147 51.1717 18.512 51.017 18.24C50.8677 17.9627 50.793 17.616 50.793 17.2V14.76H51.561V17.112C51.561 17.528 51.6597 17.84 51.857 18.048C52.0597 18.256 52.3423 18.36 52.705 18.36C52.9717 18.36 53.2037 18.3067 53.401 18.2C53.5983 18.088 53.7503 17.928 53.857 17.72C53.9637 17.5067 54.017 17.2507 54.017 16.952V14.76H54.785V19H54.057V17.856L54.177 18.16C54.0383 18.4427 53.8303 18.6613 53.553 18.816C53.2757 18.9707 52.9637 19.048 52.617 19.048ZM56.3271 19V14.76H57.0631V15.912L56.9911 15.624C57.1084 15.3307 57.3057 15.1067 57.5831 14.952C57.8604 14.7973 58.2017 14.72 58.6071 14.72V15.464C58.5751 15.4587 58.5431 15.456 58.5111 15.456C58.4844 15.456 58.4577 15.456 58.4311 15.456C58.0204 15.456 57.6951 15.5787 57.4551 15.824C57.2151 16.0693 57.0951 16.424 57.0951 16.888V19H56.3271ZM61.9531 19V18.104L61.9131 17.936V16.408C61.9131 16.0827 61.8171 15.832 61.6251 15.656C61.4385 15.4747 61.1558 15.384 60.7771 15.384C60.5265 15.384 60.2811 15.4267 60.0411 15.512C59.8011 15.592 59.5985 15.7013 59.4331 15.84L59.1131 15.264C59.3318 15.088 59.5931 14.9547 59.8971 14.864C60.2065 14.768 60.5291 14.72 60.8651 14.72C61.4465 14.72 61.8945 14.8613 62.2091 15.144C62.5238 15.4267 62.6811 15.8587 62.6811 16.44V19H61.9531ZM60.5611 19.048C60.2465 19.048 59.9691 18.9947 59.7291 18.888C59.4945 18.7813 59.3131 18.6347 59.1851 18.448C59.0571 18.256 58.9931 18.04 58.9931 17.8C58.9931 17.5707 59.0465 17.3627 59.1531 17.176C59.2651 16.9893 59.4438 16.84 59.6891 16.728C59.9398 16.616 60.2758 16.56 60.6971 16.56H62.0411V17.112H60.7291C60.3451 17.112 60.0865 17.176 59.9531 17.304C59.8198 17.432 59.7531 17.5867 59.7531 17.768C59.7531 17.976 59.8358 18.144 60.0011 18.272C60.1665 18.3947 60.3958 18.456 60.6891 18.456C60.9771 18.456 61.2278 18.392 61.4411 18.264C61.6598 18.136 61.8171 17.9493 61.9131 17.704L62.0651 18.232C61.9638 18.4827 61.7851 18.6827 61.5291 18.832C61.2731 18.976 60.9505 19.048 60.5611 19.048ZM69.4864 14.72C69.8277 14.72 70.129 14.7867 70.3904 14.92C70.6517 15.0533 70.8544 15.256 70.9984 15.528C71.1477 15.8 71.2224 16.144 71.2224 16.56V19H70.4544V16.648C70.4544 16.2373 70.3584 15.928 70.1664 15.72C69.9744 15.512 69.705 15.408 69.3584 15.408C69.1024 15.408 68.8784 15.4613 68.6864 15.568C68.4944 15.6747 68.345 15.832 68.2384 16.04C68.137 16.248 68.0864 16.5067 68.0864 16.816V19H67.3184V16.648C67.3184 16.2373 67.2224 15.928 67.0304 15.72C66.8437 15.512 66.5744 15.408 66.2224 15.408C65.9717 15.408 65.7504 15.4613 65.5584 15.568C65.3664 15.6747 65.217 15.832 65.1104 16.04C65.0037 16.248 64.9504 16.5067 64.9504 16.816V19H64.1824V14.76H64.9184V15.888L64.7984 15.6C64.9317 15.3227 65.137 15.1067 65.4144 14.952C65.6917 14.7973 66.0144 14.72 66.3824 14.72C66.7877 14.72 67.137 14.8213 67.4304 15.024C67.7237 15.2213 67.9157 15.5227 68.0064 15.928L67.6944 15.8C67.8224 15.4747 68.0464 15.2133 68.3664 15.016C68.6864 14.8187 69.0597 14.72 69.4864 14.72ZM75.9279 20.552C75.6239 20.0667 75.3893 19.5067 75.2239 18.872C75.0586 18.232 74.9759 17.544 74.9759 16.808C74.9759 16.072 75.0586 15.384 75.2239 14.744C75.3893 14.0987 75.6239 13.5387 75.9279 13.064H76.6559C76.3359 13.6293 76.1013 14.2213 75.9519 14.84C75.8026 15.4533 75.7279 16.1093 75.7279 16.808C75.7279 17.5067 75.8026 18.1653 75.9519 18.784C76.1013 19.3973 76.3359 19.9867 76.6559 20.552H75.9279ZM77.8312 19V13.4H80.0152C80.5059 13.4 80.9246 13.4773 81.2712 13.632C81.6179 13.7867 81.8846 14.0107 82.0712 14.304C82.2579 14.5973 82.3512 14.9467 82.3512 15.352C82.3512 15.7573 82.2579 16.1067 82.0712 16.4C81.8846 16.688 81.6179 16.912 81.2712 17.072C80.9246 17.2267 80.5059 17.304 80.0152 17.304H78.2712L78.6312 16.928V19H77.8312ZM78.6312 17.008L78.2712 16.608H79.9912C80.5032 16.608 80.8899 16.4987 81.1512 16.28C81.4179 16.0613 81.5512 15.752 81.5512 15.352C81.5512 14.952 81.4179 14.6427 81.1512 14.424C80.8899 14.2053 80.5032 14.096 79.9912 14.096H78.2712L78.6312 13.696V17.008ZM85.2949 19.048C84.8683 19.048 84.4896 18.9547 84.1589 18.768C83.8283 18.5813 83.5669 18.3253 83.3749 18C83.1829 17.6693 83.0869 17.296 83.0869 16.88C83.0869 16.4587 83.1829 16.0853 83.3749 15.76C83.5669 15.4347 83.8283 15.1813 84.1589 15C84.4896 14.8133 84.8683 14.72 85.2949 14.72C85.7163 14.72 86.0923 14.8133 86.4229 15C86.7589 15.1813 87.0203 15.4347 87.2069 15.76C87.3989 16.08 87.4949 16.4533 87.4949 16.88C87.4949 17.3013 87.3989 17.6747 87.2069 18C87.0203 18.3253 86.7589 18.5813 86.4229 18.768C86.0923 18.9547 85.7163 19.048 85.2949 19.048ZM85.2949 18.376C85.5669 18.376 85.8096 18.3147 86.0229 18.192C86.2416 18.0693 86.4123 17.896 86.5349 17.672C86.6576 17.4427 86.7189 17.1787 86.7189 16.88C86.7189 16.576 86.6576 16.3147 86.5349 16.096C86.4123 15.872 86.2416 15.6987 86.0229 15.576C85.8096 15.4533 85.5669 15.392 85.2949 15.392C85.0229 15.392 84.7803 15.4533 84.5669 15.576C84.3536 15.6987 84.1829 15.872 84.0549 16.096C83.9269 16.3147 83.8629 16.576 83.8629 16.88C83.8629 17.1787 83.9269 17.4427 84.0549 17.672C84.1829 17.896 84.3536 18.0693 84.5669 18.192C84.7803 18.3147 85.0229 18.376 85.2949 18.376ZM88.8931 20.552H88.1651C88.4904 19.9867 88.7277 19.3973 88.8771 18.784C89.0264 18.1653 89.1011 17.5067 89.1011 16.808C89.1011 16.1093 89.0264 15.4533 88.8771 14.84C88.7277 14.2213 88.4904 13.6293 88.1651 13.064H88.8931C89.2077 13.5387 89.4451 14.0987 89.6051 14.744C89.7704 15.384 89.8531 16.072 89.8531 16.808C89.8531 17.544 89.7704 18.232 89.6051 18.872C89.4451 19.5067 89.2077 20.0667 88.8931 20.552ZM91.1162 20.184L91.5162 18.568L91.6202 19.032C91.4655 19.032 91.3349 18.984 91.2282 18.888C91.1269 18.792 91.0762 18.6613 91.0762 18.496C91.0762 18.336 91.1269 18.2053 91.2282 18.104C91.3349 18.0027 91.4629 17.952 91.6122 17.952C91.7669 17.952 91.8922 18.0053 91.9882 18.112C92.0842 18.2133 92.1322 18.3413 92.1322 18.496C92.1322 18.5493 92.1269 18.6027 92.1162 18.656C92.1109 18.704 92.0975 18.7627 92.0762 18.832C92.0602 18.896 92.0335 18.976 91.9962 19.072L91.6202 20.184H91.1162ZM98.1571 19.064C97.7305 19.064 97.3358 18.9947 96.9731 18.856C96.6158 18.712 96.3038 18.512 96.0371 18.256C95.7758 17.9947 95.5705 17.6907 95.4211 17.344C95.2718 16.9973 95.1971 16.616 95.1971 16.2C95.1971 15.784 95.2718 15.4027 95.4211 15.056C95.5705 14.7093 95.7785 14.408 96.0451 14.152C96.3118 13.8907 96.6238 13.6907 96.9811 13.552C97.3438 13.408 97.7385 13.336 98.1651 13.336C98.5971 13.336 98.9945 13.4107 99.3571 13.56C99.7251 13.704 100.037 13.92 100.293 14.208L99.7731 14.712C99.5598 14.488 99.3198 14.3227 99.0531 14.216C98.7865 14.104 98.5011 14.048 98.1971 14.048C97.8825 14.048 97.5891 14.1013 97.3171 14.208C97.0505 14.3147 96.8185 14.464 96.6211 14.656C96.4238 14.848 96.2691 15.0773 96.1571 15.344C96.0505 15.6053 95.9971 15.8907 95.9971 16.2C95.9971 16.5093 96.0505 16.7973 96.1571 17.064C96.2691 17.3253 96.4238 17.552 96.6211 17.744C96.8185 17.936 97.0505 18.0853 97.3171 18.192C97.5891 18.2987 97.8825 18.352 98.1971 18.352C98.5011 18.352 98.7865 18.2987 99.0531 18.192C99.3198 18.08 99.5598 17.9093 99.7731 17.68L100.293 18.184C100.037 18.472 99.7251 18.6907 99.3571 18.84C98.9945 18.9893 98.5945 19.064 98.1571 19.064ZM103.039 19.048C102.612 19.048 102.233 18.9547 101.903 18.768C101.572 18.5813 101.311 18.3253 101.119 18C100.927 17.6693 100.831 17.296 100.831 16.88C100.831 16.4587 100.927 16.0853 101.119 15.76C101.311 15.4347 101.572 15.1813 101.903 15C102.233 14.8133 102.612 14.72 103.039 14.72C103.46 14.72 103.836 14.8133 104.167 15C104.503 15.1813 104.764 15.4347 104.951 15.76C105.143 16.08 105.239 16.4533 105.239 16.88C105.239 17.3013 105.143 17.6747 104.951 18C104.764 18.3253 104.503 18.5813 104.167 18.768C103.836 18.9547 103.46 19.048 103.039 19.048ZM103.039 18.376C103.311 18.376 103.553 18.3147 103.767 18.192C103.985 18.0693 104.156 17.896 104.279 17.672C104.401 17.4427 104.463 17.1787 104.463 16.88C104.463 16.576 104.401 16.3147 104.279 16.096C104.156 15.872 103.985 15.6987 103.767 15.576C103.553 15.4533 103.311 15.392 103.039 15.392C102.767 15.392 102.524 15.4533 102.311 15.576C102.097 15.6987 101.927 15.872 101.799 16.096C101.671 16.3147 101.607 16.576 101.607 16.88C101.607 17.1787 101.671 17.4427 101.799 17.672C101.927 17.896 102.097 18.0693 102.311 18.192C102.524 18.3147 102.767 18.376 103.039 18.376ZM106.381 19V14.76H107.149V19H106.381ZM106.765 13.944C106.615 13.944 106.49 13.896 106.389 13.8C106.293 13.704 106.245 13.5867 106.245 13.448C106.245 13.304 106.293 13.184 106.389 13.088C106.49 12.992 106.615 12.944 106.765 12.944C106.914 12.944 107.037 12.992 107.133 13.088C107.234 13.1787 107.285 13.2933 107.285 13.432C107.285 13.576 107.237 13.6987 107.141 13.8C107.045 13.896 106.919 13.944 106.765 13.944ZM113.999 14.72C114.341 14.72 114.642 14.7867 114.903 14.92C115.165 15.0533 115.367 15.256 115.511 15.528C115.661 15.8 115.735 16.144 115.735 16.56V19H114.967V16.648C114.967 16.2373 114.871 15.928 114.679 15.72C114.487 15.512 114.218 15.408 113.871 15.408C113.615 15.408 113.391 15.4613 113.199 15.568C113.007 15.6747 112.858 15.832 112.751 16.04C112.65 16.248 112.599 16.5067 112.599 16.816V19H111.831V16.648C111.831 16.2373 111.735 15.928 111.543 15.72C111.357 15.512 111.087 15.408 110.735 15.408C110.485 15.408 110.263 15.4613 110.071 15.568C109.879 15.6747 109.73 15.832 109.623 16.04C109.517 16.248 109.463 16.5067 109.463 16.816V19H108.695V14.76H109.431V15.888L109.311 15.6C109.445 15.3227 109.65 15.1067 109.927 14.952C110.205 14.7973 110.527 14.72 110.895 14.72C111.301 14.72 111.65 14.8213 111.943 15.024C112.237 15.2213 112.429 15.5227 112.519 15.928L112.207 15.8C112.335 15.4747 112.559 15.2133 112.879 15.016C113.199 14.8187 113.573 14.72 113.999 14.72ZM119.476 19.048C119.114 19.048 118.786 18.968 118.492 18.808C118.204 18.6427 117.975 18.4 117.804 18.08C117.639 17.76 117.556 17.36 117.556 16.88C117.556 16.4 117.642 16 117.812 15.68C117.988 15.36 118.22 15.12 118.508 14.96C118.802 14.8 119.124 14.72 119.476 14.72C119.892 14.72 120.26 14.8107 120.58 14.992C120.9 15.1733 121.154 15.4267 121.34 15.752C121.527 16.072 121.62 16.448 121.62 16.88C121.62 17.312 121.527 17.6907 121.34 18.016C121.154 18.3413 120.9 18.5947 120.58 18.776C120.26 18.9573 119.892 19.048 119.476 19.048ZM117.228 19V13.064H117.996V15.888L117.916 16.872L117.964 17.856V19H117.228ZM119.412 18.376C119.684 18.376 119.927 18.3147 120.14 18.192C120.359 18.0693 120.53 17.896 120.652 17.672C120.78 17.4427 120.844 17.1787 120.844 16.88C120.844 16.576 120.78 16.3147 120.652 16.096C120.53 15.872 120.359 15.6987 120.14 15.576C119.927 15.4533 119.684 15.392 119.412 15.392C119.146 15.392 118.903 15.4533 118.684 15.576C118.471 15.6987 118.3 15.872 118.172 16.096C118.05 16.3147 117.988 16.576 117.988 16.88C117.988 17.1787 118.05 17.4427 118.172 17.672C118.3 17.896 118.471 18.0693 118.684 18.192C118.903 18.3147 119.146 18.376 119.412 18.376ZM125.354 19V18.104L125.314 17.936V16.408C125.314 16.0827 125.218 15.832 125.026 15.656C124.84 15.4747 124.557 15.384 124.178 15.384C123.928 15.384 123.682 15.4267 123.442 15.512C123.202 15.592 123 15.7013 122.834 15.84L122.514 15.264C122.733 15.088 122.994 14.9547 123.298 14.864C123.608 14.768 123.93 14.72 124.266 14.72C124.848 14.72 125.296 14.8613 125.61 15.144C125.925 15.4267 126.082 15.8587 126.082 16.44V19H125.354ZM123.962 19.048C123.648 19.048 123.37 18.9947 123.13 18.888C122.896 18.7813 122.714 18.6347 122.586 18.448C122.458 18.256 122.394 18.04 122.394 17.8C122.394 17.5707 122.448 17.3627 122.554 17.176C122.666 16.9893 122.845 16.84 123.09 16.728C123.341 16.616 123.677 16.56 124.098 16.56H125.442V17.112H124.13C123.746 17.112 123.488 17.176 123.354 17.304C123.221 17.432 123.154 17.5867 123.154 17.768C123.154 17.976 123.237 18.144 123.402 18.272C123.568 18.3947 123.797 18.456 124.09 18.456C124.378 18.456 124.629 18.392 124.842 18.264C125.061 18.136 125.218 17.9493 125.314 17.704L125.466 18.232C125.365 18.4827 125.186 18.6827 124.93 18.832C124.674 18.976 124.352 19.048 123.962 19.048ZM129.04 19.048C128.613 19.048 128.282 18.9333 128.048 18.704C127.813 18.4747 127.696 18.1467 127.696 17.72V13.832H128.464V17.688C128.464 17.9173 128.52 18.0933 128.632 18.216C128.749 18.3387 128.914 18.4 129.128 18.4C129.368 18.4 129.568 18.3333 129.728 18.2L129.968 18.752C129.85 18.8533 129.709 18.928 129.544 18.976C129.384 19.024 129.216 19.048 129.04 19.048ZM126.976 15.392V14.76H129.68V15.392H126.976ZM132.651 19.048C132.225 19.048 131.846 18.9547 131.515 18.768C131.185 18.5813 130.923 18.3253 130.731 18C130.539 17.6693 130.443 17.296 130.443 16.88C130.443 16.4587 130.539 16.0853 130.731 15.76C130.923 15.4347 131.185 15.1813 131.515 15C131.846 14.8133 132.225 14.72 132.651 14.72C133.073 14.72 133.449 14.8133 133.779 15C134.115 15.1813 134.377 15.4347 134.563 15.76C134.755 16.08 134.851 16.4533 134.851 16.88C134.851 17.3013 134.755 17.6747 134.563 18C134.377 18.3253 134.115 18.5813 133.779 18.768C133.449 18.9547 133.073 19.048 132.651 19.048ZM132.651 18.376C132.923 18.376 133.166 18.3147 133.379 18.192C133.598 18.0693 133.769 17.896 133.891 17.672C134.014 17.4427 134.075 17.1787 134.075 16.88C134.075 16.576 134.014 16.3147 133.891 16.096C133.769 15.872 133.598 15.6987 133.379 15.576C133.166 15.4533 132.923 15.392 132.651 15.392C132.379 15.392 132.137 15.4533 131.923 15.576C131.71 15.6987 131.539 15.872 131.411 16.096C131.283 16.3147 131.219 16.576 131.219 16.88C131.219 17.1787 131.283 17.4427 131.411 17.672C131.539 17.896 131.71 18.0693 131.923 18.192C132.137 18.3147 132.379 18.376 132.651 18.376ZM135.994 19V14.76H136.73V15.912L136.658 15.624C136.775 15.3307 136.972 15.1067 137.25 14.952C137.527 14.7973 137.868 14.72 138.274 14.72V15.464C138.242 15.4587 138.21 15.456 138.178 15.456C138.151 15.456 138.124 15.456 138.098 15.456C137.687 15.456 137.362 15.5787 137.122 15.824C136.882 16.0693 136.762 16.424 136.762 16.888V19H135.994ZM141.149 19.048C140.696 19.048 140.296 18.9547 139.949 18.768C139.608 18.5813 139.341 18.3253 139.149 18C138.962 17.6747 138.869 17.3013 138.869 16.88C138.869 16.4587 138.96 16.0853 139.141 15.76C139.328 15.4347 139.581 15.1813 139.901 15C140.226 14.8133 140.592 14.72 140.997 14.72C141.408 14.72 141.77 14.8107 142.085 14.992C142.4 15.1733 142.645 15.4293 142.821 15.76C143.002 16.0853 143.093 16.4667 143.093 16.904C143.093 16.936 143.09 16.9733 143.085 17.016C143.085 17.0587 143.082 17.0987 143.077 17.136H139.469V16.584H142.677L142.365 16.776C142.37 16.504 142.314 16.2613 142.197 16.048C142.08 15.8347 141.917 15.6693 141.709 15.552C141.506 15.4293 141.269 15.368 140.997 15.368C140.73 15.368 140.493 15.4293 140.285 15.552C140.077 15.6693 139.914 15.8373 139.797 16.056C139.68 16.2693 139.621 16.5147 139.621 16.792V16.92C139.621 17.2027 139.685 17.456 139.813 17.68C139.946 17.8987 140.13 18.0693 140.365 18.192C140.6 18.3147 140.869 18.376 141.173 18.376C141.424 18.376 141.65 18.3333 141.853 18.248C142.061 18.1627 142.242 18.0347 142.397 17.864L142.821 18.36C142.629 18.584 142.389 18.7547 142.101 18.872C141.818 18.9893 141.501 19.048 141.149 19.048ZM145.74 17.072V16.536H149.74V17.072H145.74ZM154.784 19.064C154.288 19.064 153.864 18.9547 153.512 18.736C153.16 18.5173 152.891 18.2027 152.704 17.792C152.523 17.376 152.432 16.8693 152.432 16.272C152.432 15.6373 152.544 15.1013 152.768 14.664C152.992 14.2267 153.304 13.896 153.704 13.672C154.104 13.448 154.563 13.336 155.08 13.336C155.347 13.336 155.6 13.3627 155.84 13.416C156.086 13.4693 156.296 13.552 156.472 13.664L156.168 14.288C156.024 14.1867 155.859 14.1173 155.672 14.08C155.491 14.0427 155.299 14.024 155.096 14.024C154.526 14.024 154.072 14.2027 153.736 14.56C153.4 14.912 153.232 15.4373 153.232 16.136C153.232 16.248 153.238 16.3813 153.248 16.536C153.259 16.6907 153.286 16.8427 153.328 16.992L153.056 16.72C153.136 16.4747 153.262 16.2693 153.432 16.104C153.608 15.9333 153.816 15.808 154.056 15.728C154.302 15.6427 154.566 15.6 154.848 15.6C155.222 15.6 155.552 15.6693 155.84 15.808C156.128 15.9467 156.355 16.144 156.52 16.4C156.686 16.6507 156.768 16.9493 156.768 17.296C156.768 17.6533 156.68 17.9653 156.504 18.232C156.328 18.4987 156.091 18.704 155.792 18.848C155.494 18.992 155.158 19.064 154.784 19.064ZM154.752 18.416C154.998 18.416 155.211 18.3707 155.392 18.28C155.579 18.1893 155.726 18.064 155.832 17.904C155.939 17.7387 155.992 17.5467 155.992 17.328C155.992 16.9973 155.878 16.736 155.648 16.544C155.419 16.3467 155.107 16.248 154.712 16.248C154.456 16.248 154.232 16.296 154.04 16.392C153.848 16.488 153.696 16.6187 153.584 16.784C153.478 16.944 153.424 17.128 153.424 17.336C153.424 17.528 153.475 17.7067 153.576 17.872C153.678 18.032 153.827 18.1627 154.024 18.264C154.222 18.3653 154.464 18.416 154.752 18.416ZM157.37 17.624V17.064L160.234 13.4H161.098L158.258 17.064L157.85 16.936H162.322V17.624H157.37ZM160.482 19V17.624L160.506 16.936V15.72H161.258V19H160.482ZM163.622 19V13.72L163.966 14.096H162.358V13.4H164.414V19H163.622ZM168.007 19.064C167.57 19.064 167.178 18.952 166.831 18.728C166.49 18.504 166.218 18.1787 166.015 17.752C165.818 17.3253 165.719 16.808 165.719 16.2C165.719 15.592 165.818 15.0747 166.015 14.648C166.218 14.2213 166.49 13.896 166.831 13.672C167.178 13.448 167.57 13.336 168.007 13.336C168.439 13.336 168.829 13.448 169.175 13.672C169.522 13.896 169.794 14.2213 169.991 14.648C170.189 15.0747 170.287 15.592 170.287 16.2C170.287 16.808 170.189 17.3253 169.991 17.752C169.794 18.1787 169.522 18.504 169.175 18.728C168.829 18.952 168.439 19.064 168.007 19.064ZM168.007 18.352C168.301 18.352 168.557 18.272 168.775 18.112C168.999 17.952 169.173 17.712 169.295 17.392C169.423 17.072 169.487 16.6747 169.487 16.2C169.487 15.7253 169.423 15.328 169.295 15.008C169.173 14.688 168.999 14.448 168.775 14.288C168.557 14.128 168.301 14.048 168.007 14.048C167.714 14.048 167.455 14.128 167.231 14.288C167.007 14.448 166.831 14.688 166.703 15.008C166.581 15.328 166.519 15.7253 166.519 16.2C166.519 16.6747 166.581 17.072 166.703 17.392C166.831 17.712 167.007 17.952 167.231 18.112C167.455 18.272 167.714 18.352 168.007 18.352ZM171.055 17.624V17.064L173.919 13.4H174.783L171.943 17.064L171.535 16.936H176.007V17.624H171.055ZM174.167 19V17.624L174.191 16.936V15.72H174.943V19H174.167ZM177.16 19L179.536 13.736L179.744 14.096H176.416L176.816 13.704V15.096H176.048V13.4H180.272V13.944L178.008 19H177.16Z" fill="white"/>
</svg>
