<svg width="410" height="16" viewBox="0 0 410 16" fill="none" xmlns="http://www.w3.org/2000/svg">
<path d="M0.424 12V0.719999H1.528L6.104 9.312H5.624L10.168 0.719999H11.272V12H10.056V2.48H10.44L6.296 10.256H5.432L1.24 2.464H1.624V12H0.424ZM17.1355 12.144C16.3782 12.144 15.7222 11.9787 15.1675 11.648C14.6128 11.3173 14.1808 10.8533 13.8715 10.256C13.5728 9.648 13.4235 8.93333 13.4235 8.112C13.4235 7.29067 13.5728 6.58133 13.8715 5.984C14.1808 5.376 14.6128 4.90667 15.1675 4.576C15.7222 4.24533 16.3782 4.08 17.1355 4.08C17.8928 4.08 18.5488 4.24533 19.1035 4.576C19.6582 4.90667 20.0848 5.376 20.3835 5.984C20.6928 6.58133 20.8475 7.29067 20.8475 8.112C20.8475 8.93333 20.6928 9.648 20.3835 10.256C20.0848 10.8533 19.6582 11.3173 19.1035 11.648C18.5488 11.9787 17.8928 12.144 17.1355 12.144ZM17.1355 11.104C17.8715 11.104 18.4528 10.848 18.8795 10.336C19.3168 9.81333 19.5355 9.06667 19.5355 8.096C19.5355 7.136 19.3168 6.4 18.8795 5.888C18.4528 5.376 17.8715 5.12 17.1355 5.12C16.4102 5.12 15.8288 5.376 15.3915 5.888C14.9542 6.4 14.7355 7.136 14.7355 8.096C14.7355 9.06667 14.9542 9.81333 15.3915 10.336C15.8288 10.848 16.4102 11.104 17.1355 11.104ZM22.7941 12V4.224H24.0581V6.064H23.8981C24.0795 5.43467 24.3941 4.96 24.8421 4.64C25.2901 4.30933 25.8821 4.11733 26.6181 4.064L27.0821 4.016L27.1781 5.136L26.3621 5.232C25.6368 5.296 25.0768 5.53067 24.6821 5.936C24.2981 6.33067 24.1061 6.87467 24.1061 7.568V12H22.7941ZM31.9388 12.144C31.1174 12.144 30.4081 11.984 29.8108 11.664C29.2241 11.3333 28.7654 10.8693 28.4348 10.272C28.1148 9.67467 27.9548 8.96 27.9548 8.128C27.9548 7.31733 28.1148 6.61333 28.4348 6.016C28.7548 5.408 29.1921 4.93333 29.7468 4.592C30.3121 4.25067 30.9628 4.08 31.6988 4.08C32.4028 4.08 33.0054 4.23467 33.5068 4.544C34.0081 4.85333 34.3921 5.29067 34.6588 5.856C34.9361 6.42133 35.0748 7.09867 35.0748 7.888V8.384H28.9468V7.536H34.2108L33.9548 7.744C33.9548 6.89067 33.7628 6.22933 33.3788 5.76C33.0054 5.28 32.4561 5.04 31.7308 5.04C31.1868 5.04 30.7228 5.168 30.3388 5.424C29.9654 5.66933 29.6828 6.016 29.4908 6.464C29.2988 6.90133 29.2028 7.41333 29.2028 8V8.096C29.2028 8.74667 29.3041 9.296 29.5068 9.744C29.7201 10.192 30.0348 10.5333 30.4508 10.768C30.8668 10.992 31.3628 11.104 31.9388 11.104C32.3974 11.104 32.8401 11.0347 33.2668 10.896C33.7041 10.7467 34.1148 10.5067 34.4988 10.176L34.9468 11.088C34.5948 11.408 34.1468 11.664 33.6028 11.856C33.0588 12.048 32.5041 12.144 31.9388 12.144ZM44.0038 12V1.856H39.9078V0.719999H49.4278V1.856H45.3318V12H44.0038ZM50.6848 12V0.719999H51.9808V5.952H51.7728C51.9968 5.33333 52.3594 4.86933 52.8608 4.56C53.3728 4.24 53.9594 4.08 54.6208 4.08C55.2394 4.08 55.7514 4.192 56.1568 4.416C56.5728 4.64 56.8821 4.98133 57.0848 5.44C57.2874 5.888 57.3888 6.45867 57.3888 7.152V12H56.0928V7.232C56.0928 6.752 56.0288 6.35733 55.9008 6.048C55.7834 5.73867 55.5914 5.50933 55.3248 5.36C55.0688 5.21067 54.7328 5.136 54.3168 5.136C53.8474 5.136 53.4368 5.23733 53.0848 5.44C52.7328 5.64267 52.4608 5.92533 52.2688 6.288C52.0768 6.65067 51.9808 7.07733 51.9808 7.568V12H50.6848ZM62.2265 12.144C61.6932 12.144 61.2132 12.0427 60.7865 11.84C60.3705 11.6267 60.0398 11.3387 59.7945 10.976C59.5492 10.6133 59.4265 10.208 59.4265 9.76C59.4265 9.184 59.5705 8.73067 59.8585 8.4C60.1572 8.06933 60.6425 7.83467 61.3145 7.696C61.9972 7.55733 62.9252 7.488 64.0985 7.488H64.8185V8.336H64.1145C63.4638 8.336 62.9198 8.35733 62.4825 8.4C62.0452 8.44267 61.6985 8.51733 61.4425 8.624C61.1865 8.73067 61.0052 8.86933 60.8985 9.04C60.7918 9.21067 60.7385 9.424 60.7385 9.68C60.7385 10.1173 60.8878 10.4747 61.1865 10.752C61.4958 11.0293 61.9118 11.168 62.4345 11.168C62.8612 11.168 63.2345 11.0667 63.5545 10.864C63.8852 10.6613 64.1412 10.384 64.3225 10.032C64.5145 9.68 64.6105 9.27467 64.6105 8.816V6.992C64.6105 6.33067 64.4772 5.856 64.2105 5.568C63.9438 5.26933 63.5065 5.12 62.8985 5.12C62.4292 5.12 61.9758 5.18933 61.5385 5.328C61.1012 5.456 60.6532 5.66933 60.1945 5.968L59.7465 5.024C60.0238 4.832 60.3385 4.66667 60.6905 4.528C61.0425 4.37867 61.4105 4.26667 61.7945 4.192C62.1785 4.11733 62.5465 4.08 62.8985 4.08C63.5705 4.08 64.1252 4.192 64.5625 4.416C64.9998 4.62933 65.3252 4.96 65.5385 5.408C65.7518 5.84533 65.8585 6.41067 65.8585 7.104V12H64.6425V10.192H64.7865C64.7012 10.5973 64.5358 10.944 64.2905 11.232C64.0558 11.52 63.7625 11.744 63.4105 11.904C63.0585 12.064 62.6638 12.144 62.2265 12.144ZM68.2629 12V4.224H69.5269V5.952H69.3509C69.5749 5.33333 69.9375 4.86933 70.4389 4.56C70.9509 4.24 71.5375 4.08 72.1989 4.08C72.8175 4.08 73.3295 4.192 73.7349 4.416C74.1509 4.62933 74.4602 4.96533 74.6629 5.424C74.8655 5.88267 74.9669 6.45867 74.9669 7.152V12H73.6709V7.232C73.6709 6.752 73.6069 6.35733 73.4789 6.048C73.3615 5.73867 73.1695 5.50933 72.9029 5.36C72.6469 5.21067 72.3109 5.136 71.8949 5.136C71.4255 5.136 71.0149 5.23733 70.6629 5.44C70.3109 5.64267 70.0389 5.92533 69.8469 6.288C69.6549 6.65067 69.5589 7.07733 69.5589 7.568V12H68.2629ZM81.642 12V0.719999H86.106C86.9167 0.719999 87.5993 0.853333 88.154 1.12C88.7193 1.376 89.146 1.76 89.434 2.272C89.722 2.77333 89.866 3.38667 89.866 4.112C89.866 4.816 89.722 5.424 89.434 5.936C89.146 6.448 88.7193 6.83733 88.154 7.104C87.5993 7.37067 86.9167 7.504 86.106 7.504H82.954V12H81.642ZM82.954 6.4H85.946C86.81 6.4 87.4607 6.208 87.898 5.824C88.346 5.42933 88.57 4.85867 88.57 4.112C88.57 3.35467 88.346 2.784 87.898 2.4C87.4607 2.00533 86.81 1.808 85.946 1.808H82.954V6.4ZM93.6484 12.144C93.115 12.144 92.635 12.0427 92.2084 11.84C91.7924 11.6267 91.4617 11.3387 91.2164 10.976C90.971 10.6133 90.8484 10.208 90.8484 9.76C90.8484 9.184 90.9924 8.73067 91.2804 8.4C91.579 8.06933 92.0644 7.83467 92.7364 7.696C93.419 7.55733 94.347 7.488 95.5204 7.488H96.2404V8.336H95.5364C94.8857 8.336 94.3417 8.35733 93.9044 8.4C93.467 8.44267 93.1204 8.51733 92.8644 8.624C92.6084 8.73067 92.427 8.86933 92.3204 9.04C92.2137 9.21067 92.1604 9.424 92.1604 9.68C92.1604 10.1173 92.3097 10.4747 92.6084 10.752C92.9177 11.0293 93.3337 11.168 93.8564 11.168C94.283 11.168 94.6564 11.0667 94.9764 10.864C95.307 10.6613 95.563 10.384 95.7444 10.032C95.9364 9.68 96.0324 9.27467 96.0324 8.816V6.992C96.0324 6.33067 95.899 5.856 95.6324 5.568C95.3657 5.26933 94.9284 5.12 94.3204 5.12C93.851 5.12 93.3977 5.18933 92.9604 5.328C92.523 5.456 92.075 5.66933 91.6164 5.968L91.1684 5.024C91.4457 4.832 91.7604 4.66667 92.1124 4.528C92.4644 4.37867 92.8324 4.26667 93.2164 4.192C93.6004 4.11733 93.9684 4.08 94.3204 4.08C94.9924 4.08 95.547 4.192 95.9844 4.416C96.4217 4.62933 96.747 4.96 96.9604 5.408C97.1737 5.84533 97.2804 6.41067 97.2804 7.104V12H96.0644V10.192H96.2084C96.123 10.5973 95.9577 10.944 95.7124 11.232C95.4777 11.52 95.1844 11.744 94.8324 11.904C94.4804 12.064 94.0857 12.144 93.6484 12.144ZM102.981 12.144C102.202 12.144 101.53 11.9733 100.965 11.632C100.399 11.2907 99.9621 10.816 99.6528 10.208C99.3541 9.58933 99.2048 8.87467 99.2048 8.064C99.2048 7.24267 99.3541 6.53333 99.6528 5.936C99.9621 5.33867 100.399 4.88 100.965 4.56C101.53 4.24 102.202 4.08 102.981 4.08C103.461 4.08 103.935 4.16533 104.405 4.336C104.874 4.50667 105.263 4.74667 105.573 5.056L105.125 6C104.815 5.70133 104.474 5.48267 104.101 5.344C103.738 5.20533 103.391 5.136 103.061 5.136C102.25 5.136 101.626 5.392 101.189 5.904C100.751 6.40533 100.533 7.13067 100.533 8.08C100.533 9.008 100.751 9.744 101.189 10.288C101.626 10.8213 102.25 11.088 103.061 11.088C103.391 11.088 103.738 11.0187 104.101 10.88C104.474 10.7413 104.815 10.5173 105.125 10.208L105.573 11.152C105.263 11.4613 104.869 11.7067 104.389 11.888C103.919 12.0587 103.45 12.144 102.981 12.144ZM107.091 12V0.719999H108.387V7.68H108.419L112.019 4.224H113.667L109.395 8.32V7.616L114.003 12H112.355L108.419 8.352H108.387V12H107.091ZM117.461 12.144C116.928 12.144 116.448 12.0427 116.021 11.84C115.605 11.6267 115.274 11.3387 115.029 10.976C114.784 10.6133 114.661 10.208 114.661 9.76C114.661 9.184 114.805 8.73067 115.093 8.4C115.392 8.06933 115.877 7.83467 116.549 7.696C117.232 7.55733 118.16 7.488 119.333 7.488H120.053V8.336H119.349C118.698 8.336 118.154 8.35733 117.717 8.4C117.28 8.44267 116.933 8.51733 116.677 8.624C116.421 8.73067 116.24 8.86933 116.133 9.04C116.026 9.21067 115.973 9.424 115.973 9.68C115.973 10.1173 116.122 10.4747 116.421 10.752C116.73 11.0293 117.146 11.168 117.669 11.168C118.096 11.168 118.469 11.0667 118.789 10.864C119.12 10.6613 119.376 10.384 119.557 10.032C119.749 9.68 119.845 9.27467 119.845 8.816V6.992C119.845 6.33067 119.712 5.856 119.445 5.568C119.178 5.26933 118.741 5.12 118.133 5.12C117.664 5.12 117.21 5.18933 116.773 5.328C116.336 5.456 115.888 5.66933 115.429 5.968L114.981 5.024C115.258 4.832 115.573 4.66667 115.925 4.528C116.277 4.37867 116.645 4.26667 117.029 4.192C117.413 4.11733 117.781 4.08 118.133 4.08C118.805 4.08 119.36 4.192 119.797 4.416C120.234 4.62933 120.56 4.96 120.773 5.408C120.986 5.84533 121.093 6.41067 121.093 7.104V12H119.877V10.192H120.021C119.936 10.5973 119.77 10.944 119.525 11.232C119.29 11.52 118.997 11.744 118.645 11.904C118.293 12.064 117.898 12.144 117.461 12.144ZM126.937 15.024C126.265 15.024 125.631 14.9333 125.033 14.752C124.447 14.5813 123.924 14.32 123.465 13.968L123.897 13.024C124.217 13.248 124.532 13.4293 124.841 13.568C125.161 13.7173 125.487 13.824 125.817 13.888C126.159 13.952 126.511 13.984 126.873 13.984C127.631 13.984 128.201 13.7813 128.585 13.376C128.98 12.9707 129.177 12.384 129.177 11.616V9.808H129.337C129.177 10.4267 128.836 10.9173 128.313 11.28C127.801 11.6427 127.199 11.824 126.505 11.824C125.791 11.824 125.172 11.664 124.649 11.344C124.127 11.0133 123.721 10.5547 123.433 9.968C123.156 9.38133 123.017 8.704 123.017 7.936C123.017 7.168 123.156 6.496 123.433 5.92C123.721 5.33333 124.127 4.88 124.649 4.56C125.172 4.24 125.791 4.08 126.505 4.08C127.209 4.08 127.817 4.26133 128.329 4.624C128.841 4.976 129.172 5.456 129.321 6.064H129.177V4.224H130.441V11.44C130.441 12.2293 130.308 12.8907 130.041 13.424C129.785 13.9573 129.396 14.3573 128.873 14.624C128.351 14.8907 127.705 15.024 126.937 15.024ZM126.745 10.768C127.492 10.768 128.084 10.512 128.521 10C128.959 9.488 129.177 8.8 129.177 7.936C129.177 7.072 128.959 6.38933 128.521 5.888C128.084 5.376 127.492 5.12 126.745 5.12C126.009 5.12 125.423 5.376 124.985 5.888C124.548 6.38933 124.329 7.072 124.329 7.936C124.329 8.8 124.548 9.488 124.985 10C125.423 10.512 126.009 10.768 126.745 10.768ZM132.712 2.288V0.832H134.312V2.288H132.712ZM132.872 12V4.224H134.168V12H132.872ZM136.591 12V4.224H137.855V5.952H137.679C137.903 5.33333 138.266 4.86933 138.767 4.56C139.279 4.24 139.866 4.08 140.527 4.08C141.146 4.08 141.658 4.192 142.063 4.416C142.479 4.62933 142.788 4.96533 142.991 5.424C143.194 5.88267 143.295 6.45867 143.295 7.152V12H141.999V7.232C141.999 6.752 141.935 6.35733 141.807 6.048C141.69 5.73867 141.498 5.50933 141.231 5.36C140.975 5.21067 140.639 5.136 140.223 5.136C139.754 5.136 139.343 5.23733 138.991 5.44C138.639 5.64267 138.367 5.92533 138.175 6.288C137.983 6.65067 137.887 7.07733 137.887 7.568V12H136.591ZM149.125 15.024C148.453 15.024 147.818 14.9333 147.221 14.752C146.634 14.5813 146.111 14.32 145.653 13.968L146.085 13.024C146.405 13.248 146.719 13.4293 147.029 13.568C147.349 13.7173 147.674 13.824 148.005 13.888C148.346 13.952 148.698 13.984 149.061 13.984C149.818 13.984 150.389 13.7813 150.773 13.376C151.167 12.9707 151.365 12.384 151.365 11.616V9.808H151.525C151.365 10.4267 151.023 10.9173 150.501 11.28C149.989 11.6427 149.386 11.824 148.693 11.824C147.978 11.824 147.359 11.664 146.837 11.344C146.314 11.0133 145.909 10.5547 145.621 9.968C145.343 9.38133 145.205 8.704 145.205 7.936C145.205 7.168 145.343 6.496 145.621 5.92C145.909 5.33333 146.314 4.88 146.837 4.56C147.359 4.24 147.978 4.08 148.693 4.08C149.397 4.08 150.005 4.26133 150.517 4.624C151.029 4.976 151.359 5.456 151.509 6.064H151.365V4.224H152.629V11.44C152.629 12.2293 152.495 12.8907 152.229 13.424C151.973 13.9573 151.583 14.3573 151.061 14.624C150.538 14.8907 149.893 15.024 149.125 15.024ZM148.933 10.768C149.679 10.768 150.271 10.512 150.709 10C151.146 9.488 151.365 8.8 151.365 7.936C151.365 7.072 151.146 6.38933 150.709 5.888C150.271 5.376 149.679 5.12 148.933 5.12C148.197 5.12 147.61 5.376 147.173 5.888C146.735 6.38933 146.517 7.072 146.517 7.936C146.517 8.8 146.735 9.488 147.173 10C147.61 10.512 148.197 10.768 148.933 10.768ZM157.953 8.16V7.312H165.953V8.16H157.953ZM171.455 12V0.719999H172.767V12H171.455ZM178.492 12.144C177.575 12.144 176.887 11.8987 176.428 11.408C175.97 10.9173 175.74 10.2187 175.74 9.312V5.232H174.22V4.224H175.74V1.84H177.036V4.224H179.5V5.232H177.036V9.184C177.036 9.792 177.164 10.256 177.42 10.576C177.676 10.8853 178.092 11.04 178.668 11.04C178.839 11.04 179.01 11.0187 179.18 10.976C179.351 10.9333 179.506 10.8907 179.644 10.848L179.868 11.84C179.73 11.9147 179.527 11.984 179.26 12.048C178.994 12.112 178.738 12.144 178.492 12.144ZM181.352 4.192L180.76 3.712C180.952 3.52 181.096 3.33333 181.192 3.152C181.299 2.97067 181.368 2.79467 181.4 2.624C181.443 2.45333 181.464 2.27733 181.464 2.096L181.864 2.352H180.696V0.719999H182.328V1.872C182.328 2.16 182.296 2.43733 182.232 2.704C182.179 2.96 182.083 3.21067 181.944 3.456C181.805 3.70133 181.608 3.94667 181.352 4.192ZM186.684 12.144C186.278 12.144 185.884 12.1013 185.5 12.016C185.126 11.9413 184.774 11.8347 184.444 11.696C184.124 11.5467 183.846 11.3707 183.612 11.168L184.028 10.256C184.284 10.4587 184.561 10.6293 184.86 10.768C185.158 10.896 185.462 10.992 185.772 11.056C186.081 11.12 186.396 11.152 186.716 11.152C187.324 11.152 187.782 11.04 188.092 10.816C188.401 10.592 188.556 10.288 188.556 9.904C188.556 9.60533 188.454 9.37067 188.252 9.2C188.049 9.01867 187.729 8.88 187.292 8.784L185.836 8.464C185.164 8.32533 184.662 8.08533 184.332 7.744C184.012 7.40267 183.852 6.96 183.852 6.416C183.852 5.936 183.974 5.52533 184.22 5.184C184.476 4.832 184.833 4.56 185.292 4.368C185.75 4.176 186.284 4.08 186.892 4.08C187.254 4.08 187.601 4.11733 187.932 4.192C188.262 4.26667 188.572 4.37867 188.86 4.528C189.158 4.66667 189.414 4.84267 189.628 5.056L189.196 5.968C188.993 5.776 188.764 5.616 188.508 5.488C188.252 5.34933 187.985 5.248 187.708 5.184C187.441 5.10933 187.169 5.072 186.892 5.072C186.294 5.072 185.841 5.18933 185.532 5.424C185.222 5.65867 185.068 5.968 185.068 6.352C185.068 6.65067 185.164 6.896 185.356 7.088C185.548 7.28 185.846 7.41867 186.252 7.504L187.708 7.808C188.401 7.95733 188.918 8.19733 189.26 8.528C189.612 8.848 189.788 9.28533 189.788 9.84C189.788 10.3093 189.66 10.72 189.404 11.072C189.148 11.4133 188.785 11.68 188.316 11.872C187.857 12.0533 187.313 12.144 186.684 12.144ZM198.768 12V6.16L199.056 7.072L194.448 0.719999H195.984L199.616 5.744H199.28L202.912 0.719999H204.4L199.808 7.072L200.08 6.16V12H198.768ZM207.37 12.144C206.613 12.144 205.957 11.9787 205.402 11.648C204.847 11.3173 204.415 10.8533 204.106 10.256C203.807 9.648 203.658 8.93333 203.658 8.112C203.658 7.29067 203.807 6.58133 204.106 5.984C204.415 5.376 204.847 4.90667 205.402 4.576C205.957 4.24533 206.613 4.08 207.37 4.08C208.127 4.08 208.783 4.24533 209.338 4.576C209.893 4.90667 210.319 5.376 210.618 5.984C210.927 6.58133 211.082 7.29067 211.082 8.112C211.082 8.93333 210.927 9.648 210.618 10.256C210.319 10.8533 209.893 11.3173 209.338 11.648C208.783 11.9787 208.127 12.144 207.37 12.144ZM207.37 11.104C208.106 11.104 208.687 10.848 209.114 10.336C209.551 9.81333 209.77 9.06667 209.77 8.096C209.77 7.136 209.551 6.4 209.114 5.888C208.687 5.376 208.106 5.12 207.37 5.12C206.645 5.12 206.063 5.376 205.626 5.888C205.189 6.4 204.97 7.136 204.97 8.096C204.97 9.06667 205.189 9.81333 205.626 10.336C206.063 10.848 206.645 11.104 207.37 11.104ZM215.781 12.144C215.151 12.144 214.629 12.032 214.213 11.808C213.807 11.5733 213.498 11.2267 213.285 10.768C213.082 10.3093 212.981 9.73867 212.981 9.056V4.224H214.277V9.04C214.277 9.49867 214.335 9.88267 214.453 10.192C214.581 10.4907 214.778 10.7147 215.045 10.864C215.311 11.0027 215.642 11.072 216.036 11.072C216.485 11.072 216.874 10.9707 217.205 10.768C217.535 10.5653 217.797 10.2827 217.989 9.92C218.181 9.55733 218.277 9.13067 218.277 8.64V4.224H219.573V12H218.309V10.208H218.517C218.303 10.8373 217.951 11.3173 217.461 11.648C216.981 11.9787 216.421 12.144 215.781 12.144ZM221.997 12V4.224H223.261V6.064H223.101C223.283 5.43467 223.597 4.96 224.045 4.64C224.493 4.30933 225.085 4.11733 225.821 4.064L226.285 4.016L226.381 5.136L225.565 5.232C224.84 5.296 224.28 5.53067 223.885 5.936C223.501 6.33067 223.309 6.87467 223.309 7.568V12H221.997ZM232.017 12V0.719999H236.529C237.681 0.719999 238.577 0.976 239.217 1.488C239.857 2 240.177 2.72533 240.177 3.664C240.177 4.368 239.969 4.95467 239.553 5.424C239.148 5.89333 238.593 6.20267 237.889 6.352V6.128C238.422 6.192 238.881 6.34667 239.265 6.592C239.649 6.82667 239.942 7.14133 240.145 7.536C240.348 7.92 240.449 8.37333 240.449 8.896C240.449 9.568 240.3 10.1387 240.001 10.608C239.713 11.0667 239.292 11.4133 238.737 11.648C238.182 11.8827 237.51 12 236.721 12H232.017ZM233.297 10.944H236.593C236.934 10.944 237.238 10.9173 237.505 10.864C237.782 10.8107 238.022 10.7307 238.225 10.624C238.428 10.5067 238.598 10.368 238.737 10.208C238.876 10.048 238.977 9.856 239.041 9.632C239.116 9.408 239.153 9.15733 239.153 8.88C239.153 8.592 239.116 8.34133 239.041 8.128C238.977 7.904 238.876 7.712 238.737 7.552C238.598 7.38133 238.428 7.24267 238.225 7.136C238.022 7.02933 237.782 6.94933 237.505 6.896C237.238 6.84267 236.934 6.816 236.593 6.816H233.297V10.944ZM233.297 5.76H236.337C237.169 5.76 237.798 5.58933 238.225 5.248C238.662 4.90667 238.881 4.416 238.881 3.776C238.881 3.11467 238.662 2.61867 238.225 2.288C237.798 1.94667 237.169 1.776 236.337 1.776H233.297V5.76ZM242.654 12V4.224H243.918V6.064H243.758C243.939 5.43467 244.254 4.96 244.702 4.64C245.15 4.30933 245.742 4.11733 246.478 4.064L246.942 4.016L247.038 5.136L246.222 5.232C245.496 5.296 244.936 5.53067 244.542 5.936C244.158 6.33067 243.966 6.87467 243.966 7.568V12H242.654ZM250.758 12.144C250.224 12.144 249.744 12.0427 249.318 11.84C248.902 11.6267 248.571 11.3387 248.326 10.976C248.08 10.6133 247.958 10.208 247.958 9.76C247.958 9.184 248.102 8.73067 248.39 8.4C248.688 8.06933 249.174 7.83467 249.846 7.696C250.528 7.55733 251.456 7.488 252.63 7.488H253.35V8.336H252.646C251.995 8.336 251.451 8.35733 251.014 8.4C250.576 8.44267 250.23 8.51733 249.974 8.624C249.718 8.73067 249.536 8.86933 249.43 9.04C249.323 9.21067 249.27 9.424 249.27 9.68C249.27 10.1173 249.419 10.4747 249.718 10.752C250.027 11.0293 250.443 11.168 250.966 11.168C251.392 11.168 251.766 11.0667 252.086 10.864C252.416 10.6613 252.672 10.384 252.854 10.032C253.046 9.68 253.142 9.27467 253.142 8.816V6.992C253.142 6.33067 253.008 5.856 252.742 5.568C252.475 5.26933 252.038 5.12 251.43 5.12C250.96 5.12 250.507 5.18933 250.07 5.328C249.632 5.456 249.184 5.66933 248.726 5.968L248.278 5.024C248.555 4.832 248.87 4.66667 249.222 4.528C249.574 4.37867 249.942 4.26667 250.326 4.192C250.71 4.11733 251.078 4.08 251.43 4.08C252.102 4.08 252.656 4.192 253.094 4.416C253.531 4.62933 253.856 4.96 254.07 5.408C254.283 5.84533 254.39 6.41067 254.39 7.104V12H253.174V10.192H253.318C253.232 10.5973 253.067 10.944 252.822 11.232C252.587 11.52 252.294 11.744 251.942 11.904C251.59 12.064 251.195 12.144 250.758 12.144ZM256.794 12V4.224H258.058V5.952H257.882C258.106 5.33333 258.469 4.86933 258.97 4.56C259.482 4.24 260.069 4.08 260.73 4.08C261.349 4.08 261.861 4.192 262.266 4.416C262.682 4.62933 262.991 4.96533 263.194 5.424C263.397 5.88267 263.498 6.45867 263.498 7.152V12H262.202V7.232C262.202 6.752 262.138 6.35733 262.01 6.048C261.893 5.73867 261.701 5.50933 261.434 5.36C261.178 5.21067 260.842 5.136 260.426 5.136C259.957 5.136 259.546 5.23733 259.194 5.44C258.842 5.64267 258.57 5.92533 258.378 6.288C258.186 6.65067 258.09 7.07733 258.09 7.568V12H256.794ZM268.848 12.144C268.155 12.144 267.547 11.9787 267.024 11.648C266.512 11.3173 266.112 10.8533 265.824 10.256C265.547 9.648 265.408 8.93333 265.408 8.112C265.408 7.28 265.547 6.56533 265.824 5.968C266.112 5.36 266.512 4.896 267.024 4.576C267.547 4.24533 268.155 4.08 268.848 4.08C269.552 4.08 270.155 4.256 270.656 4.608C271.157 4.96 271.493 5.43467 271.664 6.032H271.488V0.719999H272.784V12H271.52V10.144H271.68C271.509 10.752 271.168 11.2373 270.656 11.6C270.155 11.9627 269.552 12.144 268.848 12.144ZM269.12 11.104C269.856 11.104 270.437 10.848 270.864 10.336C271.301 9.81333 271.52 9.072 271.52 8.112C271.52 7.14133 271.301 6.4 270.864 5.888C270.437 5.376 269.856 5.12 269.12 5.12C268.395 5.12 267.813 5.376 267.376 5.888C266.939 6.4 266.72 7.14133 266.72 8.112C266.72 9.072 266.939 9.81333 267.376 10.336C267.813 10.848 268.395 11.104 269.12 11.104ZM275.68 4.192L275.088 3.712C275.28 3.52 275.424 3.33333 275.52 3.152C275.627 2.97067 275.696 2.79467 275.728 2.624C275.771 2.45333 275.792 2.27733 275.792 2.096L276.192 2.352H275.024V0.719999H276.656V1.872C276.656 2.16 276.624 2.43733 276.56 2.704C276.507 2.96 276.411 3.21067 276.272 3.456C276.133 3.70133 275.936 3.94667 275.68 4.192ZM281.012 12.144C280.607 12.144 280.212 12.1013 279.828 12.016C279.455 11.9413 279.103 11.8347 278.772 11.696C278.452 11.5467 278.175 11.3707 277.94 11.168L278.356 10.256C278.612 10.4587 278.889 10.6293 279.188 10.768C279.487 10.896 279.791 10.992 280.1 11.056C280.409 11.12 280.724 11.152 281.044 11.152C281.652 11.152 282.111 11.04 282.42 10.816C282.729 10.592 282.884 10.288 282.884 9.904C282.884 9.60533 282.783 9.37067 282.58 9.2C282.377 9.01867 282.057 8.88 281.62 8.784L280.164 8.464C279.492 8.32533 278.991 8.08533 278.66 7.744C278.34 7.40267 278.18 6.96 278.18 6.416C278.18 5.936 278.303 5.52533 278.548 5.184C278.804 4.832 279.161 4.56 279.62 4.368C280.079 4.176 280.612 4.08 281.22 4.08C281.583 4.08 281.929 4.11733 282.26 4.192C282.591 4.26667 282.9 4.37867 283.188 4.528C283.487 4.66667 283.743 4.84267 283.956 5.056L283.524 5.968C283.321 5.776 283.092 5.616 282.836 5.488C282.58 5.34933 282.313 5.248 282.036 5.184C281.769 5.10933 281.497 5.072 281.22 5.072C280.623 5.072 280.169 5.18933 279.86 5.424C279.551 5.65867 279.396 5.968 279.396 6.352C279.396 6.65067 279.492 6.896 279.684 7.088C279.876 7.28 280.175 7.41867 280.58 7.504L282.036 7.808C282.729 7.95733 283.247 8.19733 283.588 8.528C283.94 8.848 284.116 9.28533 284.116 9.84C284.116 10.3093 283.988 10.72 283.732 11.072C283.476 11.4133 283.113 11.68 282.644 11.872C282.185 12.0533 281.641 12.144 281.012 12.144ZM290.376 12V0.719999H297.352V1.824H291.688V5.76H297.032V6.864H291.688V12H290.376ZM298.806 2.288V0.832H300.406V2.288H298.806ZM298.966 12V4.224H300.262V12H298.966ZM302.685 12V4.224H303.949V6.064H303.789C303.97 5.43467 304.285 4.96 304.733 4.64C305.181 4.30933 305.773 4.11733 306.509 4.064L306.973 4.016L307.069 5.136L306.253 5.232C305.527 5.296 304.967 5.53067 304.573 5.936C304.189 6.33067 303.997 6.87467 303.997 7.568V12H302.685ZM310.965 12.144C310.56 12.144 310.165 12.1013 309.781 12.016C309.408 11.9413 309.056 11.8347 308.725 11.696C308.405 11.5467 308.128 11.3707 307.893 11.168L308.309 10.256C308.565 10.4587 308.842 10.6293 309.141 10.768C309.44 10.896 309.744 10.992 310.053 11.056C310.362 11.12 310.677 11.152 310.997 11.152C311.605 11.152 312.064 11.04 312.373 10.816C312.682 10.592 312.837 10.288 312.837 9.904C312.837 9.60533 312.736 9.37067 312.533 9.2C312.33 9.01867 312.01 8.88 311.573 8.784L310.117 8.464C309.445 8.32533 308.944 8.08533 308.613 7.744C308.293 7.40267 308.133 6.96 308.133 6.416C308.133 5.936 308.256 5.52533 308.501 5.184C308.757 4.832 309.114 4.56 309.573 4.368C310.032 4.176 310.565 4.08 311.173 4.08C311.536 4.08 311.882 4.11733 312.213 4.192C312.544 4.26667 312.853 4.37867 313.141 4.528C313.44 4.66667 313.696 4.84267 313.909 5.056L313.477 5.968C313.274 5.776 313.045 5.616 312.789 5.488C312.533 5.34933 312.266 5.248 311.989 5.184C311.722 5.10933 311.45 5.072 311.173 5.072C310.576 5.072 310.122 5.18933 309.813 5.424C309.504 5.65867 309.349 5.968 309.349 6.352C309.349 6.65067 309.445 6.896 309.637 7.088C309.829 7.28 310.128 7.41867 310.533 7.504L311.989 7.808C312.682 7.95733 313.2 8.19733 313.541 8.528C313.893 8.848 314.069 9.28533 314.069 9.84C314.069 10.3093 313.941 10.72 313.685 11.072C313.429 11.4133 313.066 11.68 312.597 11.872C312.138 12.0533 311.594 12.144 310.965 12.144ZM319.086 12.144C318.169 12.144 317.481 11.8987 317.022 11.408C316.563 10.9173 316.334 10.2187 316.334 9.312V5.232H314.814V4.224H316.334V1.84H317.63V4.224H320.094V5.232H317.63V9.184C317.63 9.792 317.758 10.256 318.014 10.576C318.27 10.8853 318.686 11.04 319.262 11.04C319.433 11.04 319.603 11.0187 319.774 10.976C319.945 10.9333 320.099 10.8907 320.238 10.848L320.462 11.84C320.323 11.9147 320.121 11.984 319.854 12.048C319.587 12.112 319.331 12.144 319.086 12.144ZM325.845 12V0.719999H327.157V12H325.845ZM329.795 12V4.224H331.059V5.952H330.883C331.011 5.55733 331.198 5.22133 331.443 4.944C331.699 4.656 331.998 4.44267 332.339 4.304C332.691 4.15467 333.075 4.08 333.491 4.08C334.152 4.08 334.686 4.24 335.091 4.56C335.507 4.86933 335.784 5.35467 335.923 6.016H335.683C335.875 5.41867 336.216 4.94933 336.707 4.608C337.208 4.256 337.79 4.08 338.451 4.08C339.038 4.08 339.518 4.192 339.891 4.416C340.275 4.64 340.563 4.98133 340.755 5.44C340.947 5.888 341.043 6.45867 341.043 7.152V12H339.747V7.216C339.747 6.50133 339.624 5.97867 339.379 5.648C339.134 5.30667 338.718 5.136 338.131 5.136C337.715 5.136 337.347 5.23733 337.027 5.44C336.718 5.64267 336.478 5.93067 336.307 6.304C336.147 6.66667 336.067 7.09867 336.067 7.6V12H334.771V7.216C334.771 6.50133 334.643 5.97867 334.387 5.648C334.142 5.30667 333.731 5.136 333.155 5.136C332.728 5.136 332.36 5.23733 332.051 5.44C331.742 5.64267 331.502 5.93067 331.331 6.304C331.171 6.66667 331.091 7.09867 331.091 7.6V12H329.795ZM343.466 14.88V4.224H344.73V6.064H344.57C344.741 5.456 345.077 4.976 345.578 4.624C346.09 4.26133 346.698 4.08 347.402 4.08C348.095 4.08 348.698 4.24533 349.21 4.576C349.733 4.896 350.133 5.36 350.41 5.968C350.698 6.56533 350.842 7.28 350.842 8.112C350.842 8.93333 350.698 9.648 350.41 10.256C350.133 10.8533 349.738 11.3173 349.226 11.648C348.714 11.9787 348.106 12.144 347.402 12.144C346.698 12.144 346.095 11.968 345.594 11.616C345.093 11.2533 344.751 10.7733 344.57 10.176H344.762V14.88H343.466ZM347.13 11.104C347.866 11.104 348.447 10.848 348.874 10.336C349.311 9.81333 349.53 9.072 349.53 8.112C349.53 7.14133 349.311 6.4 348.874 5.888C348.447 5.376 347.866 5.12 347.13 5.12C346.405 5.12 345.823 5.376 345.386 5.888C344.949 6.4 344.73 7.14133 344.73 8.112C344.73 9.072 344.949 9.81333 345.386 10.336C345.823 10.848 346.405 11.104 347.13 11.104ZM352.794 12V4.224H354.058V6.064H353.898C354.079 5.43467 354.394 4.96 354.842 4.64C355.29 4.30933 355.882 4.11733 356.618 4.064L357.082 4.016L357.178 5.136L356.362 5.232C355.637 5.296 355.077 5.53067 354.682 5.936C354.298 6.33067 354.106 6.87467 354.106 7.568V12H352.794ZM361.939 12.144C361.117 12.144 360.408 11.984 359.811 11.664C359.224 11.3333 358.765 10.8693 358.435 10.272C358.115 9.67467 357.955 8.96 357.955 8.128C357.955 7.31733 358.115 6.61333 358.435 6.016C358.755 5.408 359.192 4.93333 359.747 4.592C360.312 4.25067 360.963 4.08 361.699 4.08C362.403 4.08 363.005 4.23467 363.507 4.544C364.008 4.85333 364.392 5.29067 364.659 5.856C364.936 6.42133 365.075 7.09867 365.075 7.888V8.384H358.947V7.536H364.211L363.955 7.744C363.955 6.89067 363.763 6.22933 363.379 5.76C363.005 5.28 362.456 5.04 361.731 5.04C361.187 5.04 360.723 5.168 360.339 5.424C359.965 5.66933 359.683 6.016 359.491 6.464C359.299 6.90133 359.203 7.41333 359.203 8V8.096C359.203 8.74667 359.304 9.296 359.507 9.744C359.72 10.192 360.035 10.5333 360.451 10.768C360.867 10.992 361.363 11.104 361.939 11.104C362.397 11.104 362.84 11.0347 363.267 10.896C363.704 10.7467 364.115 10.5067 364.499 10.176L364.947 11.088C364.595 11.408 364.147 11.664 363.603 11.856C363.059 12.048 362.504 12.144 361.939 12.144ZM369.574 12.144C369.169 12.144 368.774 12.1013 368.39 12.016C368.017 11.9413 367.665 11.8347 367.334 11.696C367.014 11.5467 366.737 11.3707 366.502 11.168L366.918 10.256C367.174 10.4587 367.452 10.6293 367.75 10.768C368.049 10.896 368.353 10.992 368.662 11.056C368.972 11.12 369.286 11.152 369.606 11.152C370.214 11.152 370.673 11.04 370.982 10.816C371.292 10.592 371.446 10.288 371.446 9.904C371.446 9.60533 371.345 9.37067 371.142 9.2C370.94 9.01867 370.62 8.88 370.182 8.784L368.726 8.464C368.054 8.32533 367.553 8.08533 367.222 7.744C366.902 7.40267 366.742 6.96 366.742 6.416C366.742 5.936 366.865 5.52533 367.11 5.184C367.366 4.832 367.724 4.56 368.182 4.368C368.641 4.176 369.174 4.08 369.782 4.08C370.145 4.08 370.492 4.11733 370.822 4.192C371.153 4.26667 371.462 4.37867 371.75 4.528C372.049 4.66667 372.305 4.84267 372.518 5.056L372.086 5.968C371.884 5.776 371.654 5.616 371.398 5.488C371.142 5.34933 370.876 5.248 370.598 5.184C370.332 5.10933 370.06 5.072 369.782 5.072C369.185 5.072 368.732 5.18933 368.422 5.424C368.113 5.65867 367.958 5.968 367.958 6.352C367.958 6.65067 368.054 6.896 368.246 7.088C368.438 7.28 368.737 7.41867 369.142 7.504L370.598 7.808C371.292 7.95733 371.809 8.19733 372.15 8.528C372.502 8.848 372.678 9.28533 372.678 9.84C372.678 10.3093 372.55 10.72 372.294 11.072C372.038 11.4133 371.676 11.68 371.206 11.872C370.748 12.0533 370.204 12.144 369.574 12.144ZM377.278 12.144C376.872 12.144 376.478 12.1013 376.094 12.016C375.72 11.9413 375.368 11.8347 375.038 11.696C374.718 11.5467 374.44 11.3707 374.206 11.168L374.622 10.256C374.878 10.4587 375.155 10.6293 375.454 10.768C375.752 10.896 376.056 10.992 376.366 11.056C376.675 11.12 376.99 11.152 377.31 11.152C377.918 11.152 378.376 11.04 378.686 10.816C378.995 10.592 379.15 10.288 379.15 9.904C379.15 9.60533 379.048 9.37067 378.846 9.2C378.643 9.01867 378.323 8.88 377.886 8.784L376.43 8.464C375.758 8.32533 375.256 8.08533 374.926 7.744C374.606 7.40267 374.446 6.96 374.446 6.416C374.446 5.936 374.568 5.52533 374.814 5.184C375.07 4.832 375.427 4.56 375.886 4.368C376.344 4.176 376.878 4.08 377.486 4.08C377.848 4.08 378.195 4.11733 378.526 4.192C378.856 4.26667 379.166 4.37867 379.454 4.528C379.752 4.66667 380.008 4.84267 380.222 5.056L379.79 5.968C379.587 5.776 379.358 5.616 379.102 5.488C378.846 5.34933 378.579 5.248 378.302 5.184C378.035 5.10933 377.763 5.072 377.486 5.072C376.888 5.072 376.435 5.18933 376.126 5.424C375.816 5.65867 375.662 5.968 375.662 6.352C375.662 6.65067 375.758 6.896 375.95 7.088C376.142 7.28 376.44 7.41867 376.846 7.504L378.302 7.808C378.995 7.95733 379.512 8.19733 379.854 8.528C380.206 8.848 380.382 9.28533 380.382 9.84C380.382 10.3093 380.254 10.72 379.998 11.072C379.742 11.4133 379.379 11.68 378.91 11.872C378.451 12.0533 377.907 12.144 377.278 12.144ZM382.197 2.288V0.832H383.797V2.288H382.197ZM382.357 12V4.224H383.653V12H382.357ZM389.307 12.144C388.55 12.144 387.894 11.9787 387.339 11.648C386.785 11.3173 386.353 10.8533 386.043 10.256C385.745 9.648 385.595 8.93333 385.595 8.112C385.595 7.29067 385.745 6.58133 386.043 5.984C386.353 5.376 386.785 4.90667 387.339 4.576C387.894 4.24533 388.55 4.08 389.307 4.08C390.065 4.08 390.721 4.24533 391.275 4.576C391.83 4.90667 392.257 5.376 392.555 5.984C392.865 6.58133 393.019 7.29067 393.019 8.112C393.019 8.93333 392.865 9.648 392.555 10.256C392.257 10.8533 391.83 11.3173 391.275 11.648C390.721 11.9787 390.065 12.144 389.307 12.144ZM389.307 11.104C390.043 11.104 390.625 10.848 391.051 10.336C391.489 9.81333 391.707 9.06667 391.707 8.096C391.707 7.136 391.489 6.4 391.051 5.888C390.625 5.376 390.043 5.12 389.307 5.12C388.582 5.12 388.001 5.376 387.563 5.888C387.126 6.4 386.907 7.136 386.907 8.096C386.907 9.06667 387.126 9.81333 387.563 10.336C388.001 10.848 388.582 11.104 389.307 11.104ZM394.966 12V4.224H396.23V5.952H396.054C396.278 5.33333 396.641 4.86933 397.142 4.56C397.654 4.24 398.241 4.08 398.902 4.08C399.521 4.08 400.033 4.192 400.438 4.416C400.854 4.62933 401.163 4.96533 401.366 5.424C401.569 5.88267 401.67 6.45867 401.67 7.152V12H400.374V7.232C400.374 6.752 400.31 6.35733 400.182 6.048C400.065 5.73867 399.873 5.50933 399.606 5.36C399.35 5.21067 399.014 5.136 398.598 5.136C398.129 5.136 397.718 5.23733 397.366 5.44C397.014 5.64267 396.742 5.92533 396.55 6.288C396.358 6.65067 396.262 7.07733 396.262 7.568V12H394.966ZM408.377 9.056L407.977 0.719999H409.577L409.177 9.056H408.377ZM407.961 12V10.368H409.593V12H407.961Z" fill="white"/>
</svg>
