<svg width="262" height="132" viewBox="0 0 262 132" fill="none" xmlns="http://www.w3.org/2000/svg">
<path d="M2.24 23V0.599998H12.48C14.528 0.599998 16.288 0.930665 17.76 1.592C19.2533 2.25333 20.4053 3.21333 21.216 4.472C22.0267 5.70933 22.432 7.18133 22.432 8.888C22.432 10.5733 22.0267 12.0347 21.216 13.272C20.4053 14.5093 19.2533 15.4693 17.76 16.152C16.288 16.8133 14.528 17.144 12.48 17.144H5.76L8.576 14.392V23H2.24ZM8.576 15.064L5.76 12.152H12.096C13.4187 12.152 14.4 11.864 15.04 11.288C15.7013 10.712 16.032 9.912 16.032 8.888C16.032 7.84267 15.7013 7.032 15.04 6.456C14.4 5.88 13.4187 5.592 12.096 5.592H5.76L8.576 2.68V15.064ZM21.7082 23L31.5963 0.599998H37.8363L47.7563 23H41.1643L33.4203 3.704H35.9163L28.1723 23H21.7082ZM27.1163 18.648L28.7483 13.976H39.6923L41.3243 18.648H27.1163ZM60.408 23.448C58.6373 23.448 56.9947 23.1707 55.48 22.616C53.9867 22.04 52.6853 21.2293 51.576 20.184C50.488 19.1387 49.6347 17.912 49.016 16.504C48.3973 15.0747 48.088 13.5067 48.088 11.8C48.088 10.0933 48.3973 8.536 49.016 7.128C49.6347 5.69867 50.488 4.46133 51.576 3.416C52.6853 2.37067 53.9867 1.57067 55.48 1.016C56.9947 0.439999 58.6373 0.151999 60.408 0.151999C62.4773 0.151999 64.3227 0.514666 65.944 1.24C67.5867 1.96533 68.952 3.01067 70.04 4.376L66.008 8.024C65.2827 7.17067 64.4827 6.52 63.608 6.072C62.7547 5.624 61.7947 5.4 60.728 5.4C59.8107 5.4 58.968 5.54933 58.2 5.848C57.432 6.14667 56.7707 6.584 56.216 7.16C55.6827 7.71467 55.256 8.38667 54.936 9.176C54.6373 9.96533 54.488 10.84 54.488 11.8C54.488 12.76 54.6373 13.6347 54.936 14.424C55.256 15.2133 55.6827 15.896 56.216 16.472C56.7707 17.0267 57.432 17.4533 58.2 17.752C58.968 18.0507 59.8107 18.2 60.728 18.2C61.7947 18.2 62.7547 17.976 63.608 17.528C64.4827 17.08 65.2827 16.4293 66.008 15.576L70.04 19.224C68.952 20.568 67.5867 21.6133 65.944 22.36C64.3227 23.0853 62.4773 23.448 60.408 23.448ZM78.529 18.04L78.177 10.936L87.809 0.599998H94.785L85.185 11L81.665 14.68L78.529 18.04ZM72.865 23V0.599998H79.137V23H72.865ZM87.905 23L80.609 13.752L84.737 9.336L95.265 23H87.905ZM93.177 23L103.065 0.599998H109.305L119.225 23H112.633L104.889 3.704H107.385L99.641 23H93.177ZM98.585 18.648L100.217 13.976H111.161L112.793 18.648H98.585ZM131.909 23.448C130.138 23.448 128.495 23.1707 126.981 22.616C125.466 22.04 124.154 21.2293 123.045 20.184C121.957 19.1387 121.103 17.912 120.485 16.504C119.866 15.0747 119.557 13.5067 119.557 11.8C119.557 10.0933 119.866 8.536 120.485 7.128C121.103 5.69867 121.967 4.46133 123.077 3.416C124.186 2.37067 125.498 1.57067 127.013 1.016C128.549 0.439999 130.223 0.151999 132.037 0.151999C134.149 0.151999 136.037 0.503998 137.701 1.208C139.365 1.912 140.741 2.92533 141.829 4.248L137.797 7.896C137.029 7.064 136.197 6.44533 135.301 6.04C134.426 5.61333 133.445 5.4 132.357 5.4C131.397 5.4 130.522 5.54933 129.733 5.848C128.943 6.14667 128.271 6.584 127.717 7.16C127.162 7.71467 126.725 8.38667 126.405 9.176C126.106 9.944 125.957 10.8187 125.957 11.8C125.957 12.7387 126.106 13.6027 126.405 14.392C126.725 15.1813 127.162 15.864 127.717 16.44C128.271 16.9947 128.933 17.432 129.701 17.752C130.49 18.0507 131.354 18.2 132.293 18.2C133.231 18.2 134.149 18.0507 135.045 17.752C135.941 17.432 136.847 16.8987 137.765 16.152L141.317 20.6C140.037 21.5173 138.554 22.2213 136.869 22.712C135.183 23.2027 133.53 23.448 131.909 23.448ZM135.717 19.768V11.32H141.317V20.6L135.717 19.768ZM145.334 23V0.599998H151.67V23H145.334ZM156.178 23V0.599998H161.394L173.746 15.512H171.282V0.599998H177.49V23H172.274L159.922 8.088H162.385V23H156.178ZM193.159 23.448C191.388 23.448 189.745 23.1707 188.231 22.616C186.716 22.04 185.404 21.2293 184.295 20.184C183.207 19.1387 182.353 17.912 181.735 16.504C181.116 15.0747 180.807 13.5067 180.807 11.8C180.807 10.0933 181.116 8.536 181.735 7.128C182.353 5.69867 183.217 4.46133 184.327 3.416C185.436 2.37067 186.748 1.57067 188.263 1.016C189.799 0.439999 191.473 0.151999 193.287 0.151999C195.399 0.151999 197.287 0.503998 198.951 1.208C200.615 1.912 201.991 2.92533 203.079 4.248L199.047 7.896C198.279 7.064 197.447 6.44533 196.551 6.04C195.676 5.61333 194.695 5.4 193.607 5.4C192.647 5.4 191.772 5.54933 190.983 5.848C190.193 6.14667 189.521 6.584 188.967 7.16C188.412 7.71467 187.975 8.38667 187.655 9.176C187.356 9.944 187.207 10.8187 187.207 11.8C187.207 12.7387 187.356 13.6027 187.655 14.392C187.975 15.1813 188.412 15.864 188.967 16.44C189.521 16.9947 190.183 17.432 190.951 17.752C191.74 18.0507 192.604 18.2 193.543 18.2C194.481 18.2 195.399 18.0507 196.295 17.752C197.191 17.432 198.097 16.8987 199.015 16.152L202.567 20.6C201.287 21.5173 199.804 22.2213 198.119 22.712C196.433 23.2027 194.78 23.448 193.159 23.448ZM196.967 19.768V11.32H202.567V20.6L196.967 19.768Z" fill="url(#paint0_linear_172_115)"/>
<path d="M7.884 59V39.452H0.144V33.8H22.716V39.452H15.012V59H7.884ZM42.2196 33.8H49.3476V59H42.2196V33.8ZM32.4996 59H25.3716V33.8H32.4996V59ZM42.7236 49.172H31.9956V43.268H42.7236V49.172ZM51.3515 59L62.4755 33.8H69.4955L80.6555 59H73.2395L64.5275 37.292H67.3355L58.6235 59H51.3515ZM57.4355 54.104L59.2715 48.848H71.5835L73.4195 54.104H57.4355ZM86.7746 59V39.452H79.0346V33.8H101.607V39.452H93.9026V59H86.7746ZM122.181 59.504C120.117 59.504 118.125 59.252 116.205 58.748C114.309 58.22 112.761 57.548 111.561 56.732L113.901 51.476C115.029 52.196 116.325 52.796 117.789 53.276C119.277 53.732 120.753 53.96 122.217 53.96C123.201 53.96 123.993 53.876 124.593 53.708C125.193 53.516 125.625 53.276 125.889 52.988C126.177 52.676 126.321 52.316 126.321 51.908C126.321 51.332 126.057 50.876 125.529 50.54C125.001 50.204 124.317 49.928 123.477 49.712C122.637 49.496 121.701 49.28 120.669 49.064C119.661 48.848 118.641 48.572 117.609 48.236C116.601 47.9 115.677 47.468 114.837 46.94C113.997 46.388 113.313 45.68 112.785 44.816C112.257 43.928 111.993 42.812 111.993 41.468C111.993 39.956 112.401 38.588 113.217 37.364C114.057 36.14 115.305 35.156 116.961 34.412C118.617 33.668 120.681 33.296 123.153 33.296C124.809 33.296 126.429 33.488 128.013 33.872C129.621 34.232 131.049 34.772 132.297 35.492L130.101 40.784C128.901 40.136 127.713 39.656 126.537 39.344C125.361 39.008 124.221 38.84 123.117 38.84C122.133 38.84 121.341 38.948 120.741 39.164C120.141 39.356 119.709 39.62 119.445 39.956C119.181 40.292 119.049 40.676 119.049 41.108C119.049 41.66 119.301 42.104 119.805 42.44C120.333 42.752 121.017 43.016 121.857 43.232C122.721 43.424 123.657 43.628 124.665 43.844C125.697 44.06 126.717 44.336 127.725 44.672C128.757 44.984 129.693 45.416 130.533 45.968C131.373 46.496 132.045 47.204 132.549 48.092C133.077 48.956 133.341 50.048 133.341 51.368C133.341 52.832 132.921 54.188 132.081 55.436C131.265 56.66 130.029 57.644 128.373 58.388C126.741 59.132 124.677 59.504 122.181 59.504ZM136.633 59V33.8H148.153C150.457 33.8 152.437 34.172 154.093 34.916C155.773 35.66 157.069 36.74 157.981 38.156C158.893 39.548 159.349 41.204 159.349 43.124C159.349 45.02 158.893 46.664 157.981 48.056C157.069 49.448 155.773 50.528 154.093 51.296C152.437 52.04 150.457 52.412 148.153 52.412H140.593L143.761 49.316V59H136.633ZM143.761 50.072L140.593 46.796H147.721C149.209 46.796 150.313 46.472 151.033 45.824C151.777 45.176 152.149 44.276 152.149 43.124C152.149 41.948 151.777 41.036 151.033 40.388C150.313 39.74 149.209 39.416 147.721 39.416H140.593L143.761 36.14V50.072ZM169.377 43.556H181.077V48.884H169.377V43.556ZM169.881 53.492H183.057V59H162.825V33.8H182.589V39.308H169.881V53.492ZM183.988 59L195.112 33.8H202.132L213.292 59H205.876L197.164 37.292H199.972L191.26 59H183.988ZM190.072 54.104L191.908 48.848H204.22L206.056 54.104H190.072ZM221.685 53.42L221.289 45.428L232.125 33.8H239.973L229.173 45.5L225.213 49.64L221.685 53.42ZM215.313 59V33.8H222.369V59H215.313ZM232.233 59L224.025 48.596L228.669 43.628L240.513 59H232.233ZM250.712 59.504C248.648 59.504 246.656 59.252 244.736 58.748C242.84 58.22 241.292 57.548 240.092 56.732L242.432 51.476C243.56 52.196 244.856 52.796 246.32 53.276C247.808 53.732 249.284 53.96 250.748 53.96C251.732 53.96 252.524 53.876 253.124 53.708C253.724 53.516 254.156 53.276 254.42 52.988C254.708 52.676 254.852 52.316 254.852 51.908C254.852 51.332 254.588 50.876 254.06 50.54C253.532 50.204 252.848 49.928 252.008 49.712C251.168 49.496 250.232 49.28 249.2 49.064C248.192 48.848 247.172 48.572 246.14 48.236C245.132 47.9 244.208 47.468 243.368 46.94C242.528 46.388 241.844 45.68 241.316 44.816C240.788 43.928 240.524 42.812 240.524 41.468C240.524 39.956 240.932 38.588 241.748 37.364C242.588 36.14 243.836 35.156 245.492 34.412C247.148 33.668 249.212 33.296 251.684 33.296C253.34 33.296 254.96 33.488 256.544 33.872C258.152 34.232 259.58 34.772 260.828 35.492L258.632 40.784C257.432 40.136 256.244 39.656 255.068 39.344C253.892 39.008 252.752 38.84 251.648 38.84C250.664 38.84 249.872 38.948 249.272 39.164C248.672 39.356 248.24 39.62 247.976 39.956C247.712 40.292 247.58 40.676 247.58 41.108C247.58 41.66 247.832 42.104 248.336 42.44C248.864 42.752 249.548 43.016 250.388 43.232C251.252 43.424 252.188 43.628 253.196 43.844C254.228 44.06 255.248 44.336 256.256 44.672C257.288 44.984 258.224 45.416 259.064 45.968C259.904 46.496 260.576 47.204 261.08 48.092C261.608 48.956 261.872 50.048 261.872 51.368C261.872 52.832 261.452 54.188 260.612 55.436C259.796 56.66 258.56 57.644 256.904 58.388C255.272 59.132 253.208 59.504 250.712 59.504ZM9.144 80.852H20.772V86.36H9.144V80.852ZM9.648 95H2.52V69.8H22.284V75.308H9.648V95ZM38.1147 95.504C36.0987 95.504 34.2387 95.18 32.5347 94.532C30.8307 93.884 29.3427 92.972 28.0707 91.796C26.8227 90.596 25.8507 89.204 25.1547 87.62C24.4587 86.036 24.1107 84.296 24.1107 82.4C24.1107 80.504 24.4587 78.764 25.1547 77.18C25.8507 75.596 26.8227 74.216 28.0707 73.04C29.3427 71.84 30.8307 70.916 32.5347 70.268C34.2387 69.62 36.0987 69.296 38.1147 69.296C40.1547 69.296 42.0147 69.62 43.6947 70.268C45.3987 70.916 46.8747 71.84 48.1227 73.04C49.3707 74.216 50.3427 75.596 51.0387 77.18C51.7587 78.764 52.1187 80.504 52.1187 82.4C52.1187 84.296 51.7587 86.048 51.0387 87.656C50.3427 89.24 49.3707 90.62 48.1227 91.796C46.8747 92.972 45.3987 93.884 43.6947 94.532C42.0147 95.18 40.1547 95.504 38.1147 95.504ZM38.1147 89.6C39.0747 89.6 39.9627 89.432 40.7787 89.096C41.6187 88.76 42.3387 88.28 42.9387 87.656C43.5627 87.008 44.0427 86.24 44.3787 85.352C44.7387 84.464 44.9187 83.48 44.9187 82.4C44.9187 81.296 44.7387 80.312 44.3787 79.448C44.0427 78.56 43.5627 77.804 42.9387 77.18C42.3387 76.532 41.6187 76.04 40.7787 75.704C39.9627 75.368 39.0747 75.2 38.1147 75.2C37.1547 75.2 36.2547 75.368 35.4147 75.704C34.5987 76.04 33.8787 76.532 33.2547 77.18C32.6547 77.804 32.1747 78.56 31.8147 79.448C31.4787 80.312 31.3107 81.296 31.3107 82.4C31.3107 83.48 31.4787 84.464 31.8147 85.352C32.1747 86.24 32.6547 87.008 33.2547 87.656C33.8787 88.28 34.5987 88.76 35.4147 89.096C36.2547 89.432 37.1547 89.6 38.1147 89.6ZM55.852 95V69.8H67.372C69.676 69.8 71.656 70.172 73.312 70.916C74.992 71.66 76.288 72.74 77.2 74.156C78.112 75.548 78.568 77.204 78.568 79.124C78.568 81.02 78.112 82.664 77.2 84.056C76.288 85.424 74.992 86.48 73.312 87.224C71.656 87.944 69.676 88.304 67.372 88.304H59.812L62.98 85.316V95H55.852ZM71.44 95L65.176 85.82H72.772L79.072 95H71.44ZM62.98 86.072L59.812 82.796H66.94C68.428 82.796 69.532 82.472 70.252 81.824C70.996 81.176 71.368 80.276 71.368 79.124C71.368 77.948 70.996 77.036 70.252 76.388C69.532 75.74 68.428 75.416 66.94 75.416H59.812L62.98 72.14V86.072Z" fill="white"/>
<path d="M95.8568 95V84.344L97.5128 88.628L86.2448 69.8H93.7688L101.905 83.444H97.5488L105.721 69.8H112.633L101.401 88.628L102.985 84.344V95H95.8568ZM126.064 95.504C124.048 95.504 122.188 95.18 120.484 94.532C118.78 93.884 117.292 92.972 116.02 91.796C114.772 90.596 113.8 89.204 113.104 87.62C112.408 86.036 112.06 84.296 112.06 82.4C112.06 80.504 112.408 78.764 113.104 77.18C113.8 75.596 114.772 74.216 116.02 73.04C117.292 71.84 118.78 70.916 120.484 70.268C122.188 69.62 124.048 69.296 126.064 69.296C128.104 69.296 129.964 69.62 131.644 70.268C133.348 70.916 134.824 71.84 136.072 73.04C137.32 74.216 138.292 75.596 138.988 77.18C139.708 78.764 140.068 80.504 140.068 82.4C140.068 84.296 139.708 86.048 138.988 87.656C138.292 89.24 137.32 90.62 136.072 91.796C134.824 92.972 133.348 93.884 131.644 94.532C129.964 95.18 128.104 95.504 126.064 95.504ZM126.064 89.6C127.024 89.6 127.912 89.432 128.728 89.096C129.568 88.76 130.288 88.28 130.888 87.656C131.512 87.008 131.992 86.24 132.328 85.352C132.688 84.464 132.868 83.48 132.868 82.4C132.868 81.296 132.688 80.312 132.328 79.448C131.992 78.56 131.512 77.804 130.888 77.18C130.288 76.532 129.568 76.04 128.728 75.704C127.912 75.368 127.024 75.2 126.064 75.2C125.104 75.2 124.204 75.368 123.364 75.704C122.548 76.04 121.828 76.532 121.204 77.18C120.604 77.804 120.124 78.56 119.764 79.448C119.428 80.312 119.26 81.296 119.26 82.4C119.26 83.48 119.428 84.464 119.764 85.352C120.124 86.24 120.604 87.008 121.204 87.656C121.828 88.28 122.548 88.76 123.364 89.096C124.204 89.432 125.104 89.6 126.064 89.6ZM155.429 95.504C151.709 95.504 148.805 94.484 146.717 92.444C144.629 90.404 143.585 87.512 143.585 83.768V69.8H150.713V83.552C150.713 85.712 151.133 87.26 151.973 88.196C152.837 89.132 154.013 89.6 155.501 89.6C156.989 89.6 158.153 89.132 158.993 88.196C159.833 87.26 160.253 85.712 160.253 83.552V69.8H167.273V83.768C167.273 87.512 166.229 90.404 164.141 92.444C162.053 94.484 159.149 95.504 155.429 95.504ZM172.102 95V69.8H183.622C185.926 69.8 187.906 70.172 189.562 70.916C191.242 71.66 192.538 72.74 193.45 74.156C194.362 75.548 194.818 77.204 194.818 79.124C194.818 81.02 194.362 82.664 193.45 84.056C192.538 85.424 191.242 86.48 189.562 87.224C187.906 87.944 185.926 88.304 183.622 88.304H176.062L179.23 85.316V95H172.102ZM187.69 95L181.426 85.82H189.022L195.322 95H187.69ZM179.23 86.072L176.062 82.796H183.19C184.678 82.796 185.782 82.472 186.502 81.824C187.246 81.176 187.618 80.276 187.618 79.124C187.618 77.948 187.246 77.036 186.502 76.388C185.782 75.74 184.678 75.416 183.19 75.416H176.062L179.23 72.14V86.072ZM2.52 131V105.8H15.408C18.72 105.8 21.192 106.412 22.824 107.636C24.456 108.836 25.272 110.42 25.272 112.388C25.272 113.684 24.924 114.824 24.228 115.808C23.556 116.768 22.596 117.536 21.348 118.112C20.124 118.664 18.66 118.94 16.956 118.94L17.676 117.212C19.452 117.212 21 117.488 22.32 118.04C23.64 118.568 24.66 119.348 25.38 120.38C26.124 121.388 26.496 122.624 26.496 124.088C26.496 126.272 25.608 127.976 23.832 129.2C22.08 130.4 19.512 131 16.128 131H2.52ZM9.576 125.852H15.552C16.776 125.852 17.7 125.648 18.324 125.24C18.972 124.808 19.296 124.16 19.296 123.296C19.296 122.432 18.972 121.796 18.324 121.388C17.7 120.956 16.776 120.74 15.552 120.74H9.072V115.808H14.472C15.672 115.808 16.572 115.604 17.172 115.196C17.772 114.788 18.072 114.176 18.072 113.36C18.072 112.544 17.772 111.944 17.172 111.56C16.572 111.152 15.672 110.948 14.472 110.948H9.576V125.852ZM30.188 131V105.8H41.708C44.012 105.8 45.992 106.172 47.648 106.916C49.328 107.66 50.624 108.74 51.536 110.156C52.448 111.548 52.904 113.204 52.904 115.124C52.904 117.02 52.448 118.664 51.536 120.056C50.624 121.424 49.328 122.48 47.648 123.224C45.992 123.944 44.012 124.304 41.708 124.304H34.148L37.316 121.316V131H30.188ZM45.776 131L39.512 121.82H47.108L53.408 131H45.776ZM37.316 122.072L34.148 118.796H41.276C42.764 118.796 43.868 118.472 44.588 117.824C45.332 117.176 45.704 116.276 45.704 115.124C45.704 113.948 45.332 113.036 44.588 112.388C43.868 111.74 42.764 111.416 41.276 111.416H34.148L37.316 108.14V122.072ZM53.8124 131L64.9364 105.8H71.9564L83.1164 131H75.7004L66.9884 109.292H69.7964L61.0844 131H53.8124ZM59.8964 126.104L61.7324 120.848H74.0444L75.8804 126.104H59.8964ZM85.1372 131V105.8H91.0052L104.901 122.576H102.129V105.8H109.113V131H103.245L89.3492 114.224H92.1212V131H85.1372ZM114.141 131V105.8H126.057C128.841 105.8 131.289 106.316 133.401 107.348C135.513 108.38 137.157 109.832 138.333 111.704C139.533 113.576 140.133 115.808 140.133 118.4C140.133 120.968 139.533 123.2 138.333 125.096C137.157 126.968 135.513 128.42 133.401 129.452C131.289 130.484 128.841 131 126.057 131H114.141ZM121.269 125.312H125.769C127.209 125.312 128.457 125.048 129.513 124.52C130.593 123.968 131.433 123.176 132.033 122.144C132.633 121.088 132.933 119.84 132.933 118.4C132.933 116.936 132.633 115.688 132.033 114.656C131.433 113.624 130.593 112.844 129.513 112.316C128.457 111.764 127.209 111.488 125.769 111.488H121.269V125.312ZM145.736 131.324C144.584 131.324 143.612 130.94 142.82 130.172C142.028 129.404 141.632 128.432 141.632 127.256C141.632 126.032 142.028 125.06 142.82 124.34C143.612 123.596 144.584 123.224 145.736 123.224C146.888 123.224 147.86 123.596 148.652 124.34C149.444 125.06 149.84 126.032 149.84 127.256C149.84 128.432 149.444 129.404 148.652 130.172C147.86 130.94 146.888 131.324 145.736 131.324Z" fill="url(#paint1_radial_172_115)"/>
<defs>
<linearGradient id="paint0_linear_172_115" x1="149" y1="-8" x2="149" y2="136" gradientUnits="userSpaceOnUse">
<stop offset="0.427885" stop-color="#DF3228"/>
<stop offset="1"/>
</linearGradient>
<radialGradient id="paint1_radial_172_115" cx="0" cy="0" r="1" gradientUnits="userSpaceOnUse" gradientTransform="translate(149 64) rotate(90) scale(72 149)">
<stop offset="0.153846" stop-color="#797A7A"/>
<stop offset="0.471154" stop-color="#F0F1F0"/>
<stop offset="0.903846" stop-color="#BEBEBD"/>
</radialGradient>
</defs>
</svg>
