<svg width="263" height="135" viewBox="0 0 263 135" fill="none" xmlns="http://www.w3.org/2000/svg">
<path d="M2.52 26V0.799998H14.04C16.344 0.799998 18.324 1.172 19.98 1.916C21.66 2.66 22.956 3.74 23.868 5.156C24.78 6.548 25.236 8.204 25.236 10.124C25.236 12.02 24.78 13.664 23.868 15.056C22.956 16.448 21.66 17.528 19.98 18.296C18.324 19.04 16.344 19.412 14.04 19.412H6.48L9.648 16.316V26H2.52ZM9.648 17.072L6.48 13.796H13.608C15.096 13.796 16.2 13.472 16.92 12.824C17.664 12.176 18.036 11.276 18.036 10.124C18.036 8.948 17.664 8.036 16.92 7.388C16.2 6.74 15.096 6.416 13.608 6.416H6.48L9.648 3.14V17.072ZM24.4218 26L35.5458 0.799998H42.5658L53.7258 26H46.3098L37.5978 4.292H40.4058L31.6938 26H24.4218ZM30.5058 21.104L32.3418 15.848H44.6538L46.4898 21.104H30.5058ZM67.959 26.504C65.967 26.504 64.119 26.192 62.415 25.568C60.735 24.92 59.271 24.008 58.023 22.832C56.799 21.656 55.839 20.276 55.143 18.692C54.447 17.084 54.099 15.32 54.099 13.4C54.099 11.48 54.447 9.728 55.143 8.144C55.839 6.536 56.799 5.144 58.023 3.968C59.271 2.792 60.735 1.892 62.415 1.268C64.119 0.619998 65.967 0.295998 67.959 0.295998C70.287 0.295998 72.363 0.703999 74.187 1.52C76.035 2.336 77.571 3.512 78.795 5.048L74.259 9.152C73.443 8.192 72.543 7.46 71.559 6.956C70.599 6.452 69.519 6.2 68.319 6.2C67.287 6.2 66.339 6.368 65.475 6.704C64.611 7.04 63.867 7.532 63.243 8.18C62.643 8.804 62.163 9.56 61.803 10.448C61.467 11.336 61.299 12.32 61.299 13.4C61.299 14.48 61.467 15.464 61.803 16.352C62.163 17.24 62.643 18.008 63.243 18.656C63.867 19.28 64.611 19.76 65.475 20.096C66.339 20.432 67.287 20.6 68.319 20.6C69.519 20.6 70.599 20.348 71.559 19.844C72.543 19.34 73.443 18.608 74.259 17.648L78.795 21.752C77.571 23.264 76.035 24.44 74.187 25.28C72.363 26.096 70.287 26.504 67.959 26.504ZM88.3451 20.42L87.9491 12.428L98.7851 0.799998H106.633L95.8331 12.5L91.8731 16.64L88.3451 20.42ZM81.9731 26V0.799998H89.0291V26H81.9731ZM98.8931 26L90.6851 15.596L95.3291 10.628L107.173 26H98.8931ZM104.824 26L115.948 0.799998H122.968L134.128 26H126.712L118 4.292H120.808L112.096 26H104.824ZM110.908 21.104L112.744 15.848H125.056L126.892 21.104H110.908ZM148.397 26.504C146.405 26.504 144.557 26.192 142.853 25.568C141.149 24.92 139.673 24.008 138.425 22.832C137.201 21.656 136.241 20.276 135.545 18.692C134.849 17.084 134.501 15.32 134.501 13.4C134.501 11.48 134.849 9.728 135.545 8.144C136.241 6.536 137.213 5.144 138.461 3.968C139.709 2.792 141.185 1.892 142.889 1.268C144.617 0.619998 146.501 0.295998 148.541 0.295998C150.917 0.295998 153.041 0.691998 154.913 1.484C156.785 2.276 158.333 3.416 159.557 4.904L155.021 9.008C154.157 8.072 153.221 7.376 152.213 6.92C151.229 6.44 150.125 6.2 148.901 6.2C147.821 6.2 146.837 6.368 145.949 6.704C145.061 7.04 144.305 7.532 143.681 8.18C143.057 8.804 142.565 9.56 142.205 10.448C141.869 11.312 141.701 12.296 141.701 13.4C141.701 14.456 141.869 15.428 142.205 16.316C142.565 17.204 143.057 17.972 143.681 18.62C144.305 19.244 145.049 19.736 145.913 20.096C146.801 20.432 147.773 20.6 148.829 20.6C149.885 20.6 150.917 20.432 151.925 20.096C152.933 19.736 153.953 19.136 154.985 18.296L158.981 23.3C157.541 24.332 155.873 25.124 153.977 25.676C152.081 26.228 150.221 26.504 148.397 26.504ZM152.681 22.364V12.86H158.981V23.3L152.681 22.364ZM163.5 26V0.799998H170.628V26H163.5ZM175.7 26V0.799998H181.568L195.464 17.576H192.692V0.799998H199.676V26H193.808L179.912 9.224H182.684V26H175.7ZM217.304 26.504C215.312 26.504 213.464 26.192 211.76 25.568C210.056 24.92 208.58 24.008 207.332 22.832C206.108 21.656 205.148 20.276 204.452 18.692C203.756 17.084 203.408 15.32 203.408 13.4C203.408 11.48 203.756 9.728 204.452 8.144C205.148 6.536 206.12 5.144 207.368 3.968C208.616 2.792 210.092 1.892 211.796 1.268C213.524 0.619998 215.408 0.295998 217.448 0.295998C219.824 0.295998 221.948 0.691998 223.82 1.484C225.692 2.276 227.24 3.416 228.464 4.904L223.928 9.008C223.064 8.072 222.128 7.376 221.12 6.92C220.136 6.44 219.032 6.2 217.808 6.2C216.728 6.2 215.744 6.368 214.856 6.704C213.968 7.04 213.212 7.532 212.588 8.18C211.964 8.804 211.472 9.56 211.112 10.448C210.776 11.312 210.608 12.296 210.608 13.4C210.608 14.456 210.776 15.428 211.112 16.316C211.472 17.204 211.964 17.972 212.588 18.62C213.212 19.244 213.956 19.736 214.82 20.096C215.708 20.432 216.68 20.6 217.736 20.6C218.792 20.6 219.824 20.432 220.832 20.096C221.84 19.736 222.86 19.136 223.892 18.296L227.888 23.3C226.448 24.332 224.78 25.124 222.884 25.676C220.988 26.228 219.128 26.504 217.304 26.504ZM221.588 22.364V12.86H227.888V23.3L221.588 22.364Z" fill="url(#paint0_linear_271_880)"/>
<path d="M7.884 62V42.452H0.144V36.8H22.716V42.452H15.012V62H7.884ZM42.2196 36.8H49.3476V62H42.2196V36.8ZM32.4996 62H25.3716V36.8H32.4996V62ZM42.7236 52.172H31.9956V46.268H42.7236V52.172ZM51.3515 62L62.4755 36.8H69.4955L80.6555 62H73.2395L64.5275 40.292H67.3355L58.6235 62H51.3515ZM57.4355 57.104L59.2715 51.848H71.5835L73.4195 57.104H57.4355ZM86.7746 62V42.452H79.0346V36.8H101.607V42.452H93.9026V62H86.7746ZM123.314 62.504C121.25 62.504 119.258 62.252 117.338 61.748C115.442 61.22 113.894 60.548 112.694 59.732L115.034 54.476C116.162 55.196 117.458 55.796 118.922 56.276C120.41 56.732 121.886 56.96 123.35 56.96C124.334 56.96 125.126 56.876 125.726 56.708C126.326 56.516 126.758 56.276 127.022 55.988C127.31 55.676 127.454 55.316 127.454 54.908C127.454 54.332 127.19 53.876 126.662 53.54C126.134 53.204 125.45 52.928 124.61 52.712C123.77 52.496 122.834 52.28 121.802 52.064C120.794 51.848 119.774 51.572 118.742 51.236C117.734 50.9 116.81 50.468 115.97 49.94C115.13 49.388 114.446 48.68 113.918 47.816C113.39 46.928 113.125 45.812 113.125 44.468C113.125 42.956 113.534 41.588 114.35 40.364C115.19 39.14 116.438 38.156 118.094 37.412C119.75 36.668 121.814 36.296 124.286 36.296C125.942 36.296 127.562 36.488 129.146 36.872C130.754 37.232 132.182 37.772 133.43 38.492L131.234 43.784C130.034 43.136 128.846 42.656 127.67 42.344C126.494 42.008 125.354 41.84 124.25 41.84C123.266 41.84 122.474 41.948 121.874 42.164C121.274 42.356 120.842 42.62 120.578 42.956C120.314 43.292 120.182 43.676 120.182 44.108C120.182 44.66 120.434 45.104 120.938 45.44C121.466 45.752 122.15 46.016 122.99 46.232C123.854 46.424 124.79 46.628 125.798 46.844C126.83 47.06 127.85 47.336 128.858 47.672C129.89 47.984 130.826 48.416 131.666 48.968C132.506 49.496 133.178 50.204 133.682 51.092C134.21 51.956 134.474 53.048 134.474 54.368C134.474 55.832 134.054 57.188 133.214 58.436C132.398 59.66 131.162 60.644 129.506 61.388C127.874 62.132 125.81 62.504 123.314 62.504ZM137.766 62V36.8H149.286C151.59 36.8 153.57 37.172 155.226 37.916C156.906 38.66 158.202 39.74 159.114 41.156C160.026 42.548 160.482 44.204 160.482 46.124C160.482 48.02 160.026 49.664 159.114 51.056C158.202 52.448 156.906 53.528 155.226 54.296C153.57 55.04 151.59 55.412 149.286 55.412H141.726L144.894 52.316V62H137.766ZM144.894 53.072L141.726 49.796H148.854C150.342 49.796 151.446 49.472 152.166 48.824C152.91 48.176 153.282 47.276 153.282 46.124C153.282 44.948 152.91 44.036 152.166 43.388C151.446 42.74 150.342 42.416 148.854 42.416H141.726L144.894 39.14V53.072ZM170.51 46.556H182.21V51.884H170.51V46.556ZM171.014 56.492H184.19V62H163.958V36.8H183.722V42.308H171.014V56.492ZM185.121 62L196.245 36.8H203.265L214.425 62H207.009L198.297 40.292H201.105L192.393 62H185.121ZM191.205 57.104L193.041 51.848H205.353L207.189 57.104H191.205ZM222.818 56.42L222.422 48.428L233.258 36.8H241.106L230.306 48.5L226.346 52.64L222.818 56.42ZM216.446 62V36.8H223.502V62H216.446ZM233.366 62L225.158 51.596L229.802 46.628L241.646 62H233.366ZM251.845 62.504C249.781 62.504 247.789 62.252 245.869 61.748C243.973 61.22 242.425 60.548 241.225 59.732L243.565 54.476C244.693 55.196 245.989 55.796 247.453 56.276C248.941 56.732 250.417 56.96 251.881 56.96C252.865 56.96 253.657 56.876 254.257 56.708C254.857 56.516 255.289 56.276 255.553 55.988C255.841 55.676 255.985 55.316 255.985 54.908C255.985 54.332 255.721 53.876 255.193 53.54C254.665 53.204 253.981 52.928 253.141 52.712C252.301 52.496 251.365 52.28 250.333 52.064C249.325 51.848 248.305 51.572 247.273 51.236C246.265 50.9 245.341 50.468 244.501 49.94C243.661 49.388 242.977 48.68 242.449 47.816C241.921 46.928 241.657 45.812 241.657 44.468C241.657 42.956 242.065 41.588 242.881 40.364C243.721 39.14 244.969 38.156 246.625 37.412C248.281 36.668 250.345 36.296 252.817 36.296C254.473 36.296 256.093 36.488 257.677 36.872C259.285 37.232 260.713 37.772 261.961 38.492L259.765 43.784C258.565 43.136 257.377 42.656 256.201 42.344C255.025 42.008 253.885 41.84 252.781 41.84C251.797 41.84 251.005 41.948 250.405 42.164C249.805 42.356 249.373 42.62 249.109 42.956C248.845 43.292 248.713 43.676 248.713 44.108C248.713 44.66 248.965 45.104 249.469 45.44C249.997 45.752 250.681 46.016 251.521 46.232C252.385 46.424 253.321 46.628 254.329 46.844C255.361 47.06 256.381 47.336 257.389 47.672C258.421 47.984 259.357 48.416 260.197 48.968C261.037 49.496 261.709 50.204 262.213 51.092C262.741 51.956 263.005 53.048 263.005 54.368C263.005 55.832 262.585 57.188 261.745 58.436C260.929 59.66 259.693 60.644 258.037 61.388C256.405 62.132 254.341 62.504 251.845 62.504ZM9.144 83.852H20.772V89.36H9.144V83.852ZM9.648 98H2.52V72.8H22.284V78.308H9.648V98ZM38.1147 98.504C36.0987 98.504 34.2387 98.18 32.5347 97.532C30.8307 96.884 29.3427 95.972 28.0707 94.796C26.8227 93.596 25.8507 92.204 25.1547 90.62C24.4587 89.036 24.1107 87.296 24.1107 85.4C24.1107 83.504 24.4587 81.764 25.1547 80.18C25.8507 78.596 26.8227 77.216 28.0707 76.04C29.3427 74.84 30.8307 73.916 32.5347 73.268C34.2387 72.62 36.0987 72.296 38.1147 72.296C40.1547 72.296 42.0147 72.62 43.6947 73.268C45.3987 73.916 46.8747 74.84 48.1227 76.04C49.3707 77.216 50.3427 78.596 51.0387 80.18C51.7587 81.764 52.1187 83.504 52.1187 85.4C52.1187 87.296 51.7587 89.048 51.0387 90.656C50.3427 92.24 49.3707 93.62 48.1227 94.796C46.8747 95.972 45.3987 96.884 43.6947 97.532C42.0147 98.18 40.1547 98.504 38.1147 98.504ZM38.1147 92.6C39.0747 92.6 39.9627 92.432 40.7787 92.096C41.6187 91.76 42.3387 91.28 42.9387 90.656C43.5627 90.008 44.0427 89.24 44.3787 88.352C44.7387 87.464 44.9187 86.48 44.9187 85.4C44.9187 84.296 44.7387 83.312 44.3787 82.448C44.0427 81.56 43.5627 80.804 42.9387 80.18C42.3387 79.532 41.6187 79.04 40.7787 78.704C39.9627 78.368 39.0747 78.2 38.1147 78.2C37.1547 78.2 36.2547 78.368 35.4147 78.704C34.5987 79.04 33.8787 79.532 33.2547 80.18C32.6547 80.804 32.1747 81.56 31.8147 82.448C31.4787 83.312 31.3107 84.296 31.3107 85.4C31.3107 86.48 31.4787 87.464 31.8147 88.352C32.1747 89.24 32.6547 90.008 33.2547 90.656C33.8787 91.28 34.5987 91.76 35.4147 92.096C36.2547 92.432 37.1547 92.6 38.1147 92.6ZM55.852 98V72.8H67.372C69.676 72.8 71.656 73.172 73.312 73.916C74.992 74.66 76.288 75.74 77.2 77.156C78.112 78.548 78.568 80.204 78.568 82.124C78.568 84.02 78.112 85.664 77.2 87.056C76.288 88.424 74.992 89.48 73.312 90.224C71.656 90.944 69.676 91.304 67.372 91.304H59.812L62.98 88.316V98H55.852ZM71.44 98L65.176 88.82H72.772L79.072 98H71.44ZM62.98 89.072L59.812 85.796H66.94C68.428 85.796 69.532 85.472 70.252 84.824C70.996 84.176 71.368 83.276 71.368 82.124C71.368 80.948 70.996 80.036 70.252 79.388C69.532 78.74 68.428 78.416 66.94 78.416H59.812L62.98 75.14V89.072Z" fill="white"/>
<path d="M99.349 98V87.344L101.005 91.628L89.737 72.8H97.261L105.397 86.444H101.041L109.213 72.8H116.125L104.893 91.628L106.477 87.344V98H99.349ZM129.556 98.504C127.54 98.504 125.68 98.18 123.976 97.532C122.272 96.884 120.784 95.972 119.512 94.796C118.264 93.596 117.292 92.204 116.596 90.62C115.9 89.036 115.552 87.296 115.552 85.4C115.552 83.504 115.9 81.764 116.596 80.18C117.292 78.596 118.264 77.216 119.512 76.04C120.784 74.84 122.272 73.916 123.976 73.268C125.68 72.62 127.54 72.296 129.556 72.296C131.596 72.296 133.456 72.62 135.136 73.268C136.84 73.916 138.316 74.84 139.564 76.04C140.812 77.216 141.784 78.596 142.48 80.18C143.2 81.764 143.56 83.504 143.56 85.4C143.56 87.296 143.2 89.048 142.48 90.656C141.784 92.24 140.812 93.62 139.564 94.796C138.316 95.972 136.84 96.884 135.136 97.532C133.456 98.18 131.596 98.504 129.556 98.504ZM129.556 92.6C130.516 92.6 131.404 92.432 132.22 92.096C133.06 91.76 133.78 91.28 134.38 90.656C135.004 90.008 135.484 89.24 135.82 88.352C136.18 87.464 136.36 86.48 136.36 85.4C136.36 84.296 136.18 83.312 135.82 82.448C135.484 81.56 135.004 80.804 134.38 80.18C133.78 79.532 133.06 79.04 132.22 78.704C131.404 78.368 130.516 78.2 129.556 78.2C128.596 78.2 127.696 78.368 126.856 78.704C126.04 79.04 125.32 79.532 124.696 80.18C124.096 80.804 123.616 81.56 123.256 82.448C122.92 83.312 122.752 84.296 122.752 85.4C122.752 86.48 122.92 87.464 123.256 88.352C123.616 89.24 124.096 90.008 124.696 90.656C125.32 91.28 126.04 91.76 126.856 92.096C127.696 92.432 128.596 92.6 129.556 92.6ZM158.921 98.504C155.201 98.504 152.297 97.484 150.209 95.444C148.121 93.404 147.077 90.512 147.077 86.768V72.8H154.205V86.552C154.205 88.712 154.625 90.26 155.465 91.196C156.329 92.132 157.505 92.6 158.993 92.6C160.481 92.6 161.645 92.132 162.485 91.196C163.325 90.26 163.745 88.712 163.745 86.552V72.8H170.765V86.768C170.765 90.512 169.721 93.404 167.633 95.444C165.545 97.484 162.641 98.504 158.921 98.504ZM175.594 98V72.8H187.114C189.418 72.8 191.398 73.172 193.054 73.916C194.734 74.66 196.03 75.74 196.942 77.156C197.854 78.548 198.31 80.204 198.31 82.124C198.31 84.02 197.854 85.664 196.942 87.056C196.03 88.424 194.734 89.48 193.054 90.224C191.398 90.944 189.418 91.304 187.114 91.304H179.554L182.722 88.316V98H175.594ZM191.182 98L184.918 88.82H192.514L198.814 98H191.182ZM182.722 89.072L179.554 85.796H186.682C188.17 85.796 189.274 85.472 189.994 84.824C190.738 84.176 191.11 83.276 191.11 82.124C191.11 80.948 190.738 80.036 189.994 79.388C189.274 78.74 188.17 78.416 186.682 78.416H179.554L182.722 75.14V89.072ZM2.52 134V108.8H15.408C18.72 108.8 21.192 109.412 22.824 110.636C24.456 111.836 25.272 113.42 25.272 115.388C25.272 116.684 24.924 117.824 24.228 118.808C23.556 119.768 22.596 120.536 21.348 121.112C20.124 121.664 18.66 121.94 16.956 121.94L17.676 120.212C19.452 120.212 21 120.488 22.32 121.04C23.64 121.568 24.66 122.348 25.38 123.38C26.124 124.388 26.496 125.624 26.496 127.088C26.496 129.272 25.608 130.976 23.832 132.2C22.08 133.4 19.512 134 16.128 134H2.52ZM9.576 128.852H15.552C16.776 128.852 17.7 128.648 18.324 128.24C18.972 127.808 19.296 127.16 19.296 126.296C19.296 125.432 18.972 124.796 18.324 124.388C17.7 123.956 16.776 123.74 15.552 123.74H9.072V118.808H14.472C15.672 118.808 16.572 118.604 17.172 118.196C17.772 117.788 18.072 117.176 18.072 116.36C18.072 115.544 17.772 114.944 17.172 114.56C16.572 114.152 15.672 113.948 14.472 113.948H9.576V128.852ZM30.188 134V108.8H41.708C44.012 108.8 45.992 109.172 47.648 109.916C49.328 110.66 50.624 111.74 51.536 113.156C52.448 114.548 52.904 116.204 52.904 118.124C52.904 120.02 52.448 121.664 51.536 123.056C50.624 124.424 49.328 125.48 47.648 126.224C45.992 126.944 44.012 127.304 41.708 127.304H34.148L37.316 124.316V134H30.188ZM45.776 134L39.512 124.82H47.108L53.408 134H45.776ZM37.316 125.072L34.148 121.796H41.276C42.764 121.796 43.868 121.472 44.588 120.824C45.332 120.176 45.704 119.276 45.704 118.124C45.704 116.948 45.332 116.036 44.588 115.388C43.868 114.74 42.764 114.416 41.276 114.416H34.148L37.316 111.14V125.072ZM53.8124 134L64.9364 108.8H71.9564L83.1164 134H75.7004L66.9884 112.292H69.7964L61.0844 134H53.8124ZM59.8964 129.104L61.7324 123.848H74.0444L75.8804 129.104H59.8964ZM85.1372 134V108.8H91.0052L104.901 125.576H102.129V108.8H109.113V134H103.245L89.3492 117.224H92.1212V134H85.1372ZM114.141 134V108.8H126.057C128.841 108.8 131.289 109.316 133.401 110.348C135.513 111.38 137.157 112.832 138.333 114.704C139.533 116.576 140.133 118.808 140.133 121.4C140.133 123.968 139.533 126.2 138.333 128.096C137.157 129.968 135.513 131.42 133.401 132.452C131.289 133.484 128.841 134 126.057 134H114.141ZM121.269 128.312H125.769C127.209 128.312 128.457 128.048 129.513 127.52C130.593 126.968 131.433 126.176 132.033 125.144C132.633 124.088 132.933 122.84 132.933 121.4C132.933 119.936 132.633 118.688 132.033 117.656C131.433 116.624 130.593 115.844 129.513 115.316C128.457 114.764 127.209 114.488 125.769 114.488H121.269V128.312ZM145.736 134.324C144.584 134.324 143.612 133.94 142.82 133.172C142.028 132.404 141.632 131.432 141.632 130.256C141.632 129.032 142.028 128.06 142.82 127.34C143.612 126.596 144.584 126.224 145.736 126.224C146.888 126.224 147.86 126.596 148.652 127.34C149.444 128.06 149.84 129.032 149.84 130.256C149.84 131.432 149.444 132.404 148.652 133.172C147.86 133.94 146.888 134.324 145.736 134.324Z" fill="url(#paint1_radial_271_880)"/>
<defs>
<linearGradient id="paint0_linear_271_880" x1="149" y1="-5" x2="149" y2="139" gradientUnits="userSpaceOnUse">
<stop offset="0.427885" stop-color="#DF3228"/>
<stop offset="1"/>
</linearGradient>
<radialGradient id="paint1_radial_271_880" cx="0" cy="0" r="1" gradientUnits="userSpaceOnUse" gradientTransform="translate(149 67) rotate(90) scale(72 149)">
<stop offset="0.153846" stop-color="#797A7A"/>
<stop offset="0.471154" stop-color="#F0F1F0"/>
<stop offset="0.903846" stop-color="#BEBEBD"/>
</radialGradient>
</defs>
</svg>
