<svg width="135" height="9" viewBox="0 0 135 9" fill="none" xmlns="http://www.w3.org/2000/svg">
<path d="M1.992 5.452V1.948H2.664V5.452H1.992ZM0.536 4.02V3.388H4.12V4.02H0.536ZM6.56025 6.564C6.29892 6.564 6.04558 6.53733 5.80025 6.484C5.56025 6.43067 5.34958 6.348 5.16825 6.236L5.47225 5.612C5.62158 5.708 5.78692 5.77733 5.96825 5.82C6.15492 5.85733 6.34958 5.876 6.55225 5.876C7.11758 5.876 7.56825 5.7 7.90425 5.348C8.24025 4.99067 8.40825 4.46267 8.40825 3.764C8.40825 3.652 8.40292 3.51867 8.39225 3.364C8.38158 3.20933 8.35758 3.05733 8.32025 2.908L8.58425 3.18C8.50958 3.42533 8.38425 3.63333 8.20825 3.804C8.03758 3.96933 7.82958 4.09467 7.58425 4.18C7.34425 4.26 7.08025 4.3 6.79225 4.3C6.42425 4.3 6.09625 4.23067 5.80825 4.092C5.52025 3.95333 5.29358 3.75867 5.12825 3.508C4.96292 3.252 4.88025 2.95067 4.88025 2.604C4.88025 2.24133 4.96558 1.92933 5.13625 1.668C5.31225 1.40133 5.54958 1.196 5.84825 1.052C6.15225 0.908 6.48825 0.836 6.85625 0.836C7.36292 0.836 7.78958 0.945333 8.13625 1.164C8.48825 1.38267 8.75492 1.7 8.93625 2.116C9.11758 2.52667 9.20825 3.03067 9.20825 3.628C9.20825 4.26267 9.09625 4.79867 8.87225 5.236C8.64825 5.67333 8.33892 6.004 7.94425 6.228C7.54958 6.452 7.08825 6.564 6.56025 6.564ZM6.92825 3.652C7.18425 3.652 7.40825 3.604 7.60025 3.508C7.79758 3.412 7.94958 3.28133 8.05625 3.116C8.16825 2.95067 8.22425 2.76667 8.22425 2.564C8.22425 2.36667 8.17358 2.188 8.07225 2.028C7.97092 1.868 7.82158 1.73733 7.62425 1.636C7.42692 1.53467 7.18158 1.484 6.88825 1.484C6.64825 1.484 6.43492 1.52933 6.24825 1.62C6.06158 1.71067 5.91492 1.836 5.80825 1.996C5.70692 2.156 5.65625 2.348 5.65625 2.572C5.65625 2.90267 5.77092 3.16667 6.00025 3.364C6.22958 3.556 6.53892 3.652 6.92825 3.652ZM10.9218 6.5V1.22L11.2658 1.596H9.65775V0.9H11.7138V6.5H10.9218ZM16.6071 6.564C16.3458 6.564 16.0925 6.53733 15.8471 6.484C15.6071 6.43067 15.3965 6.348 15.2151 6.236L15.5191 5.612C15.6685 5.708 15.8338 5.77733 16.0151 5.82C16.2018 5.85733 16.3965 5.876 16.5991 5.876C17.1645 5.876 17.6151 5.7 17.9511 5.348C18.2871 4.99067 18.4551 4.46267 18.4551 3.764C18.4551 3.652 18.4498 3.51867 18.4391 3.364C18.4285 3.20933 18.4045 3.05733 18.3671 2.908L18.6311 3.18C18.5565 3.42533 18.4311 3.63333 18.2551 3.804C18.0845 3.96933 17.8765 4.09467 17.6311 4.18C17.3911 4.26 17.1271 4.3 16.8391 4.3C16.4711 4.3 16.1431 4.23067 15.8551 4.092C15.5671 3.95333 15.3405 3.75867 15.1751 3.508C15.0098 3.252 14.9271 2.95067 14.9271 2.604C14.9271 2.24133 15.0125 1.92933 15.1831 1.668C15.3591 1.40133 15.5965 1.196 15.8951 1.052C16.1991 0.908 16.5351 0.836 16.9031 0.836C17.4098 0.836 17.8365 0.945333 18.1831 1.164C18.5351 1.38267 18.8018 1.7 18.9831 2.116C19.1645 2.52667 19.2551 3.03067 19.2551 3.628C19.2551 4.26267 19.1431 4.79867 18.9191 5.236C18.6951 5.67333 18.3858 6.004 17.9911 6.228C17.5965 6.452 17.1351 6.564 16.6071 6.564ZM16.9751 3.652C17.2311 3.652 17.4551 3.604 17.6471 3.508C17.8445 3.412 17.9965 3.28133 18.1031 3.116C18.2151 2.95067 18.2711 2.76667 18.2711 2.564C18.2711 2.36667 18.2205 2.188 18.1191 2.028C18.0178 1.868 17.8685 1.73733 17.6711 1.636C17.4738 1.53467 17.2285 1.484 16.9351 1.484C16.6951 1.484 16.4818 1.52933 16.2951 1.62C16.1085 1.71067 15.9618 1.836 15.8551 1.996C15.7538 2.156 15.7031 2.348 15.7031 2.572C15.7031 2.90267 15.8178 3.16667 16.0471 3.364C16.2765 3.556 16.5858 3.652 16.9751 3.652ZM22.2086 6.564C21.7553 6.564 21.3633 6.49733 21.0326 6.364C20.702 6.23067 20.446 6.04133 20.2646 5.796C20.0833 5.54533 19.9926 5.252 19.9926 4.916C19.9926 4.58533 20.078 4.30533 20.2486 4.076C20.4246 3.84133 20.678 3.66533 21.0086 3.548C21.3393 3.42533 21.7393 3.364 22.2086 3.364C22.678 3.364 23.078 3.42533 23.4086 3.548C23.7446 3.66533 24.0006 3.84133 24.1766 4.076C24.3526 4.31067 24.4406 4.59067 24.4406 4.916C24.4406 5.252 24.35 5.54533 24.1686 5.796C23.9873 6.04133 23.7286 6.23067 23.3926 6.364C23.0566 6.49733 22.662 6.564 22.2086 6.564ZM22.2086 5.916C22.6566 5.916 23.006 5.82533 23.2566 5.644C23.5126 5.45733 23.6406 5.20667 23.6406 4.892C23.6406 4.58267 23.5126 4.34 23.2566 4.164C23.006 3.98267 22.6566 3.892 22.2086 3.892C21.766 3.892 21.4193 3.98267 21.1686 4.164C20.918 4.34 20.7926 4.58267 20.7926 4.892C20.7926 5.20667 20.918 5.45733 21.1686 5.644C21.4193 5.82533 21.766 5.916 22.2086 5.916ZM22.2086 3.284C22.598 3.284 22.902 3.204 23.1206 3.044C23.3446 2.884 23.4566 2.66533 23.4566 2.388C23.4566 2.10533 23.342 1.884 23.1126 1.724C22.8833 1.564 22.582 1.484 22.2086 1.484C21.8353 1.484 21.5366 1.564 21.3126 1.724C21.094 1.884 20.9846 2.10533 20.9846 2.388C20.9846 2.66533 21.0913 2.884 21.3046 3.044C21.5233 3.204 21.8246 3.284 22.2086 3.284ZM22.2086 3.796C21.782 3.796 21.4193 3.74 21.1206 3.628C20.822 3.51067 20.5926 3.34533 20.4326 3.132C20.2726 2.91333 20.1926 2.65467 20.1926 2.356C20.1926 2.04133 20.2753 1.772 20.4406 1.548C20.6113 1.31867 20.8486 1.14267 21.1526 1.02C21.4566 0.897333 21.8086 0.836 22.2086 0.836C22.614 0.836 22.9686 0.897333 23.2726 1.02C23.5766 1.14267 23.814 1.31867 23.9846 1.548C24.1553 1.772 24.2406 2.04133 24.2406 2.356C24.2406 2.65467 24.1606 2.91333 24.0006 3.132C23.8406 3.34533 23.6086 3.51067 23.3046 3.628C23.0006 3.74 22.6353 3.796 22.2086 3.796ZM26.6931 6.564C26.4317 6.564 26.1784 6.53733 25.9331 6.484C25.6931 6.43067 25.4824 6.348 25.3011 6.236L25.6051 5.612C25.7544 5.708 25.9197 5.77733 26.1011 5.82C26.2877 5.85733 26.4824 5.876 26.6851 5.876C27.2504 5.876 27.7011 5.7 28.0371 5.348C28.3731 4.99067 28.5411 4.46267 28.5411 3.764C28.5411 3.652 28.5357 3.51867 28.5251 3.364C28.5144 3.20933 28.4904 3.05733 28.4531 2.908L28.7171 3.18C28.6424 3.42533 28.5171 3.63333 28.3411 3.804C28.1704 3.96933 27.9624 4.09467 27.7171 4.18C27.4771 4.26 27.2131 4.3 26.9251 4.3C26.5571 4.3 26.2291 4.23067 25.9411 4.092C25.6531 3.95333 25.4264 3.75867 25.2611 3.508C25.0957 3.252 25.0131 2.95067 25.0131 2.604C25.0131 2.24133 25.0984 1.92933 25.2691 1.668C25.4451 1.40133 25.6824 1.196 25.9811 1.052C26.2851 0.908 26.6211 0.836 26.9891 0.836C27.4957 0.836 27.9224 0.945333 28.2691 1.164C28.6211 1.38267 28.8877 1.7 29.0691 2.116C29.2504 2.52667 29.3411 3.03067 29.3411 3.628C29.3411 4.26267 29.2291 4.79867 29.0051 5.236C28.7811 5.67333 28.4717 6.004 28.0771 6.228C27.6824 6.452 27.2211 6.564 26.6931 6.564ZM27.0611 3.652C27.3171 3.652 27.5411 3.604 27.7331 3.508C27.9304 3.412 28.0824 3.28133 28.1891 3.116C28.3011 2.95067 28.3571 2.76667 28.3571 2.564C28.3571 2.36667 28.3064 2.188 28.2051 2.028C28.1037 1.868 27.9544 1.73733 27.7571 1.636C27.5597 1.53467 27.3144 1.484 27.0211 1.484C26.7811 1.484 26.5677 1.52933 26.3811 1.62C26.1944 1.71067 26.0477 1.836 25.9411 1.996C25.8397 2.156 25.7891 2.348 25.7891 2.572C25.7891 2.90267 25.9037 3.16667 26.1331 3.364C26.3624 3.556 26.6717 3.652 27.0611 3.652ZM30.0306 5.124V4.564L32.8946 0.9H33.7586L30.9186 4.564L30.5106 4.436H34.9826V5.124H30.0306ZM33.1426 6.5V5.124L33.1666 4.436V3.22H33.9186V6.5H33.1426ZM37.7243 6.564C37.2709 6.564 36.8789 6.49733 36.5483 6.364C36.2176 6.23067 35.9616 6.04133 35.7803 5.796C35.5989 5.54533 35.5083 5.252 35.5083 4.916C35.5083 4.58533 35.5936 4.30533 35.7643 4.076C35.9403 3.84133 36.1936 3.66533 36.5243 3.548C36.8549 3.42533 37.2549 3.364 37.7243 3.364C38.1936 3.364 38.5936 3.42533 38.9243 3.548C39.2603 3.66533 39.5163 3.84133 39.6923 4.076C39.8683 4.31067 39.9563 4.59067 39.9563 4.916C39.9563 5.252 39.8656 5.54533 39.6843 5.796C39.5029 6.04133 39.2443 6.23067 38.9083 6.364C38.5723 6.49733 38.1776 6.564 37.7243 6.564ZM37.7243 5.916C38.1723 5.916 38.5216 5.82533 38.7723 5.644C39.0283 5.45733 39.1562 5.20667 39.1562 4.892C39.1562 4.58267 39.0283 4.34 38.7723 4.164C38.5216 3.98267 38.1723 3.892 37.7243 3.892C37.2816 3.892 36.9349 3.98267 36.6843 4.164C36.4336 4.34 36.3083 4.58267 36.3083 4.892C36.3083 5.20667 36.4336 5.45733 36.6843 5.644C36.9349 5.82533 37.2816 5.916 37.7243 5.916ZM37.7243 3.284C38.1136 3.284 38.4176 3.204 38.6363 3.044C38.8603 2.884 38.9723 2.66533 38.9723 2.388C38.9723 2.10533 38.8576 1.884 38.6283 1.724C38.3989 1.564 38.0976 1.484 37.7243 1.484C37.3509 1.484 37.0523 1.564 36.8283 1.724C36.6096 1.884 36.5003 2.10533 36.5003 2.388C36.5003 2.66533 36.6069 2.884 36.8203 3.044C37.0389 3.204 37.3403 3.284 37.7243 3.284ZM37.7243 3.796C37.2976 3.796 36.9349 3.74 36.6363 3.628C36.3376 3.51067 36.1083 3.34533 35.9483 3.132C35.7883 2.91333 35.7083 2.65467 35.7083 2.356C35.7083 2.04133 35.7909 1.772 35.9563 1.548C36.1269 1.31867 36.3643 1.14267 36.6683 1.02C36.9723 0.897333 37.3243 0.836 37.7243 0.836C38.1296 0.836 38.4843 0.897333 38.7883 1.02C39.0923 1.14267 39.3296 1.31867 39.5003 1.548C39.6709 1.772 39.7563 2.04133 39.7563 2.356C39.7563 2.65467 39.6763 2.91333 39.5163 3.132C39.3563 3.34533 39.1243 3.51067 38.8203 3.628C38.5163 3.74 38.1509 3.796 37.7243 3.796ZM42.7571 5.124V4.564L45.6211 0.9H46.4851L43.6451 4.564L43.2371 4.436H47.7091V5.124H42.7571ZM45.8691 6.5V5.124L45.8931 4.436V3.22H46.6451V6.5H45.8691ZM48.1087 5.124V4.564L50.9727 0.9H51.8367L48.9967 4.564L48.5887 4.436H53.0607V5.124H48.1087ZM51.2207 6.5V5.124L51.2447 4.436V3.22H51.9967V6.5H51.2207ZM55.8923 6.564C55.3963 6.564 54.9723 6.45467 54.6203 6.236C54.2683 6.01733 53.9989 5.70267 53.8123 5.292C53.6309 4.876 53.5403 4.36933 53.5403 3.772C53.5403 3.13733 53.6523 2.60133 53.8763 2.164C54.1003 1.72667 54.4123 1.396 54.8123 1.172C55.2123 0.948 55.6709 0.836 56.1883 0.836C56.4549 0.836 56.7083 0.862667 56.9483 0.916C57.1936 0.969333 57.4043 1.052 57.5803 1.164L57.2763 1.788C57.1323 1.68667 56.9669 1.61733 56.7803 1.58C56.5989 1.54267 56.4069 1.524 56.2043 1.524C55.6336 1.524 55.1803 1.70267 54.8443 2.06C54.5083 2.412 54.3403 2.93733 54.3403 3.636C54.3403 3.748 54.3456 3.88133 54.3563 4.036C54.3669 4.19067 54.3936 4.34267 54.4363 4.492L54.1643 4.22C54.2443 3.97467 54.3696 3.76933 54.5403 3.604C54.7163 3.43333 54.9243 3.308 55.1643 3.228C55.4096 3.14267 55.6736 3.1 55.9563 3.1C56.3296 3.1 56.6603 3.16933 56.9483 3.308C57.2363 3.44667 57.4629 3.644 57.6283 3.9C57.7936 4.15067 57.8763 4.44933 57.8763 4.796C57.8763 5.15333 57.7883 5.46533 57.6123 5.732C57.4363 5.99867 57.1989 6.204 56.9003 6.348C56.6016 6.492 56.2656 6.564 55.8923 6.564ZM55.8603 5.916C56.1056 5.916 56.3189 5.87067 56.5003 5.78C56.6869 5.68933 56.8336 5.564 56.9403 5.404C57.0469 5.23867 57.1003 5.04667 57.1003 4.828C57.1003 4.49733 56.9856 4.236 56.7563 4.044C56.5269 3.84667 56.2149 3.748 55.8203 3.748C55.5643 3.748 55.3403 3.796 55.1483 3.892C54.9563 3.988 54.8043 4.11867 54.6923 4.284C54.5856 4.444 54.5323 4.628 54.5323 4.836C54.5323 5.028 54.5829 5.20667 54.6843 5.372C54.7856 5.532 54.9349 5.66267 55.1323 5.764C55.3296 5.86533 55.5723 5.916 55.8603 5.916ZM60.7658 6.564C60.3284 6.564 59.9364 6.452 59.5898 6.228C59.2484 6.004 58.9764 5.67867 58.7738 5.252C58.5764 4.82533 58.4778 4.308 58.4778 3.7C58.4778 3.092 58.5764 2.57467 58.7738 2.148C58.9764 1.72133 59.2484 1.396 59.5898 1.172C59.9364 0.948 60.3284 0.836 60.7658 0.836C61.1978 0.836 61.5871 0.948 61.9338 1.172C62.2804 1.396 62.5524 1.72133 62.7498 2.148C62.9471 2.57467 63.0458 3.092 63.0458 3.7C63.0458 4.308 62.9471 4.82533 62.7498 5.252C62.5524 5.67867 62.2804 6.004 61.9338 6.228C61.5871 6.452 61.1978 6.564 60.7658 6.564ZM60.7658 5.852C61.0591 5.852 61.3151 5.772 61.5338 5.612C61.7578 5.452 61.9311 5.212 62.0538 4.892C62.1818 4.572 62.2458 4.17467 62.2458 3.7C62.2458 3.22533 62.1818 2.828 62.0538 2.508C61.9311 2.188 61.7578 1.948 61.5338 1.788C61.3151 1.628 61.0591 1.548 60.7658 1.548C60.4724 1.548 60.2138 1.628 59.9898 1.788C59.7658 1.948 59.5898 2.188 59.4618 2.508C59.3391 2.828 59.2778 3.22533 59.2778 3.7C59.2778 4.17467 59.3391 4.572 59.4618 4.892C59.5898 5.212 59.7658 5.452 59.9898 5.612C60.2138 5.772 60.4724 5.852 60.7658 5.852ZM65.3337 6.564C65.0724 6.564 64.819 6.53733 64.5737 6.484C64.3337 6.43067 64.123 6.348 63.9417 6.236L64.2457 5.612C64.395 5.708 64.5604 5.77733 64.7417 5.82C64.9284 5.85733 65.123 5.876 65.3257 5.876C65.891 5.876 66.3417 5.7 66.6777 5.348C67.0137 4.99067 67.1817 4.46267 67.1817 3.764C67.1817 3.652 67.1764 3.51867 67.1657 3.364C67.155 3.20933 67.131 3.05733 67.0937 2.908L67.3577 3.18C67.283 3.42533 67.1577 3.63333 66.9817 3.804C66.811 3.96933 66.603 4.09467 66.3577 4.18C66.1177 4.26 65.8537 4.3 65.5657 4.3C65.1977 4.3 64.8697 4.23067 64.5817 4.092C64.2937 3.95333 64.067 3.75867 63.9017 3.508C63.7364 3.252 63.6537 2.95067 63.6537 2.604C63.6537 2.24133 63.739 1.92933 63.9097 1.668C64.0857 1.40133 64.323 1.196 64.6217 1.052C64.9257 0.908 65.2617 0.836 65.6297 0.836C66.1364 0.836 66.563 0.945333 66.9097 1.164C67.2617 1.38267 67.5284 1.7 67.7097 2.116C67.891 2.52667 67.9817 3.03067 67.9817 3.628C67.9817 4.26267 67.8697 4.79867 67.6457 5.236C67.4217 5.67333 67.1124 6.004 66.7177 6.228C66.323 6.452 65.8617 6.564 65.3337 6.564ZM65.7017 3.652C65.9577 3.652 66.1817 3.604 66.3737 3.508C66.571 3.412 66.723 3.28133 66.8297 3.116C66.9417 2.95067 66.9977 2.76667 66.9977 2.564C66.9977 2.36667 66.947 2.188 66.8457 2.028C66.7444 1.868 66.595 1.73733 66.3977 1.636C66.2004 1.53467 65.955 1.484 65.6617 1.484C65.4217 1.484 65.2084 1.52933 65.0217 1.62C64.835 1.71067 64.6884 1.836 64.5817 1.996C64.4804 2.156 64.4297 2.348 64.4297 2.572C64.4297 2.90267 64.5444 3.16667 64.7737 3.364C65.003 3.556 65.3124 3.652 65.7017 3.652ZM71.3556 8.052V0.564H72.0676V8.052H71.3556ZM74.8983 5.452V1.948H75.5703V5.452H74.8983ZM73.4423 4.02V3.388H77.0263V4.02H73.4423ZM79.4665 6.564C79.2052 6.564 78.9518 6.53733 78.7065 6.484C78.4665 6.43067 78.2558 6.348 78.0745 6.236L78.3785 5.612C78.5278 5.708 78.6932 5.77733 78.8745 5.82C79.0612 5.85733 79.2558 5.876 79.4585 5.876C80.0238 5.876 80.4745 5.7 80.8105 5.348C81.1465 4.99067 81.3145 4.46267 81.3145 3.764C81.3145 3.652 81.3092 3.51867 81.2985 3.364C81.2878 3.20933 81.2638 3.05733 81.2265 2.908L81.4905 3.18C81.4158 3.42533 81.2905 3.63333 81.1145 3.804C80.9438 3.96933 80.7358 4.09467 80.4905 4.18C80.2505 4.26 79.9865 4.3 79.6985 4.3C79.3305 4.3 79.0025 4.23067 78.7145 4.092C78.4265 3.95333 78.1998 3.75867 78.0345 3.508C77.8692 3.252 77.7865 2.95067 77.7865 2.604C77.7865 2.24133 77.8718 1.92933 78.0425 1.668C78.2185 1.40133 78.4558 1.196 78.7545 1.052C79.0585 0.908 79.3945 0.836 79.7625 0.836C80.2692 0.836 80.6958 0.945333 81.0425 1.164C81.3945 1.38267 81.6612 1.7 81.8425 2.116C82.0238 2.52667 82.1145 3.03067 82.1145 3.628C82.1145 4.26267 82.0025 4.79867 81.7785 5.236C81.5545 5.67333 81.2452 6.004 80.8505 6.228C80.4558 6.452 79.9945 6.564 79.4665 6.564ZM79.8345 3.652C80.0905 3.652 80.3145 3.604 80.5065 3.508C80.7038 3.412 80.8558 3.28133 80.9625 3.116C81.0745 2.95067 81.1305 2.76667 81.1305 2.564C81.1305 2.36667 81.0798 2.188 80.9785 2.028C80.8772 1.868 80.7278 1.73733 80.5305 1.636C80.3332 1.53467 80.0878 1.484 79.7945 1.484C79.5545 1.484 79.3412 1.52933 79.1545 1.62C78.9678 1.71067 78.8212 1.836 78.7145 1.996C78.6132 2.156 78.5625 2.348 78.5625 2.572C78.5625 2.90267 78.6772 3.16667 78.9065 3.364C79.1358 3.556 79.4452 3.652 79.8345 3.652ZM83.828 6.5V1.22L84.172 1.596H82.564V0.9H84.62V6.5H83.828ZM89.5134 6.564C89.252 6.564 88.9987 6.53733 88.7534 6.484C88.5134 6.43067 88.3027 6.348 88.1214 6.236L88.4254 5.612C88.5747 5.708 88.74 5.77733 88.9214 5.82C89.108 5.85733 89.3027 5.876 89.5054 5.876C90.0707 5.876 90.5214 5.7 90.8574 5.348C91.1934 4.99067 91.3614 4.46267 91.3614 3.764C91.3614 3.652 91.356 3.51867 91.3454 3.364C91.3347 3.20933 91.3107 3.05733 91.2734 2.908L91.5374 3.18C91.4627 3.42533 91.3374 3.63333 91.1614 3.804C90.9907 3.96933 90.7827 4.09467 90.5374 4.18C90.2974 4.26 90.0334 4.3 89.7454 4.3C89.3774 4.3 89.0494 4.23067 88.7614 4.092C88.4734 3.95333 88.2467 3.75867 88.0814 3.508C87.916 3.252 87.8334 2.95067 87.8334 2.604C87.8334 2.24133 87.9187 1.92933 88.0894 1.668C88.2654 1.40133 88.5027 1.196 88.8014 1.052C89.1054 0.908 89.4414 0.836 89.8094 0.836C90.316 0.836 90.7427 0.945333 91.0894 1.164C91.4414 1.38267 91.708 1.7 91.8894 2.116C92.0707 2.52667 92.1614 3.03067 92.1614 3.628C92.1614 4.26267 92.0494 4.79867 91.8254 5.236C91.6014 5.67333 91.292 6.004 90.8974 6.228C90.5027 6.452 90.0414 6.564 89.5134 6.564ZM89.8814 3.652C90.1374 3.652 90.3614 3.604 90.5534 3.508C90.7507 3.412 90.9027 3.28133 91.0094 3.116C91.1214 2.95067 91.1774 2.76667 91.1774 2.564C91.1774 2.36667 91.1267 2.188 91.0254 2.028C90.924 1.868 90.7747 1.73733 90.5774 1.636C90.38 1.53467 90.1347 1.484 89.8414 1.484C89.6014 1.484 89.388 1.52933 89.2014 1.62C89.0147 1.71067 88.868 1.836 88.7614 1.996C88.66 2.156 88.6094 2.348 88.6094 2.572C88.6094 2.90267 88.724 3.16667 88.9534 3.364C89.1827 3.556 89.492 3.652 89.8814 3.652ZM95.2189 6.564C94.7815 6.564 94.3895 6.452 94.0429 6.228C93.7015 6.004 93.4295 5.67867 93.2269 5.252C93.0295 4.82533 92.9309 4.308 92.9309 3.7C92.9309 3.092 93.0295 2.57467 93.2269 2.148C93.4295 1.72133 93.7015 1.396 94.0429 1.172C94.3895 0.948 94.7815 0.836 95.2189 0.836C95.6509 0.836 96.0402 0.948 96.3869 1.172C96.7335 1.396 97.0055 1.72133 97.2029 2.148C97.4002 2.57467 97.4989 3.092 97.4989 3.7C97.4989 4.308 97.4002 4.82533 97.2029 5.252C97.0055 5.67867 96.7335 6.004 96.3869 6.228C96.0402 6.452 95.6509 6.564 95.2189 6.564ZM95.2189 5.852C95.5122 5.852 95.7682 5.772 95.9869 5.612C96.2109 5.452 96.3842 5.212 96.5069 4.892C96.6349 4.572 96.6989 4.17467 96.6989 3.7C96.6989 3.22533 96.6349 2.828 96.5069 2.508C96.3842 2.188 96.2109 1.948 95.9869 1.788C95.7682 1.628 95.5122 1.548 95.2189 1.548C94.9255 1.548 94.6669 1.628 94.4429 1.788C94.2189 1.948 94.0429 2.188 93.9149 2.508C93.7922 2.828 93.7309 3.22533 93.7309 3.7C93.7309 4.17467 93.7922 4.572 93.9149 4.892C94.0429 5.212 94.2189 5.452 94.4429 5.612C94.6669 5.772 94.9255 5.852 95.2189 5.852ZM99.7868 6.564C99.5255 6.564 99.2721 6.53733 99.0268 6.484C98.7868 6.43067 98.5761 6.348 98.3948 6.236L98.6988 5.612C98.8481 5.708 99.0135 5.77733 99.1948 5.82C99.3815 5.85733 99.5761 5.876 99.7788 5.876C100.344 5.876 100.795 5.7 101.131 5.348C101.467 4.99067 101.635 4.46267 101.635 3.764C101.635 3.652 101.629 3.51867 101.619 3.364C101.608 3.20933 101.584 3.05733 101.547 2.908L101.811 3.18C101.736 3.42533 101.611 3.63333 101.435 3.804C101.264 3.96933 101.056 4.09467 100.811 4.18C100.571 4.26 100.307 4.3 100.019 4.3C99.6508 4.3 99.3228 4.23067 99.0348 4.092C98.7468 3.95333 98.5201 3.75867 98.3548 3.508C98.1895 3.252 98.1068 2.95067 98.1068 2.604C98.1068 2.24133 98.1921 1.92933 98.3628 1.668C98.5388 1.40133 98.7761 1.196 99.0748 1.052C99.3788 0.908 99.7148 0.836 100.083 0.836C100.589 0.836 101.016 0.945333 101.363 1.164C101.715 1.38267 101.981 1.7 102.163 2.116C102.344 2.52667 102.435 3.03067 102.435 3.628C102.435 4.26267 102.323 4.79867 102.099 5.236C101.875 5.67333 101.565 6.004 101.171 6.228C100.776 6.452 100.315 6.564 99.7868 6.564ZM100.155 3.652C100.411 3.652 100.635 3.604 100.827 3.508C101.024 3.412 101.176 3.28133 101.283 3.116C101.395 2.95067 101.451 2.76667 101.451 2.564C101.451 2.36667 101.4 2.188 101.299 2.028C101.197 1.868 101.048 1.73733 100.851 1.636C100.653 1.53467 100.408 1.484 100.115 1.484C99.8748 1.484 99.6615 1.52933 99.4748 1.62C99.2881 1.71067 99.1415 1.836 99.0348 1.996C98.9335 2.156 98.8828 2.348 98.8828 2.572C98.8828 2.90267 98.9975 3.16667 99.2268 3.364C99.4561 3.556 99.7655 3.652 100.155 3.652ZM103.116 6.5V5.956L105.396 3.756C105.599 3.564 105.748 3.396 105.844 3.252C105.946 3.10267 106.012 2.96667 106.044 2.844C106.082 2.716 106.1 2.59333 106.1 2.476C106.1 2.188 105.999 1.96133 105.796 1.796C105.594 1.63067 105.298 1.548 104.908 1.548C104.61 1.548 104.34 1.59867 104.1 1.7C103.86 1.796 103.652 1.948 103.476 2.156L102.932 1.684C103.146 1.412 103.431 1.204 103.788 1.06C104.151 0.910667 104.548 0.836 104.98 0.836C105.37 0.836 105.708 0.9 105.996 1.028C106.284 1.15067 106.506 1.32933 106.66 1.564C106.82 1.79867 106.9 2.076 106.9 2.396C106.9 2.57733 106.876 2.756 106.828 2.932C106.78 3.108 106.69 3.29467 106.556 3.492C106.423 3.68933 106.231 3.91067 105.98 4.156L103.948 6.116L103.756 5.804H107.14V6.5H103.116ZM107.71 6.5V5.956L109.99 3.756C110.193 3.564 110.342 3.396 110.438 3.252C110.539 3.10267 110.606 2.96667 110.638 2.844C110.675 2.716 110.694 2.59333 110.694 2.476C110.694 2.188 110.593 1.96133 110.39 1.796C110.187 1.63067 109.891 1.548 109.502 1.548C109.203 1.548 108.934 1.59867 108.694 1.7C108.454 1.796 108.246 1.948 108.07 2.156L107.526 1.684C107.739 1.412 108.025 1.204 108.382 1.06C108.745 0.910667 109.142 0.836 109.574 0.836C109.963 0.836 110.302 0.9 110.59 1.028C110.878 1.15067 111.099 1.32933 111.254 1.564C111.414 1.79867 111.494 2.076 111.494 2.396C111.494 2.57733 111.47 2.756 111.422 2.932C111.374 3.108 111.283 3.29467 111.15 3.492C111.017 3.68933 110.825 3.91067 110.574 4.156L108.542 6.116L108.35 5.804H111.734V6.5H107.71ZM116.06 6.564C115.799 6.564 115.546 6.53733 115.3 6.484C115.06 6.43067 114.85 6.348 114.668 6.236L114.972 5.612C115.122 5.708 115.287 5.77733 115.468 5.82C115.655 5.85733 115.85 5.876 116.052 5.876C116.618 5.876 117.068 5.7 117.404 5.348C117.74 4.99067 117.908 4.46267 117.908 3.764C117.908 3.652 117.903 3.51867 117.892 3.364C117.882 3.20933 117.858 3.05733 117.82 2.908L118.084 3.18C118.01 3.42533 117.884 3.63333 117.708 3.804C117.538 3.96933 117.33 4.09467 117.084 4.18C116.844 4.26 116.58 4.3 116.292 4.3C115.924 4.3 115.596 4.23067 115.308 4.092C115.02 3.95333 114.794 3.75867 114.628 3.508C114.463 3.252 114.38 2.95067 114.38 2.604C114.38 2.24133 114.466 1.92933 114.636 1.668C114.812 1.40133 115.05 1.196 115.348 1.052C115.652 0.908 115.988 0.836 116.356 0.836C116.863 0.836 117.29 0.945333 117.636 1.164C117.988 1.38267 118.255 1.7 118.436 2.116C118.618 2.52667 118.708 3.03067 118.708 3.628C118.708 4.26267 118.596 4.79867 118.372 5.236C118.148 5.67333 117.839 6.004 117.444 6.228C117.05 6.452 116.588 6.564 116.06 6.564ZM116.428 3.652C116.684 3.652 116.908 3.604 117.1 3.508C117.298 3.412 117.45 3.28133 117.556 3.116C117.668 2.95067 117.724 2.76667 117.724 2.564C117.724 2.36667 117.674 2.188 117.572 2.028C117.471 1.868 117.322 1.73733 117.124 1.636C116.927 1.53467 116.682 1.484 116.388 1.484C116.148 1.484 115.935 1.52933 115.748 1.62C115.562 1.71067 115.415 1.836 115.308 1.996C115.207 2.156 115.156 2.348 115.156 2.572C115.156 2.90267 115.271 3.16667 115.5 3.364C115.73 3.556 116.039 3.652 116.428 3.652ZM119.398 5.124V4.564L122.262 0.9H123.126L120.286 4.564L119.878 4.436H124.35V5.124H119.398ZM122.51 6.5V5.124L122.534 4.436V3.22H123.286V6.5H122.51ZM125.57 6.5V1.22L125.914 1.596H124.306V0.9H126.362V6.5H125.57ZM127.507 5.124V4.564L130.371 0.9H131.235L128.395 4.564L127.987 4.436H132.459V5.124H127.507ZM130.619 6.5V5.124L130.643 4.436V3.22H131.395V6.5H130.619ZM133.68 6.5V1.22L134.024 1.596H132.416V0.9H134.472V6.5H133.68Z" fill="white"/>
</svg>
