<svg width="16" height="16" viewBox="0 0 16 16" fill="none" xmlns="http://www.w3.org/2000/svg">
<circle cx="8" cy="8" r="8" fill="white"/>
<path d="M11.516 10.0524C10.9146 10.0524 10.3328 9.95467 9.79017 9.77867C9.70514 9.75002 9.61377 9.74584 9.52647 9.76658C9.43917 9.78732 9.35946 9.83217 9.2964 9.896L8.52884 10.8591C7.14528 10.1991 5.84973 8.95244 5.1604 7.52L6.11373 6.70844C6.24573 6.57156 6.28484 6.38089 6.23106 6.20978C6.05017 5.66711 5.95728 5.08533 5.95728 4.484C5.95728 4.22 5.73728 4 5.47328 4H3.78173C3.51773 4 3.19995 4.11733 3.19995 4.484C3.19995 9.02578 6.97906 12.8 11.516 12.8C11.8631 12.8 12 12.492 12 12.2231V10.5364C12 10.2724 11.78 10.0524 11.516 10.0524Z" fill="black"/>
</svg>
