<svg width="63" height="54" viewBox="0 0 63 54" fill="none" xmlns="http://www.w3.org/2000/svg">
<rect x="11.2837" width="39.4925" height="40.2985" fill="white"/>
<g clip-path="url(#clip0_172_82)">
<path d="M17.9329 7.45581H22.1642V11.6872H17.9329V7.45581Z" fill="black"/>
<path d="M26.3954 3.22437V15.9184H13.7014V3.22437H26.3954ZM24.2798 5.34004H15.8171V13.8027H24.2798V5.34004ZM22.1641 28.6124H17.9328V32.8438H22.1641V28.6124Z" fill="black"/>
<path d="M26.3954 24.3812V37.0752H13.7014V24.3812H26.3954ZM15.8171 26.4969V34.9595H24.2798V26.4969H15.8171ZM39.0895 7.45581H43.3208V11.6872H39.0895V7.45581Z" fill="black"/>
<path d="M34.8581 3.22437V15.9184H47.5522V3.22437H34.8581ZM45.4365 5.34004V13.8027H36.9738V5.34004H45.4365ZM30.6268 5.34004V3.22437H32.7425V7.45571H30.6268V11.6871H28.5111V5.34004H30.6268ZM30.6268 15.9184V11.6871H32.7425V15.9184H30.6268ZM26.3954 20.1497V18.0341H28.5111V15.9184H30.6268V20.1497H32.7425V18.0341H43.3208V20.1497H34.8581V22.2654H28.5111V20.1497H26.3954ZM26.3954 20.1497V22.2654H17.9328V20.1497H15.8171V22.2654H13.7014V18.0341H20.0484V20.1497H26.3954ZM47.5522 22.2654H45.4365V18.0341H47.5522V22.2654ZM45.4365 22.2654H43.3208V26.4968H47.5522V24.3811H45.4365V22.2654ZM36.9738 22.2654H41.2051V24.3811H39.0895V26.4968H36.9738V22.2654ZM41.2051 28.6124V26.4968H39.0895V28.6124H36.9738V30.7281H32.7425V32.8438H39.0895V28.6124H41.2051ZM41.2051 28.6124H47.5522V30.7281H43.3208V32.8438H41.2051V28.6124ZM32.7425 26.4968V28.6124H34.8581V24.3811H28.5111V26.4968H32.7425Z" fill="black"/>
<path d="M28.5112 28.6125H30.6269V34.9596H39.0896V37.0752H28.5112V28.6125ZM47.5523 32.8439V37.0752H41.2053V34.9596H45.4366V32.8439H47.5523Z" fill="black"/>
</g>
<path d="M2.07297 52.7915C1.77207 52.7915 1.48434 52.7463 1.20978 52.6561C0.935209 52.562 0.71894 52.4417 0.56097 52.295L0.769716 51.8549C0.920164 51.9866 1.11198 52.0957 1.34518 52.1822C1.57837 52.2687 1.82097 52.3119 2.07297 52.3119C2.3024 52.3119 2.48858 52.2856 2.63151 52.2329C2.77443 52.1803 2.87975 52.1088 2.94745 52.0185C3.01515 51.9245 3.049 51.8192 3.049 51.7026C3.049 51.5672 3.00387 51.4581 2.9136 51.3754C2.82709 51.2926 2.71237 51.2268 2.56945 51.1779C2.43028 51.1253 2.27607 51.0801 2.10682 51.0425C1.93757 51.0049 1.76643 50.9617 1.59342 50.9128C1.42416 50.8601 1.26807 50.7943 1.12515 50.7153C0.985985 50.6363 0.873149 50.531 0.786642 50.3994C0.700134 50.2639 0.65688 50.0909 0.65688 49.8803C0.65688 49.6772 0.709537 49.491 0.814851 49.3218C0.923925 49.1488 1.08942 49.0115 1.31133 48.9099C1.537 48.8046 1.82285 48.7519 2.16888 48.7519C2.39831 48.7519 2.62587 48.782 2.85154 48.8422C3.07721 48.9024 3.27279 48.9889 3.43828 49.1017L3.2521 49.5531C3.08285 49.4402 2.90419 49.3594 2.71613 49.3105C2.52807 49.2578 2.34566 49.2315 2.16888 49.2315C1.94697 49.2315 1.76455 49.2597 1.62163 49.3161C1.4787 49.3725 1.37339 49.4478 1.30569 49.5418C1.24175 49.6358 1.20978 49.7411 1.20978 49.8577C1.20978 49.9969 1.25303 50.1079 1.33954 50.1906C1.42981 50.2734 1.54452 50.3392 1.68369 50.3881C1.82661 50.437 1.9827 50.4821 2.15196 50.5235C2.32121 50.5611 2.49046 50.6043 2.65972 50.6532C2.83273 50.7021 2.98882 50.7661 3.12798 50.8451C3.27091 50.924 3.38563 51.0294 3.47213 51.161C3.55864 51.2926 3.6019 51.4619 3.6019 51.6688C3.6019 51.8681 3.54736 52.0543 3.43828 52.2273C3.32921 52.3965 3.15996 52.5338 2.93052 52.6391C2.70485 52.7407 2.419 52.7915 2.07297 52.7915ZM5.65039 52.7802C5.34574 52.7802 5.07305 52.7144 4.83233 52.5827C4.59538 52.4511 4.4092 52.2705 4.2738 52.0411C4.13839 51.8117 4.07069 51.5484 4.07069 51.2513C4.07069 50.9541 4.13839 50.6908 4.2738 50.4614C4.4092 50.232 4.59538 50.0533 4.83233 49.9254C5.07305 49.7938 5.34574 49.728 5.65039 49.728C5.9212 49.728 6.16192 49.7825 6.37254 49.8916C6.58693 49.9969 6.75242 50.1549 6.86902 50.3655L6.45717 50.6307C6.35938 50.484 6.23902 50.3768 6.0961 50.3091C5.95693 50.2376 5.80648 50.2019 5.64475 50.2019C5.44917 50.2019 5.27427 50.2451 5.12007 50.3317C4.96586 50.4182 4.84362 50.5404 4.75335 50.6984C4.66308 50.8526 4.61795 51.0369 4.61795 51.2513C4.61795 51.4657 4.66308 51.6518 4.75335 51.8098C4.84362 51.9678 4.96586 52.09 5.12007 52.1765C5.27427 52.263 5.44917 52.3063 5.64475 52.3063C5.80648 52.3063 5.95693 52.2724 6.0961 52.2047C6.23902 52.1333 6.35938 52.0242 6.45717 51.8775L6.86902 52.137C6.75242 52.3439 6.58693 52.5037 6.37254 52.6166C6.16192 52.7257 5.9212 52.7802 5.65039 52.7802ZM9.42638 52.7463V52.1145L9.39817 51.996V50.9184C9.39817 50.689 9.33047 50.5122 9.19507 50.3881C9.06343 50.2602 8.86409 50.1962 8.59704 50.1962C8.42026 50.1962 8.24725 50.2263 8.078 50.2865C7.90874 50.3429 7.76582 50.42 7.64922 50.5178L7.42355 50.1116C7.57776 49.9875 7.76206 49.8935 7.97644 49.8295C8.19459 49.7618 8.42214 49.728 8.6591 49.728C9.06907 49.728 9.38501 49.8277 9.60692 50.027C9.82883 50.2263 9.93979 50.531 9.93979 50.941V52.7463H9.42638ZM8.44471 52.7802C8.2228 52.7802 8.02722 52.7426 7.85797 52.6674C7.69247 52.5921 7.56459 52.4887 7.47432 52.3571C7.38406 52.2217 7.33892 52.0693 7.33892 51.9001C7.33892 51.7383 7.37653 51.5917 7.45176 51.46C7.53074 51.3284 7.65674 51.2231 7.82976 51.1441C8.00653 51.0651 8.24349 51.0256 8.54062 51.0256H9.48844V51.4149H8.56319C8.29238 51.4149 8.10997 51.46 8.01594 51.5503C7.92191 51.6405 7.87489 51.7496 7.87489 51.8775C7.87489 52.0242 7.93319 52.1427 8.04979 52.2329C8.16638 52.3194 8.32812 52.3627 8.53498 52.3627C8.73809 52.3627 8.91486 52.3176 9.06531 52.2273C9.21952 52.137 9.33047 52.0054 9.39817 51.8324L9.50537 52.2047C9.43391 52.3815 9.30791 52.5225 9.12737 52.6279C8.94683 52.7294 8.71928 52.7802 8.44471 52.7802ZM12.5387 49.728C12.7832 49.728 12.9976 49.775 13.1819 49.869C13.3699 49.9631 13.5166 50.106 13.6219 50.2978C13.7272 50.4896 13.7799 50.7322 13.7799 51.0256V52.7463H13.2383V51.0877C13.2383 50.798 13.1668 50.5799 13.0239 50.4332C12.8847 50.2865 12.6873 50.2132 12.4315 50.2132C12.2397 50.2132 12.0723 50.2508 11.9294 50.326C11.7865 50.4012 11.6755 50.5122 11.5965 50.6589C11.5213 50.8056 11.4837 50.988 11.4837 51.2061V52.7463H10.9421V49.7562H11.4611V50.563L11.3765 50.3486C11.4743 50.153 11.6247 50.0007 11.8278 49.8916C12.031 49.7825 12.2679 49.728 12.5387 49.728ZM16.8841 50.6645H18.9208V51.1497H16.8841V50.6645ZM16.9405 52.7463H16.3764V48.7971H19.1634V49.2879H16.9405V52.7463ZM21.0656 52.7802C20.7647 52.7802 20.4977 52.7144 20.2645 52.5827C20.0313 52.4511 19.847 52.2705 19.7116 52.0411C19.5762 51.8079 19.5085 51.5446 19.5085 51.2513C19.5085 50.9541 19.5762 50.6908 19.7116 50.4614C19.847 50.232 20.0313 50.0533 20.2645 49.9254C20.4977 49.7938 20.7647 49.728 21.0656 49.728C21.3628 49.728 21.6279 49.7938 21.8611 49.9254C22.0981 50.0533 22.2824 50.232 22.414 50.4614C22.5494 50.6871 22.6171 50.9504 22.6171 51.2513C22.6171 51.5484 22.5494 51.8117 22.414 52.0411C22.2824 52.2705 22.0981 52.4511 21.8611 52.5827C21.6279 52.7144 21.3628 52.7802 21.0656 52.7802ZM21.0656 52.3063C21.2574 52.3063 21.4286 52.263 21.579 52.1765C21.7332 52.09 21.8536 51.9678 21.9401 51.8098C22.0266 51.6481 22.0699 51.4619 22.0699 51.2513C22.0699 51.0369 22.0266 50.8526 21.9401 50.6984C21.8536 50.5404 21.7332 50.4182 21.579 50.3317C21.4286 50.2451 21.2574 50.2019 21.0656 50.2019C20.8738 50.2019 20.7027 50.2451 20.5522 50.3317C20.4018 50.4182 20.2814 50.5404 20.1911 50.6984C20.1009 50.8526 20.0557 51.0369 20.0557 51.2513C20.0557 51.4619 20.1009 51.6481 20.1911 51.8098C20.2814 51.9678 20.4018 52.09 20.5522 52.1765C20.7027 52.263 20.8738 52.3063 21.0656 52.3063ZM23.3661 52.7463V49.7562H23.8852V50.5686L23.8344 50.3655C23.9172 50.1586 24.0563 50.0007 24.2519 49.8916C24.4475 49.7825 24.6882 49.728 24.9741 49.728V50.2527C24.9515 50.2489 24.9289 50.247 24.9064 50.247C24.8875 50.247 24.8687 50.247 24.8499 50.247C24.5603 50.247 24.3309 50.3335 24.1616 50.5065C23.9924 50.6796 23.9078 50.9297 23.9078 51.2569V52.7463H23.3661ZM27.2743 52.7463V48.7971H27.7369L29.5084 51.7816H29.2602L31.0091 48.7971H31.4718L31.4774 52.7463H30.9358L30.9302 49.649H31.0599L29.5028 52.2668H29.2433L27.6748 49.649H27.8159V52.7463H27.2743ZM33.8643 52.7802C33.5634 52.7802 33.2964 52.7144 33.0632 52.5827C32.83 52.4511 32.6457 52.2705 32.5103 52.0411C32.3749 51.8079 32.3072 51.5446 32.3072 51.2513C32.3072 50.9541 32.3749 50.6908 32.5103 50.4614C32.6457 50.232 32.83 50.0533 33.0632 49.9254C33.2964 49.7938 33.5634 49.728 33.8643 49.728C34.1615 49.728 34.4266 49.7938 34.6598 49.9254C34.8968 50.0533 35.0811 50.232 35.2127 50.4614C35.3481 50.6871 35.4158 50.9504 35.4158 51.2513C35.4158 51.5484 35.3481 51.8117 35.2127 52.0411C35.0811 52.2705 34.8968 52.4511 34.6598 52.5827C34.4266 52.7144 34.1615 52.7802 33.8643 52.7802ZM33.8643 52.3063C34.0562 52.3063 34.2273 52.263 34.3777 52.1765C34.5319 52.09 34.6523 51.9678 34.7388 51.8098C34.8253 51.6481 34.8686 51.4619 34.8686 51.2513C34.8686 51.0369 34.8253 50.8526 34.7388 50.6984C34.6523 50.5404 34.5319 50.4182 34.3777 50.3317C34.2273 50.2451 34.0562 50.2019 33.8643 50.2019C33.6725 50.2019 33.5014 50.2451 33.3509 50.3317C33.2005 50.4182 33.0801 50.5404 32.9899 50.6984C32.8996 50.8526 32.8544 51.0369 32.8544 51.2513C32.8544 51.4619 32.8996 51.6481 32.9899 51.8098C33.0801 51.9678 33.2005 52.09 33.3509 52.1765C33.5014 52.263 33.6725 52.3063 33.8643 52.3063ZM36.1649 52.7463V49.7562H36.6839V50.5686L36.6331 50.3655C36.7159 50.1586 36.855 50.0007 37.0506 49.8916C37.2462 49.7825 37.4869 49.728 37.7728 49.728V50.2527C37.7502 50.2489 37.7276 50.247 37.7051 50.247C37.6863 50.247 37.6675 50.247 37.6486 50.247C37.359 50.247 37.1296 50.3335 36.9603 50.5065C36.7911 50.6796 36.7065 50.9297 36.7065 51.2569V52.7463H36.1649ZM39.7442 52.7802C39.4245 52.7802 39.1424 52.7144 38.898 52.5827C38.6572 52.4511 38.4692 52.2705 38.3338 52.0411C38.2021 51.8117 38.1363 51.5484 38.1363 51.2513C38.1363 50.9541 38.2002 50.6908 38.3281 50.4614C38.4598 50.232 38.6384 50.0533 38.8641 49.9254C39.0935 49.7938 39.3512 49.728 39.637 49.728C39.9266 49.728 40.1824 49.7919 40.4043 49.9198C40.6262 50.0477 40.7992 50.2282 40.9234 50.4614C41.0512 50.6908 41.1152 50.9598 41.1152 51.2682C41.1152 51.2908 41.1133 51.3171 41.1095 51.3472C41.1095 51.3773 41.1077 51.4055 41.1039 51.4318H38.5594V51.0425H40.8218L40.6018 51.1779C40.6055 50.9861 40.566 50.815 40.4833 50.6645C40.4005 50.5141 40.2858 50.3975 40.1391 50.3147C39.9962 50.2282 39.8288 50.185 39.637 50.185C39.449 50.185 39.2816 50.2282 39.1349 50.3147C38.9882 50.3975 38.8735 50.5159 38.7908 50.6702C38.708 50.8206 38.6666 50.9936 38.6666 51.1892V51.2795C38.6666 51.4788 38.7118 51.6575 38.802 51.8154C38.8961 51.9697 39.0258 52.09 39.1913 52.1765C39.3568 52.263 39.5468 52.3063 39.7611 52.3063C39.9379 52.3063 40.0978 52.2762 40.2407 52.216C40.3874 52.1558 40.5153 52.0656 40.6243 51.9452L40.9234 52.295C40.7879 52.453 40.6187 52.5733 40.4156 52.6561C40.2162 52.7388 39.9925 52.7802 39.7442 52.7802ZM43.4614 52.7463V48.7971H45.1257C45.547 48.7971 45.9174 48.8798 46.2371 49.0453C46.5606 49.2108 46.8107 49.4421 46.9875 49.7393C47.168 50.0364 47.2583 50.3805 47.2583 50.7717C47.2583 51.1629 47.168 51.507 46.9875 51.8042C46.8107 52.1013 46.5606 52.3326 46.2371 52.4981C45.9174 52.6636 45.547 52.7463 45.1257 52.7463H43.4614ZM44.0255 52.2555H45.0918C45.4191 52.2555 45.7012 52.1934 45.9381 52.0693C46.1788 51.9452 46.365 51.7722 46.4967 51.5503C46.6283 51.3246 46.6941 51.0651 46.6941 50.7717C46.6941 50.4746 46.6283 50.2151 46.4967 49.9931C46.365 49.7712 46.1788 49.5982 45.9381 49.4741C45.7012 49.35 45.4191 49.2879 45.0918 49.2879H44.0255V52.2555ZM49.3749 52.7802C49.0552 52.7802 48.7731 52.7144 48.5287 52.5827C48.2879 52.4511 48.0999 52.2705 47.9645 52.0411C47.8328 51.8117 47.767 51.5484 47.767 51.2513C47.767 50.9541 47.831 50.6908 47.9588 50.4614C48.0905 50.232 48.2691 50.0533 48.4948 49.9254C48.7242 49.7938 48.9819 49.728 49.2677 49.728C49.5574 49.728 49.8131 49.7919 50.035 49.9198C50.2569 50.0477 50.4299 50.2282 50.5541 50.4614C50.6819 50.6908 50.7459 50.9598 50.7459 51.2682C50.7459 51.2908 50.744 51.3171 50.7402 51.3472C50.7402 51.3773 50.7384 51.4055 50.7346 51.4318H48.1902V51.0425H50.4525L50.2325 51.1779C50.2362 50.9861 50.1968 50.815 50.114 50.6645C50.0313 50.5141 49.9165 50.3975 49.7699 50.3147C49.6269 50.2282 49.4596 50.185 49.2677 50.185C49.0797 50.185 48.9123 50.2282 48.7656 50.3147C48.6189 50.3975 48.5042 50.5159 48.4215 50.6702C48.3387 50.8206 48.2974 50.9936 48.2974 51.1892V51.2795C48.2974 51.4788 48.3425 51.6575 48.4328 51.8154C48.5268 51.9697 48.6565 52.09 48.822 52.1765C48.9875 52.263 49.1775 52.3063 49.3919 52.3063C49.5686 52.3063 49.7285 52.2762 49.8714 52.216C50.0181 52.1558 50.146 52.0656 50.2551 51.9452L50.5541 52.295C50.4187 52.453 50.2494 52.5733 50.0463 52.6561C49.847 52.7388 49.6232 52.7802 49.3749 52.7802ZM52.5248 52.7802C52.2239 52.7802 51.9907 52.6993 51.8252 52.5376C51.6597 52.3759 51.577 52.1445 51.577 51.8437V49.1017H52.1186V51.8211C52.1186 51.9828 52.1581 52.1069 52.237 52.1934C52.3198 52.2799 52.4364 52.3232 52.5868 52.3232C52.7561 52.3232 52.8971 52.2762 53.01 52.1822L53.1792 52.5714C53.0965 52.6429 52.9968 52.6956 52.8802 52.7294C52.7674 52.7633 52.6489 52.7802 52.5248 52.7802ZM51.0692 50.2019V49.7562H52.9761V50.2019H51.0692ZM55.6902 52.7463V52.1145L55.662 51.996V50.9184C55.662 50.689 55.5943 50.5122 55.4589 50.3881C55.3272 50.2602 55.1279 50.1962 54.8608 50.1962C54.6841 50.1962 54.511 50.2263 54.3418 50.2865C54.1725 50.3429 54.0296 50.42 53.913 50.5178L53.6873 50.1116C53.8415 49.9875 54.0258 49.8935 54.2402 49.8295C54.4584 49.7618 54.6859 49.728 54.9229 49.728C55.3329 49.728 55.6488 49.8277 55.8707 50.027C56.0926 50.2263 56.2036 50.531 56.2036 50.941V52.7463H55.6902ZM54.7085 52.7802C54.4866 52.7802 54.291 52.7426 54.1218 52.6674C53.9563 52.5921 53.8284 52.4887 53.7381 52.3571C53.6478 52.2217 53.6027 52.0693 53.6027 51.9001C53.6027 51.7383 53.6403 51.5917 53.7155 51.46C53.7945 51.3284 53.9205 51.2231 54.0935 51.1441C54.2703 51.0651 54.5073 51.0256 54.8044 51.0256H55.7522V51.4149H54.827C54.5562 51.4149 54.3738 51.46 54.2797 51.5503C54.1857 51.6405 54.1387 51.7496 54.1387 51.8775C54.1387 52.0242 54.197 52.1427 54.3136 52.2329C54.4302 52.3194 54.5919 52.3627 54.7988 52.3627C55.0019 52.3627 55.1786 52.3176 55.3291 52.2273C55.4833 52.137 55.5943 52.0054 55.662 51.8324L55.7692 52.2047C55.6977 52.3815 55.5717 52.5225 55.3912 52.6279C55.2106 52.7294 54.9831 52.7802 54.7085 52.7802ZM57.2059 52.7463V49.7562H57.7475V52.7463H57.2059ZM57.4767 49.1807C57.3714 49.1807 57.283 49.1469 57.2115 49.0792C57.1438 49.0115 57.11 48.9287 57.11 48.8309C57.11 48.7294 57.1438 48.6448 57.2115 48.5771C57.283 48.5094 57.3714 48.4755 57.4767 48.4755C57.582 48.4755 57.6685 48.5094 57.7362 48.5771C57.8077 48.641 57.8434 48.7219 57.8434 48.8197C57.8434 48.9212 57.8095 49.0077 57.7418 49.0792C57.6741 49.1469 57.5858 49.1807 57.4767 49.1807ZM58.7816 52.7463V48.5601H59.3232V52.7463H58.7816ZM61.2149 52.7802C60.9667 52.7802 60.7297 52.7463 60.504 52.6786C60.2821 52.6109 60.1072 52.5282 59.9793 52.4304L60.205 52.0016C60.3329 52.0881 60.4909 52.1615 60.6789 52.2217C60.867 52.2818 61.0588 52.3119 61.2544 52.3119C61.5064 52.3119 61.6869 52.2762 61.796 52.2047C61.9088 52.1333 61.9653 52.0336 61.9653 51.9057C61.9653 51.8117 61.9314 51.7383 61.8637 51.6857C61.796 51.633 61.7057 51.5935 61.5929 51.5672C61.4838 51.5409 61.3616 51.5183 61.2262 51.4995C61.0908 51.4769 60.9554 51.4506 60.82 51.4205C60.6846 51.3867 60.5604 51.3415 60.4476 51.2851C60.3348 51.2249 60.2445 51.1441 60.1768 51.0425C60.1091 50.9372 60.0753 50.798 60.0753 50.625C60.0753 50.4445 60.126 50.2865 60.2276 50.1511C60.3291 50.0157 60.4721 49.9123 60.6564 49.8408C60.8444 49.7656 61.0663 49.728 61.3221 49.728C61.5177 49.728 61.7151 49.7524 61.9145 49.8013C62.1176 49.8465 62.2831 49.9123 62.411 49.9988L62.1796 50.4276C62.0442 50.3373 61.9032 50.2752 61.7565 50.2414C61.6098 50.2075 61.4631 50.1906 61.3164 50.1906C61.0795 50.1906 60.9027 50.2301 60.7861 50.3091C60.6695 50.3843 60.6112 50.4821 60.6112 50.6025C60.6112 50.704 60.6451 50.783 60.7128 50.8394C60.7842 50.8921 60.8745 50.9334 60.9836 50.9635C61.0964 50.9936 61.2205 51.0199 61.3559 51.0425C61.4913 51.0613 61.6267 51.0877 61.7621 51.1215C61.8976 51.1516 62.0198 51.1948 62.1289 51.2513C62.2417 51.3077 62.332 51.3867 62.3997 51.4882C62.4711 51.5898 62.5069 51.7252 62.5069 51.8944C62.5069 52.075 62.4542 52.2311 62.3489 52.3627C62.2436 52.4943 62.095 52.5978 61.9032 52.673C61.7114 52.7445 61.4819 52.7802 61.2149 52.7802Z" fill="white"/>
<defs>
<clipPath id="clip0_172_82">
<rect width="33.8507" height="33.8507" fill="white" transform="translate(13.7014 3.22388)"/>
</clipPath>
</defs>
</svg>
