<svg width="206" height="16" viewBox="0 0 206 16" fill="none" xmlns="http://www.w3.org/2000/svg">
<path d="M4.016 12L0.352 0.799999H3.04L6.224 10.72H4.88L8.208 0.799999H10.608L13.808 10.72H12.512L15.776 0.799999H18.256L14.592 12H11.808L8.976 3.296H9.712L6.8 12H4.016ZM24.9934 3.264C25.676 3.264 26.284 3.40267 26.8174 3.68C27.3614 3.94667 27.788 4.36267 28.0974 4.928C28.4067 5.48267 28.5614 6.19733 28.5614 7.072V12H26.0654V7.456C26.0654 6.76267 25.9107 6.25067 25.6014 5.92C25.3027 5.58933 24.876 5.424 24.3214 5.424C23.9267 5.424 23.5694 5.50933 23.2494 5.68C22.94 5.84 22.6947 6.09067 22.5134 6.432C22.3427 6.77333 22.2574 7.21067 22.2574 7.744V12H19.7614V0.127999H22.2574V5.776L21.6974 5.056C22.0067 4.48 22.4494 4.03733 23.0254 3.728C23.6014 3.41867 24.2574 3.264 24.9934 3.264ZM31.7556 15.232C31.3076 15.232 30.865 15.1627 30.4276 15.024C29.9903 14.8853 29.633 14.6933 29.3556 14.448L30.2676 12.672C30.4596 12.8427 30.6783 12.976 30.9236 13.072C31.1796 13.168 31.4303 13.216 31.6756 13.216C32.0276 13.216 32.305 13.1307 32.5076 12.96C32.721 12.8 32.913 12.528 33.0836 12.144L33.5316 11.088L33.7236 10.816L36.8116 3.392H39.2116L35.3236 12.528C35.0463 13.2213 34.7263 13.7653 34.3636 14.16C34.0116 14.5547 33.617 14.832 33.1796 14.992C32.753 15.152 32.2783 15.232 31.7556 15.232ZM33.2276 12.336L29.3876 3.392H31.9636L34.9396 10.592L33.2276 12.336ZM50.2974 12.192C49.4334 12.192 48.628 12.0533 47.8814 11.776C47.1454 11.488 46.5054 11.0827 45.9614 10.56C45.4174 10.0373 44.9907 9.424 44.6814 8.72C44.3827 8.016 44.2334 7.24267 44.2334 6.4C44.2334 5.55733 44.3827 4.784 44.6814 4.08C44.9907 3.376 45.4174 2.76267 45.9614 2.24C46.516 1.71733 47.1614 1.31733 47.8974 1.04C48.6334 0.752 49.4387 0.608 50.3134 0.608C51.284 0.608 52.1587 0.778666 52.9374 1.12C53.7267 1.45067 54.388 1.94133 54.9214 2.592L53.2574 4.128C52.8734 3.69067 52.4467 3.36533 51.9774 3.152C51.508 2.928 50.996 2.816 50.4414 2.816C49.9187 2.816 49.4387 2.90133 49.0014 3.072C48.564 3.24267 48.1854 3.488 47.8654 3.808C47.5454 4.128 47.2947 4.50667 47.1134 4.944C46.9427 5.38133 46.8574 5.86667 46.8574 6.4C46.8574 6.93333 46.9427 7.41867 47.1134 7.856C47.2947 8.29333 47.5454 8.672 47.8654 8.992C48.1854 9.312 48.564 9.55733 49.0014 9.728C49.4387 9.89867 49.9187 9.984 50.4414 9.984C50.996 9.984 51.508 9.87733 51.9774 9.664C52.4467 9.44 52.8734 9.104 53.2574 8.656L54.9214 10.192C54.388 10.8427 53.7267 11.3387 52.9374 11.68C52.1587 12.0213 51.2787 12.192 50.2974 12.192ZM61.7278 3.264C62.4104 3.264 63.0184 3.40267 63.5518 3.68C64.0958 3.94667 64.5224 4.36267 64.8318 4.928C65.1411 5.48267 65.2958 6.19733 65.2958 7.072V12H62.7998V7.456C62.7998 6.76267 62.6451 6.25067 62.3358 5.92C62.0371 5.58933 61.6104 5.424 61.0558 5.424C60.6611 5.424 60.3038 5.50933 59.9838 5.68C59.6744 5.84 59.4291 6.09067 59.2478 6.432C59.0771 6.77333 58.9918 7.21067 58.9918 7.744V12H56.4958V0.127999H58.9918V5.776L58.4318 5.056C58.7411 4.48 59.1838 4.03733 59.7598 3.728C60.3358 3.41867 60.9918 3.264 61.7278 3.264ZM71.7168 12.128C70.7994 12.128 69.9834 11.936 69.2688 11.552C68.5648 11.168 68.0048 10.6453 67.5888 9.984C67.1834 9.312 66.9808 8.54933 66.9808 7.696C66.9808 6.832 67.1834 6.06933 67.5888 5.408C68.0048 4.736 68.5648 4.21333 69.2688 3.84C69.9834 3.456 70.7994 3.264 71.7168 3.264C72.6234 3.264 73.4341 3.456 74.1488 3.84C74.8634 4.21333 75.4234 4.73067 75.8288 5.392C76.2341 6.05333 76.4368 6.82133 76.4368 7.696C76.4368 8.54933 76.2341 9.312 75.8288 9.984C75.4234 10.6453 74.8634 11.168 74.1488 11.552C73.4341 11.936 72.6234 12.128 71.7168 12.128ZM71.7168 10.08C72.1328 10.08 72.5061 9.984 72.8368 9.792C73.1674 9.6 73.4288 9.328 73.6208 8.976C73.8128 8.61333 73.9088 8.18667 73.9088 7.696C73.9088 7.19467 73.8128 6.768 73.6208 6.416C73.4288 6.064 73.1674 5.792 72.8368 5.6C72.5061 5.408 72.1328 5.312 71.7168 5.312C71.3008 5.312 70.9274 5.408 70.5968 5.6C70.2661 5.792 69.9994 6.064 69.7968 6.416C69.6048 6.768 69.5088 7.19467 69.5088 7.696C69.5088 8.18667 69.6048 8.61333 69.7968 8.976C69.9994 9.328 70.2661 9.6 70.5968 9.792C70.9274 9.984 71.3008 10.08 71.7168 10.08ZM82.2011 12.128C81.2838 12.128 80.4678 11.936 79.7531 11.552C79.0491 11.168 78.4891 10.6453 78.0731 9.984C77.6678 9.312 77.4651 8.54933 77.4651 7.696C77.4651 6.832 77.6678 6.06933 78.0731 5.408C78.4891 4.736 79.0491 4.21333 79.7531 3.84C80.4678 3.456 81.2838 3.264 82.2011 3.264C83.1078 3.264 83.9185 3.456 84.6331 3.84C85.3478 4.21333 85.9078 4.73067 86.3131 5.392C86.7185 6.05333 86.9211 6.82133 86.9211 7.696C86.9211 8.54933 86.7185 9.312 86.3131 9.984C85.9078 10.6453 85.3478 11.168 84.6331 11.552C83.9185 11.936 83.1078 12.128 82.2011 12.128ZM82.2011 10.08C82.6171 10.08 82.9905 9.984 83.3211 9.792C83.6518 9.6 83.9131 9.328 84.1051 8.976C84.2971 8.61333 84.3931 8.18667 84.3931 7.696C84.3931 7.19467 84.2971 6.768 84.1051 6.416C83.9131 6.064 83.6518 5.792 83.3211 5.6C82.9905 5.408 82.6171 5.312 82.2011 5.312C81.7851 5.312 81.4118 5.408 81.0811 5.6C80.7505 5.792 80.4838 6.064 80.2811 6.416C80.0891 6.768 79.9931 7.19467 79.9931 7.696C79.9931 8.18667 80.0891 8.61333 80.2811 8.976C80.4838 9.328 80.7505 9.6 81.0811 9.792C81.4118 9.984 81.7851 10.08 82.2011 10.08ZM91.4855 12.128C90.7495 12.128 90.0402 12.0427 89.3575 11.872C88.6855 11.6907 88.1522 11.4667 87.7575 11.2L88.5895 9.408C88.9842 9.65333 89.4482 9.856 89.9815 10.016C90.5255 10.1653 91.0588 10.24 91.5815 10.24C92.1575 10.24 92.5628 10.1707 92.7975 10.032C93.0428 9.89333 93.1655 9.70133 93.1655 9.456C93.1655 9.25333 93.0695 9.104 92.8775 9.008C92.6962 8.90133 92.4508 8.82133 92.1415 8.768C91.8322 8.71467 91.4908 8.66133 91.1175 8.608C90.7548 8.55467 90.3868 8.48533 90.0135 8.4C89.6402 8.304 89.2988 8.16533 88.9895 7.984C88.6802 7.80267 88.4295 7.55733 88.2375 7.248C88.0562 6.93867 87.9655 6.53867 87.9655 6.048C87.9655 5.504 88.1202 5.024 88.4295 4.608C88.7495 4.192 89.2082 3.86667 89.8055 3.632C90.4028 3.38667 91.1175 3.264 91.9495 3.264C92.5362 3.264 93.1335 3.328 93.7415 3.456C94.3495 3.584 94.8562 3.77067 95.2615 4.016L94.4295 5.792C94.0135 5.54667 93.5922 5.38133 93.1655 5.296C92.7495 5.2 92.3442 5.152 91.9495 5.152C91.3948 5.152 90.9895 5.22667 90.7335 5.376C90.4775 5.52533 90.3495 5.71733 90.3495 5.952C90.3495 6.16533 90.4402 6.32533 90.6215 6.432C90.8135 6.53867 91.0642 6.624 91.3735 6.688C91.6828 6.752 92.0188 6.81067 92.3815 6.864C92.7548 6.90667 93.1282 6.976 93.5015 7.072C93.8748 7.168 94.2108 7.30667 94.5095 7.488C94.8188 7.65867 95.0695 7.89867 95.2615 8.208C95.4535 8.50667 95.5495 8.90133 95.5495 9.392C95.5495 9.92533 95.3895 10.4 95.0695 10.816C94.7495 11.2213 94.2855 11.5413 93.6775 11.776C93.0802 12.0107 92.3495 12.128 91.4855 12.128ZM101.362 12.128C100.38 12.128 99.5162 11.936 98.7695 11.552C98.0335 11.168 97.4628 10.6453 97.0575 9.984C96.6522 9.312 96.4495 8.54933 96.4495 7.696C96.4495 6.832 96.6468 6.06933 97.0415 5.408C97.4468 4.736 97.9962 4.21333 98.6895 3.84C99.3828 3.456 100.167 3.264 101.042 3.264C101.884 3.264 102.642 3.44533 103.314 3.808C103.996 4.16 104.535 4.672 104.93 5.344C105.324 6.00533 105.522 6.8 105.522 7.728C105.522 7.824 105.516 7.936 105.506 8.064C105.495 8.18133 105.484 8.29333 105.474 8.4H98.4815V6.944H104.161L103.202 7.376C103.202 6.928 103.111 6.53867 102.93 6.208C102.748 5.87733 102.498 5.62133 102.178 5.44C101.858 5.248 101.484 5.152 101.058 5.152C100.631 5.152 100.252 5.248 99.9215 5.44C99.6015 5.62133 99.3508 5.88267 99.1695 6.224C98.9882 6.55467 98.8975 6.94933 98.8975 7.408V7.792C98.8975 8.26133 98.9988 8.67733 99.2015 9.04C99.4148 9.392 99.7082 9.664 100.082 9.856C100.466 10.0373 100.914 10.128 101.426 10.128C101.884 10.128 102.284 10.0587 102.626 9.92C102.978 9.78133 103.298 9.57333 103.586 9.296L104.914 10.736C104.519 11.184 104.023 11.5307 103.426 11.776C102.828 12.0107 102.14 12.128 101.362 12.128Z" fill="white"/>
<path d="M111.059 9.648V7.904L116.339 0.799999H119.059L113.891 7.904L112.627 7.536H121.443V9.648H111.059ZM117.091 12V9.648L117.171 7.536V5.44H119.619V12H117.091ZM133.77 3.264C134.452 3.264 135.055 3.40267 135.578 3.68C136.111 3.94667 136.527 4.36267 136.826 4.928C137.135 5.48267 137.29 6.19733 137.29 7.072V12H134.794V7.456C134.794 6.76267 134.65 6.25067 134.362 5.92C134.074 5.58933 133.668 5.424 133.146 5.424C132.783 5.424 132.458 5.50933 132.17 5.68C131.882 5.84 131.658 6.08533 131.498 6.416C131.338 6.74667 131.258 7.168 131.258 7.68V12H128.762V7.456C128.762 6.76267 128.618 6.25067 128.33 5.92C128.052 5.58933 127.652 5.424 127.13 5.424C126.767 5.424 126.442 5.50933 126.154 5.68C125.866 5.84 125.642 6.08533 125.482 6.416C125.322 6.74667 125.242 7.168 125.242 7.68V12H122.746V3.392H125.13V5.744L124.682 5.056C124.98 4.46933 125.402 4.02667 125.946 3.728C126.5 3.41867 127.13 3.264 127.834 3.264C128.623 3.264 129.311 3.46667 129.898 3.872C130.495 4.26667 130.89 4.87467 131.082 5.696L130.202 5.456C130.49 4.784 130.948 4.25067 131.578 3.856C132.218 3.46133 132.948 3.264 133.77 3.264ZM144.234 12V0.799999H149.082C150.085 0.799999 150.949 0.965333 151.674 1.296C152.4 1.616 152.96 2.08 153.354 2.688C153.749 3.296 153.946 4.02133 153.946 4.864C153.946 5.696 153.749 6.416 153.354 7.024C152.96 7.632 152.4 8.10133 151.674 8.432C150.949 8.752 150.085 8.912 149.082 8.912H145.674L146.826 7.744V12H144.234ZM146.826 8.032L145.674 6.8H148.938C149.738 6.8 150.336 6.62933 150.73 6.288C151.125 5.94667 151.322 5.472 151.322 4.864C151.322 4.24533 151.125 3.76533 150.73 3.424C150.336 3.08267 149.738 2.912 148.938 2.912H145.674L146.826 1.68V8.032ZM160.823 12V10.32L160.663 9.952V6.944C160.663 6.41067 160.497 5.99467 160.167 5.696C159.847 5.39733 159.351 5.248 158.679 5.248C158.22 5.248 157.767 5.32267 157.319 5.472C156.881 5.61067 156.508 5.80267 156.199 6.048L155.303 4.304C155.772 3.97333 156.337 3.71733 156.999 3.536C157.66 3.35467 158.332 3.264 159.015 3.264C160.327 3.264 161.345 3.57333 162.071 4.192C162.796 4.81067 163.159 5.776 163.159 7.088V12H160.823ZM158.199 12.128C157.527 12.128 156.951 12.016 156.471 11.792C155.991 11.5573 155.623 11.2427 155.367 10.848C155.111 10.4533 154.983 10.0107 154.983 9.52C154.983 9.008 155.105 8.56 155.351 8.176C155.607 7.792 156.007 7.49333 156.551 7.28C157.095 7.056 157.804 6.944 158.679 6.944H160.967V8.4H158.951C158.364 8.4 157.959 8.496 157.735 8.688C157.521 8.88 157.415 9.12 157.415 9.408C157.415 9.728 157.537 9.984 157.783 10.176C158.039 10.3573 158.385 10.448 158.823 10.448C159.239 10.448 159.612 10.352 159.943 10.16C160.273 9.95733 160.513 9.664 160.663 9.28L161.047 10.432C160.865 10.9867 160.535 11.408 160.055 11.696C159.575 11.984 158.956 12.128 158.199 12.128ZM169.64 12.128C168.712 12.128 167.885 11.9413 167.16 11.568C166.435 11.184 165.864 10.656 165.448 9.984C165.043 9.312 164.84 8.54933 164.84 7.696C164.84 6.832 165.043 6.06933 165.448 5.408C165.864 4.736 166.435 4.21333 167.16 3.84C167.885 3.456 168.712 3.264 169.64 3.264C170.547 3.264 171.336 3.456 172.008 3.84C172.68 4.21333 173.176 4.752 173.496 5.456L171.56 6.496C171.336 6.09067 171.053 5.792 170.712 5.6C170.381 5.408 170.019 5.312 169.624 5.312C169.197 5.312 168.813 5.408 168.472 5.6C168.131 5.792 167.859 6.064 167.656 6.416C167.464 6.768 167.368 7.19467 167.368 7.696C167.368 8.19733 167.464 8.624 167.656 8.976C167.859 9.328 168.131 9.6 168.472 9.792C168.813 9.984 169.197 10.08 169.624 10.08C170.019 10.08 170.381 9.98933 170.712 9.808C171.053 9.616 171.336 9.312 171.56 8.896L173.496 9.952C173.176 10.6453 172.68 11.184 172.008 11.568C171.336 11.9413 170.547 12.128 169.64 12.128ZM176.95 10.24L177.014 7.2L181.03 3.392H184.006L180.15 7.312L178.854 8.368L176.95 10.24ZM174.886 12V0.127999H177.382V12H174.886ZM181.302 12L178.39 8.384L179.958 6.448L184.326 12H181.302ZM188.064 12.128C187.328 12.128 186.618 12.0427 185.936 11.872C185.264 11.6907 184.73 11.4667 184.336 11.2L185.168 9.408C185.562 9.65333 186.026 9.856 186.56 10.016C187.104 10.1653 187.637 10.24 188.16 10.24C188.736 10.24 189.141 10.1707 189.376 10.032C189.621 9.89333 189.744 9.70133 189.744 9.456C189.744 9.25333 189.648 9.104 189.456 9.008C189.274 8.90133 189.029 8.82133 188.72 8.768C188.41 8.71467 188.069 8.66133 187.696 8.608C187.333 8.55467 186.965 8.48533 186.592 8.4C186.218 8.304 185.877 8.16533 185.568 7.984C185.258 7.80267 185.008 7.55733 184.816 7.248C184.634 6.93867 184.544 6.53867 184.544 6.048C184.544 5.504 184.698 5.024 185.008 4.608C185.328 4.192 185.786 3.86667 186.384 3.632C186.981 3.38667 187.696 3.264 188.528 3.264C189.114 3.264 189.712 3.328 190.32 3.456C190.928 3.584 191.434 3.77067 191.84 4.016L191.008 5.792C190.592 5.54667 190.17 5.38133 189.744 5.296C189.328 5.2 188.922 5.152 188.528 5.152C187.973 5.152 187.568 5.22667 187.312 5.376C187.056 5.52533 186.928 5.71733 186.928 5.952C186.928 6.16533 187.018 6.32533 187.2 6.432C187.392 6.53867 187.642 6.624 187.952 6.688C188.261 6.752 188.597 6.81067 188.96 6.864C189.333 6.90667 189.706 6.976 190.08 7.072C190.453 7.168 190.789 7.30667 191.088 7.488C191.397 7.65867 191.648 7.89867 191.84 8.208C192.032 8.50667 192.128 8.90133 192.128 9.392C192.128 9.92533 191.968 10.4 191.648 10.816C191.328 11.2213 190.864 11.5413 190.256 11.776C189.658 12.0107 188.928 12.128 188.064 12.128ZM200.519 8.112C200.519 7.73867 200.578 7.408 200.695 7.12C200.823 6.832 200.978 6.576 201.159 6.352C201.351 6.128 201.554 5.92 201.767 5.728C201.98 5.536 202.178 5.35467 202.359 5.184C202.551 5.00267 202.706 4.816 202.823 4.624C202.951 4.432 203.015 4.21867 203.015 3.984C203.015 3.6 202.855 3.29067 202.535 3.056C202.226 2.82133 201.81 2.704 201.287 2.704C200.786 2.704 200.338 2.81067 199.943 3.024C199.548 3.22667 199.223 3.51467 198.967 3.888L197.031 2.752C197.458 2.10133 198.05 1.584 198.807 1.2C199.564 0.805333 200.482 0.608 201.559 0.608C202.359 0.608 203.063 0.725333 203.671 0.959999C204.279 1.184 204.754 1.51467 205.095 1.952C205.447 2.38933 205.623 2.928 205.623 3.568C205.623 3.984 205.559 4.352 205.431 4.672C205.303 4.992 205.138 5.26933 204.935 5.504C204.732 5.73867 204.514 5.95733 204.279 6.16C204.055 6.36267 203.842 6.56 203.639 6.752C203.436 6.944 203.266 7.14667 203.127 7.36C202.999 7.57333 202.935 7.824 202.935 8.112H200.519ZM201.735 12.128C201.287 12.128 200.919 11.984 200.631 11.696C200.343 11.408 200.199 11.0667 200.199 10.672C200.199 10.2667 200.343 9.93067 200.631 9.664C200.919 9.38667 201.287 9.248 201.735 9.248C202.194 9.248 202.562 9.38667 202.839 9.664C203.127 9.93067 203.271 10.2667 203.271 10.672C203.271 11.0667 203.127 11.408 202.839 11.696C202.562 11.984 202.194 12.128 201.735 12.128Z" fill="#DF3228"/>
</svg>
