<svg width="45" height="30" viewBox="0 0 45 30" fill="none" xmlns="http://www.w3.org/2000/svg">
<path d="M11 29.4C8.78667 29.4 6.90667 28.84 5.36 27.72C3.84 26.5733 2.68 24.92 1.88 22.76C1.10667 20.6 0.72 17.96 0.72 14.84C0.72 11.6933 1.10667 9.05333 1.88 6.92C2.68 4.76 3.84 3.13333 5.36 2.04C6.90667 0.946665 8.78667 0.399999 11 0.399999C13.24 0.399999 15.12 0.946665 16.64 2.04C18.1867 3.13333 19.3467 4.74667 20.12 6.88C20.8933 9.01333 21.28 11.6533 21.28 14.8C21.28 17.92 20.88 20.5733 20.08 22.76C19.3067 24.92 18.16 26.5733 16.64 27.72C15.12 28.84 13.24 29.4 11 29.4ZM11 25.2C12.8133 25.2 14.1467 24.3733 15 22.72C15.88 21.04 16.32 18.4 16.32 14.8C16.32 11.2267 15.88 8.64 15 7.04C14.1467 5.41333 12.8133 4.6 11 4.6C9.21333 4.6 7.88 5.41333 7 7.04C6.12 8.64 5.68 11.24 5.68 14.84C5.68 18.4133 6.12 21.04 7 22.72C7.88 24.3733 9.21333 25.2 11 25.2ZM27.3444 29V24.76H33.7044V5.12H36.1844L28.7844 9.6L26.7844 5.84L35.1844 0.799998H38.8244V24.76H44.7844V29H27.3444Z" fill="white"/>
</svg>
