<svg width="24" height="24" viewBox="0 0 24 24" fill="none" xmlns="http://www.w3.org/2000/svg">
<mask id="path-1-inside-1_235_267" fill="white">
<path d="M24 12C24 18.6274 18.6274 24 12 24C5.37258 24 0 18.6274 0 12C0 5.37258 5.37258 0 12 0C18.6274 0 24 5.37258 24 12ZM2.31547 12C2.31547 17.3486 6.65138 21.6845 12 21.6845C17.3486 21.6845 21.6845 17.3486 21.6845 12C21.6845 6.65138 17.3486 2.31547 12 2.31547C6.65138 2.31547 2.31547 6.65138 2.31547 12Z"/>
</mask>
<path d="M24 12C24 18.6274 18.6274 24 12 24C5.37258 24 0 18.6274 0 12C0 5.37258 5.37258 0 12 0C18.6274 0 24 5.37258 24 12ZM2.31547 12C2.31547 17.3486 6.65138 21.6845 12 21.6845C17.3486 21.6845 21.6845 17.3486 21.6845 12C21.6845 6.65138 17.3486 2.31547 12 2.31547C6.65138 2.31547 2.31547 6.65138 2.31547 12Z" stroke="#5E4E4E" stroke-width="3.09677" mask="url(#path-1-inside-1_235_267)"/>
<circle cx="12.0002" cy="11.9997" r="9.67742" fill="black"/>
<path d="M9.0654 16.277C8.56372 16.277 8.13947 16.15 7.79263 15.8961C7.45198 15.6359 7.19185 15.2581 7.01224 14.7626C6.83882 14.261 6.75211 13.6447 6.75211 12.9139C6.75211 12.183 6.83882 11.5699 7.01224 11.0744C7.19185 10.5727 7.45198 10.1949 7.79263 9.94097C8.13947 9.68704 8.56372 9.56007 9.0654 9.56007C9.57327 9.56007 9.99753 9.68704 10.3382 9.94097C10.685 10.1949 10.9451 10.5696 11.1186 11.0651C11.292 11.5606 11.3787 12.1737 11.3787 12.9046C11.3787 13.6354 11.2889 14.2517 11.1093 14.7534C10.9359 15.255 10.6757 15.6359 10.3289 15.8961C9.98824 16.15 9.56708 16.277 9.0654 16.277ZM9.0654 15.5709C9.57947 15.5709 9.96037 15.3572 10.2081 14.9299C10.4559 14.4963 10.5797 13.8212 10.5797 12.9046C10.5797 11.9941 10.4559 11.3283 10.2081 10.9072C9.96037 10.4798 9.57947 10.2661 9.0654 10.2661C8.55134 10.2661 8.17043 10.4798 7.92269 10.9072C7.67495 11.3345 7.55108 12.0034 7.55108 12.9139C7.55108 13.8181 7.67495 14.487 7.92269 14.9206C8.17043 15.3541 8.55134 15.5709 9.0654 15.5709ZM15.3792 16.1934V14.8184H12.332V14.2145L15.3885 9.64368H16.1596V14.1402H17.0886V14.8184H16.1596V16.1934H15.3792ZM15.3978 14.1402V10.6285H15.5L13.038 14.3074L12.9823 14.1402H15.3978Z" fill="white"/>
</svg>
