<svg width="220" height="16" viewBox="0 0 220 16" fill="none" xmlns="http://www.w3.org/2000/svg">
<path d="M2.83155 15V3.48L4.09155 4.74H0.311547V2.4H5.74755V15H2.83155ZM7.82837 15V13.11L12.6884 8.52C13.0724 8.172 13.3544 7.86 13.5344 7.584C13.7144 7.308 13.8344 7.056 13.8944 6.828C13.9664 6.6 14.0024 6.39 14.0024 6.198C14.0024 5.694 13.8284 5.31 13.4804 5.046C13.1444 4.77 12.6464 4.632 11.9864 4.632C11.4584 4.632 10.9664 4.734 10.5104 4.938C10.0664 5.142 9.68838 5.46 9.37638 5.892L7.25238 4.524C7.73238 3.804 8.40438 3.234 9.26838 2.814C10.1324 2.394 11.1284 2.184 12.2564 2.184C13.1924 2.184 14.0084 2.34 14.7044 2.652C15.4124 2.952 15.9584 3.378 16.3424 3.93C16.7384 4.482 16.9364 5.142 16.9364 5.91C16.9364 6.318 16.8824 6.726 16.7744 7.134C16.6784 7.53 16.4744 7.95 16.1624 8.394C15.8624 8.838 15.4184 9.336 14.8304 9.888L10.7984 13.686L10.2404 12.624H17.3504V15H7.82837ZM23.9536 15.216C22.9216 15.216 21.9976 14.964 21.1816 14.46C20.3656 13.944 19.7236 13.2 19.2556 12.228C18.7876 11.256 18.5536 10.08 18.5536 8.7C18.5536 7.32 18.7876 6.144 19.2556 5.172C19.7236 4.2 20.3656 3.462 21.1816 2.958C21.9976 2.442 22.9216 2.184 23.9536 2.184C24.9976 2.184 25.9216 2.442 26.7256 2.958C27.5416 3.462 28.1836 4.2 28.6516 5.172C29.1196 6.144 29.3536 7.32 29.3536 8.7C29.3536 10.08 29.1196 11.256 28.6516 12.228C28.1836 13.2 27.5416 13.944 26.7256 14.46C25.9216 14.964 24.9976 15.216 23.9536 15.216ZM23.9536 12.75C24.4456 12.75 24.8716 12.612 25.2316 12.336C25.6036 12.06 25.8916 11.622 26.0956 11.022C26.3116 10.422 26.4196 9.648 26.4196 8.7C26.4196 7.752 26.3116 6.978 26.0956 6.378C25.8916 5.778 25.6036 5.34 25.2316 5.064C24.8716 4.788 24.4456 4.65 23.9536 4.65C23.4736 4.65 23.0476 4.788 22.6756 5.064C22.3156 5.34 22.0276 5.778 21.8116 6.378C21.6076 6.978 21.5056 7.752 21.5056 8.7C21.5056 9.648 21.6076 10.422 21.8116 11.022C22.0276 11.622 22.3156 12.06 22.6756 12.336C23.0476 12.612 23.4736 12.75 23.9536 12.75ZM43.7664 5.172C44.5344 5.172 45.2124 5.328 45.8004 5.64C46.4004 5.94 46.8684 6.408 47.2044 7.044C47.5524 7.668 47.7264 8.472 47.7264 9.456V15H44.9184V9.888C44.9184 9.108 44.7564 8.532 44.4324 8.16C44.1084 7.788 43.6524 7.602 43.0644 7.602C42.6564 7.602 42.2904 7.698 41.9664 7.89C41.6424 8.07 41.3904 8.346 41.2104 8.718C41.0304 9.09 40.9404 9.564 40.9404 10.14V15H38.1324V9.888C38.1324 9.108 37.9704 8.532 37.6464 8.16C37.3344 7.788 36.8844 7.602 36.2964 7.602C35.8884 7.602 35.5224 7.698 35.1984 7.89C34.8744 8.07 34.6224 8.346 34.4424 8.718C34.2624 9.09 34.1724 9.564 34.1724 10.14V15H31.3644V5.316H34.0464V7.962L33.5424 7.188C33.8784 6.528 34.3524 6.03 34.9644 5.694C35.5884 5.346 36.2964 5.172 37.0884 5.172C37.9764 5.172 38.7504 5.4 39.4104 5.856C40.0824 6.3 40.5264 6.984 40.7424 7.908L39.7524 7.638C40.0764 6.882 40.5924 6.282 41.3004 5.838C42.0204 5.394 42.8424 5.172 43.7664 5.172ZM50.2433 15V1.644H53.0513V15H50.2433ZM60.953 15V2.4H66.407C67.535 2.4 68.507 2.586 69.323 2.958C70.139 3.318 70.769 3.84 71.213 4.524C71.657 5.208 71.879 6.024 71.879 6.972C71.879 7.908 71.657 8.718 71.213 9.402C70.769 10.074 70.139 10.59 69.323 10.95C68.507 11.31 67.535 11.49 66.407 11.49H62.573L63.869 10.212V15H60.953ZM68.963 15L65.813 10.428H68.927L72.113 15H68.963ZM63.869 10.536L62.573 9.168H66.245C67.145 9.168 67.817 8.976 68.261 8.592C68.705 8.196 68.927 7.656 68.927 6.972C68.927 6.276 68.705 5.736 68.261 5.352C67.817 4.968 67.145 4.776 66.245 4.776H62.573L63.869 3.39V10.536ZM78.5993 15.144C77.5673 15.144 76.6493 14.928 75.8453 14.496C75.0533 14.064 74.4233 13.476 73.9553 12.732C73.4993 11.976 73.2713 11.118 73.2713 10.158C73.2713 9.186 73.4993 8.328 73.9553 7.584C74.4233 6.828 75.0533 6.24 75.8453 5.82C76.6493 5.388 77.5673 5.172 78.5993 5.172C79.6193 5.172 80.5313 5.388 81.3353 5.82C82.1393 6.24 82.7693 6.822 83.2253 7.566C83.6813 8.31 83.9093 9.174 83.9093 10.158C83.9093 11.118 83.6813 11.976 83.2253 12.732C82.7693 13.476 82.1393 14.064 81.3353 14.496C80.5313 14.928 79.6193 15.144 78.5993 15.144ZM78.5993 12.84C79.0673 12.84 79.4873 12.732 79.8593 12.516C80.2313 12.3 80.5253 11.994 80.7413 11.598C80.9573 11.19 81.0653 10.71 81.0653 10.158C81.0653 9.594 80.9573 9.114 80.7413 8.718C80.5253 8.322 80.2313 8.016 79.8593 7.8C79.4873 7.584 79.0673 7.476 78.5993 7.476C78.1313 7.476 77.7113 7.584 77.3393 7.8C76.9673 8.016 76.6673 8.322 76.4393 8.718C76.2233 9.114 76.1153 9.594 76.1153 10.158C76.1153 10.71 76.2233 11.19 76.4393 11.598C76.6673 11.994 76.9673 12.3 77.3393 12.516C77.7113 12.732 78.1313 12.84 78.5993 12.84ZM89.8722 15.144C89.0682 15.144 88.3482 14.988 87.7122 14.676C87.0882 14.364 86.6022 13.89 86.2542 13.254C85.9062 12.606 85.7322 11.784 85.7322 10.788V5.316H88.5402V10.374C88.5402 11.178 88.7082 11.772 89.0442 12.156C89.3922 12.528 89.8782 12.714 90.5022 12.714C90.9342 12.714 91.3182 12.624 91.6542 12.444C91.9902 12.252 92.2542 11.964 92.4462 11.58C92.6382 11.184 92.7342 10.692 92.7342 10.104V5.316H95.5422V15H92.8782V12.336L93.3642 13.11C93.0402 13.782 92.5602 14.292 91.9242 14.64C91.3002 14.976 90.6162 15.144 89.8722 15.144ZM104.03 5.172C104.798 5.172 105.482 5.328 106.082 5.64C106.694 5.94 107.174 6.408 107.522 7.044C107.87 7.668 108.044 8.472 108.044 9.456V15H105.236V9.888C105.236 9.108 105.062 8.532 104.714 8.16C104.378 7.788 103.898 7.602 103.274 7.602C102.83 7.602 102.428 7.698 102.068 7.89C101.72 8.07 101.444 8.352 101.24 8.736C101.048 9.12 100.952 9.612 100.952 10.212V15H98.1437V5.316H100.826V7.998L100.322 7.188C100.67 6.54 101.168 6.042 101.816 5.694C102.464 5.346 103.202 5.172 104.03 5.172ZM114.817 15.144C113.905 15.144 113.083 14.94 112.351 14.532C111.619 14.112 111.037 13.53 110.605 12.786C110.185 12.042 109.975 11.166 109.975 10.158C109.975 9.138 110.185 8.256 110.605 7.512C111.037 6.768 111.619 6.192 112.351 5.784C113.083 5.376 113.905 5.172 114.817 5.172C115.633 5.172 116.347 5.352 116.959 5.712C117.571 6.072 118.045 6.618 118.381 7.35C118.717 8.082 118.885 9.018 118.885 10.158C118.885 11.286 118.723 12.222 118.399 12.966C118.075 13.698 117.607 14.244 116.995 14.604C116.395 14.964 115.669 15.144 114.817 15.144ZM115.303 12.84C115.759 12.84 116.173 12.732 116.545 12.516C116.917 12.3 117.211 11.994 117.427 11.598C117.655 11.19 117.769 10.71 117.769 10.158C117.769 9.594 117.655 9.114 117.427 8.718C117.211 8.322 116.917 8.016 116.545 7.8C116.173 7.584 115.759 7.476 115.303 7.476C114.835 7.476 114.415 7.584 114.043 7.8C113.671 8.016 113.371 8.322 113.143 8.718C112.927 9.114 112.819 9.594 112.819 10.158C112.819 10.71 112.927 11.19 113.143 11.598C113.371 11.994 113.671 12.3 114.043 12.516C114.415 12.732 114.835 12.84 115.303 12.84ZM117.841 15V13.02L117.895 10.14L117.715 7.278V1.644H120.523V15H117.841ZM134.448 15.216C133.476 15.216 132.57 15.06 131.73 14.748C130.902 14.424 130.182 13.968 129.57 13.38C128.958 12.792 128.478 12.102 128.13 11.31C127.794 10.518 127.626 9.648 127.626 8.7C127.626 7.752 127.794 6.882 128.13 6.09C128.478 5.298 128.958 4.608 129.57 4.02C130.194 3.432 130.92 2.982 131.748 2.67C132.576 2.346 133.482 2.184 134.466 2.184C135.558 2.184 136.542 2.376 137.418 2.76C138.306 3.132 139.05 3.684 139.65 4.416L137.778 6.144C137.346 5.652 136.866 5.286 136.338 5.046C135.81 4.794 135.234 4.668 134.61 4.668C134.022 4.668 133.482 4.764 132.99 4.956C132.498 5.148 132.072 5.424 131.712 5.784C131.352 6.144 131.07 6.57 130.866 7.062C130.674 7.554 130.578 8.1 130.578 8.7C130.578 9.3 130.674 9.846 130.866 10.338C131.07 10.83 131.352 11.256 131.712 11.616C132.072 11.976 132.498 12.252 132.99 12.444C133.482 12.636 134.022 12.732 134.61 12.732C135.234 12.732 135.81 12.612 136.338 12.372C136.866 12.12 137.346 11.742 137.778 11.238L139.65 12.966C139.05 13.698 138.306 14.256 137.418 14.64C136.542 15.024 135.552 15.216 134.448 15.216ZM145.695 15.144C144.663 15.144 143.745 14.928 142.941 14.496C142.149 14.064 141.519 13.476 141.051 12.732C140.595 11.976 140.367 11.118 140.367 10.158C140.367 9.186 140.595 8.328 141.051 7.584C141.519 6.828 142.149 6.24 142.941 5.82C143.745 5.388 144.663 5.172 145.695 5.172C146.715 5.172 147.627 5.388 148.431 5.82C149.235 6.24 149.865 6.822 150.321 7.566C150.777 8.31 151.005 9.174 151.005 10.158C151.005 11.118 150.777 11.976 150.321 12.732C149.865 13.476 149.235 14.064 148.431 14.496C147.627 14.928 146.715 15.144 145.695 15.144ZM145.695 12.84C146.163 12.84 146.583 12.732 146.955 12.516C147.327 12.3 147.621 11.994 147.837 11.598C148.053 11.19 148.161 10.71 148.161 10.158C148.161 9.594 148.053 9.114 147.837 8.718C147.621 8.322 147.327 8.016 146.955 7.8C146.583 7.584 146.163 7.476 145.695 7.476C145.227 7.476 144.807 7.584 144.435 7.8C144.063 8.016 143.763 8.322 143.535 8.718C143.319 9.114 143.211 9.594 143.211 10.158C143.211 10.71 143.319 11.19 143.535 11.598C143.763 11.994 144.063 12.3 144.435 12.516C144.807 12.732 145.227 12.84 145.695 12.84ZM158.768 5.172C159.536 5.172 160.22 5.328 160.82 5.64C161.432 5.94 161.912 6.408 162.26 7.044C162.608 7.668 162.782 8.472 162.782 9.456V15H159.974V9.888C159.974 9.108 159.8 8.532 159.452 8.16C159.116 7.788 158.636 7.602 158.012 7.602C157.568 7.602 157.166 7.698 156.806 7.89C156.458 8.07 156.182 8.352 155.978 8.736C155.786 9.12 155.69 9.612 155.69 10.212V15H152.882V5.316H155.564V7.998L155.06 7.188C155.408 6.54 155.906 6.042 156.554 5.694C157.202 5.346 157.94 5.172 158.768 5.172ZM169.287 15.144C168.147 15.144 167.259 14.856 166.623 14.28C165.987 13.692 165.669 12.822 165.669 11.67V3.174H168.477V11.634C168.477 12.042 168.585 12.36 168.801 12.588C169.017 12.804 169.311 12.912 169.683 12.912C170.127 12.912 170.505 12.792 170.817 12.552L171.573 14.532C171.285 14.736 170.937 14.892 170.529 15C170.133 15.096 169.719 15.144 169.287 15.144ZM164.175 7.692V5.532H170.889V7.692H164.175ZM179.09 15V13.11L178.91 12.696V9.312C178.91 8.712 178.724 8.244 178.352 7.908C177.992 7.572 177.434 7.404 176.678 7.404C176.162 7.404 175.652 7.488 175.148 7.656C174.656 7.812 174.236 8.028 173.888 8.304L172.88 6.342C173.408 5.97 174.044 5.682 174.788 5.478C175.532 5.274 176.288 5.172 177.056 5.172C178.532 5.172 179.678 5.52 180.494 6.216C181.31 6.912 181.718 7.998 181.718 9.474V15H179.09ZM176.138 15.144C175.382 15.144 174.734 15.018 174.194 14.766C173.654 14.502 173.24 14.148 172.952 13.704C172.664 13.26 172.52 12.762 172.52 12.21C172.52 11.634 172.658 11.13 172.934 10.698C173.222 10.266 173.672 9.93 174.284 9.69C174.896 9.438 175.694 9.312 176.678 9.312H179.252V10.95H176.984C176.324 10.95 175.868 11.058 175.616 11.274C175.376 11.49 175.256 11.76 175.256 12.084C175.256 12.444 175.394 12.732 175.67 12.948C175.958 13.152 176.348 13.254 176.84 13.254C177.308 13.254 177.728 13.146 178.1 12.93C178.472 12.702 178.742 12.372 178.91 11.94L179.342 13.236C179.138 13.86 178.766 14.334 178.226 14.658C177.686 14.982 176.99 15.144 176.138 15.144ZM184.259 15V5.316H187.067V15H184.259ZM185.663 3.966C185.147 3.966 184.727 3.816 184.403 3.516C184.079 3.216 183.917 2.844 183.917 2.4C183.917 1.956 184.079 1.584 184.403 1.284C184.727 0.983999 185.147 0.833999 185.663 0.833999C186.179 0.833999 186.599 0.977999 186.923 1.266C187.247 1.542 187.409 1.902 187.409 2.346C187.409 2.814 187.247 3.204 186.923 3.516C186.611 3.816 186.191 3.966 185.663 3.966ZM195.559 5.172C196.327 5.172 197.011 5.328 197.611 5.64C198.223 5.94 198.703 6.408 199.051 7.044C199.399 7.668 199.573 8.472 199.573 9.456V15H196.765V9.888C196.765 9.108 196.591 8.532 196.243 8.16C195.907 7.788 195.427 7.602 194.803 7.602C194.359 7.602 193.957 7.698 193.597 7.89C193.249 8.07 192.973 8.352 192.769 8.736C192.577 9.12 192.481 9.612 192.481 10.212V15H189.673V5.316H192.355V7.998L191.851 7.188C192.199 6.54 192.697 6.042 193.345 5.694C193.993 5.346 194.731 5.172 195.559 5.172ZM206.995 15.144C205.891 15.144 204.919 14.928 204.079 14.496C203.251 14.064 202.609 13.476 202.153 12.732C201.697 11.976 201.469 11.118 201.469 10.158C201.469 9.186 201.691 8.328 202.135 7.584C202.591 6.828 203.209 6.24 203.989 5.82C204.769 5.388 205.651 5.172 206.635 5.172C207.583 5.172 208.435 5.376 209.191 5.784C209.959 6.18 210.565 6.756 211.009 7.512C211.453 8.256 211.675 9.15 211.675 10.194C211.675 10.302 211.669 10.428 211.657 10.572C211.645 10.704 211.633 10.83 211.621 10.95H203.755V9.312H210.145L209.065 9.798C209.065 9.294 208.963 8.856 208.759 8.484C208.555 8.112 208.273 7.824 207.913 7.62C207.553 7.404 207.133 7.296 206.653 7.296C206.173 7.296 205.747 7.404 205.375 7.62C205.015 7.824 204.733 8.118 204.529 8.502C204.325 8.874 204.223 9.318 204.223 9.834V10.266C204.223 10.794 204.337 11.262 204.565 11.67C204.805 12.066 205.135 12.372 205.555 12.588C205.987 12.792 206.491 12.894 207.067 12.894C207.583 12.894 208.033 12.816 208.417 12.66C208.813 12.504 209.173 12.27 209.497 11.958L210.991 13.578C210.547 14.082 209.989 14.472 209.317 14.748C208.645 15.012 207.871 15.144 206.995 15.144ZM213.544 15V5.316H216.226V8.052L215.848 7.26C216.136 6.576 216.598 6.06 217.234 5.712C217.87 5.352 218.644 5.172 219.556 5.172V7.764C219.436 7.752 219.328 7.746 219.232 7.746C219.136 7.734 219.034 7.728 218.926 7.728C218.158 7.728 217.534 7.95 217.054 8.394C216.586 8.826 216.352 9.504 216.352 10.428V15H213.544Z" fill="#CE3439"/>
</svg>
