<svg width="235" height="16" viewBox="0 0 235 16" fill="none" xmlns="http://www.w3.org/2000/svg">
<path d="M2.9585 15V3.48L4.2185 4.74H0.4385V2.4H5.8745V15H2.9585ZM7.95533 15V13.11L12.8153 8.52C13.1993 8.172 13.4813 7.86 13.6613 7.584C13.8413 7.308 13.9613 7.056 14.0213 6.828C14.0933 6.6 14.1293 6.39 14.1293 6.198C14.1293 5.694 13.9553 5.31 13.6073 5.046C13.2713 4.77 12.7733 4.632 12.1133 4.632C11.5853 4.632 11.0933 4.734 10.6373 4.938C10.1933 5.142 9.81533 5.46 9.50333 5.892L7.37933 4.524C7.85933 3.804 8.53133 3.234 9.39533 2.814C10.2593 2.394 11.2553 2.184 12.3833 2.184C13.3193 2.184 14.1353 2.34 14.8313 2.652C15.5393 2.952 16.0853 3.378 16.4693 3.93C16.8653 4.482 17.0633 5.142 17.0633 5.91C17.0633 6.318 17.0093 6.726 16.9013 7.134C16.8053 7.53 16.6013 7.95 16.2893 8.394C15.9893 8.838 15.5453 9.336 14.9573 9.888L10.9253 13.686L10.3673 12.624H17.4773V15H7.95533ZM24.0805 15.216C23.0485 15.216 22.1245 14.964 21.3085 14.46C20.4925 13.944 19.8505 13.2 19.3825 12.228C18.9145 11.256 18.6805 10.08 18.6805 8.7C18.6805 7.32 18.9145 6.144 19.3825 5.172C19.8505 4.2 20.4925 3.462 21.3085 2.958C22.1245 2.442 23.0485 2.184 24.0805 2.184C25.1245 2.184 26.0485 2.442 26.8525 2.958C27.6685 3.462 28.3105 4.2 28.7785 5.172C29.2465 6.144 29.4805 7.32 29.4805 8.7C29.4805 10.08 29.2465 11.256 28.7785 12.228C28.3105 13.2 27.6685 13.944 26.8525 14.46C26.0485 14.964 25.1245 15.216 24.0805 15.216ZM24.0805 12.75C24.5725 12.75 24.9985 12.612 25.3585 12.336C25.7305 12.06 26.0185 11.622 26.2225 11.022C26.4385 10.422 26.5465 9.648 26.5465 8.7C26.5465 7.752 26.4385 6.978 26.2225 6.378C26.0185 5.778 25.7305 5.34 25.3585 5.064C24.9985 4.788 24.5725 4.65 24.0805 4.65C23.6005 4.65 23.1745 4.788 22.8025 5.064C22.4425 5.34 22.1545 5.778 21.9385 6.378C21.7345 6.978 21.6325 7.752 21.6325 8.7C21.6325 9.648 21.7345 10.422 21.9385 11.022C22.1545 11.622 22.4425 12.06 22.8025 12.336C23.1745 12.612 23.6005 12.75 24.0805 12.75ZM43.8933 5.172C44.6613 5.172 45.3393 5.328 45.9273 5.64C46.5273 5.94 46.9953 6.408 47.3313 7.044C47.6793 7.668 47.8533 8.472 47.8533 9.456V15H45.0453V9.888C45.0453 9.108 44.8833 8.532 44.5593 8.16C44.2353 7.788 43.7793 7.602 43.1913 7.602C42.7833 7.602 42.4173 7.698 42.0933 7.89C41.7693 8.07 41.5173 8.346 41.3373 8.718C41.1573 9.09 41.0673 9.564 41.0673 10.14V15H38.2593V9.888C38.2593 9.108 38.0973 8.532 37.7733 8.16C37.4613 7.788 37.0113 7.602 36.4233 7.602C36.0153 7.602 35.6493 7.698 35.3253 7.89C35.0013 8.07 34.7493 8.346 34.5693 8.718C34.3893 9.09 34.2993 9.564 34.2993 10.14V15H31.4913V5.316H34.1733V7.962L33.6693 7.188C34.0053 6.528 34.4793 6.03 35.0913 5.694C35.7153 5.346 36.4233 5.172 37.2153 5.172C38.1033 5.172 38.8773 5.4 39.5373 5.856C40.2093 6.3 40.6533 6.984 40.8693 7.908L39.8793 7.638C40.2033 6.882 40.7193 6.282 41.4273 5.838C42.1473 5.394 42.9693 5.172 43.8933 5.172ZM50.3702 15V1.644H53.1782V15H50.3702ZM61.0799 15V2.4H66.5339C67.6619 2.4 68.6339 2.586 69.4499 2.958C70.2659 3.318 70.8959 3.84 71.3399 4.524C71.7839 5.208 72.0059 6.024 72.0059 6.972C72.0059 7.908 71.7839 8.718 71.3399 9.402C70.8959 10.074 70.2659 10.59 69.4499 10.95C68.6339 11.31 67.6619 11.49 66.5339 11.49H62.6999L63.9959 10.212V15H61.0799ZM69.0899 15L65.9399 10.428H69.0539L72.2399 15H69.0899ZM63.9959 10.536L62.6999 9.168H66.3719C67.2719 9.168 67.9439 8.976 68.3879 8.592C68.8319 8.196 69.0539 7.656 69.0539 6.972C69.0539 6.276 68.8319 5.736 68.3879 5.352C67.9439 4.968 67.2719 4.776 66.3719 4.776H62.6999L63.9959 3.39V10.536ZM78.7263 15.144C77.6943 15.144 76.7763 14.928 75.9723 14.496C75.1803 14.064 74.5503 13.476 74.0823 12.732C73.6263 11.976 73.3983 11.118 73.3983 10.158C73.3983 9.186 73.6263 8.328 74.0823 7.584C74.5503 6.828 75.1803 6.24 75.9723 5.82C76.7763 5.388 77.6943 5.172 78.7263 5.172C79.7463 5.172 80.6583 5.388 81.4623 5.82C82.2663 6.24 82.8963 6.822 83.3523 7.566C83.8083 8.31 84.0363 9.174 84.0363 10.158C84.0363 11.118 83.8083 11.976 83.3523 12.732C82.8963 13.476 82.2663 14.064 81.4623 14.496C80.6583 14.928 79.7463 15.144 78.7263 15.144ZM78.7263 12.84C79.1943 12.84 79.6143 12.732 79.9863 12.516C80.3583 12.3 80.6523 11.994 80.8683 11.598C81.0843 11.19 81.1923 10.71 81.1923 10.158C81.1923 9.594 81.0843 9.114 80.8683 8.718C80.6523 8.322 80.3583 8.016 79.9863 7.8C79.6143 7.584 79.1943 7.476 78.7263 7.476C78.2583 7.476 77.8383 7.584 77.4663 7.8C77.0943 8.016 76.7943 8.322 76.5663 8.718C76.3503 9.114 76.2423 9.594 76.2423 10.158C76.2423 10.71 76.3503 11.19 76.5663 11.598C76.7943 11.994 77.0943 12.3 77.4663 12.516C77.8383 12.732 78.2583 12.84 78.7263 12.84ZM89.9992 15.144C89.1952 15.144 88.4752 14.988 87.8392 14.676C87.2152 14.364 86.7292 13.89 86.3812 13.254C86.0332 12.606 85.8592 11.784 85.8592 10.788V5.316H88.6672V10.374C88.6672 11.178 88.8352 11.772 89.1712 12.156C89.5192 12.528 90.0052 12.714 90.6292 12.714C91.0612 12.714 91.4452 12.624 91.7812 12.444C92.1172 12.252 92.3812 11.964 92.5732 11.58C92.7652 11.184 92.8612 10.692 92.8612 10.104V5.316H95.6692V15H93.0052V12.336L93.4912 13.11C93.1672 13.782 92.6872 14.292 92.0512 14.64C91.4272 14.976 90.7432 15.144 89.9992 15.144ZM104.157 5.172C104.925 5.172 105.609 5.328 106.209 5.64C106.821 5.94 107.301 6.408 107.649 7.044C107.997 7.668 108.171 8.472 108.171 9.456V15H105.363V9.888C105.363 9.108 105.189 8.532 104.841 8.16C104.505 7.788 104.025 7.602 103.401 7.602C102.957 7.602 102.555 7.698 102.195 7.89C101.847 8.07 101.571 8.352 101.367 8.736C101.175 9.12 101.079 9.612 101.079 10.212V15H98.2706V5.316H100.953V7.998L100.449 7.188C100.797 6.54 101.295 6.042 101.943 5.694C102.591 5.346 103.329 5.172 104.157 5.172ZM114.944 15.144C114.032 15.144 113.21 14.94 112.478 14.532C111.746 14.112 111.164 13.53 110.732 12.786C110.312 12.042 110.102 11.166 110.102 10.158C110.102 9.138 110.312 8.256 110.732 7.512C111.164 6.768 111.746 6.192 112.478 5.784C113.21 5.376 114.032 5.172 114.944 5.172C115.76 5.172 116.474 5.352 117.086 5.712C117.698 6.072 118.172 6.618 118.508 7.35C118.844 8.082 119.012 9.018 119.012 10.158C119.012 11.286 118.85 12.222 118.526 12.966C118.202 13.698 117.734 14.244 117.122 14.604C116.522 14.964 115.796 15.144 114.944 15.144ZM115.43 12.84C115.886 12.84 116.3 12.732 116.672 12.516C117.044 12.3 117.338 11.994 117.554 11.598C117.782 11.19 117.896 10.71 117.896 10.158C117.896 9.594 117.782 9.114 117.554 8.718C117.338 8.322 117.044 8.016 116.672 7.8C116.3 7.584 115.886 7.476 115.43 7.476C114.962 7.476 114.542 7.584 114.17 7.8C113.798 8.016 113.498 8.322 113.27 8.718C113.054 9.114 112.946 9.594 112.946 10.158C112.946 10.71 113.054 11.19 113.27 11.598C113.498 11.994 113.798 12.3 114.17 12.516C114.542 12.732 114.962 12.84 115.43 12.84ZM117.968 15V13.02L118.022 10.14L117.842 7.278V1.644H120.65V15H117.968ZM134.575 15.216C133.603 15.216 132.697 15.06 131.857 14.748C131.029 14.424 130.309 13.968 129.697 13.38C129.085 12.792 128.605 12.102 128.257 11.31C127.921 10.518 127.753 9.648 127.753 8.7C127.753 7.752 127.921 6.882 128.257 6.09C128.605 5.298 129.085 4.608 129.697 4.02C130.321 3.432 131.047 2.982 131.875 2.67C132.703 2.346 133.609 2.184 134.593 2.184C135.685 2.184 136.669 2.376 137.545 2.76C138.433 3.132 139.177 3.684 139.777 4.416L137.905 6.144C137.473 5.652 136.993 5.286 136.465 5.046C135.937 4.794 135.361 4.668 134.737 4.668C134.149 4.668 133.609 4.764 133.117 4.956C132.625 5.148 132.199 5.424 131.839 5.784C131.479 6.144 131.197 6.57 130.993 7.062C130.801 7.554 130.705 8.1 130.705 8.7C130.705 9.3 130.801 9.846 130.993 10.338C131.197 10.83 131.479 11.256 131.839 11.616C132.199 11.976 132.625 12.252 133.117 12.444C133.609 12.636 134.149 12.732 134.737 12.732C135.361 12.732 135.937 12.612 136.465 12.372C136.993 12.12 137.473 11.742 137.905 11.238L139.777 12.966C139.177 13.698 138.433 14.256 137.545 14.64C136.669 15.024 135.679 15.216 134.575 15.216ZM145.822 15.144C144.79 15.144 143.872 14.928 143.068 14.496C142.276 14.064 141.646 13.476 141.178 12.732C140.722 11.976 140.494 11.118 140.494 10.158C140.494 9.186 140.722 8.328 141.178 7.584C141.646 6.828 142.276 6.24 143.068 5.82C143.872 5.388 144.79 5.172 145.822 5.172C146.842 5.172 147.754 5.388 148.558 5.82C149.362 6.24 149.992 6.822 150.448 7.566C150.904 8.31 151.132 9.174 151.132 10.158C151.132 11.118 150.904 11.976 150.448 12.732C149.992 13.476 149.362 14.064 148.558 14.496C147.754 14.928 146.842 15.144 145.822 15.144ZM145.822 12.84C146.29 12.84 146.71 12.732 147.082 12.516C147.454 12.3 147.748 11.994 147.964 11.598C148.18 11.19 148.288 10.71 148.288 10.158C148.288 9.594 148.18 9.114 147.964 8.718C147.748 8.322 147.454 8.016 147.082 7.8C146.71 7.584 146.29 7.476 145.822 7.476C145.354 7.476 144.934 7.584 144.562 7.8C144.19 8.016 143.89 8.322 143.662 8.718C143.446 9.114 143.338 9.594 143.338 10.158C143.338 10.71 143.446 11.19 143.662 11.598C143.89 11.994 144.19 12.3 144.562 12.516C144.934 12.732 145.354 12.84 145.822 12.84ZM158.895 5.172C159.663 5.172 160.347 5.328 160.947 5.64C161.559 5.94 162.039 6.408 162.387 7.044C162.735 7.668 162.909 8.472 162.909 9.456V15H160.101V9.888C160.101 9.108 159.927 8.532 159.579 8.16C159.243 7.788 158.763 7.602 158.139 7.602C157.695 7.602 157.293 7.698 156.933 7.89C156.585 8.07 156.309 8.352 156.105 8.736C155.913 9.12 155.817 9.612 155.817 10.212V15H153.009V5.316H155.691V7.998L155.187 7.188C155.535 6.54 156.033 6.042 156.681 5.694C157.329 5.346 158.067 5.172 158.895 5.172ZM169.414 15.144C168.274 15.144 167.386 14.856 166.75 14.28C166.114 13.692 165.796 12.822 165.796 11.67V3.174H168.604V11.634C168.604 12.042 168.712 12.36 168.928 12.588C169.144 12.804 169.438 12.912 169.81 12.912C170.254 12.912 170.632 12.792 170.944 12.552L171.7 14.532C171.412 14.736 171.064 14.892 170.656 15C170.26 15.096 169.846 15.144 169.414 15.144ZM164.302 7.692V5.532H171.016V7.692H164.302ZM179.216 15V13.11L179.036 12.696V9.312C179.036 8.712 178.85 8.244 178.478 7.908C178.118 7.572 177.56 7.404 176.804 7.404C176.288 7.404 175.778 7.488 175.274 7.656C174.782 7.812 174.362 8.028 174.014 8.304L173.006 6.342C173.534 5.97 174.17 5.682 174.914 5.478C175.658 5.274 176.414 5.172 177.182 5.172C178.658 5.172 179.804 5.52 180.62 6.216C181.436 6.912 181.844 7.998 181.844 9.474V15H179.216ZM176.264 15.144C175.508 15.144 174.86 15.018 174.32 14.766C173.78 14.502 173.366 14.148 173.078 13.704C172.79 13.26 172.646 12.762 172.646 12.21C172.646 11.634 172.784 11.13 173.06 10.698C173.348 10.266 173.798 9.93 174.41 9.69C175.022 9.438 175.82 9.312 176.804 9.312H179.378V10.95H177.11C176.45 10.95 175.994 11.058 175.742 11.274C175.502 11.49 175.382 11.76 175.382 12.084C175.382 12.444 175.52 12.732 175.796 12.948C176.084 13.152 176.474 13.254 176.966 13.254C177.434 13.254 177.854 13.146 178.226 12.93C178.598 12.702 178.868 12.372 179.036 11.94L179.468 13.236C179.264 13.86 178.892 14.334 178.352 14.658C177.812 14.982 177.116 15.144 176.264 15.144ZM184.386 15V5.316H187.194V15H184.386ZM185.79 3.966C185.274 3.966 184.854 3.816 184.53 3.516C184.206 3.216 184.044 2.844 184.044 2.4C184.044 1.956 184.206 1.584 184.53 1.284C184.854 0.983999 185.274 0.833999 185.79 0.833999C186.306 0.833999 186.726 0.977999 187.05 1.266C187.374 1.542 187.536 1.902 187.536 2.346C187.536 2.814 187.374 3.204 187.05 3.516C186.738 3.816 186.318 3.966 185.79 3.966ZM195.686 5.172C196.454 5.172 197.138 5.328 197.738 5.64C198.35 5.94 198.83 6.408 199.178 7.044C199.526 7.668 199.7 8.472 199.7 9.456V15H196.892V9.888C196.892 9.108 196.718 8.532 196.37 8.16C196.034 7.788 195.554 7.602 194.93 7.602C194.486 7.602 194.084 7.698 193.724 7.89C193.376 8.07 193.1 8.352 192.896 8.736C192.704 9.12 192.608 9.612 192.608 10.212V15H189.8V5.316H192.482V7.998L191.978 7.188C192.326 6.54 192.824 6.042 193.472 5.694C194.12 5.346 194.858 5.172 195.686 5.172ZM207.122 15.144C206.018 15.144 205.046 14.928 204.206 14.496C203.378 14.064 202.736 13.476 202.28 12.732C201.824 11.976 201.596 11.118 201.596 10.158C201.596 9.186 201.818 8.328 202.262 7.584C202.718 6.828 203.336 6.24 204.116 5.82C204.896 5.388 205.778 5.172 206.762 5.172C207.71 5.172 208.562 5.376 209.318 5.784C210.086 6.18 210.692 6.756 211.136 7.512C211.58 8.256 211.802 9.15 211.802 10.194C211.802 10.302 211.796 10.428 211.784 10.572C211.772 10.704 211.76 10.83 211.748 10.95H203.882V9.312H210.272L209.192 9.798C209.192 9.294 209.09 8.856 208.886 8.484C208.682 8.112 208.4 7.824 208.04 7.62C207.68 7.404 207.26 7.296 206.78 7.296C206.3 7.296 205.874 7.404 205.502 7.62C205.142 7.824 204.86 8.118 204.656 8.502C204.452 8.874 204.35 9.318 204.35 9.834V10.266C204.35 10.794 204.464 11.262 204.692 11.67C204.932 12.066 205.262 12.372 205.682 12.588C206.114 12.792 206.618 12.894 207.194 12.894C207.71 12.894 208.16 12.816 208.544 12.66C208.94 12.504 209.3 12.27 209.624 11.958L211.118 13.578C210.674 14.082 210.116 14.472 209.444 14.748C208.772 15.012 207.998 15.144 207.122 15.144ZM213.671 15V5.316H216.353V8.052L215.975 7.26C216.263 6.576 216.725 6.06 217.361 5.712C217.997 5.352 218.771 5.172 219.683 5.172V7.764C219.563 7.752 219.455 7.746 219.359 7.746C219.263 7.734 219.161 7.728 219.053 7.728C218.285 7.728 217.661 7.95 217.181 8.394C216.713 8.826 216.479 9.504 216.479 10.428V15H213.671ZM226.341 13.128V10.878L234.063 8.07V9.33L226.341 6.522V4.272L234.909 7.53V9.87L226.341 13.128Z" fill="#CE3439"/>
</svg>
