<svg width="29" height="15" viewBox="0 0 29 15" fill="none" xmlns="http://www.w3.org/2000/svg">
<path d="M8.83594 1.72461C9.16813 1.73258 9.39371 1.75404 9.52246 1.79004C9.62785 1.81939 9.82221 1.89515 9.9541 1.95801C10.1271 2.04094 10.2562 2.13522 10.4199 2.29883C10.5556 2.43406 10.686 2.60128 10.7441 2.71582C10.7974 2.82107 10.8675 2.99333 10.8994 3.09863C10.9416 3.23711 10.957 3.38763 10.9551 3.6416C10.9532 3.94116 10.9392 4.03177 10.8604 4.26074C10.8096 4.40836 10.7392 4.56069 10.7041 4.59863C10.669 4.63704 10.6122 4.72294 10.5771 4.79004C10.5408 4.85956 10.4305 4.97266 10.3213 5.05273C10.2159 5.12995 10.0431 5.23775 9.74609 5.38867L9.98633 5.47266C10.1179 5.51896 10.297 5.60709 10.3848 5.66797C10.4723 5.72892 10.6126 5.85075 10.6963 5.93848C10.78 6.02625 10.897 6.1918 10.957 6.30566C11.0167 6.41979 11.091 6.60583 11.1211 6.71973C11.1511 6.83383 11.1774 7.04926 11.1797 7.19824C11.1819 7.34756 11.1733 7.54915 11.1602 7.64551C11.1474 7.74187 11.1067 7.90742 11.0703 8.0127C11.0342 8.11802 10.9582 8.29034 10.9023 8.39551C10.8431 8.50723 10.6939 8.69397 10.5449 8.84375C10.34 9.04971 10.2294 9.1312 9.98633 9.25391C9.81483 9.34037 9.5504 9.44001 9.37891 9.4834C9.21188 9.52551 8.96582 9.57122 8.83203 9.58398C8.65533 9.60118 8.57477 9.5964 8.53711 9.56738C8.49565 9.53555 8.47164 9.5355 8.4209 9.56738C8.37014 9.59918 8.28998 9.59883 8.01465 9.56445C7.82576 9.54118 7.54897 9.48739 7.39941 9.44434C7.25001 9.40128 7.02728 9.31815 6.9043 9.25977C6.78134 9.2017 6.64997 9.12701 6.54395 9.0332L6.69238 8.40625C6.77377 8.06188 6.84751 7.77226 6.85645 7.7627C6.8668 7.75427 6.97372 7.79498 7.0957 7.85449C7.21858 7.91444 7.42668 7.99824 7.55859 8.04102C7.69008 8.08406 7.87346 8.13447 7.96582 8.15332C8.05806 8.17213 8.24483 8.18814 8.38086 8.18848C8.51691 8.18848 8.71492 8.16579 8.82031 8.13867C8.9257 8.11154 9.08407 8.04277 9.17188 7.98535C9.25969 7.92791 9.37741 7.80911 9.43457 7.72266C9.49201 7.63626 9.55369 7.49401 9.57227 7.40625C9.59079 7.31851 9.62011 7.23239 9.63672 7.21484C9.65586 7.19473 9.64947 7.14752 9.61914 7.08691C9.59301 7.03438 9.57106 6.9629 9.57129 6.92773C9.57129 6.89265 9.53691 6.79182 9.49414 6.7041C9.45136 6.61638 9.35766 6.49055 9.28613 6.4248C9.21428 6.35908 9.09426 6.27495 9.01953 6.2373C8.94481 6.19967 8.84075 6.15458 8.78809 6.13672C8.73529 6.11917 8.45649 6.09607 7.64648 6.06641L7.63867 4.81445L8.08594 4.79785C8.43434 4.78509 8.57845 4.76638 8.74023 4.71094C8.85425 4.67169 9.00925 4.59761 9.08398 4.54688C9.15861 4.49613 9.25407 4.3939 9.29688 4.31934C9.33967 4.24467 9.38268 4.14388 9.39258 4.0957C9.40246 4.04753 9.39646 3.98643 9.37891 3.95996C9.35741 3.92786 9.35836 3.89393 9.38184 3.85645C9.40737 3.81563 9.40727 3.76205 9.37891 3.65723C9.34921 3.54747 9.29301 3.47015 9.14355 3.33008C8.94915 3.14765 8.94589 3.14607 8.70801 3.12598C8.57637 3.11485 8.33954 3.11614 8.18164 3.12793C8.02361 3.13973 7.87994 3.1611 7.8623 3.17578C7.84474 3.19014 7.77241 3.21951 7.70215 3.24121C7.63184 3.26296 7.45633 3.34381 7.31152 3.4209C7.11859 3.52349 7.04806 3.54854 7.04785 3.51367C7.04785 3.48792 7.04441 3.46648 7.04004 3.46582C7.03557 3.46614 6.95312 3.48819 6.85645 3.51465C6.75975 3.54111 6.6661 3.57451 6.64844 3.58984C6.63087 3.60484 6.53019 3.6422 6.4248 3.67188C6.3192 3.70162 6.04644 3.78342 5.81836 3.85449C5.59002 3.92564 5.38866 3.98738 5.37109 3.99121C5.35348 3.99477 5.30362 4.01354 5.25977 4.0332C5.21604 4.05297 4.99286 4.14048 4.76465 4.22754C4.53631 4.31464 4.24127 4.43145 4.10938 4.48633C3.97753 4.54135 3.63216 4.70256 3.34277 4.84473C3.05321 4.98731 2.78039 5.1282 2.73633 5.15723C2.69254 5.1866 2.46246 5.3375 2.22559 5.49219C1.90335 5.70245 1.70867 5.85895 1.45605 6.11133C1.27024 6.29699 1.07679 6.52501 1.02539 6.61719C0.974917 6.70821 0.922674 6.77196 0.90918 6.76074C0.896725 6.74734 0.87675 6.77939 0.866211 6.83203C0.855315 6.88475 0.823946 6.99933 0.795898 7.08691C0.76653 7.17908 0.743821 7.36096 0.743164 7.51758C0.742206 7.6953 0.76244 7.84998 0.799805 7.96484C0.83131 8.06115 0.873732 8.17949 0.894531 8.22852C0.914923 8.27722 0.94628 8.31817 0.963867 8.31836C0.981432 8.31868 1.05711 8.40445 1.13184 8.50879C1.20665 8.61314 1.36502 8.77811 1.4834 8.87598C1.6019 8.97362 1.81361 9.13148 1.9541 9.22559C2.09477 9.31945 2.4185 9.50206 2.67285 9.63184C2.92707 9.76121 3.22851 9.90809 3.34277 9.95801C3.45678 10.0078 3.56544 10.0522 3.58301 10.0557C3.60249 10.0602 3.78854 10.125 3.99805 10.2002C4.20752 10.2754 4.39942 10.3517 4.42578 10.3711C4.45069 10.3896 4.50136 10.4066 4.53809 10.4082C4.57537 10.4097 4.84256 10.4763 5.13184 10.5566C5.42142 10.637 5.88092 10.7535 6.15332 10.8154C6.42572 10.8776 6.82479 10.9614 7.04004 11.002C7.25561 11.0425 7.43196 11.0865 7.43164 11.0996C7.43193 11.1124 7.44889 11.1136 7.4707 11.1025C7.49274 11.0914 7.62608 11.1014 7.7666 11.124C7.90702 11.1467 8.05084 11.1837 8.08594 11.2061C8.1215 11.2287 8.26509 11.2554 8.40527 11.2656L8.85254 11.2998C8.95836 11.3078 9.30252 11.3419 9.61816 11.376C9.93433 11.4098 10.2874 11.4465 10.4014 11.458C10.5984 11.478 10.6096 11.4757 10.6338 11.4053C10.6482 11.3644 10.6675 11.1795 10.6758 10.9951C10.6844 10.8112 10.7014 10.5691 10.7139 10.457C10.7276 10.3327 10.7549 10.2409 10.7842 10.2207C10.8212 10.1955 10.9729 10.2831 11.4551 10.6104C11.7974 10.8427 12.131 11.0676 12.1973 11.1104C12.2631 11.1525 12.3094 11.2012 12.3008 11.2188C12.2922 11.2363 12.3317 11.2663 12.3887 11.2852C12.4458 11.3037 12.6712 11.4432 12.8887 11.5957C13.1061 11.7479 13.3359 11.9044 13.3994 11.9424C13.4629 11.9801 13.5507 12.0462 13.5947 12.0889C13.6384 12.1315 13.6999 12.175 13.7305 12.1865C13.7611 12.198 13.8936 12.2796 14.0254 12.3672C14.1841 12.4728 14.2623 12.5456 14.2568 12.5811C14.2509 12.6137 14.1079 12.7095 13.8984 12.8203C13.7055 12.9222 13.5043 13.0113 13.4512 13.0186C13.3985 13.0259 13.3261 13.0576 13.291 13.0889C13.2552 13.1207 12.7529 13.3737 12.1738 13.6514L11.8262 13.8184C11.3665 14.039 10.9454 14.2416 10.8076 14.3076C10.5336 14.4391 10.4902 14.4513 10.4531 14.4092C10.4181 14.3693 10.4177 14.2856 10.4551 13.915C10.4797 13.6694 10.499 13.4214 10.498 13.3643C10.4972 13.3074 10.5109 13.2257 10.5283 13.1816C10.5576 13.1084 10.555 13.1034 10.4893 13.124C10.4311 13.1425 10.4228 13.1381 10.4482 13.1006C10.4728 13.0642 10.4697 13.06 10.4326 13.082C10.4038 13.0988 10.2801 13.0918 10.124 13.0654C9.98178 13.0414 9.8696 13.015 9.87305 13.0059C9.87847 12.9973 9.83839 12.9892 9.7832 12.9883C9.72795 12.987 9.52793 12.9576 9.33887 12.9238C9.15014 12.8897 8.99577 12.8546 8.99609 12.8457C8.99459 12.8372 8.94782 12.8267 8.8916 12.8232C8.83368 12.8192 8.61539 12.7785 8.40527 12.7324L8.38477 12.7285C8.17793 12.6831 7.93212 12.6284 7.83008 12.6064C7.72473 12.5835 7.53121 12.5367 7.39941 12.502C7.26784 12.4672 6.91481 12.3714 6.61621 12.2891C6.31788 12.2068 6.01669 12.1116 5.94629 12.0781C5.87603 12.0446 5.78904 12.0176 5.75391 12.0176C5.7176 12.0171 5.53123 11.9659 5.33887 11.9023C5.14568 11.8389 4.89424 11.7511 4.78027 11.708C4.66634 11.6646 4.56558 11.6162 4.55664 11.5996C4.54719 11.5834 4.48999 11.5653 4.42871 11.5596C4.36664 11.5539 4.15164 11.4799 3.9502 11.3955C3.74855 11.3114 3.56863 11.2243 3.55078 11.2021C3.53323 11.1805 3.42547 11.1304 3.31152 11.0918C3.19721 11.0532 2.93147 10.928 2.7207 10.8135C2.50999 10.699 2.27231 10.5618 2.19336 10.5078C2.1147 10.454 2.03945 10.3947 2.02637 10.376C2.01335 10.3573 2.00305 10.3524 2.00293 10.3652C2.00261 10.3783 1.87627 10.3036 1.72266 10.1992C1.56904 10.0949 1.32469 9.90431 1.18066 9.77637C1.03641 9.64817 0.892604 9.50787 0.861328 9.46387C0.829882 9.42008 0.755842 9.34156 0.696289 9.28906C0.636888 9.23642 0.51186 9.07789 0.417969 8.9375C0.317697 8.78754 0.201185 8.5539 0.134766 8.37109C0.0402732 8.11019 0.0192704 8.00455 0.00585938 7.7168C-0.00688097 7.44545 0.00016529 7.3595 0.0380859 7.30273C0.0642734 7.26317 0.0962813 7.15003 0.109375 7.05176C0.122441 6.9535 0.152168 6.85738 0.174805 6.83691C0.197744 6.81686 0.21571 6.77139 0.214844 6.73633C0.214205 6.70125 0.27996 6.57199 0.361328 6.44922C0.443084 6.32638 0.65612 6.08174 0.834961 5.90625C1.01374 5.73086 1.27389 5.50645 1.41309 5.40723C1.55265 5.308 1.79602 5.1518 1.9541 5.06055C2.11221 4.96961 2.39261 4.82473 2.57715 4.73828C2.76164 4.65187 2.93012 4.58171 2.95215 4.58203C2.97432 4.58222 3.03867 4.55391 3.0957 4.51953C3.15304 4.48503 3.36479 4.39755 3.56641 4.3252C3.76823 4.25245 4.12795 4.13126 4.36523 4.05469C4.60252 3.97811 4.9259 3.87933 5.08398 3.83594C5.24144 3.79241 5.38099 3.76649 5.39453 3.77832C5.40727 3.79041 5.43568 3.7843 5.45801 3.76465C5.48035 3.74488 5.63154 3.69845 5.79395 3.66113C5.9565 3.6238 6.10451 3.60076 6.12207 3.60938C6.13932 3.61798 6.15311 3.61431 6.15332 3.60156C6.153 3.58848 6.25034 3.55679 6.36914 3.53223C6.48786 3.50769 6.62803 3.48529 6.68066 3.48242C6.73336 3.47987 6.81242 3.47421 6.85645 3.4707C6.90008 3.46716 6.95519 3.45444 6.97852 3.44141C7.01237 3.4229 6.99404 3.30575 6.8877 2.85938C6.81457 2.55247 6.76322 2.28276 6.77344 2.26074C6.78512 2.23829 6.91143 2.16258 7.05566 2.0918C7.20066 2.02033 7.43469 1.92818 7.5752 1.88574C7.71574 1.84332 7.94552 1.78689 8.08594 1.76074C8.26566 1.72728 8.48779 1.71633 8.83594 1.72461ZM23.2871 3.65723C23.3136 3.65723 23.6337 3.74266 23.998 3.84668C24.3624 3.95102 24.8763 4.10995 25.1396 4.20117C25.4031 4.29211 25.7698 4.4316 25.9541 4.50977C26.1384 4.58797 26.4475 4.7302 26.6406 4.82617C26.8338 4.92253 27.1709 5.12111 27.3906 5.2666C27.61 5.41241 27.925 5.65843 28.0898 5.81445C28.2545 5.97002 28.4535 6.18368 28.5322 6.28906C28.611 6.39418 28.7073 6.54479 28.7471 6.62402C28.7865 6.70288 28.8138 6.78527 28.8076 6.80762C28.8012 6.82963 28.8106 6.84766 28.8281 6.84766C28.8457 6.84781 28.892 6.95189 28.9307 7.0791C28.9855 7.25861 29.0006 7.38888 29 7.66113C28.9994 7.9719 28.9872 8.0471 28.8955 8.31543C28.8387 8.48224 28.7283 8.72228 28.6504 8.84961C28.5725 8.97692 28.4941 9.08105 28.4766 9.08105C28.4591 9.08124 28.4454 9.10261 28.4453 9.12891C28.4453 9.15538 28.3119 9.3147 28.1494 9.4834C27.987 9.65235 27.7322 9.88738 27.583 10.0059C27.4339 10.1242 27.1635 10.3162 26.9834 10.4326C26.8051 10.5479 26.6594 10.6322 26.6572 10.6211C26.6575 10.608 26.6258 10.6277 26.5859 10.665C26.5457 10.7027 26.3619 10.8122 26.1777 10.9092C25.9935 11.0062 25.6698 11.1597 25.459 11.25C25.2483 11.3406 25.0469 11.4297 25.0117 11.4492C24.9766 11.4684 24.7831 11.5465 24.5811 11.6221C24.3789 11.6977 24.2025 11.7521 24.1895 11.7441C24.1764 11.7359 24.1617 11.7422 24.1572 11.7578C24.1526 11.7735 23.9984 11.838 23.8145 11.9014C23.6308 11.9647 23.444 12.0166 23.3994 12.0166C23.3553 12.0163 23.2683 12.0433 23.207 12.0762C23.1454 12.1091 22.9154 12.1896 22.6963 12.2549C22.4773 12.3201 22.2625 12.3743 22.2178 12.375C22.1737 12.3753 22.1297 12.3857 22.1211 12.3984C22.1106 12.4119 21.8677 12.4816 21.5791 12.5537C21.2892 12.6261 20.8221 12.7356 20.541 12.7959C20.26 12.8565 19.8643 12.9343 19.6621 12.9697L18.7363 13.1299C18.5342 13.165 18.2898 13.205 18.1934 13.2178C18.0969 13.2305 17.9532 13.2396 17.874 13.2383C17.7957 13.237 17.7248 13.249 17.7148 13.2646C17.7062 13.2806 17.6029 13.2976 17.4863 13.3018C17.3695 13.3059 17.2801 13.3199 17.2871 13.333C17.2927 13.346 17.2372 13.3578 17.1631 13.3594C17.0884 13.3607 16.9842 13.3667 16.9316 13.3721C16.8787 13.3772 16.735 13.3969 16.6123 13.416C16.489 13.4349 16.1224 13.4729 15.7979 13.5C15.4739 13.5273 15.1731 13.5551 15.1279 13.5625C15.084 13.5698 15.0263 13.5637 15 13.5479C14.9649 13.5268 14.9464 13.4342 14.9326 13.2061C14.9221 13.0344 14.9265 12.8768 14.9414 12.8545C14.9567 12.8315 14.9538 12.8071 14.9355 12.7979C14.9167 12.7858 14.9074 12.6352 14.9121 12.418C14.9165 12.219 14.9091 12.0441 14.8955 12.0273C14.8818 12.0127 14.8708 11.9398 14.8711 11.8652C14.8717 11.7906 14.8908 11.7115 14.9141 11.6895C14.945 11.6601 15.3266 11.6381 16.3438 11.6074C17.1065 11.5845 17.7882 11.5598 17.8584 11.5527C17.9292 11.5454 18.1948 11.524 18.4492 11.5049C18.7041 11.486 19.185 11.4426 19.5186 11.4082C19.8522 11.3738 20.2186 11.3314 20.333 11.3145C20.4473 11.2975 20.627 11.2838 20.7324 11.2832C20.8378 11.2829 21.0175 11.2665 21.1318 11.2471C21.2461 11.2276 21.3535 11.1989 21.3711 11.1846C21.3895 11.1698 21.5726 11.1284 21.7783 11.0928C21.9846 11.0567 22.168 11.0353 22.1855 11.0439C22.2032 11.0523 22.2349 11.0454 22.2568 11.0293C22.2789 11.013 22.4269 10.9706 22.585 10.9355C22.7429 10.9002 22.9081 10.8654 22.9521 10.8574C22.9963 10.849 23.1832 10.8043 23.3672 10.7578C23.5515 10.7112 23.9182 10.6101 24.1816 10.5332C24.4451 10.456 24.8549 10.3215 25.0918 10.2344C25.3285 10.1477 25.6263 10.0318 25.7539 9.97754C25.8797 9.92397 25.9835 9.89056 25.9863 9.90234C25.9863 9.91543 25.9976 9.9114 26.0107 9.89258C26.0243 9.87372 26.1604 9.79104 26.3135 9.70898C26.4662 9.62746 26.6054 9.56825 26.624 9.57617C26.6416 9.58479 26.6562 9.57712 26.6562 9.55957C26.6564 9.54218 26.6778 9.52841 26.7041 9.52832C26.7306 9.52832 26.7519 9.5136 26.752 9.49609C26.752 9.47856 26.8347 9.4151 26.9355 9.35547C27.0364 9.29554 27.2198 9.16961 27.3428 9.0752C27.4657 8.98075 27.5811 8.89633 27.5986 8.88867C27.6165 8.88031 27.7092 8.7808 27.8057 8.66699C27.9021 8.55277 28.0291 8.37956 28.0869 8.2832C28.1443 8.18683 28.2154 8.02884 28.2451 7.93262C28.2748 7.83626 28.3111 7.74983 28.3252 7.74121C28.3392 7.73235 28.3285 7.57437 28.3018 7.39062C28.2663 7.14853 28.2227 6.99342 28.1455 6.83203C28.0867 6.70919 27.9687 6.51629 27.8828 6.4043C27.7969 6.29199 27.7016 6.16281 27.6709 6.11719C27.6406 6.07128 27.6042 6.03651 27.5908 6.03906C27.5772 6.04165 27.5019 5.98304 27.4229 5.90918C27.3436 5.83514 27.1569 5.68455 27.0078 5.57422C26.8587 5.46385 26.6073 5.29296 26.4492 5.19531C26.2911 5.09736 25.9598 4.91511 25.7139 4.79004C25.468 4.66501 25.1521 4.51105 25.0117 4.44824C24.8712 4.38541 24.6201 4.28188 24.4531 4.21777C24.2865 4.15379 24.1286 4.09075 24.1016 4.07715C24.0751 4.06343 23.8857 3.996 23.6807 3.92676C23.4757 3.85754 23.3139 3.78945 23.3213 3.77637C23.3284 3.76341 23.3062 3.76333 23.2715 3.77637C23.2197 3.79568 23.2113 3.78922 23.2217 3.7373C23.2287 3.7024 23.235 3.66978 23.2363 3.66504C23.2379 3.66058 23.2606 3.65723 23.2871 3.65723ZM16.4258 2.19727C16.4322 2.46496 16.4365 2.77383 16.4365 3.08301H16.2695C16.1773 3.08301 15.9725 3.09835 15.8145 3.11621C15.6568 3.13435 15.4915 3.1497 15.4473 3.15137C15.4033 3.15296 15.3242 3.17371 15.2715 3.19727C15.2188 3.22088 15.0671 3.28363 14.9355 3.33691C14.8037 3.39019 14.6033 3.50374 14.4893 3.58887C14.3752 3.67406 14.2179 3.82157 14.1406 3.91602C14.0637 4.01087 13.9462 4.20267 13.8789 4.34277C13.8113 4.48298 13.7356 4.67695 13.7109 4.77344C13.6865 4.86937 13.6716 4.95558 13.6777 4.96484C13.6838 4.97346 13.7725 4.90202 13.875 4.80566C13.9775 4.70934 14.1396 4.59178 14.2354 4.54395C14.3311 4.49643 14.4952 4.43501 14.6006 4.4082C14.706 4.38108 14.922 4.35906 15.0801 4.35938C15.2379 4.35973 15.4602 4.38213 15.5742 4.40918C15.6885 4.4363 15.8829 4.5114 16.0059 4.57617C16.1326 4.64252 16.3126 4.77695 16.4219 4.88574C16.5278 4.9909 16.6752 5.17696 16.749 5.2998C16.8228 5.42265 16.9188 5.62423 16.9619 5.74707C17.0053 5.86992 17.0644 6.1066 17.0938 6.27344C17.133 6.4971 17.1427 6.68109 17.1299 6.97559C17.1197 7.2138 17.0871 7.47035 17.0498 7.61328C17.0153 7.74506 16.9503 7.94664 16.9043 8.06055C16.858 8.17471 16.773 8.34603 16.7158 8.44238C16.659 8.5387 16.4832 8.74838 16.3252 8.9082C16.0777 9.1583 15.9955 9.21906 15.7344 9.34473C15.5674 9.42481 15.3266 9.51294 15.1992 9.54102C15.0718 9.56876 14.8457 9.5918 14.6963 9.5918C14.5468 9.59178 14.3207 9.5691 14.1934 9.54199C14.0661 9.51489 13.8759 9.45808 13.7705 9.41504C13.6651 9.37165 13.5014 9.28953 13.4072 9.23242C13.313 9.17563 13.141 9.03512 13.0244 8.9209C12.9079 8.8067 12.7448 8.60607 12.6621 8.47461C12.5791 8.34315 12.4604 8.10953 12.3984 7.95605C12.3362 7.80256 12.2568 7.55881 12.2227 7.41406C12.1882 7.26918 12.1441 6.99279 12.124 6.7998C12.1043 6.60743 12.0749 6.43548 12.0586 6.41699C12.0423 6.39944 12.0293 6.33502 12.0293 6.27344C12.0293 6.21236 12.0414 6.14766 12.0566 6.12988C12.0723 6.11233 12.1023 5.92543 12.123 5.71484C12.1435 5.50433 12.1878 5.19614 12.2217 5.0293C12.2552 4.86243 12.3269 4.58972 12.3809 4.42285C12.4345 4.25596 12.5562 3.96154 12.6514 3.76855C12.7465 3.57563 12.8612 3.37823 12.9062 3.33008C12.9515 3.282 12.9803 3.24219 12.9717 3.24219C12.9646 3.2404 13.025 3.15287 13.1074 3.0459C13.1908 2.93742 13.3741 2.75051 13.5146 2.63086C13.6551 2.51091 13.7955 2.41311 13.8262 2.41309C13.8572 2.41309 13.8968 2.38373 13.9141 2.34863C13.9326 2.313 14.0915 2.21514 14.2734 2.12793C14.4535 2.0418 14.7013 1.94231 14.8242 1.90723C14.9471 1.87214 15.1339 1.82641 15.2393 1.80566C15.3446 1.78462 15.553 1.75723 15.7021 1.74414C15.8513 1.73106 16.0736 1.71796 16.415 1.71094L16.4258 2.19727ZM20.3486 1.72266C20.6634 1.73095 20.775 1.74819 20.9717 1.81738C21.1033 1.86365 21.3046 1.96544 21.4189 2.04297C21.5333 2.12051 21.688 2.24939 21.7627 2.33008C21.8374 2.41055 21.9605 2.57411 22.0371 2.69238C22.1137 2.81077 22.2201 3.00806 22.2734 3.13086C22.3268 3.25369 22.4094 3.47601 22.4561 3.625C22.503 3.77432 22.569 4.06202 22.6035 4.26367C22.638 4.4657 22.6807 4.83833 22.6992 5.09277C22.7174 5.34739 22.7237 5.7212 22.7129 5.92285C22.702 6.12482 22.6783 6.42601 22.6602 6.59277C22.642 6.75954 22.5986 7.03142 22.5645 7.19824C22.53 7.36511 22.4586 7.63113 22.4053 7.78906C22.3519 7.94701 22.2452 8.19869 22.168 8.34766C22.091 8.49663 21.9486 8.71568 21.8516 8.83398C21.7542 8.95236 21.5991 9.10589 21.5068 9.1748C21.4146 9.24397 21.2462 9.34382 21.1318 9.39746C21.0175 9.45106 20.8231 9.51681 20.7002 9.54297C20.5772 9.56911 20.3541 9.59082 20.2051 9.59082C20.056 9.59079 19.8442 9.56976 19.7344 9.54395C19.6247 9.51782 19.4525 9.45903 19.3516 9.41406C19.2506 9.36876 19.1026 9.28497 19.0234 9.22754C18.9444 9.17054 18.855 9.11414 18.8242 9.10254C18.7936 9.09107 18.7686 9.05262 18.7686 9.01758C18.7686 8.98248 18.7442 8.94277 18.7148 8.92969C18.6857 8.91649 18.6014 8.81908 18.5273 8.71387C18.4532 8.60852 18.3352 8.40788 18.2656 8.26758C18.1957 8.12719 18.1007 7.89722 18.0547 7.75684C18.0088 7.6166 17.9494 7.40913 17.9229 7.29492C17.8964 7.18111 17.875 7.01553 17.875 6.92773C17.875 6.83999 17.8607 6.75388 17.8438 6.73633C17.8265 6.71864 17.7958 6.49574 17.7754 6.24121C17.7537 5.97321 17.747 5.59068 17.7588 5.33203C17.77 5.08646 17.8023 4.73491 17.8291 4.55078C17.8562 4.36685 17.8996 4.12985 17.9258 4.02441C17.9516 3.91912 18.0107 3.71754 18.0566 3.57715C18.1029 3.43681 18.1596 3.28622 18.1826 3.24219C18.2055 3.19866 18.2248 3.14861 18.2246 3.13086C18.2243 3.11331 18.304 2.96946 18.4023 2.81152C18.5116 2.63573 18.6761 2.43159 18.8271 2.28516C18.9961 2.12118 19.149 2.00843 19.3125 1.92676C19.4436 1.86113 19.6435 1.78568 19.7578 1.75977C19.8976 1.72788 20.0905 1.71566 20.3486 1.72266ZM14.6484 5.61621C14.552 5.60952 14.415 5.62188 14.3447 5.64453C14.2744 5.66726 14.1523 5.73166 14.0732 5.78711C13.9943 5.84245 13.9005 5.92772 13.8633 5.97656C13.8266 6.0257 13.7626 6.13083 13.7227 6.20996C13.679 6.29608 13.642 6.44249 13.6299 6.57617C13.6158 6.72729 13.6258 6.89728 13.6621 7.10254C13.6915 7.26941 13.7472 7.48567 13.7861 7.58203C13.8248 7.67837 13.8972 7.81465 13.9463 7.88477C13.9954 7.95479 14.0759 8.04969 14.126 8.0957C14.1761 8.14161 14.2892 8.20238 14.377 8.23145C14.4648 8.26016 14.6051 8.2845 14.6885 8.28418C14.7718 8.28417 14.8942 8.26148 14.96 8.23438C15.0257 8.20725 15.1348 8.1315 15.2021 8.06641C15.2695 8.00163 15.3599 7.88015 15.4023 7.79688C15.4445 7.71352 15.5015 7.54794 15.5293 7.42969C15.5657 7.27533 15.5766 7.11074 15.5674 6.84766C15.5578 6.57172 15.5364 6.43295 15.4834 6.28906C15.4441 6.18382 15.374 6.04786 15.3262 5.9873C15.2788 5.92693 15.2325 5.85818 15.2236 5.83398C15.215 5.80974 15.121 5.75365 15.0156 5.70898C14.9102 5.66434 14.7448 5.62259 14.6484 5.61621ZM20.2217 3.05078C20.1485 3.0511 20.0403 3.08286 19.9688 3.12402C19.9004 3.16364 19.788 3.27388 19.7197 3.37012C19.6447 3.47573 19.5598 3.65944 19.5049 3.83301C19.4551 3.99098 19.397 4.24943 19.376 4.40723C19.3549 4.5648 19.3282 4.75084 19.3164 4.82129C19.3049 4.89148 19.3039 5.35141 19.3145 5.84277C19.3282 6.46426 19.3493 6.82132 19.3857 7.01562C19.4148 7.16907 19.4712 7.39145 19.5107 7.50977C19.55 7.62814 19.6257 7.79668 19.6787 7.88379C19.7315 7.97084 19.8322 8.0818 19.9023 8.13086C19.9726 8.17999 20.0803 8.22971 20.1416 8.24023C20.2029 8.25106 20.3073 8.25042 20.373 8.23926C20.4478 8.22712 20.542 8.17425 20.624 8.09961C20.6965 8.03388 20.7895 7.92272 20.8301 7.85254C20.8703 7.78219 20.9324 7.6313 20.9678 7.51758C21.0035 7.40332 21.0556 7.18801 21.083 7.03906C21.1105 6.88967 21.1478 6.52383 21.166 6.22559C21.189 5.851 21.1887 5.50532 21.166 5.1084C21.1478 4.79261 21.1105 4.40493 21.083 4.24707C21.0552 4.08933 20.9972 3.86018 20.9541 3.7373C20.9107 3.61446 20.8213 3.43258 20.7559 3.33398C20.6612 3.19164 20.6072 3.14397 20.4932 3.10254C20.4141 3.07387 20.292 3.05054 20.2217 3.05078ZM23.1113 0.00390625C23.2374 0.0134746 23.3814 0.0501217 23.4785 0.0966797C23.5663 0.139102 23.7067 0.246297 23.79 0.335938C23.8731 0.42491 23.9408 0.519284 23.9414 0.545898C23.9414 0.572381 23.9674 0.633123 23.998 0.680664C24.0388 0.7435 24.0537 0.832589 24.0537 1.00879C24.0537 1.18494 24.0388 1.27408 23.998 1.33691C23.9674 1.38445 23.9414 1.44552 23.9414 1.47168C23.9411 1.49844 23.8665 1.59952 23.7744 1.69629C23.6737 1.8023 23.5433 1.89917 23.4473 1.94043C23.3323 1.98987 23.2199 2.00977 23.0479 2.01074C22.8588 2.0117 22.7715 1.99613 22.6357 1.93359C22.5377 1.88859 22.4034 1.78957 22.3242 1.70312C22.2476 1.61984 22.1535 1.48267 22.1143 1.39941C22.0607 1.28497 22.043 1.18958 22.043 1.00879C22.043 0.836932 22.0608 0.728978 22.1074 0.625977C22.1432 0.547182 22.2362 0.412341 22.3145 0.327148C22.3927 0.241639 22.5 0.149191 22.5527 0.12207C22.6055 0.0946308 22.7062 0.053533 22.7764 0.0302734C22.8555 0.00386223 22.9828 -0.00562929 23.1113 0.00390625ZM22.9355 0.561523C22.9176 0.56219 22.8609 0.591462 22.8086 0.625977C22.7559 0.660436 22.6869 0.735537 22.6562 0.792969C22.6254 0.850333 22.6007 0.954299 22.6006 1.02441C22.6009 1.09897 22.6274 1.19219 22.665 1.24805C22.7004 1.3006 22.7685 1.36871 22.8164 1.39941C22.8642 1.42998 22.961 1.45465 23.0312 1.45508C23.1015 1.45508 23.2075 1.43036 23.2666 1.39941C23.3256 1.3688 23.4013 1.29398 23.4346 1.23242C23.4678 1.17084 23.4951 1.07037 23.4951 1.00879C23.4951 0.947205 23.4678 0.846716 23.4346 0.785156C23.4 0.721461 23.3231 0.648048 23.2549 0.614258C23.154 0.564484 23.1278 0.562259 23.0898 0.598633C23.0537 0.633437 23.0376 0.633777 23.0068 0.601562C22.9854 0.579547 22.9531 0.561204 22.9355 0.561523Z" fill="black"/>
</svg>
