<svg width="29" height="15" viewBox="0 0 29 15" fill="none" xmlns="http://www.w3.org/2000/svg">
<path d="M8.83594 1.72461C9.16834 1.73258 9.39375 1.754 9.52246 1.79004C9.62785 1.81939 9.82221 1.89418 9.9541 1.95703C10.1271 2.03994 10.2562 2.13434 10.4199 2.29785C10.5556 2.43314 10.686 2.60128 10.7441 2.71582C10.7975 2.82113 10.8675 2.99342 10.8994 3.09863C10.9415 3.23701 10.957 3.38689 10.9551 3.64062C10.9532 3.94043 10.9392 4.03087 10.8604 4.25977C10.8096 4.40738 10.7393 4.55954 10.7041 4.59766C10.669 4.63594 10.6113 4.72272 10.5762 4.79004C10.5396 4.8596 10.4303 4.9728 10.3213 5.05273C10.2159 5.12995 10.0431 5.23679 9.74609 5.3877L9.98535 5.47266C10.1169 5.51892 10.2969 5.60703 10.3848 5.66797C10.4723 5.72899 10.6127 5.85084 10.6963 5.93848C10.7799 6.02623 10.897 6.19095 10.957 6.30469C11.0168 6.41891 11.0911 6.60582 11.1211 6.71973C11.1511 6.83393 11.1765 7.04926 11.1787 7.19824C11.1809 7.34756 11.1733 7.54915 11.1602 7.64551C11.1473 7.74184 11.1066 7.90655 11.0703 8.01172C11.0342 8.11696 10.9582 8.28923 10.9023 8.39453C10.8433 8.5062 10.6941 8.69379 10.5449 8.84375C10.34 9.04976 10.2286 9.13109 9.98535 9.25391C9.81385 9.34033 9.55029 9.44003 9.37891 9.4834C9.21188 9.52551 8.96584 9.57122 8.83203 9.58398C8.65552 9.60117 8.57485 9.59629 8.53711 9.56738C8.49559 9.53548 8.47168 9.53548 8.4209 9.56738C8.37011 9.59917 8.28926 9.59887 8.01367 9.56445C7.82462 9.54114 7.54781 9.48641 7.39844 9.44336C7.24915 9.40029 7.02719 9.31808 6.9043 9.25977C6.78144 9.20174 6.64993 9.1269 6.54395 9.0332L6.69141 8.40625C6.77284 8.06166 6.8475 7.77227 6.85645 7.7627C6.86625 7.75395 6.97332 7.79479 7.0957 7.85449C7.21868 7.91447 7.42677 7.99828 7.55859 8.04102C7.69017 8.08409 7.87353 8.1345 7.96582 8.15332C8.05811 8.17214 8.24484 8.18717 8.38086 8.1875C8.51691 8.1875 8.71492 8.16579 8.82031 8.13867C8.9256 8.11155 9.08307 8.04175 9.1709 7.98438C9.25867 7.92698 9.37736 7.80911 9.43457 7.72266C9.49194 7.63636 9.55361 7.49403 9.57227 7.40625C9.59079 7.31851 9.62011 7.23142 9.63672 7.21387C9.65536 7.19357 9.64913 7.14696 9.61914 7.08691C9.59295 7.03427 9.57097 6.96185 9.57129 6.92676C9.57102 6.89131 9.53578 6.79149 9.49316 6.7041C9.45043 6.61649 9.35763 6.49061 9.28613 6.4248C9.21428 6.35908 9.09426 6.27398 9.01953 6.23633C8.94482 6.1987 8.84072 6.15359 8.78809 6.13574C8.73518 6.1182 8.45628 6.09509 7.64648 6.06543L7.63867 4.81348L8.08594 4.79785C8.43439 4.78509 8.57838 4.76546 8.74023 4.70996C8.85424 4.67071 9.00928 4.59759 9.08398 4.54688C9.15869 4.4961 9.25412 4.39296 9.29688 4.31836C9.33953 4.24386 9.38259 4.14391 9.39258 4.0957C9.40247 4.04756 9.39644 3.98647 9.37891 3.95996C9.35726 3.92783 9.35841 3.89396 9.38184 3.85645C9.40736 3.81565 9.40626 3.76197 9.37793 3.65723C9.34824 3.54751 9.29288 3.47004 9.14355 3.33008C8.94907 3.14757 8.94593 3.14608 8.70801 3.12598C8.57646 3.11484 8.33962 3.11518 8.18164 3.12695C8.02475 3.13867 7.88162 3.16013 7.8623 3.1748C7.84474 3.18916 7.77241 3.21951 7.70215 3.24121C7.63187 3.26294 7.45636 3.34378 7.31152 3.4209C7.11831 3.52364 7.04785 3.54779 7.04785 3.5127C7.04781 3.48761 7.04427 3.46716 7.04004 3.46582C7.03558 3.46614 6.95299 3.48725 6.85645 3.51367C6.75968 3.54015 6.666 3.57453 6.64844 3.58984C6.63075 3.60486 6.53011 3.64125 6.4248 3.6709C6.31944 3.70057 6.04666 3.78336 5.81836 3.85449C5.59067 3.92544 5.38965 3.98609 5.37109 3.99023C5.35353 3.99374 5.30286 4.01342 5.25879 4.0332C5.21427 4.05327 4.99227 4.1407 4.76465 4.22754C4.53631 4.31464 4.24127 4.43047 4.10938 4.48535C3.97779 4.54023 3.63243 4.70243 3.34277 4.84473C3.05321 4.9873 2.78039 5.1282 2.73633 5.15723C2.6924 5.18669 2.46238 5.33755 2.22559 5.49219C1.90335 5.70245 1.70867 5.85895 1.45605 6.11133C1.27044 6.29681 1.07699 6.52389 1.02539 6.61621C0.974293 6.70842 0.920977 6.77285 0.908203 6.75977C0.895769 6.74719 0.876687 6.77904 0.866211 6.83105C0.855353 6.8837 0.824002 6.99917 0.795898 7.08691C0.766532 7.17915 0.743803 7.36097 0.743164 7.51758C0.742218 7.69518 0.762472 7.84905 0.799805 7.96387C0.8314 8.06048 0.873758 8.17964 0.894531 8.22852C0.91497 8.27733 0.946302 8.31836 0.963867 8.31836C0.981518 8.31883 1.05719 8.40359 1.13184 8.50781C1.20652 8.61208 1.36397 8.778 1.48242 8.87598C1.6009 8.97361 1.81358 9.13048 1.9541 9.22461C2.09468 9.31844 2.41839 9.50201 2.67285 9.63184C2.92721 9.76128 3.22875 9.90822 3.34277 9.95801C3.45678 10.0078 3.56544 10.0512 3.58301 10.0547C3.60257 10.0593 3.78859 10.1241 3.99805 10.1992C4.20828 10.2746 4.40049 10.3521 4.42578 10.3711C4.45069 10.3896 4.50136 10.4066 4.53809 10.4082C4.57603 10.4099 4.84301 10.4765 5.13184 10.5566C5.42152 10.637 5.88102 10.7536 6.15332 10.8154C6.42573 10.8776 6.82479 10.9605 7.04004 11.001C7.25428 11.0412 7.42982 11.0853 7.43164 11.0986C7.43164 11.1117 7.44871 11.1137 7.4707 11.1025C7.49274 11.0914 7.62608 11.1004 7.7666 11.123C7.907 11.1457 8.05084 11.1828 8.08594 11.2051C8.12121 11.2277 8.26487 11.2554 8.40527 11.2656L8.85156 11.2988C8.95692 11.3068 9.30209 11.3409 9.61816 11.375C9.93433 11.4088 10.2874 11.4465 10.4014 11.458C10.5986 11.4781 10.6095 11.4751 10.6338 11.4043C10.6482 11.3631 10.6665 11.1792 10.6748 10.9951C10.6834 10.811 10.7014 10.568 10.7139 10.4561C10.7276 10.3315 10.7548 10.2395 10.7842 10.2197C10.8214 10.1948 10.9734 10.2834 11.4551 10.6104C11.7977 10.8429 12.1315 11.0679 12.1973 11.1104C12.263 11.1525 12.3094 11.2012 12.3008 11.2188C12.2927 11.2363 12.332 11.2654 12.3887 11.2842C12.4458 11.3027 12.6703 11.4433 12.8877 11.5957C13.1052 11.7479 13.3359 11.9034 13.3994 11.9414C13.463 11.9791 13.5507 12.0452 13.5947 12.0879C13.6385 12.1306 13.6998 12.175 13.7305 12.1865C13.7615 12.1983 13.8938 12.2797 14.0254 12.3672C14.1838 12.4726 14.2619 12.5446 14.2568 12.5801C14.252 12.6123 14.1079 12.708 13.8975 12.8193C13.7048 12.9212 13.5044 13.0112 13.4512 13.0186C13.3985 13.0259 13.3261 13.0576 13.291 13.0889C13.2545 13.1211 12.7516 13.3739 12.1729 13.6514L11.8262 13.8184C11.3663 14.0391 10.9442 14.2417 10.8066 14.3076C10.5331 14.4388 10.4892 14.4513 10.4521 14.4092C10.4173 14.3692 10.4178 14.2846 10.4551 13.915C10.4797 13.6694 10.499 13.4214 10.498 13.3643C10.4971 13.3071 10.5108 13.2247 10.5283 13.1807C10.5577 13.1073 10.5544 13.1033 10.4883 13.124C10.4303 13.1424 10.4224 13.1375 10.4482 13.0996C10.4728 13.0633 10.4695 13.0592 10.4326 13.0811C10.4042 13.098 10.2805 13.0919 10.124 13.0654C9.98031 13.0412 9.8673 13.0138 9.87305 13.0049C9.87752 12.9964 9.83777 12.9883 9.7832 12.9873C9.72797 12.986 9.52787 12.9576 9.33887 12.9238C9.15013 12.8897 8.99577 12.8546 8.99609 12.8457C8.99572 12.8371 8.94854 12.8267 8.8916 12.8232C8.83399 12.8193 8.61554 12.7786 8.40527 12.7324L8.38477 12.7275C8.17793 12.6821 7.93213 12.6284 7.83008 12.6064C7.72469 12.5835 7.53033 12.5367 7.39844 12.502C7.26659 12.4671 6.91455 12.3713 6.61621 12.2891C6.31817 12.2069 6.0172 12.1118 5.94629 12.0781C5.87603 12.0446 5.78904 12.0176 5.75391 12.0176C5.718 12.0173 5.53152 11.965 5.33887 11.9014C5.14573 11.8379 4.89427 11.7511 4.78027 11.708C4.66638 11.6647 4.56576 11.6162 4.55664 11.5996C4.5477 11.5833 4.49035 11.5653 4.42871 11.5596C4.36692 11.554 4.15177 11.4799 3.9502 11.3955C3.7494 11.3117 3.56992 11.2247 3.55078 11.2021C3.53324 11.1805 3.42538 11.1304 3.31152 11.0918C3.19726 11.0532 2.93142 10.928 2.7207 10.8135C2.50993 10.6989 2.27224 10.5608 2.19336 10.5068C2.11452 10.4529 2.03914 10.3935 2.02637 10.375C2.01333 10.3563 2.00195 10.3522 2.00195 10.3652C2.00032 10.3773 1.87534 10.3029 1.72266 10.1992C1.56904 10.0949 1.3247 9.90431 1.18066 9.77637C1.03632 9.64811 0.892623 9.5079 0.861328 9.46387C0.830008 9.42014 0.755984 9.34071 0.696289 9.28809C0.63684 9.23529 0.511729 9.07765 0.417969 8.9375C0.317734 8.78761 0.201207 8.55388 0.134766 8.37109C0.0402353 8.1101 0.0192725 8.00459 0.00585938 7.7168C-0.00691191 7.44499 8.44499e-05 7.35855 0.0380859 7.30176C0.0642126 7.26187 0.0963094 7.14966 0.109375 7.05176C0.122469 6.95317 0.15213 6.85604 0.174805 6.83594C0.197698 6.81575 0.215799 6.77034 0.214844 6.73535C0.21467 6.69972 0.280177 6.57065 0.361328 6.44824C0.443223 6.32531 0.656258 6.0816 0.834961 5.90625C1.0138 5.73079 1.2739 5.50544 1.41309 5.40625C1.55269 5.30701 1.79612 5.15174 1.9541 5.06055C2.11215 4.96964 2.39162 4.82376 2.57617 4.7373C2.76076 4.65084 2.93011 4.58074 2.95215 4.58105C2.97447 4.58112 3.0388 4.55383 3.0957 4.51953C3.15299 4.48504 3.36474 4.39757 3.56641 4.3252C3.76824 4.25245 4.12795 4.13029 4.36523 4.05371C4.60249 3.97715 4.92596 3.87931 5.08398 3.83594C5.24193 3.79228 5.38177 3.7662 5.39453 3.77832C5.40732 3.79023 5.43577 3.78417 5.45801 3.76465C5.48036 3.74487 5.63143 3.69748 5.79395 3.66016C5.95506 3.62316 6.10142 3.60041 6.12109 3.6084C6.13866 3.61733 6.15332 3.61367 6.15332 3.60059C6.15467 3.58731 6.25137 3.55658 6.36914 3.53223C6.48784 3.5077 6.62804 3.48529 6.68066 3.48242C6.73336 3.47986 6.81246 3.47421 6.85645 3.4707C6.90013 3.46714 6.95528 3.45347 6.97852 3.44043C7.01198 3.42143 6.99369 3.30427 6.8877 2.85938C6.81456 2.55243 6.76322 2.28276 6.77344 2.26074C6.78442 2.23856 6.91097 2.16281 7.05566 2.0918C7.20057 2.02037 7.43368 1.92724 7.57422 1.88477C7.71474 1.84233 7.94542 1.78593 8.08594 1.75977C8.26564 1.72633 8.48787 1.71632 8.83594 1.72461ZM23.2871 3.65723C23.3141 3.65737 23.634 3.74178 23.998 3.8457C24.3624 3.95004 24.8763 4.10995 25.1396 4.20117C25.4031 4.29211 25.7699 4.43065 25.9541 4.50879C26.1384 4.58699 26.4475 4.73018 26.6406 4.82617C26.8338 4.92255 27.171 5.12021 27.3906 5.26562C27.61 5.41144 27.9251 5.65843 28.0898 5.81445C28.2546 5.97014 28.4537 6.18382 28.5322 6.28906C28.6111 6.39433 28.7075 6.54489 28.7471 6.62402C28.7867 6.70315 28.814 6.7856 28.8076 6.80762C28.8013 6.82961 28.8106 6.84766 28.8281 6.84766C28.8458 6.84849 28.8912 6.9523 28.9297 7.0791C28.9846 7.25862 29.0006 7.38877 29 7.66113C28.9994 7.9718 28.9872 8.04713 28.8955 8.31543C28.8386 8.48229 28.7283 8.72239 28.6504 8.84961C28.5725 8.9769 28.4941 9.08105 28.4766 9.08105C28.459 9.08111 28.4443 9.10246 28.4443 9.12891C28.4437 9.15598 28.3115 9.31508 28.1494 9.4834C27.9869 9.6525 27.7312 9.88749 27.582 10.0059C27.4328 10.1242 27.1634 10.3162 26.9834 10.4326C26.8033 10.549 26.6566 10.6332 26.6572 10.6201C26.6572 10.6075 26.6246 10.627 26.585 10.6641C26.5446 10.7018 26.3609 10.8122 26.1768 10.9092C25.9925 11.0061 25.6696 11.1588 25.459 11.249C25.2482 11.3396 25.0468 11.4298 25.0117 11.4492C24.9766 11.4684 24.7822 11.5455 24.5801 11.6211C24.379 11.6963 24.204 11.7515 24.1895 11.7441C24.1764 11.7358 24.1617 11.7422 24.1572 11.7578C24.1509 11.774 23.9974 11.8383 23.8145 11.9014C23.6302 11.9649 23.4422 12.0169 23.3984 12.0166C23.3543 12.0164 23.2682 12.0434 23.207 12.0762C23.1454 12.1091 22.9154 12.1896 22.6963 12.2549C22.4766 12.3203 22.2605 12.3737 22.2168 12.374C22.1729 12.3744 22.1297 12.3857 22.1211 12.3984C22.109 12.4123 21.8659 12.4818 21.5781 12.5537C21.2883 12.6261 20.822 12.7346 20.541 12.7949C20.26 12.8555 19.8643 12.9343 19.6621 12.9697L18.7363 13.1299C18.5343 13.165 18.2899 13.204 18.1934 13.2168C18.097 13.2296 17.9533 13.2395 17.874 13.2383C17.7948 13.237 17.7225 13.2487 17.7139 13.2646C17.705 13.2806 17.6027 13.2966 17.4863 13.3008C17.3708 13.3049 17.2814 13.3191 17.2861 13.332C17.2928 13.3451 17.2378 13.3578 17.1631 13.3594C17.0884 13.3607 16.9843 13.3657 16.9316 13.3711C16.8788 13.3762 16.7352 13.3959 16.6123 13.415C16.4893 13.4339 16.1226 13.4719 15.7979 13.499C15.4728 13.5265 15.1707 13.5552 15.127 13.5625C15.083 13.5697 15.0262 13.5627 15 13.5469C14.9649 13.5258 14.9464 13.4342 14.9326 13.2061C14.9221 13.0342 14.9254 12.8756 14.9404 12.8535C14.9558 12.8305 14.9538 12.8071 14.9355 12.7979C14.9166 12.7871 14.9074 12.6361 14.9121 12.418C14.9166 12.2176 14.9083 12.041 14.8945 12.0264C14.881 12.0108 14.8708 11.9382 14.8711 11.8643C14.8718 11.7899 14.8909 11.7116 14.9141 11.6895C14.945 11.6601 15.3259 11.638 16.3428 11.6074C17.1057 11.5844 17.7881 11.5598 17.8584 11.5527C17.9293 11.5454 18.1949 11.524 18.4492 11.5049C18.7042 11.486 19.185 11.4426 19.5186 11.4082C19.8523 11.3737 20.2187 11.3314 20.333 11.3145C20.4473 11.2975 20.627 11.2838 20.7324 11.2832C20.8378 11.2829 21.0176 11.2655 21.1318 11.2461C21.246 11.2266 21.3536 11.1989 21.3711 11.1846C21.389 11.1698 21.5723 11.1285 21.7783 11.0928C21.9845 11.0567 22.168 11.0344 22.1855 11.043C22.2031 11.0514 22.2349 11.0454 22.2568 11.0293C22.2789 11.013 22.4261 10.9706 22.584 10.9355C22.7421 10.9001 22.9081 10.8644 22.9521 10.8564C22.9968 10.8479 23.1836 10.8033 23.3672 10.7568C23.5516 10.7102 23.9183 10.6091 24.1816 10.5322C24.4451 10.455 24.855 10.3214 25.0918 10.2344C25.3285 10.1477 25.6263 10.0318 25.7539 9.97754C25.881 9.92344 25.9855 9.88953 25.9863 9.90234C25.9863 9.91532 25.9968 9.91103 26.0098 9.89258C26.0225 9.87409 26.1591 9.79122 26.3125 9.70898C26.4651 9.6275 26.605 9.56749 26.624 9.5752C26.6415 9.58379 26.6562 9.57703 26.6562 9.55957C26.6562 9.54204 26.6776 9.52737 26.7041 9.52734C26.7304 9.52734 26.7516 9.51343 26.752 9.49609C26.752 9.47856 26.8347 9.4151 26.9355 9.35547C27.0365 9.29548 27.2198 9.16866 27.3428 9.07422C27.4657 8.97979 27.5811 8.89633 27.5986 8.88867C27.6165 8.88031 27.7091 8.77999 27.8057 8.66602C27.902 8.55187 28.0281 8.37958 28.0859 8.2832C28.1434 8.18696 28.2154 8.02901 28.2451 7.93262C28.2748 7.83626 28.3111 7.74983 28.3252 7.74121C28.3392 7.7326 28.3286 7.57375 28.3018 7.38965C28.2663 7.14756 28.2228 6.99247 28.1455 6.83105C28.0867 6.7082 27.9677 6.5162 27.8818 6.4043C27.7961 6.29222 27.7017 6.163 27.6709 6.11719C27.6407 6.07143 27.6044 6.03585 27.5908 6.03809C27.5774 6.04096 27.502 5.98314 27.4229 5.90918C27.3437 5.83516 27.157 5.68364 27.0078 5.57324C26.8587 5.46284 26.6063 5.29293 26.4482 5.19531C26.29 5.09731 25.9596 4.91503 25.7139 4.79004C25.468 4.66501 25.1522 4.5111 25.0117 4.44824C24.8713 4.38545 24.6202 4.28192 24.4531 4.21777C24.2862 4.15369 24.1283 4.08964 24.1016 4.07617C24.0751 4.06245 23.8857 3.99502 23.6807 3.92578C23.4761 3.8567 23.3146 3.78962 23.3213 3.77637C23.3286 3.76329 23.3063 3.76329 23.2715 3.77637C23.2196 3.79574 23.2112 3.78859 23.2217 3.73633C23.2285 3.70215 23.2348 3.67064 23.2363 3.66504C23.2379 3.66057 23.2606 3.65723 23.2871 3.65723ZM16.4258 2.19727C16.4322 2.46479 16.4365 2.77309 16.4365 3.08203L16.2695 3.08301C16.1773 3.08301 15.9725 3.09739 15.8145 3.11523C15.6564 3.13342 15.49 3.14977 15.4463 3.15137C15.4022 3.15309 15.324 3.1738 15.2715 3.19727C15.2188 3.22088 15.0671 3.28363 14.9355 3.33691C14.8036 3.39023 14.6022 3.50371 14.4883 3.58887C14.3743 3.67411 14.2178 3.82072 14.1406 3.91504C14.0637 4.00982 13.9453 4.20241 13.8779 4.34277C13.8103 4.4831 13.7355 4.6771 13.7109 4.77344C13.6866 4.86896 13.6708 4.95497 13.6768 4.96484C13.6828 4.97346 13.7725 4.90202 13.875 4.80566C13.9774 4.70942 14.1386 4.59091 14.2344 4.54297C14.3302 4.49543 14.4952 4.43403 14.6006 4.40723C14.7059 4.38015 14.9211 4.35909 15.0791 4.35938C15.2371 4.35969 15.4601 4.38209 15.5742 4.40918C15.6885 4.4363 15.8829 4.5114 16.0059 4.57617C16.1325 4.64252 16.3127 4.77609 16.4219 4.88477C16.5279 4.99002 16.6752 5.17696 16.749 5.2998C16.8228 5.42265 16.9188 5.62423 16.9619 5.74707C17.0053 5.87003 17.0644 6.10676 17.0938 6.27344C17.133 6.49683 17.1426 6.68052 17.1299 6.97461C17.1197 7.21295 17.0872 7.47034 17.0498 7.61328C17.0153 7.74502 16.9493 7.94569 16.9033 8.05957C16.857 8.1738 16.773 8.34602 16.7158 8.44238C16.659 8.53873 16.4832 8.74838 16.3252 8.9082C16.0777 9.1583 15.9955 9.21906 15.7344 9.34473C15.5674 9.42481 15.3266 9.51294 15.1992 9.54102C15.0718 9.56877 14.8457 9.5918 14.6963 9.5918C14.5469 9.5918 14.3208 9.5691 14.1934 9.54199C14.066 9.51489 13.8759 9.45713 13.7705 9.41406C13.6652 9.37071 13.5015 9.28953 13.4072 9.23242C13.313 9.17563 13.14 9.03512 13.0234 8.9209C12.907 8.80676 12.7449 8.60598 12.6621 8.47461C12.5791 8.34316 12.4604 8.10953 12.3984 7.95605C12.3362 7.80268 12.2569 7.55895 12.2227 7.41406C12.1882 7.26928 12.1442 6.99283 12.124 6.7998C12.1042 6.60677 12.0739 6.43454 12.0576 6.41699C12.0414 6.39942 12.0284 6.33487 12.0283 6.27344C12.0283 6.21251 12.0414 6.14784 12.0566 6.12988C12.0723 6.11234 12.1023 5.92539 12.123 5.71484C12.1435 5.50426 12.1878 5.19519 12.2217 5.02832C12.2552 4.86155 12.326 4.5896 12.3799 4.42285C12.4335 4.25606 12.5552 3.96159 12.6504 3.76855C12.7453 3.57602 12.86 3.3789 12.9053 3.33008C12.9506 3.2819 12.9803 3.24219 12.9717 3.24219C12.9633 3.24185 13.0244 3.15371 13.1074 3.0459C13.1908 2.93744 13.3741 2.75051 13.5146 2.63086C13.6552 2.51089 13.7955 2.41211 13.8262 2.41211C13.8571 2.41202 13.8968 2.38367 13.9141 2.34863C13.9321 2.31318 14.0912 2.21532 14.2734 2.12793C14.4535 2.0418 14.7013 1.94231 14.8242 1.90723C14.9472 1.87214 15.1339 1.8264 15.2393 1.80566C15.3446 1.78461 15.553 1.75625 15.7021 1.74316C15.8512 1.73009 16.0729 1.71698 16.4141 1.70996L16.4258 2.19727ZM20.3486 1.72266C20.6635 1.73095 20.775 1.74815 20.9717 1.81738C21.1032 1.86366 21.3046 1.96448 21.4189 2.04199C21.5333 2.11952 21.687 2.24935 21.7617 2.33008C21.8364 2.41043 21.9605 2.57305 22.0371 2.69141C22.1137 2.80964 22.22 3.00701 22.2734 3.12988C22.3268 3.25272 22.4085 3.476 22.4551 3.625C22.502 3.77425 22.568 4.06108 22.6025 4.2627C22.637 4.46466 22.6807 4.83816 22.6992 5.09277C22.7174 5.34728 22.7237 5.72023 22.7129 5.92188C22.702 6.12369 22.6784 6.42485 22.6602 6.5918C22.642 6.75864 22.5986 7.03136 22.5645 7.19824C22.53 7.36511 22.4586 7.63113 22.4053 7.78906C22.3519 7.94694 22.2452 8.19777 22.168 8.34668C22.091 8.49568 21.9486 8.71561 21.8516 8.83398C21.7542 8.95235 21.5991 9.1059 21.5068 9.1748C21.4146 9.24397 21.2461 9.34383 21.1318 9.39746C21.0175 9.45106 20.8231 9.51681 20.7002 9.54297C20.5772 9.56912 20.3542 9.59082 20.2051 9.59082C20.056 9.59081 19.8442 9.56879 19.7344 9.54297C19.6245 9.51681 19.4515 9.45905 19.3506 9.41406C19.2497 9.36874 19.1026 9.28397 19.0234 9.22656C18.9444 9.16957 18.8549 9.1131 18.8242 9.10156C18.7936 9.09008 18.7686 9.0517 18.7686 9.0166C18.7684 8.98169 18.744 8.94281 18.7148 8.92969C18.6858 8.91661 18.6014 8.81911 18.5273 8.71387C18.4533 8.60866 18.3353 8.40795 18.2656 8.26758C18.1957 8.12719 18.1007 7.89722 18.0547 7.75684C18.0087 7.61645 17.9494 7.40817 17.9229 7.29395C17.8964 7.18005 17.875 7.01445 17.875 6.92676C17.875 6.83916 17.8606 6.75287 17.8438 6.73535C17.8265 6.71592 17.7957 6.49458 17.7754 6.24121C17.7537 5.97326 17.747 5.59079 17.7588 5.33203C17.77 5.08635 17.8013 4.73391 17.8281 4.5498C17.8553 4.36574 17.8996 4.12868 17.9258 4.02344C17.9517 3.91809 18.0107 3.71739 18.0566 3.57715C18.1029 3.43699 18.1595 3.2865 18.1826 3.24219C18.2056 3.19848 18.2249 3.14743 18.2246 3.12988C18.2255 3.11058 18.3048 2.96821 18.4023 2.81152C18.5116 2.63574 18.6761 2.4316 18.8271 2.28516C18.996 2.12123 19.1481 2.00745 19.3115 1.92578C19.4427 1.86012 19.6434 1.78568 19.7578 1.75977C19.8976 1.72787 20.0904 1.71565 20.3486 1.72266ZM14.6484 5.61523C14.552 5.60853 14.415 5.62188 14.3447 5.64453C14.2744 5.66725 14.1524 5.73165 14.0732 5.78711C13.9941 5.84263 13.8993 5.92781 13.8623 5.97656C13.8256 6.02573 13.7625 6.12995 13.7227 6.20898C13.6789 6.29513 13.641 6.44216 13.6289 6.57617C13.6149 6.72738 13.6257 6.89712 13.6621 7.10254C13.6915 7.26933 13.7472 7.48463 13.7861 7.58105C13.8248 7.67741 13.8961 7.81457 13.9453 7.88477C13.9945 7.95493 14.0758 8.04975 14.126 8.0957C14.1761 8.14165 14.2891 8.20241 14.377 8.23145C14.4648 8.26016 14.6051 8.28352 14.6885 8.2832C14.7718 8.28317 14.8942 8.2605 14.96 8.2334C15.0258 8.20618 15.1349 8.13137 15.2021 8.06641C15.2694 8.00173 15.3588 7.88014 15.4014 7.79688C15.4435 7.71361 15.5015 7.54806 15.5293 7.42969C15.5657 7.27531 15.5766 7.11072 15.5674 6.84766C15.5578 6.57167 15.5364 6.43296 15.4834 6.28906C15.4442 6.18394 15.3741 6.04807 15.3262 5.9873C15.2786 5.92668 15.2323 5.85694 15.2236 5.83301C15.2146 5.80866 15.1207 5.75352 15.0156 5.70898C14.9103 5.66433 14.7449 5.62163 14.6484 5.61523ZM20.2207 3.05078C20.1477 3.05123 20.0401 3.08204 19.9688 3.12305C19.9004 3.16261 19.7881 3.27377 19.7197 3.37012C19.6447 3.47569 19.5598 3.65851 19.5049 3.83203C19.4551 3.98987 19.3971 4.24829 19.376 4.40625C19.3549 4.56413 19.3282 4.75103 19.3164 4.82129C19.3049 4.89148 19.3039 5.35141 19.3145 5.84277C19.3282 6.46372 19.3494 6.82032 19.3857 7.01465C19.4148 7.16812 19.4711 7.39139 19.5107 7.50977C19.5501 7.62812 19.6257 7.79579 19.6787 7.88281C19.7313 7.96977 19.8311 8.08159 19.9014 8.13086C19.9716 8.18 20.0803 8.22971 20.1416 8.24023C20.203 8.25102 20.3074 8.25041 20.373 8.23926C20.4477 8.22709 20.542 8.1742 20.624 8.09961C20.6964 8.03397 20.7885 7.92275 20.8291 7.85254C20.8693 7.78238 20.9323 7.63147 20.9678 7.51758C21.0035 7.4034 21.0555 7.18806 21.083 7.03906C21.1105 6.8898 21.1478 6.52385 21.166 6.22559C21.189 5.851 21.1887 5.50532 21.166 5.1084C21.1478 4.7926 21.1105 4.40505 21.083 4.24707C21.0552 4.08913 20.9972 3.85917 20.9541 3.73633C20.9107 3.61354 20.8213 3.43259 20.7559 3.33398C20.661 3.19136 20.6065 3.14402 20.4922 3.10254C20.413 3.07387 20.2909 3.05046 20.2207 3.05078ZM23.1113 0.00390625C23.2374 0.0134709 23.3814 0.049171 23.4785 0.0957031C23.5663 0.138139 23.7067 0.24628 23.79 0.335938C23.8733 0.425221 23.9414 0.519753 23.9414 0.545898C23.9414 0.5724 23.9674 0.633146 23.998 0.680664C24.0387 0.74349 24.0537 0.832844 24.0537 1.00879C24.0537 1.18492 24.0388 1.2741 23.998 1.33691C23.9676 1.38419 23.9417 1.4443 23.9414 1.4707C23.9414 1.49716 23.8666 1.59839 23.7744 1.69531C23.6735 1.80156 23.5424 1.89927 23.4463 1.94043C23.3315 1.98975 23.2196 2.00976 23.0479 2.01074C22.8588 2.0117 22.7715 1.99515 22.6357 1.93262C22.5377 1.88759 22.4034 1.78856 22.3242 1.70215C22.2477 1.61889 22.1535 1.4826 22.1143 1.39941C22.0606 1.28493 22.043 1.18951 22.043 1.00879C22.043 0.837022 22.0609 0.728921 22.1074 0.625977C22.1432 0.547217 22.2362 0.412347 22.3145 0.327148C22.3927 0.241639 22.5 0.149191 22.5527 0.12207C22.6055 0.0946308 22.7062 0.0535357 22.7764 0.0302734C22.8556 0.00385921 22.9828 -0.00565107 23.1113 0.00390625ZM22.9355 0.561523C22.9178 0.562036 22.8601 0.590342 22.8076 0.625C22.7549 0.659495 22.6869 0.735581 22.6562 0.792969C22.6254 0.850472 22.6006 0.954378 22.6006 1.02441C22.6009 1.09908 22.6274 1.19221 22.665 1.24805C22.7005 1.30068 22.7685 1.3688 22.8164 1.39941C22.8643 1.42999 22.961 1.45469 23.0312 1.45508C23.1015 1.45508 23.2075 1.43036 23.2666 1.39941C23.3257 1.36878 23.4014 1.29302 23.4346 1.23145C23.4676 1.16993 23.495 1.07025 23.4951 1.00879C23.4951 0.947211 23.4678 0.846736 23.4346 0.785156C23.4001 0.721467 23.3231 0.648166 23.2549 0.614258C23.154 0.564484 23.1278 0.562259 23.0898 0.598633C23.0536 0.633445 23.0368 0.633042 23.0059 0.600586C22.9845 0.578783 22.953 0.561207 22.9355 0.561523Z" fill="white"/>
</svg>
