<svg width="88" height="13" viewBox="0 0 88 13" fill="none" xmlns="http://www.w3.org/2000/svg">
<path d="M6.032 12V9.584H0.832V8.592L6.256 0.719999H7.36V8.464H9.04V9.584H7.36V12H6.032ZM6.032 8.464V2.304H6.416L1.952 8.816V8.464H6.032ZM11.0178 12V0.719999H12.1218L16.6978 9.312H16.2178L20.7618 0.719999H21.8658V12H20.6498V2.48H21.0338L16.8898 10.256H16.0258L11.8338 2.464H12.2178V12H11.0178ZM24.6733 12V0.719999H29.1373C29.9479 0.719999 30.6306 0.853333 31.1853 1.12C31.7506 1.376 32.1773 1.76 32.4653 2.272C32.7533 2.77333 32.8973 3.38667 32.8973 4.112C32.8973 4.816 32.7533 5.424 32.4653 5.936C32.1773 6.448 31.7506 6.83733 31.1853 7.104C30.6306 7.37067 29.9479 7.504 29.1373 7.504H25.9853V12H24.6733ZM25.9853 6.4H28.9773C29.8413 6.4 30.4919 6.208 30.9293 5.824C31.3773 5.42933 31.6013 4.85867 31.6013 4.112C31.6013 3.35467 31.3773 2.784 30.9293 2.4C30.4919 2.00533 29.8413 1.808 28.9773 1.808H25.9853V6.4ZM34.0895 8.272V7.2H38.5695V8.272H34.0895ZM41.1108 12V0.719999H42.4228V5.712H49.1908V0.719999H50.5028V12H49.1908V6.848H42.4228V12H41.1108ZM58.1626 12.144C57.0533 12.144 56.104 11.9093 55.3146 11.44C54.5253 10.9707 53.9173 10.304 53.4906 9.44C53.0746 8.576 52.8666 7.54667 52.8666 6.352C52.8666 5.15733 53.0746 4.13333 53.4906 3.28C53.9173 2.416 54.5253 1.74933 55.3146 1.28C56.104 0.810666 57.0533 0.575999 58.1626 0.575999C58.9413 0.575999 59.6613 0.698666 60.3226 0.943999C60.984 1.18933 61.5386 1.54667 61.9866 2.016L61.4746 3.088C60.984 2.62933 60.472 2.29867 59.9386 2.096C59.416 1.88267 58.8346 1.776 58.1946 1.776C56.9253 1.776 55.9546 2.176 55.2826 2.976C54.6106 3.776 54.2746 4.90133 54.2746 6.352C54.2746 7.80267 54.6106 8.93333 55.2826 9.744C55.9546 10.544 56.9253 10.944 58.1946 10.944C58.8346 10.944 59.416 10.8427 59.9386 10.64C60.472 10.4267 60.984 10.0907 61.4746 9.632L61.9866 10.704C61.5386 11.1627 60.984 11.52 60.3226 11.776C59.6613 12.0213 58.9413 12.144 58.1626 12.144ZM63.3395 8.272V7.2H67.8195V8.272H63.3395ZM74.0088 12.144C73.5288 12.144 73.0594 12.0907 72.6008 11.984C72.1421 11.8773 71.7101 11.7227 71.3048 11.52C70.9101 11.3173 70.5581 11.0773 70.2488 10.8L70.7448 9.76C71.2568 10.176 71.7741 10.4853 72.2968 10.688C72.8301 10.88 73.3954 10.976 73.9928 10.976C74.7821 10.976 75.3954 10.7573 75.8328 10.32C76.2808 9.88267 76.5048 9.30667 76.5048 8.592C76.5048 7.856 76.2914 7.25333 75.8648 6.784C75.4381 6.31467 74.8514 6.08 74.1048 6.08C73.5608 6.08 73.0808 6.192 72.6648 6.416C72.2594 6.62933 71.8914 6.96533 71.5608 7.424H70.6008V0.719999H77.1448V1.84H71.8968V6.336H71.5448C71.8221 5.888 72.2061 5.54667 72.6968 5.312C73.1874 5.06667 73.7368 4.944 74.3448 4.944C75.0594 4.944 75.6728 5.09333 76.1848 5.392C76.7074 5.69067 77.1074 6.112 77.3848 6.656C77.6728 7.18933 77.8168 7.81333 77.8168 8.528C77.8168 9.232 77.6621 9.856 77.3528 10.4C77.0434 10.944 76.6061 11.3707 76.0408 11.68C75.4754 11.9893 74.7981 12.144 74.0088 12.144ZM83.3625 12.144C82.5092 12.144 81.7838 11.9253 81.1865 11.488C80.5998 11.04 80.1572 10.384 79.8585 9.52C79.5598 8.656 79.4105 7.6 79.4105 6.352C79.4105 5.09333 79.5598 4.03733 79.8585 3.184C80.1572 2.32 80.5998 1.66933 81.1865 1.232C81.7838 0.794666 82.5092 0.575999 83.3625 0.575999C84.2265 0.575999 84.9518 0.794666 85.5385 1.232C86.1252 1.66933 86.5678 2.31467 86.8665 3.168C87.1652 4.02133 87.3145 5.07733 87.3145 6.336C87.3145 7.59467 87.1652 8.656 86.8665 9.52C86.5678 10.384 86.1252 11.04 85.5385 11.488C84.9518 11.9253 84.2265 12.144 83.3625 12.144ZM83.3625 11.008C84.2585 11.008 84.9198 10.6293 85.3465 9.872C85.7838 9.11467 86.0025 7.936 86.0025 6.336C86.0025 4.736 85.7892 3.568 85.3625 2.832C84.9358 2.08533 84.2692 1.712 83.3625 1.712C82.4772 1.712 81.8158 2.08533 81.3785 2.832C80.9412 3.57867 80.7225 4.74667 80.7225 6.336C80.7225 7.936 80.9358 9.11467 81.3625 9.872C81.7998 10.6293 82.4665 11.008 83.3625 11.008Z" fill="black"/>
</svg>
