<svg width="219" height="19" viewBox="0 0 219 19" fill="none" xmlns="http://www.w3.org/2000/svg">
<path d="M4.986 15.216C4.11 15.216 3.24 15.102 2.376 14.874C1.524 14.634 0.792 14.298 0.18 13.866L1.332 11.634C1.812 11.982 2.364 12.258 2.988 12.462C3.624 12.666 4.266 12.768 4.914 12.768C5.646 12.768 6.222 12.624 6.642 12.336C7.062 12.048 7.272 11.646 7.272 11.13C7.272 10.806 7.188 10.518 7.02 10.266C6.852 10.014 6.552 9.822 6.12 9.69C5.7 9.558 5.106 9.492 4.338 9.492H1.116L1.764 2.4H9.45V4.74H2.808L4.32 3.408L3.87 8.466L2.358 7.134H5.022C6.27 7.134 7.272 7.308 8.028 7.656C8.796 7.992 9.354 8.454 9.702 9.042C10.05 9.63 10.224 10.296 10.224 11.04C10.224 11.784 10.038 12.474 9.666 13.11C9.294 13.734 8.718 14.244 7.938 14.64C7.17 15.024 6.186 15.216 4.986 15.216ZM16.8071 15.216C15.7751 15.216 14.8511 14.964 14.0351 14.46C13.2191 13.944 12.5771 13.2 12.1091 12.228C11.6411 11.256 11.4071 10.08 11.4071 8.7C11.4071 7.32 11.6411 6.144 12.1091 5.172C12.5771 4.2 13.2191 3.462 14.0351 2.958C14.8511 2.442 15.7751 2.184 16.8071 2.184C17.8511 2.184 18.7751 2.442 19.5791 2.958C20.3951 3.462 21.0371 4.2 21.5051 5.172C21.9731 6.144 22.2071 7.32 22.2071 8.7C22.2071 10.08 21.9731 11.256 21.5051 12.228C21.0371 13.2 20.3951 13.944 19.5791 14.46C18.7751 14.964 17.8511 15.216 16.8071 15.216ZM16.8071 12.75C17.2991 12.75 17.7251 12.612 18.0851 12.336C18.4571 12.06 18.7451 11.622 18.9491 11.022C19.1651 10.422 19.2731 9.648 19.2731 8.7C19.2731 7.752 19.1651 6.978 18.9491 6.378C18.7451 5.778 18.4571 5.34 18.0851 5.064C17.7251 4.788 17.2991 4.65 16.8071 4.65C16.3271 4.65 15.9011 4.788 15.5291 5.064C15.1691 5.34 14.8811 5.778 14.6651 6.378C14.4611 6.978 14.3591 7.752 14.3591 8.7C14.3591 9.648 14.4611 10.422 14.6651 11.022C14.8811 11.622 15.1691 12.06 15.5291 12.336C15.9011 12.612 16.3271 12.75 16.8071 12.75ZM36.6199 5.172C37.3879 5.172 38.0659 5.328 38.6539 5.64C39.2539 5.94 39.7219 6.408 40.0579 7.044C40.4059 7.668 40.5799 8.472 40.5799 9.456V15H37.7719V9.888C37.7719 9.108 37.6099 8.532 37.2859 8.16C36.9619 7.788 36.5059 7.602 35.9179 7.602C35.5099 7.602 35.1439 7.698 34.8199 7.89C34.4959 8.07 34.2439 8.346 34.0639 8.718C33.8839 9.09 33.7939 9.564 33.7939 10.14V15H30.9859V9.888C30.9859 9.108 30.8239 8.532 30.4999 8.16C30.1879 7.788 29.7379 7.602 29.1499 7.602C28.7419 7.602 28.3759 7.698 28.0519 7.89C27.7279 8.07 27.4759 8.346 27.2959 8.718C27.1159 9.09 27.0259 9.564 27.0259 10.14V15H24.2179V5.316H26.8999V7.962L26.3959 7.188C26.7319 6.528 27.2059 6.03 27.8179 5.694C28.4419 5.346 29.1499 5.172 29.9419 5.172C30.8299 5.172 31.6039 5.4 32.2639 5.856C32.9359 6.3 33.3799 6.984 33.5959 7.908L32.6059 7.638C32.9299 6.882 33.4459 6.282 34.1539 5.838C34.8739 5.394 35.6959 5.172 36.6199 5.172ZM43.0968 15V1.644H45.9048V15H43.0968ZM62.4465 2.4H65.3625V15H62.4465V2.4ZM56.7225 15H53.8065V2.4H56.7225V15ZM62.6625 9.834H56.5065V7.368H62.6625V9.834ZM68.1456 15V5.316H70.9536V15H68.1456ZM69.5496 3.966C69.0336 3.966 68.6136 3.816 68.2896 3.516C67.9656 3.216 67.8036 2.844 67.8036 2.4C67.8036 1.956 67.9656 1.584 68.2896 1.284C68.6136 0.983999 69.0336 0.833999 69.5496 0.833999C70.0656 0.833999 70.4856 0.977999 70.8096 1.266C71.1336 1.542 71.2956 1.902 71.2956 2.346C71.2956 2.814 71.1336 3.204 70.8096 3.516C70.4976 3.816 70.0776 3.966 69.5496 3.966ZM79.4457 5.172C80.2137 5.172 80.8977 5.328 81.4977 5.64C82.1097 5.94 82.5897 6.408 82.9377 7.044C83.2857 7.668 83.4597 8.472 83.4597 9.456V15H80.6517V9.888C80.6517 9.108 80.4777 8.532 80.1297 8.16C79.7937 7.788 79.3137 7.602 78.6897 7.602C78.2457 7.602 77.8437 7.698 77.4837 7.89C77.1357 8.07 76.8597 8.352 76.6557 8.736C76.4637 9.12 76.3677 9.612 76.3677 10.212V15H73.5597V5.316H76.2417V7.998L75.7377 7.188C76.0857 6.54 76.5837 6.042 77.2317 5.694C77.8797 5.346 78.6177 5.172 79.4457 5.172ZM90.6293 18.636C89.7173 18.636 88.8353 18.522 87.9833 18.294C87.1433 18.078 86.4413 17.748 85.8773 17.304L86.9933 15.288C87.4013 15.624 87.9173 15.888 88.5413 16.08C89.1773 16.284 89.8013 16.386 90.4133 16.386C91.4093 16.386 92.1293 16.164 92.5733 15.72C93.0293 15.276 93.2573 14.616 93.2573 13.74V12.282L93.4373 9.852L93.4013 7.404V5.316H96.0653V13.38C96.0653 15.18 95.5973 16.506 94.6613 17.358C93.7253 18.21 92.3813 18.636 90.6293 18.636ZM90.1973 14.532C89.2973 14.532 88.4813 14.34 87.7493 13.956C87.0293 13.56 86.4473 13.014 86.0033 12.318C85.5713 11.61 85.3553 10.788 85.3553 9.852C85.3553 8.904 85.5713 8.082 86.0033 7.386C86.4473 6.678 87.0293 6.132 87.7493 5.748C88.4813 5.364 89.2973 5.172 90.1973 5.172C91.0133 5.172 91.7333 5.34 92.3573 5.676C92.9813 6 93.4673 6.51 93.8153 7.206C94.1633 7.89 94.3373 8.772 94.3373 9.852C94.3373 10.92 94.1633 11.802 93.8153 12.498C93.4673 13.182 92.9813 13.692 92.3573 14.028C91.7333 14.364 91.0133 14.532 90.1973 14.532ZM90.7553 12.228C91.2473 12.228 91.6853 12.132 92.0693 11.94C92.4533 11.736 92.7533 11.454 92.9693 11.094C93.1853 10.734 93.2933 10.32 93.2933 9.852C93.2933 9.372 93.1853 8.958 92.9693 8.61C92.7533 8.25 92.4533 7.974 92.0693 7.782C91.6853 7.578 91.2473 7.476 90.7553 7.476C90.2633 7.476 89.8253 7.578 89.4413 7.782C89.0573 7.974 88.7513 8.25 88.5233 8.61C88.3073 8.958 88.1993 9.372 88.1993 9.852C88.1993 10.32 88.3073 10.734 88.5233 11.094C88.7513 11.454 89.0573 11.736 89.4413 11.94C89.8253 12.132 90.2633 12.228 90.7553 12.228ZM103.485 15.144C102.381 15.144 101.409 14.928 100.569 14.496C99.7408 14.064 99.0988 13.476 98.6428 12.732C98.1868 11.976 97.9588 11.118 97.9588 10.158C97.9588 9.186 98.1808 8.328 98.6248 7.584C99.0808 6.828 99.6988 6.24 100.479 5.82C101.259 5.388 102.141 5.172 103.125 5.172C104.073 5.172 104.925 5.376 105.681 5.784C106.449 6.18 107.055 6.756 107.499 7.512C107.943 8.256 108.165 9.15 108.165 10.194C108.165 10.302 108.159 10.428 108.147 10.572C108.135 10.704 108.123 10.83 108.111 10.95H100.245V9.312H106.635L105.555 9.798C105.555 9.294 105.453 8.856 105.249 8.484C105.045 8.112 104.763 7.824 104.403 7.62C104.043 7.404 103.623 7.296 103.143 7.296C102.663 7.296 102.237 7.404 101.865 7.62C101.505 7.824 101.223 8.118 101.019 8.502C100.815 8.874 100.713 9.318 100.713 9.834V10.266C100.713 10.794 100.827 11.262 101.055 11.67C101.295 12.066 101.625 12.372 102.045 12.588C102.477 12.792 102.981 12.894 103.557 12.894C104.073 12.894 104.523 12.816 104.907 12.66C105.303 12.504 105.663 12.27 105.987 11.958L107.481 13.578C107.037 14.082 106.479 14.472 105.807 14.748C105.135 15.012 104.361 15.144 103.485 15.144ZM114.192 15.144C113.28 15.144 112.458 14.94 111.726 14.532C110.994 14.112 110.412 13.53 109.98 12.786C109.56 12.042 109.35 11.166 109.35 10.158C109.35 9.138 109.56 8.256 109.98 7.512C110.412 6.768 110.994 6.192 111.726 5.784C112.458 5.376 113.28 5.172 114.192 5.172C115.008 5.172 115.722 5.352 116.334 5.712C116.946 6.072 117.42 6.618 117.756 7.35C118.092 8.082 118.26 9.018 118.26 10.158C118.26 11.286 118.098 12.222 117.774 12.966C117.45 13.698 116.982 14.244 116.37 14.604C115.77 14.964 115.044 15.144 114.192 15.144ZM114.678 12.84C115.134 12.84 115.548 12.732 115.92 12.516C116.292 12.3 116.586 11.994 116.802 11.598C117.03 11.19 117.144 10.71 117.144 10.158C117.144 9.594 117.03 9.114 116.802 8.718C116.586 8.322 116.292 8.016 115.92 7.8C115.548 7.584 115.134 7.476 114.678 7.476C114.21 7.476 113.79 7.584 113.418 7.8C113.046 8.016 112.746 8.322 112.518 8.718C112.302 9.114 112.194 9.594 112.194 10.158C112.194 10.71 112.302 11.19 112.518 11.598C112.746 11.994 113.046 12.3 113.418 12.516C113.79 12.732 114.21 12.84 114.678 12.84ZM117.216 15V13.02L117.27 10.14L117.09 7.278V1.644H119.898V15H117.216ZM133.823 15.216C132.851 15.216 131.945 15.06 131.105 14.748C130.277 14.424 129.557 13.968 128.945 13.38C128.333 12.792 127.853 12.102 127.505 11.31C127.169 10.518 127.001 9.648 127.001 8.7C127.001 7.752 127.169 6.882 127.505 6.09C127.853 5.298 128.333 4.608 128.945 4.02C129.569 3.432 130.295 2.982 131.123 2.67C131.951 2.346 132.857 2.184 133.841 2.184C134.933 2.184 135.917 2.376 136.793 2.76C137.681 3.132 138.425 3.684 139.025 4.416L137.153 6.144C136.721 5.652 136.241 5.286 135.713 5.046C135.185 4.794 134.609 4.668 133.985 4.668C133.397 4.668 132.857 4.764 132.365 4.956C131.873 5.148 131.447 5.424 131.087 5.784C130.727 6.144 130.445 6.57 130.241 7.062C130.049 7.554 129.953 8.1 129.953 8.7C129.953 9.3 130.049 9.846 130.241 10.338C130.445 10.83 130.727 11.256 131.087 11.616C131.447 11.976 131.873 12.252 132.365 12.444C132.857 12.636 133.397 12.732 133.985 12.732C134.609 12.732 135.185 12.612 135.713 12.372C136.241 12.12 136.721 11.742 137.153 11.238L139.025 12.966C138.425 13.698 137.681 14.256 136.793 14.64C135.917 15.024 134.927 15.216 133.823 15.216ZM145.07 15.144C144.038 15.144 143.12 14.928 142.316 14.496C141.524 14.064 140.894 13.476 140.426 12.732C139.97 11.976 139.742 11.118 139.742 10.158C139.742 9.186 139.97 8.328 140.426 7.584C140.894 6.828 141.524 6.24 142.316 5.82C143.12 5.388 144.038 5.172 145.07 5.172C146.09 5.172 147.002 5.388 147.806 5.82C148.61 6.24 149.24 6.822 149.696 7.566C150.152 8.31 150.38 9.174 150.38 10.158C150.38 11.118 150.152 11.976 149.696 12.732C149.24 13.476 148.61 14.064 147.806 14.496C147.002 14.928 146.09 15.144 145.07 15.144ZM145.07 12.84C145.538 12.84 145.958 12.732 146.33 12.516C146.702 12.3 146.996 11.994 147.212 11.598C147.428 11.19 147.536 10.71 147.536 10.158C147.536 9.594 147.428 9.114 147.212 8.718C146.996 8.322 146.702 8.016 146.33 7.8C145.958 7.584 145.538 7.476 145.07 7.476C144.602 7.476 144.182 7.584 143.81 7.8C143.438 8.016 143.138 8.322 142.91 8.718C142.694 9.114 142.586 9.594 142.586 10.158C142.586 10.71 142.694 11.19 142.91 11.598C143.138 11.994 143.438 12.3 143.81 12.516C144.182 12.732 144.602 12.84 145.07 12.84ZM158.143 5.172C158.911 5.172 159.595 5.328 160.195 5.64C160.807 5.94 161.287 6.408 161.635 7.044C161.983 7.668 162.157 8.472 162.157 9.456V15H159.349V9.888C159.349 9.108 159.175 8.532 158.827 8.16C158.491 7.788 158.011 7.602 157.387 7.602C156.943 7.602 156.541 7.698 156.181 7.89C155.833 8.07 155.557 8.352 155.353 8.736C155.161 9.12 155.065 9.612 155.065 10.212V15H152.257V5.316H154.939V7.998L154.435 7.188C154.783 6.54 155.281 6.042 155.929 5.694C156.577 5.346 157.315 5.172 158.143 5.172ZM168.662 15.144C167.522 15.144 166.634 14.856 165.998 14.28C165.362 13.692 165.044 12.822 165.044 11.67V3.174H167.852V11.634C167.852 12.042 167.96 12.36 168.176 12.588C168.392 12.804 168.686 12.912 169.058 12.912C169.502 12.912 169.88 12.792 170.192 12.552L170.948 14.532C170.66 14.736 170.312 14.892 169.904 15C169.508 15.096 169.094 15.144 168.662 15.144ZM163.55 7.692V5.532H170.264V7.692H163.55ZM178.465 15V13.11L178.285 12.696V9.312C178.285 8.712 178.099 8.244 177.727 7.908C177.367 7.572 176.809 7.404 176.053 7.404C175.537 7.404 175.027 7.488 174.523 7.656C174.031 7.812 173.611 8.028 173.263 8.304L172.255 6.342C172.783 5.97 173.419 5.682 174.163 5.478C174.907 5.274 175.663 5.172 176.431 5.172C177.907 5.172 179.053 5.52 179.869 6.216C180.685 6.912 181.093 7.998 181.093 9.474V15H178.465ZM175.513 15.144C174.757 15.144 174.109 15.018 173.569 14.766C173.029 14.502 172.615 14.148 172.327 13.704C172.039 13.26 171.895 12.762 171.895 12.21C171.895 11.634 172.033 11.13 172.309 10.698C172.597 10.266 173.047 9.93 173.659 9.69C174.271 9.438 175.069 9.312 176.053 9.312H178.627V10.95H176.359C175.699 10.95 175.243 11.058 174.991 11.274C174.751 11.49 174.631 11.76 174.631 12.084C174.631 12.444 174.769 12.732 175.045 12.948C175.333 13.152 175.723 13.254 176.215 13.254C176.683 13.254 177.103 13.146 177.475 12.93C177.847 12.702 178.117 12.372 178.285 11.94L178.717 13.236C178.513 13.86 178.141 14.334 177.601 14.658C177.061 14.982 176.365 15.144 175.513 15.144ZM183.634 15V5.316H186.442V15H183.634ZM185.038 3.966C184.522 3.966 184.102 3.816 183.778 3.516C183.454 3.216 183.292 2.844 183.292 2.4C183.292 1.956 183.454 1.584 183.778 1.284C184.102 0.983999 184.522 0.833999 185.038 0.833999C185.554 0.833999 185.974 0.977999 186.298 1.266C186.622 1.542 186.784 1.902 186.784 2.346C186.784 2.814 186.622 3.204 186.298 3.516C185.986 3.816 185.566 3.966 185.038 3.966ZM194.934 5.172C195.702 5.172 196.386 5.328 196.986 5.64C197.598 5.94 198.078 6.408 198.426 7.044C198.774 7.668 198.948 8.472 198.948 9.456V15H196.14V9.888C196.14 9.108 195.966 8.532 195.618 8.16C195.282 7.788 194.802 7.602 194.178 7.602C193.734 7.602 193.332 7.698 192.972 7.89C192.624 8.07 192.348 8.352 192.144 8.736C191.952 9.12 191.856 9.612 191.856 10.212V15H189.048V5.316H191.73V7.998L191.226 7.188C191.574 6.54 192.072 6.042 192.72 5.694C193.368 5.346 194.106 5.172 194.934 5.172ZM206.37 15.144C205.266 15.144 204.294 14.928 203.454 14.496C202.626 14.064 201.984 13.476 201.528 12.732C201.072 11.976 200.844 11.118 200.844 10.158C200.844 9.186 201.066 8.328 201.51 7.584C201.966 6.828 202.584 6.24 203.364 5.82C204.144 5.388 205.026 5.172 206.01 5.172C206.958 5.172 207.81 5.376 208.566 5.784C209.334 6.18 209.94 6.756 210.384 7.512C210.828 8.256 211.05 9.15 211.05 10.194C211.05 10.302 211.044 10.428 211.032 10.572C211.02 10.704 211.008 10.83 210.996 10.95H203.13V9.312H209.52L208.44 9.798C208.44 9.294 208.338 8.856 208.134 8.484C207.93 8.112 207.648 7.824 207.288 7.62C206.928 7.404 206.508 7.296 206.028 7.296C205.548 7.296 205.122 7.404 204.75 7.62C204.39 7.824 204.108 8.118 203.904 8.502C203.7 8.874 203.598 9.318 203.598 9.834V10.266C203.598 10.794 203.712 11.262 203.94 11.67C204.18 12.066 204.51 12.372 204.93 12.588C205.362 12.792 205.866 12.894 206.442 12.894C206.958 12.894 207.408 12.816 207.792 12.66C208.188 12.504 208.548 12.27 208.872 11.958L210.366 13.578C209.922 14.082 209.364 14.472 208.692 14.748C208.02 15.012 207.246 15.144 206.37 15.144ZM212.919 15V5.316H215.601V8.052L215.223 7.26C215.511 6.576 215.973 6.06 216.609 5.712C217.245 5.352 218.019 5.172 218.931 5.172V7.764C218.811 7.752 218.703 7.746 218.607 7.746C218.511 7.734 218.409 7.728 218.301 7.728C217.533 7.728 216.909 7.95 216.429 8.394C215.961 8.826 215.727 9.504 215.727 10.428V15H212.919Z" fill="#CE3439"/>
</svg>
