<svg width="76" height="67" viewBox="0 0 76 67" fill="none" xmlns="http://www.w3.org/2000/svg">
<g filter="url(#filter0_d_235_148)">
<rect x="4" y="20" width="68" height="39" rx="2" fill="white"/>
<rect x="4.25" y="20.25" width="67.5" height="38.5" rx="1.75" stroke="white" stroke-width="0.5"/>
</g>
<rect x="25" width="25" height="25" rx="3" fill="#CB3335"/>
<g clip-path="url(#clip0_235_148)">
<path fill-rule="evenodd" clip-rule="evenodd" d="M30.3071 8.82637C30.3536 8.84359 30.408 8.88215 30.4283 8.91223C30.4583 8.9568 30.4649 9.3459 30.4646 13.0821L30.3976 13.1505C30.3509 13.1981 30.3008 13.2189 30.2336 13.2189C30.1666 13.2189 30.1154 13.1978 29.9998 13.0821V11.0314C29.9998 9.71887 30.0096 8.9609 30.0271 8.9259C30.0422 8.89582 30.0925 8.85426 30.1387 8.8332C30.2046 8.80367 30.2412 8.80231 30.3071 8.82637ZM43.8423 8.82637C43.8888 8.84359 43.9432 8.88215 43.9634 8.91223C43.9935 8.9568 44.0001 9.3459 43.9998 13.0821L43.9328 13.1505C43.886 13.1981 43.836 13.2189 43.7687 13.2189C43.7017 13.2189 43.6506 13.1978 43.5349 13.0821V11.0314C43.5349 9.71887 43.5448 8.9609 43.5623 8.9259C43.5773 8.89582 43.6276 8.85426 43.6738 8.8332C43.7397 8.80367 43.7764 8.80231 43.8423 8.82637ZM43.8677 13.9435L43.9998 14.0939V15.5568C43.9998 16.4774 43.9897 17.0399 43.9724 17.0743C43.9574 17.1044 43.9022 17.1476 43.8494 17.17C43.7652 17.2061 42.9424 17.2111 36.9998 17.2111C31.0572 17.2111 30.2344 17.2061 30.1502 17.17C30.0974 17.1476 30.0422 17.1044 30.0271 17.0743C30.0099 17.0399 29.9998 16.4791 29.9995 15.5636C29.9995 14.2694 30.0042 14.1004 30.0433 14.0441C30.0676 14.0091 30.1138 13.97 30.1461 13.9569C30.1789 13.9435 33.2244 13.9353 43.8677 13.9435ZM30.4783 16.7325H43.5213L43.5256 14.3946H42.824C42.8226 14.8505 42.8098 14.9724 42.789 15.0011C42.7707 15.0266 42.7187 15.0613 42.6736 15.0785C42.6074 15.1039 42.5744 15.1015 42.5027 15.0668C42.4445 15.0383 42.4043 14.9929 42.386 14.9347C42.3706 14.8857 42.3583 14.7444 42.3586 14.6202L42.3592 14.3946H41.4295C41.4295 15.3963 41.4281 15.4077 41.3636 15.4816C41.3141 15.5379 41.2725 15.5568 41.1971 15.5568C41.1216 15.5568 41.08 15.5379 41.0305 15.4816C40.966 15.4077 40.9646 15.3963 40.9646 14.9005V14.3946H40.0349C40.0221 14.9358 40.0144 14.9743 39.9603 15.0282C39.9206 15.0679 39.8649 15.0897 39.8009 15.0905C39.7262 15.0916 39.6858 15.0733 39.636 15.0167C39.5758 14.9481 39.5701 14.918 39.5701 14.6681V14.3946H38.6404C38.6404 15.212 38.6306 15.3476 38.5994 15.42C38.5748 15.4777 38.5286 15.5272 38.4832 15.5447C38.4419 15.5606 38.3804 15.5666 38.3465 15.5584C38.3126 15.5499 38.2601 15.5155 38.2297 15.4816C38.1783 15.4244 38.1745 15.3837 38.175 14.9073L38.1756 14.3946H37.2459C37.2456 14.723 37.2333 14.8647 37.2183 14.921C37.198 14.9979 37.1671 15.0356 37.0955 15.0714C37.0044 15.1171 36.9951 15.1171 36.9041 15.0714C36.8324 15.0356 36.8015 14.9979 36.7813 14.921C36.7663 14.8647 36.754 14.723 36.754 14.6066L36.7537 14.3946H35.824C35.8226 15.2672 35.8122 15.4329 35.789 15.4635C35.7707 15.4873 35.728 15.5212 35.6941 15.5387C35.6602 15.5562 35.5957 15.5644 35.5506 15.5568C35.4959 15.5476 35.4503 15.5135 35.4138 15.4542C35.3649 15.3741 35.3594 15.317 35.3592 14.88V14.3946H34.4295C34.4295 14.918 34.4237 14.9481 34.3636 15.0167C34.3146 15.0722 34.272 15.0919 34.2001 15.0919C34.1353 15.0919 34.0822 15.0711 34.0406 15.0296C33.9849 14.9741 33.9775 14.9377 33.9715 14.6809L33.9646 14.3946H33.0349C33.0215 15.4088 33.0185 15.4351 32.9603 15.493C32.9206 15.5327 32.8649 15.5546 32.8009 15.5554C32.7262 15.5565 32.6858 15.5382 32.636 15.4816C32.5715 15.4077 32.5701 15.3963 32.5701 14.9005V14.3946H31.6404C31.6412 14.7444 31.6289 14.8857 31.6136 14.9347C31.5953 14.9929 31.5551 15.0383 31.4969 15.0668C31.4252 15.1015 31.3921 15.1039 31.326 15.0785C31.2808 15.0613 31.2289 15.0266 31.2106 15.0011C31.1898 14.9724 31.1769 14.8505 31.1764 14.6749L31.1756 14.3946H30.4641L30.4783 16.7325ZM32.2316 9.50012C32.2674 9.50012 32.3306 9.52992 32.4471 9.63191L32.4607 10.8946H41.5388L41.5525 9.63191L41.6277 9.56602C41.669 9.52992 41.7305 9.49957 41.7644 9.49902C41.7983 9.4982 41.853 9.51981 41.8858 9.54688C41.9189 9.57367 42.1929 9.91574 42.4948 10.3068C42.7969 10.6978 43.0512 11.0486 43.0603 11.0861C43.0698 11.1254 43.0589 11.1891 43.0346 11.2364C43.0113 11.2816 42.7871 11.5832 42.5366 11.9064C42.2859 12.2298 42.0327 12.5528 41.9739 12.6241C41.8897 12.7264 41.8495 12.754 41.7849 12.754C41.7398 12.754 41.6783 12.7417 41.6482 12.7267C41.6181 12.7116 41.581 12.6594 41.5656 12.6105C41.5503 12.5615 41.538 12.2602 41.5388 11.3595H32.4607L32.4613 11.9405C32.4613 12.2602 32.449 12.5615 32.4339 12.6105C32.4186 12.6594 32.3814 12.7116 32.3513 12.7267C32.3213 12.7417 32.2597 12.754 32.2146 12.754C32.1501 12.754 32.1099 12.7264 32.0257 12.6241C31.9666 12.5528 31.7134 12.2298 31.4629 11.9064C31.2122 11.5832 30.9883 11.2816 30.965 11.2364C30.9407 11.1891 30.9297 11.1254 30.9393 11.0861C30.9483 11.0486 31.2026 10.6978 31.5045 10.3068C31.8064 9.91574 32.079 9.57422 32.1102 9.54797C32.1411 9.52172 32.1958 9.50012 32.2316 9.50012ZM31.4761 11.1818C31.4958 11.2118 31.6174 11.3734 31.7468 11.5411C31.8764 11.7087 31.9915 11.841 32.0027 11.835C32.0139 11.8293 32.0232 11.5107 32.0232 11.1271C32.0232 10.7415 32.0123 10.4298 31.9989 10.4298C31.9858 10.4298 31.8548 10.5868 31.7077 10.7784C31.4665 11.0937 31.4441 11.1323 31.4761 11.1818ZM41.9969 11.835C42.0081 11.841 42.1232 11.7087 42.2525 11.5411C42.3819 11.3734 42.5038 11.2118 42.5232 11.1818C42.5552 11.1323 42.5328 11.0937 42.2881 10.7773C42.139 10.5848 42.0081 10.4279 41.9969 10.4287C41.9856 10.4293 41.9763 10.7437 41.9763 11.1271C41.9763 11.5107 41.9856 11.8293 41.9969 11.835Z" fill="white"/>
</g>
<path d="M19.672 38V33.77H21.184C21.636 33.77 22.018 33.852 22.33 34.016C22.646 34.18 22.886 34.42 23.05 34.736C23.218 35.048 23.302 35.43 23.302 35.882C23.302 36.334 23.218 36.718 23.05 37.034C22.886 37.35 22.646 37.59 22.33 37.754C22.014 37.918 21.632 38 21.184 38H19.672ZM20.23 37.508H21.154C21.662 37.508 22.05 37.376 22.318 37.112C22.59 36.844 22.726 36.434 22.726 35.882C22.726 35.33 22.592 34.922 22.324 34.658C22.056 34.394 21.666 34.262 21.154 34.262H20.23V37.508ZM24.465 38V33.77H25.023V38H24.465ZM26.3813 38V33.77H27.0713L28.4993 36.68H28.5293L29.9513 33.77H30.6353V38H30.0953V34.574H30.0653L28.7213 37.322H28.3013L26.9513 34.574H26.9213V38H26.3813ZM31.9884 38V33.77H34.7904V34.262H32.5464V35.612H34.6644V36.104H32.5464V37.508H34.7904V38H31.9884ZM35.9786 38V33.77H36.4946L39.0446 37.142H39.0746V33.77H39.6146V38H39.0746L36.5486 34.652H36.5186V38H35.9786ZM42.4051 38.054C42.1651 38.054 41.9371 38.036 41.7211 38C41.5091 37.968 41.3151 37.918 41.1391 37.85C40.9631 37.778 40.8091 37.688 40.6771 37.58L40.8871 37.118C41.0271 37.23 41.1771 37.318 41.3371 37.382C41.4971 37.446 41.6651 37.49 41.8411 37.514C42.0211 37.538 42.2091 37.55 42.4051 37.55C42.7211 37.55 42.9691 37.486 43.1491 37.358C43.3291 37.23 43.4191 37.048 43.4191 36.812C43.4191 36.688 43.3891 36.588 43.3291 36.512C43.2731 36.436 43.1831 36.374 43.0591 36.326C42.9351 36.274 42.7771 36.23 42.5851 36.194L41.8711 36.056C41.4751 35.98 41.1931 35.846 41.0251 35.654C40.8571 35.458 40.7731 35.216 40.7731 34.928C40.7731 34.68 40.8451 34.466 40.9891 34.286C41.1331 34.106 41.3311 33.966 41.5831 33.866C41.8391 33.766 42.1271 33.716 42.4471 33.716C42.6511 33.716 42.8411 33.736 43.0171 33.776C43.1931 33.812 43.3531 33.866 43.4971 33.938C43.6451 34.01 43.7771 34.102 43.8931 34.214L43.6831 34.676C43.5111 34.504 43.3231 34.386 43.1191 34.322C42.9151 34.254 42.6891 34.22 42.4411 34.22C42.2331 34.22 42.0451 34.248 41.8771 34.304C41.7091 34.356 41.5751 34.434 41.4751 34.538C41.3791 34.642 41.3311 34.774 41.3311 34.934C41.3311 35.106 41.3851 35.24 41.4931 35.336C41.6011 35.432 41.7911 35.506 42.0631 35.558L42.7711 35.696C43.1831 35.772 43.4871 35.902 43.6831 36.086C43.8791 36.266 43.9771 36.502 43.9771 36.794C43.9771 37.034 43.9111 37.25 43.7791 37.442C43.6511 37.634 43.4691 37.784 43.2331 37.892C42.9971 38 42.7211 38.054 42.4051 38.054ZM45.0197 38V33.77H45.5777V38H45.0197ZM48.724 38.054C48.42 38.054 48.146 38.004 47.902 37.904C47.658 37.804 47.45 37.662 47.278 37.478C47.106 37.29 46.974 37.062 46.882 36.794C46.79 36.526 46.744 36.224 46.744 35.888C46.744 35.548 46.788 35.244 46.876 34.976C46.968 34.708 47.1 34.482 47.272 34.298C47.444 34.11 47.652 33.966 47.896 33.866C48.144 33.766 48.42 33.716 48.724 33.716C49.032 33.716 49.308 33.766 49.552 33.866C49.8 33.966 50.01 34.11 50.182 34.298C50.354 34.482 50.484 34.708 50.572 34.976C50.664 35.24 50.71 35.542 50.71 35.882C50.71 36.218 50.664 36.52 50.572 36.788C50.48 37.056 50.348 37.284 50.176 37.472C50.008 37.66 49.8 37.804 49.552 37.904C49.308 38.004 49.032 38.054 48.724 38.054ZM48.724 37.55C49.024 37.55 49.278 37.488 49.486 37.364C49.694 37.236 49.854 37.048 49.966 36.8C50.078 36.552 50.134 36.246 50.134 35.882C50.134 35.514 50.078 35.208 49.966 34.964C49.858 34.716 49.698 34.53 49.486 34.406C49.278 34.282 49.024 34.22 48.724 34.22C48.428 34.22 48.176 34.282 47.968 34.406C47.76 34.53 47.6 34.716 47.488 34.964C47.376 35.208 47.32 35.514 47.32 35.882C47.32 36.246 47.376 36.552 47.488 36.8C47.6 37.048 47.76 37.236 47.968 37.364C48.176 37.488 48.428 37.55 48.724 37.55ZM51.8751 38V33.77H52.3911L54.9411 37.142H54.9711V33.77H55.5111V38H54.9711L52.4451 34.652H52.4151V38H51.8751Z" fill="#CE3439"/>
<path d="M26.1425 48.054C25.9505 48.054 25.7705 48.034 25.6025 47.994C25.4385 47.954 25.2825 47.894 25.1345 47.814C24.9905 47.734 24.8585 47.638 24.7385 47.526L24.9605 47.088C25.1405 47.26 25.3265 47.384 25.5185 47.46C25.7105 47.532 25.9185 47.568 26.1425 47.568C26.4385 47.568 26.6685 47.494 26.8325 47.346C27.0005 47.194 27.0845 46.978 27.0845 46.698C27.0845 46.422 27.0065 46.204 26.8505 46.044C26.6985 45.884 26.4865 45.804 26.2145 45.804C26.0345 45.804 25.8705 45.84 25.7225 45.912C25.5785 45.98 25.4405 46.1 25.3085 46.272H24.8585V43.77H27.4325V44.256H25.3505V45.792H25.3805C25.4725 45.664 25.5985 45.556 25.7585 45.468C25.9185 45.376 26.0965 45.33 26.2925 45.33C26.5645 45.33 26.7985 45.388 26.9945 45.504C27.1945 45.616 27.3465 45.772 27.4505 45.972C27.5585 46.172 27.6125 46.404 27.6125 46.668C27.6125 46.964 27.5505 47.216 27.4265 47.424C27.3065 47.628 27.1365 47.784 26.9165 47.892C26.7005 48 26.4425 48.054 26.1425 48.054ZM29.8482 48.054C29.5082 48.054 29.2182 47.972 28.9782 47.808C28.7422 47.644 28.5622 47.406 28.4382 47.094C28.3142 46.782 28.2522 46.408 28.2522 45.972C28.2522 45.488 28.3202 45.08 28.4562 44.748C28.5922 44.412 28.7882 44.156 29.0442 43.98C29.3002 43.804 29.6102 43.716 29.9742 43.716C30.1382 43.716 30.2922 43.736 30.4362 43.776C30.5802 43.812 30.7142 43.868 30.8382 43.944C30.9662 44.016 31.0882 44.11 31.2042 44.226L31.0002 44.652C30.8402 44.484 30.6762 44.368 30.5082 44.304C30.3402 44.236 30.1622 44.202 29.9742 44.202C29.7742 44.202 29.5982 44.24 29.4462 44.316C29.2942 44.388 29.1662 44.498 29.0622 44.646C28.9622 44.79 28.8842 44.97 28.8282 45.186C28.7762 45.398 28.7502 45.642 28.7502 45.918V46.164H28.7802C28.8202 45.992 28.8942 45.844 29.0022 45.72C29.1102 45.596 29.2422 45.5 29.3982 45.432C29.5542 45.364 29.7202 45.33 29.8962 45.33C30.1562 45.33 30.3842 45.388 30.5802 45.504C30.7762 45.616 30.9302 45.774 31.0422 45.978C31.1542 46.182 31.2102 46.414 31.2102 46.674C31.2102 46.942 31.1522 47.18 31.0362 47.388C30.9202 47.596 30.7602 47.76 30.5562 47.88C30.3522 47.996 30.1162 48.054 29.8482 48.054ZM29.8302 47.58C30.0022 47.58 30.1542 47.544 30.2862 47.472C30.4182 47.396 30.5202 47.292 30.5922 47.16C30.6642 47.024 30.7002 46.866 30.7002 46.686C30.7002 46.51 30.6622 46.356 30.5862 46.224C30.5142 46.092 30.4122 45.99 30.2802 45.918C30.1482 45.842 29.9942 45.804 29.8182 45.804C29.6382 45.804 29.4802 45.842 29.3442 45.918C29.2122 45.994 29.1082 46.098 29.0322 46.23C28.9562 46.362 28.9182 46.514 28.9182 46.686C28.9182 46.866 28.9542 47.024 29.0262 47.16C29.1022 47.292 29.2082 47.396 29.3442 47.472C29.4842 47.544 29.6462 47.58 29.8302 47.58ZM32.5278 46.038L32.1558 45.816L32.6778 45.042L32.6658 45.018L31.7238 45.09V44.658L32.6658 44.724L32.6718 44.7L32.1558 43.932L32.5398 43.71L32.9478 44.61H32.9718L33.3678 43.71L33.7518 43.932L33.2238 44.7L33.2298 44.724L34.1838 44.658V45.09L33.2418 45.018L33.2298 45.042L33.7518 45.816L33.3798 46.038L32.9718 45.144H32.9478L32.5278 46.038ZM36.7063 48V47.136H34.7143V46.722L36.6163 43.77H37.2223V46.68H37.7803V47.136H37.2223V48H36.7063ZM36.7243 46.68V44.46H36.6943L35.2123 46.758L35.1403 46.68H36.7243ZM39.74 48.054C39.564 48.054 39.39 48.036 39.218 48C39.046 47.964 38.882 47.91 38.726 47.838C38.574 47.762 38.434 47.666 38.306 47.55L38.522 47.118C38.706 47.282 38.904 47.398 39.116 47.466C39.328 47.534 39.534 47.568 39.734 47.568C39.902 47.568 40.056 47.544 40.196 47.496C40.34 47.448 40.454 47.37 40.538 47.262C40.626 47.154 40.67 47.012 40.67 46.836C40.67 46.592 40.588 46.408 40.424 46.284C40.26 46.156 40.022 46.092 39.71 46.092H39.068V45.618H39.614C39.798 45.618 39.962 45.59 40.106 45.534C40.25 45.478 40.364 45.392 40.448 45.276C40.532 45.16 40.574 45.016 40.574 44.844C40.574 44.624 40.498 44.462 40.346 44.358C40.194 44.254 40.004 44.202 39.776 44.202C39.572 44.202 39.364 44.238 39.152 44.31C38.944 44.378 38.756 44.502 38.588 44.682L38.378 44.25C38.55 44.066 38.762 43.932 39.014 43.848C39.266 43.76 39.526 43.716 39.794 43.716C40.062 43.716 40.294 43.76 40.49 43.848C40.686 43.932 40.838 44.056 40.946 44.22C41.058 44.38 41.114 44.574 41.114 44.802C41.114 45.034 41.048 45.24 40.916 45.42C40.784 45.6 40.602 45.732 40.37 45.816V45.84C40.526 45.872 40.666 45.932 40.79 46.02C40.918 46.104 41.018 46.216 41.09 46.356C41.166 46.496 41.204 46.66 41.204 46.848C41.204 47.108 41.142 47.328 41.018 47.508C40.894 47.688 40.722 47.824 40.502 47.916C40.282 48.008 40.028 48.054 39.74 48.054ZM42.6177 46.038L42.2457 45.816L42.7677 45.042L42.7557 45.018L41.8137 45.09V44.658L42.7557 44.724L42.7617 44.7L42.2457 43.932L42.6297 43.71L43.0377 44.61H43.0617L43.4577 43.71L43.8417 43.932L43.3137 44.7L43.3197 44.724L44.2737 44.658V45.09L43.3317 45.018L43.3197 45.042L43.8417 45.816L43.4697 46.038L43.0617 45.144H43.0377L42.6177 46.038ZM44.9602 48V47.592L46.4662 46.032C46.6142 45.88 46.7282 45.744 46.8082 45.624C46.8882 45.5 46.9442 45.382 46.9762 45.27C47.0082 45.158 47.0242 45.044 47.0242 44.928C47.0242 44.696 46.9482 44.518 46.7962 44.394C46.6442 44.266 46.4422 44.202 46.1902 44.202C45.9942 44.202 45.7962 44.24 45.5962 44.316C45.4002 44.392 45.2142 44.516 45.0382 44.688L44.8222 44.25C45.0102 44.074 45.2242 43.942 45.4642 43.854C45.7082 43.762 45.9622 43.716 46.2262 43.716C46.4982 43.716 46.7342 43.764 46.9342 43.86C47.1342 43.956 47.2882 44.094 47.3962 44.274C47.5082 44.45 47.5642 44.658 47.5642 44.898C47.5642 45.022 47.5502 45.142 47.5222 45.258C47.4942 45.374 47.4502 45.49 47.3902 45.606C47.3342 45.718 47.2602 45.834 47.1682 45.954C47.0802 46.074 46.9722 46.202 46.8442 46.338L45.7282 47.49V47.514H47.7382V48H44.9602ZM48.7618 48L50.8258 43.986L50.8618 44.268H48.4678V43.77H51.3058V44.19L49.3558 48H48.7618Z" fill="black"/>
<defs>
<filter id="filter0_d_235_148" x="0.0999999" y="20" width="75.8" height="46.9" filterUnits="userSpaceOnUse" color-interpolation-filters="sRGB">
<feFlood flood-opacity="0" result="BackgroundImageFix"/>
<feColorMatrix in="SourceAlpha" type="matrix" values="0 0 0 0 0 0 0 0 0 0 0 0 0 0 0 0 0 0 127 0" result="hardAlpha"/>
<feOffset dy="4"/>
<feGaussianBlur stdDeviation="1.95"/>
<feComposite in2="hardAlpha" operator="out"/>
<feColorMatrix type="matrix" values="0 0 0 0 0 0 0 0 0 0 0 0 0 0 0 0 0 0 0.2 0"/>
<feBlend mode="normal" in2="BackgroundImageFix" result="effect1_dropShadow_235_148"/>
<feBlend mode="normal" in="SourceGraphic" in2="effect1_dropShadow_235_148" result="shape"/>
</filter>
<clipPath id="clip0_235_148">
<rect width="14" height="14" fill="white" transform="translate(30 6)"/>
</clipPath>
</defs>
</svg>
