<svg width="114" height="67" viewBox="0 0 114 67" fill="none" xmlns="http://www.w3.org/2000/svg">
<g filter="url(#filter0_d_235_202)">
<rect x="4" y="20" width="106" height="39" rx="2" fill="white"/>
<rect x="4.25" y="20.25" width="105.5" height="38.5" rx="1.75" stroke="white" stroke-width="0.5"/>
</g>
<rect x="44" width="25" height="25" rx="3" fill="#CB3335"/>
<g clip-path="url(#clip0_235_202)">
<path fill-rule="evenodd" clip-rule="evenodd" d="M56.0703 2.00675C56.1381 2.00253 56.2091 2.01378 56.2285 2.03136C56.2478 2.04893 56.778 2.32772 57.4062 2.65116C58.0348 2.97425 58.8177 3.37749 59.1464 3.54694C59.4751 3.71604 60.8912 4.44378 62.2929 5.16413C63.6949 5.88413 64.8688 6.49936 64.9022 6.531C64.9585 6.58444 64.9627 6.8794 64.9648 11.0004C64.9665 14.5298 64.9578 15.4252 64.9219 15.4765C64.8973 15.5117 62.9074 16.5442 60.4999 17.7708C58.0924 18.9978 56.0914 20.0015 56.0527 20.0015C56.014 20.0015 55.8083 19.9094 55.5956 19.7972C55.383 19.6847 53.391 18.6603 51.1691 17.5205C47.8398 15.8123 47.1177 15.4291 47.0632 15.3422C47.0122 15.261 47.0003 15.1886 47.0108 15.0258C47.0186 14.9098 47.0523 12.9562 47.0857 10.684C47.1195 8.41186 47.1613 6.51343 47.1789 6.46526C47.2056 6.39179 47.926 6.02018 51.579 4.19593C54.4981 2.738 55.988 2.01202 56.0703 2.00675ZM48.0472 6.5855C48.0515 6.59675 48.5964 6.89382 49.2587 7.24573C49.9211 7.59764 50.5026 7.90807 50.5507 7.93585C50.6351 7.98472 50.7944 7.90597 54.6025 5.93405C56.7825 4.80483 58.5544 3.87108 58.54 3.85843C58.5256 3.84577 57.9719 3.55714 57.3095 3.21682C56.6472 2.87651 56.0857 2.59913 56.0615 2.60018C56.0372 2.60124 54.2224 3.49386 52.0287 4.5837C49.8349 5.67354 48.0434 6.57425 48.0472 6.5855ZM53.7756 6.97503C52.3894 7.69046 51.2546 8.28354 51.2546 8.29339C51.2542 8.30288 51.5899 8.49132 52.0009 8.71175L52.748 9.11218C53.1294 8.91706 54.9073 7.99315 56.9446 6.93319C58.9819 5.87358 60.6508 4.99046 60.6536 4.97112C60.656 4.95179 60.3308 4.76581 59.9304 4.55804C59.5303 4.35026 59.1981 4.18046 59.1921 4.18116C59.1865 4.18186 58.5323 4.51796 57.7388 4.92823C56.9453 5.3385 55.1618 6.2596 53.7756 6.97503ZM55.6231 8.23011C54.3814 8.87382 53.3646 9.41276 53.3643 9.42718C53.3636 9.44159 53.9567 9.76995 54.6816 10.1567L55.9999 10.8598C62.1713 7.701 63.9899 6.76374 64.0233 6.73878C64.0757 6.69975 63.9066 6.60307 62.713 5.99065C61.9589 5.60393 61.3307 5.28542 61.3166 5.28296C61.3026 5.2805 60.5239 5.67917 59.5859 6.16889C58.6479 6.65827 56.8648 7.58604 55.6231 8.23011ZM47.6359 11.0356C47.5916 13.9026 47.5849 15.0367 47.6124 15.0652C47.6331 15.0866 48.0381 15.3025 48.5117 15.5451C48.9856 15.7873 50.8126 16.7235 52.5722 17.6253C54.3318 18.5267 55.7749 19.26 55.7795 19.2544C55.7837 19.2491 55.7725 17.4646 55.7542 15.2895C55.7359 13.114 55.7166 11.3319 55.711 11.3288C55.7057 11.3256 55.0999 10.9994 54.3652 10.6042L53.0292 9.88561C52.9948 10.0547 52.9751 10.523 52.9628 11.0356C52.9435 11.8646 52.934 11.9771 52.8763 12.0551C52.833 12.1137 52.7714 12.1462 52.6917 12.1525C52.5954 12.1606 52.375 12.0583 51.5544 11.6251C50.9947 11.3298 50.5005 11.0605 50.4558 11.0268L50.3749 10.9653L50.3574 8.4537C48.8042 7.61909 48.2069 7.29846 48.0276 7.20284C47.8483 7.10686 47.7006 7.03233 47.6996 7.0369C47.6989 7.04147 47.67 8.84077 47.6359 11.0356ZM56.3048 11.3235C56.2889 11.3295 56.2889 13.1182 56.3048 15.2983C56.3209 17.4783 56.342 19.2628 56.3515 19.2632C56.361 19.2639 58.1803 18.3407 60.3945 17.2115L64.4199 15.1587C64.4336 8.96628 64.4258 7.16944 64.4111 7.17085C64.3967 7.17261 62.5735 8.10495 60.3593 9.24331C58.1452 10.3817 56.3209 11.3175 56.3048 11.3235ZM50.903 10.6664C51.9949 11.2384 52.3307 11.4093 52.3542 11.4146C52.3852 11.4216 52.4035 11.2655 52.4228 10.8345C52.4376 10.51 52.4492 10.0941 52.4492 9.91057V9.57659C51.3048 8.96346 50.9568 8.78557 50.9374 8.78557C50.9149 8.78557 50.9023 9.12237 50.9026 9.726L50.903 10.6664Z" fill="white"/>
</g>
<path d="M19.672 32V27.77H21.448C21.748 27.77 22.006 27.822 22.222 27.926C22.438 28.026 22.604 28.172 22.72 28.364C22.836 28.552 22.894 28.78 22.894 29.048C22.894 29.312 22.834 29.542 22.714 29.738C22.598 29.93 22.432 30.08 22.216 30.188C22.004 30.292 21.748 30.344 21.448 30.344H20.23V32H19.672ZM20.23 29.858H21.364C21.68 29.858 21.92 29.794 22.084 29.666C22.248 29.534 22.33 29.33 22.33 29.054C22.33 28.778 22.248 28.576 22.084 28.448C21.92 28.32 21.68 28.256 21.364 28.256H20.23V29.858ZM23.6552 32V27.77H24.2132V32H23.6552ZM25.2595 32V27.77H28.0615V28.262H25.8175V29.612H27.9355V30.104H25.8175V31.508H28.0615V32H25.2595ZM30.7322 32.054C30.3322 32.054 29.9822 31.968 29.6822 31.796C29.3862 31.62 29.1562 31.37 28.9922 31.046C28.8322 30.722 28.7522 30.334 28.7522 29.882C28.7522 29.43 28.8322 29.044 28.9922 28.724C29.1562 28.4 29.3862 28.152 29.6822 27.98C29.9782 27.804 30.3282 27.716 30.7322 27.716C31.0282 27.716 31.2962 27.76 31.5362 27.848C31.7802 27.936 31.9902 28.068 32.1662 28.244L31.9562 28.67C31.7682 28.51 31.5782 28.396 31.3862 28.328C31.1942 28.256 30.9802 28.22 30.7442 28.22C30.3042 28.22 29.9582 28.36 29.7062 28.64C29.4542 28.92 29.3282 29.334 29.3282 29.882C29.3282 30.426 29.4542 30.84 29.7062 31.124C29.9582 31.408 30.3042 31.55 30.7442 31.55C30.9802 31.55 31.1942 31.516 31.3862 31.448C31.5782 31.376 31.7682 31.26 31.9562 31.1L32.1662 31.526C31.9902 31.702 31.7802 31.834 31.5362 31.922C31.2962 32.01 31.0282 32.054 30.7322 32.054ZM32.9564 32V27.77H35.7584V28.262H33.5144V29.612H35.6324V30.104H33.5144V31.508H35.7584V32H32.9564ZM38.034 32.054C37.794 32.054 37.566 32.036 37.35 32C37.138 31.968 36.944 31.918 36.768 31.85C36.592 31.778 36.438 31.688 36.306 31.58L36.516 31.118C36.656 31.23 36.806 31.318 36.966 31.382C37.126 31.446 37.294 31.49 37.47 31.514C37.65 31.538 37.838 31.55 38.034 31.55C38.35 31.55 38.598 31.486 38.778 31.358C38.958 31.23 39.048 31.048 39.048 30.812C39.048 30.688 39.018 30.588 38.958 30.512C38.902 30.436 38.812 30.374 38.688 30.326C38.564 30.274 38.406 30.23 38.214 30.194L37.5 30.056C37.104 29.98 36.822 29.846 36.654 29.654C36.486 29.458 36.402 29.216 36.402 28.928C36.402 28.68 36.474 28.466 36.618 28.286C36.762 28.106 36.96 27.966 37.212 27.866C37.468 27.766 37.756 27.716 38.076 27.716C38.28 27.716 38.47 27.736 38.646 27.776C38.822 27.812 38.982 27.866 39.126 27.938C39.274 28.01 39.406 28.102 39.522 28.214L39.312 28.676C39.14 28.504 38.952 28.386 38.748 28.322C38.544 28.254 38.318 28.22 38.07 28.22C37.862 28.22 37.674 28.248 37.506 28.304C37.338 28.356 37.204 28.434 37.104 28.538C37.008 28.642 36.96 28.774 36.96 28.934C36.96 29.106 37.014 29.24 37.122 29.336C37.23 29.432 37.42 29.506 37.692 29.558L38.4 29.696C38.812 29.772 39.116 29.902 39.312 30.086C39.508 30.266 39.606 30.502 39.606 30.794C39.606 31.034 39.54 31.25 39.408 31.442C39.28 31.634 39.098 31.784 38.862 31.892C38.626 32 38.35 32.054 38.034 32.054Z" fill="#CE3439"/>
<path d="M48.5618 32V31.136H46.5698V30.722L48.4718 27.77H49.0778V30.68H49.6358V31.136H49.0778V32H48.5618ZM48.5798 30.68V28.46H48.5498L47.0678 30.758L46.9958 30.68H48.5798ZM51.6555 32.054C51.3275 32.054 51.0515 31.972 50.8275 31.808C50.6035 31.64 50.4335 31.396 50.3175 31.076C50.2055 30.752 50.1495 30.356 50.1495 29.888C50.1495 29.412 50.2055 29.014 50.3175 28.694C50.4335 28.374 50.6035 28.132 50.8275 27.968C51.0555 27.8 51.3335 27.716 51.6615 27.716C51.9895 27.716 52.2655 27.8 52.4895 27.968C52.7135 28.132 52.8815 28.374 52.9935 28.694C53.1055 29.01 53.1615 29.402 53.1615 29.87C53.1615 30.346 53.1035 30.746 52.9875 31.07C52.8755 31.394 52.7075 31.64 52.4835 31.808C52.2595 31.972 51.9835 32.054 51.6555 32.054ZM51.6555 31.568C51.9795 31.568 52.2215 31.432 52.3815 31.16C52.5415 30.884 52.6215 30.456 52.6215 29.876C52.6215 29.304 52.5415 28.882 52.3815 28.61C52.2255 28.338 51.9855 28.202 51.6615 28.202C51.3335 28.202 51.0895 28.338 50.9295 28.61C50.7695 28.882 50.6895 29.306 50.6895 29.882C50.6895 30.454 50.7675 30.878 50.9235 31.154C51.0835 31.43 51.3275 31.568 51.6555 31.568ZM55.2531 32.054C54.9251 32.054 54.6491 31.972 54.4251 31.808C54.2011 31.64 54.0311 31.396 53.9151 31.076C53.8031 30.752 53.7471 30.356 53.7471 29.888C53.7471 29.412 53.8031 29.014 53.9151 28.694C54.0311 28.374 54.2011 28.132 54.4251 27.968C54.6531 27.8 54.9311 27.716 55.2591 27.716C55.5871 27.716 55.8631 27.8 56.0871 27.968C56.3111 28.132 56.4791 28.374 56.5911 28.694C56.7031 29.01 56.7591 29.402 56.7591 29.87C56.7591 30.346 56.7011 30.746 56.5851 31.07C56.4731 31.394 56.3051 31.64 56.0811 31.808C55.8571 31.972 55.5811 32.054 55.2531 32.054ZM55.2531 31.568C55.5771 31.568 55.8191 31.432 55.9791 31.16C56.1391 30.884 56.2191 30.456 56.2191 29.876C56.2191 29.304 56.1391 28.882 55.9791 28.61C55.8231 28.338 55.5831 28.202 55.2591 28.202C54.9311 28.202 54.6871 28.338 54.5271 28.61C54.3671 28.882 54.2871 29.306 54.2871 29.882C54.2871 30.454 54.3651 30.878 54.5211 31.154C54.6811 31.43 54.9251 31.568 55.2531 31.568ZM58.8508 32.054C58.5228 32.054 58.2468 31.972 58.0228 31.808C57.7988 31.64 57.6288 31.396 57.5128 31.076C57.4008 30.752 57.3448 30.356 57.3448 29.888C57.3448 29.412 57.4008 29.014 57.5128 28.694C57.6288 28.374 57.7988 28.132 58.0228 27.968C58.2508 27.8 58.5288 27.716 58.8568 27.716C59.1848 27.716 59.4608 27.8 59.6848 27.968C59.9088 28.132 60.0768 28.374 60.1888 28.694C60.3008 29.01 60.3568 29.402 60.3568 29.87C60.3568 30.346 60.2988 30.746 60.1828 31.07C60.0708 31.394 59.9028 31.64 59.6788 31.808C59.4548 31.972 59.1788 32.054 58.8508 32.054ZM58.8508 31.568C59.1748 31.568 59.4168 31.432 59.5768 31.16C59.7368 30.884 59.8168 30.456 59.8168 29.876C59.8168 29.304 59.7368 28.882 59.5768 28.61C59.4208 28.338 59.1808 28.202 58.8568 28.202C58.5288 28.202 58.2848 28.338 58.1248 28.61C57.9648 28.882 57.8848 29.306 57.8848 29.882C57.8848 30.454 57.9628 30.878 58.1188 31.154C58.2788 31.43 58.5228 31.568 58.8508 31.568ZM62.9647 32V29.012H63.4687V29.648H63.5047C63.6047 29.436 63.7507 29.268 63.9427 29.144C64.1347 29.02 64.3507 28.958 64.5907 28.958C64.8427 28.958 65.0527 29.002 65.2207 29.09C65.3887 29.178 65.5147 29.312 65.5987 29.492C65.6867 29.672 65.7307 29.898 65.7307 30.17V32H65.1727V30.194C65.1727 30.046 65.1507 29.916 65.1067 29.804C65.0627 29.692 64.9887 29.604 64.8847 29.54C64.7847 29.472 64.6467 29.438 64.4707 29.438C64.2907 29.438 64.1287 29.48 63.9847 29.564C63.8407 29.648 63.7267 29.758 63.6427 29.894C63.5627 30.03 63.5227 30.176 63.5227 30.332V32H62.9647ZM68.1989 32.054C67.8909 32.054 67.6229 31.99 67.3949 31.862C67.1709 31.73 66.9969 31.548 66.8729 31.316C66.7529 31.084 66.6929 30.812 66.6929 30.5C66.6929 30.192 66.7529 29.922 66.8729 29.69C66.9969 29.458 67.1709 29.278 67.3949 29.15C67.6229 29.022 67.8909 28.958 68.1989 28.958C68.5109 28.958 68.7769 29.022 68.9969 29.15C69.2209 29.278 69.3949 29.458 69.5189 29.69C69.6429 29.922 69.7049 30.192 69.7049 30.5C69.7049 30.812 69.6429 31.084 69.5189 31.316C69.3989 31.548 69.2269 31.73 69.0029 31.862C68.7789 31.99 68.5109 32.054 68.1989 32.054ZM68.1929 31.568C68.4929 31.568 68.7289 31.47 68.9009 31.274C69.0729 31.078 69.1589 30.82 69.1589 30.5C69.1589 30.176 69.0729 29.918 68.9009 29.726C68.7329 29.534 68.4989 29.438 68.1989 29.438C67.8989 29.438 67.6629 29.534 67.4909 29.726C67.3229 29.918 67.2389 30.176 67.2389 30.5C67.2389 30.82 67.3229 31.078 67.4909 31.274C67.6629 31.47 67.8969 31.568 68.1929 31.568ZM71.8156 32.054C71.6476 32.054 71.4796 32.038 71.3116 32.006C71.1476 31.978 70.9936 31.938 70.8496 31.886C70.7096 31.83 70.5936 31.762 70.5016 31.682L70.6756 31.28C70.7836 31.356 70.8996 31.418 71.0236 31.466C71.1516 31.514 71.2836 31.548 71.4196 31.568C71.5556 31.588 71.6836 31.598 71.8036 31.598C72.0596 31.598 72.2596 31.564 72.4036 31.496C72.5476 31.424 72.6196 31.322 72.6196 31.19C72.6196 31.07 72.5796 30.98 72.4996 30.92C72.4196 30.86 72.2856 30.814 72.0976 30.782L71.4436 30.68C71.1556 30.632 70.9376 30.538 70.7896 30.398C70.6456 30.254 70.5736 30.07 70.5736 29.846C70.5736 29.67 70.6236 29.516 70.7236 29.384C70.8236 29.252 70.9676 29.148 71.1556 29.072C71.3476 28.996 71.5776 28.958 71.8456 28.958C71.9936 28.958 72.1456 28.972 72.3016 29C72.4576 29.024 72.6016 29.064 72.7336 29.12C72.8696 29.176 72.9776 29.244 73.0576 29.324L72.8716 29.72C72.7876 29.644 72.6876 29.584 72.5716 29.54C72.4556 29.496 72.3336 29.464 72.2056 29.444C72.0816 29.424 71.9616 29.414 71.8456 29.414C71.6096 29.414 71.4236 29.45 71.2876 29.522C71.1516 29.594 71.0836 29.698 71.0836 29.834C71.0836 29.95 71.1216 30.038 71.1976 30.098C71.2736 30.154 71.3996 30.198 71.5756 30.23L72.2056 30.338C72.5216 30.39 72.7536 30.484 72.9016 30.62C73.0536 30.756 73.1296 30.942 73.1296 31.178C73.1296 31.354 73.0756 31.508 72.9676 31.64C72.8596 31.772 72.7076 31.874 72.5116 31.946C72.3156 32.018 72.0836 32.054 71.8156 32.054ZM73.8579 32.378L73.4259 32.27L74.9499 27.488L75.3819 27.602L73.8579 32.378ZM76.8833 32.054C76.5713 32.054 76.2993 31.992 76.0673 31.868C75.8393 31.74 75.6613 31.56 75.5333 31.328C75.4053 31.096 75.3413 30.824 75.3413 30.512C75.3413 30.192 75.4053 29.916 75.5333 29.684C75.6613 29.452 75.8413 29.274 76.0733 29.15C76.3053 29.022 76.5773 28.958 76.8893 28.958C77.1053 28.958 77.3073 28.994 77.4953 29.066C77.6833 29.134 77.8373 29.226 77.9573 29.342L77.7653 29.762C77.6493 29.662 77.5173 29.584 77.3693 29.528C77.2253 29.472 77.0813 29.444 76.9373 29.444C76.6173 29.444 76.3633 29.538 76.1753 29.726C75.9913 29.91 75.8993 30.172 75.8993 30.512C75.8993 30.848 75.9913 31.108 76.1753 31.292C76.3633 31.476 76.6153 31.568 76.9313 31.568C77.0753 31.568 77.2193 31.54 77.3633 31.484C77.5073 31.428 77.6333 31.356 77.7413 31.268L77.9393 31.682C77.8233 31.794 77.6733 31.884 77.4893 31.952C77.3053 32.02 77.1033 32.054 76.8833 32.054ZM79.993 32.054C79.629 32.054 79.351 31.958 79.159 31.766C78.971 31.574 78.877 31.304 78.877 30.956V29.48H78.271V29.012H78.907V28.136H79.435V29.012H80.575V29.48H79.435V30.908C79.435 31.136 79.489 31.304 79.597 31.412C79.705 31.516 79.861 31.568 80.065 31.568C80.161 31.568 80.251 31.56 80.335 31.544C80.423 31.524 80.507 31.496 80.587 31.46L80.671 31.904C80.583 31.956 80.477 31.994 80.353 32.018C80.233 32.042 80.113 32.054 79.993 32.054ZM81.41 32V29.012H81.914V29.648H81.95C82.05 29.436 82.196 29.268 82.388 29.144C82.58 29.02 82.796 28.958 83.036 28.958C83.288 28.958 83.498 29.002 83.666 29.09C83.834 29.178 83.96 29.312 84.044 29.492C84.132 29.672 84.176 29.898 84.176 30.17V32H83.618V30.194C83.618 30.046 83.596 29.916 83.552 29.804C83.508 29.692 83.434 29.604 83.33 29.54C83.23 29.472 83.092 29.438 82.916 29.438C82.736 29.438 82.574 29.48 82.43 29.564C82.286 29.648 82.172 29.758 82.088 29.894C82.008 30.03 81.968 30.176 81.968 30.332V32H81.41Z" fill="black"/>
<path d="M21.118 42.054C20.878 42.054 20.65 42.036 20.434 42C20.222 41.968 20.028 41.918 19.852 41.85C19.676 41.778 19.522 41.688 19.39 41.58L19.6 41.118C19.74 41.23 19.89 41.318 20.05 41.382C20.21 41.446 20.378 41.49 20.554 41.514C20.734 41.538 20.922 41.55 21.118 41.55C21.434 41.55 21.682 41.486 21.862 41.358C22.042 41.23 22.132 41.048 22.132 40.812C22.132 40.688 22.102 40.588 22.042 40.512C21.986 40.436 21.896 40.374 21.772 40.326C21.648 40.274 21.49 40.23 21.298 40.194L20.584 40.056C20.188 39.98 19.906 39.846 19.738 39.654C19.57 39.458 19.486 39.216 19.486 38.928C19.486 38.68 19.558 38.466 19.702 38.286C19.846 38.106 20.044 37.966 20.296 37.866C20.552 37.766 20.84 37.716 21.16 37.716C21.364 37.716 21.554 37.736 21.73 37.776C21.906 37.812 22.066 37.866 22.21 37.938C22.358 38.01 22.49 38.102 22.606 38.214L22.396 38.676C22.224 38.504 22.036 38.386 21.832 38.322C21.628 38.254 21.402 38.22 21.154 38.22C20.946 38.22 20.758 38.248 20.59 38.304C20.422 38.356 20.288 38.434 20.188 38.538C20.092 38.642 20.044 38.774 20.044 38.934C20.044 39.106 20.098 39.24 20.206 39.336C20.314 39.432 20.504 39.506 20.776 39.558L21.484 39.696C21.896 39.772 22.2 39.902 22.396 40.086C22.592 40.266 22.69 40.502 22.69 40.794C22.69 41.034 22.624 41.25 22.492 41.442C22.364 41.634 22.182 41.784 21.946 41.892C21.71 42 21.434 42.054 21.118 42.054ZM23.7325 42V37.77H24.2905V42H23.7325ZM25.2888 42V41.634L27.8088 38.004L27.8868 38.268H25.2888V37.77H28.3488V38.13L25.8228 41.766L25.7448 41.502H28.4148V42H25.2888ZM29.3575 42V37.77H32.1595V38.262H29.9155V39.612H32.0335V40.104H29.9155V41.508H32.1595V42H29.3575Z" fill="#CE3439"/>
<path d="M48.938 42.054C48.598 42.054 48.308 41.972 48.068 41.808C47.832 41.644 47.652 41.406 47.528 41.094C47.404 40.782 47.342 40.408 47.342 39.972C47.342 39.488 47.41 39.08 47.546 38.748C47.682 38.412 47.878 38.156 48.134 37.98C48.39 37.804 48.7 37.716 49.064 37.716C49.228 37.716 49.382 37.736 49.526 37.776C49.67 37.812 49.804 37.868 49.928 37.944C50.056 38.016 50.178 38.11 50.294 38.226L50.09 38.652C49.93 38.484 49.766 38.368 49.598 38.304C49.43 38.236 49.252 38.202 49.064 38.202C48.864 38.202 48.688 38.24 48.536 38.316C48.384 38.388 48.256 38.498 48.152 38.646C48.052 38.79 47.974 38.97 47.918 39.186C47.866 39.398 47.84 39.642 47.84 39.918V40.164H47.87C47.91 39.992 47.984 39.844 48.092 39.72C48.2 39.596 48.332 39.5 48.488 39.432C48.644 39.364 48.81 39.33 48.986 39.33C49.246 39.33 49.474 39.388 49.67 39.504C49.866 39.616 50.02 39.774 50.132 39.978C50.244 40.182 50.3 40.414 50.3 40.674C50.3 40.942 50.242 41.18 50.126 41.388C50.01 41.596 49.85 41.76 49.646 41.88C49.442 41.996 49.206 42.054 48.938 42.054ZM48.92 41.58C49.092 41.58 49.244 41.544 49.376 41.472C49.508 41.396 49.61 41.292 49.682 41.16C49.754 41.024 49.79 40.866 49.79 40.686C49.79 40.51 49.752 40.356 49.676 40.224C49.604 40.092 49.502 39.99 49.37 39.918C49.238 39.842 49.084 39.804 48.908 39.804C48.728 39.804 48.57 39.842 48.434 39.918C48.302 39.994 48.198 40.098 48.122 40.23C48.046 40.362 48.008 40.514 48.008 40.686C48.008 40.866 48.044 41.024 48.116 41.16C48.192 41.292 48.298 41.396 48.434 41.472C48.574 41.544 48.736 41.58 48.92 41.58ZM52.5357 42.054C52.1957 42.054 51.9057 41.972 51.6657 41.808C51.4297 41.644 51.2497 41.406 51.1257 41.094C51.0017 40.782 50.9397 40.408 50.9397 39.972C50.9397 39.488 51.0077 39.08 51.1437 38.748C51.2797 38.412 51.4757 38.156 51.7317 37.98C51.9877 37.804 52.2977 37.716 52.6617 37.716C52.8257 37.716 52.9797 37.736 53.1237 37.776C53.2677 37.812 53.4017 37.868 53.5257 37.944C53.6537 38.016 53.7757 38.11 53.8917 38.226L53.6877 38.652C53.5277 38.484 53.3637 38.368 53.1957 38.304C53.0277 38.236 52.8497 38.202 52.6617 38.202C52.4617 38.202 52.2857 38.24 52.1337 38.316C51.9817 38.388 51.8537 38.498 51.7497 38.646C51.6497 38.79 51.5717 38.97 51.5157 39.186C51.4637 39.398 51.4377 39.642 51.4377 39.918V40.164H51.4677C51.5077 39.992 51.5817 39.844 51.6897 39.72C51.7977 39.596 51.9297 39.5 52.0857 39.432C52.2417 39.364 52.4077 39.33 52.5837 39.33C52.8437 39.33 53.0717 39.388 53.2677 39.504C53.4637 39.616 53.6177 39.774 53.7297 39.978C53.8417 40.182 53.8977 40.414 53.8977 40.674C53.8977 40.942 53.8397 41.18 53.7237 41.388C53.6077 41.596 53.4477 41.76 53.2437 41.88C53.0397 41.996 52.8037 42.054 52.5357 42.054ZM52.5177 41.58C52.6897 41.58 52.8417 41.544 52.9737 41.472C53.1057 41.396 53.2077 41.292 53.2797 41.16C53.3517 41.024 53.3877 40.866 53.3877 40.686C53.3877 40.51 53.3497 40.356 53.2737 40.224C53.2017 40.092 53.0997 39.99 52.9677 39.918C52.8357 39.842 52.6817 39.804 52.5057 39.804C52.3257 39.804 52.1677 39.842 52.0317 39.918C51.8997 39.994 51.7957 40.098 51.7197 40.23C51.6437 40.362 51.6057 40.514 51.6057 40.686C51.6057 40.866 51.6417 41.024 51.7137 41.16C51.7897 41.292 51.8957 41.396 52.0317 41.472C52.1717 41.544 52.3337 41.58 52.5177 41.58ZM55.9953 42.054C55.6673 42.054 55.3913 41.972 55.1673 41.808C54.9433 41.64 54.7733 41.396 54.6573 41.076C54.5453 40.752 54.4893 40.356 54.4893 39.888C54.4893 39.412 54.5453 39.014 54.6573 38.694C54.7733 38.374 54.9433 38.132 55.1673 37.968C55.3953 37.8 55.6733 37.716 56.0013 37.716C56.3293 37.716 56.6053 37.8 56.8293 37.968C57.0533 38.132 57.2213 38.374 57.3333 38.694C57.4453 39.01 57.5013 39.402 57.5013 39.87C57.5013 40.346 57.4433 40.746 57.3273 41.07C57.2153 41.394 57.0473 41.64 56.8233 41.808C56.5993 41.972 56.3233 42.054 55.9953 42.054ZM55.9953 41.568C56.3193 41.568 56.5613 41.432 56.7213 41.16C56.8813 40.884 56.9613 40.456 56.9613 39.876C56.9613 39.304 56.8813 38.882 56.7213 38.61C56.5653 38.338 56.3253 38.202 56.0013 38.202C55.6733 38.202 55.4293 38.338 55.2693 38.61C55.1093 38.882 55.0293 39.306 55.0293 39.882C55.0293 40.454 55.1073 40.878 55.2633 41.154C55.4233 41.43 55.6673 41.568 55.9953 41.568ZM59.7312 42L60.9132 40.32L60.9252 40.626L59.7792 39.012H60.3912L61.1832 40.128H61.2132L62.0052 39.012H62.6172L61.4772 40.614L61.4952 40.332L62.6712 42H62.0532L61.2132 40.812H61.1832L60.3432 42H59.7312ZM66.9114 42V41.136H64.9194V40.722L66.8214 37.77H67.4274V40.68H67.9854V41.136H67.4274V42H66.9114ZM66.9294 40.68V38.46H66.8994L65.4174 40.758L65.3454 40.68H66.9294ZM68.6731 42V41.592L70.1791 40.032C70.3271 39.88 70.4411 39.744 70.5211 39.624C70.6011 39.5 70.6571 39.382 70.6891 39.27C70.7211 39.158 70.7371 39.044 70.7371 38.928C70.7371 38.696 70.6611 38.518 70.5091 38.394C70.3571 38.266 70.1551 38.202 69.9031 38.202C69.7071 38.202 69.5091 38.24 69.3091 38.316C69.1131 38.392 68.9271 38.516 68.7511 38.688L68.5351 38.25C68.7231 38.074 68.9371 37.942 69.1771 37.854C69.4211 37.762 69.6751 37.716 69.9391 37.716C70.2111 37.716 70.4471 37.764 70.6471 37.86C70.8471 37.956 71.0011 38.094 71.1091 38.274C71.2211 38.45 71.2771 38.658 71.2771 38.898C71.2771 39.022 71.2631 39.142 71.2351 39.258C71.2071 39.374 71.1631 39.49 71.1031 39.606C71.0471 39.718 70.9731 39.834 70.8811 39.954C70.7931 40.074 70.6851 40.202 70.5571 40.338L69.4411 41.49V41.514H71.4511V42H68.6731ZM73.6327 42.054C73.4407 42.054 73.2607 42.034 73.0927 41.994C72.9287 41.954 72.7727 41.894 72.6247 41.814C72.4807 41.734 72.3487 41.638 72.2287 41.526L72.4507 41.088C72.6307 41.26 72.8167 41.384 73.0087 41.46C73.2007 41.532 73.4087 41.568 73.6327 41.568C73.9287 41.568 74.1587 41.494 74.3227 41.346C74.4907 41.194 74.5747 40.978 74.5747 40.698C74.5747 40.422 74.4967 40.204 74.3407 40.044C74.1887 39.884 73.9767 39.804 73.7047 39.804C73.5247 39.804 73.3607 39.84 73.2127 39.912C73.0687 39.98 72.9307 40.1 72.7987 40.272H72.3487V37.77H74.9227V38.256H72.8407V39.792H72.8707C72.9627 39.664 73.0887 39.556 73.2487 39.468C73.4087 39.376 73.5867 39.33 73.7827 39.33C74.0547 39.33 74.2887 39.388 74.4847 39.504C74.6847 39.616 74.8367 39.772 74.9407 39.972C75.0487 40.172 75.1027 40.404 75.1027 40.668C75.1027 40.964 75.0407 41.216 74.9167 41.424C74.7967 41.628 74.6267 41.784 74.4067 41.892C74.1907 42 73.9327 42.054 73.6327 42.054ZM77.3386 42L78.5206 40.32L78.5326 40.626L77.3866 39.012H77.9986L78.7906 40.128H78.8206L79.6126 39.012H80.2246L79.0846 40.614L79.1026 40.332L80.2786 42H79.6606L78.8206 40.812H78.7906L77.9506 42H77.3386ZM84.0448 42.054C83.8528 42.054 83.6728 42.034 83.5048 41.994C83.3408 41.954 83.1848 41.894 83.0368 41.814C82.8928 41.734 82.7608 41.638 82.6408 41.526L82.8628 41.088C83.0428 41.26 83.2288 41.384 83.4208 41.46C83.6128 41.532 83.8208 41.568 84.0448 41.568C84.3408 41.568 84.5708 41.494 84.7348 41.346C84.9028 41.194 84.9868 40.978 84.9868 40.698C84.9868 40.422 84.9088 40.204 84.7528 40.044C84.6008 39.884 84.3888 39.804 84.1168 39.804C83.9368 39.804 83.7728 39.84 83.6248 39.912C83.4808 39.98 83.3428 40.1 83.2108 40.272H82.7608V37.77H85.3348V38.256H83.2528V39.792H83.2828C83.3748 39.664 83.5008 39.556 83.6608 39.468C83.8208 39.376 83.9988 39.33 84.1948 39.33C84.4668 39.33 84.7008 39.388 84.8968 39.504C85.0968 39.616 85.2488 39.772 85.3528 39.972C85.4608 40.172 85.5148 40.404 85.5148 40.668C85.5148 40.964 85.4528 41.216 85.3288 41.424C85.2088 41.628 85.0388 41.784 84.8188 41.892C84.6028 42 84.3448 42.054 84.0448 42.054ZM87.6125 42.054C87.2845 42.054 87.0085 41.972 86.7845 41.808C86.5605 41.64 86.3905 41.396 86.2745 41.076C86.1625 40.752 86.1065 40.356 86.1065 39.888C86.1065 39.412 86.1625 39.014 86.2745 38.694C86.3905 38.374 86.5605 38.132 86.7845 37.968C87.0125 37.8 87.2905 37.716 87.6185 37.716C87.9465 37.716 88.2225 37.8 88.4465 37.968C88.6705 38.132 88.8385 38.374 88.9505 38.694C89.0625 39.01 89.1185 39.402 89.1185 39.87C89.1185 40.346 89.0605 40.746 88.9445 41.07C88.8325 41.394 88.6645 41.64 88.4405 41.808C88.2165 41.972 87.9405 42.054 87.6125 42.054ZM87.6125 41.568C87.9365 41.568 88.1785 41.432 88.3385 41.16C88.4985 40.884 88.5785 40.456 88.5785 39.876C88.5785 39.304 88.4985 38.882 88.3385 38.61C88.1825 38.338 87.9425 38.202 87.6185 38.202C87.2905 38.202 87.0465 38.338 86.8865 38.61C86.7265 38.882 86.6465 39.306 86.6465 39.882C86.6465 40.454 86.7245 40.878 86.8805 41.154C87.0405 41.43 87.2845 41.568 87.6125 41.568ZM91.2102 42.054C90.8822 42.054 90.6062 41.972 90.3822 41.808C90.1582 41.64 89.9882 41.396 89.8722 41.076C89.7602 40.752 89.7042 40.356 89.7042 39.888C89.7042 39.412 89.7602 39.014 89.8722 38.694C89.9882 38.374 90.1582 38.132 90.3822 37.968C90.6102 37.8 90.8882 37.716 91.2162 37.716C91.5442 37.716 91.8202 37.8 92.0442 37.968C92.2682 38.132 92.4362 38.374 92.5482 38.694C92.6602 39.01 92.7162 39.402 92.7162 39.87C92.7162 40.346 92.6582 40.746 92.5422 41.07C92.4302 41.394 92.2622 41.64 92.0382 41.808C91.8142 41.972 91.5382 42.054 91.2102 42.054ZM91.2102 41.568C91.5342 41.568 91.7762 41.432 91.9362 41.16C92.0962 40.884 92.1762 40.456 92.1762 39.876C92.1762 39.304 92.0962 38.882 91.9362 38.61C91.7802 38.338 91.5402 38.202 91.2162 38.202C90.8882 38.202 90.6442 38.338 90.4842 38.61C90.3242 38.882 90.2442 39.306 90.2442 39.882C90.2442 40.454 90.3222 40.878 90.4782 41.154C90.6382 41.43 90.8822 41.568 91.2102 41.568Z" fill="black"/>
<path d="M20.608 52L19.312 47.77H19.906L20.908 51.244H20.932L22.12 47.77H22.576L23.752 51.244H23.782L24.796 47.77H25.36L24.064 52H23.518L22.354 48.592H22.324L21.142 52H20.608ZM26.3517 52V47.77H29.1537V48.262H26.9097V49.612H29.0277V50.104H26.9097V51.508H29.1537V52H26.3517ZM30.3419 52V47.77H30.8999V52H30.3419ZM34.1662 52.054C33.7302 52.054 33.3542 51.97 33.0382 51.802C32.7262 51.63 32.4862 51.382 32.3182 51.058C32.1502 50.734 32.0662 50.342 32.0662 49.882C32.0662 49.43 32.1482 49.042 32.3122 48.718C32.4762 48.394 32.7102 48.146 33.0142 47.974C33.3222 47.802 33.6862 47.716 34.1062 47.716C34.3222 47.716 34.5262 47.736 34.7182 47.776C34.9102 47.816 35.0862 47.876 35.2462 47.956C35.4102 48.032 35.5482 48.128 35.6602 48.244L35.4502 48.67C35.2662 48.51 35.0622 48.396 34.8382 48.328C34.6182 48.256 34.3742 48.22 34.1062 48.22C33.6462 48.22 33.2862 48.36 33.0262 48.64C32.7702 48.92 32.6422 49.334 32.6422 49.882C32.6422 50.45 32.7762 50.872 33.0442 51.148C33.3122 51.424 33.6962 51.562 34.1962 51.562C34.4322 51.562 34.6502 51.546 34.8502 51.514C35.0502 51.478 35.2282 51.426 35.3842 51.358L35.2102 51.682V50.224H34.1602V49.738H35.7202V51.754C35.6082 51.81 35.4662 51.862 35.2942 51.91C35.1222 51.954 34.9382 51.988 34.7422 52.012C34.5502 52.04 34.3582 52.054 34.1662 52.054ZM37.004 52V47.77H37.562V49.6H40.004V47.77H40.562V52H40.004V50.098H37.562V52H37.004ZM42.9343 52V48.268H41.4163V47.77H45.0103V48.268H43.4923V52H42.9343Z" fill="#CE3439"/>
<path d="M47.8494 52V51.526H49.1094V48.196L49.4034 48.256L48.0654 49.12L47.8194 48.688L49.2474 47.77H49.6554V51.526H50.8014V52H47.8494ZM52.7971 52.054C52.3251 52.054 51.9511 51.952 51.6751 51.748C51.4031 51.54 51.2671 51.252 51.2671 50.884C51.2671 50.7 51.3031 50.538 51.3751 50.398C51.4471 50.254 51.5471 50.136 51.6751 50.044C51.8031 49.952 51.9511 49.888 52.1191 49.852V49.822C51.9791 49.782 51.8511 49.716 51.7351 49.624C51.6231 49.528 51.5331 49.414 51.4651 49.282C51.3971 49.15 51.3631 49.004 51.3631 48.844C51.3631 48.496 51.4931 48.222 51.7531 48.022C52.0171 47.818 52.3651 47.716 52.7971 47.716C53.2291 47.716 53.5751 47.818 53.8351 48.022C54.0991 48.222 54.2311 48.496 54.2311 48.844C54.2311 49 54.1951 49.146 54.1231 49.282C54.0551 49.414 53.9631 49.528 53.8471 49.624C53.7351 49.716 53.6091 49.782 53.4691 49.822V49.852C53.6291 49.884 53.7731 49.948 53.9011 50.044C54.0291 50.136 54.1311 50.254 54.2071 50.398C54.2871 50.538 54.3271 50.7 54.3271 50.884C54.3271 51.252 54.1911 51.54 53.9191 51.748C53.6471 51.952 53.2731 52.054 52.7971 52.054ZM52.7971 51.586C53.1251 51.586 53.3771 51.522 53.5531 51.394C53.7291 51.266 53.8171 51.082 53.8171 50.842C53.8171 50.602 53.7291 50.416 53.5531 50.284C53.3771 50.152 53.1251 50.086 52.7971 50.086C52.4691 50.086 52.2171 50.152 52.0411 50.284C51.8651 50.416 51.7771 50.602 51.7771 50.842C51.7771 51.082 51.8651 51.266 52.0411 51.394C52.2171 51.522 52.4691 51.586 52.7971 51.586ZM52.7971 49.618C53.0811 49.618 53.3051 49.554 53.4691 49.426C53.6331 49.298 53.7151 49.12 53.7151 48.892C53.7151 48.668 53.6331 48.494 53.4691 48.37C53.3051 48.242 53.0811 48.178 52.7971 48.178C52.5131 48.178 52.2891 48.242 52.1251 48.37C51.9611 48.494 51.8791 48.668 51.8791 48.892C51.8791 49.12 51.9611 49.298 52.1251 49.426C52.2891 49.554 52.5131 49.618 52.7971 49.618ZM56.0467 53.152C55.7467 52.724 55.5247 52.286 55.3807 51.838C55.2407 51.39 55.1707 50.918 55.1707 50.422C55.1707 49.93 55.2407 49.46 55.3807 49.012C55.5247 48.564 55.7467 48.124 56.0467 47.692L56.4487 47.83C56.2847 48.114 56.1467 48.4 56.0347 48.688C55.9267 48.972 55.8467 49.258 55.7947 49.546C55.7427 49.834 55.7167 50.126 55.7167 50.422C55.7167 50.714 55.7427 51.006 55.7947 51.298C55.8467 51.586 55.9267 51.872 56.0347 52.156C56.1467 52.44 56.2847 52.726 56.4487 53.014L56.0467 53.152ZM57.4383 52V47.77H57.9963V50.344H58.0203L59.3463 49.012H60.0243L58.4403 50.578L58.4583 50.35L60.1863 52H59.4843L58.0203 50.626H57.9963V52H57.4383ZM61.9918 53.128C61.7638 53.128 61.5298 53.094 61.2898 53.026C61.0538 52.958 60.8538 52.864 60.6898 52.744L60.8638 52.3C60.9718 52.372 61.0878 52.434 61.2118 52.486C61.3398 52.538 61.4698 52.578 61.6018 52.606C61.7378 52.634 61.8658 52.648 61.9858 52.648C62.3098 52.648 62.5638 52.568 62.7478 52.408C62.9358 52.248 63.0298 52.026 63.0298 51.742V51.262H62.9818C62.9018 51.45 62.7698 51.606 62.5858 51.73C62.4058 51.85 62.1938 51.91 61.9498 51.91C61.6618 51.91 61.4118 51.85 61.1998 51.73C60.9878 51.606 60.8218 51.434 60.7018 51.214C60.5858 50.99 60.5278 50.73 60.5278 50.434C60.5278 50.138 60.5858 49.88 60.7018 49.66C60.8218 49.436 60.9878 49.264 61.1998 49.144C61.4118 49.02 61.6618 48.958 61.9498 48.958C62.1938 48.958 62.4078 49.02 62.5918 49.144C62.7798 49.268 62.9158 49.434 62.9998 49.642H63.0298V49.012H63.5458V51.7C63.5458 51.988 63.4818 52.238 63.3538 52.45C63.2258 52.666 63.0458 52.832 62.8138 52.948C62.5818 53.068 62.3078 53.128 61.9918 53.128ZM62.0398 51.448C62.3358 51.448 62.5698 51.356 62.7418 51.172C62.9138 50.984 62.9998 50.736 62.9998 50.428C62.9998 50.124 62.9138 49.88 62.7418 49.696C62.5698 49.512 62.3358 49.42 62.0398 49.42C61.7478 49.42 61.5138 49.512 61.3378 49.696C61.1658 49.88 61.0798 50.124 61.0798 50.428C61.0798 50.736 61.1658 50.984 61.3378 51.172C61.5138 51.356 61.7478 51.448 62.0398 51.448ZM65.8381 52.054C65.6701 52.054 65.5021 52.038 65.3341 52.006C65.1701 51.978 65.0161 51.938 64.8721 51.886C64.7321 51.83 64.6161 51.762 64.5241 51.682L64.6981 51.28C64.8061 51.356 64.9221 51.418 65.0461 51.466C65.1741 51.514 65.3061 51.548 65.4421 51.568C65.5781 51.588 65.7061 51.598 65.8261 51.598C66.0821 51.598 66.2821 51.564 66.4261 51.496C66.5701 51.424 66.6421 51.322 66.6421 51.19C66.6421 51.07 66.6021 50.98 66.5221 50.92C66.4421 50.86 66.3081 50.814 66.1201 50.782L65.4661 50.68C65.1781 50.632 64.9601 50.538 64.8121 50.398C64.6681 50.254 64.5961 50.07 64.5961 49.846C64.5961 49.67 64.6461 49.516 64.7461 49.384C64.8461 49.252 64.9901 49.148 65.1781 49.072C65.3701 48.996 65.6001 48.958 65.8681 48.958C66.0161 48.958 66.1681 48.972 66.3241 49C66.4801 49.024 66.6241 49.064 66.7561 49.12C66.8921 49.176 67.0001 49.244 67.0801 49.324L66.8941 49.72C66.8101 49.644 66.7101 49.584 66.5941 49.54C66.4781 49.496 66.3561 49.464 66.2281 49.444C66.1041 49.424 65.9841 49.414 65.8681 49.414C65.6321 49.414 65.4461 49.45 65.3101 49.522C65.1741 49.594 65.1061 49.698 65.1061 49.834C65.1061 49.95 65.1441 50.038 65.2201 50.098C65.2961 50.154 65.4221 50.198 65.5981 50.23L66.2281 50.338C66.5441 50.39 66.7761 50.484 66.9241 50.62C67.0761 50.756 67.1521 50.942 67.1521 51.178C67.1521 51.354 67.0981 51.508 66.9901 51.64C66.8821 51.772 66.7301 51.874 66.5341 51.946C66.3381 52.018 66.1061 52.054 65.8381 52.054ZM68.1504 53.152L67.7484 53.014C67.9164 52.726 68.0544 52.44 68.1624 52.156C68.2704 51.872 68.3504 51.586 68.4024 51.298C68.4544 51.006 68.4804 50.714 68.4804 50.422C68.4804 50.126 68.4544 49.834 68.4024 49.546C68.3504 49.258 68.2704 48.972 68.1624 48.688C68.0544 48.4 67.9164 48.114 67.7484 47.83L68.1504 47.692C68.4504 48.12 68.6704 48.558 68.8104 49.006C68.9544 49.454 69.0264 49.926 69.0264 50.422C69.0264 50.914 68.9544 51.384 68.8104 51.832C68.6704 52.28 68.4504 52.72 68.1504 53.152Z" fill="black"/>
<defs>
<filter id="filter0_d_235_202" x="0.0999999" y="20" width="113.8" height="46.9" filterUnits="userSpaceOnUse" color-interpolation-filters="sRGB">
<feFlood flood-opacity="0" result="BackgroundImageFix"/>
<feColorMatrix in="SourceAlpha" type="matrix" values="0 0 0 0 0 0 0 0 0 0 0 0 0 0 0 0 0 0 127 0" result="hardAlpha"/>
<feOffset dy="4"/>
<feGaussianBlur stdDeviation="1.95"/>
<feComposite in2="hardAlpha" operator="out"/>
<feColorMatrix type="matrix" values="0 0 0 0 0 0 0 0 0 0 0 0 0 0 0 0 0 0 0.2 0"/>
<feBlend mode="normal" in2="BackgroundImageFix" result="effect1_dropShadow_235_202"/>
<feBlend mode="normal" in="SourceGraphic" in2="effect1_dropShadow_235_202" result="shape"/>
</filter>
<clipPath id="clip0_235_202">
<rect width="18" height="18" fill="white" transform="translate(47 2)"/>
</clipPath>
</defs>
</svg>
