<svg width="136" height="82" viewBox="0 0 136 82" fill="none" xmlns="http://www.w3.org/2000/svg">
<g filter="url(#filter0_d_271_201)">
<rect x="4" y="24" width="128" height="50" rx="2" fill="white"/>
<rect x="4.25" y="24.25" width="127.5" height="49.5" rx="1.75" stroke="white" stroke-width="0.5"/>
</g>
<rect x="52.5" width="30.1136" height="30.1136" rx="3" fill="#CB3335"/>
<g clip-path="url(#clip0_271_201)">
<path fill-rule="evenodd" clip-rule="evenodd" d="M67.0398 2.41708C67.1215 2.412 67.207 2.42555 67.2303 2.44673C67.2536 2.4679 67.8922 2.80372 68.649 3.19331C69.4061 3.58248 70.3492 4.06821 70.7452 4.27232C71.1411 4.47601 72.8468 5.3526 74.5352 6.2203C76.224 7.08757 77.638 7.82865 77.6783 7.86676C77.746 7.93113 77.7511 8.28642 77.7536 13.2504C77.7558 17.5016 77.7452 18.5802 77.702 18.642C77.6723 18.6844 75.2755 19.9281 72.3755 21.4056C69.4756 22.8835 67.0652 24.0926 67.0186 24.0926C66.972 24.0926 66.7243 23.9816 66.4681 23.8465C66.2119 23.711 63.8125 22.477 61.1361 21.1041C57.1258 19.0464 56.256 18.5849 56.1904 18.4803C56.129 18.3824 56.1146 18.2952 56.1273 18.0991C56.1366 17.9594 56.1773 15.6062 56.2175 12.8692C56.2581 10.1323 56.3085 7.84558 56.3297 7.78757C56.3619 7.69906 57.2296 7.25145 61.6299 5.05405C65.146 3.29791 66.9407 2.42344 67.0398 2.41708ZM57.3757 7.9324C57.3808 7.94595 58.0371 8.30378 58.835 8.72768C59.6328 9.15158 60.3332 9.5255 60.3912 9.55896C60.4929 9.61782 60.6847 9.52296 65.2718 7.1477C67.8977 5.78751 70.032 4.66276 70.0147 4.64752C69.9973 4.63227 69.3303 4.2846 68.5325 3.87468C67.7347 3.46476 67.0584 3.13064 67.0292 3.13191C67 3.13318 64.814 4.20838 62.1715 5.52114C59.529 6.83391 57.371 7.91885 57.3757 7.9324ZM64.2758 8.4016C62.606 9.26337 61.239 9.97777 61.239 9.98963C61.2386 10.0011 61.643 10.228 62.1381 10.4936L63.0379 10.9759C63.4974 10.7409 65.6389 9.62798 68.0929 8.35121C70.547 7.07486 72.5572 6.0111 72.5606 5.98781C72.5635 5.96452 72.1718 5.7405 71.6895 5.49023C71.2076 5.23996 70.8074 5.03542 70.8002 5.03627C70.7934 5.03711 70.0053 5.44195 69.0496 5.93615C68.0938 6.43034 65.9455 7.53984 64.2758 8.4016ZM66.5011 9.9134C65.0054 10.6888 63.7807 11.338 63.7803 11.3553C63.7794 11.3727 64.4938 11.7682 65.367 12.234L66.9551 13.081C74.3887 9.27608 76.5793 8.1471 76.6196 8.11703C76.6827 8.07003 76.479 7.95357 75.0413 7.21588C74.1329 6.75006 73.3762 6.36639 73.3593 6.36343C73.3423 6.36047 72.4043 6.84068 71.2745 7.43058C70.1447 8.02006 67.9968 9.1376 66.5011 9.9134ZM56.8802 13.2927C56.8269 16.7461 56.8188 18.1123 56.8518 18.1466C56.8768 18.1724 57.3647 18.4324 57.9351 18.7246C58.5059 19.0164 60.7067 20.1441 62.8262 21.2303C64.9457 22.3161 66.684 23.1994 66.6896 23.1927C66.6946 23.1863 66.6811 21.0368 66.6591 18.4167C66.637 15.7963 66.6137 13.6497 66.607 13.6459C66.6006 13.6421 65.871 13.2491 64.9859 12.7731L63.3767 11.9075C63.3352 12.1112 63.3115 12.6753 63.2967 13.2927C63.2734 14.2913 63.262 14.4268 63.1925 14.5208C63.1403 14.5914 63.0662 14.6305 62.9702 14.6381C62.8542 14.6478 62.5886 14.5246 61.6003 14.0029C60.9261 13.6472 60.3307 13.3228 60.2769 13.2821L60.1795 13.208L60.1583 10.1827C58.2874 9.17741 57.5679 8.7912 57.352 8.67601C57.136 8.56041 56.9581 8.47063 56.9569 8.47614C56.956 8.48164 56.9213 10.649 56.8802 13.2927ZM67.3222 13.6395C67.3032 13.6467 67.3032 15.8014 67.3222 18.4273C67.3417 21.0533 67.3671 23.2028 67.3785 23.2033C67.39 23.2041 69.5814 22.0921 72.2485 20.7319L77.0972 18.2592C77.1138 10.8002 77.1044 8.63579 77.0867 8.63748C77.0693 8.6396 74.8732 9.76265 72.2061 11.1339C69.5391 12.5051 67.3417 13.6323 67.3222 13.6395ZM60.8156 12.8481C62.1309 13.5371 62.5353 13.7429 62.5637 13.7492C62.6009 13.7577 62.6229 13.5697 62.6462 13.0505C62.664 12.6596 62.678 12.1587 62.678 11.9376V11.5353C61.2996 10.7968 60.8803 10.5825 60.8571 10.5825C60.83 10.5825 60.8147 10.9882 60.8151 11.7153L60.8156 12.8481Z" fill="white"/>
</g>
<path d="M16.832 41V35.36H19.152C19.5573 35.36 19.9013 35.4267 20.184 35.56C20.4667 35.6933 20.6827 35.888 20.832 36.144C20.9867 36.3947 21.064 36.6987 21.064 37.056C21.064 37.4133 20.9867 37.72 20.832 37.976C20.6827 38.232 20.464 38.4293 20.176 38.568C19.8933 38.7067 19.552 38.776 19.152 38.776H17.544V41H16.832ZM17.544 38.168H19.048C19.4747 38.168 19.7973 38.0773 20.016 37.896C20.2347 37.7093 20.344 37.432 20.344 37.064C20.344 36.6907 20.2347 36.416 20.016 36.24C19.7973 36.0587 19.4747 35.968 19.048 35.968H17.544V38.168ZM21.7242 36.096V35.304H22.5882V36.096H21.7242ZM21.8042 41V37.048H22.5162V41H21.8042ZM25.441 41.072C24.9983 41.072 24.6143 40.992 24.289 40.832C23.969 40.6667 23.7237 40.432 23.553 40.128C23.3823 39.8187 23.297 39.4507 23.297 39.024C23.297 38.624 23.377 38.272 23.537 37.968C23.697 37.6587 23.9237 37.416 24.217 37.24C24.5103 37.064 24.8597 36.976 25.265 36.976C25.649 36.976 25.9743 37.0587 26.241 37.224C26.513 37.3893 26.7183 37.6213 26.857 37.92C27.001 38.2187 27.073 38.5733 27.073 38.984V39.216H23.833V38.72H26.609L26.457 38.88C26.457 38.4427 26.353 38.1067 26.145 37.872C25.9423 37.6373 25.649 37.52 25.265 37.52C25.0143 37.52 24.7903 37.5787 24.593 37.696C24.401 37.808 24.2517 37.968 24.145 38.176C24.0383 38.384 23.985 38.6373 23.985 38.936V39.016C23.985 39.336 24.0437 39.6053 24.161 39.824C24.2783 40.0427 24.4463 40.208 24.665 40.32C24.8837 40.432 25.145 40.488 25.449 40.488C25.6677 40.488 25.889 40.4587 26.113 40.4C26.3423 40.336 26.5557 40.224 26.753 40.064L26.993 40.576C26.7903 40.7467 26.5477 40.872 26.265 40.952C25.9877 41.032 25.713 41.072 25.441 41.072ZM29.6079 41.072C29.2026 41.072 28.8506 40.9867 28.5519 40.816C28.2533 40.6453 28.0213 40.408 27.8559 40.104C27.6906 39.7947 27.6079 39.432 27.6079 39.016C27.6079 38.6 27.6906 38.24 27.8559 37.936C28.0213 37.6267 28.2533 37.3893 28.5519 37.224C28.8559 37.0587 29.2106 36.976 29.6159 36.976C29.8879 36.976 30.1466 37.0213 30.3919 37.112C30.6373 37.2027 30.8399 37.3253 30.9999 37.48L30.7519 38.008C30.5973 37.8693 30.4239 37.7653 30.2319 37.696C30.0399 37.6213 29.8533 37.584 29.6719 37.584C29.2559 37.584 28.9279 37.7093 28.6879 37.96C28.4479 38.2107 28.3279 38.5653 28.3279 39.024C28.3279 39.4773 28.4479 39.832 28.6879 40.088C28.9279 40.3387 29.2533 40.464 29.6639 40.464C29.8506 40.464 30.0373 40.4293 30.2239 40.36C30.4159 40.2853 30.5866 40.1813 30.7359 40.048L30.9839 40.576C30.8293 40.7307 30.6293 40.8533 30.3839 40.944C30.1386 41.0293 29.8799 41.072 29.6079 41.072ZM33.3363 41.072C32.8936 41.072 32.5096 40.992 32.1843 40.832C31.8643 40.6667 31.619 40.432 31.4483 40.128C31.2776 39.8187 31.1923 39.4507 31.1923 39.024C31.1923 38.624 31.2723 38.272 31.4323 37.968C31.5923 37.6587 31.819 37.416 32.1123 37.24C32.4056 37.064 32.755 36.976 33.1603 36.976C33.5443 36.976 33.8696 37.0587 34.1363 37.224C34.4083 37.3893 34.6136 37.6213 34.7523 37.92C34.8963 38.2187 34.9683 38.5733 34.9683 38.984V39.216H31.7283V38.72H34.5043L34.3523 38.88C34.3523 38.4427 34.2483 38.1067 34.0403 37.872C33.8376 37.6373 33.5443 37.52 33.1603 37.52C32.9096 37.52 32.6856 37.5787 32.4883 37.696C32.2963 37.808 32.147 37.968 32.0403 38.176C31.9336 38.384 31.8803 38.6373 31.8803 38.936V39.016C31.8803 39.336 31.939 39.6053 32.0563 39.824C32.1736 40.0427 32.3416 40.208 32.5603 40.32C32.779 40.432 33.0403 40.488 33.3443 40.488C33.563 40.488 33.7843 40.4587 34.0083 40.4C34.2376 40.336 34.451 40.224 34.6483 40.064L34.8883 40.576C34.6856 40.7467 34.443 40.872 34.1603 40.952C33.883 41.032 33.6083 41.072 33.3363 41.072ZM37.1993 41.072C36.9806 41.072 36.7646 41.0507 36.5513 41.008C36.3433 40.9707 36.1486 40.9173 35.9673 40.848C35.7913 40.7733 35.6393 40.6827 35.5113 40.576L35.7433 40.072C35.8766 40.1733 36.0233 40.256 36.1833 40.32C36.3486 40.384 36.5166 40.432 36.6873 40.464C36.8633 40.4907 37.0313 40.504 37.1913 40.504C37.5219 40.504 37.7753 40.4533 37.9513 40.352C38.1326 40.2507 38.2233 40.1093 38.2233 39.928C38.2233 39.7733 38.1699 39.656 38.0633 39.576C37.9619 39.4907 37.7913 39.4267 37.5513 39.384L36.7273 39.24C36.3593 39.1707 36.0819 39.0453 35.8953 38.864C35.7139 38.6827 35.6233 38.4453 35.6233 38.152C35.6233 37.9173 35.6873 37.712 35.8153 37.536C35.9486 37.36 36.1379 37.224 36.3833 37.128C36.6286 37.0267 36.9219 36.976 37.2633 36.976C37.4499 36.976 37.6393 36.9947 37.8313 37.032C38.0286 37.0693 38.2099 37.1253 38.3753 37.2C38.5459 37.2693 38.6846 37.3573 38.7913 37.464L38.5513 37.968C38.4446 37.8667 38.3166 37.7867 38.1673 37.728C38.0233 37.664 37.8713 37.6187 37.7113 37.592C37.5566 37.56 37.4046 37.544 37.2553 37.544C36.9459 37.544 36.7059 37.5973 36.5353 37.704C36.3646 37.8053 36.2793 37.9493 36.2793 38.136C36.2793 38.2853 36.3273 38.4027 36.4233 38.488C36.5246 38.5733 36.6873 38.6373 36.9113 38.68L37.7113 38.824C38.1059 38.8987 38.3993 39.024 38.5913 39.2C38.7833 39.3707 38.8793 39.608 38.8793 39.912C38.8793 40.1467 38.8099 40.352 38.6713 40.528C38.5326 40.6987 38.3379 40.832 38.0873 40.928C37.8366 41.024 37.5406 41.072 37.1993 41.072Z" fill="#CE3439"/>
<path d="M55.1774 41V40.392H56.7214V35.928L57.0974 35.984L55.4574 37.04L55.1374 36.488L56.9054 35.36H57.4254V40.392H58.8494V41H55.1774ZM61.7023 41.072C61.4569 41.072 61.2196 41.0453 60.9903 40.992C60.7663 40.9387 60.5556 40.8613 60.3583 40.76C60.1609 40.6533 59.9849 40.5253 59.8303 40.376L60.1103 39.816C60.3556 40.04 60.6063 40.2027 60.8623 40.304C61.1236 40.4 61.4036 40.448 61.7023 40.448C62.0969 40.448 62.4036 40.3467 62.6223 40.144C62.8463 39.936 62.9583 39.6453 62.9583 39.272C62.9583 38.904 62.8543 38.6107 62.6463 38.392C62.4383 38.1733 62.1503 38.064 61.7823 38.064C61.5369 38.064 61.3129 38.1147 61.1103 38.216C60.9129 38.312 60.7289 38.4747 60.5583 38.704H59.9983V35.36H63.3743V35.976H60.6463V38.096H60.6143C60.7423 37.904 60.9183 37.7493 61.1423 37.632C61.3663 37.5093 61.6169 37.448 61.8943 37.448C62.2569 37.448 62.5689 37.5253 62.8303 37.68C63.0916 37.8293 63.2916 38.0373 63.4303 38.304C63.5743 38.5707 63.6463 38.8827 63.6463 39.24C63.6463 39.6187 63.5663 39.9467 63.4063 40.224C63.2463 40.496 63.0223 40.7067 62.7343 40.856C62.4463 41 62.1023 41.072 61.7023 41.072ZM66.4352 41.072C66.0032 41.072 65.6378 40.9627 65.3392 40.744C65.0405 40.52 64.8138 40.1947 64.6592 39.768C64.5098 39.336 64.4352 38.8053 64.4352 38.176C64.4352 37.5467 64.5098 37.0187 64.6592 36.592C64.8138 36.1653 65.0405 35.8427 65.3392 35.624C65.6378 35.4 66.0032 35.288 66.4352 35.288C66.8778 35.288 67.2458 35.3973 67.5392 35.616C67.8325 35.8347 68.0538 36.1573 68.2032 36.584C68.3578 37.0107 68.4352 37.5387 68.4352 38.168C68.4352 38.7973 68.3578 39.328 68.2032 39.76C68.0538 40.192 67.8298 40.52 67.5312 40.744C67.2325 40.9627 66.8672 41.072 66.4352 41.072ZM66.4352 40.448C66.8725 40.448 67.1978 40.264 67.4112 39.896C67.6245 39.528 67.7312 38.952 67.7312 38.168C67.7312 37.3893 67.6245 36.8187 67.4112 36.456C67.2032 36.0933 66.8805 35.912 66.4432 35.912C66.0005 35.912 65.6725 36.096 65.4592 36.464C65.2458 36.8267 65.1392 37.3973 65.1392 38.176C65.1392 38.9493 65.2458 39.5227 65.4592 39.896C65.6725 40.264 65.9978 40.448 66.4352 40.448ZM71.232 41.072C70.8 41.072 70.4347 40.9627 70.136 40.744C69.8374 40.52 69.6107 40.1947 69.456 39.768C69.3067 39.336 69.232 38.8053 69.232 38.176C69.232 37.5467 69.3067 37.0187 69.456 36.592C69.6107 36.1653 69.8374 35.8427 70.136 35.624C70.4347 35.4 70.8 35.288 71.232 35.288C71.6747 35.288 72.0427 35.3973 72.336 35.616C72.6294 35.8347 72.8507 36.1573 73 36.584C73.1547 37.0107 73.232 37.5387 73.232 38.168C73.232 38.7973 73.1547 39.328 73 39.76C72.8507 40.192 72.6267 40.52 72.328 40.744C72.0294 40.9627 71.664 41.072 71.232 41.072ZM71.232 40.448C71.6694 40.448 71.9947 40.264 72.208 39.896C72.4214 39.528 72.528 38.952 72.528 38.168C72.528 37.3893 72.4214 36.8187 72.208 36.456C72 36.0933 71.6774 35.912 71.24 35.912C70.7974 35.912 70.4694 36.096 70.256 36.464C70.0427 36.8267 69.936 37.3973 69.936 38.176C69.936 38.9493 70.0427 39.5227 70.256 39.896C70.4694 40.264 70.7947 40.448 71.232 40.448ZM76.6953 41V35.36H77.3273L80.7833 39.952H80.7513V35.36H81.4313V41H80.7833L77.3433 36.424H77.3753V41H76.6953ZM84.6937 41.072C84.2937 41.072 83.9471 40.9867 83.6537 40.816C83.3604 40.6453 83.1337 40.408 82.9737 40.104C82.8137 39.7947 82.7337 39.432 82.7337 39.016C82.7337 38.6053 82.8137 38.248 82.9737 37.944C83.1337 37.6347 83.3604 37.3973 83.6537 37.232C83.9471 37.0613 84.2937 36.976 84.6937 36.976C85.0937 36.976 85.4377 37.0613 85.7257 37.232C86.0191 37.3973 86.2457 37.6347 86.4057 37.944C86.5657 38.248 86.6457 38.6053 86.6457 39.016C86.6457 39.432 86.5657 39.7947 86.4057 40.104C86.2511 40.408 86.0271 40.6453 85.7337 40.816C85.4404 40.9867 85.0937 41.072 84.6937 41.072ZM84.6857 40.472C85.0751 40.472 85.3817 40.3413 85.6057 40.08C85.8297 39.8187 85.9417 39.464 85.9417 39.016C85.9417 38.568 85.8297 38.216 85.6057 37.96C85.3871 37.704 85.0831 37.576 84.6937 37.576C84.3044 37.576 83.9977 37.704 83.7737 37.96C83.5497 38.216 83.4377 38.568 83.4377 39.016C83.4377 39.464 83.5497 39.8187 83.7737 40.08C84.0031 40.3413 84.3071 40.472 84.6857 40.472ZM89.2969 41.072C89.0782 41.072 88.8622 41.0507 88.6489 41.008C88.4409 40.9707 88.2462 40.9173 88.0649 40.848C87.8889 40.7733 87.7369 40.6827 87.6089 40.576L87.8409 40.072C87.9742 40.1733 88.1209 40.256 88.2809 40.32C88.4462 40.384 88.6142 40.432 88.7849 40.464C88.9609 40.4907 89.1289 40.504 89.2889 40.504C89.6196 40.504 89.8729 40.4533 90.0489 40.352C90.2302 40.2507 90.3209 40.1093 90.3209 39.928C90.3209 39.7733 90.2676 39.656 90.1609 39.576C90.0596 39.4907 89.8889 39.4267 89.6489 39.384L88.8249 39.24C88.4569 39.1707 88.1796 39.0453 87.9929 38.864C87.8116 38.6827 87.7209 38.4453 87.7209 38.152C87.7209 37.9173 87.7849 37.712 87.9129 37.536C88.0462 37.36 88.2356 37.224 88.4809 37.128C88.7262 37.0267 89.0196 36.976 89.3609 36.976C89.5476 36.976 89.7369 36.9947 89.9289 37.032C90.1262 37.0693 90.3076 37.1253 90.4729 37.2C90.6436 37.2693 90.7822 37.3573 90.8889 37.464L90.6489 37.968C90.5422 37.8667 90.4142 37.7867 90.2649 37.728C90.1209 37.664 89.9689 37.6187 89.8089 37.592C89.6542 37.56 89.5022 37.544 89.3529 37.544C89.0436 37.544 88.8036 37.5973 88.6329 37.704C88.4622 37.8053 88.3769 37.9493 88.3769 38.136C88.3769 38.2853 88.4249 38.4027 88.5209 38.488C88.6222 38.5733 88.7849 38.6373 89.0089 38.68L89.8089 38.824C90.2036 38.8987 90.4969 39.024 90.6889 39.2C90.8809 39.3707 90.9769 39.608 90.9769 39.912C90.9769 40.1467 90.9076 40.352 90.7689 40.528C90.6302 40.6987 90.4356 40.832 90.1849 40.928C89.9342 41.024 89.6382 41.072 89.2969 41.072ZM91.8814 41.504L91.3214 41.352L93.3614 34.984L93.9134 35.136L91.8814 41.504ZM96.9627 41.072C96.424 41.072 95.9547 40.9573 95.5547 40.728C95.16 40.4933 94.856 40.16 94.6427 39.728C94.4293 39.2907 94.3227 38.7733 94.3227 38.176C94.3227 37.5787 94.4293 37.064 94.6427 36.632C94.856 36.2 95.16 35.8693 95.5547 35.64C95.9493 35.4053 96.4187 35.288 96.9627 35.288C97.3573 35.288 97.7173 35.3493 98.0427 35.472C98.368 35.5893 98.648 35.7627 98.8827 35.992L98.6027 36.552C98.3573 36.3333 98.104 36.176 97.8427 36.08C97.5867 35.984 97.2987 35.936 96.9787 35.936C96.3813 35.936 95.912 36.128 95.5707 36.512C95.2347 36.8907 95.0667 37.4453 95.0667 38.176C95.0667 38.9013 95.2347 39.4587 95.5707 39.848C95.9067 40.232 96.376 40.424 96.9787 40.424C97.2987 40.424 97.5867 40.376 97.8427 40.28C98.104 40.184 98.3573 40.0267 98.6027 39.808L98.8827 40.368C98.648 40.5973 98.368 40.7733 98.0427 40.896C97.7173 41.0133 97.3573 41.072 96.9627 41.072ZM101.614 41.072C101.14 41.072 100.78 40.9467 100.534 40.696C100.294 40.4453 100.174 40.088 100.174 39.624V37.632H99.3743V37.048H100.198V35.872H100.886V37.048H102.302V37.632H100.886V39.56C100.886 39.864 100.953 40.0907 101.086 40.24C101.225 40.384 101.436 40.456 101.718 40.456C101.83 40.456 101.937 40.4453 102.038 40.424C102.145 40.4027 102.246 40.3707 102.342 40.328L102.454 40.888C102.348 40.9467 102.217 40.992 102.062 41.024C101.913 41.056 101.764 41.072 101.614 41.072ZM103.286 41V37.048H103.95V37.904C104.078 37.6107 104.27 37.384 104.526 37.224C104.782 37.0587 105.07 36.976 105.39 36.976C105.716 36.976 105.988 37.0347 106.206 37.152C106.425 37.264 106.588 37.44 106.694 37.68C106.806 37.9147 106.862 38.208 106.862 38.56V41H106.15V38.6C106.15 38.3867 106.121 38.2053 106.062 38.056C106.004 37.9067 105.905 37.792 105.766 37.712C105.633 37.6267 105.454 37.584 105.23 37.584C104.996 37.584 104.782 37.6373 104.59 37.744C104.404 37.8507 104.257 37.9947 104.15 38.176C104.049 38.3573 103.998 38.56 103.998 38.784V41H103.286Z" fill="black"/>
<path d="M18.72 54.072C18.4107 54.072 18.1173 54.048 17.84 54C17.5627 53.952 17.3093 53.88 17.08 53.784C16.8507 53.688 16.6507 53.5707 16.48 53.432L16.744 52.84C16.9253 52.984 17.1173 53.1013 17.32 53.192C17.528 53.2773 17.7467 53.3387 17.976 53.376C18.2107 53.4133 18.4587 53.432 18.72 53.432C19.1627 53.432 19.5013 53.344 19.736 53.168C19.976 52.992 20.096 52.752 20.096 52.448C20.096 52.288 20.056 52.1547 19.976 52.048C19.9013 51.9413 19.7813 51.8533 19.616 51.784C19.456 51.7147 19.248 51.6533 18.992 51.6L18.072 51.424C17.5547 51.3227 17.1813 51.144 16.952 50.888C16.7227 50.632 16.608 50.3093 16.608 49.92C16.608 49.5893 16.6987 49.304 16.88 49.064C17.0667 48.8187 17.3227 48.6293 17.648 48.496C17.9787 48.3573 18.3547 48.288 18.776 48.288C19.0427 48.288 19.2907 48.3147 19.52 48.368C19.7547 48.416 19.968 48.4907 20.16 48.592C20.3573 48.6933 20.5333 48.816 20.688 48.96L20.424 49.544C20.1947 49.32 19.944 49.1627 19.672 49.072C19.4 48.976 19.0987 48.928 18.768 48.928C18.4907 48.928 18.2427 48.968 18.024 49.048C17.8053 49.1227 17.632 49.2347 17.504 49.384C17.3813 49.528 17.32 49.7067 17.32 49.92C17.32 50.1547 17.3947 50.3413 17.544 50.48C17.6933 50.6133 17.9467 50.7173 18.304 50.792L19.216 50.968C19.76 51.0693 20.1627 51.24 20.424 51.48C20.6853 51.72 20.816 52.032 20.816 52.416C20.816 52.736 20.728 53.0213 20.552 53.272C20.3813 53.5227 20.1387 53.72 19.824 53.864C19.5147 54.0027 19.1467 54.072 18.72 54.072ZM21.882 49.096V48.304H22.746V49.096H21.882ZM21.962 54V50.048H22.674V54H21.962ZM23.8628 54V53.544L26.3668 50.416L26.4068 50.64H23.9188V50.048H27.0708V50.504L24.5428 53.656L24.5028 53.408H27.1588V54H23.8628ZM30.0691 54.072C29.6265 54.072 29.2425 53.992 28.9171 53.832C28.5971 53.6667 28.3518 53.432 28.1811 53.128C28.0105 52.8187 27.9251 52.4507 27.9251 52.024C27.9251 51.624 28.0051 51.272 28.1651 50.968C28.3251 50.6587 28.5518 50.416 28.8451 50.24C29.1385 50.064 29.4878 49.976 29.8931 49.976C30.2771 49.976 30.6025 50.0587 30.8691 50.224C31.1411 50.3893 31.3465 50.6213 31.4851 50.92C31.6291 51.2187 31.7011 51.5733 31.7011 51.984V52.216H28.4611V51.72H31.2371L31.0851 51.88C31.0851 51.4427 30.9811 51.1067 30.7731 50.872C30.5705 50.6373 30.2771 50.52 29.8931 50.52C29.6425 50.52 29.4185 50.5787 29.2211 50.696C29.0291 50.808 28.8798 50.968 28.7731 51.176C28.6665 51.384 28.6131 51.6373 28.6131 51.936V52.016C28.6131 52.336 28.6718 52.6053 28.7891 52.824C28.9065 53.0427 29.0745 53.208 29.2931 53.32C29.5118 53.432 29.7731 53.488 30.0771 53.488C30.2958 53.488 30.5171 53.4587 30.7411 53.4C30.9705 53.336 31.1838 53.224 31.3811 53.064L31.6211 53.576C31.4185 53.7467 31.1758 53.872 30.8931 53.952C30.6158 54.032 30.3411 54.072 30.0691 54.072Z" fill="#CE3439"/>
<path d="M58.464 54.072C58.2187 54.072 57.9813 54.0453 57.752 53.992C57.528 53.9387 57.3173 53.8613 57.12 53.76C56.9227 53.6533 56.7467 53.5253 56.592 53.376L56.872 52.816C57.1173 53.04 57.368 53.2027 57.624 53.304C57.8853 53.4 58.1653 53.448 58.464 53.448C58.8587 53.448 59.1653 53.3467 59.384 53.144C59.608 52.936 59.72 52.6453 59.72 52.272C59.72 51.904 59.616 51.6107 59.408 51.392C59.2 51.1733 58.912 51.064 58.544 51.064C58.2987 51.064 58.0747 51.1147 57.872 51.216C57.6747 51.312 57.4907 51.4747 57.32 51.704H56.76V48.36H60.136V48.976H57.408V51.096H57.376C57.504 50.904 57.68 50.7493 57.904 50.632C58.128 50.5093 58.3787 50.448 58.656 50.448C59.0187 50.448 59.3307 50.5253 59.592 50.68C59.8533 50.8293 60.0533 51.0373 60.192 51.304C60.336 51.5707 60.408 51.8827 60.408 52.24C60.408 52.6187 60.328 52.9467 60.168 53.224C60.008 53.496 59.784 53.7067 59.496 53.856C59.208 54 58.864 54.072 58.464 54.072ZM63.1969 54.072C62.5675 54.072 62.0715 53.936 61.7089 53.664C61.3462 53.3867 61.1649 53.0027 61.1649 52.512C61.1649 52.2613 61.2129 52.04 61.3089 51.848C61.4102 51.6507 61.5489 51.4907 61.7249 51.368C61.9062 51.24 62.1142 51.1547 62.3489 51.112V51.12C62.1462 51.072 61.9649 50.984 61.8049 50.856C61.6502 50.728 61.5275 50.5733 61.4369 50.392C61.3462 50.2107 61.3009 50.0107 61.3009 49.792C61.3009 49.3227 61.4715 48.9547 61.8129 48.688C62.1595 48.4213 62.6209 48.288 63.1969 48.288C63.7729 48.288 64.2315 48.4213 64.5729 48.688C64.9195 48.9547 65.0929 49.3227 65.0929 49.792C65.0929 50.0053 65.0475 50.2053 64.9569 50.392C64.8662 50.5733 64.7409 50.728 64.5809 50.856C64.4262 50.984 64.2449 51.072 64.0369 51.12V51.112C64.2662 51.1493 64.4689 51.232 64.6449 51.36C64.8262 51.488 64.9675 51.6507 65.0689 51.848C65.1755 52.04 65.2289 52.2613 65.2289 52.512C65.2289 53.0027 65.0475 53.3867 64.6849 53.664C64.3275 53.936 63.8315 54.072 63.1969 54.072ZM63.1969 53.472C63.6395 53.472 63.9755 53.3867 64.2049 53.216C64.4395 53.0453 64.5569 52.7947 64.5569 52.464C64.5569 52.1333 64.4395 51.88 64.2049 51.704C63.9755 51.528 63.6395 51.44 63.1969 51.44C62.7542 51.44 62.4155 51.528 62.1809 51.704C61.9515 51.88 61.8369 52.1333 61.8369 52.464C61.8369 52.7947 61.9515 53.0453 62.1809 53.216C62.4155 53.3867 62.7542 53.472 63.1969 53.472ZM63.1969 50.84C63.5809 50.84 63.8822 50.7547 64.1009 50.584C64.3195 50.408 64.4289 50.1653 64.4289 49.856C64.4289 49.552 64.3195 49.3147 64.1009 49.144C63.8822 48.968 63.5809 48.88 63.1969 48.88C62.8182 48.88 62.5195 48.968 62.3009 49.144C62.0822 49.3147 61.9729 49.552 61.9729 49.856C61.9729 50.1653 62.0822 50.408 62.3009 50.584C62.5195 50.7547 62.8182 50.84 63.1969 50.84ZM68.6418 54V52.832H66.0098V52.296L68.6098 48.36H69.3218V52.232H70.1058V52.832H69.3218V54H68.6418ZM68.6658 52.232V49.24H68.6978L66.6338 52.368L66.5778 52.232H68.6658ZM72.817 54L74.905 50.976V51.24L72.929 48.36H73.753L75.353 50.712H75.313L76.913 48.36H77.737L75.745 51.24V50.976L77.841 54H77.009L75.297 51.496H75.353L73.641 54H72.817ZM83.3136 54V52.832H80.6816V52.296L83.2816 48.36H83.9936V52.232H84.7776V52.832H83.9936V54H83.3136ZM83.3376 52.232V49.24H83.3696L81.3056 52.368L81.2496 52.232H83.3376ZM87.4625 54.072C86.8332 54.072 86.3372 53.936 85.9745 53.664C85.6118 53.3867 85.4305 53.0027 85.4305 52.512C85.4305 52.2613 85.4785 52.04 85.5745 51.848C85.6758 51.6507 85.8145 51.4907 85.9905 51.368C86.1718 51.24 86.3798 51.1547 86.6145 51.112V51.12C86.4118 51.072 86.2305 50.984 86.0705 50.856C85.9158 50.728 85.7932 50.5733 85.7025 50.392C85.6118 50.2107 85.5665 50.0107 85.5665 49.792C85.5665 49.3227 85.7372 48.9547 86.0785 48.688C86.4252 48.4213 86.8865 48.288 87.4625 48.288C88.0385 48.288 88.4972 48.4213 88.8385 48.688C89.1852 48.9547 89.3585 49.3227 89.3585 49.792C89.3585 50.0053 89.3132 50.2053 89.2225 50.392C89.1318 50.5733 89.0065 50.728 88.8465 50.856C88.6918 50.984 88.5105 51.072 88.3025 51.12V51.112C88.5318 51.1493 88.7345 51.232 88.9105 51.36C89.0918 51.488 89.2332 51.6507 89.3345 51.848C89.4412 52.04 89.4945 52.2613 89.4945 52.512C89.4945 53.0027 89.3132 53.3867 88.9505 53.664C88.5932 53.936 88.0972 54.072 87.4625 54.072ZM87.4625 53.472C87.9052 53.472 88.2412 53.3867 88.4705 53.216C88.7052 53.0453 88.8225 52.7947 88.8225 52.464C88.8225 52.1333 88.7052 51.88 88.4705 51.704C88.2412 51.528 87.9052 51.44 87.4625 51.44C87.0198 51.44 86.6812 51.528 86.4465 51.704C86.2172 51.88 86.1025 52.1333 86.1025 52.464C86.1025 52.7947 86.2172 53.0453 86.4465 53.216C86.6812 53.3867 87.0198 53.472 87.4625 53.472ZM87.4625 50.84C87.8465 50.84 88.1478 50.7547 88.3665 50.584C88.5852 50.408 88.6945 50.1653 88.6945 49.856C88.6945 49.552 88.5852 49.3147 88.3665 49.144C88.1478 48.968 87.8465 48.88 87.4625 48.88C87.0838 48.88 86.7852 48.968 86.5665 49.144C86.3478 49.3147 86.2385 49.552 86.2385 49.856C86.2385 50.1653 86.3478 50.408 86.5665 50.584C86.7852 50.7547 87.0838 50.84 87.4625 50.84ZM90.5154 54V53.472L92.4994 51.392C92.6914 51.1893 92.8407 51.0053 92.9474 50.84C93.054 50.6747 93.1314 50.5147 93.1794 50.36C93.2274 50.2053 93.2514 50.048 93.2514 49.888C93.2514 49.5733 93.15 49.3333 92.9474 49.168C92.75 48.9973 92.4754 48.912 92.1234 48.912C91.8567 48.912 91.5927 48.9653 91.3314 49.072C91.0754 49.1733 90.83 49.336 90.5954 49.56L90.3234 49C90.558 48.776 90.838 48.6027 91.1634 48.48C91.4887 48.352 91.8247 48.288 92.1714 48.288C92.5394 48.288 92.8567 48.352 93.1234 48.48C93.39 48.6027 93.5927 48.7813 93.7314 49.016C93.8754 49.2453 93.9474 49.5227 93.9474 49.848C93.9474 50.0133 93.9287 50.176 93.8914 50.336C93.854 50.4907 93.7954 50.6453 93.7154 50.8C93.6407 50.9547 93.542 51.1147 93.4194 51.28C93.2967 51.4453 93.1474 51.6187 92.9714 51.8L91.4194 53.416V53.384H94.1794V54H90.5154ZM97.0826 54L99.1706 50.976V51.24L97.1946 48.36H98.0186L99.6186 50.712H99.5786L101.179 48.36H102.003L100.011 51.24V50.976L102.107 54H101.275L99.5626 51.496H99.6186L97.9066 54H97.0826ZM105.427 54L108.187 48.648L108.219 48.992H105.043V48.36H108.811V48.896L106.203 54H105.427ZM109.984 54V53.472L111.968 51.392C112.16 51.1893 112.309 51.0053 112.416 50.84C112.523 50.6747 112.6 50.5147 112.648 50.36C112.696 50.2053 112.72 50.048 112.72 49.888C112.72 49.5733 112.619 49.3333 112.416 49.168C112.219 48.9973 111.944 48.912 111.592 48.912C111.325 48.912 111.061 48.9653 110.8 49.072C110.544 49.1733 110.299 49.336 110.064 49.56L109.792 49C110.027 48.776 110.307 48.6027 110.632 48.48C110.957 48.352 111.293 48.288 111.64 48.288C112.008 48.288 112.325 48.352 112.592 48.48C112.859 48.6027 113.061 48.7813 113.2 49.016C113.344 49.2453 113.416 49.5227 113.416 49.848C113.416 50.0133 113.397 50.176 113.36 50.336C113.323 50.4907 113.264 50.6453 113.184 50.8C113.109 50.9547 113.011 51.1147 112.888 51.28C112.765 51.4453 112.616 51.6187 112.44 51.8L110.888 53.416V53.384H113.648V54H109.984ZM116.445 54.072C116.21 54.072 115.978 54.048 115.749 54C115.52 53.952 115.301 53.8773 115.093 53.776C114.89 53.6747 114.704 53.5493 114.533 53.4L114.805 52.84C115.061 53.0587 115.328 53.216 115.605 53.312C115.882 53.4027 116.162 53.448 116.445 53.448C116.68 53.448 116.89 53.4133 117.077 53.344C117.269 53.2693 117.418 53.16 117.525 53.016C117.637 52.8667 117.693 52.6747 117.693 52.44C117.693 52.1147 117.584 51.8693 117.365 51.704C117.146 51.5333 116.829 51.448 116.413 51.448H115.565V50.832H116.309C116.549 50.832 116.762 50.7947 116.949 50.72C117.141 50.64 117.29 50.5227 117.397 50.368C117.504 50.2133 117.557 50.0213 117.557 49.792C117.557 49.4987 117.456 49.28 117.253 49.136C117.05 48.9867 116.789 48.912 116.469 48.912C116.186 48.912 115.909 48.96 115.637 49.056C115.37 49.152 115.125 49.3173 114.901 49.552L114.637 49C114.861 48.76 115.138 48.5813 115.469 48.464C115.8 48.3467 116.144 48.288 116.501 48.288C116.858 48.288 117.165 48.3467 117.421 48.464C117.682 48.576 117.885 48.7413 118.029 48.96C118.173 49.1733 118.245 49.432 118.245 49.736C118.245 50.056 118.154 50.3387 117.973 50.584C117.792 50.8293 117.546 51.0027 117.237 51.104V51.096C117.461 51.1387 117.658 51.2213 117.829 51.344C118 51.4613 118.136 51.616 118.237 51.808C118.338 51.9947 118.389 52.216 118.389 52.472C118.389 52.808 118.306 53.096 118.141 53.336C117.981 53.576 117.754 53.76 117.461 53.888C117.173 54.0107 116.834 54.072 116.445 54.072Z" fill="black"/>
<path d="M18.168 67L16.36 61.36H17.112L18.584 66.144H18.512L20.152 61.36H20.736L22.36 66.144H22.304L23.792 61.36H24.512L22.696 67H22.016L20.424 62.344H20.456L18.832 67H18.168ZM27.0223 67.072C26.5796 67.072 26.1956 66.992 25.8703 66.832C25.5503 66.6667 25.3049 66.432 25.1343 66.128C24.9636 65.8187 24.8783 65.4507 24.8783 65.024C24.8783 64.624 24.9583 64.272 25.1183 63.968C25.2783 63.6587 25.5049 63.416 25.7983 63.24C26.0916 63.064 26.4409 62.976 26.8463 62.976C27.2303 62.976 27.5556 63.0587 27.8223 63.224C28.0943 63.3893 28.2996 63.6213 28.4383 63.92C28.5823 64.2187 28.6543 64.5733 28.6543 64.984V65.216H25.4143V64.72H28.1903L28.0383 64.88C28.0383 64.4427 27.9343 64.1067 27.7263 63.872C27.5236 63.6373 27.2303 63.52 26.8463 63.52C26.5956 63.52 26.3716 63.5787 26.1743 63.696C25.9823 63.808 25.8329 63.968 25.7263 64.176C25.6196 64.384 25.5663 64.6373 25.5663 64.936V65.016C25.5663 65.336 25.6249 65.6053 25.7423 65.824C25.8596 66.0427 26.0276 66.208 26.2463 66.32C26.4649 66.432 26.7263 66.488 27.0303 66.488C27.2489 66.488 27.4703 66.4587 27.6943 66.4C27.9236 66.336 28.1369 66.224 28.3343 66.064L28.5743 66.576C28.3716 66.7467 28.1289 66.872 27.8463 66.952C27.5689 67.032 27.2943 67.072 27.0223 67.072ZM29.7492 62.096V61.304H30.6132V62.096H29.7492ZM29.8292 67V63.048H30.5412V67H29.8292ZM33.674 68.512C33.3593 68.512 33.0473 68.464 32.738 68.368C32.4287 68.2773 32.1647 68.152 31.946 67.992L32.17 67.44C32.3193 67.536 32.4767 67.6187 32.642 67.688C32.8073 67.7627 32.9753 67.816 33.146 67.848C33.322 67.8853 33.4953 67.904 33.666 67.904C34.0767 67.904 34.3967 67.8 34.626 67.592C34.8607 67.384 34.978 67.088 34.978 66.704V65.976H34.962C34.866 66.248 34.6927 66.4693 34.442 66.64C34.1913 66.8053 33.9007 66.888 33.57 66.888C33.1967 66.888 32.8713 66.808 32.594 66.648C32.3167 66.4827 32.1007 66.2533 31.946 65.96C31.7967 65.6667 31.722 65.3227 31.722 64.928C31.722 64.5387 31.7967 64.1973 31.946 63.904C32.1007 63.6107 32.3167 63.384 32.594 63.224C32.8713 63.0587 33.1967 62.976 33.57 62.976C33.9007 62.976 34.1913 63.0613 34.442 63.232C34.698 63.4027 34.874 63.6293 34.97 63.912H34.978V63.048H35.642V66.64C35.642 67.024 35.562 67.3547 35.402 67.632C35.2473 67.9147 35.0233 68.1307 34.73 68.28C34.4367 68.4347 34.0847 68.512 33.674 68.512ZM33.69 66.304C34.0793 66.304 34.386 66.1787 34.61 65.928C34.8393 65.6773 34.954 65.344 34.954 64.928C34.954 64.512 34.8393 64.1813 34.61 63.936C34.386 63.6853 34.0793 63.56 33.69 63.56C33.306 63.56 32.9993 63.6853 32.77 63.936C32.546 64.1813 32.434 64.512 32.434 64.928C32.434 65.344 32.546 65.6773 32.77 65.928C32.9993 66.1787 33.306 66.304 33.69 66.304ZM37.0636 67V61.36H37.7516V63.888C37.8689 63.6053 38.0529 63.384 38.3036 63.224C38.5596 63.0587 38.8476 62.976 39.1676 62.976C39.4929 62.976 39.7649 63.0347 39.9836 63.152C40.2022 63.264 40.3649 63.44 40.4716 63.68C40.5836 63.9147 40.6396 64.208 40.6396 64.56V67H39.9276V64.6C39.9276 64.3867 39.8956 64.2053 39.8316 64.056C39.7729 63.9067 39.6769 63.792 39.5436 63.712C39.4102 63.6267 39.2316 63.584 39.0076 63.584C38.7729 63.584 38.5622 63.6373 38.3756 63.744C38.1889 63.8507 38.0422 63.9947 37.9356 64.176C37.8289 64.3573 37.7756 64.56 37.7756 64.784V67H37.0636ZM43.7119 67.072C43.2373 67.072 42.8773 66.9467 42.6319 66.696C42.3919 66.4453 42.2719 66.088 42.2719 65.624V63.632H41.4719V63.048H42.2959V61.872H42.9839V63.048H44.3999V63.632H42.9839V65.56C42.9839 65.864 43.0506 66.0907 43.1839 66.24C43.3226 66.384 43.5333 66.456 43.8159 66.456C43.9279 66.456 44.0346 66.4453 44.1359 66.424C44.2426 66.4027 44.3439 66.3707 44.4399 66.328L44.5519 66.888C44.4453 66.9467 44.3146 66.992 44.1599 67.024C44.0106 67.056 43.8613 67.072 43.7119 67.072Z" fill="#CE3439"/>
<path d="M57.8357 67V66.472L59.8197 64.392C60.0117 64.1893 60.161 64.0053 60.2677 63.84C60.3744 63.6747 60.4517 63.5147 60.4997 63.36C60.5477 63.2053 60.5717 63.048 60.5717 62.888C60.5717 62.5733 60.4704 62.3333 60.2677 62.168C60.0704 61.9973 59.7957 61.912 59.4437 61.912C59.177 61.912 58.913 61.9653 58.6517 62.072C58.3957 62.1733 58.1504 62.336 57.9157 62.56L57.6437 62C57.8784 61.776 58.1584 61.6027 58.4837 61.48C58.809 61.352 59.145 61.288 59.4917 61.288C59.8597 61.288 60.177 61.352 60.4437 61.48C60.7104 61.6027 60.913 61.7813 61.0517 62.016C61.1957 62.2453 61.2677 62.5227 61.2677 62.848C61.2677 63.0133 61.249 63.176 61.2117 63.336C61.1744 63.4907 61.1157 63.6453 61.0357 63.8C60.961 63.9547 60.8624 64.1147 60.7397 64.28C60.617 64.4453 60.4677 64.6187 60.2917 64.8L58.7397 66.416V66.384H61.4997V67H57.8357ZM64.3766 67.072C63.9446 67.072 63.5792 66.9627 63.2806 66.744C62.9819 66.52 62.7552 66.1947 62.6006 65.768C62.4512 65.336 62.3766 64.8053 62.3766 64.176C62.3766 63.5467 62.4512 63.0187 62.6006 62.592C62.7552 62.1653 62.9819 61.8427 63.2806 61.624C63.5792 61.4 63.9446 61.288 64.3766 61.288C64.8192 61.288 65.1872 61.3973 65.4806 61.616C65.7739 61.8347 65.9952 62.1573 66.1446 62.584C66.2992 63.0107 66.3766 63.5387 66.3766 64.168C66.3766 64.7973 66.2992 65.328 66.1446 65.76C65.9952 66.192 65.7712 66.52 65.4726 66.744C65.1739 66.9627 64.8086 67.072 64.3766 67.072ZM64.3766 66.448C64.8139 66.448 65.1392 66.264 65.3526 65.896C65.5659 65.528 65.6726 64.952 65.6726 64.168C65.6726 63.3893 65.5659 62.8187 65.3526 62.456C65.1446 62.0933 64.8219 61.912 64.3846 61.912C63.9419 61.912 63.6139 62.096 63.4006 62.464C63.1872 62.8267 63.0806 63.3973 63.0806 64.176C63.0806 64.9493 63.1872 65.5227 63.4006 65.896C63.6139 66.264 63.9392 66.448 64.3766 66.448ZM68.6614 68.536C68.2828 67.96 68.0028 67.3733 67.8214 66.776C67.6454 66.1733 67.5574 65.5467 67.5574 64.896C67.5574 64.2453 67.6454 63.6213 67.8214 63.024C68.0028 62.4267 68.2828 61.8373 68.6614 61.256L69.1734 61.44C68.9708 61.8187 68.8028 62.2 68.6694 62.584C68.5361 62.968 68.4348 63.352 68.3654 63.736C68.3014 64.1147 68.2694 64.5013 68.2694 64.896C68.2694 65.2853 68.3014 65.672 68.3654 66.056C68.4348 66.44 68.5361 66.8213 68.6694 67.2C68.8028 67.584 68.9708 67.968 69.1734 68.352L68.6614 68.536ZM70.2929 67V61.36H71.0049V63.904H71.0369L73.7169 61.36H74.6209L71.5089 64.312L71.5569 63.92L74.8129 67H73.8609L71.0369 64.352H71.0049V67H70.2929ZM77.1428 68.512C76.8281 68.512 76.5161 68.464 76.2068 68.368C75.8974 68.2773 75.6334 68.152 75.4148 67.992L75.6388 67.44C75.7881 67.536 75.9454 67.6187 76.1108 67.688C76.2761 67.7627 76.4441 67.816 76.6148 67.848C76.7908 67.8853 76.9641 67.904 77.1348 67.904C77.5454 67.904 77.8654 67.8 78.0948 67.592C78.3294 67.384 78.4468 67.088 78.4468 66.704V65.976H78.4308C78.3348 66.248 78.1614 66.4693 77.9108 66.64C77.6601 66.8053 77.3694 66.888 77.0388 66.888C76.6654 66.888 76.3401 66.808 76.0628 66.648C75.7854 66.4827 75.5694 66.2533 75.4148 65.96C75.2654 65.6667 75.1908 65.3227 75.1908 64.928C75.1908 64.5387 75.2654 64.1973 75.4148 63.904C75.5694 63.6107 75.7854 63.384 76.0628 63.224C76.3401 63.0587 76.6654 62.976 77.0388 62.976C77.3694 62.976 77.6601 63.0613 77.9108 63.232C78.1668 63.4027 78.3428 63.6293 78.4388 63.912H78.4468V63.048H79.1108V66.64C79.1108 67.024 79.0308 67.3547 78.8708 67.632C78.7161 67.9147 78.4921 68.1307 78.1988 68.28C77.9054 68.4347 77.5534 68.512 77.1428 68.512ZM77.1588 66.304C77.5481 66.304 77.8548 66.1787 78.0788 65.928C78.3081 65.6773 78.4228 65.344 78.4228 64.928C78.4228 64.512 78.3081 64.1813 78.0788 63.936C77.8548 63.6853 77.5481 63.56 77.1588 63.56C76.7748 63.56 76.4681 63.6853 76.2388 63.936C76.0148 64.1813 75.9028 64.512 75.9028 64.928C75.9028 65.344 76.0148 65.6773 76.2388 65.928C76.4681 66.1787 76.7748 66.304 77.1588 66.304ZM81.9883 67.072C81.7696 67.072 81.5536 67.0507 81.3403 67.008C81.1323 66.9707 80.9376 66.9173 80.7563 66.848C80.5803 66.7733 80.4283 66.6827 80.3003 66.576L80.5323 66.072C80.6656 66.1733 80.8123 66.256 80.9723 66.32C81.1376 66.384 81.3056 66.432 81.4763 66.464C81.6523 66.4907 81.8203 66.504 81.9803 66.504C82.311 66.504 82.5643 66.4533 82.7403 66.352C82.9216 66.2507 83.0123 66.1093 83.0123 65.928C83.0123 65.7733 82.959 65.656 82.8523 65.576C82.751 65.4907 82.5803 65.4267 82.3403 65.384L81.5163 65.24C81.1483 65.1707 80.871 65.0453 80.6843 64.864C80.503 64.6827 80.4123 64.4453 80.4123 64.152C80.4123 63.9173 80.4763 63.712 80.6043 63.536C80.7376 63.36 80.927 63.224 81.1723 63.128C81.4176 63.0267 81.711 62.976 82.0523 62.976C82.239 62.976 82.4283 62.9947 82.6203 63.032C82.8176 63.0693 82.999 63.1253 83.1643 63.2C83.335 63.2693 83.4736 63.3573 83.5803 63.464L83.3403 63.968C83.2336 63.8667 83.1056 63.7867 82.9563 63.728C82.8123 63.664 82.6603 63.6187 82.5003 63.592C82.3456 63.56 82.1936 63.544 82.0443 63.544C81.735 63.544 81.495 63.5973 81.3243 63.704C81.1536 63.8053 81.0683 63.9493 81.0683 64.136C81.0683 64.2853 81.1163 64.4027 81.2123 64.488C81.3136 64.5733 81.4763 64.6373 81.7003 64.68L82.5003 64.824C82.895 64.8987 83.1883 65.024 83.3803 65.2C83.5723 65.3707 83.6683 65.608 83.6683 65.912C83.6683 66.1467 83.599 66.352 83.4603 66.528C83.3216 66.6987 83.127 66.832 82.8763 66.928C82.6256 67.024 82.3296 67.072 81.9883 67.072ZM84.9408 68.536L84.4208 68.352C84.6288 67.9627 84.7995 67.576 84.9328 67.192C85.0661 66.8133 85.1648 66.4347 85.2288 66.056C85.2928 65.672 85.3248 65.2853 85.3248 64.896C85.3248 64.5067 85.2928 64.1227 85.2288 63.744C85.1648 63.36 85.0661 62.976 84.9328 62.592C84.7995 62.208 84.6288 61.824 84.4208 61.44L84.9408 61.256C85.3141 61.832 85.5888 62.4213 85.7648 63.024C85.9461 63.6213 86.0368 64.2453 86.0368 64.896C86.0368 65.5413 85.9461 66.1653 85.7648 66.768C85.5888 67.3653 85.3141 67.9547 84.9408 68.536Z" fill="black"/>
<defs>
<filter id="filter0_d_271_201" x="0.0999999" y="24" width="135.8" height="57.9" filterUnits="userSpaceOnUse" color-interpolation-filters="sRGB">
<feFlood flood-opacity="0" result="BackgroundImageFix"/>
<feColorMatrix in="SourceAlpha" type="matrix" values="0 0 0 0 0 0 0 0 0 0 0 0 0 0 0 0 0 0 127 0" result="hardAlpha"/>
<feOffset dy="4"/>
<feGaussianBlur stdDeviation="1.95"/>
<feComposite in2="hardAlpha" operator="out"/>
<feColorMatrix type="matrix" values="0 0 0 0 0 0 0 0 0 0 0 0 0 0 0 0 0 0 0.2 0"/>
<feBlend mode="normal" in2="BackgroundImageFix" result="effect1_dropShadow_271_201"/>
<feBlend mode="normal" in="SourceGraphic" in2="effect1_dropShadow_271_201" result="shape"/>
</filter>
<clipPath id="clip0_271_201">
<rect width="21.6818" height="21.6818" fill="white" transform="translate(56.1133 2.40918)"/>
</clipPath>
</defs>
</svg>
