<svg width="143" height="82" viewBox="0 0 143 82" fill="none" xmlns="http://www.w3.org/2000/svg">
<g filter="url(#filter0_d_271_299)">
<rect x="4" y="24" width="135" height="50" rx="2" fill="#EBDBBA"/>
<rect x="4.25" y="24.25" width="134.5" height="49.5" rx="1.75" stroke="white" stroke-width="0.5"/>
</g>
<rect x="51.8438" width="30.1136" height="30.1433" rx="3" fill="#CB3335"/>
<g clip-path="url(#clip0_271_299)">
<path fill-rule="evenodd" clip-rule="evenodd" d="M66.3835 2.41904C66.4652 2.41395 66.5508 2.42752 66.5741 2.44871C66.5974 2.46991 67.236 2.80605 67.9927 3.19603C68.7499 3.58559 69.693 4.07179 70.0889 4.2761C70.4849 4.47999 72.1906 5.35745 73.879 6.226C75.5678 7.09413 76.9818 7.83594 77.022 7.87408C77.0898 7.93852 77.0948 8.29416 77.0974 13.263C77.0995 17.5184 77.0889 18.5981 77.0457 18.66C77.0161 18.7024 74.6192 19.9473 71.7193 21.4263C68.8193 22.9057 66.4089 24.1159 66.3623 24.1159C66.3158 24.1159 66.068 24.0048 65.8118 23.8696C65.5556 23.7339 63.1562 22.4987 60.4799 21.1245C56.4696 19.0648 55.5998 18.6028 55.5341 18.4981C55.4727 18.4001 55.4583 18.3128 55.471 18.1166C55.4804 17.9767 55.521 15.6211 55.5612 12.8815C55.6019 10.1419 55.6523 7.85289 55.6735 7.79482C55.7056 7.70622 56.5733 7.25817 60.9736 5.0586C64.4897 3.30073 66.2844 2.4254 66.3835 2.41904ZM56.7194 7.93979C56.7245 7.95335 57.3809 8.31154 58.1787 8.73585C58.9765 9.16017 59.677 9.53446 59.735 9.56795C59.8366 9.62687 60.0285 9.53192 64.6155 7.15432C67.2415 5.79278 69.3758 4.66693 69.3584 4.65167C69.3411 4.63641 68.6741 4.2884 67.8763 3.87807C67.0784 3.46774 66.4021 3.13329 66.3729 3.13457C66.3437 3.13584 64.1577 4.2121 61.5153 5.52616C58.8728 6.84022 56.7148 7.92622 56.7194 7.93979ZM63.6195 8.40946C61.9497 9.27208 60.5828 9.98718 60.5828 9.99905C60.5824 10.0105 60.9868 10.2377 61.4818 10.5035L62.3817 10.9863C62.8412 10.751 64.9827 9.63705 67.4367 8.35902C69.8907 7.08141 71.9009 6.0166 71.9043 5.99328C71.9073 5.96997 71.5156 5.74573 71.0332 5.49521C70.5513 5.24469 70.1512 5.03995 70.144 5.0408C70.1372 5.04165 69.3491 5.44689 68.3933 5.94157C67.4375 6.43625 65.2893 7.54684 63.6195 8.40946ZM65.8449 9.92275C64.3491 10.6989 63.1245 11.3487 63.124 11.3661C63.1232 11.3835 63.8376 11.7794 64.7108 12.2457L66.2988 13.0934C73.7325 9.28479 75.9231 8.1547 75.9633 8.1246C76.0264 8.07755 75.8227 7.96098 74.385 7.22257C73.4767 6.75629 72.7199 6.37224 72.703 6.36927C72.6861 6.36631 71.7481 6.847 70.6182 7.43748C69.4884 8.02753 67.3406 9.14618 65.8449 9.92275ZM56.224 13.3054C56.1706 16.7622 56.1626 18.1297 56.1956 18.164C56.2206 18.1899 56.7084 18.4502 57.2788 18.7426C57.8497 19.0347 60.0505 20.1635 62.17 21.2508C64.2894 22.3377 66.0278 23.2219 66.0333 23.2151C66.0384 23.2087 66.0248 21.0571 66.0028 18.4345C65.9808 15.8114 65.9575 13.6627 65.9507 13.6589C65.9444 13.6551 65.2147 13.2617 64.3297 12.7853L62.7205 11.9188C62.679 12.1227 62.6553 12.6874 62.6404 13.3054C62.6171 14.3049 62.6057 14.4406 62.5363 14.5347C62.484 14.6053 62.4099 14.6445 62.3139 14.6521C62.1979 14.6618 61.9324 14.5385 60.944 14.0163C60.2698 13.6602 59.6744 13.3355 59.6206 13.2948L59.5232 13.2206L59.5021 10.1923C57.6312 9.18603 56.9117 8.79944 56.6957 8.68414C56.4797 8.56842 56.3019 8.47855 56.3006 8.48406C56.2998 8.48957 56.265 10.659 56.224 13.3054ZM66.666 13.6526C66.6469 13.6598 66.6469 15.8165 66.666 18.4451C66.6855 21.0736 66.7109 23.2253 66.7223 23.2257C66.7337 23.2265 68.9252 22.1134 71.5922 20.7519L76.441 18.2768C76.4575 10.8104 76.4482 8.64387 76.4304 8.64557C76.413 8.64769 74.2169 9.77184 71.5499 11.1444C68.8829 12.517 66.6855 13.6454 66.666 13.6526ZM60.1593 12.8603C61.4746 13.55 61.879 13.756 61.9074 13.7623C61.9447 13.7708 61.9667 13.5826 61.99 13.0629C62.0078 12.6717 62.0217 12.1702 62.0217 11.9489V11.5462C60.6433 10.807 60.2241 10.5925 60.2008 10.5925C60.1737 10.5925 60.1585 10.9986 60.1589 11.7264L60.1593 12.8603Z" fill="white"/>
</g>
<path d="M14.832 41V35.36H17.152C17.5573 35.36 17.9013 35.4267 18.184 35.56C18.4667 35.6933 18.6827 35.888 18.832 36.144C18.9867 36.3947 19.064 36.6987 19.064 37.056C19.064 37.4133 18.9867 37.72 18.832 37.976C18.6827 38.232 18.464 38.4293 18.176 38.568C17.8933 38.7067 17.552 38.776 17.152 38.776H15.544V41H14.832ZM15.544 38.168H17.048C17.4747 38.168 17.7973 38.0773 18.016 37.896C18.2347 37.7093 18.344 37.432 18.344 37.064C18.344 36.6907 18.2347 36.416 18.016 36.24C17.7973 36.0587 17.4747 35.968 17.048 35.968H15.544V38.168ZM19.7242 36.096V35.304H20.5882V36.096H19.7242ZM19.8042 41V37.048H20.5162V41H19.8042ZM23.441 41.072C22.9983 41.072 22.6143 40.992 22.289 40.832C21.969 40.6667 21.7237 40.432 21.553 40.128C21.3823 39.8187 21.297 39.4507 21.297 39.024C21.297 38.624 21.377 38.272 21.537 37.968C21.697 37.6587 21.9237 37.416 22.217 37.24C22.5103 37.064 22.8597 36.976 23.265 36.976C23.649 36.976 23.9743 37.0587 24.241 37.224C24.513 37.3893 24.7183 37.6213 24.857 37.92C25.001 38.2187 25.073 38.5733 25.073 38.984V39.216H21.833V38.72H24.609L24.457 38.88C24.457 38.4427 24.353 38.1067 24.145 37.872C23.9423 37.6373 23.649 37.52 23.265 37.52C23.0143 37.52 22.7903 37.5787 22.593 37.696C22.401 37.808 22.2517 37.968 22.145 38.176C22.0383 38.384 21.985 38.6373 21.985 38.936V39.016C21.985 39.336 22.0437 39.6053 22.161 39.824C22.2783 40.0427 22.4463 40.208 22.665 40.32C22.8837 40.432 23.145 40.488 23.449 40.488C23.6677 40.488 23.889 40.4587 24.113 40.4C24.3423 40.336 24.5557 40.224 24.753 40.064L24.993 40.576C24.7903 40.7467 24.5477 40.872 24.265 40.952C23.9877 41.032 23.713 41.072 23.441 41.072ZM27.6079 41.072C27.2026 41.072 26.8506 40.9867 26.5519 40.816C26.2533 40.6453 26.0213 40.408 25.8559 40.104C25.6906 39.7947 25.6079 39.432 25.6079 39.016C25.6079 38.6 25.6906 38.24 25.8559 37.936C26.0213 37.6267 26.2533 37.3893 26.5519 37.224C26.8559 37.0587 27.2106 36.976 27.6159 36.976C27.8879 36.976 28.1466 37.0213 28.3919 37.112C28.6373 37.2027 28.8399 37.3253 28.9999 37.48L28.7519 38.008C28.5973 37.8693 28.4239 37.7653 28.2319 37.696C28.0399 37.6213 27.8533 37.584 27.6719 37.584C27.2559 37.584 26.9279 37.7093 26.6879 37.96C26.4479 38.2107 26.3279 38.5653 26.3279 39.024C26.3279 39.4773 26.4479 39.832 26.6879 40.088C26.9279 40.3387 27.2533 40.464 27.6639 40.464C27.8506 40.464 28.0373 40.4293 28.2239 40.36C28.4159 40.2853 28.5866 40.1813 28.7359 40.048L28.9839 40.576C28.8293 40.7307 28.6293 40.8533 28.3839 40.944C28.1386 41.0293 27.8799 41.072 27.6079 41.072ZM31.3363 41.072C30.8936 41.072 30.5096 40.992 30.1843 40.832C29.8643 40.6667 29.619 40.432 29.4483 40.128C29.2776 39.8187 29.1923 39.4507 29.1923 39.024C29.1923 38.624 29.2723 38.272 29.4323 37.968C29.5923 37.6587 29.819 37.416 30.1123 37.24C30.4056 37.064 30.755 36.976 31.1603 36.976C31.5443 36.976 31.8696 37.0587 32.1363 37.224C32.4083 37.3893 32.6136 37.6213 32.7523 37.92C32.8963 38.2187 32.9683 38.5733 32.9683 38.984V39.216H29.7283V38.72H32.5043L32.3523 38.88C32.3523 38.4427 32.2483 38.1067 32.0403 37.872C31.8376 37.6373 31.5443 37.52 31.1603 37.52C30.9096 37.52 30.6856 37.5787 30.4883 37.696C30.2963 37.808 30.147 37.968 30.0403 38.176C29.9336 38.384 29.8803 38.6373 29.8803 38.936V39.016C29.8803 39.336 29.939 39.6053 30.0563 39.824C30.1736 40.0427 30.3416 40.208 30.5603 40.32C30.779 40.432 31.0403 40.488 31.3443 40.488C31.563 40.488 31.7843 40.4587 32.0083 40.4C32.2376 40.336 32.451 40.224 32.6483 40.064L32.8883 40.576C32.6856 40.7467 32.443 40.872 32.1603 40.952C31.883 41.032 31.6083 41.072 31.3363 41.072ZM35.1993 41.072C34.9806 41.072 34.7646 41.0507 34.5513 41.008C34.3433 40.9707 34.1486 40.9173 33.9673 40.848C33.7913 40.7733 33.6393 40.6827 33.5113 40.576L33.7433 40.072C33.8766 40.1733 34.0233 40.256 34.1833 40.32C34.3486 40.384 34.5166 40.432 34.6873 40.464C34.8633 40.4907 35.0313 40.504 35.1913 40.504C35.5219 40.504 35.7753 40.4533 35.9513 40.352C36.1326 40.2507 36.2233 40.1093 36.2233 39.928C36.2233 39.7733 36.1699 39.656 36.0633 39.576C35.9619 39.4907 35.7913 39.4267 35.5513 39.384L34.7273 39.24C34.3593 39.1707 34.0819 39.0453 33.8953 38.864C33.7139 38.6827 33.6233 38.4453 33.6233 38.152C33.6233 37.9173 33.6873 37.712 33.8153 37.536C33.9486 37.36 34.1379 37.224 34.3833 37.128C34.6286 37.0267 34.9219 36.976 35.2633 36.976C35.4499 36.976 35.6393 36.9947 35.8313 37.032C36.0286 37.0693 36.2099 37.1253 36.3753 37.2C36.5459 37.2693 36.6846 37.3573 36.7913 37.464L36.5513 37.968C36.4446 37.8667 36.3166 37.7867 36.1673 37.728C36.0233 37.664 35.8713 37.6187 35.7113 37.592C35.5566 37.56 35.4046 37.544 35.2553 37.544C34.9459 37.544 34.7059 37.5973 34.5353 37.704C34.3646 37.8053 34.2793 37.9493 34.2793 38.136C34.2793 38.2853 34.3273 38.4027 34.4233 38.488C34.5246 38.5733 34.6873 38.6373 34.9113 38.68L35.7113 38.824C36.1059 38.8987 36.3993 39.024 36.5913 39.2C36.7833 39.3707 36.8793 39.608 36.8793 39.912C36.8793 40.1467 36.8099 40.352 36.6713 40.528C36.5326 40.6987 36.3379 40.832 36.0873 40.928C35.8366 41.024 35.5406 41.072 35.1993 41.072Z" fill="#CE3439"/>
<path d="M53.0974 41V40.472L55.0814 38.392C55.2734 38.1893 55.4227 38.0053 55.5294 37.84C55.6361 37.6747 55.7134 37.5147 55.7614 37.36C55.8094 37.2053 55.8334 37.048 55.8334 36.888C55.8334 36.5733 55.7321 36.3333 55.5294 36.168C55.3321 35.9973 55.0574 35.912 54.7054 35.912C54.4387 35.912 54.1747 35.9653 53.9134 36.072C53.6574 36.1733 53.4121 36.336 53.1774 36.56L52.9054 36C53.1401 35.776 53.4201 35.6027 53.7454 35.48C54.0707 35.352 54.4067 35.288 54.7534 35.288C55.1214 35.288 55.4387 35.352 55.7054 35.48C55.9721 35.6027 56.1747 35.7813 56.3134 36.016C56.4574 36.2453 56.5294 36.5227 56.5294 36.848C56.5294 37.0133 56.5107 37.176 56.4734 37.336C56.4361 37.4907 56.3774 37.6453 56.2974 37.8C56.2227 37.9547 56.1241 38.1147 56.0014 38.28C55.8787 38.4453 55.7294 38.6187 55.5534 38.8L54.0014 40.416V40.384H56.7614V41H53.0974ZM59.7023 41.072C59.4569 41.072 59.2196 41.0453 58.9903 40.992C58.7663 40.9387 58.5556 40.8613 58.3583 40.76C58.1609 40.6533 57.9849 40.5253 57.8303 40.376L58.1103 39.816C58.3556 40.04 58.6063 40.2027 58.8623 40.304C59.1236 40.4 59.4036 40.448 59.7023 40.448C60.0969 40.448 60.4036 40.3467 60.6223 40.144C60.8463 39.936 60.9583 39.6453 60.9583 39.272C60.9583 38.904 60.8543 38.6107 60.6463 38.392C60.4383 38.1733 60.1503 38.064 59.7823 38.064C59.5369 38.064 59.3129 38.1147 59.1103 38.216C58.9129 38.312 58.7289 38.4747 58.5583 38.704H57.9983V35.36H61.3743V35.976H58.6463V38.096H58.6143C58.7423 37.904 58.9183 37.7493 59.1423 37.632C59.3663 37.5093 59.6169 37.448 59.8943 37.448C60.2569 37.448 60.5689 37.5253 60.8303 37.68C61.0916 37.8293 61.2916 38.0373 61.4303 38.304C61.5743 38.5707 61.6463 38.8827 61.6463 39.24C61.6463 39.6187 61.5663 39.9467 61.4063 40.224C61.2463 40.496 61.0223 40.7067 60.7343 40.856C60.4463 41 60.1023 41.072 59.7023 41.072ZM64.4352 41.072C64.0032 41.072 63.6378 40.9627 63.3392 40.744C63.0405 40.52 62.8138 40.1947 62.6592 39.768C62.5098 39.336 62.4352 38.8053 62.4352 38.176C62.4352 37.5467 62.5098 37.0187 62.6592 36.592C62.8138 36.1653 63.0405 35.8427 63.3392 35.624C63.6378 35.4 64.0032 35.288 64.4352 35.288C64.8778 35.288 65.2458 35.3973 65.5392 35.616C65.8325 35.8347 66.0538 36.1573 66.2032 36.584C66.3578 37.0107 66.4352 37.5387 66.4352 38.168C66.4352 38.7973 66.3578 39.328 66.2032 39.76C66.0538 40.192 65.8298 40.52 65.5312 40.744C65.2325 40.9627 64.8672 41.072 64.4352 41.072ZM64.4352 40.448C64.8725 40.448 65.1978 40.264 65.4112 39.896C65.6245 39.528 65.7312 38.952 65.7312 38.168C65.7312 37.3893 65.6245 36.8187 65.4112 36.456C65.2032 36.0933 64.8805 35.912 64.4432 35.912C64.0005 35.912 63.6725 36.096 63.4592 36.464C63.2458 36.8267 63.1392 37.3973 63.1392 38.176C63.1392 38.9493 63.2458 39.5227 63.4592 39.896C63.6725 40.264 63.9978 40.448 64.4352 40.448ZM69.232 41.072C68.8 41.072 68.4347 40.9627 68.136 40.744C67.8374 40.52 67.6107 40.1947 67.456 39.768C67.3067 39.336 67.232 38.8053 67.232 38.176C67.232 37.5467 67.3067 37.0187 67.456 36.592C67.6107 36.1653 67.8374 35.8427 68.136 35.624C68.4347 35.4 68.8 35.288 69.232 35.288C69.6747 35.288 70.0427 35.3973 70.336 35.616C70.6294 35.8347 70.8507 36.1573 71 36.584C71.1547 37.0107 71.232 37.5387 71.232 38.168C71.232 38.7973 71.1547 39.328 71 39.76C70.8507 40.192 70.6267 40.52 70.328 40.744C70.0294 40.9627 69.664 41.072 69.232 41.072ZM69.232 40.448C69.6694 40.448 69.9947 40.264 70.208 39.896C70.4214 39.528 70.528 38.952 70.528 38.168C70.528 37.3893 70.4214 36.8187 70.208 36.456C70 36.0933 69.6774 35.912 69.24 35.912C68.7974 35.912 68.4694 36.096 68.256 36.464C68.0427 36.8267 67.936 37.3973 67.936 38.176C67.936 38.9493 68.0427 39.5227 68.256 39.896C68.4694 40.264 68.7947 40.448 69.232 40.448ZM74.6953 41V35.36H75.3273L78.7833 39.952H78.7513V35.36H79.4313V41H78.7833L75.3433 36.424H75.3753V41H74.6953ZM82.6937 41.072C82.2937 41.072 81.9471 40.9867 81.6537 40.816C81.3604 40.6453 81.1337 40.408 80.9737 40.104C80.8137 39.7947 80.7337 39.432 80.7337 39.016C80.7337 38.6053 80.8137 38.248 80.9737 37.944C81.1337 37.6347 81.3604 37.3973 81.6537 37.232C81.9471 37.0613 82.2937 36.976 82.6937 36.976C83.0937 36.976 83.4377 37.0613 83.7257 37.232C84.0191 37.3973 84.2457 37.6347 84.4057 37.944C84.5657 38.248 84.6457 38.6053 84.6457 39.016C84.6457 39.432 84.5657 39.7947 84.4057 40.104C84.2511 40.408 84.0271 40.6453 83.7337 40.816C83.4404 40.9867 83.0937 41.072 82.6937 41.072ZM82.6857 40.472C83.0751 40.472 83.3817 40.3413 83.6057 40.08C83.8297 39.8187 83.9417 39.464 83.9417 39.016C83.9417 38.568 83.8297 38.216 83.6057 37.96C83.3871 37.704 83.0831 37.576 82.6937 37.576C82.3044 37.576 81.9977 37.704 81.7737 37.96C81.5497 38.216 81.4377 38.568 81.4377 39.016C81.4377 39.464 81.5497 39.8187 81.7737 40.08C82.0031 40.3413 82.3071 40.472 82.6857 40.472ZM87.2969 41.072C87.0782 41.072 86.8622 41.0507 86.6489 41.008C86.4409 40.9707 86.2462 40.9173 86.0649 40.848C85.8889 40.7733 85.7369 40.6827 85.6089 40.576L85.8409 40.072C85.9742 40.1733 86.1209 40.256 86.2809 40.32C86.4462 40.384 86.6142 40.432 86.7849 40.464C86.9609 40.4907 87.1289 40.504 87.2889 40.504C87.6196 40.504 87.8729 40.4533 88.0489 40.352C88.2302 40.2507 88.3209 40.1093 88.3209 39.928C88.3209 39.7733 88.2676 39.656 88.1609 39.576C88.0596 39.4907 87.8889 39.4267 87.6489 39.384L86.8249 39.24C86.4569 39.1707 86.1796 39.0453 85.9929 38.864C85.8116 38.6827 85.7209 38.4453 85.7209 38.152C85.7209 37.9173 85.7849 37.712 85.9129 37.536C86.0462 37.36 86.2356 37.224 86.4809 37.128C86.7262 37.0267 87.0196 36.976 87.3609 36.976C87.5476 36.976 87.7369 36.9947 87.9289 37.032C88.1262 37.0693 88.3076 37.1253 88.4729 37.2C88.6436 37.2693 88.7822 37.3573 88.8889 37.464L88.6489 37.968C88.5422 37.8667 88.4142 37.7867 88.2649 37.728C88.1209 37.664 87.9689 37.6187 87.8089 37.592C87.6542 37.56 87.5022 37.544 87.3529 37.544C87.0436 37.544 86.8036 37.5973 86.6329 37.704C86.4622 37.8053 86.3769 37.9493 86.3769 38.136C86.3769 38.2853 86.4249 38.4027 86.5209 38.488C86.6222 38.5733 86.7849 38.6373 87.0089 38.68L87.8089 38.824C88.2036 38.8987 88.4969 39.024 88.6889 39.2C88.8809 39.3707 88.9769 39.608 88.9769 39.912C88.9769 40.1467 88.9076 40.352 88.7689 40.528C88.6302 40.6987 88.4356 40.832 88.1849 40.928C87.9342 41.024 87.6382 41.072 87.2969 41.072ZM89.8814 41.504L89.3214 41.352L91.3614 34.984L91.9134 35.136L89.8814 41.504ZM94.9627 41.072C94.424 41.072 93.9547 40.9573 93.5547 40.728C93.16 40.4933 92.856 40.16 92.6427 39.728C92.4293 39.2907 92.3227 38.7733 92.3227 38.176C92.3227 37.5787 92.4293 37.064 92.6427 36.632C92.856 36.2 93.16 35.8693 93.5547 35.64C93.9493 35.4053 94.4187 35.288 94.9627 35.288C95.3573 35.288 95.7173 35.3493 96.0427 35.472C96.368 35.5893 96.648 35.7627 96.8827 35.992L96.6027 36.552C96.3573 36.3333 96.104 36.176 95.8427 36.08C95.5867 35.984 95.2987 35.936 94.9787 35.936C94.3813 35.936 93.912 36.128 93.5707 36.512C93.2347 36.8907 93.0667 37.4453 93.0667 38.176C93.0667 38.9013 93.2347 39.4587 93.5707 39.848C93.9067 40.232 94.376 40.424 94.9787 40.424C95.2987 40.424 95.5867 40.376 95.8427 40.28C96.104 40.184 96.3573 40.0267 96.6027 39.808L96.8827 40.368C96.648 40.5973 96.368 40.7733 96.0427 40.896C95.7173 41.0133 95.3573 41.072 94.9627 41.072ZM99.6143 41.072C99.1396 41.072 98.7796 40.9467 98.5343 40.696C98.2943 40.4453 98.1743 40.088 98.1743 39.624V37.632H97.3743V37.048H98.1983V35.872H98.8863V37.048H100.302V37.632H98.8863V39.56C98.8863 39.864 98.9529 40.0907 99.0863 40.24C99.2249 40.384 99.4356 40.456 99.7183 40.456C99.8303 40.456 99.9369 40.4453 100.038 40.424C100.145 40.4027 100.246 40.3707 100.342 40.328L100.454 40.888C100.348 40.9467 100.217 40.992 100.062 41.024C99.9129 41.056 99.7636 41.072 99.6143 41.072ZM101.286 41V37.048H101.95V37.904C102.078 37.6107 102.27 37.384 102.526 37.224C102.782 37.0587 103.07 36.976 103.39 36.976C103.716 36.976 103.988 37.0347 104.206 37.152C104.425 37.264 104.588 37.44 104.694 37.68C104.806 37.9147 104.862 38.208 104.862 38.56V41H104.15V38.6C104.15 38.3867 104.121 38.2053 104.062 38.056C104.004 37.9067 103.905 37.792 103.766 37.712C103.633 37.6267 103.454 37.584 103.23 37.584C102.996 37.584 102.782 37.6373 102.59 37.744C102.404 37.8507 102.257 37.9947 102.15 38.176C102.049 38.3573 101.998 38.56 101.998 38.784V41H101.286Z" fill="black"/>
<path d="M16.72 54.072C16.4107 54.072 16.1173 54.048 15.84 54C15.5627 53.952 15.3093 53.88 15.08 53.784C14.8507 53.688 14.6507 53.5707 14.48 53.432L14.744 52.84C14.9253 52.984 15.1173 53.1013 15.32 53.192C15.528 53.2773 15.7467 53.3387 15.976 53.376C16.2107 53.4133 16.4587 53.432 16.72 53.432C17.1627 53.432 17.5013 53.344 17.736 53.168C17.976 52.992 18.096 52.752 18.096 52.448C18.096 52.288 18.056 52.1547 17.976 52.048C17.9013 51.9413 17.7813 51.8533 17.616 51.784C17.456 51.7147 17.248 51.6533 16.992 51.6L16.072 51.424C15.5547 51.3227 15.1813 51.144 14.952 50.888C14.7227 50.632 14.608 50.3093 14.608 49.92C14.608 49.5893 14.6987 49.304 14.88 49.064C15.0667 48.8187 15.3227 48.6293 15.648 48.496C15.9787 48.3573 16.3547 48.288 16.776 48.288C17.0427 48.288 17.2907 48.3147 17.52 48.368C17.7547 48.416 17.968 48.4907 18.16 48.592C18.3573 48.6933 18.5333 48.816 18.688 48.96L18.424 49.544C18.1947 49.32 17.944 49.1627 17.672 49.072C17.4 48.976 17.0987 48.928 16.768 48.928C16.4907 48.928 16.2427 48.968 16.024 49.048C15.8053 49.1227 15.632 49.2347 15.504 49.384C15.3813 49.528 15.32 49.7067 15.32 49.92C15.32 50.1547 15.3947 50.3413 15.544 50.48C15.6933 50.6133 15.9467 50.7173 16.304 50.792L17.216 50.968C17.76 51.0693 18.1627 51.24 18.424 51.48C18.6853 51.72 18.816 52.032 18.816 52.416C18.816 52.736 18.728 53.0213 18.552 53.272C18.3813 53.5227 18.1387 53.72 17.824 53.864C17.5147 54.0027 17.1467 54.072 16.72 54.072ZM19.882 49.096V48.304H20.746V49.096H19.882ZM19.962 54V50.048H20.674V54H19.962ZM21.8628 54V53.544L24.3668 50.416L24.4068 50.64H21.9188V50.048H25.0708V50.504L22.5428 53.656L22.5028 53.408H25.1588V54H21.8628ZM28.0691 54.072C27.6265 54.072 27.2425 53.992 26.9171 53.832C26.5971 53.6667 26.3518 53.432 26.1811 53.128C26.0105 52.8187 25.9251 52.4507 25.9251 52.024C25.9251 51.624 26.0051 51.272 26.1651 50.968C26.3251 50.6587 26.5518 50.416 26.8451 50.24C27.1385 50.064 27.4878 49.976 27.8931 49.976C28.2771 49.976 28.6025 50.0587 28.8691 50.224C29.1411 50.3893 29.3465 50.6213 29.4851 50.92C29.6291 51.2187 29.7011 51.5733 29.7011 51.984V52.216H26.4611V51.72H29.2371L29.0851 51.88C29.0851 51.4427 28.9811 51.1067 28.7731 50.872C28.5705 50.6373 28.2771 50.52 27.8931 50.52C27.6425 50.52 27.4185 50.5787 27.2211 50.696C27.0291 50.808 26.8798 50.968 26.7731 51.176C26.6665 51.384 26.6131 51.6373 26.6131 51.936V52.016C26.6131 52.336 26.6718 52.6053 26.7891 52.824C26.9065 53.0427 27.0745 53.208 27.2931 53.32C27.5118 53.432 27.7731 53.488 28.0771 53.488C28.2958 53.488 28.5171 53.4587 28.7411 53.4C28.9705 53.336 29.1838 53.224 29.3811 53.064L29.6211 53.576C29.4185 53.7467 29.1758 53.872 28.8931 53.952C28.6158 54.032 28.3411 54.072 28.0691 54.072Z" fill="#CE3439"/>
<path d="M56.048 54.072C55.84 54.072 55.6373 54.048 55.44 54C55.248 53.952 55.064 53.88 54.888 53.784C54.7173 53.6827 54.5573 53.56 54.408 53.416L54.68 52.872C54.8987 53.0907 55.12 53.2427 55.344 53.328C55.568 53.408 55.8053 53.448 56.056 53.448C56.3173 53.448 56.5467 53.4 56.744 53.304C56.9467 53.2027 57.1173 53.056 57.256 52.864C57.3947 52.6667 57.4987 52.424 57.568 52.136C57.6373 51.848 57.672 51.5173 57.672 51.144V50.68H57.664C57.6213 50.9307 57.5253 51.1493 57.376 51.336C57.232 51.5173 57.0533 51.656 56.84 51.752C56.6267 51.848 56.392 51.896 56.136 51.896C55.8 51.896 55.5013 51.8213 55.24 51.672C54.9787 51.5227 54.7733 51.3147 54.624 51.048C54.48 50.7813 54.408 50.472 54.408 50.12C54.408 49.768 54.4853 49.4533 54.64 49.176C54.7947 48.8987 55.008 48.6827 55.28 48.528C55.552 48.368 55.864 48.288 56.216 48.288C56.6747 48.288 57.0613 48.3973 57.376 48.616C57.6907 48.8293 57.928 49.1413 58.088 49.552C58.248 49.9627 58.328 50.464 58.328 51.056C58.328 51.696 58.2373 52.2427 58.056 52.696C57.8747 53.144 57.6133 53.4853 57.272 53.72C56.936 53.9547 56.528 54.072 56.048 54.072ZM56.256 51.304C56.4907 51.304 56.6987 51.2533 56.88 51.152C57.0613 51.0507 57.2027 50.9093 57.304 50.728C57.4053 50.5467 57.456 50.3387 57.456 50.104C57.456 49.8587 57.4053 49.6453 57.304 49.464C57.208 49.2827 57.0693 49.144 56.888 49.048C56.7067 48.9467 56.4933 48.896 56.248 48.896C56.0133 48.896 55.808 48.9467 55.632 49.048C55.456 49.1493 55.3173 49.2907 55.216 49.472C55.12 49.6533 55.072 49.864 55.072 50.104C55.072 50.3387 55.1227 50.5467 55.224 50.728C55.3253 50.9093 55.464 51.0507 55.64 51.152C55.816 51.2533 56.0213 51.304 56.256 51.304ZM59.5329 54V53.392H61.0769V48.928L61.4529 48.984L59.8129 50.04L59.4929 49.488L61.2609 48.36H61.7809V53.392H63.2049V54H59.5329ZM66.6418 54V52.832H64.0098V52.296L66.6098 48.36H67.3218V52.232H68.1058V52.832H67.3218V54H66.6418ZM66.6658 52.232V49.24H66.6978L64.6338 52.368L64.5778 52.232H66.6658ZM70.817 54L72.905 50.976V51.24L70.929 48.36H71.753L73.353 50.712H73.313L74.913 48.36H75.737L73.745 51.24V50.976L75.841 54H75.009L73.297 51.496H73.353L71.641 54H70.817ZM81.3136 54V52.832H78.6816V52.296L81.2816 48.36H81.9936V52.232H82.7776V52.832H81.9936V54H81.3136ZM81.3376 52.232V49.24H81.3696L79.3056 52.368L79.2496 52.232H81.3376ZM83.7985 54V53.392H85.3425V48.928L85.7185 48.984L84.0785 50.04L83.7585 49.488L85.5265 48.36H86.0465V53.392H87.4705V54H83.7985ZM88.5154 54V53.472L90.4994 51.392C90.6914 51.1893 90.8407 51.0053 90.9474 50.84C91.054 50.6747 91.1314 50.5147 91.1794 50.36C91.2274 50.2053 91.2514 50.048 91.2514 49.888C91.2514 49.5733 91.15 49.3333 90.9474 49.168C90.75 48.9973 90.4754 48.912 90.1234 48.912C89.8567 48.912 89.5927 48.9653 89.3314 49.072C89.0754 49.1733 88.83 49.336 88.5954 49.56L88.3234 49C88.558 48.776 88.838 48.6027 89.1634 48.48C89.4887 48.352 89.8247 48.288 90.1714 48.288C90.5394 48.288 90.8567 48.352 91.1234 48.48C91.39 48.6027 91.5927 48.7813 91.7314 49.016C91.8754 49.2453 91.9474 49.5227 91.9474 49.848C91.9474 50.0133 91.9287 50.176 91.8914 50.336C91.854 50.4907 91.7954 50.6453 91.7154 50.8C91.6407 50.9547 91.542 51.1147 91.4194 51.28C91.2967 51.4453 91.1474 51.6187 90.9714 51.8L89.4194 53.416V53.384H92.1794V54H88.5154ZM93.2323 54V53.12H94.1443V54H93.2323ZM95.6148 54L98.3748 48.648L98.4068 48.992H95.2308V48.36H98.9988V48.896L96.3908 54H95.6148ZM101.98 54.072C101.734 54.072 101.497 54.0453 101.268 53.992C101.044 53.9387 100.833 53.8613 100.636 53.76C100.438 53.6533 100.262 53.5253 100.108 53.376L100.388 52.816C100.633 53.04 100.884 53.2027 101.14 53.304C101.401 53.4 101.681 53.448 101.98 53.448C102.374 53.448 102.681 53.3467 102.9 53.144C103.124 52.936 103.236 52.6453 103.236 52.272C103.236 51.904 103.132 51.6107 102.924 51.392C102.716 51.1733 102.428 51.064 102.06 51.064C101.814 51.064 101.59 51.1147 101.388 51.216C101.19 51.312 101.006 51.4747 100.836 51.704H100.276V48.36H103.652V48.976H100.924V51.096H100.892C101.02 50.904 101.196 50.7493 101.42 50.632C101.644 50.5093 101.894 50.448 102.172 50.448C102.534 50.448 102.846 50.5253 103.108 50.68C103.369 50.8293 103.569 51.0373 103.708 51.304C103.852 51.5707 103.924 51.8827 103.924 52.24C103.924 52.6187 103.844 52.9467 103.684 53.224C103.524 53.496 103.3 53.7067 103.012 53.856C102.724 54 102.38 54.072 101.98 54.072ZM106.739 54L108.827 50.976V51.24L106.851 48.36H107.675L109.275 50.712H109.235L110.835 48.36H111.659L109.667 51.24V50.976L111.763 54H110.931L109.219 51.496H109.275L107.563 54H106.739ZM117.236 54V52.832H114.604V52.296L117.204 48.36H117.916V52.232H118.7V52.832H117.916V54H117.236ZM117.26 52.232V49.24H117.292L115.228 52.368L115.172 52.232H117.26ZM121.384 54.072C120.952 54.072 120.587 53.9627 120.288 53.744C119.99 53.52 119.763 53.1947 119.608 52.768C119.459 52.336 119.384 51.8053 119.384 51.176C119.384 50.5467 119.459 50.0187 119.608 49.592C119.763 49.1653 119.99 48.8427 120.288 48.624C120.587 48.4 120.952 48.288 121.384 48.288C121.827 48.288 122.195 48.3973 122.488 48.616C122.782 48.8347 123.003 49.1573 123.152 49.584C123.307 50.0107 123.384 50.5387 123.384 51.168C123.384 51.7973 123.307 52.328 123.152 52.76C123.003 53.192 122.779 53.52 122.48 53.744C122.182 53.9627 121.816 54.072 121.384 54.072ZM121.384 53.448C121.822 53.448 122.147 53.264 122.36 52.896C122.574 52.528 122.68 51.952 122.68 51.168C122.68 50.3893 122.574 49.8187 122.36 49.456C122.152 49.0933 121.83 48.912 121.392 48.912C120.95 48.912 120.622 49.096 120.408 49.464C120.195 49.8267 120.088 50.3973 120.088 51.176C120.088 51.9493 120.195 52.5227 120.408 52.896C120.622 53.264 120.947 53.448 121.384 53.448ZM126.181 54.072C125.749 54.072 125.384 53.9627 125.085 53.744C124.787 53.52 124.56 53.1947 124.405 52.768C124.256 52.336 124.181 51.8053 124.181 51.176C124.181 50.5467 124.256 50.0187 124.405 49.592C124.56 49.1653 124.787 48.8427 125.085 48.624C125.384 48.4 125.749 48.288 126.181 48.288C126.624 48.288 126.992 48.3973 127.285 48.616C127.579 48.8347 127.8 49.1573 127.949 49.584C128.104 50.0107 128.181 50.5387 128.181 51.168C128.181 51.7973 128.104 52.328 127.949 52.76C127.8 53.192 127.576 53.52 127.277 53.744C126.979 53.9627 126.613 54.072 126.181 54.072ZM126.181 53.448C126.619 53.448 126.944 53.264 127.157 52.896C127.371 52.528 127.477 51.952 127.477 51.168C127.477 50.3893 127.371 49.8187 127.157 49.456C126.949 49.0933 126.627 48.912 126.189 48.912C125.747 48.912 125.419 49.096 125.205 49.464C124.992 49.8267 124.885 50.3973 124.885 51.176C124.885 51.9493 124.992 52.5227 125.205 52.896C125.419 53.264 125.744 53.448 126.181 53.448Z" fill="black"/>
<path d="M16.168 67L14.36 61.36H15.112L16.584 66.144H16.512L18.152 61.36H18.736L20.36 66.144H20.304L21.792 61.36H22.512L20.696 67H20.016L18.424 62.344H18.456L16.832 67H16.168ZM25.0223 67.072C24.5796 67.072 24.1956 66.992 23.8703 66.832C23.5503 66.6667 23.3049 66.432 23.1343 66.128C22.9636 65.8187 22.8783 65.4507 22.8783 65.024C22.8783 64.624 22.9583 64.272 23.1183 63.968C23.2783 63.6587 23.5049 63.416 23.7983 63.24C24.0916 63.064 24.4409 62.976 24.8463 62.976C25.2303 62.976 25.5556 63.0587 25.8223 63.224C26.0943 63.3893 26.2996 63.6213 26.4383 63.92C26.5823 64.2187 26.6543 64.5733 26.6543 64.984V65.216H23.4143V64.72H26.1903L26.0383 64.88C26.0383 64.4427 25.9343 64.1067 25.7263 63.872C25.5236 63.6373 25.2303 63.52 24.8463 63.52C24.5956 63.52 24.3716 63.5787 24.1743 63.696C23.9823 63.808 23.8329 63.968 23.7263 64.176C23.6196 64.384 23.5663 64.6373 23.5663 64.936V65.016C23.5663 65.336 23.6249 65.6053 23.7423 65.824C23.8596 66.0427 24.0276 66.208 24.2463 66.32C24.4649 66.432 24.7263 66.488 25.0303 66.488C25.2489 66.488 25.4703 66.4587 25.6943 66.4C25.9236 66.336 26.1369 66.224 26.3343 66.064L26.5743 66.576C26.3716 66.7467 26.1289 66.872 25.8463 66.952C25.5689 67.032 25.2943 67.072 25.0223 67.072ZM27.7492 62.096V61.304H28.6132V62.096H27.7492ZM27.8292 67V63.048H28.5412V67H27.8292ZM31.674 68.512C31.3593 68.512 31.0473 68.464 30.738 68.368C30.4287 68.2773 30.1647 68.152 29.946 67.992L30.17 67.44C30.3193 67.536 30.4767 67.6187 30.642 67.688C30.8073 67.7627 30.9753 67.816 31.146 67.848C31.322 67.8853 31.4953 67.904 31.666 67.904C32.0767 67.904 32.3967 67.8 32.626 67.592C32.8607 67.384 32.978 67.088 32.978 66.704V65.976H32.962C32.866 66.248 32.6927 66.4693 32.442 66.64C32.1913 66.8053 31.9007 66.888 31.57 66.888C31.1967 66.888 30.8713 66.808 30.594 66.648C30.3167 66.4827 30.1007 66.2533 29.946 65.96C29.7967 65.6667 29.722 65.3227 29.722 64.928C29.722 64.5387 29.7967 64.1973 29.946 63.904C30.1007 63.6107 30.3167 63.384 30.594 63.224C30.8713 63.0587 31.1967 62.976 31.57 62.976C31.9007 62.976 32.1913 63.0613 32.442 63.232C32.698 63.4027 32.874 63.6293 32.97 63.912H32.978V63.048H33.642V66.64C33.642 67.024 33.562 67.3547 33.402 67.632C33.2473 67.9147 33.0233 68.1307 32.73 68.28C32.4367 68.4347 32.0847 68.512 31.674 68.512ZM31.69 66.304C32.0793 66.304 32.386 66.1787 32.61 65.928C32.8393 65.6773 32.954 65.344 32.954 64.928C32.954 64.512 32.8393 64.1813 32.61 63.936C32.386 63.6853 32.0793 63.56 31.69 63.56C31.306 63.56 30.9993 63.6853 30.77 63.936C30.546 64.1813 30.434 64.512 30.434 64.928C30.434 65.344 30.546 65.6773 30.77 65.928C30.9993 66.1787 31.306 66.304 31.69 66.304ZM35.0636 67V61.36H35.7516V63.888C35.8689 63.6053 36.0529 63.384 36.3036 63.224C36.5596 63.0587 36.8476 62.976 37.1676 62.976C37.4929 62.976 37.7649 63.0347 37.9836 63.152C38.2022 63.264 38.3649 63.44 38.4716 63.68C38.5836 63.9147 38.6396 64.208 38.6396 64.56V67H37.9276V64.6C37.9276 64.3867 37.8956 64.2053 37.8316 64.056C37.7729 63.9067 37.6769 63.792 37.5436 63.712C37.4102 63.6267 37.2316 63.584 37.0076 63.584C36.7729 63.584 36.5622 63.6373 36.3756 63.744C36.1889 63.8507 36.0422 63.9947 35.9356 64.176C35.8289 64.3573 35.7756 64.56 35.7756 64.784V67H35.0636ZM41.7119 67.072C41.2373 67.072 40.8773 66.9467 40.6319 66.696C40.3919 66.4453 40.2719 66.088 40.2719 65.624V63.632H39.4719V63.048H40.2959V61.872H40.9839V63.048H42.3999V63.632H40.9839V65.56C40.9839 65.864 41.0506 66.0907 41.1839 66.24C41.3226 66.384 41.5333 66.456 41.8159 66.456C41.9279 66.456 42.0346 66.4453 42.1359 66.424C42.2426 66.4027 42.3439 66.3707 42.4399 66.328L42.5519 66.888C42.4453 66.9467 42.3146 66.992 42.1599 67.024C42.0106 67.056 41.8613 67.072 41.7119 67.072Z" fill="#CE3439"/>
<path d="M55.9157 67V66.392H57.4597V61.928L57.8357 61.984L56.1957 63.04L55.8757 62.488L57.6437 61.36H58.1637V66.392H59.5877V67H55.9157ZM62.3766 67.072C61.7472 67.072 61.2512 66.936 60.8886 66.664C60.5259 66.3867 60.3446 66.0027 60.3446 65.512C60.3446 65.2613 60.3926 65.04 60.4886 64.848C60.5899 64.6507 60.7286 64.4907 60.9046 64.368C61.0859 64.24 61.2939 64.1547 61.5286 64.112V64.12C61.3259 64.072 61.1446 63.984 60.9846 63.856C60.8299 63.728 60.7072 63.5733 60.6166 63.392C60.5259 63.2107 60.4806 63.0107 60.4806 62.792C60.4806 62.3227 60.6512 61.9547 60.9926 61.688C61.3392 61.4213 61.8006 61.288 62.3766 61.288C62.9526 61.288 63.4112 61.4213 63.7526 61.688C64.0992 61.9547 64.2726 62.3227 64.2726 62.792C64.2726 63.0053 64.2272 63.2053 64.1366 63.392C64.0459 63.5733 63.9206 63.728 63.7606 63.856C63.6059 63.984 63.4246 64.072 63.2166 64.12V64.112C63.4459 64.1493 63.6486 64.232 63.8246 64.36C64.0059 64.488 64.1472 64.6507 64.2486 64.848C64.3552 65.04 64.4086 65.2613 64.4086 65.512C64.4086 66.0027 64.2272 66.3867 63.8646 66.664C63.5072 66.936 63.0112 67.072 62.3766 67.072ZM62.3766 66.472C62.8192 66.472 63.1552 66.3867 63.3846 66.216C63.6192 66.0453 63.7366 65.7947 63.7366 65.464C63.7366 65.1333 63.6192 64.88 63.3846 64.704C63.1552 64.528 62.8192 64.44 62.3766 64.44C61.9339 64.44 61.5952 64.528 61.3606 64.704C61.1312 64.88 61.0166 65.1333 61.0166 65.464C61.0166 65.7947 61.1312 66.0453 61.3606 66.216C61.5952 66.3867 61.9339 66.472 62.3766 66.472ZM62.3766 63.84C62.7606 63.84 63.0619 63.7547 63.2806 63.584C63.4992 63.408 63.6086 63.1653 63.6086 62.856C63.6086 62.552 63.4992 62.3147 63.2806 62.144C63.0619 61.968 62.7606 61.88 62.3766 61.88C61.9979 61.88 61.6992 61.968 61.4806 62.144C61.2619 62.3147 61.1526 62.552 61.1526 62.856C61.1526 63.1653 61.2619 63.408 61.4806 63.584C61.6992 63.7547 61.9979 63.84 62.3766 63.84ZM66.6614 68.536C66.2828 67.96 66.0028 67.3733 65.8214 66.776C65.6454 66.1733 65.5574 65.5467 65.5574 64.896C65.5574 64.2453 65.6454 63.6213 65.8214 63.024C66.0028 62.4267 66.2828 61.8373 66.6614 61.256L67.1734 61.44C66.9708 61.8187 66.8028 62.2 66.6694 62.584C66.5361 62.968 66.4348 63.352 66.3654 63.736C66.3014 64.1147 66.2694 64.5013 66.2694 64.896C66.2694 65.2853 66.3014 65.672 66.3654 66.056C66.4348 66.44 66.5361 66.8213 66.6694 67.2C66.8028 67.584 66.9708 67.968 67.1734 68.352L66.6614 68.536ZM68.2929 67V61.36H69.0049V63.904H69.0369L71.7169 61.36H72.6209L69.5089 64.312L69.5569 63.92L72.8129 67H71.8609L69.0369 64.352H69.0049V67H68.2929ZM75.1428 68.512C74.8281 68.512 74.5161 68.464 74.2068 68.368C73.8974 68.2773 73.6334 68.152 73.4148 67.992L73.6388 67.44C73.7881 67.536 73.9454 67.6187 74.1108 67.688C74.2761 67.7627 74.4441 67.816 74.6148 67.848C74.7908 67.8853 74.9641 67.904 75.1348 67.904C75.5454 67.904 75.8654 67.8 76.0948 67.592C76.3294 67.384 76.4468 67.088 76.4468 66.704V65.976H76.4308C76.3348 66.248 76.1614 66.4693 75.9108 66.64C75.6601 66.8053 75.3694 66.888 75.0388 66.888C74.6654 66.888 74.3401 66.808 74.0628 66.648C73.7854 66.4827 73.5694 66.2533 73.4148 65.96C73.2654 65.6667 73.1908 65.3227 73.1908 64.928C73.1908 64.5387 73.2654 64.1973 73.4148 63.904C73.5694 63.6107 73.7854 63.384 74.0628 63.224C74.3401 63.0587 74.6654 62.976 75.0388 62.976C75.3694 62.976 75.6601 63.0613 75.9108 63.232C76.1668 63.4027 76.3428 63.6293 76.4388 63.912H76.4468V63.048H77.1108V66.64C77.1108 67.024 77.0308 67.3547 76.8708 67.632C76.7161 67.9147 76.4921 68.1307 76.1988 68.28C75.9054 68.4347 75.5534 68.512 75.1428 68.512ZM75.1588 66.304C75.5481 66.304 75.8548 66.1787 76.0788 65.928C76.3081 65.6773 76.4228 65.344 76.4228 64.928C76.4228 64.512 76.3081 64.1813 76.0788 63.936C75.8548 63.6853 75.5481 63.56 75.1588 63.56C74.7748 63.56 74.4681 63.6853 74.2388 63.936C74.0148 64.1813 73.9028 64.512 73.9028 64.928C73.9028 65.344 74.0148 65.6773 74.2388 65.928C74.4681 66.1787 74.7748 66.304 75.1588 66.304ZM79.9883 67.072C79.7696 67.072 79.5536 67.0507 79.3403 67.008C79.1323 66.9707 78.9376 66.9173 78.7563 66.848C78.5803 66.7733 78.4283 66.6827 78.3003 66.576L78.5323 66.072C78.6656 66.1733 78.8123 66.256 78.9723 66.32C79.1376 66.384 79.3056 66.432 79.4763 66.464C79.6523 66.4907 79.8203 66.504 79.9803 66.504C80.311 66.504 80.5643 66.4533 80.7403 66.352C80.9216 66.2507 81.0123 66.1093 81.0123 65.928C81.0123 65.7733 80.959 65.656 80.8523 65.576C80.751 65.4907 80.5803 65.4267 80.3403 65.384L79.5163 65.24C79.1483 65.1707 78.871 65.0453 78.6843 64.864C78.503 64.6827 78.4123 64.4453 78.4123 64.152C78.4123 63.9173 78.4763 63.712 78.6043 63.536C78.7376 63.36 78.927 63.224 79.1723 63.128C79.4176 63.0267 79.711 62.976 80.0523 62.976C80.239 62.976 80.4283 62.9947 80.6203 63.032C80.8176 63.0693 80.999 63.1253 81.1643 63.2C81.335 63.2693 81.4736 63.3573 81.5803 63.464L81.3403 63.968C81.2336 63.8667 81.1056 63.7867 80.9563 63.728C80.8123 63.664 80.6603 63.6187 80.5003 63.592C80.3456 63.56 80.1936 63.544 80.0443 63.544C79.735 63.544 79.495 63.5973 79.3243 63.704C79.1536 63.8053 79.0683 63.9493 79.0683 64.136C79.0683 64.2853 79.1163 64.4027 79.2123 64.488C79.3136 64.5733 79.4763 64.6373 79.7003 64.68L80.5003 64.824C80.895 64.8987 81.1883 65.024 81.3803 65.2C81.5723 65.3707 81.6683 65.608 81.6683 65.912C81.6683 66.1467 81.599 66.352 81.4603 66.528C81.3216 66.6987 81.127 66.832 80.8763 66.928C80.6256 67.024 80.3296 67.072 79.9883 67.072ZM82.9408 68.536L82.4208 68.352C82.6288 67.9627 82.7995 67.576 82.9328 67.192C83.0661 66.8133 83.1648 66.4347 83.2288 66.056C83.2928 65.672 83.3248 65.2853 83.3248 64.896C83.3248 64.5067 83.2928 64.1227 83.2288 63.744C83.1648 63.36 83.0661 62.976 82.9328 62.592C82.7995 62.208 82.6288 61.824 82.4208 61.44L82.9408 61.256C83.3141 61.832 83.5888 62.4213 83.7648 63.024C83.9461 63.6213 84.0368 64.2453 84.0368 64.896C84.0368 65.5413 83.9461 66.1653 83.7648 66.768C83.5888 67.3653 83.3141 67.9547 82.9408 68.536Z" fill="black"/>
<defs>
<filter id="filter0_d_271_299" x="0.0999999" y="24" width="142.8" height="57.9" filterUnits="userSpaceOnUse" color-interpolation-filters="sRGB">
<feFlood flood-opacity="0" result="BackgroundImageFix"/>
<feColorMatrix in="SourceAlpha" type="matrix" values="0 0 0 0 0 0 0 0 0 0 0 0 0 0 0 0 0 0 127 0" result="hardAlpha"/>
<feOffset dy="4"/>
<feGaussianBlur stdDeviation="1.95"/>
<feComposite in2="hardAlpha" operator="out"/>
<feColorMatrix type="matrix" values="0 0 0 0 0 0 0 0 0 0 0 0 0 0 0 0 0 0 0.2 0"/>
<feBlend mode="normal" in2="BackgroundImageFix" result="effect1_dropShadow_271_299"/>
<feBlend mode="normal" in="SourceGraphic" in2="effect1_dropShadow_271_299" result="shape"/>
</filter>
<clipPath id="clip0_271_299">
<rect width="21.6818" height="21.7032" fill="white" transform="translate(55.457 2.41113)"/>
</clipPath>
</defs>
</svg>
