<svg width="90" height="82" viewBox="0 0 90 82" fill="none" xmlns="http://www.w3.org/2000/svg">
<g filter="url(#filter0_d_271_265)">
<rect x="4" y="24" width="82" height="50" rx="2" fill="white"/>
<rect x="4.25" y="24.25" width="81.5" height="49.5" rx="1.75" stroke="white" stroke-width="0.5"/>
</g>
<rect x="29.1016" y="0.0341797" width="30.0847" height="30.0847" rx="3" fill="#CB3335"/>
<g clip-path="url(#clip0_271_265)">
<path d="M51.7665 17.7843L49.1341 12.5195H49.8607C50.0003 12.5195 50.1342 12.464 50.2329 12.3653C50.3317 12.2665 50.3871 12.1326 50.3871 11.993C50.3871 11.8534 50.3317 11.7195 50.2329 11.6207C50.1342 11.522 50.0003 11.4665 49.8607 11.4665H49.0288C48.4632 10.8504 47.7817 10.352 47.0231 9.99963C46.2646 9.6473 45.4441 9.44803 44.6085 9.41323L44.5958 9.36058C44.5958 9.08132 44.4849 8.81349 44.2874 8.61602C44.09 8.41855 43.8221 8.30762 43.5429 8.30762C43.2636 8.30762 42.9958 8.41855 42.7983 8.61602C42.6008 8.81349 42.4899 9.08132 42.4899 9.36058V9.41323C40.7881 9.484 39.1822 10.2202 38.018 11.4634L37.2251 11.4665C37.0854 11.4665 36.9515 11.522 36.8528 11.6207C36.7541 11.7195 36.6986 11.8534 36.6986 11.993C36.6986 12.1326 36.7541 12.2665 36.8528 12.3653C36.9515 12.464 37.0854 12.5195 37.2251 12.5195H37.9516L35.3192 17.7843H35.1191C35.1191 18.9426 36.5301 19.8902 38.278 19.8902C40.026 19.8902 41.4369 18.9426 41.4369 17.7843H41.2369L38.5518 12.4247C38.6184 12.3857 38.6755 12.3325 38.7192 12.2689C39.1849 11.7217 39.761 11.2791 40.4098 10.9703C41.0585 10.6614 41.7652 10.4932 42.4836 10.4767L42.4899 21.9962H41.4369V23.0491H39.331V24.1021H47.7547V23.0491H45.6488V21.9962H44.5958V10.4767C45.306 10.4902 46.005 10.6563 46.6453 10.9639C47.2856 11.2715 47.8522 11.7134 48.3065 12.2594C48.3551 12.342 48.4254 12.4097 48.5097 12.4553L45.8489 17.7843H45.6488C45.6488 18.9426 47.0598 19.8902 48.8077 19.8902C50.5556 19.8902 51.9666 18.9426 51.9666 17.7843H51.7665ZM40.384 17.7843H36.1721L38.278 13.6356L40.384 17.7843ZM46.7018 17.7843L48.8077 13.6356L50.9136 17.7843H46.7018Z" fill="white"/>
</g>
<rect width="40.3136" height="19.2542" transform="translate(25 39)" fill="white"/>
<path d="M32.8243 47L31.0163 41.36H31.7683L33.2403 46.144H33.1683L34.8083 41.36H35.3923L37.0163 46.144H36.9603L38.4483 41.36H39.1683L37.3523 47H36.6723L35.0803 42.344H35.1123L33.4883 47H32.8243ZM41.6785 47.072C41.2358 47.072 40.8518 46.992 40.5265 46.832C40.2065 46.6667 39.9612 46.432 39.7905 46.128C39.6198 45.8187 39.5345 45.4507 39.5345 45.024C39.5345 44.624 39.6145 44.272 39.7745 43.968C39.9345 43.6587 40.1612 43.416 40.4545 43.24C40.7478 43.064 41.0972 42.976 41.5025 42.976C41.8865 42.976 42.2118 43.0587 42.4785 43.224C42.7505 43.3893 42.9558 43.6213 43.0945 43.92C43.2385 44.2187 43.3105 44.5733 43.3105 44.984V45.216H40.0705V44.72H42.8465L42.6945 44.88C42.6945 44.4427 42.5905 44.1067 42.3825 43.872C42.1798 43.6373 41.8865 43.52 41.5025 43.52C41.2518 43.52 41.0278 43.5787 40.8305 43.696C40.6385 43.808 40.4892 43.968 40.3825 44.176C40.2758 44.384 40.2225 44.6373 40.2225 44.936V45.016C40.2225 45.336 40.2812 45.6053 40.3985 45.824C40.5158 46.0427 40.6838 46.208 40.9025 46.32C41.1212 46.432 41.3825 46.488 41.6865 46.488C41.9052 46.488 42.1265 46.4587 42.3505 46.4C42.5798 46.336 42.7932 46.224 42.9905 46.064L43.2305 46.576C43.0278 46.7467 42.7852 46.872 42.5025 46.952C42.2252 47.032 41.9505 47.072 41.6785 47.072ZM44.4054 42.096V41.304H45.2694V42.096H44.4054ZM44.4854 47V43.048H45.1974V47H44.4854ZM48.3303 48.512C48.0156 48.512 47.7036 48.464 47.3943 48.368C47.0849 48.2773 46.8209 48.152 46.6023 47.992L46.8263 47.44C46.9756 47.536 47.1329 47.6187 47.2983 47.688C47.4636 47.7627 47.6316 47.816 47.8023 47.848C47.9783 47.8853 48.1516 47.904 48.3223 47.904C48.7329 47.904 49.0529 47.8 49.2823 47.592C49.5169 47.384 49.6343 47.088 49.6343 46.704V45.976H49.6183C49.5223 46.248 49.3489 46.4693 49.0983 46.64C48.8476 46.8053 48.5569 46.888 48.2263 46.888C47.8529 46.888 47.5276 46.808 47.2503 46.648C46.9729 46.4827 46.7569 46.2533 46.6023 45.96C46.4529 45.6667 46.3783 45.3227 46.3783 44.928C46.3783 44.5387 46.4529 44.1973 46.6023 43.904C46.7569 43.6107 46.9729 43.384 47.2503 43.224C47.5276 43.0587 47.8529 42.976 48.2263 42.976C48.5569 42.976 48.8476 43.0613 49.0983 43.232C49.3543 43.4027 49.5303 43.6293 49.6263 43.912H49.6343V43.048H50.2983V46.64C50.2983 47.024 50.2183 47.3547 50.0583 47.632C49.9036 47.9147 49.6796 48.1307 49.3863 48.28C49.0929 48.4347 48.7409 48.512 48.3303 48.512ZM48.3463 46.304C48.7356 46.304 49.0423 46.1787 49.2663 45.928C49.4956 45.6773 49.6103 45.344 49.6103 44.928C49.6103 44.512 49.4956 44.1813 49.2663 43.936C49.0423 43.6853 48.7356 43.56 48.3463 43.56C47.9623 43.56 47.6556 43.6853 47.4263 43.936C47.2023 44.1813 47.0903 44.512 47.0903 44.928C47.0903 45.344 47.2023 45.6773 47.4263 45.928C47.6556 46.1787 47.9623 46.304 48.3463 46.304ZM51.7198 47V41.36H52.4078V43.888C52.5251 43.6053 52.7091 43.384 52.9598 43.224C53.2158 43.0587 53.5038 42.976 53.8238 42.976C54.1491 42.976 54.4211 43.0347 54.6398 43.152C54.8585 43.264 55.0211 43.44 55.1278 43.68C55.2398 43.9147 55.2958 44.208 55.2958 44.56V47H54.5838V44.6C54.5838 44.3867 54.5518 44.2053 54.4878 44.056C54.4291 43.9067 54.3331 43.792 54.1998 43.712C54.0665 43.6267 53.8878 43.584 53.6638 43.584C53.4291 43.584 53.2185 43.6373 53.0318 43.744C52.8451 43.8507 52.6985 43.9947 52.5918 44.176C52.4851 44.3573 52.4318 44.56 52.4318 44.784V47H51.7198ZM58.3682 47.072C57.8935 47.072 57.5335 46.9467 57.2882 46.696C57.0482 46.4453 56.9282 46.088 56.9282 45.624V43.632H56.1282V43.048H56.9522V41.872H57.6402V43.048H59.0562V43.632H57.6402V45.56C57.6402 45.864 57.7069 46.0907 57.8402 46.24C57.9789 46.384 58.1895 46.456 58.4722 46.456C58.5842 46.456 58.6909 46.4453 58.7922 46.424C58.8989 46.4027 59.0002 46.3707 59.0962 46.328L59.2082 46.888C59.1015 46.9467 58.9709 46.992 58.8162 47.024C58.6669 47.056 58.5175 47.072 58.3682 47.072Z" fill="#CE3439"/>
<path d="M27.7043 60V58.832H25.0723V58.296L27.6723 54.36H28.3843V58.232H29.1683V58.832H28.3843V60H27.7043ZM27.7283 58.232V55.24H27.7603L25.6963 58.368L25.6403 58.232H27.7283ZM30.0291 60V59.12H30.9411V60H30.0291ZM32.2516 60V59.392H33.7956V54.928L34.1716 54.984L32.5316 56.04L32.2116 55.488L33.9796 54.36H34.4996V59.392H35.9236V60H32.2516ZM38.7125 60.072C38.2805 60.072 37.9152 59.9627 37.6165 59.744C37.3178 59.52 37.0912 59.1947 36.9365 58.768C36.7872 58.336 36.7125 57.8053 36.7125 57.176C36.7125 56.5467 36.7872 56.0187 36.9365 55.592C37.0912 55.1653 37.3178 54.8427 37.6165 54.624C37.9152 54.4 38.2805 54.288 38.7125 54.288C39.1552 54.288 39.5232 54.3973 39.8165 54.616C40.1098 54.8347 40.3312 55.1573 40.4805 55.584C40.6352 56.0107 40.7125 56.5387 40.7125 57.168C40.7125 57.7973 40.6352 58.328 40.4805 58.76C40.3312 59.192 40.1072 59.52 39.8085 59.744C39.5098 59.9627 39.1445 60.072 38.7125 60.072ZM38.7125 59.448C39.1498 59.448 39.4752 59.264 39.6885 58.896C39.9018 58.528 40.0085 57.952 40.0085 57.168C40.0085 56.3893 39.9018 55.8187 39.6885 55.456C39.4805 55.0933 39.1578 54.912 38.7205 54.912C38.2778 54.912 37.9498 55.096 37.7365 55.464C37.5232 55.8267 37.4165 56.3973 37.4165 57.176C37.4165 57.9493 37.5232 58.5227 37.7365 58.896C37.9498 59.264 38.2752 59.448 38.7125 59.448ZM45.2318 61.536C44.8531 60.96 44.5731 60.3733 44.3918 59.776C44.2158 59.1733 44.1278 58.5467 44.1278 57.896C44.1278 57.2453 44.2158 56.6213 44.3918 56.024C44.5731 55.4267 44.8531 54.8373 45.2318 54.256L45.7438 54.44C45.5411 54.8187 45.3731 55.2 45.2398 55.584C45.1064 55.968 45.0051 56.352 44.9358 56.736C44.8718 57.1147 44.8398 57.5013 44.8398 57.896C44.8398 58.2853 44.8718 58.672 44.9358 59.056C45.0051 59.44 45.1064 59.8213 45.2398 60.2C45.3731 60.584 45.5411 60.968 45.7438 61.352L45.2318 61.536ZM49.3529 60.072C48.7663 60.072 48.2649 59.9573 47.8489 59.728C47.4329 59.4987 47.1129 59.1707 46.8889 58.744C46.6703 58.312 46.5609 57.7893 46.5609 57.176C46.5609 56.5733 46.6676 56.0587 46.8809 55.632C47.0996 55.2 47.4116 54.8693 47.8169 54.64C48.2223 54.4053 48.7076 54.288 49.2729 54.288C49.5503 54.288 49.8143 54.3147 50.0649 54.368C50.3156 54.4213 50.5476 54.5013 50.7609 54.608C50.9743 54.7093 51.1556 54.8373 51.3049 54.992L51.0329 55.544C50.7823 55.3253 50.5129 55.1707 50.2249 55.08C49.9369 54.984 49.6169 54.936 49.2649 54.936C48.6463 54.936 48.1636 55.128 47.8169 55.512C47.4756 55.8907 47.3049 56.4453 47.3049 57.176C47.3049 57.9333 47.4809 58.5013 47.8329 58.88C48.1903 59.2533 48.7076 59.44 49.3849 59.44C49.6836 59.44 49.9609 59.416 50.2169 59.368C50.4783 59.32 50.7156 59.2507 50.9289 59.16L50.7209 59.576V57.616H49.3129V57.008H51.3689V59.672C51.2196 59.7467 51.0329 59.816 50.8089 59.88C50.5849 59.9387 50.3476 59.984 50.0969 60.016C49.8463 60.0533 49.5983 60.072 49.3529 60.072ZM52.8448 60V56.048H53.4928V56.96H53.5008C53.5968 56.6667 53.7648 56.4373 54.0048 56.272C54.2448 56.1013 54.5381 56.0053 54.8848 55.984L55.2448 55.968L55.3088 56.616L54.7328 56.664C54.3648 56.696 54.0768 56.8187 53.8688 57.032C53.6608 57.24 53.5568 57.5013 53.5568 57.816V60H52.8448ZM56.2046 60V56.048H56.8606V56.912C56.9299 56.736 57.0259 56.5787 57.1486 56.44C57.2766 56.296 57.4286 56.184 57.6046 56.104C57.7859 56.0187 57.9832 55.976 58.1966 55.976C58.5432 55.976 58.8286 56.0613 59.0526 56.232C59.2766 56.4027 59.4152 56.6267 59.4686 56.904H59.4606C59.5672 56.6427 59.7352 56.424 59.9646 56.248C60.1992 56.0667 60.4926 55.976 60.8446 55.976C61.1432 55.976 61.3966 56.0347 61.6046 56.152C61.8126 56.264 61.9699 56.4373 62.0766 56.672C62.1832 56.9067 62.2366 57.2027 62.2366 57.56V60H61.5326V57.608C61.5326 57.2667 61.4712 57.0107 61.3486 56.84C61.2259 56.6693 61.0072 56.584 60.6926 56.584C60.4579 56.584 60.2552 56.6373 60.0846 56.744C59.9192 56.8453 59.7912 56.9893 59.7006 57.176C59.6152 57.3573 59.5726 57.5627 59.5726 57.792V60H58.8686V57.608C58.8686 57.272 58.7992 57.0187 58.6606 56.848C58.5219 56.672 58.3112 56.584 58.0286 56.584C57.7992 56.584 57.5992 56.6427 57.4286 56.76C57.2632 56.872 57.1352 57.0187 57.0446 57.2C56.9539 57.3813 56.9086 57.5733 56.9086 57.776V60H56.2046ZM63.7611 61.536L63.2411 61.352C63.4491 60.9627 63.6198 60.576 63.7531 60.192C63.8865 59.8133 63.9851 59.4347 64.0491 59.056C64.1131 58.672 64.1451 58.2853 64.1451 57.896C64.1451 57.5067 64.1131 57.1227 64.0491 56.744C63.9851 56.36 63.8865 55.976 63.7531 55.592C63.6198 55.208 63.4491 54.824 63.2411 54.44L63.7611 54.256C64.1345 54.832 64.4091 55.4213 64.5851 56.024C64.7665 56.6213 64.8571 57.2453 64.8571 57.896C64.8571 58.5413 64.7665 59.1653 64.5851 59.768C64.4091 60.3653 64.1345 60.9547 63.7611 61.536Z" fill="black"/>
<defs>
<filter id="filter0_d_271_265" x="0.0999999" y="24" width="89.8" height="57.9" filterUnits="userSpaceOnUse" color-interpolation-filters="sRGB">
<feFlood flood-opacity="0" result="BackgroundImageFix"/>
<feColorMatrix in="SourceAlpha" type="matrix" values="0 0 0 0 0 0 0 0 0 0 0 0 0 0 0 0 0 0 127 0" result="hardAlpha"/>
<feOffset dy="4"/>
<feGaussianBlur stdDeviation="1.95"/>
<feComposite in2="hardAlpha" operator="out"/>
<feColorMatrix type="matrix" values="0 0 0 0 0 0 0 0 0 0 0 0 0 0 0 0 0 0 0.2 0"/>
<feBlend mode="normal" in2="BackgroundImageFix" result="effect1_dropShadow_271_265"/>
<feBlend mode="normal" in="SourceGraphic" in2="effect1_dropShadow_271_265" result="shape"/>
</filter>
<clipPath id="clip0_271_265">
<rect width="16.8475" height="16.8475" fill="white" transform="translate(35.1191 7.25488)"/>
</clipPath>
</defs>
</svg>
