<svg width="114" height="67" viewBox="0 0 114 67" fill="none" xmlns="http://www.w3.org/2000/svg">
<g filter="url(#filter0_d_235_234)">
<rect x="4" y="20" width="106" height="39" rx="2" fill="#EBDBBA"/>
<rect x="4.25" y="20.25" width="105.5" height="38.5" rx="1.75" stroke="white" stroke-width="0.5"/>
</g>
<rect x="44" width="25" height="25" rx="3" fill="#CB3335"/>
<g clip-path="url(#clip0_235_234)">
<path fill-rule="evenodd" clip-rule="evenodd" d="M56.0703 2.00675C56.1381 2.00253 56.2091 2.01378 56.2285 2.03136C56.2478 2.04893 56.778 2.32772 57.4062 2.65116C58.0348 2.97425 58.8177 3.37749 59.1464 3.54694C59.4751 3.71604 60.8912 4.44378 62.2929 5.16413C63.6949 5.88413 64.8688 6.49936 64.9022 6.531C64.9585 6.58444 64.9627 6.8794 64.9648 11.0004C64.9665 14.5298 64.9578 15.4252 64.9219 15.4765C64.8973 15.5117 62.9074 16.5442 60.4999 17.7708C58.0924 18.9978 56.0914 20.0015 56.0527 20.0015C56.014 20.0015 55.8083 19.9094 55.5956 19.7972C55.383 19.6847 53.391 18.6603 51.1691 17.5205C47.8398 15.8123 47.1177 15.4291 47.0632 15.3422C47.0122 15.261 47.0003 15.1886 47.0108 15.0258C47.0186 14.9098 47.0523 12.9562 47.0857 10.684C47.1195 8.41186 47.1613 6.51343 47.1789 6.46526C47.2056 6.39179 47.926 6.02018 51.579 4.19593C54.4981 2.738 55.988 2.01202 56.0703 2.00675ZM48.0472 6.5855C48.0515 6.59675 48.5964 6.89382 49.2587 7.24573C49.9211 7.59764 50.5026 7.90807 50.5507 7.93585C50.6351 7.98472 50.7944 7.90597 54.6025 5.93405C56.7825 4.80483 58.5544 3.87108 58.54 3.85843C58.5256 3.84577 57.9719 3.55714 57.3095 3.21682C56.6472 2.87651 56.0857 2.59913 56.0615 2.60018C56.0372 2.60124 54.2224 3.49386 52.0287 4.5837C49.8349 5.67354 48.0434 6.57425 48.0472 6.5855ZM53.7756 6.97503C52.3894 7.69046 51.2546 8.28354 51.2546 8.29339C51.2542 8.30288 51.5899 8.49132 52.0009 8.71175L52.748 9.11218C53.1294 8.91706 54.9073 7.99315 56.9446 6.93319C58.9819 5.87358 60.6508 4.99046 60.6536 4.97112C60.656 4.95179 60.3308 4.76581 59.9304 4.55804C59.5303 4.35026 59.1981 4.18046 59.1921 4.18116C59.1865 4.18186 58.5323 4.51796 57.7388 4.92823C56.9453 5.3385 55.1618 6.2596 53.7756 6.97503ZM55.6231 8.23011C54.3814 8.87382 53.3646 9.41276 53.3643 9.42718C53.3636 9.44159 53.9567 9.76995 54.6816 10.1567L55.9999 10.8598C62.1713 7.701 63.9899 6.76374 64.0233 6.73878C64.0757 6.69975 63.9066 6.60307 62.713 5.99065C61.9589 5.60393 61.3307 5.28542 61.3166 5.28296C61.3026 5.2805 60.5239 5.67917 59.5859 6.16889C58.6479 6.65827 56.8648 7.58604 55.6231 8.23011ZM47.6359 11.0356C47.5916 13.9026 47.5849 15.0367 47.6124 15.0652C47.6331 15.0866 48.0381 15.3025 48.5117 15.5451C48.9856 15.7873 50.8126 16.7235 52.5722 17.6253C54.3318 18.5267 55.7749 19.26 55.7795 19.2544C55.7837 19.2491 55.7725 17.4646 55.7542 15.2895C55.7359 13.114 55.7166 11.3319 55.711 11.3288C55.7057 11.3256 55.0999 10.9994 54.3652 10.6042L53.0292 9.88561C52.9948 10.0547 52.9751 10.523 52.9628 11.0356C52.9435 11.8646 52.934 11.9771 52.8763 12.0551C52.833 12.1137 52.7714 12.1462 52.6917 12.1525C52.5954 12.1606 52.375 12.0583 51.5544 11.6251C50.9947 11.3298 50.5005 11.0605 50.4558 11.0268L50.3749 10.9653L50.3574 8.4537C48.8042 7.61909 48.2069 7.29846 48.0276 7.20284C47.8483 7.10686 47.7006 7.03233 47.6996 7.0369C47.6989 7.04147 47.67 8.84077 47.6359 11.0356ZM56.3048 11.3235C56.2889 11.3295 56.2889 13.1182 56.3048 15.2983C56.3209 17.4783 56.342 19.2628 56.3515 19.2632C56.361 19.2639 58.1803 18.3407 60.3945 17.2115L64.4199 15.1587C64.4336 8.96628 64.4258 7.16944 64.4111 7.17085C64.3967 7.17261 62.5735 8.10495 60.3593 9.24331C58.1452 10.3817 56.3209 11.3175 56.3048 11.3235ZM50.903 10.6664C51.9949 11.2384 52.3307 11.4093 52.3542 11.4146C52.3852 11.4216 52.4035 11.2655 52.4228 10.8345C52.4376 10.51 52.4492 10.0941 52.4492 9.91057V9.57659C51.3048 8.96346 50.9568 8.78557 50.9374 8.78557C50.9149 8.78557 50.9023 9.12237 50.9026 9.726L50.903 10.6664Z" fill="white"/>
</g>
<path d="M14.672 33V28.77H16.448C16.748 28.77 17.006 28.822 17.222 28.926C17.438 29.026 17.604 29.172 17.72 29.364C17.836 29.552 17.894 29.78 17.894 30.048C17.894 30.312 17.834 30.542 17.714 30.738C17.598 30.93 17.432 31.08 17.216 31.188C17.004 31.292 16.748 31.344 16.448 31.344H15.23V33H14.672ZM15.23 30.858H16.364C16.68 30.858 16.92 30.794 17.084 30.666C17.248 30.534 17.33 30.33 17.33 30.054C17.33 29.778 17.248 29.576 17.084 29.448C16.92 29.32 16.68 29.256 16.364 29.256H15.23V30.858ZM18.6552 33V28.77H19.2132V33H18.6552ZM20.2595 33V28.77H23.0615V29.262H20.8175V30.612H22.9355V31.104H20.8175V32.508H23.0615V33H20.2595ZM25.7322 33.054C25.3322 33.054 24.9822 32.968 24.6822 32.796C24.3862 32.62 24.1562 32.37 23.9922 32.046C23.8322 31.722 23.7522 31.334 23.7522 30.882C23.7522 30.43 23.8322 30.044 23.9922 29.724C24.1562 29.4 24.3862 29.152 24.6822 28.98C24.9782 28.804 25.3282 28.716 25.7322 28.716C26.0282 28.716 26.2962 28.76 26.5362 28.848C26.7802 28.936 26.9902 29.068 27.1662 29.244L26.9562 29.67C26.7682 29.51 26.5782 29.396 26.3862 29.328C26.1942 29.256 25.9802 29.22 25.7442 29.22C25.3042 29.22 24.9582 29.36 24.7062 29.64C24.4542 29.92 24.3282 30.334 24.3282 30.882C24.3282 31.426 24.4542 31.84 24.7062 32.124C24.9582 32.408 25.3042 32.55 25.7442 32.55C25.9802 32.55 26.1942 32.516 26.3862 32.448C26.5782 32.376 26.7682 32.26 26.9562 32.1L27.1662 32.526C26.9902 32.702 26.7802 32.834 26.5362 32.922C26.2962 33.01 26.0282 33.054 25.7322 33.054ZM27.9564 33V28.77H30.7584V29.262H28.5144V30.612H30.6324V31.104H28.5144V32.508H30.7584V33H27.9564ZM33.034 33.054C32.794 33.054 32.566 33.036 32.35 33C32.138 32.968 31.944 32.918 31.768 32.85C31.592 32.778 31.438 32.688 31.306 32.58L31.516 32.118C31.656 32.23 31.806 32.318 31.966 32.382C32.126 32.446 32.294 32.49 32.47 32.514C32.65 32.538 32.838 32.55 33.034 32.55C33.35 32.55 33.598 32.486 33.778 32.358C33.958 32.23 34.048 32.048 34.048 31.812C34.048 31.688 34.018 31.588 33.958 31.512C33.902 31.436 33.812 31.374 33.688 31.326C33.564 31.274 33.406 31.23 33.214 31.194L32.5 31.056C32.104 30.98 31.822 30.846 31.654 30.654C31.486 30.458 31.402 30.216 31.402 29.928C31.402 29.68 31.474 29.466 31.618 29.286C31.762 29.106 31.96 28.966 32.212 28.866C32.468 28.766 32.756 28.716 33.076 28.716C33.28 28.716 33.47 28.736 33.646 28.776C33.822 28.812 33.982 28.866 34.126 28.938C34.274 29.01 34.406 29.102 34.522 29.214L34.312 29.676C34.14 29.504 33.952 29.386 33.748 29.322C33.544 29.254 33.318 29.22 33.07 29.22C32.862 29.22 32.674 29.248 32.506 29.304C32.338 29.356 32.204 29.434 32.104 29.538C32.008 29.642 31.96 29.774 31.96 29.934C31.96 30.106 32.014 30.24 32.122 30.336C32.23 30.432 32.42 30.506 32.692 30.558L33.4 30.696C33.812 30.772 34.116 30.902 34.312 31.086C34.508 31.266 34.606 31.502 34.606 31.794C34.606 32.034 34.54 32.25 34.408 32.442C34.28 32.634 34.098 32.784 33.862 32.892C33.626 33 33.35 33.054 33.034 33.054Z" fill="#CE3439"/>
<path d="M41.7258 33V32.592L43.2318 31.032C43.3798 30.88 43.4938 30.744 43.5738 30.624C43.6538 30.5 43.7098 30.382 43.7418 30.27C43.7738 30.158 43.7898 30.044 43.7898 29.928C43.7898 29.696 43.7138 29.518 43.5618 29.394C43.4098 29.266 43.2078 29.202 42.9558 29.202C42.7598 29.202 42.5618 29.24 42.3618 29.316C42.1658 29.392 41.9798 29.516 41.8038 29.688L41.5878 29.25C41.7758 29.074 41.9898 28.942 42.2298 28.854C42.4738 28.762 42.7278 28.716 42.9918 28.716C43.2638 28.716 43.4998 28.764 43.6998 28.86C43.8998 28.956 44.0538 29.094 44.1618 29.274C44.2738 29.45 44.3298 29.658 44.3298 29.898C44.3298 30.022 44.3158 30.142 44.2878 30.258C44.2598 30.374 44.2158 30.49 44.1558 30.606C44.0998 30.718 44.0258 30.834 43.9338 30.954C43.8458 31.074 43.7378 31.202 43.6098 31.338L42.4938 32.49V32.514H44.5038V33H41.7258ZM46.6855 33.054C46.4935 33.054 46.3135 33.034 46.1455 32.994C45.9815 32.954 45.8255 32.894 45.6775 32.814C45.5335 32.734 45.4015 32.638 45.2815 32.526L45.5035 32.088C45.6835 32.26 45.8695 32.384 46.0615 32.46C46.2535 32.532 46.4615 32.568 46.6855 32.568C46.9815 32.568 47.2115 32.494 47.3755 32.346C47.5435 32.194 47.6275 31.978 47.6275 31.698C47.6275 31.422 47.5495 31.204 47.3935 31.044C47.2415 30.884 47.0295 30.804 46.7575 30.804C46.5775 30.804 46.4135 30.84 46.2655 30.912C46.1215 30.98 45.9835 31.1 45.8515 31.272H45.4015V28.77H47.9755V29.256H45.8935V30.792H45.9235C46.0155 30.664 46.1415 30.556 46.3015 30.468C46.4615 30.376 46.6395 30.33 46.8355 30.33C47.1075 30.33 47.3415 30.388 47.5375 30.504C47.7375 30.616 47.8895 30.772 47.9935 30.972C48.1015 31.172 48.1555 31.404 48.1555 31.668C48.1555 31.964 48.0935 32.216 47.9695 32.424C47.8495 32.628 47.6795 32.784 47.4595 32.892C47.2435 33 46.9855 33.054 46.6855 33.054ZM50.2531 33.054C49.9251 33.054 49.6491 32.972 49.4251 32.808C49.2011 32.64 49.0311 32.396 48.9151 32.076C48.8031 31.752 48.7471 31.356 48.7471 30.888C48.7471 30.412 48.8031 30.014 48.9151 29.694C49.0311 29.374 49.2011 29.132 49.4251 28.968C49.6531 28.8 49.9311 28.716 50.2591 28.716C50.5871 28.716 50.8631 28.8 51.0871 28.968C51.3111 29.132 51.4791 29.374 51.5911 29.694C51.7031 30.01 51.7591 30.402 51.7591 30.87C51.7591 31.346 51.7011 31.746 51.5851 32.07C51.4731 32.394 51.3051 32.64 51.0811 32.808C50.8571 32.972 50.5811 33.054 50.2531 33.054ZM50.2531 32.568C50.5771 32.568 50.8191 32.432 50.9791 32.16C51.1391 31.884 51.2191 31.456 51.2191 30.876C51.2191 30.304 51.1391 29.882 50.9791 29.61C50.8231 29.338 50.5831 29.202 50.2591 29.202C49.9311 29.202 49.6871 29.338 49.5271 29.61C49.3671 29.882 49.2871 30.306 49.2871 30.882C49.2871 31.454 49.3651 31.878 49.5211 32.154C49.6811 32.43 49.9251 32.568 50.2531 32.568ZM53.8508 33.054C53.5228 33.054 53.2468 32.972 53.0228 32.808C52.7988 32.64 52.6288 32.396 52.5128 32.076C52.4008 31.752 52.3448 31.356 52.3448 30.888C52.3448 30.412 52.4008 30.014 52.5128 29.694C52.6288 29.374 52.7988 29.132 53.0228 28.968C53.2508 28.8 53.5288 28.716 53.8568 28.716C54.1848 28.716 54.4608 28.8 54.6848 28.968C54.9088 29.132 55.0768 29.374 55.1888 29.694C55.3008 30.01 55.3568 30.402 55.3568 30.87C55.3568 31.346 55.2988 31.746 55.1828 32.07C55.0708 32.394 54.9028 32.64 54.6788 32.808C54.4548 32.972 54.1788 33.054 53.8508 33.054ZM53.8508 32.568C54.1748 32.568 54.4168 32.432 54.5768 32.16C54.7368 31.884 54.8168 31.456 54.8168 30.876C54.8168 30.304 54.7368 29.882 54.5768 29.61C54.4208 29.338 54.1808 29.202 53.8568 29.202C53.5288 29.202 53.2848 29.338 53.1248 29.61C52.9648 29.882 52.8848 30.306 52.8848 30.882C52.8848 31.454 52.9628 31.878 53.1188 32.154C53.2788 32.43 53.5228 32.568 53.8508 32.568ZM57.9647 33V30.012H58.4687V30.648H58.5047C58.6047 30.436 58.7507 30.268 58.9427 30.144C59.1347 30.02 59.3507 29.958 59.5907 29.958C59.8427 29.958 60.0527 30.002 60.2207 30.09C60.3887 30.178 60.5147 30.312 60.5987 30.492C60.6867 30.672 60.7307 30.898 60.7307 31.17V33H60.1727V31.194C60.1727 31.046 60.1507 30.916 60.1067 30.804C60.0627 30.692 59.9887 30.604 59.8847 30.54C59.7847 30.472 59.6467 30.438 59.4707 30.438C59.2907 30.438 59.1287 30.48 58.9847 30.564C58.8407 30.648 58.7267 30.758 58.6427 30.894C58.5627 31.03 58.5227 31.176 58.5227 31.332V33H57.9647ZM63.1989 33.054C62.8909 33.054 62.6229 32.99 62.3949 32.862C62.1709 32.73 61.9969 32.548 61.8729 32.316C61.7529 32.084 61.6929 31.812 61.6929 31.5C61.6929 31.192 61.7529 30.922 61.8729 30.69C61.9969 30.458 62.1709 30.278 62.3949 30.15C62.6229 30.022 62.8909 29.958 63.1989 29.958C63.5109 29.958 63.7769 30.022 63.9969 30.15C64.2209 30.278 64.3949 30.458 64.5189 30.69C64.6429 30.922 64.7049 31.192 64.7049 31.5C64.7049 31.812 64.6429 32.084 64.5189 32.316C64.3989 32.548 64.2269 32.73 64.0029 32.862C63.7789 32.99 63.5109 33.054 63.1989 33.054ZM63.1929 32.568C63.4929 32.568 63.7289 32.47 63.9009 32.274C64.0729 32.078 64.1589 31.82 64.1589 31.5C64.1589 31.176 64.0729 30.918 63.9009 30.726C63.7329 30.534 63.4989 30.438 63.1989 30.438C62.8989 30.438 62.6629 30.534 62.4909 30.726C62.3229 30.918 62.2389 31.176 62.2389 31.5C62.2389 31.82 62.3229 32.078 62.4909 32.274C62.6629 32.47 62.8969 32.568 63.1929 32.568ZM66.8156 33.054C66.6476 33.054 66.4796 33.038 66.3116 33.006C66.1476 32.978 65.9936 32.938 65.8496 32.886C65.7096 32.83 65.5936 32.762 65.5016 32.682L65.6756 32.28C65.7836 32.356 65.8996 32.418 66.0236 32.466C66.1516 32.514 66.2836 32.548 66.4196 32.568C66.5556 32.588 66.6836 32.598 66.8036 32.598C67.0596 32.598 67.2596 32.564 67.4036 32.496C67.5476 32.424 67.6196 32.322 67.6196 32.19C67.6196 32.07 67.5796 31.98 67.4996 31.92C67.4196 31.86 67.2856 31.814 67.0976 31.782L66.4436 31.68C66.1556 31.632 65.9376 31.538 65.7896 31.398C65.6456 31.254 65.5736 31.07 65.5736 30.846C65.5736 30.67 65.6236 30.516 65.7236 30.384C65.8236 30.252 65.9676 30.148 66.1556 30.072C66.3476 29.996 66.5776 29.958 66.8456 29.958C66.9936 29.958 67.1456 29.972 67.3016 30C67.4576 30.024 67.6016 30.064 67.7336 30.12C67.8696 30.176 67.9776 30.244 68.0576 30.324L67.8716 30.72C67.7876 30.644 67.6876 30.584 67.5716 30.54C67.4556 30.496 67.3336 30.464 67.2056 30.444C67.0816 30.424 66.9616 30.414 66.8456 30.414C66.6096 30.414 66.4236 30.45 66.2876 30.522C66.1516 30.594 66.0836 30.698 66.0836 30.834C66.0836 30.95 66.1216 31.038 66.1976 31.098C66.2736 31.154 66.3996 31.198 66.5756 31.23L67.2056 31.338C67.5216 31.39 67.7536 31.484 67.9016 31.62C68.0536 31.756 68.1296 31.942 68.1296 32.178C68.1296 32.354 68.0756 32.508 67.9676 32.64C67.8596 32.772 67.7076 32.874 67.5116 32.946C67.3156 33.018 67.0836 33.054 66.8156 33.054ZM68.8579 33.378L68.4259 33.27L69.9499 28.488L70.3819 28.602L68.8579 33.378ZM71.8833 33.054C71.5713 33.054 71.2993 32.992 71.0673 32.868C70.8393 32.74 70.6613 32.56 70.5333 32.328C70.4053 32.096 70.3413 31.824 70.3413 31.512C70.3413 31.192 70.4053 30.916 70.5333 30.684C70.6613 30.452 70.8413 30.274 71.0733 30.15C71.3053 30.022 71.5773 29.958 71.8893 29.958C72.1053 29.958 72.3073 29.994 72.4953 30.066C72.6833 30.134 72.8373 30.226 72.9573 30.342L72.7653 30.762C72.6493 30.662 72.5173 30.584 72.3693 30.528C72.2253 30.472 72.0813 30.444 71.9373 30.444C71.6173 30.444 71.3633 30.538 71.1753 30.726C70.9913 30.91 70.8993 31.172 70.8993 31.512C70.8993 31.848 70.9913 32.108 71.1753 32.292C71.3633 32.476 71.6153 32.568 71.9313 32.568C72.0753 32.568 72.2193 32.54 72.3633 32.484C72.5073 32.428 72.6333 32.356 72.7413 32.268L72.9393 32.682C72.8233 32.794 72.6733 32.884 72.4893 32.952C72.3053 33.02 72.1033 33.054 71.8833 33.054ZM74.993 33.054C74.629 33.054 74.351 32.958 74.159 32.766C73.971 32.574 73.877 32.304 73.877 31.956V30.48H73.271V30.012H73.907V29.136H74.435V30.012H75.575V30.48H74.435V31.908C74.435 32.136 74.489 32.304 74.597 32.412C74.705 32.516 74.861 32.568 75.065 32.568C75.161 32.568 75.251 32.56 75.335 32.544C75.423 32.524 75.507 32.496 75.587 32.46L75.671 32.904C75.583 32.956 75.477 32.994 75.353 33.018C75.233 33.042 75.113 33.054 74.993 33.054ZM76.41 33V30.012H76.914V30.648H76.95C77.05 30.436 77.196 30.268 77.388 30.144C77.58 30.02 77.796 29.958 78.036 29.958C78.288 29.958 78.498 30.002 78.666 30.09C78.834 30.178 78.96 30.312 79.044 30.492C79.132 30.672 79.176 30.898 79.176 31.17V33H78.618V31.194C78.618 31.046 78.596 30.916 78.552 30.804C78.508 30.692 78.434 30.604 78.33 30.54C78.23 30.472 78.092 30.438 77.916 30.438C77.736 30.438 77.574 30.48 77.43 30.564C77.286 30.648 77.172 30.758 77.088 30.894C77.008 31.03 76.968 31.176 76.968 31.332V33H76.41Z" fill="black"/>
<path d="M16.118 43.054C15.878 43.054 15.65 43.036 15.434 43C15.222 42.968 15.028 42.918 14.852 42.85C14.676 42.778 14.522 42.688 14.39 42.58L14.6 42.118C14.74 42.23 14.89 42.318 15.05 42.382C15.21 42.446 15.378 42.49 15.554 42.514C15.734 42.538 15.922 42.55 16.118 42.55C16.434 42.55 16.682 42.486 16.862 42.358C17.042 42.23 17.132 42.048 17.132 41.812C17.132 41.688 17.102 41.588 17.042 41.512C16.986 41.436 16.896 41.374 16.772 41.326C16.648 41.274 16.49 41.23 16.298 41.194L15.584 41.056C15.188 40.98 14.906 40.846 14.738 40.654C14.57 40.458 14.486 40.216 14.486 39.928C14.486 39.68 14.558 39.466 14.702 39.286C14.846 39.106 15.044 38.966 15.296 38.866C15.552 38.766 15.84 38.716 16.16 38.716C16.364 38.716 16.554 38.736 16.73 38.776C16.906 38.812 17.066 38.866 17.21 38.938C17.358 39.01 17.49 39.102 17.606 39.214L17.396 39.676C17.224 39.504 17.036 39.386 16.832 39.322C16.628 39.254 16.402 39.22 16.154 39.22C15.946 39.22 15.758 39.248 15.59 39.304C15.422 39.356 15.288 39.434 15.188 39.538C15.092 39.642 15.044 39.774 15.044 39.934C15.044 40.106 15.098 40.24 15.206 40.336C15.314 40.432 15.504 40.506 15.776 40.558L16.484 40.696C16.896 40.772 17.2 40.902 17.396 41.086C17.592 41.266 17.69 41.502 17.69 41.794C17.69 42.034 17.624 42.25 17.492 42.442C17.364 42.634 17.182 42.784 16.946 42.892C16.71 43 16.434 43.054 16.118 43.054ZM18.7325 43V38.77H19.2905V43H18.7325ZM20.2888 43V42.634L22.8088 39.004L22.8868 39.268H20.2888V38.77H23.3488V39.13L20.8228 42.766L20.7448 42.502H23.4148V43H20.2888ZM24.3575 43V38.77H27.1595V39.262H24.9155V40.612H27.0335V41.104H24.9155V42.508H27.1595V43H24.3575Z" fill="#CE3439"/>
<path d="M43.548 43.054C43.384 43.054 43.23 43.036 43.086 43C42.942 42.968 42.804 42.918 42.672 42.85C42.544 42.778 42.422 42.686 42.306 42.574L42.516 42.154C42.688 42.322 42.856 42.434 43.02 42.49C43.188 42.542 43.366 42.568 43.554 42.568C43.75 42.568 43.922 42.532 44.07 42.46C44.222 42.384 44.348 42.274 44.448 42.13C44.552 41.982 44.63 41.802 44.682 41.59C44.734 41.374 44.76 41.128 44.76 40.852V40.606H44.73C44.69 40.774 44.616 40.92 44.508 41.044C44.4 41.168 44.268 41.262 44.112 41.326C43.96 41.39 43.794 41.422 43.614 41.422C43.358 41.422 43.13 41.366 42.93 41.254C42.734 41.142 42.58 40.988 42.468 40.792C42.356 40.592 42.3 40.36 42.3 40.096C42.3 39.828 42.358 39.59 42.474 39.382C42.59 39.174 42.752 39.012 42.96 38.896C43.168 38.776 43.402 38.716 43.662 38.716C44.014 38.716 44.308 38.798 44.544 38.962C44.784 39.122 44.962 39.356 45.078 39.664C45.198 39.972 45.258 40.35 45.258 40.798C45.258 41.278 45.19 41.686 45.054 42.022C44.922 42.358 44.728 42.614 44.472 42.79C44.22 42.966 43.912 43.054 43.548 43.054ZM43.692 40.966C43.868 40.966 44.024 40.928 44.16 40.852C44.296 40.776 44.402 40.672 44.478 40.54C44.554 40.404 44.592 40.252 44.592 40.084C44.592 39.896 44.554 39.736 44.478 39.604C44.406 39.472 44.302 39.37 44.166 39.298C44.03 39.226 43.868 39.19 43.68 39.19C43.508 39.19 43.356 39.228 43.224 39.304C43.092 39.38 42.99 39.484 42.918 39.616C42.85 39.748 42.816 39.904 42.816 40.084C42.816 40.256 42.852 40.41 42.924 40.546C42.996 40.678 43.098 40.782 43.23 40.858C43.362 40.93 43.516 40.966 43.692 40.966ZM46.0477 43V42.526H47.3077V39.196L47.6017 39.256L46.2637 40.12L46.0177 39.688L47.4457 38.77H47.8537V42.526H48.9997V43H46.0477ZM51.4993 43V42.136H49.5073V41.722L51.4093 38.77H52.0153V41.68H52.5733V42.136H52.0153V43H51.4993ZM51.5173 41.68V39.46H51.4873L50.0053 41.758L49.9333 41.68H51.5173ZM54.7192 43L56.2252 40.726L56.2312 40.93L54.8092 38.77H55.4452L56.5852 40.51H56.6152L57.7612 38.77H58.3972L56.9632 40.93V40.72L58.4812 43H57.8392L56.6092 41.14H56.5792L55.3552 43H54.7192ZM62.7142 43V42.136H60.7222V41.722L62.6242 38.77H63.2302V41.68H63.7882V42.136H63.2302V43H62.7142ZM62.7322 41.68V39.46H62.7022L61.2202 41.758L61.1482 41.68H62.7322ZM64.4578 43V42.526H65.7178V39.196L66.0118 39.256L64.6738 40.12L64.4278 39.688L65.8558 38.77H66.2638V42.526H67.4098V43H64.4578ZM68.0735 43V42.592L69.5795 41.032C69.7275 40.88 69.8415 40.744 69.9215 40.624C70.0015 40.5 70.0575 40.382 70.0895 40.27C70.1215 40.158 70.1375 40.044 70.1375 39.928C70.1375 39.696 70.0615 39.518 69.9095 39.394C69.7575 39.266 69.5555 39.202 69.3035 39.202C69.1075 39.202 68.9095 39.24 68.7095 39.316C68.5135 39.392 68.3275 39.516 68.1515 39.688L67.9355 39.25C68.1235 39.074 68.3375 38.942 68.5775 38.854C68.8215 38.762 69.0755 38.716 69.3395 38.716C69.6115 38.716 69.8475 38.764 70.0475 38.86C70.2475 38.956 70.4015 39.094 70.5095 39.274C70.6215 39.45 70.6775 39.658 70.6775 39.898C70.6775 40.022 70.6635 40.142 70.6355 40.258C70.6075 40.374 70.5635 40.49 70.5035 40.606C70.4475 40.718 70.3735 40.834 70.2815 40.954C70.1935 41.074 70.0855 41.202 69.9575 41.338L68.8415 42.49V42.514H70.8515V43H68.0735ZM71.6591 43V42.322H72.3851V43H71.6591ZM73.5158 43L75.5798 38.986L75.6158 39.268H73.2218V38.77H76.0598V39.19L74.1098 43H73.5158ZM78.2714 43.054C78.0794 43.054 77.8994 43.034 77.7314 42.994C77.5674 42.954 77.4114 42.894 77.2634 42.814C77.1194 42.734 76.9874 42.638 76.8674 42.526L77.0894 42.088C77.2694 42.26 77.4554 42.384 77.6474 42.46C77.8394 42.532 78.0474 42.568 78.2714 42.568C78.5674 42.568 78.7974 42.494 78.9614 42.346C79.1294 42.194 79.2134 41.978 79.2134 41.698C79.2134 41.422 79.1354 41.204 78.9794 41.044C78.8274 40.884 78.6154 40.804 78.3434 40.804C78.1634 40.804 77.9994 40.84 77.8514 40.912C77.7074 40.98 77.5694 41.1 77.4374 41.272H76.9874V38.77H79.5614V39.256H77.4794V40.792H77.5094C77.6014 40.664 77.7274 40.556 77.8874 40.468C78.0474 40.376 78.2254 40.33 78.4214 40.33C78.6934 40.33 78.9274 40.388 79.1234 40.504C79.3234 40.616 79.4754 40.772 79.5794 40.972C79.6874 41.172 79.7414 41.404 79.7414 41.668C79.7414 41.964 79.6794 42.216 79.5554 42.424C79.4354 42.628 79.2654 42.784 79.0454 42.892C78.8294 43 78.5714 43.054 78.2714 43.054ZM81.9653 43L83.4713 40.726L83.4773 40.93L82.0553 38.77H82.6913L83.8313 40.51H83.8613L85.0073 38.77H85.6433L84.2093 40.93V40.72L85.7273 43H85.0853L83.8553 41.14H83.8253L82.6013 43H81.9653ZM89.9603 43V42.136H87.9683V41.722L89.8703 38.77H90.4763V41.68H91.0343V42.136H90.4763V43H89.9603ZM89.9783 41.68V39.46H89.9483L88.4663 41.758L88.3943 41.68H89.9783ZM93.0539 43.054C92.7259 43.054 92.4499 42.972 92.2259 42.808C92.0019 42.64 91.8319 42.396 91.7159 42.076C91.6039 41.752 91.5479 41.356 91.5479 40.888C91.5479 40.412 91.6039 40.014 91.7159 39.694C91.8319 39.374 92.0019 39.132 92.2259 38.968C92.4539 38.8 92.7319 38.716 93.0599 38.716C93.3879 38.716 93.6639 38.8 93.8879 38.968C94.1119 39.132 94.2799 39.374 94.3919 39.694C94.5039 40.01 94.5599 40.402 94.5599 40.87C94.5599 41.346 94.5019 41.746 94.3859 42.07C94.2739 42.394 94.1059 42.64 93.8819 42.808C93.6579 42.972 93.3819 43.054 93.0539 43.054ZM93.0539 42.568C93.3779 42.568 93.6199 42.432 93.7799 42.16C93.9399 41.884 94.0199 41.456 94.0199 40.876C94.0199 40.304 93.9399 39.882 93.7799 39.61C93.6239 39.338 93.3839 39.202 93.0599 39.202C92.7319 39.202 92.4879 39.338 92.3279 39.61C92.1679 39.882 92.0879 40.306 92.0879 40.882C92.0879 41.454 92.1659 41.878 92.3219 42.154C92.4819 42.43 92.7259 42.568 93.0539 42.568ZM96.6516 43.054C96.3236 43.054 96.0476 42.972 95.8236 42.808C95.5996 42.64 95.4296 42.396 95.3136 42.076C95.2016 41.752 95.1456 41.356 95.1456 40.888C95.1456 40.412 95.2016 40.014 95.3136 39.694C95.4296 39.374 95.5996 39.132 95.8236 38.968C96.0516 38.8 96.3296 38.716 96.6576 38.716C96.9856 38.716 97.2616 38.8 97.4856 38.968C97.7096 39.132 97.8776 39.374 97.9896 39.694C98.1016 40.01 98.1576 40.402 98.1576 40.87C98.1576 41.346 98.0996 41.746 97.9836 42.07C97.8716 42.394 97.7036 42.64 97.4796 42.808C97.2556 42.972 96.9796 43.054 96.6516 43.054ZM96.6516 42.568C96.9756 42.568 97.2176 42.432 97.3776 42.16C97.5376 41.884 97.6176 41.456 97.6176 40.876C97.6176 40.304 97.5376 39.882 97.3776 39.61C97.2216 39.338 96.9816 39.202 96.6576 39.202C96.3296 39.202 96.0856 39.338 95.9256 39.61C95.7656 39.882 95.6856 40.306 95.6856 40.882C95.6856 41.454 95.7636 41.878 95.9196 42.154C96.0796 42.43 96.3236 42.568 96.6516 42.568Z" fill="black"/>
<path d="M15.608 53L14.312 48.77H14.906L15.908 52.244H15.932L17.12 48.77H17.576L18.752 52.244H18.782L19.796 48.77H20.36L19.064 53H18.518L17.354 49.592H17.324L16.142 53H15.608ZM21.3517 53V48.77H24.1537V49.262H21.9097V50.612H24.0277V51.104H21.9097V52.508H24.1537V53H21.3517ZM25.3419 53V48.77H25.8999V53H25.3419ZM29.1662 53.054C28.7302 53.054 28.3542 52.97 28.0382 52.802C27.7262 52.63 27.4862 52.382 27.3182 52.058C27.1502 51.734 27.0662 51.342 27.0662 50.882C27.0662 50.43 27.1482 50.042 27.3122 49.718C27.4762 49.394 27.7102 49.146 28.0142 48.974C28.3222 48.802 28.6862 48.716 29.1062 48.716C29.3222 48.716 29.5262 48.736 29.7182 48.776C29.9102 48.816 30.0862 48.876 30.2462 48.956C30.4102 49.032 30.5482 49.128 30.6602 49.244L30.4502 49.67C30.2662 49.51 30.0622 49.396 29.8382 49.328C29.6182 49.256 29.3742 49.22 29.1062 49.22C28.6462 49.22 28.2862 49.36 28.0262 49.64C27.7702 49.92 27.6422 50.334 27.6422 50.882C27.6422 51.45 27.7762 51.872 28.0442 52.148C28.3122 52.424 28.6962 52.562 29.1962 52.562C29.4322 52.562 29.6502 52.546 29.8502 52.514C30.0502 52.478 30.2282 52.426 30.3842 52.358L30.2102 52.682V51.224H29.1602V50.738H30.7202V52.754C30.6082 52.81 30.4662 52.862 30.2942 52.91C30.1222 52.954 29.9382 52.988 29.7422 53.012C29.5502 53.04 29.3582 53.054 29.1662 53.054ZM32.004 53V48.77H32.562V50.6H35.004V48.77H35.562V53H35.004V51.098H32.562V53H32.004ZM37.9343 53V49.268H36.4163V48.77H40.0103V49.268H38.4923V53H37.9343Z" fill="#CE3439"/>
<path d="M42.8494 53V52.526H44.1094V49.196L44.4034 49.256L43.0654 50.12L42.8194 49.688L44.2474 48.77H44.6554V52.526H45.8014V53H42.8494ZM47.7971 53.054C47.3251 53.054 46.9511 52.952 46.6751 52.748C46.4031 52.54 46.2671 52.252 46.2671 51.884C46.2671 51.7 46.3031 51.538 46.3751 51.398C46.4471 51.254 46.5471 51.136 46.6751 51.044C46.8031 50.952 46.9511 50.888 47.1191 50.852V50.822C46.9791 50.782 46.8511 50.716 46.7351 50.624C46.6231 50.528 46.5331 50.414 46.4651 50.282C46.3971 50.15 46.3631 50.004 46.3631 49.844C46.3631 49.496 46.4931 49.222 46.7531 49.022C47.0171 48.818 47.3651 48.716 47.7971 48.716C48.2291 48.716 48.5751 48.818 48.8351 49.022C49.0991 49.222 49.2311 49.496 49.2311 49.844C49.2311 50 49.1951 50.146 49.1231 50.282C49.0551 50.414 48.9631 50.528 48.8471 50.624C48.7351 50.716 48.6091 50.782 48.4691 50.822V50.852C48.6291 50.884 48.7731 50.948 48.9011 51.044C49.0291 51.136 49.1311 51.254 49.2071 51.398C49.2871 51.538 49.3271 51.7 49.3271 51.884C49.3271 52.252 49.1911 52.54 48.9191 52.748C48.6471 52.952 48.2731 53.054 47.7971 53.054ZM47.7971 52.586C48.1251 52.586 48.3771 52.522 48.5531 52.394C48.7291 52.266 48.8171 52.082 48.8171 51.842C48.8171 51.602 48.7291 51.416 48.5531 51.284C48.3771 51.152 48.1251 51.086 47.7971 51.086C47.4691 51.086 47.2171 51.152 47.0411 51.284C46.8651 51.416 46.7771 51.602 46.7771 51.842C46.7771 52.082 46.8651 52.266 47.0411 52.394C47.2171 52.522 47.4691 52.586 47.7971 52.586ZM47.7971 50.618C48.0811 50.618 48.3051 50.554 48.4691 50.426C48.6331 50.298 48.7151 50.12 48.7151 49.892C48.7151 49.668 48.6331 49.494 48.4691 49.37C48.3051 49.242 48.0811 49.178 47.7971 49.178C47.5131 49.178 47.2891 49.242 47.1251 49.37C46.9611 49.494 46.8791 49.668 46.8791 49.892C46.8791 50.12 46.9611 50.298 47.1251 50.426C47.2891 50.554 47.5131 50.618 47.7971 50.618ZM51.0467 54.152C50.7467 53.724 50.5247 53.286 50.3807 52.838C50.2407 52.39 50.1707 51.918 50.1707 51.422C50.1707 50.93 50.2407 50.46 50.3807 50.012C50.5247 49.564 50.7467 49.124 51.0467 48.692L51.4487 48.83C51.2847 49.114 51.1467 49.4 51.0347 49.688C50.9267 49.972 50.8467 50.258 50.7947 50.546C50.7427 50.834 50.7167 51.126 50.7167 51.422C50.7167 51.714 50.7427 52.006 50.7947 52.298C50.8467 52.586 50.9267 52.872 51.0347 53.156C51.1467 53.44 51.2847 53.726 51.4487 54.014L51.0467 54.152ZM52.4383 53V48.77H52.9963V51.344H53.0203L54.3463 50.012H55.0243L53.4403 51.578L53.4583 51.35L55.1863 53H54.4843L53.0203 51.626H52.9963V53H52.4383ZM56.9918 54.128C56.7638 54.128 56.5298 54.094 56.2898 54.026C56.0538 53.958 55.8538 53.864 55.6898 53.744L55.8638 53.3C55.9718 53.372 56.0878 53.434 56.2118 53.486C56.3398 53.538 56.4698 53.578 56.6018 53.606C56.7378 53.634 56.8658 53.648 56.9858 53.648C57.3098 53.648 57.5638 53.568 57.7478 53.408C57.9358 53.248 58.0298 53.026 58.0298 52.742V52.262H57.9818C57.9018 52.45 57.7698 52.606 57.5858 52.73C57.4058 52.85 57.1938 52.91 56.9498 52.91C56.6618 52.91 56.4118 52.85 56.1998 52.73C55.9878 52.606 55.8218 52.434 55.7018 52.214C55.5858 51.99 55.5278 51.73 55.5278 51.434C55.5278 51.138 55.5858 50.88 55.7018 50.66C55.8218 50.436 55.9878 50.264 56.1998 50.144C56.4118 50.02 56.6618 49.958 56.9498 49.958C57.1938 49.958 57.4078 50.02 57.5918 50.144C57.7798 50.268 57.9158 50.434 57.9998 50.642H58.0298V50.012H58.5458V52.7C58.5458 52.988 58.4818 53.238 58.3538 53.45C58.2258 53.666 58.0458 53.832 57.8138 53.948C57.5818 54.068 57.3078 54.128 56.9918 54.128ZM57.0398 52.448C57.3358 52.448 57.5698 52.356 57.7418 52.172C57.9138 51.984 57.9998 51.736 57.9998 51.428C57.9998 51.124 57.9138 50.88 57.7418 50.696C57.5698 50.512 57.3358 50.42 57.0398 50.42C56.7478 50.42 56.5138 50.512 56.3378 50.696C56.1658 50.88 56.0798 51.124 56.0798 51.428C56.0798 51.736 56.1658 51.984 56.3378 52.172C56.5138 52.356 56.7478 52.448 57.0398 52.448ZM60.8381 53.054C60.6701 53.054 60.5021 53.038 60.3341 53.006C60.1701 52.978 60.0161 52.938 59.8721 52.886C59.7321 52.83 59.6161 52.762 59.5241 52.682L59.6981 52.28C59.8061 52.356 59.9221 52.418 60.0461 52.466C60.1741 52.514 60.3061 52.548 60.4421 52.568C60.5781 52.588 60.7061 52.598 60.8261 52.598C61.0821 52.598 61.2821 52.564 61.4261 52.496C61.5701 52.424 61.6421 52.322 61.6421 52.19C61.6421 52.07 61.6021 51.98 61.5221 51.92C61.4421 51.86 61.3081 51.814 61.1201 51.782L60.4661 51.68C60.1781 51.632 59.9601 51.538 59.8121 51.398C59.6681 51.254 59.5961 51.07 59.5961 50.846C59.5961 50.67 59.6461 50.516 59.7461 50.384C59.8461 50.252 59.9901 50.148 60.1781 50.072C60.3701 49.996 60.6001 49.958 60.8681 49.958C61.0161 49.958 61.1681 49.972 61.3241 50C61.4801 50.024 61.6241 50.064 61.7561 50.12C61.8921 50.176 62.0001 50.244 62.0801 50.324L61.8941 50.72C61.8101 50.644 61.7101 50.584 61.5941 50.54C61.4781 50.496 61.3561 50.464 61.2281 50.444C61.1041 50.424 60.9841 50.414 60.8681 50.414C60.6321 50.414 60.4461 50.45 60.3101 50.522C60.1741 50.594 60.1061 50.698 60.1061 50.834C60.1061 50.95 60.1441 51.038 60.2201 51.098C60.2961 51.154 60.4221 51.198 60.5981 51.23L61.2281 51.338C61.5441 51.39 61.7761 51.484 61.9241 51.62C62.0761 51.756 62.1521 51.942 62.1521 52.178C62.1521 52.354 62.0981 52.508 61.9901 52.64C61.8821 52.772 61.7301 52.874 61.5341 52.946C61.3381 53.018 61.1061 53.054 60.8381 53.054ZM63.1504 54.152L62.7484 54.014C62.9164 53.726 63.0544 53.44 63.1624 53.156C63.2704 52.872 63.3504 52.586 63.4024 52.298C63.4544 52.006 63.4804 51.714 63.4804 51.422C63.4804 51.126 63.4544 50.834 63.4024 50.546C63.3504 50.258 63.2704 49.972 63.1624 49.688C63.0544 49.4 62.9164 49.114 62.7484 48.83L63.1504 48.692C63.4504 49.12 63.6704 49.558 63.8104 50.006C63.9544 50.454 64.0264 50.926 64.0264 51.422C64.0264 51.914 63.9544 52.384 63.8104 52.832C63.6704 53.28 63.4504 53.72 63.1504 54.152Z" fill="black"/>
<defs>
<filter id="filter0_d_235_234" x="0.0999999" y="20" width="113.8" height="46.9" filterUnits="userSpaceOnUse" color-interpolation-filters="sRGB">
<feFlood flood-opacity="0" result="BackgroundImageFix"/>
<feColorMatrix in="SourceAlpha" type="matrix" values="0 0 0 0 0 0 0 0 0 0 0 0 0 0 0 0 0 0 127 0" result="hardAlpha"/>
<feOffset dy="4"/>
<feGaussianBlur stdDeviation="1.95"/>
<feComposite in2="hardAlpha" operator="out"/>
<feColorMatrix type="matrix" values="0 0 0 0 0 0 0 0 0 0 0 0 0 0 0 0 0 0 0.2 0"/>
<feBlend mode="normal" in2="BackgroundImageFix" result="effect1_dropShadow_235_234"/>
<feBlend mode="normal" in="SourceGraphic" in2="effect1_dropShadow_235_234" result="shape"/>
</filter>
<clipPath id="clip0_235_234">
<rect width="18" height="18" fill="white" transform="translate(47 2)"/>
</clipPath>
</defs>
</svg>
