<svg width="76" height="67" viewBox="0 0 76 67" fill="none" xmlns="http://www.w3.org/2000/svg">
<g filter="url(#filter0_d_235_175)">
<rect x="4" y="20" width="68" height="39" rx="2" fill="white"/>
<rect x="4.25" y="20.25" width="67.5" height="38.5" rx="1.75" stroke="white" stroke-width="0.5"/>
</g>
<rect x="25" width="25" height="25" rx="3" fill="#CB3335"/>
<g clip-path="url(#clip0_235_175)">
<path d="M43.8338 14.75L41.6463 10.375H42.25C42.366 10.375 42.4773 10.3289 42.5594 10.2469C42.6414 10.1648 42.6875 10.0535 42.6875 9.9375C42.6875 9.82147 42.6414 9.71019 42.5594 9.62814C42.4773 9.54609 42.366 9.5 42.25 9.5H41.5588C41.0887 8.98804 40.5224 8.57382 39.8921 8.28104C39.2618 7.98825 38.5799 7.82267 37.8855 7.79375L37.875 7.75C37.875 7.51794 37.7828 7.29538 37.6187 7.13128C37.4546 6.96719 37.2321 6.875 37 6.875C36.7679 6.875 36.5454 6.96719 36.3813 7.13128C36.2172 7.29538 36.125 7.51794 36.125 7.75V7.79375C34.7109 7.85255 33.3764 8.46434 32.4089 9.49737L31.75 9.5C31.634 9.5 31.5227 9.54609 31.4406 9.62814C31.3586 9.71019 31.3125 9.82147 31.3125 9.9375C31.3125 10.0535 31.3586 10.1648 31.4406 10.2469C31.5227 10.3289 31.634 10.375 31.75 10.375H32.3538L30.1662 14.75H30C30 15.7125 31.1725 16.5 32.625 16.5C34.0775 16.5 35.25 15.7125 35.25 14.75H35.0837L32.8525 10.2962C32.9078 10.2638 32.9553 10.2196 32.9916 10.1668C33.3786 9.71203 33.8573 9.34427 34.3964 9.08761C34.9355 8.83095 35.5228 8.69119 36.1197 8.6775L36.125 18.25H35.25V19.125H33.5V20H40.5V19.125H38.75V18.25H37.875V8.6775C38.4652 8.68866 39.046 8.82674 39.5781 9.08236C40.1102 9.33797 40.581 9.70513 40.9585 10.1589C40.9989 10.2275 41.0573 10.2838 41.1274 10.3216L38.9162 14.75H38.75C38.75 15.7125 39.9225 16.5 41.375 16.5C42.8275 16.5 44 15.7125 44 14.75H43.8338ZM34.375 14.75H30.875L32.625 11.3025L34.375 14.75ZM39.625 14.75L41.375 11.3025L43.125 14.75H39.625Z" fill="white"/>
</g>
<rect width="33.5" height="16" transform="translate(22 31)" fill="white"/>
<path d="M24.858 37L23.562 32.77H24.156L25.158 36.244H25.182L26.37 32.77H26.826L28.002 36.244H28.032L29.046 32.77H29.61L28.314 37H27.768L26.604 33.592H26.574L25.392 37H24.858ZM30.6017 37V32.77H33.4037V33.262H31.1597V34.612H33.2777V35.104H31.1597V36.508H33.4037V37H30.6017ZM34.5919 37V32.77H35.1499V37H34.5919ZM38.4162 37.054C37.9802 37.054 37.6042 36.97 37.2882 36.802C36.9762 36.63 36.7362 36.382 36.5682 36.058C36.4002 35.734 36.3162 35.342 36.3162 34.882C36.3162 34.43 36.3982 34.042 36.5622 33.718C36.7262 33.394 36.9602 33.146 37.2642 32.974C37.5722 32.802 37.9362 32.716 38.3562 32.716C38.5722 32.716 38.7762 32.736 38.9682 32.776C39.1602 32.816 39.3362 32.876 39.4962 32.956C39.6602 33.032 39.7982 33.128 39.9102 33.244L39.7002 33.67C39.5162 33.51 39.3122 33.396 39.0882 33.328C38.8682 33.256 38.6242 33.22 38.3562 33.22C37.8962 33.22 37.5362 33.36 37.2762 33.64C37.0202 33.92 36.8922 34.334 36.8922 34.882C36.8922 35.45 37.0262 35.872 37.2942 36.148C37.5622 36.424 37.9462 36.562 38.4462 36.562C38.6822 36.562 38.9002 36.546 39.1002 36.514C39.3002 36.478 39.4782 36.426 39.6342 36.358L39.4602 36.682V35.224H38.4102V34.738H39.9702V36.754C39.8582 36.81 39.7162 36.862 39.5442 36.91C39.3722 36.954 39.1882 36.988 38.9922 37.012C38.8002 37.04 38.6082 37.054 38.4162 37.054ZM41.254 37V32.77H41.812V34.6H44.254V32.77H44.812V37H44.254V35.098H41.812V37H41.254ZM47.1843 37V33.268H45.6663V32.77H49.2603V33.268H47.7423V37H47.1843Z" fill="#CE3439"/>
<path d="M24.304 47V46.136H22.312V45.722L24.214 42.77H24.82V45.68H25.378V46.136H24.82V47H24.304ZM24.322 45.68V43.46H24.292L22.81 45.758L22.738 45.68H24.322ZM26.0537 47V46.322H26.7797V47H26.0537ZM27.6883 47V46.526H28.9483V43.196L29.2423 43.256L27.9043 44.12L27.6583 43.688L29.0863 42.77H29.4943V46.526H30.6403V47H27.6883ZM32.6359 47.054C32.3079 47.054 32.0319 46.972 31.8079 46.808C31.5839 46.64 31.4139 46.396 31.2979 46.076C31.1859 45.752 31.1299 45.356 31.1299 44.888C31.1299 44.412 31.1859 44.014 31.2979 43.694C31.4139 43.374 31.5839 43.132 31.8079 42.968C32.0359 42.8 32.3139 42.716 32.6419 42.716C32.9699 42.716 33.2459 42.8 33.4699 42.968C33.6939 43.132 33.8619 43.374 33.9739 43.694C34.0859 44.01 34.1419 44.402 34.1419 44.87C34.1419 45.346 34.0839 45.746 33.9679 46.07C33.8559 46.394 33.6879 46.64 33.4639 46.808C33.2399 46.972 32.9639 47.054 32.6359 47.054ZM32.6359 46.568C32.9599 46.568 33.2019 46.432 33.3619 46.16C33.5219 45.884 33.6019 45.456 33.6019 44.876C33.6019 44.304 33.5219 43.882 33.3619 43.61C33.2059 43.338 32.9659 43.202 32.6419 43.202C32.3139 43.202 32.0699 43.338 31.9099 43.61C31.7499 43.882 31.6699 44.306 31.6699 44.882C31.6699 45.454 31.7479 45.878 31.9039 46.154C32.0639 46.43 32.3079 46.568 32.6359 46.568ZM37.6258 48.152C37.3258 47.724 37.1038 47.286 36.9598 46.838C36.8198 46.39 36.7498 45.918 36.7498 45.422C36.7498 44.93 36.8198 44.46 36.9598 44.012C37.1038 43.564 37.3258 43.124 37.6258 42.692L38.0278 42.83C37.8638 43.114 37.7258 43.4 37.6138 43.688C37.5058 43.972 37.4258 44.258 37.3738 44.546C37.3218 44.834 37.2958 45.126 37.2958 45.422C37.2958 45.714 37.3218 46.006 37.3738 46.298C37.4258 46.586 37.5058 46.872 37.6138 47.156C37.7258 47.44 37.8638 47.726 38.0278 48.014L37.6258 48.152ZM40.0495 48.128C39.8215 48.128 39.5875 48.094 39.3475 48.026C39.1115 47.958 38.9115 47.864 38.7475 47.744L38.9215 47.3C39.0295 47.372 39.1455 47.434 39.2695 47.486C39.3975 47.538 39.5275 47.578 39.6595 47.606C39.7955 47.634 39.9235 47.648 40.0435 47.648C40.3675 47.648 40.6215 47.568 40.8055 47.408C40.9935 47.248 41.0875 47.026 41.0875 46.742V46.262H41.0395C40.9595 46.45 40.8275 46.606 40.6435 46.73C40.4635 46.85 40.2515 46.91 40.0075 46.91C39.7195 46.91 39.4695 46.85 39.2575 46.73C39.0455 46.606 38.8795 46.434 38.7595 46.214C38.6435 45.99 38.5855 45.73 38.5855 45.434C38.5855 45.138 38.6435 44.88 38.7595 44.66C38.8795 44.436 39.0455 44.264 39.2575 44.144C39.4695 44.02 39.7195 43.958 40.0075 43.958C40.2515 43.958 40.4655 44.02 40.6495 44.144C40.8375 44.268 40.9735 44.434 41.0575 44.642H41.0875V44.012H41.6035V46.7C41.6035 46.988 41.5395 47.238 41.4115 47.45C41.2835 47.666 41.1035 47.832 40.8715 47.948C40.6395 48.068 40.3655 48.128 40.0495 48.128ZM40.0975 46.448C40.3935 46.448 40.6275 46.356 40.7995 46.172C40.9715 45.984 41.0575 45.736 41.0575 45.428C41.0575 45.124 40.9715 44.88 40.7995 44.696C40.6275 44.512 40.3935 44.42 40.0975 44.42C39.8055 44.42 39.5715 44.512 39.3955 44.696C39.2235 44.88 39.1375 45.124 39.1375 45.428C39.1375 45.736 39.2235 45.984 39.3955 46.172C39.5715 46.356 39.8055 46.448 40.0975 46.448ZM42.7557 47V44.012H43.2477V44.69H43.2837C43.3597 44.482 43.4897 44.314 43.6737 44.186C43.8577 44.058 44.0757 43.988 44.3277 43.976L44.6457 43.958L44.6997 44.48L44.2077 44.516C43.9277 44.54 43.7077 44.634 43.5477 44.798C43.3917 44.958 43.3137 45.15 43.3137 45.374V47H42.7557ZM45.4571 47V44.012H45.9491V44.654H45.9851C46.0371 44.534 46.1111 44.422 46.2071 44.318C46.3031 44.21 46.4191 44.124 46.5551 44.06C46.6911 43.992 46.8411 43.958 47.0051 43.958C47.2691 43.958 47.4871 44.026 47.6591 44.162C47.8351 44.294 47.9431 44.454 47.9831 44.642H48.0131C48.0931 44.458 48.2171 44.298 48.3851 44.162C48.5571 44.026 48.7791 43.958 49.0511 43.958C49.2791 43.958 49.4731 44.002 49.6331 44.09C49.7971 44.178 49.9211 44.312 50.0051 44.492C50.0931 44.668 50.1371 44.894 50.1371 45.17V47H49.5851V45.212C49.5851 44.96 49.5391 44.768 49.4471 44.636C49.3551 44.504 49.1851 44.438 48.9371 44.438C48.7531 44.438 48.5951 44.48 48.4631 44.564C48.3311 44.644 48.2311 44.752 48.1631 44.888C48.0991 45.024 48.0671 45.174 48.0671 45.338V47H47.5211V45.212C47.5211 44.968 47.4651 44.778 47.3531 44.642C47.2411 44.506 47.0831 44.438 46.8791 44.438C46.6991 44.438 46.5431 44.484 46.4111 44.576C46.2791 44.668 46.1771 44.782 46.1051 44.918C46.0371 45.054 46.0031 45.188 46.0031 45.32V47H45.4571ZM51.3349 48.152L50.9329 48.014C51.1009 47.726 51.2389 47.44 51.3469 47.156C51.4549 46.872 51.5349 46.586 51.5869 46.298C51.6389 46.006 51.6649 45.714 51.6649 45.422C51.6649 45.126 51.6389 44.834 51.5869 44.546C51.5349 44.258 51.4549 43.972 51.3469 43.688C51.2389 43.4 51.1009 43.114 50.9329 42.83L51.3349 42.692C51.6349 43.12 51.8549 43.558 51.9949 44.006C52.1389 44.454 52.2109 44.926 52.2109 45.422C52.2109 45.914 52.1389 46.384 51.9949 46.832C51.8549 47.28 51.6349 47.72 51.3349 48.152Z" fill="black"/>
<defs>
<filter id="filter0_d_235_175" x="0.0999999" y="20" width="75.8" height="46.9" filterUnits="userSpaceOnUse" color-interpolation-filters="sRGB">
<feFlood flood-opacity="0" result="BackgroundImageFix"/>
<feColorMatrix in="SourceAlpha" type="matrix" values="0 0 0 0 0 0 0 0 0 0 0 0 0 0 0 0 0 0 127 0" result="hardAlpha"/>
<feOffset dy="4"/>
<feGaussianBlur stdDeviation="1.95"/>
<feComposite in2="hardAlpha" operator="out"/>
<feColorMatrix type="matrix" values="0 0 0 0 0 0 0 0 0 0 0 0 0 0 0 0 0 0 0.2 0"/>
<feBlend mode="normal" in2="BackgroundImageFix" result="effect1_dropShadow_235_175"/>
<feBlend mode="normal" in="SourceGraphic" in2="effect1_dropShadow_235_175" result="shape"/>
</filter>
<clipPath id="clip0_235_175">
<rect width="14" height="14" fill="white" transform="translate(30 6)"/>
</clipPath>
</defs>
</svg>
