<svg width="76" height="67" viewBox="0 0 76 67" fill="none" xmlns="http://www.w3.org/2000/svg">
<g filter="url(#filter0_d_235_193)">
<rect x="4" y="20" width="68" height="39" rx="2" fill="#EBDBBA"/>
<rect x="4.25" y="20.25" width="67.5" height="38.5" rx="1.75" stroke="white" stroke-width="0.5"/>
</g>
<rect x="25" width="25" height="25" rx="3" fill="#CB3335"/>
<g clip-path="url(#clip0_235_193)">
<path d="M43.8338 14.75L41.6463 10.375H42.25C42.366 10.375 42.4773 10.3289 42.5594 10.2469C42.6414 10.1648 42.6875 10.0535 42.6875 9.9375C42.6875 9.82147 42.6414 9.71019 42.5594 9.62814C42.4773 9.54609 42.366 9.5 42.25 9.5H41.5588C41.0887 8.98804 40.5224 8.57382 39.8921 8.28104C39.2618 7.98825 38.5799 7.82267 37.8855 7.79375L37.875 7.75C37.875 7.51794 37.7828 7.29538 37.6187 7.13128C37.4546 6.96719 37.2321 6.875 37 6.875C36.7679 6.875 36.5454 6.96719 36.3813 7.13128C36.2172 7.29538 36.125 7.51794 36.125 7.75V7.79375C34.7109 7.85255 33.3764 8.46434 32.4089 9.49737L31.75 9.5C31.634 9.5 31.5227 9.54609 31.4406 9.62814C31.3586 9.71019 31.3125 9.82147 31.3125 9.9375C31.3125 10.0535 31.3586 10.1648 31.4406 10.2469C31.5227 10.3289 31.634 10.375 31.75 10.375H32.3538L30.1662 14.75H30C30 15.7125 31.1725 16.5 32.625 16.5C34.0775 16.5 35.25 15.7125 35.25 14.75H35.0837L32.8525 10.2962C32.9078 10.2638 32.9553 10.2196 32.9916 10.1668C33.3786 9.71203 33.8573 9.34427 34.3964 9.08761C34.9355 8.83095 35.5228 8.69119 36.1197 8.6775L36.125 18.25H35.25V19.125H33.5V20H40.5V19.125H38.75V18.25H37.875V8.6775C38.4652 8.68866 39.046 8.82674 39.5781 9.08236C40.1102 9.33797 40.581 9.70513 40.9585 10.1589C40.9989 10.2275 41.0573 10.2838 41.1274 10.3216L38.9162 14.75H38.75C38.75 15.7125 39.9225 16.5 41.375 16.5C42.8275 16.5 44 15.7125 44 14.75H43.8338ZM34.375 14.75H30.875L32.625 11.3025L34.375 14.75ZM39.625 14.75L41.375 11.3025L43.125 14.75H39.625Z" fill="white"/>
</g>
<path d="M24.858 37L23.562 32.77H24.156L25.158 36.244H25.182L26.37 32.77H26.826L28.002 36.244H28.032L29.046 32.77H29.61L28.314 37H27.768L26.604 33.592H26.574L25.392 37H24.858ZM30.6017 37V32.77H33.4037V33.262H31.1597V34.612H33.2777V35.104H31.1597V36.508H33.4037V37H30.6017ZM34.5919 37V32.77H35.1499V37H34.5919ZM38.4162 37.054C37.9802 37.054 37.6042 36.97 37.2882 36.802C36.9762 36.63 36.7362 36.382 36.5682 36.058C36.4002 35.734 36.3162 35.342 36.3162 34.882C36.3162 34.43 36.3982 34.042 36.5622 33.718C36.7262 33.394 36.9602 33.146 37.2642 32.974C37.5722 32.802 37.9362 32.716 38.3562 32.716C38.5722 32.716 38.7762 32.736 38.9682 32.776C39.1602 32.816 39.3362 32.876 39.4962 32.956C39.6602 33.032 39.7982 33.128 39.9102 33.244L39.7002 33.67C39.5162 33.51 39.3122 33.396 39.0882 33.328C38.8682 33.256 38.6242 33.22 38.3562 33.22C37.8962 33.22 37.5362 33.36 37.2762 33.64C37.0202 33.92 36.8922 34.334 36.8922 34.882C36.8922 35.45 37.0262 35.872 37.2942 36.148C37.5622 36.424 37.9462 36.562 38.4462 36.562C38.6822 36.562 38.9002 36.546 39.1002 36.514C39.3002 36.478 39.4782 36.426 39.6342 36.358L39.4602 36.682V35.224H38.4102V34.738H39.9702V36.754C39.8582 36.81 39.7162 36.862 39.5442 36.91C39.3722 36.954 39.1882 36.988 38.9922 37.012C38.8002 37.04 38.6082 37.054 38.4162 37.054ZM41.254 37V32.77H41.812V34.6H44.254V32.77H44.812V37H44.254V35.098H41.812V37H41.254ZM47.1843 37V33.268H45.6663V32.77H49.2603V33.268H47.7423V37H47.1843Z" fill="#CE3439"/>
<path d="M23.938 47.054C23.598 47.054 23.308 46.972 23.068 46.808C22.832 46.644 22.652 46.406 22.528 46.094C22.404 45.782 22.342 45.408 22.342 44.972C22.342 44.488 22.41 44.08 22.546 43.748C22.682 43.412 22.878 43.156 23.134 42.98C23.39 42.804 23.7 42.716 24.064 42.716C24.228 42.716 24.382 42.736 24.526 42.776C24.67 42.812 24.804 42.868 24.928 42.944C25.056 43.016 25.178 43.11 25.294 43.226L25.09 43.652C24.93 43.484 24.766 43.368 24.598 43.304C24.43 43.236 24.252 43.202 24.064 43.202C23.864 43.202 23.688 43.24 23.536 43.316C23.384 43.388 23.256 43.498 23.152 43.646C23.052 43.79 22.974 43.97 22.918 44.186C22.866 44.398 22.84 44.642 22.84 44.918V45.164H22.87C22.91 44.992 22.984 44.844 23.092 44.72C23.2 44.596 23.332 44.5 23.488 44.432C23.644 44.364 23.81 44.33 23.986 44.33C24.246 44.33 24.474 44.388 24.67 44.504C24.866 44.616 25.02 44.774 25.132 44.978C25.244 45.182 25.3 45.414 25.3 45.674C25.3 45.942 25.242 46.18 25.126 46.388C25.01 46.596 24.85 46.76 24.646 46.88C24.442 46.996 24.206 47.054 23.938 47.054ZM23.92 46.58C24.092 46.58 24.244 46.544 24.376 46.472C24.508 46.396 24.61 46.292 24.682 46.16C24.754 46.024 24.79 45.866 24.79 45.686C24.79 45.51 24.752 45.356 24.676 45.224C24.604 45.092 24.502 44.99 24.37 44.918C24.238 44.842 24.084 44.804 23.908 44.804C23.728 44.804 23.57 44.842 23.434 44.918C23.302 44.994 23.198 45.098 23.122 45.23C23.046 45.362 23.008 45.514 23.008 45.686C23.008 45.866 23.044 46.024 23.116 46.16C23.192 46.292 23.298 46.396 23.434 46.472C23.574 46.544 23.736 46.58 23.92 46.58ZM26.0537 47V46.322H26.7797V47H26.0537ZM28.9783 47.054C28.8023 47.054 28.6283 47.036 28.4563 47C28.2843 46.964 28.1203 46.91 27.9643 46.838C27.8123 46.762 27.6723 46.666 27.5443 46.55L27.7603 46.118C27.9443 46.282 28.1423 46.398 28.3543 46.466C28.5663 46.534 28.7723 46.568 28.9723 46.568C29.1403 46.568 29.2943 46.544 29.4343 46.496C29.5783 46.448 29.6923 46.37 29.7763 46.262C29.8643 46.154 29.9083 46.012 29.9083 45.836C29.9083 45.592 29.8263 45.408 29.6623 45.284C29.4983 45.156 29.2603 45.092 28.9483 45.092H28.3063V44.618H28.8523C29.0363 44.618 29.2003 44.59 29.3443 44.534C29.4883 44.478 29.6023 44.392 29.6863 44.276C29.7703 44.16 29.8123 44.016 29.8123 43.844C29.8123 43.624 29.7363 43.462 29.5843 43.358C29.4323 43.254 29.2423 43.202 29.0143 43.202C28.8103 43.202 28.6023 43.238 28.3903 43.31C28.1823 43.378 27.9943 43.502 27.8263 43.682L27.6163 43.25C27.7883 43.066 28.0003 42.932 28.2523 42.848C28.5043 42.76 28.7643 42.716 29.0323 42.716C29.3003 42.716 29.5323 42.76 29.7283 42.848C29.9243 42.932 30.0763 43.056 30.1843 43.22C30.2963 43.38 30.3523 43.574 30.3523 43.802C30.3523 44.034 30.2863 44.24 30.1543 44.42C30.0223 44.6 29.8403 44.732 29.6083 44.816V44.84C29.7643 44.872 29.9043 44.932 30.0283 45.02C30.1563 45.104 30.2563 45.216 30.3283 45.356C30.4043 45.496 30.4423 45.66 30.4423 45.848C30.4423 46.108 30.3803 46.328 30.2563 46.508C30.1323 46.688 29.9603 46.824 29.7403 46.916C29.5203 47.008 29.2663 47.054 28.9783 47.054ZM33.1399 47V46.136H31.1479V45.722L33.0499 42.77H33.6559V45.68H34.2139V46.136H33.6559V47H33.1399ZM33.1579 45.68V43.46H33.1279L31.6459 45.758L31.5739 45.68H33.1579ZM37.6258 48.152C37.3258 47.724 37.1038 47.286 36.9598 46.838C36.8198 46.39 36.7498 45.918 36.7498 45.422C36.7498 44.93 36.8198 44.46 36.9598 44.012C37.1038 43.564 37.3258 43.124 37.6258 42.692L38.0278 42.83C37.8638 43.114 37.7258 43.4 37.6138 43.688C37.5058 43.972 37.4258 44.258 37.3738 44.546C37.3218 44.834 37.2958 45.126 37.2958 45.422C37.2958 45.714 37.3218 46.006 37.3738 46.298C37.4258 46.586 37.5058 46.872 37.6138 47.156C37.7258 47.44 37.8638 47.726 38.0278 48.014L37.6258 48.152ZM40.0495 48.128C39.8215 48.128 39.5875 48.094 39.3475 48.026C39.1115 47.958 38.9115 47.864 38.7475 47.744L38.9215 47.3C39.0295 47.372 39.1455 47.434 39.2695 47.486C39.3975 47.538 39.5275 47.578 39.6595 47.606C39.7955 47.634 39.9235 47.648 40.0435 47.648C40.3675 47.648 40.6215 47.568 40.8055 47.408C40.9935 47.248 41.0875 47.026 41.0875 46.742V46.262H41.0395C40.9595 46.45 40.8275 46.606 40.6435 46.73C40.4635 46.85 40.2515 46.91 40.0075 46.91C39.7195 46.91 39.4695 46.85 39.2575 46.73C39.0455 46.606 38.8795 46.434 38.7595 46.214C38.6435 45.99 38.5855 45.73 38.5855 45.434C38.5855 45.138 38.6435 44.88 38.7595 44.66C38.8795 44.436 39.0455 44.264 39.2575 44.144C39.4695 44.02 39.7195 43.958 40.0075 43.958C40.2515 43.958 40.4655 44.02 40.6495 44.144C40.8375 44.268 40.9735 44.434 41.0575 44.642H41.0875V44.012H41.6035V46.7C41.6035 46.988 41.5395 47.238 41.4115 47.45C41.2835 47.666 41.1035 47.832 40.8715 47.948C40.6395 48.068 40.3655 48.128 40.0495 48.128ZM40.0975 46.448C40.3935 46.448 40.6275 46.356 40.7995 46.172C40.9715 45.984 41.0575 45.736 41.0575 45.428C41.0575 45.124 40.9715 44.88 40.7995 44.696C40.6275 44.512 40.3935 44.42 40.0975 44.42C39.8055 44.42 39.5715 44.512 39.3955 44.696C39.2235 44.88 39.1375 45.124 39.1375 45.428C39.1375 45.736 39.2235 45.984 39.3955 46.172C39.5715 46.356 39.8055 46.448 40.0975 46.448ZM42.7557 47V44.012H43.2477V44.69H43.2837C43.3597 44.482 43.4897 44.314 43.6737 44.186C43.8577 44.058 44.0757 43.988 44.3277 43.976L44.6457 43.958L44.6997 44.48L44.2077 44.516C43.9277 44.54 43.7077 44.634 43.5477 44.798C43.3917 44.958 43.3137 45.15 43.3137 45.374V47H42.7557ZM45.4571 47V44.012H45.9491V44.654H45.9851C46.0371 44.534 46.1111 44.422 46.2071 44.318C46.3031 44.21 46.4191 44.124 46.5551 44.06C46.6911 43.992 46.8411 43.958 47.0051 43.958C47.2691 43.958 47.4871 44.026 47.6591 44.162C47.8351 44.294 47.9431 44.454 47.9831 44.642H48.0131C48.0931 44.458 48.2171 44.298 48.3851 44.162C48.5571 44.026 48.7791 43.958 49.0511 43.958C49.2791 43.958 49.4731 44.002 49.6331 44.09C49.7971 44.178 49.9211 44.312 50.0051 44.492C50.0931 44.668 50.1371 44.894 50.1371 45.17V47H49.5851V45.212C49.5851 44.96 49.5391 44.768 49.4471 44.636C49.3551 44.504 49.1851 44.438 48.9371 44.438C48.7531 44.438 48.5951 44.48 48.4631 44.564C48.3311 44.644 48.2311 44.752 48.1631 44.888C48.0991 45.024 48.0671 45.174 48.0671 45.338V47H47.5211V45.212C47.5211 44.968 47.4651 44.778 47.3531 44.642C47.2411 44.506 47.0831 44.438 46.8791 44.438C46.6991 44.438 46.5431 44.484 46.4111 44.576C46.2791 44.668 46.1771 44.782 46.1051 44.918C46.0371 45.054 46.0031 45.188 46.0031 45.32V47H45.4571ZM51.3349 48.152L50.9329 48.014C51.1009 47.726 51.2389 47.44 51.3469 47.156C51.4549 46.872 51.5349 46.586 51.5869 46.298C51.6389 46.006 51.6649 45.714 51.6649 45.422C51.6649 45.126 51.6389 44.834 51.5869 44.546C51.5349 44.258 51.4549 43.972 51.3469 43.688C51.2389 43.4 51.1009 43.114 50.9329 42.83L51.3349 42.692C51.6349 43.12 51.8549 43.558 51.9949 44.006C52.1389 44.454 52.2109 44.926 52.2109 45.422C52.2109 45.914 52.1389 46.384 51.9949 46.832C51.8549 47.28 51.6349 47.72 51.3349 48.152Z" fill="black"/>
<defs>
<filter id="filter0_d_235_193" x="0.0999999" y="20" width="75.8" height="46.9" filterUnits="userSpaceOnUse" color-interpolation-filters="sRGB">
<feFlood flood-opacity="0" result="BackgroundImageFix"/>
<feColorMatrix in="SourceAlpha" type="matrix" values="0 0 0 0 0 0 0 0 0 0 0 0 0 0 0 0 0 0 127 0" result="hardAlpha"/>
<feOffset dy="4"/>
<feGaussianBlur stdDeviation="1.95"/>
<feComposite in2="hardAlpha" operator="out"/>
<feColorMatrix type="matrix" values="0 0 0 0 0 0 0 0 0 0 0 0 0 0 0 0 0 0 0.2 0"/>
<feBlend mode="normal" in2="BackgroundImageFix" result="effect1_dropShadow_235_193"/>
<feBlend mode="normal" in="SourceGraphic" in2="effect1_dropShadow_235_193" result="shape"/>
</filter>
<clipPath id="clip0_235_193">
<rect width="14" height="14" fill="white" transform="translate(30 6)"/>
</clipPath>
</defs>
</svg>
