<svg width="90" height="82" viewBox="0 0 90 82" fill="none" xmlns="http://www.w3.org/2000/svg">
<g filter="url(#filter0_d_271_183)">
<rect x="4" y="24" width="82" height="50" rx="2" fill="white"/>
<rect x="4.25" y="24.25" width="81.5" height="49.5" rx="1.75" stroke="white" stroke-width="0.5"/>
</g>
<rect x="29.2715" width="30.0846" height="30.1136" rx="3" fill="#CB3335"/>
<g clip-path="url(#clip0_271_183)">
<path fill-rule="evenodd" clip-rule="evenodd" d="M35.6592 10.6316C35.7152 10.6523 35.7807 10.6988 35.805 10.735C35.8412 10.7887 35.8491 11.2574 35.8488 15.7578L35.7682 15.8402C35.7119 15.8975 35.6517 15.9225 35.5707 15.9225C35.4901 15.9225 35.4286 15.8972 35.2894 15.7578V13.2876C35.2894 11.7066 35.3012 10.7936 35.3223 10.7515C35.3404 10.7152 35.4009 10.6652 35.4565 10.6398C35.5358 10.6042 35.5799 10.6026 35.6592 10.6316ZM51.9472 10.6316C52.0032 10.6523 52.0686 10.6988 52.093 10.735C52.1292 10.7887 52.1371 11.2574 52.1367 15.7578L52.0561 15.8402C51.9999 15.8975 51.9396 15.9225 51.8587 15.9225C51.7781 15.9225 51.7165 15.8972 51.5774 15.7578V13.2876C51.5774 11.7066 51.5892 10.7936 51.6103 10.7515C51.6284 10.7152 51.6889 10.6652 51.7445 10.6398C51.8238 10.6042 51.8679 10.6026 51.9472 10.6316ZM51.9778 16.7954L52.1367 16.9765V18.7386C52.1367 19.8476 52.1246 20.5251 52.1038 20.5666C52.0857 20.6028 52.0193 20.6549 51.9558 20.6819C51.8544 20.7254 50.8643 20.7313 43.7131 20.7313C36.5618 20.7313 35.5717 20.7254 35.4704 20.6819C35.4069 20.6549 35.3404 20.6028 35.3223 20.5666C35.3016 20.5251 35.2894 19.8496 35.2891 18.7469C35.2891 17.188 35.2947 16.9844 35.3417 16.9166C35.371 16.8744 35.4266 16.8273 35.4654 16.8115C35.5049 16.7954 39.1699 16.7855 51.9778 16.7954ZM35.8652 20.1549H51.5609L51.5662 17.3388H50.7218C50.7202 17.8879 50.7047 18.0348 50.6797 18.0693C50.6577 18.1 50.5951 18.1418 50.5409 18.1626C50.4612 18.1932 50.4214 18.1902 50.3352 18.1484C50.2651 18.1141 50.2167 18.0595 50.1947 17.9893C50.1763 17.9304 50.1615 17.7601 50.1618 17.6105L50.1624 17.3388H49.0437C49.0437 18.5453 49.042 18.5591 48.9644 18.648C48.9048 18.7159 48.8548 18.7386 48.764 18.7386C48.6732 18.7386 48.6232 18.7159 48.5636 18.648C48.4859 18.5591 48.4843 18.5453 48.4843 17.9481V17.3388H47.3655C47.3501 17.9906 47.3408 18.0371 47.2757 18.102C47.228 18.1497 47.1609 18.1761 47.0839 18.1771C46.994 18.1784 46.9453 18.1563 46.8854 18.0881C46.813 18.0055 46.8061 17.9692 46.8061 17.6682V17.3388H45.6874C45.6874 18.3233 45.6755 18.4867 45.638 18.5739C45.6084 18.6434 45.5528 18.7031 45.4982 18.7241C45.4485 18.7432 45.3744 18.7505 45.3336 18.7406C45.2928 18.7304 45.2297 18.6889 45.1931 18.648C45.1313 18.5792 45.1267 18.5301 45.1273 17.9564L45.128 17.3388H44.0092C44.0089 17.7344 43.9941 17.905 43.976 17.9728C43.9516 18.0654 43.9144 18.1108 43.8282 18.154C43.7187 18.209 43.7075 18.209 43.5979 18.154C43.5117 18.1108 43.4745 18.0654 43.4502 17.9728C43.4321 17.905 43.4173 17.7344 43.4173 17.5941L43.4169 17.3388H42.2982C42.2965 18.3898 42.284 18.5894 42.256 18.6263C42.234 18.655 42.1827 18.6958 42.1419 18.7169C42.1011 18.738 42.0234 18.7478 41.9691 18.7386C41.9033 18.7276 41.8485 18.6865 41.8046 18.6151C41.7457 18.5186 41.7391 18.4498 41.7388 17.9234V17.3388H40.62C40.62 17.9692 40.6131 18.0055 40.5407 18.0881C40.4818 18.155 40.4305 18.1787 40.3439 18.1787C40.2661 18.1787 40.2021 18.1537 40.1521 18.1036C40.085 18.0367 40.0761 17.9929 40.0688 17.6837L40.0606 17.3388H38.9418C38.9257 18.5604 38.9221 18.5921 38.852 18.6619C38.8043 18.7096 38.7372 18.736 38.6602 18.737C38.5703 18.7383 38.5216 18.7162 38.4618 18.648C38.3841 18.5591 38.3825 18.5453 38.3825 17.9481V17.3388H37.2637C37.2647 17.7601 37.2499 17.9304 37.2314 17.9893C37.2094 18.0595 37.161 18.1141 37.0909 18.1484C37.0047 18.1902 36.9649 18.1932 36.8853 18.1626C36.831 18.1418 36.7685 18.1 36.7464 18.0693C36.7214 18.0348 36.706 17.8879 36.7053 17.6764L36.7043 17.3388H35.8481L35.8652 20.1549ZM37.9751 11.4431C38.0182 11.4431 38.0942 11.479 38.2344 11.6019L38.2508 13.1229H49.1753L49.1917 11.6019L49.2822 11.5225C49.3319 11.479 49.406 11.4425 49.4468 11.4418C49.4876 11.4408 49.5534 11.4668 49.5929 11.4994C49.6327 11.5317 49.9624 11.9438 50.3257 12.4148C50.6893 12.8858 50.9953 13.3083 51.0061 13.3535C51.0176 13.4009 51.0045 13.4776 50.9752 13.5346C50.9472 13.589 50.6774 13.9522 50.376 14.3416C50.0743 14.7312 49.7696 15.1202 49.6988 15.2062C49.5975 15.3293 49.5491 15.3626 49.4714 15.3626C49.4171 15.3626 49.3431 15.3478 49.3069 15.3297C49.2707 15.3116 49.226 15.2486 49.2075 15.1897C49.1891 15.1307 49.1743 14.7678 49.1753 13.6828H38.2508L38.2515 14.3827C38.2515 14.7678 38.2367 15.1307 38.2186 15.1897C38.2002 15.2486 38.1554 15.3116 38.1192 15.3297C38.083 15.3478 38.009 15.3626 37.9547 15.3626C37.877 15.3626 37.8287 15.3293 37.7273 15.2062C37.6562 15.1202 37.3515 14.7312 37.0501 14.3416C36.7484 13.9522 36.4789 13.589 36.4509 13.5346C36.4217 13.4776 36.4085 13.4009 36.42 13.3535C36.4309 13.3083 36.7369 12.8858 37.1002 12.4148C37.4634 11.9438 37.7915 11.5324 37.829 11.5008C37.8662 11.4691 37.932 11.4431 37.9751 11.4431ZM37.0659 13.4687C37.0896 13.505 37.2361 13.6996 37.3917 13.9015C37.5477 14.1034 37.6862 14.2628 37.6997 14.2556C37.7132 14.2487 37.7244 13.865 37.7244 13.4029C37.7244 12.9385 37.7112 12.563 37.6951 12.563C37.6793 12.563 37.5217 12.752 37.3446 12.9829C37.0544 13.3627 37.0274 13.4091 37.0659 13.4687ZM49.7265 14.2556C49.7399 14.2628 49.8785 14.1034 50.0341 13.9015C50.1898 13.6996 50.3365 13.505 50.3599 13.4687C50.3984 13.4091 50.3714 13.3627 50.0769 12.9816C49.8976 12.7497 49.7399 12.5607 49.7265 12.5617C49.713 12.5623 49.7018 12.9411 49.7018 13.4029C49.7018 13.865 49.713 14.2487 49.7265 14.2556Z" fill="white"/>
</g>
<path d="M24.6972 46V40.36H26.6732C27.2759 40.36 27.7879 40.4693 28.2092 40.688C28.6306 40.9067 28.9506 41.2267 29.1692 41.648C29.3932 42.064 29.5052 42.5733 29.5052 43.176C29.5052 43.7787 29.3932 44.2907 29.1692 44.712C28.9506 45.1333 28.6306 45.4533 28.2092 45.672C27.7879 45.8907 27.2759 46 26.6732 46H24.6972ZM25.4092 45.376H26.6332C27.3319 45.376 27.8599 45.1947 28.2172 44.832C28.5799 44.4693 28.7612 43.9173 28.7612 43.176C28.7612 42.4347 28.5799 41.8853 28.2172 41.528C27.8599 41.1653 27.3319 40.984 26.6332 40.984H25.4092V45.376ZM30.7394 41.096V40.304H31.6034V41.096H30.7394ZM30.8194 46V42.048H31.5314V46H30.8194ZM32.9682 46V42.048H33.6242V42.912C33.6936 42.736 33.7896 42.5787 33.9122 42.44C34.0402 42.296 34.1922 42.184 34.3682 42.104C34.5496 42.0187 34.7469 41.976 34.9602 41.976C35.3069 41.976 35.5922 42.0613 35.8162 42.232C36.0402 42.4027 36.1789 42.6267 36.2322 42.904H36.2242C36.3309 42.6427 36.4989 42.424 36.7282 42.248C36.9629 42.0667 37.2562 41.976 37.6082 41.976C37.9069 41.976 38.1602 42.0347 38.3682 42.152C38.5762 42.264 38.7336 42.4373 38.8402 42.672C38.9469 42.9067 39.0002 43.2027 39.0002 43.56V46H38.2962V43.608C38.2962 43.2667 38.2349 43.0107 38.1122 42.84C37.9896 42.6693 37.7709 42.584 37.4562 42.584C37.2216 42.584 37.0189 42.6373 36.8482 42.744C36.6829 42.8453 36.5549 42.9893 36.4642 43.176C36.3789 43.3573 36.3362 43.5627 36.3362 43.792V46H35.6322V43.608C35.6322 43.272 35.5629 43.0187 35.4242 42.848C35.2856 42.672 35.0749 42.584 34.7922 42.584C34.5629 42.584 34.3629 42.6427 34.1922 42.76C34.0269 42.872 33.8989 43.0187 33.8082 43.2C33.7176 43.3813 33.6722 43.5733 33.6722 43.776V46H32.9682ZM42.3328 46.072C41.8901 46.072 41.5061 45.992 41.1808 45.832C40.8608 45.6667 40.6155 45.432 40.4448 45.128C40.2741 44.8187 40.1888 44.4507 40.1888 44.024C40.1888 43.624 40.2688 43.272 40.4288 42.968C40.5888 42.6587 40.8155 42.416 41.1088 42.24C41.4021 42.064 41.7515 41.976 42.1568 41.976C42.5408 41.976 42.8661 42.0587 43.1328 42.224C43.4048 42.3893 43.6101 42.6213 43.7488 42.92C43.8928 43.2187 43.9648 43.5733 43.9648 43.984V44.216H40.7248V43.72H43.5008L43.3488 43.88C43.3488 43.4427 43.2448 43.1067 43.0368 42.872C42.8341 42.6373 42.5408 42.52 42.1568 42.52C41.9061 42.52 41.6821 42.5787 41.4848 42.696C41.2928 42.808 41.1435 42.968 41.0368 43.176C40.9301 43.384 40.8768 43.6373 40.8768 43.936V44.016C40.8768 44.336 40.9355 44.6053 41.0528 44.824C41.1701 45.0427 41.3381 45.208 41.5568 45.32C41.7755 45.432 42.0368 45.488 42.3408 45.488C42.5595 45.488 42.7808 45.4587 43.0048 45.4C43.2341 45.336 43.4475 45.224 43.6448 45.064L43.8848 45.576C43.6821 45.7467 43.4395 45.872 43.1568 45.952C42.8795 46.032 42.6048 46.072 42.3328 46.072ZM45.1397 46V42.048H45.8037V42.904C45.9317 42.6107 46.1237 42.384 46.3797 42.224C46.6357 42.0587 46.9237 41.976 47.2437 41.976C47.5691 41.976 47.8411 42.0347 48.0597 42.152C48.2784 42.264 48.4411 42.44 48.5477 42.68C48.6597 42.9147 48.7157 43.208 48.7157 43.56V46H48.0037V43.6C48.0037 43.3867 47.9744 43.2053 47.9157 43.056C47.8571 42.9067 47.7584 42.792 47.6197 42.712C47.4864 42.6267 47.3077 42.584 47.0837 42.584C46.8491 42.584 46.6357 42.6373 46.4437 42.744C46.2571 42.8507 46.1104 42.9947 46.0037 43.176C45.9024 43.3573 45.8517 43.56 45.8517 43.784V46H45.1397ZM51.5801 46.072C51.3614 46.072 51.1454 46.0507 50.9321 46.008C50.7241 45.9707 50.5294 45.9173 50.3481 45.848C50.1721 45.7733 50.0201 45.6827 49.8921 45.576L50.1241 45.072C50.2574 45.1733 50.4041 45.256 50.5641 45.32C50.7294 45.384 50.8974 45.432 51.0681 45.464C51.2441 45.4907 51.4121 45.504 51.5721 45.504C51.9028 45.504 52.1561 45.4533 52.3321 45.352C52.5134 45.2507 52.6041 45.1093 52.6041 44.928C52.6041 44.7733 52.5508 44.656 52.4441 44.576C52.3428 44.4907 52.1721 44.4267 51.9321 44.384L51.1081 44.24C50.7401 44.1707 50.4628 44.0453 50.2761 43.864C50.0948 43.6827 50.0041 43.4453 50.0041 43.152C50.0041 42.9173 50.0681 42.712 50.1961 42.536C50.3294 42.36 50.5188 42.224 50.7641 42.128C51.0094 42.0267 51.3028 41.976 51.6441 41.976C51.8308 41.976 52.0201 41.9947 52.2121 42.032C52.4094 42.0693 52.5908 42.1253 52.7561 42.2C52.9268 42.2693 53.0654 42.3573 53.1721 42.464L52.9321 42.968C52.8254 42.8667 52.6974 42.7867 52.5481 42.728C52.4041 42.664 52.2521 42.6187 52.0921 42.592C51.9374 42.56 51.7854 42.544 51.6361 42.544C51.3268 42.544 51.0868 42.5973 50.9161 42.704C50.7454 42.8053 50.6601 42.9493 50.6601 43.136C50.6601 43.2853 50.7081 43.4027 50.8041 43.488C50.9054 43.5733 51.0681 43.6373 51.2921 43.68L52.0921 43.824C52.4868 43.8987 52.7801 44.024 52.9721 44.2C53.1641 44.3707 53.2601 44.608 53.2601 44.912C53.2601 45.1467 53.1908 45.352 53.0521 45.528C52.9134 45.6987 52.7188 45.832 52.4681 45.928C52.2174 46.024 51.9214 46.072 51.5801 46.072ZM54.3566 41.096V40.304H55.2206V41.096H54.3566ZM54.4366 46V42.048H55.1486V46H54.4366ZM58.2894 46.072C57.8894 46.072 57.5428 45.9867 57.2494 45.816C56.9561 45.6453 56.7294 45.408 56.5694 45.104C56.4094 44.7947 56.3294 44.432 56.3294 44.016C56.3294 43.6053 56.4094 43.248 56.5694 42.944C56.7294 42.6347 56.9561 42.3973 57.2494 42.232C57.5428 42.0613 57.8894 41.976 58.2894 41.976C58.6894 41.976 59.0334 42.0613 59.3214 42.232C59.6148 42.3973 59.8414 42.6347 60.0014 42.944C60.1614 43.248 60.2414 43.6053 60.2414 44.016C60.2414 44.432 60.1614 44.7947 60.0014 45.104C59.8468 45.408 59.6228 45.6453 59.3294 45.816C59.0361 45.9867 58.6894 46.072 58.2894 46.072ZM58.2814 45.472C58.6708 45.472 58.9774 45.3413 59.2014 45.08C59.4254 44.8187 59.5374 44.464 59.5374 44.016C59.5374 43.568 59.4254 43.216 59.2014 42.96C58.9828 42.704 58.6788 42.576 58.2894 42.576C57.9001 42.576 57.5934 42.704 57.3694 42.96C57.1454 43.216 57.0334 43.568 57.0334 44.016C57.0334 44.464 57.1454 44.8187 57.3694 45.08C57.5988 45.3413 57.9028 45.472 58.2814 45.472ZM61.4366 46V42.048H62.1006V42.904C62.2286 42.6107 62.4206 42.384 62.6766 42.224C62.9326 42.0587 63.2206 41.976 63.5406 41.976C63.8659 41.976 64.1379 42.0347 64.3566 42.152C64.5753 42.264 64.7379 42.44 64.8446 42.68C64.9566 42.9147 65.0126 43.208 65.0126 43.56V46H64.3006V43.6C64.3006 43.3867 64.2713 43.2053 64.2126 43.056C64.1539 42.9067 64.0553 42.792 63.9166 42.712C63.7833 42.6267 63.6046 42.584 63.3806 42.584C63.1459 42.584 62.9326 42.6373 62.7406 42.744C62.5539 42.8507 62.4073 42.9947 62.3006 43.176C62.1993 43.3573 62.1486 43.56 62.1486 43.784V46H61.4366Z" fill="#CE3439"/>
<path d="M25.0465 59V58.392H26.5905V53.928L26.9665 53.984L25.3265 55.04L25.0065 54.488L26.7745 53.36H27.2945V58.392H28.7185V59H25.0465ZM29.8434 59V58.392H31.3874V53.928L31.7634 53.984L30.1234 55.04L29.8034 54.488L31.5714 53.36H32.0914V58.392H33.5154V59H29.8434ZM36.3043 59.072C35.8723 59.072 35.507 58.9627 35.2083 58.744C34.9096 58.52 34.683 58.1947 34.5283 57.768C34.379 57.336 34.3043 56.8053 34.3043 56.176C34.3043 55.5467 34.379 55.0187 34.5283 54.592C34.683 54.1653 34.9096 53.8427 35.2083 53.624C35.507 53.4 35.8723 53.288 36.3043 53.288C36.747 53.288 37.115 53.3973 37.4083 53.616C37.7016 53.8347 37.923 54.1573 38.0723 54.584C38.227 55.0107 38.3043 55.5387 38.3043 56.168C38.3043 56.7973 38.227 57.328 38.0723 57.76C37.923 58.192 37.699 58.52 37.4003 58.744C37.1016 58.9627 36.7363 59.072 36.3043 59.072ZM36.3043 58.448C36.7416 58.448 37.067 58.264 37.2803 57.896C37.4936 57.528 37.6003 56.952 37.6003 56.168C37.6003 55.3893 37.4936 54.8187 37.2803 54.456C37.0723 54.0933 36.7496 53.912 36.3123 53.912C35.8696 53.912 35.5416 54.096 35.3283 54.464C35.115 54.8267 35.0083 55.3973 35.0083 56.176C35.0083 56.9493 35.115 57.5227 35.3283 57.896C35.5416 58.264 35.867 58.448 36.3043 58.448ZM40.0212 56.312L39.5492 56.032L40.2532 54.968L40.2692 54.992L38.9812 55.072V54.52L40.2692 54.6L40.2452 54.616L39.5492 53.56L40.0292 53.28L40.5972 54.464H40.5892L41.1412 53.28L41.6212 53.56L40.9172 54.616L40.8932 54.6L42.1892 54.52V55.072L40.9012 54.992L40.9252 54.968L41.6212 56.032L41.1492 56.312L40.5892 55.136H40.5972L40.0212 56.312ZM44.5148 59.072C44.3068 59.072 44.1041 59.048 43.9068 59C43.7148 58.952 43.5308 58.88 43.3548 58.784C43.1841 58.6827 43.0241 58.56 42.8748 58.416L43.1468 57.872C43.3655 58.0907 43.5868 58.2427 43.8108 58.328C44.0348 58.408 44.2721 58.448 44.5228 58.448C44.7841 58.448 45.0135 58.4 45.2108 58.304C45.4135 58.2027 45.5841 58.056 45.7228 57.864C45.8615 57.6667 45.9655 57.424 46.0348 57.136C46.1041 56.848 46.1388 56.5173 46.1388 56.144V55.68H46.1308C46.0881 55.9307 45.9921 56.1493 45.8428 56.336C45.6988 56.5173 45.5201 56.656 45.3068 56.752C45.0935 56.848 44.8588 56.896 44.6028 56.896C44.2668 56.896 43.9681 56.8213 43.7068 56.672C43.4455 56.5227 43.2401 56.3147 43.0908 56.048C42.9468 55.7813 42.8748 55.472 42.8748 55.12C42.8748 54.768 42.9521 54.4533 43.1068 54.176C43.2615 53.8987 43.4748 53.6827 43.7468 53.528C44.0188 53.368 44.3308 53.288 44.6828 53.288C45.1415 53.288 45.5281 53.3973 45.8428 53.616C46.1575 53.8293 46.3948 54.1413 46.5548 54.552C46.7148 54.9627 46.7948 55.464 46.7948 56.056C46.7948 56.696 46.7041 57.2427 46.5228 57.696C46.3415 58.144 46.0801 58.4853 45.7388 58.72C45.4028 58.9547 44.9948 59.072 44.5148 59.072ZM44.7228 56.304C44.9575 56.304 45.1655 56.2533 45.3468 56.152C45.5281 56.0507 45.6695 55.9093 45.7708 55.728C45.8721 55.5467 45.9228 55.3387 45.9228 55.104C45.9228 54.8587 45.8721 54.6453 45.7708 54.464C45.6748 54.2827 45.5361 54.144 45.3548 54.048C45.1735 53.9467 44.9601 53.896 44.7148 53.896C44.4801 53.896 44.2748 53.9467 44.0988 54.048C43.9228 54.1493 43.7841 54.2907 43.6828 54.472C43.5868 54.6533 43.5388 54.864 43.5388 55.104C43.5388 55.3387 43.5895 55.5467 43.6908 55.728C43.7921 55.9093 43.9308 56.0507 44.1068 56.152C44.2828 56.2533 44.4881 56.304 44.7228 56.304ZM49.6637 59.072C49.2317 59.072 48.8663 58.9627 48.5677 58.744C48.269 58.52 48.0423 58.1947 47.8877 57.768C47.7383 57.336 47.6637 56.8053 47.6637 56.176C47.6637 55.5467 47.7383 55.0187 47.8877 54.592C48.0423 54.1653 48.269 53.8427 48.5677 53.624C48.8663 53.4 49.2317 53.288 49.6637 53.288C50.1063 53.288 50.4743 53.3973 50.7677 53.616C51.061 53.8347 51.2823 54.1573 51.4317 54.584C51.5863 55.0107 51.6637 55.5387 51.6637 56.168C51.6637 56.7973 51.5863 57.328 51.4317 57.76C51.2823 58.192 51.0583 58.52 50.7597 58.744C50.461 58.9627 50.0957 59.072 49.6637 59.072ZM49.6637 58.448C50.101 58.448 50.4263 58.264 50.6397 57.896C50.853 57.528 50.9597 56.952 50.9597 56.168C50.9597 55.3893 50.853 54.8187 50.6397 54.456C50.4317 54.0933 50.109 53.912 49.6717 53.912C49.229 53.912 48.901 54.096 48.6877 54.464C48.4743 54.8267 48.3677 55.3973 48.3677 56.176C48.3677 56.9493 48.4743 57.5227 48.6877 57.896C48.901 58.264 49.2263 58.448 49.6637 58.448ZM53.3805 56.312L52.9085 56.032L53.6125 54.968L53.6285 54.992L52.3405 55.072V54.52L53.6285 54.6L53.6045 54.616L52.9085 53.56L53.3885 53.28L53.9565 54.464H53.9485L54.5005 53.28L54.9805 53.56L54.2765 54.616L54.2525 54.6L55.5485 54.52V55.072L54.2605 54.992L54.2845 54.968L54.9805 56.032L54.5085 56.312L53.9485 55.136H53.9565L53.3805 56.312ZM58.8742 59V57.832H56.2422V57.296L58.8422 53.36H59.5542V57.232H60.3382V57.832H59.5542V59H58.8742ZM58.8982 57.232V54.24H58.9302L56.8662 57.368L56.8102 57.232H58.8982ZM63.023 59.072C62.591 59.072 62.2257 58.9627 61.927 58.744C61.6284 58.52 61.4017 58.1947 61.247 57.768C61.0977 57.336 61.023 56.8053 61.023 56.176C61.023 55.5467 61.0977 55.0187 61.247 54.592C61.4017 54.1653 61.6284 53.8427 61.927 53.624C62.2257 53.4 62.591 53.288 63.023 53.288C63.4657 53.288 63.8337 53.3973 64.127 53.616C64.4204 53.8347 64.6417 54.1573 64.791 54.584C64.9457 55.0107 65.023 55.5387 65.023 56.168C65.023 56.7973 64.9457 57.328 64.791 57.76C64.6417 58.192 64.4177 58.52 64.119 58.744C63.8204 58.9627 63.455 59.072 63.023 59.072ZM63.023 58.448C63.4604 58.448 63.7857 58.264 63.999 57.896C64.2124 57.528 64.319 56.952 64.319 56.168C64.319 55.3893 64.2124 54.8187 63.999 54.456C63.791 54.0933 63.4684 53.912 63.031 53.912C62.5884 53.912 62.2604 54.096 62.047 54.464C61.8337 54.8267 61.727 55.3973 61.727 56.176C61.727 56.9493 61.8337 57.5227 62.047 57.896C62.2604 58.264 62.5857 58.448 63.023 58.448Z" fill="black"/>
<defs>
<filter id="filter0_d_271_183" x="0.0999999" y="24" width="89.8" height="57.9" filterUnits="userSpaceOnUse" color-interpolation-filters="sRGB">
<feFlood flood-opacity="0" result="BackgroundImageFix"/>
<feColorMatrix in="SourceAlpha" type="matrix" values="0 0 0 0 0 0 0 0 0 0 0 0 0 0 0 0 0 0 127 0" result="hardAlpha"/>
<feOffset dy="4"/>
<feGaussianBlur stdDeviation="1.95"/>
<feComposite in2="hardAlpha" operator="out"/>
<feColorMatrix type="matrix" values="0 0 0 0 0 0 0 0 0 0 0 0 0 0 0 0 0 0 0.2 0"/>
<feBlend mode="normal" in2="BackgroundImageFix" result="effect1_dropShadow_271_183"/>
<feBlend mode="normal" in="SourceGraphic" in2="effect1_dropShadow_271_183" result="shape"/>
</filter>
<clipPath id="clip0_271_183">
<rect width="16.8474" height="16.8636" fill="white" transform="translate(35.2891 7.22754)"/>
</clipPath>
</defs>
</svg>
