<svg width="135" height="82" viewBox="0 0 135 82" fill="none" xmlns="http://www.w3.org/2000/svg">
<g filter="url(#filter0_d_271_283)">
<rect x="4" y="24" width="127" height="50" rx="2" fill="white"/>
<rect x="4.25" y="24.25" width="126.5" height="49.5" rx="1.75" stroke="white" stroke-width="0.5"/>
</g>
<rect x="51.8438" width="30.1136" height="30.1136" rx="3" fill="#CB3335"/>
<g clip-path="url(#clip0_271_283)">
<path fill-rule="evenodd" clip-rule="evenodd" d="M66.3835 2.41708C66.4652 2.412 66.5508 2.42555 66.5741 2.44673C66.5974 2.4679 67.236 2.80372 67.9927 3.19331C68.7499 3.58248 69.693 4.06821 70.0889 4.27232C70.4849 4.47601 72.1906 5.3526 73.879 6.2203C75.5678 7.08757 76.9818 7.82865 77.022 7.86676C77.0898 7.93113 77.0948 8.28642 77.0974 13.2504C77.0995 17.5016 77.0889 18.5802 77.0457 18.642C77.0161 18.6844 74.6192 19.9281 71.7193 21.4056C68.8193 22.8835 66.4089 24.0926 66.3623 24.0926C66.3158 24.0926 66.068 23.9816 65.8118 23.8465C65.5556 23.711 63.1562 22.477 60.4799 21.1041C56.4696 19.0464 55.5998 18.5849 55.5341 18.4803C55.4727 18.3824 55.4583 18.2952 55.471 18.0991C55.4804 17.9594 55.521 15.6062 55.5612 12.8692C55.6019 10.1323 55.6523 7.84558 55.6735 7.78757C55.7056 7.69906 56.5733 7.25145 60.9736 5.05405C64.4897 3.29791 66.2844 2.42344 66.3835 2.41708ZM56.7194 7.9324C56.7245 7.94595 57.3809 8.30378 58.1787 8.72768C58.9765 9.15158 59.677 9.5255 59.735 9.55896C59.8366 9.61782 60.0285 9.52296 64.6155 7.1477C67.2415 5.78751 69.3758 4.66276 69.3584 4.64752C69.3411 4.63227 68.6741 4.2846 67.8763 3.87468C67.0784 3.46476 66.4021 3.13064 66.3729 3.13191C66.3437 3.13318 64.1577 4.20838 61.5153 5.52114C58.8728 6.83391 56.7148 7.91885 56.7194 7.9324ZM63.6195 8.4016C61.9497 9.26337 60.5828 9.97777 60.5828 9.98963C60.5824 10.0011 60.9868 10.228 61.4818 10.4936L62.3817 10.9759C62.8412 10.7409 64.9827 9.62798 67.4367 8.35121C69.8907 7.07486 71.9009 6.0111 71.9043 5.98781C71.9073 5.96452 71.5156 5.7405 71.0332 5.49023C70.5513 5.23996 70.1512 5.03542 70.144 5.03627C70.1372 5.03711 69.3491 5.44195 68.3933 5.93615C67.4375 6.43034 65.2893 7.53984 63.6195 8.4016ZM65.8449 9.9134C64.3491 10.6888 63.1245 11.338 63.124 11.3553C63.1232 11.3727 63.8376 11.7682 64.7108 12.234L66.2988 13.081C73.7325 9.27608 75.9231 8.1471 75.9633 8.11703C76.0264 8.07003 75.8227 7.95357 74.385 7.21588C73.4767 6.75006 72.7199 6.36639 72.703 6.36343C72.6861 6.36047 71.7481 6.84068 70.6182 7.43058C69.4884 8.02006 67.3406 9.1376 65.8449 9.9134ZM56.224 13.2927C56.1706 16.7461 56.1626 18.1123 56.1956 18.1466C56.2206 18.1724 56.7084 18.4324 57.2788 18.7246C57.8497 19.0164 60.0505 20.1441 62.17 21.2303C64.2894 22.3161 66.0278 23.1994 66.0333 23.1927C66.0384 23.1863 66.0248 21.0368 66.0028 18.4167C65.9808 15.7963 65.9575 13.6497 65.9507 13.6459C65.9444 13.6421 65.2147 13.2491 64.3297 12.7731L62.7205 11.9075C62.679 12.1112 62.6553 12.6753 62.6404 13.2927C62.6171 14.2913 62.6057 14.4268 62.5363 14.5208C62.484 14.5914 62.4099 14.6305 62.3139 14.6381C62.1979 14.6478 61.9324 14.5246 60.944 14.0029C60.2698 13.6472 59.6744 13.3228 59.6206 13.2821L59.5232 13.208L59.5021 10.1827C57.6312 9.17741 56.9117 8.7912 56.6957 8.67601C56.4797 8.56041 56.3019 8.47063 56.3006 8.47614C56.2998 8.48164 56.265 10.649 56.224 13.2927ZM66.666 13.6395C66.6469 13.6467 66.6469 15.8014 66.666 18.4273C66.6855 21.0533 66.7109 23.2028 66.7223 23.2033C66.7337 23.2041 68.9252 22.0921 71.5922 20.7319L76.441 18.2592C76.4575 10.8002 76.4482 8.63579 76.4304 8.63748C76.413 8.6396 74.2169 9.76265 71.5499 11.1339C68.8829 12.5051 66.6855 13.6323 66.666 13.6395ZM60.1593 12.8481C61.4746 13.5371 61.879 13.7429 61.9074 13.7492C61.9447 13.7577 61.9667 13.5697 61.99 13.0505C62.0078 12.6596 62.0217 12.1587 62.0217 11.9376V11.5353C60.6433 10.7968 60.2241 10.5825 60.2008 10.5825C60.1737 10.5825 60.1585 10.9882 60.1589 11.7153L60.1593 12.8481Z" fill="white"/>
</g>
<path d="M16.832 41V35.36H19.152C19.5573 35.36 19.9013 35.4267 20.184 35.56C20.4667 35.6933 20.6827 35.888 20.832 36.144C20.9867 36.3947 21.064 36.6987 21.064 37.056C21.064 37.4133 20.9867 37.72 20.832 37.976C20.6827 38.232 20.464 38.4293 20.176 38.568C19.8933 38.7067 19.552 38.776 19.152 38.776H17.544V41H16.832ZM17.544 38.168H19.048C19.4747 38.168 19.7973 38.0773 20.016 37.896C20.2347 37.7093 20.344 37.432 20.344 37.064C20.344 36.6907 20.2347 36.416 20.016 36.24C19.7973 36.0587 19.4747 35.968 19.048 35.968H17.544V38.168ZM21.7242 36.096V35.304H22.5882V36.096H21.7242ZM21.8042 41V37.048H22.5162V41H21.8042ZM25.441 41.072C24.9983 41.072 24.6143 40.992 24.289 40.832C23.969 40.6667 23.7237 40.432 23.553 40.128C23.3823 39.8187 23.297 39.4507 23.297 39.024C23.297 38.624 23.377 38.272 23.537 37.968C23.697 37.6587 23.9237 37.416 24.217 37.24C24.5103 37.064 24.8597 36.976 25.265 36.976C25.649 36.976 25.9743 37.0587 26.241 37.224C26.513 37.3893 26.7183 37.6213 26.857 37.92C27.001 38.2187 27.073 38.5733 27.073 38.984V39.216H23.833V38.72H26.609L26.457 38.88C26.457 38.4427 26.353 38.1067 26.145 37.872C25.9423 37.6373 25.649 37.52 25.265 37.52C25.0143 37.52 24.7903 37.5787 24.593 37.696C24.401 37.808 24.2517 37.968 24.145 38.176C24.0383 38.384 23.985 38.6373 23.985 38.936V39.016C23.985 39.336 24.0437 39.6053 24.161 39.824C24.2783 40.0427 24.4463 40.208 24.665 40.32C24.8837 40.432 25.145 40.488 25.449 40.488C25.6677 40.488 25.889 40.4587 26.113 40.4C26.3423 40.336 26.5557 40.224 26.753 40.064L26.993 40.576C26.7903 40.7467 26.5477 40.872 26.265 40.952C25.9877 41.032 25.713 41.072 25.441 41.072ZM29.6079 41.072C29.2026 41.072 28.8506 40.9867 28.5519 40.816C28.2533 40.6453 28.0213 40.408 27.8559 40.104C27.6906 39.7947 27.6079 39.432 27.6079 39.016C27.6079 38.6 27.6906 38.24 27.8559 37.936C28.0213 37.6267 28.2533 37.3893 28.5519 37.224C28.8559 37.0587 29.2106 36.976 29.6159 36.976C29.8879 36.976 30.1466 37.0213 30.3919 37.112C30.6373 37.2027 30.8399 37.3253 30.9999 37.48L30.7519 38.008C30.5973 37.8693 30.4239 37.7653 30.2319 37.696C30.0399 37.6213 29.8533 37.584 29.6719 37.584C29.2559 37.584 28.9279 37.7093 28.6879 37.96C28.4479 38.2107 28.3279 38.5653 28.3279 39.024C28.3279 39.4773 28.4479 39.832 28.6879 40.088C28.9279 40.3387 29.2533 40.464 29.6639 40.464C29.8506 40.464 30.0373 40.4293 30.2239 40.36C30.4159 40.2853 30.5866 40.1813 30.7359 40.048L30.9839 40.576C30.8293 40.7307 30.6293 40.8533 30.3839 40.944C30.1386 41.0293 29.8799 41.072 29.6079 41.072ZM33.3363 41.072C32.8936 41.072 32.5096 40.992 32.1843 40.832C31.8643 40.6667 31.619 40.432 31.4483 40.128C31.2776 39.8187 31.1923 39.4507 31.1923 39.024C31.1923 38.624 31.2723 38.272 31.4323 37.968C31.5923 37.6587 31.819 37.416 32.1123 37.24C32.4056 37.064 32.755 36.976 33.1603 36.976C33.5443 36.976 33.8696 37.0587 34.1363 37.224C34.4083 37.3893 34.6136 37.6213 34.7523 37.92C34.8963 38.2187 34.9683 38.5733 34.9683 38.984V39.216H31.7283V38.72H34.5043L34.3523 38.88C34.3523 38.4427 34.2483 38.1067 34.0403 37.872C33.8376 37.6373 33.5443 37.52 33.1603 37.52C32.9096 37.52 32.6856 37.5787 32.4883 37.696C32.2963 37.808 32.147 37.968 32.0403 38.176C31.9336 38.384 31.8803 38.6373 31.8803 38.936V39.016C31.8803 39.336 31.939 39.6053 32.0563 39.824C32.1736 40.0427 32.3416 40.208 32.5603 40.32C32.779 40.432 33.0403 40.488 33.3443 40.488C33.563 40.488 33.7843 40.4587 34.0083 40.4C34.2376 40.336 34.451 40.224 34.6483 40.064L34.8883 40.576C34.6856 40.7467 34.443 40.872 34.1603 40.952C33.883 41.032 33.6083 41.072 33.3363 41.072ZM37.1993 41.072C36.9806 41.072 36.7646 41.0507 36.5513 41.008C36.3433 40.9707 36.1486 40.9173 35.9673 40.848C35.7913 40.7733 35.6393 40.6827 35.5113 40.576L35.7433 40.072C35.8766 40.1733 36.0233 40.256 36.1833 40.32C36.3486 40.384 36.5166 40.432 36.6873 40.464C36.8633 40.4907 37.0313 40.504 37.1913 40.504C37.5219 40.504 37.7753 40.4533 37.9513 40.352C38.1326 40.2507 38.2233 40.1093 38.2233 39.928C38.2233 39.7733 38.1699 39.656 38.0633 39.576C37.9619 39.4907 37.7913 39.4267 37.5513 39.384L36.7273 39.24C36.3593 39.1707 36.0819 39.0453 35.8953 38.864C35.7139 38.6827 35.6233 38.4453 35.6233 38.152C35.6233 37.9173 35.6873 37.712 35.8153 37.536C35.9486 37.36 36.1379 37.224 36.3833 37.128C36.6286 37.0267 36.9219 36.976 37.2633 36.976C37.4499 36.976 37.6393 36.9947 37.8313 37.032C38.0286 37.0693 38.2099 37.1253 38.3753 37.2C38.5459 37.2693 38.6846 37.3573 38.7913 37.464L38.5513 37.968C38.4446 37.8667 38.3166 37.7867 38.1673 37.728C38.0233 37.664 37.8713 37.6187 37.7113 37.592C37.5566 37.56 37.4046 37.544 37.2553 37.544C36.9459 37.544 36.7059 37.5973 36.5353 37.704C36.3646 37.8053 36.2793 37.9493 36.2793 38.136C36.2793 38.2853 36.3273 38.4027 36.4233 38.488C36.5246 38.5733 36.6873 38.6373 36.9113 38.68L37.7113 38.824C38.1059 38.8987 38.3993 39.024 38.5913 39.2C38.7833 39.3707 38.8793 39.608 38.8793 39.912C38.8793 40.1467 38.8099 40.352 38.6713 40.528C38.5326 40.6987 38.3379 40.832 38.0873 40.928C37.8366 41.024 37.5406 41.072 37.1993 41.072Z" fill="#CE3439"/>
<path d="M57.4894 41V39.832H54.8574V39.296L57.4574 35.36H58.1694V39.232H58.9534V39.832H58.1694V41H57.4894ZM57.5134 39.232V36.24H57.5454L55.4814 39.368L55.4254 39.232H57.5134ZM61.6383 41.072C61.2063 41.072 60.8409 40.9627 60.5423 40.744C60.2436 40.52 60.0169 40.1947 59.8623 39.768C59.7129 39.336 59.6383 38.8053 59.6383 38.176C59.6383 37.5467 59.7129 37.0187 59.8623 36.592C60.0169 36.1653 60.2436 35.8427 60.5423 35.624C60.8409 35.4 61.2063 35.288 61.6383 35.288C62.0809 35.288 62.4489 35.3973 62.7423 35.616C63.0356 35.8347 63.2569 36.1573 63.4063 36.584C63.5609 37.0107 63.6383 37.5387 63.6383 38.168C63.6383 38.7973 63.5609 39.328 63.4063 39.76C63.2569 40.192 63.0329 40.52 62.7343 40.744C62.4356 40.9627 62.0703 41.072 61.6383 41.072ZM61.6383 40.448C62.0756 40.448 62.4009 40.264 62.6143 39.896C62.8276 39.528 62.9343 38.952 62.9343 38.168C62.9343 37.3893 62.8276 36.8187 62.6143 36.456C62.4063 36.0933 62.0836 35.912 61.6463 35.912C61.2036 35.912 60.8756 36.096 60.6623 36.464C60.4489 36.8267 60.3423 37.3973 60.3423 38.176C60.3423 38.9493 60.4489 39.5227 60.6623 39.896C60.8756 40.264 61.2009 40.448 61.6383 40.448ZM66.4352 41.072C66.0032 41.072 65.6378 40.9627 65.3392 40.744C65.0405 40.52 64.8138 40.1947 64.6592 39.768C64.5098 39.336 64.4352 38.8053 64.4352 38.176C64.4352 37.5467 64.5098 37.0187 64.6592 36.592C64.8138 36.1653 65.0405 35.8427 65.3392 35.624C65.6378 35.4 66.0032 35.288 66.4352 35.288C66.8778 35.288 67.2458 35.3973 67.5392 35.616C67.8325 35.8347 68.0538 36.1573 68.2032 36.584C68.3578 37.0107 68.4352 37.5387 68.4352 38.168C68.4352 38.7973 68.3578 39.328 68.2032 39.76C68.0538 40.192 67.8298 40.52 67.5312 40.744C67.2325 40.9627 66.8672 41.072 66.4352 41.072ZM66.4352 40.448C66.8725 40.448 67.1978 40.264 67.4112 39.896C67.6245 39.528 67.7312 38.952 67.7312 38.168C67.7312 37.3893 67.6245 36.8187 67.4112 36.456C67.2032 36.0933 66.8805 35.912 66.4432 35.912C66.0005 35.912 65.6725 36.096 65.4592 36.464C65.2458 36.8267 65.1392 37.3973 65.1392 38.176C65.1392 38.9493 65.2458 39.5227 65.4592 39.896C65.6725 40.264 65.9978 40.448 66.4352 40.448ZM71.232 41.072C70.8 41.072 70.4347 40.9627 70.136 40.744C69.8374 40.52 69.6107 40.1947 69.456 39.768C69.3067 39.336 69.232 38.8053 69.232 38.176C69.232 37.5467 69.3067 37.0187 69.456 36.592C69.6107 36.1653 69.8374 35.8427 70.136 35.624C70.4347 35.4 70.8 35.288 71.232 35.288C71.6747 35.288 72.0427 35.3973 72.336 35.616C72.6294 35.8347 72.8507 36.1573 73 36.584C73.1547 37.0107 73.232 37.5387 73.232 38.168C73.232 38.7973 73.1547 39.328 73 39.76C72.8507 40.192 72.6267 40.52 72.328 40.744C72.0294 40.9627 71.664 41.072 71.232 41.072ZM71.232 40.448C71.6694 40.448 71.9947 40.264 72.208 39.896C72.4214 39.528 72.528 38.952 72.528 38.168C72.528 37.3893 72.4214 36.8187 72.208 36.456C72 36.0933 71.6774 35.912 71.24 35.912C70.7974 35.912 70.4694 36.096 70.256 36.464C70.0427 36.8267 69.936 37.3973 69.936 38.176C69.936 38.9493 70.0427 39.5227 70.256 39.896C70.4694 40.264 70.7947 40.448 71.232 40.448ZM76.6953 41V35.36H77.3273L80.7833 39.952H80.7513V35.36H81.4313V41H80.7833L77.3433 36.424H77.3753V41H76.6953ZM84.6937 41.072C84.2937 41.072 83.9471 40.9867 83.6537 40.816C83.3604 40.6453 83.1337 40.408 82.9737 40.104C82.8137 39.7947 82.7337 39.432 82.7337 39.016C82.7337 38.6053 82.8137 38.248 82.9737 37.944C83.1337 37.6347 83.3604 37.3973 83.6537 37.232C83.9471 37.0613 84.2937 36.976 84.6937 36.976C85.0937 36.976 85.4377 37.0613 85.7257 37.232C86.0191 37.3973 86.2457 37.6347 86.4057 37.944C86.5657 38.248 86.6457 38.6053 86.6457 39.016C86.6457 39.432 86.5657 39.7947 86.4057 40.104C86.2511 40.408 86.0271 40.6453 85.7337 40.816C85.4404 40.9867 85.0937 41.072 84.6937 41.072ZM84.6857 40.472C85.0751 40.472 85.3817 40.3413 85.6057 40.08C85.8297 39.8187 85.9417 39.464 85.9417 39.016C85.9417 38.568 85.8297 38.216 85.6057 37.96C85.3871 37.704 85.0831 37.576 84.6937 37.576C84.3044 37.576 83.9977 37.704 83.7737 37.96C83.5497 38.216 83.4377 38.568 83.4377 39.016C83.4377 39.464 83.5497 39.8187 83.7737 40.08C84.0031 40.3413 84.3071 40.472 84.6857 40.472ZM89.2969 41.072C89.0782 41.072 88.8622 41.0507 88.6489 41.008C88.4409 40.9707 88.2462 40.9173 88.0649 40.848C87.8889 40.7733 87.7369 40.6827 87.6089 40.576L87.8409 40.072C87.9742 40.1733 88.1209 40.256 88.2809 40.32C88.4462 40.384 88.6142 40.432 88.7849 40.464C88.9609 40.4907 89.1289 40.504 89.2889 40.504C89.6196 40.504 89.8729 40.4533 90.0489 40.352C90.2302 40.2507 90.3209 40.1093 90.3209 39.928C90.3209 39.7733 90.2676 39.656 90.1609 39.576C90.0596 39.4907 89.8889 39.4267 89.6489 39.384L88.8249 39.24C88.4569 39.1707 88.1796 39.0453 87.9929 38.864C87.8116 38.6827 87.7209 38.4453 87.7209 38.152C87.7209 37.9173 87.7849 37.712 87.9129 37.536C88.0462 37.36 88.2356 37.224 88.4809 37.128C88.7262 37.0267 89.0196 36.976 89.3609 36.976C89.5476 36.976 89.7369 36.9947 89.9289 37.032C90.1262 37.0693 90.3076 37.1253 90.4729 37.2C90.6436 37.2693 90.7822 37.3573 90.8889 37.464L90.6489 37.968C90.5422 37.8667 90.4142 37.7867 90.2649 37.728C90.1209 37.664 89.9689 37.6187 89.8089 37.592C89.6542 37.56 89.5022 37.544 89.3529 37.544C89.0436 37.544 88.8036 37.5973 88.6329 37.704C88.4622 37.8053 88.3769 37.9493 88.3769 38.136C88.3769 38.2853 88.4249 38.4027 88.5209 38.488C88.6222 38.5733 88.7849 38.6373 89.0089 38.68L89.8089 38.824C90.2036 38.8987 90.4969 39.024 90.6889 39.2C90.8809 39.3707 90.9769 39.608 90.9769 39.912C90.9769 40.1467 90.9076 40.352 90.7689 40.528C90.6302 40.6987 90.4356 40.832 90.1849 40.928C89.9342 41.024 89.6382 41.072 89.2969 41.072ZM91.8814 41.504L91.3214 41.352L93.3614 34.984L93.9134 35.136L91.8814 41.504ZM96.9627 41.072C96.424 41.072 95.9547 40.9573 95.5547 40.728C95.16 40.4933 94.856 40.16 94.6427 39.728C94.4293 39.2907 94.3227 38.7733 94.3227 38.176C94.3227 37.5787 94.4293 37.064 94.6427 36.632C94.856 36.2 95.16 35.8693 95.5547 35.64C95.9493 35.4053 96.4187 35.288 96.9627 35.288C97.3573 35.288 97.7173 35.3493 98.0427 35.472C98.368 35.5893 98.648 35.7627 98.8827 35.992L98.6027 36.552C98.3573 36.3333 98.104 36.176 97.8427 36.08C97.5867 35.984 97.2987 35.936 96.9787 35.936C96.3813 35.936 95.912 36.128 95.5707 36.512C95.2347 36.8907 95.0667 37.4453 95.0667 38.176C95.0667 38.9013 95.2347 39.4587 95.5707 39.848C95.9067 40.232 96.376 40.424 96.9787 40.424C97.2987 40.424 97.5867 40.376 97.8427 40.28C98.104 40.184 98.3573 40.0267 98.6027 39.808L98.8827 40.368C98.648 40.5973 98.368 40.7733 98.0427 40.896C97.7173 41.0133 97.3573 41.072 96.9627 41.072ZM101.614 41.072C101.14 41.072 100.78 40.9467 100.534 40.696C100.294 40.4453 100.174 40.088 100.174 39.624V37.632H99.3743V37.048H100.198V35.872H100.886V37.048H102.302V37.632H100.886V39.56C100.886 39.864 100.953 40.0907 101.086 40.24C101.225 40.384 101.436 40.456 101.718 40.456C101.83 40.456 101.937 40.4453 102.038 40.424C102.145 40.4027 102.246 40.3707 102.342 40.328L102.454 40.888C102.348 40.9467 102.217 40.992 102.062 41.024C101.913 41.056 101.764 41.072 101.614 41.072ZM103.286 41V37.048H103.95V37.904C104.078 37.6107 104.27 37.384 104.526 37.224C104.782 37.0587 105.07 36.976 105.39 36.976C105.716 36.976 105.988 37.0347 106.206 37.152C106.425 37.264 106.588 37.44 106.694 37.68C106.806 37.9147 106.862 38.208 106.862 38.56V41H106.15V38.6C106.15 38.3867 106.121 38.2053 106.062 38.056C106.004 37.9067 105.905 37.792 105.766 37.712C105.633 37.6267 105.454 37.584 105.23 37.584C104.996 37.584 104.782 37.6373 104.59 37.744C104.404 37.8507 104.257 37.9947 104.15 38.176C104.049 38.3573 103.998 38.56 103.998 38.784V41H103.286Z" fill="black"/>
<path d="M18.72 54.072C18.4107 54.072 18.1173 54.048 17.84 54C17.5627 53.952 17.3093 53.88 17.08 53.784C16.8507 53.688 16.6507 53.5707 16.48 53.432L16.744 52.84C16.9253 52.984 17.1173 53.1013 17.32 53.192C17.528 53.2773 17.7467 53.3387 17.976 53.376C18.2107 53.4133 18.4587 53.432 18.72 53.432C19.1627 53.432 19.5013 53.344 19.736 53.168C19.976 52.992 20.096 52.752 20.096 52.448C20.096 52.288 20.056 52.1547 19.976 52.048C19.9013 51.9413 19.7813 51.8533 19.616 51.784C19.456 51.7147 19.248 51.6533 18.992 51.6L18.072 51.424C17.5547 51.3227 17.1813 51.144 16.952 50.888C16.7227 50.632 16.608 50.3093 16.608 49.92C16.608 49.5893 16.6987 49.304 16.88 49.064C17.0667 48.8187 17.3227 48.6293 17.648 48.496C17.9787 48.3573 18.3547 48.288 18.776 48.288C19.0427 48.288 19.2907 48.3147 19.52 48.368C19.7547 48.416 19.968 48.4907 20.16 48.592C20.3573 48.6933 20.5333 48.816 20.688 48.96L20.424 49.544C20.1947 49.32 19.944 49.1627 19.672 49.072C19.4 48.976 19.0987 48.928 18.768 48.928C18.4907 48.928 18.2427 48.968 18.024 49.048C17.8053 49.1227 17.632 49.2347 17.504 49.384C17.3813 49.528 17.32 49.7067 17.32 49.92C17.32 50.1547 17.3947 50.3413 17.544 50.48C17.6933 50.6133 17.9467 50.7173 18.304 50.792L19.216 50.968C19.76 51.0693 20.1627 51.24 20.424 51.48C20.6853 51.72 20.816 52.032 20.816 52.416C20.816 52.736 20.728 53.0213 20.552 53.272C20.3813 53.5227 20.1387 53.72 19.824 53.864C19.5147 54.0027 19.1467 54.072 18.72 54.072ZM21.882 49.096V48.304H22.746V49.096H21.882ZM21.962 54V50.048H22.674V54H21.962ZM23.8628 54V53.544L26.3668 50.416L26.4068 50.64H23.9188V50.048H27.0708V50.504L24.5428 53.656L24.5028 53.408H27.1588V54H23.8628ZM30.0691 54.072C29.6265 54.072 29.2425 53.992 28.9171 53.832C28.5971 53.6667 28.3518 53.432 28.1811 53.128C28.0105 52.8187 27.9251 52.4507 27.9251 52.024C27.9251 51.624 28.0051 51.272 28.1651 50.968C28.3251 50.6587 28.5518 50.416 28.8451 50.24C29.1385 50.064 29.4878 49.976 29.8931 49.976C30.2771 49.976 30.6025 50.0587 30.8691 50.224C31.1411 50.3893 31.3465 50.6213 31.4851 50.92C31.6291 51.2187 31.7011 51.5733 31.7011 51.984V52.216H28.4611V51.72H31.2371L31.0851 51.88C31.0851 51.4427 30.9811 51.1067 30.7731 50.872C30.5705 50.6373 30.2771 50.52 29.8931 50.52C29.6425 50.52 29.4185 50.5787 29.2211 50.696C29.0291 50.808 28.8798 50.968 28.7731 51.176C28.6665 51.384 28.6131 51.6373 28.6131 51.936V52.016C28.6131 52.336 28.6718 52.6053 28.7891 52.824C28.9065 53.0427 29.0745 53.208 29.2931 53.32C29.5118 53.432 29.7731 53.488 30.0771 53.488C30.2958 53.488 30.5171 53.4587 30.7411 53.4C30.9705 53.336 31.1838 53.224 31.3811 53.064L31.6211 53.576C31.4185 53.7467 31.1758 53.872 30.8931 53.952C30.6158 54.032 30.3411 54.072 30.0691 54.072Z" fill="#CE3439"/>
<path d="M58.592 54.072C58.1387 54.072 57.7547 53.9627 57.44 53.744C57.1253 53.5253 56.8853 53.2107 56.72 52.8C56.5547 52.384 56.472 51.8853 56.472 51.304C56.472 50.6533 56.5627 50.1067 56.744 49.664C56.9253 49.216 57.1867 48.8747 57.528 48.64C57.8693 48.4053 58.28 48.288 58.76 48.288C58.9733 48.288 59.176 48.3147 59.368 48.368C59.56 48.416 59.7413 48.4907 59.912 48.592C60.0827 48.6933 60.2427 48.8187 60.392 48.968L60.128 49.52C59.92 49.3013 59.7013 49.1467 59.472 49.056C59.2427 48.96 59.0053 48.912 58.76 48.912C58.4987 48.912 58.2667 48.9627 58.064 49.064C57.8613 49.16 57.6907 49.3067 57.552 49.504C57.4133 49.696 57.3067 49.936 57.232 50.224C57.1627 50.5067 57.128 50.8373 57.128 51.216V51.68H57.136C57.184 51.424 57.28 51.2053 57.424 51.024C57.568 50.8373 57.7467 50.696 57.96 50.6C58.1733 50.4987 58.408 50.448 58.664 50.448C59.0053 50.448 59.304 50.5253 59.56 50.68C59.8213 50.8293 60.024 51.04 60.168 51.312C60.3173 51.5787 60.392 51.888 60.392 52.24C60.392 52.592 60.3147 52.9067 60.16 53.184C60.0107 53.4613 59.8 53.68 59.528 53.84C59.256 53.9947 58.944 54.072 58.592 54.072ZM58.552 53.464C58.7867 53.464 58.992 53.4133 59.168 53.312C59.344 53.2107 59.48 53.0693 59.576 52.888C59.6773 52.7067 59.728 52.496 59.728 52.256C59.728 52.016 59.6773 51.808 59.576 51.632C59.48 51.4507 59.344 51.3093 59.168 51.208C58.992 51.1067 58.784 51.056 58.544 51.056C58.3093 51.056 58.1013 51.1067 57.92 51.208C57.744 51.3093 57.6027 51.4507 57.496 51.632C57.3947 51.808 57.344 52.016 57.344 52.256C57.344 52.496 57.3947 52.7067 57.496 52.888C57.5973 53.0693 57.7387 53.2107 57.92 53.312C58.1013 53.4133 58.312 53.464 58.552 53.464ZM63.3889 54.072C62.9355 54.072 62.5515 53.9627 62.2369 53.744C61.9222 53.5253 61.6822 53.2107 61.5169 52.8C61.3515 52.384 61.2689 51.8853 61.2689 51.304C61.2689 50.6533 61.3595 50.1067 61.5409 49.664C61.7222 49.216 61.9835 48.8747 62.3249 48.64C62.6662 48.4053 63.0769 48.288 63.5569 48.288C63.7702 48.288 63.9729 48.3147 64.1649 48.368C64.3569 48.416 64.5382 48.4907 64.7089 48.592C64.8795 48.6933 65.0395 48.8187 65.1889 48.968L64.9249 49.52C64.7169 49.3013 64.4982 49.1467 64.2689 49.056C64.0395 48.96 63.8022 48.912 63.5569 48.912C63.2955 48.912 63.0635 48.9627 62.8609 49.064C62.6582 49.16 62.4875 49.3067 62.3489 49.504C62.2102 49.696 62.1035 49.936 62.0289 50.224C61.9595 50.5067 61.9249 50.8373 61.9249 51.216V51.68H61.9329C61.9809 51.424 62.0769 51.2053 62.2209 51.024C62.3649 50.8373 62.5435 50.696 62.7569 50.6C62.9702 50.4987 63.2049 50.448 63.4609 50.448C63.8022 50.448 64.1009 50.5253 64.3569 50.68C64.6182 50.8293 64.8209 51.04 64.9649 51.312C65.1142 51.5787 65.1889 51.888 65.1889 52.24C65.1889 52.592 65.1115 52.9067 64.9569 53.184C64.8075 53.4613 64.5969 53.68 64.3249 53.84C64.0529 53.9947 63.7409 54.072 63.3889 54.072ZM63.3489 53.464C63.5835 53.464 63.7889 53.4133 63.9649 53.312C64.1409 53.2107 64.2769 53.0693 64.3729 52.888C64.4742 52.7067 64.5249 52.496 64.5249 52.256C64.5249 52.016 64.4742 51.808 64.3729 51.632C64.2769 51.4507 64.1409 51.3093 63.9649 51.208C63.7889 51.1067 63.5809 51.056 63.3409 51.056C63.1062 51.056 62.8982 51.1067 62.7169 51.208C62.5409 51.3093 62.3995 51.4507 62.2929 51.632C62.1915 51.808 62.1409 52.016 62.1409 52.256C62.1409 52.496 62.1915 52.7067 62.2929 52.888C62.3942 53.0693 62.5355 53.2107 62.7169 53.312C62.8982 53.4133 63.1089 53.464 63.3489 53.464ZM67.9938 54.072C67.5618 54.072 67.1964 53.9627 66.8978 53.744C66.5991 53.52 66.3724 53.1947 66.2178 52.768C66.0684 52.336 65.9938 51.8053 65.9938 51.176C65.9938 50.5467 66.0684 50.0187 66.2178 49.592C66.3724 49.1653 66.5991 48.8427 66.8978 48.624C67.1964 48.4 67.5618 48.288 67.9938 48.288C68.4364 48.288 68.8044 48.3973 69.0978 48.616C69.3911 48.8347 69.6124 49.1573 69.7618 49.584C69.9164 50.0107 69.9938 50.5387 69.9938 51.168C69.9938 51.7973 69.9164 52.328 69.7618 52.76C69.6124 53.192 69.3884 53.52 69.0898 53.744C68.7911 53.9627 68.4258 54.072 67.9938 54.072ZM67.9938 53.448C68.4311 53.448 68.7564 53.264 68.9698 52.896C69.1831 52.528 69.2898 51.952 69.2898 51.168C69.2898 50.3893 69.1831 49.8187 68.9698 49.456C68.7618 49.0933 68.4391 48.912 68.0018 48.912C67.5591 48.912 67.2311 49.096 67.0178 49.464C66.8044 49.8267 66.6978 50.3973 66.6978 51.176C66.6978 51.9493 66.8044 52.5227 67.0178 52.896C67.2311 53.264 67.5564 53.448 67.9938 53.448ZM72.817 54L74.905 50.976V51.24L72.929 48.36H73.753L75.353 50.712H75.313L76.913 48.36H77.737L75.745 51.24V50.976L77.841 54H77.009L75.297 51.496H75.353L73.641 54H72.817ZM83.3136 54V52.832H80.6816V52.296L83.2816 48.36H83.9936V52.232H84.7776V52.832H83.9936V54H83.3136ZM83.3376 52.232V49.24H83.3696L81.3056 52.368L81.2496 52.232H83.3376ZM85.7185 54V53.472L87.7025 51.392C87.8945 51.1893 88.0438 51.0053 88.1505 50.84C88.2572 50.6747 88.3345 50.5147 88.3825 50.36C88.4305 50.2053 88.4545 50.048 88.4545 49.888C88.4545 49.5733 88.3532 49.3333 88.1505 49.168C87.9532 48.9973 87.6785 48.912 87.3265 48.912C87.0598 48.912 86.7958 48.9653 86.5345 49.072C86.2785 49.1733 86.0332 49.336 85.7985 49.56L85.5265 49C85.7612 48.776 86.0412 48.6027 86.3665 48.48C86.6918 48.352 87.0278 48.288 87.3745 48.288C87.7425 48.288 88.0598 48.352 88.3265 48.48C88.5932 48.6027 88.7958 48.7813 88.9345 49.016C89.0785 49.2453 89.1505 49.5227 89.1505 49.848C89.1505 50.0133 89.1318 50.176 89.0945 50.336C89.0572 50.4907 88.9985 50.6453 88.9185 50.8C88.8438 50.9547 88.7452 51.1147 88.6225 51.28C88.4998 51.4453 88.3505 51.6187 88.1745 51.8L86.6225 53.416V53.384H89.3825V54H85.7185ZM92.3234 54.072C92.078 54.072 91.8407 54.0453 91.6114 53.992C91.3874 53.9387 91.1767 53.8613 90.9794 53.76C90.782 53.6533 90.606 53.5253 90.4514 53.376L90.7314 52.816C90.9767 53.04 91.2274 53.2027 91.4834 53.304C91.7447 53.4 92.0247 53.448 92.3234 53.448C92.718 53.448 93.0247 53.3467 93.2434 53.144C93.4674 52.936 93.5794 52.6453 93.5794 52.272C93.5794 51.904 93.4754 51.6107 93.2674 51.392C93.0594 51.1733 92.7714 51.064 92.4034 51.064C92.158 51.064 91.934 51.1147 91.7314 51.216C91.534 51.312 91.35 51.4747 91.1794 51.704H90.6194V48.36H93.9954V48.976H91.2674V51.096H91.2354C91.3634 50.904 91.5394 50.7493 91.7634 50.632C91.9874 50.5093 92.238 50.448 92.5154 50.448C92.878 50.448 93.19 50.5253 93.4514 50.68C93.7127 50.8293 93.9127 51.0373 94.0514 51.304C94.1954 51.5707 94.2674 51.8827 94.2674 52.24C94.2674 52.6187 94.1874 52.9467 94.0274 53.224C93.8674 53.496 93.6434 53.7067 93.3554 53.856C93.0674 54 92.7234 54.072 92.3234 54.072ZM97.0826 54L99.1706 50.976V51.24L97.1946 48.36H98.0186L99.6186 50.712H99.5786L101.179 48.36H102.003L100.011 51.24V50.976L102.107 54H101.275L99.5626 51.496H99.6186L97.9066 54H97.0826ZM106.995 54.072C106.75 54.072 106.513 54.0453 106.283 53.992C106.059 53.9387 105.849 53.8613 105.651 53.76C105.454 53.6533 105.278 53.5253 105.123 53.376L105.403 52.816C105.649 53.04 105.899 53.2027 106.155 53.304C106.417 53.4 106.697 53.448 106.995 53.448C107.39 53.448 107.697 53.3467 107.915 53.144C108.139 52.936 108.251 52.6453 108.251 52.272C108.251 51.904 108.147 51.6107 107.939 51.392C107.731 51.1733 107.443 51.064 107.075 51.064C106.83 51.064 106.606 51.1147 106.403 51.216C106.206 51.312 106.022 51.4747 105.851 51.704H105.291V48.36H108.667V48.976H105.939V51.096H105.907C106.035 50.904 106.211 50.7493 106.435 50.632C106.659 50.5093 106.91 50.448 107.187 50.448C107.55 50.448 107.862 50.5253 108.123 50.68C108.385 50.8293 108.585 51.0373 108.723 51.304C108.867 51.5707 108.939 51.8827 108.939 52.24C108.939 52.6187 108.859 52.9467 108.699 53.224C108.539 53.496 108.315 53.7067 108.027 53.856C107.739 54 107.395 54.072 106.995 54.072ZM111.728 54.072C111.296 54.072 110.931 53.9627 110.632 53.744C110.333 53.52 110.107 53.1947 109.952 52.768C109.803 52.336 109.728 51.8053 109.728 51.176C109.728 50.5467 109.803 50.0187 109.952 49.592C110.107 49.1653 110.333 48.8427 110.632 48.624C110.931 48.4 111.296 48.288 111.728 48.288C112.171 48.288 112.539 48.3973 112.832 48.616C113.125 48.8347 113.347 49.1573 113.496 49.584C113.651 50.0107 113.728 50.5387 113.728 51.168C113.728 51.7973 113.651 52.328 113.496 52.76C113.347 53.192 113.123 53.52 112.824 53.744C112.525 53.9627 112.16 54.072 111.728 54.072ZM111.728 53.448C112.165 53.448 112.491 53.264 112.704 52.896C112.917 52.528 113.024 51.952 113.024 51.168C113.024 50.3893 112.917 49.8187 112.704 49.456C112.496 49.0933 112.173 48.912 111.736 48.912C111.293 48.912 110.965 49.096 110.752 49.464C110.539 49.8267 110.432 50.3973 110.432 51.176C110.432 51.9493 110.539 52.5227 110.752 52.896C110.965 53.264 111.291 53.448 111.728 53.448ZM116.525 54.072C116.093 54.072 115.728 53.9627 115.429 53.744C115.13 53.52 114.904 53.1947 114.749 52.768C114.6 52.336 114.525 51.8053 114.525 51.176C114.525 50.5467 114.6 50.0187 114.749 49.592C114.904 49.1653 115.13 48.8427 115.429 48.624C115.728 48.4 116.093 48.288 116.525 48.288C116.968 48.288 117.336 48.3973 117.629 48.616C117.922 48.8347 118.144 49.1573 118.293 49.584C118.448 50.0107 118.525 50.5387 118.525 51.168C118.525 51.7973 118.448 52.328 118.293 52.76C118.144 53.192 117.92 53.52 117.621 53.744C117.322 53.9627 116.957 54.072 116.525 54.072ZM116.525 53.448C116.962 53.448 117.288 53.264 117.501 52.896C117.714 52.528 117.821 51.952 117.821 51.168C117.821 50.3893 117.714 49.8187 117.501 49.456C117.293 49.0933 116.97 48.912 116.533 48.912C116.09 48.912 115.762 49.096 115.549 49.464C115.336 49.8267 115.229 50.3973 115.229 51.176C115.229 51.9493 115.336 52.5227 115.549 52.896C115.762 53.264 116.088 53.448 116.525 53.448Z" fill="black"/>
<path d="M18.168 67L16.36 61.36H17.112L18.584 66.144H18.512L20.152 61.36H20.736L22.36 66.144H22.304L23.792 61.36H24.512L22.696 67H22.016L20.424 62.344H20.456L18.832 67H18.168ZM27.0223 67.072C26.5796 67.072 26.1956 66.992 25.8703 66.832C25.5503 66.6667 25.3049 66.432 25.1343 66.128C24.9636 65.8187 24.8783 65.4507 24.8783 65.024C24.8783 64.624 24.9583 64.272 25.1183 63.968C25.2783 63.6587 25.5049 63.416 25.7983 63.24C26.0916 63.064 26.4409 62.976 26.8463 62.976C27.2303 62.976 27.5556 63.0587 27.8223 63.224C28.0943 63.3893 28.2996 63.6213 28.4383 63.92C28.5823 64.2187 28.6543 64.5733 28.6543 64.984V65.216H25.4143V64.72H28.1903L28.0383 64.88C28.0383 64.4427 27.9343 64.1067 27.7263 63.872C27.5236 63.6373 27.2303 63.52 26.8463 63.52C26.5956 63.52 26.3716 63.5787 26.1743 63.696C25.9823 63.808 25.8329 63.968 25.7263 64.176C25.6196 64.384 25.5663 64.6373 25.5663 64.936V65.016C25.5663 65.336 25.6249 65.6053 25.7423 65.824C25.8596 66.0427 26.0276 66.208 26.2463 66.32C26.4649 66.432 26.7263 66.488 27.0303 66.488C27.2489 66.488 27.4703 66.4587 27.6943 66.4C27.9236 66.336 28.1369 66.224 28.3343 66.064L28.5743 66.576C28.3716 66.7467 28.1289 66.872 27.8463 66.952C27.5689 67.032 27.2943 67.072 27.0223 67.072ZM29.7492 62.096V61.304H30.6132V62.096H29.7492ZM29.8292 67V63.048H30.5412V67H29.8292ZM33.674 68.512C33.3593 68.512 33.0473 68.464 32.738 68.368C32.4287 68.2773 32.1647 68.152 31.946 67.992L32.17 67.44C32.3193 67.536 32.4767 67.6187 32.642 67.688C32.8073 67.7627 32.9753 67.816 33.146 67.848C33.322 67.8853 33.4953 67.904 33.666 67.904C34.0767 67.904 34.3967 67.8 34.626 67.592C34.8607 67.384 34.978 67.088 34.978 66.704V65.976H34.962C34.866 66.248 34.6927 66.4693 34.442 66.64C34.1913 66.8053 33.9007 66.888 33.57 66.888C33.1967 66.888 32.8713 66.808 32.594 66.648C32.3167 66.4827 32.1007 66.2533 31.946 65.96C31.7967 65.6667 31.722 65.3227 31.722 64.928C31.722 64.5387 31.7967 64.1973 31.946 63.904C32.1007 63.6107 32.3167 63.384 32.594 63.224C32.8713 63.0587 33.1967 62.976 33.57 62.976C33.9007 62.976 34.1913 63.0613 34.442 63.232C34.698 63.4027 34.874 63.6293 34.97 63.912H34.978V63.048H35.642V66.64C35.642 67.024 35.562 67.3547 35.402 67.632C35.2473 67.9147 35.0233 68.1307 34.73 68.28C34.4367 68.4347 34.0847 68.512 33.674 68.512ZM33.69 66.304C34.0793 66.304 34.386 66.1787 34.61 65.928C34.8393 65.6773 34.954 65.344 34.954 64.928C34.954 64.512 34.8393 64.1813 34.61 63.936C34.386 63.6853 34.0793 63.56 33.69 63.56C33.306 63.56 32.9993 63.6853 32.77 63.936C32.546 64.1813 32.434 64.512 32.434 64.928C32.434 65.344 32.546 65.6773 32.77 65.928C32.9993 66.1787 33.306 66.304 33.69 66.304ZM37.0636 67V61.36H37.7516V63.888C37.8689 63.6053 38.0529 63.384 38.3036 63.224C38.5596 63.0587 38.8476 62.976 39.1676 62.976C39.4929 62.976 39.7649 63.0347 39.9836 63.152C40.2022 63.264 40.3649 63.44 40.4716 63.68C40.5836 63.9147 40.6396 64.208 40.6396 64.56V67H39.9276V64.6C39.9276 64.3867 39.8956 64.2053 39.8316 64.056C39.7729 63.9067 39.6769 63.792 39.5436 63.712C39.4102 63.6267 39.2316 63.584 39.0076 63.584C38.7729 63.584 38.5622 63.6373 38.3756 63.744C38.1889 63.8507 38.0422 63.9947 37.9356 64.176C37.8289 64.3573 37.7756 64.56 37.7756 64.784V67H37.0636ZM43.7119 67.072C43.2373 67.072 42.8773 66.9467 42.6319 66.696C42.3919 66.4453 42.2719 66.088 42.2719 65.624V63.632H41.4719V63.048H42.2959V61.872H42.9839V63.048H44.3999V63.632H42.9839V65.56C42.9839 65.864 43.0506 66.0907 43.1839 66.24C43.3226 66.384 43.5333 66.456 43.8159 66.456C43.9279 66.456 44.0346 66.4453 44.1359 66.424C44.2426 66.4027 44.3439 66.3707 44.4399 66.328L44.5519 66.888C44.4453 66.9467 44.3146 66.992 44.1599 67.024C44.0106 67.056 43.8613 67.072 43.7119 67.072Z" fill="#CE3439"/>
<path d="M57.9157 67V66.392H59.4597V61.928L59.8357 61.984L58.1957 63.04L57.8757 62.488L59.6437 61.36H60.1637V66.392H61.5877V67H57.9157ZM64.3766 67.072C63.7472 67.072 63.2512 66.936 62.8886 66.664C62.5259 66.3867 62.3446 66.0027 62.3446 65.512C62.3446 65.2613 62.3926 65.04 62.4886 64.848C62.5899 64.6507 62.7286 64.4907 62.9046 64.368C63.0859 64.24 63.2939 64.1547 63.5286 64.112V64.12C63.3259 64.072 63.1446 63.984 62.9846 63.856C62.8299 63.728 62.7072 63.5733 62.6166 63.392C62.5259 63.2107 62.4806 63.0107 62.4806 62.792C62.4806 62.3227 62.6512 61.9547 62.9926 61.688C63.3392 61.4213 63.8006 61.288 64.3766 61.288C64.9526 61.288 65.4112 61.4213 65.7526 61.688C66.0992 61.9547 66.2726 62.3227 66.2726 62.792C66.2726 63.0053 66.2272 63.2053 66.1366 63.392C66.0459 63.5733 65.9206 63.728 65.7606 63.856C65.6059 63.984 65.4246 64.072 65.2166 64.12V64.112C65.4459 64.1493 65.6486 64.232 65.8246 64.36C66.0059 64.488 66.1472 64.6507 66.2486 64.848C66.3552 65.04 66.4086 65.2613 66.4086 65.512C66.4086 66.0027 66.2272 66.3867 65.8646 66.664C65.5072 66.936 65.0112 67.072 64.3766 67.072ZM64.3766 66.472C64.8192 66.472 65.1552 66.3867 65.3846 66.216C65.6192 66.0453 65.7366 65.7947 65.7366 65.464C65.7366 65.1333 65.6192 64.88 65.3846 64.704C65.1552 64.528 64.8192 64.44 64.3766 64.44C63.9339 64.44 63.5952 64.528 63.3606 64.704C63.1312 64.88 63.0166 65.1333 63.0166 65.464C63.0166 65.7947 63.1312 66.0453 63.3606 66.216C63.5952 66.3867 63.9339 66.472 64.3766 66.472ZM64.3766 63.84C64.7606 63.84 65.0619 63.7547 65.2806 63.584C65.4992 63.408 65.6086 63.1653 65.6086 62.856C65.6086 62.552 65.4992 62.3147 65.2806 62.144C65.0619 61.968 64.7606 61.88 64.3766 61.88C63.9979 61.88 63.6992 61.968 63.4806 62.144C63.2619 62.3147 63.1526 62.552 63.1526 62.856C63.1526 63.1653 63.2619 63.408 63.4806 63.584C63.6992 63.7547 63.9979 63.84 64.3766 63.84ZM68.6614 68.536C68.2828 67.96 68.0028 67.3733 67.8214 66.776C67.6454 66.1733 67.5574 65.5467 67.5574 64.896C67.5574 64.2453 67.6454 63.6213 67.8214 63.024C68.0028 62.4267 68.2828 61.8373 68.6614 61.256L69.1734 61.44C68.9708 61.8187 68.8028 62.2 68.6694 62.584C68.5361 62.968 68.4348 63.352 68.3654 63.736C68.3014 64.1147 68.2694 64.5013 68.2694 64.896C68.2694 65.2853 68.3014 65.672 68.3654 66.056C68.4348 66.44 68.5361 66.8213 68.6694 67.2C68.8028 67.584 68.9708 67.968 69.1734 68.352L68.6614 68.536ZM70.2929 67V61.36H71.0049V63.904H71.0369L73.7169 61.36H74.6209L71.5089 64.312L71.5569 63.92L74.8129 67H73.8609L71.0369 64.352H71.0049V67H70.2929ZM77.1428 68.512C76.8281 68.512 76.5161 68.464 76.2068 68.368C75.8974 68.2773 75.6334 68.152 75.4148 67.992L75.6388 67.44C75.7881 67.536 75.9454 67.6187 76.1108 67.688C76.2761 67.7627 76.4441 67.816 76.6148 67.848C76.7908 67.8853 76.9641 67.904 77.1348 67.904C77.5454 67.904 77.8654 67.8 78.0948 67.592C78.3294 67.384 78.4468 67.088 78.4468 66.704V65.976H78.4308C78.3348 66.248 78.1614 66.4693 77.9108 66.64C77.6601 66.8053 77.3694 66.888 77.0388 66.888C76.6654 66.888 76.3401 66.808 76.0628 66.648C75.7854 66.4827 75.5694 66.2533 75.4148 65.96C75.2654 65.6667 75.1908 65.3227 75.1908 64.928C75.1908 64.5387 75.2654 64.1973 75.4148 63.904C75.5694 63.6107 75.7854 63.384 76.0628 63.224C76.3401 63.0587 76.6654 62.976 77.0388 62.976C77.3694 62.976 77.6601 63.0613 77.9108 63.232C78.1668 63.4027 78.3428 63.6293 78.4388 63.912H78.4468V63.048H79.1108V66.64C79.1108 67.024 79.0308 67.3547 78.8708 67.632C78.7161 67.9147 78.4921 68.1307 78.1988 68.28C77.9054 68.4347 77.5534 68.512 77.1428 68.512ZM77.1588 66.304C77.5481 66.304 77.8548 66.1787 78.0788 65.928C78.3081 65.6773 78.4228 65.344 78.4228 64.928C78.4228 64.512 78.3081 64.1813 78.0788 63.936C77.8548 63.6853 77.5481 63.56 77.1588 63.56C76.7748 63.56 76.4681 63.6853 76.2388 63.936C76.0148 64.1813 75.9028 64.512 75.9028 64.928C75.9028 65.344 76.0148 65.6773 76.2388 65.928C76.4681 66.1787 76.7748 66.304 77.1588 66.304ZM81.9883 67.072C81.7696 67.072 81.5536 67.0507 81.3403 67.008C81.1323 66.9707 80.9376 66.9173 80.7563 66.848C80.5803 66.7733 80.4283 66.6827 80.3003 66.576L80.5323 66.072C80.6656 66.1733 80.8123 66.256 80.9723 66.32C81.1376 66.384 81.3056 66.432 81.4763 66.464C81.6523 66.4907 81.8203 66.504 81.9803 66.504C82.311 66.504 82.5643 66.4533 82.7403 66.352C82.9216 66.2507 83.0123 66.1093 83.0123 65.928C83.0123 65.7733 82.959 65.656 82.8523 65.576C82.751 65.4907 82.5803 65.4267 82.3403 65.384L81.5163 65.24C81.1483 65.1707 80.871 65.0453 80.6843 64.864C80.503 64.6827 80.4123 64.4453 80.4123 64.152C80.4123 63.9173 80.4763 63.712 80.6043 63.536C80.7376 63.36 80.927 63.224 81.1723 63.128C81.4176 63.0267 81.711 62.976 82.0523 62.976C82.239 62.976 82.4283 62.9947 82.6203 63.032C82.8176 63.0693 82.999 63.1253 83.1643 63.2C83.335 63.2693 83.4736 63.3573 83.5803 63.464L83.3403 63.968C83.2336 63.8667 83.1056 63.7867 82.9563 63.728C82.8123 63.664 82.6603 63.6187 82.5003 63.592C82.3456 63.56 82.1936 63.544 82.0443 63.544C81.735 63.544 81.495 63.5973 81.3243 63.704C81.1536 63.8053 81.0683 63.9493 81.0683 64.136C81.0683 64.2853 81.1163 64.4027 81.2123 64.488C81.3136 64.5733 81.4763 64.6373 81.7003 64.68L82.5003 64.824C82.895 64.8987 83.1883 65.024 83.3803 65.2C83.5723 65.3707 83.6683 65.608 83.6683 65.912C83.6683 66.1467 83.599 66.352 83.4603 66.528C83.3216 66.6987 83.127 66.832 82.8763 66.928C82.6256 67.024 82.3296 67.072 81.9883 67.072ZM84.9408 68.536L84.4208 68.352C84.6288 67.9627 84.7995 67.576 84.9328 67.192C85.0661 66.8133 85.1648 66.4347 85.2288 66.056C85.2928 65.672 85.3248 65.2853 85.3248 64.896C85.3248 64.5067 85.2928 64.1227 85.2288 63.744C85.1648 63.36 85.0661 62.976 84.9328 62.592C84.7995 62.208 84.6288 61.824 84.4208 61.44L84.9408 61.256C85.3141 61.832 85.5888 62.4213 85.7648 63.024C85.9461 63.6213 86.0368 64.2453 86.0368 64.896C86.0368 65.5413 85.9461 66.1653 85.7648 66.768C85.5888 67.3653 85.3141 67.9547 84.9408 68.536Z" fill="black"/>
<defs>
<filter id="filter0_d_271_283" x="0.0999999" y="24" width="134.8" height="57.9" filterUnits="userSpaceOnUse" color-interpolation-filters="sRGB">
<feFlood flood-opacity="0" result="BackgroundImageFix"/>
<feColorMatrix in="SourceAlpha" type="matrix" values="0 0 0 0 0 0 0 0 0 0 0 0 0 0 0 0 0 0 127 0" result="hardAlpha"/>
<feOffset dy="4"/>
<feGaussianBlur stdDeviation="1.95"/>
<feComposite in2="hardAlpha" operator="out"/>
<feColorMatrix type="matrix" values="0 0 0 0 0 0 0 0 0 0 0 0 0 0 0 0 0 0 0.2 0"/>
<feBlend mode="normal" in2="BackgroundImageFix" result="effect1_dropShadow_271_283"/>
<feBlend mode="normal" in="SourceGraphic" in2="effect1_dropShadow_271_283" result="shape"/>
</filter>
<clipPath id="clip0_271_283">
<rect width="21.6818" height="21.6818" fill="white" transform="translate(55.457 2.40918)"/>
</clipPath>
</defs>
</svg>
