<svg width="90" height="82" viewBox="0 0 90 82" fill="none" xmlns="http://www.w3.org/2000/svg">
<g filter="url(#filter0_d_271_247)">
<rect x="4" y="24" width="82" height="50" rx="2" fill="white"/>
<rect x="4.25" y="24.25" width="81.5" height="49.5" rx="1.75" stroke="white" stroke-width="0.5"/>
</g>
<rect x="29.2715" y="0.0341797" width="30.0847" height="30.0847" rx="3" fill="#CB3335"/>
<g clip-path="url(#clip0_271_247)">
<path fill-rule="evenodd" clip-rule="evenodd" d="M35.6592 10.656C35.7152 10.6767 35.7807 10.7231 35.805 10.7593C35.8412 10.8129 35.8491 11.2812 35.8488 15.7773L35.7682 15.8596C35.7119 15.9168 35.6517 15.9418 35.5707 15.9418C35.4901 15.9418 35.4286 15.9165 35.2894 15.7773V13.3094C35.2894 11.73 35.3012 10.8178 35.3223 10.7757C35.3404 10.7395 35.4009 10.6895 35.4565 10.6642C35.5359 10.6286 35.5799 10.627 35.6592 10.656ZM51.9473 10.656C52.0033 10.6767 52.0687 10.7231 52.0931 10.7593C52.1293 10.8129 52.1372 11.2812 52.1369 15.7773L52.0562 15.8596C52 15.9168 51.9397 15.9418 51.8588 15.9418C51.7782 15.9418 51.7167 15.9165 51.5775 15.7773V13.3094C51.5775 11.73 51.5893 10.8178 51.6104 10.7757C51.6285 10.7395 51.689 10.6895 51.7446 10.6642C51.8239 10.6286 51.868 10.627 51.9473 10.656ZM51.9779 16.8138L52.1369 16.9948V18.7552C52.1369 19.8632 52.1247 20.54 52.1039 20.5815C52.0858 20.6177 52.0194 20.6697 51.9559 20.6966C51.8545 20.7401 50.8644 20.746 43.7131 20.746C36.5618 20.746 35.5717 20.7401 35.4704 20.6966C35.4069 20.6697 35.3404 20.6177 35.3223 20.5815C35.3016 20.54 35.2894 19.8651 35.2891 18.7635C35.2891 17.2061 35.2947 17.0027 35.3417 16.9349C35.371 16.8928 35.4266 16.8458 35.4654 16.83C35.5049 16.8138 39.1699 16.804 51.9779 16.8138ZM35.8652 20.1702H51.561L51.5663 17.3568H50.7219C50.7203 17.9053 50.7048 18.0521 50.6798 18.0866C50.6578 18.1172 50.5952 18.159 50.5409 18.1797C50.4613 18.2103 50.4215 18.2074 50.3353 18.1656C50.2652 18.1314 50.2168 18.0767 50.1948 18.0066C50.1764 17.9477 50.1616 17.7776 50.1619 17.6282L50.1625 17.3568H49.0438C49.0438 18.5621 49.0421 18.5759 48.9645 18.6647C48.9049 18.7325 48.8549 18.7552 48.7641 18.7552C48.6733 18.7552 48.6232 18.7325 48.5637 18.6647C48.486 18.5759 48.4844 18.5621 48.4844 17.9655V17.3568H47.3656C47.3501 18.008 47.3409 18.0544 47.2758 18.1192C47.2281 18.1669 47.1609 18.1932 47.0839 18.1942C46.9941 18.1955 46.9454 18.1735 46.8855 18.1054C46.8131 18.0228 46.8062 17.9866 46.8062 17.6858V17.3568H45.6874C45.6874 18.3403 45.6756 18.5035 45.6381 18.5907C45.6085 18.6601 45.5529 18.7197 45.4982 18.7408C45.4485 18.7598 45.3745 18.7671 45.3337 18.7572C45.2929 18.747 45.2297 18.7056 45.1932 18.6647C45.1313 18.596 45.1267 18.5469 45.1274 17.9737L45.128 17.3568H44.0093C44.0089 17.752 43.9941 17.9224 43.976 17.9902C43.9517 18.0827 43.9145 18.1281 43.8283 18.1712C43.7187 18.2261 43.7075 18.2261 43.598 18.1712C43.5117 18.1281 43.4746 18.0827 43.4502 17.9902C43.4321 17.9224 43.4173 17.752 43.4173 17.6118L43.417 17.3568H42.2982C42.2966 18.4068 42.284 18.6062 42.2561 18.643C42.234 18.6717 42.1827 18.7125 42.1419 18.7335C42.1011 18.7546 42.0234 18.7645 41.9691 18.7552C41.9033 18.7443 41.8485 18.7031 41.8046 18.6318C41.7457 18.5354 41.7391 18.4667 41.7388 17.9408V17.3568H40.62C40.62 17.9866 40.6131 18.0228 40.5407 18.1054C40.4818 18.1722 40.4305 18.1959 40.344 18.1959C40.2661 18.1959 40.2021 18.1708 40.1521 18.1208C40.085 18.054 40.0761 18.0103 40.0689 17.7013L40.0606 17.3568H38.9419C38.9257 18.5772 38.9221 18.6088 38.852 18.6786C38.8043 18.7263 38.7372 18.7526 38.6602 18.7536C38.5704 18.7549 38.5217 18.7329 38.4618 18.6647C38.3841 18.5759 38.3825 18.5621 38.3825 17.9655V17.3568H37.2637C37.2647 17.7776 37.2499 17.9477 37.2315 18.0066C37.2094 18.0767 37.161 18.1314 37.091 18.1656C37.0047 18.2074 36.9649 18.2103 36.8853 18.1797C36.831 18.159 36.7685 18.1172 36.7464 18.0866C36.7214 18.0521 36.706 17.9053 36.7053 17.694L36.7043 17.3568H35.8481L35.8652 20.1702ZM37.9751 11.4667C38.0182 11.4667 38.0942 11.5026 38.2344 11.6253L38.2509 13.1449H49.1754L49.1918 11.6253L49.2823 11.546C49.332 11.5026 49.406 11.4661 49.4469 11.4654C49.4877 11.4644 49.5535 11.4904 49.593 11.523C49.6328 11.5553 49.9625 11.9669 50.3257 12.4374C50.6894 12.908 50.9954 13.3302 51.0062 13.3752C51.0177 13.4226 51.0046 13.4993 50.9753 13.5562C50.9473 13.6105 50.6775 13.9735 50.3761 14.3624C50.0744 14.7517 49.7697 15.1403 49.6989 15.2262C49.5976 15.3492 49.5492 15.3825 49.4715 15.3825C49.4172 15.3825 49.3432 15.3676 49.307 15.3496C49.2708 15.3315 49.2261 15.2686 49.2076 15.2097C49.1892 15.1508 49.1744 14.7882 49.1754 13.7043H38.2509L38.2515 14.4035C38.2515 14.7882 38.2367 15.1508 38.2186 15.2097C38.2002 15.2686 38.1554 15.3315 38.1192 15.3496C38.083 15.3676 38.009 15.3825 37.9547 15.3825C37.8771 15.3825 37.8287 15.3492 37.7273 15.2262C37.6563 15.1403 37.3516 14.7517 37.0501 14.3624C36.7484 13.9735 36.4789 13.6105 36.4509 13.5562C36.4217 13.4993 36.4085 13.4226 36.42 13.3752C36.4309 13.3302 36.7369 12.908 37.1002 12.4374C37.4634 11.9669 37.7915 11.5559 37.829 11.5243C37.8662 11.4927 37.932 11.4667 37.9751 11.4667ZM37.0659 13.4904C37.0896 13.5266 37.2361 13.7211 37.3917 13.9228C37.5477 14.1245 37.6862 14.2838 37.6997 14.2765C37.7132 14.2696 37.7244 13.8863 37.7244 13.4246C37.7244 12.9606 37.7112 12.5855 37.6951 12.5855C37.6793 12.5855 37.5217 12.7744 37.3447 13.0051C37.0544 13.3845 37.0274 13.4309 37.0659 13.4904ZM49.7265 14.2765C49.74 14.2838 49.8786 14.1245 50.0342 13.9228C50.1899 13.7211 50.3366 13.5266 50.36 13.4904C50.3985 13.4309 50.3715 13.3845 50.077 13.0037C49.8977 12.7721 49.74 12.5832 49.7265 12.5842C49.7131 12.5849 49.7019 12.9633 49.7019 13.4246C49.7019 13.8863 49.7131 14.2696 49.7265 14.2765Z" fill="white"/>
</g>
<path d="M24.832 45V39.36H26.808C27.4107 39.36 27.9227 39.4693 28.344 39.688C28.7653 39.9067 29.0853 40.2267 29.304 40.648C29.528 41.064 29.64 41.5733 29.64 42.176C29.64 42.7787 29.528 43.2907 29.304 43.712C29.0853 44.1333 28.7653 44.4533 28.344 44.672C27.9227 44.8907 27.4107 45 26.808 45H24.832ZM25.544 44.376H26.768C27.4667 44.376 27.9947 44.1947 28.352 43.832C28.7147 43.4693 28.896 42.9173 28.896 42.176C28.896 41.4347 28.7147 40.8853 28.352 40.528C27.9947 40.1653 27.4667 39.984 26.768 39.984H25.544V44.376ZM30.8742 40.096V39.304H31.7382V40.096H30.8742ZM30.9542 45V41.048H31.6662V45H30.9542ZM33.103 45V41.048H33.759V41.912C33.8283 41.736 33.9243 41.5787 34.047 41.44C34.175 41.296 34.327 41.184 34.503 41.104C34.6843 41.0187 34.8817 40.976 35.095 40.976C35.4417 40.976 35.727 41.0613 35.951 41.232C36.175 41.4027 36.3137 41.6267 36.367 41.904H36.359C36.4657 41.6427 36.6337 41.424 36.863 41.248C37.0977 41.0667 37.391 40.976 37.743 40.976C38.0417 40.976 38.295 41.0347 38.503 41.152C38.711 41.264 38.8683 41.4373 38.975 41.672C39.0817 41.9067 39.135 42.2027 39.135 42.56V45H38.431V42.608C38.431 42.2667 38.3697 42.0107 38.247 41.84C38.1243 41.6693 37.9057 41.584 37.591 41.584C37.3563 41.584 37.1537 41.6373 36.983 41.744C36.8177 41.8453 36.6897 41.9893 36.599 42.176C36.5137 42.3573 36.471 42.5627 36.471 42.792V45H35.767V42.608C35.767 42.272 35.6977 42.0187 35.559 41.848C35.4203 41.672 35.2097 41.584 34.927 41.584C34.6977 41.584 34.4977 41.6427 34.327 41.76C34.1617 41.872 34.0337 42.0187 33.943 42.2C33.8523 42.3813 33.807 42.5733 33.807 42.776V45H33.103ZM42.4676 45.072C42.0249 45.072 41.6409 44.992 41.3156 44.832C40.9956 44.6667 40.7502 44.432 40.5796 44.128C40.4089 43.8187 40.3236 43.4507 40.3236 43.024C40.3236 42.624 40.4036 42.272 40.5636 41.968C40.7236 41.6587 40.9502 41.416 41.2436 41.24C41.5369 41.064 41.8862 40.976 42.2916 40.976C42.6756 40.976 43.0009 41.0587 43.2676 41.224C43.5396 41.3893 43.7449 41.6213 43.8836 41.92C44.0276 42.2187 44.0996 42.5733 44.0996 42.984V43.216H40.8596V42.72H43.6356L43.4836 42.88C43.4836 42.4427 43.3796 42.1067 43.1716 41.872C42.9689 41.6373 42.6756 41.52 42.2916 41.52C42.0409 41.52 41.8169 41.5787 41.6196 41.696C41.4276 41.808 41.2782 41.968 41.1716 42.176C41.0649 42.384 41.0116 42.6373 41.0116 42.936V43.016C41.0116 43.336 41.0702 43.6053 41.1876 43.824C41.3049 44.0427 41.4729 44.208 41.6916 44.32C41.9102 44.432 42.1716 44.488 42.4756 44.488C42.6942 44.488 42.9156 44.4587 43.1396 44.4C43.3689 44.336 43.5822 44.224 43.7796 44.064L44.0196 44.576C43.8169 44.7467 43.5742 44.872 43.2916 44.952C43.0142 45.032 42.7396 45.072 42.4676 45.072ZM45.2745 45V41.048H45.9385V41.904C46.0665 41.6107 46.2585 41.384 46.5145 41.224C46.7705 41.0587 47.0585 40.976 47.3785 40.976C47.7038 40.976 47.9758 41.0347 48.1945 41.152C48.4132 41.264 48.5758 41.44 48.6825 41.68C48.7945 41.9147 48.8505 42.208 48.8505 42.56V45H48.1385V42.6C48.1385 42.3867 48.1092 42.2053 48.0505 42.056C47.9918 41.9067 47.8932 41.792 47.7545 41.712C47.6212 41.6267 47.4425 41.584 47.2185 41.584C46.9838 41.584 46.7705 41.6373 46.5785 41.744C46.3918 41.8507 46.2452 41.9947 46.1385 42.176C46.0372 42.3573 45.9865 42.56 45.9865 42.784V45H45.2745ZM51.7149 45.072C51.4962 45.072 51.2802 45.0507 51.0669 45.008C50.8589 44.9707 50.6642 44.9173 50.4829 44.848C50.3069 44.7733 50.1549 44.6827 50.0269 44.576L50.2589 44.072C50.3922 44.1733 50.5389 44.256 50.6989 44.32C50.8642 44.384 51.0322 44.432 51.2029 44.464C51.3789 44.4907 51.5469 44.504 51.7069 44.504C52.0375 44.504 52.2909 44.4533 52.4669 44.352C52.6482 44.2507 52.7389 44.1093 52.7389 43.928C52.7389 43.7733 52.6855 43.656 52.5789 43.576C52.4775 43.4907 52.3069 43.4267 52.0669 43.384L51.2429 43.24C50.8749 43.1707 50.5975 43.0453 50.4109 42.864C50.2295 42.6827 50.1389 42.4453 50.1389 42.152C50.1389 41.9173 50.2029 41.712 50.3309 41.536C50.4642 41.36 50.6535 41.224 50.8989 41.128C51.1442 41.0267 51.4375 40.976 51.7789 40.976C51.9655 40.976 52.1549 40.9947 52.3469 41.032C52.5442 41.0693 52.7255 41.1253 52.8909 41.2C53.0615 41.2693 53.2002 41.3573 53.3069 41.464L53.0669 41.968C52.9602 41.8667 52.8322 41.7867 52.6829 41.728C52.5389 41.664 52.3869 41.6187 52.2269 41.592C52.0722 41.56 51.9202 41.544 51.7709 41.544C51.4615 41.544 51.2215 41.5973 51.0509 41.704C50.8802 41.8053 50.7949 41.9493 50.7949 42.136C50.7949 42.2853 50.8429 42.4027 50.9389 42.488C51.0402 42.5733 51.2029 42.6373 51.4269 42.68L52.2269 42.824C52.6215 42.8987 52.9149 43.024 53.1069 43.2C53.2989 43.3707 53.3949 43.608 53.3949 43.912C53.3949 44.1467 53.3255 44.352 53.1869 44.528C53.0482 44.6987 52.8535 44.832 52.6029 44.928C52.3522 45.024 52.0562 45.072 51.7149 45.072ZM54.4914 40.096V39.304H55.3554V40.096H54.4914ZM54.5714 45V41.048H55.2834V45H54.5714ZM58.4242 45.072C58.0242 45.072 57.6775 44.9867 57.3842 44.816C57.0909 44.6453 56.8642 44.408 56.7042 44.104C56.5442 43.7947 56.4642 43.432 56.4642 43.016C56.4642 42.6053 56.5442 42.248 56.7042 41.944C56.8642 41.6347 57.0909 41.3973 57.3842 41.232C57.6775 41.0613 58.0242 40.976 58.4242 40.976C58.8242 40.976 59.1682 41.0613 59.4562 41.232C59.7495 41.3973 59.9762 41.6347 60.1362 41.944C60.2962 42.248 60.3762 42.6053 60.3762 43.016C60.3762 43.432 60.2962 43.7947 60.1362 44.104C59.9815 44.408 59.7575 44.6453 59.4642 44.816C59.1709 44.9867 58.8242 45.072 58.4242 45.072ZM58.4162 44.472C58.8055 44.472 59.1122 44.3413 59.3362 44.08C59.5602 43.8187 59.6722 43.464 59.6722 43.016C59.6722 42.568 59.5602 42.216 59.3362 41.96C59.1175 41.704 58.8135 41.576 58.4242 41.576C58.0349 41.576 57.7282 41.704 57.5042 41.96C57.2802 42.216 57.1682 42.568 57.1682 43.016C57.1682 43.464 57.2802 43.8187 57.5042 44.08C57.7335 44.3413 58.0375 44.472 58.4162 44.472ZM61.5714 45V41.048H62.2354V41.904C62.3634 41.6107 62.5554 41.384 62.8114 41.224C63.0674 41.0587 63.3554 40.976 63.6754 40.976C64.0007 40.976 64.2727 41.0347 64.4914 41.152C64.71 41.264 64.8727 41.44 64.9794 41.68C65.0914 41.9147 65.1474 42.208 65.1474 42.56V45H64.4354V42.6C64.4354 42.3867 64.406 42.2053 64.3474 42.056C64.2887 41.9067 64.19 41.792 64.0514 41.712C63.918 41.6267 63.7394 41.584 63.5154 41.584C63.2807 41.584 63.0674 41.6373 62.8754 41.744C62.6887 41.8507 62.542 41.9947 62.4354 42.176C62.334 42.3573 62.2834 42.56 62.2834 42.784V45H61.5714Z" fill="#CE3439"/>
<path d="M29.3078 58.072C29.0624 58.072 28.8251 58.0453 28.5958 57.992C28.3718 57.9387 28.1611 57.8613 27.9638 57.76C27.7664 57.6533 27.5904 57.5253 27.4358 57.376L27.7158 56.816C27.9611 57.04 28.2118 57.2027 28.4678 57.304C28.7291 57.4 29.0091 57.448 29.3078 57.448C29.7024 57.448 30.0091 57.3467 30.2278 57.144C30.4518 56.936 30.5638 56.6453 30.5638 56.272C30.5638 55.904 30.4598 55.6107 30.2518 55.392C30.0438 55.1733 29.7558 55.064 29.3878 55.064C29.1424 55.064 28.9184 55.1147 28.7158 55.216C28.5184 55.312 28.3344 55.4747 28.1638 55.704H27.6038V52.36H30.9798V52.976H28.2518V55.096H28.2198C28.3478 54.904 28.5238 54.7493 28.7478 54.632C28.9718 54.5093 29.2224 54.448 29.4998 54.448C29.8624 54.448 30.1744 54.5253 30.4358 54.68C30.6971 54.8293 30.8971 55.0373 31.0358 55.304C31.1798 55.5707 31.2517 55.8827 31.2517 56.24C31.2517 56.6187 31.1718 56.9467 31.0118 57.224C30.8518 57.496 30.6278 57.7067 30.3398 57.856C30.0518 58 29.7078 58.072 29.3078 58.072ZM34.2326 58.072C33.7793 58.072 33.3953 57.9627 33.0806 57.744C32.766 57.5253 32.526 57.2107 32.3606 56.8C32.1953 56.384 32.1126 55.8853 32.1126 55.304C32.1126 54.6533 32.2033 54.1067 32.3846 53.664C32.566 53.216 32.8273 52.8747 33.1686 52.64C33.51 52.4053 33.9206 52.288 34.4006 52.288C34.614 52.288 34.8166 52.3147 35.0086 52.368C35.2006 52.416 35.382 52.4907 35.5526 52.592C35.7233 52.6933 35.8833 52.8187 36.0326 52.968L35.7686 53.52C35.5606 53.3013 35.342 53.1467 35.1126 53.056C34.8833 52.96 34.646 52.912 34.4006 52.912C34.1393 52.912 33.9073 52.9627 33.7046 53.064C33.502 53.16 33.3313 53.3067 33.1926 53.504C33.054 53.696 32.9473 53.936 32.8726 54.224C32.8033 54.5067 32.7686 54.8373 32.7686 55.216V55.68H32.7766C32.8246 55.424 32.9206 55.2053 33.0646 55.024C33.2086 54.8373 33.3873 54.696 33.6006 54.6C33.814 54.4987 34.0486 54.448 34.3046 54.448C34.646 54.448 34.9446 54.5253 35.2006 54.68C35.462 54.8293 35.6646 55.04 35.8086 55.312C35.958 55.5787 36.0326 55.888 36.0326 56.24C36.0326 56.592 35.9553 56.9067 35.8006 57.184C35.6513 57.4613 35.4406 57.68 35.1686 57.84C34.8966 57.9947 34.5846 58.072 34.2326 58.072ZM34.1926 57.464C34.4273 57.464 34.6326 57.4133 34.8086 57.312C34.9846 57.2107 35.1206 57.0693 35.2166 56.888C35.318 56.7067 35.3686 56.496 35.3686 56.256C35.3686 56.016 35.318 55.808 35.2166 55.632C35.1206 55.4507 34.9846 55.3093 34.8086 55.208C34.6326 55.1067 34.4246 55.056 34.1846 55.056C33.95 55.056 33.742 55.1067 33.5606 55.208C33.3846 55.3093 33.2433 55.4507 33.1366 55.632C33.0353 55.808 32.9846 56.016 32.9846 56.256C32.9846 56.496 33.0353 56.7067 33.1366 56.888C33.238 57.0693 33.3793 57.2107 33.5606 57.312C33.742 57.4133 33.9526 57.464 34.1926 57.464ZM37.7575 55.312L37.2855 55.032L37.9895 53.968L38.0055 53.992L36.7175 54.072V53.52L38.0055 53.6L37.9815 53.616L37.2855 52.56L37.7655 52.28L38.3335 53.464H38.3255L38.8775 52.28L39.3575 52.56L38.6535 53.616L38.6295 53.6L39.9255 53.52V54.072L38.6375 53.992L38.6615 53.968L39.3575 55.032L38.8855 55.312L38.3255 54.136H38.3335L37.7575 55.312ZM43.2511 58V56.832H40.6191V56.296L43.2191 52.36H43.9311V56.232H44.7151V56.832H43.9311V58H43.2511ZM43.2751 56.232V53.24H43.3071L41.2431 56.368L41.1871 56.232H43.2751ZM47.32 58.072C47.0853 58.072 46.8533 58.048 46.624 58C46.3947 57.952 46.176 57.8773 45.968 57.776C45.7653 57.6747 45.5787 57.5493 45.408 57.4L45.68 56.84C45.936 57.0587 46.2027 57.216 46.48 57.312C46.7573 57.4027 47.0373 57.448 47.32 57.448C47.5547 57.448 47.7653 57.4133 47.952 57.344C48.144 57.2693 48.2933 57.16 48.4 57.016C48.512 56.8667 48.568 56.6747 48.568 56.44C48.568 56.1147 48.4587 55.8693 48.24 55.704C48.0213 55.5333 47.704 55.448 47.288 55.448H46.44V54.832H47.184C47.424 54.832 47.6373 54.7947 47.824 54.72C48.016 54.64 48.1653 54.5227 48.272 54.368C48.3787 54.2133 48.432 54.0213 48.432 53.792C48.432 53.4987 48.3307 53.28 48.128 53.136C47.9253 52.9867 47.664 52.912 47.344 52.912C47.0613 52.912 46.784 52.96 46.512 53.056C46.2453 53.152 46 53.3173 45.776 53.552L45.512 53C45.736 52.76 46.0133 52.5813 46.344 52.464C46.6747 52.3467 47.0187 52.288 47.376 52.288C47.7333 52.288 48.04 52.3467 48.296 52.464C48.5573 52.576 48.76 52.7413 48.904 52.96C49.048 53.1733 49.12 53.432 49.12 53.736C49.12 54.056 49.0293 54.3387 48.848 54.584C48.6667 54.8293 48.4213 55.0027 48.112 55.104V55.096C48.336 55.1387 48.5333 55.2213 48.704 55.344C48.8747 55.4613 49.0107 55.616 49.112 55.808C49.2133 55.9947 49.264 56.216 49.264 56.472C49.264 56.808 49.1813 57.096 49.016 57.336C48.856 57.576 48.6293 57.76 48.336 57.888C48.048 58.0107 47.7093 58.072 47.32 58.072ZM51.1169 55.312L50.6449 55.032L51.3489 53.968L51.3649 53.992L50.0769 54.072V53.52L51.3649 53.6L51.3409 53.616L50.6449 52.56L51.1249 52.28L51.6929 53.464H51.6849L52.2369 52.28L52.7169 52.56L52.0129 53.616L51.9889 53.6L53.2849 53.52V54.072L51.9969 53.992L52.0209 53.968L52.7169 55.032L52.2449 55.312L51.6849 54.136H51.6929L51.1169 55.312ZM54.2185 58V57.472L56.2025 55.392C56.3945 55.1893 56.5438 55.0053 56.6505 54.84C56.7572 54.6747 56.8345 54.5147 56.8825 54.36C56.9305 54.2053 56.9545 54.048 56.9545 53.888C56.9545 53.5733 56.8532 53.3333 56.6505 53.168C56.4532 52.9973 56.1785 52.912 55.8265 52.912C55.5598 52.912 55.2958 52.9653 55.0345 53.072C54.7785 53.1733 54.5332 53.336 54.2985 53.56L54.0265 53C54.2612 52.776 54.5412 52.6027 54.8665 52.48C55.1918 52.352 55.5278 52.288 55.8745 52.288C56.2425 52.288 56.5598 52.352 56.8265 52.48C57.0932 52.6027 57.2958 52.7813 57.4345 53.016C57.5785 53.2453 57.6505 53.5227 57.6505 53.848C57.6505 54.0133 57.6318 54.176 57.5945 54.336C57.5572 54.4907 57.4985 54.6453 57.4185 54.8C57.3438 54.9547 57.2452 55.1147 57.1225 55.28C56.9998 55.4453 56.8505 55.6187 56.6745 55.8L55.1225 57.416V57.384H57.8825V58H54.2185ZM59.2554 58L62.0154 52.648L62.0474 52.992H58.8714V52.36H62.6394V52.896L60.0314 58H59.2554Z" fill="black"/>
<defs>
<filter id="filter0_d_271_247" x="0.0999999" y="24" width="89.8" height="57.9" filterUnits="userSpaceOnUse" color-interpolation-filters="sRGB">
<feFlood flood-opacity="0" result="BackgroundImageFix"/>
<feColorMatrix in="SourceAlpha" type="matrix" values="0 0 0 0 0 0 0 0 0 0 0 0 0 0 0 0 0 0 127 0" result="hardAlpha"/>
<feOffset dy="4"/>
<feGaussianBlur stdDeviation="1.95"/>
<feComposite in2="hardAlpha" operator="out"/>
<feColorMatrix type="matrix" values="0 0 0 0 0 0 0 0 0 0 0 0 0 0 0 0 0 0 0.2 0"/>
<feBlend mode="normal" in2="BackgroundImageFix" result="effect1_dropShadow_271_247"/>
<feBlend mode="normal" in="SourceGraphic" in2="effect1_dropShadow_271_247" result="shape"/>
</filter>
<clipPath id="clip0_271_247">
<rect width="16.8475" height="16.8475" fill="white" transform="translate(35.2891 7.25488)"/>
</clipPath>
</defs>
</svg>
