<svg width="76" height="67" viewBox="0 0 76 67" fill="none" xmlns="http://www.w3.org/2000/svg">
<g filter="url(#filter0_d_235_157)">
<rect x="4" y="20" width="68" height="39" rx="2" fill="white"/>
<rect x="4.25" y="20.25" width="67.5" height="38.5" rx="1.75" stroke="white" stroke-width="0.5"/>
</g>
<rect x="25" width="25" height="25" rx="3" fill="#CB3335"/>
<g clip-path="url(#clip0_235_157)">
<path fill-rule="evenodd" clip-rule="evenodd" d="M30.3071 8.82637C30.3536 8.84359 30.408 8.88215 30.4283 8.91223C30.4583 8.9568 30.4649 9.3459 30.4646 13.0821L30.3976 13.1505C30.3509 13.1981 30.3008 13.2189 30.2336 13.2189C30.1666 13.2189 30.1154 13.1978 29.9998 13.0821V11.0314C29.9998 9.71887 30.0096 8.9609 30.0271 8.9259C30.0422 8.89582 30.0925 8.85426 30.1387 8.8332C30.2046 8.80367 30.2412 8.80231 30.3071 8.82637ZM43.8423 8.82637C43.8888 8.84359 43.9432 8.88215 43.9634 8.91223C43.9935 8.9568 44.0001 9.3459 43.9998 13.0821L43.9328 13.1505C43.886 13.1981 43.836 13.2189 43.7687 13.2189C43.7017 13.2189 43.6506 13.1978 43.5349 13.0821V11.0314C43.5349 9.71887 43.5448 8.9609 43.5623 8.9259C43.5773 8.89582 43.6276 8.85426 43.6738 8.8332C43.7397 8.80367 43.7764 8.80231 43.8423 8.82637ZM43.8677 13.9435L43.9998 14.0939V15.5568C43.9998 16.4774 43.9897 17.0399 43.9724 17.0743C43.9574 17.1044 43.9022 17.1476 43.8494 17.17C43.7652 17.2061 42.9424 17.2111 36.9998 17.2111C31.0572 17.2111 30.2344 17.2061 30.1502 17.17C30.0974 17.1476 30.0422 17.1044 30.0271 17.0743C30.0099 17.0399 29.9998 16.4791 29.9995 15.5636C29.9995 14.2694 30.0042 14.1004 30.0433 14.0441C30.0676 14.0091 30.1138 13.97 30.1461 13.9569C30.1789 13.9435 33.2244 13.9353 43.8677 13.9435ZM30.4783 16.7325H43.5213L43.5256 14.3946H42.824C42.8226 14.8505 42.8098 14.9724 42.789 15.0011C42.7707 15.0266 42.7187 15.0613 42.6736 15.0785C42.6074 15.1039 42.5744 15.1015 42.5027 15.0668C42.4445 15.0383 42.4043 14.9929 42.386 14.9347C42.3706 14.8857 42.3583 14.7444 42.3586 14.6202L42.3592 14.3946H41.4295C41.4295 15.3963 41.4281 15.4077 41.3636 15.4816C41.3141 15.5379 41.2725 15.5568 41.1971 15.5568C41.1216 15.5568 41.08 15.5379 41.0305 15.4816C40.966 15.4077 40.9646 15.3963 40.9646 14.9005V14.3946H40.0349C40.0221 14.9358 40.0144 14.9743 39.9603 15.0282C39.9206 15.0679 39.8649 15.0897 39.8009 15.0905C39.7262 15.0916 39.6858 15.0733 39.636 15.0167C39.5758 14.9481 39.5701 14.918 39.5701 14.6681V14.3946H38.6404C38.6404 15.212 38.6306 15.3476 38.5994 15.42C38.5748 15.4777 38.5286 15.5272 38.4832 15.5447C38.4419 15.5606 38.3804 15.5666 38.3465 15.5584C38.3126 15.5499 38.2601 15.5155 38.2297 15.4816C38.1783 15.4244 38.1745 15.3837 38.175 14.9073L38.1756 14.3946H37.2459C37.2456 14.723 37.2333 14.8647 37.2183 14.921C37.198 14.9979 37.1671 15.0356 37.0955 15.0714C37.0044 15.1171 36.9951 15.1171 36.9041 15.0714C36.8324 15.0356 36.8015 14.9979 36.7813 14.921C36.7663 14.8647 36.754 14.723 36.754 14.6066L36.7537 14.3946H35.824C35.8226 15.2672 35.8122 15.4329 35.789 15.4635C35.7707 15.4873 35.728 15.5212 35.6941 15.5387C35.6602 15.5562 35.5957 15.5644 35.5506 15.5568C35.4959 15.5476 35.4503 15.5135 35.4138 15.4542C35.3649 15.3741 35.3594 15.317 35.3592 14.88V14.3946H34.4295C34.4295 14.918 34.4237 14.9481 34.3636 15.0167C34.3146 15.0722 34.272 15.0919 34.2001 15.0919C34.1353 15.0919 34.0822 15.0711 34.0406 15.0296C33.9849 14.9741 33.9775 14.9377 33.9715 14.6809L33.9646 14.3946H33.0349C33.0215 15.4088 33.0185 15.4351 32.9603 15.493C32.9206 15.5327 32.8649 15.5546 32.8009 15.5554C32.7262 15.5565 32.6858 15.5382 32.636 15.4816C32.5715 15.4077 32.5701 15.3963 32.5701 14.9005V14.3946H31.6404C31.6412 14.7444 31.6289 14.8857 31.6136 14.9347C31.5953 14.9929 31.5551 15.0383 31.4969 15.0668C31.4252 15.1015 31.3921 15.1039 31.326 15.0785C31.2808 15.0613 31.2289 15.0266 31.2106 15.0011C31.1898 14.9724 31.1769 14.8505 31.1764 14.6749L31.1756 14.3946H30.4641L30.4783 16.7325ZM32.2316 9.50012C32.2674 9.50012 32.3306 9.52992 32.4471 9.63191L32.4607 10.8946H41.5388L41.5525 9.63191L41.6277 9.56602C41.669 9.52992 41.7305 9.49957 41.7644 9.49902C41.7983 9.4982 41.853 9.51981 41.8858 9.54688C41.9189 9.57367 42.1929 9.91574 42.4948 10.3068C42.7969 10.6978 43.0512 11.0486 43.0603 11.0861C43.0698 11.1254 43.0589 11.1891 43.0346 11.2364C43.0113 11.2816 42.7871 11.5832 42.5366 11.9064C42.2859 12.2298 42.0327 12.5528 41.9739 12.6241C41.8897 12.7264 41.8495 12.754 41.7849 12.754C41.7398 12.754 41.6783 12.7417 41.6482 12.7267C41.6181 12.7116 41.581 12.6594 41.5656 12.6105C41.5503 12.5615 41.538 12.2602 41.5388 11.3595H32.4607L32.4613 11.9405C32.4613 12.2602 32.449 12.5615 32.4339 12.6105C32.4186 12.6594 32.3814 12.7116 32.3513 12.7267C32.3213 12.7417 32.2597 12.754 32.2146 12.754C32.1501 12.754 32.1099 12.7264 32.0257 12.6241C31.9666 12.5528 31.7134 12.2298 31.4629 11.9064C31.2122 11.5832 30.9883 11.2816 30.965 11.2364C30.9407 11.1891 30.9297 11.1254 30.9393 11.0861C30.9483 11.0486 31.2026 10.6978 31.5045 10.3068C31.8064 9.91574 32.079 9.57422 32.1102 9.54797C32.1411 9.52172 32.1958 9.50012 32.2316 9.50012ZM31.4761 11.1818C31.4958 11.2118 31.6174 11.3734 31.7468 11.5411C31.8764 11.7087 31.9915 11.841 32.0027 11.835C32.0139 11.8293 32.0232 11.5107 32.0232 11.1271C32.0232 10.7415 32.0123 10.4298 31.9989 10.4298C31.9858 10.4298 31.8548 10.5868 31.7077 10.7784C31.4665 11.0937 31.4441 11.1323 31.4761 11.1818ZM41.9969 11.835C42.0081 11.841 42.1232 11.7087 42.2525 11.5411C42.3819 11.3734 42.5038 11.2118 42.5232 11.1818C42.5552 11.1323 42.5328 11.0937 42.2881 10.7773C42.139 10.5848 42.0081 10.4279 41.9969 10.4287C41.9856 10.4293 41.9763 10.7437 41.9763 11.1271C41.9763 11.5107 41.9856 11.8293 41.9969 11.835Z" fill="white"/>
</g>
<path d="M19.672 38V33.77H21.184C21.636 33.77 22.018 33.852 22.33 34.016C22.646 34.18 22.886 34.42 23.05 34.736C23.218 35.048 23.302 35.43 23.302 35.882C23.302 36.334 23.218 36.718 23.05 37.034C22.886 37.35 22.646 37.59 22.33 37.754C22.014 37.918 21.632 38 21.184 38H19.672ZM20.23 37.508H21.154C21.662 37.508 22.05 37.376 22.318 37.112C22.59 36.844 22.726 36.434 22.726 35.882C22.726 35.33 22.592 34.922 22.324 34.658C22.056 34.394 21.666 34.262 21.154 34.262H20.23V37.508ZM24.465 38V33.77H25.023V38H24.465ZM26.3813 38V33.77H27.0713L28.4993 36.68H28.5293L29.9513 33.77H30.6353V38H30.0953V34.574H30.0653L28.7213 37.322H28.3013L26.9513 34.574H26.9213V38H26.3813ZM31.9884 38V33.77H34.7904V34.262H32.5464V35.612H34.6644V36.104H32.5464V37.508H34.7904V38H31.9884ZM35.9786 38V33.77H36.4946L39.0446 37.142H39.0746V33.77H39.6146V38H39.0746L36.5486 34.652H36.5186V38H35.9786ZM42.4051 38.054C42.1651 38.054 41.9371 38.036 41.7211 38C41.5091 37.968 41.3151 37.918 41.1391 37.85C40.9631 37.778 40.8091 37.688 40.6771 37.58L40.8871 37.118C41.0271 37.23 41.1771 37.318 41.3371 37.382C41.4971 37.446 41.6651 37.49 41.8411 37.514C42.0211 37.538 42.2091 37.55 42.4051 37.55C42.7211 37.55 42.9691 37.486 43.1491 37.358C43.3291 37.23 43.4191 37.048 43.4191 36.812C43.4191 36.688 43.3891 36.588 43.3291 36.512C43.2731 36.436 43.1831 36.374 43.0591 36.326C42.9351 36.274 42.7771 36.23 42.5851 36.194L41.8711 36.056C41.4751 35.98 41.1931 35.846 41.0251 35.654C40.8571 35.458 40.7731 35.216 40.7731 34.928C40.7731 34.68 40.8451 34.466 40.9891 34.286C41.1331 34.106 41.3311 33.966 41.5831 33.866C41.8391 33.766 42.1271 33.716 42.4471 33.716C42.6511 33.716 42.8411 33.736 43.0171 33.776C43.1931 33.812 43.3531 33.866 43.4971 33.938C43.6451 34.01 43.7771 34.102 43.8931 34.214L43.6831 34.676C43.5111 34.504 43.3231 34.386 43.1191 34.322C42.9151 34.254 42.6891 34.22 42.4411 34.22C42.2331 34.22 42.0451 34.248 41.8771 34.304C41.7091 34.356 41.5751 34.434 41.4751 34.538C41.3791 34.642 41.3311 34.774 41.3311 34.934C41.3311 35.106 41.3851 35.24 41.4931 35.336C41.6011 35.432 41.7911 35.506 42.0631 35.558L42.7711 35.696C43.1831 35.772 43.4871 35.902 43.6831 36.086C43.8791 36.266 43.9771 36.502 43.9771 36.794C43.9771 37.034 43.9111 37.25 43.7791 37.442C43.6511 37.634 43.4691 37.784 43.2331 37.892C42.9971 38 42.7211 38.054 42.4051 38.054ZM45.0197 38V33.77H45.5777V38H45.0197ZM48.724 38.054C48.42 38.054 48.146 38.004 47.902 37.904C47.658 37.804 47.45 37.662 47.278 37.478C47.106 37.29 46.974 37.062 46.882 36.794C46.79 36.526 46.744 36.224 46.744 35.888C46.744 35.548 46.788 35.244 46.876 34.976C46.968 34.708 47.1 34.482 47.272 34.298C47.444 34.11 47.652 33.966 47.896 33.866C48.144 33.766 48.42 33.716 48.724 33.716C49.032 33.716 49.308 33.766 49.552 33.866C49.8 33.966 50.01 34.11 50.182 34.298C50.354 34.482 50.484 34.708 50.572 34.976C50.664 35.24 50.71 35.542 50.71 35.882C50.71 36.218 50.664 36.52 50.572 36.788C50.48 37.056 50.348 37.284 50.176 37.472C50.008 37.66 49.8 37.804 49.552 37.904C49.308 38.004 49.032 38.054 48.724 38.054ZM48.724 37.55C49.024 37.55 49.278 37.488 49.486 37.364C49.694 37.236 49.854 37.048 49.966 36.8C50.078 36.552 50.134 36.246 50.134 35.882C50.134 35.514 50.078 35.208 49.966 34.964C49.858 34.716 49.698 34.53 49.486 34.406C49.278 34.282 49.024 34.22 48.724 34.22C48.428 34.22 48.176 34.282 47.968 34.406C47.76 34.53 47.6 34.716 47.488 34.964C47.376 35.208 47.32 35.514 47.32 35.882C47.32 36.246 47.376 36.552 47.488 36.8C47.6 37.048 47.76 37.236 47.968 37.364C48.176 37.488 48.428 37.55 48.724 37.55ZM51.8751 38V33.77H52.3911L54.9411 37.142H54.9711V33.77H55.5111V38H54.9711L52.4451 34.652H52.4151V38H51.8751Z" fill="#CE3439"/>
<path d="M22.9637 48V47.526H24.2237V44.196L24.5177 44.256L23.1797 45.12L22.9337 44.688L24.3617 43.77H24.7697V47.526H25.9157V48H22.9637ZM26.5613 48V47.526H27.8213V44.196L28.1153 44.256L26.7773 45.12L26.5313 44.688L27.9593 43.77H28.3673V47.526H29.5133V48H26.5613ZM31.509 48.054C31.181 48.054 30.905 47.972 30.681 47.808C30.457 47.64 30.287 47.396 30.171 47.076C30.059 46.752 30.003 46.356 30.003 45.888C30.003 45.412 30.059 45.014 30.171 44.694C30.287 44.374 30.457 44.132 30.681 43.968C30.909 43.8 31.187 43.716 31.515 43.716C31.843 43.716 32.119 43.8 32.343 43.968C32.567 44.132 32.735 44.374 32.847 44.694C32.959 45.01 33.015 45.402 33.015 45.87C33.015 46.346 32.957 46.746 32.841 47.07C32.729 47.394 32.561 47.64 32.337 47.808C32.113 47.972 31.837 48.054 31.509 48.054ZM31.509 47.568C31.833 47.568 32.075 47.432 32.235 47.16C32.395 46.884 32.475 46.456 32.475 45.876C32.475 45.304 32.395 44.882 32.235 44.61C32.079 44.338 31.839 44.202 31.515 44.202C31.187 44.202 30.943 44.338 30.783 44.61C30.623 44.882 30.543 45.306 30.543 45.882C30.543 46.454 30.621 46.878 30.777 47.154C30.937 47.43 31.181 47.568 31.509 47.568ZM34.3266 46.038L33.9546 45.816L34.4766 45.042L34.4646 45.018L33.5226 45.09V44.658L34.4646 44.724L34.4706 44.7L33.9546 43.932L34.3386 43.71L34.7466 44.61H34.7706L35.1666 43.71L35.5506 43.932L35.0226 44.7L35.0286 44.724L35.9826 44.658V45.09L35.0406 45.018L35.0286 45.042L35.5506 45.816L35.1786 46.038L34.7706 45.144H34.7466L34.3266 46.038ZM37.7492 48.054C37.5852 48.054 37.4312 48.036 37.2872 48C37.1432 47.968 37.0052 47.918 36.8732 47.85C36.7452 47.778 36.6232 47.686 36.5072 47.574L36.7172 47.154C36.8892 47.322 37.0572 47.434 37.2212 47.49C37.3892 47.542 37.5672 47.568 37.7552 47.568C37.9512 47.568 38.1232 47.532 38.2712 47.46C38.4232 47.384 38.5492 47.274 38.6492 47.13C38.7532 46.982 38.8312 46.802 38.8832 46.59C38.9352 46.374 38.9612 46.128 38.9612 45.852V45.606H38.9312C38.8912 45.774 38.8172 45.92 38.7092 46.044C38.6012 46.168 38.4692 46.262 38.3132 46.326C38.1612 46.39 37.9952 46.422 37.8152 46.422C37.5592 46.422 37.3312 46.366 37.1312 46.254C36.9352 46.142 36.7812 45.988 36.6692 45.792C36.5572 45.592 36.5012 45.36 36.5012 45.096C36.5012 44.828 36.5592 44.59 36.6752 44.382C36.7912 44.174 36.9532 44.012 37.1612 43.896C37.3692 43.776 37.6032 43.716 37.8632 43.716C38.2152 43.716 38.5092 43.798 38.7452 43.962C38.9852 44.122 39.1632 44.356 39.2792 44.664C39.3992 44.972 39.4592 45.35 39.4592 45.798C39.4592 46.278 39.3912 46.686 39.2552 47.022C39.1232 47.358 38.9292 47.614 38.6732 47.79C38.4212 47.966 38.1132 48.054 37.7492 48.054ZM37.8932 45.966C38.0692 45.966 38.2252 45.928 38.3612 45.852C38.4972 45.776 38.6032 45.672 38.6792 45.54C38.7552 45.404 38.7932 45.252 38.7932 45.084C38.7932 44.896 38.7552 44.736 38.6792 44.604C38.6072 44.472 38.5032 44.37 38.3672 44.298C38.2312 44.226 38.0692 44.19 37.8812 44.19C37.7092 44.19 37.5572 44.228 37.4252 44.304C37.2932 44.38 37.1912 44.484 37.1192 44.616C37.0512 44.748 37.0172 44.904 37.0172 45.084C37.0172 45.256 37.0532 45.41 37.1252 45.546C37.1972 45.678 37.2992 45.782 37.4312 45.858C37.5632 45.93 37.7172 45.966 37.8932 45.966ZM41.5988 48.054C41.2708 48.054 40.9948 47.972 40.7708 47.808C40.5468 47.64 40.3768 47.396 40.2608 47.076C40.1488 46.752 40.0928 46.356 40.0928 45.888C40.0928 45.412 40.1488 45.014 40.2608 44.694C40.3768 44.374 40.5468 44.132 40.7708 43.968C40.9988 43.8 41.2768 43.716 41.6048 43.716C41.9328 43.716 42.2088 43.8 42.4328 43.968C42.6568 44.132 42.8248 44.374 42.9368 44.694C43.0488 45.01 43.1048 45.402 43.1048 45.87C43.1048 46.346 43.0468 46.746 42.9308 47.07C42.8188 47.394 42.6508 47.64 42.4268 47.808C42.2028 47.972 41.9268 48.054 41.5988 48.054ZM41.5988 47.568C41.9228 47.568 42.1648 47.432 42.3248 47.16C42.4848 46.884 42.5648 46.456 42.5648 45.876C42.5648 45.304 42.4848 44.882 42.3248 44.61C42.1688 44.338 41.9288 44.202 41.6048 44.202C41.2768 44.202 41.0328 44.338 40.8728 44.61C40.7128 44.882 40.6328 45.306 40.6328 45.882C40.6328 46.454 40.7108 46.878 40.8668 47.154C41.0268 47.43 41.2708 47.568 41.5988 47.568ZM44.4165 46.038L44.0445 45.816L44.5665 45.042L44.5545 45.018L43.6125 45.09V44.658L44.5545 44.724L44.5605 44.7L44.0445 43.932L44.4285 43.71L44.8365 44.61H44.8605L45.2565 43.71L45.6405 43.932L45.1125 44.7L45.1185 44.724L46.0725 44.658V45.09L45.1305 45.018L45.1185 45.042L45.6405 45.816L45.2685 46.038L44.8605 45.144H44.8365L44.4165 46.038ZM48.595 48V47.136H46.603V46.722L48.505 43.77H49.111V46.68H49.669V47.136H49.111V48H48.595ZM48.613 46.68V44.46H48.583L47.101 46.758L47.029 46.68H48.613ZM51.6887 48.054C51.3607 48.054 51.0847 47.972 50.8607 47.808C50.6367 47.64 50.4667 47.396 50.3507 47.076C50.2387 46.752 50.1827 46.356 50.1827 45.888C50.1827 45.412 50.2387 45.014 50.3507 44.694C50.4667 44.374 50.6367 44.132 50.8607 43.968C51.0887 43.8 51.3667 43.716 51.6947 43.716C52.0227 43.716 52.2987 43.8 52.5227 43.968C52.7467 44.132 52.9147 44.374 53.0267 44.694C53.1387 45.01 53.1947 45.402 53.1947 45.87C53.1947 46.346 53.1367 46.746 53.0207 47.07C52.9087 47.394 52.7407 47.64 52.5167 47.808C52.2927 47.972 52.0167 48.054 51.6887 48.054ZM51.6887 47.568C52.0127 47.568 52.2547 47.432 52.4147 47.16C52.5747 46.884 52.6547 46.456 52.6547 45.876C52.6547 45.304 52.5747 44.882 52.4147 44.61C52.2587 44.338 52.0187 44.202 51.6947 44.202C51.3667 44.202 51.1227 44.338 50.9627 44.61C50.8027 44.882 50.7227 45.306 50.7227 45.882C50.7227 46.454 50.8007 46.878 50.9567 47.154C51.1167 47.43 51.3607 47.568 51.6887 47.568Z" fill="black"/>
<defs>
<filter id="filter0_d_235_157" x="0.0999999" y="20" width="75.8" height="46.9" filterUnits="userSpaceOnUse" color-interpolation-filters="sRGB">
<feFlood flood-opacity="0" result="BackgroundImageFix"/>
<feColorMatrix in="SourceAlpha" type="matrix" values="0 0 0 0 0 0 0 0 0 0 0 0 0 0 0 0 0 0 127 0" result="hardAlpha"/>
<feOffset dy="4"/>
<feGaussianBlur stdDeviation="1.95"/>
<feComposite in2="hardAlpha" operator="out"/>
<feColorMatrix type="matrix" values="0 0 0 0 0 0 0 0 0 0 0 0 0 0 0 0 0 0 0.2 0"/>
<feBlend mode="normal" in2="BackgroundImageFix" result="effect1_dropShadow_235_157"/>
<feBlend mode="normal" in="SourceGraphic" in2="effect1_dropShadow_235_157" result="shape"/>
</filter>
<clipPath id="clip0_235_157">
<rect width="14" height="14" fill="white" transform="translate(30 6)"/>
</clipPath>
</defs>
</svg>
