<svg width="114" height="67" viewBox="0 0 114 67" fill="none" xmlns="http://www.w3.org/2000/svg">
<g filter="url(#filter0_d_235_218)">
<rect x="4" y="20" width="106" height="39" rx="2" fill="white"/>
<rect x="4.25" y="20.25" width="105.5" height="38.5" rx="1.75" stroke="white" stroke-width="0.5"/>
</g>
<rect x="44" width="25" height="25" rx="3" fill="#CB3335"/>
<g clip-path="url(#clip0_235_218)">
<path fill-rule="evenodd" clip-rule="evenodd" d="M56.0703 2.00675C56.1381 2.00253 56.2091 2.01378 56.2285 2.03136C56.2478 2.04893 56.778 2.32772 57.4062 2.65116C58.0348 2.97425 58.8177 3.37749 59.1464 3.54694C59.4751 3.71604 60.8912 4.44378 62.2929 5.16413C63.6949 5.88413 64.8688 6.49936 64.9022 6.531C64.9585 6.58444 64.9627 6.8794 64.9648 11.0004C64.9665 14.5298 64.9578 15.4252 64.9219 15.4765C64.8973 15.5117 62.9074 16.5442 60.4999 17.7708C58.0924 18.9978 56.0914 20.0015 56.0527 20.0015C56.014 20.0015 55.8083 19.9094 55.5956 19.7972C55.383 19.6847 53.391 18.6603 51.1691 17.5205C47.8398 15.8123 47.1177 15.4291 47.0632 15.3422C47.0122 15.261 47.0003 15.1886 47.0108 15.0258C47.0186 14.9098 47.0523 12.9562 47.0857 10.684C47.1195 8.41186 47.1613 6.51343 47.1789 6.46526C47.2056 6.39179 47.926 6.02018 51.579 4.19593C54.4981 2.738 55.988 2.01202 56.0703 2.00675ZM48.0472 6.5855C48.0515 6.59675 48.5964 6.89382 49.2587 7.24573C49.9211 7.59764 50.5026 7.90807 50.5507 7.93585C50.6351 7.98472 50.7944 7.90597 54.6025 5.93405C56.7825 4.80483 58.5544 3.87108 58.54 3.85843C58.5256 3.84577 57.9719 3.55714 57.3095 3.21682C56.6472 2.87651 56.0857 2.59913 56.0615 2.60018C56.0372 2.60124 54.2224 3.49386 52.0287 4.5837C49.8349 5.67354 48.0434 6.57425 48.0472 6.5855ZM53.7756 6.97503C52.3894 7.69046 51.2546 8.28354 51.2546 8.29339C51.2542 8.30288 51.5899 8.49132 52.0009 8.71175L52.748 9.11218C53.1294 8.91706 54.9073 7.99315 56.9446 6.93319C58.9819 5.87358 60.6508 4.99046 60.6536 4.97112C60.656 4.95179 60.3308 4.76581 59.9304 4.55804C59.5303 4.35026 59.1981 4.18046 59.1921 4.18116C59.1865 4.18186 58.5323 4.51796 57.7388 4.92823C56.9453 5.3385 55.1618 6.2596 53.7756 6.97503ZM55.6231 8.23011C54.3814 8.87382 53.3646 9.41276 53.3643 9.42718C53.3636 9.44159 53.9567 9.76995 54.6816 10.1567L55.9999 10.8598C62.1713 7.701 63.9899 6.76374 64.0233 6.73878C64.0757 6.69975 63.9066 6.60307 62.713 5.99065C61.9589 5.60393 61.3307 5.28542 61.3166 5.28296C61.3026 5.2805 60.5239 5.67917 59.5859 6.16889C58.6479 6.65827 56.8648 7.58604 55.6231 8.23011ZM47.6359 11.0356C47.5916 13.9026 47.5849 15.0367 47.6124 15.0652C47.6331 15.0866 48.0381 15.3025 48.5117 15.5451C48.9856 15.7873 50.8126 16.7235 52.5722 17.6253C54.3318 18.5267 55.7749 19.26 55.7795 19.2544C55.7837 19.2491 55.7725 17.4646 55.7542 15.2895C55.7359 13.114 55.7166 11.3319 55.711 11.3288C55.7057 11.3256 55.0999 10.9994 54.3652 10.6042L53.0292 9.88561C52.9948 10.0547 52.9751 10.523 52.9628 11.0356C52.9435 11.8646 52.934 11.9771 52.8763 12.0551C52.833 12.1137 52.7714 12.1462 52.6917 12.1525C52.5954 12.1606 52.375 12.0583 51.5544 11.6251C50.9947 11.3298 50.5005 11.0605 50.4558 11.0268L50.3749 10.9653L50.3574 8.4537C48.8042 7.61909 48.2069 7.29846 48.0276 7.20284C47.8483 7.10686 47.7006 7.03233 47.6996 7.0369C47.6989 7.04147 47.67 8.84077 47.6359 11.0356ZM56.3048 11.3235C56.2889 11.3295 56.2889 13.1182 56.3048 15.2983C56.3209 17.4783 56.342 19.2628 56.3515 19.2632C56.361 19.2639 58.1803 18.3407 60.3945 17.2115L64.4199 15.1587C64.4336 8.96628 64.4258 7.16944 64.4111 7.17085C64.3967 7.17261 62.5735 8.10495 60.3593 9.24331C58.1452 10.3817 56.3209 11.3175 56.3048 11.3235ZM50.903 10.6664C51.9949 11.2384 52.3307 11.4093 52.3542 11.4146C52.3852 11.4216 52.4035 11.2655 52.4228 10.8345C52.4376 10.51 52.4492 10.0941 52.4492 9.91057V9.57659C51.3048 8.96346 50.9568 8.78557 50.9374 8.78557C50.9149 8.78557 50.9023 9.12237 50.9026 9.726L50.903 10.6664Z" fill="white"/>
</g>
<path d="M19.672 32V27.77H21.448C21.748 27.77 22.006 27.822 22.222 27.926C22.438 28.026 22.604 28.172 22.72 28.364C22.836 28.552 22.894 28.78 22.894 29.048C22.894 29.312 22.834 29.542 22.714 29.738C22.598 29.93 22.432 30.08 22.216 30.188C22.004 30.292 21.748 30.344 21.448 30.344H20.23V32H19.672ZM20.23 29.858H21.364C21.68 29.858 21.92 29.794 22.084 29.666C22.248 29.534 22.33 29.33 22.33 29.054C22.33 28.778 22.248 28.576 22.084 28.448C21.92 28.32 21.68 28.256 21.364 28.256H20.23V29.858ZM23.6552 32V27.77H24.2132V32H23.6552ZM25.2595 32V27.77H28.0615V28.262H25.8175V29.612H27.9355V30.104H25.8175V31.508H28.0615V32H25.2595ZM30.7322 32.054C30.3322 32.054 29.9822 31.968 29.6822 31.796C29.3862 31.62 29.1562 31.37 28.9922 31.046C28.8322 30.722 28.7522 30.334 28.7522 29.882C28.7522 29.43 28.8322 29.044 28.9922 28.724C29.1562 28.4 29.3862 28.152 29.6822 27.98C29.9782 27.804 30.3282 27.716 30.7322 27.716C31.0282 27.716 31.2962 27.76 31.5362 27.848C31.7802 27.936 31.9902 28.068 32.1662 28.244L31.9562 28.67C31.7682 28.51 31.5782 28.396 31.3862 28.328C31.1942 28.256 30.9802 28.22 30.7442 28.22C30.3042 28.22 29.9582 28.36 29.7062 28.64C29.4542 28.92 29.3282 29.334 29.3282 29.882C29.3282 30.426 29.4542 30.84 29.7062 31.124C29.9582 31.408 30.3042 31.55 30.7442 31.55C30.9802 31.55 31.1942 31.516 31.3862 31.448C31.5782 31.376 31.7682 31.26 31.9562 31.1L32.1662 31.526C31.9902 31.702 31.7802 31.834 31.5362 31.922C31.2962 32.01 31.0282 32.054 30.7322 32.054ZM32.9564 32V27.77H35.7584V28.262H33.5144V29.612H35.6324V30.104H33.5144V31.508H35.7584V32H32.9564ZM38.034 32.054C37.794 32.054 37.566 32.036 37.35 32C37.138 31.968 36.944 31.918 36.768 31.85C36.592 31.778 36.438 31.688 36.306 31.58L36.516 31.118C36.656 31.23 36.806 31.318 36.966 31.382C37.126 31.446 37.294 31.49 37.47 31.514C37.65 31.538 37.838 31.55 38.034 31.55C38.35 31.55 38.598 31.486 38.778 31.358C38.958 31.23 39.048 31.048 39.048 30.812C39.048 30.688 39.018 30.588 38.958 30.512C38.902 30.436 38.812 30.374 38.688 30.326C38.564 30.274 38.406 30.23 38.214 30.194L37.5 30.056C37.104 29.98 36.822 29.846 36.654 29.654C36.486 29.458 36.402 29.216 36.402 28.928C36.402 28.68 36.474 28.466 36.618 28.286C36.762 28.106 36.96 27.966 37.212 27.866C37.468 27.766 37.756 27.716 38.076 27.716C38.28 27.716 38.47 27.736 38.646 27.776C38.822 27.812 38.982 27.866 39.126 27.938C39.274 28.01 39.406 28.102 39.522 28.214L39.312 28.676C39.14 28.504 38.952 28.386 38.748 28.322C38.544 28.254 38.318 28.22 38.07 28.22C37.862 28.22 37.674 28.248 37.506 28.304C37.338 28.356 37.204 28.434 37.104 28.538C37.008 28.642 36.96 28.774 36.96 28.934C36.96 29.106 37.014 29.24 37.122 29.336C37.23 29.432 37.42 29.506 37.692 29.558L38.4 29.696C38.812 29.772 39.116 29.902 39.312 30.086C39.508 30.266 39.606 30.502 39.606 30.794C39.606 31.034 39.54 31.25 39.408 31.442C39.28 31.634 39.098 31.784 38.862 31.892C38.626 32 38.35 32.054 38.034 32.054Z" fill="#CE3439"/>
<path d="M46.7078 32V31.526H47.9678V28.196L48.2618 28.256L46.9238 29.12L46.6778 28.688L48.1058 27.77H48.5138V31.526H49.6598V32H46.7078ZM51.6855 32.054C51.4935 32.054 51.3135 32.034 51.1455 31.994C50.9815 31.954 50.8255 31.894 50.6775 31.814C50.5335 31.734 50.4015 31.638 50.2815 31.526L50.5035 31.088C50.6835 31.26 50.8695 31.384 51.0615 31.46C51.2535 31.532 51.4615 31.568 51.6855 31.568C51.9815 31.568 52.2115 31.494 52.3755 31.346C52.5435 31.194 52.6275 30.978 52.6275 30.698C52.6275 30.422 52.5495 30.204 52.3935 30.044C52.2415 29.884 52.0295 29.804 51.7575 29.804C51.5775 29.804 51.4135 29.84 51.2655 29.912C51.1215 29.98 50.9835 30.1 50.8515 30.272H50.4015V27.77H52.9755V28.256H50.8935V29.792H50.9235C51.0155 29.664 51.1415 29.556 51.3015 29.468C51.4615 29.376 51.6395 29.33 51.8355 29.33C52.1075 29.33 52.3415 29.388 52.5375 29.504C52.7375 29.616 52.8895 29.772 52.9935 29.972C53.1015 30.172 53.1555 30.404 53.1555 30.668C53.1555 30.964 53.0935 31.216 52.9695 31.424C52.8495 31.628 52.6795 31.784 52.4595 31.892C52.2435 32 51.9855 32.054 51.6855 32.054ZM55.2531 32.054C54.9251 32.054 54.6491 31.972 54.4251 31.808C54.2011 31.64 54.0311 31.396 53.9151 31.076C53.8031 30.752 53.7471 30.356 53.7471 29.888C53.7471 29.412 53.8031 29.014 53.9151 28.694C54.0311 28.374 54.2011 28.132 54.4251 27.968C54.6531 27.8 54.9311 27.716 55.2591 27.716C55.5871 27.716 55.8631 27.8 56.0871 27.968C56.3111 28.132 56.4791 28.374 56.5911 28.694C56.7031 29.01 56.7591 29.402 56.7591 29.87C56.7591 30.346 56.7011 30.746 56.5851 31.07C56.4731 31.394 56.3051 31.64 56.0811 31.808C55.8571 31.972 55.5811 32.054 55.2531 32.054ZM55.2531 31.568C55.5771 31.568 55.8191 31.432 55.9791 31.16C56.1391 30.884 56.2191 30.456 56.2191 29.876C56.2191 29.304 56.1391 28.882 55.9791 28.61C55.8231 28.338 55.5831 28.202 55.2591 28.202C54.9311 28.202 54.6871 28.338 54.5271 28.61C54.3671 28.882 54.2871 29.306 54.2871 29.882C54.2871 30.454 54.3651 30.878 54.5211 31.154C54.6811 31.43 54.9251 31.568 55.2531 31.568ZM58.8508 32.054C58.5228 32.054 58.2468 31.972 58.0228 31.808C57.7988 31.64 57.6288 31.396 57.5128 31.076C57.4008 30.752 57.3448 30.356 57.3448 29.888C57.3448 29.412 57.4008 29.014 57.5128 28.694C57.6288 28.374 57.7988 28.132 58.0228 27.968C58.2508 27.8 58.5288 27.716 58.8568 27.716C59.1848 27.716 59.4608 27.8 59.6848 27.968C59.9088 28.132 60.0768 28.374 60.1888 28.694C60.3008 29.01 60.3568 29.402 60.3568 29.87C60.3568 30.346 60.2988 30.746 60.1828 31.07C60.0708 31.394 59.9028 31.64 59.6788 31.808C59.4548 31.972 59.1788 32.054 58.8508 32.054ZM58.8508 31.568C59.1748 31.568 59.4168 31.432 59.5768 31.16C59.7368 30.884 59.8168 30.456 59.8168 29.876C59.8168 29.304 59.7368 28.882 59.5768 28.61C59.4208 28.338 59.1808 28.202 58.8568 28.202C58.5288 28.202 58.2848 28.338 58.1248 28.61C57.9648 28.882 57.8848 29.306 57.8848 29.882C57.8848 30.454 57.9628 30.878 58.1188 31.154C58.2788 31.43 58.5228 31.568 58.8508 31.568ZM62.9647 32V29.012H63.4687V29.648H63.5047C63.6047 29.436 63.7507 29.268 63.9427 29.144C64.1347 29.02 64.3507 28.958 64.5907 28.958C64.8427 28.958 65.0527 29.002 65.2207 29.09C65.3887 29.178 65.5147 29.312 65.5987 29.492C65.6867 29.672 65.7307 29.898 65.7307 30.17V32H65.1727V30.194C65.1727 30.046 65.1507 29.916 65.1067 29.804C65.0627 29.692 64.9887 29.604 64.8847 29.54C64.7847 29.472 64.6467 29.438 64.4707 29.438C64.2907 29.438 64.1287 29.48 63.9847 29.564C63.8407 29.648 63.7267 29.758 63.6427 29.894C63.5627 30.03 63.5227 30.176 63.5227 30.332V32H62.9647ZM68.1989 32.054C67.8909 32.054 67.6229 31.99 67.3949 31.862C67.1709 31.73 66.9969 31.548 66.8729 31.316C66.7529 31.084 66.6929 30.812 66.6929 30.5C66.6929 30.192 66.7529 29.922 66.8729 29.69C66.9969 29.458 67.1709 29.278 67.3949 29.15C67.6229 29.022 67.8909 28.958 68.1989 28.958C68.5109 28.958 68.7769 29.022 68.9969 29.15C69.2209 29.278 69.3949 29.458 69.5189 29.69C69.6429 29.922 69.7049 30.192 69.7049 30.5C69.7049 30.812 69.6429 31.084 69.5189 31.316C69.3989 31.548 69.2269 31.73 69.0029 31.862C68.7789 31.99 68.5109 32.054 68.1989 32.054ZM68.1929 31.568C68.4929 31.568 68.7289 31.47 68.9009 31.274C69.0729 31.078 69.1589 30.82 69.1589 30.5C69.1589 30.176 69.0729 29.918 68.9009 29.726C68.7329 29.534 68.4989 29.438 68.1989 29.438C67.8989 29.438 67.6629 29.534 67.4909 29.726C67.3229 29.918 67.2389 30.176 67.2389 30.5C67.2389 30.82 67.3229 31.078 67.4909 31.274C67.6629 31.47 67.8969 31.568 68.1929 31.568ZM71.8156 32.054C71.6476 32.054 71.4796 32.038 71.3116 32.006C71.1476 31.978 70.9936 31.938 70.8496 31.886C70.7096 31.83 70.5936 31.762 70.5016 31.682L70.6756 31.28C70.7836 31.356 70.8996 31.418 71.0236 31.466C71.1516 31.514 71.2836 31.548 71.4196 31.568C71.5556 31.588 71.6836 31.598 71.8036 31.598C72.0596 31.598 72.2596 31.564 72.4036 31.496C72.5476 31.424 72.6196 31.322 72.6196 31.19C72.6196 31.07 72.5796 30.98 72.4996 30.92C72.4196 30.86 72.2856 30.814 72.0976 30.782L71.4436 30.68C71.1556 30.632 70.9376 30.538 70.7896 30.398C70.6456 30.254 70.5736 30.07 70.5736 29.846C70.5736 29.67 70.6236 29.516 70.7236 29.384C70.8236 29.252 70.9676 29.148 71.1556 29.072C71.3476 28.996 71.5776 28.958 71.8456 28.958C71.9936 28.958 72.1456 28.972 72.3016 29C72.4576 29.024 72.6016 29.064 72.7336 29.12C72.8696 29.176 72.9776 29.244 73.0576 29.324L72.8716 29.72C72.7876 29.644 72.6876 29.584 72.5716 29.54C72.4556 29.496 72.3336 29.464 72.2056 29.444C72.0816 29.424 71.9616 29.414 71.8456 29.414C71.6096 29.414 71.4236 29.45 71.2876 29.522C71.1516 29.594 71.0836 29.698 71.0836 29.834C71.0836 29.95 71.1216 30.038 71.1976 30.098C71.2736 30.154 71.3996 30.198 71.5756 30.23L72.2056 30.338C72.5216 30.39 72.7536 30.484 72.9016 30.62C73.0536 30.756 73.1296 30.942 73.1296 31.178C73.1296 31.354 73.0756 31.508 72.9676 31.64C72.8596 31.772 72.7076 31.874 72.5116 31.946C72.3156 32.018 72.0836 32.054 71.8156 32.054ZM73.8579 32.378L73.4259 32.27L74.9499 27.488L75.3819 27.602L73.8579 32.378ZM76.8833 32.054C76.5713 32.054 76.2993 31.992 76.0673 31.868C75.8393 31.74 75.6613 31.56 75.5333 31.328C75.4053 31.096 75.3413 30.824 75.3413 30.512C75.3413 30.192 75.4053 29.916 75.5333 29.684C75.6613 29.452 75.8413 29.274 76.0733 29.15C76.3053 29.022 76.5773 28.958 76.8893 28.958C77.1053 28.958 77.3073 28.994 77.4953 29.066C77.6833 29.134 77.8373 29.226 77.9573 29.342L77.7653 29.762C77.6493 29.662 77.5173 29.584 77.3693 29.528C77.2253 29.472 77.0813 29.444 76.9373 29.444C76.6173 29.444 76.3633 29.538 76.1753 29.726C75.9913 29.91 75.8993 30.172 75.8993 30.512C75.8993 30.848 75.9913 31.108 76.1753 31.292C76.3633 31.476 76.6153 31.568 76.9313 31.568C77.0753 31.568 77.2193 31.54 77.3633 31.484C77.5073 31.428 77.6333 31.356 77.7413 31.268L77.9393 31.682C77.8233 31.794 77.6733 31.884 77.4893 31.952C77.3053 32.02 77.1033 32.054 76.8833 32.054ZM79.993 32.054C79.629 32.054 79.351 31.958 79.159 31.766C78.971 31.574 78.877 31.304 78.877 30.956V29.48H78.271V29.012H78.907V28.136H79.435V29.012H80.575V29.48H79.435V30.908C79.435 31.136 79.489 31.304 79.597 31.412C79.705 31.516 79.861 31.568 80.065 31.568C80.161 31.568 80.251 31.56 80.335 31.544C80.423 31.524 80.507 31.496 80.587 31.46L80.671 31.904C80.583 31.956 80.477 31.994 80.353 32.018C80.233 32.042 80.113 32.054 79.993 32.054ZM81.41 32V29.012H81.914V29.648H81.95C82.05 29.436 82.196 29.268 82.388 29.144C82.58 29.02 82.796 28.958 83.036 28.958C83.288 28.958 83.498 29.002 83.666 29.09C83.834 29.178 83.96 29.312 84.044 29.492C84.132 29.672 84.176 29.898 84.176 30.17V32H83.618V30.194C83.618 30.046 83.596 29.916 83.552 29.804C83.508 29.692 83.434 29.604 83.33 29.54C83.23 29.472 83.092 29.438 82.916 29.438C82.736 29.438 82.574 29.48 82.43 29.564C82.286 29.648 82.172 29.758 82.088 29.894C82.008 30.03 81.968 30.176 81.968 30.332V32H81.41Z" fill="black"/>
<path d="M21.118 42.054C20.878 42.054 20.65 42.036 20.434 42C20.222 41.968 20.028 41.918 19.852 41.85C19.676 41.778 19.522 41.688 19.39 41.58L19.6 41.118C19.74 41.23 19.89 41.318 20.05 41.382C20.21 41.446 20.378 41.49 20.554 41.514C20.734 41.538 20.922 41.55 21.118 41.55C21.434 41.55 21.682 41.486 21.862 41.358C22.042 41.23 22.132 41.048 22.132 40.812C22.132 40.688 22.102 40.588 22.042 40.512C21.986 40.436 21.896 40.374 21.772 40.326C21.648 40.274 21.49 40.23 21.298 40.194L20.584 40.056C20.188 39.98 19.906 39.846 19.738 39.654C19.57 39.458 19.486 39.216 19.486 38.928C19.486 38.68 19.558 38.466 19.702 38.286C19.846 38.106 20.044 37.966 20.296 37.866C20.552 37.766 20.84 37.716 21.16 37.716C21.364 37.716 21.554 37.736 21.73 37.776C21.906 37.812 22.066 37.866 22.21 37.938C22.358 38.01 22.49 38.102 22.606 38.214L22.396 38.676C22.224 38.504 22.036 38.386 21.832 38.322C21.628 38.254 21.402 38.22 21.154 38.22C20.946 38.22 20.758 38.248 20.59 38.304C20.422 38.356 20.288 38.434 20.188 38.538C20.092 38.642 20.044 38.774 20.044 38.934C20.044 39.106 20.098 39.24 20.206 39.336C20.314 39.432 20.504 39.506 20.776 39.558L21.484 39.696C21.896 39.772 22.2 39.902 22.396 40.086C22.592 40.266 22.69 40.502 22.69 40.794C22.69 41.034 22.624 41.25 22.492 41.442C22.364 41.634 22.182 41.784 21.946 41.892C21.71 42 21.434 42.054 21.118 42.054ZM23.7325 42V37.77H24.2905V42H23.7325ZM25.2888 42V41.634L27.8088 38.004L27.8868 38.268H25.2888V37.77H28.3488V38.13L25.8228 41.766L25.7448 41.502H28.4148V42H25.2888ZM29.3575 42V37.77H32.1595V38.262H29.9155V39.612H32.0335V40.104H29.9155V41.508H32.1595V42H29.3575Z" fill="#CE3439"/>
<path d="M48.83 42.054C48.638 42.054 48.458 42.034 48.29 41.994C48.126 41.954 47.97 41.894 47.822 41.814C47.678 41.734 47.546 41.638 47.426 41.526L47.648 41.088C47.828 41.26 48.014 41.384 48.206 41.46C48.398 41.532 48.606 41.568 48.83 41.568C49.126 41.568 49.356 41.494 49.52 41.346C49.688 41.194 49.772 40.978 49.772 40.698C49.772 40.422 49.694 40.204 49.538 40.044C49.386 39.884 49.174 39.804 48.902 39.804C48.722 39.804 48.558 39.84 48.41 39.912C48.266 39.98 48.128 40.1 47.996 40.272H47.546V37.77H50.12V38.256H48.038V39.792H48.068C48.16 39.664 48.286 39.556 48.446 39.468C48.606 39.376 48.784 39.33 48.98 39.33C49.252 39.33 49.486 39.388 49.682 39.504C49.882 39.616 50.034 39.772 50.138 39.972C50.246 40.172 50.3 40.404 50.3 40.668C50.3 40.964 50.238 41.216 50.114 41.424C49.994 41.628 49.824 41.784 49.604 41.892C49.388 42 49.13 42.054 48.83 42.054ZM52.3977 42.054C51.9257 42.054 51.5517 41.952 51.2757 41.748C51.0037 41.54 50.8677 41.252 50.8677 40.884C50.8677 40.7 50.9037 40.538 50.9757 40.398C51.0477 40.254 51.1477 40.136 51.2757 40.044C51.4037 39.952 51.5517 39.888 51.7197 39.852V39.822C51.5797 39.782 51.4517 39.716 51.3357 39.624C51.2237 39.528 51.1337 39.414 51.0657 39.282C50.9977 39.15 50.9637 39.004 50.9637 38.844C50.9637 38.496 51.0937 38.222 51.3537 38.022C51.6177 37.818 51.9657 37.716 52.3977 37.716C52.8297 37.716 53.1757 37.818 53.4357 38.022C53.6997 38.222 53.8317 38.496 53.8317 38.844C53.8317 39 53.7957 39.146 53.7237 39.282C53.6557 39.414 53.5637 39.528 53.4477 39.624C53.3357 39.716 53.2097 39.782 53.0697 39.822V39.852C53.2297 39.884 53.3737 39.948 53.5017 40.044C53.6297 40.136 53.7317 40.254 53.8077 40.398C53.8877 40.538 53.9277 40.7 53.9277 40.884C53.9277 41.252 53.7917 41.54 53.5197 41.748C53.2477 41.952 52.8737 42.054 52.3977 42.054ZM52.3977 41.586C52.7257 41.586 52.9777 41.522 53.1537 41.394C53.3297 41.266 53.4177 41.082 53.4177 40.842C53.4177 40.602 53.3297 40.416 53.1537 40.284C52.9777 40.152 52.7257 40.086 52.3977 40.086C52.0697 40.086 51.8177 40.152 51.6417 40.284C51.4657 40.416 51.3777 40.602 51.3777 40.842C51.3777 41.082 51.4657 41.266 51.6417 41.394C51.8177 41.522 52.0697 41.586 52.3977 41.586ZM52.3977 39.618C52.6817 39.618 52.9057 39.554 53.0697 39.426C53.2337 39.298 53.3157 39.12 53.3157 38.892C53.3157 38.668 53.2337 38.494 53.0697 38.37C52.9057 38.242 52.6817 38.178 52.3977 38.178C52.1137 38.178 51.8897 38.242 51.7257 38.37C51.5617 38.494 51.4797 38.668 51.4797 38.892C51.4797 39.12 51.5617 39.298 51.7257 39.426C51.8897 39.554 52.1137 39.618 52.3977 39.618ZM56.4993 42V41.136H54.5073V40.722L56.4093 37.77H57.0153V40.68H57.5733V41.136H57.0153V42H56.4993ZM56.5173 40.68V38.46H56.4873L55.0053 40.758L54.9333 40.68H56.5173ZM59.7192 42L61.2252 39.726L61.2312 39.93L59.8092 37.77H60.4452L61.5852 39.51H61.6152L62.7612 37.77H63.3972L61.9632 39.93V39.72L63.4812 42H62.8392L61.6092 40.14H61.5792L60.3552 42H59.7192ZM67.7142 42V41.136H65.7222V40.722L67.6242 37.77H68.2302V40.68H68.7882V41.136H68.2302V42H67.7142ZM67.7322 40.68V38.46H67.7022L66.2202 40.758L66.1482 40.68H67.7322ZM70.8078 42.054C70.3358 42.054 69.9618 41.952 69.6858 41.748C69.4138 41.54 69.2778 41.252 69.2778 40.884C69.2778 40.7 69.3138 40.538 69.3858 40.398C69.4578 40.254 69.5578 40.136 69.6858 40.044C69.8138 39.952 69.9618 39.888 70.1298 39.852V39.822C69.9898 39.782 69.8618 39.716 69.7458 39.624C69.6338 39.528 69.5438 39.414 69.4758 39.282C69.4078 39.15 69.3738 39.004 69.3738 38.844C69.3738 38.496 69.5038 38.222 69.7638 38.022C70.0278 37.818 70.3758 37.716 70.8078 37.716C71.2398 37.716 71.5858 37.818 71.8458 38.022C72.1098 38.222 72.2418 38.496 72.2418 38.844C72.2418 39 72.2058 39.146 72.1338 39.282C72.0658 39.414 71.9738 39.528 71.8578 39.624C71.7458 39.716 71.6198 39.782 71.4798 39.822V39.852C71.6398 39.884 71.7838 39.948 71.9118 40.044C72.0398 40.136 72.1418 40.254 72.2178 40.398C72.2978 40.538 72.3378 40.7 72.3378 40.884C72.3378 41.252 72.2018 41.54 71.9298 41.748C71.6578 41.952 71.2838 42.054 70.8078 42.054ZM70.8078 41.586C71.1358 41.586 71.3878 41.522 71.5638 41.394C71.7398 41.266 71.8278 41.082 71.8278 40.842C71.8278 40.602 71.7398 40.416 71.5638 40.284C71.3878 40.152 71.1358 40.086 70.8078 40.086C70.4798 40.086 70.2278 40.152 70.0518 40.284C69.8758 40.416 69.7878 40.602 69.7878 40.842C69.7878 41.082 69.8758 41.266 70.0518 41.394C70.2278 41.522 70.4798 41.586 70.8078 41.586ZM70.8078 39.618C71.0918 39.618 71.3158 39.554 71.4798 39.426C71.6438 39.298 71.7258 39.12 71.7258 38.892C71.7258 38.668 71.6438 38.494 71.4798 38.37C71.3158 38.242 71.0918 38.178 70.8078 38.178C70.5238 38.178 70.2998 38.242 70.1358 38.37C69.9718 38.494 69.8898 38.668 69.8898 38.892C69.8898 39.12 69.9718 39.298 70.1358 39.426C70.2998 39.554 70.5238 39.618 70.8078 39.618ZM73.0735 42V41.592L74.5795 40.032C74.7275 39.88 74.8415 39.744 74.9215 39.624C75.0015 39.5 75.0575 39.382 75.0895 39.27C75.1215 39.158 75.1375 39.044 75.1375 38.928C75.1375 38.696 75.0615 38.518 74.9095 38.394C74.7575 38.266 74.5555 38.202 74.3035 38.202C74.1075 38.202 73.9095 38.24 73.7095 38.316C73.5135 38.392 73.3275 38.516 73.1515 38.688L72.9355 38.25C73.1235 38.074 73.3375 37.942 73.5775 37.854C73.8215 37.762 74.0755 37.716 74.3395 37.716C74.6115 37.716 74.8475 37.764 75.0475 37.86C75.2475 37.956 75.4015 38.094 75.5095 38.274C75.6215 38.45 75.6775 38.658 75.6775 38.898C75.6775 39.022 75.6635 39.142 75.6355 39.258C75.6075 39.374 75.5635 39.49 75.5035 39.606C75.4475 39.718 75.3735 39.834 75.2815 39.954C75.1935 40.074 75.0855 40.202 74.9575 40.338L73.8415 41.49V41.514H75.8515V42H73.0735ZM78.1294 42L79.6354 39.726L79.6414 39.93L78.2194 37.77H78.8554L79.9954 39.51H80.0254L81.1714 37.77H81.8074L80.3734 39.93V39.72L81.8914 42H81.2494L80.0194 40.14H79.9894L78.7654 42H78.1294ZM84.4923 42L86.5563 37.986L86.5923 38.268H84.1983V37.77H87.0363V38.19L85.0863 42H84.4923ZM87.886 42V41.592L89.392 40.032C89.54 39.88 89.654 39.744 89.734 39.624C89.814 39.5 89.87 39.382 89.902 39.27C89.934 39.158 89.95 39.044 89.95 38.928C89.95 38.696 89.874 38.518 89.722 38.394C89.57 38.266 89.368 38.202 89.116 38.202C88.92 38.202 88.722 38.24 88.522 38.316C88.326 38.392 88.14 38.516 87.964 38.688L87.748 38.25C87.936 38.074 88.15 37.942 88.39 37.854C88.634 37.762 88.888 37.716 89.152 37.716C89.424 37.716 89.66 37.764 89.86 37.86C90.06 37.956 90.214 38.094 90.322 38.274C90.434 38.45 90.49 38.658 90.49 38.898C90.49 39.022 90.476 39.142 90.448 39.258C90.42 39.374 90.376 39.49 90.316 39.606C90.26 39.718 90.186 39.834 90.094 39.954C90.006 40.074 89.898 40.202 89.77 40.338L88.654 41.49V41.514H90.664V42H87.886ZM92.7556 42.054C92.5796 42.054 92.4056 42.036 92.2336 42C92.0616 41.964 91.8976 41.91 91.7416 41.838C91.5896 41.762 91.4496 41.666 91.3216 41.55L91.5376 41.118C91.7216 41.282 91.9196 41.398 92.1316 41.466C92.3436 41.534 92.5496 41.568 92.7496 41.568C92.9176 41.568 93.0716 41.544 93.2116 41.496C93.3556 41.448 93.4696 41.37 93.5536 41.262C93.6416 41.154 93.6856 41.012 93.6856 40.836C93.6856 40.592 93.6036 40.408 93.4396 40.284C93.2756 40.156 93.0376 40.092 92.7256 40.092H92.0836V39.618H92.6296C92.8136 39.618 92.9776 39.59 93.1216 39.534C93.2656 39.478 93.3796 39.392 93.4636 39.276C93.5476 39.16 93.5896 39.016 93.5896 38.844C93.5896 38.624 93.5136 38.462 93.3616 38.358C93.2096 38.254 93.0196 38.202 92.7916 38.202C92.5876 38.202 92.3796 38.238 92.1676 38.31C91.9596 38.378 91.7716 38.502 91.6036 38.682L91.3936 38.25C91.5656 38.066 91.7776 37.932 92.0296 37.848C92.2816 37.76 92.5416 37.716 92.8096 37.716C93.0776 37.716 93.3096 37.76 93.5056 37.848C93.7016 37.932 93.8536 38.056 93.9616 38.22C94.0736 38.38 94.1296 38.574 94.1296 38.802C94.1296 39.034 94.0636 39.24 93.9316 39.42C93.7996 39.6 93.6176 39.732 93.3856 39.816V39.84C93.5416 39.872 93.6816 39.932 93.8056 40.02C93.9336 40.104 94.0336 40.216 94.1056 40.356C94.1816 40.496 94.2196 40.66 94.2196 40.848C94.2196 41.108 94.1576 41.328 94.0336 41.508C93.9096 41.688 93.7376 41.824 93.5176 41.916C93.2976 42.008 93.0436 42.054 92.7556 42.054Z" fill="black"/>
<path d="M20.608 52L19.312 47.77H19.906L20.908 51.244H20.932L22.12 47.77H22.576L23.752 51.244H23.782L24.796 47.77H25.36L24.064 52H23.518L22.354 48.592H22.324L21.142 52H20.608ZM26.3517 52V47.77H29.1537V48.262H26.9097V49.612H29.0277V50.104H26.9097V51.508H29.1537V52H26.3517ZM30.3419 52V47.77H30.8999V52H30.3419ZM34.1662 52.054C33.7302 52.054 33.3542 51.97 33.0382 51.802C32.7262 51.63 32.4862 51.382 32.3182 51.058C32.1502 50.734 32.0662 50.342 32.0662 49.882C32.0662 49.43 32.1482 49.042 32.3122 48.718C32.4762 48.394 32.7102 48.146 33.0142 47.974C33.3222 47.802 33.6862 47.716 34.1062 47.716C34.3222 47.716 34.5262 47.736 34.7182 47.776C34.9102 47.816 35.0862 47.876 35.2462 47.956C35.4102 48.032 35.5482 48.128 35.6602 48.244L35.4502 48.67C35.2662 48.51 35.0622 48.396 34.8382 48.328C34.6182 48.256 34.3742 48.22 34.1062 48.22C33.6462 48.22 33.2862 48.36 33.0262 48.64C32.7702 48.92 32.6422 49.334 32.6422 49.882C32.6422 50.45 32.7762 50.872 33.0442 51.148C33.3122 51.424 33.6962 51.562 34.1962 51.562C34.4322 51.562 34.6502 51.546 34.8502 51.514C35.0502 51.478 35.2282 51.426 35.3842 51.358L35.2102 51.682V50.224H34.1602V49.738H35.7202V51.754C35.6082 51.81 35.4662 51.862 35.2942 51.91C35.1222 51.954 34.9382 51.988 34.7422 52.012C34.5502 52.04 34.3582 52.054 34.1662 52.054ZM37.004 52V47.77H37.562V49.6H40.004V47.77H40.562V52H40.004V50.098H37.562V52H37.004ZM42.9343 52V48.268H41.4163V47.77H45.0103V48.268H43.4923V52H42.9343Z" fill="#CE3439"/>
<path d="M47.8674 52V51.592L49.3734 50.032C49.5214 49.88 49.6354 49.744 49.7154 49.624C49.7954 49.5 49.8514 49.382 49.8834 49.27C49.9154 49.158 49.9314 49.044 49.9314 48.928C49.9314 48.696 49.8554 48.518 49.7034 48.394C49.5514 48.266 49.3494 48.202 49.0974 48.202C48.9014 48.202 48.7034 48.24 48.5034 48.316C48.3074 48.392 48.1214 48.516 47.9454 48.688L47.7294 48.25C47.9174 48.074 48.1314 47.942 48.3714 47.854C48.6154 47.762 48.8694 47.716 49.1334 47.716C49.4054 47.716 49.6414 47.764 49.8414 47.86C50.0414 47.956 50.1954 48.094 50.3034 48.274C50.4154 48.45 50.4714 48.658 50.4714 48.898C50.4714 49.022 50.4574 49.142 50.4294 49.258C50.4014 49.374 50.3574 49.49 50.2974 49.606C50.2414 49.718 50.1674 49.834 50.0754 49.954C49.9874 50.074 49.8794 50.202 49.7514 50.338L48.6354 51.49V51.514H50.6454V52H47.8674ZM52.7971 52.054C52.4691 52.054 52.1931 51.972 51.9691 51.808C51.7451 51.64 51.5751 51.396 51.4591 51.076C51.3471 50.752 51.2911 50.356 51.2911 49.888C51.2911 49.412 51.3471 49.014 51.4591 48.694C51.5751 48.374 51.7451 48.132 51.9691 47.968C52.1971 47.8 52.4751 47.716 52.8031 47.716C53.1311 47.716 53.4071 47.8 53.6311 47.968C53.8551 48.132 54.0231 48.374 54.1351 48.694C54.2471 49.01 54.3031 49.402 54.3031 49.87C54.3031 50.346 54.2451 50.746 54.1291 51.07C54.0171 51.394 53.8491 51.64 53.6251 51.808C53.4011 51.972 53.1251 52.054 52.7971 52.054ZM52.7971 51.568C53.1211 51.568 53.3631 51.432 53.5231 51.16C53.6831 50.884 53.7631 50.456 53.7631 49.876C53.7631 49.304 53.6831 48.882 53.5231 48.61C53.3671 48.338 53.1271 48.202 52.8031 48.202C52.4751 48.202 52.2311 48.338 52.0711 48.61C51.9111 48.882 51.8311 49.306 51.8311 49.882C51.8311 50.454 51.9091 50.878 52.0651 51.154C52.2251 51.43 52.4691 51.568 52.7971 51.568ZM56.0467 53.152C55.7467 52.724 55.5247 52.286 55.3807 51.838C55.2407 51.39 55.1707 50.918 55.1707 50.422C55.1707 49.93 55.2407 49.46 55.3807 49.012C55.5247 48.564 55.7467 48.124 56.0467 47.692L56.4487 47.83C56.2847 48.114 56.1467 48.4 56.0347 48.688C55.9267 48.972 55.8467 49.258 55.7947 49.546C55.7427 49.834 55.7167 50.126 55.7167 50.422C55.7167 50.714 55.7427 51.006 55.7947 51.298C55.8467 51.586 55.9267 51.872 56.0347 52.156C56.1467 52.44 56.2847 52.726 56.4487 53.014L56.0467 53.152ZM57.4383 52V47.77H57.9963V50.344H58.0203L59.3463 49.012H60.0243L58.4403 50.578L58.4583 50.35L60.1863 52H59.4843L58.0203 50.626H57.9963V52H57.4383ZM61.9918 53.128C61.7638 53.128 61.5298 53.094 61.2898 53.026C61.0538 52.958 60.8538 52.864 60.6898 52.744L60.8638 52.3C60.9718 52.372 61.0878 52.434 61.2118 52.486C61.3398 52.538 61.4698 52.578 61.6018 52.606C61.7378 52.634 61.8658 52.648 61.9858 52.648C62.3098 52.648 62.5638 52.568 62.7478 52.408C62.9358 52.248 63.0298 52.026 63.0298 51.742V51.262H62.9818C62.9018 51.45 62.7698 51.606 62.5858 51.73C62.4058 51.85 62.1938 51.91 61.9498 51.91C61.6618 51.91 61.4118 51.85 61.1998 51.73C60.9878 51.606 60.8218 51.434 60.7018 51.214C60.5858 50.99 60.5278 50.73 60.5278 50.434C60.5278 50.138 60.5858 49.88 60.7018 49.66C60.8218 49.436 60.9878 49.264 61.1998 49.144C61.4118 49.02 61.6618 48.958 61.9498 48.958C62.1938 48.958 62.4078 49.02 62.5918 49.144C62.7798 49.268 62.9158 49.434 62.9998 49.642H63.0298V49.012H63.5458V51.7C63.5458 51.988 63.4818 52.238 63.3538 52.45C63.2258 52.666 63.0458 52.832 62.8138 52.948C62.5818 53.068 62.3078 53.128 61.9918 53.128ZM62.0398 51.448C62.3358 51.448 62.5698 51.356 62.7418 51.172C62.9138 50.984 62.9998 50.736 62.9998 50.428C62.9998 50.124 62.9138 49.88 62.7418 49.696C62.5698 49.512 62.3358 49.42 62.0398 49.42C61.7478 49.42 61.5138 49.512 61.3378 49.696C61.1658 49.88 61.0798 50.124 61.0798 50.428C61.0798 50.736 61.1658 50.984 61.3378 51.172C61.5138 51.356 61.7478 51.448 62.0398 51.448ZM65.8381 52.054C65.6701 52.054 65.5021 52.038 65.3341 52.006C65.1701 51.978 65.0161 51.938 64.8721 51.886C64.7321 51.83 64.6161 51.762 64.5241 51.682L64.6981 51.28C64.8061 51.356 64.9221 51.418 65.0461 51.466C65.1741 51.514 65.3061 51.548 65.4421 51.568C65.5781 51.588 65.7061 51.598 65.8261 51.598C66.0821 51.598 66.2821 51.564 66.4261 51.496C66.5701 51.424 66.6421 51.322 66.6421 51.19C66.6421 51.07 66.6021 50.98 66.5221 50.92C66.4421 50.86 66.3081 50.814 66.1201 50.782L65.4661 50.68C65.1781 50.632 64.9601 50.538 64.8121 50.398C64.6681 50.254 64.5961 50.07 64.5961 49.846C64.5961 49.67 64.6461 49.516 64.7461 49.384C64.8461 49.252 64.9901 49.148 65.1781 49.072C65.3701 48.996 65.6001 48.958 65.8681 48.958C66.0161 48.958 66.1681 48.972 66.3241 49C66.4801 49.024 66.6241 49.064 66.7561 49.12C66.8921 49.176 67.0001 49.244 67.0801 49.324L66.8941 49.72C66.8101 49.644 66.7101 49.584 66.5941 49.54C66.4781 49.496 66.3561 49.464 66.2281 49.444C66.1041 49.424 65.9841 49.414 65.8681 49.414C65.6321 49.414 65.4461 49.45 65.3101 49.522C65.1741 49.594 65.1061 49.698 65.1061 49.834C65.1061 49.95 65.1441 50.038 65.2201 50.098C65.2961 50.154 65.4221 50.198 65.5981 50.23L66.2281 50.338C66.5441 50.39 66.7761 50.484 66.9241 50.62C67.0761 50.756 67.1521 50.942 67.1521 51.178C67.1521 51.354 67.0981 51.508 66.9901 51.64C66.8821 51.772 66.7301 51.874 66.5341 51.946C66.3381 52.018 66.1061 52.054 65.8381 52.054ZM68.1504 53.152L67.7484 53.014C67.9164 52.726 68.0544 52.44 68.1624 52.156C68.2704 51.872 68.3504 51.586 68.4024 51.298C68.4544 51.006 68.4804 50.714 68.4804 50.422C68.4804 50.126 68.4544 49.834 68.4024 49.546C68.3504 49.258 68.2704 48.972 68.1624 48.688C68.0544 48.4 67.9164 48.114 67.7484 47.83L68.1504 47.692C68.4504 48.12 68.6704 48.558 68.8104 49.006C68.9544 49.454 69.0264 49.926 69.0264 50.422C69.0264 50.914 68.9544 51.384 68.8104 51.832C68.6704 52.28 68.4504 52.72 68.1504 53.152Z" fill="black"/>
<defs>
<filter id="filter0_d_235_218" x="0.0999999" y="20" width="113.8" height="46.9" filterUnits="userSpaceOnUse" color-interpolation-filters="sRGB">
<feFlood flood-opacity="0" result="BackgroundImageFix"/>
<feColorMatrix in="SourceAlpha" type="matrix" values="0 0 0 0 0 0 0 0 0 0 0 0 0 0 0 0 0 0 127 0" result="hardAlpha"/>
<feOffset dy="4"/>
<feGaussianBlur stdDeviation="1.95"/>
<feComposite in2="hardAlpha" operator="out"/>
<feColorMatrix type="matrix" values="0 0 0 0 0 0 0 0 0 0 0 0 0 0 0 0 0 0 0.2 0"/>
<feBlend mode="normal" in2="BackgroundImageFix" result="effect1_dropShadow_235_218"/>
<feBlend mode="normal" in="SourceGraphic" in2="effect1_dropShadow_235_218" result="shape"/>
</filter>
<clipPath id="clip0_235_218">
<rect width="18" height="18" fill="white" transform="translate(47 2)"/>
</clipPath>
</defs>
</svg>
