<svg width="76" height="67" viewBox="0 0 76 67" fill="none" xmlns="http://www.w3.org/2000/svg">
<g filter="url(#filter0_d_235_184)">
<rect x="4" y="20" width="68" height="39" rx="2" fill="white"/>
<rect x="4.25" y="20.25" width="67.5" height="38.5" rx="1.75" stroke="white" stroke-width="0.5"/>
</g>
<rect x="25" width="25" height="25" rx="3" fill="#CB3335"/>
<g clip-path="url(#clip0_235_184)">
<path d="M43.8338 14.75L41.6463 10.375H42.25C42.366 10.375 42.4773 10.3289 42.5594 10.2469C42.6414 10.1648 42.6875 10.0535 42.6875 9.9375C42.6875 9.82147 42.6414 9.71019 42.5594 9.62814C42.4773 9.54609 42.366 9.5 42.25 9.5H41.5588C41.0887 8.98804 40.5224 8.57382 39.8921 8.28104C39.2618 7.98825 38.5799 7.82267 37.8855 7.79375L37.875 7.75C37.875 7.51794 37.7828 7.29538 37.6187 7.13128C37.4546 6.96719 37.2321 6.875 37 6.875C36.7679 6.875 36.5454 6.96719 36.3813 7.13128C36.2172 7.29538 36.125 7.51794 36.125 7.75V7.79375C34.7109 7.85255 33.3764 8.46434 32.4089 9.49737L31.75 9.5C31.634 9.5 31.5227 9.54609 31.4406 9.62814C31.3586 9.71019 31.3125 9.82147 31.3125 9.9375C31.3125 10.0535 31.3586 10.1648 31.4406 10.2469C31.5227 10.3289 31.634 10.375 31.75 10.375H32.3538L30.1662 14.75H30C30 15.7125 31.1725 16.5 32.625 16.5C34.0775 16.5 35.25 15.7125 35.25 14.75H35.0837L32.8525 10.2962C32.9078 10.2638 32.9553 10.2196 32.9916 10.1668C33.3786 9.71203 33.8573 9.34427 34.3964 9.08761C34.9355 8.83095 35.5228 8.69119 36.1197 8.6775L36.125 18.25H35.25V19.125H33.5V20H40.5V19.125H38.75V18.25H37.875V8.6775C38.4652 8.68866 39.046 8.82674 39.5781 9.08236C40.1102 9.33797 40.581 9.70513 40.9585 10.1589C40.9989 10.2275 41.0573 10.2838 41.1274 10.3216L38.9162 14.75H38.75C38.75 15.7125 39.9225 16.5 41.375 16.5C42.8275 16.5 44 15.7125 44 14.75H43.8338ZM34.375 14.75H30.875L32.625 11.3025L34.375 14.75ZM39.625 14.75L41.375 11.3025L43.125 14.75H39.625Z" fill="white"/>
</g>
<rect width="33.5" height="16" transform="translate(22 31)" fill="white"/>
<path d="M24.858 37L23.562 32.77H24.156L25.158 36.244H25.182L26.37 32.77H26.826L28.002 36.244H28.032L29.046 32.77H29.61L28.314 37H27.768L26.604 33.592H26.574L25.392 37H24.858ZM30.6017 37V32.77H33.4037V33.262H31.1597V34.612H33.2777V35.104H31.1597V36.508H33.4037V37H30.6017ZM34.5919 37V32.77H35.1499V37H34.5919ZM38.4162 37.054C37.9802 37.054 37.6042 36.97 37.2882 36.802C36.9762 36.63 36.7362 36.382 36.5682 36.058C36.4002 35.734 36.3162 35.342 36.3162 34.882C36.3162 34.43 36.3982 34.042 36.5622 33.718C36.7262 33.394 36.9602 33.146 37.2642 32.974C37.5722 32.802 37.9362 32.716 38.3562 32.716C38.5722 32.716 38.7762 32.736 38.9682 32.776C39.1602 32.816 39.3362 32.876 39.4962 32.956C39.6602 33.032 39.7982 33.128 39.9102 33.244L39.7002 33.67C39.5162 33.51 39.3122 33.396 39.0882 33.328C38.8682 33.256 38.6242 33.22 38.3562 33.22C37.8962 33.22 37.5362 33.36 37.2762 33.64C37.0202 33.92 36.8922 34.334 36.8922 34.882C36.8922 35.45 37.0262 35.872 37.2942 36.148C37.5622 36.424 37.9462 36.562 38.4462 36.562C38.6822 36.562 38.9002 36.546 39.1002 36.514C39.3002 36.478 39.4782 36.426 39.6342 36.358L39.4602 36.682V35.224H38.4102V34.738H39.9702V36.754C39.8582 36.81 39.7162 36.862 39.5442 36.91C39.3722 36.954 39.1882 36.988 38.9922 37.012C38.8002 37.04 38.6082 37.054 38.4162 37.054ZM41.254 37V32.77H41.812V34.6H44.254V32.77H44.812V37H44.254V35.098H41.812V37H41.254ZM47.1843 37V33.268H45.6663V32.77H49.2603V33.268H47.7423V37H47.1843Z" fill="#CE3439"/>
<path d="M21.7 47V46.526H22.96V43.196L23.254 43.256L21.916 44.12L21.67 43.688L23.098 42.77H23.506V46.526H24.652V47H21.7ZM26.5877 47.054C26.4117 47.054 26.2377 47.036 26.0657 47C25.8937 46.964 25.7297 46.91 25.5737 46.838C25.4217 46.762 25.2817 46.666 25.1537 46.55L25.3697 46.118C25.5537 46.282 25.7517 46.398 25.9637 46.466C26.1757 46.534 26.3817 46.568 26.5817 46.568C26.7497 46.568 26.9037 46.544 27.0437 46.496C27.1877 46.448 27.3017 46.37 27.3857 46.262C27.4737 46.154 27.5177 46.012 27.5177 45.836C27.5177 45.592 27.4357 45.408 27.2717 45.284C27.1077 45.156 26.8697 45.092 26.5577 45.092H25.9157V44.618H26.4617C26.6457 44.618 26.8097 44.59 26.9537 44.534C27.0977 44.478 27.2117 44.392 27.2957 44.276C27.3797 44.16 27.4217 44.016 27.4217 43.844C27.4217 43.624 27.3457 43.462 27.1937 43.358C27.0417 43.254 26.8517 43.202 26.6237 43.202C26.4197 43.202 26.2117 43.238 25.9997 43.31C25.7917 43.378 25.6037 43.502 25.4357 43.682L25.2257 43.25C25.3977 43.066 25.6097 42.932 25.8617 42.848C26.1137 42.76 26.3737 42.716 26.6417 42.716C26.9097 42.716 27.1417 42.76 27.3377 42.848C27.5337 42.932 27.6857 43.056 27.7937 43.22C27.9057 43.38 27.9617 43.574 27.9617 43.802C27.9617 44.034 27.8957 44.24 27.7637 44.42C27.6317 44.6 27.4497 44.732 27.2177 44.816V44.84C27.3737 44.872 27.5137 44.932 27.6377 45.02C27.7657 45.104 27.8657 45.216 27.9377 45.356C28.0137 45.496 28.0517 45.66 28.0517 45.848C28.0517 46.108 27.9897 46.328 27.8657 46.508C27.7417 46.688 27.5697 46.824 27.3497 46.916C27.1297 47.008 26.8757 47.054 26.5877 47.054ZM28.9013 47V46.322H29.6273V47H28.9013ZM30.5539 47V46.592L32.0599 45.032C32.2079 44.88 32.3219 44.744 32.4019 44.624C32.4819 44.5 32.5379 44.382 32.5699 44.27C32.6019 44.158 32.6179 44.044 32.6179 43.928C32.6179 43.696 32.5419 43.518 32.3899 43.394C32.2379 43.266 32.0359 43.202 31.7839 43.202C31.5879 43.202 31.3899 43.24 31.1899 43.316C30.9939 43.392 30.8079 43.516 30.6319 43.688L30.4159 43.25C30.6039 43.074 30.8179 42.942 31.0579 42.854C31.3019 42.762 31.5559 42.716 31.8199 42.716C32.0919 42.716 32.3279 42.764 32.5279 42.86C32.7279 42.956 32.8819 43.094 32.9899 43.274C33.1019 43.45 33.1579 43.658 33.1579 43.898C33.1579 44.022 33.1439 44.142 33.1159 44.258C33.0879 44.374 33.0439 44.49 32.9839 44.606C32.9279 44.718 32.8539 44.834 32.7619 44.954C32.6739 45.074 32.5659 45.202 32.4379 45.338L31.3219 46.49V46.514H33.3319V47H30.5539ZM34.3556 47L36.4196 42.986L36.4556 43.268H34.0616V42.77H36.8996V43.19L34.9496 47H34.3556ZM40.4735 48.152C40.1735 47.724 39.9515 47.286 39.8075 46.838C39.6675 46.39 39.5975 45.918 39.5975 45.422C39.5975 44.93 39.6675 44.46 39.8075 44.012C39.9515 43.564 40.1735 43.124 40.4735 42.692L40.8755 42.83C40.7115 43.114 40.5735 43.4 40.4615 43.688C40.3535 43.972 40.2735 44.258 40.2215 44.546C40.1695 44.834 40.1435 45.126 40.1435 45.422C40.1435 45.714 40.1695 46.006 40.2215 46.298C40.2735 46.586 40.3535 46.872 40.4615 47.156C40.5735 47.44 40.7115 47.726 40.8755 48.014L40.4735 48.152ZM42.8971 48.128C42.6691 48.128 42.4351 48.094 42.1951 48.026C41.9591 47.958 41.7591 47.864 41.5951 47.744L41.7691 47.3C41.8771 47.372 41.9931 47.434 42.1171 47.486C42.2451 47.538 42.3751 47.578 42.5071 47.606C42.6431 47.634 42.7711 47.648 42.8911 47.648C43.2151 47.648 43.4691 47.568 43.6531 47.408C43.8411 47.248 43.9351 47.026 43.9351 46.742V46.262H43.8871C43.8071 46.45 43.6751 46.606 43.4911 46.73C43.3111 46.85 43.0991 46.91 42.8551 46.91C42.5671 46.91 42.3171 46.85 42.1051 46.73C41.8931 46.606 41.7271 46.434 41.6071 46.214C41.4911 45.99 41.4331 45.73 41.4331 45.434C41.4331 45.138 41.4911 44.88 41.6071 44.66C41.7271 44.436 41.8931 44.264 42.1051 44.144C42.3171 44.02 42.5671 43.958 42.8551 43.958C43.0991 43.958 43.3131 44.02 43.4971 44.144C43.6851 44.268 43.8211 44.434 43.9051 44.642H43.9351V44.012H44.4511V46.7C44.4511 46.988 44.3871 47.238 44.2591 47.45C44.1311 47.666 43.9511 47.832 43.7191 47.948C43.4871 48.068 43.2131 48.128 42.8971 48.128ZM42.9451 46.448C43.2411 46.448 43.4751 46.356 43.6471 46.172C43.8191 45.984 43.9051 45.736 43.9051 45.428C43.9051 45.124 43.8191 44.88 43.6471 44.696C43.4751 44.512 43.2411 44.42 42.9451 44.42C42.6531 44.42 42.4191 44.512 42.2431 44.696C42.0711 44.88 41.9851 45.124 41.9851 45.428C41.9851 45.736 42.0711 45.984 42.2431 46.172C42.4191 46.356 42.6531 46.448 42.9451 46.448ZM45.6033 47V44.012H46.0953V44.69H46.1313C46.2073 44.482 46.3373 44.314 46.5213 44.186C46.7053 44.058 46.9233 43.988 47.1753 43.976L47.4933 43.958L47.5473 44.48L47.0553 44.516C46.7753 44.54 46.5553 44.634 46.3953 44.798C46.2393 44.958 46.1613 45.15 46.1613 45.374V47H45.6033ZM48.3048 47V44.012H48.7968V44.654H48.8328C48.8848 44.534 48.9588 44.422 49.0548 44.318C49.1508 44.21 49.2668 44.124 49.4028 44.06C49.5388 43.992 49.6888 43.958 49.8528 43.958C50.1168 43.958 50.3348 44.026 50.5068 44.162C50.6828 44.294 50.7908 44.454 50.8308 44.642H50.8608C50.9408 44.458 51.0648 44.298 51.2328 44.162C51.4048 44.026 51.6268 43.958 51.8988 43.958C52.1268 43.958 52.3208 44.002 52.4808 44.09C52.6448 44.178 52.7688 44.312 52.8528 44.492C52.9408 44.668 52.9848 44.894 52.9848 45.17V47H52.4328V45.212C52.4328 44.96 52.3868 44.768 52.2948 44.636C52.2028 44.504 52.0328 44.438 51.7848 44.438C51.6008 44.438 51.4428 44.48 51.3108 44.564C51.1788 44.644 51.0788 44.752 51.0108 44.888C50.9468 45.024 50.9148 45.174 50.9148 45.338V47H50.3688V45.212C50.3688 44.968 50.3128 44.778 50.2008 44.642C50.0888 44.506 49.9308 44.438 49.7268 44.438C49.5468 44.438 49.3908 44.484 49.2588 44.576C49.1268 44.668 49.0248 44.782 48.9528 44.918C48.8848 45.054 48.8508 45.188 48.8508 45.32V47H48.3048ZM54.1826 48.152L53.7806 48.014C53.9486 47.726 54.0866 47.44 54.1946 47.156C54.3026 46.872 54.3826 46.586 54.4346 46.298C54.4866 46.006 54.5126 45.714 54.5126 45.422C54.5126 45.126 54.4866 44.834 54.4346 44.546C54.3826 44.258 54.3026 43.972 54.1946 43.688C54.0866 43.4 53.9486 43.114 53.7806 42.83L54.1826 42.692C54.4826 43.12 54.7026 43.558 54.8426 44.006C54.9866 44.454 55.0586 44.926 55.0586 45.422C55.0586 45.914 54.9866 46.384 54.8426 46.832C54.7026 47.28 54.4826 47.72 54.1826 48.152Z" fill="black"/>
<defs>
<filter id="filter0_d_235_184" x="0.0999999" y="20" width="75.8" height="46.9" filterUnits="userSpaceOnUse" color-interpolation-filters="sRGB">
<feFlood flood-opacity="0" result="BackgroundImageFix"/>
<feColorMatrix in="SourceAlpha" type="matrix" values="0 0 0 0 0 0 0 0 0 0 0 0 0 0 0 0 0 0 127 0" result="hardAlpha"/>
<feOffset dy="4"/>
<feGaussianBlur stdDeviation="1.95"/>
<feComposite in2="hardAlpha" operator="out"/>
<feColorMatrix type="matrix" values="0 0 0 0 0 0 0 0 0 0 0 0 0 0 0 0 0 0 0.2 0"/>
<feBlend mode="normal" in2="BackgroundImageFix" result="effect1_dropShadow_235_184"/>
<feBlend mode="normal" in="SourceGraphic" in2="effect1_dropShadow_235_184" result="shape"/>
</filter>
<clipPath id="clip0_235_184">
<rect width="14" height="14" fill="white" transform="translate(30 6)"/>
</clipPath>
</defs>
</svg>
