<svg width="252" height="19" viewBox="0 0 252 19" fill="none" xmlns="http://www.w3.org/2000/svg">
<path d="M0.913875 18V1.2H8.18588C9.68988 1.2 10.9859 1.448 12.0739 1.944C13.1619 2.424 14.0019 3.12 14.5939 4.032C15.1859 4.944 15.4819 6.032 15.4819 7.296C15.4819 8.544 15.1859 9.624 14.5939 10.536C14.0019 11.432 13.1619 12.12 12.0739 12.6C10.9859 13.08 9.68988 13.32 8.18588 13.32H3.07388L4.80188 11.616V18H0.913875ZM11.5939 18L7.39388 11.904H11.5459L15.7939 18H11.5939ZM4.80188 12.048L3.07388 10.224H7.96988C9.16988 10.224 10.0659 9.968 10.6579 9.456C11.2499 8.928 11.5459 8.208 11.5459 7.296C11.5459 6.368 11.2499 5.648 10.6579 5.136C10.0659 4.624 9.16988 4.368 7.96988 4.368H3.07388L4.80188 2.52V12.048ZM26.7223 18.288C25.3943 18.288 24.1623 18.072 23.0263 17.64C21.9063 17.208 20.9303 16.6 20.0983 15.816C19.2823 15.032 18.6423 14.112 18.1783 13.056C17.7303 12 17.5063 10.848 17.5063 9.6C17.5063 8.352 17.7303 7.2 18.1783 6.144C18.6423 5.088 19.2903 4.168 20.1223 3.384C20.9543 2.6 21.9303 1.992 23.0503 1.56C24.1703 1.128 25.3863 0.912 26.6983 0.912C28.0263 0.912 29.2423 1.128 30.3463 1.56C31.4663 1.992 32.4343 2.6 33.2503 3.384C34.0823 4.168 34.7303 5.088 35.1943 6.144C35.6583 7.184 35.8903 8.336 35.8903 9.6C35.8903 10.848 35.6583 12.008 35.1943 13.08C34.7303 14.136 34.0823 15.056 33.2503 15.84C32.4343 16.608 31.4663 17.208 30.3463 17.64C29.2423 18.072 28.0343 18.288 26.7223 18.288ZM26.6983 14.976C27.4503 14.976 28.1383 14.848 28.7623 14.592C29.4023 14.336 29.9623 13.968 30.4423 13.488C30.9223 13.008 31.2903 12.44 31.5463 11.784C31.8183 11.128 31.9543 10.4 31.9543 9.6C31.9543 8.8 31.8183 8.072 31.5463 7.416C31.2903 6.76 30.9223 6.192 30.4423 5.712C29.9783 5.232 29.4263 4.864 28.7863 4.608C28.1463 4.352 27.4503 4.224 26.6983 4.224C25.9463 4.224 25.2503 4.352 24.6103 4.608C23.9863 4.864 23.4343 5.232 22.9543 5.712C22.4743 6.192 22.0983 6.76 21.8263 7.416C21.5703 8.072 21.4423 8.8 21.4423 9.6C21.4423 10.384 21.5703 11.112 21.8263 11.784C22.0983 12.44 22.4663 13.008 22.9303 13.488C23.4103 13.968 23.9703 14.336 24.6103 14.592C25.2503 14.848 25.9463 14.976 26.6983 14.976ZM46.2763 18.288C43.8923 18.288 42.0283 17.624 40.6843 16.296C39.3403 14.968 38.6683 13.072 38.6683 10.608V1.2H42.5563V10.464C42.5563 12.064 42.8843 13.216 43.5403 13.92C44.1963 14.624 45.1163 14.976 46.3003 14.976C47.4843 14.976 48.4043 14.624 49.0603 13.92C49.7163 13.216 50.0443 12.064 50.0443 10.464V1.2H53.8843V10.608C53.8843 13.072 53.2123 14.968 51.8683 16.296C50.5243 17.624 48.6603 18.288 46.2763 18.288ZM57.7264 18V1.2H60.9424L70.8544 13.296H69.2944V1.2H73.1344V18H69.9424L60.0064 5.904H61.5664V18H57.7264ZM77.1092 18V1.2H84.7412C86.5652 1.2 88.1732 1.552 89.5652 2.256C90.9572 2.944 92.0452 3.912 92.8292 5.16C93.6132 6.408 94.0052 7.888 94.0052 9.6C94.0052 11.296 93.6132 12.776 92.8292 14.04C92.0452 15.288 90.9572 16.264 89.5652 16.968C88.1732 17.656 86.5652 18 84.7412 18H77.1092ZM80.9972 14.808H84.5492C85.6692 14.808 86.6372 14.6 87.4532 14.184C88.2852 13.752 88.9252 13.144 89.3732 12.36C89.8372 11.576 90.0692 10.656 90.0692 9.6C90.0692 8.528 89.8372 7.608 89.3732 6.84C88.9252 6.056 88.2852 5.456 87.4532 5.04C86.6372 4.608 85.6692 4.392 84.5492 4.392H80.9972V14.808ZM111.774 18.288C110.478 18.288 109.27 18.08 108.15 17.664C107.046 17.232 106.086 16.624 105.27 15.84C104.454 15.056 103.814 14.136 103.35 13.08C102.902 12.024 102.678 10.864 102.678 9.6C102.678 8.336 102.902 7.176 103.35 6.12C103.814 5.064 104.454 4.144 105.27 3.36C106.102 2.576 107.07 1.976 108.174 1.56C109.278 1.128 110.486 0.912 111.798 0.912C113.254 0.912 114.566 1.168 115.734 1.68C116.918 2.176 117.91 2.912 118.71 3.888L116.214 6.192C115.638 5.536 114.998 5.048 114.294 4.728C113.59 4.392 112.822 4.224 111.99 4.224C111.206 4.224 110.486 4.352 109.83 4.608C109.174 4.864 108.606 5.232 108.126 5.712C107.646 6.192 107.27 6.76 106.998 7.416C106.742 8.072 106.614 8.8 106.614 9.6C106.614 10.4 106.742 11.128 106.998 11.784C107.27 12.44 107.646 13.008 108.126 13.488C108.606 13.968 109.174 14.336 109.83 14.592C110.486 14.848 111.206 14.976 111.99 14.976C112.822 14.976 113.59 14.816 114.294 14.496C114.998 14.16 115.638 13.656 116.214 12.984L118.71 15.288C117.91 16.264 116.918 17.008 115.734 17.52C114.566 18.032 113.246 18.288 111.774 18.288ZM129.144 18.288C127.816 18.288 126.584 18.072 125.448 17.64C124.328 17.208 123.352 16.6 122.52 15.816C121.704 15.032 121.064 14.112 120.6 13.056C120.152 12 119.928 10.848 119.928 9.6C119.928 8.352 120.152 7.2 120.6 6.144C121.064 5.088 121.712 4.168 122.544 3.384C123.376 2.6 124.352 1.992 125.472 1.56C126.592 1.128 127.808 0.912 129.12 0.912C130.448 0.912 131.664 1.128 132.768 1.56C133.888 1.992 134.856 2.6 135.672 3.384C136.504 4.168 137.152 5.088 137.616 6.144C138.08 7.184 138.312 8.336 138.312 9.6C138.312 10.848 138.08 12.008 137.616 13.08C137.152 14.136 136.504 15.056 135.672 15.84C134.856 16.608 133.888 17.208 132.768 17.64C131.664 18.072 130.456 18.288 129.144 18.288ZM129.12 14.976C129.872 14.976 130.56 14.848 131.184 14.592C131.824 14.336 132.384 13.968 132.864 13.488C133.344 13.008 133.712 12.44 133.968 11.784C134.24 11.128 134.376 10.4 134.376 9.6C134.376 8.8 134.24 8.072 133.968 7.416C133.712 6.76 133.344 6.192 132.864 5.712C132.4 5.232 131.848 4.864 131.208 4.608C130.568 4.352 129.872 4.224 129.12 4.224C128.368 4.224 127.672 4.352 127.032 4.608C126.408 4.864 125.856 5.232 125.376 5.712C124.896 6.192 124.52 6.76 124.248 7.416C123.992 8.072 123.864 8.8 123.864 9.6C123.864 10.384 123.992 11.112 124.248 11.784C124.52 12.44 124.888 13.008 125.352 13.488C125.832 13.968 126.392 14.336 127.032 14.592C127.672 14.848 128.368 14.976 129.12 14.976ZM141.234 18V1.2H144.45L154.362 13.296H152.802V1.2H156.642V18H153.45L143.514 5.904H145.074V18H141.234ZM164.097 18V4.368H158.721V1.2H173.361V4.368H167.985V18H164.097ZM172.401 18L179.889 1.2H183.729L191.241 18H187.161L181.017 3.168H182.553L176.385 18H172.401ZM176.145 14.4L177.177 11.448H185.817L186.873 14.4H176.145ZM192.984 18V1.2H196.872V18H192.984ZM200.859 18V1.2H204.075L213.987 13.296H212.427V1.2H216.267V18H213.075L203.139 5.904H204.699V18H200.859ZM223.818 7.968H231.906V10.992H223.818V7.968ZM224.106 14.88H233.25V18H220.242V1.2H232.938V4.32H224.106V14.88ZM236.344 18V1.2H243.616C245.12 1.2 246.416 1.448 247.504 1.944C248.592 2.424 249.432 3.12 250.024 4.032C250.616 4.944 250.912 6.032 250.912 7.296C250.912 8.544 250.616 9.624 250.024 10.536C249.432 11.432 248.592 12.12 247.504 12.6C246.416 13.08 245.12 13.32 243.616 13.32H238.504L240.232 11.616V18H236.344ZM247.024 18L242.824 11.904H246.976L251.224 18H247.024ZM240.232 12.048L238.504 10.224H243.4C244.6 10.224 245.496 9.968 246.088 9.456C246.68 8.928 246.976 8.208 246.976 7.296C246.976 6.368 246.68 5.648 246.088 5.136C245.496 4.624 244.6 4.368 243.4 4.368H238.504L240.232 2.52V12.048Z" fill="black"/>
</svg>
