<svg width="24" height="24" viewBox="0 0 24 24" fill="none" xmlns="http://www.w3.org/2000/svg">
<mask id="path-1-inside-1_241_662" fill="white">
<path d="M24 12C24 18.6274 18.6274 24 12 24C5.37258 24 0 18.6274 0 12C0 5.37258 5.37258 0 12 0C18.6274 0 24 5.37258 24 12ZM2.31547 12C2.31547 17.3486 6.65138 21.6845 12 21.6845C17.3486 21.6845 21.6845 17.3486 21.6845 12C21.6845 6.65138 17.3486 2.31547 12 2.31547C6.65138 2.31547 2.31547 6.65138 2.31547 12Z"/>
</mask>
<path d="M24 12C24 18.6274 18.6274 24 12 24C5.37258 24 0 18.6274 0 12C0 5.37258 5.37258 0 12 0C18.6274 0 24 5.37258 24 12ZM2.31547 12C2.31547 17.3486 6.65138 21.6845 12 21.6845C17.3486 21.6845 21.6845 17.3486 21.6845 12C21.6845 6.65138 17.3486 2.31547 12 2.31547C6.65138 2.31547 2.31547 6.65138 2.31547 12Z" stroke="#5E4E4E" stroke-width="3.09677" mask="url(#path-1-inside-1_241_662)"/>
<circle cx="11.9997" cy="11.9997" r="9.67742" fill="black"/>
<path d="M9.06491 16.277C8.56324 16.277 8.13898 16.15 7.79214 15.8961C7.45149 15.6359 7.19136 15.2581 7.01175 14.7626C6.83833 14.261 6.75162 13.6447 6.75162 12.9139C6.75162 12.183 6.83833 11.5699 7.01175 11.0744C7.19136 10.5727 7.45149 10.1949 7.79214 9.94097C8.13898 9.68704 8.56324 9.56007 9.06491 9.56007C9.57278 9.56007 9.99704 9.68704 10.3377 9.94097C10.6845 10.1949 10.9447 10.5696 11.1181 11.0651C11.2915 11.5606 11.3782 12.1737 11.3782 12.9046C11.3782 13.6354 11.2884 14.2517 11.1088 14.7534C10.9354 15.255 10.6752 15.6359 10.3284 15.8961C9.98775 16.15 9.56659 16.277 9.06491 16.277ZM9.06491 15.5709C9.57898 15.5709 9.95988 15.3572 10.2076 14.9299C10.4554 14.4963 10.5792 13.8212 10.5792 12.9046C10.5792 11.9941 10.4554 11.3283 10.2076 10.9072C9.95988 10.4798 9.57898 10.2661 9.06491 10.2661C8.55085 10.2661 8.16995 10.4798 7.9222 10.9072C7.67446 11.3345 7.55059 12.0034 7.55059 12.9139C7.55059 13.8181 7.67446 14.487 7.9222 14.9206C8.16995 15.3541 8.55085 15.5709 9.06491 15.5709ZM14.7284 16.277C14.4435 16.277 14.1679 16.246 13.9015 16.1841C13.6414 16.1221 13.3968 16.0323 13.1676 15.9146C12.9384 15.7908 12.7341 15.6452 12.5544 15.478L12.861 14.8463C13.1521 15.094 13.4494 15.2767 13.7529 15.3944C14.0564 15.5121 14.3815 15.5709 14.7284 15.5709C15.1867 15.5709 15.5428 15.4501 15.7968 15.2086C16.0569 14.9608 16.187 14.6233 16.187 14.1959C16.187 13.7686 16.0631 13.4248 15.8153 13.1647C15.5738 12.9046 15.2393 12.7745 14.812 12.7745C14.5147 12.7745 14.2484 12.8334 14.013 12.951C13.7839 13.0687 13.5702 13.2607 13.372 13.527H12.7495V9.64368H16.6329V10.3405H13.5113V12.8488H13.4092C13.564 12.6135 13.7746 12.4277 14.0409 12.2914C14.3134 12.149 14.6138 12.0777 14.9421 12.0777C15.3632 12.0777 15.7224 12.1676 16.0197 12.3472C16.3232 12.5206 16.5586 12.7621 16.7258 13.0718C16.893 13.3815 16.9766 13.7438 16.9766 14.1588C16.9766 14.5861 16.8837 14.9608 16.6979 15.2829C16.5121 15.5988 16.252 15.8434 15.9175 16.0168C15.5893 16.1903 15.1929 16.277 14.7284 16.277Z" fill="white"/>
</svg>
