<svg width="29" height="15" viewBox="0 0 29 15" fill="none" xmlns="http://www.w3.org/2000/svg">
<path d="M8.83594 1.7251C9.16818 1.73307 9.39372 1.75451 9.52246 1.79053C9.62783 1.81988 9.82221 1.89467 9.9541 1.95752C10.1271 2.04042 10.2563 2.13488 10.4199 2.29834C10.5556 2.43362 10.686 2.60176 10.7441 2.71631C10.7975 2.82161 10.8675 2.99386 10.8994 3.09912C10.9415 3.23752 10.957 3.38735 10.9551 3.64111C10.9532 3.94091 10.9391 4.03138 10.8604 4.26025C10.8096 4.40792 10.7392 4.56009 10.7041 4.59814C10.669 4.63643 10.6123 4.72321 10.5771 4.79053C10.5407 4.86007 10.4305 4.97314 10.3213 5.05322C10.2159 5.13044 10.0431 5.23727 9.74609 5.38818L9.98633 5.47314C10.1179 5.51945 10.297 5.60759 10.3848 5.66846C10.4723 5.72944 10.6127 5.85128 10.6963 5.93896C10.7798 6.02665 10.897 6.19139 10.957 6.30518C11.0167 6.41937 11.0911 6.6063 11.1211 6.72021C11.1511 6.83439 11.1774 7.04974 11.1797 7.19873C11.1819 7.34805 11.1733 7.54964 11.1602 7.646C11.1473 7.74231 11.1067 7.90702 11.0703 8.01221C11.0342 8.11745 10.9582 8.28971 10.9023 8.39502C10.8433 8.50669 10.6941 8.69428 10.5449 8.84424C10.3401 9.05013 10.2294 9.13168 9.98633 9.25439C9.81483 9.34086 9.5504 9.44049 9.37891 9.48389C9.21188 9.52599 8.9658 9.57171 8.83203 9.58447C8.65539 9.60166 8.57478 9.59687 8.53711 9.56787C8.49559 9.53596 8.47168 9.53596 8.4209 9.56787C8.37013 9.59959 8.28973 9.59929 8.01465 9.56494C7.82567 9.54166 7.54892 9.48691 7.39941 9.44385C7.25005 9.4008 7.0273 9.31864 6.9043 9.26025C6.78139 9.2022 6.64995 9.12745 6.54395 9.03369L6.69238 8.40674C6.77379 8.06226 6.84751 7.77275 6.85645 7.76318C6.86589 7.75423 6.97308 7.79516 7.0957 7.85498C7.2186 7.91494 7.42669 7.99873 7.55859 8.0415C7.6901 8.08455 7.87348 8.13496 7.96582 8.15381C8.05805 8.17262 8.24483 8.18765 8.38086 8.18799C8.51691 8.18799 8.71492 8.16628 8.82031 8.13916C8.9257 8.11204 9.08405 8.04229 9.17188 7.98486C9.2596 7.92739 9.37744 7.80948 9.43457 7.72314C9.49196 7.63683 9.55363 7.49452 9.57227 7.40674C9.59074 7.31921 9.62009 7.23317 9.63672 7.21533C9.65586 7.19525 9.6494 7.14794 9.61914 7.0874C9.59307 7.03499 9.57117 6.96349 9.57129 6.92822C9.57129 6.89317 9.53687 6.79226 9.49414 6.70459C9.45138 6.61692 9.35765 6.49107 9.28613 6.42529C9.21428 6.35957 9.09426 6.27447 9.01953 6.23682C8.94483 6.19921 8.84068 6.15406 8.78809 6.13623C8.73472 6.11869 8.45534 6.09554 7.64648 6.06592L7.63867 4.81396L8.08594 4.79834C8.43451 4.78558 8.57836 4.76595 8.74023 4.71045C8.85425 4.6712 9.00925 4.59809 9.08398 4.54736C9.15856 4.4967 9.25399 4.39441 9.29688 4.31982C9.33961 4.24527 9.3826 4.14445 9.39258 4.09619C9.40248 4.04801 9.39647 3.98693 9.37891 3.96045C9.35732 3.92835 9.35844 3.89441 9.38184 3.85693C9.40735 3.81615 9.4072 3.76238 9.37891 3.65771C9.34921 3.54797 9.29299 3.47062 9.14355 3.33057C8.94907 3.14806 8.94593 3.14657 8.70801 3.12646C8.57638 3.11534 8.33954 3.11566 8.18164 3.12744C8.02356 3.13925 7.87987 3.16159 7.8623 3.17627C7.84454 3.19066 7.77225 3.22005 7.70215 3.2417C7.63177 3.2635 7.45629 3.34431 7.31152 3.42139C7.11907 3.52372 7.04841 3.54865 7.04785 3.51416C7.04785 3.48847 7.0444 3.46706 7.04004 3.46631C7.03557 3.46663 6.95315 3.48867 6.85645 3.51514C6.75968 3.54162 6.666 3.57502 6.64844 3.59033C6.6306 3.60538 6.53 3.64177 6.4248 3.67139C6.31932 3.70109 6.04659 3.78387 5.81836 3.85498C5.59005 3.92612 5.38871 3.98688 5.37109 3.99072C5.35358 3.99422 5.30375 4.01397 5.25977 4.03369C5.21603 4.05347 4.9929 4.14096 4.76465 4.22803C4.53631 4.31513 4.24127 4.43096 4.10938 4.48584C3.97771 4.54077 3.63234 4.70296 3.34277 4.84521C3.05325 4.98777 2.78038 5.12869 2.73633 5.15771C2.69221 5.18731 2.46227 5.33811 2.22559 5.49268C1.90335 5.70294 1.70867 5.85944 1.45605 6.11182C1.27045 6.29729 1.07698 6.52439 1.02539 6.6167C0.974376 6.70876 0.922063 6.77306 0.90918 6.76025C0.89676 6.74689 0.876771 6.77916 0.866211 6.83154C0.855353 6.88419 0.824002 6.99966 0.795898 7.0874C0.766526 7.17963 0.743803 7.36144 0.743164 7.51807C0.742211 7.69564 0.762494 7.84953 0.799805 7.96436C0.83137 8.06087 0.873735 8.18004 0.894531 8.229C0.914919 8.2777 0.946278 8.31864 0.963867 8.31885C0.981421 8.31917 1.05715 8.40405 1.13184 8.5083C1.20657 8.61263 1.36492 8.77851 1.4834 8.87646C1.6019 8.9741 1.81366 9.13102 1.9541 9.2251C2.09462 9.3189 2.41832 9.50246 2.67285 9.63232C2.92711 9.76172 3.22859 9.90862 3.34277 9.9585C3.45678 10.0083 3.56544 10.0517 3.58301 10.0552C3.60156 10.0594 3.78792 10.1243 3.99805 10.1997C4.20792 10.275 4.39986 10.3523 4.42578 10.3716C4.45069 10.3901 4.50136 10.4071 4.53809 10.4087C4.57536 10.4101 4.84255 10.4768 5.13184 10.5571C5.42144 10.6375 5.88094 10.754 6.15332 10.8159C6.42566 10.8781 6.82475 10.9609 7.04004 11.0015C7.25378 11.0416 7.42901 11.0856 7.43164 11.0991C7.43164 11.1122 7.44876 11.1141 7.4707 11.103C7.49274 11.0919 7.62608 11.1009 7.7666 11.1235C7.90706 11.1462 8.05083 11.1842 8.08594 11.2065C8.12168 11.2291 8.26523 11.2559 8.40527 11.2661L8.85254 11.2993C8.95827 11.3073 9.30248 11.3414 9.61816 11.3755C9.93433 11.4093 10.2874 11.447 10.4014 11.4585C10.5988 11.4786 10.6095 11.4756 10.6338 11.4048C10.6481 11.3635 10.6675 11.1797 10.6758 10.9956C10.6844 10.8115 10.7014 10.5685 10.7139 10.4565C10.7276 10.332 10.7548 10.24 10.7842 10.2202C10.8213 10.1951 10.9731 10.2836 11.4551 10.6108C11.7976 10.8434 12.1313 11.0683 12.1973 11.1108C12.2631 11.153 12.3094 11.2017 12.3008 11.2192C12.2926 11.2368 12.3319 11.2669 12.3887 11.2856C12.4458 11.3042 12.6712 11.4437 12.8887 11.5962C13.1061 11.7483 13.3359 11.9039 13.3994 11.9419C13.4629 11.9795 13.5506 12.0456 13.5947 12.0884C13.6385 12.1311 13.6998 12.1755 13.7305 12.187C13.7611 12.1985 13.8936 12.28 14.0254 12.3677C14.1835 12.4729 14.2625 12.545 14.2578 12.5806C14.253 12.6128 14.1086 12.7086 13.8984 12.8198C13.7055 12.9218 13.5042 13.0118 13.4512 13.019C13.3985 13.0264 13.3261 13.0581 13.291 13.0894C13.2541 13.1217 12.7522 13.3746 12.1738 13.6519L11.8262 13.8188C11.3664 14.0396 10.9453 14.2422 10.8076 14.3081C10.5338 14.4395 10.4902 14.4517 10.4531 14.4097C10.418 14.3698 10.4177 14.286 10.4551 13.9155C10.4797 13.6698 10.499 13.4219 10.498 13.3647C10.4971 13.3076 10.5117 13.2251 10.5293 13.1812C10.5585 13.1083 10.555 13.1039 10.4893 13.1245C10.4308 13.143 10.4224 13.1381 10.4482 13.1001C10.4728 13.0638 10.4696 13.0596 10.4326 13.0815C10.4042 13.0985 10.2805 13.0924 10.124 13.0659C9.98277 13.0421 9.87124 13.0157 9.87305 13.0063C9.87847 12.9977 9.83841 12.9888 9.7832 12.9878C9.72795 12.9865 9.52793 12.9581 9.33887 12.9243C9.15013 12.8902 8.99577 12.8551 8.99609 12.8462C8.9954 12.8376 8.94909 12.8272 8.89258 12.8237C8.83543 12.8199 8.61599 12.7792 8.40527 12.7329L8.38477 12.728C8.17797 12.6826 7.93209 12.6289 7.83008 12.6069C7.72475 12.584 7.53123 12.5372 7.39941 12.5024C7.26784 12.4677 6.91481 12.3719 6.61621 12.2896C6.31799 12.2073 6.01686 12.1122 5.94629 12.0786C5.87603 12.0451 5.78904 12.0181 5.75391 12.0181C5.71758 12.0176 5.53121 11.9654 5.33887 11.9019C5.14571 11.8384 4.8942 11.7515 4.78027 11.7085C4.66631 11.6651 4.56558 11.6167 4.55664 11.6001C4.54753 11.5838 4.49023 11.5658 4.42871 11.5601C4.36666 11.5544 4.15162 11.4804 3.9502 11.396C3.74899 11.312 3.5693 11.225 3.55078 11.2026C3.53323 11.181 3.42545 11.1309 3.31152 11.0923C3.19722 11.0537 2.93145 10.9285 2.7207 10.814C2.50993 10.6994 2.27224 10.5612 2.19336 10.5073C2.11458 10.4535 2.03913 10.394 2.02637 10.3755C2.01338 10.3569 2.00293 10.3527 2.00293 10.3657C2.00239 10.3786 1.87609 10.3039 1.72266 10.1997C1.56904 10.0954 1.3247 9.9048 1.18066 9.77686C1.03637 9.64863 0.892613 9.50837 0.861328 9.46436C0.829948 9.4206 0.755918 9.34114 0.696289 9.28857C0.636762 9.23563 0.511665 9.07807 0.417969 8.93799C0.317709 8.78806 0.201199 8.55439 0.134766 8.37158C0.0402353 8.11059 0.0192725 8.00508 0.00585938 7.71729C-0.00690549 7.44556 8.91619e-05 7.35903 0.0380859 7.30225C0.0642203 7.26236 0.0963138 7.15018 0.109375 7.05225C0.122469 6.95365 0.15213 6.85653 0.174805 6.83643C0.197723 6.81626 0.2158 6.77086 0.214844 6.73584C0.214786 6.70008 0.280248 6.57103 0.361328 6.44873C0.443215 6.3258 0.65625 6.0821 0.834961 5.90674C1.0138 5.73127 1.27388 5.50594 1.41309 5.40674C1.55268 5.3075 1.7961 5.15224 1.9541 5.06104C2.11219 4.9701 2.39256 4.82524 2.57715 4.73877C2.76168 4.65233 2.93012 4.58122 2.95215 4.58154C2.97431 4.58175 3.03865 4.55441 3.0957 4.52002C3.15285 4.48557 3.36467 4.39809 3.56641 4.32568C3.76824 4.25294 4.12795 4.13077 4.36523 4.0542C4.6025 3.97763 4.92594 3.87981 5.08398 3.83643C5.24194 3.79276 5.38169 3.76672 5.39453 3.77881C5.40724 3.79087 5.4357 3.78469 5.45801 3.76514C5.48034 3.74537 5.63156 3.69893 5.79395 3.66162C5.9565 3.62429 6.10451 3.60125 6.12207 3.60986C6.13941 3.61848 6.15332 3.61403 6.15332 3.60107C6.15503 3.58776 6.25159 3.55702 6.36914 3.53271C6.48787 3.50817 6.62802 3.48578 6.68066 3.48291C6.73336 3.48036 6.81241 3.4747 6.85645 3.47119C6.90015 3.46765 6.95525 3.45397 6.97852 3.44092C7.01211 3.42209 6.99381 3.30528 6.8877 2.85986C6.81456 2.55292 6.76322 2.28325 6.77344 2.26123C6.78444 2.23904 6.91101 2.16328 7.05566 2.09229C7.20065 2.02081 7.43468 1.92769 7.5752 1.88525C7.71576 1.84284 7.94559 1.78736 8.08594 1.76123C8.26567 1.72776 8.48776 1.71682 8.83594 1.7251ZM23.2871 3.65771C23.3136 3.65771 23.6337 3.74218 23.998 3.84619C24.3624 3.95053 24.8762 4.11042 25.1396 4.20166C25.4031 4.29259 25.7699 4.43112 25.9541 4.50928C26.1384 4.58746 26.4474 4.73064 26.6406 4.82666C26.8337 4.92298 27.1709 5.12067 27.3906 5.26611C27.61 5.41193 27.9251 5.65892 28.0898 5.81494C28.2546 5.97058 28.4536 6.18424 28.5322 6.28955C28.611 6.39476 28.7074 6.54533 28.7471 6.62451C28.7867 6.70364 28.814 6.78609 28.8076 6.80811C28.8012 6.83011 28.8106 6.84814 28.8281 6.84814C28.8457 6.84825 28.892 6.95235 28.9307 7.07959C28.9855 7.25903 29.0006 7.38933 29 7.66162C28.9994 7.97237 28.9872 8.04759 28.8955 8.31592C28.8386 8.48278 28.7283 8.72287 28.6504 8.8501C28.5725 8.97738 28.4941 9.08154 28.4766 9.08154C28.4591 9.08174 28.4453 9.10303 28.4453 9.12939C28.445 9.15615 28.3117 9.31533 28.1494 9.48389C27.987 9.65289 27.7322 9.8879 27.583 10.0063C27.4339 10.1247 27.1635 10.3166 26.9834 10.4331C26.8034 10.5495 26.6566 10.6337 26.6572 10.6206C26.657 10.6082 26.6253 10.6278 26.5859 10.6646C26.5457 10.7022 26.362 10.8127 26.1777 10.9097C25.9935 11.0066 25.6698 11.1592 25.459 11.2495C25.2482 11.3401 25.0468 11.4302 25.0117 11.4497C24.9764 11.4689 24.7829 11.5461 24.5811 11.6216C24.379 11.6972 24.2027 11.7526 24.1895 11.7446C24.1764 11.7363 24.1617 11.7427 24.1572 11.7583C24.151 11.7744 23.9975 11.8388 23.8145 11.9019C23.6308 11.9651 23.4439 12.0171 23.3994 12.0171C23.3553 12.0168 23.2683 12.0438 23.207 12.0767C23.1452 12.1096 22.9153 12.1901 22.6963 12.2554C22.4773 12.3206 22.2625 12.3739 22.2178 12.3745C22.1737 12.3748 22.1297 12.3862 22.1211 12.3989C22.1086 12.4128 21.8665 12.4824 21.5791 12.5542C21.2892 12.6266 20.8221 12.7351 20.541 12.7954C20.26 12.856 19.8643 12.9348 19.6621 12.9702L18.7363 13.1304C18.5342 13.1655 18.2898 13.2055 18.1934 13.2183C18.0969 13.231 17.9532 13.24 17.874 13.2388C17.7954 13.2375 17.7243 13.2494 17.7148 13.2651C17.7062 13.2811 17.6029 13.2971 17.4863 13.3013C17.3702 13.3054 17.2814 13.3195 17.2871 13.3325C17.2938 13.3456 17.2378 13.3583 17.1631 13.3599C17.0884 13.3612 16.9842 13.3662 16.9316 13.3716C16.8787 13.3767 16.735 13.3964 16.6123 13.4155C16.4891 13.4344 16.1224 13.4724 15.7979 13.4995C15.4737 13.5269 15.1729 13.5556 15.1279 13.563C15.0839 13.5703 15.0262 13.5633 15 13.5474C14.9649 13.5263 14.9463 13.4346 14.9326 13.2065C14.9221 13.0346 14.9264 12.876 14.9414 12.854C14.9564 12.8312 14.9536 12.8075 14.9355 12.7983C14.9167 12.7868 14.9074 12.636 14.9121 12.4185C14.9165 12.22 14.909 12.0455 14.8955 12.0278C14.8818 12.0132 14.8708 11.9402 14.8711 11.8657C14.8717 11.7912 14.8908 11.7122 14.9141 11.6899C14.945 11.6606 15.3266 11.6385 16.3438 11.6079C17.1066 11.5849 17.7882 11.5602 17.8584 11.5532C17.9291 11.5459 18.1947 11.5245 18.4492 11.5054C18.7041 11.4865 19.185 11.4431 19.5186 11.4087C19.8521 11.3742 20.2185 11.3319 20.333 11.3149C20.4473 11.298 20.627 11.2843 20.7324 11.2837C20.8378 11.2834 21.0175 11.266 21.1318 11.2466C21.246 11.2271 21.3535 11.1994 21.3711 11.1851C21.3887 11.1704 21.572 11.129 21.7783 11.0933C21.9846 11.0572 22.168 11.0348 22.1855 11.0435C22.2031 11.052 22.2348 11.0459 22.2568 11.0298C22.2789 11.0135 22.4269 10.9711 22.585 10.936C22.7429 10.9006 22.9081 10.8649 22.9521 10.8569C22.9965 10.8485 23.1834 10.8038 23.3672 10.7573C23.5515 10.7107 23.9183 10.6096 24.1816 10.5327C24.4451 10.4555 24.8549 10.3219 25.0918 10.2349C25.3285 10.1482 25.6263 10.0323 25.7539 9.97803C25.8806 9.92408 25.9849 9.89032 25.9863 9.90283C25.9863 9.91591 25.9977 9.91189 26.0107 9.89307C26.0235 9.87456 26.1599 9.79179 26.3135 9.70947C26.467 9.62753 26.6074 9.56707 26.625 9.57568C26.6424 9.58409 26.6562 9.5775 26.6562 9.56006C26.6562 9.54257 26.6777 9.52792 26.7041 9.52783C26.7304 9.52783 26.7517 9.51396 26.752 9.49658C26.752 9.47905 26.8348 9.41557 26.9355 9.35596C27.0365 9.29598 27.2198 9.16915 27.3428 9.07471C27.4657 8.98026 27.5811 8.89682 27.5986 8.88916C27.6162 8.88115 27.7089 8.78071 27.8057 8.6665C27.9021 8.55228 28.0291 8.38004 28.0869 8.28369C28.1443 8.18742 28.2154 8.02942 28.2451 7.93311C28.2748 7.83695 28.3111 7.75063 28.3252 7.7417C28.3392 7.73308 28.3286 7.57424 28.3018 7.39014C28.2663 7.14811 28.2228 6.99293 28.1455 6.83154C28.0867 6.70874 27.9686 6.51667 27.8828 6.40479C27.797 6.29255 27.7016 6.16339 27.6709 6.11768C27.6406 6.07173 27.6042 6.037 27.5908 6.03955C27.577 6.04197 27.5018 5.98342 27.4229 5.90967C27.3437 5.83568 27.1569 5.68508 27.0078 5.57471C26.8587 5.46436 26.6073 5.29346 26.4492 5.1958C26.2911 5.09785 25.9598 4.9156 25.7139 4.79053C25.468 4.66549 25.1522 4.51155 25.0117 4.44873C24.8713 4.38591 24.6201 4.28239 24.4531 4.21826C24.2861 4.15413 24.1281 4.09006 24.1016 4.07666C24.0746 4.06281 23.8854 3.99541 23.6807 3.92627C23.4762 3.8572 23.3146 3.7901 23.3213 3.77686C23.3286 3.76377 23.3063 3.76377 23.2715 3.77686C23.2197 3.79617 23.2112 3.78904 23.2217 3.73682C23.2285 3.70257 23.2348 3.67101 23.2363 3.66553C23.2379 3.66107 23.2607 3.65772 23.2871 3.65771ZM16.4258 2.19775C16.4322 2.46542 16.4365 2.77438 16.4365 3.0835H16.2695C16.1773 3.0835 15.9725 3.09787 15.8145 3.11572C15.6568 3.13386 15.4915 3.15019 15.4473 3.15186C15.4032 3.15345 15.3242 3.17418 15.2715 3.19775C15.2188 3.22136 15.0671 3.28412 14.9355 3.3374C14.8037 3.39072 14.6032 3.50424 14.4893 3.58936C14.3752 3.67455 14.2179 3.82108 14.1406 3.91553C14.0637 4.01028 13.9463 4.20293 13.8789 4.34326C13.8112 4.48359 13.7356 4.67752 13.7109 4.77393C13.6863 4.87028 13.6713 4.95672 13.6777 4.96533C13.6843 4.97341 13.7728 4.9022 13.875 4.80615C13.9775 4.7098 14.1396 4.59131 14.2354 4.54346C14.3312 4.49594 14.4953 4.43448 14.6006 4.40771C14.706 4.3806 14.922 4.35954 15.0801 4.35986C15.2379 4.36022 15.4602 4.38262 15.5742 4.40967C15.6885 4.43679 15.8829 4.51189 16.0059 4.57666C16.1325 4.64295 16.3126 4.77655 16.4219 4.88525C16.5278 4.99047 16.6752 5.17745 16.749 5.30029C16.8228 5.42313 16.9188 5.62472 16.9619 5.74756C17.0053 5.87048 17.0644 6.10719 17.0938 6.27393C17.133 6.49748 17.1427 6.68168 17.1299 6.97607C17.1196 7.21429 17.0871 7.47092 17.0498 7.61377C17.0154 7.74537 16.9503 7.9461 16.9043 8.06006C16.858 8.17428 16.773 8.34651 16.7158 8.44287C16.659 8.53923 16.4832 8.74886 16.3252 8.90869C16.0777 9.15883 15.9956 9.21952 15.7344 9.34521C15.5674 9.4253 15.3266 9.51343 15.1992 9.5415C15.0718 9.56924 14.8457 9.59229 14.6963 9.59229C14.5468 9.59227 14.3207 9.56959 14.1934 9.54248C14.066 9.51536 13.8759 9.45761 13.7705 9.41455C13.6652 9.37118 13.5015 9.29002 13.4072 9.23291C13.3131 9.17614 13.141 9.03559 13.0244 8.92139C12.9079 8.80724 12.7449 8.60656 12.6621 8.4751C12.5791 8.34364 12.4604 8.11001 12.3984 7.95654C12.3362 7.80311 12.2568 7.55938 12.2227 7.41455C12.1882 7.26974 12.1442 6.99332 12.124 6.80029C12.1043 6.60836 12.0749 6.43668 12.0586 6.41748C12.0423 6.39996 12.0293 6.33543 12.0293 6.27393C12.0293 6.21303 12.0414 6.14837 12.0566 6.13037C12.0723 6.11282 12.1023 5.92591 12.123 5.71533C12.1435 5.50492 12.1878 5.19675 12.2217 5.02979C12.2552 4.86295 12.3269 4.59022 12.3809 4.42334C12.4345 4.25647 12.5562 3.96208 12.6514 3.76904C12.7465 3.57605 12.8612 3.37873 12.9062 3.33057C12.9516 3.28242 12.9803 3.24268 12.9717 3.24268C12.9643 3.24122 13.0249 3.15349 13.1074 3.04639C13.1907 2.93795 13.3742 2.751 13.5146 2.63135C13.6551 2.51141 13.7955 2.41265 13.8262 2.4126C13.8572 2.4126 13.8968 2.38422 13.9141 2.34912C13.9321 2.31366 14.0912 2.2158 14.2734 2.12842C14.4535 2.04228 14.7013 1.94281 14.8242 1.90771C14.9471 1.87264 15.1338 1.82691 15.2393 1.80615C15.3446 1.78511 15.553 1.75674 15.7021 1.74365C15.8513 1.73057 16.0736 1.71845 16.415 1.71143L16.4258 2.19775ZM20.3486 1.72314C20.6635 1.73144 20.775 1.74866 20.9717 1.81787C21.1032 1.86411 21.3046 1.96496 21.4189 2.04248C21.5333 2.12001 21.688 2.24984 21.7627 2.33057C21.8374 2.411 21.9605 2.57372 22.0371 2.69189C22.1138 2.81027 22.2201 3.00851 22.2734 3.13135C22.3268 3.25424 22.4095 3.47658 22.4561 3.62549C22.503 3.77479 22.569 4.06164 22.6035 4.26318C22.638 4.46515 22.6807 4.83865 22.6992 5.09326C22.7174 5.34774 22.7237 5.72068 22.7129 5.92236C22.702 6.12415 22.6784 6.42532 22.6602 6.59229C22.642 6.75911 22.5986 7.03185 22.5645 7.19873C22.53 7.3656 22.4586 7.63161 22.4053 7.78955C22.3519 7.94742 22.2452 8.19825 22.168 8.34717C22.091 8.49617 21.9486 8.7161 21.8516 8.83447C21.7542 8.95283 21.5991 9.10639 21.5068 9.17529C21.4146 9.24448 21.2461 9.34435 21.1318 9.39795C21.0175 9.45155 20.8231 9.51729 20.7002 9.54346C20.5772 9.56959 20.3541 9.59131 20.2051 9.59131C20.056 9.59128 19.8442 9.56928 19.7344 9.54346C19.6247 9.51733 19.4525 9.4595 19.3516 9.41455C19.2506 9.36924 19.1026 9.28546 19.0234 9.22803C18.9442 9.17091 18.8549 9.11354 18.8242 9.10205C18.7937 9.09057 18.7688 9.053 18.7686 9.01807C18.7686 8.98298 18.7442 8.94327 18.7148 8.93018C18.6858 8.91709 18.6014 8.81965 18.5273 8.71436C18.4533 8.60911 18.3353 8.40844 18.2656 8.26807C18.1957 8.12768 18.1007 7.89771 18.0547 7.75732C18.0087 7.61694 17.9494 7.40862 17.9229 7.29443C17.8964 7.18074 17.8751 7.01601 17.875 6.92822C17.875 6.84048 17.8607 6.75339 17.8438 6.73584C17.8264 6.71551 17.7957 6.49448 17.7754 6.2417C17.7537 5.97373 17.747 5.59125 17.7588 5.33252C17.77 5.08684 17.8023 4.73439 17.8291 4.55029C17.8563 4.36626 17.8996 4.12913 17.9258 4.02393C17.9517 3.91856 18.0107 3.71785 18.0566 3.57764C18.1029 3.43748 18.1595 3.28698 18.1826 3.24268C18.2054 3.19935 18.2246 3.14932 18.2246 3.13135C18.2243 3.1138 18.304 2.9699 18.4023 2.81201C18.5115 2.63624 18.6761 2.43209 18.8271 2.28564C18.9961 2.12164 19.149 2.00795 19.3125 1.92627C19.4436 1.86069 19.6435 1.78617 19.7578 1.76025C19.8976 1.72837 20.0905 1.71615 20.3486 1.72314ZM14.6484 5.61572C14.552 5.60904 14.415 5.62238 14.3447 5.64502C14.2744 5.66777 14.1523 5.73217 14.0732 5.7876C13.9943 5.84301 13.9004 5.92827 13.8633 5.97705C13.8266 6.02616 13.7626 6.13036 13.7227 6.20947C13.6789 6.29559 13.642 6.44269 13.6299 6.57666C13.6158 6.72784 13.6257 6.89765 13.6621 7.10303C13.6915 7.26974 13.7472 7.48505 13.7861 7.58154C13.8248 7.6779 13.8971 7.81506 13.9463 7.88525C13.9954 7.95532 14.0759 8.05026 14.126 8.09619C14.1761 8.14211 14.2892 8.20288 14.377 8.23193C14.4648 8.26065 14.6051 8.28401 14.6885 8.28369C14.7718 8.28369 14.8942 8.261 14.96 8.23389C15.0257 8.20672 15.1348 8.13189 15.2021 8.06689C15.2695 8.00212 15.3599 7.88064 15.4023 7.79736C15.4445 7.71407 15.5015 7.54853 15.5293 7.43018C15.5657 7.27578 15.5766 7.11127 15.5674 6.84814C15.5578 6.57215 15.5364 6.43345 15.4834 6.28955C15.4441 6.18436 15.3741 6.04846 15.3262 5.98779C15.2786 5.92717 15.2323 5.85743 15.2236 5.8335C15.2143 5.80907 15.1205 5.75393 15.0156 5.70947C14.9102 5.66481 14.7449 5.6221 14.6484 5.61572ZM20.2217 3.05127C20.1486 3.05159 20.0403 3.08242 19.9688 3.12354C19.9004 3.1631 19.7881 3.27425 19.7197 3.37061C19.6447 3.47617 19.5598 3.65901 19.5049 3.83252C19.4551 3.99033 19.3971 4.24877 19.376 4.40674C19.3549 4.56457 19.3282 4.75147 19.3164 4.82178C19.3049 4.89197 19.3039 5.3519 19.3145 5.84326C19.3282 6.46414 19.3494 6.82077 19.3857 7.01514C19.4148 7.16861 19.4711 7.39188 19.5107 7.51025C19.55 7.62855 19.6257 7.7962 19.6787 7.8833C19.7314 7.97041 19.8321 8.08221 19.9023 8.13135C19.9726 8.18045 20.0803 8.2302 20.1416 8.24072C20.2029 8.25154 20.3073 8.2509 20.373 8.23975C20.4477 8.22763 20.542 8.17471 20.624 8.1001C20.6965 8.03437 20.7895 7.92322 20.8301 7.85303C20.8703 7.78279 20.9323 7.63188 20.9678 7.51807C21.0035 7.40387 21.0555 7.18855 21.083 7.03955C21.1105 6.89028 21.1478 6.52435 21.166 6.22607C21.189 5.85149 21.1887 5.5058 21.166 5.10889C21.1478 4.79305 21.1105 4.40546 21.083 4.24756C21.0552 4.08962 20.9972 3.85965 20.9541 3.73682C20.9106 3.61398 20.8213 3.43301 20.7559 3.33447C20.6611 3.19202 20.6072 3.14447 20.4932 3.10303C20.4141 3.07436 20.292 3.05102 20.2217 3.05127ZM23.1113 0.00439453C23.2373 0.0139533 23.3814 0.0497001 23.4785 0.0961914C23.5663 0.138627 23.7067 0.246768 23.79 0.336426C23.8733 0.425689 23.9423 0.520153 23.9424 0.546387C23.9424 0.572869 23.9674 0.633612 23.998 0.681152C24.0387 0.743987 24.0537 0.833197 24.0537 1.00928C24.0537 1.18548 24.0389 1.27458 23.998 1.3374C23.9674 1.38494 23.9424 1.446 23.9424 1.47217C23.9416 1.49927 23.8661 1.59938 23.7744 1.6958C23.6736 1.80191 23.5434 1.89967 23.4473 1.94092C23.3323 1.99036 23.2199 2.01026 23.0479 2.01123C22.8588 2.01219 22.7715 1.99564 22.6357 1.93311C22.5377 1.88804 22.4033 1.789 22.3242 1.70264C22.2476 1.61932 22.1535 1.48303 22.1143 1.3999C22.0606 1.2854 22.043 1.19006 22.043 1.00928C22.043 0.837503 22.0609 0.729413 22.1074 0.626465C22.1432 0.547716 22.2362 0.412838 22.3145 0.327637C22.3927 0.242127 22.5 0.149679 22.5527 0.122559C22.6055 0.095119 22.7062 0.0540385 22.7764 0.0307617C22.8555 0.00432761 22.9828 -0.00514539 23.1113 0.00439453ZM22.9355 0.562012C22.9176 0.5627 22.8608 0.591084 22.8086 0.625488C22.7559 0.659947 22.6869 0.736025 22.6562 0.793457C22.6254 0.850935 22.6006 0.954868 22.6006 1.0249C22.6009 1.09954 22.6274 1.19269 22.665 1.24854C22.7005 1.30113 22.7685 1.36923 22.8164 1.3999C22.8642 1.43047 22.961 1.45514 23.0312 1.45557C23.1015 1.45557 23.2075 1.43082 23.2666 1.3999C23.3256 1.36932 23.4013 1.29443 23.4346 1.23291C23.4677 1.1714 23.4951 1.07087 23.4951 1.00928C23.4951 0.947698 23.4678 0.847224 23.4346 0.785645C23.4001 0.721933 23.3231 0.648591 23.2549 0.614746C23.154 0.564972 23.1278 0.562748 23.0898 0.599121C23.0538 0.633748 23.0375 0.634095 23.0068 0.602051C22.9854 0.580035 22.9531 0.561693 22.9355 0.562012Z" fill="black"/>
</svg>
