<svg width="85" height="13" viewBox="0 0 85 13" fill="none" xmlns="http://www.w3.org/2000/svg">
<path d="M5.29763 12V9.584H0.097625V8.592L5.52163 0.719999H6.62563V8.464H8.30562V9.584H6.62563V12H5.29763ZM5.29763 8.464V2.304H5.68163L1.21763 8.816V8.464H5.29763ZM10.2834 12V0.719999H11.3874L15.9634 9.312H15.4834L20.0274 0.719999H21.1314V12H19.9154V2.48H20.2994L16.1554 10.256H15.2914L11.0994 2.464H11.4834V12H10.2834ZM23.9389 12V0.719999H28.4029C29.2135 0.719999 29.8962 0.853333 30.4509 1.12C31.0162 1.376 31.4429 1.76 31.7309 2.272C32.0189 2.77333 32.1629 3.38667 32.1629 4.112C32.1629 4.816 32.0189 5.424 31.7309 5.936C31.4429 6.448 31.0162 6.83733 30.4509 7.104C29.8962 7.37067 29.2135 7.504 28.4029 7.504H25.2509V12H23.9389ZM25.2509 6.4H28.2429C29.1069 6.4 29.7575 6.208 30.1949 5.824C30.6429 5.42933 30.8669 4.85867 30.8669 4.112C30.8669 3.35467 30.6429 2.784 30.1949 2.4C29.7575 2.00533 29.1069 1.808 28.2429 1.808H25.2509V6.4ZM33.3551 8.272V7.2H37.8351V8.272H33.3551ZM40.3764 12V0.719999H44.8404C46.0457 0.719999 46.9737 1.00267 47.6244 1.568C48.275 2.13333 48.6004 2.93867 48.6004 3.984C48.6004 4.64533 48.451 5.22133 48.1524 5.712C47.8644 6.192 47.4377 6.56 46.8724 6.816C46.307 7.06133 45.6297 7.184 44.8404 7.184L45.0004 6.976H45.3204C45.7364 6.976 46.099 7.08267 46.4084 7.296C46.7177 7.50933 47.0004 7.85067 47.2564 8.32L49.2404 12H47.8004L45.8484 8.384C45.6884 8.08533 45.507 7.85067 45.3044 7.68C45.1124 7.50933 44.8884 7.392 44.6324 7.328C44.387 7.264 44.0884 7.232 43.7364 7.232H41.6884V12H40.3764ZM41.6884 6.192H44.6484C45.523 6.192 46.1844 6.01067 46.6324 5.648C47.0804 5.27467 47.3044 4.72 47.3044 3.984C47.3044 3.26933 47.0804 2.73067 46.6324 2.368C46.1844 1.99467 45.523 1.808 44.6484 1.808H41.6884V6.192ZM50.5895 8.272V7.2H55.0695V8.272H50.5895ZM58.0108 12L63.5468 1.28V1.856H57.2908V0.719999H64.7468V1.712L59.4668 12H58.0108ZM70.8525 12.144C70.3725 12.144 69.9032 12.0907 69.4445 11.984C68.9858 11.8773 68.5538 11.7227 68.1485 11.52C67.7538 11.3173 67.4018 11.0773 67.0925 10.8L67.5885 9.76C68.1005 10.176 68.6178 10.4853 69.1405 10.688C69.6738 10.88 70.2392 10.976 70.8365 10.976C71.6258 10.976 72.2392 10.7573 72.6765 10.32C73.1245 9.88267 73.3485 9.30667 73.3485 8.592C73.3485 7.856 73.1352 7.25333 72.7085 6.784C72.2818 6.31467 71.6952 6.08 70.9485 6.08C70.4045 6.08 69.9245 6.192 69.5085 6.416C69.1032 6.62933 68.7352 6.96533 68.4045 7.424H67.4445V0.719999H73.9885V1.84H68.7405V6.336H68.3885C68.6658 5.888 69.0498 5.54667 69.5405 5.312C70.0312 5.06667 70.5805 4.944 71.1885 4.944C71.9032 4.944 72.5165 5.09333 73.0285 5.392C73.5512 5.69067 73.9512 6.112 74.2285 6.656C74.5165 7.18933 74.6605 7.81333 74.6605 8.528C74.6605 9.232 74.5058 9.856 74.1965 10.4C73.8872 10.944 73.4498 11.3707 72.8845 11.68C72.3192 11.9893 71.6418 12.144 70.8525 12.144ZM80.2063 12.144C79.3529 12.144 78.6276 11.9253 78.0303 11.488C77.4436 11.04 77.0009 10.384 76.7023 9.52C76.4036 8.656 76.2543 7.6 76.2543 6.352C76.2543 5.09333 76.4036 4.03733 76.7023 3.184C77.0009 2.32 77.4436 1.66933 78.0303 1.232C78.6276 0.794666 79.3529 0.575999 80.2063 0.575999C81.0703 0.575999 81.7956 0.794666 82.3823 1.232C82.9689 1.66933 83.4116 2.31467 83.7103 3.168C84.0089 4.02133 84.1583 5.07733 84.1583 6.336C84.1583 7.59467 84.0089 8.656 83.7103 9.52C83.4116 10.384 82.9689 11.04 82.3823 11.488C81.7956 11.9253 81.0703 12.144 80.2063 12.144ZM80.2063 11.008C81.1023 11.008 81.7636 10.6293 82.1903 9.872C82.6276 9.11467 82.8463 7.936 82.8463 6.336C82.8463 4.736 82.6329 3.568 82.2063 2.832C81.7796 2.08533 81.1129 1.712 80.2063 1.712C79.3209 1.712 78.6596 2.08533 78.2223 2.832C77.7849 3.57867 77.5663 4.74667 77.5663 6.336C77.5663 7.936 77.7796 9.11467 78.2063 9.872C78.6436 10.6293 79.3103 11.008 80.2063 11.008Z" fill="black"/>
</svg>
