<svg width="85" height="13" viewBox="0 0 85 13" fill="none" xmlns="http://www.w3.org/2000/svg">
<path d="M6.032 12V9.584H0.832V8.592L6.256 0.719999H7.36V8.464H9.04V9.584H7.36V12H6.032ZM6.032 8.464V2.304H6.416L1.952 8.816V8.464H6.032ZM11.0178 12V0.719999H12.1218L16.6978 9.312H16.2178L20.7618 0.719999H21.8658V12H20.6498V2.48H21.0338L16.8898 10.256H16.0258L11.8338 2.464H12.2178V12H11.0178ZM24.6733 12V0.719999H29.1373C29.9479 0.719999 30.6306 0.853333 31.1853 1.12C31.7506 1.376 32.1773 1.76 32.4653 2.272C32.7533 2.77333 32.8973 3.38667 32.8973 4.112C32.8973 4.816 32.7533 5.424 32.4653 5.936C32.1773 6.448 31.7506 6.83733 31.1853 7.104C30.6306 7.37067 29.9479 7.504 29.1373 7.504H25.9853V12H24.6733ZM25.9853 6.4H28.9773C29.8413 6.4 30.4919 6.208 30.9293 5.824C31.3773 5.42933 31.6013 4.85867 31.6013 4.112C31.6013 3.35467 31.3773 2.784 30.9293 2.4C30.4919 2.00533 29.8413 1.808 28.9773 1.808H25.9853V6.4ZM34.0895 8.272V7.2H38.5695V8.272H34.0895ZM41.1108 12V0.719999H45.5748C46.7801 0.719999 47.7081 1.00267 48.3588 1.568C49.0094 2.13333 49.3348 2.93867 49.3348 3.984C49.3348 4.64533 49.1854 5.22133 48.8868 5.712C48.5988 6.192 48.1721 6.56 47.6068 6.816C47.0414 7.06133 46.3641 7.184 45.5748 7.184L45.7348 6.976H46.0548C46.4708 6.976 46.8334 7.08267 47.1428 7.296C47.4521 7.50933 47.7348 7.85067 47.9908 8.32L49.9748 12H48.5347L46.5828 8.384C46.4228 8.08533 46.2414 7.85067 46.0388 7.68C45.8468 7.50933 45.6228 7.392 45.3668 7.328C45.1214 7.264 44.8228 7.232 44.4708 7.232H42.4228V12H41.1108ZM42.4228 6.192H45.3828C46.2574 6.192 46.9188 6.01067 47.3668 5.648C47.8148 5.27467 48.0388 4.72 48.0388 3.984C48.0388 3.26933 47.8148 2.73067 47.3668 2.368C46.9188 1.99467 46.2574 1.808 45.3828 1.808H42.4228V6.192ZM51.3239 8.272V7.2H55.8039V8.272H51.3239ZM61.9931 12.144C61.5131 12.144 61.0438 12.0907 60.5851 11.984C60.1265 11.8773 59.6945 11.7227 59.2891 11.52C58.8945 11.3173 58.5425 11.0773 58.2331 10.8L58.7291 9.76C59.2411 10.176 59.7585 10.4853 60.2811 10.688C60.8145 10.88 61.3798 10.976 61.9771 10.976C62.7665 10.976 63.3798 10.7573 63.8171 10.32C64.2651 9.88267 64.4891 9.30667 64.4891 8.592C64.4891 7.856 64.2758 7.25333 63.8491 6.784C63.4225 6.31467 62.8358 6.08 62.0891 6.08C61.5451 6.08 61.0651 6.192 60.6491 6.416C60.2438 6.62933 59.8758 6.96533 59.5451 7.424H58.5851V0.719999H65.1291V1.84H59.8811V6.336H59.5291C59.8065 5.888 60.1905 5.54667 60.6811 5.312C61.1718 5.06667 61.7211 4.944 62.3291 4.944C63.0438 4.944 63.6571 5.09333 64.1691 5.392C64.6918 5.69067 65.0918 6.112 65.3691 6.656C65.6571 7.18933 65.8011 7.81333 65.8011 8.528C65.8011 9.232 65.6465 9.856 65.3371 10.4C65.0278 10.944 64.5905 11.3707 64.0251 11.68C63.4598 11.9893 62.7825 12.144 61.9931 12.144ZM71.3469 12.144C70.4935 12.144 69.7682 11.9253 69.1709 11.488C68.5842 11.04 68.1415 10.384 67.8429 9.52C67.5442 8.656 67.3949 7.6 67.3949 6.352C67.3949 5.09333 67.5442 4.03733 67.8429 3.184C68.1415 2.32 68.5842 1.66933 69.1709 1.232C69.7682 0.794666 70.4935 0.575999 71.3469 0.575999C72.2109 0.575999 72.9362 0.794666 73.5229 1.232C74.1095 1.66933 74.5522 2.31467 74.8509 3.168C75.1495 4.02133 75.2989 5.07733 75.2989 6.336C75.2989 7.59467 75.1495 8.656 74.8509 9.52C74.5522 10.384 74.1095 11.04 73.5229 11.488C72.9362 11.9253 72.2109 12.144 71.3469 12.144ZM71.3469 11.008C72.2429 11.008 72.9042 10.6293 73.3309 9.872C73.7682 9.11467 73.9869 7.936 73.9869 6.336C73.9869 4.736 73.7735 3.568 73.3469 2.832C72.9202 2.08533 72.2535 1.712 71.3469 1.712C70.4615 1.712 69.8002 2.08533 69.3629 2.832C68.9255 3.57867 68.7069 4.74667 68.7069 6.336C68.7069 7.936 68.9202 9.11467 69.3469 9.872C69.7842 10.6293 70.4509 11.008 71.3469 11.008ZM80.9406 12.144C80.0873 12.144 79.362 11.9253 78.7646 11.488C78.178 11.04 77.7353 10.384 77.4366 9.52C77.138 8.656 76.9886 7.6 76.9886 6.352C76.9886 5.09333 77.138 4.03733 77.4366 3.184C77.7353 2.32 78.178 1.66933 78.7646 1.232C79.362 0.794666 80.0873 0.575999 80.9406 0.575999C81.8046 0.575999 82.53 0.794666 83.1166 1.232C83.7033 1.66933 84.146 2.31467 84.4446 3.168C84.7433 4.02133 84.8926 5.07733 84.8926 6.336C84.8926 7.59467 84.7433 8.656 84.4446 9.52C84.146 10.384 83.7033 11.04 83.1166 11.488C82.53 11.9253 81.8046 12.144 80.9406 12.144ZM80.9406 11.008C81.8366 11.008 82.498 10.6293 82.9246 9.872C83.362 9.11467 83.5806 7.936 83.5806 6.336C83.5806 4.736 83.3673 3.568 82.9406 2.832C82.514 2.08533 81.8473 1.712 80.9406 1.712C80.0553 1.712 79.394 2.08533 78.9566 2.832C78.5193 3.57867 78.3006 4.74667 78.3006 6.336C78.3006 7.936 78.514 9.11467 78.9406 9.872C79.378 10.6293 80.0446 11.008 80.9406 11.008Z" fill="black"/>
</svg>
