<svg width="225" height="16" viewBox="0 0 225 16" fill="none" xmlns="http://www.w3.org/2000/svg">
<path d="M4.986 15.216C4.11 15.216 3.24 15.102 2.376 14.874C1.524 14.634 0.792 14.298 0.18 13.866L1.332 11.634C1.812 11.982 2.364 12.258 2.988 12.462C3.624 12.666 4.266 12.768 4.914 12.768C5.646 12.768 6.222 12.624 6.642 12.336C7.062 12.048 7.272 11.646 7.272 11.13C7.272 10.806 7.188 10.518 7.02 10.266C6.852 10.014 6.552 9.822 6.12 9.69C5.7 9.558 5.106 9.492 4.338 9.492H1.116L1.764 2.4H9.45V4.74H2.808L4.32 3.408L3.87 8.466L2.358 7.134H5.022C6.27 7.134 7.272 7.308 8.028 7.656C8.796 7.992 9.354 8.454 9.702 9.042C10.05 9.63 10.224 10.296 10.224 11.04C10.224 11.784 10.038 12.474 9.666 13.11C9.294 13.734 8.718 14.244 7.938 14.64C7.17 15.024 6.186 15.216 4.986 15.216ZM16.8071 15.216C15.7751 15.216 14.8511 14.964 14.0351 14.46C13.2191 13.944 12.5771 13.2 12.1091 12.228C11.6411 11.256 11.4071 10.08 11.4071 8.7C11.4071 7.32 11.6411 6.144 12.1091 5.172C12.5771 4.2 13.2191 3.462 14.0351 2.958C14.8511 2.442 15.7751 2.184 16.8071 2.184C17.8511 2.184 18.7751 2.442 19.5791 2.958C20.3951 3.462 21.0371 4.2 21.5051 5.172C21.9731 6.144 22.2071 7.32 22.2071 8.7C22.2071 10.08 21.9731 11.256 21.5051 12.228C21.0371 13.2 20.3951 13.944 19.5791 14.46C18.7751 14.964 17.8511 15.216 16.8071 15.216ZM16.8071 12.75C17.2991 12.75 17.7251 12.612 18.0851 12.336C18.4571 12.06 18.7451 11.622 18.9491 11.022C19.1651 10.422 19.2731 9.648 19.2731 8.7C19.2731 7.752 19.1651 6.978 18.9491 6.378C18.7451 5.778 18.4571 5.34 18.0851 5.064C17.7251 4.788 17.2991 4.65 16.8071 4.65C16.3271 4.65 15.9011 4.788 15.5291 5.064C15.1691 5.34 14.8811 5.778 14.6651 6.378C14.4611 6.978 14.3591 7.752 14.3591 8.7C14.3591 9.648 14.4611 10.422 14.6651 11.022C14.8811 11.622 15.1691 12.06 15.5291 12.336C15.9011 12.612 16.3271 12.75 16.8071 12.75ZM29.0239 15.216C27.9919 15.216 27.0679 14.964 26.2519 14.46C25.4359 13.944 24.7939 13.2 24.3259 12.228C23.8579 11.256 23.6239 10.08 23.6239 8.7C23.6239 7.32 23.8579 6.144 24.3259 5.172C24.7939 4.2 25.4359 3.462 26.2519 2.958C27.0679 2.442 27.9919 2.184 29.0239 2.184C30.0679 2.184 30.9919 2.442 31.7959 2.958C32.6119 3.462 33.2539 4.2 33.7219 5.172C34.1899 6.144 34.4239 7.32 34.4239 8.7C34.4239 10.08 34.1899 11.256 33.7219 12.228C33.2539 13.2 32.6119 13.944 31.7959 14.46C30.9919 14.964 30.0679 15.216 29.0239 15.216ZM29.0239 12.75C29.5159 12.75 29.9419 12.612 30.3019 12.336C30.6739 12.06 30.9619 11.622 31.1659 11.022C31.3819 10.422 31.4899 9.648 31.4899 8.7C31.4899 7.752 31.3819 6.978 31.1659 6.378C30.9619 5.778 30.6739 5.34 30.3019 5.064C29.9419 4.788 29.5159 4.65 29.0239 4.65C28.5439 4.65 28.1179 4.788 27.7459 5.064C27.3859 5.34 27.0979 5.778 26.8819 6.378C26.6779 6.978 26.5759 7.752 26.5759 8.7C26.5759 9.648 26.6779 10.422 26.8819 11.022C27.0979 11.622 27.3859 12.06 27.7459 12.336C28.1179 12.612 28.5439 12.75 29.0239 12.75ZM48.8367 5.172C49.6047 5.172 50.2827 5.328 50.8707 5.64C51.4707 5.94 51.9387 6.408 52.2747 7.044C52.6227 7.668 52.7967 8.472 52.7967 9.456V15H49.9887V9.888C49.9887 9.108 49.8267 8.532 49.5027 8.16C49.1787 7.788 48.7227 7.602 48.1347 7.602C47.7267 7.602 47.3607 7.698 47.0367 7.89C46.7127 8.07 46.4607 8.346 46.2807 8.718C46.1007 9.09 46.0107 9.564 46.0107 10.14V15H43.2027V9.888C43.2027 9.108 43.0407 8.532 42.7167 8.16C42.4047 7.788 41.9547 7.602 41.3667 7.602C40.9587 7.602 40.5927 7.698 40.2687 7.89C39.9447 8.07 39.6927 8.346 39.5127 8.718C39.3327 9.09 39.2427 9.564 39.2427 10.14V15H36.4347V5.316H39.1167V7.962L38.6127 7.188C38.9487 6.528 39.4227 6.03 40.0347 5.694C40.6587 5.346 41.3667 5.172 42.1587 5.172C43.0467 5.172 43.8207 5.4 44.4807 5.856C45.1527 6.3 45.5967 6.984 45.8127 7.908L44.8227 7.638C45.1467 6.882 45.6627 6.282 46.3707 5.838C47.0907 5.394 47.9127 5.172 48.8367 5.172ZM55.3136 15V1.644H58.1216V15H55.3136ZM66.0233 15V2.4H71.4773C72.6053 2.4 73.5773 2.586 74.3933 2.958C75.2093 3.318 75.8393 3.84 76.2833 4.524C76.7273 5.208 76.9493 6.024 76.9493 6.972C76.9493 7.908 76.7273 8.718 76.2833 9.402C75.8393 10.074 75.2093 10.59 74.3933 10.95C73.5773 11.31 72.6053 11.49 71.4773 11.49H67.6433L68.9393 10.212V15H66.0233ZM74.0333 15L70.8833 10.428H73.9973L77.1833 15H74.0333ZM68.9393 10.536L67.6433 9.168H71.3153C72.2153 9.168 72.8873 8.976 73.3313 8.592C73.7753 8.196 73.9973 7.656 73.9973 6.972C73.9973 6.276 73.7753 5.736 73.3313 5.352C72.8873 4.968 72.2153 4.776 71.3153 4.776H67.6433L68.9393 3.39V10.536ZM83.6696 15.144C82.6376 15.144 81.7196 14.928 80.9156 14.496C80.1236 14.064 79.4936 13.476 79.0256 12.732C78.5696 11.976 78.3416 11.118 78.3416 10.158C78.3416 9.186 78.5696 8.328 79.0256 7.584C79.4936 6.828 80.1236 6.24 80.9156 5.82C81.7196 5.388 82.6376 5.172 83.6696 5.172C84.6896 5.172 85.6016 5.388 86.4056 5.82C87.2096 6.24 87.8396 6.822 88.2956 7.566C88.7516 8.31 88.9796 9.174 88.9796 10.158C88.9796 11.118 88.7516 11.976 88.2956 12.732C87.8396 13.476 87.2096 14.064 86.4056 14.496C85.6016 14.928 84.6896 15.144 83.6696 15.144ZM83.6696 12.84C84.1376 12.84 84.5576 12.732 84.9296 12.516C85.3016 12.3 85.5956 11.994 85.8116 11.598C86.0276 11.19 86.1356 10.71 86.1356 10.158C86.1356 9.594 86.0276 9.114 85.8116 8.718C85.5956 8.322 85.3016 8.016 84.9296 7.8C84.5576 7.584 84.1376 7.476 83.6696 7.476C83.2016 7.476 82.7816 7.584 82.4096 7.8C82.0376 8.016 81.7376 8.322 81.5096 8.718C81.2936 9.114 81.1856 9.594 81.1856 10.158C81.1856 10.71 81.2936 11.19 81.5096 11.598C81.7376 11.994 82.0376 12.3 82.4096 12.516C82.7816 12.732 83.2016 12.84 83.6696 12.84ZM94.9425 15.144C94.1385 15.144 93.4185 14.988 92.7825 14.676C92.1585 14.364 91.6725 13.89 91.3245 13.254C90.9765 12.606 90.8025 11.784 90.8025 10.788V5.316H93.6105V10.374C93.6105 11.178 93.7785 11.772 94.1145 12.156C94.4625 12.528 94.9485 12.714 95.5725 12.714C96.0045 12.714 96.3885 12.624 96.7245 12.444C97.0605 12.252 97.3245 11.964 97.5165 11.58C97.7085 11.184 97.8045 10.692 97.8045 10.104V5.316H100.613V15H97.9485V12.336L98.4345 13.11C98.1105 13.782 97.6305 14.292 96.9945 14.64C96.3705 14.976 95.6865 15.144 94.9425 15.144ZM109.1 5.172C109.868 5.172 110.552 5.328 111.152 5.64C111.764 5.94 112.244 6.408 112.592 7.044C112.94 7.668 113.114 8.472 113.114 9.456V15H110.306V9.888C110.306 9.108 110.132 8.532 109.784 8.16C109.448 7.788 108.968 7.602 108.344 7.602C107.9 7.602 107.498 7.698 107.138 7.89C106.79 8.07 106.514 8.352 106.31 8.736C106.118 9.12 106.022 9.612 106.022 10.212V15H103.214V5.316H105.896V7.998L105.392 7.188C105.74 6.54 106.238 6.042 106.886 5.694C107.534 5.346 108.272 5.172 109.1 5.172ZM119.888 15.144C118.976 15.144 118.154 14.94 117.422 14.532C116.69 14.112 116.108 13.53 115.676 12.786C115.256 12.042 115.046 11.166 115.046 10.158C115.046 9.138 115.256 8.256 115.676 7.512C116.108 6.768 116.69 6.192 117.422 5.784C118.154 5.376 118.976 5.172 119.888 5.172C120.704 5.172 121.418 5.352 122.03 5.712C122.642 6.072 123.116 6.618 123.452 7.35C123.788 8.082 123.956 9.018 123.956 10.158C123.956 11.286 123.794 12.222 123.47 12.966C123.146 13.698 122.678 14.244 122.066 14.604C121.466 14.964 120.74 15.144 119.888 15.144ZM120.374 12.84C120.83 12.84 121.244 12.732 121.616 12.516C121.988 12.3 122.282 11.994 122.498 11.598C122.726 11.19 122.84 10.71 122.84 10.158C122.84 9.594 122.726 9.114 122.498 8.718C122.282 8.322 121.988 8.016 121.616 7.8C121.244 7.584 120.83 7.476 120.374 7.476C119.906 7.476 119.486 7.584 119.114 7.8C118.742 8.016 118.442 8.322 118.214 8.718C117.998 9.114 117.89 9.594 117.89 10.158C117.89 10.71 117.998 11.19 118.214 11.598C118.442 11.994 118.742 12.3 119.114 12.516C119.486 12.732 119.906 12.84 120.374 12.84ZM122.912 15V13.02L122.966 10.14L122.786 7.278V1.644H125.594V15H122.912ZM139.518 15.216C138.546 15.216 137.64 15.06 136.8 14.748C135.972 14.424 135.252 13.968 134.64 13.38C134.028 12.792 133.548 12.102 133.2 11.31C132.864 10.518 132.696 9.648 132.696 8.7C132.696 7.752 132.864 6.882 133.2 6.09C133.548 5.298 134.028 4.608 134.64 4.02C135.264 3.432 135.99 2.982 136.818 2.67C137.646 2.346 138.552 2.184 139.536 2.184C140.628 2.184 141.612 2.376 142.488 2.76C143.376 3.132 144.12 3.684 144.72 4.416L142.848 6.144C142.416 5.652 141.936 5.286 141.408 5.046C140.88 4.794 140.304 4.668 139.68 4.668C139.092 4.668 138.552 4.764 138.06 4.956C137.568 5.148 137.142 5.424 136.782 5.784C136.422 6.144 136.14 6.57 135.936 7.062C135.744 7.554 135.648 8.1 135.648 8.7C135.648 9.3 135.744 9.846 135.936 10.338C136.14 10.83 136.422 11.256 136.782 11.616C137.142 11.976 137.568 12.252 138.06 12.444C138.552 12.636 139.092 12.732 139.68 12.732C140.304 12.732 140.88 12.612 141.408 12.372C141.936 12.12 142.416 11.742 142.848 11.238L144.72 12.966C144.12 13.698 143.376 14.256 142.488 14.64C141.612 15.024 140.622 15.216 139.518 15.216ZM150.765 15.144C149.733 15.144 148.815 14.928 148.011 14.496C147.219 14.064 146.589 13.476 146.121 12.732C145.665 11.976 145.437 11.118 145.437 10.158C145.437 9.186 145.665 8.328 146.121 7.584C146.589 6.828 147.219 6.24 148.011 5.82C148.815 5.388 149.733 5.172 150.765 5.172C151.785 5.172 152.697 5.388 153.501 5.82C154.305 6.24 154.935 6.822 155.391 7.566C155.847 8.31 156.075 9.174 156.075 10.158C156.075 11.118 155.847 11.976 155.391 12.732C154.935 13.476 154.305 14.064 153.501 14.496C152.697 14.928 151.785 15.144 150.765 15.144ZM150.765 12.84C151.233 12.84 151.653 12.732 152.025 12.516C152.397 12.3 152.691 11.994 152.907 11.598C153.123 11.19 153.231 10.71 153.231 10.158C153.231 9.594 153.123 9.114 152.907 8.718C152.691 8.322 152.397 8.016 152.025 7.8C151.653 7.584 151.233 7.476 150.765 7.476C150.297 7.476 149.877 7.584 149.505 7.8C149.133 8.016 148.833 8.322 148.605 8.718C148.389 9.114 148.281 9.594 148.281 10.158C148.281 10.71 148.389 11.19 148.605 11.598C148.833 11.994 149.133 12.3 149.505 12.516C149.877 12.732 150.297 12.84 150.765 12.84ZM163.838 5.172C164.606 5.172 165.29 5.328 165.89 5.64C166.502 5.94 166.982 6.408 167.33 7.044C167.678 7.668 167.852 8.472 167.852 9.456V15H165.044V9.888C165.044 9.108 164.87 8.532 164.522 8.16C164.186 7.788 163.706 7.602 163.082 7.602C162.638 7.602 162.236 7.698 161.876 7.89C161.528 8.07 161.252 8.352 161.048 8.736C160.856 9.12 160.76 9.612 160.76 10.212V15H157.952V5.316H160.634V7.998L160.13 7.188C160.478 6.54 160.976 6.042 161.624 5.694C162.272 5.346 163.01 5.172 163.838 5.172ZM174.358 15.144C173.218 15.144 172.33 14.856 171.694 14.28C171.058 13.692 170.74 12.822 170.74 11.67V3.174H173.548V11.634C173.548 12.042 173.656 12.36 173.872 12.588C174.088 12.804 174.382 12.912 174.754 12.912C175.198 12.912 175.576 12.792 175.888 12.552L176.644 14.532C176.356 14.736 176.008 14.892 175.6 15C175.204 15.096 174.79 15.144 174.358 15.144ZM169.246 7.692V5.532H175.96V7.692H169.246ZM184.16 15V13.11L183.98 12.696V9.312C183.98 8.712 183.794 8.244 183.422 7.908C183.062 7.572 182.504 7.404 181.748 7.404C181.232 7.404 180.722 7.488 180.218 7.656C179.726 7.812 179.306 8.028 178.958 8.304L177.95 6.342C178.478 5.97 179.114 5.682 179.858 5.478C180.602 5.274 181.358 5.172 182.126 5.172C183.602 5.172 184.748 5.52 185.564 6.216C186.38 6.912 186.788 7.998 186.788 9.474V15H184.16ZM181.208 15.144C180.452 15.144 179.804 15.018 179.264 14.766C178.724 14.502 178.31 14.148 178.022 13.704C177.734 13.26 177.59 12.762 177.59 12.21C177.59 11.634 177.728 11.13 178.004 10.698C178.292 10.266 178.742 9.93 179.354 9.69C179.966 9.438 180.764 9.312 181.748 9.312H184.322V10.95H182.054C181.394 10.95 180.938 11.058 180.686 11.274C180.446 11.49 180.326 11.76 180.326 12.084C180.326 12.444 180.464 12.732 180.74 12.948C181.028 13.152 181.418 13.254 181.91 13.254C182.378 13.254 182.798 13.146 183.17 12.93C183.542 12.702 183.812 12.372 183.98 11.94L184.412 13.236C184.208 13.86 183.836 14.334 183.296 14.658C182.756 14.982 182.06 15.144 181.208 15.144ZM189.329 15V5.316H192.137V15H189.329ZM190.733 3.966C190.217 3.966 189.797 3.816 189.473 3.516C189.149 3.216 188.987 2.844 188.987 2.4C188.987 1.956 189.149 1.584 189.473 1.284C189.797 0.983999 190.217 0.833999 190.733 0.833999C191.249 0.833999 191.669 0.977999 191.993 1.266C192.317 1.542 192.479 1.902 192.479 2.346C192.479 2.814 192.317 3.204 191.993 3.516C191.681 3.816 191.261 3.966 190.733 3.966ZM200.629 5.172C201.397 5.172 202.081 5.328 202.681 5.64C203.293 5.94 203.773 6.408 204.121 7.044C204.469 7.668 204.643 8.472 204.643 9.456V15H201.835V9.888C201.835 9.108 201.661 8.532 201.313 8.16C200.977 7.788 200.497 7.602 199.873 7.602C199.429 7.602 199.027 7.698 198.667 7.89C198.319 8.07 198.043 8.352 197.839 8.736C197.647 9.12 197.551 9.612 197.551 10.212V15H194.743V5.316H197.425V7.998L196.921 7.188C197.269 6.54 197.767 6.042 198.415 5.694C199.063 5.346 199.801 5.172 200.629 5.172ZM212.065 15.144C210.961 15.144 209.989 14.928 209.149 14.496C208.321 14.064 207.679 13.476 207.223 12.732C206.767 11.976 206.539 11.118 206.539 10.158C206.539 9.186 206.761 8.328 207.205 7.584C207.661 6.828 208.279 6.24 209.059 5.82C209.839 5.388 210.721 5.172 211.705 5.172C212.653 5.172 213.505 5.376 214.261 5.784C215.029 6.18 215.635 6.756 216.079 7.512C216.523 8.256 216.745 9.15 216.745 10.194C216.745 10.302 216.739 10.428 216.727 10.572C216.715 10.704 216.703 10.83 216.691 10.95H208.825V9.312H215.215L214.135 9.798C214.135 9.294 214.033 8.856 213.829 8.484C213.625 8.112 213.343 7.824 212.983 7.62C212.623 7.404 212.203 7.296 211.723 7.296C211.243 7.296 210.817 7.404 210.445 7.62C210.085 7.824 209.803 8.118 209.599 8.502C209.395 8.874 209.293 9.318 209.293 9.834V10.266C209.293 10.794 209.407 11.262 209.635 11.67C209.875 12.066 210.205 12.372 210.625 12.588C211.057 12.792 211.561 12.894 212.137 12.894C212.653 12.894 213.103 12.816 213.487 12.66C213.883 12.504 214.243 12.27 214.567 11.958L216.061 13.578C215.617 14.082 215.059 14.472 214.387 14.748C213.715 15.012 212.941 15.144 212.065 15.144ZM218.614 15V5.316H221.296V8.052L220.918 7.26C221.206 6.576 221.668 6.06 222.304 5.712C222.94 5.352 223.714 5.172 224.626 5.172V7.764C224.506 7.752 224.398 7.746 224.302 7.746C224.206 7.734 224.104 7.728 223.996 7.728C223.228 7.728 222.604 7.95 222.124 8.394C221.656 8.826 221.422 9.504 221.422 10.428V15H218.614Z" fill="#CE3439"/>
</svg>
