<svg width="224" height="16" viewBox="0 0 224 16" fill="none" xmlns="http://www.w3.org/2000/svg">
<path d="M3.0012 15L8.0772 3.516L8.8332 4.776H2.0472L3.3432 3.408V6.828H0.751203V2.4H10.8492V4.29L6.1692 15H3.0012ZM16.1325 15.216C15.2565 15.216 14.3865 15.102 13.5225 14.874C12.6705 14.634 11.9385 14.298 11.3265 13.866L12.4785 11.634C12.9585 11.982 13.5105 12.258 14.1345 12.462C14.7705 12.666 15.4125 12.768 16.0605 12.768C16.7925 12.768 17.3685 12.624 17.7885 12.336C18.2085 12.048 18.4185 11.646 18.4185 11.13C18.4185 10.806 18.3345 10.518 18.1665 10.266C17.9985 10.014 17.6985 9.822 17.2665 9.69C16.8465 9.558 16.2525 9.492 15.4845 9.492H12.2625L12.9105 2.4H20.5965V4.74H13.9545L15.4665 3.408L15.0165 8.466L13.5045 7.134H16.1685C17.4165 7.134 18.4185 7.308 19.1745 7.656C19.9425 7.992 20.5005 8.454 20.8485 9.042C21.1965 9.63 21.3705 10.296 21.3705 11.04C21.3705 11.784 21.1845 12.474 20.8125 13.11C20.4405 13.734 19.8645 14.244 19.0845 14.64C18.3165 15.024 17.3325 15.216 16.1325 15.216ZM27.9536 15.216C26.9216 15.216 25.9976 14.964 25.1816 14.46C24.3656 13.944 23.7236 13.2 23.2556 12.228C22.7876 11.256 22.5536 10.08 22.5536 8.7C22.5536 7.32 22.7876 6.144 23.2556 5.172C23.7236 4.2 24.3656 3.462 25.1816 2.958C25.9976 2.442 26.9216 2.184 27.9536 2.184C28.9976 2.184 29.9216 2.442 30.7256 2.958C31.5416 3.462 32.1836 4.2 32.6516 5.172C33.1196 6.144 33.3536 7.32 33.3536 8.7C33.3536 10.08 33.1196 11.256 32.6516 12.228C32.1836 13.2 31.5416 13.944 30.7256 14.46C29.9216 14.964 28.9976 15.216 27.9536 15.216ZM27.9536 12.75C28.4456 12.75 28.8716 12.612 29.2316 12.336C29.6036 12.06 29.8916 11.622 30.0956 11.022C30.3116 10.422 30.4196 9.648 30.4196 8.7C30.4196 7.752 30.3116 6.978 30.0956 6.378C29.8916 5.778 29.6036 5.34 29.2316 5.064C28.8716 4.788 28.4456 4.65 27.9536 4.65C27.4736 4.65 27.0476 4.788 26.6756 5.064C26.3156 5.34 26.0276 5.778 25.8116 6.378C25.6076 6.978 25.5056 7.752 25.5056 8.7C25.5056 9.648 25.6076 10.422 25.8116 11.022C26.0276 11.622 26.3156 12.06 26.6756 12.336C27.0476 12.612 27.4736 12.75 27.9536 12.75ZM47.7664 5.172C48.5344 5.172 49.2124 5.328 49.8004 5.64C50.4004 5.94 50.8684 6.408 51.2044 7.044C51.5524 7.668 51.7264 8.472 51.7264 9.456V15H48.9184V9.888C48.9184 9.108 48.7564 8.532 48.4324 8.16C48.1084 7.788 47.6524 7.602 47.0644 7.602C46.6564 7.602 46.2904 7.698 45.9664 7.89C45.6424 8.07 45.3904 8.346 45.2104 8.718C45.0304 9.09 44.9404 9.564 44.9404 10.14V15H42.1324V9.888C42.1324 9.108 41.9704 8.532 41.6464 8.16C41.3344 7.788 40.8844 7.602 40.2964 7.602C39.8884 7.602 39.5224 7.698 39.1984 7.89C38.8744 8.07 38.6224 8.346 38.4424 8.718C38.2624 9.09 38.1724 9.564 38.1724 10.14V15H35.3644V5.316H38.0464V7.962L37.5424 7.188C37.8784 6.528 38.3524 6.03 38.9644 5.694C39.5884 5.346 40.2964 5.172 41.0884 5.172C41.9764 5.172 42.7504 5.4 43.4104 5.856C44.0824 6.3 44.5264 6.984 44.7424 7.908L43.7524 7.638C44.0764 6.882 44.5924 6.282 45.3004 5.838C46.0204 5.394 46.8424 5.172 47.7664 5.172ZM54.2433 15V1.644H57.0513V15H54.2433ZM64.953 15V2.4H70.407C71.535 2.4 72.507 2.586 73.323 2.958C74.139 3.318 74.769 3.84 75.213 4.524C75.657 5.208 75.879 6.024 75.879 6.972C75.879 7.908 75.657 8.718 75.213 9.402C74.769 10.074 74.139 10.59 73.323 10.95C72.507 11.31 71.535 11.49 70.407 11.49H66.573L67.869 10.212V15H64.953ZM72.963 15L69.813 10.428H72.927L76.113 15H72.963ZM67.869 10.536L66.573 9.168H70.245C71.145 9.168 71.817 8.976 72.261 8.592C72.705 8.196 72.927 7.656 72.927 6.972C72.927 6.276 72.705 5.736 72.261 5.352C71.817 4.968 71.145 4.776 70.245 4.776H66.573L67.869 3.39V10.536ZM82.5993 15.144C81.5673 15.144 80.6493 14.928 79.8453 14.496C79.0533 14.064 78.4233 13.476 77.9553 12.732C77.4993 11.976 77.2713 11.118 77.2713 10.158C77.2713 9.186 77.4993 8.328 77.9553 7.584C78.4233 6.828 79.0533 6.24 79.8453 5.82C80.6493 5.388 81.5673 5.172 82.5993 5.172C83.6193 5.172 84.5313 5.388 85.3353 5.82C86.1393 6.24 86.7693 6.822 87.2253 7.566C87.6813 8.31 87.9093 9.174 87.9093 10.158C87.9093 11.118 87.6813 11.976 87.2253 12.732C86.7693 13.476 86.1393 14.064 85.3353 14.496C84.5313 14.928 83.6193 15.144 82.5993 15.144ZM82.5993 12.84C83.0673 12.84 83.4873 12.732 83.8593 12.516C84.2313 12.3 84.5253 11.994 84.7413 11.598C84.9573 11.19 85.0653 10.71 85.0653 10.158C85.0653 9.594 84.9573 9.114 84.7413 8.718C84.5253 8.322 84.2313 8.016 83.8593 7.8C83.4873 7.584 83.0673 7.476 82.5993 7.476C82.1313 7.476 81.7113 7.584 81.3393 7.8C80.9673 8.016 80.6673 8.322 80.4393 8.718C80.2233 9.114 80.1153 9.594 80.1153 10.158C80.1153 10.71 80.2233 11.19 80.4393 11.598C80.6673 11.994 80.9673 12.3 81.3393 12.516C81.7113 12.732 82.1313 12.84 82.5993 12.84ZM93.8722 15.144C93.0682 15.144 92.3482 14.988 91.7122 14.676C91.0882 14.364 90.6022 13.89 90.2542 13.254C89.9062 12.606 89.7322 11.784 89.7322 10.788V5.316H92.5402V10.374C92.5402 11.178 92.7082 11.772 93.0442 12.156C93.3922 12.528 93.8782 12.714 94.5022 12.714C94.9342 12.714 95.3182 12.624 95.6542 12.444C95.9902 12.252 96.2542 11.964 96.4462 11.58C96.6382 11.184 96.7342 10.692 96.7342 10.104V5.316H99.5422V15H96.8782V12.336L97.3642 13.11C97.0402 13.782 96.5602 14.292 95.9242 14.64C95.3002 14.976 94.6162 15.144 93.8722 15.144ZM108.03 5.172C108.798 5.172 109.482 5.328 110.082 5.64C110.694 5.94 111.174 6.408 111.522 7.044C111.87 7.668 112.044 8.472 112.044 9.456V15H109.236V9.888C109.236 9.108 109.062 8.532 108.714 8.16C108.378 7.788 107.898 7.602 107.274 7.602C106.83 7.602 106.428 7.698 106.068 7.89C105.72 8.07 105.444 8.352 105.24 8.736C105.048 9.12 104.952 9.612 104.952 10.212V15H102.144V5.316H104.826V7.998L104.322 7.188C104.67 6.54 105.168 6.042 105.816 5.694C106.464 5.346 107.202 5.172 108.03 5.172ZM118.817 15.144C117.905 15.144 117.083 14.94 116.351 14.532C115.619 14.112 115.037 13.53 114.605 12.786C114.185 12.042 113.975 11.166 113.975 10.158C113.975 9.138 114.185 8.256 114.605 7.512C115.037 6.768 115.619 6.192 116.351 5.784C117.083 5.376 117.905 5.172 118.817 5.172C119.633 5.172 120.347 5.352 120.959 5.712C121.571 6.072 122.045 6.618 122.381 7.35C122.717 8.082 122.885 9.018 122.885 10.158C122.885 11.286 122.723 12.222 122.399 12.966C122.075 13.698 121.607 14.244 120.995 14.604C120.395 14.964 119.669 15.144 118.817 15.144ZM119.303 12.84C119.759 12.84 120.173 12.732 120.545 12.516C120.917 12.3 121.211 11.994 121.427 11.598C121.655 11.19 121.769 10.71 121.769 10.158C121.769 9.594 121.655 9.114 121.427 8.718C121.211 8.322 120.917 8.016 120.545 7.8C120.173 7.584 119.759 7.476 119.303 7.476C118.835 7.476 118.415 7.584 118.043 7.8C117.671 8.016 117.371 8.322 117.143 8.718C116.927 9.114 116.819 9.594 116.819 10.158C116.819 10.71 116.927 11.19 117.143 11.598C117.371 11.994 117.671 12.3 118.043 12.516C118.415 12.732 118.835 12.84 119.303 12.84ZM121.841 15V13.02L121.895 10.14L121.715 7.278V1.644H124.523V15H121.841ZM138.448 15.216C137.476 15.216 136.57 15.06 135.73 14.748C134.902 14.424 134.182 13.968 133.57 13.38C132.958 12.792 132.478 12.102 132.13 11.31C131.794 10.518 131.626 9.648 131.626 8.7C131.626 7.752 131.794 6.882 132.13 6.09C132.478 5.298 132.958 4.608 133.57 4.02C134.194 3.432 134.92 2.982 135.748 2.67C136.576 2.346 137.482 2.184 138.466 2.184C139.558 2.184 140.542 2.376 141.418 2.76C142.306 3.132 143.05 3.684 143.65 4.416L141.778 6.144C141.346 5.652 140.866 5.286 140.338 5.046C139.81 4.794 139.234 4.668 138.61 4.668C138.022 4.668 137.482 4.764 136.99 4.956C136.498 5.148 136.072 5.424 135.712 5.784C135.352 6.144 135.07 6.57 134.866 7.062C134.674 7.554 134.578 8.1 134.578 8.7C134.578 9.3 134.674 9.846 134.866 10.338C135.07 10.83 135.352 11.256 135.712 11.616C136.072 11.976 136.498 12.252 136.99 12.444C137.482 12.636 138.022 12.732 138.61 12.732C139.234 12.732 139.81 12.612 140.338 12.372C140.866 12.12 141.346 11.742 141.778 11.238L143.65 12.966C143.05 13.698 142.306 14.256 141.418 14.64C140.542 15.024 139.552 15.216 138.448 15.216ZM149.695 15.144C148.663 15.144 147.745 14.928 146.941 14.496C146.149 14.064 145.519 13.476 145.051 12.732C144.595 11.976 144.367 11.118 144.367 10.158C144.367 9.186 144.595 8.328 145.051 7.584C145.519 6.828 146.149 6.24 146.941 5.82C147.745 5.388 148.663 5.172 149.695 5.172C150.715 5.172 151.627 5.388 152.431 5.82C153.235 6.24 153.865 6.822 154.321 7.566C154.777 8.31 155.005 9.174 155.005 10.158C155.005 11.118 154.777 11.976 154.321 12.732C153.865 13.476 153.235 14.064 152.431 14.496C151.627 14.928 150.715 15.144 149.695 15.144ZM149.695 12.84C150.163 12.84 150.583 12.732 150.955 12.516C151.327 12.3 151.621 11.994 151.837 11.598C152.053 11.19 152.161 10.71 152.161 10.158C152.161 9.594 152.053 9.114 151.837 8.718C151.621 8.322 151.327 8.016 150.955 7.8C150.583 7.584 150.163 7.476 149.695 7.476C149.227 7.476 148.807 7.584 148.435 7.8C148.063 8.016 147.763 8.322 147.535 8.718C147.319 9.114 147.211 9.594 147.211 10.158C147.211 10.71 147.319 11.19 147.535 11.598C147.763 11.994 148.063 12.3 148.435 12.516C148.807 12.732 149.227 12.84 149.695 12.84ZM162.768 5.172C163.536 5.172 164.22 5.328 164.82 5.64C165.432 5.94 165.912 6.408 166.26 7.044C166.608 7.668 166.782 8.472 166.782 9.456V15H163.974V9.888C163.974 9.108 163.8 8.532 163.452 8.16C163.116 7.788 162.636 7.602 162.012 7.602C161.568 7.602 161.166 7.698 160.806 7.89C160.458 8.07 160.182 8.352 159.978 8.736C159.786 9.12 159.69 9.612 159.69 10.212V15H156.882V5.316H159.564V7.998L159.06 7.188C159.408 6.54 159.906 6.042 160.554 5.694C161.202 5.346 161.94 5.172 162.768 5.172ZM173.287 15.144C172.147 15.144 171.259 14.856 170.623 14.28C169.987 13.692 169.669 12.822 169.669 11.67V3.174H172.477V11.634C172.477 12.042 172.585 12.36 172.801 12.588C173.017 12.804 173.311 12.912 173.683 12.912C174.127 12.912 174.505 12.792 174.817 12.552L175.573 14.532C175.285 14.736 174.937 14.892 174.529 15C174.133 15.096 173.719 15.144 173.287 15.144ZM168.175 7.692V5.532H174.889V7.692H168.175ZM183.09 15V13.11L182.91 12.696V9.312C182.91 8.712 182.724 8.244 182.352 7.908C181.992 7.572 181.434 7.404 180.678 7.404C180.162 7.404 179.652 7.488 179.148 7.656C178.656 7.812 178.236 8.028 177.888 8.304L176.88 6.342C177.408 5.97 178.044 5.682 178.788 5.478C179.532 5.274 180.288 5.172 181.056 5.172C182.532 5.172 183.678 5.52 184.494 6.216C185.31 6.912 185.718 7.998 185.718 9.474V15H183.09ZM180.138 15.144C179.382 15.144 178.734 15.018 178.194 14.766C177.654 14.502 177.24 14.148 176.952 13.704C176.664 13.26 176.52 12.762 176.52 12.21C176.52 11.634 176.658 11.13 176.934 10.698C177.222 10.266 177.672 9.93 178.284 9.69C178.896 9.438 179.694 9.312 180.678 9.312H183.252V10.95H180.984C180.324 10.95 179.868 11.058 179.616 11.274C179.376 11.49 179.256 11.76 179.256 12.084C179.256 12.444 179.394 12.732 179.67 12.948C179.958 13.152 180.348 13.254 180.84 13.254C181.308 13.254 181.728 13.146 182.1 12.93C182.472 12.702 182.742 12.372 182.91 11.94L183.342 13.236C183.138 13.86 182.766 14.334 182.226 14.658C181.686 14.982 180.99 15.144 180.138 15.144ZM188.259 15V5.316H191.067V15H188.259ZM189.663 3.966C189.147 3.966 188.727 3.816 188.403 3.516C188.079 3.216 187.917 2.844 187.917 2.4C187.917 1.956 188.079 1.584 188.403 1.284C188.727 0.983999 189.147 0.833999 189.663 0.833999C190.179 0.833999 190.599 0.977999 190.923 1.266C191.247 1.542 191.409 1.902 191.409 2.346C191.409 2.814 191.247 3.204 190.923 3.516C190.611 3.816 190.191 3.966 189.663 3.966ZM199.559 5.172C200.327 5.172 201.011 5.328 201.611 5.64C202.223 5.94 202.703 6.408 203.051 7.044C203.399 7.668 203.573 8.472 203.573 9.456V15H200.765V9.888C200.765 9.108 200.591 8.532 200.243 8.16C199.907 7.788 199.427 7.602 198.803 7.602C198.359 7.602 197.957 7.698 197.597 7.89C197.249 8.07 196.973 8.352 196.769 8.736C196.577 9.12 196.481 9.612 196.481 10.212V15H193.673V5.316H196.355V7.998L195.851 7.188C196.199 6.54 196.697 6.042 197.345 5.694C197.993 5.346 198.731 5.172 199.559 5.172ZM210.995 15.144C209.891 15.144 208.919 14.928 208.079 14.496C207.251 14.064 206.609 13.476 206.153 12.732C205.697 11.976 205.469 11.118 205.469 10.158C205.469 9.186 205.691 8.328 206.135 7.584C206.591 6.828 207.209 6.24 207.989 5.82C208.769 5.388 209.651 5.172 210.635 5.172C211.583 5.172 212.435 5.376 213.191 5.784C213.959 6.18 214.565 6.756 215.009 7.512C215.453 8.256 215.675 9.15 215.675 10.194C215.675 10.302 215.669 10.428 215.657 10.572C215.645 10.704 215.633 10.83 215.621 10.95H207.755V9.312H214.145L213.065 9.798C213.065 9.294 212.963 8.856 212.759 8.484C212.555 8.112 212.273 7.824 211.913 7.62C211.553 7.404 211.133 7.296 210.653 7.296C210.173 7.296 209.747 7.404 209.375 7.62C209.015 7.824 208.733 8.118 208.529 8.502C208.325 8.874 208.223 9.318 208.223 9.834V10.266C208.223 10.794 208.337 11.262 208.565 11.67C208.805 12.066 209.135 12.372 209.555 12.588C209.987 12.792 210.491 12.894 211.067 12.894C211.583 12.894 212.033 12.816 212.417 12.66C212.813 12.504 213.173 12.27 213.497 11.958L214.991 13.578C214.547 14.082 213.989 14.472 213.317 14.748C212.645 15.012 211.871 15.144 210.995 15.144ZM217.544 15V5.316H220.226V8.052L219.848 7.26C220.136 6.576 220.598 6.06 221.234 5.712C221.87 5.352 222.644 5.172 223.556 5.172V7.764C223.436 7.752 223.328 7.746 223.232 7.746C223.136 7.734 223.034 7.728 222.926 7.728C222.158 7.728 221.534 7.95 221.054 8.394C220.586 8.826 220.352 9.504 220.352 10.428V15H217.544Z" fill="#CE3439"/>
</svg>
