<svg width="91" height="80" viewBox="0 0 91 80" fill="none" xmlns="http://www.w3.org/2000/svg">
<g filter="url(#filter0_d_236_880)">
<rect x="4" y="24" width="82.4242" height="47.2727" rx="2" fill="white"/>
<rect x="4.25" y="24.25" width="81.9242" height="46.7727" rx="1.75" stroke="white" stroke-width="0.5"/>
</g>
<rect x="29.4541" width="30.303" height="30.303" rx="3" fill="#CB3335"/>
<g clip-path="url(#clip0_236_880)">
<path fill-rule="evenodd" clip-rule="evenodd" d="M35.8875 10.6986C35.9439 10.7195 36.0098 10.7662 36.0343 10.8027C36.0708 10.8567 36.0788 11.3283 36.0784 15.8571L35.9972 15.94C35.9405 15.9976 35.8799 16.0228 35.7984 16.0228C35.7172 16.0228 35.6552 15.9973 35.515 15.8571V13.3713C35.515 11.7804 35.5269 10.8617 35.5481 10.8192C35.5664 10.7828 35.6273 10.7324 35.6834 10.7069C35.7632 10.6711 35.8076 10.6694 35.8875 10.6986ZM52.2938 10.6986C52.3501 10.7195 52.4161 10.7662 52.4406 10.8027C52.4771 10.8567 52.485 11.3283 52.4847 15.8571L52.4035 15.94C52.3468 15.9976 52.2861 16.0228 52.2046 16.0228C52.1234 16.0228 52.0614 15.9973 51.9212 15.8571V13.3713C51.9212 11.7804 51.9332 10.8617 51.9544 10.8192C51.9726 10.7828 52.0336 10.7324 52.0896 10.7069C52.1695 10.6711 52.2139 10.6694 52.2938 10.6986ZM52.3246 16.9011L52.4847 17.0834V18.8566C52.4847 19.9726 52.4724 20.6544 52.4515 20.6961C52.4333 20.7326 52.3664 20.7849 52.3024 20.8121C52.2003 20.8559 51.203 20.8618 43.9998 20.8618C36.7967 20.8618 35.7994 20.8559 35.6973 20.8121C35.6333 20.7849 35.5664 20.7326 35.5481 20.6961C35.5272 20.6544 35.515 19.9746 35.5146 18.8649C35.5146 17.2962 35.5203 17.0914 35.5677 17.0231C35.5972 16.9807 35.6532 16.9333 35.6923 16.9174C35.7321 16.9011 39.4236 16.8912 52.3246 16.9011ZM36.095 20.2818H51.9047L51.91 17.448H51.0595C51.0578 18.0005 51.0423 18.1483 51.0171 18.1831C50.9949 18.214 50.9319 18.2561 50.8772 18.2769C50.797 18.3078 50.7569 18.3048 50.67 18.2627C50.5994 18.2282 50.5507 18.1732 50.5285 18.1026C50.51 18.0433 50.495 17.8719 50.4954 17.7215L50.496 17.448H49.3691C49.3691 18.6621 49.3675 18.676 49.2893 18.7655C49.2293 18.8338 49.1789 18.8566 49.0874 18.8566C48.9959 18.8566 48.9456 18.8338 48.8856 18.7655C48.8074 18.676 48.8057 18.6621 48.8057 18.0612V17.448H47.6788C47.6632 18.1039 47.6539 18.1507 47.5883 18.216C47.5403 18.264 47.4726 18.2905 47.3951 18.2915C47.3046 18.2929 47.2556 18.2706 47.1952 18.202C47.1223 18.1188 47.1154 18.0824 47.1154 17.7795V17.448H45.9885C45.9885 18.4387 45.9765 18.6031 45.9387 18.6909C45.9089 18.7608 45.8529 18.8208 45.7979 18.842C45.7478 18.8613 45.6733 18.8686 45.6322 18.8586C45.5911 18.8483 45.5274 18.8066 45.4906 18.7655C45.4283 18.6962 45.4237 18.6468 45.4244 18.0695L45.425 17.448H44.2981C44.2978 17.8461 44.2829 18.0178 44.2646 18.086C44.2401 18.1792 44.2027 18.2249 44.1158 18.2683C44.0055 18.3237 43.9942 18.3237 43.8838 18.2683C43.797 18.2249 43.7595 18.1792 43.735 18.086C43.7168 18.0178 43.7019 17.8461 43.7019 17.7049L43.7015 17.448H42.5746C42.573 18.5056 42.5604 18.7065 42.5322 18.7436C42.51 18.7724 42.4583 18.8135 42.4172 18.8348C42.3761 18.856 42.2979 18.8659 42.2432 18.8566C42.1769 18.8456 42.1217 18.8042 42.0775 18.7323C42.0182 18.6352 42.0115 18.566 42.0112 18.0363V17.448H40.8843C40.8843 18.0824 40.8773 18.1188 40.8044 18.202C40.7451 18.2693 40.6934 18.2932 40.6062 18.2932C40.5278 18.2932 40.4634 18.268 40.413 18.2176C40.3454 18.1503 40.3364 18.1063 40.3291 17.795L40.3208 17.448H39.194C39.1777 18.6773 39.1741 18.7091 39.1035 18.7794C39.0554 18.8275 38.9878 18.854 38.9102 18.855C38.8198 18.8563 38.7707 18.8341 38.7104 18.7655C38.6322 18.676 38.6305 18.6621 38.6305 18.0612V17.448H37.5036C37.5046 17.8719 37.4897 18.0433 37.4711 18.1026C37.4489 18.1732 37.4002 18.2282 37.3296 18.2627C37.2428 18.3048 37.2027 18.3078 37.1225 18.2769C37.0678 18.2561 37.0048 18.214 36.9826 18.1831C36.9574 18.1483 36.9418 18.0005 36.9412 17.7877L36.9402 17.448H36.0778L36.095 20.2818ZM38.2202 11.5152C38.2636 11.5152 38.3402 11.5514 38.4814 11.675L38.4979 13.2056H49.5017L49.5183 11.675L49.6094 11.5951C49.6595 11.5514 49.7341 11.5146 49.7752 11.5139C49.8163 11.5129 49.8825 11.5391 49.9223 11.5719C49.9624 11.6044 50.2945 12.019 50.6604 12.493C51.0267 12.967 51.3349 13.3922 51.3458 13.4376C51.3574 13.4853 51.3442 13.5626 51.3147 13.6199C51.2865 13.6746 51.0147 14.0402 50.7111 14.4319C50.4072 14.824 50.1003 15.2154 50.029 15.3019C49.927 15.4259 49.8782 15.4594 49.8 15.4594C49.7453 15.4594 49.6708 15.4445 49.6343 15.4262C49.5978 15.408 49.5528 15.3447 49.5342 15.2854C49.5156 15.226 49.5007 14.8608 49.5017 13.769H38.4979L38.4986 14.4733C38.4986 14.8608 38.4837 15.226 38.4655 15.2854C38.4469 15.3447 38.4018 15.408 38.3654 15.4262C38.3289 15.4445 38.2543 15.4594 38.1996 15.4594C38.1214 15.4594 38.0727 15.4259 37.9706 15.3019C37.899 15.2154 37.5921 14.824 37.2885 14.4319C36.9846 14.0402 36.7131 13.6746 36.685 13.6199C36.6555 13.5626 36.6422 13.4853 36.6538 13.4376C36.6647 13.3922 36.973 12.967 37.3389 12.493C37.7048 12.019 38.0352 11.6051 38.073 11.5733C38.1105 11.5414 38.1768 11.5152 38.2202 11.5152ZM37.3044 13.5536C37.3283 13.5901 37.4758 13.7859 37.6325 13.9891C37.7896 14.1923 37.9292 14.3527 37.9428 14.3454C37.9564 14.3384 37.9676 13.9523 37.9676 13.4873C37.9676 13.02 37.9544 12.6421 37.9381 12.6421C37.9222 12.6421 37.7635 12.8324 37.5852 13.0647C37.2928 13.4469 37.2656 13.4936 37.3044 13.5536ZM50.0569 14.3454C50.0705 14.3527 50.21 14.1923 50.3668 13.9891C50.5235 13.7859 50.6714 13.5901 50.6949 13.5536C50.7337 13.4936 50.7065 13.4469 50.4099 13.0634C50.2292 12.8301 50.0705 12.6398 50.0569 12.6408C50.0433 12.6415 50.032 13.0226 50.032 13.4873C50.032 13.9523 50.0433 14.3384 50.0569 14.3454Z" fill="white"/>
</g>
<path d="M24.832 44V38.36H26.808C27.4107 38.36 27.9227 38.4693 28.344 38.688C28.7653 38.9067 29.0853 39.2267 29.304 39.648C29.528 40.064 29.64 40.5733 29.64 41.176C29.64 41.7787 29.528 42.2907 29.304 42.712C29.0853 43.1333 28.7653 43.4533 28.344 43.672C27.9227 43.8907 27.4107 44 26.808 44H24.832ZM25.544 43.376H26.768C27.4667 43.376 27.9947 43.1947 28.352 42.832C28.7147 42.4693 28.896 41.9173 28.896 41.176C28.896 40.4347 28.7147 39.8853 28.352 39.528C27.9947 39.1653 27.4667 38.984 26.768 38.984H25.544V43.376ZM30.8742 39.096V38.304H31.7382V39.096H30.8742ZM30.9542 44V40.048H31.6662V44H30.9542ZM33.103 44V40.048H33.759V40.912C33.8283 40.736 33.9243 40.5787 34.047 40.44C34.175 40.296 34.327 40.184 34.503 40.104C34.6843 40.0187 34.8817 39.976 35.095 39.976C35.4417 39.976 35.727 40.0613 35.951 40.232C36.175 40.4027 36.3137 40.6267 36.367 40.904H36.359C36.4657 40.6427 36.6337 40.424 36.863 40.248C37.0977 40.0667 37.391 39.976 37.743 39.976C38.0417 39.976 38.295 40.0347 38.503 40.152C38.711 40.264 38.8683 40.4373 38.975 40.672C39.0817 40.9067 39.135 41.2027 39.135 41.56V44H38.431V41.608C38.431 41.2667 38.3697 41.0107 38.247 40.84C38.1243 40.6693 37.9057 40.584 37.591 40.584C37.3563 40.584 37.1537 40.6373 36.983 40.744C36.8177 40.8453 36.6897 40.9893 36.599 41.176C36.5137 41.3573 36.471 41.5627 36.471 41.792V44H35.767V41.608C35.767 41.272 35.6977 41.0187 35.559 40.848C35.4203 40.672 35.2097 40.584 34.927 40.584C34.6977 40.584 34.4977 40.6427 34.327 40.76C34.1617 40.872 34.0337 41.0187 33.943 41.2C33.8523 41.3813 33.807 41.5733 33.807 41.776V44H33.103ZM42.4676 44.072C42.0249 44.072 41.6409 43.992 41.3156 43.832C40.9956 43.6667 40.7502 43.432 40.5796 43.128C40.4089 42.8187 40.3236 42.4507 40.3236 42.024C40.3236 41.624 40.4036 41.272 40.5636 40.968C40.7236 40.6587 40.9502 40.416 41.2436 40.24C41.5369 40.064 41.8862 39.976 42.2916 39.976C42.6756 39.976 43.0009 40.0587 43.2676 40.224C43.5396 40.3893 43.7449 40.6213 43.8836 40.92C44.0276 41.2187 44.0996 41.5733 44.0996 41.984V42.216H40.8596V41.72H43.6356L43.4836 41.88C43.4836 41.4427 43.3796 41.1067 43.1716 40.872C42.9689 40.6373 42.6756 40.52 42.2916 40.52C42.0409 40.52 41.8169 40.5787 41.6196 40.696C41.4276 40.808 41.2782 40.968 41.1716 41.176C41.0649 41.384 41.0116 41.6373 41.0116 41.936V42.016C41.0116 42.336 41.0702 42.6053 41.1876 42.824C41.3049 43.0427 41.4729 43.208 41.6916 43.32C41.9102 43.432 42.1716 43.488 42.4756 43.488C42.6942 43.488 42.9156 43.4587 43.1396 43.4C43.3689 43.336 43.5822 43.224 43.7796 43.064L44.0196 43.576C43.8169 43.7467 43.5742 43.872 43.2916 43.952C43.0142 44.032 42.7396 44.072 42.4676 44.072ZM45.2745 44V40.048H45.9385V40.904C46.0665 40.6107 46.2585 40.384 46.5145 40.224C46.7705 40.0587 47.0585 39.976 47.3785 39.976C47.7038 39.976 47.9758 40.0347 48.1945 40.152C48.4132 40.264 48.5758 40.44 48.6825 40.68C48.7945 40.9147 48.8505 41.208 48.8505 41.56V44H48.1385V41.6C48.1385 41.3867 48.1092 41.2053 48.0505 41.056C47.9918 40.9067 47.8932 40.792 47.7545 40.712C47.6212 40.6267 47.4425 40.584 47.2185 40.584C46.9838 40.584 46.7705 40.6373 46.5785 40.744C46.3918 40.8507 46.2452 40.9947 46.1385 41.176C46.0372 41.3573 45.9865 41.56 45.9865 41.784V44H45.2745ZM51.7149 44.072C51.4962 44.072 51.2802 44.0507 51.0669 44.008C50.8589 43.9707 50.6642 43.9173 50.4829 43.848C50.3069 43.7733 50.1549 43.6827 50.0269 43.576L50.2589 43.072C50.3922 43.1733 50.5389 43.256 50.6989 43.32C50.8642 43.384 51.0322 43.432 51.2029 43.464C51.3789 43.4907 51.5469 43.504 51.7069 43.504C52.0375 43.504 52.2909 43.4533 52.4669 43.352C52.6482 43.2507 52.7389 43.1093 52.7389 42.928C52.7389 42.7733 52.6855 42.656 52.5789 42.576C52.4775 42.4907 52.3069 42.4267 52.0669 42.384L51.2429 42.24C50.8749 42.1707 50.5975 42.0453 50.4109 41.864C50.2295 41.6827 50.1389 41.4453 50.1389 41.152C50.1389 40.9173 50.2029 40.712 50.3309 40.536C50.4642 40.36 50.6535 40.224 50.8989 40.128C51.1442 40.0267 51.4375 39.976 51.7789 39.976C51.9655 39.976 52.1549 39.9947 52.3469 40.032C52.5442 40.0693 52.7255 40.1253 52.8909 40.2C53.0615 40.2693 53.2002 40.3573 53.3069 40.464L53.0669 40.968C52.9602 40.8667 52.8322 40.7867 52.6829 40.728C52.5389 40.664 52.3869 40.6187 52.2269 40.592C52.0722 40.56 51.9202 40.544 51.7709 40.544C51.4615 40.544 51.2215 40.5973 51.0509 40.704C50.8802 40.8053 50.7949 40.9493 50.7949 41.136C50.7949 41.2853 50.8429 41.4027 50.9389 41.488C51.0402 41.5733 51.2029 41.6373 51.4269 41.68L52.2269 41.824C52.6215 41.8987 52.9149 42.024 53.1069 42.2C53.2989 42.3707 53.3949 42.608 53.3949 42.912C53.3949 43.1467 53.3255 43.352 53.1869 43.528C53.0482 43.6987 52.8535 43.832 52.6029 43.928C52.3522 44.024 52.0562 44.072 51.7149 44.072ZM54.4914 39.096V38.304H55.3554V39.096H54.4914ZM54.5714 44V40.048H55.2834V44H54.5714ZM58.4242 44.072C58.0242 44.072 57.6775 43.9867 57.3842 43.816C57.0909 43.6453 56.8642 43.408 56.7042 43.104C56.5442 42.7947 56.4642 42.432 56.4642 42.016C56.4642 41.6053 56.5442 41.248 56.7042 40.944C56.8642 40.6347 57.0909 40.3973 57.3842 40.232C57.6775 40.0613 58.0242 39.976 58.4242 39.976C58.8242 39.976 59.1682 40.0613 59.4562 40.232C59.7495 40.3973 59.9762 40.6347 60.1362 40.944C60.2962 41.248 60.3762 41.6053 60.3762 42.016C60.3762 42.432 60.2962 42.7947 60.1362 43.104C59.9815 43.408 59.7575 43.6453 59.4642 43.816C59.1709 43.9867 58.8242 44.072 58.4242 44.072ZM58.4162 43.472C58.8055 43.472 59.1122 43.3413 59.3362 43.08C59.5602 42.8187 59.6722 42.464 59.6722 42.016C59.6722 41.568 59.5602 41.216 59.3362 40.96C59.1175 40.704 58.8135 40.576 58.4242 40.576C58.0349 40.576 57.7282 40.704 57.5042 40.96C57.2802 41.216 57.1682 41.568 57.1682 42.016C57.1682 42.464 57.2802 42.8187 57.5042 43.08C57.7335 43.3413 58.0375 43.472 58.4162 43.472ZM61.5714 44V40.048H62.2354V40.904C62.3634 40.6107 62.5554 40.384 62.8114 40.224C63.0674 40.0587 63.3554 39.976 63.6754 39.976C64.0007 39.976 64.2727 40.0347 64.4914 40.152C64.71 40.264 64.8727 40.44 64.9794 40.68C65.0914 40.9147 65.1474 41.208 65.1474 41.56V44H64.4354V41.6C64.4354 41.3867 64.406 41.2053 64.3474 41.056C64.2887 40.9067 64.19 40.792 64.0514 40.712C63.918 40.6267 63.7394 40.584 63.5154 40.584C63.2807 40.584 63.0674 40.6373 62.8754 40.744C62.6887 40.8507 62.542 40.9947 62.4354 41.176C62.334 41.3573 62.2834 41.56 62.2834 41.784V44H61.5714Z" fill="#CE3439"/>
<path d="M25.1813 57V56.392H26.7253V51.928L27.1013 51.984L25.4613 53.04L25.1413 52.488L26.9093 51.36H27.4293V56.392H28.8533V57H25.1813ZM29.9782 57V56.392H31.5222V51.928L31.8982 51.984L30.2582 53.04L29.9382 52.488L31.7062 51.36H32.2262V56.392H33.6502V57H29.9782ZM36.4391 57.072C36.0071 57.072 35.6417 56.9627 35.3431 56.744C35.0444 56.52 34.8177 56.1947 34.6631 55.768C34.5137 55.336 34.4391 54.8053 34.4391 54.176C34.4391 53.5467 34.5137 53.0187 34.6631 52.592C34.8177 52.1653 35.0444 51.8427 35.3431 51.624C35.6417 51.4 36.0071 51.288 36.4391 51.288C36.8817 51.288 37.2497 51.3973 37.5431 51.616C37.8364 51.8347 38.0577 52.1573 38.2071 52.584C38.3617 53.0107 38.4391 53.5387 38.4391 54.168C38.4391 54.7973 38.3617 55.328 38.2071 55.76C38.0577 56.192 37.8337 56.52 37.5351 56.744C37.2364 56.9627 36.8711 57.072 36.4391 57.072ZM36.4391 56.448C36.8764 56.448 37.2017 56.264 37.4151 55.896C37.6284 55.528 37.7351 54.952 37.7351 54.168C37.7351 53.3893 37.6284 52.8187 37.4151 52.456C37.2071 52.0933 36.8844 51.912 36.4471 51.912C36.0044 51.912 35.6764 52.096 35.4631 52.464C35.2497 52.8267 35.1431 53.3973 35.1431 54.176C35.1431 54.9493 35.2497 55.5227 35.4631 55.896C35.6764 56.264 36.0017 56.448 36.4391 56.448ZM40.1559 54.312L39.6839 54.032L40.3879 52.968L40.4039 52.992L39.1159 53.072V52.52L40.4039 52.6L40.3799 52.616L39.6839 51.56L40.1639 51.28L40.7319 52.464H40.7239L41.2759 51.28L41.7559 51.56L41.0519 52.616L41.0279 52.6L42.3239 52.52V53.072L41.0359 52.992L41.0599 52.968L41.7559 54.032L41.2839 54.312L40.7239 53.136H40.7319L40.1559 54.312ZM44.6496 57.072C44.4416 57.072 44.2389 57.048 44.0416 57C43.8496 56.952 43.6656 56.88 43.4896 56.784C43.3189 56.6827 43.1589 56.56 43.0096 56.416L43.2816 55.872C43.5002 56.0907 43.7216 56.2427 43.9456 56.328C44.1696 56.408 44.4069 56.448 44.6576 56.448C44.9189 56.448 45.1482 56.4 45.3456 56.304C45.5482 56.2027 45.7189 56.056 45.8576 55.864C45.9962 55.6667 46.1002 55.424 46.1696 55.136C46.2389 54.848 46.2736 54.5173 46.2736 54.144V53.68H46.2656C46.2229 53.9307 46.1269 54.1493 45.9776 54.336C45.8336 54.5173 45.6549 54.656 45.4416 54.752C45.2282 54.848 44.9936 54.896 44.7376 54.896C44.4016 54.896 44.1029 54.8213 43.8416 54.672C43.5802 54.5227 43.3749 54.3147 43.2256 54.048C43.0816 53.7813 43.0096 53.472 43.0096 53.12C43.0096 52.768 43.0869 52.4533 43.2416 52.176C43.3962 51.8987 43.6096 51.6827 43.8816 51.528C44.1536 51.368 44.4656 51.288 44.8176 51.288C45.2762 51.288 45.6629 51.3973 45.9776 51.616C46.2922 51.8293 46.5296 52.1413 46.6896 52.552C46.8496 52.9627 46.9296 53.464 46.9296 54.056C46.9296 54.696 46.8389 55.2427 46.6576 55.696C46.4762 56.144 46.2149 56.4853 45.8736 56.72C45.5376 56.9547 45.1296 57.072 44.6496 57.072ZM44.8576 54.304C45.0922 54.304 45.3002 54.2533 45.4816 54.152C45.6629 54.0507 45.8042 53.9093 45.9056 53.728C46.0069 53.5467 46.0576 53.3387 46.0576 53.104C46.0576 52.8587 46.0069 52.6453 45.9056 52.464C45.8096 52.2827 45.6709 52.144 45.4896 52.048C45.3082 51.9467 45.0949 51.896 44.8496 51.896C44.6149 51.896 44.4096 51.9467 44.2336 52.048C44.0576 52.1493 43.9189 52.2907 43.8176 52.472C43.7216 52.6533 43.6736 52.864 43.6736 53.104C43.6736 53.3387 43.7242 53.5467 43.8256 53.728C43.9269 53.9093 44.0656 54.0507 44.2416 54.152C44.4176 54.2533 44.6229 54.304 44.8576 54.304ZM49.7984 57.072C49.3664 57.072 49.0011 56.9627 48.7024 56.744C48.4038 56.52 48.1771 56.1947 48.0224 55.768C47.8731 55.336 47.7984 54.8053 47.7984 54.176C47.7984 53.5467 47.8731 53.0187 48.0224 52.592C48.1771 52.1653 48.4038 51.8427 48.7024 51.624C49.0011 51.4 49.3664 51.288 49.7984 51.288C50.2411 51.288 50.6091 51.3973 50.9024 51.616C51.1958 51.8347 51.4171 52.1573 51.5664 52.584C51.7211 53.0107 51.7984 53.5387 51.7984 54.168C51.7984 54.7973 51.7211 55.328 51.5664 55.76C51.4171 56.192 51.1931 56.52 50.8944 56.744C50.5958 56.9627 50.2304 57.072 49.7984 57.072ZM49.7984 56.448C50.2358 56.448 50.5611 56.264 50.7744 55.896C50.9878 55.528 51.0944 54.952 51.0944 54.168C51.0944 53.3893 50.9878 52.8187 50.7744 52.456C50.5664 52.0933 50.2438 51.912 49.8064 51.912C49.3638 51.912 49.0358 52.096 48.8224 52.464C48.6091 52.8267 48.5024 53.3973 48.5024 54.176C48.5024 54.9493 48.6091 55.5227 48.8224 55.896C49.0358 56.264 49.3611 56.448 49.7984 56.448ZM53.5153 54.312L53.0433 54.032L53.7473 52.968L53.7633 52.992L52.4753 53.072V52.52L53.7633 52.6L53.7393 52.616L53.0433 51.56L53.5233 51.28L54.0913 52.464H54.0833L54.6353 51.28L55.1153 51.56L54.4113 52.616L54.3873 52.6L55.6833 52.52V53.072L54.3953 52.992L54.4193 52.968L55.1153 54.032L54.6433 54.312L54.0833 53.136H54.0913L53.5153 54.312ZM56.8569 57L59.6169 51.648L59.6489 51.992H56.4729V51.36H60.2409V51.896L57.6329 57H56.8569ZM61.6538 57L64.4138 51.648L64.4458 51.992H61.2698V51.36H65.0378V51.896L62.4298 57H61.6538Z" fill="black"/>
<defs>
<filter id="filter0_d_236_880" x="0.0999999" y="24" width="90.2238" height="55.1729" filterUnits="userSpaceOnUse" color-interpolation-filters="sRGB">
<feFlood flood-opacity="0" result="BackgroundImageFix"/>
<feColorMatrix in="SourceAlpha" type="matrix" values="0 0 0 0 0 0 0 0 0 0 0 0 0 0 0 0 0 0 127 0" result="hardAlpha"/>
<feOffset dy="4"/>
<feGaussianBlur stdDeviation="1.95"/>
<feComposite in2="hardAlpha" operator="out"/>
<feColorMatrix type="matrix" values="0 0 0 0 0 0 0 0 0 0 0 0 0 0 0 0 0 0 0.2 0"/>
<feBlend mode="normal" in2="BackgroundImageFix" result="effect1_dropShadow_236_880"/>
<feBlend mode="normal" in="SourceGraphic" in2="effect1_dropShadow_236_880" result="shape"/>
</filter>
<clipPath id="clip0_236_880">
<rect width="16.9697" height="16.9697" fill="white" transform="translate(35.5146 7.27295)"/>
</clipPath>
</defs>
</svg>
