<svg width="136" height="82" viewBox="0 0 136 82" fill="none" xmlns="http://www.w3.org/2000/svg">
<g filter="url(#filter0_d_271_615)">
<rect x="4" y="24" width="128" height="50" rx="2" fill="white"/>
<rect x="4.25" y="24.25" width="127.5" height="49.5" rx="1.75" stroke="white" stroke-width="0.5"/>
</g>
<rect x="52" width="30.303" height="30.3019" rx="3" fill="#CB3335"/>
<g clip-path="url(#clip0_271_615)">
<path fill-rule="evenodd" clip-rule="evenodd" d="M66.6319 2.43174C66.7141 2.42663 66.8002 2.44026 66.8236 2.46157C66.8471 2.48287 67.4897 2.82079 68.2512 3.21282C69.0131 3.60442 69.9621 4.09318 70.3605 4.29857C70.759 4.50354 72.4755 5.3856 74.1745 6.25872C75.8739 7.13142 77.2968 7.87713 77.3373 7.91548C77.4054 7.98025 77.4105 8.33776 77.4131 13.3327C77.4152 17.6106 77.4046 18.6959 77.3611 18.7581C77.3313 18.8007 74.9194 20.0522 72.0012 21.539C69.083 23.0261 66.6574 24.2427 66.6105 24.2427C66.5637 24.2427 66.3144 24.131 66.0566 23.9951C65.7988 23.8588 63.3843 22.617 60.6911 21.2356C56.6556 19.165 55.7803 18.7006 55.7142 18.5953C55.6525 18.4969 55.638 18.4091 55.6507 18.2118C55.6601 18.0712 55.701 15.7032 55.7415 12.9492C55.7824 10.1952 55.8331 7.89417 55.8544 7.83579C55.8868 7.74673 56.76 7.29633 61.188 5.08519C64.7262 3.31807 66.5321 2.43813 66.6319 2.43174ZM56.907 7.98153C56.9121 7.99516 57.5726 8.35523 58.3755 8.78178C59.1783 9.20832 59.8831 9.58459 59.9415 9.61825C60.0438 9.67748 60.2368 9.58203 64.8527 7.19193C67.4952 5.82323 69.6429 4.69145 69.6255 4.67611C69.608 4.66077 68.9368 4.31093 68.134 3.89844C67.3311 3.48596 66.6506 3.14975 66.6212 3.15103C66.5918 3.15231 64.3921 4.23423 61.733 5.5552C59.0739 6.87617 56.9023 7.96789 56.907 7.98153ZM63.8505 8.45367C62.1702 9.32082 60.7946 10.0397 60.7946 10.0516C60.7942 10.0631 61.2012 10.2915 61.6993 10.5587L62.6049 11.044C63.0672 10.8076 65.2222 9.68771 67.6917 8.40296C70.1611 7.11863 72.184 6.04822 72.1874 6.02478C72.1904 6.00135 71.7962 5.77593 71.3108 5.52409C70.8259 5.27226 70.4232 5.06644 70.4159 5.06729C70.4091 5.06814 69.6161 5.47551 68.6543 5.9728C67.6925 6.47008 65.5307 7.58651 63.8505 8.45367ZM66.0898 9.97492C64.5847 10.7551 63.3523 11.4084 63.3519 11.4259C63.351 11.4433 64.0699 11.8413 64.9486 12.3101L66.5466 13.1623C74.027 9.3336 76.2314 8.19757 76.2719 8.16731C76.3354 8.12001 76.1304 8.00283 74.6837 7.26053C73.7696 6.7918 73.0081 6.40573 72.9911 6.40275C72.974 6.39977 72.0302 6.88299 70.8932 7.47657C69.7563 8.06973 67.5949 9.19426 66.0898 9.97492ZM56.4084 13.3754C56.3547 16.8504 56.3466 18.225 56.3799 18.2595C56.405 18.2855 56.8959 18.5472 57.4699 18.8412C58.0444 19.1348 60.259 20.2695 62.3918 21.3625C64.5246 22.4551 66.2739 23.344 66.2794 23.3372C66.2846 23.3308 66.2709 21.1678 66.2488 18.5314C66.2266 15.8946 66.2032 13.7346 66.1963 13.7307C66.19 13.7269 65.4557 13.3315 64.5651 12.8525L62.9458 11.9815C62.904 12.1865 62.8802 12.7541 62.8652 13.3754C62.8418 14.3801 62.8303 14.5165 62.7604 14.6111C62.7079 14.6821 62.6333 14.7215 62.5367 14.7291C62.4199 14.7389 62.1527 14.6149 61.1581 14.09C60.4797 13.732 59.8806 13.4056 59.8265 13.3647L59.7284 13.2901L59.7071 10.2459C57.8245 9.23432 57.1005 8.8457 56.8831 8.72979C56.6658 8.61346 56.4868 8.52312 56.4856 8.52866C56.4847 8.5342 56.4498 10.7151 56.4084 13.3754ZM66.9161 13.7243C66.8969 13.7316 66.8969 15.8997 66.9161 18.5421C66.9357 21.1844 66.9613 23.3474 66.9728 23.3478C66.9843 23.3487 69.1895 22.2297 71.8733 20.861L76.7526 18.3729C76.7692 10.8672 76.7598 8.68931 76.7419 8.69102C76.7245 8.69315 74.5145 9.82322 71.8307 11.203C69.1469 12.5828 66.9357 13.7171 66.9161 13.7243ZM60.3685 12.9279C61.6921 13.6212 62.099 13.8283 62.1276 13.8347C62.1651 13.8432 62.1873 13.654 62.2107 13.1316C62.2286 12.7383 62.2427 12.2342 62.2427 12.0118V11.607C60.8556 10.8638 60.4337 10.6482 60.4103 10.6482C60.383 10.6482 60.3677 11.0564 60.3681 11.7881L60.3685 12.9279Z" fill="white"/>
</g>
<path d="M17.832 39.999V34.359H20.152C20.5573 34.359 20.9013 34.4257 21.184 34.559C21.4667 34.6924 21.6827 34.887 21.832 35.143C21.9867 35.3937 22.064 35.6977 22.064 36.055C22.064 36.4124 21.9867 36.719 21.832 36.975C21.6827 37.231 21.464 37.4284 21.176 37.567C20.8933 37.7057 20.552 37.775 20.152 37.775H18.544V39.999H17.832ZM18.544 37.167H20.048C20.4747 37.167 20.7973 37.0764 21.016 36.895C21.2347 36.7084 21.344 36.431 21.344 36.063C21.344 35.6897 21.2347 35.415 21.016 35.239C20.7973 35.0577 20.4747 34.967 20.048 34.967H18.544V37.167ZM22.7242 35.095V34.303H23.5882V35.095H22.7242ZM22.8042 39.999V36.047H23.5162V39.999H22.8042ZM26.441 40.071C25.9983 40.071 25.6143 39.991 25.289 39.831C24.969 39.6657 24.7237 39.431 24.553 39.127C24.3823 38.8177 24.297 38.4497 24.297 38.023C24.297 37.623 24.377 37.271 24.537 36.967C24.697 36.6577 24.9237 36.415 25.217 36.239C25.5103 36.063 25.8597 35.975 26.265 35.975C26.649 35.975 26.9743 36.0577 27.241 36.223C27.513 36.3884 27.7183 36.6204 27.857 36.919C28.001 37.2177 28.073 37.5724 28.073 37.983V38.215H24.833V37.719H27.609L27.457 37.879C27.457 37.4417 27.353 37.1057 27.145 36.871C26.9423 36.6364 26.649 36.519 26.265 36.519C26.0143 36.519 25.7903 36.5777 25.593 36.695C25.401 36.807 25.2517 36.967 25.145 37.175C25.0383 37.383 24.985 37.6364 24.985 37.935V38.015C24.985 38.335 25.0437 38.6044 25.161 38.823C25.2783 39.0417 25.4463 39.207 25.665 39.319C25.8837 39.431 26.145 39.487 26.449 39.487C26.6677 39.487 26.889 39.4577 27.113 39.399C27.3423 39.335 27.5557 39.223 27.753 39.063L27.993 39.575C27.7903 39.7457 27.5477 39.871 27.265 39.951C26.9877 40.031 26.713 40.071 26.441 40.071ZM30.6079 40.071C30.2026 40.071 29.8506 39.9857 29.5519 39.815C29.2533 39.6444 29.0213 39.407 28.8559 39.103C28.6906 38.7937 28.6079 38.431 28.6079 38.015C28.6079 37.599 28.6906 37.239 28.8559 36.935C29.0213 36.6257 29.2533 36.3884 29.5519 36.223C29.8559 36.0577 30.2106 35.975 30.6159 35.975C30.8879 35.975 31.1466 36.0204 31.3919 36.111C31.6373 36.2017 31.8399 36.3244 31.9999 36.479L31.7519 37.007C31.5973 36.8684 31.4239 36.7644 31.2319 36.695C31.0399 36.6204 30.8533 36.583 30.6719 36.583C30.2559 36.583 29.9279 36.7084 29.6879 36.959C29.4479 37.2097 29.3279 37.5644 29.3279 38.023C29.3279 38.4764 29.4479 38.831 29.6879 39.087C29.9279 39.3377 30.2533 39.463 30.6639 39.463C30.8506 39.463 31.0373 39.4284 31.2239 39.359C31.4159 39.2844 31.5866 39.1804 31.7359 39.047L31.9839 39.575C31.8293 39.7297 31.6293 39.8524 31.3839 39.943C31.1386 40.0284 30.8799 40.071 30.6079 40.071ZM34.3363 40.071C33.8936 40.071 33.5096 39.991 33.1843 39.831C32.8643 39.6657 32.619 39.431 32.4483 39.127C32.2776 38.8177 32.1923 38.4497 32.1923 38.023C32.1923 37.623 32.2723 37.271 32.4323 36.967C32.5923 36.6577 32.819 36.415 33.1123 36.239C33.4056 36.063 33.755 35.975 34.1603 35.975C34.5443 35.975 34.8696 36.0577 35.1363 36.223C35.4083 36.3884 35.6136 36.6204 35.7523 36.919C35.8963 37.2177 35.9683 37.5724 35.9683 37.983V38.215H32.7283V37.719H35.5043L35.3523 37.879C35.3523 37.4417 35.2483 37.1057 35.0403 36.871C34.8376 36.6364 34.5443 36.519 34.1603 36.519C33.9096 36.519 33.6856 36.5777 33.4883 36.695C33.2963 36.807 33.147 36.967 33.0403 37.175C32.9336 37.383 32.8803 37.6364 32.8803 37.935V38.015C32.8803 38.335 32.939 38.6044 33.0563 38.823C33.1736 39.0417 33.3416 39.207 33.5603 39.319C33.779 39.431 34.0403 39.487 34.3443 39.487C34.563 39.487 34.7843 39.4577 35.0083 39.399C35.2376 39.335 35.451 39.223 35.6483 39.063L35.8883 39.575C35.6856 39.7457 35.443 39.871 35.1603 39.951C34.883 40.031 34.6083 40.071 34.3363 40.071ZM38.1993 40.071C37.9806 40.071 37.7646 40.0497 37.5513 40.007C37.3433 39.9697 37.1486 39.9164 36.9673 39.847C36.7913 39.7724 36.6393 39.6817 36.5113 39.575L36.7433 39.071C36.8766 39.1724 37.0233 39.255 37.1833 39.319C37.3486 39.383 37.5166 39.431 37.6873 39.463C37.8633 39.4897 38.0313 39.503 38.1913 39.503C38.5219 39.503 38.7753 39.4524 38.9513 39.351C39.1326 39.2497 39.2233 39.1084 39.2233 38.927C39.2233 38.7724 39.1699 38.655 39.0633 38.575C38.9619 38.4897 38.7913 38.4257 38.5513 38.383L37.7273 38.239C37.3593 38.1697 37.0819 38.0444 36.8953 37.863C36.7139 37.6817 36.6233 37.4444 36.6233 37.151C36.6233 36.9164 36.6873 36.711 36.8153 36.535C36.9486 36.359 37.1379 36.223 37.3833 36.127C37.6286 36.0257 37.9219 35.975 38.2633 35.975C38.4499 35.975 38.6393 35.9937 38.8313 36.031C39.0286 36.0684 39.2099 36.1244 39.3753 36.199C39.5459 36.2684 39.6846 36.3564 39.7913 36.463L39.5513 36.967C39.4446 36.8657 39.3166 36.7857 39.1673 36.727C39.0233 36.663 38.8713 36.6177 38.7113 36.591C38.5566 36.559 38.4046 36.543 38.2553 36.543C37.9459 36.543 37.7059 36.5964 37.5353 36.703C37.3646 36.8044 37.2793 36.9484 37.2793 37.135C37.2793 37.2844 37.3273 37.4017 37.4233 37.487C37.5246 37.5724 37.6873 37.6364 37.9113 37.679L38.7113 37.823C39.1059 37.8977 39.3993 38.023 39.5913 38.199C39.7833 38.3697 39.8793 38.607 39.8793 38.911C39.8793 39.1457 39.8099 39.351 39.6713 39.527C39.5326 39.6977 39.3379 39.831 39.0873 39.927C38.8366 40.023 38.5406 40.071 38.1993 40.071Z" fill="#CE3439"/>
<path d="M56.1774 39.999V39.391H57.7214V34.927L58.0974 34.983L56.4574 36.039L56.1374 35.487L57.9054 34.359H58.4254V39.391H59.8494V39.999H56.1774ZM62.6383 40.071C62.2063 40.071 61.8409 39.9617 61.5423 39.743C61.2436 39.519 61.0169 39.1937 60.8623 38.767C60.7129 38.335 60.6383 37.8044 60.6383 37.175C60.6383 36.5457 60.7129 36.0177 60.8623 35.591C61.0169 35.1644 61.2436 34.8417 61.5423 34.623C61.8409 34.399 62.2063 34.287 62.6383 34.287C63.0809 34.287 63.4489 34.3964 63.7423 34.615C64.0356 34.8337 64.2569 35.1564 64.4063 35.583C64.5609 36.0097 64.6383 36.5377 64.6383 37.167C64.6383 37.7964 64.5609 38.327 64.4063 38.759C64.2569 39.191 64.0329 39.519 63.7343 39.743C63.4356 39.9617 63.0703 40.071 62.6383 40.071ZM62.6383 39.447C63.0756 39.447 63.4009 39.263 63.6143 38.895C63.8276 38.527 63.9343 37.951 63.9343 37.167C63.9343 36.3884 63.8276 35.8177 63.6143 35.455C63.4063 35.0924 63.0836 34.911 62.6463 34.911C62.2036 34.911 61.8756 35.095 61.6623 35.463C61.4489 35.8257 61.3423 36.3964 61.3423 37.175C61.3423 37.9484 61.4489 38.5217 61.6623 38.895C61.8756 39.263 62.2009 39.447 62.6383 39.447ZM67.4352 40.071C67.0032 40.071 66.6378 39.9617 66.3392 39.743C66.0405 39.519 65.8138 39.1937 65.6592 38.767C65.5098 38.335 65.4352 37.8044 65.4352 37.175C65.4352 36.5457 65.5098 36.0177 65.6592 35.591C65.8138 35.1644 66.0405 34.8417 66.3392 34.623C66.6378 34.399 67.0032 34.287 67.4352 34.287C67.8778 34.287 68.2458 34.3964 68.5392 34.615C68.8325 34.8337 69.0538 35.1564 69.2032 35.583C69.3578 36.0097 69.4352 36.5377 69.4352 37.167C69.4352 37.7964 69.3578 38.327 69.2032 38.759C69.0538 39.191 68.8298 39.519 68.5312 39.743C68.2325 39.9617 67.8672 40.071 67.4352 40.071ZM67.4352 39.447C67.8725 39.447 68.1978 39.263 68.4112 38.895C68.6245 38.527 68.7312 37.951 68.7312 37.167C68.7312 36.3884 68.6245 35.8177 68.4112 35.455C68.2032 35.0924 67.8805 34.911 67.4432 34.911C67.0005 34.911 66.6725 35.095 66.4592 35.463C66.2458 35.8257 66.1392 36.3964 66.1392 37.175C66.1392 37.9484 66.2458 38.5217 66.4592 38.895C66.6725 39.263 66.9978 39.447 67.4352 39.447ZM72.232 40.071C71.8 40.071 71.4347 39.9617 71.136 39.743C70.8374 39.519 70.6107 39.1937 70.456 38.767C70.3067 38.335 70.232 37.8044 70.232 37.175C70.232 36.5457 70.3067 36.0177 70.456 35.591C70.6107 35.1644 70.8374 34.8417 71.136 34.623C71.4347 34.399 71.8 34.287 72.232 34.287C72.6747 34.287 73.0427 34.3964 73.336 34.615C73.6294 34.8337 73.8507 35.1564 74 35.583C74.1547 36.0097 74.232 36.5377 74.232 37.167C74.232 37.7964 74.1547 38.327 74 38.759C73.8507 39.191 73.6267 39.519 73.328 39.743C73.0294 39.9617 72.664 40.071 72.232 40.071ZM72.232 39.447C72.6694 39.447 72.9947 39.263 73.208 38.895C73.4214 38.527 73.528 37.951 73.528 37.167C73.528 36.3884 73.4214 35.8177 73.208 35.455C73 35.0924 72.6774 34.911 72.24 34.911C71.7974 34.911 71.4694 35.095 71.256 35.463C71.0427 35.8257 70.936 36.3964 70.936 37.175C70.936 37.9484 71.0427 38.5217 71.256 38.895C71.4694 39.263 71.7947 39.447 72.232 39.447ZM77.6953 39.999V34.359H78.3273L81.7833 38.951H81.7513V34.359H82.4313V39.999H81.7833L78.3433 35.423H78.3753V39.999H77.6953ZM85.6937 40.071C85.2937 40.071 84.9471 39.9857 84.6537 39.815C84.3604 39.6444 84.1337 39.407 83.9737 39.103C83.8137 38.7937 83.7337 38.431 83.7337 38.015C83.7337 37.6044 83.8137 37.247 83.9737 36.943C84.1337 36.6337 84.3604 36.3964 84.6537 36.231C84.9471 36.0604 85.2937 35.975 85.6937 35.975C86.0937 35.975 86.4377 36.0604 86.7257 36.231C87.0191 36.3964 87.2457 36.6337 87.4057 36.943C87.5657 37.247 87.6457 37.6044 87.6457 38.015C87.6457 38.431 87.5657 38.7937 87.4057 39.103C87.2511 39.407 87.0271 39.6444 86.7337 39.815C86.4404 39.9857 86.0937 40.071 85.6937 40.071ZM85.6857 39.471C86.0751 39.471 86.3817 39.3404 86.6057 39.079C86.8297 38.8177 86.9417 38.463 86.9417 38.015C86.9417 37.567 86.8297 37.215 86.6057 36.959C86.3871 36.703 86.0831 36.575 85.6937 36.575C85.3044 36.575 84.9977 36.703 84.7737 36.959C84.5497 37.215 84.4377 37.567 84.4377 38.015C84.4377 38.463 84.5497 38.8177 84.7737 39.079C85.0031 39.3404 85.3071 39.471 85.6857 39.471ZM90.2969 40.071C90.0782 40.071 89.8622 40.0497 89.6489 40.007C89.4409 39.9697 89.2462 39.9164 89.0649 39.847C88.8889 39.7724 88.7369 39.6817 88.6089 39.575L88.8409 39.071C88.9742 39.1724 89.1209 39.255 89.2809 39.319C89.4462 39.383 89.6142 39.431 89.7849 39.463C89.9609 39.4897 90.1289 39.503 90.2889 39.503C90.6196 39.503 90.8729 39.4524 91.0489 39.351C91.2302 39.2497 91.3209 39.1084 91.3209 38.927C91.3209 38.7724 91.2676 38.655 91.1609 38.575C91.0596 38.4897 90.8889 38.4257 90.6489 38.383L89.8249 38.239C89.4569 38.1697 89.1796 38.0444 88.9929 37.863C88.8116 37.6817 88.7209 37.4444 88.7209 37.151C88.7209 36.9164 88.7849 36.711 88.9129 36.535C89.0462 36.359 89.2356 36.223 89.4809 36.127C89.7262 36.0257 90.0196 35.975 90.3609 35.975C90.5476 35.975 90.7369 35.9937 90.9289 36.031C91.1262 36.0684 91.3076 36.1244 91.4729 36.199C91.6436 36.2684 91.7822 36.3564 91.8889 36.463L91.6489 36.967C91.5422 36.8657 91.4142 36.7857 91.2649 36.727C91.1209 36.663 90.9689 36.6177 90.8089 36.591C90.6542 36.559 90.5022 36.543 90.3529 36.543C90.0436 36.543 89.8036 36.5964 89.6329 36.703C89.4622 36.8044 89.3769 36.9484 89.3769 37.135C89.3769 37.2844 89.4249 37.4017 89.5209 37.487C89.6222 37.5724 89.7849 37.6364 90.0089 37.679L90.8089 37.823C91.2036 37.8977 91.4969 38.023 91.6889 38.199C91.8809 38.3697 91.9769 38.607 91.9769 38.911C91.9769 39.1457 91.9076 39.351 91.7689 39.527C91.6302 39.6977 91.4356 39.831 91.1849 39.927C90.9342 40.023 90.6382 40.071 90.2969 40.071ZM92.8814 40.503L92.3214 40.351L94.3614 33.983L94.9134 34.135L92.8814 40.503ZM97.9627 40.071C97.424 40.071 96.9547 39.9564 96.5547 39.727C96.16 39.4924 95.856 39.159 95.6427 38.727C95.4293 38.2897 95.3227 37.7724 95.3227 37.175C95.3227 36.5777 95.4293 36.063 95.6427 35.631C95.856 35.199 96.16 34.8684 96.5547 34.639C96.9493 34.4044 97.4187 34.287 97.9627 34.287C98.3573 34.287 98.7173 34.3484 99.0427 34.471C99.368 34.5884 99.648 34.7617 99.8827 34.991L99.6027 35.551C99.3573 35.3324 99.104 35.175 98.8427 35.079C98.5867 34.983 98.2987 34.935 97.9787 34.935C97.3813 34.935 96.912 35.127 96.5707 35.511C96.2347 35.8897 96.0667 36.4444 96.0667 37.175C96.0667 37.9004 96.2347 38.4577 96.5707 38.847C96.9067 39.231 97.376 39.423 97.9787 39.423C98.2987 39.423 98.5867 39.375 98.8427 39.279C99.104 39.183 99.3573 39.0257 99.6027 38.807L99.8827 39.367C99.648 39.5964 99.368 39.7724 99.0427 39.895C98.7173 40.0124 98.3573 40.071 97.9627 40.071ZM102.614 40.071C102.14 40.071 101.78 39.9457 101.534 39.695C101.294 39.4444 101.174 39.087 101.174 38.623V36.631H100.374V36.047H101.198V34.871H101.886V36.047H103.302V36.631H101.886V38.559C101.886 38.863 101.953 39.0897 102.086 39.239C102.225 39.383 102.436 39.455 102.718 39.455C102.83 39.455 102.937 39.4444 103.038 39.423C103.145 39.4017 103.246 39.3697 103.342 39.327L103.454 39.887C103.348 39.9457 103.217 39.991 103.062 40.023C102.913 40.055 102.764 40.071 102.614 40.071ZM104.286 39.999V36.047H104.95V36.903C105.078 36.6097 105.27 36.383 105.526 36.223C105.782 36.0577 106.07 35.975 106.39 35.975C106.716 35.975 106.988 36.0337 107.206 36.151C107.425 36.263 107.588 36.439 107.694 36.679C107.806 36.9137 107.862 37.207 107.862 37.559V39.999H107.15V37.599C107.15 37.3857 107.121 37.2044 107.062 37.055C107.004 36.9057 106.905 36.791 106.766 36.711C106.633 36.6257 106.454 36.583 106.23 36.583C105.996 36.583 105.782 36.6364 105.59 36.743C105.404 36.8497 105.257 36.9937 105.15 37.175C105.049 37.3564 104.998 37.559 104.998 37.783V39.999H104.286Z" fill="black"/>
<path d="M19.72 53.071C19.4107 53.071 19.1173 53.047 18.84 52.999C18.5627 52.951 18.3093 52.879 18.08 52.783C17.8507 52.687 17.6507 52.5697 17.48 52.431L17.744 51.839C17.9253 51.983 18.1173 52.1004 18.32 52.191C18.528 52.2764 18.7467 52.3377 18.976 52.375C19.2107 52.4124 19.4587 52.431 19.72 52.431C20.1627 52.431 20.5013 52.343 20.736 52.167C20.976 51.991 21.096 51.751 21.096 51.447C21.096 51.287 21.056 51.1537 20.976 51.047C20.9013 50.9404 20.7813 50.8524 20.616 50.783C20.456 50.7137 20.248 50.6524 19.992 50.599L19.072 50.423C18.5547 50.3217 18.1813 50.143 17.952 49.887C17.7227 49.631 17.608 49.3084 17.608 48.919C17.608 48.5884 17.6987 48.303 17.88 48.063C18.0667 47.8177 18.3227 47.6284 18.648 47.495C18.9787 47.3564 19.3547 47.287 19.776 47.287C20.0427 47.287 20.2907 47.3137 20.52 47.367C20.7547 47.415 20.968 47.4897 21.16 47.591C21.3573 47.6924 21.5333 47.815 21.688 47.959L21.424 48.543C21.1947 48.319 20.944 48.1617 20.672 48.071C20.4 47.975 20.0987 47.927 19.768 47.927C19.4907 47.927 19.2427 47.967 19.024 48.047C18.8053 48.1217 18.632 48.2337 18.504 48.383C18.3813 48.527 18.32 48.7057 18.32 48.919C18.32 49.1537 18.3947 49.3404 18.544 49.479C18.6933 49.6124 18.9467 49.7164 19.304 49.791L20.216 49.967C20.76 50.0684 21.1627 50.239 21.424 50.479C21.6853 50.719 21.816 51.031 21.816 51.415C21.816 51.735 21.728 52.0204 21.552 52.271C21.3813 52.5217 21.1387 52.719 20.824 52.863C20.5147 53.0017 20.1467 53.071 19.72 53.071ZM22.882 48.095V47.303H23.746V48.095H22.882ZM22.962 52.999V49.047H23.674V52.999H22.962ZM24.8628 52.999V52.543L27.3668 49.415L27.4068 49.639H24.9188V49.047H28.0708V49.503L25.5428 52.655L25.5028 52.407H28.1588V52.999H24.8628ZM31.0691 53.071C30.6265 53.071 30.2425 52.991 29.9171 52.831C29.5971 52.6657 29.3518 52.431 29.1811 52.127C29.0105 51.8177 28.9251 51.4497 28.9251 51.023C28.9251 50.623 29.0051 50.271 29.1651 49.967C29.3251 49.6577 29.5518 49.415 29.8451 49.239C30.1385 49.063 30.4878 48.975 30.8931 48.975C31.2771 48.975 31.6025 49.0577 31.8691 49.223C32.1411 49.3884 32.3465 49.6204 32.4851 49.919C32.6291 50.2177 32.7011 50.5724 32.7011 50.983V51.215H29.4611V50.719H32.2371L32.0851 50.879C32.0851 50.4417 31.9811 50.1057 31.7731 49.871C31.5705 49.6364 31.2771 49.519 30.8931 49.519C30.6425 49.519 30.4185 49.5777 30.2211 49.695C30.0291 49.807 29.8798 49.967 29.7731 50.175C29.6665 50.383 29.6131 50.6364 29.6131 50.935V51.015C29.6131 51.335 29.6718 51.6044 29.7891 51.823C29.9065 52.0417 30.0745 52.207 30.2931 52.319C30.5118 52.431 30.7731 52.487 31.0771 52.487C31.2958 52.487 31.5171 52.4577 31.7411 52.399C31.9705 52.335 32.1838 52.223 32.3811 52.063L32.6211 52.575C32.4185 52.7457 32.1758 52.871 31.8931 52.951C31.6158 53.031 31.3411 53.071 31.0691 53.071Z" fill="#CE3439"/>
<path d="M59.592 53.071C59.1387 53.071 58.7547 52.9617 58.44 52.743C58.1253 52.5244 57.8853 52.2097 57.72 51.799C57.5547 51.383 57.472 50.8844 57.472 50.303C57.472 49.6524 57.5627 49.1057 57.744 48.663C57.9253 48.215 58.1867 47.8737 58.528 47.639C58.8693 47.4044 59.28 47.287 59.76 47.287C59.9733 47.287 60.176 47.3137 60.368 47.367C60.56 47.415 60.7413 47.4897 60.912 47.591C61.0827 47.6924 61.2427 47.8177 61.392 47.967L61.128 48.519C60.92 48.3004 60.7013 48.1457 60.472 48.055C60.2427 47.959 60.0053 47.911 59.76 47.911C59.4987 47.911 59.2667 47.9617 59.064 48.063C58.8613 48.159 58.6907 48.3057 58.552 48.503C58.4133 48.695 58.3067 48.935 58.232 49.223C58.1627 49.5057 58.128 49.8364 58.128 50.215V50.679H58.136C58.184 50.423 58.28 50.2044 58.424 50.023C58.568 49.8364 58.7467 49.695 58.96 49.599C59.1733 49.4977 59.408 49.447 59.664 49.447C60.0053 49.447 60.304 49.5244 60.56 49.679C60.8213 49.8284 61.024 50.039 61.168 50.311C61.3173 50.5777 61.392 50.887 61.392 51.239C61.392 51.591 61.3147 51.9057 61.16 52.183C61.0107 52.4604 60.8 52.679 60.528 52.839C60.256 52.9937 59.944 53.071 59.592 53.071ZM59.552 52.463C59.7867 52.463 59.992 52.4124 60.168 52.311C60.344 52.2097 60.48 52.0684 60.576 51.887C60.6773 51.7057 60.728 51.495 60.728 51.255C60.728 51.015 60.6773 50.807 60.576 50.631C60.48 50.4497 60.344 50.3084 60.168 50.207C59.992 50.1057 59.784 50.055 59.544 50.055C59.3093 50.055 59.1013 50.1057 58.92 50.207C58.744 50.3084 58.6027 50.4497 58.496 50.631C58.3947 50.807 58.344 51.015 58.344 51.255C58.344 51.495 58.3947 51.7057 58.496 51.887C58.5973 52.0684 58.7387 52.2097 58.92 52.311C59.1013 52.4124 59.312 52.463 59.552 52.463ZM64.3889 53.071C63.9355 53.071 63.5515 52.9617 63.2369 52.743C62.9222 52.5244 62.6822 52.2097 62.5169 51.799C62.3515 51.383 62.2689 50.8844 62.2689 50.303C62.2689 49.6524 62.3595 49.1057 62.5409 48.663C62.7222 48.215 62.9835 47.8737 63.3249 47.639C63.6662 47.4044 64.0769 47.287 64.5569 47.287C64.7702 47.287 64.9729 47.3137 65.1649 47.367C65.3569 47.415 65.5382 47.4897 65.7089 47.591C65.8795 47.6924 66.0395 47.8177 66.1889 47.967L65.9249 48.519C65.7169 48.3004 65.4982 48.1457 65.2689 48.055C65.0395 47.959 64.8022 47.911 64.5569 47.911C64.2955 47.911 64.0635 47.9617 63.8609 48.063C63.6582 48.159 63.4875 48.3057 63.3489 48.503C63.2102 48.695 63.1035 48.935 63.0289 49.223C62.9595 49.5057 62.9249 49.8364 62.9249 50.215V50.679H62.9329C62.9809 50.423 63.0769 50.2044 63.2209 50.023C63.3649 49.8364 63.5435 49.695 63.7569 49.599C63.9702 49.4977 64.2049 49.447 64.4609 49.447C64.8022 49.447 65.1009 49.5244 65.3569 49.679C65.6182 49.8284 65.8209 50.039 65.9649 50.311C66.1142 50.5777 66.1889 50.887 66.1889 51.239C66.1889 51.591 66.1115 51.9057 65.9569 52.183C65.8075 52.4604 65.5969 52.679 65.3249 52.839C65.0529 52.9937 64.7409 53.071 64.3889 53.071ZM64.3489 52.463C64.5835 52.463 64.7889 52.4124 64.9649 52.311C65.1409 52.2097 65.2769 52.0684 65.3729 51.887C65.4742 51.7057 65.5249 51.495 65.5249 51.255C65.5249 51.015 65.4742 50.807 65.3729 50.631C65.2769 50.4497 65.1409 50.3084 64.9649 50.207C64.7889 50.1057 64.5809 50.055 64.3409 50.055C64.1062 50.055 63.8982 50.1057 63.7169 50.207C63.5409 50.3084 63.3995 50.4497 63.2929 50.631C63.1915 50.807 63.1409 51.015 63.1409 51.255C63.1409 51.495 63.1915 51.7057 63.2929 51.887C63.3942 52.0684 63.5355 52.2097 63.7169 52.311C63.8982 52.4124 64.1089 52.463 64.3489 52.463ZM68.9938 53.071C68.5618 53.071 68.1964 52.9617 67.8978 52.743C67.5991 52.519 67.3724 52.1937 67.2178 51.767C67.0684 51.335 66.9938 50.8044 66.9938 50.175C66.9938 49.5457 67.0684 49.0177 67.2178 48.591C67.3724 48.1644 67.5991 47.8417 67.8978 47.623C68.1964 47.399 68.5618 47.287 68.9938 47.287C69.4364 47.287 69.8044 47.3964 70.0978 47.615C70.3911 47.8337 70.6124 48.1564 70.7618 48.583C70.9164 49.0097 70.9938 49.5377 70.9938 50.167C70.9938 50.7964 70.9164 51.327 70.7618 51.759C70.6124 52.191 70.3884 52.519 70.0898 52.743C69.7911 52.9617 69.4258 53.071 68.9938 53.071ZM68.9938 52.447C69.4311 52.447 69.7564 52.263 69.9698 51.895C70.1831 51.527 70.2898 50.951 70.2898 50.167C70.2898 49.3884 70.1831 48.8177 69.9698 48.455C69.7618 48.0924 69.4391 47.911 69.0018 47.911C68.5591 47.911 68.2311 48.095 68.0178 48.463C67.8044 48.8257 67.6978 49.3964 67.6978 50.175C67.6978 50.9484 67.8044 51.5217 68.0178 51.895C68.2311 52.263 68.5564 52.447 68.9938 52.447ZM73.817 52.999L75.905 49.975V50.239L73.929 47.359H74.753L76.353 49.711H76.313L77.913 47.359H78.737L76.745 50.239V49.975L78.841 52.999H78.009L76.297 50.495H76.353L74.641 52.999H73.817ZM84.3136 52.999V51.831H81.6816V51.295L84.2816 47.359H84.9936V51.231H85.7776V51.831H84.9936V52.999H84.3136ZM84.3376 51.231V48.239H84.3696L82.3056 51.367L82.2496 51.231H84.3376ZM86.7185 52.999V52.471L88.7025 50.391C88.8945 50.1884 89.0438 50.0044 89.1505 49.839C89.2572 49.6737 89.3345 49.5137 89.3825 49.359C89.4305 49.2044 89.4545 49.047 89.4545 48.887C89.4545 48.5724 89.3532 48.3324 89.1505 48.167C88.9532 47.9964 88.6785 47.911 88.3265 47.911C88.0598 47.911 87.7958 47.9644 87.5345 48.071C87.2785 48.1724 87.0332 48.335 86.7985 48.559L86.5265 47.999C86.7612 47.775 87.0412 47.6017 87.3665 47.479C87.6918 47.351 88.0278 47.287 88.3745 47.287C88.7425 47.287 89.0598 47.351 89.3265 47.479C89.5932 47.6017 89.7958 47.7804 89.9345 48.015C90.0785 48.2444 90.1505 48.5217 90.1505 48.847C90.1505 49.0124 90.1318 49.175 90.0945 49.335C90.0572 49.4897 89.9985 49.6444 89.9185 49.799C89.8438 49.9537 89.7452 50.1137 89.6225 50.279C89.4998 50.4444 89.3505 50.6177 89.1745 50.799L87.6225 52.415V52.383H90.3825V52.999H86.7185ZM93.3234 53.071C93.078 53.071 92.8407 53.0444 92.6114 52.991C92.3874 52.9377 92.1767 52.8604 91.9794 52.759C91.782 52.6524 91.606 52.5244 91.4514 52.375L91.7314 51.815C91.9767 52.039 92.2274 52.2017 92.4834 52.303C92.7447 52.399 93.0247 52.447 93.3234 52.447C93.718 52.447 94.0247 52.3457 94.2434 52.143C94.4674 51.935 94.5794 51.6444 94.5794 51.271C94.5794 50.903 94.4754 50.6097 94.2674 50.391C94.0594 50.1724 93.7714 50.063 93.4034 50.063C93.158 50.063 92.934 50.1137 92.7314 50.215C92.534 50.311 92.35 50.4737 92.1794 50.703H91.6194V47.359H94.9954V47.975H92.2674V50.095H92.2354C92.3634 49.903 92.5394 49.7484 92.7634 49.631C92.9874 49.5084 93.238 49.447 93.5154 49.447C93.878 49.447 94.19 49.5244 94.4514 49.679C94.7127 49.8284 94.9127 50.0364 95.0514 50.303C95.1954 50.5697 95.2674 50.8817 95.2674 51.239C95.2674 51.6177 95.1874 51.9457 95.0274 52.223C94.8674 52.495 94.6434 52.7057 94.3554 52.855C94.0674 52.999 93.7234 53.071 93.3234 53.071ZM98.0826 52.999L100.171 49.975V50.239L98.1946 47.359H99.0186L100.619 49.711H100.579L102.179 47.359H103.003L101.011 50.239V49.975L103.107 52.999H102.275L100.563 50.495H100.619L98.9066 52.999H98.0826ZM107.995 53.071C107.75 53.071 107.513 53.0444 107.283 52.991C107.059 52.9377 106.849 52.8604 106.651 52.759C106.454 52.6524 106.278 52.5244 106.123 52.375L106.403 51.815C106.649 52.039 106.899 52.2017 107.155 52.303C107.417 52.399 107.697 52.447 107.995 52.447C108.39 52.447 108.697 52.3457 108.915 52.143C109.139 51.935 109.251 51.6444 109.251 51.271C109.251 50.903 109.147 50.6097 108.939 50.391C108.731 50.1724 108.443 50.063 108.075 50.063C107.83 50.063 107.606 50.1137 107.403 50.215C107.206 50.311 107.022 50.4737 106.851 50.703H106.291V47.359H109.667V47.975H106.939V50.095H106.907C107.035 49.903 107.211 49.7484 107.435 49.631C107.659 49.5084 107.91 49.447 108.187 49.447C108.55 49.447 108.862 49.5244 109.123 49.679C109.385 49.8284 109.585 50.0364 109.723 50.303C109.867 50.5697 109.939 50.8817 109.939 51.239C109.939 51.6177 109.859 51.9457 109.699 52.223C109.539 52.495 109.315 52.7057 109.027 52.855C108.739 52.999 108.395 53.071 107.995 53.071ZM112.728 53.071C112.296 53.071 111.931 52.9617 111.632 52.743C111.333 52.519 111.107 52.1937 110.952 51.767C110.803 51.335 110.728 50.8044 110.728 50.175C110.728 49.5457 110.803 49.0177 110.952 48.591C111.107 48.1644 111.333 47.8417 111.632 47.623C111.931 47.399 112.296 47.287 112.728 47.287C113.171 47.287 113.539 47.3964 113.832 47.615C114.125 47.8337 114.347 48.1564 114.496 48.583C114.651 49.0097 114.728 49.5377 114.728 50.167C114.728 50.7964 114.651 51.327 114.496 51.759C114.347 52.191 114.123 52.519 113.824 52.743C113.525 52.9617 113.16 53.071 112.728 53.071ZM112.728 52.447C113.165 52.447 113.491 52.263 113.704 51.895C113.917 51.527 114.024 50.951 114.024 50.167C114.024 49.3884 113.917 48.8177 113.704 48.455C113.496 48.0924 113.173 47.911 112.736 47.911C112.293 47.911 111.965 48.095 111.752 48.463C111.539 48.8257 111.432 49.3964 111.432 50.175C111.432 50.9484 111.539 51.5217 111.752 51.895C111.965 52.263 112.291 52.447 112.728 52.447ZM117.525 53.071C117.093 53.071 116.728 52.9617 116.429 52.743C116.13 52.519 115.904 52.1937 115.749 51.767C115.6 51.335 115.525 50.8044 115.525 50.175C115.525 49.5457 115.6 49.0177 115.749 48.591C115.904 48.1644 116.13 47.8417 116.429 47.623C116.728 47.399 117.093 47.287 117.525 47.287C117.968 47.287 118.336 47.3964 118.629 47.615C118.922 47.8337 119.144 48.1564 119.293 48.583C119.448 49.0097 119.525 49.5377 119.525 50.167C119.525 50.7964 119.448 51.327 119.293 51.759C119.144 52.191 118.92 52.519 118.621 52.743C118.322 52.9617 117.957 53.071 117.525 53.071ZM117.525 52.447C117.962 52.447 118.288 52.263 118.501 51.895C118.714 51.527 118.821 50.951 118.821 50.167C118.821 49.3884 118.714 48.8177 118.501 48.455C118.293 48.0924 117.97 47.911 117.533 47.911C117.09 47.911 116.762 48.095 116.549 48.463C116.336 48.8257 116.229 49.3964 116.229 50.175C116.229 50.9484 116.336 51.5217 116.549 51.895C116.762 52.263 117.088 52.447 117.525 52.447Z" fill="black"/>
<path d="M19.168 65.999L17.36 60.359H18.112L19.584 65.143H19.512L21.152 60.359H21.736L23.36 65.143H23.304L24.792 60.359H25.512L23.696 65.999H23.016L21.424 61.343H21.456L19.832 65.999H19.168ZM28.0223 66.071C27.5796 66.071 27.1956 65.991 26.8703 65.831C26.5503 65.6657 26.3049 65.431 26.1343 65.127C25.9636 64.8177 25.8783 64.4497 25.8783 64.023C25.8783 63.623 25.9583 63.271 26.1183 62.967C26.2783 62.6577 26.5049 62.415 26.7983 62.239C27.0916 62.063 27.4409 61.975 27.8463 61.975C28.2303 61.975 28.5556 62.0577 28.8223 62.223C29.0943 62.3884 29.2996 62.6204 29.4383 62.919C29.5823 63.2177 29.6543 63.5724 29.6543 63.983V64.215H26.4143V63.719H29.1903L29.0383 63.879C29.0383 63.4417 28.9343 63.1057 28.7263 62.871C28.5236 62.6364 28.2303 62.519 27.8463 62.519C27.5956 62.519 27.3716 62.5777 27.1743 62.695C26.9823 62.807 26.8329 62.967 26.7263 63.175C26.6196 63.383 26.5663 63.6364 26.5663 63.935V64.015C26.5663 64.335 26.6249 64.6044 26.7423 64.823C26.8596 65.0417 27.0276 65.207 27.2463 65.319C27.4649 65.431 27.7263 65.487 28.0303 65.487C28.2489 65.487 28.4703 65.4577 28.6943 65.399C28.9236 65.335 29.1369 65.223 29.3343 65.063L29.5743 65.575C29.3716 65.7457 29.1289 65.871 28.8463 65.951C28.5689 66.031 28.2943 66.071 28.0223 66.071ZM30.7492 61.095V60.303H31.6132V61.095H30.7492ZM30.8292 65.999V62.047H31.5412V65.999H30.8292ZM34.674 67.511C34.3593 67.511 34.0473 67.463 33.738 67.367C33.4287 67.2764 33.1647 67.151 32.946 66.991L33.17 66.439C33.3193 66.535 33.4767 66.6177 33.642 66.687C33.8073 66.7617 33.9753 66.815 34.146 66.847C34.322 66.8844 34.4953 66.903 34.666 66.903C35.0767 66.903 35.3967 66.799 35.626 66.591C35.8607 66.383 35.978 66.087 35.978 65.703V64.975H35.962C35.866 65.247 35.6927 65.4684 35.442 65.639C35.1913 65.8044 34.9007 65.887 34.57 65.887C34.1967 65.887 33.8713 65.807 33.594 65.647C33.3167 65.4817 33.1007 65.2524 32.946 64.959C32.7967 64.6657 32.722 64.3217 32.722 63.927C32.722 63.5377 32.7967 63.1964 32.946 62.903C33.1007 62.6097 33.3167 62.383 33.594 62.223C33.8713 62.0577 34.1967 61.975 34.57 61.975C34.9007 61.975 35.1913 62.0604 35.442 62.231C35.698 62.4017 35.874 62.6284 35.97 62.911H35.978V62.047H36.642V65.639C36.642 66.023 36.562 66.3537 36.402 66.631C36.2473 66.9137 36.0233 67.1297 35.73 67.279C35.4367 67.4337 35.0847 67.511 34.674 67.511ZM34.69 65.303C35.0793 65.303 35.386 65.1777 35.61 64.927C35.8393 64.6764 35.954 64.343 35.954 63.927C35.954 63.511 35.8393 63.1804 35.61 62.935C35.386 62.6844 35.0793 62.559 34.69 62.559C34.306 62.559 33.9993 62.6844 33.77 62.935C33.546 63.1804 33.434 63.511 33.434 63.927C33.434 64.343 33.546 64.6764 33.77 64.927C33.9993 65.1777 34.306 65.303 34.69 65.303ZM38.0636 65.999V60.359H38.7516V62.887C38.8689 62.6044 39.0529 62.383 39.3036 62.223C39.5596 62.0577 39.8476 61.975 40.1676 61.975C40.4929 61.975 40.7649 62.0337 40.9836 62.151C41.2022 62.263 41.3649 62.439 41.4716 62.679C41.5836 62.9137 41.6396 63.207 41.6396 63.559V65.999H40.9276V63.599C40.9276 63.3857 40.8956 63.2044 40.8316 63.055C40.7729 62.9057 40.6769 62.791 40.5436 62.711C40.4102 62.6257 40.2316 62.583 40.0076 62.583C39.7729 62.583 39.5622 62.6364 39.3756 62.743C39.1889 62.8497 39.0422 62.9937 38.9356 63.175C38.8289 63.3564 38.7756 63.559 38.7756 63.783V65.999H38.0636ZM44.7119 66.071C44.2373 66.071 43.8773 65.9457 43.6319 65.695C43.3919 65.4444 43.2719 65.087 43.2719 64.623V62.631H42.4719V62.047H43.2959V60.871H43.9839V62.047H45.3999V62.631H43.9839V64.559C43.9839 64.863 44.0506 65.0897 44.1839 65.239C44.3226 65.383 44.5333 65.455 44.8159 65.455C44.9279 65.455 45.0346 65.4444 45.1359 65.423C45.2426 65.4017 45.3439 65.3697 45.4399 65.327L45.5519 65.887C45.4453 65.9457 45.3146 65.991 45.1599 66.023C45.0106 66.055 44.8613 66.071 44.7119 66.071Z" fill="#CE3439"/>
<path d="M58.8357 65.999V65.471L60.8197 63.391C61.0117 63.1884 61.161 63.0044 61.2677 62.839C61.3744 62.6737 61.4517 62.5137 61.4997 62.359C61.5477 62.2044 61.5717 62.047 61.5717 61.887C61.5717 61.5724 61.4704 61.3324 61.2677 61.167C61.0704 60.9964 60.7957 60.911 60.4437 60.911C60.177 60.911 59.913 60.9644 59.6517 61.071C59.3957 61.1724 59.1504 61.335 58.9157 61.559L58.6437 60.999C58.8784 60.775 59.1584 60.6017 59.4837 60.479C59.809 60.351 60.145 60.287 60.4917 60.287C60.8597 60.287 61.177 60.351 61.4437 60.479C61.7104 60.6017 61.913 60.7804 62.0517 61.015C62.1957 61.2444 62.2677 61.5217 62.2677 61.847C62.2677 62.0124 62.249 62.175 62.2117 62.335C62.1744 62.4897 62.1157 62.6444 62.0357 62.799C61.961 62.9537 61.8624 63.1137 61.7397 63.279C61.617 63.4444 61.4677 63.6177 61.2917 63.799L59.7397 65.415V65.383H62.4997V65.999H58.8357ZM65.3766 66.071C64.9446 66.071 64.5792 65.9617 64.2806 65.743C63.9819 65.519 63.7552 65.1937 63.6006 64.767C63.4512 64.335 63.3766 63.8044 63.3766 63.175C63.3766 62.5457 63.4512 62.0177 63.6006 61.591C63.7552 61.1644 63.9819 60.8417 64.2806 60.623C64.5792 60.399 64.9446 60.287 65.3766 60.287C65.8192 60.287 66.1872 60.3964 66.4806 60.615C66.7739 60.8337 66.9952 61.1564 67.1446 61.583C67.2992 62.0097 67.3766 62.5377 67.3766 63.167C67.3766 63.7964 67.2992 64.327 67.1446 64.759C66.9952 65.191 66.7712 65.519 66.4726 65.743C66.1739 65.9617 65.8086 66.071 65.3766 66.071ZM65.3766 65.447C65.8139 65.447 66.1392 65.263 66.3526 64.895C66.5659 64.527 66.6726 63.951 66.6726 63.167C66.6726 62.3884 66.5659 61.8177 66.3526 61.455C66.1446 61.0924 65.8219 60.911 65.3846 60.911C64.9419 60.911 64.6139 61.095 64.4006 61.463C64.1872 61.8257 64.0806 62.3964 64.0806 63.175C64.0806 63.9484 64.1872 64.5217 64.4006 64.895C64.6139 65.263 64.9392 65.447 65.3766 65.447ZM69.6614 67.535C69.2828 66.959 69.0028 66.3724 68.8214 65.775C68.6454 65.1724 68.5574 64.5457 68.5574 63.895C68.5574 63.2444 68.6454 62.6204 68.8214 62.023C69.0028 61.4257 69.2828 60.8364 69.6614 60.255L70.1734 60.439C69.9708 60.8177 69.8028 61.199 69.6694 61.583C69.5361 61.967 69.4348 62.351 69.3654 62.735C69.3014 63.1137 69.2694 63.5004 69.2694 63.895C69.2694 64.2844 69.3014 64.671 69.3654 65.055C69.4348 65.439 69.5361 65.8204 69.6694 66.199C69.8028 66.583 69.9708 66.967 70.1734 67.351L69.6614 67.535ZM71.2929 65.999V60.359H72.0049V62.903H72.0369L74.7169 60.359H75.6209L72.5089 63.311L72.5569 62.919L75.8129 65.999H74.8609L72.0369 63.351H72.0049V65.999H71.2929ZM78.1428 67.511C77.8281 67.511 77.5161 67.463 77.2068 67.367C76.8974 67.2764 76.6334 67.151 76.4148 66.991L76.6388 66.439C76.7881 66.535 76.9454 66.6177 77.1108 66.687C77.2761 66.7617 77.4441 66.815 77.6148 66.847C77.7908 66.8844 77.9641 66.903 78.1348 66.903C78.5454 66.903 78.8654 66.799 79.0948 66.591C79.3294 66.383 79.4468 66.087 79.4468 65.703V64.975H79.4308C79.3348 65.247 79.1614 65.4684 78.9108 65.639C78.6601 65.8044 78.3694 65.887 78.0388 65.887C77.6654 65.887 77.3401 65.807 77.0628 65.647C76.7854 65.4817 76.5694 65.2524 76.4148 64.959C76.2654 64.6657 76.1908 64.3217 76.1908 63.927C76.1908 63.5377 76.2654 63.1964 76.4148 62.903C76.5694 62.6097 76.7854 62.383 77.0628 62.223C77.3401 62.0577 77.6654 61.975 78.0388 61.975C78.3694 61.975 78.6601 62.0604 78.9108 62.231C79.1668 62.4017 79.3428 62.6284 79.4388 62.911H79.4468V62.047H80.1108V65.639C80.1108 66.023 80.0308 66.3537 79.8708 66.631C79.7161 66.9137 79.4921 67.1297 79.1988 67.279C78.9054 67.4337 78.5534 67.511 78.1428 67.511ZM78.1588 65.303C78.5481 65.303 78.8548 65.1777 79.0788 64.927C79.3081 64.6764 79.4228 64.343 79.4228 63.927C79.4228 63.511 79.3081 63.1804 79.0788 62.935C78.8548 62.6844 78.5481 62.559 78.1588 62.559C77.7748 62.559 77.4681 62.6844 77.2388 62.935C77.0148 63.1804 76.9028 63.511 76.9028 63.927C76.9028 64.343 77.0148 64.6764 77.2388 64.927C77.4681 65.1777 77.7748 65.303 78.1588 65.303ZM82.9883 66.071C82.7696 66.071 82.5536 66.0497 82.3403 66.007C82.1323 65.9697 81.9376 65.9164 81.7563 65.847C81.5803 65.7724 81.4283 65.6817 81.3003 65.575L81.5323 65.071C81.6656 65.1724 81.8123 65.255 81.9723 65.319C82.1376 65.383 82.3056 65.431 82.4763 65.463C82.6523 65.4897 82.8203 65.503 82.9803 65.503C83.311 65.503 83.5643 65.4524 83.7403 65.351C83.9216 65.2497 84.0123 65.1084 84.0123 64.927C84.0123 64.7724 83.959 64.655 83.8523 64.575C83.751 64.4897 83.5803 64.4257 83.3403 64.383L82.5163 64.239C82.1483 64.1697 81.871 64.0444 81.6843 63.863C81.503 63.6817 81.4123 63.4444 81.4123 63.151C81.4123 62.9164 81.4763 62.711 81.6043 62.535C81.7376 62.359 81.927 62.223 82.1723 62.127C82.4176 62.0257 82.711 61.975 83.0523 61.975C83.239 61.975 83.4283 61.9937 83.6203 62.031C83.8176 62.0684 83.999 62.1244 84.1643 62.199C84.335 62.2684 84.4736 62.3564 84.5803 62.463L84.3403 62.967C84.2336 62.8657 84.1056 62.7857 83.9563 62.727C83.8123 62.663 83.6603 62.6177 83.5003 62.591C83.3456 62.559 83.1936 62.543 83.0443 62.543C82.735 62.543 82.495 62.5964 82.3243 62.703C82.1536 62.8044 82.0683 62.9484 82.0683 63.135C82.0683 63.2844 82.1163 63.4017 82.2123 63.487C82.3136 63.5724 82.4763 63.6364 82.7003 63.679L83.5003 63.823C83.895 63.8977 84.1883 64.023 84.3803 64.199C84.5723 64.3697 84.6683 64.607 84.6683 64.911C84.6683 65.1457 84.599 65.351 84.4603 65.527C84.3216 65.6977 84.127 65.831 83.8763 65.927C83.6256 66.023 83.3296 66.071 82.9883 66.071ZM85.9408 67.535L85.4208 67.351C85.6288 66.9617 85.7995 66.575 85.9328 66.191C86.0661 65.8124 86.1648 65.4337 86.2288 65.055C86.2928 64.671 86.3248 64.2844 86.3248 63.895C86.3248 63.5057 86.2928 63.1217 86.2288 62.743C86.1648 62.359 86.0661 61.975 85.9328 61.591C85.7995 61.207 85.6288 60.823 85.4208 60.439L85.9408 60.255C86.3141 60.831 86.5888 61.4204 86.7648 62.023C86.9461 62.6204 87.0368 63.2444 87.0368 63.895C87.0368 64.5404 86.9461 65.1644 86.7648 65.767C86.5888 66.3644 86.3141 66.9537 85.9408 67.535Z" fill="black"/>
<defs>
<filter id="filter0_d_271_615" x="0.0999999" y="24" width="135.8" height="57.9" filterUnits="userSpaceOnUse" color-interpolation-filters="sRGB">
<feFlood flood-opacity="0" result="BackgroundImageFix"/>
<feColorMatrix in="SourceAlpha" type="matrix" values="0 0 0 0 0 0 0 0 0 0 0 0 0 0 0 0 0 0 127 0" result="hardAlpha"/>
<feOffset dy="4"/>
<feGaussianBlur stdDeviation="1.95"/>
<feComposite in2="hardAlpha" operator="out"/>
<feColorMatrix type="matrix" values="0 0 0 0 0 0 0 0 0 0 0 0 0 0 0 0 0 0 0.2 0"/>
<feBlend mode="normal" in2="BackgroundImageFix" result="effect1_dropShadow_271_615"/>
<feBlend mode="normal" in="SourceGraphic" in2="effect1_dropShadow_271_615" result="shape"/>
</filter>
<clipPath id="clip0_271_615">
<rect width="21.8182" height="21.8173" fill="white" transform="translate(55.6367 2.42383)"/>
</clipPath>
</defs>
</svg>
