<svg width="91" height="80" viewBox="0 0 91 80" fill="none" xmlns="http://www.w3.org/2000/svg">
<g filter="url(#filter0_d_236_889)">
<rect x="4" y="24" width="82.4242" height="47.2727" rx="2" fill="white"/>
<rect x="4.25" y="24.25" width="81.9242" height="46.7727" rx="1.75" stroke="white" stroke-width="0.5"/>
</g>
<rect x="29.2119" width="30.303" height="30.303" rx="3" fill="#CB3335"/>
<g clip-path="url(#clip0_236_889)">
<path d="M52.0406 17.8789L49.3891 12.5759H50.1209C50.2616 12.5759 50.3965 12.52 50.4959 12.4206C50.5954 12.3211 50.6512 12.1863 50.6512 12.0456C50.6512 11.905 50.5954 11.7701 50.4959 11.6706C50.3965 11.5712 50.2616 11.5153 50.1209 11.5153H49.2831C48.7134 10.8948 48.0268 10.3927 47.2628 10.0378C46.4988 9.68289 45.6723 9.48218 44.8306 9.44713L44.8179 9.3941C44.8179 9.11281 44.7062 8.84304 44.5073 8.64414C44.3084 8.44524 44.0386 8.3335 43.7573 8.3335C43.476 8.3335 43.2062 8.44524 43.0073 8.64414C42.8084 8.84304 42.6967 9.11281 42.6967 9.3941V9.44713C40.9826 9.51841 39.365 10.26 38.1923 11.5121L37.3937 11.5153C37.253 11.5153 37.1181 11.5712 37.0187 11.6706C36.9192 11.7701 36.8634 11.905 36.8634 12.0456C36.8634 12.1863 36.9192 12.3211 37.0187 12.4206C37.1181 12.52 37.253 12.5759 37.3937 12.5759H38.1255L35.474 17.8789H35.2725C35.2725 19.0456 36.6937 20.0002 38.4543 20.0002C40.2149 20.0002 41.6361 19.0456 41.6361 17.8789H41.4346L38.73 12.4805C38.7971 12.4411 38.8546 12.3875 38.8987 12.3235C39.3677 11.7723 39.948 11.3266 40.6015 11.0155C41.2549 10.7043 41.9668 10.5349 42.6903 10.5183L42.6967 22.1214H41.6361V23.182H39.5149V24.2426H47.9997V23.182H45.8785V22.1214H44.8179V10.5183C45.5333 10.5319 46.2373 10.6992 46.8823 11.0091C47.5272 11.3189 48.0979 11.764 48.5555 12.3139C48.6045 12.3971 48.6753 12.4653 48.7602 12.5112L46.08 17.8789H45.8785C45.8785 19.0456 47.2997 20.0002 49.0603 20.0002C50.8209 20.0002 52.2422 19.0456 52.2422 17.8789H52.0406ZM40.5755 17.8789H36.3331L38.4543 13.7002L40.5755 17.8789ZM46.9391 17.8789L49.0603 13.7002L51.1815 17.8789H46.9391Z" fill="white"/>
</g>
<rect width="47" height="24" transform="translate(21 36)" fill="white"/>
<path d="M32.168 44L30.36 38.36H31.112L32.584 43.144H32.512L34.152 38.36H34.736L36.36 43.144H36.304L37.792 38.36H38.512L36.696 44H36.016L34.424 39.344H34.456L32.832 44H32.168ZM41.0223 44.072C40.5796 44.072 40.1956 43.992 39.8703 43.832C39.5503 43.6667 39.3049 43.432 39.1343 43.128C38.9636 42.8187 38.8783 42.4507 38.8783 42.024C38.8783 41.624 38.9583 41.272 39.1183 40.968C39.2783 40.6587 39.5049 40.416 39.7983 40.24C40.0916 40.064 40.4409 39.976 40.8463 39.976C41.2303 39.976 41.5556 40.0587 41.8223 40.224C42.0943 40.3893 42.2996 40.6213 42.4383 40.92C42.5823 41.2187 42.6543 41.5733 42.6543 41.984V42.216H39.4143V41.72H42.1903L42.0383 41.88C42.0383 41.4427 41.9343 41.1067 41.7263 40.872C41.5236 40.6373 41.2303 40.52 40.8463 40.52C40.5956 40.52 40.3716 40.5787 40.1743 40.696C39.9823 40.808 39.8329 40.968 39.7263 41.176C39.6196 41.384 39.5663 41.6373 39.5663 41.936V42.016C39.5663 42.336 39.6249 42.6053 39.7423 42.824C39.8596 43.0427 40.0276 43.208 40.2463 43.32C40.4649 43.432 40.7263 43.488 41.0303 43.488C41.2489 43.488 41.4703 43.4587 41.6943 43.4C41.9236 43.336 42.1369 43.224 42.3343 43.064L42.5743 43.576C42.3716 43.7467 42.1289 43.872 41.8463 43.952C41.5689 44.032 41.2943 44.072 41.0223 44.072ZM43.7492 39.096V38.304H44.6132V39.096H43.7492ZM43.8292 44V40.048H44.5412V44H43.8292ZM47.674 45.512C47.3593 45.512 47.0473 45.464 46.738 45.368C46.4287 45.2773 46.1647 45.152 45.946 44.992L46.17 44.44C46.3193 44.536 46.4767 44.6187 46.642 44.688C46.8073 44.7627 46.9753 44.816 47.146 44.848C47.322 44.8853 47.4953 44.904 47.666 44.904C48.0767 44.904 48.3967 44.8 48.626 44.592C48.8607 44.384 48.978 44.088 48.978 43.704V42.976H48.962C48.866 43.248 48.6927 43.4693 48.442 43.64C48.1913 43.8053 47.9007 43.888 47.57 43.888C47.1967 43.888 46.8713 43.808 46.594 43.648C46.3167 43.4827 46.1007 43.2533 45.946 42.96C45.7967 42.6667 45.722 42.3227 45.722 41.928C45.722 41.5387 45.7967 41.1973 45.946 40.904C46.1007 40.6107 46.3167 40.384 46.594 40.224C46.8713 40.0587 47.1967 39.976 47.57 39.976C47.9007 39.976 48.1913 40.0613 48.442 40.232C48.698 40.4027 48.874 40.6293 48.97 40.912H48.978V40.048H49.642V43.64C49.642 44.024 49.562 44.3547 49.402 44.632C49.2473 44.9147 49.0233 45.1307 48.73 45.28C48.4367 45.4347 48.0847 45.512 47.674 45.512ZM47.69 43.304C48.0793 43.304 48.386 43.1787 48.61 42.928C48.8393 42.6773 48.954 42.344 48.954 41.928C48.954 41.512 48.8393 41.1813 48.61 40.936C48.386 40.6853 48.0793 40.56 47.69 40.56C47.306 40.56 46.9993 40.6853 46.77 40.936C46.546 41.1813 46.434 41.512 46.434 41.928C46.434 42.344 46.546 42.6773 46.77 42.928C46.9993 43.1787 47.306 43.304 47.69 43.304ZM51.0636 44V38.36H51.7516V40.888C51.8689 40.6053 52.0529 40.384 52.3036 40.224C52.5596 40.0587 52.8476 39.976 53.1676 39.976C53.4929 39.976 53.7649 40.0347 53.9836 40.152C54.2022 40.264 54.3649 40.44 54.4716 40.68C54.5836 40.9147 54.6396 41.208 54.6396 41.56V44H53.9276V41.6C53.9276 41.3867 53.8956 41.2053 53.8316 41.056C53.7729 40.9067 53.6769 40.792 53.5436 40.712C53.4102 40.6267 53.2316 40.584 53.0076 40.584C52.7729 40.584 52.5622 40.6373 52.3756 40.744C52.1889 40.8507 52.0422 40.9947 51.9356 41.176C51.8289 41.3573 51.7756 41.56 51.7756 41.784V44H51.0636ZM57.7119 44.072C57.2373 44.072 56.8773 43.9467 56.6319 43.696C56.3919 43.4453 56.2719 43.088 56.2719 42.624V40.632H55.4719V40.048H56.2959V38.872H56.9839V40.048H58.3999V40.632H56.9839V42.56C56.9839 42.864 57.0506 43.0907 57.1839 43.24C57.3226 43.384 57.5333 43.456 57.8159 43.456C57.9279 43.456 58.0346 43.4453 58.1359 43.424C58.2426 43.4027 58.3439 43.3707 58.4399 43.328L58.5519 43.888C58.4453 43.9467 58.3146 43.992 58.1599 44.024C58.0106 44.056 57.8613 44.072 57.7119 44.072Z" fill="#CE3439"/>
<path d="M22.236 57V56.392H23.78V51.928L24.156 51.984L22.516 53.04L22.196 52.488L23.964 51.36H24.484V56.392H25.908V57H22.236ZM28.6969 57.072C28.0675 57.072 27.5715 56.936 27.2089 56.664C26.8462 56.3867 26.6649 56.0027 26.6649 55.512C26.6649 55.2613 26.7129 55.04 26.8089 54.848C26.9102 54.6507 27.0489 54.4907 27.2249 54.368C27.4062 54.24 27.6142 54.1547 27.8489 54.112V54.12C27.6462 54.072 27.4649 53.984 27.3049 53.856C27.1502 53.728 27.0275 53.5733 26.9369 53.392C26.8462 53.2107 26.8009 53.0107 26.8009 52.792C26.8009 52.3227 26.9715 51.9547 27.3129 51.688C27.6595 51.4213 28.1209 51.288 28.6969 51.288C29.2729 51.288 29.7315 51.4213 30.0729 51.688C30.4195 51.9547 30.5929 52.3227 30.5929 52.792C30.5929 53.0053 30.5475 53.2053 30.4569 53.392C30.3662 53.5733 30.2409 53.728 30.0809 53.856C29.9262 53.984 29.7449 54.072 29.5369 54.12V54.112C29.7662 54.1493 29.9689 54.232 30.1449 54.36C30.3262 54.488 30.4675 54.6507 30.5689 54.848C30.6755 55.04 30.7289 55.2613 30.7289 55.512C30.7289 56.0027 30.5475 56.3867 30.1849 56.664C29.8275 56.936 29.3315 57.072 28.6969 57.072ZM28.6969 56.472C29.1395 56.472 29.4755 56.3867 29.7049 56.216C29.9395 56.0453 30.0569 55.7947 30.0569 55.464C30.0569 55.1333 29.9395 54.88 29.7049 54.704C29.4755 54.528 29.1395 54.44 28.6969 54.44C28.2542 54.44 27.9155 54.528 27.6809 54.704C27.4515 54.88 27.3369 55.1333 27.3369 55.464C27.3369 55.7947 27.4515 56.0453 27.6809 56.216C27.9155 56.3867 28.2542 56.472 28.6969 56.472ZM28.6969 53.84C29.0809 53.84 29.3822 53.7547 29.6009 53.584C29.8195 53.408 29.9289 53.1653 29.9289 52.856C29.9289 52.552 29.8195 52.3147 29.6009 52.144C29.3822 51.968 29.0809 51.88 28.6969 51.88C28.3182 51.88 28.0195 51.968 27.8009 52.144C27.5822 52.3147 27.4729 52.552 27.4729 52.856C27.4729 53.1653 27.5822 53.408 27.8009 53.584C28.0195 53.7547 28.3182 53.84 28.6969 53.84ZM31.6698 57V56.12H32.5818V57H31.6698ZM35.5563 57.072C35.1243 57.072 34.7589 56.9627 34.4603 56.744C34.1616 56.52 33.9349 56.1947 33.7803 55.768C33.6309 55.336 33.5563 54.8053 33.5563 54.176C33.5563 53.5467 33.6309 53.0187 33.7803 52.592C33.9349 52.1653 34.1616 51.8427 34.4603 51.624C34.7589 51.4 35.1243 51.288 35.5563 51.288C35.9989 51.288 36.3669 51.3973 36.6603 51.616C36.9536 51.8347 37.1749 52.1573 37.3243 52.584C37.4789 53.0107 37.5563 53.5387 37.5563 54.168C37.5563 54.7973 37.4789 55.328 37.3243 55.76C37.1749 56.192 36.9509 56.52 36.6523 56.744C36.3536 56.9627 35.9883 57.072 35.5563 57.072ZM35.5563 56.448C35.9936 56.448 36.3189 56.264 36.5323 55.896C36.7456 55.528 36.8523 54.952 36.8523 54.168C36.8523 53.3893 36.7456 52.8187 36.5323 52.456C36.3243 52.0933 36.0016 51.912 35.5643 51.912C35.1216 51.912 34.7936 52.096 34.5803 52.464C34.3669 52.8267 34.2603 53.3973 34.2603 54.176C34.2603 54.9493 34.3669 55.5227 34.5803 55.896C34.7936 56.264 35.1189 56.448 35.5563 56.448ZM40.0011 57.072C39.7931 57.072 39.5905 57.048 39.3931 57C39.2011 56.952 39.0171 56.88 38.8411 56.784C38.6705 56.6827 38.5105 56.56 38.3611 56.416L38.6331 55.872C38.8518 56.0907 39.0731 56.2427 39.2971 56.328C39.5211 56.408 39.7585 56.448 40.0091 56.448C40.2705 56.448 40.4998 56.4 40.6971 56.304C40.8998 56.2027 41.0705 56.056 41.2091 55.864C41.3478 55.6667 41.4518 55.424 41.5211 55.136C41.5905 54.848 41.6251 54.5173 41.6251 54.144V53.68H41.6171C41.5745 53.9307 41.4785 54.1493 41.3291 54.336C41.1851 54.5173 41.0065 54.656 40.7931 54.752C40.5798 54.848 40.3451 54.896 40.0891 54.896C39.7531 54.896 39.4545 54.8213 39.1931 54.672C38.9318 54.5227 38.7265 54.3147 38.5771 54.048C38.4331 53.7813 38.3611 53.472 38.3611 53.12C38.3611 52.768 38.4385 52.4533 38.5931 52.176C38.7478 51.8987 38.9611 51.6827 39.2331 51.528C39.5051 51.368 39.8171 51.288 40.1691 51.288C40.6278 51.288 41.0145 51.3973 41.3291 51.616C41.6438 51.8293 41.8811 52.1413 42.0411 52.552C42.2011 52.9627 42.2811 53.464 42.2811 54.056C42.2811 54.696 42.1905 55.2427 42.0091 55.696C41.8278 56.144 41.5665 56.4853 41.2251 56.72C40.8891 56.9547 40.4811 57.072 40.0011 57.072ZM40.2091 54.304C40.4438 54.304 40.6518 54.2533 40.8331 54.152C41.0145 54.0507 41.1558 53.9093 41.2571 53.728C41.3585 53.5467 41.4091 53.3387 41.4091 53.104C41.4091 52.8587 41.3585 52.6453 41.2571 52.464C41.1611 52.2827 41.0225 52.144 40.8411 52.048C40.6598 51.9467 40.4465 51.896 40.2011 51.896C39.9665 51.896 39.7611 51.9467 39.5851 52.048C39.4091 52.1493 39.2705 52.2907 39.1691 52.472C39.0731 52.6533 39.0251 52.864 39.0251 53.104C39.0251 53.3387 39.0758 53.5467 39.1771 53.728C39.2785 53.9093 39.4171 54.0507 39.5931 54.152C39.7691 54.2533 39.9745 54.304 40.2091 54.304ZM46.8724 58.536C46.4937 57.96 46.2137 57.3733 46.0324 56.776C45.8564 56.1733 45.7684 55.5467 45.7684 54.896C45.7684 54.2453 45.8564 53.6213 46.0324 53.024C46.2137 52.4267 46.4937 51.8373 46.8724 51.256L47.3844 51.44C47.1817 51.8187 47.0137 52.2 46.8804 52.584C46.747 52.968 46.6457 53.352 46.5764 53.736C46.5124 54.1147 46.4804 54.5013 46.4804 54.896C46.4804 55.2853 46.5124 55.672 46.5764 56.056C46.6457 56.44 46.747 56.8213 46.8804 57.2C47.0137 57.584 47.1817 57.968 47.3844 58.352L46.8724 58.536ZM50.9936 57.072C50.4069 57.072 49.9056 56.9573 49.4896 56.728C49.0736 56.4987 48.7536 56.1707 48.5296 55.744C48.3109 55.312 48.2016 54.7893 48.2016 54.176C48.2016 53.5733 48.3082 53.0587 48.5216 52.632C48.7402 52.2 49.0522 51.8693 49.4576 51.64C49.8629 51.4053 50.3482 51.288 50.9136 51.288C51.1909 51.288 51.4549 51.3147 51.7056 51.368C51.9562 51.4213 52.1882 51.5013 52.4016 51.608C52.6149 51.7093 52.7962 51.8373 52.9456 51.992L52.6736 52.544C52.4229 52.3253 52.1536 52.1707 51.8656 52.08C51.5776 51.984 51.2576 51.936 50.9056 51.936C50.2869 51.936 49.8042 52.128 49.4576 52.512C49.1162 52.8907 48.9456 53.4453 48.9456 54.176C48.9456 54.9333 49.1216 55.5013 49.4736 55.88C49.8309 56.2533 50.3482 56.44 51.0256 56.44C51.3242 56.44 51.6016 56.416 51.8576 56.368C52.1189 56.32 52.3562 56.2507 52.5696 56.16L52.3616 56.576V54.616H50.9536V54.008H53.0096V56.672C52.8602 56.7467 52.6736 56.816 52.4496 56.88C52.2256 56.9387 51.9882 56.984 51.7376 57.016C51.4869 57.0533 51.2389 57.072 50.9936 57.072ZM54.4854 57V53.048H55.1334V53.96H55.1414C55.2374 53.6667 55.4054 53.4373 55.6454 53.272C55.8854 53.1013 56.1788 53.0053 56.5254 52.984L56.8854 52.968L56.9494 53.616L56.3734 53.664C56.0054 53.696 55.7174 53.8187 55.5094 54.032C55.3014 54.24 55.1974 54.5013 55.1974 54.816V57H54.4854ZM57.8452 57V53.048H58.5012V53.912C58.5705 53.736 58.6665 53.5787 58.7892 53.44C58.9172 53.296 59.0692 53.184 59.2452 53.104C59.4265 53.0187 59.6239 52.976 59.8372 52.976C60.1839 52.976 60.4692 53.0613 60.6932 53.232C60.9172 53.4027 61.0559 53.6267 61.1092 53.904H61.1012C61.2079 53.6427 61.3759 53.424 61.6052 53.248C61.8399 53.0667 62.1332 52.976 62.4852 52.976C62.7839 52.976 63.0372 53.0347 63.2452 53.152C63.4532 53.264 63.6105 53.4373 63.7172 53.672C63.8239 53.9067 63.8772 54.2027 63.8772 54.56V57H63.1732V54.608C63.1732 54.2667 63.1119 54.0107 62.9892 53.84C62.8665 53.6693 62.6479 53.584 62.3332 53.584C62.0985 53.584 61.8959 53.6373 61.7252 53.744C61.5599 53.8453 61.4319 53.9893 61.3412 54.176C61.2559 54.3573 61.2132 54.5627 61.2132 54.792V57H60.5092V54.608C60.5092 54.272 60.4399 54.0187 60.3012 53.848C60.1625 53.672 59.9519 53.584 59.6692 53.584C59.4399 53.584 59.2399 53.6427 59.0692 53.76C58.9039 53.872 58.7759 54.0187 58.6852 54.2C58.5945 54.3813 58.5492 54.5733 58.5492 54.776V57H57.8452ZM65.4018 58.536L64.8818 58.352C65.0898 57.9627 65.2604 57.576 65.3938 57.192C65.5271 56.8133 65.6258 56.4347 65.6898 56.056C65.7538 55.672 65.7858 55.2853 65.7858 54.896C65.7858 54.5067 65.7538 54.1227 65.6898 53.744C65.6258 53.36 65.5271 52.976 65.3938 52.592C65.2604 52.208 65.0898 51.824 64.8818 51.44L65.4018 51.256C65.7751 51.832 66.0498 52.4213 66.2258 53.024C66.4071 53.6213 66.4978 54.2453 66.4978 54.896C66.4978 55.5413 66.4071 56.1653 66.2258 56.768C66.0498 57.3653 65.7751 57.9547 65.4018 58.536Z" fill="black"/>
<defs>
<filter id="filter0_d_236_889" x="0.0999999" y="24" width="90.2238" height="55.1729" filterUnits="userSpaceOnUse" color-interpolation-filters="sRGB">
<feFlood flood-opacity="0" result="BackgroundImageFix"/>
<feColorMatrix in="SourceAlpha" type="matrix" values="0 0 0 0 0 0 0 0 0 0 0 0 0 0 0 0 0 0 127 0" result="hardAlpha"/>
<feOffset dy="4"/>
<feGaussianBlur stdDeviation="1.95"/>
<feComposite in2="hardAlpha" operator="out"/>
<feColorMatrix type="matrix" values="0 0 0 0 0 0 0 0 0 0 0 0 0 0 0 0 0 0 0.2 0"/>
<feBlend mode="normal" in2="BackgroundImageFix" result="effect1_dropShadow_236_889"/>
<feBlend mode="normal" in="SourceGraphic" in2="effect1_dropShadow_236_889" result="shape"/>
</filter>
<clipPath id="clip0_236_889">
<rect width="16.9697" height="16.9697" fill="white" transform="translate(35.2725 7.27295)"/>
</clipPath>
</defs>
</svg>
