<svg width="137" height="80" viewBox="0 0 137 80" fill="none" xmlns="http://www.w3.org/2000/svg">
<g filter="url(#filter0_d_236_898)">
<rect x="4" y="24" width="128.485" height="47.2727" rx="2" fill="white"/>
<rect x="4.25" y="24.25" width="127.985" height="46.7727" rx="1.75" stroke="white" stroke-width="0.5"/>
</g>
<rect x="52" width="30.303" height="30.303" rx="3" fill="#CB3335"/>
<g clip-path="url(#clip0_236_898)">
<path fill-rule="evenodd" clip-rule="evenodd" d="M66.6309 2.43223C66.7131 2.42711 66.7992 2.44075 66.8226 2.46206C66.8461 2.48336 67.4887 2.82129 68.2502 3.21334C69.0121 3.60496 69.9611 4.09373 70.3596 4.29913C70.758 4.5041 72.4745 5.3862 74.1735 6.25936C75.8729 7.13208 77.2958 7.87782 77.3363 7.91618C77.4045 7.98095 77.4096 8.33848 77.4121 13.3336C77.4143 17.6116 77.4036 18.697 77.3601 18.7592C77.3303 18.8018 74.9184 20.0534 72.0002 21.5402C69.082 23.0274 66.6564 24.244 66.6096 24.244C66.5627 24.244 66.3134 24.1324 66.0556 23.9964C65.7978 23.8601 63.3833 22.6183 60.6901 21.2368C56.6546 19.1662 55.7793 18.7017 55.7133 18.5964C55.6515 18.498 55.637 18.4102 55.6498 18.2129C55.6591 18.0723 55.7001 15.7042 55.7405 12.9501C55.7814 10.196 55.8322 7.89487 55.8535 7.83649C55.8859 7.74743 56.759 7.297 61.187 5.08578C64.7252 3.31859 66.5312 2.43862 66.6309 2.43223ZM56.906 7.98223C56.9111 7.99586 57.5716 8.35595 58.3745 8.78251C59.1773 9.20907 59.8822 9.58535 59.9405 9.61902C60.0428 9.67825 60.2359 9.58279 64.8518 7.1926C67.4942 5.82385 69.642 4.69203 69.6245 4.67669C69.607 4.66135 68.9359 4.31149 68.133 3.89899C67.3302 3.48649 66.6496 3.15027 66.6202 3.15155C66.5908 3.15282 64.3911 4.23478 61.732 5.55581C59.0729 6.87683 56.9013 7.96859 56.906 7.98223ZM63.8495 8.45439C62.1692 9.32157 60.7937 10.0405 60.7937 10.0524C60.7932 10.0639 61.2002 10.2923 61.6984 10.5595L62.6039 11.0449C63.0662 10.8084 65.2212 9.68848 67.6907 8.40368C70.1601 7.1193 72.183 6.04885 72.1864 6.02541C72.1894 6.00197 71.7952 5.77655 71.3099 5.5247C70.8249 5.27285 70.4222 5.06703 70.415 5.06788C70.4082 5.06873 69.6151 5.47612 68.6533 5.97342C67.6915 6.47072 65.5297 7.5872 63.8495 8.45439ZM66.0888 9.97569C64.5837 10.7559 63.3513 11.4092 63.3509 11.4267C63.3501 11.4442 64.0689 11.8422 64.9476 12.3109L66.5457 13.1632C74.026 9.33436 76.2305 8.19828 76.2709 8.16802C76.3344 8.12072 76.1295 8.00353 74.6827 7.2612C73.7687 6.79245 73.0072 6.40637 72.9901 6.40339C72.9731 6.40041 72.0292 6.88365 70.8922 7.47726C69.7553 8.07044 67.5939 9.19501 66.0888 9.97569ZM56.4074 13.3763C56.3538 16.8514 56.3457 18.2261 56.3789 18.2606C56.404 18.2866 56.8949 18.5483 57.4689 18.8423C58.0434 19.1359 60.258 20.2707 62.3908 21.3638C64.5236 22.4564 66.2729 23.3453 66.2785 23.3385C66.2836 23.3321 66.2699 21.169 66.2478 18.5325C66.2256 15.8956 66.2022 13.7355 66.1954 13.7317C66.189 13.7278 65.4547 13.3324 64.5641 12.8534L62.9448 11.9824C62.903 12.1873 62.8792 12.755 62.8643 13.3763C62.8408 14.3811 62.8293 14.5175 62.7594 14.6121C62.7069 14.6831 62.6323 14.7224 62.5357 14.7301C62.4189 14.7399 62.1518 14.6159 61.1572 14.0909C60.4787 13.7329 59.8796 13.4065 59.8255 13.3656L59.7275 13.291L59.7062 10.2467C57.8235 9.23507 57.0995 8.84643 56.8822 8.73052C56.6648 8.61419 56.4859 8.52385 56.4846 8.52939C56.4837 8.53492 56.4488 10.7159 56.4074 13.3763ZM66.9151 13.7253C66.8959 13.7325 66.8959 15.9007 66.9151 18.5432C66.9347 21.1856 66.9603 23.3487 66.9718 23.3491C66.9833 23.35 69.1886 22.2309 71.8724 20.8622L76.7516 18.374C76.7682 10.868 76.7589 8.69004 76.741 8.69174C76.7235 8.69387 74.5135 9.82399 71.8297 11.2038C69.1459 12.5836 66.9347 13.718 66.9151 13.7253ZM60.3675 12.9288C61.6911 13.6221 62.0981 13.8292 62.1266 13.8356C62.1641 13.8442 62.1863 13.655 62.2097 13.1325C62.2276 12.7392 62.2417 12.2351 62.2417 12.0126V11.6078C60.8546 10.8646 60.4327 10.649 60.4093 10.649C60.382 10.649 60.3667 11.0572 60.3671 11.7889L60.3675 12.9288Z" fill="white"/>
</g>
<path d="M17.832 37V31.36H20.152C20.5573 31.36 20.9013 31.4267 21.184 31.56C21.4667 31.6933 21.6827 31.888 21.832 32.144C21.9867 32.3947 22.064 32.6987 22.064 33.056C22.064 33.4133 21.9867 33.72 21.832 33.976C21.6827 34.232 21.464 34.4293 21.176 34.568C20.8933 34.7067 20.552 34.776 20.152 34.776H18.544V37H17.832ZM18.544 34.168H20.048C20.4747 34.168 20.7973 34.0773 21.016 33.896C21.2347 33.7093 21.344 33.432 21.344 33.064C21.344 32.6907 21.2347 32.416 21.016 32.24C20.7973 32.0587 20.4747 31.968 20.048 31.968H18.544V34.168ZM22.7242 32.096V31.304H23.5882V32.096H22.7242ZM22.8042 37V33.048H23.5162V37H22.8042ZM26.441 37.072C25.9983 37.072 25.6143 36.992 25.289 36.832C24.969 36.6667 24.7237 36.432 24.553 36.128C24.3823 35.8187 24.297 35.4507 24.297 35.024C24.297 34.624 24.377 34.272 24.537 33.968C24.697 33.6587 24.9237 33.416 25.217 33.24C25.5103 33.064 25.8597 32.976 26.265 32.976C26.649 32.976 26.9743 33.0587 27.241 33.224C27.513 33.3893 27.7183 33.6213 27.857 33.92C28.001 34.2187 28.073 34.5733 28.073 34.984V35.216H24.833V34.72H27.609L27.457 34.88C27.457 34.4427 27.353 34.1067 27.145 33.872C26.9423 33.6373 26.649 33.52 26.265 33.52C26.0143 33.52 25.7903 33.5787 25.593 33.696C25.401 33.808 25.2517 33.968 25.145 34.176C25.0383 34.384 24.985 34.6373 24.985 34.936V35.016C24.985 35.336 25.0437 35.6053 25.161 35.824C25.2783 36.0427 25.4463 36.208 25.665 36.32C25.8837 36.432 26.145 36.488 26.449 36.488C26.6677 36.488 26.889 36.4587 27.113 36.4C27.3423 36.336 27.5557 36.224 27.753 36.064L27.993 36.576C27.7903 36.7467 27.5477 36.872 27.265 36.952C26.9877 37.032 26.713 37.072 26.441 37.072ZM30.6079 37.072C30.2026 37.072 29.8506 36.9867 29.5519 36.816C29.2533 36.6453 29.0213 36.408 28.8559 36.104C28.6906 35.7947 28.6079 35.432 28.6079 35.016C28.6079 34.6 28.6906 34.24 28.8559 33.936C29.0213 33.6267 29.2533 33.3893 29.5519 33.224C29.8559 33.0587 30.2106 32.976 30.6159 32.976C30.8879 32.976 31.1466 33.0213 31.3919 33.112C31.6373 33.2027 31.8399 33.3253 31.9999 33.48L31.7519 34.008C31.5973 33.8693 31.4239 33.7653 31.2319 33.696C31.0399 33.6213 30.8533 33.584 30.6719 33.584C30.2559 33.584 29.9279 33.7093 29.6879 33.96C29.4479 34.2107 29.3279 34.5653 29.3279 35.024C29.3279 35.4773 29.4479 35.832 29.6879 36.088C29.9279 36.3387 30.2533 36.464 30.6639 36.464C30.8506 36.464 31.0373 36.4293 31.2239 36.36C31.4159 36.2853 31.5866 36.1813 31.7359 36.048L31.9839 36.576C31.8293 36.7307 31.6293 36.8533 31.3839 36.944C31.1386 37.0293 30.8799 37.072 30.6079 37.072ZM34.3363 37.072C33.8936 37.072 33.5096 36.992 33.1843 36.832C32.8643 36.6667 32.619 36.432 32.4483 36.128C32.2776 35.8187 32.1923 35.4507 32.1923 35.024C32.1923 34.624 32.2723 34.272 32.4323 33.968C32.5923 33.6587 32.819 33.416 33.1123 33.24C33.4056 33.064 33.755 32.976 34.1603 32.976C34.5443 32.976 34.8696 33.0587 35.1363 33.224C35.4083 33.3893 35.6136 33.6213 35.7523 33.92C35.8963 34.2187 35.9683 34.5733 35.9683 34.984V35.216H32.7283V34.72H35.5043L35.3523 34.88C35.3523 34.4427 35.2483 34.1067 35.0403 33.872C34.8376 33.6373 34.5443 33.52 34.1603 33.52C33.9096 33.52 33.6856 33.5787 33.4883 33.696C33.2963 33.808 33.147 33.968 33.0403 34.176C32.9336 34.384 32.8803 34.6373 32.8803 34.936V35.016C32.8803 35.336 32.939 35.6053 33.0563 35.824C33.1736 36.0427 33.3416 36.208 33.5603 36.32C33.779 36.432 34.0403 36.488 34.3443 36.488C34.563 36.488 34.7843 36.4587 35.0083 36.4C35.2376 36.336 35.451 36.224 35.6483 36.064L35.8883 36.576C35.6856 36.7467 35.443 36.872 35.1603 36.952C34.883 37.032 34.6083 37.072 34.3363 37.072ZM38.1993 37.072C37.9806 37.072 37.7646 37.0507 37.5513 37.008C37.3433 36.9707 37.1486 36.9173 36.9673 36.848C36.7913 36.7733 36.6393 36.6827 36.5113 36.576L36.7433 36.072C36.8766 36.1733 37.0233 36.256 37.1833 36.32C37.3486 36.384 37.5166 36.432 37.6873 36.464C37.8633 36.4907 38.0313 36.504 38.1913 36.504C38.5219 36.504 38.7753 36.4533 38.9513 36.352C39.1326 36.2507 39.2233 36.1093 39.2233 35.928C39.2233 35.7733 39.1699 35.656 39.0633 35.576C38.9619 35.4907 38.7913 35.4267 38.5513 35.384L37.7273 35.24C37.3593 35.1707 37.0819 35.0453 36.8953 34.864C36.7139 34.6827 36.6233 34.4453 36.6233 34.152C36.6233 33.9173 36.6873 33.712 36.8153 33.536C36.9486 33.36 37.1379 33.224 37.3833 33.128C37.6286 33.0267 37.9219 32.976 38.2633 32.976C38.4499 32.976 38.6393 32.9947 38.8313 33.032C39.0286 33.0693 39.2099 33.1253 39.3753 33.2C39.5459 33.2693 39.6846 33.3573 39.7913 33.464L39.5513 33.968C39.4446 33.8667 39.3166 33.7867 39.1673 33.728C39.0233 33.664 38.8713 33.6187 38.7113 33.592C38.5566 33.56 38.4046 33.544 38.2553 33.544C37.9459 33.544 37.7059 33.5973 37.5353 33.704C37.3646 33.8053 37.2793 33.9493 37.2793 34.136C37.2793 34.2853 37.3273 34.4027 37.4233 34.488C37.5246 34.5733 37.6873 34.6373 37.9113 34.68L38.7113 34.824C39.1059 34.8987 39.3993 35.024 39.5913 35.2C39.7833 35.3707 39.8793 35.608 39.8793 35.912C39.8793 36.1467 39.8099 36.352 39.6713 36.528C39.5326 36.6987 39.3379 36.832 39.0873 36.928C38.8366 37.024 38.5406 37.072 38.1993 37.072Z" fill="#CE3439"/>
<path d="M56.1774 37V36.392H57.7214V31.928L58.0974 31.984L56.4574 33.04L56.1374 32.488L57.9054 31.36H58.4254V36.392H59.8494V37H56.1774ZM62.6383 37.072C62.2063 37.072 61.8409 36.9627 61.5423 36.744C61.2436 36.52 61.0169 36.1947 60.8623 35.768C60.7129 35.336 60.6383 34.8053 60.6383 34.176C60.6383 33.5467 60.7129 33.0187 60.8623 32.592C61.0169 32.1653 61.2436 31.8427 61.5423 31.624C61.8409 31.4 62.2063 31.288 62.6383 31.288C63.0809 31.288 63.4489 31.3973 63.7423 31.616C64.0356 31.8347 64.2569 32.1573 64.4063 32.584C64.5609 33.0107 64.6383 33.5387 64.6383 34.168C64.6383 34.7973 64.5609 35.328 64.4063 35.76C64.2569 36.192 64.0329 36.52 63.7343 36.744C63.4356 36.9627 63.0703 37.072 62.6383 37.072ZM62.6383 36.448C63.0756 36.448 63.4009 36.264 63.6143 35.896C63.8276 35.528 63.9343 34.952 63.9343 34.168C63.9343 33.3893 63.8276 32.8187 63.6143 32.456C63.4063 32.0933 63.0836 31.912 62.6463 31.912C62.2036 31.912 61.8756 32.096 61.6623 32.464C61.4489 32.8267 61.3423 33.3973 61.3423 34.176C61.3423 34.9493 61.4489 35.5227 61.6623 35.896C61.8756 36.264 62.2009 36.448 62.6383 36.448ZM67.4352 37.072C67.0032 37.072 66.6378 36.9627 66.3392 36.744C66.0405 36.52 65.8138 36.1947 65.6592 35.768C65.5098 35.336 65.4352 34.8053 65.4352 34.176C65.4352 33.5467 65.5098 33.0187 65.6592 32.592C65.8138 32.1653 66.0405 31.8427 66.3392 31.624C66.6378 31.4 67.0032 31.288 67.4352 31.288C67.8778 31.288 68.2458 31.3973 68.5392 31.616C68.8325 31.8347 69.0538 32.1573 69.2032 32.584C69.3578 33.0107 69.4352 33.5387 69.4352 34.168C69.4352 34.7973 69.3578 35.328 69.2032 35.76C69.0538 36.192 68.8298 36.52 68.5312 36.744C68.2325 36.9627 67.8672 37.072 67.4352 37.072ZM67.4352 36.448C67.8725 36.448 68.1978 36.264 68.4112 35.896C68.6245 35.528 68.7312 34.952 68.7312 34.168C68.7312 33.3893 68.6245 32.8187 68.4112 32.456C68.2032 32.0933 67.8805 31.912 67.4432 31.912C67.0005 31.912 66.6725 32.096 66.4592 32.464C66.2458 32.8267 66.1392 33.3973 66.1392 34.176C66.1392 34.9493 66.2458 35.5227 66.4592 35.896C66.6725 36.264 66.9978 36.448 67.4352 36.448ZM72.232 37.072C71.8 37.072 71.4347 36.9627 71.136 36.744C70.8374 36.52 70.6107 36.1947 70.456 35.768C70.3067 35.336 70.232 34.8053 70.232 34.176C70.232 33.5467 70.3067 33.0187 70.456 32.592C70.6107 32.1653 70.8374 31.8427 71.136 31.624C71.4347 31.4 71.8 31.288 72.232 31.288C72.6747 31.288 73.0427 31.3973 73.336 31.616C73.6294 31.8347 73.8507 32.1573 74 32.584C74.1547 33.0107 74.232 33.5387 74.232 34.168C74.232 34.7973 74.1547 35.328 74 35.76C73.8507 36.192 73.6267 36.52 73.328 36.744C73.0294 36.9627 72.664 37.072 72.232 37.072ZM72.232 36.448C72.6694 36.448 72.9947 36.264 73.208 35.896C73.4214 35.528 73.528 34.952 73.528 34.168C73.528 33.3893 73.4214 32.8187 73.208 32.456C73 32.0933 72.6774 31.912 72.24 31.912C71.7974 31.912 71.4694 32.096 71.256 32.464C71.0427 32.8267 70.936 33.3973 70.936 34.176C70.936 34.9493 71.0427 35.5227 71.256 35.896C71.4694 36.264 71.7947 36.448 72.232 36.448ZM77.6953 37V31.36H78.3273L81.7833 35.952H81.7513V31.36H82.4313V37H81.7833L78.3433 32.424H78.3753V37H77.6953ZM85.6937 37.072C85.2937 37.072 84.9471 36.9867 84.6537 36.816C84.3604 36.6453 84.1337 36.408 83.9737 36.104C83.8137 35.7947 83.7337 35.432 83.7337 35.016C83.7337 34.6053 83.8137 34.248 83.9737 33.944C84.1337 33.6347 84.3604 33.3973 84.6537 33.232C84.9471 33.0613 85.2937 32.976 85.6937 32.976C86.0937 32.976 86.4377 33.0613 86.7257 33.232C87.0191 33.3973 87.2457 33.6347 87.4057 33.944C87.5657 34.248 87.6457 34.6053 87.6457 35.016C87.6457 35.432 87.5657 35.7947 87.4057 36.104C87.2511 36.408 87.0271 36.6453 86.7337 36.816C86.4404 36.9867 86.0937 37.072 85.6937 37.072ZM85.6857 36.472C86.0751 36.472 86.3817 36.3413 86.6057 36.08C86.8297 35.8187 86.9417 35.464 86.9417 35.016C86.9417 34.568 86.8297 34.216 86.6057 33.96C86.3871 33.704 86.0831 33.576 85.6937 33.576C85.3044 33.576 84.9977 33.704 84.7737 33.96C84.5497 34.216 84.4377 34.568 84.4377 35.016C84.4377 35.464 84.5497 35.8187 84.7737 36.08C85.0031 36.3413 85.3071 36.472 85.6857 36.472ZM90.2969 37.072C90.0782 37.072 89.8622 37.0507 89.6489 37.008C89.4409 36.9707 89.2462 36.9173 89.0649 36.848C88.8889 36.7733 88.7369 36.6827 88.6089 36.576L88.8409 36.072C88.9742 36.1733 89.1209 36.256 89.2809 36.32C89.4462 36.384 89.6142 36.432 89.7849 36.464C89.9609 36.4907 90.1289 36.504 90.2889 36.504C90.6196 36.504 90.8729 36.4533 91.0489 36.352C91.2302 36.2507 91.3209 36.1093 91.3209 35.928C91.3209 35.7733 91.2676 35.656 91.1609 35.576C91.0596 35.4907 90.8889 35.4267 90.6489 35.384L89.8249 35.24C89.4569 35.1707 89.1796 35.0453 88.9929 34.864C88.8116 34.6827 88.7209 34.4453 88.7209 34.152C88.7209 33.9173 88.7849 33.712 88.9129 33.536C89.0462 33.36 89.2356 33.224 89.4809 33.128C89.7262 33.0267 90.0196 32.976 90.3609 32.976C90.5476 32.976 90.7369 32.9947 90.9289 33.032C91.1262 33.0693 91.3076 33.1253 91.4729 33.2C91.6436 33.2693 91.7822 33.3573 91.8889 33.464L91.6489 33.968C91.5422 33.8667 91.4142 33.7867 91.2649 33.728C91.1209 33.664 90.9689 33.6187 90.8089 33.592C90.6542 33.56 90.5022 33.544 90.3529 33.544C90.0436 33.544 89.8036 33.5973 89.6329 33.704C89.4622 33.8053 89.3769 33.9493 89.3769 34.136C89.3769 34.2853 89.4249 34.4027 89.5209 34.488C89.6222 34.5733 89.7849 34.6373 90.0089 34.68L90.8089 34.824C91.2036 34.8987 91.4969 35.024 91.6889 35.2C91.8809 35.3707 91.9769 35.608 91.9769 35.912C91.9769 36.1467 91.9076 36.352 91.7689 36.528C91.6302 36.6987 91.4356 36.832 91.1849 36.928C90.9342 37.024 90.6382 37.072 90.2969 37.072ZM92.8814 37.504L92.3214 37.352L94.3614 30.984L94.9134 31.136L92.8814 37.504ZM97.9627 37.072C97.424 37.072 96.9547 36.9573 96.5547 36.728C96.16 36.4933 95.856 36.16 95.6427 35.728C95.4293 35.2907 95.3227 34.7733 95.3227 34.176C95.3227 33.5787 95.4293 33.064 95.6427 32.632C95.856 32.2 96.16 31.8693 96.5547 31.64C96.9493 31.4053 97.4187 31.288 97.9627 31.288C98.3573 31.288 98.7173 31.3493 99.0427 31.472C99.368 31.5893 99.648 31.7627 99.8827 31.992L99.6027 32.552C99.3573 32.3333 99.104 32.176 98.8427 32.08C98.5867 31.984 98.2987 31.936 97.9787 31.936C97.3813 31.936 96.912 32.128 96.5707 32.512C96.2347 32.8907 96.0667 33.4453 96.0667 34.176C96.0667 34.9013 96.2347 35.4587 96.5707 35.848C96.9067 36.232 97.376 36.424 97.9787 36.424C98.2987 36.424 98.5867 36.376 98.8427 36.28C99.104 36.184 99.3573 36.0267 99.6027 35.808L99.8827 36.368C99.648 36.5973 99.368 36.7733 99.0427 36.896C98.7173 37.0133 98.3573 37.072 97.9627 37.072ZM102.614 37.072C102.14 37.072 101.78 36.9467 101.534 36.696C101.294 36.4453 101.174 36.088 101.174 35.624V33.632H100.374V33.048H101.198V31.872H101.886V33.048H103.302V33.632H101.886V35.56C101.886 35.864 101.953 36.0907 102.086 36.24C102.225 36.384 102.436 36.456 102.718 36.456C102.83 36.456 102.937 36.4453 103.038 36.424C103.145 36.4027 103.246 36.3707 103.342 36.328L103.454 36.888C103.348 36.9467 103.217 36.992 103.062 37.024C102.913 37.056 102.764 37.072 102.614 37.072ZM104.286 37V33.048H104.95V33.904C105.078 33.6107 105.27 33.384 105.526 33.224C105.782 33.0587 106.07 32.976 106.39 32.976C106.716 32.976 106.988 33.0347 107.206 33.152C107.425 33.264 107.588 33.44 107.694 33.68C107.806 33.9147 107.862 34.208 107.862 34.56V37H107.15V34.6C107.15 34.3867 107.121 34.2053 107.062 34.056C107.004 33.9067 106.905 33.792 106.766 33.712C106.633 33.6267 106.454 33.584 106.23 33.584C105.996 33.584 105.782 33.6373 105.59 33.744C105.404 33.8507 105.257 33.9947 105.15 34.176C105.049 34.3573 104.998 34.56 104.998 34.784V37H104.286Z" fill="black"/>
<path d="M19.72 50.072C19.4107 50.072 19.1173 50.048 18.84 50C18.5627 49.952 18.3093 49.88 18.08 49.784C17.8507 49.688 17.6507 49.5707 17.48 49.432L17.744 48.84C17.9253 48.984 18.1173 49.1013 18.32 49.192C18.528 49.2773 18.7467 49.3387 18.976 49.376C19.2107 49.4133 19.4587 49.432 19.72 49.432C20.1627 49.432 20.5013 49.344 20.736 49.168C20.976 48.992 21.096 48.752 21.096 48.448C21.096 48.288 21.056 48.1547 20.976 48.048C20.9013 47.9413 20.7813 47.8533 20.616 47.784C20.456 47.7147 20.248 47.6533 19.992 47.6L19.072 47.424C18.5547 47.3227 18.1813 47.144 17.952 46.888C17.7227 46.632 17.608 46.3093 17.608 45.92C17.608 45.5893 17.6987 45.304 17.88 45.064C18.0667 44.8187 18.3227 44.6293 18.648 44.496C18.9787 44.3573 19.3547 44.288 19.776 44.288C20.0427 44.288 20.2907 44.3147 20.52 44.368C20.7547 44.416 20.968 44.4907 21.16 44.592C21.3573 44.6933 21.5333 44.816 21.688 44.96L21.424 45.544C21.1947 45.32 20.944 45.1627 20.672 45.072C20.4 44.976 20.0987 44.928 19.768 44.928C19.4907 44.928 19.2427 44.968 19.024 45.048C18.8053 45.1227 18.632 45.2347 18.504 45.384C18.3813 45.528 18.32 45.7067 18.32 45.92C18.32 46.1547 18.3947 46.3413 18.544 46.48C18.6933 46.6133 18.9467 46.7173 19.304 46.792L20.216 46.968C20.76 47.0693 21.1627 47.24 21.424 47.48C21.6853 47.72 21.816 48.032 21.816 48.416C21.816 48.736 21.728 49.0213 21.552 49.272C21.3813 49.5227 21.1387 49.72 20.824 49.864C20.5147 50.0027 20.1467 50.072 19.72 50.072ZM22.882 45.096V44.304H23.746V45.096H22.882ZM22.962 50V46.048H23.674V50H22.962ZM24.8628 50V49.544L27.3668 46.416L27.4068 46.64H24.9188V46.048H28.0708V46.504L25.5428 49.656L25.5028 49.408H28.1588V50H24.8628ZM31.0691 50.072C30.6265 50.072 30.2425 49.992 29.9171 49.832C29.5971 49.6667 29.3518 49.432 29.1811 49.128C29.0105 48.8187 28.9251 48.4507 28.9251 48.024C28.9251 47.624 29.0051 47.272 29.1651 46.968C29.3251 46.6587 29.5518 46.416 29.8451 46.24C30.1385 46.064 30.4878 45.976 30.8931 45.976C31.2771 45.976 31.6025 46.0587 31.8691 46.224C32.1411 46.3893 32.3465 46.6213 32.4851 46.92C32.6291 47.2187 32.7011 47.5733 32.7011 47.984V48.216H29.4611V47.72H32.2371L32.0851 47.88C32.0851 47.4427 31.9811 47.1067 31.7731 46.872C31.5705 46.6373 31.2771 46.52 30.8931 46.52C30.6425 46.52 30.4185 46.5787 30.2211 46.696C30.0291 46.808 29.8798 46.968 29.7731 47.176C29.6665 47.384 29.6131 47.6373 29.6131 47.936V48.016C29.6131 48.336 29.6718 48.6053 29.7891 48.824C29.9065 49.0427 30.0745 49.208 30.2931 49.32C30.5118 49.432 30.7731 49.488 31.0771 49.488C31.2958 49.488 31.5171 49.4587 31.7411 49.4C31.9705 49.336 32.1838 49.224 32.3811 49.064L32.6211 49.576C32.4185 49.7467 32.1758 49.872 31.8931 49.952C31.6158 50.032 31.3411 50.072 31.0691 50.072Z" fill="#CE3439"/>
<path d="M59.592 50.072C59.1387 50.072 58.7547 49.9627 58.44 49.744C58.1253 49.5253 57.8853 49.2107 57.72 48.8C57.5547 48.384 57.472 47.8853 57.472 47.304C57.472 46.6533 57.5627 46.1067 57.744 45.664C57.9253 45.216 58.1867 44.8747 58.528 44.64C58.8693 44.4053 59.28 44.288 59.76 44.288C59.9733 44.288 60.176 44.3147 60.368 44.368C60.56 44.416 60.7413 44.4907 60.912 44.592C61.0827 44.6933 61.2427 44.8187 61.392 44.968L61.128 45.52C60.92 45.3013 60.7013 45.1467 60.472 45.056C60.2427 44.96 60.0053 44.912 59.76 44.912C59.4987 44.912 59.2667 44.9627 59.064 45.064C58.8613 45.16 58.6907 45.3067 58.552 45.504C58.4133 45.696 58.3067 45.936 58.232 46.224C58.1627 46.5067 58.128 46.8373 58.128 47.216V47.68H58.136C58.184 47.424 58.28 47.2053 58.424 47.024C58.568 46.8373 58.7467 46.696 58.96 46.6C59.1733 46.4987 59.408 46.448 59.664 46.448C60.0053 46.448 60.304 46.5253 60.56 46.68C60.8213 46.8293 61.024 47.04 61.168 47.312C61.3173 47.5787 61.392 47.888 61.392 48.24C61.392 48.592 61.3147 48.9067 61.16 49.184C61.0107 49.4613 60.8 49.68 60.528 49.84C60.256 49.9947 59.944 50.072 59.592 50.072ZM59.552 49.464C59.7867 49.464 59.992 49.4133 60.168 49.312C60.344 49.2107 60.48 49.0693 60.576 48.888C60.6773 48.7067 60.728 48.496 60.728 48.256C60.728 48.016 60.6773 47.808 60.576 47.632C60.48 47.4507 60.344 47.3093 60.168 47.208C59.992 47.1067 59.784 47.056 59.544 47.056C59.3093 47.056 59.1013 47.1067 58.92 47.208C58.744 47.3093 58.6027 47.4507 58.496 47.632C58.3947 47.808 58.344 48.016 58.344 48.256C58.344 48.496 58.3947 48.7067 58.496 48.888C58.5973 49.0693 58.7387 49.2107 58.92 49.312C59.1013 49.4133 59.312 49.464 59.552 49.464ZM64.3889 50.072C63.9355 50.072 63.5515 49.9627 63.2369 49.744C62.9222 49.5253 62.6822 49.2107 62.5169 48.8C62.3515 48.384 62.2689 47.8853 62.2689 47.304C62.2689 46.6533 62.3595 46.1067 62.5409 45.664C62.7222 45.216 62.9835 44.8747 63.3249 44.64C63.6662 44.4053 64.0769 44.288 64.5569 44.288C64.7702 44.288 64.9729 44.3147 65.1649 44.368C65.3569 44.416 65.5382 44.4907 65.7089 44.592C65.8795 44.6933 66.0395 44.8187 66.1889 44.968L65.9249 45.52C65.7169 45.3013 65.4982 45.1467 65.2689 45.056C65.0395 44.96 64.8022 44.912 64.5569 44.912C64.2955 44.912 64.0635 44.9627 63.8609 45.064C63.6582 45.16 63.4875 45.3067 63.3489 45.504C63.2102 45.696 63.1035 45.936 63.0289 46.224C62.9595 46.5067 62.9249 46.8373 62.9249 47.216V47.68H62.9329C62.9809 47.424 63.0769 47.2053 63.2209 47.024C63.3649 46.8373 63.5435 46.696 63.7569 46.6C63.9702 46.4987 64.2049 46.448 64.4609 46.448C64.8022 46.448 65.1009 46.5253 65.3569 46.68C65.6182 46.8293 65.8209 47.04 65.9649 47.312C66.1142 47.5787 66.1889 47.888 66.1889 48.24C66.1889 48.592 66.1115 48.9067 65.9569 49.184C65.8075 49.4613 65.5969 49.68 65.3249 49.84C65.0529 49.9947 64.7409 50.072 64.3889 50.072ZM64.3489 49.464C64.5835 49.464 64.7889 49.4133 64.9649 49.312C65.1409 49.2107 65.2769 49.0693 65.3729 48.888C65.4742 48.7067 65.5249 48.496 65.5249 48.256C65.5249 48.016 65.4742 47.808 65.3729 47.632C65.2769 47.4507 65.1409 47.3093 64.9649 47.208C64.7889 47.1067 64.5809 47.056 64.3409 47.056C64.1062 47.056 63.8982 47.1067 63.7169 47.208C63.5409 47.3093 63.3995 47.4507 63.2929 47.632C63.1915 47.808 63.1409 48.016 63.1409 48.256C63.1409 48.496 63.1915 48.7067 63.2929 48.888C63.3942 49.0693 63.5355 49.2107 63.7169 49.312C63.8982 49.4133 64.1089 49.464 64.3489 49.464ZM68.9938 50.072C68.5618 50.072 68.1964 49.9627 67.8978 49.744C67.5991 49.52 67.3724 49.1947 67.2178 48.768C67.0684 48.336 66.9938 47.8053 66.9938 47.176C66.9938 46.5467 67.0684 46.0187 67.2178 45.592C67.3724 45.1653 67.5991 44.8427 67.8978 44.624C68.1964 44.4 68.5618 44.288 68.9938 44.288C69.4364 44.288 69.8044 44.3973 70.0978 44.616C70.3911 44.8347 70.6124 45.1573 70.7618 45.584C70.9164 46.0107 70.9938 46.5387 70.9938 47.168C70.9938 47.7973 70.9164 48.328 70.7618 48.76C70.6124 49.192 70.3884 49.52 70.0898 49.744C69.7911 49.9627 69.4258 50.072 68.9938 50.072ZM68.9938 49.448C69.4311 49.448 69.7564 49.264 69.9698 48.896C70.1831 48.528 70.2898 47.952 70.2898 47.168C70.2898 46.3893 70.1831 45.8187 69.9698 45.456C69.7618 45.0933 69.4391 44.912 69.0018 44.912C68.5591 44.912 68.2311 45.096 68.0178 45.464C67.8044 45.8267 67.6978 46.3973 67.6978 47.176C67.6978 47.9493 67.8044 48.5227 68.0178 48.896C68.2311 49.264 68.5564 49.448 68.9938 49.448ZM73.817 50L75.905 46.976V47.24L73.929 44.36H74.753L76.353 46.712H76.313L77.913 44.36H78.737L76.745 47.24V46.976L78.841 50H78.009L76.297 47.496H76.353L74.641 50H73.817ZM84.3136 50V48.832H81.6816V48.296L84.2816 44.36H84.9936V48.232H85.7776V48.832H84.9936V50H84.3136ZM84.3376 48.232V45.24H84.3696L82.3056 48.368L82.2496 48.232H84.3376ZM86.7185 50V49.472L88.7025 47.392C88.8945 47.1893 89.0438 47.0053 89.1505 46.84C89.2572 46.6747 89.3345 46.5147 89.3825 46.36C89.4305 46.2053 89.4545 46.048 89.4545 45.888C89.4545 45.5733 89.3532 45.3333 89.1505 45.168C88.9532 44.9973 88.6785 44.912 88.3265 44.912C88.0598 44.912 87.7958 44.9653 87.5345 45.072C87.2785 45.1733 87.0332 45.336 86.7985 45.56L86.5265 45C86.7612 44.776 87.0412 44.6027 87.3665 44.48C87.6918 44.352 88.0278 44.288 88.3745 44.288C88.7425 44.288 89.0598 44.352 89.3265 44.48C89.5932 44.6027 89.7958 44.7813 89.9345 45.016C90.0785 45.2453 90.1505 45.5227 90.1505 45.848C90.1505 46.0133 90.1318 46.176 90.0945 46.336C90.0572 46.4907 89.9985 46.6453 89.9185 46.8C89.8438 46.9547 89.7452 47.1147 89.6225 47.28C89.4998 47.4453 89.3505 47.6187 89.1745 47.8L87.6225 49.416V49.384H90.3825V50H86.7185ZM93.3234 50.072C93.078 50.072 92.8407 50.0453 92.6114 49.992C92.3874 49.9387 92.1767 49.8613 91.9794 49.76C91.782 49.6533 91.606 49.5253 91.4514 49.376L91.7314 48.816C91.9767 49.04 92.2274 49.2027 92.4834 49.304C92.7447 49.4 93.0247 49.448 93.3234 49.448C93.718 49.448 94.0247 49.3467 94.2434 49.144C94.4674 48.936 94.5794 48.6453 94.5794 48.272C94.5794 47.904 94.4754 47.6107 94.2674 47.392C94.0594 47.1733 93.7714 47.064 93.4034 47.064C93.158 47.064 92.934 47.1147 92.7314 47.216C92.534 47.312 92.35 47.4747 92.1794 47.704H91.6194V44.36H94.9954V44.976H92.2674V47.096H92.2354C92.3634 46.904 92.5394 46.7493 92.7634 46.632C92.9874 46.5093 93.238 46.448 93.5154 46.448C93.878 46.448 94.19 46.5253 94.4514 46.68C94.7127 46.8293 94.9127 47.0373 95.0514 47.304C95.1954 47.5707 95.2674 47.8827 95.2674 48.24C95.2674 48.6187 95.1874 48.9467 95.0274 49.224C94.8674 49.496 94.6434 49.7067 94.3554 49.856C94.0674 50 93.7234 50.072 93.3234 50.072ZM98.0826 50L100.171 46.976V47.24L98.1946 44.36H99.0186L100.619 46.712H100.579L102.179 44.36H103.003L101.011 47.24V46.976L103.107 50H102.275L100.563 47.496H100.619L98.9066 50H98.0826ZM107.995 50.072C107.75 50.072 107.513 50.0453 107.283 49.992C107.059 49.9387 106.849 49.8613 106.651 49.76C106.454 49.6533 106.278 49.5253 106.123 49.376L106.403 48.816C106.649 49.04 106.899 49.2027 107.155 49.304C107.417 49.4 107.697 49.448 107.995 49.448C108.39 49.448 108.697 49.3467 108.915 49.144C109.139 48.936 109.251 48.6453 109.251 48.272C109.251 47.904 109.147 47.6107 108.939 47.392C108.731 47.1733 108.443 47.064 108.075 47.064C107.83 47.064 107.606 47.1147 107.403 47.216C107.206 47.312 107.022 47.4747 106.851 47.704H106.291V44.36H109.667V44.976H106.939V47.096H106.907C107.035 46.904 107.211 46.7493 107.435 46.632C107.659 46.5093 107.91 46.448 108.187 46.448C108.55 46.448 108.862 46.5253 109.123 46.68C109.385 46.8293 109.585 47.0373 109.723 47.304C109.867 47.5707 109.939 47.8827 109.939 48.24C109.939 48.6187 109.859 48.9467 109.699 49.224C109.539 49.496 109.315 49.7067 109.027 49.856C108.739 50 108.395 50.072 107.995 50.072ZM112.728 50.072C112.296 50.072 111.931 49.9627 111.632 49.744C111.333 49.52 111.107 49.1947 110.952 48.768C110.803 48.336 110.728 47.8053 110.728 47.176C110.728 46.5467 110.803 46.0187 110.952 45.592C111.107 45.1653 111.333 44.8427 111.632 44.624C111.931 44.4 112.296 44.288 112.728 44.288C113.171 44.288 113.539 44.3973 113.832 44.616C114.125 44.8347 114.347 45.1573 114.496 45.584C114.651 46.0107 114.728 46.5387 114.728 47.168C114.728 47.7973 114.651 48.328 114.496 48.76C114.347 49.192 114.123 49.52 113.824 49.744C113.525 49.9627 113.16 50.072 112.728 50.072ZM112.728 49.448C113.165 49.448 113.491 49.264 113.704 48.896C113.917 48.528 114.024 47.952 114.024 47.168C114.024 46.3893 113.917 45.8187 113.704 45.456C113.496 45.0933 113.173 44.912 112.736 44.912C112.293 44.912 111.965 45.096 111.752 45.464C111.539 45.8267 111.432 46.3973 111.432 47.176C111.432 47.9493 111.539 48.5227 111.752 48.896C111.965 49.264 112.291 49.448 112.728 49.448ZM117.525 50.072C117.093 50.072 116.728 49.9627 116.429 49.744C116.13 49.52 115.904 49.1947 115.749 48.768C115.6 48.336 115.525 47.8053 115.525 47.176C115.525 46.5467 115.6 46.0187 115.749 45.592C115.904 45.1653 116.13 44.8427 116.429 44.624C116.728 44.4 117.093 44.288 117.525 44.288C117.968 44.288 118.336 44.3973 118.629 44.616C118.922 44.8347 119.144 45.1573 119.293 45.584C119.448 46.0107 119.525 46.5387 119.525 47.168C119.525 47.7973 119.448 48.328 119.293 48.76C119.144 49.192 118.92 49.52 118.621 49.744C118.322 49.9627 117.957 50.072 117.525 50.072ZM117.525 49.448C117.962 49.448 118.288 49.264 118.501 48.896C118.714 48.528 118.821 47.952 118.821 47.168C118.821 46.3893 118.714 45.8187 118.501 45.456C118.293 45.0933 117.97 44.912 117.533 44.912C117.09 44.912 116.762 45.096 116.549 45.464C116.336 45.8267 116.229 46.3973 116.229 47.176C116.229 47.9493 116.336 48.5227 116.549 48.896C116.762 49.264 117.088 49.448 117.525 49.448Z" fill="black"/>
<path d="M19.168 63L17.36 57.36H18.112L19.584 62.144H19.512L21.152 57.36H21.736L23.36 62.144H23.304L24.792 57.36H25.512L23.696 63H23.016L21.424 58.344H21.456L19.832 63H19.168ZM28.0223 63.072C27.5796 63.072 27.1956 62.992 26.8703 62.832C26.5503 62.6667 26.3049 62.432 26.1343 62.128C25.9636 61.8187 25.8783 61.4507 25.8783 61.024C25.8783 60.624 25.9583 60.272 26.1183 59.968C26.2783 59.6587 26.5049 59.416 26.7983 59.24C27.0916 59.064 27.4409 58.976 27.8463 58.976C28.2303 58.976 28.5556 59.0587 28.8223 59.224C29.0943 59.3893 29.2996 59.6213 29.4383 59.92C29.5823 60.2187 29.6543 60.5733 29.6543 60.984V61.216H26.4143V60.72H29.1903L29.0383 60.88C29.0383 60.4427 28.9343 60.1067 28.7263 59.872C28.5236 59.6373 28.2303 59.52 27.8463 59.52C27.5956 59.52 27.3716 59.5787 27.1743 59.696C26.9823 59.808 26.8329 59.968 26.7263 60.176C26.6196 60.384 26.5663 60.6373 26.5663 60.936V61.016C26.5663 61.336 26.6249 61.6053 26.7423 61.824C26.8596 62.0427 27.0276 62.208 27.2463 62.32C27.4649 62.432 27.7263 62.488 28.0303 62.488C28.2489 62.488 28.4703 62.4587 28.6943 62.4C28.9236 62.336 29.1369 62.224 29.3343 62.064L29.5743 62.576C29.3716 62.7467 29.1289 62.872 28.8463 62.952C28.5689 63.032 28.2943 63.072 28.0223 63.072ZM30.7492 58.096V57.304H31.6132V58.096H30.7492ZM30.8292 63V59.048H31.5412V63H30.8292ZM34.674 64.512C34.3593 64.512 34.0473 64.464 33.738 64.368C33.4287 64.2773 33.1647 64.152 32.946 63.992L33.17 63.44C33.3193 63.536 33.4767 63.6187 33.642 63.688C33.8073 63.7627 33.9753 63.816 34.146 63.848C34.322 63.8853 34.4953 63.904 34.666 63.904C35.0767 63.904 35.3967 63.8 35.626 63.592C35.8607 63.384 35.978 63.088 35.978 62.704V61.976H35.962C35.866 62.248 35.6927 62.4693 35.442 62.64C35.1913 62.8053 34.9007 62.888 34.57 62.888C34.1967 62.888 33.8713 62.808 33.594 62.648C33.3167 62.4827 33.1007 62.2533 32.946 61.96C32.7967 61.6667 32.722 61.3227 32.722 60.928C32.722 60.5387 32.7967 60.1973 32.946 59.904C33.1007 59.6107 33.3167 59.384 33.594 59.224C33.8713 59.0587 34.1967 58.976 34.57 58.976C34.9007 58.976 35.1913 59.0613 35.442 59.232C35.698 59.4027 35.874 59.6293 35.97 59.912H35.978V59.048H36.642V62.64C36.642 63.024 36.562 63.3547 36.402 63.632C36.2473 63.9147 36.0233 64.1307 35.73 64.28C35.4367 64.4347 35.0847 64.512 34.674 64.512ZM34.69 62.304C35.0793 62.304 35.386 62.1787 35.61 61.928C35.8393 61.6773 35.954 61.344 35.954 60.928C35.954 60.512 35.8393 60.1813 35.61 59.936C35.386 59.6853 35.0793 59.56 34.69 59.56C34.306 59.56 33.9993 59.6853 33.77 59.936C33.546 60.1813 33.434 60.512 33.434 60.928C33.434 61.344 33.546 61.6773 33.77 61.928C33.9993 62.1787 34.306 62.304 34.69 62.304ZM38.0636 63V57.36H38.7516V59.888C38.8689 59.6053 39.0529 59.384 39.3036 59.224C39.5596 59.0587 39.8476 58.976 40.1676 58.976C40.4929 58.976 40.7649 59.0347 40.9836 59.152C41.2022 59.264 41.3649 59.44 41.4716 59.68C41.5836 59.9147 41.6396 60.208 41.6396 60.56V63H40.9276V60.6C40.9276 60.3867 40.8956 60.2053 40.8316 60.056C40.7729 59.9067 40.6769 59.792 40.5436 59.712C40.4102 59.6267 40.2316 59.584 40.0076 59.584C39.7729 59.584 39.5622 59.6373 39.3756 59.744C39.1889 59.8507 39.0422 59.9947 38.9356 60.176C38.8289 60.3573 38.7756 60.56 38.7756 60.784V63H38.0636ZM44.7119 63.072C44.2373 63.072 43.8773 62.9467 43.6319 62.696C43.3919 62.4453 43.2719 62.088 43.2719 61.624V59.632H42.4719V59.048H43.2959V57.872H43.9839V59.048H45.3999V59.632H43.9839V61.56C43.9839 61.864 44.0506 62.0907 44.1839 62.24C44.3226 62.384 44.5333 62.456 44.8159 62.456C44.9279 62.456 45.0346 62.4453 45.1359 62.424C45.2426 62.4027 45.3439 62.3707 45.4399 62.328L45.5519 62.888C45.4453 62.9467 45.3146 62.992 45.1599 63.024C45.0106 63.056 44.8613 63.072 44.7119 63.072Z" fill="#CE3439"/>
<path d="M58.8357 63V62.472L60.8197 60.392C61.0117 60.1893 61.161 60.0053 61.2677 59.84C61.3744 59.6747 61.4517 59.5147 61.4997 59.36C61.5477 59.2053 61.5717 59.048 61.5717 58.888C61.5717 58.5733 61.4704 58.3333 61.2677 58.168C61.0704 57.9973 60.7957 57.912 60.4437 57.912C60.177 57.912 59.913 57.9653 59.6517 58.072C59.3957 58.1733 59.1504 58.336 58.9157 58.56L58.6437 58C58.8784 57.776 59.1584 57.6027 59.4837 57.48C59.809 57.352 60.145 57.288 60.4917 57.288C60.8597 57.288 61.177 57.352 61.4437 57.48C61.7104 57.6027 61.913 57.7813 62.0517 58.016C62.1957 58.2453 62.2677 58.5227 62.2677 58.848C62.2677 59.0133 62.249 59.176 62.2117 59.336C62.1744 59.4907 62.1157 59.6453 62.0357 59.8C61.961 59.9547 61.8624 60.1147 61.7397 60.28C61.617 60.4453 61.4677 60.6187 61.2917 60.8L59.7397 62.416V62.384H62.4997V63H58.8357ZM65.3766 63.072C64.9446 63.072 64.5792 62.9627 64.2806 62.744C63.9819 62.52 63.7552 62.1947 63.6006 61.768C63.4512 61.336 63.3766 60.8053 63.3766 60.176C63.3766 59.5467 63.4512 59.0187 63.6006 58.592C63.7552 58.1653 63.9819 57.8427 64.2806 57.624C64.5792 57.4 64.9446 57.288 65.3766 57.288C65.8192 57.288 66.1872 57.3973 66.4806 57.616C66.7739 57.8347 66.9952 58.1573 67.1446 58.584C67.2992 59.0107 67.3766 59.5387 67.3766 60.168C67.3766 60.7973 67.2992 61.328 67.1446 61.76C66.9952 62.192 66.7712 62.52 66.4726 62.744C66.1739 62.9627 65.8086 63.072 65.3766 63.072ZM65.3766 62.448C65.8139 62.448 66.1392 62.264 66.3526 61.896C66.5659 61.528 66.6726 60.952 66.6726 60.168C66.6726 59.3893 66.5659 58.8187 66.3526 58.456C66.1446 58.0933 65.8219 57.912 65.3846 57.912C64.9419 57.912 64.6139 58.096 64.4006 58.464C64.1872 58.8267 64.0806 59.3973 64.0806 60.176C64.0806 60.9493 64.1872 61.5227 64.4006 61.896C64.6139 62.264 64.9392 62.448 65.3766 62.448ZM69.6614 64.536C69.2828 63.96 69.0028 63.3733 68.8214 62.776C68.6454 62.1733 68.5574 61.5467 68.5574 60.896C68.5574 60.2453 68.6454 59.6213 68.8214 59.024C69.0028 58.4267 69.2828 57.8373 69.6614 57.256L70.1734 57.44C69.9708 57.8187 69.8028 58.2 69.6694 58.584C69.5361 58.968 69.4348 59.352 69.3654 59.736C69.3014 60.1147 69.2694 60.5013 69.2694 60.896C69.2694 61.2853 69.3014 61.672 69.3654 62.056C69.4348 62.44 69.5361 62.8213 69.6694 63.2C69.8028 63.584 69.9708 63.968 70.1734 64.352L69.6614 64.536ZM71.2929 63V57.36H72.0049V59.904H72.0369L74.7169 57.36H75.6209L72.5089 60.312L72.5569 59.92L75.8129 63H74.8609L72.0369 60.352H72.0049V63H71.2929ZM78.1428 64.512C77.8281 64.512 77.5161 64.464 77.2068 64.368C76.8974 64.2773 76.6334 64.152 76.4148 63.992L76.6388 63.44C76.7881 63.536 76.9454 63.6187 77.1108 63.688C77.2761 63.7627 77.4441 63.816 77.6148 63.848C77.7908 63.8853 77.9641 63.904 78.1348 63.904C78.5454 63.904 78.8654 63.8 79.0948 63.592C79.3294 63.384 79.4468 63.088 79.4468 62.704V61.976H79.4308C79.3348 62.248 79.1614 62.4693 78.9108 62.64C78.6601 62.8053 78.3694 62.888 78.0388 62.888C77.6654 62.888 77.3401 62.808 77.0628 62.648C76.7854 62.4827 76.5694 62.2533 76.4148 61.96C76.2654 61.6667 76.1908 61.3227 76.1908 60.928C76.1908 60.5387 76.2654 60.1973 76.4148 59.904C76.5694 59.6107 76.7854 59.384 77.0628 59.224C77.3401 59.0587 77.6654 58.976 78.0388 58.976C78.3694 58.976 78.6601 59.0613 78.9108 59.232C79.1668 59.4027 79.3428 59.6293 79.4388 59.912H79.4468V59.048H80.1108V62.64C80.1108 63.024 80.0308 63.3547 79.8708 63.632C79.7161 63.9147 79.4921 64.1307 79.1988 64.28C78.9054 64.4347 78.5534 64.512 78.1428 64.512ZM78.1588 62.304C78.5481 62.304 78.8548 62.1787 79.0788 61.928C79.3081 61.6773 79.4228 61.344 79.4228 60.928C79.4228 60.512 79.3081 60.1813 79.0788 59.936C78.8548 59.6853 78.5481 59.56 78.1588 59.56C77.7748 59.56 77.4681 59.6853 77.2388 59.936C77.0148 60.1813 76.9028 60.512 76.9028 60.928C76.9028 61.344 77.0148 61.6773 77.2388 61.928C77.4681 62.1787 77.7748 62.304 78.1588 62.304ZM82.9883 63.072C82.7696 63.072 82.5536 63.0507 82.3403 63.008C82.1323 62.9707 81.9376 62.9173 81.7563 62.848C81.5803 62.7733 81.4283 62.6827 81.3003 62.576L81.5323 62.072C81.6656 62.1733 81.8123 62.256 81.9723 62.32C82.1376 62.384 82.3056 62.432 82.4763 62.464C82.6523 62.4907 82.8203 62.504 82.9803 62.504C83.311 62.504 83.5643 62.4533 83.7403 62.352C83.9216 62.2507 84.0123 62.1093 84.0123 61.928C84.0123 61.7733 83.959 61.656 83.8523 61.576C83.751 61.4907 83.5803 61.4267 83.3403 61.384L82.5163 61.24C82.1483 61.1707 81.871 61.0453 81.6843 60.864C81.503 60.6827 81.4123 60.4453 81.4123 60.152C81.4123 59.9173 81.4763 59.712 81.6043 59.536C81.7376 59.36 81.927 59.224 82.1723 59.128C82.4176 59.0267 82.711 58.976 83.0523 58.976C83.239 58.976 83.4283 58.9947 83.6203 59.032C83.8176 59.0693 83.999 59.1253 84.1643 59.2C84.335 59.2693 84.4736 59.3573 84.5803 59.464L84.3403 59.968C84.2336 59.8667 84.1056 59.7867 83.9563 59.728C83.8123 59.664 83.6603 59.6187 83.5003 59.592C83.3456 59.56 83.1936 59.544 83.0443 59.544C82.735 59.544 82.495 59.5973 82.3243 59.704C82.1536 59.8053 82.0683 59.9493 82.0683 60.136C82.0683 60.2853 82.1163 60.4027 82.2123 60.488C82.3136 60.5733 82.4763 60.6373 82.7003 60.68L83.5003 60.824C83.895 60.8987 84.1883 61.024 84.3803 61.2C84.5723 61.3707 84.6683 61.608 84.6683 61.912C84.6683 62.1467 84.599 62.352 84.4603 62.528C84.3216 62.6987 84.127 62.832 83.8763 62.928C83.6256 63.024 83.3296 63.072 82.9883 63.072ZM85.9408 64.536L85.4208 64.352C85.6288 63.9627 85.7995 63.576 85.9328 63.192C86.0661 62.8133 86.1648 62.4347 86.2288 62.056C86.2928 61.672 86.3248 61.2853 86.3248 60.896C86.3248 60.5067 86.2928 60.1227 86.2288 59.744C86.1648 59.36 86.0661 58.976 85.9328 58.592C85.7995 58.208 85.6288 57.824 85.4208 57.44L85.9408 57.256C86.3141 57.832 86.5888 58.4213 86.7648 59.024C86.9461 59.6213 87.0368 60.2453 87.0368 60.896C87.0368 61.5413 86.9461 62.1653 86.7648 62.768C86.5888 63.3653 86.3141 63.9547 85.9408 64.536Z" fill="black"/>
<defs>
<filter id="filter0_d_236_898" x="0.0999999" y="24" width="136.284" height="55.1729" filterUnits="userSpaceOnUse" color-interpolation-filters="sRGB">
<feFlood flood-opacity="0" result="BackgroundImageFix"/>
<feColorMatrix in="SourceAlpha" type="matrix" values="0 0 0 0 0 0 0 0 0 0 0 0 0 0 0 0 0 0 127 0" result="hardAlpha"/>
<feOffset dy="4"/>
<feGaussianBlur stdDeviation="1.95"/>
<feComposite in2="hardAlpha" operator="out"/>
<feColorMatrix type="matrix" values="0 0 0 0 0 0 0 0 0 0 0 0 0 0 0 0 0 0 0.2 0"/>
<feBlend mode="normal" in2="BackgroundImageFix" result="effect1_dropShadow_236_898"/>
<feBlend mode="normal" in="SourceGraphic" in2="effect1_dropShadow_236_898" result="shape"/>
</filter>
<clipPath id="clip0_236_898">
<rect width="21.8182" height="21.8182" fill="white" transform="translate(55.6367 2.42432)"/>
</clipPath>
</defs>
</svg>
