<svg width="90" height="79" viewBox="0 0 90 79" fill="none" xmlns="http://www.w3.org/2000/svg">
<g filter="url(#filter0_d_241_637)">
<rect x="4" y="24" width="81.8305" height="46.9322" rx="2" fill="#EBDBBA"/>
<rect x="4.25" y="24.25" width="81.3305" height="46.4322" rx="1.75" stroke="#EBDBBA" stroke-width="0.5"/>
</g>
<rect x="29.3389" width="30.0847" height="30.0847" rx="3" fill="#CB3335"/>
<g clip-path="url(#clip0_241_637)">
<path d="M52.0029 17.7501L49.3704 12.4853H50.097C50.2366 12.4853 50.3705 12.4298 50.4693 12.3311C50.568 12.2324 50.6235 12.0985 50.6235 11.9588C50.6235 11.8192 50.568 11.6853 50.4693 11.5865C50.3705 11.4878 50.2366 11.4323 50.097 11.4323H49.2652C48.6995 10.8163 48.018 10.3178 47.2595 9.96545C46.501 9.61312 45.6804 9.41385 44.8448 9.37905L44.8322 9.3264C44.8322 9.04714 44.7212 8.77931 44.5238 8.58184C44.3263 8.38437 44.0585 8.27344 43.7792 8.27344C43.4999 8.27344 43.2321 8.38437 43.0346 8.58184C42.8372 8.77931 42.7262 9.04714 42.7262 9.3264V9.37905C41.0245 9.44982 39.4186 10.186 38.2543 11.4292L37.4614 11.4323C37.3218 11.4323 37.1879 11.4878 37.0891 11.5865C36.9904 11.6853 36.9349 11.8192 36.9349 11.9588C36.9349 12.0985 36.9904 12.2324 37.0891 12.3311C37.1879 12.4298 37.3218 12.4853 37.4614 12.4853H38.1879L35.5555 17.7501H35.3555C35.3555 18.9084 36.7664 19.8561 38.5144 19.8561C40.2623 19.8561 41.6733 18.9084 41.6733 17.7501H41.4732L38.7881 12.3905C38.8547 12.3515 38.9118 12.2983 38.9556 12.2347C39.4212 11.6875 39.9973 11.2449 40.6461 10.9361C41.2948 10.6272 42.0016 10.459 42.7199 10.4425L42.7262 21.962H41.6733V23.015H39.5673V24.0679H47.9911V23.015H45.8851V21.962H44.8322V10.4425C45.5424 10.456 46.2414 10.6221 46.8816 10.9297C47.5219 11.2374 48.0885 11.6792 48.5428 12.2252C48.5915 12.3078 48.6617 12.3755 48.746 12.4211L46.0852 17.7501H45.8851C45.8851 18.9084 47.2961 19.8561 49.044 19.8561C50.792 19.8561 52.2029 18.9084 52.2029 17.7501H52.0029ZM40.6203 17.7501H36.4084L38.5144 13.6014L40.6203 17.7501ZM46.9381 17.7501L49.044 13.6014L51.15 17.7501H46.9381Z" fill="#EBDBBA"/>
</g>
<rect width="46" height="20" transform="translate(22 38)" fill="#EBDBBA"/>
<path d="M32.668 46L30.86 40.36H31.612L33.084 45.144H33.012L34.652 40.36H35.236L36.86 45.144H36.804L38.292 40.36H39.012L37.196 46H36.516L34.924 41.344H34.956L33.332 46H32.668ZM41.5223 46.072C41.0796 46.072 40.6956 45.992 40.3703 45.832C40.0503 45.6667 39.8049 45.432 39.6343 45.128C39.4636 44.8187 39.3783 44.4507 39.3783 44.024C39.3783 43.624 39.4583 43.272 39.6183 42.968C39.7783 42.6587 40.0049 42.416 40.2983 42.24C40.5916 42.064 40.9409 41.976 41.3463 41.976C41.7303 41.976 42.0556 42.0587 42.3223 42.224C42.5943 42.3893 42.7996 42.6213 42.9383 42.92C43.0823 43.2187 43.1543 43.5733 43.1543 43.984V44.216H39.9143V43.72H42.6903L42.5383 43.88C42.5383 43.4427 42.4343 43.1067 42.2263 42.872C42.0236 42.6373 41.7303 42.52 41.3463 42.52C41.0956 42.52 40.8716 42.5787 40.6743 42.696C40.4823 42.808 40.3329 42.968 40.2263 43.176C40.1196 43.384 40.0663 43.6373 40.0663 43.936V44.016C40.0663 44.336 40.1249 44.6053 40.2423 44.824C40.3596 45.0427 40.5276 45.208 40.7463 45.32C40.9649 45.432 41.2263 45.488 41.5303 45.488C41.7489 45.488 41.9703 45.4587 42.1943 45.4C42.4236 45.336 42.6369 45.224 42.8343 45.064L43.0743 45.576C42.8716 45.7467 42.6289 45.872 42.3463 45.952C42.0689 46.032 41.7943 46.072 41.5223 46.072ZM44.2492 41.096V40.304H45.1132V41.096H44.2492ZM44.3292 46V42.048H45.0412V46H44.3292ZM48.174 47.512C47.8593 47.512 47.5473 47.464 47.238 47.368C46.9287 47.2773 46.6647 47.152 46.446 46.992L46.67 46.44C46.8193 46.536 46.9767 46.6187 47.142 46.688C47.3073 46.7627 47.4753 46.816 47.646 46.848C47.822 46.8853 47.9953 46.904 48.166 46.904C48.5767 46.904 48.8967 46.8 49.126 46.592C49.3607 46.384 49.478 46.088 49.478 45.704V44.976H49.462C49.366 45.248 49.1927 45.4693 48.942 45.64C48.6913 45.8053 48.4007 45.888 48.07 45.888C47.6967 45.888 47.3713 45.808 47.094 45.648C46.8167 45.4827 46.6007 45.2533 46.446 44.96C46.2967 44.6667 46.222 44.3227 46.222 43.928C46.222 43.5387 46.2967 43.1973 46.446 42.904C46.6007 42.6107 46.8167 42.384 47.094 42.224C47.3713 42.0587 47.6967 41.976 48.07 41.976C48.4007 41.976 48.6913 42.0613 48.942 42.232C49.198 42.4027 49.374 42.6293 49.47 42.912H49.478V42.048H50.142V45.64C50.142 46.024 50.062 46.3547 49.902 46.632C49.7473 46.9147 49.5233 47.1307 49.23 47.28C48.9367 47.4347 48.5847 47.512 48.174 47.512ZM48.19 45.304C48.5793 45.304 48.886 45.1787 49.11 44.928C49.3393 44.6773 49.454 44.344 49.454 43.928C49.454 43.512 49.3393 43.1813 49.11 42.936C48.886 42.6853 48.5793 42.56 48.19 42.56C47.806 42.56 47.4993 42.6853 47.27 42.936C47.046 43.1813 46.934 43.512 46.934 43.928C46.934 44.344 47.046 44.6773 47.27 44.928C47.4993 45.1787 47.806 45.304 48.19 45.304ZM51.5636 46V40.36H52.2516V42.888C52.3689 42.6053 52.5529 42.384 52.8036 42.224C53.0596 42.0587 53.3476 41.976 53.6676 41.976C53.9929 41.976 54.2649 42.0347 54.4836 42.152C54.7022 42.264 54.8649 42.44 54.9716 42.68C55.0836 42.9147 55.1396 43.208 55.1396 43.56V46H54.4276V43.6C54.4276 43.3867 54.3956 43.2053 54.3316 43.056C54.2729 42.9067 54.1769 42.792 54.0436 42.712C53.9102 42.6267 53.7316 42.584 53.5076 42.584C53.2729 42.584 53.0622 42.6373 52.8756 42.744C52.6889 42.8507 52.5422 42.9947 52.4356 43.176C52.3289 43.3573 52.2756 43.56 52.2756 43.784V46H51.5636ZM58.2119 46.072C57.7373 46.072 57.3773 45.9467 57.1319 45.696C56.8919 45.4453 56.7719 45.088 56.7719 44.624V42.632H55.9719V42.048H56.7959V40.872H57.4839V42.048H58.8999V42.632H57.4839V44.56C57.4839 44.864 57.5506 45.0907 57.6839 45.24C57.8226 45.384 58.0333 45.456 58.3159 45.456C58.4279 45.456 58.5346 45.4453 58.6359 45.424C58.7426 45.4027 58.8439 45.3707 58.9399 45.328L59.0519 45.888C58.9453 45.9467 58.8146 45.992 58.6599 46.024C58.5106 46.056 58.3613 46.072 58.2119 46.072Z" fill="#CE3439"/>
<path d="M22.656 59V58.472L24.64 56.392C24.832 56.1893 24.9813 56.0053 25.088 55.84C25.1947 55.6747 25.272 55.5147 25.32 55.36C25.368 55.2053 25.392 55.048 25.392 54.888C25.392 54.5733 25.2907 54.3333 25.088 54.168C24.8907 53.9973 24.616 53.912 24.264 53.912C23.9973 53.912 23.7333 53.9653 23.472 54.072C23.216 54.1733 22.9707 54.336 22.736 54.56L22.464 54C22.6987 53.776 22.9787 53.6027 23.304 53.48C23.6293 53.352 23.9653 53.288 24.312 53.288C24.68 53.288 24.9973 53.352 25.264 53.48C25.5307 53.6027 25.7333 53.7813 25.872 54.016C26.016 54.2453 26.088 54.5227 26.088 54.848C26.088 55.0133 26.0693 55.176 26.032 55.336C25.9947 55.4907 25.936 55.6453 25.856 55.8C25.7813 55.9547 25.6827 56.1147 25.56 56.28C25.4373 56.4453 25.288 56.6187 25.112 56.8L23.56 58.416V58.384H26.32V59H22.656ZM28.8449 59.072C28.6369 59.072 28.4342 59.048 28.2369 59C28.0449 58.952 27.8609 58.88 27.6849 58.784C27.5142 58.6827 27.3542 58.56 27.2049 58.416L27.4769 57.872C27.6955 58.0907 27.9169 58.2427 28.1409 58.328C28.3649 58.408 28.6022 58.448 28.8529 58.448C29.1142 58.448 29.3435 58.4 29.5409 58.304C29.7435 58.2027 29.9142 58.056 30.0529 57.864C30.1915 57.6667 30.2955 57.424 30.3649 57.136C30.4342 56.848 30.4689 56.5173 30.4689 56.144V55.68H30.4609C30.4182 55.9307 30.3222 56.1493 30.1729 56.336C30.0289 56.5173 29.8502 56.656 29.6369 56.752C29.4235 56.848 29.1889 56.896 28.9329 56.896C28.5969 56.896 28.2982 56.8213 28.0369 56.672C27.7755 56.5227 27.5702 56.3147 27.4209 56.048C27.2769 55.7813 27.2049 55.472 27.2049 55.12C27.2049 54.768 27.2822 54.4533 27.4369 54.176C27.5915 53.8987 27.8049 53.6827 28.0769 53.528C28.3489 53.368 28.6609 53.288 29.0129 53.288C29.4715 53.288 29.8582 53.3973 30.1729 53.616C30.4875 53.8293 30.7249 54.1413 30.8849 54.552C31.0449 54.9627 31.1249 55.464 31.1249 56.056C31.1249 56.696 31.0342 57.2427 30.8529 57.696C30.6715 58.144 30.4102 58.4853 30.0689 58.72C29.7329 58.9547 29.3249 59.072 28.8449 59.072ZM29.0529 56.304C29.2875 56.304 29.4955 56.2533 29.6769 56.152C29.8582 56.0507 29.9995 55.9093 30.1009 55.728C30.2022 55.5467 30.2529 55.3387 30.2529 55.104C30.2529 54.8587 30.2022 54.6453 30.1009 54.464C30.0049 54.2827 29.8662 54.144 29.6849 54.048C29.5035 53.9467 29.2902 53.896 29.0449 53.896C28.8102 53.896 28.6049 53.9467 28.4289 54.048C28.2529 54.1493 28.1142 54.2907 28.0129 54.472C27.9169 54.6533 27.8689 54.864 27.8689 55.104C27.8689 55.3387 27.9195 55.5467 28.0209 55.728C28.1222 55.9093 28.2609 56.0507 28.4369 56.152C28.6129 56.2533 28.8182 56.304 29.0529 56.304ZM32.1698 59V58.12H33.0818V59H32.1698ZM36.0563 59.072C35.6243 59.072 35.2589 58.9627 34.9603 58.744C34.6616 58.52 34.4349 58.1947 34.2803 57.768C34.1309 57.336 34.0563 56.8053 34.0563 56.176C34.0563 55.5467 34.1309 55.0187 34.2803 54.592C34.4349 54.1653 34.6616 53.8427 34.9603 53.624C35.2589 53.4 35.6243 53.288 36.0563 53.288C36.4989 53.288 36.8669 53.3973 37.1603 53.616C37.4536 53.8347 37.6749 54.1573 37.8243 54.584C37.9789 55.0107 38.0563 55.5387 38.0563 56.168C38.0563 56.7973 37.9789 57.328 37.8243 57.76C37.6749 58.192 37.4509 58.52 37.1523 58.744C36.8536 58.9627 36.4883 59.072 36.0563 59.072ZM36.0563 58.448C36.4936 58.448 36.8189 58.264 37.0323 57.896C37.2456 57.528 37.3523 56.952 37.3523 56.168C37.3523 55.3893 37.2456 54.8187 37.0323 54.456C36.8243 54.0933 36.5016 53.912 36.0643 53.912C35.6216 53.912 35.2936 54.096 35.0803 54.464C34.8669 54.8267 34.7603 55.3973 34.7603 56.176C34.7603 56.9493 34.8669 57.5227 35.0803 57.896C35.2936 58.264 35.6189 58.448 36.0563 58.448ZM39.1091 59V58.472L41.0931 56.392C41.2851 56.1893 41.4345 56.0053 41.5411 55.84C41.6478 55.6747 41.7251 55.5147 41.7731 55.36C41.8211 55.2053 41.8451 55.048 41.8451 54.888C41.8451 54.5733 41.7438 54.3333 41.5411 54.168C41.3438 53.9973 41.0691 53.912 40.7171 53.912C40.4505 53.912 40.1865 53.9653 39.9251 54.072C39.6691 54.1733 39.4238 54.336 39.1891 54.56L38.9171 54C39.1518 53.776 39.4318 53.6027 39.7571 53.48C40.0825 53.352 40.4185 53.288 40.7651 53.288C41.1331 53.288 41.4505 53.352 41.7171 53.48C41.9838 53.6027 42.1865 53.7813 42.3251 54.016C42.4691 54.2453 42.5411 54.5227 42.5411 54.848C42.5411 55.0133 42.5225 55.176 42.4851 55.336C42.4478 55.4907 42.3891 55.6453 42.3091 55.8C42.2345 55.9547 42.1358 56.1147 42.0131 56.28C41.8905 56.4453 41.7411 56.6187 41.5651 56.8L40.0131 58.416V58.384H42.7731V59H39.1091ZM47.3724 60.536C46.9937 59.96 46.7137 59.3733 46.5324 58.776C46.3564 58.1733 46.2684 57.5467 46.2684 56.896C46.2684 56.2453 46.3564 55.6213 46.5324 55.024C46.7137 54.4267 46.9937 53.8373 47.3724 53.256L47.8844 53.44C47.6817 53.8187 47.5137 54.2 47.3804 54.584C47.247 54.968 47.1457 55.352 47.0764 55.736C47.0124 56.1147 46.9804 56.5013 46.9804 56.896C46.9804 57.2853 47.0124 57.672 47.0764 58.056C47.1457 58.44 47.247 58.8213 47.3804 59.2C47.5137 59.584 47.6817 59.968 47.8844 60.352L47.3724 60.536ZM51.4936 59.072C50.9069 59.072 50.4056 58.9573 49.9896 58.728C49.5736 58.4987 49.2536 58.1707 49.0296 57.744C48.8109 57.312 48.7016 56.7893 48.7016 56.176C48.7016 55.5733 48.8082 55.0587 49.0216 54.632C49.2402 54.2 49.5522 53.8693 49.9576 53.64C50.3629 53.4053 50.8482 53.288 51.4136 53.288C51.6909 53.288 51.9549 53.3147 52.2056 53.368C52.4562 53.4213 52.6882 53.5013 52.9016 53.608C53.1149 53.7093 53.2962 53.8373 53.4456 53.992L53.1736 54.544C52.9229 54.3253 52.6536 54.1707 52.3656 54.08C52.0776 53.984 51.7576 53.936 51.4056 53.936C50.7869 53.936 50.3042 54.128 49.9576 54.512C49.6162 54.8907 49.4456 55.4453 49.4456 56.176C49.4456 56.9333 49.6216 57.5013 49.9736 57.88C50.3309 58.2533 50.8482 58.44 51.5256 58.44C51.8242 58.44 52.1016 58.416 52.3576 58.368C52.6189 58.32 52.8562 58.2507 53.0696 58.16L52.8616 58.576V56.616H51.4536V56.008H53.5096V58.672C53.3602 58.7467 53.1736 58.816 52.9496 58.88C52.7256 58.9387 52.4882 58.984 52.2376 59.016C51.9869 59.0533 51.7389 59.072 51.4936 59.072ZM54.9854 59V55.048H55.6334V55.96H55.6414C55.7374 55.6667 55.9054 55.4373 56.1454 55.272C56.3854 55.1013 56.6788 55.0053 57.0254 54.984L57.3854 54.968L57.4494 55.616L56.8734 55.664C56.5054 55.696 56.2174 55.8187 56.0094 56.032C55.8014 56.24 55.6974 56.5013 55.6974 56.816V59H54.9854ZM58.3452 59V55.048H59.0012V55.912C59.0705 55.736 59.1665 55.5787 59.2892 55.44C59.4172 55.296 59.5692 55.184 59.7452 55.104C59.9265 55.0187 60.1239 54.976 60.3372 54.976C60.6839 54.976 60.9692 55.0613 61.1932 55.232C61.4172 55.4027 61.5559 55.6267 61.6092 55.904H61.6012C61.7079 55.6427 61.8759 55.424 62.1052 55.248C62.3399 55.0667 62.6332 54.976 62.9852 54.976C63.2839 54.976 63.5372 55.0347 63.7452 55.152C63.9532 55.264 64.1105 55.4373 64.2172 55.672C64.3239 55.9067 64.3772 56.2027 64.3772 56.56V59H63.6732V56.608C63.6732 56.2667 63.6119 56.0107 63.4892 55.84C63.3665 55.6693 63.1479 55.584 62.8332 55.584C62.5985 55.584 62.3959 55.6373 62.2252 55.744C62.0599 55.8453 61.9319 55.9893 61.8412 56.176C61.7559 56.3573 61.7132 56.5627 61.7132 56.792V59H61.0092V56.608C61.0092 56.272 60.9399 56.0187 60.8012 55.848C60.6625 55.672 60.4519 55.584 60.1692 55.584C59.9399 55.584 59.7399 55.6427 59.5692 55.76C59.4039 55.872 59.2759 56.0187 59.1852 56.2C59.0945 56.3813 59.0492 56.5733 59.0492 56.776V59H58.3452ZM65.9018 60.536L65.3818 60.352C65.5898 59.9627 65.7604 59.576 65.8938 59.192C66.0271 58.8133 66.1258 58.4347 66.1898 58.056C66.2538 57.672 66.2858 57.2853 66.2858 56.896C66.2858 56.5067 66.2538 56.1227 66.1898 55.744C66.1258 55.36 66.0271 54.976 65.8938 54.592C65.7604 54.208 65.5898 53.824 65.3818 53.44L65.9018 53.256C66.2751 53.832 66.5498 54.4213 66.7258 55.024C66.9071 55.6213 66.9978 56.2453 66.9978 56.896C66.9978 57.5413 66.9071 58.1653 66.7258 58.768C66.5498 59.3653 66.2751 59.9547 65.9018 60.536Z" fill="black"/>
<defs>
<filter id="filter0_d_241_637" x="0.0999999" y="24" width="89.6301" height="54.8326" filterUnits="userSpaceOnUse" color-interpolation-filters="sRGB">
<feFlood flood-opacity="0" result="BackgroundImageFix"/>
<feColorMatrix in="SourceAlpha" type="matrix" values="0 0 0 0 0 0 0 0 0 0 0 0 0 0 0 0 0 0 127 0" result="hardAlpha"/>
<feOffset dy="4"/>
<feGaussianBlur stdDeviation="1.95"/>
<feComposite in2="hardAlpha" operator="out"/>
<feColorMatrix type="matrix" values="0 0 0 0 0 0 0 0 0 0 0 0 0 0 0 0 0 0 0.2 0"/>
<feBlend mode="normal" in2="BackgroundImageFix" result="effect1_dropShadow_241_637"/>
<feBlend mode="normal" in="SourceGraphic" in2="effect1_dropShadow_241_637" result="shape"/>
</filter>
<clipPath id="clip0_241_637">
<rect width="16.8475" height="16.8475" fill="white" transform="translate(35.3555 7.2207)"/>
</clipPath>
</defs>
</svg>
