<svg width="136" height="79" viewBox="0 0 136 79" fill="none" xmlns="http://www.w3.org/2000/svg">
<g filter="url(#filter0_d_236_951)">
<rect x="4" y="24" width="127.559" height="46.9322" rx="2" fill="#EBDBBA"/>
<rect x="4.25" y="24.25" width="127.059" height="46.4322" rx="1.75" stroke="#EBDBBA" stroke-width="0.5"/>
</g>
<rect x="52.2715" width="30.0847" height="30.0847" rx="3" fill="#CB3335"/>
<g clip-path="url(#clip0_236_951)">
<path fill-rule="evenodd" clip-rule="evenodd" d="M66.7969 2.41513C66.8785 2.41005 66.964 2.42359 66.9872 2.44475C67.0105 2.4659 67.6485 2.80139 68.4045 3.19061C69.161 3.57941 70.1031 4.06467 70.4987 4.26859C70.8943 4.47208 72.5984 5.34783 74.2851 6.21469C75.9723 7.08113 77.385 7.8215 77.4251 7.85958C77.4928 7.92388 77.4979 8.27883 77.5005 13.238C77.5026 17.4852 77.492 18.5627 77.4488 18.6245C77.4192 18.6668 75.0247 19.9094 72.1275 21.3854C69.2303 22.8619 66.8222 24.0698 66.7757 24.0698C66.7292 24.0698 66.4817 23.959 66.2257 23.824C65.9698 23.6886 63.5727 22.4558 60.8989 21.0842C56.8925 19.0285 56.0235 18.5674 55.9579 18.4629C55.8966 18.3652 55.8822 18.278 55.8949 18.0821C55.9042 17.9425 55.9448 15.5915 55.985 12.8573C56.0256 10.123 56.0759 7.83842 56.0971 7.78046C56.1292 7.69204 56.9961 7.24486 61.3922 5.04957C64.9049 3.29511 66.6979 2.42148 66.7969 2.41513ZM57.1421 7.92515C57.1471 7.93869 57.8029 8.29618 58.5999 8.71967C59.397 9.14316 60.0968 9.51673 60.1547 9.55015C60.2563 9.60896 60.4479 9.51419 65.0306 7.14121C67.654 5.78232 69.7863 4.65865 69.7689 4.64342C69.7516 4.62819 69.0852 4.28085 68.2882 3.87133C67.4911 3.4618 66.8155 3.128 66.7863 3.12927C66.7571 3.13054 64.5732 4.2047 61.9333 5.51621C59.2934 6.82772 57.1374 7.91161 57.1421 7.92515ZM64.0355 8.39391C62.3674 9.25485 61.0017 9.96856 61.0017 9.98041C61.0013 9.99183 61.4053 10.2186 61.8999 10.4839L62.7989 10.9657C63.2579 10.7309 65.3974 9.61911 67.849 8.34356C70.3007 7.06844 72.309 6.0057 72.3124 5.98243C72.3153 5.95916 71.924 5.73536 71.4421 5.48533C70.9607 5.23529 70.5609 5.03095 70.5537 5.0318C70.5469 5.03264 69.7596 5.4371 68.8047 5.93081C67.8499 6.42453 65.7037 7.53297 64.0355 8.39391ZM66.2587 9.90426C64.7645 10.6789 63.5409 11.3275 63.5405 11.3448C63.5397 11.3621 64.2534 11.7573 65.1258 12.2227L66.7123 13.0688C74.1388 9.26754 76.3273 8.13965 76.3675 8.10961C76.4305 8.06265 76.227 7.9463 74.7907 7.20932C73.8832 6.74395 73.1272 6.36065 73.1103 6.35769C73.0934 6.35473 72.1563 6.83448 71.0275 7.42382C69.8988 8.01273 67.753 9.1292 66.2587 9.90426ZM56.6471 13.2803C56.5938 16.7304 56.5857 18.0953 56.6187 18.1295C56.6437 18.1553 57.1311 18.4151 57.7009 18.707C58.2712 18.9985 60.4699 20.1251 62.5874 21.2103C64.7048 22.295 66.4415 23.1775 66.447 23.1708C66.4521 23.1644 66.4385 21.0169 66.4165 18.3994C66.3945 15.7815 66.3713 13.637 66.3645 13.6332C66.3581 13.6294 65.6292 13.2368 64.745 12.7612L63.1373 11.8965C63.0959 12.1 63.0722 12.6635 63.0574 13.2803C63.0341 14.2779 63.0227 14.4133 62.9533 14.5072C62.9011 14.5777 62.8271 14.6168 62.7312 14.6244C62.6153 14.6341 62.35 14.511 61.3626 13.9898C60.6891 13.6344 60.0942 13.3104 60.0405 13.2698L59.9432 13.1957L59.922 10.1733C58.0529 9.16897 57.3341 8.78313 57.1184 8.66806C56.9026 8.55256 56.7249 8.46287 56.7236 8.46837C56.7228 8.47387 56.6881 10.6391 56.6471 13.2803ZM67.0791 13.6268C67.06 13.634 67.06 15.7866 67.0791 18.41C67.0985 21.0334 67.1239 23.1809 67.1353 23.1814C67.1467 23.1822 69.3361 22.0712 72.0006 20.7123L76.8447 18.2421C76.8612 10.7902 76.8519 8.62786 76.8341 8.62956C76.8168 8.63167 74.6228 9.75364 71.9583 11.1235C69.2938 12.4934 67.0985 13.6196 67.0791 13.6268ZM60.5786 12.8361C61.8927 13.5244 62.2967 13.73 62.325 13.7364C62.3623 13.7449 62.3843 13.557 62.4075 13.0383C62.4253 12.6478 62.4393 12.1474 62.4393 11.9265V11.5246C61.0622 10.7868 60.6434 10.5727 60.6201 10.5727C60.593 10.5727 60.5778 10.978 60.5782 11.7044L60.5786 12.8361Z" fill="#EBDBBA"/>
</g>
<path d="M16.832 38V32.36H19.152C19.5573 32.36 19.9013 32.4267 20.184 32.56C20.4667 32.6933 20.6827 32.888 20.832 33.144C20.9867 33.3947 21.064 33.6987 21.064 34.056C21.064 34.4133 20.9867 34.72 20.832 34.976C20.6827 35.232 20.464 35.4293 20.176 35.568C19.8933 35.7067 19.552 35.776 19.152 35.776H17.544V38H16.832ZM17.544 35.168H19.048C19.4747 35.168 19.7973 35.0773 20.016 34.896C20.2347 34.7093 20.344 34.432 20.344 34.064C20.344 33.6907 20.2347 33.416 20.016 33.24C19.7973 33.0587 19.4747 32.968 19.048 32.968H17.544V35.168ZM21.7242 33.096V32.304H22.5882V33.096H21.7242ZM21.8042 38V34.048H22.5162V38H21.8042ZM25.441 38.072C24.9983 38.072 24.6143 37.992 24.289 37.832C23.969 37.6667 23.7237 37.432 23.553 37.128C23.3823 36.8187 23.297 36.4507 23.297 36.024C23.297 35.624 23.377 35.272 23.537 34.968C23.697 34.6587 23.9237 34.416 24.217 34.24C24.5103 34.064 24.8597 33.976 25.265 33.976C25.649 33.976 25.9743 34.0587 26.241 34.224C26.513 34.3893 26.7183 34.6213 26.857 34.92C27.001 35.2187 27.073 35.5733 27.073 35.984V36.216H23.833V35.72H26.609L26.457 35.88C26.457 35.4427 26.353 35.1067 26.145 34.872C25.9423 34.6373 25.649 34.52 25.265 34.52C25.0143 34.52 24.7903 34.5787 24.593 34.696C24.401 34.808 24.2517 34.968 24.145 35.176C24.0383 35.384 23.985 35.6373 23.985 35.936V36.016C23.985 36.336 24.0437 36.6053 24.161 36.824C24.2783 37.0427 24.4463 37.208 24.665 37.32C24.8837 37.432 25.145 37.488 25.449 37.488C25.6677 37.488 25.889 37.4587 26.113 37.4C26.3423 37.336 26.5557 37.224 26.753 37.064L26.993 37.576C26.7903 37.7467 26.5477 37.872 26.265 37.952C25.9877 38.032 25.713 38.072 25.441 38.072ZM29.6079 38.072C29.2026 38.072 28.8506 37.9867 28.5519 37.816C28.2533 37.6453 28.0213 37.408 27.8559 37.104C27.6906 36.7947 27.6079 36.432 27.6079 36.016C27.6079 35.6 27.6906 35.24 27.8559 34.936C28.0213 34.6267 28.2533 34.3893 28.5519 34.224C28.8559 34.0587 29.2106 33.976 29.6159 33.976C29.8879 33.976 30.1466 34.0213 30.3919 34.112C30.6373 34.2027 30.8399 34.3253 30.9999 34.48L30.7519 35.008C30.5973 34.8693 30.4239 34.7653 30.2319 34.696C30.0399 34.6213 29.8533 34.584 29.6719 34.584C29.2559 34.584 28.9279 34.7093 28.6879 34.96C28.4479 35.2107 28.3279 35.5653 28.3279 36.024C28.3279 36.4773 28.4479 36.832 28.6879 37.088C28.9279 37.3387 29.2533 37.464 29.6639 37.464C29.8506 37.464 30.0373 37.4293 30.2239 37.36C30.4159 37.2853 30.5866 37.1813 30.7359 37.048L30.9839 37.576C30.8293 37.7307 30.6293 37.8533 30.3839 37.944C30.1386 38.0293 29.8799 38.072 29.6079 38.072ZM33.3363 38.072C32.8936 38.072 32.5096 37.992 32.1843 37.832C31.8643 37.6667 31.619 37.432 31.4483 37.128C31.2776 36.8187 31.1923 36.4507 31.1923 36.024C31.1923 35.624 31.2723 35.272 31.4323 34.968C31.5923 34.6587 31.819 34.416 32.1123 34.24C32.4056 34.064 32.755 33.976 33.1603 33.976C33.5443 33.976 33.8696 34.0587 34.1363 34.224C34.4083 34.3893 34.6136 34.6213 34.7523 34.92C34.8963 35.2187 34.9683 35.5733 34.9683 35.984V36.216H31.7283V35.72H34.5043L34.3523 35.88C34.3523 35.4427 34.2483 35.1067 34.0403 34.872C33.8376 34.6373 33.5443 34.52 33.1603 34.52C32.9096 34.52 32.6856 34.5787 32.4883 34.696C32.2963 34.808 32.147 34.968 32.0403 35.176C31.9336 35.384 31.8803 35.6373 31.8803 35.936V36.016C31.8803 36.336 31.939 36.6053 32.0563 36.824C32.1736 37.0427 32.3416 37.208 32.5603 37.32C32.779 37.432 33.0403 37.488 33.3443 37.488C33.563 37.488 33.7843 37.4587 34.0083 37.4C34.2376 37.336 34.451 37.224 34.6483 37.064L34.8883 37.576C34.6856 37.7467 34.443 37.872 34.1603 37.952C33.883 38.032 33.6083 38.072 33.3363 38.072ZM37.1993 38.072C36.9806 38.072 36.7646 38.0507 36.5513 38.008C36.3433 37.9707 36.1486 37.9173 35.9673 37.848C35.7913 37.7733 35.6393 37.6827 35.5113 37.576L35.7433 37.072C35.8766 37.1733 36.0233 37.256 36.1833 37.32C36.3486 37.384 36.5166 37.432 36.6873 37.464C36.8633 37.4907 37.0313 37.504 37.1913 37.504C37.5219 37.504 37.7753 37.4533 37.9513 37.352C38.1326 37.2507 38.2233 37.1093 38.2233 36.928C38.2233 36.7733 38.1699 36.656 38.0633 36.576C37.9619 36.4907 37.7913 36.4267 37.5513 36.384L36.7273 36.24C36.3593 36.1707 36.0819 36.0453 35.8953 35.864C35.7139 35.6827 35.6233 35.4453 35.6233 35.152C35.6233 34.9173 35.6873 34.712 35.8153 34.536C35.9486 34.36 36.1379 34.224 36.3833 34.128C36.6286 34.0267 36.9219 33.976 37.2633 33.976C37.4499 33.976 37.6393 33.9947 37.8313 34.032C38.0286 34.0693 38.2099 34.1253 38.3753 34.2C38.5459 34.2693 38.6846 34.3573 38.7913 34.464L38.5513 34.968C38.4446 34.8667 38.3166 34.7867 38.1673 34.728C38.0233 34.664 37.8713 34.6187 37.7113 34.592C37.5566 34.56 37.4046 34.544 37.2553 34.544C36.9459 34.544 36.7059 34.5973 36.5353 34.704C36.3646 34.8053 36.2793 34.9493 36.2793 35.136C36.2793 35.2853 36.3273 35.4027 36.4233 35.488C36.5246 35.5733 36.6873 35.6373 36.9113 35.68L37.7113 35.824C38.1059 35.8987 38.3993 36.024 38.5913 36.2C38.7833 36.3707 38.8793 36.608 38.8793 36.912C38.8793 37.1467 38.8099 37.352 38.6713 37.528C38.5326 37.6987 38.3379 37.832 38.0873 37.928C37.8366 38.024 37.5406 38.072 37.1993 38.072Z" fill="#CE3439"/>
<path d="M56.9318 38.072C56.4785 38.072 56.0945 37.9627 55.7798 37.744C55.4652 37.5253 55.2252 37.2107 55.0598 36.8C54.8945 36.384 54.8118 35.8853 54.8118 35.304C54.8118 34.6533 54.9025 34.1067 55.0838 33.664C55.2652 33.216 55.5265 32.8747 55.8678 32.64C56.2092 32.4053 56.6198 32.288 57.0998 32.288C57.3132 32.288 57.5158 32.3147 57.7078 32.368C57.8998 32.416 58.0812 32.4907 58.2518 32.592C58.4225 32.6933 58.5825 32.8187 58.7318 32.968L58.4678 33.52C58.2598 33.3013 58.0412 33.1467 57.8118 33.056C57.5825 32.96 57.3452 32.912 57.0998 32.912C56.8385 32.912 56.6065 32.9627 56.4038 33.064C56.2012 33.16 56.0305 33.3067 55.8918 33.504C55.7532 33.696 55.6465 33.936 55.5718 34.224C55.5025 34.5067 55.4678 34.8373 55.4678 35.216V35.68H55.4758C55.5238 35.424 55.6198 35.2053 55.7638 35.024C55.9078 34.8373 56.0865 34.696 56.2998 34.6C56.5132 34.4987 56.7478 34.448 57.0038 34.448C57.3452 34.448 57.6438 34.5253 57.8998 34.68C58.1612 34.8293 58.3638 35.04 58.5078 35.312C58.6572 35.5787 58.7318 35.888 58.7318 36.24C58.7318 36.592 58.6545 36.9067 58.4998 37.184C58.3505 37.4613 58.1398 37.68 57.8678 37.84C57.5958 37.9947 57.2838 38.072 56.9318 38.072ZM56.8918 37.464C57.1265 37.464 57.3318 37.4133 57.5078 37.312C57.6838 37.2107 57.8198 37.0693 57.9158 36.888C58.0172 36.7067 58.0678 36.496 58.0678 36.256C58.0678 36.016 58.0172 35.808 57.9158 35.632C57.8198 35.4507 57.6838 35.3093 57.5078 35.208C57.3318 35.1067 57.1238 35.056 56.8838 35.056C56.6492 35.056 56.4412 35.1067 56.2598 35.208C56.0838 35.3093 55.9425 35.4507 55.8358 35.632C55.7345 35.808 55.6838 36.016 55.6838 36.256C55.6838 36.496 55.7345 36.7067 55.8358 36.888C55.9372 37.0693 56.0785 37.2107 56.2598 37.312C56.4412 37.4133 56.6518 37.464 56.8918 37.464ZM61.5367 38.072C61.1047 38.072 60.7394 37.9627 60.4407 37.744C60.1421 37.52 59.9154 37.1947 59.7607 36.768C59.6114 36.336 59.5367 35.8053 59.5367 35.176C59.5367 34.5467 59.6114 34.0187 59.7607 33.592C59.9154 33.1653 60.1421 32.8427 60.4407 32.624C60.7394 32.4 61.1047 32.288 61.5367 32.288C61.9794 32.288 62.3474 32.3973 62.6407 32.616C62.9341 32.8347 63.1554 33.1573 63.3047 33.584C63.4594 34.0107 63.5367 34.5387 63.5367 35.168C63.5367 35.7973 63.4594 36.328 63.3047 36.76C63.1554 37.192 62.9314 37.52 62.6327 37.744C62.3341 37.9627 61.9687 38.072 61.5367 38.072ZM61.5367 37.448C61.9741 37.448 62.2994 37.264 62.5127 36.896C62.7261 36.528 62.8327 35.952 62.8327 35.168C62.8327 34.3893 62.7261 33.8187 62.5127 33.456C62.3047 33.0933 61.9821 32.912 61.5447 32.912C61.1021 32.912 60.7741 33.096 60.5607 33.464C60.3474 33.8267 60.2407 34.3973 60.2407 35.176C60.2407 35.9493 60.3474 36.5227 60.5607 36.896C60.7741 37.264 61.0994 37.448 61.5367 37.448ZM66.3336 38.072C65.9016 38.072 65.5363 37.9627 65.2376 37.744C64.9389 37.52 64.7123 37.1947 64.5576 36.768C64.4083 36.336 64.3336 35.8053 64.3336 35.176C64.3336 34.5467 64.4083 34.0187 64.5576 33.592C64.7123 33.1653 64.9389 32.8427 65.2376 32.624C65.5363 32.4 65.9016 32.288 66.3336 32.288C66.7763 32.288 67.1443 32.3973 67.4376 32.616C67.7309 32.8347 67.9523 33.1573 68.1016 33.584C68.2563 34.0107 68.3336 34.5387 68.3336 35.168C68.3336 35.7973 68.2563 36.328 68.1016 36.76C67.9523 37.192 67.7283 37.52 67.4296 37.744C67.1309 37.9627 66.7656 38.072 66.3336 38.072ZM66.3336 37.448C66.7709 37.448 67.0963 37.264 67.3096 36.896C67.5229 36.528 67.6296 35.952 67.6296 35.168C67.6296 34.3893 67.5229 33.8187 67.3096 33.456C67.1016 33.0933 66.7789 32.912 66.3416 32.912C65.8989 32.912 65.5709 33.096 65.3576 33.464C65.1443 33.8267 65.0376 34.3973 65.0376 35.176C65.0376 35.9493 65.1443 36.5227 65.3576 36.896C65.5709 37.264 65.8963 37.448 66.3336 37.448ZM71.7968 38V32.36H72.4288L75.8848 36.952H75.8528V32.36H76.5328V38H75.8848L72.4448 33.424H72.4768V38H71.7968ZM79.7953 38.072C79.3953 38.072 79.0486 37.9867 78.7553 37.816C78.4619 37.6453 78.2353 37.408 78.0753 37.104C77.9153 36.7947 77.8353 36.432 77.8353 36.016C77.8353 35.6053 77.9153 35.248 78.0753 34.944C78.2353 34.6347 78.4619 34.3973 78.7553 34.232C79.0486 34.0613 79.3953 33.976 79.7953 33.976C80.1953 33.976 80.5393 34.0613 80.8273 34.232C81.1206 34.3973 81.3473 34.6347 81.5073 34.944C81.6673 35.248 81.7473 35.6053 81.7473 36.016C81.7473 36.432 81.6673 36.7947 81.5073 37.104C81.3526 37.408 81.1286 37.6453 80.8353 37.816C80.5419 37.9867 80.1953 38.072 79.7953 38.072ZM79.7873 37.472C80.1766 37.472 80.4833 37.3413 80.7073 37.08C80.9313 36.8187 81.0433 36.464 81.0433 36.016C81.0433 35.568 80.9313 35.216 80.7073 34.96C80.4886 34.704 80.1846 34.576 79.7953 34.576C79.4059 34.576 79.0993 34.704 78.8753 34.96C78.6513 35.216 78.5393 35.568 78.5393 36.016C78.5393 36.464 78.6513 36.8187 78.8753 37.08C79.1046 37.3413 79.4086 37.472 79.7873 37.472ZM84.3985 38.072C84.1798 38.072 83.9638 38.0507 83.7505 38.008C83.5425 37.9707 83.3478 37.9173 83.1665 37.848C82.9905 37.7733 82.8385 37.6827 82.7105 37.576L82.9425 37.072C83.0758 37.1733 83.2225 37.256 83.3825 37.32C83.5478 37.384 83.7158 37.432 83.8865 37.464C84.0625 37.4907 84.2305 37.504 84.3905 37.504C84.7211 37.504 84.9745 37.4533 85.1505 37.352C85.3318 37.2507 85.4225 37.1093 85.4225 36.928C85.4225 36.7733 85.3691 36.656 85.2625 36.576C85.1611 36.4907 84.9905 36.4267 84.7505 36.384L83.9265 36.24C83.5585 36.1707 83.2811 36.0453 83.0945 35.864C82.9131 35.6827 82.8225 35.4453 82.8225 35.152C82.8225 34.9173 82.8865 34.712 83.0145 34.536C83.1478 34.36 83.3371 34.224 83.5825 34.128C83.8278 34.0267 84.1211 33.976 84.4625 33.976C84.6491 33.976 84.8385 33.9947 85.0305 34.032C85.2278 34.0693 85.4091 34.1253 85.5745 34.2C85.7451 34.2693 85.8838 34.3573 85.9905 34.464L85.7505 34.968C85.6438 34.8667 85.5158 34.7867 85.3665 34.728C85.2225 34.664 85.0705 34.6187 84.9105 34.592C84.7558 34.56 84.6038 34.544 84.4545 34.544C84.1451 34.544 83.9051 34.5973 83.7345 34.704C83.5638 34.8053 83.4785 34.9493 83.4785 35.136C83.4785 35.2853 83.5265 35.4027 83.6225 35.488C83.7238 35.5733 83.8865 35.6373 84.1105 35.68L84.9105 35.824C85.3051 35.8987 85.5985 36.024 85.7905 36.2C85.9825 36.3707 86.0785 36.608 86.0785 36.912C86.0785 37.1467 86.0091 37.352 85.8705 37.528C85.7318 37.6987 85.5371 37.832 85.2865 37.928C85.0358 38.024 84.7398 38.072 84.3985 38.072ZM86.983 38.504L86.423 38.352L88.463 31.984L89.015 32.136L86.983 38.504ZM92.0642 38.072C91.5256 38.072 91.0562 37.9573 90.6562 37.728C90.2616 37.4933 89.9576 37.16 89.7442 36.728C89.5309 36.2907 89.4242 35.7733 89.4242 35.176C89.4242 34.5787 89.5309 34.064 89.7442 33.632C89.9576 33.2 90.2616 32.8693 90.6562 32.64C91.0509 32.4053 91.5202 32.288 92.0642 32.288C92.4589 32.288 92.8189 32.3493 93.1442 32.472C93.4696 32.5893 93.7496 32.7627 93.9842 32.992L93.7042 33.552C93.4589 33.3333 93.2056 33.176 92.9442 33.08C92.6882 32.984 92.4002 32.936 92.0802 32.936C91.4829 32.936 91.0136 33.128 90.6722 33.512C90.3362 33.8907 90.1682 34.4453 90.1682 35.176C90.1682 35.9013 90.3362 36.4587 90.6722 36.848C91.0082 37.232 91.4776 37.424 92.0802 37.424C92.4002 37.424 92.6882 37.376 92.9442 37.28C93.2056 37.184 93.4589 37.0267 93.7042 36.808L93.9842 37.368C93.7496 37.5973 93.4696 37.7733 93.1442 37.896C92.8189 38.0133 92.4589 38.072 92.0642 38.072ZM96.7158 38.072C96.2412 38.072 95.8812 37.9467 95.6358 37.696C95.3958 37.4453 95.2758 37.088 95.2758 36.624V34.632H94.4758V34.048H95.2998V32.872H95.9878V34.048H97.4038V34.632H95.9878V36.56C95.9878 36.864 96.0545 37.0907 96.1878 37.24C96.3265 37.384 96.5372 37.456 96.8198 37.456C96.9318 37.456 97.0385 37.4453 97.1398 37.424C97.2465 37.4027 97.3478 37.3707 97.4438 37.328L97.5558 37.888C97.4492 37.9467 97.3185 37.992 97.1638 38.024C97.0145 38.056 96.8652 38.072 96.7158 38.072ZM98.3878 38V34.048H99.0518V34.904C99.1798 34.6107 99.3718 34.384 99.6278 34.224C99.8838 34.0587 100.172 33.976 100.492 33.976C100.817 33.976 101.089 34.0347 101.308 34.152C101.526 34.264 101.689 34.44 101.796 34.68C101.908 34.9147 101.964 35.208 101.964 35.56V38H101.252V35.6C101.252 35.3867 101.222 35.2053 101.164 35.056C101.105 34.9067 101.006 34.792 100.868 34.712C100.734 34.6267 100.556 34.584 100.332 34.584C100.097 34.584 99.8838 34.6373 99.6918 34.744C99.5051 34.8507 99.3584 34.9947 99.2518 35.176C99.1504 35.3573 99.0998 35.56 99.0998 35.784V38H98.3878Z" fill="black"/>
<path d="M18.72 50.072C18.4107 50.072 18.1173 50.048 17.84 50C17.5627 49.952 17.3093 49.88 17.08 49.784C16.8507 49.688 16.6507 49.5707 16.48 49.432L16.744 48.84C16.9253 48.984 17.1173 49.1013 17.32 49.192C17.528 49.2773 17.7467 49.3387 17.976 49.376C18.2107 49.4133 18.4587 49.432 18.72 49.432C19.1627 49.432 19.5013 49.344 19.736 49.168C19.976 48.992 20.096 48.752 20.096 48.448C20.096 48.288 20.056 48.1547 19.976 48.048C19.9013 47.9413 19.7813 47.8533 19.616 47.784C19.456 47.7147 19.248 47.6533 18.992 47.6L18.072 47.424C17.5547 47.3227 17.1813 47.144 16.952 46.888C16.7227 46.632 16.608 46.3093 16.608 45.92C16.608 45.5893 16.6987 45.304 16.88 45.064C17.0667 44.8187 17.3227 44.6293 17.648 44.496C17.9787 44.3573 18.3547 44.288 18.776 44.288C19.0427 44.288 19.2907 44.3147 19.52 44.368C19.7547 44.416 19.968 44.4907 20.16 44.592C20.3573 44.6933 20.5333 44.816 20.688 44.96L20.424 45.544C20.1947 45.32 19.944 45.1627 19.672 45.072C19.4 44.976 19.0987 44.928 18.768 44.928C18.4907 44.928 18.2427 44.968 18.024 45.048C17.8053 45.1227 17.632 45.2347 17.504 45.384C17.3813 45.528 17.32 45.7067 17.32 45.92C17.32 46.1547 17.3947 46.3413 17.544 46.48C17.6933 46.6133 17.9467 46.7173 18.304 46.792L19.216 46.968C19.76 47.0693 20.1627 47.24 20.424 47.48C20.6853 47.72 20.816 48.032 20.816 48.416C20.816 48.736 20.728 49.0213 20.552 49.272C20.3813 49.5227 20.1387 49.72 19.824 49.864C19.5147 50.0027 19.1467 50.072 18.72 50.072ZM21.882 45.096V44.304H22.746V45.096H21.882ZM21.962 50V46.048H22.674V50H21.962ZM23.8628 50V49.544L26.3668 46.416L26.4068 46.64H23.9188V46.048H27.0708V46.504L24.5428 49.656L24.5028 49.408H27.1588V50H23.8628ZM30.0691 50.072C29.6265 50.072 29.2425 49.992 28.9171 49.832C28.5971 49.6667 28.3518 49.432 28.1811 49.128C28.0105 48.8187 27.9251 48.4507 27.9251 48.024C27.9251 47.624 28.0051 47.272 28.1651 46.968C28.3251 46.6587 28.5518 46.416 28.8451 46.24C29.1385 46.064 29.4878 45.976 29.8931 45.976C30.2771 45.976 30.6025 46.0587 30.8691 46.224C31.1411 46.3893 31.3465 46.6213 31.4851 46.92C31.6291 47.2187 31.7011 47.5733 31.7011 47.984V48.216H28.4611V47.72H31.2371L31.0851 47.88C31.0851 47.4427 30.9811 47.1067 30.7731 46.872C30.5705 46.6373 30.2771 46.52 29.8931 46.52C29.6425 46.52 29.4185 46.5787 29.2211 46.696C29.0291 46.808 28.8798 46.968 28.7731 47.176C28.6665 47.384 28.6131 47.6373 28.6131 47.936V48.016C28.6131 48.336 28.6718 48.6053 28.7891 48.824C28.9065 49.0427 29.0745 49.208 29.2931 49.32C29.5118 49.432 29.7731 49.488 30.0771 49.488C30.2958 49.488 30.5171 49.4587 30.7411 49.4C30.9705 49.336 31.1838 49.224 31.3811 49.064L31.6211 49.576C31.4185 49.7467 31.1758 49.872 30.8931 49.952C30.6158 50.032 30.3411 50.072 30.0691 50.072Z" fill="#CE3439"/>
<path d="M58.592 50.072C58.1387 50.072 57.7547 49.9627 57.44 49.744C57.1253 49.5253 56.8853 49.2107 56.72 48.8C56.5547 48.384 56.472 47.8853 56.472 47.304C56.472 46.6533 56.5627 46.1067 56.744 45.664C56.9253 45.216 57.1867 44.8747 57.528 44.64C57.8693 44.4053 58.28 44.288 58.76 44.288C58.9733 44.288 59.176 44.3147 59.368 44.368C59.56 44.416 59.7413 44.4907 59.912 44.592C60.0827 44.6933 60.2427 44.8187 60.392 44.968L60.128 45.52C59.92 45.3013 59.7013 45.1467 59.472 45.056C59.2427 44.96 59.0053 44.912 58.76 44.912C58.4987 44.912 58.2667 44.9627 58.064 45.064C57.8613 45.16 57.6907 45.3067 57.552 45.504C57.4133 45.696 57.3067 45.936 57.232 46.224C57.1627 46.5067 57.128 46.8373 57.128 47.216V47.68H57.136C57.184 47.424 57.28 47.2053 57.424 47.024C57.568 46.8373 57.7467 46.696 57.96 46.6C58.1733 46.4987 58.408 46.448 58.664 46.448C59.0053 46.448 59.304 46.5253 59.56 46.68C59.8213 46.8293 60.024 47.04 60.168 47.312C60.3173 47.5787 60.392 47.888 60.392 48.24C60.392 48.592 60.3147 48.9067 60.16 49.184C60.0107 49.4613 59.8 49.68 59.528 49.84C59.256 49.9947 58.944 50.072 58.592 50.072ZM58.552 49.464C58.7867 49.464 58.992 49.4133 59.168 49.312C59.344 49.2107 59.48 49.0693 59.576 48.888C59.6773 48.7067 59.728 48.496 59.728 48.256C59.728 48.016 59.6773 47.808 59.576 47.632C59.48 47.4507 59.344 47.3093 59.168 47.208C58.992 47.1067 58.784 47.056 58.544 47.056C58.3093 47.056 58.1013 47.1067 57.92 47.208C57.744 47.3093 57.6027 47.4507 57.496 47.632C57.3947 47.808 57.344 48.016 57.344 48.256C57.344 48.496 57.3947 48.7067 57.496 48.888C57.5973 49.0693 57.7387 49.2107 57.92 49.312C58.1013 49.4133 58.312 49.464 58.552 49.464ZM61.6929 50L64.4529 44.648L64.4849 44.992H61.3089V44.36H65.0769V44.896L62.4689 50H61.6929ZM67.9938 50.072C67.5618 50.072 67.1964 49.9627 66.8978 49.744C66.5991 49.52 66.3724 49.1947 66.2178 48.768C66.0684 48.336 65.9938 47.8053 65.9938 47.176C65.9938 46.5467 66.0684 46.0187 66.2178 45.592C66.3724 45.1653 66.5991 44.8427 66.8978 44.624C67.1964 44.4 67.5618 44.288 67.9938 44.288C68.4364 44.288 68.8044 44.3973 69.0978 44.616C69.3911 44.8347 69.6124 45.1573 69.7618 45.584C69.9164 46.0107 69.9938 46.5387 69.9938 47.168C69.9938 47.7973 69.9164 48.328 69.7618 48.76C69.6124 49.192 69.3884 49.52 69.0898 49.744C68.7911 49.9627 68.4258 50.072 67.9938 50.072ZM67.9938 49.448C68.4311 49.448 68.7564 49.264 68.9698 48.896C69.1831 48.528 69.2898 47.952 69.2898 47.168C69.2898 46.3893 69.1831 45.8187 68.9698 45.456C68.7618 45.0933 68.4391 44.912 68.0018 44.912C67.5591 44.912 67.2311 45.096 67.0178 45.464C66.8044 45.8267 66.6978 46.3973 66.6978 47.176C66.6978 47.9493 66.8044 48.5227 67.0178 48.896C67.2311 49.264 67.5564 49.448 67.9938 49.448ZM72.817 50L74.905 46.976V47.24L72.929 44.36H73.753L75.353 46.712H75.313L76.913 44.36H77.737L75.745 47.24V46.976L77.841 50H77.009L75.297 47.496H75.353L73.641 50H72.817ZM83.3136 50V48.832H80.6816V48.296L83.2816 44.36H83.9936V48.232H84.7776V48.832H83.9936V50H83.3136ZM83.3376 48.232V45.24H83.3696L81.3056 48.368L81.2496 48.232H83.3376ZM85.9585 50L88.7185 44.648L88.7505 44.992H85.5745V44.36H89.3425V44.896L86.7345 50H85.9585ZM92.2594 50.072C91.8274 50.072 91.462 49.9627 91.1634 49.744C90.8647 49.52 90.638 49.1947 90.4834 48.768C90.334 48.336 90.2594 47.8053 90.2594 47.176C90.2594 46.5467 90.334 46.0187 90.4834 45.592C90.638 45.1653 90.8647 44.8427 91.1634 44.624C91.462 44.4 91.8274 44.288 92.2594 44.288C92.702 44.288 93.07 44.3973 93.3634 44.616C93.6567 44.8347 93.878 45.1573 94.0274 45.584C94.182 46.0107 94.2594 46.5387 94.2594 47.168C94.2594 47.7973 94.182 48.328 94.0274 48.76C93.878 49.192 93.654 49.52 93.3554 49.744C93.0567 49.9627 92.6914 50.072 92.2594 50.072ZM92.2594 49.448C92.6967 49.448 93.022 49.264 93.2354 48.896C93.4487 48.528 93.5554 47.952 93.5554 47.168C93.5554 46.3893 93.4487 45.8187 93.2354 45.456C93.0274 45.0933 92.7047 44.912 92.2674 44.912C91.8247 44.912 91.4967 45.096 91.2834 45.464C91.07 45.8267 90.9634 46.3973 90.9634 47.176C90.9634 47.9493 91.07 48.5227 91.2834 48.896C91.4967 49.264 91.822 49.448 92.2594 49.448ZM97.0826 50L99.1706 46.976V47.24L97.1946 44.36H98.0186L99.6186 46.712H99.5786L101.179 44.36H102.003L100.011 47.24V46.976L102.107 50H101.275L99.5626 47.496H99.6186L97.9066 50H97.0826ZM107.123 50.072C106.67 50.072 106.286 49.9627 105.971 49.744C105.657 49.5253 105.417 49.2107 105.251 48.8C105.086 48.384 105.003 47.8853 105.003 47.304C105.003 46.6533 105.094 46.1067 105.275 45.664C105.457 45.216 105.718 44.8747 106.059 44.64C106.401 44.4053 106.811 44.288 107.291 44.288C107.505 44.288 107.707 44.3147 107.899 44.368C108.091 44.416 108.273 44.4907 108.443 44.592C108.614 44.6933 108.774 44.8187 108.923 44.968L108.659 45.52C108.451 45.3013 108.233 45.1467 108.003 45.056C107.774 44.96 107.537 44.912 107.291 44.912C107.03 44.912 106.798 44.9627 106.595 45.064C106.393 45.16 106.222 45.3067 106.083 45.504C105.945 45.696 105.838 45.936 105.763 46.224C105.694 46.5067 105.659 46.8373 105.659 47.216V47.68H105.667C105.715 47.424 105.811 47.2053 105.955 47.024C106.099 46.8373 106.278 46.696 106.491 46.6C106.705 46.4987 106.939 46.448 107.195 46.448C107.537 46.448 107.835 46.5253 108.091 46.68C108.353 46.8293 108.555 47.04 108.699 47.312C108.849 47.5787 108.923 47.888 108.923 48.24C108.923 48.592 108.846 48.9067 108.691 49.184C108.542 49.4613 108.331 49.68 108.059 49.84C107.787 49.9947 107.475 50.072 107.123 50.072ZM107.083 49.464C107.318 49.464 107.523 49.4133 107.699 49.312C107.875 49.2107 108.011 49.0693 108.107 48.888C108.209 48.7067 108.259 48.496 108.259 48.256C108.259 48.016 108.209 47.808 108.107 47.632C108.011 47.4507 107.875 47.3093 107.699 47.208C107.523 47.1067 107.315 47.056 107.075 47.056C106.841 47.056 106.633 47.1067 106.451 47.208C106.275 47.3093 106.134 47.4507 106.027 47.632C105.926 47.808 105.875 48.016 105.875 48.256C105.875 48.496 105.926 48.7067 106.027 48.888C106.129 49.0693 106.27 49.2107 106.451 49.312C106.633 49.4133 106.843 49.464 107.083 49.464ZM109.984 50V49.472L111.968 47.392C112.16 47.1893 112.309 47.0053 112.416 46.84C112.523 46.6747 112.6 46.5147 112.648 46.36C112.696 46.2053 112.72 46.048 112.72 45.888C112.72 45.5733 112.619 45.3333 112.416 45.168C112.219 44.9973 111.944 44.912 111.592 44.912C111.325 44.912 111.061 44.9653 110.8 45.072C110.544 45.1733 110.299 45.336 110.064 45.56L109.792 45C110.027 44.776 110.307 44.6027 110.632 44.48C110.957 44.352 111.293 44.288 111.64 44.288C112.008 44.288 112.325 44.352 112.592 44.48C112.859 44.6027 113.061 44.7813 113.2 45.016C113.344 45.2453 113.416 45.5227 113.416 45.848C113.416 46.0133 113.397 46.176 113.36 46.336C113.323 46.4907 113.264 46.6453 113.184 46.8C113.109 46.9547 113.011 47.1147 112.888 47.28C112.765 47.4453 112.616 47.6187 112.44 47.8L110.888 49.416V49.384H113.648V50H109.984ZM116.525 50.072C116.093 50.072 115.728 49.9627 115.429 49.744C115.13 49.52 114.904 49.1947 114.749 48.768C114.6 48.336 114.525 47.8053 114.525 47.176C114.525 46.5467 114.6 46.0187 114.749 45.592C114.904 45.1653 115.13 44.8427 115.429 44.624C115.728 44.4 116.093 44.288 116.525 44.288C116.968 44.288 117.336 44.3973 117.629 44.616C117.922 44.8347 118.144 45.1573 118.293 45.584C118.448 46.0107 118.525 46.5387 118.525 47.168C118.525 47.7973 118.448 48.328 118.293 48.76C118.144 49.192 117.92 49.52 117.621 49.744C117.322 49.9627 116.957 50.072 116.525 50.072ZM116.525 49.448C116.962 49.448 117.288 49.264 117.501 48.896C117.714 48.528 117.821 47.952 117.821 47.168C117.821 46.3893 117.714 45.8187 117.501 45.456C117.293 45.0933 116.97 44.912 116.533 44.912C116.09 44.912 115.762 45.096 115.549 45.464C115.336 45.8267 115.229 46.3973 115.229 47.176C115.229 47.9493 115.336 48.5227 115.549 48.896C115.762 49.264 116.088 49.448 116.525 49.448Z" fill="black"/>
<path d="M18.168 62L16.36 56.36H17.112L18.584 61.144H18.512L20.152 56.36H20.736L22.36 61.144H22.304L23.792 56.36H24.512L22.696 62H22.016L20.424 57.344H20.456L18.832 62H18.168ZM27.0223 62.072C26.5796 62.072 26.1956 61.992 25.8703 61.832C25.5503 61.6667 25.3049 61.432 25.1343 61.128C24.9636 60.8187 24.8783 60.4507 24.8783 60.024C24.8783 59.624 24.9583 59.272 25.1183 58.968C25.2783 58.6587 25.5049 58.416 25.7983 58.24C26.0916 58.064 26.4409 57.976 26.8463 57.976C27.2303 57.976 27.5556 58.0587 27.8223 58.224C28.0943 58.3893 28.2996 58.6213 28.4383 58.92C28.5823 59.2187 28.6543 59.5733 28.6543 59.984V60.216H25.4143V59.72H28.1903L28.0383 59.88C28.0383 59.4427 27.9343 59.1067 27.7263 58.872C27.5236 58.6373 27.2303 58.52 26.8463 58.52C26.5956 58.52 26.3716 58.5787 26.1743 58.696C25.9823 58.808 25.8329 58.968 25.7263 59.176C25.6196 59.384 25.5663 59.6373 25.5663 59.936V60.016C25.5663 60.336 25.6249 60.6053 25.7423 60.824C25.8596 61.0427 26.0276 61.208 26.2463 61.32C26.4649 61.432 26.7263 61.488 27.0303 61.488C27.2489 61.488 27.4703 61.4587 27.6943 61.4C27.9236 61.336 28.1369 61.224 28.3343 61.064L28.5743 61.576C28.3716 61.7467 28.1289 61.872 27.8463 61.952C27.5689 62.032 27.2943 62.072 27.0223 62.072ZM29.7492 57.096V56.304H30.6132V57.096H29.7492ZM29.8292 62V58.048H30.5412V62H29.8292ZM33.674 63.512C33.3593 63.512 33.0473 63.464 32.738 63.368C32.4287 63.2773 32.1647 63.152 31.946 62.992L32.17 62.44C32.3193 62.536 32.4767 62.6187 32.642 62.688C32.8073 62.7627 32.9753 62.816 33.146 62.848C33.322 62.8853 33.4953 62.904 33.666 62.904C34.0767 62.904 34.3967 62.8 34.626 62.592C34.8607 62.384 34.978 62.088 34.978 61.704V60.976H34.962C34.866 61.248 34.6927 61.4693 34.442 61.64C34.1913 61.8053 33.9007 61.888 33.57 61.888C33.1967 61.888 32.8713 61.808 32.594 61.648C32.3167 61.4827 32.1007 61.2533 31.946 60.96C31.7967 60.6667 31.722 60.3227 31.722 59.928C31.722 59.5387 31.7967 59.1973 31.946 58.904C32.1007 58.6107 32.3167 58.384 32.594 58.224C32.8713 58.0587 33.1967 57.976 33.57 57.976C33.9007 57.976 34.1913 58.0613 34.442 58.232C34.698 58.4027 34.874 58.6293 34.97 58.912H34.978V58.048H35.642V61.64C35.642 62.024 35.562 62.3547 35.402 62.632C35.2473 62.9147 35.0233 63.1307 34.73 63.28C34.4367 63.4347 34.0847 63.512 33.674 63.512ZM33.69 61.304C34.0793 61.304 34.386 61.1787 34.61 60.928C34.8393 60.6773 34.954 60.344 34.954 59.928C34.954 59.512 34.8393 59.1813 34.61 58.936C34.386 58.6853 34.0793 58.56 33.69 58.56C33.306 58.56 32.9993 58.6853 32.77 58.936C32.546 59.1813 32.434 59.512 32.434 59.928C32.434 60.344 32.546 60.6773 32.77 60.928C32.9993 61.1787 33.306 61.304 33.69 61.304ZM37.0636 62V56.36H37.7516V58.888C37.8689 58.6053 38.0529 58.384 38.3036 58.224C38.5596 58.0587 38.8476 57.976 39.1676 57.976C39.4929 57.976 39.7649 58.0347 39.9836 58.152C40.2022 58.264 40.3649 58.44 40.4716 58.68C40.5836 58.9147 40.6396 59.208 40.6396 59.56V62H39.9276V59.6C39.9276 59.3867 39.8956 59.2053 39.8316 59.056C39.7729 58.9067 39.6769 58.792 39.5436 58.712C39.4102 58.6267 39.2316 58.584 39.0076 58.584C38.7729 58.584 38.5622 58.6373 38.3756 58.744C38.1889 58.8507 38.0422 58.9947 37.9356 59.176C37.8289 59.3573 37.7756 59.56 37.7756 59.784V62H37.0636ZM43.7119 62.072C43.2373 62.072 42.8773 61.9467 42.6319 61.696C42.3919 61.4453 42.2719 61.088 42.2719 60.624V58.632H41.4719V58.048H42.2959V56.872H42.9839V58.048H44.3999V58.632H42.9839V60.56C42.9839 60.864 43.0506 61.0907 43.1839 61.24C43.3226 61.384 43.5333 61.456 43.8159 61.456C43.9279 61.456 44.0346 61.4453 44.1359 61.424C44.2426 61.4027 44.3439 61.3707 44.4399 61.328L44.5519 61.888C44.4453 61.9467 44.3146 61.992 44.1599 62.024C44.0106 62.056 43.8613 62.072 43.7119 62.072Z" fill="#CE3439"/>
<path d="M56.9157 62V61.392H58.4597V56.928L58.8357 56.984L57.1957 58.04L56.8757 57.488L58.6437 56.36H59.1637V61.392H60.5877V62H56.9157ZM63.3766 62.072C62.7472 62.072 62.2512 61.936 61.8886 61.664C61.5259 61.3867 61.3446 61.0027 61.3446 60.512C61.3446 60.2613 61.3926 60.04 61.4886 59.848C61.5899 59.6507 61.7286 59.4907 61.9046 59.368C62.0859 59.24 62.2939 59.1547 62.5286 59.112V59.12C62.3259 59.072 62.1446 58.984 61.9846 58.856C61.8299 58.728 61.7072 58.5733 61.6166 58.392C61.5259 58.2107 61.4806 58.0107 61.4806 57.792C61.4806 57.3227 61.6512 56.9547 61.9926 56.688C62.3392 56.4213 62.8006 56.288 63.3766 56.288C63.9526 56.288 64.4112 56.4213 64.7526 56.688C65.0992 56.9547 65.2726 57.3227 65.2726 57.792C65.2726 58.0053 65.2272 58.2053 65.1366 58.392C65.0459 58.5733 64.9206 58.728 64.7606 58.856C64.6059 58.984 64.4246 59.072 64.2166 59.12V59.112C64.4459 59.1493 64.6486 59.232 64.8246 59.36C65.0059 59.488 65.1472 59.6507 65.2486 59.848C65.3552 60.04 65.4086 60.2613 65.4086 60.512C65.4086 61.0027 65.2272 61.3867 64.8646 61.664C64.5072 61.936 64.0112 62.072 63.3766 62.072ZM63.3766 61.472C63.8192 61.472 64.1552 61.3867 64.3846 61.216C64.6192 61.0453 64.7366 60.7947 64.7366 60.464C64.7366 60.1333 64.6192 59.88 64.3846 59.704C64.1552 59.528 63.8192 59.44 63.3766 59.44C62.9339 59.44 62.5952 59.528 62.3606 59.704C62.1312 59.88 62.0166 60.1333 62.0166 60.464C62.0166 60.7947 62.1312 61.0453 62.3606 61.216C62.5952 61.3867 62.9339 61.472 63.3766 61.472ZM63.3766 58.84C63.7606 58.84 64.0619 58.7547 64.2806 58.584C64.4992 58.408 64.6086 58.1653 64.6086 57.856C64.6086 57.552 64.4992 57.3147 64.2806 57.144C64.0619 56.968 63.7606 56.88 63.3766 56.88C62.9979 56.88 62.6992 56.968 62.4806 57.144C62.2619 57.3147 62.1526 57.552 62.1526 57.856C62.1526 58.1653 62.2619 58.408 62.4806 58.584C62.6992 58.7547 62.9979 58.84 63.3766 58.84ZM67.6614 63.536C67.2828 62.96 67.0028 62.3733 66.8214 61.776C66.6454 61.1733 66.5574 60.5467 66.5574 59.896C66.5574 59.2453 66.6454 58.6213 66.8214 58.024C67.0028 57.4267 67.2828 56.8373 67.6614 56.256L68.1734 56.44C67.9708 56.8187 67.8028 57.2 67.6694 57.584C67.5361 57.968 67.4348 58.352 67.3654 58.736C67.3014 59.1147 67.2694 59.5013 67.2694 59.896C67.2694 60.2853 67.3014 60.672 67.3654 61.056C67.4348 61.44 67.5361 61.8213 67.6694 62.2C67.8028 62.584 67.9708 62.968 68.1734 63.352L67.6614 63.536ZM69.2929 62V56.36H70.0049V58.904H70.0369L72.7169 56.36H73.6209L70.5089 59.312L70.5569 58.92L73.8129 62H72.8609L70.0369 59.352H70.0049V62H69.2929ZM76.1428 63.512C75.8281 63.512 75.5161 63.464 75.2068 63.368C74.8974 63.2773 74.6334 63.152 74.4148 62.992L74.6388 62.44C74.7881 62.536 74.9454 62.6187 75.1108 62.688C75.2761 62.7627 75.4441 62.816 75.6148 62.848C75.7908 62.8853 75.9641 62.904 76.1348 62.904C76.5454 62.904 76.8654 62.8 77.0948 62.592C77.3294 62.384 77.4468 62.088 77.4468 61.704V60.976H77.4308C77.3348 61.248 77.1614 61.4693 76.9108 61.64C76.6601 61.8053 76.3694 61.888 76.0388 61.888C75.6654 61.888 75.3401 61.808 75.0628 61.648C74.7854 61.4827 74.5694 61.2533 74.4148 60.96C74.2654 60.6667 74.1908 60.3227 74.1908 59.928C74.1908 59.5387 74.2654 59.1973 74.4148 58.904C74.5694 58.6107 74.7854 58.384 75.0628 58.224C75.3401 58.0587 75.6654 57.976 76.0388 57.976C76.3694 57.976 76.6601 58.0613 76.9108 58.232C77.1668 58.4027 77.3428 58.6293 77.4388 58.912H77.4468V58.048H78.1108V61.64C78.1108 62.024 78.0308 62.3547 77.8708 62.632C77.7161 62.9147 77.4921 63.1307 77.1988 63.28C76.9054 63.4347 76.5534 63.512 76.1428 63.512ZM76.1588 61.304C76.5481 61.304 76.8548 61.1787 77.0788 60.928C77.3081 60.6773 77.4228 60.344 77.4228 59.928C77.4228 59.512 77.3081 59.1813 77.0788 58.936C76.8548 58.6853 76.5481 58.56 76.1588 58.56C75.7748 58.56 75.4681 58.6853 75.2388 58.936C75.0148 59.1813 74.9028 59.512 74.9028 59.928C74.9028 60.344 75.0148 60.6773 75.2388 60.928C75.4681 61.1787 75.7748 61.304 76.1588 61.304ZM80.9883 62.072C80.7696 62.072 80.5536 62.0507 80.3403 62.008C80.1323 61.9707 79.9376 61.9173 79.7563 61.848C79.5803 61.7733 79.4283 61.6827 79.3003 61.576L79.5323 61.072C79.6656 61.1733 79.8123 61.256 79.9723 61.32C80.1376 61.384 80.3056 61.432 80.4763 61.464C80.6523 61.4907 80.8203 61.504 80.9803 61.504C81.311 61.504 81.5643 61.4533 81.7403 61.352C81.9216 61.2507 82.0123 61.1093 82.0123 60.928C82.0123 60.7733 81.959 60.656 81.8523 60.576C81.751 60.4907 81.5803 60.4267 81.3403 60.384L80.5163 60.24C80.1483 60.1707 79.871 60.0453 79.6843 59.864C79.503 59.6827 79.4123 59.4453 79.4123 59.152C79.4123 58.9173 79.4763 58.712 79.6043 58.536C79.7376 58.36 79.927 58.224 80.1723 58.128C80.4176 58.0267 80.711 57.976 81.0523 57.976C81.239 57.976 81.4283 57.9947 81.6203 58.032C81.8176 58.0693 81.999 58.1253 82.1643 58.2C82.335 58.2693 82.4736 58.3573 82.5803 58.464L82.3403 58.968C82.2336 58.8667 82.1056 58.7867 81.9563 58.728C81.8123 58.664 81.6603 58.6187 81.5003 58.592C81.3456 58.56 81.1936 58.544 81.0443 58.544C80.735 58.544 80.495 58.5973 80.3243 58.704C80.1536 58.8053 80.0683 58.9493 80.0683 59.136C80.0683 59.2853 80.1163 59.4027 80.2123 59.488C80.3136 59.5733 80.4763 59.6373 80.7003 59.68L81.5003 59.824C81.895 59.8987 82.1883 60.024 82.3803 60.2C82.5723 60.3707 82.6683 60.608 82.6683 60.912C82.6683 61.1467 82.599 61.352 82.4603 61.528C82.3216 61.6987 82.127 61.832 81.8763 61.928C81.6256 62.024 81.3296 62.072 80.9883 62.072ZM83.9408 63.536L83.4208 63.352C83.6288 62.9627 83.7995 62.576 83.9328 62.192C84.0661 61.8133 84.1648 61.4347 84.2288 61.056C84.2928 60.672 84.3248 60.2853 84.3248 59.896C84.3248 59.5067 84.2928 59.1227 84.2288 58.744C84.1648 58.36 84.0661 57.976 83.9328 57.592C83.7995 57.208 83.6288 56.824 83.4208 56.44L83.9408 56.256C84.3141 56.832 84.5888 57.4213 84.7648 58.024C84.9461 58.6213 85.0368 59.2453 85.0368 59.896C85.0368 60.5413 84.9461 61.1653 84.7648 61.768C84.5888 62.3653 84.3141 62.9547 83.9408 63.536Z" fill="black"/>
<defs>
<filter id="filter0_d_236_951" x="0.0999999" y="24" width="135.36" height="54.8321" filterUnits="userSpaceOnUse" color-interpolation-filters="sRGB">
<feFlood flood-opacity="0" result="BackgroundImageFix"/>
<feColorMatrix in="SourceAlpha" type="matrix" values="0 0 0 0 0 0 0 0 0 0 0 0 0 0 0 0 0 0 127 0" result="hardAlpha"/>
<feOffset dy="4"/>
<feGaussianBlur stdDeviation="1.95"/>
<feComposite in2="hardAlpha" operator="out"/>
<feColorMatrix type="matrix" values="0 0 0 0 0 0 0 0 0 0 0 0 0 0 0 0 0 0 0.2 0"/>
<feBlend mode="normal" in2="BackgroundImageFix" result="effect1_dropShadow_236_951"/>
<feBlend mode="normal" in="SourceGraphic" in2="effect1_dropShadow_236_951" result="shape"/>
</filter>
<clipPath id="clip0_236_951">
<rect width="21.661" height="21.661" fill="white" transform="translate(55.8818 2.40674)"/>
</clipPath>
</defs>
</svg>
