<svg width="90" height="82" viewBox="0 0 90 82" fill="none" xmlns="http://www.w3.org/2000/svg">
<g filter="url(#filter0_d_271_650)">
<rect x="4" y="24" width="82" height="50" rx="2" fill="#EBDBBA"/>
<rect x="4.25" y="24.25" width="81.5" height="49.5" rx="1.75" stroke="#EBDBBA" stroke-width="0.5"/>
</g>
<rect x="29.2715" width="30.0847" height="30.0847" rx="3" fill="#CB3335"/>
<g clip-path="url(#clip0_271_650)">
<path fill-rule="evenodd" clip-rule="evenodd" d="M35.6592 10.6218C35.7152 10.6425 35.7807 10.6889 35.805 10.7251C35.8412 10.7787 35.8491 11.247 35.8488 15.7431L35.7682 15.8254C35.7119 15.8827 35.6517 15.9077 35.5707 15.9077C35.4901 15.9077 35.4286 15.8823 35.2894 15.7431V13.2753C35.2894 11.6958 35.3012 10.7837 35.3223 10.7416C35.3404 10.7054 35.4009 10.6553 35.4565 10.63C35.5359 10.5945 35.5799 10.5928 35.6592 10.6218ZM51.9473 10.6218C52.0033 10.6425 52.0687 10.6889 52.0931 10.7251C52.1293 10.7787 52.1372 11.247 52.1369 15.7431L52.0562 15.8254C52 15.8827 51.9397 15.9077 51.8588 15.9077C51.7782 15.9077 51.7167 15.8823 51.5775 15.7431V13.2753C51.5775 11.6958 51.5893 10.7837 51.6104 10.7416C51.6285 10.7054 51.689 10.6553 51.7446 10.63C51.8239 10.5945 51.868 10.5928 51.9473 10.6218ZM51.9779 16.7797L52.1369 16.9606V18.7211C52.1369 19.829 52.1247 20.5058 52.1039 20.5473C52.0858 20.5835 52.0194 20.6355 51.9559 20.6625C51.8545 20.7059 50.8644 20.7118 43.7131 20.7118C36.5618 20.7118 35.5717 20.7059 35.4704 20.6625C35.4069 20.6355 35.3404 20.5835 35.3223 20.5473C35.3016 20.5058 35.2894 19.831 35.2891 18.7293C35.2891 17.1719 35.2947 16.9685 35.3417 16.9007C35.371 16.8586 35.4266 16.8116 35.4654 16.7958C35.5049 16.7797 39.1699 16.7698 51.9779 16.7797ZM35.8652 20.136H51.561L51.5663 17.3226H50.7219C50.7203 17.8711 50.7048 18.0179 50.6798 18.0524C50.6578 18.083 50.5952 18.1248 50.5409 18.1455C50.4613 18.1761 50.4215 18.1732 50.3353 18.1314C50.2652 18.0972 50.2168 18.0426 50.1948 17.9725C50.1764 17.9136 50.1616 17.7434 50.1619 17.5941L50.1625 17.3226H49.0438C49.0438 18.5279 49.0421 18.5417 48.9645 18.6306C48.9049 18.6984 48.8549 18.7211 48.7641 18.7211C48.6732 18.7211 48.6232 18.6984 48.5637 18.6306C48.486 18.5417 48.4844 18.5279 48.4844 17.9313V17.3226H47.3656C47.3501 17.9738 47.3409 18.0202 47.2758 18.085C47.2281 18.1327 47.1609 18.159 47.0839 18.16C46.9941 18.1613 46.9454 18.1393 46.8855 18.0712C46.8131 17.9886 46.8062 17.9524 46.8062 17.6516V17.3226H45.6874C45.6874 18.3061 45.6756 18.4693 45.6381 18.5565C45.6085 18.626 45.5528 18.6855 45.4982 18.7066C45.4485 18.7257 45.3745 18.7329 45.3337 18.723C45.2929 18.7128 45.2297 18.6714 45.1932 18.6306C45.1313 18.5618 45.1267 18.5128 45.1274 17.9396L45.128 17.3226H44.0093C44.0089 17.7178 43.9941 17.8882 43.976 17.956C43.9517 18.0485 43.9145 18.0939 43.8283 18.137C43.7187 18.1919 43.7075 18.1919 43.598 18.137C43.5117 18.0939 43.4746 18.0485 43.4502 17.956C43.4321 17.8882 43.4173 17.7178 43.4173 17.5776L43.417 17.3226H42.2982C42.2966 18.3726 42.284 18.572 42.2561 18.6089C42.234 18.6375 42.1827 18.6783 42.1419 18.6993C42.1011 18.7204 42.0234 18.7303 41.9691 18.7211C41.9033 18.7101 41.8485 18.669 41.8046 18.5977C41.7457 18.5013 41.7391 18.4325 41.7388 17.9067V17.3226H40.62C40.62 17.9524 40.6131 17.9886 40.5407 18.0712C40.4818 18.138 40.4305 18.1617 40.344 18.1617C40.2661 18.1617 40.2021 18.1367 40.1521 18.0866C40.085 18.0198 40.0761 17.9761 40.0689 17.6671L40.0606 17.3226H38.9419C38.9257 18.543 38.9221 18.5746 38.852 18.6444C38.8043 18.6921 38.7372 18.7184 38.6602 18.7194C38.5704 18.7207 38.5217 18.6987 38.4618 18.6306C38.3841 18.5417 38.3825 18.5279 38.3825 17.9313V17.3226H37.2637C37.2647 17.7434 37.2499 17.9136 37.2315 17.9725C37.2094 18.0426 37.161 18.0972 37.091 18.1314C37.0047 18.1732 36.9649 18.1761 36.8853 18.1455C36.831 18.1248 36.7685 18.083 36.7464 18.0524C36.7214 18.0179 36.706 17.8711 36.7053 17.6599L36.7043 17.3226H35.8481L35.8652 20.136ZM37.9751 11.4326C38.0182 11.4326 38.0942 11.4684 38.2344 11.5912L38.2509 13.1107H49.1754L49.1918 11.5912L49.2823 11.5119C49.332 11.4684 49.406 11.4319 49.4469 11.4312C49.4877 11.4303 49.5535 11.4563 49.5929 11.4888C49.6328 11.5211 49.9625 11.9327 50.3257 12.4033C50.6894 12.8738 50.9954 13.296 51.0062 13.3411C51.0177 13.3884 51.0046 13.4651 50.9753 13.522C50.9473 13.5763 50.6775 13.9393 50.3761 14.3282C50.0744 14.7175 49.7697 15.1061 49.6989 15.192C49.5976 15.315 49.5492 15.3483 49.4715 15.3483C49.4172 15.3483 49.3432 15.3335 49.307 15.3154C49.2708 15.2973 49.2261 15.2344 49.2076 15.1755C49.1892 15.1166 49.1744 14.754 49.1754 13.6701H38.2509L38.2515 14.3693C38.2515 14.754 38.2367 15.1166 38.2186 15.1755C38.2002 15.2344 38.1554 15.2973 38.1192 15.3154C38.083 15.3335 38.009 15.3483 37.9547 15.3483C37.8771 15.3483 37.8287 15.315 37.7273 15.192C37.6563 15.1061 37.3516 14.7175 37.0501 14.3282C36.7484 13.9393 36.4789 13.5763 36.4509 13.522C36.4217 13.4651 36.4085 13.3884 36.42 13.3411C36.4309 13.296 36.7369 12.8738 37.1002 12.4033C37.4634 11.9327 37.7915 11.5217 37.829 11.4901C37.8662 11.4586 37.932 11.4326 37.9751 11.4326ZM37.0659 13.4562C37.0896 13.4924 37.2361 13.6869 37.3917 13.8886C37.5477 14.0903 37.6862 14.2496 37.6997 14.2423C37.7132 14.2354 37.7244 13.8521 37.7244 13.3904C37.7244 12.9265 37.7112 12.5513 37.6951 12.5513C37.6793 12.5513 37.5217 12.7402 37.3446 12.9709C37.0544 13.3503 37.0274 13.3967 37.0659 13.4562ZM49.7265 14.2423C49.74 14.2496 49.8786 14.0903 50.0342 13.8886C50.1898 13.6869 50.3366 13.4924 50.36 13.4562C50.3985 13.3967 50.3715 13.3503 50.077 12.9696C49.8977 12.7379 49.74 12.549 49.7265 12.55C49.7131 12.5507 49.7019 12.9291 49.7019 13.3904C49.7019 13.8521 49.7131 14.2354 49.7265 14.2423Z" fill="#EBDBBA"/>
</g>
<path d="M24.6972 46V40.36H26.6732C27.2759 40.36 27.7879 40.4693 28.2092 40.688C28.6306 40.9067 28.9506 41.2267 29.1692 41.648C29.3932 42.064 29.5052 42.5733 29.5052 43.176C29.5052 43.7787 29.3932 44.2907 29.1692 44.712C28.9506 45.1333 28.6306 45.4533 28.2092 45.672C27.7879 45.8907 27.2759 46 26.6732 46H24.6972ZM25.4092 45.376H26.6332C27.3319 45.376 27.8599 45.1947 28.2172 44.832C28.5799 44.4693 28.7612 43.9173 28.7612 43.176C28.7612 42.4347 28.5799 41.8853 28.2172 41.528C27.8599 41.1653 27.3319 40.984 26.6332 40.984H25.4092V45.376ZM30.7394 41.096V40.304H31.6034V41.096H30.7394ZM30.8194 46V42.048H31.5314V46H30.8194ZM32.9682 46V42.048H33.6242V42.912C33.6936 42.736 33.7896 42.5787 33.9122 42.44C34.0402 42.296 34.1922 42.184 34.3682 42.104C34.5496 42.0187 34.7469 41.976 34.9602 41.976C35.3069 41.976 35.5922 42.0613 35.8162 42.232C36.0402 42.4027 36.1789 42.6267 36.2322 42.904H36.2242C36.3309 42.6427 36.4989 42.424 36.7282 42.248C36.9629 42.0667 37.2562 41.976 37.6082 41.976C37.9069 41.976 38.1602 42.0347 38.3682 42.152C38.5762 42.264 38.7336 42.4373 38.8402 42.672C38.9469 42.9067 39.0002 43.2027 39.0002 43.56V46H38.2962V43.608C38.2962 43.2667 38.2349 43.0107 38.1122 42.84C37.9896 42.6693 37.7709 42.584 37.4562 42.584C37.2216 42.584 37.0189 42.6373 36.8482 42.744C36.6829 42.8453 36.5549 42.9893 36.4642 43.176C36.3789 43.3573 36.3362 43.5627 36.3362 43.792V46H35.6322V43.608C35.6322 43.272 35.5629 43.0187 35.4242 42.848C35.2856 42.672 35.0749 42.584 34.7922 42.584C34.5629 42.584 34.3629 42.6427 34.1922 42.76C34.0269 42.872 33.8989 43.0187 33.8082 43.2C33.7176 43.3813 33.6722 43.5733 33.6722 43.776V46H32.9682ZM42.3328 46.072C41.8901 46.072 41.5061 45.992 41.1808 45.832C40.8608 45.6667 40.6155 45.432 40.4448 45.128C40.2741 44.8187 40.1888 44.4507 40.1888 44.024C40.1888 43.624 40.2688 43.272 40.4288 42.968C40.5888 42.6587 40.8155 42.416 41.1088 42.24C41.4021 42.064 41.7515 41.976 42.1568 41.976C42.5408 41.976 42.8661 42.0587 43.1328 42.224C43.4048 42.3893 43.6101 42.6213 43.7488 42.92C43.8928 43.2187 43.9648 43.5733 43.9648 43.984V44.216H40.7248V43.72H43.5008L43.3488 43.88C43.3488 43.4427 43.2448 43.1067 43.0368 42.872C42.8341 42.6373 42.5408 42.52 42.1568 42.52C41.9061 42.52 41.6821 42.5787 41.4848 42.696C41.2928 42.808 41.1435 42.968 41.0368 43.176C40.9301 43.384 40.8768 43.6373 40.8768 43.936V44.016C40.8768 44.336 40.9355 44.6053 41.0528 44.824C41.1701 45.0427 41.3381 45.208 41.5568 45.32C41.7755 45.432 42.0368 45.488 42.3408 45.488C42.5595 45.488 42.7808 45.4587 43.0048 45.4C43.2341 45.336 43.4475 45.224 43.6448 45.064L43.8848 45.576C43.6821 45.7467 43.4395 45.872 43.1568 45.952C42.8795 46.032 42.6048 46.072 42.3328 46.072ZM45.1397 46V42.048H45.8037V42.904C45.9317 42.6107 46.1237 42.384 46.3797 42.224C46.6357 42.0587 46.9237 41.976 47.2437 41.976C47.5691 41.976 47.8411 42.0347 48.0597 42.152C48.2784 42.264 48.4411 42.44 48.5477 42.68C48.6597 42.9147 48.7157 43.208 48.7157 43.56V46H48.0037V43.6C48.0037 43.3867 47.9744 43.2053 47.9157 43.056C47.8571 42.9067 47.7584 42.792 47.6197 42.712C47.4864 42.6267 47.3077 42.584 47.0837 42.584C46.8491 42.584 46.6357 42.6373 46.4437 42.744C46.2571 42.8507 46.1104 42.9947 46.0037 43.176C45.9024 43.3573 45.8517 43.56 45.8517 43.784V46H45.1397ZM51.5801 46.072C51.3614 46.072 51.1454 46.0507 50.9321 46.008C50.7241 45.9707 50.5294 45.9173 50.3481 45.848C50.1721 45.7733 50.0201 45.6827 49.8921 45.576L50.1241 45.072C50.2574 45.1733 50.4041 45.256 50.5641 45.32C50.7294 45.384 50.8974 45.432 51.0681 45.464C51.2441 45.4907 51.4121 45.504 51.5721 45.504C51.9028 45.504 52.1561 45.4533 52.3321 45.352C52.5134 45.2507 52.6041 45.1093 52.6041 44.928C52.6041 44.7733 52.5508 44.656 52.4441 44.576C52.3428 44.4907 52.1721 44.4267 51.9321 44.384L51.1081 44.24C50.7401 44.1707 50.4628 44.0453 50.2761 43.864C50.0948 43.6827 50.0041 43.4453 50.0041 43.152C50.0041 42.9173 50.0681 42.712 50.1961 42.536C50.3294 42.36 50.5188 42.224 50.7641 42.128C51.0094 42.0267 51.3028 41.976 51.6441 41.976C51.8308 41.976 52.0201 41.9947 52.2121 42.032C52.4094 42.0693 52.5908 42.1253 52.7561 42.2C52.9268 42.2693 53.0654 42.3573 53.1721 42.464L52.9321 42.968C52.8254 42.8667 52.6974 42.7867 52.5481 42.728C52.4041 42.664 52.2521 42.6187 52.0921 42.592C51.9374 42.56 51.7854 42.544 51.6361 42.544C51.3268 42.544 51.0868 42.5973 50.9161 42.704C50.7454 42.8053 50.6601 42.9493 50.6601 43.136C50.6601 43.2853 50.7081 43.4027 50.8041 43.488C50.9054 43.5733 51.0681 43.6373 51.2921 43.68L52.0921 43.824C52.4868 43.8987 52.7801 44.024 52.9721 44.2C53.1641 44.3707 53.2601 44.608 53.2601 44.912C53.2601 45.1467 53.1908 45.352 53.0521 45.528C52.9134 45.6987 52.7188 45.832 52.4681 45.928C52.2174 46.024 51.9214 46.072 51.5801 46.072ZM54.3566 41.096V40.304H55.2206V41.096H54.3566ZM54.4366 46V42.048H55.1486V46H54.4366ZM58.2894 46.072C57.8894 46.072 57.5428 45.9867 57.2494 45.816C56.9561 45.6453 56.7294 45.408 56.5694 45.104C56.4094 44.7947 56.3294 44.432 56.3294 44.016C56.3294 43.6053 56.4094 43.248 56.5694 42.944C56.7294 42.6347 56.9561 42.3973 57.2494 42.232C57.5428 42.0613 57.8894 41.976 58.2894 41.976C58.6894 41.976 59.0334 42.0613 59.3214 42.232C59.6148 42.3973 59.8414 42.6347 60.0014 42.944C60.1614 43.248 60.2414 43.6053 60.2414 44.016C60.2414 44.432 60.1614 44.7947 60.0014 45.104C59.8468 45.408 59.6228 45.6453 59.3294 45.816C59.0361 45.9867 58.6894 46.072 58.2894 46.072ZM58.2814 45.472C58.6708 45.472 58.9774 45.3413 59.2014 45.08C59.4254 44.8187 59.5374 44.464 59.5374 44.016C59.5374 43.568 59.4254 43.216 59.2014 42.96C58.9828 42.704 58.6788 42.576 58.2894 42.576C57.9001 42.576 57.5934 42.704 57.3694 42.96C57.1454 43.216 57.0334 43.568 57.0334 44.016C57.0334 44.464 57.1454 44.8187 57.3694 45.08C57.5988 45.3413 57.9028 45.472 58.2814 45.472ZM61.4366 46V42.048H62.1006V42.904C62.2286 42.6107 62.4206 42.384 62.6766 42.224C62.9326 42.0587 63.2206 41.976 63.5406 41.976C63.8659 41.976 64.1379 42.0347 64.3566 42.152C64.5753 42.264 64.7379 42.44 64.8446 42.68C64.9566 42.9147 65.0126 43.208 65.0126 43.56V46H64.3006V43.6C64.3006 43.3867 64.2713 43.2053 64.2126 43.056C64.1539 42.9067 64.0553 42.792 63.9166 42.712C63.7833 42.6267 63.6046 42.584 63.3806 42.584C63.1459 42.584 62.9326 42.6373 62.7406 42.744C62.5539 42.8507 62.4073 42.9947 62.3006 43.176C62.1993 43.3573 62.1486 43.56 62.1486 43.784V46H61.4366Z" fill="#CE3439"/>
<path d="M22.6481 59V58.392H24.1921V53.928L24.5681 53.984L22.9281 55.04L22.6081 54.488L24.3761 53.36H24.8961V58.392H26.3201V59H22.6481ZM29.757 59V57.832H27.125V57.296L29.725 53.36H30.437V57.232H31.221V57.832H30.437V59H29.757ZM29.781 57.232V54.24H29.813L27.749 57.368L27.693 57.232H29.781ZM32.4019 59L35.1619 53.648L35.1939 53.992H32.0179V53.36H35.7859V53.896L33.1779 59H32.4019ZM37.6227 56.312L37.1507 56.032L37.8547 54.968L37.8707 54.992L36.5827 55.072V54.52L37.8707 54.6L37.8467 54.616L37.1507 53.56L37.6307 53.28L38.1987 54.464H38.1907L38.7427 53.28L39.2227 53.56L38.5187 54.616L38.4947 54.6L39.7907 54.52V55.072L38.5027 54.992L38.5267 54.968L39.2227 56.032L38.7507 56.312L38.1907 55.136H38.1987L37.6227 56.312ZM40.8044 59V58.392H42.3484V53.928L42.7244 53.984L41.0844 55.04L40.7644 54.488L42.5324 53.36H43.0524V58.392H44.4764V59H40.8044ZM47.1852 59.072C46.9506 59.072 46.7186 59.048 46.4892 59C46.2599 58.952 46.0412 58.8773 45.8332 58.776C45.6306 58.6747 45.4439 58.5493 45.2732 58.4L45.5452 57.84C45.8012 58.0587 46.0679 58.216 46.3452 58.312C46.6226 58.4027 46.9026 58.448 47.1852 58.448C47.4199 58.448 47.6306 58.4133 47.8172 58.344C48.0092 58.2693 48.1586 58.16 48.2652 58.016C48.3772 57.8667 48.4332 57.6747 48.4332 57.44C48.4332 57.1147 48.3239 56.8693 48.1052 56.704C47.8866 56.5333 47.5692 56.448 47.1532 56.448H46.3052V55.832H47.0492C47.2892 55.832 47.5026 55.7947 47.6892 55.72C47.8812 55.64 48.0306 55.5227 48.1372 55.368C48.2439 55.2133 48.2972 55.0213 48.2972 54.792C48.2972 54.4987 48.1959 54.28 47.9932 54.136C47.7906 53.9867 47.5292 53.912 47.2092 53.912C46.9266 53.912 46.6492 53.96 46.3772 54.056C46.1106 54.152 45.8652 54.3173 45.6412 54.552L45.3772 54C45.6012 53.76 45.8786 53.5813 46.2092 53.464C46.5399 53.3467 46.8839 53.288 47.2412 53.288C47.5986 53.288 47.9052 53.3467 48.1612 53.464C48.4226 53.576 48.6252 53.7413 48.7692 53.96C48.9132 54.1733 48.9852 54.432 48.9852 54.736C48.9852 55.056 48.8946 55.3387 48.7132 55.584C48.5319 55.8293 48.2866 56.0027 47.9772 56.104V56.096C48.2012 56.1387 48.3986 56.2213 48.5692 56.344C48.7399 56.4613 48.8759 56.616 48.9772 56.808C49.0786 56.9947 49.1292 57.216 49.1292 57.472C49.1292 57.808 49.0466 58.096 48.8812 58.336C48.7212 58.576 48.4946 58.76 48.2012 58.888C47.9132 59.0107 47.5746 59.072 47.1852 59.072ZM52.0621 59.072C51.6301 59.072 51.2648 58.9627 50.9661 58.744C50.6674 58.52 50.4408 58.1947 50.2861 57.768C50.1368 57.336 50.0621 56.8053 50.0621 56.176C50.0621 55.5467 50.1368 55.0187 50.2861 54.592C50.4408 54.1653 50.6674 53.8427 50.9661 53.624C51.2648 53.4 51.6301 53.288 52.0621 53.288C52.5048 53.288 52.8728 53.3973 53.1661 53.616C53.4594 53.8347 53.6808 54.1573 53.8301 54.584C53.9848 55.0107 54.0621 55.5387 54.0621 56.168C54.0621 56.7973 53.9848 57.328 53.8301 57.76C53.6808 58.192 53.4568 58.52 53.1581 58.744C52.8594 58.9627 52.4941 59.072 52.0621 59.072ZM52.0621 58.448C52.4994 58.448 52.8248 58.264 53.0381 57.896C53.2514 57.528 53.3581 56.952 53.3581 56.168C53.3581 55.3893 53.2514 54.8187 53.0381 54.456C52.8301 54.0933 52.5074 53.912 52.0701 53.912C51.6274 53.912 51.2994 54.096 51.0861 54.464C50.8728 54.8267 50.7661 55.3973 50.7661 56.176C50.7661 56.9493 50.8728 57.5227 51.0861 57.896C51.2994 58.264 51.6248 58.448 52.0621 58.448ZM55.779 56.312L55.307 56.032L56.011 54.968L56.027 54.992L54.739 55.072V54.52L56.027 54.6L56.003 54.616L55.307 53.56L55.787 53.28L56.355 54.464H56.347L56.899 53.28L57.379 53.56L56.675 54.616L56.651 54.6L57.947 54.52V55.072L56.659 54.992L56.683 54.968L57.379 56.032L56.907 56.312L56.347 55.136H56.355L55.779 56.312ZM60.6886 59.072C60.4433 59.072 60.2059 59.0453 59.9766 58.992C59.7526 58.9387 59.5419 58.8613 59.3446 58.76C59.1473 58.6533 58.9713 58.5253 58.8166 58.376L59.0966 57.816C59.3419 58.04 59.5926 58.2027 59.8486 58.304C60.1099 58.4 60.3899 58.448 60.6886 58.448C61.0833 58.448 61.3899 58.3467 61.6086 58.144C61.8326 57.936 61.9446 57.6453 61.9446 57.272C61.9446 56.904 61.8406 56.6107 61.6326 56.392C61.4246 56.1733 61.1366 56.064 60.7686 56.064C60.5233 56.064 60.2993 56.1147 60.0966 56.216C59.8993 56.312 59.7153 56.4747 59.5446 56.704H58.9846V53.36H62.3606V53.976H59.6326V56.096H59.6006C59.7286 55.904 59.9046 55.7493 60.1286 55.632C60.3526 55.5093 60.6033 55.448 60.8806 55.448C61.2433 55.448 61.5553 55.5253 61.8166 55.68C62.0779 55.8293 62.2779 56.0373 62.4166 56.304C62.5606 56.5707 62.6326 56.8827 62.6326 57.24C62.6326 57.6187 62.5526 57.9467 62.3926 58.224C62.2326 58.496 62.0086 58.7067 61.7206 58.856C61.4326 59 61.0886 59.072 60.6886 59.072ZM65.0695 59.072C64.8615 59.072 64.6588 59.048 64.4615 59C64.2695 58.952 64.0855 58.88 63.9095 58.784C63.7388 58.6827 63.5788 58.56 63.4295 58.416L63.7015 57.872C63.9202 58.0907 64.1415 58.2427 64.3655 58.328C64.5895 58.408 64.8268 58.448 65.0775 58.448C65.3388 58.448 65.5682 58.4 65.7655 58.304C65.9682 58.2027 66.1388 58.056 66.2775 57.864C66.4162 57.6667 66.5202 57.424 66.5895 57.136C66.6588 56.848 66.6935 56.5173 66.6935 56.144V55.68H66.6855C66.6428 55.9307 66.5468 56.1493 66.3975 56.336C66.2535 56.5173 66.0748 56.656 65.8615 56.752C65.6482 56.848 65.4135 56.896 65.1575 56.896C64.8215 56.896 64.5228 56.8213 64.2615 56.672C64.0002 56.5227 63.7948 56.3147 63.6455 56.048C63.5015 55.7813 63.4295 55.472 63.4295 55.12C63.4295 54.768 63.5068 54.4533 63.6615 54.176C63.8162 53.8987 64.0295 53.6827 64.3015 53.528C64.5735 53.368 64.8855 53.288 65.2375 53.288C65.6962 53.288 66.0828 53.3973 66.3975 53.616C66.7122 53.8293 66.9495 54.1413 67.1095 54.552C67.2695 54.9627 67.3495 55.464 67.3495 56.056C67.3495 56.696 67.2588 57.2427 67.0775 57.696C66.8962 58.144 66.6348 58.4853 66.2935 58.72C65.9575 58.9547 65.5495 59.072 65.0695 59.072ZM65.2775 56.304C65.5122 56.304 65.7202 56.2533 65.9015 56.152C66.0828 56.0507 66.2242 55.9093 66.3255 55.728C66.4268 55.5467 66.4775 55.3387 66.4775 55.104C66.4775 54.8587 66.4268 54.6453 66.3255 54.464C66.2295 54.2827 66.0908 54.144 65.9095 54.048C65.7282 53.9467 65.5148 53.896 65.2695 53.896C65.0348 53.896 64.8295 53.9467 64.6535 54.048C64.4775 54.1493 64.3388 54.2907 64.2375 54.472C64.1415 54.6533 64.0935 54.864 64.0935 55.104C64.0935 55.3387 64.1442 55.5467 64.2455 55.728C64.3468 55.9093 64.4855 56.0507 64.6615 56.152C64.8375 56.2533 65.0428 56.304 65.2775 56.304Z" fill="black"/>
<defs>
<filter id="filter0_d_271_650" x="0.0999999" y="24" width="89.8" height="57.9" filterUnits="userSpaceOnUse" color-interpolation-filters="sRGB">
<feFlood flood-opacity="0" result="BackgroundImageFix"/>
<feColorMatrix in="SourceAlpha" type="matrix" values="0 0 0 0 0 0 0 0 0 0 0 0 0 0 0 0 0 0 127 0" result="hardAlpha"/>
<feOffset dy="4"/>
<feGaussianBlur stdDeviation="1.95"/>
<feComposite in2="hardAlpha" operator="out"/>
<feColorMatrix type="matrix" values="0 0 0 0 0 0 0 0 0 0 0 0 0 0 0 0 0 0 0.2 0"/>
<feBlend mode="normal" in2="BackgroundImageFix" result="effect1_dropShadow_271_650"/>
<feBlend mode="normal" in="SourceGraphic" in2="effect1_dropShadow_271_650" result="shape"/>
</filter>
<clipPath id="clip0_271_650">
<rect width="16.8475" height="16.8475" fill="white" transform="translate(35.2891 7.2207)"/>
</clipPath>
</defs>
</svg>
