<svg width="90" height="82" viewBox="0 0 90 82" fill="none" xmlns="http://www.w3.org/2000/svg">
<g filter="url(#filter0_d_271_606)">
<rect x="4" y="24" width="82" height="50" rx="2" fill="white"/>
<rect x="4.25" y="24.25" width="81.5" height="49.5" rx="1.75" stroke="white" stroke-width="0.5"/>
</g>
<rect x="29.0312" width="30.0846" height="30.303" rx="3" fill="#CB3335"/>
<g clip-path="url(#clip0_271_606)">
<path d="M51.7252 17.8713L49.0833 12.5875H49.8124C49.9526 12.5875 50.087 12.5318 50.1861 12.4327C50.2852 12.3336 50.3408 12.1992 50.3408 12.0591C50.3408 11.9189 50.2852 11.7845 50.1861 11.6854C50.087 11.5863 49.9526 11.5307 49.8124 11.5307H48.9776C48.4099 10.9124 47.7259 10.4121 46.9647 10.0585C46.2034 9.70488 45.3799 9.50489 44.5412 9.46997L44.5286 9.41713C44.5286 9.13685 44.4172 8.86806 44.219 8.66987C44.0209 8.47169 43.7521 8.36035 43.4718 8.36035C43.1915 8.36035 42.9227 8.47169 42.7245 8.66987C42.5263 8.86806 42.415 9.13685 42.415 9.41713V9.46997C40.7071 9.54099 39.0954 10.2799 37.9269 11.5275L37.1311 11.5307C36.991 11.5307 36.8566 11.5863 36.7575 11.6854C36.6584 11.7845 36.6027 11.9189 36.6027 12.0591C36.6027 12.1992 36.6584 12.3336 36.7575 12.4327C36.8566 12.5318 36.991 12.5875 37.1311 12.5875H37.8603L35.2184 17.8713H35.0176C35.0176 19.0338 36.4337 19.9849 38.1879 19.9849C39.9422 19.9849 41.3582 19.0338 41.3582 17.8713H41.1574L38.4627 12.4923C38.5295 12.4532 38.5868 12.3998 38.6307 12.3359C39.098 11.7868 39.6762 11.3426 40.3273 11.0326C40.9784 10.7226 41.6877 10.5538 42.4087 10.5373L42.415 22.0984H41.3582V23.1552H39.2447V24.212H47.6989V23.1552H45.5853V22.0984H44.5286V10.5373C45.2413 10.5508 45.9429 10.7176 46.5855 11.0263C47.228 11.335 47.7967 11.7784 48.2526 12.3264C48.3015 12.4093 48.372 12.4773 48.4566 12.523L45.7861 17.8713H45.5853C45.5853 19.0338 47.0014 19.9849 48.7557 19.9849C50.5099 19.9849 51.926 19.0338 51.926 17.8713H51.7252ZM40.3015 17.8713H36.0744L38.1879 13.7076L40.3015 17.8713ZM46.6421 17.8713L48.7557 13.7076L50.8692 17.8713H46.6421Z" fill="white"/>
</g>
<rect width="46.6612" height="24" transform="translate(22 37)" fill="white"/>
<path d="M32.9981 45L31.1901 39.36H31.9421L33.4141 44.144H33.3421L34.9821 39.36H35.5661L37.1901 44.144H37.1341L38.6221 39.36H39.3421L37.5261 45H36.8461L35.2541 40.344H35.2861L33.6621 45H32.9981ZM41.8523 45.072C41.4097 45.072 41.0257 44.992 40.7003 44.832C40.3803 44.6667 40.135 44.432 39.9643 44.128C39.7937 43.8187 39.7083 43.4507 39.7083 43.024C39.7083 42.624 39.7883 42.272 39.9483 41.968C40.1083 41.6587 40.335 41.416 40.6283 41.24C40.9217 41.064 41.271 40.976 41.6763 40.976C42.0603 40.976 42.3857 41.0587 42.6523 41.224C42.9243 41.3893 43.1297 41.6213 43.2683 41.92C43.4123 42.2187 43.4843 42.5733 43.4843 42.984V43.216H40.2443V42.72H43.0203L42.8683 42.88C42.8683 42.4427 42.7643 42.1067 42.5563 41.872C42.3537 41.6373 42.0603 41.52 41.6763 41.52C41.4257 41.52 41.2017 41.5787 41.0043 41.696C40.8123 41.808 40.663 41.968 40.5563 42.176C40.4497 42.384 40.3963 42.6373 40.3963 42.936V43.016C40.3963 43.336 40.455 43.6053 40.5723 43.824C40.6897 44.0427 40.8577 44.208 41.0763 44.32C41.295 44.432 41.5563 44.488 41.8603 44.488C42.079 44.488 42.3003 44.4587 42.5243 44.4C42.7537 44.336 42.967 44.224 43.1643 44.064L43.4043 44.576C43.2017 44.7467 42.959 44.872 42.6763 44.952C42.399 45.032 42.1243 45.072 41.8523 45.072ZM44.5793 40.096V39.304H45.4433V40.096H44.5793ZM44.6593 45V41.048H45.3713V45H44.6593ZM48.5041 46.512C48.1894 46.512 47.8774 46.464 47.5681 46.368C47.2587 46.2773 46.9947 46.152 46.7761 45.992L47.0001 45.44C47.1494 45.536 47.3067 45.6187 47.4721 45.688C47.6374 45.7627 47.8054 45.816 47.9761 45.848C48.1521 45.8853 48.3254 45.904 48.4961 45.904C48.9067 45.904 49.2267 45.8 49.4561 45.592C49.6907 45.384 49.8081 45.088 49.8081 44.704V43.976H49.7921C49.6961 44.248 49.5227 44.4693 49.2721 44.64C49.0214 44.8053 48.7307 44.888 48.4001 44.888C48.0267 44.888 47.7014 44.808 47.4241 44.648C47.1467 44.4827 46.9307 44.2533 46.7761 43.96C46.6267 43.6667 46.5521 43.3227 46.5521 42.928C46.5521 42.5387 46.6267 42.1973 46.7761 41.904C46.9307 41.6107 47.1467 41.384 47.4241 41.224C47.7014 41.0587 48.0267 40.976 48.4001 40.976C48.7307 40.976 49.0214 41.0613 49.2721 41.232C49.5281 41.4027 49.7041 41.6293 49.8001 41.912H49.8081V41.048H50.4721V44.64C50.4721 45.024 50.3921 45.3547 50.2321 45.632C50.0774 45.9147 49.8534 46.1307 49.5601 46.28C49.2667 46.4347 48.9147 46.512 48.5041 46.512ZM48.5201 44.304C48.9094 44.304 49.2161 44.1787 49.4401 43.928C49.6694 43.6773 49.7841 43.344 49.7841 42.928C49.7841 42.512 49.6694 42.1813 49.4401 41.936C49.2161 41.6853 48.9094 41.56 48.5201 41.56C48.1361 41.56 47.8294 41.6853 47.6001 41.936C47.3761 42.1813 47.2641 42.512 47.2641 42.928C47.2641 43.344 47.3761 43.6773 47.6001 43.928C47.8294 44.1787 48.1361 44.304 48.5201 44.304ZM51.8936 45V39.36H52.5816V41.888C52.699 41.6053 52.883 41.384 53.1336 41.224C53.3896 41.0587 53.6776 40.976 53.9976 40.976C54.323 40.976 54.595 41.0347 54.8136 41.152C55.0323 41.264 55.195 41.44 55.3016 41.68C55.4136 41.9147 55.4696 42.208 55.4696 42.56V45H54.7576V42.6C54.7576 42.3867 54.7256 42.2053 54.6616 42.056C54.603 41.9067 54.507 41.792 54.3736 41.712C54.2403 41.6267 54.0616 41.584 53.8376 41.584C53.603 41.584 53.3923 41.6373 53.2056 41.744C53.019 41.8507 52.8723 41.9947 52.7656 42.176C52.659 42.3573 52.6056 42.56 52.6056 42.784V45H51.8936ZM58.542 45.072C58.0673 45.072 57.7073 44.9467 57.462 44.696C57.222 44.4453 57.102 44.088 57.102 43.624V41.632H56.302V41.048H57.126V39.872H57.814V41.048H59.23V41.632H57.814V43.56C57.814 43.864 57.8807 44.0907 58.014 44.24C58.1527 44.384 58.3633 44.456 58.646 44.456C58.758 44.456 58.8647 44.4453 58.966 44.424C59.0727 44.4027 59.174 44.3707 59.27 44.328L59.382 44.888C59.2753 44.9467 59.1447 44.992 58.99 45.024C58.8407 45.056 58.6913 45.072 58.542 45.072Z" fill="#CE3439"/>
<path d="M23.0661 58V57.392H24.6101V52.928L24.9861 52.984L23.3461 54.04L23.0261 53.488L24.7941 52.36H25.3141V57.392H26.7381V58H23.0661ZM29.527 58.072C28.8976 58.072 28.4016 57.936 28.039 57.664C27.6763 57.3867 27.495 57.0027 27.495 56.512C27.495 56.2613 27.543 56.04 27.639 55.848C27.7403 55.6507 27.879 55.4907 28.055 55.368C28.2363 55.24 28.4443 55.1547 28.679 55.112V55.12C28.4763 55.072 28.295 54.984 28.135 54.856C27.9803 54.728 27.8576 54.5733 27.767 54.392C27.6763 54.2107 27.631 54.0107 27.631 53.792C27.631 53.3227 27.8016 52.9547 28.143 52.688C28.4896 52.4213 28.951 52.288 29.527 52.288C30.103 52.288 30.5616 52.4213 30.903 52.688C31.2496 52.9547 31.423 53.3227 31.423 53.792C31.423 54.0053 31.3776 54.2053 31.287 54.392C31.1963 54.5733 31.071 54.728 30.911 54.856C30.7563 54.984 30.575 55.072 30.367 55.12V55.112C30.5963 55.1493 30.799 55.232 30.975 55.36C31.1563 55.488 31.2976 55.6507 31.399 55.848C31.5056 56.04 31.559 56.2613 31.559 56.512C31.559 57.0027 31.3776 57.3867 31.015 57.664C30.6576 57.936 30.1616 58.072 29.527 58.072ZM29.527 57.472C29.9696 57.472 30.3056 57.3867 30.535 57.216C30.7696 57.0453 30.887 56.7947 30.887 56.464C30.887 56.1333 30.7696 55.88 30.535 55.704C30.3056 55.528 29.9696 55.44 29.527 55.44C29.0843 55.44 28.7456 55.528 28.511 55.704C28.2816 55.88 28.167 56.1333 28.167 56.464C28.167 56.7947 28.2816 57.0453 28.511 57.216C28.7456 57.3867 29.0843 57.472 29.527 57.472ZM29.527 54.84C29.911 54.84 30.2123 54.7547 30.431 54.584C30.6496 54.408 30.759 54.1653 30.759 53.856C30.759 53.552 30.6496 53.3147 30.431 53.144C30.2123 52.968 29.911 52.88 29.527 52.88C29.1483 52.88 28.8496 52.968 28.631 53.144C28.4123 53.3147 28.303 53.552 28.303 53.856C28.303 54.1653 28.4123 54.408 28.631 54.584C28.8496 54.7547 29.1483 54.84 29.527 54.84ZM32.4998 58V57.12H33.4118V58H32.4998ZM36.3863 58.072C35.9543 58.072 35.589 57.9627 35.2903 57.744C34.9917 57.52 34.765 57.1947 34.6103 56.768C34.461 56.336 34.3863 55.8053 34.3863 55.176C34.3863 54.5467 34.461 54.0187 34.6103 53.592C34.765 53.1653 34.9917 52.8427 35.2903 52.624C35.589 52.4 35.9543 52.288 36.3863 52.288C36.829 52.288 37.197 52.3973 37.4903 52.616C37.7837 52.8347 38.005 53.1573 38.1543 53.584C38.309 54.0107 38.3863 54.5387 38.3863 55.168C38.3863 55.7973 38.309 56.328 38.1543 56.76C38.005 57.192 37.781 57.52 37.4823 57.744C37.1837 57.9627 36.8183 58.072 36.3863 58.072ZM36.3863 57.448C36.8237 57.448 37.149 57.264 37.3623 56.896C37.5757 56.528 37.6823 55.952 37.6823 55.168C37.6823 54.3893 37.5757 53.8187 37.3623 53.456C37.1543 53.0933 36.8317 52.912 36.3943 52.912C35.9517 52.912 35.6237 53.096 35.4103 53.464C35.197 53.8267 35.0903 54.3973 35.0903 55.176C35.0903 55.9493 35.197 56.5227 35.4103 56.896C35.6237 57.264 35.949 57.448 36.3863 57.448ZM40.8312 58.072C40.6232 58.072 40.4205 58.048 40.2232 58C40.0312 57.952 39.8472 57.88 39.6712 57.784C39.5005 57.6827 39.3405 57.56 39.1912 57.416L39.4632 56.872C39.6819 57.0907 39.9032 57.2427 40.1272 57.328C40.3512 57.408 40.5885 57.448 40.8392 57.448C41.1005 57.448 41.3299 57.4 41.5272 57.304C41.7299 57.2027 41.9005 57.056 42.0392 56.864C42.1779 56.6667 42.2819 56.424 42.3512 56.136C42.4205 55.848 42.4552 55.5173 42.4552 55.144V54.68H42.4472C42.4045 54.9307 42.3085 55.1493 42.1592 55.336C42.0152 55.5173 41.8365 55.656 41.6232 55.752C41.4099 55.848 41.1752 55.896 40.9192 55.896C40.5832 55.896 40.2845 55.8213 40.0232 55.672C39.7619 55.5227 39.5565 55.3147 39.4072 55.048C39.2632 54.7813 39.1912 54.472 39.1912 54.12C39.1912 53.768 39.2685 53.4533 39.4232 53.176C39.5779 52.8987 39.7912 52.6827 40.0632 52.528C40.3352 52.368 40.6472 52.288 40.9992 52.288C41.4579 52.288 41.8445 52.3973 42.1592 52.616C42.4739 52.8293 42.7112 53.1413 42.8712 53.552C43.0312 53.9627 43.1112 54.464 43.1112 55.056C43.1112 55.696 43.0205 56.2427 42.8392 56.696C42.6579 57.144 42.3965 57.4853 42.0552 57.72C41.7192 57.9547 41.3112 58.072 40.8312 58.072ZM41.0392 55.304C41.2739 55.304 41.4819 55.2533 41.6632 55.152C41.8445 55.0507 41.9859 54.9093 42.0872 54.728C42.1885 54.5467 42.2392 54.3387 42.2392 54.104C42.2392 53.8587 42.1885 53.6453 42.0872 53.464C41.9912 53.2827 41.8525 53.144 41.6712 53.048C41.4899 52.9467 41.2765 52.896 41.0312 52.896C40.7965 52.896 40.5912 52.9467 40.4152 53.048C40.2392 53.1493 40.1005 53.2907 39.9992 53.472C39.9032 53.6533 39.8552 53.864 39.8552 54.104C39.8552 54.3387 39.9059 54.5467 40.0072 54.728C40.1085 54.9093 40.2472 55.0507 40.4232 55.152C40.5992 55.2533 40.8045 55.304 41.0392 55.304ZM47.7025 59.536C47.3238 58.96 47.0438 58.3733 46.8625 57.776C46.6865 57.1733 46.5985 56.5467 46.5985 55.896C46.5985 55.2453 46.6865 54.6213 46.8625 54.024C47.0438 53.4267 47.3238 52.8373 47.7025 52.256L48.2145 52.44C48.0118 52.8187 47.8438 53.2 47.7105 53.584C47.5771 53.968 47.4758 54.352 47.4065 54.736C47.3425 55.1147 47.3105 55.5013 47.3105 55.896C47.3105 56.2853 47.3425 56.672 47.4065 57.056C47.4758 57.44 47.5771 57.8213 47.7105 58.2C47.8438 58.584 48.0118 58.968 48.2145 59.352L47.7025 59.536ZM51.8236 58.072C51.237 58.072 50.7356 57.9573 50.3196 57.728C49.9036 57.4987 49.5836 57.1707 49.3596 56.744C49.141 56.312 49.0316 55.7893 49.0316 55.176C49.0316 54.5733 49.1383 54.0587 49.3516 53.632C49.5703 53.2 49.8823 52.8693 50.2876 52.64C50.693 52.4053 51.1783 52.288 51.7436 52.288C52.021 52.288 52.285 52.3147 52.5356 52.368C52.7863 52.4213 53.0183 52.5013 53.2316 52.608C53.445 52.7093 53.6263 52.8373 53.7756 52.992L53.5036 53.544C53.253 53.3253 52.9836 53.1707 52.6956 53.08C52.4076 52.984 52.0876 52.936 51.7356 52.936C51.117 52.936 50.6343 53.128 50.2876 53.512C49.9463 53.8907 49.7756 54.4453 49.7756 55.176C49.7756 55.9333 49.9516 56.5013 50.3036 56.88C50.661 57.2533 51.1783 57.44 51.8556 57.44C52.1543 57.44 52.4316 57.416 52.6876 57.368C52.949 57.32 53.1863 57.2507 53.3996 57.16L53.1916 57.576V55.616H51.7836V55.008H53.8396V57.672C53.6903 57.7467 53.5036 57.816 53.2796 57.88C53.0556 57.9387 52.8183 57.984 52.5676 58.016C52.317 58.0533 52.069 58.072 51.8236 58.072ZM55.3155 58V54.048H55.9635V54.96H55.9715C56.0675 54.6667 56.2355 54.4373 56.4755 54.272C56.7155 54.1013 57.0088 54.0053 57.3555 53.984L57.7155 53.968L57.7795 54.616L57.2035 54.664C56.8355 54.696 56.5475 54.8187 56.3395 55.032C56.1315 55.24 56.0275 55.5013 56.0275 55.816V58H55.3155ZM58.6753 58V54.048H59.3313V54.912C59.4006 54.736 59.4966 54.5787 59.6193 54.44C59.7473 54.296 59.8993 54.184 60.0753 54.104C60.2566 54.0187 60.4539 53.976 60.6673 53.976C61.0139 53.976 61.2993 54.0613 61.5233 54.232C61.7473 54.4027 61.8859 54.6267 61.9393 54.904H61.9313C62.0379 54.6427 62.2059 54.424 62.4353 54.248C62.6699 54.0667 62.9633 53.976 63.3153 53.976C63.6139 53.976 63.8673 54.0347 64.0753 54.152C64.2833 54.264 64.4406 54.4373 64.5473 54.672C64.6539 54.9067 64.7073 55.2027 64.7073 55.56V58H64.0033V55.608C64.0033 55.2667 63.9419 55.0107 63.8193 54.84C63.6966 54.6693 63.4779 54.584 63.1633 54.584C62.9286 54.584 62.7259 54.6373 62.5553 54.744C62.3899 54.8453 62.2619 54.9893 62.1713 55.176C62.0859 55.3573 62.0433 55.5627 62.0433 55.792V58H61.3393V55.608C61.3393 55.272 61.2699 55.0187 61.1313 54.848C60.9926 54.672 60.7819 54.584 60.4993 54.584C60.2699 54.584 60.0699 54.6427 59.8993 54.76C59.7339 54.872 59.6059 55.0187 59.5153 55.2C59.4246 55.3813 59.3793 55.5733 59.3793 55.776V58H58.6753ZM66.2318 59.536L65.7118 59.352C65.9198 58.9627 66.0905 58.576 66.2238 58.192C66.3572 57.8133 66.4558 57.4347 66.5198 57.056C66.5838 56.672 66.6158 56.2853 66.6158 55.896C66.6158 55.5067 66.5838 55.1227 66.5198 54.744C66.4558 54.36 66.3572 53.976 66.2238 53.592C66.0905 53.208 65.9198 52.824 65.7118 52.44L66.2318 52.256C66.6052 52.832 66.8798 53.4213 67.0558 54.024C67.2372 54.6213 67.3278 55.2453 67.3278 55.896C67.3278 56.5413 67.2372 57.1653 67.0558 57.768C66.8798 58.3653 66.6052 58.9547 66.2318 59.536Z" fill="black"/>
<defs>
<filter id="filter0_d_271_606" x="0.0999999" y="24" width="89.8" height="57.9" filterUnits="userSpaceOnUse" color-interpolation-filters="sRGB">
<feFlood flood-opacity="0" result="BackgroundImageFix"/>
<feColorMatrix in="SourceAlpha" type="matrix" values="0 0 0 0 0 0 0 0 0 0 0 0 0 0 0 0 0 0 127 0" result="hardAlpha"/>
<feOffset dy="4"/>
<feGaussianBlur stdDeviation="1.95"/>
<feComposite in2="hardAlpha" operator="out"/>
<feColorMatrix type="matrix" values="0 0 0 0 0 0 0 0 0 0 0 0 0 0 0 0 0 0 0.2 0"/>
<feBlend mode="normal" in2="BackgroundImageFix" result="effect1_dropShadow_271_606"/>
<feBlend mode="normal" in="SourceGraphic" in2="effect1_dropShadow_271_606" result="shape"/>
</filter>
<clipPath id="clip0_271_606">
<rect width="16.9084" height="16.9084" fill="white" transform="translate(35.0176 7.30371)"/>
</clipPath>
</defs>
</svg>
