<svg width="90" height="82" viewBox="0 0 90 82" fill="none" xmlns="http://www.w3.org/2000/svg">
<g filter="url(#filter0_d_271_659)">
<rect x="4" y="24" width="82" height="50" rx="2" fill="#EBDBBA"/>
<rect x="4.25" y="24.25" width="81.5" height="49.5" rx="1.75" stroke="#EBDBBA" stroke-width="0.5"/>
</g>
<rect x="29.3398" width="30.0847" height="30.0847" rx="3" fill="#CB3335"/>
<g clip-path="url(#clip0_271_659)">
<path d="M52.0048 17.7501L49.3724 12.4853H50.0989C50.2386 12.4853 50.3725 12.4298 50.4712 12.3311C50.57 12.2324 50.6254 12.0985 50.6254 11.9588C50.6254 11.8192 50.57 11.6853 50.4712 11.5865C50.3725 11.4878 50.2386 11.4323 50.0989 11.4323H49.2671C48.7015 10.8163 48.0199 10.3178 47.2614 9.96545C46.5029 9.61312 45.6824 9.41385 44.8468 9.37905L44.8341 9.3264C44.8341 9.04714 44.7232 8.77931 44.5257 8.58184C44.3282 8.38437 44.0604 8.27344 43.7811 8.27344C43.5019 8.27344 43.2341 8.38437 43.0366 8.58184C42.8391 8.77931 42.7282 9.04714 42.7282 9.3264V9.37905C41.0264 9.44982 39.4205 10.186 38.2562 11.4292L37.4634 11.4323C37.3237 11.4323 37.1898 11.4878 37.0911 11.5865C36.9923 11.6853 36.9369 11.8192 36.9369 11.9588C36.9369 12.0985 36.9923 12.2324 37.0911 12.3311C37.1898 12.4298 37.3237 12.4853 37.4634 12.4853H38.1899L35.5575 17.7501H35.3574C35.3574 18.9084 36.7684 19.8561 38.5163 19.8561C40.2642 19.8561 41.6752 18.9084 41.6752 17.7501H41.4752L38.7901 12.3905C38.8566 12.3515 38.9138 12.2983 38.9575 12.2347C39.4232 11.6875 39.9993 11.2449 40.648 10.9361C41.2968 10.6272 42.0035 10.459 42.7219 10.4425L42.7282 21.962H41.6752V23.015H39.5693V24.0679H47.993V23.015H45.8871V21.962H44.8341V10.4425C45.5443 10.456 46.2433 10.6221 46.8836 10.9297C47.5239 11.2374 48.0904 11.6792 48.5448 12.2252C48.5934 12.3078 48.6637 12.3755 48.748 12.4211L46.0871 17.7501H45.8871C45.8871 18.9084 47.2981 19.8561 49.046 19.8561C50.7939 19.8561 52.2049 18.9084 52.2049 17.7501H52.0048ZM40.6223 17.7501H36.4104L38.5163 13.6014L40.6223 17.7501ZM46.94 17.7501L49.046 13.6014L51.1519 17.7501H46.94Z" fill="#EBDBBA"/>
</g>
<rect width="46" height="20" transform="translate(22 39)" fill="#EBDBBA"/>
<path d="M32.668 47L30.86 41.36H31.612L33.084 46.144H33.012L34.652 41.36H35.236L36.86 46.144H36.804L38.292 41.36H39.012L37.196 47H36.516L34.924 42.344H34.956L33.332 47H32.668ZM41.5223 47.072C41.0796 47.072 40.6956 46.992 40.3703 46.832C40.0503 46.6667 39.8049 46.432 39.6343 46.128C39.4636 45.8187 39.3783 45.4507 39.3783 45.024C39.3783 44.624 39.4583 44.272 39.6183 43.968C39.7783 43.6587 40.0049 43.416 40.2983 43.24C40.5916 43.064 40.9409 42.976 41.3463 42.976C41.7303 42.976 42.0556 43.0587 42.3223 43.224C42.5943 43.3893 42.7996 43.6213 42.9383 43.92C43.0823 44.2187 43.1543 44.5733 43.1543 44.984V45.216H39.9143V44.72H42.6903L42.5383 44.88C42.5383 44.4427 42.4343 44.1067 42.2263 43.872C42.0236 43.6373 41.7303 43.52 41.3463 43.52C41.0956 43.52 40.8716 43.5787 40.6743 43.696C40.4823 43.808 40.3329 43.968 40.2263 44.176C40.1196 44.384 40.0663 44.6373 40.0663 44.936V45.016C40.0663 45.336 40.1249 45.6053 40.2423 45.824C40.3596 46.0427 40.5276 46.208 40.7463 46.32C40.9649 46.432 41.2263 46.488 41.5303 46.488C41.7489 46.488 41.9703 46.4587 42.1943 46.4C42.4236 46.336 42.6369 46.224 42.8343 46.064L43.0743 46.576C42.8716 46.7467 42.6289 46.872 42.3463 46.952C42.0689 47.032 41.7943 47.072 41.5223 47.072ZM44.2492 42.096V41.304H45.1132V42.096H44.2492ZM44.3292 47V43.048H45.0412V47H44.3292ZM48.174 48.512C47.8593 48.512 47.5473 48.464 47.238 48.368C46.9287 48.2773 46.6647 48.152 46.446 47.992L46.67 47.44C46.8193 47.536 46.9767 47.6187 47.142 47.688C47.3073 47.7627 47.4753 47.816 47.646 47.848C47.822 47.8853 47.9953 47.904 48.166 47.904C48.5767 47.904 48.8967 47.8 49.126 47.592C49.3607 47.384 49.478 47.088 49.478 46.704V45.976H49.462C49.366 46.248 49.1927 46.4693 48.942 46.64C48.6913 46.8053 48.4007 46.888 48.07 46.888C47.6967 46.888 47.3713 46.808 47.094 46.648C46.8167 46.4827 46.6007 46.2533 46.446 45.96C46.2967 45.6667 46.222 45.3227 46.222 44.928C46.222 44.5387 46.2967 44.1973 46.446 43.904C46.6007 43.6107 46.8167 43.384 47.094 43.224C47.3713 43.0587 47.6967 42.976 48.07 42.976C48.4007 42.976 48.6913 43.0613 48.942 43.232C49.198 43.4027 49.374 43.6293 49.47 43.912H49.478V43.048H50.142V46.64C50.142 47.024 50.062 47.3547 49.902 47.632C49.7473 47.9147 49.5233 48.1307 49.23 48.28C48.9367 48.4347 48.5847 48.512 48.174 48.512ZM48.19 46.304C48.5793 46.304 48.886 46.1787 49.11 45.928C49.3393 45.6773 49.454 45.344 49.454 44.928C49.454 44.512 49.3393 44.1813 49.11 43.936C48.886 43.6853 48.5793 43.56 48.19 43.56C47.806 43.56 47.4993 43.6853 47.27 43.936C47.046 44.1813 46.934 44.512 46.934 44.928C46.934 45.344 47.046 45.6773 47.27 45.928C47.4993 46.1787 47.806 46.304 48.19 46.304ZM51.5636 47V41.36H52.2516V43.888C52.3689 43.6053 52.5529 43.384 52.8036 43.224C53.0596 43.0587 53.3476 42.976 53.6676 42.976C53.9929 42.976 54.2649 43.0347 54.4836 43.152C54.7022 43.264 54.8649 43.44 54.9716 43.68C55.0836 43.9147 55.1396 44.208 55.1396 44.56V47H54.4276V44.6C54.4276 44.3867 54.3956 44.2053 54.3316 44.056C54.2729 43.9067 54.1769 43.792 54.0436 43.712C53.9102 43.6267 53.7316 43.584 53.5076 43.584C53.2729 43.584 53.0622 43.6373 52.8756 43.744C52.6889 43.8507 52.5422 43.9947 52.4356 44.176C52.3289 44.3573 52.2756 44.56 52.2756 44.784V47H51.5636ZM58.2119 47.072C57.7373 47.072 57.3773 46.9467 57.1319 46.696C56.8919 46.4453 56.7719 46.088 56.7719 45.624V43.632H55.9719V43.048H56.7959V41.872H57.4839V43.048H58.8999V43.632H57.4839V45.56C57.4839 45.864 57.5506 46.0907 57.6839 46.24C57.8226 46.384 58.0333 46.456 58.3159 46.456C58.4279 46.456 58.5346 46.4453 58.6359 46.424C58.7426 46.4027 58.8439 46.3707 58.9399 46.328L59.0519 46.888C58.9453 46.9467 58.8146 46.992 58.6599 47.024C58.5106 47.056 58.3613 47.072 58.2119 47.072Z" fill="#CE3439"/>
<path d="M22.656 60V59.472L24.64 57.392C24.832 57.1893 24.9813 57.0053 25.088 56.84C25.1947 56.6747 25.272 56.5147 25.32 56.36C25.368 56.2053 25.392 56.048 25.392 55.888C25.392 55.5733 25.2907 55.3333 25.088 55.168C24.8907 54.9973 24.616 54.912 24.264 54.912C23.9973 54.912 23.7333 54.9653 23.472 55.072C23.216 55.1733 22.9707 55.336 22.736 55.56L22.464 55C22.6987 54.776 22.9787 54.6027 23.304 54.48C23.6293 54.352 23.9653 54.288 24.312 54.288C24.68 54.288 24.9973 54.352 25.264 54.48C25.5307 54.6027 25.7333 54.7813 25.872 55.016C26.016 55.2453 26.088 55.5227 26.088 55.848C26.088 56.0133 26.0693 56.176 26.032 56.336C25.9947 56.4907 25.936 56.6453 25.856 56.8C25.7813 56.9547 25.6827 57.1147 25.56 57.28C25.4373 57.4453 25.288 57.6187 25.112 57.8L23.56 59.416V59.384H26.32V60H22.656ZM28.8449 60.072C28.6369 60.072 28.4342 60.048 28.2369 60C28.0449 59.952 27.8609 59.88 27.6849 59.784C27.5142 59.6827 27.3542 59.56 27.2049 59.416L27.4769 58.872C27.6955 59.0907 27.9169 59.2427 28.1409 59.328C28.3649 59.408 28.6022 59.448 28.8529 59.448C29.1142 59.448 29.3435 59.4 29.5409 59.304C29.7435 59.2027 29.9142 59.056 30.0529 58.864C30.1915 58.6667 30.2955 58.424 30.3649 58.136C30.4342 57.848 30.4689 57.5173 30.4689 57.144V56.68H30.4609C30.4182 56.9307 30.3222 57.1493 30.1729 57.336C30.0289 57.5173 29.8502 57.656 29.6369 57.752C29.4235 57.848 29.1889 57.896 28.9329 57.896C28.5969 57.896 28.2982 57.8213 28.0369 57.672C27.7755 57.5227 27.5702 57.3147 27.4209 57.048C27.2769 56.7813 27.2049 56.472 27.2049 56.12C27.2049 55.768 27.2822 55.4533 27.4369 55.176C27.5915 54.8987 27.8049 54.6827 28.0769 54.528C28.3489 54.368 28.6609 54.288 29.0129 54.288C29.4715 54.288 29.8582 54.3973 30.1729 54.616C30.4875 54.8293 30.7249 55.1413 30.8849 55.552C31.0449 55.9627 31.1249 56.464 31.1249 57.056C31.1249 57.696 31.0342 58.2427 30.8529 58.696C30.6715 59.144 30.4102 59.4853 30.0689 59.72C29.7329 59.9547 29.3249 60.072 28.8449 60.072ZM29.0529 57.304C29.2875 57.304 29.4955 57.2533 29.6769 57.152C29.8582 57.0507 29.9995 56.9093 30.1009 56.728C30.2022 56.5467 30.2529 56.3387 30.2529 56.104C30.2529 55.8587 30.2022 55.6453 30.1009 55.464C30.0049 55.2827 29.8662 55.144 29.6849 55.048C29.5035 54.9467 29.2902 54.896 29.0449 54.896C28.8102 54.896 28.6049 54.9467 28.4289 55.048C28.2529 55.1493 28.1142 55.2907 28.0129 55.472C27.9169 55.6533 27.8689 55.864 27.8689 56.104C27.8689 56.3387 27.9195 56.5467 28.0209 56.728C28.1222 56.9093 28.2609 57.0507 28.4369 57.152C28.6129 57.2533 28.8182 57.304 29.0529 57.304ZM32.1698 60V59.12H33.0818V60H32.1698ZM36.0563 60.072C35.6243 60.072 35.2589 59.9627 34.9603 59.744C34.6616 59.52 34.4349 59.1947 34.2803 58.768C34.1309 58.336 34.0563 57.8053 34.0563 57.176C34.0563 56.5467 34.1309 56.0187 34.2803 55.592C34.4349 55.1653 34.6616 54.8427 34.9603 54.624C35.2589 54.4 35.6243 54.288 36.0563 54.288C36.4989 54.288 36.8669 54.3973 37.1603 54.616C37.4536 54.8347 37.6749 55.1573 37.8243 55.584C37.9789 56.0107 38.0563 56.5387 38.0563 57.168C38.0563 57.7973 37.9789 58.328 37.8243 58.76C37.6749 59.192 37.4509 59.52 37.1523 59.744C36.8536 59.9627 36.4883 60.072 36.0563 60.072ZM36.0563 59.448C36.4936 59.448 36.8189 59.264 37.0323 58.896C37.2456 58.528 37.3523 57.952 37.3523 57.168C37.3523 56.3893 37.2456 55.8187 37.0323 55.456C36.8243 55.0933 36.5016 54.912 36.0643 54.912C35.6216 54.912 35.2936 55.096 35.0803 55.464C34.8669 55.8267 34.7603 56.3973 34.7603 57.176C34.7603 57.9493 34.8669 58.5227 35.0803 58.896C35.2936 59.264 35.6189 59.448 36.0563 59.448ZM39.1091 60V59.472L41.0931 57.392C41.2851 57.1893 41.4345 57.0053 41.5411 56.84C41.6478 56.6747 41.7251 56.5147 41.7731 56.36C41.8211 56.2053 41.8451 56.048 41.8451 55.888C41.8451 55.5733 41.7438 55.3333 41.5411 55.168C41.3438 54.9973 41.0691 54.912 40.7171 54.912C40.4505 54.912 40.1865 54.9653 39.9251 55.072C39.6691 55.1733 39.4238 55.336 39.1891 55.56L38.9171 55C39.1518 54.776 39.4318 54.6027 39.7571 54.48C40.0825 54.352 40.4185 54.288 40.7651 54.288C41.1331 54.288 41.4505 54.352 41.7171 54.48C41.9838 54.6027 42.1865 54.7813 42.3251 55.016C42.4691 55.2453 42.5411 55.5227 42.5411 55.848C42.5411 56.0133 42.5225 56.176 42.4851 56.336C42.4478 56.4907 42.3891 56.6453 42.3091 56.8C42.2345 56.9547 42.1358 57.1147 42.0131 57.28C41.8905 57.4453 41.7411 57.6187 41.5651 57.8L40.0131 59.416V59.384H42.7731V60H39.1091ZM47.3724 61.536C46.9937 60.96 46.7137 60.3733 46.5324 59.776C46.3564 59.1733 46.2684 58.5467 46.2684 57.896C46.2684 57.2453 46.3564 56.6213 46.5324 56.024C46.7137 55.4267 46.9937 54.8373 47.3724 54.256L47.8844 54.44C47.6817 54.8187 47.5137 55.2 47.3804 55.584C47.247 55.968 47.1457 56.352 47.0764 56.736C47.0124 57.1147 46.9804 57.5013 46.9804 57.896C46.9804 58.2853 47.0124 58.672 47.0764 59.056C47.1457 59.44 47.247 59.8213 47.3804 60.2C47.5137 60.584 47.6817 60.968 47.8844 61.352L47.3724 61.536ZM51.4936 60.072C50.9069 60.072 50.4056 59.9573 49.9896 59.728C49.5736 59.4987 49.2536 59.1707 49.0296 58.744C48.8109 58.312 48.7016 57.7893 48.7016 57.176C48.7016 56.5733 48.8082 56.0587 49.0216 55.632C49.2402 55.2 49.5522 54.8693 49.9576 54.64C50.3629 54.4053 50.8482 54.288 51.4136 54.288C51.6909 54.288 51.9549 54.3147 52.2056 54.368C52.4562 54.4213 52.6882 54.5013 52.9016 54.608C53.1149 54.7093 53.2962 54.8373 53.4456 54.992L53.1736 55.544C52.9229 55.3253 52.6536 55.1707 52.3656 55.08C52.0776 54.984 51.7576 54.936 51.4056 54.936C50.7869 54.936 50.3042 55.128 49.9576 55.512C49.6162 55.8907 49.4456 56.4453 49.4456 57.176C49.4456 57.9333 49.6216 58.5013 49.9736 58.88C50.3309 59.2533 50.8482 59.44 51.5256 59.44C51.8242 59.44 52.1016 59.416 52.3576 59.368C52.6189 59.32 52.8562 59.2507 53.0696 59.16L52.8616 59.576V57.616H51.4536V57.008H53.5096V59.672C53.3602 59.7467 53.1736 59.816 52.9496 59.88C52.7256 59.9387 52.4882 59.984 52.2376 60.016C51.9869 60.0533 51.7389 60.072 51.4936 60.072ZM54.9854 60V56.048H55.6334V56.96H55.6414C55.7374 56.6667 55.9054 56.4373 56.1454 56.272C56.3854 56.1013 56.6788 56.0053 57.0254 55.984L57.3854 55.968L57.4494 56.616L56.8734 56.664C56.5054 56.696 56.2174 56.8187 56.0094 57.032C55.8014 57.24 55.6974 57.5013 55.6974 57.816V60H54.9854ZM58.3452 60V56.048H59.0012V56.912C59.0705 56.736 59.1665 56.5787 59.2892 56.44C59.4172 56.296 59.5692 56.184 59.7452 56.104C59.9265 56.0187 60.1239 55.976 60.3372 55.976C60.6839 55.976 60.9692 56.0613 61.1932 56.232C61.4172 56.4027 61.5559 56.6267 61.6092 56.904H61.6012C61.7079 56.6427 61.8759 56.424 62.1052 56.248C62.3399 56.0667 62.6332 55.976 62.9852 55.976C63.2839 55.976 63.5372 56.0347 63.7452 56.152C63.9532 56.264 64.1105 56.4373 64.2172 56.672C64.3239 56.9067 64.3772 57.2027 64.3772 57.56V60H63.6732V57.608C63.6732 57.2667 63.6119 57.0107 63.4892 56.84C63.3665 56.6693 63.1479 56.584 62.8332 56.584C62.5985 56.584 62.3959 56.6373 62.2252 56.744C62.0599 56.8453 61.9319 56.9893 61.8412 57.176C61.7559 57.3573 61.7132 57.5627 61.7132 57.792V60H61.0092V57.608C61.0092 57.272 60.9399 57.0187 60.8012 56.848C60.6625 56.672 60.4519 56.584 60.1692 56.584C59.9399 56.584 59.7399 56.6427 59.5692 56.76C59.4039 56.872 59.2759 57.0187 59.1852 57.2C59.0945 57.3813 59.0492 57.5733 59.0492 57.776V60H58.3452ZM65.9018 61.536L65.3818 61.352C65.5898 60.9627 65.7604 60.576 65.8938 60.192C66.0271 59.8133 66.1258 59.4347 66.1898 59.056C66.2538 58.672 66.2858 58.2853 66.2858 57.896C66.2858 57.5067 66.2538 57.1227 66.1898 56.744C66.1258 56.36 66.0271 55.976 65.8938 55.592C65.7604 55.208 65.5898 54.824 65.3818 54.44L65.9018 54.256C66.2751 54.832 66.5498 55.4213 66.7258 56.024C66.9071 56.6213 66.9978 57.2453 66.9978 57.896C66.9978 58.5413 66.9071 59.1653 66.7258 59.768C66.5498 60.3653 66.2751 60.9547 65.9018 61.536Z" fill="black"/>
<defs>
<filter id="filter0_d_271_659" x="0.0999999" y="24" width="89.8" height="57.9" filterUnits="userSpaceOnUse" color-interpolation-filters="sRGB">
<feFlood flood-opacity="0" result="BackgroundImageFix"/>
<feColorMatrix in="SourceAlpha" type="matrix" values="0 0 0 0 0 0 0 0 0 0 0 0 0 0 0 0 0 0 127 0" result="hardAlpha"/>
<feOffset dy="4"/>
<feGaussianBlur stdDeviation="1.95"/>
<feComposite in2="hardAlpha" operator="out"/>
<feColorMatrix type="matrix" values="0 0 0 0 0 0 0 0 0 0 0 0 0 0 0 0 0 0 0.2 0"/>
<feBlend mode="normal" in2="BackgroundImageFix" result="effect1_dropShadow_271_659"/>
<feBlend mode="normal" in="SourceGraphic" in2="effect1_dropShadow_271_659" result="shape"/>
</filter>
<clipPath id="clip0_271_659">
<rect width="16.8475" height="16.8475" fill="white" transform="translate(35.3574 7.2207)"/>
</clipPath>
</defs>
</svg>
