<svg width="90" height="82" viewBox="0 0 90 82" fill="none" xmlns="http://www.w3.org/2000/svg">
<g filter="url(#filter0_d_271_597)">
<rect x="4" y="24" width="82" height="50" rx="2" fill="white"/>
<rect x="4.25" y="24.25" width="81.5" height="49.5" rx="1.75" stroke="white" stroke-width="0.5"/>
</g>
<rect x="29.2715" width="30.0846" height="30.303" rx="3" fill="#CB3335"/>
<g clip-path="url(#clip0_271_597)">
<path fill-rule="evenodd" clip-rule="evenodd" d="M35.6592 10.6981C35.7152 10.719 35.7807 10.7657 35.805 10.8022C35.8412 10.8562 35.8491 11.3278 35.8488 15.8566L35.7682 15.9395C35.7119 15.9971 35.6517 16.0223 35.5707 16.0223C35.4901 16.0223 35.4286 15.9968 35.2894 15.8566V13.3708C35.2894 11.7799 35.3012 10.8612 35.3223 10.8187C35.3404 10.7823 35.4009 10.7319 35.4565 10.7064C35.5358 10.6706 35.5799 10.6689 35.6592 10.6981ZM51.9472 10.6981C52.0032 10.719 52.0686 10.7657 52.093 10.8022C52.1292 10.8562 52.1371 11.3278 52.1367 15.8566L52.0561 15.9395C51.9999 15.9971 51.9396 16.0223 51.8587 16.0223C51.7781 16.0223 51.7165 15.9968 51.5774 15.8566V13.3708C51.5774 11.7799 51.5892 10.8612 51.6103 10.8187C51.6284 10.7823 51.6889 10.7319 51.7445 10.7064C51.8238 10.6706 51.8679 10.6689 51.9472 10.6981ZM51.9778 16.9007L52.1367 17.0829V18.8561C52.1367 19.9721 52.1246 20.6539 52.1038 20.6956C52.0857 20.7321 52.0193 20.7845 51.9558 20.8116C51.8544 20.8554 50.8643 20.8613 43.7131 20.8613C36.5618 20.8613 35.5717 20.8554 35.4704 20.8116C35.4069 20.7845 35.3404 20.7321 35.3223 20.6956C35.3016 20.6539 35.2894 19.9741 35.2891 18.8644C35.2891 17.2957 35.2947 17.0909 35.3417 17.0226C35.371 16.9802 35.4266 16.9328 35.4654 16.9169C35.5049 16.9006 39.1699 16.8907 51.9778 16.9007ZM35.8652 20.2813H51.5609L51.5662 17.4475H50.7218C50.7202 18 50.7047 18.1479 50.6797 18.1827C50.6577 18.2135 50.5951 18.2556 50.5409 18.2765C50.4612 18.3073 50.4214 18.3043 50.3352 18.2622C50.2651 18.2277 50.2167 18.1727 50.1947 18.1021C50.1763 18.0428 50.1615 17.8714 50.1618 17.721L50.1624 17.4475H49.0437C49.0437 18.6616 49.042 18.6755 48.9644 18.765C48.9048 18.8333 48.8548 18.8561 48.764 18.8561C48.6732 18.8561 48.6232 18.8333 48.5636 18.765C48.4859 18.6755 48.4843 18.6616 48.4843 18.0607V17.4475H47.3655C47.3501 18.1034 47.3408 18.1502 47.2757 18.2155C47.228 18.2635 47.1609 18.29 47.0839 18.291C46.994 18.2924 46.9453 18.2702 46.8854 18.2015C46.813 18.1184 46.8061 18.0819 46.8061 17.779V17.4475H45.6874C45.6874 18.4382 45.6755 18.6026 45.638 18.6904C45.6084 18.7604 45.5528 18.8203 45.4982 18.8416C45.4485 18.8608 45.3744 18.8681 45.3336 18.8581C45.2928 18.8479 45.2297 18.8061 45.1931 18.765C45.1313 18.6957 45.1267 18.6463 45.1273 18.069L45.128 17.4475H44.0092C44.0089 17.8456 43.9941 18.0173 43.976 18.0855C43.9516 18.1787 43.9144 18.2244 43.8282 18.2678C43.7187 18.3232 43.7075 18.3232 43.5979 18.2678C43.5117 18.2244 43.4745 18.1787 43.4502 18.0855C43.4321 18.0173 43.4173 17.8456 43.4173 17.7044L43.4169 17.4475H42.2982C42.2965 18.5051 42.284 18.706 42.256 18.7431C42.234 18.772 42.1827 18.8131 42.1419 18.8343C42.1011 18.8555 42.0234 18.8654 41.9691 18.8561C41.9033 18.8451 41.8485 18.8037 41.8046 18.7319C41.7457 18.6347 41.7391 18.5655 41.7388 18.0358V17.4475H40.62C40.62 18.0819 40.6131 18.1184 40.5407 18.2015C40.4818 18.2688 40.4305 18.2927 40.3439 18.2927C40.2661 18.2927 40.2021 18.2675 40.1521 18.2171C40.085 18.1498 40.0761 18.1058 40.0688 17.7945L40.0606 17.4475H38.9418C38.9257 18.6768 38.9221 18.7087 38.852 18.7789C38.8043 18.827 38.7372 18.8535 38.6602 18.8545C38.5703 18.8558 38.5216 18.8336 38.4618 18.765C38.3841 18.6755 38.3825 18.6616 38.3825 18.0607V17.4475H37.2637C37.2647 17.8714 37.2499 18.0428 37.2314 18.1021C37.2094 18.1727 37.161 18.2277 37.0909 18.2622C37.0047 18.3043 36.9649 18.3073 36.8853 18.2765C36.831 18.2556 36.7685 18.2135 36.7464 18.1827C36.7214 18.1479 36.706 18 36.7053 17.7873L36.7043 17.4475H35.8481L35.8652 20.2813ZM37.9751 11.5148C38.0182 11.5148 38.0942 11.5509 38.2344 11.6745L38.2508 13.2051H49.1753L49.1917 11.6745L49.2822 11.5946C49.3319 11.5509 49.406 11.5141 49.4468 11.5134C49.4876 11.5124 49.5534 11.5386 49.5929 11.5714C49.6327 11.6039 49.9624 12.0185 50.3257 12.4925C50.6893 12.9665 50.9953 13.3917 51.0061 13.4371C51.0176 13.4848 51.0045 13.5621 50.9752 13.6194C50.9472 13.6741 50.6774 14.0397 50.376 14.4314C50.0743 14.8235 49.7696 15.2149 49.6988 15.3015C49.5975 15.4254 49.5491 15.4589 49.4714 15.4589C49.4171 15.4589 49.3431 15.444 49.3069 15.4257C49.2707 15.4075 49.226 15.3442 49.2075 15.2849C49.1891 15.2256 49.1743 14.8603 49.1753 13.7685H38.2508L38.2515 14.4729C38.2515 14.8603 38.2367 15.2256 38.2186 15.2849C38.2002 15.3442 38.1554 15.4075 38.1192 15.4257C38.083 15.444 38.009 15.4589 37.9547 15.4589C37.877 15.4589 37.8287 15.4254 37.7273 15.3015C37.6562 15.2149 37.3515 14.8235 37.0501 14.4314C36.7484 14.0397 36.4789 13.6741 36.4509 13.6194C36.4217 13.5621 36.4085 13.4848 36.42 13.4371C36.4309 13.3917 36.7369 12.9665 37.1002 12.4925C37.4634 12.0185 37.7915 11.6046 37.829 11.5728C37.8662 11.5409 37.932 11.5148 37.9751 11.5148ZM37.0659 13.5531C37.0896 13.5896 37.2361 13.7855 37.3917 13.9886C37.5477 14.1918 37.6862 14.3522 37.6997 14.3449C37.7132 14.338 37.7244 13.9518 37.7244 13.4868C37.7244 13.0195 37.7112 12.6417 37.6951 12.6417C37.6793 12.6417 37.5217 12.8319 37.3446 13.0642C37.0544 13.4464 37.0274 13.4931 37.0659 13.5531ZM49.7265 14.3449C49.7399 14.3522 49.8785 14.1918 50.0341 13.9886C50.1898 13.7855 50.3365 13.5896 50.3599 13.5531C50.3984 13.4931 50.3714 13.4464 50.0769 13.0629C49.8976 12.8296 49.7399 12.6393 49.7265 12.6403C49.713 12.641 49.7018 13.0221 49.7018 13.4868C49.7018 13.9518 49.713 14.338 49.7265 14.3449Z" fill="white"/>
</g>
<path d="M24.666 45V39.36H26.642C27.2447 39.36 27.7567 39.4693 28.178 39.688C28.5993 39.9067 28.9193 40.2267 29.138 40.648C29.362 41.064 29.474 41.5733 29.474 42.176C29.474 42.7787 29.362 43.2907 29.138 43.712C28.9193 44.1333 28.5993 44.4533 28.178 44.672C27.7567 44.8907 27.2447 45 26.642 45H24.666ZM25.378 44.376H26.602C27.3007 44.376 27.8287 44.1947 28.186 43.832C28.5487 43.4693 28.73 42.9173 28.73 42.176C28.73 41.4347 28.5487 40.8853 28.186 40.528C27.8287 40.1653 27.3007 39.984 26.602 39.984H25.378V44.376ZM30.7082 40.096V39.304H31.5722V40.096H30.7082ZM30.7882 45V41.048H31.5002V45H30.7882ZM32.937 45V41.048H33.593V41.912C33.6623 41.736 33.7583 41.5787 33.881 41.44C34.009 41.296 34.161 41.184 34.337 41.104C34.5183 41.0187 34.7157 40.976 34.929 40.976C35.2757 40.976 35.561 41.0613 35.785 41.232C36.009 41.4027 36.1477 41.6267 36.201 41.904H36.193C36.2997 41.6427 36.4677 41.424 36.697 41.248C36.9317 41.0667 37.225 40.976 37.577 40.976C37.8757 40.976 38.129 41.0347 38.337 41.152C38.545 41.264 38.7023 41.4373 38.809 41.672C38.9157 41.9067 38.969 42.2027 38.969 42.56V45H38.265V42.608C38.265 42.2667 38.2037 42.0107 38.081 41.84C37.9583 41.6693 37.7397 41.584 37.425 41.584C37.1903 41.584 36.9877 41.6373 36.817 41.744C36.6517 41.8453 36.5237 41.9893 36.433 42.176C36.3477 42.3573 36.305 42.5627 36.305 42.792V45H35.601V42.608C35.601 42.272 35.5317 42.0187 35.393 41.848C35.2543 41.672 35.0437 41.584 34.761 41.584C34.5317 41.584 34.3317 41.6427 34.161 41.76C33.9957 41.872 33.8677 42.0187 33.777 42.2C33.6863 42.3813 33.641 42.5733 33.641 42.776V45H32.937ZM42.3015 45.072C41.8589 45.072 41.4749 44.992 41.1495 44.832C40.8295 44.6667 40.5842 44.432 40.4135 44.128C40.2429 43.8187 40.1575 43.4507 40.1575 43.024C40.1575 42.624 40.2375 42.272 40.3975 41.968C40.5575 41.6587 40.7842 41.416 41.0775 41.24C41.3709 41.064 41.7202 40.976 42.1255 40.976C42.5095 40.976 42.8349 41.0587 43.1015 41.224C43.3735 41.3893 43.5789 41.6213 43.7175 41.92C43.8615 42.2187 43.9335 42.5733 43.9335 42.984V43.216H40.6935V42.72H43.4695L43.3175 42.88C43.3175 42.4427 43.2135 42.1067 43.0055 41.872C42.8029 41.6373 42.5095 41.52 42.1255 41.52C41.8749 41.52 41.6509 41.5787 41.4535 41.696C41.2615 41.808 41.1122 41.968 41.0055 42.176C40.8989 42.384 40.8455 42.6373 40.8455 42.936V43.016C40.8455 43.336 40.9042 43.6053 41.0215 43.824C41.1389 44.0427 41.3069 44.208 41.5255 44.32C41.7442 44.432 42.0055 44.488 42.3095 44.488C42.5282 44.488 42.7495 44.4587 42.9735 44.4C43.2029 44.336 43.4162 44.224 43.6135 44.064L43.8535 44.576C43.6509 44.7467 43.4082 44.872 43.1255 44.952C42.8482 45.032 42.5735 45.072 42.3015 45.072ZM45.1085 45V41.048H45.7725V41.904C45.9005 41.6107 46.0925 41.384 46.3485 41.224C46.6045 41.0587 46.8925 40.976 47.2125 40.976C47.5378 40.976 47.8098 41.0347 48.0285 41.152C48.2472 41.264 48.4098 41.44 48.5165 41.68C48.6285 41.9147 48.6845 42.208 48.6845 42.56V45H47.9725V42.6C47.9725 42.3867 47.9432 42.2053 47.8845 42.056C47.8258 41.9067 47.7272 41.792 47.5885 41.712C47.4552 41.6267 47.2765 41.584 47.0525 41.584C46.8178 41.584 46.6045 41.6373 46.4125 41.744C46.2258 41.8507 46.0792 41.9947 45.9725 42.176C45.8712 42.3573 45.8205 42.56 45.8205 42.784V45H45.1085ZM51.5489 45.072C51.3302 45.072 51.1142 45.0507 50.9009 45.008C50.6929 44.9707 50.4982 44.9173 50.3169 44.848C50.1409 44.7733 49.9889 44.6827 49.8609 44.576L50.0929 44.072C50.2262 44.1733 50.3729 44.256 50.5329 44.32C50.6982 44.384 50.8662 44.432 51.0369 44.464C51.2129 44.4907 51.3809 44.504 51.5409 44.504C51.8715 44.504 52.1249 44.4533 52.3009 44.352C52.4822 44.2507 52.5729 44.1093 52.5729 43.928C52.5729 43.7733 52.5195 43.656 52.4129 43.576C52.3115 43.4907 52.1409 43.4267 51.9009 43.384L51.0769 43.24C50.7089 43.1707 50.4315 43.0453 50.2449 42.864C50.0635 42.6827 49.9729 42.4453 49.9729 42.152C49.9729 41.9173 50.0369 41.712 50.1649 41.536C50.2982 41.36 50.4875 41.224 50.7329 41.128C50.9782 41.0267 51.2715 40.976 51.6129 40.976C51.7995 40.976 51.9889 40.9947 52.1809 41.032C52.3782 41.0693 52.5595 41.1253 52.7249 41.2C52.8955 41.2693 53.0342 41.3573 53.1409 41.464L52.9009 41.968C52.7942 41.8667 52.6662 41.7867 52.5169 41.728C52.3729 41.664 52.2209 41.6187 52.0609 41.592C51.9062 41.56 51.7542 41.544 51.6049 41.544C51.2955 41.544 51.0555 41.5973 50.8849 41.704C50.7142 41.8053 50.6289 41.9493 50.6289 42.136C50.6289 42.2853 50.6769 42.4027 50.7729 42.488C50.8742 42.5733 51.0369 42.6373 51.2609 42.68L52.0609 42.824C52.4555 42.8987 52.7489 43.024 52.9409 43.2C53.1329 43.3707 53.2289 43.608 53.2289 43.912C53.2289 44.1467 53.1595 44.352 53.0209 44.528C52.8822 44.6987 52.6875 44.832 52.4369 44.928C52.1862 45.024 51.8902 45.072 51.5489 45.072ZM54.3254 40.096V39.304H55.1894V40.096H54.3254ZM54.4054 45V41.048H55.1174V45H54.4054ZM58.2582 45.072C57.8582 45.072 57.5115 44.9867 57.2182 44.816C56.9248 44.6453 56.6982 44.408 56.5382 44.104C56.3782 43.7947 56.2982 43.432 56.2982 43.016C56.2982 42.6053 56.3782 42.248 56.5382 41.944C56.6982 41.6347 56.9248 41.3973 57.2182 41.232C57.5115 41.0613 57.8582 40.976 58.2582 40.976C58.6582 40.976 59.0022 41.0613 59.2902 41.232C59.5835 41.3973 59.8102 41.6347 59.9702 41.944C60.1302 42.248 60.2102 42.6053 60.2102 43.016C60.2102 43.432 60.1302 43.7947 59.9702 44.104C59.8155 44.408 59.5915 44.6453 59.2982 44.816C59.0048 44.9867 58.6582 45.072 58.2582 45.072ZM58.2502 44.472C58.6395 44.472 58.9462 44.3413 59.1702 44.08C59.3942 43.8187 59.5062 43.464 59.5062 43.016C59.5062 42.568 59.3942 42.216 59.1702 41.96C58.9515 41.704 58.6475 41.576 58.2582 41.576C57.8688 41.576 57.5622 41.704 57.3382 41.96C57.1142 42.216 57.0022 42.568 57.0022 43.016C57.0022 43.464 57.1142 43.8187 57.3382 44.08C57.5675 44.3413 57.8715 44.472 58.2502 44.472ZM61.4054 45V41.048H62.0694V41.904C62.1974 41.6107 62.3894 41.384 62.6454 41.224C62.9014 41.0587 63.1894 40.976 63.5094 40.976C63.8347 40.976 64.1067 41.0347 64.3254 41.152C64.544 41.264 64.7067 41.44 64.8134 41.68C64.9254 41.9147 64.9814 42.208 64.9814 42.56V45H64.2694V42.6C64.2694 42.3867 64.24 42.2053 64.1814 42.056C64.1227 41.9067 64.024 41.792 63.8854 41.712C63.752 41.6267 63.5734 41.584 63.3494 41.584C63.1147 41.584 62.9014 41.6373 62.7094 41.744C62.5227 41.8507 62.376 41.9947 62.2694 42.176C62.168 42.3573 62.1174 42.56 62.1174 42.784V45H61.4054Z" fill="#CE3439"/>
<path d="M25.0153 58V57.392H26.5593V52.928L26.9353 52.984L25.2953 54.04L24.9753 53.488L26.7433 52.36H27.2633V57.392H28.6873V58H25.0153ZM29.8122 58V57.392H31.3562V52.928L31.7322 52.984L30.0922 54.04L29.7722 53.488L31.5402 52.36H32.0602V57.392H33.4842V58H29.8122ZM36.273 58.072C35.841 58.072 35.4757 57.9627 35.177 57.744C34.8784 57.52 34.6517 57.1947 34.497 56.768C34.3477 56.336 34.273 55.8053 34.273 55.176C34.273 54.5467 34.3477 54.0187 34.497 53.592C34.6517 53.1653 34.8784 52.8427 35.177 52.624C35.4757 52.4 35.841 52.288 36.273 52.288C36.7157 52.288 37.0837 52.3973 37.377 52.616C37.6704 52.8347 37.8917 53.1573 38.041 53.584C38.1957 54.0107 38.273 54.5387 38.273 55.168C38.273 55.7973 38.1957 56.328 38.041 56.76C37.8917 57.192 37.6677 57.52 37.369 57.744C37.0704 57.9627 36.705 58.072 36.273 58.072ZM36.273 57.448C36.7104 57.448 37.0357 57.264 37.249 56.896C37.4624 56.528 37.569 55.952 37.569 55.168C37.569 54.3893 37.4624 53.8187 37.249 53.456C37.041 53.0933 36.7184 52.912 36.281 52.912C35.8384 52.912 35.5104 53.096 35.297 53.464C35.0837 53.8267 34.977 54.3973 34.977 55.176C34.977 55.9493 35.0837 56.5227 35.297 56.896C35.5104 57.264 35.8357 57.448 36.273 57.448ZM39.9899 55.312L39.5179 55.032L40.2219 53.968L40.2379 53.992L38.9499 54.072V53.52L40.2379 53.6L40.2139 53.616L39.5179 52.56L39.9979 52.28L40.5659 53.464H40.5579L41.1099 52.28L41.5899 52.56L40.8859 53.616L40.8619 53.6L42.1579 53.52V54.072L40.8699 53.992L40.8939 53.968L41.5899 55.032L41.1179 55.312L40.5579 54.136H40.5659L39.9899 55.312ZM44.4835 58.072C44.2755 58.072 44.0729 58.048 43.8755 58C43.6835 57.952 43.4995 57.88 43.3235 57.784C43.1529 57.6827 42.9929 57.56 42.8435 57.416L43.1155 56.872C43.3342 57.0907 43.5555 57.2427 43.7795 57.328C44.0035 57.408 44.2409 57.448 44.4915 57.448C44.7529 57.448 44.9822 57.4 45.1795 57.304C45.3822 57.2027 45.5529 57.056 45.6915 56.864C45.8302 56.6667 45.9342 56.424 46.0035 56.136C46.0729 55.848 46.1075 55.5173 46.1075 55.144V54.68H46.0995C46.0569 54.9307 45.9609 55.1493 45.8115 55.336C45.6675 55.5173 45.4889 55.656 45.2755 55.752C45.0622 55.848 44.8275 55.896 44.5715 55.896C44.2355 55.896 43.9369 55.8213 43.6755 55.672C43.4142 55.5227 43.2089 55.3147 43.0595 55.048C42.9155 54.7813 42.8435 54.472 42.8435 54.12C42.8435 53.768 42.9209 53.4533 43.0755 53.176C43.2302 52.8987 43.4435 52.6827 43.7155 52.528C43.9875 52.368 44.2995 52.288 44.6515 52.288C45.1102 52.288 45.4969 52.3973 45.8115 52.616C46.1262 52.8293 46.3635 53.1413 46.5235 53.552C46.6835 53.9627 46.7635 54.464 46.7635 55.056C46.7635 55.696 46.6729 56.2427 46.4915 56.696C46.3102 57.144 46.0489 57.4853 45.7075 57.72C45.3715 57.9547 44.9635 58.072 44.4835 58.072ZM44.6915 55.304C44.9262 55.304 45.1342 55.2533 45.3155 55.152C45.4969 55.0507 45.6382 54.9093 45.7395 54.728C45.8409 54.5467 45.8915 54.3387 45.8915 54.104C45.8915 53.8587 45.8409 53.6453 45.7395 53.464C45.6435 53.2827 45.5049 53.144 45.3235 53.048C45.1422 52.9467 44.9289 52.896 44.6835 52.896C44.4489 52.896 44.2435 52.9467 44.0675 53.048C43.8915 53.1493 43.7529 53.2907 43.6515 53.472C43.5555 53.6533 43.5075 53.864 43.5075 54.104C43.5075 54.3387 43.5582 54.5467 43.6595 54.728C43.7609 54.9093 43.8995 55.0507 44.0755 55.152C44.2515 55.2533 44.4569 55.304 44.6915 55.304ZM49.6324 58.072C49.2004 58.072 48.8351 57.9627 48.5364 57.744C48.2378 57.52 48.0111 57.1947 47.8564 56.768C47.7071 56.336 47.6324 55.8053 47.6324 55.176C47.6324 54.5467 47.7071 54.0187 47.8564 53.592C48.0111 53.1653 48.2378 52.8427 48.5364 52.624C48.8351 52.4 49.2004 52.288 49.6324 52.288C50.0751 52.288 50.4431 52.3973 50.7364 52.616C51.0298 52.8347 51.2511 53.1573 51.4004 53.584C51.5551 54.0107 51.6324 54.5387 51.6324 55.168C51.6324 55.7973 51.5551 56.328 51.4004 56.76C51.2511 57.192 51.0271 57.52 50.7284 57.744C50.4298 57.9627 50.0644 58.072 49.6324 58.072ZM49.6324 57.448C50.0698 57.448 50.3951 57.264 50.6084 56.896C50.8218 56.528 50.9284 55.952 50.9284 55.168C50.9284 54.3893 50.8218 53.8187 50.6084 53.456C50.4004 53.0933 50.0778 52.912 49.6404 52.912C49.1978 52.912 48.8698 53.096 48.6564 53.464C48.4431 53.8267 48.3364 54.3973 48.3364 55.176C48.3364 55.9493 48.4431 56.5227 48.6564 56.896C48.8698 57.264 49.1951 57.448 49.6324 57.448ZM53.3493 55.312L52.8773 55.032L53.5813 53.968L53.5973 53.992L52.3093 54.072V53.52L53.5973 53.6L53.5733 53.616L52.8773 52.56L53.3573 52.28L53.9253 53.464H53.9173L54.4693 52.28L54.9493 52.56L54.2453 53.616L54.2213 53.6L55.5173 53.52V54.072L54.2293 53.992L54.2533 53.968L54.9493 55.032L54.4773 55.312L53.9173 54.136H53.9253L53.3493 55.312ZM56.6909 58L59.4509 52.648L59.4829 52.992H56.3069V52.36H60.0749V52.896L57.4669 58H56.6909ZM61.4878 58L64.2478 52.648L64.2798 52.992H61.1038V52.36H64.8718V52.896L62.2638 58H61.4878Z" fill="black"/>
<defs>
<filter id="filter0_d_271_597" x="0.0999999" y="24" width="89.8" height="57.9" filterUnits="userSpaceOnUse" color-interpolation-filters="sRGB">
<feFlood flood-opacity="0" result="BackgroundImageFix"/>
<feColorMatrix in="SourceAlpha" type="matrix" values="0 0 0 0 0 0 0 0 0 0 0 0 0 0 0 0 0 0 127 0" result="hardAlpha"/>
<feOffset dy="4"/>
<feGaussianBlur stdDeviation="1.95"/>
<feComposite in2="hardAlpha" operator="out"/>
<feColorMatrix type="matrix" values="0 0 0 0 0 0 0 0 0 0 0 0 0 0 0 0 0 0 0.2 0"/>
<feBlend mode="normal" in2="BackgroundImageFix" result="effect1_dropShadow_271_597"/>
<feBlend mode="normal" in="SourceGraphic" in2="effect1_dropShadow_271_597" result="shape"/>
</filter>
<clipPath id="clip0_271_597">
<rect width="16.8474" height="16.9697" fill="white" transform="translate(35.2891 7.27246)"/>
</clipPath>
</defs>
</svg>
