<svg width="136" height="82" viewBox="0 0 136 82" fill="none" xmlns="http://www.w3.org/2000/svg">
<g filter="url(#filter0_d_271_668)">
<rect x="4" y="24" width="128" height="50" rx="2" fill="#EBDBBA"/>
<rect x="4.25" y="24.25" width="127.5" height="49.5" rx="1.75" stroke="#EBDBBA" stroke-width="0.5"/>
</g>
<rect x="52.2715" width="30.0847" height="30.1432" rx="3" fill="#CB3335"/>
<g clip-path="url(#clip0_271_668)">
<path fill-rule="evenodd" clip-rule="evenodd" d="M66.7969 2.41904C66.8785 2.41395 66.964 2.42752 66.9872 2.44871C67.0105 2.46991 67.6485 2.80605 68.4045 3.19603C69.161 3.58558 70.1031 4.07178 70.4987 4.27609C70.8943 4.47999 72.5984 5.35743 74.2851 6.22598C75.9723 7.09411 77.385 7.83591 77.4251 7.87406C77.4928 7.93849 77.4979 8.29413 77.5005 13.263C77.5026 17.5184 77.492 18.598 77.4488 18.6599C77.4192 18.7023 75.0247 19.9473 72.1275 21.4262C69.2303 22.9056 66.8222 24.1158 66.7757 24.1158C66.7292 24.1158 66.4817 24.0047 66.2257 23.8695C65.9698 23.7339 63.5727 22.4986 60.8989 21.1244C56.8925 19.0647 56.0235 18.6027 55.9579 18.498C55.8966 18.4001 55.8822 18.3127 55.8949 18.1165C55.9042 17.9766 55.9448 15.621 55.985 12.8815C56.0256 10.1419 56.0759 7.85287 56.0971 7.79479C56.1292 7.7062 56.9961 7.25815 61.3922 5.05859C64.9049 3.30073 66.6979 2.4254 66.7969 2.41904ZM57.1421 7.93976C57.1471 7.95333 57.8029 8.31151 58.5999 8.73583C59.397 9.16014 60.0968 9.53443 60.1547 9.56792C60.2563 9.62684 60.4479 9.53189 65.0306 7.1543C67.654 5.79277 69.7863 4.66692 69.7689 4.65166C69.7516 4.6364 69.0852 4.28839 68.2882 3.87806C67.4911 3.46774 66.8155 3.13329 66.7863 3.13456C66.7571 3.13583 64.5732 4.21209 61.9333 5.52614C59.2934 6.8402 57.1374 7.9262 57.1421 7.93976ZM64.0355 8.40943C62.3674 9.27204 61.0017 9.98714 61.0017 9.99901C61.0013 10.0105 61.4053 10.2377 61.8999 10.5034L62.7989 10.9862C63.2579 10.751 65.3974 9.63701 67.849 8.35899C70.3007 7.08139 72.309 6.01658 72.3124 5.99327C72.3153 5.96995 71.924 5.74572 71.4421 5.4952C70.9607 5.24468 70.5609 5.03994 70.5537 5.04079C70.5469 5.04164 69.7596 5.44687 68.8047 5.94155C67.8499 6.43623 65.7037 7.54682 64.0355 8.40943ZM66.2587 9.92271C64.7645 10.6989 63.5409 11.3487 63.5405 11.3661C63.5397 11.3834 64.2534 11.7793 65.1258 12.2456L66.7123 13.0934C74.1388 9.28476 76.3273 8.15467 76.3675 8.12458C76.4305 8.07753 76.227 7.96096 74.7907 7.22254C73.8832 6.75627 73.1272 6.37222 73.1103 6.36926C73.0934 6.36629 72.1563 6.84698 71.0275 7.43746C69.8988 8.02751 67.753 9.14615 66.2587 9.92271ZM56.6471 13.3053C56.5938 16.7622 56.5857 18.1296 56.6187 18.164C56.6437 18.1898 57.1311 18.4501 57.7009 18.7426C58.2712 19.0346 60.4699 20.1634 62.5874 21.2507C64.7048 22.3376 66.4415 23.2218 66.447 23.215C66.4521 23.2087 66.4385 21.057 66.4165 18.4344C66.3945 15.8114 66.3713 13.6627 66.3645 13.6589C66.3581 13.6551 65.6292 13.2617 64.745 12.7852L63.1373 11.9188C63.0959 12.1227 63.0722 12.6873 63.0574 13.3053C63.0341 14.3049 63.0227 14.4405 62.9533 14.5346C62.9011 14.6053 62.8271 14.6444 62.7312 14.652C62.6153 14.6618 62.35 14.5384 61.3626 14.0162C60.6891 13.6601 60.0942 13.3354 60.0405 13.2947L59.9432 13.2206L59.922 10.1923C58.0529 9.186 57.3341 8.79941 57.1184 8.68411C56.9026 8.56839 56.7249 8.47853 56.7236 8.48404C56.7228 8.48955 56.6881 10.659 56.6471 13.3053ZM67.0791 13.6525C67.06 13.6597 67.06 15.8165 67.0791 18.445C67.0985 21.0735 67.1239 23.2252 67.1353 23.2256C67.1467 23.2265 69.3361 22.1133 72.0006 20.7518L76.8447 18.2767C76.8612 10.8103 76.8519 8.64384 76.8341 8.64554C76.8168 8.64766 74.6228 9.77181 71.9583 11.1444C69.2938 12.5169 67.0985 13.6453 67.0791 13.6525ZM60.5786 12.8603C61.8927 13.5499 62.2967 13.7559 62.325 13.7623C62.3623 13.7708 62.3843 13.5826 62.4075 13.0629C62.4253 12.6716 62.4393 12.1702 62.4393 11.9489V11.5462C61.0622 10.8069 60.6434 10.5925 60.6201 10.5925C60.593 10.5925 60.5778 10.9985 60.5782 11.7264L60.5786 12.8603Z" fill="#EBDBBA"/>
</g>
<path d="M17.832 41.0586V35.4186H20.152C20.5573 35.4186 20.9013 35.4853 21.184 35.6186C21.4667 35.7519 21.6827 35.9466 21.832 36.2026C21.9867 36.4533 22.064 36.7573 22.064 37.1146C22.064 37.4719 21.9867 37.7786 21.832 38.0346C21.6827 38.2906 21.464 38.4879 21.176 38.6266C20.8933 38.7653 20.552 38.8346 20.152 38.8346H18.544V41.0586H17.832ZM18.544 38.2266H20.048C20.4747 38.2266 20.7973 38.1359 21.016 37.9546C21.2347 37.7679 21.344 37.4906 21.344 37.1226C21.344 36.7493 21.2347 36.4746 21.016 36.2986C20.7973 36.1173 20.4747 36.0266 20.048 36.0266H18.544V38.2266ZM22.7242 36.1546V35.3626H23.5882V36.1546H22.7242ZM22.8042 41.0586V37.1066H23.5162V41.0586H22.8042ZM26.441 41.1306C25.9983 41.1306 25.6143 41.0506 25.289 40.8906C24.969 40.7253 24.7237 40.4906 24.553 40.1866C24.3823 39.8773 24.297 39.5093 24.297 39.0826C24.297 38.6826 24.377 38.3306 24.537 38.0266C24.697 37.7173 24.9237 37.4746 25.217 37.2986C25.5103 37.1226 25.8597 37.0346 26.265 37.0346C26.649 37.0346 26.9743 37.1173 27.241 37.2826C27.513 37.4479 27.7183 37.6799 27.857 37.9786C28.001 38.2773 28.073 38.6319 28.073 39.0426V39.2746H24.833V38.7786H27.609L27.457 38.9386C27.457 38.5013 27.353 38.1653 27.145 37.9306C26.9423 37.6959 26.649 37.5786 26.265 37.5786C26.0143 37.5786 25.7903 37.6373 25.593 37.7546C25.401 37.8666 25.2517 38.0266 25.145 38.2346C25.0383 38.4426 24.985 38.6959 24.985 38.9946V39.0746C24.985 39.3946 25.0437 39.6639 25.161 39.8826C25.2783 40.1013 25.4463 40.2666 25.665 40.3786C25.8837 40.4906 26.145 40.5466 26.449 40.5466C26.6677 40.5466 26.889 40.5173 27.113 40.4586C27.3423 40.3946 27.5557 40.2826 27.753 40.1226L27.993 40.6346C27.7903 40.8053 27.5477 40.9306 27.265 41.0106C26.9877 41.0906 26.713 41.1306 26.441 41.1306ZM30.6079 41.1306C30.2026 41.1306 29.8506 41.0453 29.5519 40.8746C29.2533 40.7039 29.0213 40.4666 28.8559 40.1626C28.6906 39.8533 28.6079 39.4906 28.6079 39.0746C28.6079 38.6586 28.6906 38.2986 28.8559 37.9946C29.0213 37.6853 29.2533 37.4479 29.5519 37.2826C29.8559 37.1173 30.2106 37.0346 30.6159 37.0346C30.8879 37.0346 31.1466 37.0799 31.3919 37.1706C31.6373 37.2613 31.8399 37.3839 31.9999 37.5386L31.7519 38.0666C31.5973 37.9279 31.4239 37.8239 31.2319 37.7546C31.0399 37.6799 30.8533 37.6426 30.6719 37.6426C30.2559 37.6426 29.9279 37.7679 29.6879 38.0186C29.4479 38.2693 29.3279 38.6239 29.3279 39.0826C29.3279 39.5359 29.4479 39.8906 29.6879 40.1466C29.9279 40.3973 30.2533 40.5226 30.6639 40.5226C30.8506 40.5226 31.0373 40.4879 31.2239 40.4186C31.4159 40.3439 31.5866 40.2399 31.7359 40.1066L31.9839 40.6346C31.8293 40.7893 31.6293 40.9119 31.3839 41.0026C31.1386 41.0879 30.8799 41.1306 30.6079 41.1306ZM34.3363 41.1306C33.8936 41.1306 33.5096 41.0506 33.1843 40.8906C32.8643 40.7253 32.619 40.4906 32.4483 40.1866C32.2776 39.8773 32.1923 39.5093 32.1923 39.0826C32.1923 38.6826 32.2723 38.3306 32.4323 38.0266C32.5923 37.7173 32.819 37.4746 33.1123 37.2986C33.4056 37.1226 33.755 37.0346 34.1603 37.0346C34.5443 37.0346 34.8696 37.1173 35.1363 37.2826C35.4083 37.4479 35.6136 37.6799 35.7523 37.9786C35.8963 38.2773 35.9683 38.6319 35.9683 39.0426V39.2746H32.7283V38.7786H35.5043L35.3523 38.9386C35.3523 38.5013 35.2483 38.1653 35.0403 37.9306C34.8376 37.6959 34.5443 37.5786 34.1603 37.5786C33.9096 37.5786 33.6856 37.6373 33.4883 37.7546C33.2963 37.8666 33.147 38.0266 33.0403 38.2346C32.9336 38.4426 32.8803 38.6959 32.8803 38.9946V39.0746C32.8803 39.3946 32.939 39.6639 33.0563 39.8826C33.1736 40.1013 33.3416 40.2666 33.5603 40.3786C33.779 40.4906 34.0403 40.5466 34.3443 40.5466C34.563 40.5466 34.7843 40.5173 35.0083 40.4586C35.2376 40.3946 35.451 40.2826 35.6483 40.1226L35.8883 40.6346C35.6856 40.8053 35.443 40.9306 35.1603 41.0106C34.883 41.0906 34.6083 41.1306 34.3363 41.1306ZM38.1993 41.1306C37.9806 41.1306 37.7646 41.1093 37.5513 41.0666C37.3433 41.0293 37.1486 40.9759 36.9673 40.9066C36.7913 40.8319 36.6393 40.7413 36.5113 40.6346L36.7433 40.1306C36.8766 40.2319 37.0233 40.3146 37.1833 40.3786C37.3486 40.4426 37.5166 40.4906 37.6873 40.5226C37.8633 40.5493 38.0313 40.5626 38.1913 40.5626C38.5219 40.5626 38.7753 40.5119 38.9513 40.4106C39.1326 40.3093 39.2233 40.1679 39.2233 39.9866C39.2233 39.8319 39.1699 39.7146 39.0633 39.6346C38.9619 39.5493 38.7913 39.4853 38.5513 39.4426L37.7273 39.2986C37.3593 39.2293 37.0819 39.1039 36.8953 38.9226C36.7139 38.7413 36.6233 38.5039 36.6233 38.2106C36.6233 37.9759 36.6873 37.7706 36.8153 37.5946C36.9486 37.4186 37.1379 37.2826 37.3833 37.1866C37.6286 37.0853 37.9219 37.0346 38.2633 37.0346C38.4499 37.0346 38.6393 37.0533 38.8313 37.0906C39.0286 37.1279 39.2099 37.1839 39.3753 37.2586C39.5459 37.3279 39.6846 37.4159 39.7913 37.5226L39.5513 38.0266C39.4446 37.9253 39.3166 37.8453 39.1673 37.7866C39.0233 37.7226 38.8713 37.6773 38.7113 37.6506C38.5566 37.6186 38.4046 37.6026 38.2553 37.6026C37.9459 37.6026 37.7059 37.6559 37.5353 37.7626C37.3646 37.8639 37.2793 38.0079 37.2793 38.1946C37.2793 38.3439 37.3273 38.4613 37.4233 38.5466C37.5246 38.6319 37.6873 38.6959 37.9113 38.7386L38.7113 38.8826C39.1059 38.9573 39.3993 39.0826 39.5913 39.2586C39.7833 39.4293 39.8793 39.6666 39.8793 39.9706C39.8793 40.2053 39.8099 40.4106 39.6713 40.5866C39.5326 40.7573 39.3379 40.8906 39.0873 40.9866C38.8366 41.0826 38.5406 41.1306 38.1993 41.1306Z" fill="#CE3439"/>
<path d="M57.9318 41.1306C57.4785 41.1306 57.0945 41.0213 56.7798 40.8026C56.4652 40.5839 56.2252 40.2693 56.0598 39.8586C55.8945 39.4426 55.8118 38.9439 55.8118 38.3626C55.8118 37.7119 55.9025 37.1653 56.0838 36.7226C56.2652 36.2746 56.5265 35.9333 56.8678 35.6986C57.2092 35.4639 57.6198 35.3466 58.0998 35.3466C58.3132 35.3466 58.5158 35.3733 58.7078 35.4266C58.8998 35.4746 59.0812 35.5493 59.2518 35.6506C59.4225 35.7519 59.5825 35.8773 59.7318 36.0266L59.4678 36.5786C59.2598 36.3599 59.0412 36.2053 58.8118 36.1146C58.5825 36.0186 58.3452 35.9706 58.0998 35.9706C57.8385 35.9706 57.6065 36.0213 57.4038 36.1226C57.2012 36.2186 57.0305 36.3653 56.8918 36.5626C56.7532 36.7546 56.6465 36.9946 56.5718 37.2826C56.5025 37.5653 56.4678 37.8959 56.4678 38.2746V38.7386H56.4758C56.5238 38.4826 56.6198 38.2639 56.7638 38.0826C56.9078 37.8959 57.0865 37.7546 57.2998 37.6586C57.5132 37.5573 57.7478 37.5066 58.0038 37.5066C58.3452 37.5066 58.6438 37.5839 58.8998 37.7386C59.1612 37.8879 59.3638 38.0986 59.5078 38.3706C59.6572 38.6373 59.7318 38.9466 59.7318 39.2986C59.7318 39.6506 59.6545 39.9653 59.4998 40.2426C59.3505 40.5199 59.1398 40.7386 58.8678 40.8986C58.5958 41.0533 58.2838 41.1306 57.9318 41.1306ZM57.8918 40.5226C58.1265 40.5226 58.3318 40.4719 58.5078 40.3706C58.6838 40.2693 58.8198 40.1279 58.9158 39.9466C59.0172 39.7653 59.0678 39.5546 59.0678 39.3146C59.0678 39.0746 59.0172 38.8666 58.9158 38.6906C58.8198 38.5093 58.6838 38.3679 58.5078 38.2666C58.3318 38.1653 58.1238 38.1146 57.8838 38.1146C57.6492 38.1146 57.4412 38.1653 57.2598 38.2666C57.0838 38.3679 56.9425 38.5093 56.8358 38.6906C56.7345 38.8666 56.6838 39.0746 56.6838 39.3146C56.6838 39.5546 56.7345 39.7653 56.8358 39.9466C56.9372 40.1279 57.0785 40.2693 57.2598 40.3706C57.4412 40.4719 57.6518 40.5226 57.8918 40.5226ZM62.5367 41.1306C62.1047 41.1306 61.7394 41.0213 61.4407 40.8026C61.1421 40.5786 60.9154 40.2533 60.7607 39.8266C60.6114 39.3946 60.5367 38.8639 60.5367 38.2346C60.5367 37.6053 60.6114 37.0773 60.7607 36.6506C60.9154 36.2239 61.1421 35.9013 61.4407 35.6826C61.7394 35.4586 62.1047 35.3466 62.5367 35.3466C62.9794 35.3466 63.3474 35.4559 63.6407 35.6746C63.9341 35.8933 64.1554 36.2159 64.3047 36.6426C64.4594 37.0693 64.5367 37.5973 64.5367 38.2266C64.5367 38.8559 64.4594 39.3866 64.3047 39.8186C64.1554 40.2506 63.9314 40.5786 63.6327 40.8026C63.3341 41.0213 62.9687 41.1306 62.5367 41.1306ZM62.5367 40.5066C62.9741 40.5066 63.2994 40.3226 63.5127 39.9546C63.7261 39.5866 63.8327 39.0106 63.8327 38.2266C63.8327 37.4479 63.7261 36.8773 63.5127 36.5146C63.3047 36.1519 62.9821 35.9706 62.5447 35.9706C62.1021 35.9706 61.7741 36.1546 61.5607 36.5226C61.3474 36.8853 61.2407 37.4559 61.2407 38.2346C61.2407 39.0079 61.3474 39.5813 61.5607 39.9546C61.7741 40.3226 62.0994 40.5066 62.5367 40.5066ZM67.3336 41.1306C66.9016 41.1306 66.5363 41.0213 66.2376 40.8026C65.9389 40.5786 65.7123 40.2533 65.5576 39.8266C65.4083 39.3946 65.3336 38.8639 65.3336 38.2346C65.3336 37.6053 65.4083 37.0773 65.5576 36.6506C65.7123 36.2239 65.9389 35.9013 66.2376 35.6826C66.5363 35.4586 66.9016 35.3466 67.3336 35.3466C67.7763 35.3466 68.1443 35.4559 68.4376 35.6746C68.7309 35.8933 68.9523 36.2159 69.1016 36.6426C69.2563 37.0693 69.3336 37.5973 69.3336 38.2266C69.3336 38.8559 69.2563 39.3866 69.1016 39.8186C68.9523 40.2506 68.7283 40.5786 68.4296 40.8026C68.1309 41.0213 67.7656 41.1306 67.3336 41.1306ZM67.3336 40.5066C67.7709 40.5066 68.0963 40.3226 68.3096 39.9546C68.5229 39.5866 68.6296 39.0106 68.6296 38.2266C68.6296 37.4479 68.5229 36.8773 68.3096 36.5146C68.1016 36.1519 67.7789 35.9706 67.3416 35.9706C66.8989 35.9706 66.5709 36.1546 66.3576 36.5226C66.1443 36.8853 66.0376 37.4559 66.0376 38.2346C66.0376 39.0079 66.1443 39.5813 66.3576 39.9546C66.5709 40.3226 66.8963 40.5066 67.3336 40.5066ZM72.7968 41.0586V35.4186H73.4288L76.8848 40.0106H76.8528V35.4186H77.5328V41.0586H76.8848L73.4448 36.4826H73.4768V41.0586H72.7968ZM80.7953 41.1306C80.3953 41.1306 80.0486 41.0453 79.7553 40.8746C79.4619 40.7039 79.2353 40.4666 79.0753 40.1626C78.9153 39.8533 78.8353 39.4906 78.8353 39.0746C78.8353 38.6639 78.9153 38.3066 79.0753 38.0026C79.2353 37.6933 79.4619 37.4559 79.7553 37.2906C80.0486 37.1199 80.3953 37.0346 80.7953 37.0346C81.1953 37.0346 81.5393 37.1199 81.8273 37.2906C82.1206 37.4559 82.3473 37.6933 82.5073 38.0026C82.6673 38.3066 82.7473 38.6639 82.7473 39.0746C82.7473 39.4906 82.6673 39.8533 82.5073 40.1626C82.3526 40.4666 82.1286 40.7039 81.8353 40.8746C81.5419 41.0453 81.1953 41.1306 80.7953 41.1306ZM80.7873 40.5306C81.1766 40.5306 81.4833 40.3999 81.7073 40.1386C81.9313 39.8773 82.0433 39.5226 82.0433 39.0746C82.0433 38.6266 81.9313 38.2746 81.7073 38.0186C81.4886 37.7626 81.1846 37.6346 80.7953 37.6346C80.4059 37.6346 80.0993 37.7626 79.8753 38.0186C79.6513 38.2746 79.5393 38.6266 79.5393 39.0746C79.5393 39.5226 79.6513 39.8773 79.8753 40.1386C80.1046 40.3999 80.4086 40.5306 80.7873 40.5306ZM85.3985 41.1306C85.1798 41.1306 84.9638 41.1093 84.7505 41.0666C84.5425 41.0293 84.3478 40.9759 84.1665 40.9066C83.9905 40.8319 83.8385 40.7413 83.7105 40.6346L83.9425 40.1306C84.0758 40.2319 84.2225 40.3146 84.3825 40.3786C84.5478 40.4426 84.7158 40.4906 84.8865 40.5226C85.0625 40.5493 85.2305 40.5626 85.3905 40.5626C85.7211 40.5626 85.9745 40.5119 86.1505 40.4106C86.3318 40.3093 86.4225 40.1679 86.4225 39.9866C86.4225 39.8319 86.3691 39.7146 86.2625 39.6346C86.1611 39.5493 85.9905 39.4853 85.7505 39.4426L84.9265 39.2986C84.5585 39.2293 84.2811 39.1039 84.0945 38.9226C83.9131 38.7413 83.8225 38.5039 83.8225 38.2106C83.8225 37.9759 83.8865 37.7706 84.0145 37.5946C84.1478 37.4186 84.3371 37.2826 84.5825 37.1866C84.8278 37.0853 85.1211 37.0346 85.4625 37.0346C85.6491 37.0346 85.8385 37.0533 86.0305 37.0906C86.2278 37.1279 86.4091 37.1839 86.5745 37.2586C86.7451 37.3279 86.8838 37.4159 86.9905 37.5226L86.7505 38.0266C86.6438 37.9253 86.5158 37.8453 86.3665 37.7866C86.2225 37.7226 86.0705 37.6773 85.9105 37.6506C85.7558 37.6186 85.6038 37.6026 85.4545 37.6026C85.1451 37.6026 84.9051 37.6559 84.7345 37.7626C84.5638 37.8639 84.4785 38.0079 84.4785 38.1946C84.4785 38.3439 84.5265 38.4613 84.6225 38.5466C84.7238 38.6319 84.8865 38.6959 85.1105 38.7386L85.9105 38.8826C86.3051 38.9573 86.5985 39.0826 86.7905 39.2586C86.9825 39.4293 87.0785 39.6666 87.0785 39.9706C87.0785 40.2053 87.0091 40.4106 86.8705 40.5866C86.7318 40.7573 86.5371 40.8906 86.2865 40.9866C86.0358 41.0826 85.7398 41.1306 85.3985 41.1306ZM87.983 41.5626L87.423 41.4106L89.463 35.0426L90.015 35.1946L87.983 41.5626ZM93.0642 41.1306C92.5256 41.1306 92.0562 41.0159 91.6562 40.7866C91.2616 40.5519 90.9576 40.2186 90.7442 39.7866C90.5309 39.3493 90.4242 38.8319 90.4242 38.2346C90.4242 37.6373 90.5309 37.1226 90.7442 36.6906C90.9576 36.2586 91.2616 35.9279 91.6562 35.6986C92.0509 35.4639 92.5202 35.3466 93.0642 35.3466C93.4589 35.3466 93.8189 35.4079 94.1442 35.5306C94.4696 35.6479 94.7496 35.8213 94.9842 36.0506L94.7042 36.6106C94.4589 36.3919 94.2056 36.2346 93.9442 36.1386C93.6882 36.0426 93.4002 35.9946 93.0802 35.9946C92.4829 35.9946 92.0136 36.1866 91.6722 36.5706C91.3362 36.9493 91.1682 37.5039 91.1682 38.2346C91.1682 38.9599 91.3362 39.5173 91.6722 39.9066C92.0082 40.2906 92.4776 40.4826 93.0802 40.4826C93.4002 40.4826 93.6882 40.4346 93.9442 40.3386C94.2056 40.2426 94.4589 40.0853 94.7042 39.8666L94.9842 40.4266C94.7496 40.6559 94.4696 40.8319 94.1442 40.9546C93.8189 41.0719 93.4589 41.1306 93.0642 41.1306ZM97.7158 41.1306C97.2412 41.1306 96.8812 41.0053 96.6358 40.7546C96.3958 40.5039 96.2758 40.1466 96.2758 39.6826V37.6906H95.4758V37.1066H96.2998V35.9306H96.9878V37.1066H98.4038V37.6906H96.9878V39.6186C96.9878 39.9226 97.0545 40.1493 97.1878 40.2986C97.3265 40.4426 97.5372 40.5146 97.8198 40.5146C97.9318 40.5146 98.0385 40.5039 98.1398 40.4826C98.2465 40.4613 98.3478 40.4293 98.4438 40.3866L98.5558 40.9466C98.4492 41.0053 98.3185 41.0506 98.1638 41.0826C98.0145 41.1146 97.8652 41.1306 97.7158 41.1306ZM99.3878 41.0586V37.1066H100.052V37.9626C100.18 37.6693 100.372 37.4426 100.628 37.2826C100.884 37.1173 101.172 37.0346 101.492 37.0346C101.817 37.0346 102.089 37.0933 102.308 37.2106C102.526 37.3226 102.689 37.4986 102.796 37.7386C102.908 37.9733 102.964 38.2666 102.964 38.6186V41.0586H102.252V38.6586C102.252 38.4453 102.222 38.2639 102.164 38.1146C102.105 37.9653 102.006 37.8506 101.868 37.7706C101.734 37.6853 101.556 37.6426 101.332 37.6426C101.097 37.6426 100.884 37.6959 100.692 37.8026C100.505 37.9093 100.358 38.0533 100.252 38.2346C100.15 38.4159 100.1 38.6186 100.1 38.8426V41.0586H99.3878Z" fill="black"/>
<path d="M19.72 53.1306C19.4107 53.1306 19.1173 53.1066 18.84 53.0586C18.5627 53.0106 18.3093 52.9386 18.08 52.8426C17.8507 52.7466 17.6507 52.6293 17.48 52.4906L17.744 51.8986C17.9253 52.0426 18.1173 52.1599 18.32 52.2506C18.528 52.3359 18.7467 52.3973 18.976 52.4346C19.2107 52.4719 19.4587 52.4906 19.72 52.4906C20.1627 52.4906 20.5013 52.4026 20.736 52.2266C20.976 52.0506 21.096 51.8106 21.096 51.5066C21.096 51.3466 21.056 51.2133 20.976 51.1066C20.9013 50.9999 20.7813 50.9119 20.616 50.8426C20.456 50.7733 20.248 50.7119 19.992 50.6586L19.072 50.4826C18.5547 50.3813 18.1813 50.2026 17.952 49.9466C17.7227 49.6906 17.608 49.3679 17.608 48.9786C17.608 48.6479 17.6987 48.3626 17.88 48.1226C18.0667 47.8773 18.3227 47.6879 18.648 47.5546C18.9787 47.4159 19.3547 47.3466 19.776 47.3466C20.0427 47.3466 20.2907 47.3733 20.52 47.4266C20.7547 47.4746 20.968 47.5493 21.16 47.6506C21.3573 47.7519 21.5333 47.8746 21.688 48.0186L21.424 48.6026C21.1947 48.3786 20.944 48.2213 20.672 48.1306C20.4 48.0346 20.0987 47.9866 19.768 47.9866C19.4907 47.9866 19.2427 48.0266 19.024 48.1066C18.8053 48.1813 18.632 48.2933 18.504 48.4426C18.3813 48.5866 18.32 48.7653 18.32 48.9786C18.32 49.2133 18.3947 49.3999 18.544 49.5386C18.6933 49.6719 18.9467 49.7759 19.304 49.8506L20.216 50.0266C20.76 50.1279 21.1627 50.2986 21.424 50.5386C21.6853 50.7786 21.816 51.0906 21.816 51.4746C21.816 51.7946 21.728 52.0799 21.552 52.3306C21.3813 52.5813 21.1387 52.7786 20.824 52.9226C20.5147 53.0613 20.1467 53.1306 19.72 53.1306ZM22.882 48.1546V47.3626H23.746V48.1546H22.882ZM22.962 53.0586V49.1066H23.674V53.0586H22.962ZM24.8628 53.0586V52.6026L27.3668 49.4746L27.4068 49.6986H24.9188V49.1066H28.0708V49.5626L25.5428 52.7146L25.5028 52.4666H28.1588V53.0586H24.8628ZM31.0691 53.1306C30.6265 53.1306 30.2425 53.0506 29.9171 52.8906C29.5971 52.7253 29.3518 52.4906 29.1811 52.1866C29.0105 51.8773 28.9251 51.5093 28.9251 51.0826C28.9251 50.6826 29.0051 50.3306 29.1651 50.0266C29.3251 49.7173 29.5518 49.4746 29.8451 49.2986C30.1385 49.1226 30.4878 49.0346 30.8931 49.0346C31.2771 49.0346 31.6025 49.1173 31.8691 49.2826C32.1411 49.4479 32.3465 49.6799 32.4851 49.9786C32.6291 50.2773 32.7011 50.6319 32.7011 51.0426V51.2746H29.4611V50.7786H32.2371L32.0851 50.9386C32.0851 50.5013 31.9811 50.1653 31.7731 49.9306C31.5705 49.6959 31.2771 49.5786 30.8931 49.5786C30.6425 49.5786 30.4185 49.6373 30.2211 49.7546C30.0291 49.8666 29.8798 50.0266 29.7731 50.2346C29.6665 50.4426 29.6131 50.6959 29.6131 50.9946V51.0746C29.6131 51.3946 29.6718 51.6639 29.7891 51.8826C29.9065 52.1013 30.0745 52.2666 30.2931 52.3786C30.5118 52.4906 30.7731 52.5466 31.0771 52.5466C31.2958 52.5466 31.5171 52.5173 31.7411 52.4586C31.9705 52.3946 32.1838 52.2826 32.3811 52.1226L32.6211 52.6346C32.4185 52.8053 32.1758 52.9306 31.8931 53.0106C31.6158 53.0906 31.3411 53.1306 31.0691 53.1306Z" fill="#CE3439"/>
<path d="M59.592 53.1306C59.1387 53.1306 58.7547 53.0213 58.44 52.8026C58.1253 52.5839 57.8853 52.2693 57.72 51.8586C57.5547 51.4426 57.472 50.9439 57.472 50.3626C57.472 49.7119 57.5627 49.1653 57.744 48.7226C57.9253 48.2746 58.1867 47.9333 58.528 47.6986C58.8693 47.4639 59.28 47.3466 59.76 47.3466C59.9733 47.3466 60.176 47.3733 60.368 47.4266C60.56 47.4746 60.7413 47.5493 60.912 47.6506C61.0827 47.7519 61.2427 47.8773 61.392 48.0266L61.128 48.5786C60.92 48.3599 60.7013 48.2053 60.472 48.1146C60.2427 48.0186 60.0053 47.9706 59.76 47.9706C59.4987 47.9706 59.2667 48.0213 59.064 48.1226C58.8613 48.2186 58.6907 48.3653 58.552 48.5626C58.4133 48.7546 58.3067 48.9946 58.232 49.2826C58.1627 49.5653 58.128 49.8959 58.128 50.2746V50.7386H58.136C58.184 50.4826 58.28 50.2639 58.424 50.0826C58.568 49.8959 58.7467 49.7546 58.96 49.6586C59.1733 49.5573 59.408 49.5066 59.664 49.5066C60.0053 49.5066 60.304 49.5839 60.56 49.7386C60.8213 49.8879 61.024 50.0986 61.168 50.3706C61.3173 50.6373 61.392 50.9466 61.392 51.2986C61.392 51.6506 61.3147 51.9653 61.16 52.2426C61.0107 52.5199 60.8 52.7386 60.528 52.8986C60.256 53.0533 59.944 53.1306 59.592 53.1306ZM59.552 52.5226C59.7867 52.5226 59.992 52.4719 60.168 52.3706C60.344 52.2693 60.48 52.1279 60.576 51.9466C60.6773 51.7653 60.728 51.5546 60.728 51.3146C60.728 51.0746 60.6773 50.8666 60.576 50.6906C60.48 50.5093 60.344 50.3679 60.168 50.2666C59.992 50.1653 59.784 50.1146 59.544 50.1146C59.3093 50.1146 59.1013 50.1653 58.92 50.2666C58.744 50.3679 58.6027 50.5093 58.496 50.6906C58.3947 50.8666 58.344 51.0746 58.344 51.3146C58.344 51.5546 58.3947 51.7653 58.496 51.9466C58.5973 52.1279 58.7387 52.2693 58.92 52.3706C59.1013 52.4719 59.312 52.5226 59.552 52.5226ZM62.6929 53.0586L65.4529 47.7066L65.4849 48.0506H62.3089V47.4186H66.0769V47.9546L63.4689 53.0586H62.6929ZM68.9938 53.1306C68.5618 53.1306 68.1964 53.0213 67.8978 52.8026C67.5991 52.5786 67.3724 52.2533 67.2178 51.8266C67.0684 51.3946 66.9938 50.8639 66.9938 50.2346C66.9938 49.6053 67.0684 49.0773 67.2178 48.6506C67.3724 48.2239 67.5991 47.9013 67.8978 47.6826C68.1964 47.4586 68.5618 47.3466 68.9938 47.3466C69.4364 47.3466 69.8044 47.4559 70.0978 47.6746C70.3911 47.8933 70.6124 48.2159 70.7618 48.6426C70.9164 49.0693 70.9938 49.5973 70.9938 50.2266C70.9938 50.8559 70.9164 51.3866 70.7618 51.8186C70.6124 52.2506 70.3884 52.5786 70.0898 52.8026C69.7911 53.0213 69.4258 53.1306 68.9938 53.1306ZM68.9938 52.5066C69.4311 52.5066 69.7564 52.3226 69.9698 51.9546C70.1831 51.5866 70.2898 51.0106 70.2898 50.2266C70.2898 49.4479 70.1831 48.8773 69.9698 48.5146C69.7618 48.1519 69.4391 47.9706 69.0018 47.9706C68.5591 47.9706 68.2311 48.1546 68.0178 48.5226C67.8044 48.8853 67.6978 49.4559 67.6978 50.2346C67.6978 51.0079 67.8044 51.5813 68.0178 51.9546C68.2311 52.3226 68.5564 52.5066 68.9938 52.5066ZM73.817 53.0586L75.905 50.0346V50.2986L73.929 47.4186H74.753L76.353 49.7706H76.313L77.913 47.4186H78.737L76.745 50.2986V50.0346L78.841 53.0586H78.009L76.297 50.5546H76.353L74.641 53.0586H73.817ZM84.3136 53.0586V51.8906H81.6816V51.3546L84.2816 47.4186H84.9936V51.2906H85.7776V51.8906H84.9936V53.0586H84.3136ZM84.3376 51.2906V48.2986H84.3696L82.3056 51.4266L82.2496 51.2906H84.3376ZM86.9585 53.0586L89.7185 47.7066L89.7505 48.0506H86.5745V47.4186H90.3425V47.9546L87.7345 53.0586H86.9585ZM93.2594 53.1306C92.8274 53.1306 92.462 53.0213 92.1634 52.8026C91.8647 52.5786 91.638 52.2533 91.4834 51.8266C91.334 51.3946 91.2594 50.8639 91.2594 50.2346C91.2594 49.6053 91.334 49.0773 91.4834 48.6506C91.638 48.2239 91.8647 47.9013 92.1634 47.6826C92.462 47.4586 92.8274 47.3466 93.2594 47.3466C93.702 47.3466 94.07 47.4559 94.3634 47.6746C94.6567 47.8933 94.878 48.2159 95.0274 48.6426C95.182 49.0693 95.2594 49.5973 95.2594 50.2266C95.2594 50.8559 95.182 51.3866 95.0274 51.8186C94.878 52.2506 94.654 52.5786 94.3554 52.8026C94.0567 53.0213 93.6914 53.1306 93.2594 53.1306ZM93.2594 52.5066C93.6967 52.5066 94.022 52.3226 94.2354 51.9546C94.4487 51.5866 94.5554 51.0106 94.5554 50.2266C94.5554 49.4479 94.4487 48.8773 94.2354 48.5146C94.0274 48.1519 93.7047 47.9706 93.2674 47.9706C92.8247 47.9706 92.4967 48.1546 92.2834 48.5226C92.07 48.8853 91.9634 49.4559 91.9634 50.2346C91.9634 51.0079 92.07 51.5813 92.2834 51.9546C92.4967 52.3226 92.822 52.5066 93.2594 52.5066ZM98.0826 53.0586L100.171 50.0346V50.2986L98.1946 47.4186H99.0186L100.619 49.7706H100.579L102.179 47.4186H103.003L101.011 50.2986V50.0346L103.107 53.0586H102.275L100.563 50.5546H100.619L98.9066 53.0586H98.0826ZM108.123 53.1306C107.67 53.1306 107.286 53.0213 106.971 52.8026C106.657 52.5839 106.417 52.2693 106.251 51.8586C106.086 51.4426 106.003 50.9439 106.003 50.3626C106.003 49.7119 106.094 49.1653 106.275 48.7226C106.457 48.2746 106.718 47.9333 107.059 47.6986C107.401 47.4639 107.811 47.3466 108.291 47.3466C108.505 47.3466 108.707 47.3733 108.899 47.4266C109.091 47.4746 109.273 47.5493 109.443 47.6506C109.614 47.7519 109.774 47.8773 109.923 48.0266L109.659 48.5786C109.451 48.3599 109.233 48.2053 109.003 48.1146C108.774 48.0186 108.537 47.9706 108.291 47.9706C108.03 47.9706 107.798 48.0213 107.595 48.1226C107.393 48.2186 107.222 48.3653 107.083 48.5626C106.945 48.7546 106.838 48.9946 106.763 49.2826C106.694 49.5653 106.659 49.8959 106.659 50.2746V50.7386H106.667C106.715 50.4826 106.811 50.2639 106.955 50.0826C107.099 49.8959 107.278 49.7546 107.491 49.6586C107.705 49.5573 107.939 49.5066 108.195 49.5066C108.537 49.5066 108.835 49.5839 109.091 49.7386C109.353 49.8879 109.555 50.0986 109.699 50.3706C109.849 50.6373 109.923 50.9466 109.923 51.2986C109.923 51.6506 109.846 51.9653 109.691 52.2426C109.542 52.5199 109.331 52.7386 109.059 52.8986C108.787 53.0533 108.475 53.1306 108.123 53.1306ZM108.083 52.5226C108.318 52.5226 108.523 52.4719 108.699 52.3706C108.875 52.2693 109.011 52.1279 109.107 51.9466C109.209 51.7653 109.259 51.5546 109.259 51.3146C109.259 51.0746 109.209 50.8666 109.107 50.6906C109.011 50.5093 108.875 50.3679 108.699 50.2666C108.523 50.1653 108.315 50.1146 108.075 50.1146C107.841 50.1146 107.633 50.1653 107.451 50.2666C107.275 50.3679 107.134 50.5093 107.027 50.6906C106.926 50.8666 106.875 51.0746 106.875 51.3146C106.875 51.5546 106.926 51.7653 107.027 51.9466C107.129 52.1279 107.27 52.2693 107.451 52.3706C107.633 52.4719 107.843 52.5226 108.083 52.5226ZM110.984 53.0586V52.5306L112.968 50.4506C113.16 50.2479 113.309 50.0639 113.416 49.8986C113.523 49.7333 113.6 49.5733 113.648 49.4186C113.696 49.2639 113.72 49.1066 113.72 48.9466C113.72 48.6319 113.619 48.3919 113.416 48.2266C113.219 48.0559 112.944 47.9706 112.592 47.9706C112.325 47.9706 112.061 48.0239 111.8 48.1306C111.544 48.2319 111.299 48.3946 111.064 48.6186L110.792 48.0586C111.027 47.8346 111.307 47.6613 111.632 47.5386C111.957 47.4106 112.293 47.3466 112.64 47.3466C113.008 47.3466 113.325 47.4106 113.592 47.5386C113.859 47.6613 114.061 47.8399 114.2 48.0746C114.344 48.3039 114.416 48.5813 114.416 48.9066C114.416 49.0719 114.397 49.2346 114.36 49.3946C114.323 49.5493 114.264 49.7039 114.184 49.8586C114.109 50.0133 114.011 50.1733 113.888 50.3386C113.765 50.5039 113.616 50.6773 113.44 50.8586L111.888 52.4746V52.4426H114.648V53.0586H110.984ZM117.525 53.1306C117.093 53.1306 116.728 53.0213 116.429 52.8026C116.13 52.5786 115.904 52.2533 115.749 51.8266C115.6 51.3946 115.525 50.8639 115.525 50.2346C115.525 49.6053 115.6 49.0773 115.749 48.6506C115.904 48.2239 116.13 47.9013 116.429 47.6826C116.728 47.4586 117.093 47.3466 117.525 47.3466C117.968 47.3466 118.336 47.4559 118.629 47.6746C118.922 47.8933 119.144 48.2159 119.293 48.6426C119.448 49.0693 119.525 49.5973 119.525 50.2266C119.525 50.8559 119.448 51.3866 119.293 51.8186C119.144 52.2506 118.92 52.5786 118.621 52.8026C118.322 53.0213 117.957 53.1306 117.525 53.1306ZM117.525 52.5066C117.962 52.5066 118.288 52.3226 118.501 51.9546C118.714 51.5866 118.821 51.0106 118.821 50.2266C118.821 49.4479 118.714 48.8773 118.501 48.5146C118.293 48.1519 117.97 47.9706 117.533 47.9706C117.09 47.9706 116.762 48.1546 116.549 48.5226C116.336 48.8853 116.229 49.4559 116.229 50.2346C116.229 51.0079 116.336 51.5813 116.549 51.9546C116.762 52.3226 117.088 52.5066 117.525 52.5066Z" fill="black"/>
<path d="M19.168 65.0586L17.36 59.4186H18.112L19.584 64.2026H19.512L21.152 59.4186H21.736L23.36 64.2026H23.304L24.792 59.4186H25.512L23.696 65.0586H23.016L21.424 60.4026H21.456L19.832 65.0586H19.168ZM28.0223 65.1306C27.5796 65.1306 27.1956 65.0506 26.8703 64.8906C26.5503 64.7253 26.3049 64.4906 26.1343 64.1866C25.9636 63.8773 25.8783 63.5093 25.8783 63.0826C25.8783 62.6826 25.9583 62.3306 26.1183 62.0266C26.2783 61.7173 26.5049 61.4746 26.7983 61.2986C27.0916 61.1226 27.4409 61.0346 27.8463 61.0346C28.2303 61.0346 28.5556 61.1173 28.8223 61.2826C29.0943 61.4479 29.2996 61.6799 29.4383 61.9786C29.5823 62.2773 29.6543 62.6319 29.6543 63.0426V63.2746H26.4143V62.7786H29.1903L29.0383 62.9386C29.0383 62.5013 28.9343 62.1653 28.7263 61.9306C28.5236 61.6959 28.2303 61.5786 27.8463 61.5786C27.5956 61.5786 27.3716 61.6373 27.1743 61.7546C26.9823 61.8666 26.8329 62.0266 26.7263 62.2346C26.6196 62.4426 26.5663 62.6959 26.5663 62.9946V63.0746C26.5663 63.3946 26.6249 63.6639 26.7423 63.8826C26.8596 64.1013 27.0276 64.2666 27.2463 64.3786C27.4649 64.4906 27.7263 64.5466 28.0303 64.5466C28.2489 64.5466 28.4703 64.5173 28.6943 64.4586C28.9236 64.3946 29.1369 64.2826 29.3343 64.1226L29.5743 64.6346C29.3716 64.8053 29.1289 64.9306 28.8463 65.0106C28.5689 65.0906 28.2943 65.1306 28.0223 65.1306ZM30.7492 60.1546V59.3626H31.6132V60.1546H30.7492ZM30.8292 65.0586V61.1066H31.5412V65.0586H30.8292ZM34.674 66.5706C34.3593 66.5706 34.0473 66.5226 33.738 66.4266C33.4287 66.3359 33.1647 66.2106 32.946 66.0506L33.17 65.4986C33.3193 65.5946 33.4767 65.6773 33.642 65.7466C33.8073 65.8213 33.9753 65.8746 34.146 65.9066C34.322 65.9439 34.4953 65.9626 34.666 65.9626C35.0767 65.9626 35.3967 65.8586 35.626 65.6506C35.8607 65.4426 35.978 65.1466 35.978 64.7626V64.0346H35.962C35.866 64.3066 35.6927 64.5279 35.442 64.6986C35.1913 64.8639 34.9007 64.9466 34.57 64.9466C34.1967 64.9466 33.8713 64.8666 33.594 64.7066C33.3167 64.5413 33.1007 64.3119 32.946 64.0186C32.7967 63.7253 32.722 63.3813 32.722 62.9866C32.722 62.5973 32.7967 62.2559 32.946 61.9626C33.1007 61.6693 33.3167 61.4426 33.594 61.2826C33.8713 61.1173 34.1967 61.0346 34.57 61.0346C34.9007 61.0346 35.1913 61.1199 35.442 61.2906C35.698 61.4613 35.874 61.6879 35.97 61.9706H35.978V61.1066H36.642V64.6986C36.642 65.0826 36.562 65.4133 36.402 65.6906C36.2473 65.9733 36.0233 66.1893 35.73 66.3386C35.4367 66.4933 35.0847 66.5706 34.674 66.5706ZM34.69 64.3626C35.0793 64.3626 35.386 64.2373 35.61 63.9866C35.8393 63.7359 35.954 63.4026 35.954 62.9866C35.954 62.5706 35.8393 62.2399 35.61 61.9946C35.386 61.7439 35.0793 61.6186 34.69 61.6186C34.306 61.6186 33.9993 61.7439 33.77 61.9946C33.546 62.2399 33.434 62.5706 33.434 62.9866C33.434 63.4026 33.546 63.7359 33.77 63.9866C33.9993 64.2373 34.306 64.3626 34.69 64.3626ZM38.0636 65.0586V59.4186H38.7516V61.9466C38.8689 61.6639 39.0529 61.4426 39.3036 61.2826C39.5596 61.1173 39.8476 61.0346 40.1676 61.0346C40.4929 61.0346 40.7649 61.0933 40.9836 61.2106C41.2022 61.3226 41.3649 61.4986 41.4716 61.7386C41.5836 61.9733 41.6396 62.2666 41.6396 62.6186V65.0586H40.9276V62.6586C40.9276 62.4453 40.8956 62.2639 40.8316 62.1146C40.7729 61.9653 40.6769 61.8506 40.5436 61.7706C40.4102 61.6853 40.2316 61.6426 40.0076 61.6426C39.7729 61.6426 39.5622 61.6959 39.3756 61.8026C39.1889 61.9093 39.0422 62.0533 38.9356 62.2346C38.8289 62.4159 38.7756 62.6186 38.7756 62.8426V65.0586H38.0636ZM44.7119 65.1306C44.2373 65.1306 43.8773 65.0053 43.6319 64.7546C43.3919 64.5039 43.2719 64.1466 43.2719 63.6826V61.6906H42.4719V61.1066H43.2959V59.9306H43.9839V61.1066H45.3999V61.6906H43.9839V63.6186C43.9839 63.9226 44.0506 64.1493 44.1839 64.2986C44.3226 64.4426 44.5333 64.5146 44.8159 64.5146C44.9279 64.5146 45.0346 64.5039 45.1359 64.4826C45.2426 64.4613 45.3439 64.4293 45.4399 64.3866L45.5519 64.9466C45.4453 65.0053 45.3146 65.0506 45.1599 65.0826C45.0106 65.1146 44.8613 65.1306 44.7119 65.1306Z" fill="#CE3439"/>
<path d="M57.9157 65.0586V64.4506H59.4597V59.9866L59.8357 60.0426L58.1957 61.0986L57.8757 60.5466L59.6437 59.4186H60.1637V64.4506H61.5877V65.0586H57.9157ZM64.3766 65.1306C63.7472 65.1306 63.2512 64.9946 62.8886 64.7226C62.5259 64.4453 62.3446 64.0613 62.3446 63.5706C62.3446 63.3199 62.3926 63.0986 62.4886 62.9066C62.5899 62.7093 62.7286 62.5493 62.9046 62.4266C63.0859 62.2986 63.2939 62.2133 63.5286 62.1706V62.1786C63.3259 62.1306 63.1446 62.0426 62.9846 61.9146C62.8299 61.7866 62.7072 61.6319 62.6166 61.4506C62.5259 61.2693 62.4806 61.0693 62.4806 60.8506C62.4806 60.3813 62.6512 60.0133 62.9926 59.7466C63.3392 59.4799 63.8006 59.3466 64.3766 59.3466C64.9526 59.3466 65.4112 59.4799 65.7526 59.7466C66.0992 60.0133 66.2726 60.3813 66.2726 60.8506C66.2726 61.0639 66.2272 61.2639 66.1366 61.4506C66.0459 61.6319 65.9206 61.7866 65.7606 61.9146C65.6059 62.0426 65.4246 62.1306 65.2166 62.1786V62.1706C65.4459 62.2079 65.6486 62.2906 65.8246 62.4186C66.0059 62.5466 66.1472 62.7093 66.2486 62.9066C66.3552 63.0986 66.4086 63.3199 66.4086 63.5706C66.4086 64.0613 66.2272 64.4453 65.8646 64.7226C65.5072 64.9946 65.0112 65.1306 64.3766 65.1306ZM64.3766 64.5306C64.8192 64.5306 65.1552 64.4453 65.3846 64.2746C65.6192 64.1039 65.7366 63.8533 65.7366 63.5226C65.7366 63.1919 65.6192 62.9386 65.3846 62.7626C65.1552 62.5866 64.8192 62.4986 64.3766 62.4986C63.9339 62.4986 63.5952 62.5866 63.3606 62.7626C63.1312 62.9386 63.0166 63.1919 63.0166 63.5226C63.0166 63.8533 63.1312 64.1039 63.3606 64.2746C63.5952 64.4453 63.9339 64.5306 64.3766 64.5306ZM64.3766 61.8986C64.7606 61.8986 65.0619 61.8133 65.2806 61.6426C65.4992 61.4666 65.6086 61.2239 65.6086 60.9146C65.6086 60.6106 65.4992 60.3733 65.2806 60.2026C65.0619 60.0266 64.7606 59.9386 64.3766 59.9386C63.9979 59.9386 63.6992 60.0266 63.4806 60.2026C63.2619 60.3733 63.1526 60.6106 63.1526 60.9146C63.1526 61.2239 63.2619 61.4666 63.4806 61.6426C63.6992 61.8133 63.9979 61.8986 64.3766 61.8986ZM68.6614 66.5946C68.2828 66.0186 68.0028 65.4319 67.8214 64.8346C67.6454 64.2319 67.5574 63.6053 67.5574 62.9546C67.5574 62.3039 67.6454 61.6799 67.8214 61.0826C68.0028 60.4853 68.2828 59.8959 68.6614 59.3146L69.1734 59.4986C68.9708 59.8773 68.8028 60.2586 68.6694 60.6426C68.5361 61.0266 68.4348 61.4106 68.3654 61.7946C68.3014 62.1733 68.2694 62.5599 68.2694 62.9546C68.2694 63.3439 68.3014 63.7306 68.3654 64.1146C68.4348 64.4986 68.5361 64.8799 68.6694 65.2586C68.8028 65.6426 68.9708 66.0266 69.1734 66.4106L68.6614 66.5946ZM70.2929 65.0586V59.4186H71.0049V61.9626H71.0369L73.7169 59.4186H74.6209L71.5089 62.3706L71.5569 61.9786L74.8129 65.0586H73.8609L71.0369 62.4106H71.0049V65.0586H70.2929ZM77.1428 66.5706C76.8281 66.5706 76.5161 66.5226 76.2068 66.4266C75.8974 66.3359 75.6334 66.2106 75.4148 66.0506L75.6388 65.4986C75.7881 65.5946 75.9454 65.6773 76.1108 65.7466C76.2761 65.8213 76.4441 65.8746 76.6148 65.9066C76.7908 65.9439 76.9641 65.9626 77.1348 65.9626C77.5454 65.9626 77.8654 65.8586 78.0948 65.6506C78.3294 65.4426 78.4468 65.1466 78.4468 64.7626V64.0346H78.4308C78.3348 64.3066 78.1614 64.5279 77.9108 64.6986C77.6601 64.8639 77.3694 64.9466 77.0388 64.9466C76.6654 64.9466 76.3401 64.8666 76.0628 64.7066C75.7854 64.5413 75.5694 64.3119 75.4148 64.0186C75.2654 63.7253 75.1908 63.3813 75.1908 62.9866C75.1908 62.5973 75.2654 62.2559 75.4148 61.9626C75.5694 61.6693 75.7854 61.4426 76.0628 61.2826C76.3401 61.1173 76.6654 61.0346 77.0388 61.0346C77.3694 61.0346 77.6601 61.1199 77.9108 61.2906C78.1668 61.4613 78.3428 61.6879 78.4388 61.9706H78.4468V61.1066H79.1108V64.6986C79.1108 65.0826 79.0308 65.4133 78.8708 65.6906C78.7161 65.9733 78.4921 66.1893 78.1988 66.3386C77.9054 66.4933 77.5534 66.5706 77.1428 66.5706ZM77.1588 64.3626C77.5481 64.3626 77.8548 64.2373 78.0788 63.9866C78.3081 63.7359 78.4228 63.4026 78.4228 62.9866C78.4228 62.5706 78.3081 62.2399 78.0788 61.9946C77.8548 61.7439 77.5481 61.6186 77.1588 61.6186C76.7748 61.6186 76.4681 61.7439 76.2388 61.9946C76.0148 62.2399 75.9028 62.5706 75.9028 62.9866C75.9028 63.4026 76.0148 63.7359 76.2388 63.9866C76.4681 64.2373 76.7748 64.3626 77.1588 64.3626ZM81.9883 65.1306C81.7696 65.1306 81.5536 65.1093 81.3403 65.0666C81.1323 65.0293 80.9376 64.9759 80.7563 64.9066C80.5803 64.8319 80.4283 64.7413 80.3003 64.6346L80.5323 64.1306C80.6656 64.2319 80.8123 64.3146 80.9723 64.3786C81.1376 64.4426 81.3056 64.4906 81.4763 64.5226C81.6523 64.5493 81.8203 64.5626 81.9803 64.5626C82.311 64.5626 82.5643 64.5119 82.7403 64.4106C82.9216 64.3093 83.0123 64.1679 83.0123 63.9866C83.0123 63.8319 82.959 63.7146 82.8523 63.6346C82.751 63.5493 82.5803 63.4853 82.3403 63.4426L81.5163 63.2986C81.1483 63.2293 80.871 63.1039 80.6843 62.9226C80.503 62.7413 80.4123 62.5039 80.4123 62.2106C80.4123 61.9759 80.4763 61.7706 80.6043 61.5946C80.7376 61.4186 80.927 61.2826 81.1723 61.1866C81.4176 61.0853 81.711 61.0346 82.0523 61.0346C82.239 61.0346 82.4283 61.0533 82.6203 61.0906C82.8176 61.1279 82.999 61.1839 83.1643 61.2586C83.335 61.3279 83.4736 61.4159 83.5803 61.5226L83.3403 62.0266C83.2336 61.9253 83.1056 61.8453 82.9563 61.7866C82.8123 61.7226 82.6603 61.6773 82.5003 61.6506C82.3456 61.6186 82.1936 61.6026 82.0443 61.6026C81.735 61.6026 81.495 61.6559 81.3243 61.7626C81.1536 61.8639 81.0683 62.0079 81.0683 62.1946C81.0683 62.3439 81.1163 62.4613 81.2123 62.5466C81.3136 62.6319 81.4763 62.6959 81.7003 62.7386L82.5003 62.8826C82.895 62.9573 83.1883 63.0826 83.3803 63.2586C83.5723 63.4293 83.6683 63.6666 83.6683 63.9706C83.6683 64.2053 83.599 64.4106 83.4603 64.5866C83.3216 64.7573 83.127 64.8906 82.8763 64.9866C82.6256 65.0826 82.3296 65.1306 81.9883 65.1306ZM84.9408 66.5946L84.4208 66.4106C84.6288 66.0213 84.7995 65.6346 84.9328 65.2506C85.0661 64.8719 85.1648 64.4933 85.2288 64.1146C85.2928 63.7306 85.3248 63.3439 85.3248 62.9546C85.3248 62.5653 85.2928 62.1813 85.2288 61.8026C85.1648 61.4186 85.0661 61.0346 84.9328 60.6506C84.7995 60.2666 84.6288 59.8826 84.4208 59.4986L84.9408 59.3146C85.3141 59.8906 85.5888 60.4799 85.7648 61.0826C85.9461 61.6799 86.0368 62.3039 86.0368 62.9546C86.0368 63.5999 85.9461 64.2239 85.7648 64.8266C85.5888 65.4239 85.3141 66.0133 84.9408 66.5946Z" fill="black"/>
<defs>
<filter id="filter0_d_271_668" x="0.0999999" y="24" width="135.8" height="57.9" filterUnits="userSpaceOnUse" color-interpolation-filters="sRGB">
<feFlood flood-opacity="0" result="BackgroundImageFix"/>
<feColorMatrix in="SourceAlpha" type="matrix" values="0 0 0 0 0 0 0 0 0 0 0 0 0 0 0 0 0 0 127 0" result="hardAlpha"/>
<feOffset dy="4"/>
<feGaussianBlur stdDeviation="1.95"/>
<feComposite in2="hardAlpha" operator="out"/>
<feColorMatrix type="matrix" values="0 0 0 0 0 0 0 0 0 0 0 0 0 0 0 0 0 0 0.2 0"/>
<feBlend mode="normal" in2="BackgroundImageFix" result="effect1_dropShadow_271_668"/>
<feBlend mode="normal" in="SourceGraphic" in2="effect1_dropShadow_271_668" result="shape"/>
</filter>
<clipPath id="clip0_271_668">
<rect width="21.661" height="21.7031" fill="white" transform="translate(55.8809 2.41113)"/>
</clipPath>
</defs>
</svg>
