<svg width="90" height="79" viewBox="0 0 90 79" fill="none" xmlns="http://www.w3.org/2000/svg">
<g filter="url(#filter0_d_236_933)">
<rect x="4" y="24" width="81.8305" height="46.9322" rx="2" fill="#EBDBBA"/>
<rect x="4.25" y="24.25" width="81.3305" height="46.4322" rx="1.75" stroke="#EBDBBA" stroke-width="0.5"/>
</g>
<rect x="29.2715" width="30.0847" height="30.0847" rx="3" fill="#CB3335"/>
<g clip-path="url(#clip0_236_933)">
<path fill-rule="evenodd" clip-rule="evenodd" d="M35.6583 10.6213C35.7142 10.642 35.7797 10.6884 35.804 10.7246C35.8402 10.7782 35.8481 11.2465 35.8478 15.7427L35.7672 15.8249C35.7109 15.8822 35.6507 15.9072 35.5698 15.9072C35.4891 15.9072 35.4276 15.8818 35.2884 15.7427V13.2748C35.2884 11.6953 35.3003 10.7832 35.3213 10.7411C35.3394 10.7049 35.4 10.6549 35.4556 10.6295C35.5349 10.594 35.579 10.5923 35.6583 10.6213ZM51.9463 10.6213C52.0023 10.642 52.0678 10.6884 52.0921 10.7246C52.1283 10.7782 52.1362 11.2465 52.1359 15.7427L52.0553 15.8249C51.999 15.8822 51.9388 15.9072 51.8578 15.9072C51.7772 15.9072 51.7157 15.8818 51.5765 15.7427V13.2748C51.5765 11.6953 51.5883 10.7832 51.6094 10.7411C51.6275 10.7049 51.688 10.6549 51.7436 10.6295C51.8229 10.594 51.867 10.5923 51.9463 10.6213ZM51.9769 16.7792L52.1359 16.9601V18.7206C52.1359 19.8285 52.1237 20.5053 52.103 20.5468C52.0849 20.583 52.0184 20.635 51.9549 20.662C51.8535 20.7054 50.8634 20.7113 43.7121 20.7113C36.5609 20.7113 35.5707 20.7054 35.4694 20.662C35.4059 20.635 35.3394 20.583 35.3213 20.5468C35.3006 20.5053 35.2884 19.8305 35.2881 18.7288C35.2881 17.1714 35.2937 16.968 35.3407 16.9003C35.37 16.8581 35.4256 16.8111 35.4645 16.7953C35.5039 16.7792 39.1689 16.7693 51.9769 16.7792ZM35.8643 20.1355H51.56L51.5653 17.3221H50.721C50.7193 17.8706 50.7038 18.0174 50.6788 18.0519C50.6568 18.0825 50.5943 18.1243 50.54 18.1451C50.4603 18.1757 50.4205 18.1727 50.3343 18.1309C50.2642 18.0967 50.2159 18.0421 50.1938 17.972C50.1754 17.9131 50.1606 17.743 50.1609 17.5936L50.1616 17.3221H49.0428C49.0428 18.5274 49.0411 18.5412 48.9635 18.6301C48.9039 18.6979 48.8539 18.7206 48.7631 18.7206C48.6723 18.7206 48.6223 18.6979 48.5627 18.6301C48.485 18.5412 48.4834 18.5274 48.4834 17.9308V17.3221H47.3646C47.3492 17.9733 47.3399 18.0197 47.2748 18.0845C47.2271 18.1322 47.16 18.1586 47.083 18.1595C46.9931 18.1609 46.9444 18.1388 46.8845 18.0707C46.8121 17.9881 46.8052 17.9519 46.8052 17.6512V17.3221H45.6865C45.6865 18.3056 45.6746 18.4688 45.6371 18.556C45.6075 18.6255 45.5519 18.685 45.4973 18.7061C45.4476 18.7252 45.3735 18.7324 45.3327 18.7225C45.2919 18.7123 45.2287 18.6709 45.1922 18.6301C45.1304 18.5613 45.1258 18.5123 45.1264 17.9391L45.1271 17.3221H44.0083C44.008 17.7173 43.9932 17.8877 43.9751 17.9555C43.9507 18.048 43.9135 18.0934 43.8273 18.1365C43.7177 18.1915 43.7065 18.1915 43.597 18.1365C43.5108 18.0934 43.4736 18.048 43.4492 17.9555C43.4311 17.8877 43.4163 17.7173 43.4163 17.5771L43.416 17.3221H42.2972C42.2956 18.3721 42.2831 18.5715 42.2551 18.6084C42.2331 18.637 42.1817 18.6778 42.1409 18.6989C42.1001 18.7199 42.0225 18.7298 41.9682 18.7206C41.9024 18.7096 41.8475 18.6685 41.8036 18.5972C41.7447 18.5008 41.7382 18.432 41.7378 17.9062V17.3221H40.6191C40.6191 17.9519 40.6121 17.9881 40.5398 18.0707C40.4809 18.1375 40.4295 18.1612 40.343 18.1612C40.2651 18.1612 40.2012 18.1362 40.1511 18.0862C40.084 18.0194 40.0751 17.9756 40.0679 17.6666L40.0597 17.3221H38.9409C38.9248 18.5426 38.9211 18.5741 38.8511 18.6439C38.8033 18.6916 38.7362 18.7179 38.6592 18.7189C38.5694 18.7202 38.5207 18.6982 38.4608 18.6301C38.3831 18.5412 38.3815 18.5274 38.3815 17.9308V17.3221H37.2627C37.2637 17.743 37.2489 17.9131 37.2305 17.972C37.2084 18.0421 37.1601 18.0967 37.09 18.1309C37.0038 18.1727 36.9639 18.1757 36.8843 18.1451C36.83 18.1243 36.7675 18.0825 36.7455 18.0519C36.7204 18.0174 36.705 17.8706 36.7043 17.6594L36.7033 17.3221H35.8471L35.8643 20.1355ZM37.9741 11.4321C38.0172 11.4321 38.0933 11.4679 38.2334 11.5907L38.2499 13.1102H49.1744L49.1909 11.5907L49.2813 11.5114C49.331 11.4679 49.4051 11.4314 49.4459 11.4308C49.4867 11.4298 49.5525 11.4558 49.592 11.4883C49.6318 11.5206 49.9615 11.9322 50.3248 12.4028C50.6884 12.8733 50.9944 13.2955 51.0053 13.3406C51.0168 13.388 51.0036 13.4646 50.9743 13.5216C50.9464 13.5758 50.6765 13.9388 50.3751 14.3277C50.0734 14.717 49.7687 15.1056 49.6979 15.1915C49.5966 15.3146 49.5482 15.3478 49.4706 15.3478C49.4163 15.3478 49.3422 15.333 49.306 15.3149C49.2698 15.2968 49.2251 15.2339 49.2067 15.175C49.1882 15.1161 49.1734 14.7535 49.1744 13.6696H38.2499L38.2505 14.3689C38.2505 14.7535 38.2357 15.1161 38.2176 15.175C38.1992 15.2339 38.1545 15.2968 38.1183 15.3149C38.0821 15.333 38.008 15.3478 37.9537 15.3478C37.8761 15.3478 37.8277 15.3146 37.7264 15.1915C37.6553 15.1056 37.3506 14.717 37.0492 14.3277C36.7474 13.9388 36.4779 13.5758 36.45 13.5216C36.4207 13.4646 36.4075 13.388 36.419 13.3406C36.4299 13.2955 36.7359 12.8733 37.0992 12.4028C37.4625 11.9322 37.7905 11.5212 37.828 11.4897C37.8652 11.4581 37.931 11.4321 37.9741 11.4321ZM37.065 13.4557C37.0887 13.4919 37.2351 13.6864 37.3907 13.8881C37.5467 14.0898 37.6852 14.2491 37.6987 14.2418C37.7122 14.2349 37.7234 13.8516 37.7234 13.3899C37.7234 12.926 37.7102 12.5508 37.6941 12.5508C37.6783 12.5508 37.5207 12.7397 37.3437 12.9704C37.0534 13.3498 37.0265 13.3962 37.065 13.4557ZM49.7256 14.2418C49.7391 14.2491 49.8776 14.0898 50.0332 13.8881C50.1889 13.6864 50.3356 13.4919 50.359 13.4557C50.3975 13.3962 50.3705 13.3498 50.076 12.9691C49.8967 12.7374 49.7391 12.5485 49.7256 12.5495C49.7121 12.5502 49.7009 12.9286 49.7009 13.3899C49.7009 13.8516 49.7121 14.2349 49.7256 14.2418Z" fill="#EBDBBA"/>
</g>
<path d="M24.747 45V39.36H26.723C27.3257 39.36 27.8377 39.4693 28.259 39.688C28.6804 39.9067 29.0004 40.2267 29.219 40.648C29.443 41.064 29.555 41.5733 29.555 42.176C29.555 42.7787 29.443 43.2907 29.219 43.712C29.0004 44.1333 28.6804 44.4533 28.259 44.672C27.8377 44.8907 27.3257 45 26.723 45H24.747ZM25.459 44.376H26.683C27.3817 44.376 27.9097 44.1947 28.267 43.832C28.6297 43.4693 28.811 42.9173 28.811 42.176C28.811 41.4347 28.6297 40.8853 28.267 40.528C27.9097 40.1653 27.3817 39.984 26.683 39.984H25.459V44.376ZM30.7892 40.096V39.304H31.6532V40.096H30.7892ZM30.8692 45V41.048H31.5812V45H30.8692ZM33.018 45V41.048H33.674V41.912C33.7434 41.736 33.8394 41.5787 33.962 41.44C34.09 41.296 34.242 41.184 34.418 41.104C34.5994 41.0187 34.7967 40.976 35.01 40.976C35.3567 40.976 35.642 41.0613 35.866 41.232C36.09 41.4027 36.2287 41.6267 36.282 41.904H36.274C36.3807 41.6427 36.5487 41.424 36.778 41.248C37.0127 41.0667 37.306 40.976 37.658 40.976C37.9567 40.976 38.21 41.0347 38.418 41.152C38.626 41.264 38.7834 41.4373 38.89 41.672C38.9967 41.9067 39.05 42.2027 39.05 42.56V45H38.346V42.608C38.346 42.2667 38.2847 42.0107 38.162 41.84C38.0394 41.6693 37.8207 41.584 37.506 41.584C37.2714 41.584 37.0687 41.6373 36.898 41.744C36.7327 41.8453 36.6047 41.9893 36.514 42.176C36.4287 42.3573 36.386 42.5627 36.386 42.792V45H35.682V42.608C35.682 42.272 35.6127 42.0187 35.474 41.848C35.3354 41.672 35.1247 41.584 34.842 41.584C34.6127 41.584 34.4127 41.6427 34.242 41.76C34.0767 41.872 33.9487 42.0187 33.858 42.2C33.7674 42.3813 33.722 42.5733 33.722 42.776V45H33.018ZM42.3826 45.072C41.9399 45.072 41.5559 44.992 41.2306 44.832C40.9106 44.6667 40.6653 44.432 40.4946 44.128C40.3239 43.8187 40.2386 43.4507 40.2386 43.024C40.2386 42.624 40.3186 42.272 40.4786 41.968C40.6386 41.6587 40.8653 41.416 41.1586 41.24C41.4519 41.064 41.8013 40.976 42.2066 40.976C42.5906 40.976 42.9159 41.0587 43.1826 41.224C43.4546 41.3893 43.6599 41.6213 43.7986 41.92C43.9426 42.2187 44.0146 42.5733 44.0146 42.984V43.216H40.7746V42.72H43.5506L43.3986 42.88C43.3986 42.4427 43.2946 42.1067 43.0866 41.872C42.8839 41.6373 42.5906 41.52 42.2066 41.52C41.9559 41.52 41.7319 41.5787 41.5346 41.696C41.3426 41.808 41.1933 41.968 41.0866 42.176C40.9799 42.384 40.9266 42.6373 40.9266 42.936V43.016C40.9266 43.336 40.9853 43.6053 41.1026 43.824C41.2199 44.0427 41.3879 44.208 41.6066 44.32C41.8253 44.432 42.0866 44.488 42.3906 44.488C42.6093 44.488 42.8306 44.4587 43.0546 44.4C43.2839 44.336 43.4973 44.224 43.6946 44.064L43.9346 44.576C43.7319 44.7467 43.4893 44.872 43.2066 44.952C42.9293 45.032 42.6546 45.072 42.3826 45.072ZM45.1895 45V41.048H45.8535V41.904C45.9815 41.6107 46.1735 41.384 46.4295 41.224C46.6855 41.0587 46.9735 40.976 47.2935 40.976C47.6189 40.976 47.8909 41.0347 48.1095 41.152C48.3282 41.264 48.4909 41.44 48.5975 41.68C48.7095 41.9147 48.7655 42.208 48.7655 42.56V45H48.0535V42.6C48.0535 42.3867 48.0242 42.2053 47.9655 42.056C47.9069 41.9067 47.8082 41.792 47.6695 41.712C47.5362 41.6267 47.3575 41.584 47.1335 41.584C46.8989 41.584 46.6855 41.6373 46.4935 41.744C46.3069 41.8507 46.1602 41.9947 46.0535 42.176C45.9522 42.3573 45.9015 42.56 45.9015 42.784V45H45.1895ZM51.6299 45.072C51.4112 45.072 51.1952 45.0507 50.9819 45.008C50.7739 44.9707 50.5792 44.9173 50.3979 44.848C50.2219 44.7733 50.0699 44.6827 49.9419 44.576L50.1739 44.072C50.3072 44.1733 50.4539 44.256 50.6139 44.32C50.7792 44.384 50.9472 44.432 51.1179 44.464C51.2939 44.4907 51.4619 44.504 51.6219 44.504C51.9526 44.504 52.2059 44.4533 52.3819 44.352C52.5632 44.2507 52.6539 44.1093 52.6539 43.928C52.6539 43.7733 52.6006 43.656 52.4939 43.576C52.3926 43.4907 52.2219 43.4267 51.9819 43.384L51.1579 43.24C50.7899 43.1707 50.5126 43.0453 50.3259 42.864C50.1446 42.6827 50.0539 42.4453 50.0539 42.152C50.0539 41.9173 50.1179 41.712 50.2459 41.536C50.3792 41.36 50.5686 41.224 50.8139 41.128C51.0592 41.0267 51.3526 40.976 51.6939 40.976C51.8806 40.976 52.0699 40.9947 52.2619 41.032C52.4592 41.0693 52.6406 41.1253 52.8059 41.2C52.9766 41.2693 53.1152 41.3573 53.2219 41.464L52.9819 41.968C52.8752 41.8667 52.7472 41.7867 52.5979 41.728C52.4539 41.664 52.3019 41.6187 52.1419 41.592C51.9872 41.56 51.8352 41.544 51.6859 41.544C51.3766 41.544 51.1366 41.5973 50.9659 41.704C50.7952 41.8053 50.7099 41.9493 50.7099 42.136C50.7099 42.2853 50.7579 42.4027 50.8539 42.488C50.9552 42.5733 51.1179 42.6373 51.3419 42.68L52.1419 42.824C52.5366 42.8987 52.8299 43.024 53.0219 43.2C53.2139 43.3707 53.3099 43.608 53.3099 43.912C53.3099 44.1467 53.2406 44.352 53.1019 44.528C52.9632 44.6987 52.7686 44.832 52.5179 44.928C52.2672 45.024 51.9712 45.072 51.6299 45.072ZM54.4064 40.096V39.304H55.2704V40.096H54.4064ZM54.4864 45V41.048H55.1984V45H54.4864ZM58.3392 45.072C57.9392 45.072 57.5926 44.9867 57.2992 44.816C57.0059 44.6453 56.7792 44.408 56.6192 44.104C56.4592 43.7947 56.3792 43.432 56.3792 43.016C56.3792 42.6053 56.4592 42.248 56.6192 41.944C56.7792 41.6347 57.0059 41.3973 57.2992 41.232C57.5926 41.0613 57.9392 40.976 58.3392 40.976C58.7392 40.976 59.0832 41.0613 59.3712 41.232C59.6646 41.3973 59.8912 41.6347 60.0512 41.944C60.2112 42.248 60.2912 42.6053 60.2912 43.016C60.2912 43.432 60.2112 43.7947 60.0512 44.104C59.8966 44.408 59.6726 44.6453 59.3792 44.816C59.0859 44.9867 58.7392 45.072 58.3392 45.072ZM58.3312 44.472C58.7206 44.472 59.0272 44.3413 59.2512 44.08C59.4752 43.8187 59.5872 43.464 59.5872 43.016C59.5872 42.568 59.4752 42.216 59.2512 41.96C59.0326 41.704 58.7286 41.576 58.3392 41.576C57.9499 41.576 57.6432 41.704 57.4192 41.96C57.1952 42.216 57.0832 42.568 57.0832 43.016C57.0832 43.464 57.1952 43.8187 57.4192 44.08C57.6486 44.3413 57.9526 44.472 58.3312 44.472ZM61.4864 45V41.048H62.1504V41.904C62.2784 41.6107 62.4704 41.384 62.7264 41.224C62.9824 41.0587 63.2704 40.976 63.5904 40.976C63.9157 40.976 64.1877 41.0347 64.4064 41.152C64.6251 41.264 64.7877 41.44 64.8944 41.68C65.0064 41.9147 65.0624 42.208 65.0624 42.56V45H64.3504V42.6C64.3504 42.3867 64.3211 42.2053 64.2624 42.056C64.2037 41.9067 64.1051 41.792 63.9664 41.712C63.8331 41.6267 63.6544 41.584 63.4304 41.584C63.1957 41.584 62.9824 41.6373 62.7904 41.744C62.6037 41.8507 62.4571 41.9947 62.3504 42.176C62.2491 42.3573 62.1984 42.56 62.1984 42.784V45H61.4864Z" fill="#CE3439"/>
<path d="M22.6979 58V57.392H24.2419V52.928L24.6179 52.984L22.9779 54.04L22.6579 53.488L24.4259 52.36H24.9459V57.392H26.3699V58H22.6979ZM29.8068 58V56.832H27.1748V56.296L29.7748 52.36H30.4868V56.232H31.2708V56.832H30.4868V58H29.8068ZM29.8308 56.232V53.24H29.8628L27.7988 56.368L27.7428 56.232H29.8308ZM32.4517 58L35.2117 52.648L35.2437 52.992H32.0677V52.36H35.8357V52.896L33.2277 58H32.4517ZM37.6725 55.312L37.2005 55.032L37.9045 53.968L37.9205 53.992L36.6325 54.072V53.52L37.9205 53.6L37.8965 53.616L37.2005 52.56L37.6805 52.28L38.2485 53.464H38.2405L38.7925 52.28L39.2725 52.56L38.5685 53.616L38.5445 53.6L39.8405 53.52V54.072L38.5525 53.992L38.5765 53.968L39.2725 55.032L38.8005 55.312L38.2405 54.136H38.2485L37.6725 55.312ZM40.8542 58V57.392H42.3982V52.928L42.7742 52.984L41.1342 54.04L40.8142 53.488L42.5822 52.36H43.1022V57.392H44.5262V58H40.8542ZM47.235 58.072C47.0004 58.072 46.7684 58.048 46.539 58C46.3097 57.952 46.091 57.8773 45.883 57.776C45.6804 57.6747 45.4937 57.5493 45.323 57.4L45.595 56.84C45.851 57.0587 46.1177 57.216 46.395 57.312C46.6724 57.4027 46.9524 57.448 47.235 57.448C47.4697 57.448 47.6804 57.4133 47.867 57.344C48.059 57.2693 48.2084 57.16 48.315 57.016C48.427 56.8667 48.483 56.6747 48.483 56.44C48.483 56.1147 48.3737 55.8693 48.155 55.704C47.9364 55.5333 47.619 55.448 47.203 55.448H46.355V54.832H47.099C47.339 54.832 47.5524 54.7947 47.739 54.72C47.931 54.64 48.0804 54.5227 48.187 54.368C48.2937 54.2133 48.347 54.0213 48.347 53.792C48.347 53.4987 48.2457 53.28 48.043 53.136C47.8404 52.9867 47.579 52.912 47.259 52.912C46.9764 52.912 46.699 52.96 46.427 53.056C46.1604 53.152 45.915 53.3173 45.691 53.552L45.427 53C45.651 52.76 45.9284 52.5813 46.259 52.464C46.5897 52.3467 46.9337 52.288 47.291 52.288C47.6484 52.288 47.955 52.3467 48.211 52.464C48.4724 52.576 48.675 52.7413 48.819 52.96C48.963 53.1733 49.035 53.432 49.035 53.736C49.035 54.056 48.9444 54.3387 48.763 54.584C48.5817 54.8293 48.3364 55.0027 48.027 55.104V55.096C48.251 55.1387 48.4484 55.2213 48.619 55.344C48.7897 55.4613 48.9257 55.616 49.027 55.808C49.1284 55.9947 49.179 56.216 49.179 56.472C49.179 56.808 49.0964 57.096 48.931 57.336C48.771 57.576 48.5444 57.76 48.251 57.888C47.963 58.0107 47.6244 58.072 47.235 58.072ZM52.1119 58.072C51.6799 58.072 51.3146 57.9627 51.0159 57.744C50.7172 57.52 50.4906 57.1947 50.3359 56.768C50.1866 56.336 50.1119 55.8053 50.1119 55.176C50.1119 54.5467 50.1866 54.0187 50.3359 53.592C50.4906 53.1653 50.7172 52.8427 51.0159 52.624C51.3146 52.4 51.6799 52.288 52.1119 52.288C52.5546 52.288 52.9226 52.3973 53.2159 52.616C53.5092 52.8347 53.7306 53.1573 53.8799 53.584C54.0346 54.0107 54.1119 54.5387 54.1119 55.168C54.1119 55.7973 54.0346 56.328 53.8799 56.76C53.7306 57.192 53.5066 57.52 53.2079 57.744C52.9092 57.9627 52.5439 58.072 52.1119 58.072ZM52.1119 57.448C52.5492 57.448 52.8746 57.264 53.0879 56.896C53.3012 56.528 53.4079 55.952 53.4079 55.168C53.4079 54.3893 53.3012 53.8187 53.0879 53.456C52.8799 53.0933 52.5572 52.912 52.1199 52.912C51.6772 52.912 51.3492 53.096 51.1359 53.464C50.9226 53.8267 50.8159 54.3973 50.8159 55.176C50.8159 55.9493 50.9226 56.5227 51.1359 56.896C51.3492 57.264 51.6746 57.448 52.1119 57.448ZM55.8288 55.312L55.3568 55.032L56.0608 53.968L56.0768 53.992L54.7888 54.072V53.52L56.0768 53.6L56.0528 53.616L55.3568 52.56L55.8368 52.28L56.4048 53.464H56.3968L56.9488 52.28L57.4288 52.56L56.7248 53.616L56.7008 53.6L57.9968 53.52V54.072L56.7088 53.992L56.7328 53.968L57.4288 55.032L56.9568 55.312L56.3968 54.136H56.4048L55.8288 55.312ZM60.7384 58.072C60.4931 58.072 60.2557 58.0453 60.0264 57.992C59.8024 57.9387 59.5917 57.8613 59.3944 57.76C59.1971 57.6533 59.0211 57.5253 58.8664 57.376L59.1464 56.816C59.3917 57.04 59.6424 57.2027 59.8984 57.304C60.1597 57.4 60.4397 57.448 60.7384 57.448C61.1331 57.448 61.4397 57.3467 61.6584 57.144C61.8824 56.936 61.9944 56.6453 61.9944 56.272C61.9944 55.904 61.8904 55.6107 61.6824 55.392C61.4744 55.1733 61.1864 55.064 60.8184 55.064C60.5731 55.064 60.3491 55.1147 60.1464 55.216C59.9491 55.312 59.7651 55.4747 59.5944 55.704H59.0344V52.36H62.4104V52.976H59.6824V55.096H59.6504C59.7784 54.904 59.9544 54.7493 60.1784 54.632C60.4024 54.5093 60.6531 54.448 60.9304 54.448C61.2931 54.448 61.6051 54.5253 61.8664 54.68C62.1277 54.8293 62.3277 55.0373 62.4664 55.304C62.6104 55.5707 62.6824 55.8827 62.6824 56.24C62.6824 56.6187 62.6024 56.9467 62.4424 57.224C62.2824 57.496 62.0584 57.7067 61.7704 57.856C61.4824 58 61.1384 58.072 60.7384 58.072ZM65.1193 58.072C64.9113 58.072 64.7086 58.048 64.5113 58C64.3193 57.952 64.1353 57.88 63.9593 57.784C63.7886 57.6827 63.6286 57.56 63.4793 57.416L63.7513 56.872C63.97 57.0907 64.1913 57.2427 64.4153 57.328C64.6393 57.408 64.8766 57.448 65.1273 57.448C65.3886 57.448 65.618 57.4 65.8153 57.304C66.018 57.2027 66.1886 57.056 66.3273 56.864C66.466 56.6667 66.57 56.424 66.6393 56.136C66.7086 55.848 66.7433 55.5173 66.7433 55.144V54.68H66.7353C66.6926 54.9307 66.5966 55.1493 66.4473 55.336C66.3033 55.5173 66.1246 55.656 65.9113 55.752C65.698 55.848 65.4633 55.896 65.2073 55.896C64.8713 55.896 64.5726 55.8213 64.3113 55.672C64.05 55.5227 63.8446 55.3147 63.6953 55.048C63.5513 54.7813 63.4793 54.472 63.4793 54.12C63.4793 53.768 63.5566 53.4533 63.7113 53.176C63.866 52.8987 64.0793 52.6827 64.3513 52.528C64.6233 52.368 64.9353 52.288 65.2873 52.288C65.746 52.288 66.1326 52.3973 66.4473 52.616C66.762 52.8293 66.9993 53.1413 67.1593 53.552C67.3193 53.9627 67.3993 54.464 67.3993 55.056C67.3993 55.696 67.3086 56.2427 67.1273 56.696C66.946 57.144 66.6846 57.4853 66.3433 57.72C66.0073 57.9547 65.5993 58.072 65.1193 58.072ZM65.3273 55.304C65.562 55.304 65.77 55.2533 65.9513 55.152C66.1326 55.0507 66.274 54.9093 66.3753 54.728C66.4766 54.5467 66.5273 54.3387 66.5273 54.104C66.5273 53.8587 66.4766 53.6453 66.3753 53.464C66.2793 53.2827 66.1406 53.144 65.9593 53.048C65.778 52.9467 65.5646 52.896 65.3193 52.896C65.0846 52.896 64.8793 52.9467 64.7033 53.048C64.5273 53.1493 64.3886 53.2907 64.2873 53.472C64.1913 53.6533 64.1433 53.864 64.1433 54.104C64.1433 54.3387 64.194 54.5467 64.2953 54.728C64.3966 54.9093 64.5353 55.0507 64.7113 55.152C64.8873 55.2533 65.0926 55.304 65.3273 55.304Z" fill="black"/>
<defs>
<filter id="filter0_d_236_933" x="0.0999999" y="24" width="89.6301" height="54.8321" filterUnits="userSpaceOnUse" color-interpolation-filters="sRGB">
<feFlood flood-opacity="0" result="BackgroundImageFix"/>
<feColorMatrix in="SourceAlpha" type="matrix" values="0 0 0 0 0 0 0 0 0 0 0 0 0 0 0 0 0 0 127 0" result="hardAlpha"/>
<feOffset dy="4"/>
<feGaussianBlur stdDeviation="1.95"/>
<feComposite in2="hardAlpha" operator="out"/>
<feColorMatrix type="matrix" values="0 0 0 0 0 0 0 0 0 0 0 0 0 0 0 0 0 0 0.2 0"/>
<feBlend mode="normal" in2="BackgroundImageFix" result="effect1_dropShadow_236_933"/>
<feBlend mode="normal" in="SourceGraphic" in2="effect1_dropShadow_236_933" result="shape"/>
</filter>
<clipPath id="clip0_236_933">
<rect width="16.8475" height="16.8475" fill="white" transform="translate(35.2881 7.22021)"/>
</clipPath>
</defs>
</svg>
