<svg width="275" height="146" viewBox="0 0 275 146" fill="none" xmlns="http://www.w3.org/2000/svg">
<path d="M2.808 17V5.3L3.834 6.362H0.144V4.4H5.148V17H2.808ZM7.48547 17V15.434L12.4895 10.682C12.9095 10.286 13.2215 9.938 13.4255 9.638C13.6295 9.338 13.7615 9.062 13.8215 8.81C13.8935 8.546 13.9295 8.3 13.9295 8.072C13.9295 7.496 13.7315 7.052 13.3355 6.74C12.9395 6.416 12.3575 6.254 11.5895 6.254C10.9775 6.254 10.4195 6.362 9.91547 6.578C9.42347 6.794 8.99747 7.124 8.63747 7.568L6.99947 6.308C7.49147 5.648 8.15147 5.138 8.97947 4.778C9.81947 4.406 10.7555 4.22 11.7875 4.22C12.6995 4.22 13.4915 4.37 14.1635 4.67C14.8475 4.958 15.3695 5.372 15.7295 5.912C16.1015 6.452 16.2875 7.094 16.2875 7.838C16.2875 8.246 16.2335 8.654 16.1255 9.062C16.0175 9.458 15.8135 9.878 15.5135 10.322C15.2135 10.766 14.7755 11.264 14.1995 11.816L9.89747 15.902L9.41147 15.02H16.7735V17H7.48547ZM23.38 17.18C22.384 17.18 21.484 16.928 20.68 16.424C19.888 15.92 19.264 15.188 18.808 14.228C18.352 13.256 18.124 12.08 18.124 10.7C18.124 9.32 18.352 8.15 18.808 7.19C19.264 6.218 19.888 5.48 20.68 4.976C21.484 4.472 22.384 4.22 23.38 4.22C24.388 4.22 25.288 4.472 26.08 4.976C26.872 5.48 27.496 6.218 27.952 7.19C28.42 8.15 28.654 9.32 28.654 10.7C28.654 12.08 28.42 13.256 27.952 14.228C27.496 15.188 26.872 15.92 26.08 16.424C25.288 16.928 24.388 17.18 23.38 17.18ZM23.38 15.146C23.968 15.146 24.478 14.99 24.91 14.678C25.342 14.354 25.678 13.862 25.918 13.202C26.17 12.542 26.296 11.708 26.296 10.7C26.296 9.68 26.17 8.846 25.918 8.198C25.678 7.538 25.342 7.052 24.91 6.74C24.478 6.416 23.968 6.254 23.38 6.254C22.816 6.254 22.312 6.416 21.868 6.74C21.436 7.052 21.094 7.538 20.842 8.198C20.602 8.846 20.482 9.68 20.482 10.7C20.482 11.708 20.602 12.542 20.842 13.202C21.094 13.862 21.436 14.354 21.868 14.678C22.312 14.99 22.816 15.146 23.38 15.146ZM43.0514 7.28C43.8194 7.28 44.4974 7.43 45.0854 7.73C45.6854 8.03 46.1534 8.492 46.4894 9.116C46.8254 9.728 46.9934 10.52 46.9934 11.492V17H44.7434V11.78C44.7434 10.928 44.5574 10.292 44.1854 9.872C43.8134 9.452 43.2794 9.242 42.5834 9.242C42.0914 9.242 41.6534 9.35 41.2694 9.566C40.8974 9.782 40.6034 10.1 40.3874 10.52C40.1834 10.94 40.0814 11.474 40.0814 12.122V17H37.8314V11.78C37.8314 10.928 37.6454 10.292 37.2734 9.872C36.9014 9.452 36.3674 9.242 35.6714 9.242C35.1794 9.242 34.7414 9.35 34.3574 9.566C33.9854 9.782 33.6914 10.1 33.4754 10.52C33.2714 10.94 33.1694 11.474 33.1694 12.122V17H30.9194V7.388H33.0614V9.944L32.6834 9.188C33.0074 8.564 33.4754 8.09 34.0874 7.766C34.7114 7.442 35.4194 7.28 36.2114 7.28C37.1114 7.28 37.8914 7.502 38.5514 7.946C39.2234 8.39 39.6674 9.062 39.8834 9.962L39.0014 9.656C39.3134 8.936 39.8294 8.36 40.5494 7.928C41.2694 7.496 42.1034 7.28 43.0514 7.28ZM49.8686 17V3.644H52.1186V17H49.8686ZM60.2623 17V4.4H65.4463C66.5623 4.4 67.5163 4.58 68.3083 4.94C69.1123 5.3 69.7303 5.816 70.1623 6.488C70.5943 7.16 70.8103 7.958 70.8103 8.882C70.8103 9.806 70.5943 10.604 70.1623 11.276C69.7303 11.936 69.1123 12.446 68.3083 12.806C67.5163 13.154 66.5623 13.328 65.4463 13.328H61.5583L62.6023 12.266V17H60.2623ZM68.5063 17L65.3203 12.428H67.8223L71.0263 17H68.5063ZM62.6023 12.518L61.5583 11.402H65.3383C66.3703 11.402 67.1443 11.18 67.6603 10.736C68.1883 10.292 68.4523 9.674 68.4523 8.882C68.4523 8.078 68.1883 7.46 67.6603 7.028C67.1443 6.596 66.3703 6.38 65.3383 6.38H61.5583L62.6023 5.228V12.518ZM77.5323 17.126C76.5483 17.126 75.6723 16.916 74.9043 16.496C74.1363 16.064 73.5303 15.476 73.0863 14.732C72.6423 13.988 72.4203 13.142 72.4203 12.194C72.4203 11.234 72.6423 10.388 73.0863 9.656C73.5303 8.912 74.1363 8.33 74.9043 7.91C75.6723 7.49 76.5483 7.28 77.5323 7.28C78.5283 7.28 79.4103 7.49 80.1783 7.91C80.9583 8.33 81.5643 8.906 81.9963 9.638C82.4403 10.37 82.6623 11.222 82.6623 12.194C82.6623 13.142 82.4403 13.988 81.9963 14.732C81.5643 15.476 80.9583 16.064 80.1783 16.496C79.4103 16.916 78.5283 17.126 77.5323 17.126ZM77.5323 15.2C78.0843 15.2 78.5763 15.08 79.0083 14.84C79.4403 14.6 79.7763 14.252 80.0163 13.796C80.2683 13.34 80.3943 12.806 80.3943 12.194C80.3943 11.57 80.2683 11.036 80.0163 10.592C79.7763 10.136 79.4403 9.788 79.0083 9.548C78.5763 9.308 78.0903 9.188 77.5503 9.188C76.9983 9.188 76.5063 9.308 76.0743 9.548C75.6543 9.788 75.3183 10.136 75.0663 10.592C74.8143 11.036 74.6883 11.57 74.6883 12.194C74.6883 12.806 74.8143 13.34 75.0663 13.796C75.3183 14.252 75.6543 14.6 76.0743 14.84C76.5063 15.08 76.9923 15.2 77.5323 15.2ZM88.8819 17.126C88.0659 17.126 87.3459 16.976 86.7219 16.676C86.0979 16.364 85.6119 15.896 85.2639 15.272C84.9159 14.636 84.7419 13.838 84.7419 12.878V7.388H86.9919V12.572C86.9919 13.436 87.1839 14.084 87.5679 14.516C87.9639 14.936 88.5219 15.146 89.2419 15.146C89.7699 15.146 90.2259 15.038 90.6099 14.822C91.0059 14.606 91.3119 14.282 91.5279 13.85C91.7559 13.418 91.8699 12.884 91.8699 12.248V7.388H94.1199V17H91.9779V14.408L92.3559 15.2C92.0319 15.824 91.5579 16.304 90.9339 16.64C90.3099 16.964 89.6259 17.126 88.8819 17.126ZM102.52 7.28C103.288 7.28 103.972 7.43 104.572 7.73C105.184 8.03 105.664 8.492 106.012 9.116C106.36 9.728 106.534 10.52 106.534 11.492V17H104.284V11.78C104.284 10.928 104.08 10.292 103.672 9.872C103.276 9.452 102.718 9.242 101.998 9.242C101.47 9.242 101.002 9.35 100.594 9.566C100.186 9.782 99.8678 10.106 99.6398 10.538C99.4238 10.958 99.3158 11.492 99.3158 12.14V17H97.0658V7.388H99.2078V9.98L98.8298 9.188C99.1658 8.576 99.6518 8.108 100.288 7.784C100.936 7.448 101.68 7.28 102.52 7.28ZM113.474 17.126C112.55 17.126 111.716 16.922 110.972 16.514C110.24 16.094 109.664 15.518 109.244 14.786C108.824 14.054 108.614 13.19 108.614 12.194C108.614 11.198 108.824 10.334 109.244 9.602C109.664 8.87 110.24 8.3 110.972 7.892C111.716 7.484 112.55 7.28 113.474 7.28C114.278 7.28 114.998 7.46 115.634 7.82C116.27 8.168 116.774 8.702 117.146 9.422C117.518 10.142 117.704 11.066 117.704 12.194C117.704 13.31 117.524 14.234 117.164 14.966C116.804 15.686 116.306 16.226 115.67 16.586C115.034 16.946 114.302 17.126 113.474 17.126ZM113.744 15.2C114.284 15.2 114.764 15.08 115.184 14.84C115.616 14.6 115.958 14.252 116.21 13.796C116.474 13.34 116.606 12.806 116.606 12.194C116.606 11.57 116.474 11.036 116.21 10.592C115.958 10.136 115.616 9.788 115.184 9.548C114.764 9.308 114.284 9.188 113.744 9.188C113.204 9.188 112.718 9.308 112.286 9.548C111.866 9.788 111.524 10.136 111.26 10.592C111.008 11.036 110.882 11.57 110.882 12.194C110.882 12.806 111.008 13.34 111.26 13.796C111.524 14.252 111.866 14.6 112.286 14.84C112.718 15.08 113.204 15.2 113.744 15.2ZM116.66 17V14.732L116.75 12.176L116.57 9.62V3.644H118.802V17H116.66ZM132.786 17.18C131.826 17.18 130.932 17.024 130.104 16.712C129.288 16.388 128.574 15.938 127.962 15.362C127.362 14.774 126.894 14.084 126.558 13.292C126.222 12.5 126.054 11.636 126.054 10.7C126.054 9.764 126.222 8.9 126.558 8.108C126.894 7.316 127.368 6.632 127.98 6.056C128.592 5.468 129.306 5.018 130.122 4.706C130.938 4.382 131.832 4.22 132.804 4.22C133.836 4.22 134.778 4.4 135.63 4.76C136.482 5.108 137.202 5.63 137.79 6.326L136.278 7.748C135.822 7.256 135.312 6.89 134.748 6.65C134.184 6.398 133.572 6.272 132.912 6.272C132.252 6.272 131.646 6.38 131.094 6.596C130.554 6.812 130.08 7.118 129.672 7.514C129.276 7.91 128.964 8.378 128.736 8.918C128.52 9.458 128.412 10.052 128.412 10.7C128.412 11.348 128.52 11.942 128.736 12.482C128.964 13.022 129.276 13.49 129.672 13.886C130.08 14.282 130.554 14.588 131.094 14.804C131.646 15.02 132.252 15.128 132.912 15.128C133.572 15.128 134.184 15.008 134.748 14.768C135.312 14.516 135.822 14.138 136.278 13.634L137.79 15.074C137.202 15.758 136.482 16.28 135.63 16.64C134.778 17 133.83 17.18 132.786 17.18ZM143.767 17.126C142.783 17.126 141.907 16.916 141.139 16.496C140.371 16.064 139.765 15.476 139.321 14.732C138.877 13.988 138.655 13.142 138.655 12.194C138.655 11.234 138.877 10.388 139.321 9.656C139.765 8.912 140.371 8.33 141.139 7.91C141.907 7.49 142.783 7.28 143.767 7.28C144.763 7.28 145.645 7.49 146.413 7.91C147.193 8.33 147.799 8.906 148.231 9.638C148.675 10.37 148.897 11.222 148.897 12.194C148.897 13.142 148.675 13.988 148.231 14.732C147.799 15.476 147.193 16.064 146.413 16.496C145.645 16.916 144.763 17.126 143.767 17.126ZM143.767 15.2C144.319 15.2 144.811 15.08 145.243 14.84C145.675 14.6 146.011 14.252 146.251 13.796C146.503 13.34 146.629 12.806 146.629 12.194C146.629 11.57 146.503 11.036 146.251 10.592C146.011 10.136 145.675 9.788 145.243 9.548C144.811 9.308 144.325 9.188 143.785 9.188C143.233 9.188 142.741 9.308 142.309 9.548C141.889 9.788 141.553 10.136 141.301 10.592C141.049 11.036 140.923 11.57 140.923 12.194C140.923 12.806 141.049 13.34 141.301 13.796C141.553 14.252 141.889 14.6 142.309 14.84C142.741 15.08 143.227 15.2 143.767 15.2ZM156.502 7.28C157.27 7.28 157.954 7.43 158.554 7.73C159.166 8.03 159.646 8.492 159.994 9.116C160.342 9.728 160.516 10.52 160.516 11.492V17H158.266V11.78C158.266 10.928 158.062 10.292 157.654 9.872C157.258 9.452 156.7 9.242 155.98 9.242C155.452 9.242 154.984 9.35 154.576 9.566C154.168 9.782 153.85 10.106 153.622 10.538C153.406 10.958 153.298 11.492 153.298 12.14V17H151.048V7.388H153.19V9.98L152.812 9.188C153.148 8.576 153.634 8.108 154.27 7.784C154.918 7.448 155.662 7.28 156.502 7.28ZM166.989 17.126C165.933 17.126 165.117 16.856 164.541 16.316C163.965 15.764 163.677 14.954 163.677 13.886V5.264H165.927V13.832C165.927 14.288 166.041 14.642 166.269 14.894C166.509 15.146 166.839 15.272 167.259 15.272C167.763 15.272 168.183 15.14 168.519 14.876L169.149 16.478C168.885 16.694 168.561 16.856 168.177 16.964C167.793 17.072 167.397 17.126 166.989 17.126ZM162.093 9.26V7.46H168.501V9.26H162.093ZM176.921 17V15.056L176.795 14.642V11.24C176.795 10.58 176.597 10.07 176.201 9.71C175.805 9.338 175.205 9.152 174.401 9.152C173.861 9.152 173.327 9.236 172.799 9.404C172.283 9.572 171.845 9.806 171.485 10.106L170.603 8.468C171.119 8.072 171.731 7.778 172.439 7.586C173.159 7.382 173.903 7.28 174.671 7.28C176.063 7.28 177.137 7.616 177.893 8.288C178.661 8.948 179.045 9.974 179.045 11.366V17H176.921ZM173.897 17.126C173.177 17.126 172.547 17.006 172.007 16.766C171.467 16.514 171.047 16.172 170.747 15.74C170.459 15.296 170.315 14.798 170.315 14.246C170.315 13.706 170.441 13.22 170.693 12.788C170.957 12.356 171.383 12.014 171.971 11.762C172.559 11.51 173.339 11.384 174.311 11.384H177.101V12.878H174.473C173.705 12.878 173.189 13.004 172.925 13.256C172.661 13.496 172.529 13.796 172.529 14.156C172.529 14.564 172.691 14.888 173.015 15.128C173.339 15.368 173.789 15.488 174.365 15.488C174.917 15.488 175.409 15.362 175.841 15.11C176.285 14.858 176.603 14.486 176.795 13.994L177.173 15.344C176.957 15.908 176.567 16.346 176.003 16.658C175.451 16.97 174.749 17.126 173.897 17.126ZM181.933 17V7.388H184.183V17H181.933ZM183.067 5.804C182.647 5.804 182.299 5.672 182.023 5.408C181.759 5.144 181.627 4.826 181.627 4.454C181.627 4.07 181.759 3.752 182.023 3.5C182.299 3.236 182.647 3.104 183.067 3.104C183.487 3.104 183.829 3.23 184.093 3.482C184.369 3.722 184.507 4.028 184.507 4.4C184.507 4.796 184.375 5.132 184.111 5.408C183.847 5.672 183.499 5.804 183.067 5.804ZM192.59 7.28C193.358 7.28 194.042 7.43 194.642 7.73C195.254 8.03 195.734 8.492 196.082 9.116C196.43 9.728 196.604 10.52 196.604 11.492V17H194.354V11.78C194.354 10.928 194.15 10.292 193.742 9.872C193.346 9.452 192.788 9.242 192.068 9.242C191.54 9.242 191.072 9.35 190.664 9.566C190.256 9.782 189.938 10.106 189.71 10.538C189.494 10.958 189.386 11.492 189.386 12.14V17H187.136V7.388H189.278V9.98L188.9 9.188C189.236 8.576 189.722 8.108 190.358 7.784C191.006 7.448 191.75 7.28 192.59 7.28ZM203.994 17.126C202.926 17.126 201.99 16.916 201.186 16.496C200.394 16.064 199.776 15.476 199.332 14.732C198.9 13.988 198.684 13.142 198.684 12.194C198.684 11.234 198.894 10.388 199.314 9.656C199.746 8.912 200.334 8.33 201.078 7.91C201.834 7.49 202.692 7.28 203.652 7.28C204.588 7.28 205.422 7.484 206.154 7.892C206.886 8.3 207.462 8.876 207.882 9.62C208.302 10.364 208.512 11.24 208.512 12.248C208.512 12.344 208.506 12.452 208.494 12.572C208.494 12.692 208.488 12.806 208.476 12.914H200.466V11.42H207.288L206.406 11.888C206.418 11.336 206.304 10.85 206.064 10.43C205.824 10.01 205.494 9.68 205.074 9.44C204.666 9.2 204.192 9.08 203.652 9.08C203.1 9.08 202.614 9.2 202.194 9.44C201.786 9.68 201.462 10.016 201.222 10.448C200.994 10.868 200.88 11.366 200.88 11.942V12.302C200.88 12.878 201.012 13.388 201.276 13.832C201.54 14.276 201.912 14.618 202.392 14.858C202.872 15.098 203.424 15.218 204.048 15.218C204.588 15.218 205.074 15.134 205.506 14.966C205.938 14.798 206.322 14.534 206.658 14.174L207.864 15.56C207.432 16.064 206.886 16.454 206.226 16.73C205.578 16.994 204.834 17.126 203.994 17.126ZM210.673 17V7.388H212.815V10.034L212.563 9.26C212.851 8.612 213.301 8.12 213.913 7.784C214.537 7.448 215.311 7.28 216.235 7.28V9.422C216.139 9.398 216.049 9.386 215.965 9.386C215.881 9.374 215.797 9.368 215.713 9.368C214.861 9.368 214.183 9.62 213.679 10.124C213.175 10.616 212.923 11.354 212.923 12.338V17H210.673ZM222.9 14.894V13.022L230.496 10.178V11.222L222.9 8.378V6.506L231.198 9.728V11.672L222.9 14.894Z" fill="#CE3439"/>
<path d="M6.828 87L6.096 85.008H1.992L1.26 87H0.24L3.372 78.6H4.752L7.848 87H6.828ZM2.316 84.12H5.772L4.08 79.488H4.008L2.316 84.12ZM17.8905 87L15.5625 80.76H16.5825L18.4665 86.112H18.5385L20.4105 80.76H21.4545L19.1385 87H17.8905ZM25.3787 87.156C23.4827 87.156 22.2947 85.824 22.2947 83.904C22.2947 81.912 23.6627 80.604 25.3187 80.604C27.2027 80.604 28.2827 81.924 28.2827 83.796V84.144H23.2667C23.2787 85.536 24.0947 86.316 25.3907 86.316C26.2667 86.316 27.0707 85.812 27.2747 84.948L28.1987 85.164C27.8507 86.328 26.8187 87.156 25.3787 87.156ZM23.2907 83.376H27.3107C27.2507 82.08 26.3507 81.456 25.3187 81.456C24.2987 81.456 23.3627 82.2 23.2907 83.376ZM29.9583 87V80.76H30.8943V81.804H30.9663C31.1463 81.276 31.7583 80.604 32.6703 80.604H33.0783V81.552H32.5143C31.3743 81.552 30.9063 82.476 30.9063 83.664V87H29.9583ZM36.698 87.156C35.294 87.156 34.418 86.388 34.274 85.272L35.138 85.056C35.21 85.896 35.798 86.328 36.746 86.328C37.682 86.328 38.198 85.872 38.198 85.236C38.198 83.484 34.466 84.816 34.466 82.344C34.466 81.288 35.414 80.604 36.722 80.604C37.802 80.604 38.846 81.228 38.99 82.356L38.162 82.596C38.078 81.864 37.478 81.42 36.662 81.42C35.882 81.42 35.378 81.804 35.378 82.344C35.378 83.928 39.122 82.608 39.122 85.188C39.122 86.364 38.15 87.156 36.698 87.156ZM43.5536 87.156C41.7656 87.156 40.5056 85.8 40.5056 83.892C40.5056 81.972 41.7056 80.604 43.4816 80.604C44.7776 80.604 45.4256 81.444 45.6056 81.768H45.6776V80.76H46.6376V85.872C46.6376 86.064 46.7576 86.16 46.9496 86.16H47.2376V87H46.6256C46.1096 87 45.7256 86.616 45.7136 86.076V86.016H45.6416C45.4856 86.268 44.9096 87.156 43.5536 87.156ZM43.6016 86.304C44.9096 86.304 45.7136 85.212 45.7136 83.904C45.7136 82.356 44.7536 81.468 43.5896 81.468C42.3656 81.468 41.4776 82.476 41.4776 83.904C41.4776 85.356 42.4016 86.304 43.6016 86.304ZM51.5084 87C50.3684 87 49.6124 86.484 49.6124 85.224V81.564H48.4364V80.76H49.6724V78.948H50.5604V80.76H52.4804V81.564H50.5604V85.212C50.5604 85.884 50.8364 86.172 51.4964 86.172H52.3964V87H51.5084ZM55.5001 79.632C55.1041 79.632 54.8161 79.332 54.8161 78.936C54.8161 78.552 55.1041 78.252 55.5001 78.252C55.9081 78.252 56.1961 78.552 56.1961 78.936C56.1961 79.332 55.9081 79.632 55.5001 79.632ZM55.0321 87V81.564H53.8561V80.76H55.9801V87H55.0321ZM58.0528 87V86.184H59.3128V78.816H58.0528V78H60.2608V86.184H61.5208V87H58.0528ZM65.5037 87.156C63.6077 87.156 62.4197 85.824 62.4197 83.904C62.4197 81.912 63.7877 80.604 65.4437 80.604C67.3277 80.604 68.4077 81.924 68.4077 83.796V84.144H63.3917C63.4037 85.536 64.2197 86.316 65.5157 86.316C66.3917 86.316 67.1957 85.812 67.3997 84.948L68.3237 85.164C67.9757 86.328 66.9437 87.156 65.5037 87.156ZM63.4157 83.376H67.4357C67.3757 82.08 66.4757 81.456 65.4437 81.456C64.4237 81.456 63.4877 82.2 63.4157 83.376ZM80.7998 87V84.876H76.8998V83.748L80.2958 78.6H81.7598V84.012H82.8638V84.876H81.7598V87H80.7998ZM77.7878 84.012H80.7998V79.488H80.7278L77.7878 83.94V84.012ZM87.4952 87.156C85.6232 87.156 84.2432 85.776 84.2432 83.88C84.2432 81.996 85.6472 80.604 87.5072 80.604C89.3912 80.604 90.7592 82.008 90.7592 83.88C90.7592 85.752 89.3672 87.156 87.4952 87.156ZM87.4952 86.292C88.8392 86.292 89.7872 85.272 89.7872 83.88C89.7872 82.5 88.8392 81.468 87.4952 81.468C86.1512 81.468 85.2152 82.512 85.2152 83.88C85.2152 85.284 86.1632 86.292 87.4952 86.292ZM92.0742 87V85.836L95.8782 81.636V81.564H92.1822V80.76H96.7662V81.924L92.9622 86.124V86.196H96.8262V87H92.0742ZM108.462 87.156C106.578 87.156 105.258 85.728 105.258 83.88C105.258 82.032 106.614 80.604 108.45 80.604C109.806 80.604 111.006 81.42 111.342 82.812L110.406 83.028C110.238 82.092 109.446 81.468 108.474 81.468C107.142 81.468 106.242 82.524 106.242 83.88C106.242 85.284 107.19 86.292 108.498 86.292C109.47 86.292 110.262 85.668 110.43 84.732L111.366 84.948C111.03 86.34 109.818 87.156 108.462 87.156ZM115.823 87.156C113.951 87.156 112.571 85.776 112.571 83.88C112.571 81.996 113.975 80.604 115.835 80.604C117.719 80.604 119.087 82.008 119.087 83.88C119.087 85.752 117.695 87.156 115.823 87.156ZM115.823 86.292C117.167 86.292 118.115 85.272 118.115 83.88C118.115 82.5 117.167 81.468 115.823 81.468C114.479 81.468 113.543 82.512 113.543 83.88C113.543 85.284 114.491 86.292 115.823 86.292ZM120.762 87V80.76H121.71V81.672H121.782C122.046 81.108 122.718 80.604 123.69 80.604C125.142 80.604 126.018 81.696 126.018 83.076V87H125.07V83.136C125.07 82.14 124.338 81.492 123.462 81.492C122.478 81.492 121.71 82.248 121.71 83.28V87H120.762ZM130.534 87C129.394 87 128.638 86.484 128.638 85.224V81.564H127.462V80.76H128.698V78.948H129.586V80.76H131.506V81.564H129.586V85.212C129.586 85.884 129.862 86.172 130.522 86.172H131.422V87H130.534ZM135.81 87.156C134.022 87.156 132.762 85.8 132.762 83.892C132.762 81.972 133.962 80.604 135.738 80.604C137.034 80.604 137.682 81.444 137.862 81.768H137.934V80.76H138.894V85.872C138.894 86.064 139.014 86.16 139.206 86.16H139.494V87H138.882C138.366 87 137.982 86.616 137.97 86.076V86.016H137.898C137.742 86.268 137.166 87.156 135.81 87.156ZM135.858 86.304C137.166 86.304 137.97 85.212 137.97 83.904C137.97 82.356 137.01 81.468 135.846 81.468C134.622 81.468 133.734 82.476 133.734 83.904C133.734 85.356 134.658 86.304 135.858 86.304ZM142.577 79.632C142.181 79.632 141.893 79.332 141.893 78.936C141.893 78.552 142.181 78.252 142.577 78.252C142.985 78.252 143.273 78.552 143.273 78.936C143.273 79.332 142.985 79.632 142.577 79.632ZM142.109 87V81.564H140.933V80.76H143.057V87H142.109ZM145.43 87V80.76H146.378V81.672H146.45C146.714 81.108 147.386 80.604 148.358 80.604C149.81 80.604 150.686 81.696 150.686 83.076V87H149.738V83.136C149.738 82.14 149.006 81.492 148.13 81.492C147.146 81.492 146.378 82.248 146.378 83.28V87H145.43ZM155.334 87.156C153.438 87.156 152.25 85.824 152.25 83.904C152.25 81.912 153.618 80.604 155.274 80.604C157.158 80.604 158.238 81.924 158.238 83.796V84.144H153.222C153.234 85.536 154.05 86.316 155.346 86.316C156.222 86.316 157.026 85.812 157.23 84.948L158.154 85.164C157.806 86.328 156.774 87.156 155.334 87.156ZM153.246 83.376H157.266C157.206 82.08 156.306 81.456 155.274 81.456C154.254 81.456 153.318 82.2 153.246 83.376ZM159.914 87V80.76H160.85V81.804H160.922C161.102 81.276 161.714 80.604 162.626 80.604H163.034V81.552H162.47C161.33 81.552 160.862 82.476 160.862 83.664V87H159.914ZM172.162 87V81.564H170.986V80.76H172.162V79.776C172.162 78.516 172.918 78 174.058 78H174.886V78.828H174.046C173.386 78.828 173.11 79.116 173.11 79.788V80.76H174.934V81.564H173.11V87H172.162ZM179.213 87.156C177.341 87.156 175.961 85.776 175.961 83.88C175.961 81.996 177.365 80.604 179.225 80.604C181.109 80.604 182.477 82.008 182.477 83.88C182.477 85.752 181.085 87.156 179.213 87.156ZM179.213 86.292C180.557 86.292 181.505 85.272 181.505 83.88C181.505 82.5 180.557 81.468 179.213 81.468C177.869 81.468 176.933 82.512 176.933 83.88C176.933 85.284 177.881 86.292 179.213 86.292ZM184.152 87V80.76H185.088V81.804H185.16C185.34 81.276 185.952 80.604 186.864 80.604H187.272V81.552H186.708C185.568 81.552 185.1 82.476 185.1 83.664V87H184.152ZM198.008 87.156C196.604 87.156 195.728 86.388 195.584 85.272L196.448 85.056C196.52 85.896 197.108 86.328 198.056 86.328C198.992 86.328 199.508 85.872 199.508 85.236C199.508 83.484 195.776 84.816 195.776 82.344C195.776 81.288 196.724 80.604 198.032 80.604C199.112 80.604 200.156 81.228 200.3 82.356L199.472 82.596C199.388 81.864 198.788 81.42 197.972 81.42C197.192 81.42 196.688 81.804 196.688 82.344C196.688 83.928 200.432 82.608 200.432 85.188C200.432 86.364 199.46 87.156 198.008 87.156ZM203.58 79.632C203.183 79.632 202.895 79.332 202.895 78.936C202.895 78.552 203.183 78.252 203.58 78.252C203.987 78.252 204.276 78.552 204.276 78.936C204.276 79.332 203.987 79.632 203.58 79.632ZM203.111 87V81.564H201.935V80.76H204.06V87H203.111ZM209 87.156C207.224 87.156 205.952 85.8 205.952 83.892C205.952 81.972 207.164 80.604 208.928 80.604C210.236 80.604 210.872 81.444 211.064 81.768H211.136V78H212.084V87H211.172V86.016H211.1C210.944 86.244 210.356 87.156 209 87.156ZM209.06 86.304C210.356 86.304 211.172 85.2 211.172 83.904C211.172 82.356 210.212 81.468 209.036 81.468C207.812 81.468 206.924 82.476 206.924 83.904C206.924 85.356 207.848 86.304 209.06 86.304ZM216.724 87.156C214.828 87.156 213.64 85.824 213.64 83.904C213.64 81.912 215.008 80.604 216.664 80.604C218.548 80.604 219.628 81.924 219.628 83.796V84.144H214.612C214.624 85.536 215.44 86.316 216.736 86.316C217.612 86.316 218.416 85.812 218.62 84.948L219.544 85.164C219.196 86.328 218.164 87.156 216.724 87.156ZM214.636 83.376H218.656C218.596 82.08 217.696 81.456 216.664 81.456C215.644 81.456 214.708 82.2 214.636 83.376ZM223.367 87.156C221.963 87.156 221.087 86.388 220.943 85.272L221.807 85.056C221.879 85.896 222.467 86.328 223.415 86.328C224.351 86.328 224.867 85.872 224.867 85.236C224.867 83.484 221.135 84.816 221.135 82.344C221.135 81.288 222.083 80.604 223.391 80.604C224.471 80.604 225.515 81.228 225.659 82.356L224.831 82.596C224.747 81.864 224.147 81.42 223.331 81.42C222.551 81.42 222.047 81.804 222.047 82.344C222.047 83.928 225.791 82.608 225.791 85.188C225.791 86.364 224.819 87.156 223.367 87.156ZM227.3 88.332L227.504 85.884H228.572L228.081 88.332H227.3ZM239.789 87.156C238.385 87.156 237.509 86.388 237.365 85.272L238.229 85.056C238.301 85.896 238.889 86.328 239.837 86.328C240.773 86.328 241.289 85.872 241.289 85.236C241.289 83.484 237.557 84.816 237.557 82.344C237.557 81.288 238.505 80.604 239.813 80.604C240.893 80.604 241.937 81.228 242.081 82.356L241.253 82.596C241.169 81.864 240.569 81.42 239.753 81.42C238.973 81.42 238.469 81.804 238.469 82.344C238.469 83.928 242.213 82.608 242.213 85.188C242.213 86.364 241.241 87.156 239.789 87.156ZM246.848 87.156C244.976 87.156 243.596 85.776 243.596 83.88C243.596 81.996 245 80.604 246.86 80.604C248.744 80.604 250.112 82.008 250.112 83.88C250.112 85.752 248.72 87.156 246.848 87.156ZM246.848 86.292C248.192 86.292 249.14 85.272 249.14 83.88C249.14 82.5 248.192 81.468 246.848 81.468C245.504 81.468 244.568 82.512 244.568 83.88C244.568 85.284 245.516 86.292 246.848 86.292ZM253.995 87.156C252.543 87.156 251.667 86.064 251.667 84.684V80.76H252.615V84.648C252.615 85.644 253.347 86.292 254.223 86.292C255.207 86.292 255.975 85.536 255.975 84.504V80.76H256.923V87H255.975V86.088H255.903C255.639 86.652 254.967 87.156 253.995 87.156ZM258.959 89.76V80.76H259.871V81.744H259.943C260.099 81.516 260.687 80.604 262.043 80.604C263.819 80.604 265.091 81.96 265.091 83.868C265.091 85.8 263.879 87.156 262.115 87.156C260.807 87.156 260.183 86.376 259.979 85.992H259.907V89.76H258.959ZM262.007 86.292C263.231 86.292 264.119 85.296 264.119 83.868C264.119 82.404 263.183 81.468 261.983 81.468C260.687 81.468 259.871 82.56 259.871 83.868C259.871 85.404 260.831 86.292 262.007 86.292ZM268.839 87.156C267.435 87.156 266.559 86.388 266.415 85.272L267.279 85.056C267.351 85.896 267.939 86.328 268.887 86.328C269.823 86.328 270.339 85.872 270.339 85.236C270.339 83.484 266.607 84.816 266.607 82.344C266.607 81.288 267.555 80.604 268.863 80.604C269.943 80.604 270.987 81.228 271.131 82.356L270.303 82.596C270.219 81.864 269.619 81.42 268.803 81.42C268.023 81.42 267.519 81.804 267.519 82.344C267.519 83.928 271.263 82.608 271.263 85.188C271.263 86.364 270.291 87.156 268.839 87.156ZM272.773 88.332L272.977 85.884H274.045L273.553 88.332H272.773ZM3.144 101.156C1.74 101.156 0.864 100.388 0.72 99.272L1.584 99.056C1.656 99.896 2.244 100.328 3.192 100.328C4.128 100.328 4.644 99.872 4.644 99.236C4.644 97.484 0.912 98.816 0.912 96.344C0.912 95.288 1.86 94.604 3.168 94.604C4.248 94.604 5.292 95.228 5.436 96.356L4.608 96.596C4.524 95.864 3.924 95.42 3.108 95.42C2.328 95.42 1.824 95.804 1.824 96.344C1.824 97.928 5.568 96.608 5.568 99.188C5.568 100.364 4.596 101.156 3.144 101.156ZM9.99956 101.156C8.21156 101.156 6.95156 99.8 6.95156 97.892C6.95156 95.972 8.15156 94.604 9.92756 94.604C11.2236 94.604 11.8716 95.444 12.0516 95.768H12.1236V94.76H13.0836V99.872C13.0836 100.064 13.2036 100.16 13.3956 100.16H13.6836V101H13.0716C12.5556 101 12.1716 100.616 12.1596 100.076V100.016H12.0876C11.9316 100.268 11.3556 101.156 9.99956 101.156ZM10.0476 100.304C11.3556 100.304 12.1596 99.212 12.1596 97.904C12.1596 96.356 11.1996 95.468 10.0356 95.468C8.81156 95.468 7.92356 96.476 7.92356 97.904C7.92356 99.356 8.84756 100.304 10.0476 100.304ZM17.6903 101.156C16.2383 101.156 15.3623 100.064 15.3623 98.684V94.76H16.3103V98.648C16.3103 99.644 17.0423 100.292 17.9183 100.292C18.9023 100.292 19.6703 99.536 19.6703 98.504V94.76H20.6183V101H19.6703V100.088H19.5983C19.3343 100.652 18.6623 101.156 17.6903 101.156ZM25.3782 101.156C23.4942 101.156 22.1742 99.728 22.1742 97.88C22.1742 96.032 23.5302 94.604 25.3662 94.604C26.7222 94.604 27.9222 95.42 28.2582 96.812L27.3222 97.028C27.1542 96.092 26.3622 95.468 25.3902 95.468C24.0582 95.468 23.1582 96.524 23.1582 97.88C23.1582 99.284 24.1062 100.292 25.4142 100.292C26.3862 100.292 27.1782 99.668 27.3462 98.732L28.2822 98.948C27.9462 100.34 26.7342 101.156 25.3782 101.156ZM32.5707 101.156C30.6747 101.156 29.4867 99.824 29.4867 97.904C29.4867 95.912 30.8547 94.604 32.5107 94.604C34.3947 94.604 35.4747 95.924 35.4747 97.796V98.144H30.4587C30.4707 99.536 31.2867 100.316 32.5827 100.316C33.4587 100.316 34.2627 99.812 34.4667 98.948L35.3907 99.164C35.0427 100.328 34.0107 101.156 32.5707 101.156ZM30.4827 97.376H34.5027C34.4427 96.08 33.5427 95.456 32.5107 95.456C31.4907 95.456 30.5547 96.2 30.4827 97.376ZM39.2143 101.156C37.8103 101.156 36.9343 100.388 36.7903 99.272L37.6543 99.056C37.7263 99.896 38.3143 100.328 39.2623 100.328C40.1983 100.328 40.7143 99.872 40.7143 99.236C40.7143 97.484 36.9823 98.816 36.9823 96.344C36.9823 95.288 37.9303 94.604 39.2383 94.604C40.3183 94.604 41.3623 95.228 41.5063 96.356L40.6783 96.596C40.5943 95.864 39.9943 95.42 39.1783 95.42C38.3983 95.42 37.8943 95.804 37.8943 96.344C37.8943 97.928 41.6383 96.608 41.6383 99.188C41.6383 100.364 40.6663 101.156 39.2143 101.156ZM43.1475 102.332L43.3515 99.884H44.4195L43.9275 102.332H43.1475ZM54.6434 101.156C52.8554 101.156 51.5954 99.8 51.5954 97.892C51.5954 95.972 52.7954 94.604 54.5714 94.604C55.8674 94.604 56.5154 95.444 56.6954 95.768H56.7674V94.76H57.7274V99.872C57.7274 100.064 57.8474 100.16 58.0394 100.16H58.3274V101H57.7154C57.1994 101 56.8154 100.616 56.8034 100.076V100.016H56.7314C56.5754 100.268 55.9994 101.156 54.6434 101.156ZM54.6914 100.304C55.9994 100.304 56.8034 99.212 56.8034 97.904C56.8034 96.356 55.8434 95.468 54.6794 95.468C53.4554 95.468 52.5674 96.476 52.5674 97.904C52.5674 99.356 53.4914 100.304 54.6914 100.304ZM60.1262 101V94.76H61.0742V95.672H61.1462C61.4102 95.108 62.0822 94.604 63.0542 94.604C64.5062 94.604 65.3822 95.696 65.3822 97.076V101H64.4342V97.136C64.4342 96.14 63.7022 95.492 62.8262 95.492C61.8422 95.492 61.0742 96.248 61.0742 97.28V101H60.1262ZM69.995 101.156C68.219 101.156 66.947 99.8 66.947 97.892C66.947 95.972 68.159 94.604 69.923 94.604C71.231 94.604 71.867 95.444 72.059 95.768H72.131V92H73.079V101H72.167V100.016H72.095C71.939 100.244 71.351 101.156 69.995 101.156ZM70.055 100.304C71.351 100.304 72.167 99.2 72.167 97.904C72.167 96.356 71.207 95.468 70.031 95.468C68.807 95.468 67.919 96.476 67.919 97.904C67.919 99.356 68.843 100.304 70.055 100.304ZM83.3029 101.156C81.5269 101.156 80.2549 99.8 80.2549 97.892C80.2549 95.972 81.4669 94.604 83.2309 94.604C84.5389 94.604 85.1749 95.444 85.3669 95.768H85.4389V92H86.3869V101H85.4749V100.016H85.4029C85.2469 100.244 84.6589 101.156 83.3029 101.156ZM83.3629 100.304C84.6589 100.304 85.4749 99.2 85.4749 97.904C85.4749 96.356 84.5149 95.468 83.3389 95.468C82.1149 95.468 81.2269 96.476 81.2269 97.904C81.2269 99.356 82.1509 100.304 83.3629 100.304ZM89.7064 93.632C89.3104 93.632 89.0224 93.332 89.0224 92.936C89.0224 92.552 89.3104 92.252 89.7064 92.252C90.1144 92.252 90.4024 92.552 90.4024 92.936C90.4024 93.332 90.1144 93.632 89.7064 93.632ZM89.2384 101V95.564H88.0624V94.76H90.1864V101H89.2384ZM92.5592 103.76V94.76H93.4712V95.744H93.5432C93.6992 95.516 94.2872 94.604 95.6432 94.604C97.4192 94.604 98.6912 95.96 98.6912 97.868C98.6912 99.8 97.4792 101.156 95.7152 101.156C94.4072 101.156 93.7832 100.376 93.5792 99.992H93.5072V103.76H92.5592ZM95.6072 100.292C96.8312 100.292 97.7192 99.296 97.7192 97.868C97.7192 96.404 96.7832 95.468 95.5832 95.468C94.2872 95.468 93.4712 96.56 93.4712 97.868C93.4712 99.404 94.4312 100.292 95.6072 100.292ZM102.44 101.156C101.036 101.156 100.16 100.388 100.016 99.272L100.88 99.056C100.952 99.896 101.54 100.328 102.488 100.328C103.424 100.328 103.94 99.872 103.94 99.236C103.94 97.484 100.208 98.816 100.208 96.344C100.208 95.288 101.156 94.604 102.464 94.604C103.544 94.604 104.588 95.228 104.732 96.356L103.904 96.596C103.82 95.864 103.22 95.42 102.404 95.42C101.624 95.42 101.12 95.804 101.12 96.344C101.12 97.928 104.864 96.608 104.864 99.188C104.864 100.364 103.892 101.156 102.44 101.156ZM107.057 101.156C106.685 101.156 106.373 100.856 106.373 100.484C106.373 100.112 106.685 99.812 107.057 99.812C107.429 99.812 107.729 100.112 107.729 100.484C107.729 100.856 107.429 101.156 107.057 101.156ZM115.514 101V92.6H117.182L119.594 100.112H119.666L122.078 92.6H123.746V101H122.81V93.488H122.738L120.302 101H118.958L116.522 93.488H116.45V101H115.514ZM128.591 101.156C126.803 101.156 125.543 99.8 125.543 97.892C125.543 95.972 126.743 94.604 128.519 94.604C129.815 94.604 130.463 95.444 130.643 95.768H130.715V94.76H131.675V99.872C131.675 100.064 131.795 100.16 131.987 100.16H132.275V101H131.663C131.147 101 130.763 100.616 130.751 100.076V100.016H130.679C130.523 100.268 129.947 101.156 128.591 101.156ZM128.639 100.304C129.947 100.304 130.751 99.212 130.751 97.904C130.751 96.356 129.791 95.468 128.627 95.468C127.403 95.468 126.515 96.476 126.515 97.904C126.515 99.356 127.439 100.304 128.639 100.304ZM136.642 101.156C134.866 101.156 133.594 99.8 133.594 97.892C133.594 95.972 134.806 94.604 136.57 94.604C137.878 94.604 138.514 95.444 138.706 95.768H138.778V92H139.726V101H138.814V100.016H138.742C138.586 100.244 137.998 101.156 136.642 101.156ZM136.702 100.304C137.998 100.304 138.814 99.2 138.814 97.904C138.814 96.356 137.854 95.468 136.678 95.468C135.454 95.468 134.566 96.476 134.566 97.904C134.566 99.356 135.49 100.304 136.702 100.304ZM144.366 101.156C142.47 101.156 141.282 99.824 141.282 97.904C141.282 95.912 142.65 94.604 144.306 94.604C146.19 94.604 147.27 95.924 147.27 97.796V98.144H142.254C142.266 99.536 143.082 100.316 144.378 100.316C145.254 100.316 146.058 99.812 146.262 98.948L147.186 99.164C146.838 100.328 145.806 101.156 144.366 101.156ZM142.278 97.376H146.298C146.238 96.08 145.338 95.456 144.306 95.456C143.286 95.456 142.35 96.2 142.278 97.376ZM155.022 101V95.564H153.846V94.76H155.022V93.776C155.022 92.516 155.778 92 156.918 92H157.746V92.828H156.906C156.246 92.828 155.97 93.116 155.97 93.788V94.76H157.794V95.564H155.97V101H155.022ZM159.417 101V94.76H160.353V95.804H160.425C160.605 95.276 161.217 94.604 162.129 94.604H162.537V95.552H161.973C160.833 95.552 160.365 96.476 160.365 97.664V101H159.417ZM166.631 101.156C164.759 101.156 163.379 99.776 163.379 97.88C163.379 95.996 164.783 94.604 166.643 94.604C168.527 94.604 169.895 96.008 169.895 97.88C169.895 99.752 168.503 101.156 166.631 101.156ZM166.631 100.292C167.975 100.292 168.923 99.272 168.923 97.88C168.923 96.5 167.975 95.468 166.631 95.468C165.287 95.468 164.351 96.512 164.351 97.88C164.351 99.284 165.299 100.292 166.631 100.292ZM171.57 101V94.76H172.518V95.66H172.59C172.89 95.084 173.49 94.604 174.414 94.604C175.35 94.604 176.034 95.06 176.382 95.744H176.466C176.886 94.94 177.57 94.604 178.446 94.604C179.838 94.604 180.738 95.588 180.738 96.956V101H179.79V97.268C179.79 96.092 179.202 95.492 178.278 95.492C177.402 95.492 176.634 96.116 176.634 97.28V101H175.686V97.088C175.686 96.092 175.014 95.492 174.138 95.492C173.262 95.492 172.518 96.188 172.518 97.244V101H171.57ZM190.961 101.156C189.185 101.156 187.913 99.8 187.913 97.892C187.913 95.972 189.125 94.604 190.889 94.604C192.197 94.604 192.833 95.444 193.025 95.768H193.097V92H194.045V101H193.133V100.016H193.061C192.905 100.244 192.317 101.156 190.961 101.156ZM191.021 100.304C192.317 100.304 193.133 99.2 193.133 97.904C193.133 96.356 192.173 95.468 190.997 95.468C189.773 95.468 188.885 96.476 188.885 97.904C188.885 99.356 189.809 100.304 191.021 100.304ZM198.289 101.156C196.837 101.156 195.961 100.064 195.961 98.684V94.76H196.909V98.648C196.909 99.644 197.641 100.292 198.517 100.292C199.501 100.292 200.269 99.536 200.269 98.504V94.76H201.217V101H200.269V100.088H200.197C199.933 100.652 199.261 101.156 198.289 101.156ZM203.253 101V94.76H204.189V95.804H204.261C204.441 95.276 205.053 94.604 205.965 94.604H206.373V95.552H205.809C204.669 95.552 204.201 96.476 204.201 97.664V101H203.253ZM210.262 101.156C208.474 101.156 207.214 99.8 207.214 97.892C207.214 95.972 208.414 94.604 210.19 94.604C211.486 94.604 212.134 95.444 212.314 95.768H212.386V94.76H213.346V99.872C213.346 100.064 213.466 100.16 213.658 100.16H213.946V101H213.334C212.818 101 212.434 100.616 212.422 100.076V100.016H212.35C212.194 100.268 211.618 101.156 210.262 101.156ZM210.31 100.304C211.618 100.304 212.422 99.212 212.422 97.904C212.422 96.356 211.462 95.468 210.298 95.468C209.074 95.468 208.186 96.476 208.186 97.904C208.186 99.356 209.11 100.304 210.31 100.304ZM218.829 101.156C217.473 101.156 216.885 100.244 216.729 100.016H216.657V101H215.745V92H216.693V95.768H216.765C216.957 95.444 217.593 94.604 218.901 94.604C220.665 94.604 221.877 95.972 221.877 97.892C221.877 99.8 220.605 101.156 218.829 101.156ZM218.769 100.304C219.969 100.304 220.905 99.356 220.905 97.904C220.905 96.476 220.017 95.468 218.793 95.468C217.617 95.468 216.657 96.356 216.657 97.904C216.657 99.212 217.473 100.304 218.769 100.304ZM222.898 101V100.184H224.158V92.816H222.898V92H225.106V100.184H226.366V101H222.898ZM230.349 101.156C228.453 101.156 227.265 99.824 227.265 97.904C227.265 95.912 228.633 94.604 230.289 94.604C232.173 94.604 233.253 95.924 233.253 97.796V98.144H228.237C228.249 99.536 229.065 100.316 230.361 100.316C231.237 100.316 232.041 99.812 232.245 98.948L233.169 99.164C232.821 100.328 231.789 101.156 230.349 101.156ZM228.261 97.376H232.281C232.221 96.08 231.321 95.456 230.289 95.456C229.269 95.456 228.333 96.2 228.261 97.376ZM234.574 102.332L234.778 99.884H235.846L235.354 102.332H234.574ZM243.958 101V95.564H242.782V94.76H243.958V93.776C243.958 92.516 244.714 92 245.854 92H246.682V92.828H245.842C245.182 92.828 244.906 93.116 244.906 93.788V94.76H246.73V95.564H244.906V101H243.958ZM251.008 101.156C249.136 101.156 247.756 99.776 247.756 97.88C247.756 95.996 249.16 94.604 251.02 94.604C252.904 94.604 254.272 96.008 254.272 97.88C254.272 99.752 252.88 101.156 251.008 101.156ZM251.008 100.292C252.352 100.292 253.3 99.272 253.3 97.88C253.3 96.5 252.352 95.468 251.008 95.468C249.664 95.468 248.728 96.512 248.728 97.88C248.728 99.284 249.676 100.292 251.008 100.292ZM258.719 101.156C256.847 101.156 255.467 99.776 255.467 97.88C255.467 95.996 256.871 94.604 258.731 94.604C260.615 94.604 261.983 96.008 261.983 97.88C261.983 99.752 260.591 101.156 258.719 101.156ZM258.719 100.292C260.063 100.292 261.011 99.272 261.011 97.88C261.011 96.5 260.063 95.468 258.719 95.468C257.375 95.468 256.439 96.512 256.439 97.88C256.439 99.284 257.387 100.292 258.719 100.292ZM266.226 101.156C264.45 101.156 263.178 99.8 263.178 97.892C263.178 95.972 264.39 94.604 266.154 94.604C267.462 94.604 268.098 95.444 268.29 95.768H268.362V92H269.31V101H268.398V100.016H268.326C268.17 100.244 267.582 101.156 266.226 101.156ZM266.286 100.304C267.582 100.304 268.398 99.2 268.398 97.904C268.398 96.356 267.438 95.468 266.262 95.468C265.038 95.468 264.15 96.476 264.15 97.904C264.15 99.356 265.074 100.304 266.286 100.304ZM271.106 97.832V96.944H274.166V97.832H271.106ZM2.136 117.76V116.884H4.848C5.508 116.884 5.784 116.56 5.784 115.888V113.992H5.712C5.508 114.376 4.884 115.156 3.576 115.156C1.812 115.156 0.6 113.8 0.6 111.868C0.6 109.96 1.872 108.604 3.648 108.604C5.004 108.604 5.592 109.516 5.748 109.744H5.82V108.76H6.732V115.984C6.732 117.244 5.976 117.76 4.836 117.76H2.136ZM3.684 114.292C4.86 114.292 5.82 113.404 5.82 111.868C5.82 110.56 5.004 109.468 3.708 109.468C2.508 109.468 1.572 110.404 1.572 111.868C1.572 113.296 2.46 114.292 3.684 114.292ZM8.7675 115V108.76H9.7035V109.804H9.7755C9.9555 109.276 10.5675 108.604 11.4795 108.604H11.8875V109.552H11.3235C10.1835 109.552 9.7155 110.476 9.7155 111.664V115H8.7675ZM15.7769 115.156C13.9889 115.156 12.7289 113.8 12.7289 111.892C12.7289 109.972 13.9289 108.604 15.7049 108.604C17.0009 108.604 17.6489 109.444 17.8289 109.768H17.9009V108.76H18.8609V113.872C18.8609 114.064 18.9809 114.16 19.1729 114.16H19.4609V115H18.8489C18.3329 115 17.9489 114.616 17.9369 114.076V114.016H17.8649C17.7089 114.268 17.1329 115.156 15.7769 115.156ZM15.8249 114.304C17.1329 114.304 17.9369 113.212 17.9369 111.904C17.9369 110.356 16.9769 109.468 15.8129 109.468C14.5889 109.468 13.7009 110.476 13.7009 111.904C13.7009 113.356 14.6249 114.304 15.8249 114.304ZM23.8277 115.156C22.0517 115.156 20.7797 113.8 20.7797 111.892C20.7797 109.972 21.9917 108.604 23.7557 108.604C25.0637 108.604 25.6997 109.444 25.8917 109.768H25.9637V106H26.9117V115H25.9997V114.016H25.9277C25.7717 114.244 25.1837 115.156 23.8277 115.156ZM23.8877 114.304C25.1837 114.304 25.9997 113.2 25.9997 111.904C25.9997 110.356 25.0397 109.468 23.8637 109.468C22.6397 109.468 21.7517 110.476 21.7517 111.904C21.7517 113.356 22.6757 114.304 23.8877 114.304ZM31.5512 115.156C29.6552 115.156 28.4672 113.824 28.4672 111.904C28.4672 109.912 29.8352 108.604 31.4912 108.604C33.3752 108.604 34.4552 109.924 34.4552 111.796V112.144H29.4392C29.4512 113.536 30.2672 114.316 31.5632 114.316C32.4392 114.316 33.2432 113.812 33.4472 112.948L34.3712 113.164C34.0232 114.328 32.9912 115.156 31.5512 115.156ZM29.4632 111.376H33.4832C33.4232 110.08 32.5232 109.456 31.4912 109.456C30.4712 109.456 29.5352 110.2 29.4632 111.376ZM42.3515 117.76V108.76H43.2635V109.744H43.3355C43.4915 109.516 44.0795 108.604 45.4355 108.604C47.2115 108.604 48.4835 109.96 48.4835 111.868C48.4835 113.8 47.2715 115.156 45.5075 115.156C44.1995 115.156 43.5755 114.376 43.3715 113.992H43.2995V117.76H42.3515ZM45.3995 114.292C46.6235 114.292 47.5115 113.296 47.5115 111.868C47.5115 110.404 46.5755 109.468 45.3755 109.468C44.0795 109.468 43.2635 110.56 43.2635 111.868C43.2635 113.404 44.2235 114.292 45.3995 114.292ZM49.5046 115V114.184H50.7646V106.816H49.5046V106H51.7126V114.184H52.9726V115H49.5046ZM56.9195 115.156C55.1315 115.156 53.8715 113.8 53.8715 111.892C53.8715 109.972 55.0715 108.604 56.8475 108.604C58.1435 108.604 58.7915 109.444 58.9715 109.768H59.0435V108.76H60.0035V113.872C60.0035 114.064 60.1235 114.16 60.3155 114.16H60.6035V115H59.9915C59.4755 115 59.0915 114.616 59.0795 114.076V114.016H59.0075C58.8515 114.268 58.2755 115.156 56.9195 115.156ZM56.9675 114.304C58.2755 114.304 59.0795 113.212 59.0795 111.904C59.0795 110.356 58.1195 109.468 56.9555 109.468C55.7315 109.468 54.8435 110.476 54.8435 111.904C54.8435 113.356 55.7675 114.304 56.9675 114.304ZM64.4663 115.156C63.0623 115.156 62.1863 114.388 62.0423 113.272L62.9063 113.056C62.9783 113.896 63.5663 114.328 64.5143 114.328C65.4503 114.328 65.9663 113.872 65.9663 113.236C65.9663 111.484 62.2343 112.816 62.2343 110.344C62.2343 109.288 63.1823 108.604 64.4903 108.604C65.5703 108.604 66.6143 109.228 66.7583 110.356L65.9303 110.596C65.8463 109.864 65.2463 109.42 64.4303 109.42C63.6503 109.42 63.1463 109.804 63.1463 110.344C63.1463 111.928 66.8903 110.608 66.8903 113.188C66.8903 114.364 65.9183 115.156 64.4663 115.156ZM71.2258 115C70.0858 115 69.3298 114.484 69.3298 113.224V109.564H68.1538V108.76H69.3898V106.948H70.2778V108.76H72.1978V109.564H70.2778V113.212C70.2778 113.884 70.5538 114.172 71.2138 114.172H72.1138V115H71.2258ZM75.2175 107.632C74.8215 107.632 74.5335 107.332 74.5335 106.936C74.5335 106.552 74.8215 106.252 75.2175 106.252C75.6255 106.252 75.9135 106.552 75.9135 106.936C75.9135 107.332 75.6255 107.632 75.2175 107.632ZM74.7495 115V109.564H73.5735V108.76H75.6975V115H74.7495ZM80.7942 115.156C78.9102 115.156 77.5902 113.728 77.5902 111.88C77.5902 110.032 78.9462 108.604 80.7822 108.604C82.1382 108.604 83.3382 109.42 83.6742 110.812L82.7382 111.028C82.5702 110.092 81.7782 109.468 80.8062 109.468C79.4742 109.468 78.5742 110.524 78.5742 111.88C78.5742 113.284 79.5222 114.292 80.8302 114.292C81.8022 114.292 82.5942 113.668 82.7622 112.732L83.6982 112.948C83.3622 114.34 82.1502 115.156 80.7942 115.156ZM85.0284 116.332L85.2324 113.884H86.3004L85.8084 116.332H85.0284ZM95.8406 107.632C95.4446 107.632 95.1566 107.332 95.1566 106.936C95.1566 106.552 95.4446 106.252 95.8406 106.252C96.2486 106.252 96.5366 106.552 96.5366 106.936C96.5366 107.332 96.2486 107.632 95.8406 107.632ZM95.3726 115V109.564H94.1966V108.76H96.3206V115H95.3726ZM101.165 115C100.025 115 99.2693 114.484 99.2693 113.224V109.564H98.0933V108.76H99.3293V106.948H100.217V108.76H102.137V109.564H100.217V113.212C100.217 113.884 100.493 114.172 101.153 114.172H102.053V115H101.165ZM110.094 117.76V108.76H111.006V109.744H111.078C111.234 109.516 111.822 108.604 113.178 108.604C114.954 108.604 116.226 109.96 116.226 111.868C116.226 113.8 115.014 115.156 113.25 115.156C111.942 115.156 111.318 114.376 111.114 113.992H111.042V117.76H110.094ZM113.142 114.292C114.366 114.292 115.254 113.296 115.254 111.868C115.254 110.404 114.318 109.468 113.118 109.468C111.822 109.468 111.006 110.56 111.006 111.868C111.006 113.404 111.966 114.292 113.142 114.292ZM120.478 115.156C118.69 115.156 117.43 113.8 117.43 111.892C117.43 109.972 118.63 108.604 120.406 108.604C121.702 108.604 122.35 109.444 122.53 109.768H122.602V108.76H123.562V113.872C123.562 114.064 123.682 114.16 123.874 114.16H124.162V115H123.55C123.034 115 122.65 114.616 122.638 114.076V114.016H122.566C122.41 114.268 121.834 115.156 120.478 115.156ZM120.526 114.304C121.834 114.304 122.638 113.212 122.638 111.904C122.638 110.356 121.678 109.468 120.514 109.468C119.29 109.468 118.402 110.476 118.402 111.904C118.402 113.356 119.326 114.304 120.526 114.304ZM127.245 107.632C126.849 107.632 126.561 107.332 126.561 106.936C126.561 106.552 126.849 106.252 127.245 106.252C127.653 106.252 127.941 106.552 127.941 106.936C127.941 107.332 127.653 107.632 127.245 107.632ZM126.777 115V109.564H125.601V108.76H127.725V115H126.777ZM130.098 115V108.76H131.034V109.804H131.106C131.286 109.276 131.898 108.604 132.81 108.604H133.218V109.552H132.654C131.514 109.552 131.046 110.476 131.046 111.664V115H130.098ZM136.837 115.156C135.433 115.156 134.557 114.388 134.413 113.272L135.277 113.056C135.349 113.896 135.937 114.328 136.885 114.328C137.821 114.328 138.337 113.872 138.337 113.236C138.337 111.484 134.605 112.816 134.605 110.344C134.605 109.288 135.553 108.604 136.861 108.604C137.941 108.604 138.985 109.228 139.129 110.356L138.301 110.596C138.217 109.864 137.617 109.42 136.801 109.42C136.021 109.42 135.517 109.804 135.517 110.344C135.517 111.928 139.261 110.608 139.261 113.188C139.261 114.364 138.289 115.156 136.837 115.156ZM148.57 115L146.626 108.76H147.658L149.182 114.112H149.254L150.778 108.76H152.098L153.61 114.112H153.682L155.218 108.76H156.25L154.294 115H152.974L151.474 109.648H151.402L149.89 115H148.57ZM158.977 107.632C158.581 107.632 158.293 107.332 158.293 106.936C158.293 106.552 158.581 106.252 158.977 106.252C159.385 106.252 159.673 106.552 159.673 106.936C159.673 107.332 159.385 107.632 158.977 107.632ZM158.509 115V109.564H157.333V108.76H159.457V115H158.509ZM164.302 115C163.162 115 162.406 114.484 162.406 113.224V109.564H161.23V108.76H162.466V106.948H163.354V108.76H165.274V109.564H163.354V113.212C163.354 113.884 163.63 114.172 164.29 114.172H165.19V115H164.302ZM167.01 115V106H167.958V109.672H168.03C168.294 109.108 168.99 108.604 169.962 108.604C171.414 108.604 172.314 109.696 172.314 111.076V115H171.366V111.136C171.366 110.14 170.61 109.492 169.734 109.492C168.774 109.492 167.958 110.2 167.958 111.208V115H167.01ZM183.146 115.156C181.358 115.156 180.098 113.8 180.098 111.892C180.098 109.972 181.298 108.604 183.074 108.604C184.37 108.604 185.018 109.444 185.198 109.768H185.27V108.76H186.23V113.872C186.23 114.064 186.35 114.16 186.542 114.16H186.83V115H186.218C185.702 115 185.318 114.616 185.306 114.076V114.016H185.234C185.078 114.268 184.502 115.156 183.146 115.156ZM183.194 114.304C184.502 114.304 185.306 113.212 185.306 111.904C185.306 110.356 184.346 109.468 183.182 109.468C181.958 109.468 181.07 110.476 181.07 111.904C181.07 113.356 181.994 114.304 183.194 114.304ZM196.914 115.156C195.51 115.156 194.634 114.388 194.49 113.272L195.354 113.056C195.426 113.896 196.014 114.328 196.962 114.328C197.898 114.328 198.414 113.872 198.414 113.236C198.414 111.484 194.682 112.816 194.682 110.344C194.682 109.288 195.63 108.604 196.938 108.604C198.018 108.604 199.062 109.228 199.206 110.356L198.378 110.596C198.294 109.864 197.694 109.42 196.878 109.42C196.098 109.42 195.594 109.804 195.594 110.344C195.594 111.928 199.338 110.608 199.338 113.188C199.338 114.364 198.366 115.156 196.914 115.156ZM203.805 115.156C201.909 115.156 200.721 113.824 200.721 111.904C200.721 109.912 202.089 108.604 203.745 108.604C205.629 108.604 206.709 109.924 206.709 111.796V112.144H201.693C201.705 113.536 202.521 114.316 203.817 114.316C204.693 114.316 205.497 113.812 205.701 112.948L206.625 113.164C206.277 114.328 205.245 115.156 203.805 115.156ZM201.717 111.376H205.737C205.677 110.08 204.777 109.456 203.745 109.456C202.725 109.456 201.789 110.2 201.717 111.376ZM211.109 115.156C209.225 115.156 207.905 113.728 207.905 111.88C207.905 110.032 209.261 108.604 211.097 108.604C212.453 108.604 213.653 109.42 213.989 110.812L213.053 111.028C212.885 110.092 212.093 109.468 211.121 109.468C209.789 109.468 208.889 110.524 208.889 111.88C208.889 113.284 209.837 114.292 211.145 114.292C212.117 114.292 212.909 113.668 213.077 112.732L214.013 112.948C213.677 114.34 212.465 115.156 211.109 115.156ZM217.905 115.156C216.453 115.156 215.577 114.064 215.577 112.684V108.76H216.525V112.648C216.525 113.644 217.257 114.292 218.133 114.292C219.117 114.292 219.885 113.536 219.885 112.504V108.76H220.833V115H219.885V114.088H219.813C219.549 114.652 218.877 115.156 217.905 115.156ZM222.869 115V108.76H223.805V109.804H223.877C224.057 109.276 224.669 108.604 225.581 108.604H225.989V109.552H225.425C224.285 109.552 223.817 110.476 223.817 111.664V115H222.869ZM229.914 115.156C228.018 115.156 226.83 113.824 226.83 111.904C226.83 109.912 228.198 108.604 229.854 108.604C231.738 108.604 232.818 109.924 232.818 111.796V112.144H227.802C227.814 113.536 228.63 114.316 229.926 114.316C230.802 114.316 231.606 113.812 231.81 112.948L232.734 113.164C232.386 114.328 231.354 115.156 229.914 115.156ZM227.826 111.376H231.846C231.786 110.08 230.886 109.456 229.854 109.456C228.834 109.456 227.898 110.2 227.826 111.376ZM240.415 115V114.184H241.675V106.816H240.415V106H242.623V114.184H243.883V115H240.415ZM246.428 107.632C246.032 107.632 245.744 107.332 245.744 106.936C245.744 106.552 246.032 106.252 246.428 106.252C246.836 106.252 247.124 106.552 247.124 106.936C247.124 107.332 246.836 107.632 246.428 107.632ZM245.96 115V109.564H244.784V108.76H246.908V115H245.96ZM251.849 115.156C250.073 115.156 248.801 113.8 248.801 111.892C248.801 109.972 250.013 108.604 251.777 108.604C253.085 108.604 253.721 109.444 253.913 109.768H253.985V106H254.933V115H254.021V114.016H253.949C253.793 114.244 253.205 115.156 251.849 115.156ZM251.909 114.304C253.205 114.304 254.021 113.2 254.021 111.904C254.021 110.356 253.061 109.468 251.885 109.468C250.661 109.468 249.773 110.476 249.773 111.904C249.773 113.356 250.697 114.304 251.909 114.304ZM265.661 115C264.521 115 263.765 114.484 263.765 113.224V109.564H262.589V108.76H263.825V106.948H264.713V108.76H266.633V109.564H264.713V113.212C264.713 113.884 264.989 114.172 265.649 114.172H266.549V115H265.661ZM271.141 115.156C269.269 115.156 267.889 113.776 267.889 111.88C267.889 109.996 269.293 108.604 271.153 108.604C273.037 108.604 274.405 110.008 274.405 111.88C274.405 113.752 273.013 115.156 271.141 115.156ZM271.141 114.292C272.485 114.292 273.433 113.272 273.433 111.88C273.433 110.5 272.485 109.468 271.141 109.468C269.797 109.468 268.861 110.512 268.861 111.88C268.861 113.284 269.809 114.292 271.141 114.292ZM1.08 129V120H2.028V125.172H3.12L4.884 122.76H5.976L3.924 125.52V125.592L6.132 129H5.004L3.156 126.036H2.028V129H1.08ZM9.82463 129.156C7.92863 129.156 6.74063 127.824 6.74063 125.904C6.74063 123.912 8.10863 122.604 9.76463 122.604C11.6486 122.604 12.7286 123.924 12.7286 125.796V126.144H7.71263C7.72462 127.536 8.54063 128.316 9.83663 128.316C10.7126 128.316 11.5166 127.812 11.7206 126.948L12.6446 127.164C12.2966 128.328 11.2646 129.156 9.82463 129.156ZM7.73663 125.376H11.7566C11.6966 124.08 10.7966 123.456 9.76463 123.456C8.74463 123.456 7.80863 124.2 7.73663 125.376ZM17.0082 129.156C15.1122 129.156 13.9242 127.824 13.9242 125.904C13.9242 123.912 15.2922 122.604 16.9482 122.604C18.8322 122.604 19.9122 123.924 19.9122 125.796V126.144H14.8962C14.9082 127.536 15.7242 128.316 17.0202 128.316C17.8962 128.316 18.7002 127.812 18.9042 126.948L19.8282 127.164C19.4802 128.328 18.4482 129.156 17.0082 129.156ZM14.9202 125.376H18.9402C18.8802 124.08 17.9802 123.456 16.9482 123.456C15.9282 123.456 14.9922 124.2 14.9202 125.376ZM21.5878 131.76V122.76H22.4998V123.744H22.5718C22.7278 123.516 23.3158 122.604 24.6718 122.604C26.4478 122.604 27.7198 123.96 27.7198 125.868C27.7198 127.8 26.5078 129.156 24.7438 129.156C23.4358 129.156 22.8118 128.376 22.6078 127.992H22.5358V131.76H21.5878ZM24.6358 128.292C25.8598 128.292 26.7478 127.296 26.7478 125.868C26.7478 124.404 25.8118 123.468 24.6118 123.468C23.3158 123.468 22.4998 124.56 22.4998 125.868C22.4998 127.404 23.4598 128.292 24.6358 128.292ZM37.3219 129V123.564H36.1459V122.76H37.3219V121.776C37.3219 120.516 38.0779 120 39.2179 120H40.0459V120.828H39.2059C38.5459 120.828 38.2699 121.116 38.2699 121.788V122.76H40.0939V123.564H38.2699V129H37.3219ZM44.3723 129.156C42.5003 129.156 41.1203 127.776 41.1203 125.88C41.1203 123.996 42.5243 122.604 44.3843 122.604C46.2683 122.604 47.6363 124.008 47.6363 125.88C47.6363 127.752 46.2443 129.156 44.3723 129.156ZM44.3723 128.292C45.7163 128.292 46.6643 127.272 46.6643 125.88C46.6643 124.5 45.7163 123.468 44.3723 123.468C43.0283 123.468 42.0923 124.512 42.0923 125.88C42.0923 127.284 43.0403 128.292 44.3723 128.292ZM52.0833 129.156C50.2113 129.156 48.8313 127.776 48.8313 125.88C48.8313 123.996 50.2353 122.604 52.0953 122.604C53.9793 122.604 55.3473 124.008 55.3473 125.88C55.3473 127.752 53.9553 129.156 52.0833 129.156ZM52.0833 128.292C53.4273 128.292 54.3753 127.272 54.3753 125.88C54.3753 124.5 53.4273 123.468 52.0833 123.468C50.7393 123.468 49.8033 124.512 49.8033 125.88C49.8033 127.284 50.7513 128.292 52.0833 128.292ZM59.5902 129.156C57.8142 129.156 56.5422 127.8 56.5422 125.892C56.5422 123.972 57.7542 122.604 59.5182 122.604C60.8262 122.604 61.4622 123.444 61.6542 123.768H61.7262V120H62.6742V129H61.7622V128.016H61.6902C61.5342 128.244 60.9462 129.156 59.5902 129.156ZM59.6502 128.304C60.9462 128.304 61.7622 127.2 61.7622 125.904C61.7622 124.356 60.8022 123.468 59.6262 123.468C58.4022 123.468 57.5142 124.476 57.5142 125.904C57.5142 127.356 58.4382 128.304 59.6502 128.304ZM72.6274 129V123.564H71.4514V122.76H72.6274V121.776C72.6274 120.516 73.3834 120 74.5234 120H75.3514V120.828H74.5114C73.8514 120.828 73.5754 121.116 73.5754 121.788V122.76H75.3994V123.564H73.5754V129H72.6274ZM77.023 129V122.76H77.959V123.804H78.031C78.211 123.276 78.823 122.604 79.735 122.604H80.143V123.552H79.579C78.439 123.552 77.971 124.476 77.971 125.664V129H77.023ZM84.0684 129.156C82.1724 129.156 80.9844 127.824 80.9844 125.904C80.9844 123.912 82.3524 122.604 84.0084 122.604C85.8924 122.604 86.9724 123.924 86.9724 125.796V126.144H81.9564C81.9684 127.536 82.7844 128.316 84.0804 128.316C84.9564 128.316 85.7604 127.812 85.9644 126.948L86.8884 127.164C86.5404 128.328 85.5084 129.156 84.0684 129.156ZM81.9804 125.376H86.0004C85.9404 124.08 85.0404 123.456 84.0084 123.456C82.9884 123.456 82.0524 124.2 81.9804 125.376ZM90.712 129.156C89.308 129.156 88.432 128.388 88.288 127.272L89.152 127.056C89.224 127.896 89.812 128.328 90.76 128.328C91.696 128.328 92.212 127.872 92.212 127.236C92.212 125.484 88.48 126.816 88.48 124.344C88.48 123.288 89.428 122.604 90.736 122.604C91.816 122.604 92.86 123.228 93.004 124.356L92.176 124.596C92.092 123.864 91.492 123.42 90.676 123.42C89.896 123.42 89.392 123.804 89.392 124.344C89.392 125.928 93.136 124.608 93.136 127.188C93.136 128.364 92.164 129.156 90.712 129.156ZM94.9995 129V120H95.9475V123.672H96.0195C96.2835 123.108 96.9795 122.604 97.9515 122.604C99.4035 122.604 100.304 123.696 100.304 125.076V129H99.3555V125.136C99.3555 124.14 98.5995 123.492 97.7235 123.492C96.7635 123.492 95.9475 124.2 95.9475 125.208V129H94.9995ZM112.377 129.156C110.589 129.156 109.329 127.8 109.329 125.892C109.329 123.972 110.529 122.604 112.305 122.604C113.601 122.604 114.249 123.444 114.429 123.768H114.501V122.76H115.461V127.872C115.461 128.064 115.581 128.16 115.773 128.16H116.061V129H115.449C114.933 129 114.549 128.616 114.537 128.076V128.016H114.465C114.309 128.268 113.733 129.156 112.377 129.156ZM112.425 128.304C113.733 128.304 114.537 127.212 114.537 125.904C114.537 124.356 113.577 123.468 112.413 123.468C111.189 123.468 110.301 124.476 110.301 125.904C110.301 127.356 111.225 128.304 112.425 128.304ZM117.86 129V122.76H118.808V123.672H118.88C119.144 123.108 119.816 122.604 120.788 122.604C122.24 122.604 123.116 123.696 123.116 125.076V129H122.168V125.136C122.168 124.14 121.436 123.492 120.56 123.492C119.576 123.492 118.808 124.248 118.808 125.28V129H117.86ZM127.728 129.156C125.952 129.156 124.68 127.8 124.68 125.892C124.68 123.972 125.892 122.604 127.656 122.604C128.964 122.604 129.6 123.444 129.792 123.768H129.864V120H130.812V129H129.9V128.016H129.828C129.672 128.244 129.084 129.156 127.728 129.156ZM127.788 128.304C129.084 128.304 129.9 127.2 129.9 125.904C129.9 124.356 128.94 123.468 127.764 123.468C126.54 123.468 125.652 124.476 125.652 125.904C125.652 127.356 126.576 128.304 127.788 128.304ZM142.374 129.156C140.97 129.156 140.094 128.388 139.95 127.272L140.814 127.056C140.886 127.896 141.474 128.328 142.422 128.328C143.358 128.328 143.874 127.872 143.874 127.236C143.874 125.484 140.142 126.816 140.142 124.344C140.142 123.288 141.09 122.604 142.398 122.604C143.478 122.604 144.522 123.228 144.666 124.356L143.838 124.596C143.754 123.864 143.154 123.42 142.338 123.42C141.558 123.42 141.054 123.804 141.054 124.344C141.054 125.928 144.798 124.608 144.798 127.188C144.798 128.364 143.826 129.156 142.374 129.156ZM146.661 131.76V122.76H147.573V123.744H147.645C147.801 123.516 148.389 122.604 149.745 122.604C151.521 122.604 152.793 123.96 152.793 125.868C152.793 127.8 151.581 129.156 149.817 129.156C148.509 129.156 147.885 128.376 147.681 127.992H147.609V131.76H146.661ZM149.709 128.292C150.933 128.292 151.821 127.296 151.821 125.868C151.821 124.404 150.885 123.468 149.685 123.468C148.389 123.468 147.573 124.56 147.573 125.868C147.573 127.404 148.533 128.292 149.709 128.292ZM155.762 121.632C155.366 121.632 155.078 121.332 155.078 120.936C155.078 120.552 155.366 120.252 155.762 120.252C156.17 120.252 156.458 120.552 156.458 120.936C156.458 121.332 156.17 121.632 155.762 121.632ZM155.294 129V123.564H154.118V122.76H156.242V129H155.294ZM158.314 129V128.184H159.574V120.816H158.314V120H160.522V128.184H161.782V129H158.314ZM162.978 129V128.184H164.238V120.816H162.978V120H165.186V128.184H166.446V129H162.978ZM167.703 125.832V124.944H170.763V125.832H167.703ZM173.133 129V123.564H171.957V122.76H173.133V121.776C173.133 120.516 173.889 120 175.029 120H175.857V120.828H175.017C174.357 120.828 174.081 121.116 174.081 121.788V122.76H175.905V123.564H174.081V129H173.133ZM177.528 129V122.76H178.464V123.804H178.536C178.716 123.276 179.328 122.604 180.24 122.604H180.648V123.552H180.084C178.944 123.552 178.476 124.476 178.476 125.664V129H177.528ZM184.574 129.156C182.678 129.156 181.49 127.824 181.49 125.904C181.49 123.912 182.858 122.604 184.514 122.604C186.398 122.604 187.478 123.924 187.478 125.796V126.144H182.462C182.474 127.536 183.29 128.316 184.586 128.316C185.462 128.316 186.266 127.812 186.47 126.948L187.394 127.164C187.046 128.328 186.014 129.156 184.574 129.156ZM182.486 125.376H186.506C186.446 124.08 185.546 123.456 184.514 123.456C183.494 123.456 182.558 124.2 182.486 125.376ZM191.757 129.156C189.861 129.156 188.673 127.824 188.673 125.904C188.673 123.912 190.041 122.604 191.697 122.604C193.581 122.604 194.661 123.924 194.661 125.796V126.144H189.645C189.657 127.536 190.473 128.316 191.769 128.316C192.645 128.316 193.449 127.812 193.653 126.948L194.577 127.164C194.229 128.328 193.197 129.156 191.757 129.156ZM189.669 125.376H193.689C193.629 124.08 192.729 123.456 191.697 123.456C190.677 123.456 189.741 124.2 189.669 125.376ZM196.097 125.796V124.98H205.493V125.796H196.097ZM207.411 131.76V122.76H208.323V123.744H208.395C208.551 123.516 209.139 122.604 210.495 122.604C212.271 122.604 213.543 123.96 213.543 125.868C213.543 127.8 212.331 129.156 210.567 129.156C209.259 129.156 208.635 128.376 208.431 127.992H208.359V131.76H207.411ZM210.459 128.292C211.683 128.292 212.571 127.296 212.571 125.868C212.571 124.404 211.635 123.468 210.435 123.468C209.139 123.468 208.323 124.56 208.323 125.868C208.323 127.404 209.283 128.292 210.459 128.292ZM217.832 129.156C215.936 129.156 214.748 127.824 214.748 125.904C214.748 123.912 216.116 122.604 217.772 122.604C219.656 122.604 220.736 123.924 220.736 125.796V126.144H215.72C215.732 127.536 216.548 128.316 217.844 128.316C218.72 128.316 219.524 127.812 219.728 126.948L220.652 127.164C220.304 128.328 219.272 129.156 217.832 129.156ZM215.744 125.376H219.764C219.704 124.08 218.804 123.456 217.772 123.456C216.752 123.456 215.816 124.2 215.744 125.376ZM222.411 129V122.76H223.347V123.804H223.419C223.599 123.276 224.211 122.604 225.123 122.604H225.531V123.552H224.967C223.827 123.552 223.359 124.476 223.359 125.664V129H222.411ZM227.543 129V123.564H226.367V122.76H227.543V121.776C227.543 120.516 228.299 120 229.439 120H230.267V120.828H229.427C228.767 120.828 228.491 121.116 228.491 121.788V122.76H230.315V123.564H228.491V129H227.543ZM234.425 129.156C232.529 129.156 231.341 127.824 231.341 125.904C231.341 123.912 232.709 122.604 234.365 122.604C236.249 122.604 237.329 123.924 237.329 125.796V126.144H232.313C232.325 127.536 233.141 128.316 234.437 128.316C235.313 128.316 236.117 127.812 236.321 126.948L237.245 127.164C236.897 128.328 235.865 129.156 234.425 129.156ZM232.337 125.376H236.357C236.297 124.08 235.397 123.456 234.365 123.456C233.345 123.456 232.409 124.2 232.337 125.376ZM241.729 129.156C239.845 129.156 238.525 127.728 238.525 125.88C238.525 124.032 239.881 122.604 241.717 122.604C243.073 122.604 244.273 123.42 244.609 124.812L243.673 125.028C243.505 124.092 242.713 123.468 241.741 123.468C240.409 123.468 239.509 124.524 239.509 125.88C239.509 127.284 240.457 128.292 241.765 128.292C242.737 128.292 243.529 127.668 243.697 126.732L244.633 126.948C244.297 128.34 243.085 129.156 241.729 129.156ZM248.79 129C247.65 129 246.894 128.484 246.894 127.224V123.564H245.718V122.76H246.954V120.948H247.842V122.76H249.762V123.564H247.842V127.212C247.842 127.884 248.118 128.172 248.778 128.172H249.678V129H248.79ZM259.415 129V123.564H258.239V122.76H259.415V121.776C259.415 120.516 260.171 120 261.311 120H262.139V120.828H261.299C260.639 120.828 260.363 121.116 260.363 121.788V122.76H262.187V123.564H260.363V129H259.415ZM266.465 129.156C264.593 129.156 263.213 127.776 263.213 125.88C263.213 123.996 264.617 122.604 266.477 122.604C268.361 122.604 269.729 124.008 269.729 125.88C269.729 127.752 268.337 129.156 266.465 129.156ZM266.465 128.292C267.809 128.292 268.757 127.272 268.757 125.88C268.757 124.5 267.809 123.468 266.465 123.468C265.121 123.468 264.185 124.512 264.185 125.88C264.185 127.284 265.133 128.292 266.465 128.292ZM271.404 129V122.76H272.34V123.804H272.412C272.592 123.276 273.204 122.604 274.116 122.604H274.524V123.552H273.96C272.82 123.552 272.352 124.476 272.352 125.664V129H271.404ZM1.08 145.76V136.76H1.992V137.744H2.064C2.22 137.516 2.808 136.604 4.164 136.604C5.94 136.604 7.212 137.96 7.212 139.868C7.212 141.8 6 143.156 4.236 143.156C2.928 143.156 2.304 142.376 2.1 141.992H2.028V145.76H1.08ZM4.128 142.292C5.352 142.292 6.24 141.296 6.24 139.868C6.24 138.404 5.304 137.468 4.104 137.468C2.808 137.468 1.992 138.56 1.992 139.868C1.992 141.404 2.952 142.292 4.128 142.292ZM8.89641 143V136.76H9.83241V137.804H9.90441C10.0844 137.276 10.6964 136.604 11.6084 136.604H12.0164V137.552H11.4524C10.3124 137.552 9.84441 138.476 9.84441 139.664V143H8.89641ZM15.9418 143.156C14.0458 143.156 12.8578 141.824 12.8578 139.904C12.8578 137.912 14.2258 136.604 15.8818 136.604C17.7658 136.604 18.8458 137.924 18.8458 139.796V140.144H13.8298C13.8418 141.536 14.6578 142.316 15.9538 142.316C16.8298 142.316 17.6338 141.812 17.8378 140.948L18.7618 141.164C18.4138 142.328 17.3818 143.156 15.9418 143.156ZM13.8538 139.376H17.8738C17.8138 138.08 16.9138 137.456 15.8818 137.456C14.8618 137.456 13.9258 138.2 13.8538 139.376ZM20.5214 145.76V136.76H21.4334V137.744H21.5054C21.6614 137.516 22.2494 136.604 23.6054 136.604C25.3814 136.604 26.6534 137.96 26.6534 139.868C26.6534 141.8 25.4414 143.156 23.6774 143.156C22.3694 143.156 21.7454 142.376 21.5414 141.992H21.4694V145.76H20.5214ZM23.5694 142.292C24.7934 142.292 25.6814 141.296 25.6814 139.868C25.6814 138.404 24.7454 137.468 23.5454 137.468C22.2494 137.468 21.4334 138.56 21.4334 139.868C21.4334 141.404 22.3934 142.292 23.5694 142.292ZM27.9834 144.332L28.1874 141.884H29.2554L28.7634 144.332H27.9834ZM36.7182 143.156C35.3142 143.156 34.4382 142.388 34.2942 141.272L35.1582 141.056C35.2302 141.896 35.8182 142.328 36.7662 142.328C37.7022 142.328 38.2182 141.872 38.2182 141.236C38.2182 139.484 34.4862 140.816 34.4862 138.344C34.4862 137.288 35.4342 136.604 36.7422 136.604C37.8222 136.604 38.8662 137.228 39.0102 138.356L38.1822 138.596C38.0982 137.864 37.4982 137.42 36.6822 137.42C35.9022 137.42 35.3982 137.804 35.3982 138.344C35.3982 139.928 39.1422 138.608 39.1422 141.188C39.1422 142.364 38.1702 143.156 36.7182 143.156ZM43.4778 143C42.3378 143 41.5818 142.484 41.5818 141.224V137.564H40.4058V136.76H41.6418V134.948H42.5298V136.76H44.4498V137.564H42.5298V141.212C42.5298 141.884 42.8058 142.172 43.4658 142.172H44.3658V143H43.4778ZM48.9575 143.156C47.0855 143.156 45.7055 141.776 45.7055 139.88C45.7055 137.996 47.1095 136.604 48.9695 136.604C50.8535 136.604 52.2215 138.008 52.2215 139.88C52.2215 141.752 50.8295 143.156 48.9575 143.156ZM48.9575 142.292C50.3015 142.292 51.2495 141.272 51.2495 139.88C51.2495 138.5 50.3015 137.468 48.9575 137.468C47.6135 137.468 46.6775 138.512 46.6775 139.88C46.6775 141.284 47.6255 142.292 48.9575 142.292ZM53.8964 143V136.76H54.8324V137.804H54.9044C55.0844 137.276 55.6964 136.604 56.6084 136.604H57.0164V137.552H56.4524C55.3124 137.552 54.8444 138.476 54.8444 139.664V143H53.8964ZM60.9058 143.156C59.1178 143.156 57.8578 141.8 57.8578 139.892C57.8578 137.972 59.0578 136.604 60.8338 136.604C62.1298 136.604 62.7778 137.444 62.9578 137.768H63.0298V136.76H63.9898V141.872C63.9898 142.064 64.1098 142.16 64.3018 142.16H64.5898V143H63.9778C63.4618 143 63.0778 142.616 63.0658 142.076V142.016H62.9938C62.8378 142.268 62.2618 143.156 60.9058 143.156ZM60.9538 142.304C62.2618 142.304 63.0658 141.212 63.0658 139.904C63.0658 138.356 62.1058 137.468 60.9418 137.468C59.7178 137.468 58.8298 138.476 58.8298 139.904C58.8298 141.356 59.7538 142.304 60.9538 142.304ZM67.4446 145.76V144.884H70.1566C70.8166 144.884 71.0926 144.56 71.0926 143.888V141.992H71.0206C70.8166 142.376 70.1926 143.156 68.8846 143.156C67.1206 143.156 65.9086 141.8 65.9086 139.868C65.9086 137.96 67.1806 136.604 68.9566 136.604C70.3126 136.604 70.9006 137.516 71.0566 137.744H71.1286V136.76H72.0406V143.984C72.0406 145.244 71.2846 145.76 70.1446 145.76H67.4446ZM68.9926 142.292C70.1686 142.292 71.1286 141.404 71.1286 139.868C71.1286 138.56 70.3126 137.468 69.0166 137.468C67.8166 137.468 66.8806 138.404 66.8806 139.868C66.8806 141.296 67.7686 142.292 68.9926 142.292ZM76.6801 143.156C74.7841 143.156 73.5961 141.824 73.5961 139.904C73.5961 137.912 74.9641 136.604 76.6201 136.604C78.5041 136.604 79.5841 137.924 79.5841 139.796V140.144H74.5681C74.5801 141.536 75.3961 142.316 76.6921 142.316C77.5681 142.316 78.3721 141.812 78.5761 140.948L79.5001 141.164C79.1521 142.328 78.1201 143.156 76.6801 143.156ZM74.5921 139.376H78.6121C78.5521 138.08 77.6521 137.456 76.6201 137.456C75.6001 137.456 74.6641 138.2 74.5921 139.376ZM80.9053 144.332L81.1093 141.884H82.1773L81.6853 144.332H80.9053ZM90.1441 143.156C88.3561 143.156 87.0961 141.8 87.0961 139.892C87.0961 137.972 88.2961 136.604 90.0721 136.604C91.3681 136.604 92.0161 137.444 92.1961 137.768H92.2681V136.76H93.2281V141.872C93.2281 142.064 93.3481 142.16 93.5401 142.16H93.8281V143H93.2161C92.7001 143 92.3161 142.616 92.3041 142.076V142.016H92.2321C92.0761 142.268 91.5001 143.156 90.1441 143.156ZM90.1921 142.304C91.5001 142.304 92.3041 141.212 92.3041 139.904C92.3041 138.356 91.3441 137.468 90.1801 137.468C88.9561 137.468 88.0681 138.476 88.0681 139.904C88.0681 141.356 88.9921 142.304 90.1921 142.304ZM95.6269 143V136.76H96.5749V137.672H96.6469C96.9109 137.108 97.5829 136.604 98.5549 136.604C100.007 136.604 100.883 137.696 100.883 139.076V143H99.9349V139.136C99.9349 138.14 99.2029 137.492 98.3269 137.492C97.3429 137.492 96.5749 138.248 96.5749 139.28V143H95.6269ZM105.496 143.156C103.72 143.156 102.448 141.8 102.448 139.892C102.448 137.972 103.66 136.604 105.424 136.604C106.732 136.604 107.368 137.444 107.56 137.768H107.632V134H108.58V143H107.668V142.016H107.596C107.44 142.244 106.852 143.156 105.496 143.156ZM105.556 142.304C106.852 142.304 107.668 141.2 107.668 139.904C107.668 138.356 106.708 137.468 105.532 137.468C104.308 137.468 103.42 138.476 103.42 139.904C103.42 141.356 104.344 142.304 105.556 142.304ZM116.45 143C115.31 143 114.554 142.484 114.554 141.224V137.564H113.378V136.76H114.614V134.948H115.502V136.76H117.422V137.564H115.502V141.212C115.502 141.884 115.778 142.172 116.438 142.172H117.338V143H116.45ZM121.726 143.156C119.938 143.156 118.678 141.8 118.678 139.892C118.678 137.972 119.878 136.604 121.654 136.604C122.95 136.604 123.598 137.444 123.778 137.768H123.85V136.76H124.81V141.872C124.81 142.064 124.93 142.16 125.122 142.16H125.41V143H124.798C124.282 143 123.898 142.616 123.886 142.076V142.016H123.814C123.658 142.268 123.082 143.156 121.726 143.156ZM121.774 142.304C123.082 142.304 123.886 141.212 123.886 139.904C123.886 138.356 122.926 137.468 121.762 137.468C120.538 137.468 119.65 138.476 119.65 139.904C119.65 141.356 120.574 142.304 121.774 142.304ZM127.209 143V134H128.157V139.172H129.249L131.013 136.76H132.105L130.053 139.52V139.592L132.261 143H131.133L129.285 140.036H128.157V143H127.209ZM135.954 143.156C134.058 143.156 132.87 141.824 132.87 139.904C132.87 137.912 134.238 136.604 135.894 136.604C137.778 136.604 138.858 137.924 138.858 139.796V140.144H133.842C133.854 141.536 134.67 142.316 135.966 142.316C136.842 142.316 137.646 141.812 137.85 140.948L138.774 141.164C138.426 142.328 137.394 143.156 135.954 143.156ZM133.866 139.376H137.886C137.826 138.08 136.926 137.456 135.894 137.456C134.874 137.456 133.938 138.2 133.866 139.376ZM140.293 139.832V138.944H143.353V139.832H140.293ZM148.04 143.156C146.168 143.156 144.788 141.776 144.788 139.88C144.788 137.996 146.192 136.604 148.052 136.604C149.936 136.604 151.304 138.008 151.304 139.88C151.304 141.752 149.912 143.156 148.04 143.156ZM148.04 142.292C149.384 142.292 150.332 141.272 150.332 139.88C150.332 138.5 149.384 137.468 148.04 137.468C146.696 137.468 145.76 138.512 145.76 139.88C145.76 141.284 146.708 142.292 148.04 142.292ZM155.186 143.156C153.734 143.156 152.858 142.064 152.858 140.684V136.76H153.806V140.648C153.806 141.644 154.538 142.292 155.414 142.292C156.398 142.292 157.166 141.536 157.166 140.504V136.76H158.114V143H157.166V142.088H157.094C156.83 142.652 156.158 143.156 155.186 143.156ZM162.622 143C161.482 143 160.726 142.484 160.726 141.224V137.564H159.55V136.76H160.786V134.948H161.674V136.76H163.594V137.564H161.674V141.212C161.674 141.884 161.95 142.172 162.61 142.172H163.51V143H162.622ZM165.894 143.156C165.522 143.156 165.21 142.856 165.21 142.484C165.21 142.112 165.522 141.812 165.894 141.812C166.266 141.812 166.566 142.112 166.566 142.484C166.566 142.856 166.266 143.156 165.894 143.156Z" fill="black"/>
<path d="M0.64 43.056V42.224L6.576 34.8H7.856L1.968 42.224L1.344 42.032H10.352V43.056H0.64ZM6.96 46V43.056L6.992 42.032V39.44H8.112V46H6.96ZM12.4021 46V34.8H13.3781L18.4981 43.536H17.9861L23.0581 34.8H24.0341V46H22.8981V36.576H23.1701L18.4981 44.576H17.9381L13.2341 36.576H13.5381V46H12.4021ZM27.6834 46V34.8H31.8754C32.8247 34.8 33.6407 34.9547 34.3234 35.264C35.006 35.5627 35.5287 36 35.8914 36.576C36.2647 37.1413 36.4514 37.8293 36.4514 38.64C36.4514 39.4293 36.2647 40.112 35.8914 40.688C35.5287 41.2533 35.006 41.6907 34.3234 42C33.6407 42.3093 32.8247 42.464 31.8754 42.464H28.3394L28.8674 41.904V46H27.6834ZM28.8674 42L28.3394 41.424H31.8434C32.9634 41.424 33.8114 41.184 34.3874 40.704C34.974 40.2133 35.2674 39.5253 35.2674 38.64C35.2674 37.744 34.974 37.0507 34.3874 36.56C33.8114 36.0693 32.9634 35.824 31.8434 35.824H28.3394L28.8674 35.264V42ZM38.3038 42.16V41.168H42.4958V42.16H38.3038ZM45.2771 46V34.8H49.4691C50.4185 34.8 51.2345 34.9547 51.9171 35.264C52.5998 35.5627 53.1225 36 53.4851 36.576C53.8585 37.1413 54.0451 37.8293 54.0451 38.64C54.0451 39.4293 53.8585 40.112 53.4851 40.688C53.1225 41.2533 52.5998 41.6907 51.9171 42C51.2345 42.2987 50.4185 42.448 49.4691 42.448H45.9331L46.4611 41.904V46H45.2771ZM52.9251 46L50.0451 41.936H51.3251L54.2211 46H52.9251ZM46.4611 42L45.9331 41.44H49.4371C50.5571 41.44 51.4051 41.1947 51.9811 40.704C52.5678 40.2133 52.8611 39.5253 52.8611 38.64C52.8611 37.744 52.5678 37.0507 51.9811 36.56C51.4051 36.0693 50.5571 35.824 49.4371 35.824H45.9331L46.4611 35.264V42ZM55.9756 42.16V41.168H60.1676V42.16H55.9756ZM63.6434 46V35.28L64.1554 35.824H61.0034V34.8H64.7954V46H63.6434ZM67.2646 46V45.184L71.9206 40.624C72.3473 40.208 72.6673 39.8453 72.8806 39.536C73.094 39.216 73.238 38.9173 73.3126 38.64C73.3873 38.3627 73.4246 38.1013 73.4246 37.856C73.4246 37.2053 73.2006 36.6933 72.7526 36.32C72.3153 35.9467 71.6646 35.76 70.8006 35.76C70.1393 35.76 69.5526 35.8613 69.0406 36.064C68.5393 36.2667 68.1073 36.5813 67.7446 37.008L66.9286 36.304C67.366 35.792 67.926 35.3973 68.6086 35.12C69.2913 34.8427 70.054 34.704 70.8966 34.704C71.654 34.704 72.31 34.8267 72.8646 35.072C73.4193 35.3067 73.846 35.6533 74.1446 36.112C74.454 36.5707 74.6086 37.1093 74.6086 37.728C74.6086 38.0907 74.5553 38.448 74.4486 38.8C74.3526 39.152 74.1713 39.5253 73.9046 39.92C73.6486 40.304 73.27 40.7413 72.7686 41.232L68.4966 45.424L68.1766 44.976H75.1206V46H67.2646ZM80.9991 46.096C80.1351 46.096 79.3671 45.872 78.6951 45.424C78.0231 44.9653 77.4951 44.3147 77.1111 43.472C76.7271 42.6187 76.5351 41.5947 76.5351 40.4C76.5351 39.2053 76.7271 38.1867 77.1111 37.344C77.4951 36.4907 78.0231 35.84 78.6951 35.392C79.3671 34.9333 80.1351 34.704 80.9991 34.704C81.8631 34.704 82.6311 34.9333 83.3031 35.392C83.9751 35.84 84.5031 36.4907 84.8871 37.344C85.2818 38.1867 85.4791 39.2053 85.4791 40.4C85.4791 41.5947 85.2818 42.6187 84.8871 43.472C84.5031 44.3147 83.9751 44.9653 83.3031 45.424C82.6311 45.872 81.8631 46.096 80.9991 46.096ZM80.9991 45.04C81.6605 45.04 82.2365 44.864 82.7271 44.512C83.2178 44.1493 83.6018 43.6267 83.8791 42.944C84.1565 42.2507 84.2951 41.4027 84.2951 40.4C84.2951 39.3973 84.1565 38.5547 83.8791 37.872C83.6018 37.1787 83.2178 36.656 82.7271 36.304C82.2365 35.9413 81.6605 35.76 80.9991 35.76C80.3591 35.76 79.7885 35.9413 79.2871 36.304C78.7858 36.656 78.3965 37.1787 78.1191 37.872C77.8418 38.5547 77.7031 39.3973 77.7031 40.4C77.7031 41.4027 77.8418 42.2507 78.1191 42.944C78.3965 43.6267 78.7858 44.1493 79.2871 44.512C79.7885 44.864 80.3591 45.04 80.9991 45.04Z" fill="black"/>
</svg>
