<svg width="275" height="160" viewBox="0 0 275 160" fill="none" xmlns="http://www.w3.org/2000/svg">
<path d="M0.63 17V15.434L5.634 10.682C6.054 10.286 6.366 9.938 6.57 9.638C6.774 9.338 6.906 9.062 6.966 8.81C7.038 8.546 7.074 8.3 7.074 8.072C7.074 7.496 6.876 7.052 6.48 6.74C6.084 6.416 5.502 6.254 4.734 6.254C4.122 6.254 3.564 6.362 3.06 6.578C2.568 6.794 2.142 7.124 1.782 7.568L0.144 6.308C0.636 5.648 1.296 5.138 2.124 4.778C2.964 4.406 3.9 4.22 4.932 4.22C5.844 4.22 6.636 4.37 7.308 4.67C7.992 4.958 8.514 5.372 8.874 5.912C9.246 6.452 9.432 7.094 9.432 7.838C9.432 8.246 9.378 8.654 9.27 9.062C9.162 9.458 8.958 9.878 8.658 10.322C8.358 10.766 7.92 11.264 7.344 11.816L3.042 15.902L2.556 15.02H9.918V17H0.63ZM15.4446 17.18C14.5566 17.18 13.6866 17.054 12.8346 16.802C11.9946 16.538 11.2866 16.178 10.7106 15.722L11.7006 13.904C12.1566 14.276 12.7086 14.576 13.3566 14.804C14.0166 15.032 14.7006 15.146 15.4086 15.146C16.2366 15.146 16.8846 14.972 17.3526 14.624C17.8326 14.276 18.0726 13.808 18.0726 13.22C18.0726 12.824 17.9706 12.476 17.7666 12.176C17.5746 11.876 17.2266 11.648 16.7226 11.492C16.2306 11.336 15.5526 11.258 14.6886 11.258H11.6466L12.2946 4.4H19.6926V6.362H13.1586L14.3826 5.246L13.8966 10.376L12.6726 9.278H15.2106C16.4586 9.278 17.4606 9.446 18.2166 9.782C18.9846 10.106 19.5426 10.562 19.8906 11.15C20.2506 11.726 20.4306 12.386 20.4306 13.13C20.4306 13.862 20.2506 14.534 19.8906 15.146C19.5306 15.758 18.9786 16.25 18.2346 16.622C17.5026 16.994 16.5726 17.18 15.4446 17.18ZM27.0363 17.18C26.0403 17.18 25.1403 16.928 24.3363 16.424C23.5443 15.92 22.9203 15.188 22.4643 14.228C22.0083 13.256 21.7803 12.08 21.7803 10.7C21.7803 9.32 22.0083 8.15 22.4643 7.19C22.9203 6.218 23.5443 5.48 24.3363 4.976C25.1403 4.472 26.0403 4.22 27.0363 4.22C28.0443 4.22 28.9443 4.472 29.7363 4.976C30.5283 5.48 31.1523 6.218 31.6083 7.19C32.0763 8.15 32.3103 9.32 32.3103 10.7C32.3103 12.08 32.0763 13.256 31.6083 14.228C31.1523 15.188 30.5283 15.92 29.7363 16.424C28.9443 16.928 28.0443 17.18 27.0363 17.18ZM27.0363 15.146C27.6243 15.146 28.1343 14.99 28.5663 14.678C28.9983 14.354 29.3343 13.862 29.5743 13.202C29.8263 12.542 29.9523 11.708 29.9523 10.7C29.9523 9.68 29.8263 8.846 29.5743 8.198C29.3343 7.538 28.9983 7.052 28.5663 6.74C28.1343 6.416 27.6243 6.254 27.0363 6.254C26.4723 6.254 25.9683 6.416 25.5243 6.74C25.0923 7.052 24.7503 7.538 24.4983 8.198C24.2583 8.846 24.1383 9.68 24.1383 10.7C24.1383 11.708 24.2583 12.542 24.4983 13.202C24.7503 13.862 25.0923 14.354 25.5243 14.678C25.9683 14.99 26.4723 15.146 27.0363 15.146ZM46.7076 7.28C47.4756 7.28 48.1536 7.43 48.7416 7.73C49.3416 8.03 49.8096 8.492 50.1456 9.116C50.4816 9.728 50.6496 10.52 50.6496 11.492V17H48.3996V11.78C48.3996 10.928 48.2136 10.292 47.8416 9.872C47.4696 9.452 46.9356 9.242 46.2396 9.242C45.7476 9.242 45.3096 9.35 44.9256 9.566C44.5536 9.782 44.2596 10.1 44.0436 10.52C43.8396 10.94 43.7376 11.474 43.7376 12.122V17H41.4876V11.78C41.4876 10.928 41.3016 10.292 40.9296 9.872C40.5576 9.452 40.0236 9.242 39.3276 9.242C38.8356 9.242 38.3976 9.35 38.0136 9.566C37.6416 9.782 37.3476 10.1 37.1316 10.52C36.9276 10.94 36.8256 11.474 36.8256 12.122V17H34.5756V7.388H36.7176V9.944L36.3396 9.188C36.6636 8.564 37.1316 8.09 37.7436 7.766C38.3676 7.442 39.0756 7.28 39.8676 7.28C40.7676 7.28 41.5476 7.502 42.2076 7.946C42.8796 8.39 43.3236 9.062 43.5396 9.962L42.6576 9.656C42.9696 8.936 43.4856 8.36 44.2056 7.928C44.9256 7.496 45.7596 7.28 46.7076 7.28ZM53.5248 17V3.644H55.7748V17H53.5248ZM63.9186 17V4.4H69.1026C70.2186 4.4 71.1726 4.58 71.9646 4.94C72.7686 5.3 73.3866 5.816 73.8186 6.488C74.2506 7.16 74.4666 7.958 74.4666 8.882C74.4666 9.806 74.2506 10.604 73.8186 11.276C73.3866 11.936 72.7686 12.446 71.9646 12.806C71.1726 13.154 70.2186 13.328 69.1026 13.328H65.2146L66.2586 12.266V17H63.9186ZM72.1626 17L68.9766 12.428H71.4786L74.6826 17H72.1626ZM66.2586 12.518L65.2146 11.402H68.9946C70.0266 11.402 70.8006 11.18 71.3166 10.736C71.8446 10.292 72.1086 9.674 72.1086 8.882C72.1086 8.078 71.8446 7.46 71.3166 7.028C70.8006 6.596 70.0266 6.38 68.9946 6.38H65.2146L66.2586 5.228V12.518ZM81.1886 17.126C80.2046 17.126 79.3286 16.916 78.5606 16.496C77.7926 16.064 77.1866 15.476 76.7426 14.732C76.2986 13.988 76.0766 13.142 76.0766 12.194C76.0766 11.234 76.2986 10.388 76.7426 9.656C77.1866 8.912 77.7926 8.33 78.5606 7.91C79.3286 7.49 80.2046 7.28 81.1886 7.28C82.1846 7.28 83.0666 7.49 83.8346 7.91C84.6146 8.33 85.2206 8.906 85.6526 9.638C86.0966 10.37 86.3186 11.222 86.3186 12.194C86.3186 13.142 86.0966 13.988 85.6526 14.732C85.2206 15.476 84.6146 16.064 83.8346 16.496C83.0666 16.916 82.1846 17.126 81.1886 17.126ZM81.1886 15.2C81.7406 15.2 82.2326 15.08 82.6646 14.84C83.0966 14.6 83.4326 14.252 83.6726 13.796C83.9246 13.34 84.0506 12.806 84.0506 12.194C84.0506 11.57 83.9246 11.036 83.6726 10.592C83.4326 10.136 83.0966 9.788 82.6646 9.548C82.2326 9.308 81.7466 9.188 81.2066 9.188C80.6546 9.188 80.1626 9.308 79.7306 9.548C79.3106 9.788 78.9746 10.136 78.7226 10.592C78.4706 11.036 78.3446 11.57 78.3446 12.194C78.3446 12.806 78.4706 13.34 78.7226 13.796C78.9746 14.252 79.3106 14.6 79.7306 14.84C80.1626 15.08 80.6486 15.2 81.1886 15.2ZM92.5381 17.126C91.7221 17.126 91.0021 16.976 90.3781 16.676C89.7541 16.364 89.2681 15.896 88.9201 15.272C88.5721 14.636 88.3981 13.838 88.3981 12.878V7.388H90.6481V12.572C90.6481 13.436 90.8401 14.084 91.2241 14.516C91.6201 14.936 92.1781 15.146 92.8981 15.146C93.4261 15.146 93.8821 15.038 94.2661 14.822C94.6621 14.606 94.9681 14.282 95.1841 13.85C95.4121 13.418 95.5261 12.884 95.5261 12.248V7.388H97.7761V17H95.6341V14.408L96.0121 15.2C95.6881 15.824 95.2141 16.304 94.5901 16.64C93.9661 16.964 93.2821 17.126 92.5381 17.126ZM106.176 7.28C106.944 7.28 107.628 7.43 108.228 7.73C108.84 8.03 109.32 8.492 109.668 9.116C110.016 9.728 110.19 10.52 110.19 11.492V17H107.94V11.78C107.94 10.928 107.736 10.292 107.328 9.872C106.932 9.452 106.374 9.242 105.654 9.242C105.126 9.242 104.658 9.35 104.25 9.566C103.842 9.782 103.524 10.106 103.296 10.538C103.08 10.958 102.972 11.492 102.972 12.14V17H100.722V7.388H102.864V9.98L102.486 9.188C102.822 8.576 103.308 8.108 103.944 7.784C104.592 7.448 105.336 7.28 106.176 7.28ZM117.13 17.126C116.206 17.126 115.372 16.922 114.628 16.514C113.896 16.094 113.32 15.518 112.9 14.786C112.48 14.054 112.27 13.19 112.27 12.194C112.27 11.198 112.48 10.334 112.9 9.602C113.32 8.87 113.896 8.3 114.628 7.892C115.372 7.484 116.206 7.28 117.13 7.28C117.934 7.28 118.654 7.46 119.29 7.82C119.926 8.168 120.43 8.702 120.802 9.422C121.174 10.142 121.36 11.066 121.36 12.194C121.36 13.31 121.18 14.234 120.82 14.966C120.46 15.686 119.962 16.226 119.326 16.586C118.69 16.946 117.958 17.126 117.13 17.126ZM117.4 15.2C117.94 15.2 118.42 15.08 118.84 14.84C119.272 14.6 119.614 14.252 119.866 13.796C120.13 13.34 120.262 12.806 120.262 12.194C120.262 11.57 120.13 11.036 119.866 10.592C119.614 10.136 119.272 9.788 118.84 9.548C118.42 9.308 117.94 9.188 117.4 9.188C116.86 9.188 116.374 9.308 115.942 9.548C115.522 9.788 115.18 10.136 114.916 10.592C114.664 11.036 114.538 11.57 114.538 12.194C114.538 12.806 114.664 13.34 114.916 13.796C115.18 14.252 115.522 14.6 115.942 14.84C116.374 15.08 116.86 15.2 117.4 15.2ZM120.316 17V14.732L120.406 12.176L120.226 9.62V3.644H122.458V17H120.316ZM136.442 17.18C135.482 17.18 134.588 17.024 133.76 16.712C132.944 16.388 132.23 15.938 131.618 15.362C131.018 14.774 130.55 14.084 130.214 13.292C129.878 12.5 129.71 11.636 129.71 10.7C129.71 9.764 129.878 8.9 130.214 8.108C130.55 7.316 131.024 6.632 131.636 6.056C132.248 5.468 132.962 5.018 133.778 4.706C134.594 4.382 135.488 4.22 136.46 4.22C137.492 4.22 138.434 4.4 139.286 4.76C140.138 5.108 140.858 5.63 141.446 6.326L139.934 7.748C139.478 7.256 138.968 6.89 138.404 6.65C137.84 6.398 137.228 6.272 136.568 6.272C135.908 6.272 135.302 6.38 134.75 6.596C134.21 6.812 133.736 7.118 133.328 7.514C132.932 7.91 132.62 8.378 132.392 8.918C132.176 9.458 132.068 10.052 132.068 10.7C132.068 11.348 132.176 11.942 132.392 12.482C132.62 13.022 132.932 13.49 133.328 13.886C133.736 14.282 134.21 14.588 134.75 14.804C135.302 15.02 135.908 15.128 136.568 15.128C137.228 15.128 137.84 15.008 138.404 14.768C138.968 14.516 139.478 14.138 139.934 13.634L141.446 15.074C140.858 15.758 140.138 16.28 139.286 16.64C138.434 17 137.486 17.18 136.442 17.18ZM147.423 17.126C146.439 17.126 145.563 16.916 144.795 16.496C144.027 16.064 143.421 15.476 142.977 14.732C142.533 13.988 142.311 13.142 142.311 12.194C142.311 11.234 142.533 10.388 142.977 9.656C143.421 8.912 144.027 8.33 144.795 7.91C145.563 7.49 146.439 7.28 147.423 7.28C148.419 7.28 149.301 7.49 150.069 7.91C150.849 8.33 151.455 8.906 151.887 9.638C152.331 10.37 152.553 11.222 152.553 12.194C152.553 13.142 152.331 13.988 151.887 14.732C151.455 15.476 150.849 16.064 150.069 16.496C149.301 16.916 148.419 17.126 147.423 17.126ZM147.423 15.2C147.975 15.2 148.467 15.08 148.899 14.84C149.331 14.6 149.667 14.252 149.907 13.796C150.159 13.34 150.285 12.806 150.285 12.194C150.285 11.57 150.159 11.036 149.907 10.592C149.667 10.136 149.331 9.788 148.899 9.548C148.467 9.308 147.981 9.188 147.441 9.188C146.889 9.188 146.397 9.308 145.965 9.548C145.545 9.788 145.209 10.136 144.957 10.592C144.705 11.036 144.579 11.57 144.579 12.194C144.579 12.806 144.705 13.34 144.957 13.796C145.209 14.252 145.545 14.6 145.965 14.84C146.397 15.08 146.883 15.2 147.423 15.2ZM160.159 7.28C160.927 7.28 161.611 7.43 162.211 7.73C162.823 8.03 163.303 8.492 163.651 9.116C163.999 9.728 164.173 10.52 164.173 11.492V17H161.923V11.78C161.923 10.928 161.719 10.292 161.311 9.872C160.915 9.452 160.357 9.242 159.637 9.242C159.109 9.242 158.641 9.35 158.233 9.566C157.825 9.782 157.507 10.106 157.279 10.538C157.063 10.958 156.955 11.492 156.955 12.14V17H154.705V7.388H156.847V9.98L156.469 9.188C156.805 8.576 157.291 8.108 157.927 7.784C158.575 7.448 159.319 7.28 160.159 7.28ZM170.645 17.126C169.589 17.126 168.773 16.856 168.197 16.316C167.621 15.764 167.333 14.954 167.333 13.886V5.264H169.583V13.832C169.583 14.288 169.697 14.642 169.925 14.894C170.165 15.146 170.495 15.272 170.915 15.272C171.419 15.272 171.839 15.14 172.175 14.876L172.805 16.478C172.541 16.694 172.217 16.856 171.833 16.964C171.449 17.072 171.053 17.126 170.645 17.126ZM165.749 9.26V7.46H172.157V9.26H165.749ZM180.578 17V15.056L180.452 14.642V11.24C180.452 10.58 180.254 10.07 179.858 9.71C179.462 9.338 178.862 9.152 178.058 9.152C177.518 9.152 176.984 9.236 176.456 9.404C175.94 9.572 175.502 9.806 175.142 10.106L174.26 8.468C174.776 8.072 175.388 7.778 176.096 7.586C176.816 7.382 177.56 7.28 178.328 7.28C179.72 7.28 180.794 7.616 181.55 8.288C182.318 8.948 182.702 9.974 182.702 11.366V17H180.578ZM177.554 17.126C176.834 17.126 176.204 17.006 175.664 16.766C175.124 16.514 174.704 16.172 174.404 15.74C174.116 15.296 173.972 14.798 173.972 14.246C173.972 13.706 174.098 13.22 174.35 12.788C174.614 12.356 175.04 12.014 175.628 11.762C176.216 11.51 176.996 11.384 177.968 11.384H180.758V12.878H178.13C177.362 12.878 176.846 13.004 176.582 13.256C176.318 13.496 176.186 13.796 176.186 14.156C176.186 14.564 176.348 14.888 176.672 15.128C176.996 15.368 177.446 15.488 178.022 15.488C178.574 15.488 179.066 15.362 179.498 15.11C179.942 14.858 180.26 14.486 180.452 13.994L180.83 15.344C180.614 15.908 180.224 16.346 179.66 16.658C179.108 16.97 178.406 17.126 177.554 17.126ZM185.589 17V7.388H187.839V17H185.589ZM186.723 5.804C186.303 5.804 185.955 5.672 185.679 5.408C185.415 5.144 185.283 4.826 185.283 4.454C185.283 4.07 185.415 3.752 185.679 3.5C185.955 3.236 186.303 3.104 186.723 3.104C187.143 3.104 187.485 3.23 187.749 3.482C188.025 3.722 188.163 4.028 188.163 4.4C188.163 4.796 188.031 5.132 187.767 5.408C187.503 5.672 187.155 5.804 186.723 5.804ZM196.246 7.28C197.014 7.28 197.698 7.43 198.298 7.73C198.91 8.03 199.39 8.492 199.738 9.116C200.086 9.728 200.26 10.52 200.26 11.492V17H198.01V11.78C198.01 10.928 197.806 10.292 197.398 9.872C197.002 9.452 196.444 9.242 195.724 9.242C195.196 9.242 194.728 9.35 194.32 9.566C193.912 9.782 193.594 10.106 193.366 10.538C193.15 10.958 193.042 11.492 193.042 12.14V17H190.792V7.388H192.934V9.98L192.556 9.188C192.892 8.576 193.378 8.108 194.014 7.784C194.662 7.448 195.406 7.28 196.246 7.28ZM207.65 17.126C206.582 17.126 205.646 16.916 204.842 16.496C204.05 16.064 203.432 15.476 202.988 14.732C202.556 13.988 202.34 13.142 202.34 12.194C202.34 11.234 202.55 10.388 202.97 9.656C203.402 8.912 203.99 8.33 204.734 7.91C205.49 7.49 206.348 7.28 207.308 7.28C208.244 7.28 209.078 7.484 209.81 7.892C210.542 8.3 211.118 8.876 211.538 9.62C211.958 10.364 212.168 11.24 212.168 12.248C212.168 12.344 212.162 12.452 212.15 12.572C212.15 12.692 212.144 12.806 212.132 12.914H204.122V11.42H210.944L210.062 11.888C210.074 11.336 209.96 10.85 209.72 10.43C209.48 10.01 209.15 9.68 208.73 9.44C208.322 9.2 207.848 9.08 207.308 9.08C206.756 9.08 206.27 9.2 205.85 9.44C205.442 9.68 205.118 10.016 204.878 10.448C204.65 10.868 204.536 11.366 204.536 11.942V12.302C204.536 12.878 204.668 13.388 204.932 13.832C205.196 14.276 205.568 14.618 206.048 14.858C206.528 15.098 207.08 15.218 207.704 15.218C208.244 15.218 208.73 15.134 209.162 14.966C209.594 14.798 209.978 14.534 210.314 14.174L211.52 15.56C211.088 16.064 210.542 16.454 209.882 16.73C209.234 16.994 208.49 17.126 207.65 17.126ZM214.33 17V7.388H216.472V10.034L216.22 9.26C216.508 8.612 216.958 8.12 217.57 7.784C218.194 7.448 218.968 7.28 219.892 7.28V9.422C219.796 9.398 219.706 9.386 219.622 9.386C219.538 9.374 219.454 9.368 219.37 9.368C218.518 9.368 217.84 9.62 217.336 10.124C216.832 10.616 216.58 11.354 216.58 12.338V17H214.33ZM226.557 14.894V13.022L234.153 10.178V11.222L226.557 8.378V6.506L234.855 9.728V11.672L226.557 14.894Z" fill="#CE3439"/>
<path d="M6.828 87L6.096 85.008H1.992L1.26 87H0.24L3.372 78.6H4.752L7.848 87H6.828ZM2.316 84.12H5.772L4.08 79.488H4.008L2.316 84.12ZM18.6388 87L16.3108 80.76H17.3308L19.2148 86.112H19.2868L21.1588 80.76H22.2028L19.8868 87H18.6388ZM26.127 87.156C24.231 87.156 23.043 85.824 23.043 83.904C23.043 81.912 24.411 80.604 26.067 80.604C27.951 80.604 29.031 81.924 29.031 83.796V84.144H24.015C24.027 85.536 24.843 86.316 26.139 86.316C27.015 86.316 27.819 85.812 28.023 84.948L28.947 85.164C28.599 86.328 27.567 87.156 26.127 87.156ZM24.039 83.376H28.059C27.999 82.08 27.099 81.456 26.067 81.456C25.047 81.456 24.111 82.2 24.039 83.376ZM30.7066 87V80.76H31.6426V81.804H31.7146C31.8946 81.276 32.5066 80.604 33.4186 80.604H33.8266V81.552H33.2626C32.1226 81.552 31.6546 82.476 31.6546 83.664V87H30.7066ZM37.4463 87.156C36.0423 87.156 35.1663 86.388 35.0223 85.272L35.8863 85.056C35.9583 85.896 36.5463 86.328 37.4943 86.328C38.4303 86.328 38.9463 85.872 38.9463 85.236C38.9463 83.484 35.2143 84.816 35.2143 82.344C35.2143 81.288 36.1623 80.604 37.4703 80.604C38.5503 80.604 39.5943 81.228 39.7383 82.356L38.9103 82.596C38.8263 81.864 38.2263 81.42 37.4103 81.42C36.6303 81.42 36.1263 81.804 36.1263 82.344C36.1263 83.928 39.8703 82.608 39.8703 85.188C39.8703 86.364 38.8983 87.156 37.4463 87.156ZM44.3019 87.156C42.5139 87.156 41.2539 85.8 41.2539 83.892C41.2539 81.972 42.4539 80.604 44.2299 80.604C45.5259 80.604 46.1739 81.444 46.3539 81.768H46.4259V80.76H47.3859V85.872C47.3859 86.064 47.5059 86.16 47.6979 86.16H47.9859V87H47.3739C46.8579 87 46.4739 86.616 46.4619 86.076V86.016H46.3899C46.2339 86.268 45.6579 87.156 44.3019 87.156ZM44.3499 86.304C45.6579 86.304 46.4619 85.212 46.4619 83.904C46.4619 82.356 45.5019 81.468 44.3379 81.468C43.1139 81.468 42.2259 82.476 42.2259 83.904C42.2259 85.356 43.1499 86.304 44.3499 86.304ZM52.2567 87C51.1167 87 50.3607 86.484 50.3607 85.224V81.564H49.1847V80.76H50.4207V78.948H51.3087V80.76H53.2287V81.564H51.3087V85.212C51.3087 85.884 51.5847 86.172 52.2447 86.172H53.1447V87H52.2567ZM56.2484 79.632C55.8524 79.632 55.5644 79.332 55.5644 78.936C55.5644 78.552 55.8524 78.252 56.2484 78.252C56.6564 78.252 56.9444 78.552 56.9444 78.936C56.9444 79.332 56.6564 79.632 56.2484 79.632ZM55.7804 87V81.564H54.6044V80.76H56.7284V87H55.7804ZM58.8011 87V86.184H60.0611V78.816H58.8011V78H61.0091V86.184H62.2691V87H58.8011ZM66.252 87.156C64.356 87.156 63.168 85.824 63.168 83.904C63.168 81.912 64.536 80.604 66.192 80.604C68.076 80.604 69.156 81.924 69.156 83.796V84.144H64.14C64.152 85.536 64.968 86.316 66.264 86.316C67.14 86.316 67.944 85.812 68.148 84.948L69.072 85.164C68.724 86.328 67.692 87.156 66.252 87.156ZM64.164 83.376H68.184C68.124 82.08 67.224 81.456 66.192 81.456C65.172 81.456 64.236 82.2 64.164 83.376ZM78.6964 87V80.76H79.6444V81.66H79.7164C80.0164 81.084 80.6164 80.604 81.5404 80.604C82.4764 80.604 83.1604 81.06 83.5084 81.744H83.5924C84.0124 80.94 84.6964 80.604 85.5724 80.604C86.9644 80.604 87.8644 81.588 87.8644 82.956V87H86.9164V83.268C86.9164 82.092 86.3284 81.492 85.4044 81.492C84.5284 81.492 83.7604 82.116 83.7604 83.28V87H82.8124V83.088C82.8124 82.092 82.1404 81.492 81.2644 81.492C80.3884 81.492 79.6444 82.188 79.6444 83.244V87H78.6964ZM91.1835 79.632C90.7875 79.632 90.4995 79.332 90.4995 78.936C90.4995 78.552 90.7875 78.252 91.1835 78.252C91.5915 78.252 91.8795 78.552 91.8795 78.936C91.8795 79.332 91.5915 79.632 91.1835 79.632ZM90.7155 87V81.564H89.5395V80.76H91.6635V87H90.7155ZM96.6043 87.156C94.8283 87.156 93.5563 85.8 93.5563 83.892C93.5563 81.972 94.7683 80.604 96.5323 80.604C97.8403 80.604 98.4763 81.444 98.6683 81.768H98.7403V78H99.6883V87H98.7763V86.016H98.7043C98.5483 86.244 97.9603 87.156 96.6043 87.156ZM96.6643 86.304C97.9603 86.304 98.7763 85.2 98.7763 83.904C98.7763 82.356 97.8163 81.468 96.6403 81.468C95.4163 81.468 94.5283 82.476 94.5283 83.904C94.5283 85.356 95.4523 86.304 96.6643 86.304ZM101.484 83.832V82.944H104.544V83.832H101.484ZM108.522 87.156C107.118 87.156 106.242 86.388 106.098 85.272L106.962 85.056C107.034 85.896 107.622 86.328 108.57 86.328C109.506 86.328 110.022 85.872 110.022 85.236C110.022 83.484 106.29 84.816 106.29 82.344C106.29 81.288 107.238 80.604 108.546 80.604C109.626 80.604 110.67 81.228 110.814 82.356L109.986 82.596C109.902 81.864 109.302 81.42 108.486 81.42C107.706 81.42 107.202 81.804 107.202 82.344C107.202 83.928 110.946 82.608 110.946 85.188C110.946 86.364 109.974 87.156 108.522 87.156ZM114.094 79.632C113.698 79.632 113.41 79.332 113.41 78.936C113.41 78.552 113.698 78.252 114.094 78.252C114.502 78.252 114.79 78.552 114.79 78.936C114.79 79.332 114.502 79.632 114.094 79.632ZM113.626 87V81.564H112.45V80.76H114.574V87H113.626ZM116.586 87V85.836L120.39 81.636V81.564H116.694V80.76H121.278V81.924L117.474 86.124V86.196H121.338V87H116.586ZM125.738 87.156C123.842 87.156 122.654 85.824 122.654 83.904C122.654 81.912 124.022 80.604 125.678 80.604C127.562 80.604 128.642 81.924 128.642 83.796V84.144H123.626C123.638 85.536 124.454 86.316 125.75 86.316C126.626 86.316 127.43 85.812 127.634 84.948L128.558 85.164C128.21 86.328 127.178 87.156 125.738 87.156ZM123.65 83.376H127.67C127.61 82.08 126.71 81.456 125.678 81.456C124.658 81.456 123.722 82.2 123.65 83.376ZM140.906 87.156C139.022 87.156 137.702 85.728 137.702 83.88C137.702 82.032 139.058 80.604 140.894 80.604C142.25 80.604 143.45 81.42 143.786 82.812L142.85 83.028C142.682 82.092 141.89 81.468 140.918 81.468C139.586 81.468 138.686 82.524 138.686 83.88C138.686 85.284 139.634 86.292 140.942 86.292C141.914 86.292 142.706 85.668 142.874 84.732L143.81 84.948C143.474 86.34 142.262 87.156 140.906 87.156ZM148.267 87.156C146.395 87.156 145.015 85.776 145.015 83.88C145.015 81.996 146.419 80.604 148.279 80.604C150.163 80.604 151.531 82.008 151.531 83.88C151.531 85.752 150.139 87.156 148.267 87.156ZM148.267 86.292C149.611 86.292 150.559 85.272 150.559 83.88C150.559 82.5 149.611 81.468 148.267 81.468C146.923 81.468 145.987 82.512 145.987 83.88C145.987 85.284 146.935 86.292 148.267 86.292ZM153.206 87V80.76H154.154V81.672H154.226C154.49 81.108 155.162 80.604 156.134 80.604C157.586 80.604 158.462 81.696 158.462 83.076V87H157.514V83.136C157.514 82.14 156.782 81.492 155.906 81.492C154.922 81.492 154.154 82.248 154.154 83.28V87H153.206ZM162.979 87C161.839 87 161.083 86.484 161.083 85.224V81.564H159.907V80.76H161.143V78.948H162.031V80.76H163.951V81.564H162.031V85.212C162.031 85.884 162.307 86.172 162.967 86.172H163.867V87H162.979ZM168.254 87.156C166.466 87.156 165.206 85.8 165.206 83.892C165.206 81.972 166.406 80.604 168.182 80.604C169.478 80.604 170.126 81.444 170.306 81.768H170.378V80.76H171.338V85.872C171.338 86.064 171.458 86.16 171.65 86.16H171.938V87H171.326C170.81 87 170.426 86.616 170.414 86.076V86.016H170.342C170.186 86.268 169.61 87.156 168.254 87.156ZM168.302 86.304C169.61 86.304 170.414 85.212 170.414 83.904C170.414 82.356 169.454 81.468 168.29 81.468C167.066 81.468 166.178 82.476 166.178 83.904C166.178 85.356 167.102 86.304 168.302 86.304ZM175.021 79.632C174.625 79.632 174.337 79.332 174.337 78.936C174.337 78.552 174.625 78.252 175.021 78.252C175.429 78.252 175.717 78.552 175.717 78.936C175.717 79.332 175.429 79.632 175.021 79.632ZM174.553 87V81.564H173.377V80.76H175.501V87H174.553ZM177.874 87V80.76H178.822V81.672H178.894C179.158 81.108 179.83 80.604 180.802 80.604C182.254 80.604 183.13 81.696 183.13 83.076V87H182.182V83.136C182.182 82.14 181.45 81.492 180.574 81.492C179.59 81.492 178.822 82.248 178.822 83.28V87H177.874ZM187.779 87.156C185.883 87.156 184.695 85.824 184.695 83.904C184.695 81.912 186.063 80.604 187.719 80.604C189.603 80.604 190.683 81.924 190.683 83.796V84.144H185.667C185.679 85.536 186.495 86.316 187.791 86.316C188.667 86.316 189.471 85.812 189.675 84.948L190.599 85.164C190.251 86.328 189.219 87.156 187.779 87.156ZM185.691 83.376H189.711C189.651 82.08 188.751 81.456 187.719 81.456C186.699 81.456 185.763 82.2 185.691 83.376ZM192.358 87V80.76H193.294V81.804H193.366C193.546 81.276 194.158 80.604 195.07 80.604H195.478V81.552H194.914C193.774 81.552 193.306 82.476 193.306 83.664V87H192.358ZM195.836 88.332L196.04 85.884H197.108L196.616 88.332H195.836ZM207.008 89.76V80.76H207.92V81.744H207.992C208.148 81.516 208.736 80.604 210.092 80.604C211.868 80.604 213.14 81.96 213.14 83.868C213.14 85.8 211.928 87.156 210.164 87.156C208.856 87.156 208.232 86.376 208.028 85.992H207.956V89.76H207.008ZM210.056 86.292C211.28 86.292 212.168 85.296 212.168 83.868C212.168 82.404 211.232 81.468 210.032 81.468C208.736 81.468 207.92 82.56 207.92 83.868C207.92 85.404 208.88 86.292 210.056 86.292ZM217.429 87.156C215.533 87.156 214.345 85.824 214.345 83.904C214.345 81.912 215.713 80.604 217.369 80.604C219.253 80.604 220.333 81.924 220.333 83.796V84.144H215.317C215.329 85.536 216.145 86.316 217.441 86.316C218.317 86.316 219.121 85.812 219.325 84.948L220.249 85.164C219.901 86.328 218.869 87.156 217.429 87.156ZM215.341 83.376H219.361C219.301 82.08 218.401 81.456 217.369 81.456C216.349 81.456 215.413 82.2 215.341 83.376ZM222.008 87V80.76H222.944V81.804H223.016C223.196 81.276 223.808 80.604 224.72 80.604H225.128V81.552H224.564C223.424 81.552 222.956 82.476 222.956 83.664V87H222.008ZM227.14 87V81.564H225.964V80.76H227.14V79.776C227.14 78.516 227.896 78 229.036 78H229.864V78.828H229.024C228.364 78.828 228.088 79.116 228.088 79.788V80.76H229.912V81.564H228.088V87H227.14ZM234.022 87.156C232.126 87.156 230.938 85.824 230.938 83.904C230.938 81.912 232.306 80.604 233.962 80.604C235.846 80.604 236.926 81.924 236.926 83.796V84.144H231.91C231.922 85.536 232.738 86.316 234.034 86.316C234.91 86.316 235.714 85.812 235.918 84.948L236.842 85.164C236.494 86.328 235.462 87.156 234.022 87.156ZM231.934 83.376H235.954C235.894 82.08 234.994 81.456 233.962 81.456C232.942 81.456 232.006 82.2 231.934 83.376ZM241.326 87.156C239.442 87.156 238.122 85.728 238.122 83.88C238.122 82.032 239.478 80.604 241.314 80.604C242.67 80.604 243.87 81.42 244.206 82.812L243.27 83.028C243.102 82.092 242.31 81.468 241.338 81.468C240.006 81.468 239.106 82.524 239.106 83.88C239.106 85.284 240.054 86.292 241.362 86.292C242.334 86.292 243.126 85.668 243.294 84.732L244.23 84.948C243.894 86.34 242.682 87.156 241.326 87.156ZM248.386 87C247.246 87 246.49 86.484 246.49 85.224V81.564H245.314V80.76H246.55V78.948H247.438V80.76H249.358V81.564H247.438V85.212C247.438 85.884 247.714 86.172 248.374 86.172H249.274V87H248.386ZM259.415 87V81.564H258.239V80.76H259.415V79.776C259.415 78.516 260.171 78 261.311 78H262.139V78.828H261.299C260.639 78.828 260.363 79.116 260.363 79.788V80.76H262.187V81.564H260.363V87H259.415ZM266.465 87.156C264.593 87.156 263.213 85.776 263.213 83.88C263.213 81.996 264.617 80.604 266.477 80.604C268.361 80.604 269.729 82.008 269.729 83.88C269.729 85.752 268.337 87.156 266.465 87.156ZM266.465 86.292C267.809 86.292 268.757 85.272 268.757 83.88C268.757 82.5 267.809 81.468 266.465 81.468C265.121 81.468 264.185 82.512 264.185 83.88C264.185 85.284 265.133 86.292 266.465 86.292ZM271.404 87V80.76H272.34V81.804H272.412C272.592 81.276 273.204 80.604 274.116 80.604H274.524V81.552H273.96C272.82 81.552 272.352 82.476 272.352 83.664V87H271.404ZM3.144 101.156C1.74 101.156 0.864 100.388 0.72 99.272L1.584 99.056C1.656 99.896 2.244 100.328 3.192 100.328C4.128 100.328 4.644 99.872 4.644 99.236C4.644 97.484 0.912 98.816 0.912 96.344C0.912 95.288 1.86 94.604 3.168 94.604C4.248 94.604 5.292 95.228 5.436 96.356L4.608 96.596C4.524 95.864 3.924 95.42 3.108 95.42C2.328 95.42 1.824 95.804 1.824 96.344C1.824 97.928 5.568 96.608 5.568 99.188C5.568 100.364 4.596 101.156 3.144 101.156ZM10.2036 101.156C8.33156 101.156 6.95156 99.776 6.95156 97.88C6.95156 95.996 8.35556 94.604 10.2156 94.604C12.0996 94.604 13.4676 96.008 13.4676 97.88C13.4676 99.752 12.0756 101.156 10.2036 101.156ZM10.2036 100.292C11.5476 100.292 12.4956 99.272 12.4956 97.88C12.4956 96.5 11.5476 95.468 10.2036 95.468C8.85956 95.468 7.92356 96.512 7.92356 97.88C7.92356 99.284 8.87156 100.292 10.2036 100.292ZM17.3505 101.156C15.8985 101.156 15.0225 100.064 15.0225 98.684V94.76H15.9705V98.648C15.9705 99.644 16.7025 100.292 17.5785 100.292C18.5625 100.292 19.3305 99.536 19.3305 98.504V94.76H20.2785V101H19.3305V100.088H19.2585C18.9945 100.652 18.3225 101.156 17.3505 101.156ZM22.3144 103.76V94.76H23.2264V95.744H23.2984C23.4544 95.516 24.0424 94.604 25.3984 94.604C27.1744 94.604 28.4464 95.96 28.4464 97.868C28.4464 99.8 27.2344 101.156 25.4704 101.156C24.1624 101.156 23.5384 100.376 23.3344 99.992H23.2624V103.76H22.3144ZM25.3624 100.292C26.5864 100.292 27.4744 99.296 27.4744 97.868C27.4744 96.404 26.5384 95.468 25.3384 95.468C24.0424 95.468 23.2264 96.56 23.2264 97.868C23.2264 99.404 24.1864 100.292 25.3624 100.292ZM32.1948 101.156C30.7908 101.156 29.9148 100.388 29.7708 99.272L30.6348 99.056C30.7068 99.896 31.2948 100.328 32.2428 100.328C33.1788 100.328 33.6948 99.872 33.6948 99.236C33.6948 97.484 29.9628 98.816 29.9628 96.344C29.9628 95.288 30.9108 94.604 32.2188 94.604C33.2988 94.604 34.3428 95.228 34.4868 96.356L33.6588 96.596C33.5748 95.864 32.9748 95.42 32.1588 95.42C31.3788 95.42 30.8748 95.804 30.8748 96.344C30.8748 97.928 34.6188 96.608 34.6188 99.188C34.6188 100.364 33.6468 101.156 32.1948 101.156ZM36.128 102.332L36.332 99.884H37.4L36.908 102.332H36.128ZM51.8079 101.156C49.9239 101.156 48.6039 99.728 48.6039 97.88C48.6039 96.032 49.9599 94.604 51.7959 94.604C53.1519 94.604 54.3519 95.42 54.6879 96.812L53.7519 97.028C53.5839 96.092 52.7919 95.468 51.8199 95.468C50.4879 95.468 49.5879 96.524 49.5879 97.88C49.5879 99.284 50.5359 100.292 51.8439 100.292C52.8159 100.292 53.6079 99.668 53.7759 98.732L54.7119 98.948C54.3759 100.34 53.1639 101.156 51.8079 101.156ZM58.6044 101.156C57.1524 101.156 56.2764 100.064 56.2764 98.684V94.76H57.2244V98.648C57.2244 99.644 57.9564 100.292 58.8324 100.292C59.8164 100.292 60.5844 99.536 60.5844 98.504V94.76H61.5324V101H60.5844V100.088H60.5124C60.2484 100.652 59.5764 101.156 58.6044 101.156ZM63.5683 101V94.76H64.5043V95.804H64.5763C64.7563 95.276 65.3683 94.604 66.2803 94.604H66.6883V95.552H66.1243C64.9843 95.552 64.5163 96.476 64.5163 97.664V101H63.5683ZM68.2441 101V94.76H69.1801V95.804H69.2521C69.4321 95.276 70.0441 94.604 70.9561 94.604H71.3641V95.552H70.8001C69.6601 95.552 69.1921 96.476 69.1921 97.664V101H68.2441ZM74.2038 93.632C73.8078 93.632 73.5198 93.332 73.5198 92.936C73.5198 92.552 73.8078 92.252 74.2038 92.252C74.6118 92.252 74.8998 92.552 74.8998 92.936C74.8998 93.332 74.6118 93.632 74.2038 93.632ZM73.7358 101V95.564H72.5598V94.76H74.6838V101H73.7358ZM79.6606 101.156C77.7646 101.156 76.5766 99.824 76.5766 97.904C76.5766 95.912 77.9446 94.604 79.6006 94.604C81.4846 94.604 82.5646 95.924 82.5646 97.796V98.144H77.5486C77.5606 99.536 78.3766 100.316 79.6726 100.316C80.5486 100.316 81.3526 99.812 81.5566 98.948L82.4806 99.164C82.1326 100.328 81.1006 101.156 79.6606 101.156ZM77.5726 97.376H81.5926C81.5326 96.08 80.6326 95.456 79.6006 95.456C78.5806 95.456 77.6446 96.2 77.5726 97.376ZM86.3042 101.156C84.9002 101.156 84.0242 100.388 83.8802 99.272L84.7442 99.056C84.8162 99.896 85.4042 100.328 86.3522 100.328C87.2882 100.328 87.8042 99.872 87.8042 99.236C87.8042 97.484 84.0722 98.816 84.0722 96.344C84.0722 95.288 85.0202 94.604 86.3282 94.604C87.4082 94.604 88.4522 95.228 88.5962 96.356L87.7682 96.596C87.6842 95.864 87.0842 95.42 86.2682 95.42C85.4882 95.42 84.9842 95.804 84.9842 96.344C84.9842 97.928 88.7282 96.608 88.7282 99.188C88.7282 100.364 87.7562 101.156 86.3042 101.156ZM90.2373 102.332L90.4413 99.884H91.5093L91.0173 102.332H90.2373ZM105.761 101.156C103.985 101.156 102.713 99.8 102.713 97.892C102.713 95.972 103.925 94.604 105.689 94.604C106.997 94.604 107.633 95.444 107.825 95.768H107.897V92H108.845V101H107.933V100.016H107.861C107.705 100.244 107.117 101.156 105.761 101.156ZM105.821 100.304C107.117 100.304 107.933 99.2 107.933 97.904C107.933 96.356 106.973 95.468 105.797 95.468C104.573 95.468 103.685 96.476 103.685 97.904C103.685 99.356 104.609 100.304 105.821 100.304ZM113.485 101.156C111.589 101.156 110.401 99.824 110.401 97.904C110.401 95.912 111.769 94.604 113.425 94.604C115.309 94.604 116.389 95.924 116.389 97.796V98.144H111.373C111.385 99.536 112.201 100.316 113.497 100.316C114.373 100.316 115.177 99.812 115.381 98.948L116.305 99.164C115.957 100.328 114.925 101.156 113.485 101.156ZM111.397 97.376H115.417C115.357 96.08 114.457 95.456 113.425 95.456C112.405 95.456 111.469 96.2 111.397 97.376ZM120.128 101.156C118.724 101.156 117.848 100.388 117.704 99.272L118.568 99.056C118.64 99.896 119.228 100.328 120.176 100.328C121.112 100.328 121.628 99.872 121.628 99.236C121.628 97.484 117.896 98.816 117.896 96.344C117.896 95.288 118.844 94.604 120.152 94.604C121.232 94.604 122.276 95.228 122.42 96.356L121.592 96.596C121.508 95.864 120.908 95.42 120.092 95.42C119.312 95.42 118.808 95.804 118.808 96.344C118.808 97.928 122.552 96.608 122.552 99.188C122.552 100.364 121.58 101.156 120.128 101.156ZM126.48 101.156C125.076 101.156 124.2 100.388 124.056 99.272L124.92 99.056C124.992 99.896 125.58 100.328 126.528 100.328C127.464 100.328 127.98 99.872 127.98 99.236C127.98 97.484 124.248 98.816 124.248 96.344C124.248 95.288 125.196 94.604 126.504 94.604C127.584 94.604 128.628 95.228 128.772 96.356L127.944 96.596C127.86 95.864 127.26 95.42 126.444 95.42C125.664 95.42 125.16 95.804 125.16 96.344C125.16 97.928 128.904 96.608 128.904 99.188C128.904 100.364 127.932 101.156 126.48 101.156ZM133.372 101.156C131.476 101.156 130.288 99.824 130.288 97.904C130.288 95.912 131.656 94.604 133.312 94.604C135.196 94.604 136.276 95.924 136.276 97.796V98.144H131.26C131.271 99.536 132.088 100.316 133.384 100.316C134.26 100.316 135.064 99.812 135.268 98.948L136.192 99.164C135.844 100.328 134.812 101.156 133.372 101.156ZM131.284 97.376H135.304C135.244 96.08 134.344 95.456 133.312 95.456C132.292 95.456 131.356 96.2 131.284 97.376ZM137.951 101V94.76H138.887V95.804H138.959C139.139 95.276 139.751 94.604 140.663 94.604H141.071V95.552H140.507C139.367 95.552 138.899 96.476 138.899 97.664V101H137.951ZM145.099 101C143.959 101 143.203 100.484 143.203 99.224V95.564H142.027V94.76H143.263V92.948H144.151V94.76H146.071V95.564H144.151V99.212C144.151 99.884 144.427 100.172 145.087 100.172H145.987V101H145.099ZM149.871 101.156C148.467 101.156 147.591 100.388 147.447 99.272L148.311 99.056C148.383 99.896 148.971 100.328 149.919 100.328C150.855 100.328 151.371 99.872 151.371 99.236C151.371 97.484 147.639 98.816 147.639 96.344C147.639 95.288 148.587 94.604 149.895 94.604C150.975 94.604 152.019 95.228 152.163 96.356L151.335 96.596C151.251 95.864 150.651 95.42 149.835 95.42C149.055 95.42 148.551 95.804 148.551 96.344C148.551 97.928 152.295 96.608 152.295 99.188C152.295 100.364 151.323 101.156 149.871 101.156ZM153.804 102.332L154.008 99.884H155.076L154.584 102.332H153.804ZM169.532 101.156C167.66 101.156 166.28 99.776 166.28 97.88C166.28 95.996 167.684 94.604 169.544 94.604C171.428 94.604 172.796 96.008 172.796 97.88C172.796 99.752 171.404 101.156 169.532 101.156ZM169.532 100.292C170.876 100.292 171.824 99.272 171.824 97.88C171.824 96.5 170.876 95.468 169.532 95.468C168.188 95.468 167.252 96.512 167.252 97.88C167.252 99.284 168.2 100.292 169.532 100.292ZM174.471 101V94.76H175.407V95.804H175.479C175.659 95.276 176.271 94.604 177.183 94.604H177.591V95.552H177.027C175.887 95.552 175.419 96.476 175.419 97.664V101H174.471ZM190.859 101.156C189.455 101.156 188.579 100.388 188.435 99.272L189.299 99.056C189.371 99.896 189.959 100.328 190.907 100.328C191.843 100.328 192.359 99.872 192.359 99.236C192.359 97.484 188.627 98.816 188.627 96.344C188.627 95.288 189.575 94.604 190.883 94.604C191.963 94.604 193.007 95.228 193.151 96.356L192.323 96.596C192.239 95.864 191.639 95.42 190.823 95.42C190.043 95.42 189.539 95.804 189.539 96.344C189.539 97.928 193.283 96.608 193.283 99.188C193.283 100.364 192.311 101.156 190.859 101.156ZM197.714 101.156C195.926 101.156 194.666 99.8 194.666 97.892C194.666 95.972 195.866 94.604 197.642 94.604C198.938 94.604 199.586 95.444 199.766 95.768H199.838V94.76H200.798V99.872C200.798 100.064 200.918 100.16 201.11 100.16H201.398V101H200.786C200.27 101 199.886 100.616 199.874 100.076V100.016H199.802C199.646 100.268 199.07 101.156 197.714 101.156ZM197.762 100.304C199.07 100.304 199.874 99.212 199.874 97.904C199.874 96.356 198.914 95.468 197.75 95.468C196.526 95.468 195.638 96.476 195.638 97.904C195.638 99.356 196.562 100.304 197.762 100.304ZM202.897 101V100.184H204.157V92.816H202.897V92H205.105V100.184H206.365V101H202.897ZM210.312 101.156C208.524 101.156 207.264 99.8 207.264 97.892C207.264 95.972 208.464 94.604 210.24 94.604C211.536 94.604 212.184 95.444 212.364 95.768H212.436V94.76H213.396V99.872C213.396 100.064 213.516 100.16 213.708 100.16H213.996V101H213.384C212.868 101 212.484 100.616 212.472 100.076V100.016H212.4C212.244 100.268 211.668 101.156 210.312 101.156ZM210.36 100.304C211.668 100.304 212.472 99.212 212.472 97.904C212.472 96.356 211.512 95.468 210.348 95.468C209.124 95.468 208.236 96.476 208.236 97.904C208.236 99.356 209.16 100.304 210.36 100.304ZM218.363 101.156C216.587 101.156 215.315 99.8 215.315 97.892C215.315 95.972 216.527 94.604 218.291 94.604C219.599 94.604 220.235 95.444 220.427 95.768H220.499V92H221.447V101H220.535V100.016H220.463C220.307 100.244 219.719 101.156 218.363 101.156ZM218.423 100.304C219.719 100.304 220.535 99.2 220.535 97.904C220.535 96.356 219.575 95.468 218.399 95.468C217.175 95.468 216.287 96.476 216.287 97.904C216.287 99.356 217.211 100.304 218.423 100.304ZM225.546 101.156C224.142 101.156 223.266 100.388 223.122 99.272L223.986 99.056C224.058 99.896 224.646 100.328 225.594 100.328C226.53 100.328 227.046 99.872 227.046 99.236C227.046 97.484 223.314 98.816 223.314 96.344C223.314 95.288 224.262 94.604 225.57 94.604C226.65 94.604 227.694 95.228 227.838 96.356L227.01 96.596C226.926 95.864 226.326 95.42 225.51 95.42C224.73 95.42 224.226 95.804 224.226 96.344C224.226 97.928 227.97 96.608 227.97 99.188C227.97 100.364 226.998 101.156 225.546 101.156ZM230.164 101.156C229.792 101.156 229.48 100.856 229.48 100.484C229.48 100.112 229.792 99.812 230.164 99.812C230.536 99.812 230.836 100.112 230.836 100.484C230.836 100.856 230.536 101.156 230.164 101.156ZM242.649 101V92.6H244.317L246.729 100.112H246.801L249.213 92.6H250.881V101H249.945V93.488H249.873L247.437 101H246.093L243.657 93.488H243.585V101H242.649ZM255.726 101.156C253.938 101.156 252.678 99.8 252.678 97.892C252.678 95.972 253.878 94.604 255.654 94.604C256.95 94.604 257.598 95.444 257.778 95.768H257.85V94.76H258.81V99.872C258.81 100.064 258.93 100.16 259.122 100.16H259.41V101H258.798C258.282 101 257.898 100.616 257.886 100.076V100.016H257.814C257.658 100.268 257.082 101.156 255.726 101.156ZM255.774 100.304C257.082 100.304 257.886 99.212 257.886 97.904C257.886 96.356 256.926 95.468 255.762 95.468C254.538 95.468 253.65 96.476 253.65 97.904C253.65 99.356 254.574 100.304 255.774 100.304ZM263.777 101.156C262.001 101.156 260.729 99.8 260.729 97.892C260.729 95.972 261.941 94.604 263.705 94.604C265.013 94.604 265.649 95.444 265.841 95.768H265.913V92H266.861V101H265.949V100.016H265.877C265.721 100.244 265.133 101.156 263.777 101.156ZM263.837 100.304C265.133 100.304 265.949 99.2 265.949 97.904C265.949 96.356 264.989 95.468 263.813 95.468C262.589 95.468 261.701 96.476 261.701 97.904C261.701 99.356 262.625 100.304 263.837 100.304ZM271.5 101.156C269.604 101.156 268.416 99.824 268.416 97.904C268.416 95.912 269.784 94.604 271.44 94.604C273.324 94.604 274.404 95.924 274.404 97.796V98.144H269.388C269.4 99.536 270.216 100.316 271.512 100.316C272.388 100.316 273.192 99.812 273.396 98.948L274.32 99.164C273.972 100.328 272.94 101.156 271.5 101.156ZM269.412 97.376H273.432C273.372 96.08 272.472 95.456 271.44 95.456C270.42 95.456 269.484 96.2 269.412 97.376ZM1.536 115V109.564H0.36V108.76H1.536V107.776C1.536 106.516 2.292 106 3.432 106H4.26V106.828H3.42C2.76 106.828 2.484 107.116 2.484 107.788V108.76H4.308V109.564H2.484V115H1.536ZM5.93156 115V108.76H6.86756V109.804H6.93956C7.11956 109.276 7.73156 108.604 8.64356 108.604H9.05156V109.552H8.48756C7.34756 109.552 6.87956 110.476 6.87956 111.664V115H5.93156ZM13.145 115.156C11.273 115.156 9.89297 113.776 9.89297 111.88C9.89297 109.996 11.297 108.604 13.157 108.604C15.041 108.604 16.409 110.008 16.409 111.88C16.409 113.752 15.017 115.156 13.145 115.156ZM13.145 114.292C14.489 114.292 15.437 113.272 15.437 111.88C15.437 110.5 14.489 109.468 13.145 109.468C11.801 109.468 10.865 110.512 10.865 111.88C10.865 113.284 11.813 114.292 13.145 114.292ZM18.0839 115V108.76H19.0319V109.66H19.1039C19.4039 109.084 20.0039 108.604 20.9279 108.604C21.8639 108.604 22.5479 109.06 22.8959 109.744H22.9799C23.3999 108.94 24.0839 108.604 24.9599 108.604C26.3519 108.604 27.2519 109.588 27.2519 110.956V115H26.3039V111.268C26.3039 110.092 25.7159 109.492 24.7919 109.492C23.9159 109.492 23.1479 110.116 23.1479 111.28V115H22.1999V111.088C22.1999 110.092 21.5279 109.492 20.6519 109.492C19.7759 109.492 19.0319 110.188 19.0319 111.244V115H18.0839ZM38.4097 115.156C36.6337 115.156 35.3617 113.8 35.3617 111.892C35.3617 109.972 36.5737 108.604 38.3377 108.604C39.6457 108.604 40.2817 109.444 40.4737 109.768H40.5457V106H41.4937V115H40.5817V114.016H40.5097C40.3537 114.244 39.7657 115.156 38.4097 115.156ZM38.4697 114.304C39.7657 114.304 40.5817 113.2 40.5817 111.904C40.5817 110.356 39.6217 109.468 38.4457 109.468C37.2217 109.468 36.3337 110.476 36.3337 111.904C36.3337 113.356 37.2577 114.304 38.4697 114.304ZM45.7372 115.156C44.2852 115.156 43.4092 114.064 43.4092 112.684V108.76H44.3572V112.648C44.3572 113.644 45.0892 114.292 45.9652 114.292C46.9492 114.292 47.7172 113.536 47.7172 112.504V108.76H48.6652V115H47.7172V114.088H47.6452C47.3812 114.652 46.7092 115.156 45.7372 115.156ZM50.7011 115V108.76H51.6371V109.804H51.7091C51.8891 109.276 52.5011 108.604 53.4131 108.604H53.8211V109.552H53.2571C52.1171 109.552 51.6491 110.476 51.6491 111.664V115H50.7011ZM57.7105 115.156C55.9225 115.156 54.6625 113.8 54.6625 111.892C54.6625 109.972 55.8625 108.604 57.6385 108.604C58.9345 108.604 59.5825 109.444 59.7625 109.768H59.8345V108.76H60.7945V113.872C60.7945 114.064 60.9145 114.16 61.1065 114.16H61.3945V115H60.7825C60.2665 115 59.8825 114.616 59.8705 114.076V114.016H59.7985C59.6425 114.268 59.0665 115.156 57.7105 115.156ZM57.7585 114.304C59.0665 114.304 59.8705 113.212 59.8705 111.904C59.8705 110.356 58.9105 109.468 57.7465 109.468C56.5225 109.468 55.6345 110.476 55.6345 111.904C55.6345 113.356 56.5585 114.304 57.7585 114.304ZM66.2773 115.156C64.9213 115.156 64.3333 114.244 64.1773 114.016H64.1053V115H63.1933V106H64.1413V109.768H64.2133C64.4053 109.444 65.0413 108.604 66.3493 108.604C68.1133 108.604 69.3253 109.972 69.3253 111.892C69.3253 113.8 68.0533 115.156 66.2773 115.156ZM66.2173 114.304C67.4173 114.304 68.3533 113.356 68.3533 111.904C68.3533 110.476 67.4653 109.468 66.2413 109.468C65.0653 109.468 64.1053 110.356 64.1053 111.904C64.1053 113.212 64.9213 114.304 66.2173 114.304ZM70.3464 115V114.184H71.6064V106.816H70.3464V106H72.5544V114.184H73.8144V115H70.3464ZM77.7973 115.156C75.9013 115.156 74.7133 113.824 74.7133 111.904C74.7133 109.912 76.0813 108.604 77.7373 108.604C79.6213 108.604 80.7013 109.924 80.7013 111.796V112.144H75.6853C75.6973 113.536 76.5133 114.316 77.8093 114.316C78.6853 114.316 79.4893 113.812 79.6933 112.948L80.6173 113.164C80.2693 114.328 79.2373 115.156 77.7973 115.156ZM75.7093 111.376H79.7293C79.6693 110.08 78.7693 109.456 77.7373 109.456C76.7173 109.456 75.7813 110.2 75.7093 111.376ZM89.3876 115V109.564H88.2116V108.76H89.3876V107.776C89.3876 106.516 90.1436 106 91.2836 106H92.1116V106.828H91.2716C90.6116 106.828 90.3356 107.116 90.3356 107.788V108.76H92.1596V109.564H90.3356V115H89.3876ZM96.4379 115.156C94.5659 115.156 93.1859 113.776 93.1859 111.88C93.1859 109.996 94.5899 108.604 96.4499 108.604C98.3339 108.604 99.7019 110.008 99.7019 111.88C99.7019 113.752 98.3099 115.156 96.4379 115.156ZM96.4379 114.292C97.7819 114.292 98.7299 113.272 98.7299 111.88C98.7299 110.5 97.7819 109.468 96.4379 109.468C95.0939 109.468 94.1579 110.512 94.1579 111.88C94.1579 113.284 95.1059 114.292 96.4379 114.292ZM104.149 115.156C102.277 115.156 100.897 113.776 100.897 111.88C100.897 109.996 102.301 108.604 104.161 108.604C106.045 108.604 107.413 110.008 107.413 111.88C107.413 113.752 106.021 115.156 104.149 115.156ZM104.149 114.292C105.493 114.292 106.441 113.272 106.441 111.88C106.441 110.5 105.493 109.468 104.149 109.468C102.805 109.468 101.869 110.512 101.869 111.88C101.869 113.284 102.817 114.292 104.149 114.292ZM111.656 115.156C109.88 115.156 108.608 113.8 108.608 111.892C108.608 109.972 109.82 108.604 111.584 108.604C112.892 108.604 113.528 109.444 113.72 109.768H113.792V106H114.74V115H113.828V114.016H113.756C113.6 114.244 113.012 115.156 111.656 115.156ZM111.716 114.304C113.012 114.304 113.828 113.2 113.828 111.904C113.828 110.356 112.868 109.468 111.692 109.468C110.468 109.468 109.58 110.476 109.58 111.904C109.58 113.356 110.504 114.304 111.716 114.304ZM116.535 111.832V110.944H119.595V111.832H116.535ZM122.566 117.76V116.884H125.278C125.938 116.884 126.214 116.56 126.214 115.888V113.992H126.142C125.938 114.376 125.314 115.156 124.006 115.156C122.242 115.156 121.03 113.8 121.03 111.868C121.03 109.96 122.302 108.604 124.078 108.604C125.434 108.604 126.022 109.516 126.178 109.744H126.25V108.76H127.162V115.984C127.162 117.244 126.406 117.76 125.266 117.76H122.566ZM124.114 114.292C125.29 114.292 126.25 113.404 126.25 111.868C126.25 110.56 125.434 109.468 124.138 109.468C122.938 109.468 122.002 110.404 122.002 111.868C122.002 113.296 122.89 114.292 124.114 114.292ZM129.197 115V108.76H130.133V109.804H130.205C130.385 109.276 130.997 108.604 131.909 108.604H132.317V109.552H131.753C130.613 109.552 130.145 110.476 130.145 111.664V115H129.197ZM136.207 115.156C134.419 115.156 133.159 113.8 133.159 111.892C133.159 109.972 134.359 108.604 136.135 108.604C137.431 108.604 138.079 109.444 138.259 109.768H138.331V108.76H139.291V113.872C139.291 114.064 139.411 114.16 139.603 114.16H139.891V115H139.279C138.763 115 138.379 114.616 138.367 114.076V114.016H138.295C138.139 114.268 137.563 115.156 136.207 115.156ZM136.255 114.304C137.563 114.304 138.367 113.212 138.367 111.904C138.367 110.356 137.407 109.468 136.243 109.468C135.019 109.468 134.131 110.476 134.131 111.904C134.131 113.356 135.055 114.304 136.255 114.304ZM144.257 115.156C142.481 115.156 141.209 113.8 141.209 111.892C141.209 109.972 142.421 108.604 144.185 108.604C145.493 108.604 146.129 109.444 146.321 109.768H146.393V106H147.341V115H146.429V114.016H146.357C146.201 114.244 145.613 115.156 144.257 115.156ZM144.317 114.304C145.613 114.304 146.429 113.2 146.429 111.904C146.429 110.356 145.469 109.468 144.293 109.468C143.069 109.468 142.181 110.476 142.181 111.904C142.181 113.356 143.105 114.304 144.317 114.304ZM151.981 115.156C150.085 115.156 148.897 113.824 148.897 111.904C148.897 109.912 150.265 108.604 151.921 108.604C153.805 108.604 154.885 109.924 154.885 111.796V112.144H149.869C149.881 113.536 150.697 114.316 151.993 114.316C152.869 114.316 153.673 113.812 153.877 112.948L154.801 113.164C154.453 114.328 153.421 115.156 151.981 115.156ZM149.893 111.376H153.913C153.853 110.08 152.953 109.456 151.921 109.456C150.901 109.456 149.965 110.2 149.893 111.376ZM163.235 115V106.6H166.007C167.531 106.6 168.575 107.596 168.575 109.12C168.575 110.632 167.483 111.676 166.007 111.676H164.207V115H163.235ZM164.207 110.812H165.923C166.931 110.812 167.579 110.092 167.579 109.12C167.579 108.16 166.931 107.464 165.923 107.464H164.207V110.812ZM170.255 115V106.6H173.027C174.551 106.6 175.595 107.596 175.595 109.12C175.595 110.632 174.503 111.676 173.027 111.676H171.227V115H170.255ZM171.227 110.812H172.943C173.951 110.812 174.599 110.092 174.599 109.12C174.599 108.16 173.951 107.464 172.943 107.464H171.227V110.812ZM175.476 116.332L175.68 113.884H176.748L176.256 116.332H175.476ZM186.622 107.632C186.226 107.632 185.938 107.332 185.938 106.936C185.938 106.552 186.226 106.252 186.622 106.252C187.03 106.252 187.318 106.552 187.318 106.936C187.318 107.332 187.03 107.632 186.622 107.632ZM186.154 115V109.564H184.978V108.76H187.102V115H186.154ZM191.947 115C190.807 115 190.051 114.484 190.051 113.224V109.564H188.875V108.76H190.111V106.948H190.999V108.76H192.919V109.564H190.999V113.212C190.999 113.884 191.275 114.172 191.935 114.172H192.835V115H191.947ZM194.414 109.048L194.618 106.6H195.686L195.194 109.048H194.414ZM198.593 115.156C197.189 115.156 196.313 114.388 196.169 113.272L197.033 113.056C197.105 113.896 197.693 114.328 198.641 114.328C199.577 114.328 200.093 113.872 200.093 113.236C200.093 111.484 196.361 112.816 196.361 110.344C196.361 109.288 197.309 108.604 198.617 108.604C199.697 108.604 200.741 109.228 200.885 110.356L200.057 110.596C199.973 109.864 199.373 109.42 198.557 109.42C197.777 109.42 197.273 109.804 197.273 110.344C197.273 111.928 201.017 110.608 201.017 113.188C201.017 114.364 200.045 115.156 198.593 115.156ZM209.435 115V108.76H210.383V109.66H210.455C210.755 109.084 211.355 108.604 212.279 108.604C213.215 108.604 213.899 109.06 214.247 109.744H214.331C214.751 108.94 215.435 108.604 216.311 108.604C217.703 108.604 218.603 109.588 218.603 110.956V115H217.655V111.268C217.655 110.092 217.067 109.492 216.143 109.492C215.267 109.492 214.499 110.116 214.499 111.28V115H213.551V111.088C213.551 110.092 212.879 109.492 212.003 109.492C211.127 109.492 210.383 110.188 210.383 111.244V115H209.435ZM221.923 107.632C221.527 107.632 221.239 107.332 221.239 106.936C221.239 106.552 221.527 106.252 221.923 106.252C222.331 106.252 222.619 106.552 222.619 106.936C222.619 107.332 222.331 107.632 221.923 107.632ZM221.455 115V109.564H220.279V108.76H222.403V115H221.455ZM227.499 115.156C225.615 115.156 224.295 113.728 224.295 111.88C224.295 110.032 225.651 108.604 227.487 108.604C228.843 108.604 230.043 109.42 230.379 110.812L229.443 111.028C229.275 110.092 228.483 109.468 227.511 109.468C226.179 109.468 225.279 110.524 225.279 111.88C225.279 113.284 226.227 114.292 227.535 114.292C228.507 114.292 229.299 113.668 229.467 112.732L230.403 112.948C230.067 114.34 228.855 115.156 227.499 115.156ZM232.088 115V108.76H233.024V109.804H233.096C233.276 109.276 233.888 108.604 234.8 108.604H235.208V109.552H234.644C233.504 109.552 233.036 110.476 233.036 111.664V115H232.088ZM239.301 115.156C237.429 115.156 236.049 113.776 236.049 111.88C236.049 109.996 237.453 108.604 239.313 108.604C241.197 108.604 242.565 110.008 242.565 111.88C242.565 113.752 241.173 115.156 239.301 115.156ZM239.301 114.292C240.645 114.292 241.593 113.272 241.593 111.88C241.593 110.5 240.645 109.468 239.301 109.468C237.957 109.468 237.021 110.512 237.021 111.88C237.021 113.284 237.969 114.292 239.301 114.292ZM245.347 115L243.403 108.76H244.435L245.959 114.112H246.031L247.555 108.76H248.875L250.387 114.112H250.459L251.995 108.76H253.027L251.071 115H249.751L248.251 109.648H248.179L246.667 115H245.347ZM256.921 115.156C255.133 115.156 253.873 113.8 253.873 111.892C253.873 109.972 255.073 108.604 256.849 108.604C258.145 108.604 258.793 109.444 258.973 109.768H259.045V108.76H260.005V113.872C260.005 114.064 260.125 114.16 260.317 114.16H260.605V115H259.993C259.477 115 259.093 114.616 259.081 114.076V114.016H259.009C258.853 114.268 258.277 115.156 256.921 115.156ZM256.969 114.304C258.277 114.304 259.081 113.212 259.081 111.904C259.081 110.356 258.121 109.468 256.957 109.468C255.733 109.468 254.845 110.476 254.845 111.904C254.845 113.356 255.769 114.304 256.969 114.304ZM264.012 115L261.684 108.76H262.704L264.588 114.112H264.66L266.532 108.76H267.576L265.26 115H264.012ZM271.5 115.156C269.604 115.156 268.416 113.824 268.416 111.904C268.416 109.912 269.784 108.604 271.44 108.604C273.324 108.604 274.404 109.924 274.404 111.796V112.144H269.388C269.4 113.536 270.216 114.316 271.512 114.316C272.388 114.316 273.192 113.812 273.396 112.948L274.32 113.164C273.972 114.328 272.94 115.156 271.5 115.156ZM269.412 111.376H273.432C273.372 110.08 272.472 109.456 271.44 109.456C270.42 109.456 269.484 110.2 269.412 111.376ZM3.648 129.156C1.86 129.156 0.6 127.8 0.6 125.892C0.6 123.972 1.8 122.604 3.576 122.604C4.872 122.604 5.52 123.444 5.7 123.768H5.772V122.76H6.732V127.872C6.732 128.064 6.852 128.16 7.044 128.16H7.332V129H6.72C6.204 129 5.82 128.616 5.808 128.076V128.016H5.736C5.58 128.268 5.004 129.156 3.648 129.156ZM3.696 128.304C5.004 128.304 5.808 127.212 5.808 125.904C5.808 124.356 4.848 123.468 3.684 123.468C2.46 123.468 1.572 124.476 1.572 125.904C1.572 127.356 2.496 128.304 3.696 128.304ZM9.13078 129V122.76H10.0788V123.672H10.1508C10.4148 123.108 11.0868 122.604 12.0588 122.604C13.5108 122.604 14.3868 123.696 14.3868 125.076V129H13.4388V125.136C13.4388 124.14 12.7068 123.492 11.8308 123.492C10.8468 123.492 10.0788 124.248 10.0788 125.28V129H9.13078ZM18.9996 129.156C17.2236 129.156 15.9516 127.8 15.9516 125.892C15.9516 123.972 17.1636 122.604 18.9276 122.604C20.2356 122.604 20.8716 123.444 21.0636 123.768H21.1356V120H22.0836V129H21.1716V128.016H21.0996C20.9436 128.244 20.3556 129.156 18.9996 129.156ZM19.0596 128.304C20.3556 128.304 21.1716 127.2 21.1716 125.904C21.1716 124.356 20.2116 123.468 19.0356 123.468C17.8116 123.468 16.9236 124.476 16.9236 125.904C16.9236 127.356 17.8476 128.304 19.0596 128.304ZM32.6825 129V123.564H31.5065V122.76H32.6825V121.776C32.6825 120.516 33.4385 120 34.5785 120H35.4065V120.828H34.5665C33.9065 120.828 33.6305 121.116 33.6305 121.788V122.76H35.4545V123.564H33.6305V129H32.6825ZM37.078 129V122.76H38.014V123.804H38.086C38.266 123.276 38.878 122.604 39.79 122.604H40.198V123.552H39.634C38.494 123.552 38.026 124.476 38.026 125.664V129H37.078ZM44.1235 129.156C42.2275 129.156 41.0395 127.824 41.0395 125.904C41.0395 123.912 42.4075 122.604 44.0635 122.604C45.9475 122.604 47.0275 123.924 47.0275 125.796V126.144H42.0115C42.0235 127.536 42.8395 128.316 44.1355 128.316C45.0115 128.316 45.8155 127.812 46.0195 126.948L46.9435 127.164C46.5955 128.328 45.5635 129.156 44.1235 129.156ZM42.0355 125.376H46.0555C45.9955 124.08 45.0955 123.456 44.0635 123.456C43.0435 123.456 42.1075 124.2 42.0355 125.376ZM51.307 129.156C49.411 129.156 48.223 127.824 48.223 125.904C48.223 123.912 49.591 122.604 51.247 122.604C53.131 122.604 54.211 123.924 54.211 125.796V126.144H49.195C49.207 127.536 50.023 128.316 51.319 128.316C52.195 128.316 52.999 127.812 53.203 126.948L54.127 127.164C53.779 128.328 52.747 129.156 51.307 129.156ZM49.219 125.376H53.239C53.179 124.08 52.279 123.456 51.247 123.456C50.227 123.456 49.291 124.2 49.219 125.376ZM55.5266 129V127.836L59.3306 123.636V123.564H55.6346V122.76H60.2186V123.924L56.4146 128.124V128.196H60.2786V129H55.5266ZM64.6781 129.156C62.7821 129.156 61.5941 127.824 61.5941 125.904C61.5941 123.912 62.9621 122.604 64.6181 122.604C66.5021 122.604 67.5821 123.924 67.5821 125.796V126.144H62.5661C62.5781 127.536 63.3941 128.316 64.6901 128.316C65.5661 128.316 66.3701 127.812 66.5741 126.948L67.4981 127.164C67.1501 128.328 66.1181 129.156 64.6781 129.156ZM62.5901 125.376H66.6101C66.5501 124.08 65.6501 123.456 64.6181 123.456C63.5981 123.456 62.6621 124.2 62.5901 125.376ZM69.2577 129V122.76H70.1937V123.804H70.2657C70.4457 123.276 71.0577 122.604 71.9697 122.604H72.3777V123.552H71.8137C70.6737 123.552 70.2057 124.476 70.2057 125.664V129H69.2577ZM84.1049 129.156C82.7009 129.156 81.8249 128.388 81.6809 127.272L82.5449 127.056C82.6169 127.896 83.2049 128.328 84.1529 128.328C85.0889 128.328 85.6049 127.872 85.6049 127.236C85.6049 125.484 81.8729 126.816 81.8729 124.344C81.8729 123.288 82.8209 122.604 84.1289 122.604C85.2089 122.604 86.2529 123.228 86.3969 124.356L85.5689 124.596C85.4849 123.864 84.8849 123.42 84.0689 123.42C83.2889 123.42 82.7849 123.804 82.7849 124.344C82.7849 125.928 86.5289 124.608 86.5289 127.188C86.5289 128.364 85.5569 129.156 84.1049 129.156ZM90.9605 129.156C89.1725 129.156 87.9125 127.8 87.9125 125.892C87.9125 123.972 89.1125 122.604 90.8885 122.604C92.1845 122.604 92.8325 123.444 93.0125 123.768H93.0845V122.76H94.0445V127.872C94.0445 128.064 94.1645 128.16 94.3565 128.16H94.6445V129H94.0325C93.5165 129 93.1325 128.616 93.1205 128.076V128.016H93.0485C92.8925 128.268 92.3165 129.156 90.9605 129.156ZM91.0085 128.304C92.3165 128.304 93.1205 127.212 93.1205 125.904C93.1205 124.356 92.1605 123.468 90.9965 123.468C89.7725 123.468 88.8845 124.476 88.8845 125.904C88.8845 127.356 89.8085 128.304 91.0085 128.304ZM96.8993 129V123.564H95.7233V122.76H96.8993V121.776C96.8993 120.516 97.6553 120 98.7953 120H99.6233V120.828H98.7833C98.1233 120.828 97.8473 121.116 97.8473 121.788V122.76H99.6713V123.564H97.8473V129H96.8993ZM103.782 129.156C101.886 129.156 100.698 127.824 100.698 125.904C100.698 123.912 102.066 122.604 103.722 122.604C105.606 122.604 106.686 123.924 106.686 125.796V126.144H101.67C101.682 127.536 102.498 128.316 103.794 128.316C104.67 128.316 105.474 127.812 105.678 126.948L106.602 127.164C106.254 128.328 105.222 129.156 103.782 129.156ZM101.694 125.376H105.714C105.654 124.08 104.754 123.456 103.722 123.456C102.702 123.456 101.766 124.2 101.694 125.376ZM108.007 130.332L108.211 127.884H109.279L108.787 130.332H108.007ZM120.646 129L118.702 122.76H119.734L121.258 128.112H121.33L122.854 122.76H124.174L125.686 128.112H125.758L127.294 122.76H128.326L126.37 129H125.05L123.55 123.648H123.478L121.966 129H120.646ZM131.053 121.632C130.657 121.632 130.369 121.332 130.369 120.936C130.369 120.552 130.657 120.252 131.053 120.252C131.461 120.252 131.749 120.552 131.749 120.936C131.749 121.332 131.461 121.632 131.053 121.632ZM130.585 129V123.564H129.409V122.76H131.533V129H130.585ZM136.378 129C135.238 129 134.482 128.484 134.482 127.224V123.564H133.306V122.76H134.542V120.948H135.43V122.76H137.35V123.564H135.43V127.212C135.43 127.884 135.706 128.172 136.366 128.172H137.266V129H136.378ZM139.086 129V120H140.034V123.672H140.106C140.37 123.108 141.066 122.604 142.038 122.604C143.49 122.604 144.39 123.696 144.39 125.076V129H143.442V125.136C143.442 124.14 142.686 123.492 141.81 123.492C140.85 123.492 140.034 124.2 140.034 125.208V129H139.086ZM157.109 129.156C155.321 129.156 154.061 127.8 154.061 125.892C154.061 123.972 155.261 122.604 157.037 122.604C158.333 122.604 158.981 123.444 159.161 123.768H159.233V122.76H160.193V127.872C160.193 128.064 160.313 128.16 160.505 128.16H160.793V129H160.181C159.665 129 159.281 128.616 159.269 128.076V128.016H159.197C159.041 128.268 158.465 129.156 157.109 129.156ZM157.157 128.304C158.465 128.304 159.269 127.212 159.269 125.904C159.269 124.356 158.309 123.468 157.145 123.468C155.921 123.468 155.033 124.476 155.033 125.904C155.033 127.356 155.957 128.304 157.157 128.304ZM170.699 129V122.76H171.635V123.804H171.707C171.887 123.276 172.499 122.604 173.411 122.604H173.819V123.552H173.255C172.115 123.552 171.647 124.476 171.647 125.664V129H170.699ZM177.913 129.156C176.041 129.156 174.661 127.776 174.661 125.88C174.661 123.996 176.065 122.604 177.925 122.604C179.809 122.604 181.177 124.008 181.177 125.88C181.177 127.752 179.785 129.156 177.913 129.156ZM177.913 128.292C179.257 128.292 180.205 127.272 180.205 125.88C180.205 124.5 179.257 123.468 177.913 123.468C176.569 123.468 175.633 124.512 175.633 125.88C175.633 127.284 176.581 128.292 177.913 128.292ZM182.188 129V128.184H183.448V120.816H182.188V120H184.396V128.184H185.656V129H182.188ZM186.852 129V128.184H188.112V120.816H186.852V120H189.06V128.184H190.32V129H186.852ZM194.303 129.156C192.407 129.156 191.219 127.824 191.219 125.904C191.219 123.912 192.587 122.604 194.243 122.604C196.127 122.604 197.207 123.924 197.207 125.796V126.144H192.191C192.203 127.536 193.019 128.316 194.315 128.316C195.191 128.316 195.995 127.812 196.199 126.948L197.123 127.164C196.775 128.328 195.743 129.156 194.303 129.156ZM192.215 125.376H196.235C196.175 124.08 195.275 123.456 194.243 123.456C193.223 123.456 192.287 124.2 192.215 125.376ZM201.451 129.156C199.675 129.156 198.403 127.8 198.403 125.892C198.403 123.972 199.615 122.604 201.379 122.604C202.687 122.604 203.323 123.444 203.515 123.768H203.587V120H204.535V129H203.623V128.016H203.551C203.395 128.244 202.807 129.156 201.451 129.156ZM201.511 128.304C202.807 128.304 203.623 127.2 203.623 125.904C203.623 124.356 202.663 123.468 201.487 123.468C200.263 123.468 199.375 124.476 199.375 125.904C199.375 127.356 200.299 128.304 201.511 128.304ZM214.678 129V122.76H215.614V123.804H215.686C215.866 123.276 216.478 122.604 217.39 122.604H217.798V123.552H217.234C216.094 123.552 215.626 124.476 215.626 125.664V129H214.678ZM220.637 121.632C220.241 121.632 219.953 121.332 219.953 120.936C219.953 120.552 220.241 120.252 220.637 120.252C221.045 120.252 221.333 120.552 221.333 120.936C221.333 121.332 221.045 121.632 220.637 121.632ZM220.169 129V123.564H218.993V122.76H221.117V129H220.169ZM223.49 129V122.76H224.438V123.66H224.51C224.81 123.084 225.41 122.604 226.334 122.604C227.27 122.604 227.954 123.06 228.302 123.744H228.386C228.806 122.94 229.49 122.604 230.366 122.604C231.758 122.604 232.658 123.588 232.658 124.956V129H231.71V125.268C231.71 124.092 231.122 123.492 230.198 123.492C229.322 123.492 228.554 124.116 228.554 125.28V129H227.606V125.088C227.606 124.092 226.934 123.492 226.058 123.492C225.182 123.492 224.438 124.188 224.438 125.244V129H223.49ZM243.257 129V123.564H242.081V122.76H243.257V121.776C243.257 120.516 244.013 120 245.153 120H245.981V120.828H245.141C244.481 120.828 244.205 121.116 244.205 121.788V122.76H246.029V123.564H244.205V129H243.257ZM250.307 129.156C248.435 129.156 247.055 127.776 247.055 125.88C247.055 123.996 248.459 122.604 250.319 122.604C252.203 122.604 253.571 124.008 253.571 125.88C253.571 127.752 252.179 129.156 250.307 129.156ZM250.307 128.292C251.651 128.292 252.599 127.272 252.599 125.88C252.599 124.5 251.651 123.468 250.307 123.468C248.963 123.468 248.027 124.512 248.027 125.88C248.027 127.284 248.975 128.292 250.307 128.292ZM255.246 129V122.76H256.182V123.804H256.254C256.434 123.276 257.046 122.604 257.958 122.604H258.366V123.552H257.802C256.662 123.552 256.194 124.476 256.194 125.664V129H255.246ZM270.597 129.156C268.809 129.156 267.549 127.8 267.549 125.892C267.549 123.972 268.749 122.604 270.525 122.604C271.821 122.604 272.469 123.444 272.649 123.768H272.721V122.76H273.681V127.872C273.681 128.064 273.801 128.16 273.993 128.16H274.281V129H273.669C273.153 129 272.769 128.616 272.757 128.076V128.016H272.685C272.529 128.268 271.953 129.156 270.597 129.156ZM270.645 128.304C271.953 128.304 272.757 127.212 272.757 125.904C272.757 124.356 271.797 123.468 270.633 123.468C269.409 123.468 268.521 124.476 268.521 125.904C268.521 127.356 269.445 128.304 270.645 128.304ZM3.144 143.156C1.74 143.156 0.864 142.388 0.72 141.272L1.584 141.056C1.656 141.896 2.244 142.328 3.192 142.328C4.128 142.328 4.644 141.872 4.644 141.236C4.644 139.484 0.912 140.816 0.912 138.344C0.912 137.288 1.86 136.604 3.168 136.604C4.248 136.604 5.292 137.228 5.436 138.356L4.608 138.596C4.524 137.864 3.924 137.42 3.108 137.42C2.328 137.42 1.824 137.804 1.824 138.344C1.824 139.928 5.568 138.608 5.568 141.188C5.568 142.364 4.596 143.156 3.144 143.156ZM10.0356 143.156C8.13956 143.156 6.95156 141.824 6.95156 139.904C6.95156 137.912 8.31956 136.604 9.97556 136.604C11.8596 136.604 12.9396 137.924 12.9396 139.796V140.144H7.92356C7.93556 141.536 8.75156 142.316 10.0476 142.316C10.9236 142.316 11.7276 141.812 11.9316 140.948L12.8556 141.164C12.5076 142.328 11.4756 143.156 10.0356 143.156ZM7.94756 139.376H11.9676C11.9076 138.08 11.0076 137.456 9.97556 137.456C8.95556 137.456 8.01956 138.2 7.94756 139.376ZM17.3392 143.156C15.4552 143.156 14.1352 141.728 14.1352 139.88C14.1352 138.032 15.4912 136.604 17.3272 136.604C18.6832 136.604 19.8832 137.42 20.2192 138.812L19.2832 139.028C19.1152 138.092 18.3232 137.468 17.3512 137.468C16.0192 137.468 15.1192 138.524 15.1192 139.88C15.1192 141.284 16.0672 142.292 17.3752 142.292C18.3472 142.292 19.1392 141.668 19.3072 140.732L20.2432 140.948C19.9072 142.34 18.6952 143.156 17.3392 143.156ZM24.1357 143.156C22.6837 143.156 21.8077 142.064 21.8077 140.684V136.76H22.7557V140.648C22.7557 141.644 23.4877 142.292 24.3637 142.292C25.3477 142.292 26.1157 141.536 26.1157 140.504V136.76H27.0637V143H26.1157V142.088H26.0437C25.7797 142.652 25.1077 143.156 24.1357 143.156ZM29.0995 143V136.76H30.0355V137.804H30.1075C30.2875 137.276 30.8995 136.604 31.8115 136.604H32.2195V137.552H31.6555C30.5155 137.552 30.0475 138.476 30.0475 139.664V143H29.0995ZM36.1449 143.156C34.2489 143.156 33.0609 141.824 33.0609 139.904C33.0609 137.912 34.4289 136.604 36.0849 136.604C37.9689 136.604 39.0489 137.924 39.0489 139.796V140.144H34.0329C34.0449 141.536 34.8609 142.316 36.1569 142.316C37.0329 142.316 37.8369 141.812 38.0409 140.948L38.9649 141.164C38.6169 142.328 37.5849 143.156 36.1449 143.156ZM34.0569 139.376H38.0769C38.0169 138.08 37.1169 137.456 36.0849 137.456C35.0649 137.456 34.1289 138.2 34.0569 139.376ZM40.3702 144.332L40.5742 141.884H41.6422L41.1502 144.332H40.3702ZM47.2849 143V142.184H48.5449V134.816H47.2849V134H49.4929V142.184H50.7529V143H47.2849ZM54.7358 143.156C52.8398 143.156 51.6518 141.824 51.6518 139.904C51.6518 137.912 53.0198 136.604 54.6758 136.604C56.5598 136.604 57.6398 137.924 57.6398 139.796V140.144H52.6238C52.6358 141.536 53.4518 142.316 54.7478 142.316C55.6238 142.316 56.4278 141.812 56.6318 140.948L57.5558 141.164C57.2078 142.328 56.1758 143.156 54.7358 143.156ZM52.6478 139.376H56.6678C56.6078 138.08 55.7078 137.456 54.6758 137.456C53.6558 137.456 52.7198 138.2 52.6478 139.376ZM61.8834 143.156C60.0954 143.156 58.8354 141.8 58.8354 139.892C58.8354 137.972 60.0354 136.604 61.8114 136.604C63.1074 136.604 63.7554 137.444 63.9354 137.768H64.0074V136.76H64.9674V141.872C64.9674 142.064 65.0874 142.16 65.2794 142.16H65.5674V143H64.9554C64.4394 143 64.0554 142.616 64.0434 142.076V142.016H63.9714C63.8154 142.268 63.2394 143.156 61.8834 143.156ZM61.9314 142.304C63.2394 142.304 64.0434 141.212 64.0434 139.904C64.0434 138.356 63.0834 137.468 61.9194 137.468C60.6954 137.468 59.8074 138.476 59.8074 139.904C59.8074 141.356 60.7314 142.304 61.9314 142.304ZM67.3661 143V134H68.3141V139.172H69.4061L71.1701 136.76H72.2621L70.2101 139.52V139.592L72.4181 143H71.2901L69.4421 140.036H68.3141V143H67.3661ZM73.5011 139.832V138.944H76.5611V139.832H73.5011ZM78.4755 143V136.76H79.4115V137.804H79.4835C79.6635 137.276 80.2755 136.604 81.1875 136.604H81.5955V137.552H81.0315C79.8915 137.552 79.4235 138.476 79.4235 139.664V143H78.4755ZM85.5209 143.156C83.6249 143.156 82.4369 141.824 82.4369 139.904C82.4369 137.912 83.8049 136.604 85.4609 136.604C87.3449 136.604 88.4249 137.924 88.4249 139.796V140.144H83.4089C83.4209 141.536 84.2369 142.316 85.5329 142.316C86.4089 142.316 87.2129 141.812 87.4169 140.948L88.3409 141.164C87.9929 142.328 86.9609 143.156 85.5209 143.156ZM83.4329 139.376H87.4529C87.3929 138.08 86.4929 137.456 85.4609 137.456C84.4409 137.456 83.5049 138.2 83.4329 139.376ZM92.1645 143.156C90.7605 143.156 89.8845 142.388 89.7405 141.272L90.6045 141.056C90.6765 141.896 91.2645 142.328 92.2125 142.328C93.1485 142.328 93.6645 141.872 93.6645 141.236C93.6645 139.484 89.9325 140.816 89.9325 138.344C89.9325 137.288 90.8805 136.604 92.1885 136.604C93.2685 136.604 94.3125 137.228 94.4565 138.356L93.6285 138.596C93.5445 137.864 92.9445 137.42 92.1285 137.42C91.3485 137.42 90.8445 137.804 90.8445 138.344C90.8445 139.928 94.5885 138.608 94.5885 141.188C94.5885 142.364 93.6165 143.156 92.1645 143.156ZM97.7361 135.632C97.3401 135.632 97.0521 135.332 97.0521 134.936C97.0521 134.552 97.3401 134.252 97.7361 134.252C98.1441 134.252 98.4321 134.552 98.4321 134.936C98.4321 135.332 98.1441 135.632 97.7361 135.632ZM97.2681 143V137.564H96.0921V136.76H98.2161V143H97.2681ZM102.653 143.156C101.249 143.156 100.373 142.388 100.229 141.272L101.093 141.056C101.165 141.896 101.753 142.328 102.701 142.328C103.637 142.328 104.153 141.872 104.153 141.236C104.153 139.484 100.421 140.816 100.421 138.344C100.421 137.288 101.369 136.604 102.677 136.604C103.757 136.604 104.801 137.228 104.945 138.356L104.117 138.596C104.033 137.864 103.433 137.42 102.617 137.42C101.837 137.42 101.333 137.804 101.333 138.344C101.333 139.928 105.077 138.608 105.077 141.188C105.077 142.364 104.105 143.156 102.653 143.156ZM109.412 143C108.272 143 107.516 142.484 107.516 141.224V137.564H106.34V136.76H107.576V134.948H108.464V136.76H110.384V137.564H108.464V141.212C108.464 141.884 108.74 142.172 109.4 142.172H110.3V143H109.412ZM114.688 143.156C112.9 143.156 111.64 141.8 111.64 139.892C111.64 137.972 112.84 136.604 114.616 136.604C115.912 136.604 116.56 137.444 116.74 137.768H116.812V136.76H117.772V141.872C117.772 142.064 117.892 142.16 118.084 142.16H118.372V143H117.76C117.244 143 116.86 142.616 116.848 142.076V142.016H116.776C116.62 142.268 116.044 143.156 114.688 143.156ZM114.736 142.304C116.044 142.304 116.848 141.212 116.848 139.904C116.848 138.356 115.888 137.468 114.724 137.468C113.5 137.468 112.612 138.476 112.612 139.904C112.612 141.356 113.536 142.304 114.736 142.304ZM120.171 143V136.76H121.119V137.672H121.191C121.455 137.108 122.127 136.604 123.099 136.604C124.551 136.604 125.427 137.696 125.427 139.076V143H124.479V139.136C124.479 138.14 123.747 137.492 122.871 137.492C121.887 137.492 121.119 138.248 121.119 139.28V143H120.171ZM129.944 143C128.804 143 128.048 142.484 128.048 141.224V137.564H126.872V136.76H128.108V134.948H128.996V136.76H130.916V137.564H128.996V141.212C128.996 141.884 129.272 142.172 129.932 142.172H130.832V143H129.944ZM136.259 143V142.184H137.519V134.816H136.259V134H138.467V142.184H139.727V143H136.259ZM142.272 135.632C141.876 135.632 141.588 135.332 141.588 134.936C141.588 134.552 141.876 134.252 142.272 134.252C142.68 134.252 142.968 134.552 142.968 134.936C142.968 135.332 142.68 135.632 142.272 135.632ZM141.804 143V137.564H140.628V136.76H142.752V143H141.804ZM147.693 143.156C145.917 143.156 144.645 141.8 144.645 139.892C144.645 137.972 145.857 136.604 147.621 136.604C148.929 136.604 149.565 137.444 149.757 137.768H149.829V134H150.777V143H149.865V142.016H149.793C149.637 142.244 149.049 143.156 147.693 143.156ZM147.753 142.304C149.049 142.304 149.865 141.2 149.865 139.904C149.865 138.356 148.905 137.468 147.729 137.468C146.505 137.468 145.617 138.476 145.617 139.904C145.617 141.356 146.541 142.304 147.753 142.304ZM152.572 139.796V138.98H161.968V139.796H152.572ZM164.943 145.76V144.884H167.655C168.315 144.884 168.591 144.56 168.591 143.888V141.992H168.519C168.315 142.376 167.691 143.156 166.383 143.156C164.619 143.156 163.407 141.8 163.407 139.868C163.407 137.96 164.679 136.604 166.455 136.604C167.811 136.604 168.399 137.516 168.555 137.744H168.627V136.76H169.539V143.984C169.539 145.244 168.783 145.76 167.643 145.76H164.943ZM166.491 142.292C167.667 142.292 168.627 141.404 168.627 139.868C168.627 138.56 167.811 137.468 166.515 137.468C165.315 137.468 164.379 138.404 164.379 139.868C164.379 141.296 165.267 142.292 166.491 142.292ZM171.574 143V136.76H172.51V137.804H172.582C172.762 137.276 173.374 136.604 174.286 136.604H174.694V137.552H174.13C172.99 137.552 172.522 138.476 172.522 139.664V143H171.574ZM178.62 143.156C176.724 143.156 175.536 141.824 175.536 139.904C175.536 137.912 176.904 136.604 178.56 136.604C180.444 136.604 181.524 137.924 181.524 139.796V140.144H176.508C176.52 141.536 177.336 142.316 178.632 142.316C179.508 142.316 180.312 141.812 180.516 140.948L181.44 141.164C181.092 142.328 180.06 143.156 178.62 143.156ZM176.532 139.376H180.552C180.492 138.08 179.592 137.456 178.56 137.456C177.54 137.456 176.604 138.2 176.532 139.376ZM185.767 143.156C183.979 143.156 182.719 141.8 182.719 139.892C182.719 137.972 183.919 136.604 185.695 136.604C186.991 136.604 187.639 137.444 187.819 137.768H187.891V136.76H188.851V141.872C188.851 142.064 188.971 142.16 189.163 142.16H189.451V143H188.839C188.323 143 187.939 142.616 187.927 142.076V142.016H187.855C187.699 142.268 187.123 143.156 185.767 143.156ZM185.815 142.304C187.123 142.304 187.927 141.212 187.927 139.904C187.927 138.356 186.967 137.468 185.803 137.468C184.579 137.468 183.691 138.476 183.691 139.904C183.691 141.356 184.615 142.304 185.815 142.304ZM193.722 143C192.582 143 191.826 142.484 191.826 141.224V137.564H190.65V136.76H191.886V134.948H192.774V136.76H194.694V137.564H192.774V141.212C192.774 141.884 193.05 142.172 193.71 142.172H194.61V143H193.722ZM200.793 143V137.564H199.617V136.76H200.793V135.776C200.793 134.516 201.549 134 202.689 134H203.517V134.828H202.677C202.017 134.828 201.741 135.116 201.741 135.788V136.76H203.565V137.564H201.741V143H200.793ZM207.843 143.156C205.971 143.156 204.591 141.776 204.591 139.88C204.591 137.996 205.995 136.604 207.855 136.604C209.739 136.604 211.107 138.008 211.107 139.88C211.107 141.752 209.715 143.156 207.843 143.156ZM207.843 142.292C209.187 142.292 210.135 141.272 210.135 139.88C210.135 138.5 209.187 137.468 207.843 137.468C206.499 137.468 205.563 138.512 205.563 139.88C205.563 141.284 206.511 142.292 207.843 142.292ZM212.782 143V136.76H213.718V137.804H213.79C213.97 137.276 214.582 136.604 215.494 136.604H215.902V137.552H215.338C214.198 137.552 213.73 138.476 213.73 139.664V143H212.782ZM224.089 143.156C222.205 143.156 220.885 141.728 220.885 139.88C220.885 138.032 222.241 136.604 224.077 136.604C225.433 136.604 226.633 137.42 226.969 138.812L226.033 139.028C225.865 138.092 225.073 137.468 224.101 137.468C222.769 137.468 221.869 138.524 221.869 139.88C221.869 141.284 222.817 142.292 224.125 142.292C225.097 142.292 225.889 141.668 226.057 140.732L226.993 140.948C226.657 142.34 225.445 143.156 224.089 143.156ZM231.246 143.156C229.458 143.156 228.198 141.8 228.198 139.892C228.198 137.972 229.398 136.604 231.174 136.604C232.47 136.604 233.118 137.444 233.298 137.768H233.37V136.76H234.33V141.872C234.33 142.064 234.45 142.16 234.642 142.16H234.93V143H234.318C233.802 143 233.418 142.616 233.406 142.076V142.016H233.334C233.178 142.268 232.602 143.156 231.246 143.156ZM231.294 142.304C232.602 142.304 233.406 141.212 233.406 139.904C233.406 138.356 232.446 137.468 231.282 137.468C230.058 137.468 229.17 138.476 229.17 139.904C229.17 141.356 230.094 142.304 231.294 142.304ZM239.2 143C238.06 143 237.304 142.484 237.304 141.224V137.564H236.128V136.76H237.364V134.948H238.252V136.76H240.172V137.564H238.252V141.212C238.252 141.884 238.528 142.172 239.188 142.172H240.088V143H239.2ZM244.512 143.156C242.616 143.156 241.428 141.824 241.428 139.904C241.428 137.912 242.796 136.604 244.452 136.604C246.336 136.604 247.416 137.924 247.416 139.796V140.144H242.4C242.412 141.536 243.228 142.316 244.524 142.316C245.4 142.316 246.204 141.812 246.408 140.948L247.332 141.164C246.984 142.328 245.952 143.156 244.512 143.156ZM242.424 139.376H246.444C246.384 138.08 245.484 137.456 244.452 137.456C243.432 137.456 242.496 138.2 242.424 139.376ZM249.092 143V136.76H250.028V137.804H250.1C250.28 137.276 250.892 136.604 251.804 136.604H252.212V137.552H251.648C250.508 137.552 250.04 138.476 250.04 139.664V143H249.092ZM255.052 135.632C254.656 135.632 254.368 135.332 254.368 134.936C254.368 134.552 254.656 134.252 255.052 134.252C255.46 134.252 255.748 134.552 255.748 134.936C255.748 135.332 255.46 135.632 255.052 135.632ZM254.584 143V137.564H253.408V136.76H255.532V143H254.584ZM257.904 143V136.76H258.852V137.672H258.924C259.188 137.108 259.86 136.604 260.832 136.604C262.284 136.604 263.16 137.696 263.16 139.076V143H262.212V139.136C262.212 138.14 261.48 137.492 260.604 137.492C259.62 137.492 258.852 138.248 258.852 139.28V143H257.904ZM266.261 145.76V144.884H268.973C269.633 144.884 269.909 144.56 269.909 143.888V141.992H269.837C269.633 142.376 269.009 143.156 267.701 143.156C265.937 143.156 264.725 141.8 264.725 139.868C264.725 137.96 265.997 136.604 267.773 136.604C269.129 136.604 269.717 137.516 269.873 137.744H269.945V136.76H270.857V143.984C270.857 145.244 270.101 145.76 268.961 145.76H266.261ZM267.809 142.292C268.985 142.292 269.945 141.404 269.945 139.868C269.945 138.56 269.129 137.468 267.833 137.468C266.633 137.468 265.697 138.404 265.697 139.868C265.697 141.296 266.585 142.292 267.809 142.292ZM272.773 144.332L272.977 141.884H274.045L273.553 144.332H272.773ZM3.552 157C2.412 157 1.656 156.484 1.656 155.224V151.564H0.48V150.76H1.716V148.948H2.604V150.76H4.524V151.564H2.604V155.212C2.604 155.884 2.88 156.172 3.54 156.172H4.44V157H3.552ZM8.82769 157.156C7.03969 157.156 5.77969 155.8 5.77969 153.892C5.77969 151.972 6.97969 150.604 8.75569 150.604C10.0517 150.604 10.6997 151.444 10.8797 151.768H10.9517V150.76H11.9117V155.872C11.9117 156.064 12.0317 156.16 12.2237 156.16H12.5117V157H11.8997C11.3837 157 10.9997 156.616 10.9877 156.076V156.016H10.9157C10.7597 156.268 10.1837 157.156 8.82769 157.156ZM8.87569 156.304C10.1837 156.304 10.9877 155.212 10.9877 153.904C10.9877 152.356 10.0277 151.468 8.86369 151.468C7.63969 151.468 6.75169 152.476 6.75169 153.904C6.75169 155.356 7.67569 156.304 8.87569 156.304ZM14.3105 157V148H15.2585V153.172H16.3505L18.1145 150.76H19.2065L17.1545 153.52V153.592L19.3625 157H18.2345L16.3865 154.036H15.2585V157H14.3105ZM23.0551 157.156C21.1591 157.156 19.9711 155.824 19.9711 153.904C19.9711 151.912 21.3391 150.604 22.9951 150.604C24.8791 150.604 25.9591 151.924 25.9591 153.796V154.144H20.9431C20.9551 155.536 21.7711 156.316 23.0671 156.316C23.9431 156.316 24.7471 155.812 24.9511 154.948L25.8751 155.164C25.5271 156.328 24.4951 157.156 23.0551 157.156ZM20.9671 153.376H24.9871C24.9271 152.08 24.0271 151.456 22.9951 151.456C21.9751 151.456 21.0391 152.2 20.9671 153.376ZM27.3947 153.832V152.944H30.4547V153.832H27.3947ZM35.1411 157.156C33.2691 157.156 31.8891 155.776 31.8891 153.88C31.8891 151.996 33.2931 150.604 35.1531 150.604C37.0371 150.604 38.4051 152.008 38.4051 153.88C38.4051 155.752 37.0131 157.156 35.1411 157.156ZM35.1411 156.292C36.4851 156.292 37.4331 155.272 37.4331 153.88C37.4331 152.5 36.4851 151.468 35.1411 151.468C33.7971 151.468 32.8611 152.512 32.8611 153.88C32.8611 155.284 33.8091 156.292 35.1411 156.292ZM42.288 157.156C40.836 157.156 39.96 156.064 39.96 154.684V150.76H40.908V154.648C40.908 155.644 41.64 156.292 42.516 156.292C43.5 156.292 44.268 155.536 44.268 154.504V150.76H45.216V157H44.268V156.088H44.196C43.932 156.652 43.26 157.156 42.288 157.156ZM49.7239 157C48.5839 157 47.8279 156.484 47.8279 155.224V151.564H46.6519V150.76H47.8879V148.948H48.7759V150.76H50.6959V151.564H48.7759V155.212C48.7759 155.884 49.0519 156.172 49.7119 156.172H50.6119V157H49.7239ZM52.3116 158.332L52.5156 155.884H53.5836L53.0916 158.332H52.3116ZM61.5503 157.156C59.7623 157.156 58.5023 155.8 58.5023 153.892C58.5023 151.972 59.7023 150.604 61.4783 150.604C62.7743 150.604 63.4223 151.444 63.6023 151.768H63.6743V150.76H64.6343V155.872C64.6343 156.064 64.7543 156.16 64.9463 156.16H65.2343V157H64.6223C64.1063 157 63.7223 156.616 63.7103 156.076V156.016H63.6383C63.4823 156.268 62.9063 157.156 61.5503 157.156ZM61.5983 156.304C62.9063 156.304 63.7103 155.212 63.7103 153.904C63.7103 152.356 62.7503 151.468 61.5863 151.468C60.3623 151.468 59.4743 152.476 59.4743 153.904C59.4743 155.356 60.3983 156.304 61.5983 156.304ZM67.0331 157V150.76H67.9811V151.672H68.0531C68.3171 151.108 68.9891 150.604 69.9611 150.604C71.4131 150.604 72.2891 151.696 72.2891 153.076V157H71.3411V153.136C71.3411 152.14 70.6091 151.492 69.7331 151.492C68.7491 151.492 67.9811 152.248 67.9811 153.28V157H67.0331ZM76.9019 157.156C75.1259 157.156 73.8539 155.8 73.8539 153.892C73.8539 151.972 75.0659 150.604 76.8299 150.604C78.1379 150.604 78.7739 151.444 78.9659 151.768H79.0379V148H79.9859V157H79.0739V156.016H79.0019C78.8459 156.244 78.2579 157.156 76.9019 157.156ZM76.9619 156.304C78.2579 156.304 79.0739 155.2 79.0739 153.904C79.0739 152.356 78.1139 151.468 76.9379 151.468C75.7139 151.468 74.8259 152.476 74.8259 153.904C74.8259 155.356 75.7499 156.304 76.9619 156.304ZM87.9527 157.156C86.1767 157.156 84.9047 155.8 84.9047 153.892C84.9047 151.972 86.1167 150.604 87.8807 150.604C89.1887 150.604 89.8247 151.444 90.0167 151.768H90.0887V148H91.0367V157H90.1247V156.016H90.0527C89.8967 156.244 89.3087 157.156 87.9527 157.156ZM88.0127 156.304C89.3087 156.304 90.1247 155.2 90.1247 153.904C90.1247 152.356 89.1647 151.468 87.9887 151.468C86.7647 151.468 85.8767 152.476 85.8767 153.904C85.8767 155.356 86.8007 156.304 88.0127 156.304ZM95.6762 157.156C93.7802 157.156 92.5922 155.824 92.5922 153.904C92.5922 151.912 93.9602 150.604 95.6162 150.604C97.5002 150.604 98.5802 151.924 98.5802 153.796V154.144H93.5642C93.5762 155.536 94.3922 156.316 95.6882 156.316C96.5642 156.316 97.3682 155.812 97.5722 154.948L98.4962 155.164C98.1482 156.328 97.1162 157.156 95.6762 157.156ZM93.5882 153.376H97.6082C97.5482 152.08 96.6482 151.456 95.6162 151.456C94.5962 151.456 93.6602 152.2 93.5882 153.376ZM99.5925 157V156.184H100.853V148.816H99.5925V148H101.801V156.184H103.061V157H99.5925ZM105.606 149.632C105.21 149.632 104.922 149.332 104.922 148.936C104.922 148.552 105.21 148.252 105.606 148.252C106.014 148.252 106.302 148.552 106.302 148.936C106.302 149.332 106.014 149.632 105.606 149.632ZM105.138 157V151.564H103.962V150.76H106.086V157H105.138ZM110.067 157L107.739 150.76H108.759L110.643 156.112H110.715L112.587 150.76H113.631L111.315 157H110.067ZM117.555 157.156C115.659 157.156 114.471 155.824 114.471 153.904C114.471 151.912 115.839 150.604 117.495 150.604C119.379 150.604 120.459 151.924 120.459 153.796V154.144H115.443C115.455 155.536 116.271 156.316 117.567 156.316C118.443 156.316 119.247 155.812 119.451 154.948L120.375 155.164C120.027 156.328 118.995 157.156 117.555 157.156ZM115.467 153.376H119.487C119.427 152.08 118.527 151.456 117.495 151.456C116.475 151.456 115.539 152.2 115.467 153.376ZM122.135 157V150.76H123.071V151.804H123.143C123.323 151.276 123.935 150.604 124.847 150.604H125.255V151.552H124.691C123.551 151.552 123.083 152.476 123.083 153.664V157H122.135ZM126.45 159.76V158.896H127.146C127.722 158.896 127.998 158.656 128.19 158.164L128.634 157H128.382L126.09 150.76H127.146L128.97 156.088H129.042L130.974 150.76H132.042L129.006 158.584C128.694 159.4 128.118 159.76 127.11 159.76H126.45ZM132.964 157.156C132.592 157.156 132.28 156.856 132.28 156.484C132.28 156.112 132.592 155.812 132.964 155.812C133.336 155.812 133.636 156.112 133.636 156.484C133.636 156.856 133.336 157.156 132.964 157.156Z" fill="black"/>
<path d="M0.64 43.056V42.224L6.576 34.8H7.856L1.968 42.224L1.344 42.032H10.352V43.056H0.64ZM6.96 46V43.056L6.992 42.032V39.44H8.112V46H6.96ZM12.4021 46V34.8H13.3781L18.4981 43.536H17.9861L23.0581 34.8H24.0341V46H22.8981V36.576H23.1701L18.4981 44.576H17.9381L13.2341 36.576H13.5381V46H12.4021ZM27.6834 46V34.8H31.8754C32.8247 34.8 33.6407 34.9547 34.3234 35.264C35.006 35.5627 35.5287 36 35.8914 36.576C36.2647 37.1413 36.4514 37.8293 36.4514 38.64C36.4514 39.4293 36.2647 40.112 35.8914 40.688C35.5287 41.2533 35.006 41.6907 34.3234 42C33.6407 42.3093 32.8247 42.464 31.8754 42.464H28.3394L28.8674 41.904V46H27.6834ZM28.8674 42L28.3394 41.424H31.8434C32.9634 41.424 33.8114 41.184 34.3874 40.704C34.974 40.2133 35.2674 39.5253 35.2674 38.64C35.2674 37.744 34.974 37.0507 34.3874 36.56C33.8114 36.0693 32.9634 35.824 31.8434 35.824H28.3394L28.8674 35.264V42ZM38.3038 42.16V41.168H42.4958V42.16H38.3038ZM45.2771 46V34.8H49.4691C50.4185 34.8 51.2345 34.9547 51.9171 35.264C52.5998 35.5627 53.1225 36 53.4851 36.576C53.8585 37.1413 54.0451 37.8293 54.0451 38.64C54.0451 39.4293 53.8585 40.112 53.4851 40.688C53.1225 41.2533 52.5998 41.6907 51.9171 42C51.2345 42.2987 50.4185 42.448 49.4691 42.448H45.9331L46.4611 41.904V46H45.2771ZM52.9251 46L50.0451 41.936H51.3251L54.2211 46H52.9251ZM46.4611 42L45.9331 41.44H49.4371C50.5571 41.44 51.4051 41.1947 51.9811 40.704C52.5678 40.2133 52.8611 39.5253 52.8611 38.64C52.8611 37.744 52.5678 37.0507 51.9811 36.56C51.4051 36.0693 50.5571 35.824 49.4371 35.824H45.9331L46.4611 35.264V42ZM55.9756 42.16V41.168H60.1676V42.16H55.9756ZM61.5615 46V45.184L66.2175 40.624C66.6442 40.208 66.9642 39.8453 67.1775 39.536C67.3908 39.216 67.5348 38.9173 67.6095 38.64C67.6842 38.3627 67.7215 38.1013 67.7215 37.856C67.7215 37.2053 67.4975 36.6933 67.0495 36.32C66.6122 35.9467 65.9615 35.76 65.0975 35.76C64.4362 35.76 63.8495 35.8613 63.3375 36.064C62.8362 36.2667 62.4042 36.5813 62.0415 37.008L61.2255 36.304C61.6628 35.792 62.2228 35.3973 62.9055 35.12C63.5882 34.8427 64.3508 34.704 65.1935 34.704C65.9508 34.704 66.6068 34.8267 67.1615 35.072C67.7162 35.3067 68.1428 35.6533 68.4415 36.112C68.7508 36.5707 68.9055 37.1093 68.9055 37.728C68.9055 38.0907 68.8522 38.448 68.7455 38.8C68.6495 39.152 68.4682 39.5253 68.2015 39.92C67.9455 40.304 67.5668 40.7413 67.0655 41.232L62.7935 45.424L62.4735 44.976H69.4175V46H61.5615ZM74.3993 46.096C73.5993 46.096 72.8366 45.968 72.1113 45.712C71.3859 45.4453 70.8099 45.0933 70.3833 44.656L70.9433 43.744C71.2953 44.1173 71.7753 44.4267 72.3832 44.672C73.0019 44.9173 73.6686 45.04 74.3833 45.04C75.3326 45.04 76.0526 44.832 76.5433 44.416C77.0446 43.9893 77.2953 43.4347 77.2953 42.752C77.2953 42.272 77.1779 41.8613 76.9433 41.52C76.7193 41.168 76.3353 40.896 75.7913 40.704C75.2473 40.512 74.5006 40.416 73.5513 40.416H71.1673L71.7433 34.8H77.8713V35.824H72.2073L72.7993 35.264L72.3033 39.968L71.7113 39.392H73.8073C74.9379 39.392 75.8446 39.5307 76.5273 39.808C77.2099 40.0853 77.7006 40.4747 77.9993 40.976C78.3086 41.4667 78.4633 42.0427 78.4633 42.704C78.4633 43.3333 78.3139 43.9093 78.0153 44.432C77.7166 44.944 77.2686 45.3493 76.6713 45.648C76.0739 45.9467 75.3166 46.096 74.3993 46.096ZM84.3898 46.096C83.5258 46.096 82.7578 45.872 82.0858 45.424C81.4138 44.9653 80.8858 44.3147 80.5018 43.472C80.1178 42.6187 79.9258 41.5947 79.9258 40.4C79.9258 39.2053 80.1178 38.1867 80.5018 37.344C80.8858 36.4907 81.4138 35.84 82.0858 35.392C82.7578 34.9333 83.5258 34.704 84.3898 34.704C85.2538 34.704 86.0218 34.9333 86.6938 35.392C87.3658 35.84 87.8938 36.4907 88.2778 37.344C88.6724 38.1867 88.8698 39.2053 88.8698 40.4C88.8698 41.5947 88.6724 42.6187 88.2778 43.472C87.8938 44.3147 87.3658 44.9653 86.6938 45.424C86.0218 45.872 85.2538 46.096 84.3898 46.096ZM84.3898 45.04C85.0511 45.04 85.6271 44.864 86.1178 44.512C86.6084 44.1493 86.9924 43.6267 87.2698 42.944C87.5471 42.2507 87.6858 41.4027 87.6858 40.4C87.6858 39.3973 87.5471 38.5547 87.2698 37.872C86.9924 37.1787 86.6084 36.656 86.1178 36.304C85.6271 35.9413 85.0511 35.76 84.3898 35.76C83.7498 35.76 83.1791 35.9413 82.6778 36.304C82.1764 36.656 81.7871 37.1787 81.5098 37.872C81.2324 38.5547 81.0938 39.3973 81.0938 40.4C81.0938 41.4027 81.2324 42.2507 81.5098 42.944C81.7871 43.6267 82.1764 44.1493 82.6778 44.512C83.1791 44.864 83.7498 45.04 84.3898 45.04Z" fill="black"/>
</svg>
