<svg width="275" height="137" viewBox="0 0 275 137" fill="none" xmlns="http://www.w3.org/2000/svg">
<path d="M7.968 17.18C7.08 17.18 6.21 17.054 5.358 16.802C4.518 16.538 3.81 16.178 3.234 15.722L4.224 13.904C4.68 14.276 5.232 14.576 5.88 14.804C6.54 15.032 7.224 15.146 7.932 15.146C8.76 15.146 9.408 14.972 9.876 14.624C10.356 14.276 10.596 13.808 10.596 13.22C10.596 12.824 10.494 12.476 10.29 12.176C10.098 11.876 9.75 11.648 9.246 11.492C8.754 11.336 8.076 11.258 7.212 11.258H4.17L4.818 4.4H12.216V6.362H5.682L6.906 5.246L6.42 10.376L5.196 9.278H7.734C8.982 9.278 9.984 9.446 10.74 9.782C11.508 10.106 12.066 10.562 12.414 11.15C12.774 11.726 12.954 12.386 12.954 13.13C12.954 13.862 12.774 14.534 12.414 15.146C12.054 15.758 11.502 16.25 10.758 16.622C10.026 16.994 9.096 17.18 7.968 17.18ZM19.5597 17.18C18.5637 17.18 17.6637 16.928 16.8597 16.424C16.0677 15.92 15.4437 15.188 14.9877 14.228C14.5317 13.256 14.3037 12.08 14.3037 10.7C14.3037 9.32 14.5317 8.15 14.9877 7.19C15.4437 6.218 16.0677 5.48 16.8597 4.976C17.6637 4.472 18.5637 4.22 19.5597 4.22C20.5677 4.22 21.4677 4.472 22.2597 4.976C23.0517 5.48 23.6757 6.218 24.1317 7.19C24.5997 8.15 24.8337 9.32 24.8337 10.7C24.8337 12.08 24.5997 13.256 24.1317 14.228C23.6757 15.188 23.0517 15.92 22.2597 16.424C21.4677 16.928 20.5677 17.18 19.5597 17.18ZM19.5597 15.146C20.1477 15.146 20.6577 14.99 21.0897 14.678C21.5217 14.354 21.8577 13.862 22.0977 13.202C22.3497 12.542 22.4757 11.708 22.4757 10.7C22.4757 9.68 22.3497 8.846 22.0977 8.198C21.8577 7.538 21.5217 7.052 21.0897 6.74C20.6577 6.416 20.1477 6.254 19.5597 6.254C18.9957 6.254 18.4917 6.416 18.0477 6.74C17.6157 7.052 17.2737 7.538 17.0217 8.198C16.7817 8.846 16.6617 9.68 16.6617 10.7C16.6617 11.708 16.7817 12.542 17.0217 13.202C17.2737 13.862 17.6157 14.354 18.0477 14.678C18.4917 14.99 18.9957 15.146 19.5597 15.146ZM39.231 7.28C39.999 7.28 40.677 7.43 41.265 7.73C41.865 8.03 42.333 8.492 42.669 9.116C43.005 9.728 43.173 10.52 43.173 11.492V17H40.923V11.78C40.923 10.928 40.737 10.292 40.365 9.872C39.993 9.452 39.459 9.242 38.763 9.242C38.271 9.242 37.833 9.35 37.449 9.566C37.077 9.782 36.783 10.1 36.567 10.52C36.363 10.94 36.261 11.474 36.261 12.122V17H34.011V11.78C34.011 10.928 33.825 10.292 33.453 9.872C33.081 9.452 32.547 9.242 31.851 9.242C31.359 9.242 30.921 9.35 30.537 9.566C30.165 9.782 29.871 10.1 29.655 10.52C29.451 10.94 29.349 11.474 29.349 12.122V17H27.099V7.388H29.241V9.944L28.863 9.188C29.187 8.564 29.655 8.09 30.267 7.766C30.891 7.442 31.599 7.28 32.391 7.28C33.291 7.28 34.071 7.502 34.731 7.946C35.403 8.39 35.847 9.062 36.063 9.962L35.181 9.656C35.493 8.936 36.009 8.36 36.729 7.928C37.449 7.496 38.283 7.28 39.231 7.28ZM46.0483 17V3.644H48.2983V17H46.0483ZM65.298 4.4H67.638V17H65.298V4.4ZM58.782 17H56.442V4.4H58.782V17ZM65.478 11.6H58.584V9.602H65.478V11.6ZM70.7983 17V7.388H73.0483V17H70.7983ZM71.9323 5.804C71.5123 5.804 71.1643 5.672 70.8883 5.408C70.6243 5.144 70.4923 4.826 70.4923 4.454C70.4923 4.07 70.6243 3.752 70.8883 3.5C71.1643 3.236 71.5123 3.104 71.9323 3.104C72.3523 3.104 72.6943 3.23 72.9583 3.482C73.2343 3.722 73.3723 4.028 73.3723 4.4C73.3723 4.796 73.2403 5.132 72.9763 5.408C72.7123 5.672 72.3643 5.804 71.9323 5.804ZM81.4554 7.28C82.2234 7.28 82.9074 7.43 83.5074 7.73C84.1194 8.03 84.5994 8.492 84.9474 9.116C85.2954 9.728 85.4694 10.52 85.4694 11.492V17H83.2194V11.78C83.2194 10.928 83.0154 10.292 82.6074 9.872C82.2114 9.452 81.6534 9.242 80.9334 9.242C80.4054 9.242 79.9374 9.35 79.5294 9.566C79.1214 9.782 78.8034 10.106 78.5754 10.538C78.3594 10.958 78.2514 11.492 78.2514 12.14V17H76.0014V7.388H78.1434V9.98L77.7654 9.188C78.1014 8.576 78.5874 8.108 79.2234 7.784C79.8714 7.448 80.6154 7.28 81.4554 7.28ZM92.6972 20.618C91.8092 20.618 90.9392 20.498 90.0872 20.258C89.2472 20.03 88.5572 19.694 88.0172 19.25L89.0252 17.558C89.4452 17.906 89.9732 18.182 90.6092 18.386C91.2572 18.602 91.9112 18.71 92.5712 18.71C93.6272 18.71 94.4012 18.464 94.8932 17.972C95.3852 17.492 95.6312 16.766 95.6312 15.794V14.084L95.8112 11.906L95.7392 9.728V7.388H97.8812V15.542C97.8812 17.282 97.4372 18.56 96.5492 19.376C95.6612 20.204 94.3772 20.618 92.6972 20.618ZM92.4092 16.568C91.4972 16.568 90.6692 16.376 89.9252 15.992C89.1932 15.596 88.6112 15.05 88.1792 14.354C87.7592 13.658 87.5492 12.842 87.5492 11.906C87.5492 10.982 87.7592 10.172 88.1792 9.476C88.6112 8.78 89.1932 8.24 89.9252 7.856C90.6692 7.472 91.4972 7.28 92.4092 7.28C93.2252 7.28 93.9572 7.442 94.6052 7.766C95.2532 8.09 95.7692 8.594 96.1532 9.278C96.5492 9.962 96.7472 10.838 96.7472 11.906C96.7472 12.974 96.5492 13.856 96.1532 14.552C95.7692 15.236 95.2532 15.746 94.6052 16.082C93.9572 16.406 93.2252 16.568 92.4092 16.568ZM92.7512 14.66C93.3152 14.66 93.8192 14.546 94.2632 14.318C94.7072 14.078 95.0492 13.754 95.2892 13.346C95.5412 12.926 95.6672 12.446 95.6672 11.906C95.6672 11.366 95.5412 10.892 95.2892 10.484C95.0492 10.064 94.7072 9.746 94.2632 9.53C93.8192 9.302 93.3152 9.188 92.7512 9.188C92.1872 9.188 91.6772 9.302 91.2212 9.53C90.7772 9.746 90.4292 10.064 90.1772 10.484C89.9372 10.892 89.8172 11.366 89.8172 11.906C89.8172 12.446 89.9372 12.926 90.1772 13.346C90.4292 13.754 90.7772 14.078 91.2212 14.318C91.6772 14.546 92.1872 14.66 92.7512 14.66ZM105.357 17.126C104.289 17.126 103.353 16.916 102.549 16.496C101.757 16.064 101.139 15.476 100.695 14.732C100.263 13.988 100.047 13.142 100.047 12.194C100.047 11.234 100.257 10.388 100.677 9.656C101.109 8.912 101.697 8.33 102.441 7.91C103.197 7.49 104.055 7.28 105.015 7.28C105.951 7.28 106.785 7.484 107.517 7.892C108.249 8.3 108.825 8.876 109.245 9.62C109.665 10.364 109.875 11.24 109.875 12.248C109.875 12.344 109.869 12.452 109.857 12.572C109.857 12.692 109.851 12.806 109.839 12.914H101.829V11.42H108.651L107.769 11.888C107.781 11.336 107.667 10.85 107.427 10.43C107.187 10.01 106.857 9.68 106.437 9.44C106.029 9.2 105.555 9.08 105.015 9.08C104.463 9.08 103.977 9.2 103.557 9.44C103.149 9.68 102.825 10.016 102.585 10.448C102.357 10.868 102.243 11.366 102.243 11.942V12.302C102.243 12.878 102.375 13.388 102.639 13.832C102.903 14.276 103.275 14.618 103.755 14.858C104.235 15.098 104.787 15.218 105.411 15.218C105.951 15.218 106.437 15.134 106.869 14.966C107.301 14.798 107.685 14.534 108.021 14.174L109.227 15.56C108.795 16.064 108.249 16.454 107.589 16.73C106.941 16.994 106.197 17.126 105.357 17.126ZM116.105 17.126C115.181 17.126 114.347 16.922 113.603 16.514C112.871 16.094 112.295 15.518 111.875 14.786C111.455 14.054 111.245 13.19 111.245 12.194C111.245 11.198 111.455 10.334 111.875 9.602C112.295 8.87 112.871 8.3 113.603 7.892C114.347 7.484 115.181 7.28 116.105 7.28C116.909 7.28 117.629 7.46 118.265 7.82C118.901 8.168 119.405 8.702 119.777 9.422C120.149 10.142 120.335 11.066 120.335 12.194C120.335 13.31 120.155 14.234 119.795 14.966C119.435 15.686 118.937 16.226 118.301 16.586C117.665 16.946 116.933 17.126 116.105 17.126ZM116.375 15.2C116.915 15.2 117.395 15.08 117.815 14.84C118.247 14.6 118.589 14.252 118.841 13.796C119.105 13.34 119.237 12.806 119.237 12.194C119.237 11.57 119.105 11.036 118.841 10.592C118.589 10.136 118.247 9.788 117.815 9.548C117.395 9.308 116.915 9.188 116.375 9.188C115.835 9.188 115.349 9.308 114.917 9.548C114.497 9.788 114.155 10.136 113.891 10.592C113.639 11.036 113.513 11.57 113.513 12.194C113.513 12.806 113.639 13.34 113.891 13.796C114.155 14.252 114.497 14.6 114.917 14.84C115.349 15.08 115.835 15.2 116.375 15.2ZM119.291 17V14.732L119.381 12.176L119.201 9.62V3.644H121.433V17H119.291ZM135.417 17.18C134.457 17.18 133.563 17.024 132.735 16.712C131.919 16.388 131.205 15.938 130.593 15.362C129.993 14.774 129.525 14.084 129.189 13.292C128.853 12.5 128.685 11.636 128.685 10.7C128.685 9.764 128.853 8.9 129.189 8.108C129.525 7.316 129.999 6.632 130.611 6.056C131.223 5.468 131.937 5.018 132.753 4.706C133.569 4.382 134.463 4.22 135.435 4.22C136.467 4.22 137.409 4.4 138.261 4.76C139.113 5.108 139.833 5.63 140.421 6.326L138.909 7.748C138.453 7.256 137.943 6.89 137.379 6.65C136.815 6.398 136.203 6.272 135.543 6.272C134.883 6.272 134.277 6.38 133.725 6.596C133.185 6.812 132.711 7.118 132.303 7.514C131.907 7.91 131.595 8.378 131.367 8.918C131.151 9.458 131.043 10.052 131.043 10.7C131.043 11.348 131.151 11.942 131.367 12.482C131.595 13.022 131.907 13.49 132.303 13.886C132.711 14.282 133.185 14.588 133.725 14.804C134.277 15.02 134.883 15.128 135.543 15.128C136.203 15.128 136.815 15.008 137.379 14.768C137.943 14.516 138.453 14.138 138.909 13.634L140.421 15.074C139.833 15.758 139.113 16.28 138.261 16.64C137.409 17 136.461 17.18 135.417 17.18ZM146.398 17.126C145.414 17.126 144.538 16.916 143.77 16.496C143.002 16.064 142.396 15.476 141.952 14.732C141.508 13.988 141.286 13.142 141.286 12.194C141.286 11.234 141.508 10.388 141.952 9.656C142.396 8.912 143.002 8.33 143.77 7.91C144.538 7.49 145.414 7.28 146.398 7.28C147.394 7.28 148.276 7.49 149.044 7.91C149.824 8.33 150.43 8.906 150.862 9.638C151.306 10.37 151.528 11.222 151.528 12.194C151.528 13.142 151.306 13.988 150.862 14.732C150.43 15.476 149.824 16.064 149.044 16.496C148.276 16.916 147.394 17.126 146.398 17.126ZM146.398 15.2C146.95 15.2 147.442 15.08 147.874 14.84C148.306 14.6 148.642 14.252 148.882 13.796C149.134 13.34 149.26 12.806 149.26 12.194C149.26 11.57 149.134 11.036 148.882 10.592C148.642 10.136 148.306 9.788 147.874 9.548C147.442 9.308 146.956 9.188 146.416 9.188C145.864 9.188 145.372 9.308 144.94 9.548C144.52 9.788 144.184 10.136 143.932 10.592C143.68 11.036 143.554 11.57 143.554 12.194C143.554 12.806 143.68 13.34 143.932 13.796C144.184 14.252 144.52 14.6 144.94 14.84C145.372 15.08 145.858 15.2 146.398 15.2ZM159.133 7.28C159.901 7.28 160.585 7.43 161.185 7.73C161.797 8.03 162.277 8.492 162.625 9.116C162.973 9.728 163.147 10.52 163.147 11.492V17H160.897V11.78C160.897 10.928 160.693 10.292 160.285 9.872C159.889 9.452 159.331 9.242 158.611 9.242C158.083 9.242 157.615 9.35 157.207 9.566C156.799 9.782 156.481 10.106 156.253 10.538C156.037 10.958 155.929 11.492 155.929 12.14V17H153.679V7.388H155.821V9.98L155.443 9.188C155.779 8.576 156.265 8.108 156.901 7.784C157.549 7.448 158.293 7.28 159.133 7.28ZM169.619 17.126C168.563 17.126 167.747 16.856 167.171 16.316C166.595 15.764 166.307 14.954 166.307 13.886V5.264H168.557V13.832C168.557 14.288 168.671 14.642 168.899 14.894C169.139 15.146 169.469 15.272 169.889 15.272C170.393 15.272 170.813 15.14 171.149 14.876L171.779 16.478C171.515 16.694 171.191 16.856 170.807 16.964C170.423 17.072 170.027 17.126 169.619 17.126ZM164.723 9.26V7.46H171.131V9.26H164.723ZM179.552 17V15.056L179.426 14.642V11.24C179.426 10.58 179.228 10.07 178.832 9.71C178.436 9.338 177.836 9.152 177.032 9.152C176.492 9.152 175.958 9.236 175.43 9.404C174.914 9.572 174.476 9.806 174.116 10.106L173.234 8.468C173.75 8.072 174.362 7.778 175.07 7.586C175.79 7.382 176.534 7.28 177.302 7.28C178.694 7.28 179.768 7.616 180.524 8.288C181.292 8.948 181.676 9.974 181.676 11.366V17H179.552ZM176.528 17.126C175.808 17.126 175.178 17.006 174.638 16.766C174.098 16.514 173.678 16.172 173.378 15.74C173.09 15.296 172.946 14.798 172.946 14.246C172.946 13.706 173.072 13.22 173.324 12.788C173.588 12.356 174.014 12.014 174.602 11.762C175.19 11.51 175.97 11.384 176.942 11.384H179.732V12.878H177.104C176.336 12.878 175.82 13.004 175.556 13.256C175.292 13.496 175.16 13.796 175.16 14.156C175.16 14.564 175.322 14.888 175.646 15.128C175.97 15.368 176.42 15.488 176.996 15.488C177.548 15.488 178.04 15.362 178.472 15.11C178.916 14.858 179.234 14.486 179.426 13.994L179.804 15.344C179.588 15.908 179.198 16.346 178.634 16.658C178.082 16.97 177.38 17.126 176.528 17.126ZM184.564 17V7.388H186.814V17H184.564ZM185.698 5.804C185.278 5.804 184.93 5.672 184.654 5.408C184.39 5.144 184.258 4.826 184.258 4.454C184.258 4.07 184.39 3.752 184.654 3.5C184.93 3.236 185.278 3.104 185.698 3.104C186.118 3.104 186.46 3.23 186.724 3.482C187 3.722 187.138 4.028 187.138 4.4C187.138 4.796 187.006 5.132 186.742 5.408C186.478 5.672 186.13 5.804 185.698 5.804ZM195.221 7.28C195.989 7.28 196.673 7.43 197.273 7.73C197.885 8.03 198.365 8.492 198.713 9.116C199.061 9.728 199.235 10.52 199.235 11.492V17H196.985V11.78C196.985 10.928 196.781 10.292 196.373 9.872C195.977 9.452 195.419 9.242 194.699 9.242C194.171 9.242 193.703 9.35 193.295 9.566C192.887 9.782 192.569 10.106 192.341 10.538C192.125 10.958 192.017 11.492 192.017 12.14V17H189.767V7.388H191.909V9.98L191.531 9.188C191.867 8.576 192.353 8.108 192.989 7.784C193.637 7.448 194.381 7.28 195.221 7.28ZM206.625 17.126C205.557 17.126 204.621 16.916 203.817 16.496C203.025 16.064 202.407 15.476 201.963 14.732C201.531 13.988 201.315 13.142 201.315 12.194C201.315 11.234 201.525 10.388 201.945 9.656C202.377 8.912 202.965 8.33 203.709 7.91C204.465 7.49 205.323 7.28 206.283 7.28C207.219 7.28 208.053 7.484 208.785 7.892C209.517 8.3 210.093 8.876 210.513 9.62C210.933 10.364 211.143 11.24 211.143 12.248C211.143 12.344 211.137 12.452 211.125 12.572C211.125 12.692 211.119 12.806 211.107 12.914H203.097V11.42H209.919L209.037 11.888C209.049 11.336 208.935 10.85 208.695 10.43C208.455 10.01 208.125 9.68 207.705 9.44C207.297 9.2 206.823 9.08 206.283 9.08C205.731 9.08 205.245 9.2 204.825 9.44C204.417 9.68 204.093 10.016 203.853 10.448C203.625 10.868 203.511 11.366 203.511 11.942V12.302C203.511 12.878 203.643 13.388 203.907 13.832C204.171 14.276 204.543 14.618 205.023 14.858C205.503 15.098 206.055 15.218 206.679 15.218C207.219 15.218 207.705 15.134 208.137 14.966C208.569 14.798 208.953 14.534 209.289 14.174L210.495 15.56C210.063 16.064 209.517 16.454 208.857 16.73C208.209 16.994 207.465 17.126 206.625 17.126ZM213.304 17V7.388H215.446V10.034L215.194 9.26C215.482 8.612 215.932 8.12 216.544 7.784C217.168 7.448 217.942 7.28 218.866 7.28V9.422C218.77 9.398 218.68 9.386 218.596 9.386C218.512 9.374 218.428 9.368 218.344 9.368C217.492 9.368 216.814 9.62 216.31 10.124C215.806 10.616 215.554 11.354 215.554 12.338V17H213.304ZM225.531 14.894V13.022L233.127 10.178V11.222L225.531 8.378V6.506L233.829 9.728V11.672L225.531 14.894Z" fill="#CE3439"/>
<path d="M1.2 78V69.6H3.972C5.496 69.6 6.54 70.596 6.54 72.12C6.54 73.632 5.448 74.676 3.972 74.676H2.172V78H1.2ZM2.172 73.812H3.888C4.896 73.812 5.544 73.092 5.544 72.12C5.544 71.16 4.896 70.464 3.888 70.464H2.172V73.812ZM10.7035 78.156C8.80753 78.156 7.61953 76.824 7.61953 74.904C7.61953 72.912 8.98753 71.604 10.6435 71.604C12.5275 71.604 13.6075 72.924 13.6075 74.796V75.144H8.59153C8.60353 76.536 9.41953 77.316 10.7155 77.316C11.5915 77.316 12.3955 76.812 12.5995 75.948L13.5235 76.164C13.1755 77.328 12.1435 78.156 10.7035 78.156ZM8.61553 74.376H12.6355C12.5755 73.08 11.6755 72.456 10.6435 72.456C9.62353 72.456 8.68753 73.2 8.61553 74.376ZM15.2831 78V71.76H16.2191V72.804H16.2911C16.4711 72.276 17.0831 71.604 17.9951 71.604H18.4031V72.552H17.8391C16.6991 72.552 16.2311 73.476 16.2311 74.664V78H15.2831ZM20.4149 78V72.564H19.2389V71.76H20.4149V70.776C20.4149 69.516 21.1709 69 22.3109 69H23.1389V69.828H22.2989C21.6389 69.828 21.3629 70.116 21.3629 70.788V71.76H23.1869V72.564H21.3629V78H20.4149ZM27.2973 78.156C25.4013 78.156 24.2133 76.824 24.2133 74.904C24.2133 72.912 25.5813 71.604 27.2373 71.604C29.1213 71.604 30.2013 72.924 30.2013 74.796V75.144H25.1853C25.1973 76.536 26.0133 77.316 27.3093 77.316C28.1853 77.316 28.9893 76.812 29.1933 75.948L30.1173 76.164C29.7693 77.328 28.7373 78.156 27.2973 78.156ZM25.2093 74.376H29.2293C29.1693 73.08 28.2693 72.456 27.2373 72.456C26.2173 72.456 25.2813 73.2 25.2093 74.376ZM34.6009 78.156C32.7169 78.156 31.3969 76.728 31.3969 74.88C31.3969 73.032 32.7529 71.604 34.5889 71.604C35.9449 71.604 37.1449 72.42 37.4809 73.812L36.5449 74.028C36.3769 73.092 35.5849 72.468 34.6129 72.468C33.2809 72.468 32.3809 73.524 32.3809 74.88C32.3809 76.284 33.3289 77.292 34.6369 77.292C35.6089 77.292 36.4009 76.668 36.5689 75.732L37.5049 75.948C37.1689 77.34 35.9569 78.156 34.6009 78.156ZM41.6614 78C40.5214 78 39.7654 77.484 39.7654 76.224V72.564H38.5894V71.76H39.8254V69.948H40.7134V71.76H42.6334V72.564H40.7134V76.212C40.7134 76.884 40.9894 77.172 41.6494 77.172H42.5494V78H41.6614ZM51.5256 78V72.564H50.3496V71.76H51.5256V70.776C51.5256 69.516 52.2816 69 53.4216 69H54.2496V69.828H53.4096C52.7496 69.828 52.4736 70.116 52.4736 70.788V71.76H54.2976V72.564H52.4736V78H51.5256ZM58.576 78.156C56.704 78.156 55.324 76.776 55.324 74.88C55.324 72.996 56.728 71.604 58.588 71.604C60.472 71.604 61.84 73.008 61.84 74.88C61.84 76.752 60.448 78.156 58.576 78.156ZM58.576 77.292C59.92 77.292 60.868 76.272 60.868 74.88C60.868 73.5 59.92 72.468 58.576 72.468C57.232 72.468 56.296 73.512 56.296 74.88C56.296 76.284 57.244 77.292 58.576 77.292ZM63.5149 78V71.76H64.4509V72.804H64.5229C64.7029 72.276 65.3149 71.604 66.2269 71.604H66.6349V72.552H66.0709C64.9309 72.552 64.4629 73.476 64.4629 74.664V78H63.5149ZM76.9552 78.156C75.5512 78.156 74.6752 77.388 74.5312 76.272L75.3952 76.056C75.4672 76.896 76.0552 77.328 77.0032 77.328C77.9392 77.328 78.4552 76.872 78.4552 76.236C78.4552 74.484 74.7232 75.816 74.7232 73.344C74.7232 72.288 75.6712 71.604 76.9792 71.604C78.0592 71.604 79.1032 72.228 79.2472 73.356L78.4192 73.596C78.3352 72.864 77.7352 72.42 76.9192 72.42C76.1392 72.42 75.6352 72.804 75.6352 73.344C75.6352 74.928 79.3792 73.608 79.3792 76.188C79.3792 77.364 78.4072 78.156 76.9552 78.156ZM82.5268 70.632C82.1308 70.632 81.8428 70.332 81.8428 69.936C81.8428 69.552 82.1308 69.252 82.5268 69.252C82.9348 69.252 83.2228 69.552 83.2228 69.936C83.2228 70.332 82.9348 70.632 82.5268 70.632ZM82.0588 78V72.564H80.8828V71.76H83.0068V78H82.0588ZM85.3795 78V71.76H86.3275V72.672H86.3995C86.6635 72.108 87.3355 71.604 88.3075 71.604C89.7595 71.604 90.6355 72.696 90.6355 74.076V78H89.6875V74.136C89.6875 73.14 88.9555 72.492 88.0795 72.492C87.0955 72.492 86.3275 73.248 86.3275 74.28V78H85.3795ZM93.7363 80.76V79.884H96.4483C97.1083 79.884 97.3843 79.56 97.3843 78.888V76.992H97.3123C97.1083 77.376 96.4843 78.156 95.1763 78.156C93.4123 78.156 92.2003 76.8 92.2003 74.868C92.2003 72.96 93.4723 71.604 95.2483 71.604C96.6043 71.604 97.1923 72.516 97.3483 72.744H97.4203V71.76H98.3323V78.984C98.3323 80.244 97.5763 80.76 96.4363 80.76H93.7363ZM95.2843 77.292C96.4603 77.292 97.4203 76.404 97.4203 74.868C97.4203 73.56 96.6043 72.468 95.3083 72.468C94.1083 72.468 93.1723 73.404 93.1723 74.868C93.1723 76.296 94.0603 77.292 95.2843 77.292ZM100.068 78V77.184H101.328V69.816H100.068V69H102.276V77.184H103.536V78H100.068ZM107.519 78.156C105.623 78.156 104.435 76.824 104.435 74.904C104.435 72.912 105.803 71.604 107.459 71.604C109.343 71.604 110.423 72.924 110.423 74.796V75.144H105.407C105.419 76.536 106.235 77.316 107.531 77.316C108.407 77.316 109.211 76.812 109.415 75.948L110.339 76.164C109.991 77.328 108.959 78.156 107.519 78.156ZM105.431 74.376H109.451C109.391 73.08 108.491 72.456 107.459 72.456C106.439 72.456 105.503 73.2 105.431 74.376ZM120.863 78.156C119.459 78.156 118.583 77.388 118.439 76.272L119.303 76.056C119.375 76.896 119.963 77.328 120.911 77.328C121.847 77.328 122.363 76.872 122.363 76.236C122.363 74.484 118.631 75.816 118.631 73.344C118.631 72.288 119.579 71.604 120.887 71.604C121.967 71.604 123.011 72.228 123.155 73.356L122.327 73.596C122.243 72.864 121.643 72.42 120.827 72.42C120.047 72.42 119.543 72.804 119.543 73.344C119.543 74.928 123.287 73.608 123.287 76.188C123.287 77.364 122.315 78.156 120.863 78.156ZM127.754 78.156C125.858 78.156 124.67 76.824 124.67 74.904C124.67 72.912 126.038 71.604 127.694 71.604C129.578 71.604 130.658 72.924 130.658 74.796V75.144H125.642C125.654 76.536 126.47 77.316 127.766 77.316C128.642 77.316 129.446 76.812 129.65 75.948L130.574 76.164C130.226 77.328 129.194 78.156 127.754 78.156ZM125.666 74.376H129.686C129.626 73.08 128.726 72.456 127.694 72.456C126.674 72.456 125.738 73.2 125.666 74.376ZM132.334 78V71.76H133.27V72.804H133.342C133.522 72.276 134.134 71.604 135.046 71.604H135.454V72.552H134.89C133.75 72.552 133.282 73.476 133.282 74.664V78H132.334ZM138.618 78L136.29 71.76H137.31L139.194 77.112H139.266L141.138 71.76H142.182L139.866 78H138.618ZM144.903 70.632C144.507 70.632 144.219 70.332 144.219 69.936C144.219 69.552 144.507 69.252 144.903 69.252C145.311 69.252 145.599 69.552 145.599 69.936C145.599 70.332 145.311 70.632 144.903 70.632ZM144.435 78V72.564H143.259V71.76H145.383V78H144.435ZM147.756 78V71.76H148.704V72.672H148.776C149.04 72.108 149.712 71.604 150.684 71.604C152.136 71.604 153.012 72.696 153.012 74.076V78H152.064V74.136C152.064 73.14 151.332 72.492 150.456 72.492C149.472 72.492 148.704 73.248 148.704 74.28V78H147.756ZM156.113 80.76V79.884H158.825C159.485 79.884 159.761 79.56 159.761 78.888V76.992H159.689C159.485 77.376 158.861 78.156 157.553 78.156C155.789 78.156 154.577 76.8 154.577 74.868C154.577 72.96 155.849 71.604 157.625 71.604C158.981 71.604 159.569 72.516 159.725 72.744H159.797V71.76H160.709V78.984C160.709 80.244 159.953 80.76 158.813 80.76H156.113ZM157.661 77.292C158.837 77.292 159.797 76.404 159.797 74.868C159.797 73.56 158.981 72.468 157.685 72.468C156.485 72.468 155.549 73.404 155.549 74.868C155.549 76.296 156.437 77.292 157.661 77.292ZM164.808 78.156C163.404 78.156 162.528 77.388 162.384 76.272L163.248 76.056C163.32 76.896 163.908 77.328 164.856 77.328C165.792 77.328 166.308 76.872 166.308 76.236C166.308 74.484 162.576 75.816 162.576 73.344C162.576 72.288 163.524 71.604 164.832 71.604C165.912 71.604 166.956 72.228 167.1 73.356L166.272 73.596C166.188 72.864 165.588 72.42 164.772 72.42C163.992 72.42 163.488 72.804 163.488 73.344C163.488 74.928 167.232 73.608 167.232 76.188C167.232 77.364 166.26 78.156 164.808 78.156ZM178.568 78.156C176.696 78.156 175.316 76.776 175.316 74.88C175.316 72.996 176.72 71.604 178.58 71.604C180.464 71.604 181.832 73.008 181.832 74.88C181.832 76.752 180.44 78.156 178.568 78.156ZM178.568 77.292C179.912 77.292 180.86 76.272 180.86 74.88C180.86 73.5 179.912 72.468 178.568 72.468C177.224 72.468 176.288 73.512 176.288 74.88C176.288 76.284 177.236 77.292 178.568 77.292ZM183.963 78V72.564H182.787V71.76H183.963V70.776C183.963 69.516 184.719 69 185.859 69H186.687V69.828H185.847C185.187 69.828 184.911 70.116 184.911 70.788V71.76H186.735V72.564H184.911V78H183.963ZM197.123 78.156C195.719 78.156 194.843 77.388 194.699 76.272L195.563 76.056C195.635 76.896 196.223 77.328 197.171 77.328C198.107 77.328 198.623 76.872 198.623 76.236C198.623 74.484 194.891 75.816 194.891 73.344C194.891 72.288 195.839 71.604 197.147 71.604C198.227 71.604 199.271 72.228 199.415 73.356L198.587 73.596C198.503 72.864 197.903 72.42 197.087 72.42C196.307 72.42 195.803 72.804 195.803 73.344C195.803 74.928 199.547 73.608 199.547 76.188C199.547 77.364 198.575 78.156 197.123 78.156ZM203.979 78.156C202.191 78.156 200.931 76.8 200.931 74.892C200.931 72.972 202.131 71.604 203.907 71.604C205.203 71.604 205.851 72.444 206.031 72.768H206.103V71.76H207.063V76.872C207.063 77.064 207.183 77.16 207.375 77.16H207.663V78H207.051C206.535 78 206.151 77.616 206.139 77.076V77.016H206.067C205.911 77.268 205.335 78.156 203.979 78.156ZM204.027 77.304C205.335 77.304 206.139 76.212 206.139 74.904C206.139 73.356 205.179 72.468 204.015 72.468C202.791 72.468 201.903 73.476 201.903 74.904C201.903 76.356 202.827 77.304 204.027 77.304ZM211.67 78.156C210.218 78.156 209.342 77.064 209.342 75.684V71.76H210.29V75.648C210.29 76.644 211.022 77.292 211.898 77.292C212.882 77.292 213.65 76.536 213.65 75.504V71.76H214.598V78H213.65V77.088H213.578C213.314 77.652 212.642 78.156 211.67 78.156ZM219.357 78.156C217.473 78.156 216.153 76.728 216.153 74.88C216.153 73.032 217.509 71.604 219.345 71.604C220.701 71.604 221.901 72.42 222.237 73.812L221.301 74.028C221.133 73.092 220.341 72.468 219.369 72.468C218.037 72.468 217.137 73.524 217.137 74.88C217.137 76.284 218.085 77.292 219.393 77.292C220.365 77.292 221.157 76.668 221.325 75.732L222.261 75.948C221.925 77.34 220.713 78.156 219.357 78.156ZM226.55 78.156C224.654 78.156 223.466 76.824 223.466 74.904C223.466 72.912 224.834 71.604 226.49 71.604C228.374 71.604 229.454 72.924 229.454 74.796V75.144H224.438C224.45 76.536 225.266 77.316 226.562 77.316C227.438 77.316 228.242 76.812 228.446 75.948L229.37 76.164C229.022 77.328 227.99 78.156 226.55 78.156ZM224.462 74.376H228.482C228.422 73.08 227.522 72.456 226.49 72.456C225.47 72.456 224.534 73.2 224.462 74.376ZM233.193 78.156C231.789 78.156 230.913 77.388 230.769 76.272L231.633 76.056C231.705 76.896 232.293 77.328 233.241 77.328C234.177 77.328 234.693 76.872 234.693 76.236C234.693 74.484 230.961 75.816 230.961 73.344C230.961 72.288 231.909 71.604 233.217 71.604C234.297 71.604 235.341 72.228 235.485 73.356L234.657 73.596C234.573 72.864 233.973 72.42 233.157 72.42C232.377 72.42 231.873 72.804 231.873 73.344C231.873 74.928 235.617 73.608 235.617 76.188C235.617 77.364 234.645 78.156 233.193 78.156ZM237.127 79.332L237.331 76.884H238.399L237.907 79.332H237.127ZM249.703 78.156C247.927 78.156 246.655 76.8 246.655 74.892C246.655 72.972 247.867 71.604 249.631 71.604C250.939 71.604 251.575 72.444 251.767 72.768H251.839V69H252.787V78H251.875V77.016H251.803C251.647 77.244 251.059 78.156 249.703 78.156ZM249.763 77.304C251.059 77.304 251.875 76.2 251.875 74.904C251.875 73.356 250.915 72.468 249.739 72.468C248.515 72.468 247.627 73.476 247.627 74.904C247.627 76.356 248.551 77.304 249.763 77.304ZM256.106 70.632C255.71 70.632 255.422 70.332 255.422 69.936C255.422 69.552 255.71 69.252 256.106 69.252C256.514 69.252 256.802 69.552 256.802 69.936C256.802 70.332 256.514 70.632 256.106 70.632ZM255.638 78V72.564H254.462V71.76H256.586V78H255.638ZM258.959 80.76V71.76H259.871V72.744H259.943C260.099 72.516 260.687 71.604 262.043 71.604C263.819 71.604 265.091 72.96 265.091 74.868C265.091 76.8 263.879 78.156 262.115 78.156C260.807 78.156 260.183 77.376 259.979 76.992H259.907V80.76H258.959ZM262.007 77.292C263.231 77.292 264.119 76.296 264.119 74.868C264.119 73.404 263.183 72.468 261.983 72.468C260.687 72.468 259.871 73.56 259.871 74.868C259.871 76.404 260.831 77.292 262.007 77.292ZM268.839 78.156C267.435 78.156 266.559 77.388 266.415 76.272L267.279 76.056C267.351 76.896 267.939 77.328 268.887 77.328C269.823 77.328 270.339 76.872 270.339 76.236C270.339 74.484 266.607 75.816 266.607 73.344C266.607 72.288 267.555 71.604 268.863 71.604C269.943 71.604 270.987 72.228 271.131 73.356L270.303 73.596C270.219 72.864 269.619 72.42 268.803 72.42C268.023 72.42 267.519 72.804 267.519 73.344C267.519 74.928 271.263 73.608 271.263 76.188C271.263 77.364 270.291 78.156 268.839 78.156ZM272.773 79.332L272.977 76.884H274.045L273.553 79.332H272.773ZM3.648 92.156C1.872 92.156 0.6 90.8 0.6 88.892C0.6 86.972 1.812 85.604 3.576 85.604C4.884 85.604 5.52 86.444 5.712 86.768H5.784V83H6.732V92H5.82V91.016H5.748C5.592 91.244 5.004 92.156 3.648 92.156ZM3.708 91.304C5.004 91.304 5.82 90.2 5.82 88.904C5.82 87.356 4.86 86.468 3.684 86.468C2.46 86.468 1.572 87.476 1.572 88.904C1.572 90.356 2.496 91.304 3.708 91.304ZM8.7675 92V85.76H9.7035V86.804H9.7755C9.9555 86.276 10.5675 85.604 11.4795 85.604H11.8875V86.552H11.3235C10.1835 86.552 9.7155 87.476 9.7155 88.664V92H8.7675ZM15.8129 92.156C13.9169 92.156 12.7289 90.824 12.7289 88.904C12.7289 86.912 14.0969 85.604 15.7529 85.604C17.6369 85.604 18.7169 86.924 18.7169 88.796V89.144H13.7009C13.7129 90.536 14.5289 91.316 15.8249 91.316C16.7009 91.316 17.5049 90.812 17.7089 89.948L18.6329 90.164C18.2849 91.328 17.2529 92.156 15.8129 92.156ZM13.7249 88.376H17.7449C17.6849 87.08 16.7849 86.456 15.7529 86.456C14.7329 86.456 13.7969 87.2 13.7249 88.376ZM22.4565 92.156C21.0525 92.156 20.1765 91.388 20.0325 90.272L20.8965 90.056C20.9685 90.896 21.5565 91.328 22.5045 91.328C23.4405 91.328 23.9565 90.872 23.9565 90.236C23.9565 88.484 20.2245 89.816 20.2245 87.344C20.2245 86.288 21.1725 85.604 22.4805 85.604C23.5605 85.604 24.6045 86.228 24.7485 87.356L23.9205 87.596C23.8365 86.864 23.2365 86.42 22.4205 86.42C21.6405 86.42 21.1365 86.804 21.1365 87.344C21.1365 88.928 24.8805 87.608 24.8805 90.188C24.8805 91.364 23.9085 92.156 22.4565 92.156ZM28.8081 92.156C27.4041 92.156 26.5281 91.388 26.3841 90.272L27.2481 90.056C27.3201 90.896 27.9081 91.328 28.8561 91.328C29.7921 91.328 30.3081 90.872 30.3081 90.236C30.3081 88.484 26.5761 89.816 26.5761 87.344C26.5761 86.288 27.5241 85.604 28.8321 85.604C29.9121 85.604 30.9561 86.228 31.1001 87.356L30.2721 87.596C30.1881 86.864 29.5881 86.42 28.7721 86.42C27.9921 86.42 27.4881 86.804 27.4881 87.344C27.4881 88.928 31.2321 87.608 31.2321 90.188C31.2321 91.364 30.2601 92.156 28.8081 92.156ZM34.3796 84.632C33.9836 84.632 33.6956 84.332 33.6956 83.936C33.6956 83.552 33.9836 83.252 34.3796 83.252C34.7876 83.252 35.0756 83.552 35.0756 83.936C35.0756 84.332 34.7876 84.632 34.3796 84.632ZM33.9116 92V86.564H32.7356V85.76H34.8596V92H33.9116ZM37.2323 92V85.76H38.1803V86.672H38.2523C38.5163 86.108 39.1883 85.604 40.1603 85.604C41.6123 85.604 42.4883 86.696 42.4883 88.076V92H41.5403V88.136C41.5403 87.14 40.8083 86.492 39.9323 86.492C38.9483 86.492 38.1803 87.248 38.1803 88.28V92H37.2323ZM45.5891 94.76V93.884H48.3011C48.9611 93.884 49.2371 93.56 49.2371 92.888V90.992H49.1651C48.9611 91.376 48.3371 92.156 47.0291 92.156C45.2651 92.156 44.0531 90.8 44.0531 88.868C44.0531 86.96 45.3251 85.604 47.1011 85.604C48.4571 85.604 49.0451 86.516 49.2011 86.744H49.2731V85.76H50.1851V92.984C50.1851 94.244 49.4291 94.76 48.2891 94.76H45.5891ZM47.1371 91.292C48.3131 91.292 49.2731 90.404 49.2731 88.868C49.2731 87.56 48.4571 86.468 47.1611 86.468C45.9611 86.468 45.0251 87.404 45.0251 88.868C45.0251 90.296 45.9131 91.292 47.1371 91.292ZM54.2846 92.156C52.8806 92.156 52.0046 91.388 51.8606 90.272L52.7246 90.056C52.7966 90.896 53.3846 91.328 54.3326 91.328C55.2686 91.328 55.7846 90.872 55.7846 90.236C55.7846 88.484 52.0526 89.816 52.0526 87.344C52.0526 86.288 53.0006 85.604 54.3086 85.604C55.3886 85.604 56.4326 86.228 56.5766 87.356L55.7486 87.596C55.6646 86.864 55.0646 86.42 54.2486 86.42C53.4686 86.42 52.9646 86.804 52.9646 87.344C52.9646 88.928 56.7086 87.608 56.7086 90.188C56.7086 91.364 55.7366 92.156 54.2846 92.156ZM58.2178 93.332L58.4218 90.884H59.4898L58.9978 93.332H58.2178ZM69.3145 92.156C67.4425 92.156 66.0625 90.776 66.0625 88.88C66.0625 86.996 67.4665 85.604 69.3265 85.604C71.2105 85.604 72.5785 87.008 72.5785 88.88C72.5785 90.752 71.1865 92.156 69.3145 92.156ZM69.3145 91.292C70.6585 91.292 71.6065 90.272 71.6065 88.88C71.6065 87.5 70.6585 86.468 69.3145 86.468C67.9705 86.468 67.0345 87.512 67.0345 88.88C67.0345 90.284 67.9825 91.292 69.3145 91.292ZM74.2534 92V85.76H75.1894V86.804H75.2614C75.4414 86.276 76.0534 85.604 76.9654 85.604H77.3734V86.552H76.8094C75.6694 86.552 75.2014 87.476 75.2014 88.664V92H74.2534ZM86.0104 92.156C84.6064 92.156 83.7304 91.388 83.5864 90.272L84.4504 90.056C84.5224 90.896 85.1104 91.328 86.0584 91.328C86.9944 91.328 87.5104 90.872 87.5104 90.236C87.5104 88.484 83.7784 89.816 83.7784 87.344C83.7784 86.288 84.7264 85.604 86.0344 85.604C87.1144 85.604 88.1584 86.228 88.3024 87.356L87.4744 87.596C87.3904 86.864 86.7904 86.42 85.9744 86.42C85.1944 86.42 84.6904 86.804 84.6904 87.344C84.6904 88.928 88.4344 87.608 88.4344 90.188C88.4344 91.364 87.4624 92.156 86.0104 92.156ZM92.866 92.156C91.078 92.156 89.818 90.8 89.818 88.892C89.818 86.972 91.018 85.604 92.794 85.604C94.09 85.604 94.738 86.444 94.918 86.768H94.99V85.76H95.95V90.872C95.95 91.064 96.07 91.16 96.262 91.16H96.55V92H95.938C95.422 92 95.038 91.616 95.026 91.076V91.016H94.954C94.798 91.268 94.222 92.156 92.866 92.156ZM92.914 91.304C94.222 91.304 95.026 90.212 95.026 88.904C95.026 87.356 94.066 86.468 92.902 86.468C91.678 86.468 90.79 87.476 90.79 88.904C90.79 90.356 91.714 91.304 92.914 91.304ZM98.3488 92V85.76H99.2968V86.66H99.3688C99.6688 86.084 100.269 85.604 101.193 85.604C102.129 85.604 102.813 86.06 103.161 86.744H103.245C103.665 85.94 104.349 85.604 105.225 85.604C106.617 85.604 107.517 86.588 107.517 87.956V92H106.569V88.268C106.569 87.092 105.981 86.492 105.057 86.492C104.181 86.492 103.413 87.116 103.413 88.28V92H102.465V88.088C102.465 87.092 101.793 86.492 100.917 86.492C100.041 86.492 99.2968 87.188 99.2968 88.244V92H98.3488ZM109.552 94.76V85.76H110.464V86.744H110.536C110.692 86.516 111.28 85.604 112.636 85.604C114.412 85.604 115.684 86.96 115.684 88.868C115.684 90.8 114.472 92.156 112.708 92.156C111.4 92.156 110.776 91.376 110.572 90.992H110.5V94.76H109.552ZM112.6 91.292C113.824 91.292 114.712 90.296 114.712 88.868C114.712 87.404 113.776 86.468 112.576 86.468C111.28 86.468 110.464 87.56 110.464 88.868C110.464 90.404 111.424 91.292 112.6 91.292ZM116.705 92V91.184H117.965V83.816H116.705V83H118.913V91.184H120.173V92H116.705ZM124.156 92.156C122.26 92.156 121.072 90.824 121.072 88.904C121.072 86.912 122.44 85.604 124.096 85.604C125.98 85.604 127.06 86.924 127.06 88.796V89.144H122.044C122.056 90.536 122.872 91.316 124.168 91.316C125.044 91.316 125.848 90.812 126.052 89.948L126.976 90.164C126.628 91.328 125.596 92.156 124.156 92.156ZM122.068 88.376H126.088C126.028 87.08 125.128 86.456 124.096 86.456C123.076 86.456 122.14 87.2 122.068 88.376ZM130.799 92.156C129.395 92.156 128.519 91.388 128.375 90.272L129.239 90.056C129.311 90.896 129.899 91.328 130.847 91.328C131.783 91.328 132.299 90.872 132.299 90.236C132.299 88.484 128.567 89.816 128.567 87.344C128.567 86.288 129.515 85.604 130.823 85.604C131.903 85.604 132.947 86.228 133.091 87.356L132.263 87.596C132.179 86.864 131.579 86.42 130.763 86.42C129.983 86.42 129.479 86.804 129.479 87.344C129.479 88.928 133.223 87.608 133.223 90.188C133.223 91.364 132.251 92.156 130.799 92.156ZM135.417 92.156C135.045 92.156 134.733 91.856 134.733 91.484C134.733 91.112 135.045 90.812 135.417 90.812C135.789 90.812 136.089 91.112 136.089 91.484C136.089 91.856 135.789 92.156 135.417 92.156ZM143.151 92V91.16H144.399V84.44H143.151V83.6H146.619V84.44H145.371V91.16H146.619V92H143.151ZM151.248 92C150.108 92 149.352 91.484 149.352 90.224V86.564H148.176V85.76H149.412V83.948H150.3V85.76H152.22V86.564H150.3V90.212C150.3 90.884 150.576 91.172 151.236 91.172H152.136V92H151.248ZM156.02 92.156C154.616 92.156 153.74 91.388 153.596 90.272L154.46 90.056C154.532 90.896 155.12 91.328 156.068 91.328C157.004 91.328 157.52 90.872 157.52 90.236C157.52 88.484 153.788 89.816 153.788 87.344C153.788 86.288 154.736 85.604 156.044 85.604C157.124 85.604 158.168 86.228 158.312 87.356L157.484 87.596C157.4 86.864 156.8 86.42 155.984 86.42C155.204 86.42 154.7 86.804 154.7 87.344C154.7 88.928 158.444 87.608 158.444 90.188C158.444 91.364 157.472 92.156 156.02 92.156ZM168.409 92.156C167.053 92.156 166.465 91.244 166.309 91.016H166.237V92H165.325V83H166.273V86.768H166.345C166.537 86.444 167.173 85.604 168.481 85.604C170.245 85.604 171.457 86.972 171.457 88.892C171.457 90.8 170.185 92.156 168.409 92.156ZM168.349 91.304C169.549 91.304 170.485 90.356 170.485 88.904C170.485 87.476 169.597 86.468 168.373 86.468C167.197 86.468 166.237 87.356 166.237 88.904C166.237 90.212 167.053 91.304 168.349 91.304ZM175.349 92.156C173.897 92.156 173.021 91.064 173.021 89.684V85.76H173.969V89.648C173.969 90.644 174.701 91.292 175.577 91.292C176.561 91.292 177.329 90.536 177.329 89.504V85.76H178.277V92H177.329V91.088H177.257C176.993 91.652 176.321 92.156 175.349 92.156ZM181.597 84.632C181.201 84.632 180.913 84.332 180.913 83.936C180.913 83.552 181.201 83.252 181.597 83.252C182.005 83.252 182.293 83.552 182.293 83.936C182.293 84.332 182.005 84.632 181.597 84.632ZM181.129 92V86.564H179.953V85.76H182.077V92H181.129ZM184.15 92V91.184H185.41V83.816H184.15V83H186.358V91.184H187.618V92H184.15ZM191.586 92C190.446 92 189.69 91.484 189.69 90.224V86.564H188.514V85.76H189.75V83.948H190.638V85.76H192.558V86.564H190.638V90.212C190.638 90.884 190.914 91.172 191.574 91.172H192.474V92H191.586ZM194.053 88.832V87.944H197.113V88.832H194.053ZM200.312 84.632C199.916 84.632 199.628 84.332 199.628 83.936C199.628 83.552 199.916 83.252 200.312 83.252C200.72 83.252 201.008 83.552 201.008 83.936C201.008 84.332 200.72 84.632 200.312 84.632ZM199.844 92V86.564H198.668V85.76H200.792V92H199.844ZM203.164 92V85.76H204.112V86.672H204.184C204.448 86.108 205.12 85.604 206.092 85.604C207.544 85.604 208.42 86.696 208.42 88.076V92H207.472V88.136C207.472 87.14 206.74 86.492 205.864 86.492C204.88 86.492 204.112 87.248 204.112 88.28V92H203.164ZM218.206 92.156C216.322 92.156 215.002 90.728 215.002 88.88C215.002 87.032 216.358 85.604 218.194 85.604C219.55 85.604 220.75 86.42 221.086 87.812L220.15 88.028C219.982 87.092 219.19 86.468 218.218 86.468C216.886 86.468 215.986 87.524 215.986 88.88C215.986 90.284 216.934 91.292 218.242 91.292C219.214 91.292 220.006 90.668 220.174 89.732L221.11 89.948C220.774 91.34 219.562 92.156 218.206 92.156ZM222.132 92V91.184H223.392V83.816H222.132V83H224.34V91.184H225.6V92H222.132ZM229.546 92.156C227.758 92.156 226.498 90.8 226.498 88.892C226.498 86.972 227.698 85.604 229.474 85.604C230.77 85.604 231.418 86.444 231.598 86.768H231.67V85.76H232.63V90.872C232.63 91.064 232.75 91.16 232.942 91.16H233.23V92H232.618C232.102 92 231.718 91.616 231.706 91.076V91.016H231.634C231.478 91.268 230.902 92.156 229.546 92.156ZM229.594 91.304C230.902 91.304 231.706 90.212 231.706 88.904C231.706 87.356 230.746 86.468 229.582 86.468C228.358 86.468 227.47 87.476 227.47 88.904C227.47 90.356 228.394 91.304 229.594 91.304ZM235.029 92V85.76H235.977V86.66H236.049C236.349 86.084 236.949 85.604 237.873 85.604C238.809 85.604 239.493 86.06 239.841 86.744H239.925C240.345 85.94 241.029 85.604 241.905 85.604C243.297 85.604 244.197 86.588 244.197 87.956V92H243.249V88.268C243.249 87.092 242.661 86.492 241.737 86.492C240.861 86.492 240.093 87.116 240.093 88.28V92H239.145V88.088C239.145 87.092 238.473 86.492 237.597 86.492C236.721 86.492 235.977 87.188 235.977 88.244V92H235.029ZM248.296 92.156C246.892 92.156 246.016 91.388 245.872 90.272L246.736 90.056C246.808 90.896 247.396 91.328 248.344 91.328C249.28 91.328 249.796 90.872 249.796 90.236C249.796 88.484 246.064 89.816 246.064 87.344C246.064 86.288 247.012 85.604 248.32 85.604C249.4 85.604 250.444 86.228 250.588 87.356L249.76 87.596C249.676 86.864 249.076 86.42 248.26 86.42C247.48 86.42 246.976 86.804 246.976 87.344C246.976 88.928 250.72 87.608 250.72 90.188C250.72 91.364 249.748 92.156 248.296 92.156ZM252.584 92V83H253.532V86.672H253.604C253.868 86.108 254.564 85.604 255.536 85.604C256.988 85.604 257.888 86.696 257.888 88.076V92H256.94V88.136C256.94 87.14 256.184 86.492 255.308 86.492C254.348 86.492 253.532 87.2 253.532 88.208V92H252.584ZM262.536 92.156C260.64 92.156 259.452 90.824 259.452 88.904C259.452 86.912 260.82 85.604 262.476 85.604C264.36 85.604 265.44 86.924 265.44 88.796V89.144H260.424C260.436 90.536 261.252 91.316 262.548 91.316C263.424 91.316 264.228 90.812 264.432 89.948L265.356 90.164C265.008 91.328 263.976 92.156 262.536 92.156ZM260.448 88.376H264.468C264.408 87.08 263.508 86.456 262.476 86.456C261.456 86.456 260.52 87.2 260.448 88.376ZM266.452 92V91.184H267.712V83.816H266.452V83H268.66V91.184H269.92V92H266.452ZM271.116 92V91.184H272.376V83.816H271.116V83H273.324V91.184H274.584V92H271.116ZM0.78 106V105.184H2.04V97.816H0.78V97H2.988V105.184H4.248V106H0.78ZM6.79369 98.632C6.39769 98.632 6.10969 98.332 6.10969 97.936C6.10969 97.552 6.39769 97.252 6.79369 97.252C7.20169 97.252 7.48969 97.552 7.48969 97.936C7.48969 98.332 7.20169 98.632 6.79369 98.632ZM6.32569 106V100.564H5.14969V99.76H7.27369V106H6.32569ZM12.2144 106.156C10.4384 106.156 9.16641 104.8 9.16641 102.892C9.16641 100.972 10.3784 99.604 12.1424 99.604C13.4504 99.604 14.0864 100.444 14.2784 100.768H14.3504V97H15.2984V106H14.3864V105.016H14.3144C14.1584 105.244 13.5704 106.156 12.2144 106.156ZM12.2744 105.304C13.5704 105.304 14.3864 104.2 14.3864 102.904C14.3864 101.356 13.4264 100.468 12.2504 100.468C11.0264 100.468 10.1384 101.476 10.1384 102.904C10.1384 104.356 11.0624 105.304 12.2744 105.304ZM21.2826 108.76V99.76H22.1946V100.744H22.2666C22.4226 100.516 23.0106 99.604 24.3666 99.604C26.1426 99.604 27.4146 100.96 27.4146 102.868C27.4146 104.8 26.2026 106.156 24.4386 106.156C23.1306 106.156 22.5066 105.376 22.3026 104.992H22.2306V108.76H21.2826ZM24.3306 105.292C25.5546 105.292 26.4426 104.296 26.4426 102.868C26.4426 101.404 25.5066 100.468 24.3066 100.468C23.0106 100.468 22.1946 101.56 22.1946 102.868C22.1946 104.404 23.1546 105.292 24.3306 105.292ZM29.099 106V99.76H30.035V100.804H30.107C30.287 100.276 30.899 99.604 31.811 99.604H32.219V100.552H31.655C30.515 100.552 30.047 101.476 30.047 102.664V106H29.099ZM36.1444 106.156C34.2484 106.156 33.0604 104.824 33.0604 102.904C33.0604 100.912 34.4284 99.604 36.0844 99.604C37.9684 99.604 39.0484 100.924 39.0484 102.796V103.144H34.0324C34.0444 104.536 34.8604 105.316 36.1564 105.316C37.0324 105.316 37.8364 104.812 38.0404 103.948L38.9644 104.164C38.6164 105.328 37.5844 106.156 36.1444 106.156ZM34.0564 102.376H38.0764C38.0164 101.08 37.1164 100.456 36.0844 100.456C35.0644 100.456 34.1284 101.2 34.0564 102.376ZM42.2148 106L39.8868 99.76H40.9068L42.7908 105.112H42.8628L44.7348 99.76H45.7788L43.4628 106H42.2148ZM49.703 106.156C47.807 106.156 46.619 104.824 46.619 102.904C46.619 100.912 47.987 99.604 49.643 99.604C51.527 99.604 52.607 100.924 52.607 102.796V103.144H47.591C47.603 104.536 48.419 105.316 49.715 105.316C50.591 105.316 51.395 104.812 51.599 103.948L52.523 104.164C52.175 105.328 51.143 106.156 49.703 106.156ZM47.615 102.376H51.635C51.575 101.08 50.675 100.456 49.643 100.456C48.623 100.456 47.687 101.2 47.615 102.376ZM54.2826 106V99.76H55.2306V100.672H55.3026C55.5666 100.108 56.2386 99.604 57.2106 99.604C58.6626 99.604 59.5386 100.696 59.5386 102.076V106H58.5906V102.136C58.5906 101.14 57.8586 100.492 56.9826 100.492C55.9986 100.492 55.2306 101.248 55.2306 102.28V106H54.2826ZM64.0553 106C62.9153 106 62.1593 105.484 62.1593 104.224V100.564H60.9833V99.76H62.2193V97.948H63.1073V99.76H65.0273V100.564H63.1073V104.212C63.1073 104.884 63.3833 105.172 64.0433 105.172H64.9433V106H64.0553ZM68.827 106.156C67.423 106.156 66.547 105.388 66.403 104.272L67.267 104.056C67.339 104.896 67.927 105.328 68.875 105.328C69.811 105.328 70.327 104.872 70.327 104.236C70.327 102.484 66.595 103.816 66.595 101.344C66.595 100.288 67.543 99.604 68.851 99.604C69.931 99.604 70.975 100.228 71.119 101.356L70.291 101.596C70.207 100.864 69.607 100.42 68.791 100.42C68.011 100.42 67.507 100.804 67.507 101.344C67.507 102.928 71.251 101.608 71.251 104.188C71.251 105.364 70.279 106.156 68.827 106.156ZM76.7633 106V105.184H78.0233V97.816H76.7633V97H78.9713V105.184H80.2313V106H76.7633ZM84.2141 106.156C82.3181 106.156 81.1301 104.824 81.1301 102.904C81.1301 100.912 82.4981 99.604 84.1541 99.604C86.0381 99.604 87.1181 100.924 87.1181 102.796V103.144H82.1021C82.1141 104.536 82.9301 105.316 84.2261 105.316C85.1021 105.316 85.9061 104.812 86.1101 103.948L87.0341 104.164C86.6861 105.328 85.6541 106.156 84.2141 106.156ZM82.1261 102.376H86.1461C86.0861 101.08 85.1861 100.456 84.1541 100.456C83.1341 100.456 82.1981 101.2 82.1261 102.376ZM91.3617 106.156C89.5737 106.156 88.3137 104.8 88.3137 102.892C88.3137 100.972 89.5137 99.604 91.2897 99.604C92.5857 99.604 93.2337 100.444 93.4137 100.768H93.4857V99.76H94.4457V104.872C94.4457 105.064 94.5657 105.16 94.7577 105.16H95.0457V106H94.4337C93.9177 106 93.5337 105.616 93.5217 105.076V105.016H93.4497C93.2937 105.268 92.7177 106.156 91.3617 106.156ZM91.4097 105.304C92.7177 105.304 93.5217 104.212 93.5217 102.904C93.5217 101.356 92.5617 100.468 91.3977 100.468C90.1737 100.468 89.2857 101.476 89.2857 102.904C89.2857 104.356 90.2097 105.304 91.4097 105.304ZM96.8445 106V97H97.7925V102.172H98.8845L100.649 99.76H101.741L99.6885 102.52V102.592L101.897 106H100.769L98.9205 103.036H97.7925V106H96.8445ZM105.284 106.156C103.88 106.156 103.004 105.388 102.86 104.272L103.724 104.056C103.796 104.896 104.384 105.328 105.332 105.328C106.268 105.328 106.784 104.872 106.784 104.236C106.784 102.484 103.052 103.816 103.052 101.344C103.052 100.288 104 99.604 105.308 99.604C106.388 99.604 107.432 100.228 107.576 101.356L106.748 101.596C106.664 100.864 106.064 100.42 105.248 100.42C104.468 100.42 103.964 100.804 103.964 101.344C103.964 102.928 107.708 101.608 107.708 104.188C107.708 105.364 106.736 106.156 105.284 106.156ZM116.088 106.156C114.3 106.156 113.04 104.8 113.04 102.892C113.04 100.972 114.24 99.604 116.016 99.604C117.312 99.604 117.96 100.444 118.14 100.768H118.212V99.76H119.172V104.872C119.172 105.064 119.292 105.16 119.484 105.16H119.772V106H119.16C118.644 106 118.26 105.616 118.248 105.076V105.016H118.176C118.02 105.268 117.444 106.156 116.088 106.156ZM116.136 105.304C117.444 105.304 118.248 104.212 118.248 102.904C118.248 101.356 117.288 100.468 116.124 100.468C114.9 100.468 114.012 101.476 114.012 102.904C114.012 104.356 114.936 105.304 116.136 105.304ZM121.571 106V99.76H122.519V100.672H122.591C122.855 100.108 123.527 99.604 124.499 99.604C125.951 99.604 126.827 100.696 126.827 102.076V106H125.879V102.136C125.879 101.14 125.147 100.492 124.271 100.492C123.287 100.492 122.519 101.248 122.519 102.28V106H121.571ZM131.439 106.156C129.663 106.156 128.391 104.8 128.391 102.892C128.391 100.972 129.603 99.604 131.367 99.604C132.675 99.604 133.311 100.444 133.503 100.768H133.575V97H134.523V106H133.611V105.016H133.539C133.383 105.244 132.795 106.156 131.439 106.156ZM131.499 105.304C132.795 105.304 133.611 104.2 133.611 102.904C133.611 101.356 132.651 100.468 131.475 100.468C130.251 100.468 129.363 101.476 129.363 102.904C129.363 104.356 130.287 105.304 131.499 105.304ZM142.571 106.156C141.167 106.156 140.291 105.388 140.147 104.272L141.011 104.056C141.083 104.896 141.671 105.328 142.619 105.328C143.555 105.328 144.071 104.872 144.071 104.236C144.071 102.484 140.339 103.816 140.339 101.344C140.339 100.288 141.287 99.604 142.595 99.604C143.675 99.604 144.719 100.228 144.863 101.356L144.035 101.596C143.951 100.864 143.351 100.42 142.535 100.42C141.755 100.42 141.251 100.804 141.251 101.344C141.251 102.928 144.995 101.608 144.995 104.188C144.995 105.364 144.023 106.156 142.571 106.156ZM146.859 108.76V99.76H147.771V100.744H147.843C147.999 100.516 148.587 99.604 149.943 99.604C151.719 99.604 152.991 100.96 152.991 102.868C152.991 104.8 151.779 106.156 150.015 106.156C148.707 106.156 148.083 105.376 147.879 104.992H147.807V108.76H146.859ZM149.907 105.292C151.131 105.292 152.019 104.296 152.019 102.868C152.019 101.404 151.083 100.468 149.883 100.468C148.587 100.468 147.771 101.56 147.771 102.868C147.771 104.404 148.731 105.292 149.907 105.292ZM155.959 98.632C155.563 98.632 155.275 98.332 155.275 97.936C155.275 97.552 155.563 97.252 155.959 97.252C156.367 97.252 156.655 97.552 156.655 97.936C156.655 98.332 156.367 98.632 155.959 98.632ZM155.491 106V100.564H154.315V99.76H156.439V106H155.491ZM158.512 106V105.184H159.772V97.816H158.512V97H160.72V105.184H161.98V106H158.512ZM163.176 106V105.184H164.436V97.816H163.176V97H165.384V105.184H166.644V106H163.176ZM170.204 106.156C168.8 106.156 167.924 105.388 167.78 104.272L168.644 104.056C168.716 104.896 169.304 105.328 170.252 105.328C171.188 105.328 171.704 104.872 171.704 104.236C171.704 102.484 167.972 103.816 167.972 101.344C167.972 100.288 168.92 99.604 170.228 99.604C171.308 99.604 172.352 100.228 172.496 101.356L171.668 101.596C171.584 100.864 170.984 100.42 170.168 100.42C169.388 100.42 168.884 100.804 168.884 101.344C168.884 102.928 172.628 101.608 172.628 104.188C172.628 105.364 171.656 106.156 170.204 106.156ZM174.137 107.332L174.341 104.884H175.409L174.917 107.332H174.137ZM182.618 106L180.674 99.76H181.706L183.23 105.112H183.302L184.826 99.76H186.146L187.658 105.112H187.73L189.266 99.76H190.298L188.342 106H187.022L185.522 100.648H185.45L183.938 106H182.618ZM191.741 106V97H192.689V100.672H192.761C193.025 100.108 193.721 99.604 194.693 99.604C196.145 99.604 197.045 100.696 197.045 102.076V106H196.097V102.136C196.097 101.14 195.341 100.492 194.465 100.492C193.505 100.492 192.689 101.2 192.689 102.208V106H191.741ZM200.373 98.632C199.977 98.632 199.689 98.332 199.689 97.936C199.689 97.552 199.977 97.252 200.373 97.252C200.781 97.252 201.069 97.552 201.069 97.936C201.069 98.332 200.781 98.632 200.373 98.632ZM199.905 106V100.564H198.729V99.76H200.853V106H199.905ZM202.926 106V105.184H204.186V97.816H202.926V97H205.134V105.184H206.394V106H202.926ZM210.377 106.156C208.481 106.156 207.293 104.824 207.293 102.904C207.293 100.912 208.661 99.604 210.317 99.604C212.201 99.604 213.281 100.924 213.281 102.796V103.144H208.265C208.277 104.536 209.093 105.316 210.389 105.316C211.265 105.316 212.069 104.812 212.273 103.948L213.197 104.164C212.849 105.328 211.817 106.156 210.377 106.156ZM208.289 102.376H212.309C212.249 101.08 211.349 100.456 210.317 100.456C209.297 100.456 208.361 101.2 208.289 102.376ZM221.377 106C220.237 106 219.481 105.484 219.481 104.224V100.564H218.305V99.76H219.541V97.948H220.429V99.76H222.349V100.564H220.429V104.212C220.429 104.884 220.705 105.172 221.365 105.172H222.265V106H221.377ZM224.084 106V97H225.032V100.672H225.104C225.368 100.108 226.064 99.604 227.036 99.604C228.488 99.604 229.388 100.696 229.388 102.076V106H228.44V102.136C228.44 101.14 227.684 100.492 226.808 100.492C225.848 100.492 225.032 101.2 225.032 102.208V106H224.084ZM234.036 106.156C232.14 106.156 230.952 104.824 230.952 102.904C230.952 100.912 232.32 99.604 233.976 99.604C235.86 99.604 236.94 100.924 236.94 102.796V103.144H231.924C231.936 104.536 232.752 105.316 234.048 105.316C234.924 105.316 235.728 104.812 235.932 103.948L236.856 104.164C236.508 105.328 235.476 106.156 234.036 106.156ZM231.948 102.376H235.968C235.908 101.08 235.008 100.456 233.976 100.456C232.956 100.456 232.02 101.2 231.948 102.376ZM245.288 106.156C243.404 106.156 242.084 104.728 242.084 102.88C242.084 101.032 243.44 99.604 245.276 99.604C246.632 99.604 247.832 100.42 248.168 101.812L247.232 102.028C247.064 101.092 246.272 100.468 245.3 100.468C243.968 100.468 243.068 101.524 243.068 102.88C243.068 104.284 244.016 105.292 245.324 105.292C246.296 105.292 247.088 104.668 247.256 103.732L248.192 103.948C247.856 105.34 246.644 106.156 245.288 106.156ZM249.214 106V105.184H250.474V97.816H249.214V97H251.422V105.184H252.682V106H249.214ZM256.664 106.156C254.768 106.156 253.58 104.824 253.58 102.904C253.58 100.912 254.948 99.604 256.604 99.604C258.488 99.604 259.568 100.924 259.568 102.796V103.144H254.552C254.564 104.536 255.38 105.316 256.676 105.316C257.552 105.316 258.356 104.812 258.56 103.948L259.484 104.164C259.136 105.328 258.104 106.156 256.664 106.156ZM254.576 102.376H258.596C258.536 101.08 257.636 100.456 256.604 100.456C255.584 100.456 254.648 101.2 254.576 102.376ZM263.812 106.156C262.024 106.156 260.764 104.8 260.764 102.892C260.764 100.972 261.964 99.604 263.74 99.604C265.036 99.604 265.684 100.444 265.864 100.768H265.936V99.76H266.896V104.872C266.896 105.064 267.016 105.16 267.208 105.16H267.496V106H266.884C266.368 106 265.984 105.616 265.972 105.076V105.016H265.9C265.744 105.268 265.168 106.156 263.812 106.156ZM263.86 105.304C265.168 105.304 265.972 104.212 265.972 102.904C265.972 101.356 265.012 100.468 263.848 100.468C262.624 100.468 261.736 101.476 261.736 102.904C261.736 104.356 262.66 105.304 263.86 105.304ZM269.295 106V99.76H270.231V100.804H270.303C270.483 100.276 271.095 99.604 272.007 99.604H272.415V100.552H271.851C270.711 100.552 270.243 101.476 270.243 102.664V106H269.295ZM272.773 107.332L272.977 104.884H274.045L273.553 107.332H272.773ZM1.536 120V114.564H0.36V113.76H1.536V112.776C1.536 111.516 2.292 111 3.432 111H4.26V111.828H3.42C2.76 111.828 2.484 112.116 2.484 112.788V113.76H4.308V114.564H2.484V120H1.536ZM8.58638 120.156C6.71438 120.156 5.33438 118.776 5.33438 116.88C5.33438 114.996 6.73838 113.604 8.59838 113.604C10.4824 113.604 11.8504 115.008 11.8504 116.88C11.8504 118.752 10.4584 120.156 8.58638 120.156ZM8.58638 119.292C9.93038 119.292 10.8784 118.272 10.8784 116.88C10.8784 115.5 9.93038 114.468 8.58638 114.468C7.24238 114.468 6.30638 115.512 6.30638 116.88C6.30638 118.284 7.25438 119.292 8.58638 119.292ZM16.2973 120.156C14.4253 120.156 13.0453 118.776 13.0453 116.88C13.0453 114.996 14.4493 113.604 16.3093 113.604C18.1933 113.604 19.5613 115.008 19.5613 116.88C19.5613 118.752 18.1693 120.156 16.2973 120.156ZM16.2973 119.292C17.6413 119.292 18.5893 118.272 18.5893 116.88C18.5893 115.5 17.6413 114.468 16.2973 114.468C14.9533 114.468 14.0173 115.512 14.0173 116.88C14.0173 118.284 14.9653 119.292 16.2973 119.292ZM23.8043 120.156C22.0283 120.156 20.7563 118.8 20.7563 116.892C20.7563 114.972 21.9683 113.604 23.7323 113.604C25.0403 113.604 25.6763 114.444 25.8683 114.768H25.9403V111H26.8883V120H25.9763V119.016H25.9043C25.7483 119.244 25.1603 120.156 23.8043 120.156ZM23.8643 119.304C25.1603 119.304 25.9763 118.2 25.9763 116.904C25.9763 115.356 25.0163 114.468 23.8403 114.468C22.6163 114.468 21.7283 115.476 21.7283 116.904C21.7283 118.356 22.6523 119.304 23.8643 119.304ZM28.6838 116.832V115.944H31.7438V116.832H28.6838ZM34.7141 122.76V121.884H37.4261C38.0861 121.884 38.3621 121.56 38.3621 120.888V118.992H38.2901C38.0861 119.376 37.4621 120.156 36.1541 120.156C34.3901 120.156 33.1781 118.8 33.1781 116.868C33.1781 114.96 34.4501 113.604 36.2261 113.604C37.5821 113.604 38.1701 114.516 38.3261 114.744H38.3981V113.76H39.3101V120.984C39.3101 122.244 38.5541 122.76 37.4141 122.76H34.7141ZM36.2621 119.292C37.4381 119.292 38.3981 118.404 38.3981 116.868C38.3981 115.56 37.5821 114.468 36.2861 114.468C35.0861 114.468 34.1501 115.404 34.1501 116.868C34.1501 118.296 35.0381 119.292 36.2621 119.292ZM41.3456 120V113.76H42.2816V114.804H42.3536C42.5336 114.276 43.1456 113.604 44.0576 113.604H44.4656V114.552H43.9016C42.7616 114.552 42.2936 115.476 42.2936 116.664V120H41.3456ZM48.355 120.156C46.567 120.156 45.307 118.8 45.307 116.892C45.307 114.972 46.507 113.604 48.283 113.604C49.579 113.604 50.227 114.444 50.407 114.768H50.479V113.76H51.439V118.872C51.439 119.064 51.559 119.16 51.751 119.16H52.039V120H51.427C50.911 120 50.527 119.616 50.515 119.076V119.016H50.443C50.287 119.268 49.711 120.156 48.355 120.156ZM48.403 119.304C49.711 119.304 50.515 118.212 50.515 116.904C50.515 115.356 49.555 114.468 48.391 114.468C47.167 114.468 46.279 115.476 46.279 116.904C46.279 118.356 47.203 119.304 48.403 119.304ZM56.4058 120.156C54.6298 120.156 53.3578 118.8 53.3578 116.892C53.3578 114.972 54.5698 113.604 56.3338 113.604C57.6418 113.604 58.2778 114.444 58.4698 114.768H58.5418V111H59.4898V120H58.5778V119.016H58.5058C58.3498 119.244 57.7618 120.156 56.4058 120.156ZM56.4658 119.304C57.7618 119.304 58.5778 118.2 58.5778 116.904C58.5778 115.356 57.6178 114.468 56.4418 114.468C55.2178 114.468 54.3298 115.476 54.3298 116.904C54.3298 118.356 55.2538 119.304 56.4658 119.304ZM64.1293 120.156C62.2333 120.156 61.0453 118.824 61.0453 116.904C61.0453 114.912 62.4133 113.604 64.0693 113.604C65.9533 113.604 67.0333 114.924 67.0333 116.796V117.144H62.0173C62.0293 118.536 62.8453 119.316 64.1413 119.316C65.0173 119.316 65.8213 118.812 66.0253 117.948L66.9493 118.164C66.6013 119.328 65.5693 120.156 64.1293 120.156ZM62.0413 116.376H66.0613C66.0013 115.08 65.1013 114.456 64.0693 114.456C63.0493 114.456 62.1133 115.2 62.0413 116.376ZM77.6405 122.76V113.76H78.5525V114.744H78.6245C78.7805 114.516 79.3685 113.604 80.7245 113.604C82.5005 113.604 83.7725 114.96 83.7725 116.868C83.7725 118.8 82.5605 120.156 80.7965 120.156C79.4885 120.156 78.8645 119.376 78.6605 118.992H78.5885V122.76H77.6405ZM80.6885 119.292C81.9125 119.292 82.8005 118.296 82.8005 116.868C82.8005 115.404 81.8645 114.468 80.6645 114.468C79.3685 114.468 78.5525 115.56 78.5525 116.868C78.5525 118.404 79.5125 119.292 80.6885 119.292ZM84.7937 120V119.184H86.0537V111.816H84.7937V111H87.0017V119.184H88.2617V120H84.7937ZM92.2085 120.156C90.4205 120.156 89.1605 118.8 89.1605 116.892C89.1605 114.972 90.3605 113.604 92.1365 113.604C93.4325 113.604 94.0805 114.444 94.2605 114.768H94.3325V113.76H95.2925V118.872C95.2925 119.064 95.4125 119.16 95.6045 119.16H95.8925V120H95.2805C94.7645 120 94.3805 119.616 94.3685 119.076V119.016H94.2965C94.1405 119.268 93.5645 120.156 92.2085 120.156ZM92.2565 119.304C93.5645 119.304 94.3685 118.212 94.3685 116.904C94.3685 115.356 93.4085 114.468 92.2445 114.468C91.0205 114.468 90.1325 115.476 90.1325 116.904C90.1325 118.356 91.0565 119.304 92.2565 119.304ZM99.7553 120.156C98.3513 120.156 97.4753 119.388 97.3313 118.272L98.1953 118.056C98.2673 118.896 98.8553 119.328 99.8033 119.328C100.739 119.328 101.255 118.872 101.255 118.236C101.255 116.484 97.5233 117.816 97.5233 115.344C97.5233 114.288 98.4713 113.604 99.7793 113.604C100.859 113.604 101.903 114.228 102.047 115.356L101.219 115.596C101.135 114.864 100.535 114.42 99.7193 114.42C98.9393 114.42 98.4353 114.804 98.4353 115.344C98.4353 116.928 102.179 115.608 102.179 118.188C102.179 119.364 101.207 120.156 99.7553 120.156ZM106.515 120C105.375 120 104.619 119.484 104.619 118.224V114.564H103.443V113.76H104.679V111.948H105.567V113.76H107.487V114.564H105.567V118.212C105.567 118.884 105.843 119.172 106.503 119.172H107.403V120H106.515ZM110.507 112.632C110.111 112.632 109.823 112.332 109.823 111.936C109.823 111.552 110.111 111.252 110.507 111.252C110.915 111.252 111.203 111.552 111.203 111.936C111.203 112.332 110.915 112.632 110.507 112.632ZM110.039 120V114.564H108.863V113.76H110.987V120H110.039ZM116.083 120.156C114.199 120.156 112.879 118.728 112.879 116.88C112.879 115.032 114.235 113.604 116.071 113.604C117.427 113.604 118.627 114.42 118.963 115.812L118.027 116.028C117.859 115.092 117.067 114.468 116.095 114.468C114.763 114.468 113.863 115.524 113.863 116.88C113.863 118.284 114.811 119.292 116.119 119.292C117.091 119.292 117.883 118.668 118.051 117.732L118.987 117.948C118.651 119.34 117.439 120.156 116.083 120.156ZM129.603 120V111H130.551V116.172H131.643L133.407 113.76H134.499L132.447 116.52V116.592L134.655 120H133.527L131.679 117.036H130.551V120H129.603ZM138.348 120.156C136.452 120.156 135.264 118.824 135.264 116.904C135.264 114.912 136.632 113.604 138.288 113.604C140.172 113.604 141.252 114.924 141.252 116.796V117.144H136.236C136.248 118.536 137.064 119.316 138.36 119.316C139.236 119.316 140.04 118.812 140.244 117.948L141.168 118.164C140.82 119.328 139.788 120.156 138.348 120.156ZM136.26 116.376H140.28C140.22 115.08 139.32 114.456 138.288 114.456C137.268 114.456 136.332 115.2 136.26 116.376ZM145.532 120.156C143.636 120.156 142.448 118.824 142.448 116.904C142.448 114.912 143.816 113.604 145.472 113.604C147.356 113.604 148.436 114.924 148.436 116.796V117.144H143.42C143.432 118.536 144.248 119.316 145.544 119.316C146.42 119.316 147.224 118.812 147.428 117.948L148.352 118.164C148.004 119.328 146.972 120.156 145.532 120.156ZM143.444 116.376H147.464C147.404 115.08 146.504 114.456 145.472 114.456C144.452 114.456 143.516 115.2 143.444 116.376ZM150.111 122.76V113.76H151.023V114.744H151.095C151.251 114.516 151.839 113.604 153.195 113.604C154.971 113.604 156.243 114.96 156.243 116.868C156.243 118.8 155.031 120.156 153.267 120.156C151.959 120.156 151.335 119.376 151.131 118.992H151.059V122.76H150.111ZM153.159 119.292C154.383 119.292 155.271 118.296 155.271 116.868C155.271 115.404 154.335 114.468 153.135 114.468C151.839 114.468 151.023 115.56 151.023 116.868C151.023 118.404 151.983 119.292 153.159 119.292ZM159.992 120.156C158.588 120.156 157.712 119.388 157.568 118.272L158.432 118.056C158.504 118.896 159.092 119.328 160.04 119.328C160.976 119.328 161.492 118.872 161.492 118.236C161.492 116.484 157.76 117.816 157.76 115.344C157.76 114.288 158.708 113.604 160.016 113.604C161.096 113.604 162.14 114.228 162.284 115.356L161.456 115.596C161.372 114.864 160.772 114.42 159.956 114.42C159.176 114.42 158.672 114.804 158.672 115.344C158.672 116.928 162.416 115.608 162.416 118.188C162.416 119.364 161.444 120.156 159.992 120.156ZM175.935 120.156C174.051 120.156 172.731 118.728 172.731 116.88C172.731 115.032 174.087 113.604 175.923 113.604C177.279 113.604 178.479 114.42 178.815 115.812L177.879 116.028C177.711 115.092 176.919 114.468 175.947 114.468C174.615 114.468 173.715 115.524 173.715 116.88C173.715 118.284 174.663 119.292 175.971 119.292C176.943 119.292 177.735 118.668 177.903 117.732L178.839 117.948C178.503 119.34 177.291 120.156 175.935 120.156ZM183.295 120.156C181.423 120.156 180.043 118.776 180.043 116.88C180.043 114.996 181.447 113.604 183.307 113.604C185.191 113.604 186.559 115.008 186.559 116.88C186.559 118.752 185.167 120.156 183.295 120.156ZM183.295 119.292C184.639 119.292 185.587 118.272 185.587 116.88C185.587 115.5 184.639 114.468 183.295 114.468C181.951 114.468 181.015 115.512 181.015 116.88C181.015 118.284 181.963 119.292 183.295 119.292ZM188.234 120V113.76H189.182V114.672H189.254C189.518 114.108 190.19 113.604 191.162 113.604C192.614 113.604 193.49 114.696 193.49 116.076V120H192.542V116.136C192.542 115.14 191.81 114.492 190.934 114.492C189.95 114.492 189.182 115.248 189.182 116.28V120H188.234ZM198.007 120C196.867 120 196.111 119.484 196.111 118.224V114.564H194.935V113.76H196.171V111.948H197.059V113.76H198.979V114.564H197.059V118.212C197.059 118.884 197.335 119.172 197.995 119.172H198.895V120H198.007ZM203.319 120.156C201.423 120.156 200.235 118.824 200.235 116.904C200.235 114.912 201.603 113.604 203.259 113.604C205.143 113.604 206.223 114.924 206.223 116.796V117.144H201.207C201.219 118.536 202.035 119.316 203.331 119.316C204.207 119.316 205.011 118.812 205.215 117.948L206.139 118.164C205.791 119.328 204.759 120.156 203.319 120.156ZM201.231 116.376H205.251C205.191 115.08 204.291 114.456 203.259 114.456C202.239 114.456 201.303 115.2 201.231 116.376ZM207.898 120V113.76H208.846V114.672H208.918C209.182 114.108 209.854 113.604 210.826 113.604C212.278 113.604 213.154 114.696 213.154 116.076V120H212.206V116.136C212.206 115.14 211.474 114.492 210.598 114.492C209.614 114.492 208.846 115.248 208.846 116.28V120H207.898ZM217.671 120C216.531 120 215.775 119.484 215.775 118.224V114.564H214.599V113.76H215.835V111.948H216.723V113.76H218.643V114.564H216.723V118.212C216.723 118.884 216.999 119.172 217.659 119.172H218.559V120H217.671ZM222.443 120.156C221.039 120.156 220.163 119.388 220.019 118.272L220.883 118.056C220.955 118.896 221.543 119.328 222.491 119.328C223.427 119.328 223.943 118.872 223.943 118.236C223.943 116.484 220.211 117.816 220.211 115.344C220.211 114.288 221.159 113.604 222.467 113.604C223.547 113.604 224.591 114.228 224.735 115.356L223.907 115.596C223.823 114.864 223.223 114.42 222.407 114.42C221.627 114.42 221.123 114.804 221.123 115.344C221.123 116.928 224.867 115.608 224.867 118.188C224.867 119.364 223.895 120.156 222.443 120.156ZM237.27 120L234.942 113.76H235.962L237.846 119.112H237.918L239.79 113.76H240.834L238.518 120H237.27ZM243.555 112.632C243.159 112.632 242.871 112.332 242.871 111.936C242.871 111.552 243.159 111.252 243.555 111.252C243.963 111.252 244.251 111.552 244.251 111.936C244.251 112.332 243.963 112.632 243.555 112.632ZM243.087 120V114.564H241.911V113.76H244.035V120H243.087ZM248.472 120.156C247.068 120.156 246.192 119.388 246.048 118.272L246.912 118.056C246.984 118.896 247.572 119.328 248.52 119.328C249.456 119.328 249.972 118.872 249.972 118.236C249.972 116.484 246.24 117.816 246.24 115.344C246.24 114.288 247.188 113.604 248.496 113.604C249.576 113.604 250.62 114.228 250.764 115.356L249.936 115.596C249.852 114.864 249.252 114.42 248.436 114.42C247.656 114.42 247.152 114.804 247.152 115.344C247.152 116.928 250.896 115.608 250.896 118.188C250.896 119.364 249.924 120.156 248.472 120.156ZM254.044 112.632C253.648 112.632 253.36 112.332 253.36 111.936C253.36 111.552 253.648 111.252 254.044 111.252C254.452 111.252 254.74 111.552 254.74 111.936C254.74 112.332 254.452 112.632 254.044 112.632ZM253.576 120V114.564H252.4V113.76H254.524V120H253.576ZM259.98 120.156C258.624 120.156 258.036 119.244 257.88 119.016H257.808V120H256.896V111H257.844V114.768H257.916C258.108 114.444 258.744 113.604 260.052 113.604C261.816 113.604 263.028 114.972 263.028 116.892C263.028 118.8 261.756 120.156 259.98 120.156ZM259.92 119.304C261.12 119.304 262.056 118.356 262.056 116.904C262.056 115.476 261.168 114.468 259.944 114.468C258.768 114.468 257.808 115.356 257.808 116.904C257.808 118.212 258.624 119.304 259.92 119.304ZM264.05 120V119.184H265.31V111.816H264.05V111H266.258V119.184H267.518V120H264.05ZM271.5 120.156C269.604 120.156 268.416 118.824 268.416 116.904C268.416 114.912 269.784 113.604 271.44 113.604C273.324 113.604 274.404 114.924 274.404 116.796V117.144H269.388C269.4 118.536 270.216 119.316 271.512 119.316C272.388 119.316 273.192 118.812 273.396 117.948L274.32 118.164C273.972 119.328 272.94 120.156 271.5 120.156ZM269.412 116.376H273.432C273.372 115.08 272.472 114.456 271.44 114.456C270.42 114.456 269.484 115.2 269.412 116.376ZM3.648 134.156C1.86 134.156 0.6 132.8 0.6 130.892C0.6 128.972 1.8 127.604 3.576 127.604C4.872 127.604 5.52 128.444 5.7 128.768H5.772V127.76H6.732V132.872C6.732 133.064 6.852 133.16 7.044 133.16H7.332V134H6.72C6.204 134 5.82 133.616 5.808 133.076V133.016H5.736C5.58 133.268 5.004 134.156 3.648 134.156ZM3.696 133.304C5.004 133.304 5.808 132.212 5.808 130.904C5.808 129.356 4.848 128.468 3.684 128.468C2.46 128.468 1.572 129.476 1.572 130.904C1.572 132.356 2.496 133.304 3.696 133.304ZM9.13078 134V127.76H10.0788V128.672H10.1508C10.4148 128.108 11.0868 127.604 12.0588 127.604C13.5108 127.604 14.3868 128.696 14.3868 130.076V134H13.4388V130.136C13.4388 129.14 12.7068 128.492 11.8308 128.492C10.8468 128.492 10.0788 129.248 10.0788 130.28V134H9.13078ZM18.9996 134.156C17.2236 134.156 15.9516 132.8 15.9516 130.892C15.9516 128.972 17.1636 127.604 18.9276 127.604C20.2356 127.604 20.8716 128.444 21.0636 128.768H21.1356V125H22.0836V134H21.1716V133.016H21.0996C20.9436 133.244 20.3556 134.156 18.9996 134.156ZM19.0596 133.304C20.3556 133.304 21.1716 132.2 21.1716 130.904C21.1716 129.356 20.2116 128.468 19.0356 128.468C17.8116 128.468 16.9236 129.476 16.9236 130.904C16.9236 132.356 17.8476 133.304 19.0596 133.304ZM29.5463 134.156C28.1423 134.156 27.2663 133.388 27.1223 132.272L27.9863 132.056C28.0583 132.896 28.6463 133.328 29.5943 133.328C30.5303 133.328 31.0463 132.872 31.0463 132.236C31.0463 130.484 27.3143 131.816 27.3143 129.344C27.3143 128.288 28.2623 127.604 29.5703 127.604C30.6503 127.604 31.6943 128.228 31.8383 129.356L31.0103 129.596C30.9263 128.864 30.3263 128.42 29.5103 128.42C28.7303 128.42 28.2263 128.804 28.2263 129.344C28.2263 130.928 31.9703 129.608 31.9703 132.188C31.9703 133.364 30.9983 134.156 29.5463 134.156ZM36.4379 134.156C34.5419 134.156 33.3539 132.824 33.3539 130.904C33.3539 128.912 34.7219 127.604 36.3779 127.604C38.2619 127.604 39.3419 128.924 39.3419 130.796V131.144H34.3259C34.3379 132.536 35.1539 133.316 36.4499 133.316C37.3259 133.316 38.1299 132.812 38.3339 131.948L39.2579 132.164C38.9099 133.328 37.8779 134.156 36.4379 134.156ZM34.3499 130.376H38.3699C38.3099 129.08 37.4099 128.456 36.3779 128.456C35.3579 128.456 34.4219 129.2 34.3499 130.376ZM43.7415 134.156C41.8575 134.156 40.5375 132.728 40.5375 130.88C40.5375 129.032 41.8935 127.604 43.7295 127.604C45.0855 127.604 46.2855 128.42 46.6215 129.812L45.6855 130.028C45.5175 129.092 44.7255 128.468 43.7535 128.468C42.4215 128.468 41.5215 129.524 41.5215 130.88C41.5215 132.284 42.4695 133.292 43.7775 133.292C44.7495 133.292 45.5415 132.668 45.7095 131.732L46.6455 131.948C46.3095 133.34 45.0975 134.156 43.7415 134.156ZM50.538 134.156C49.086 134.156 48.21 133.064 48.21 131.684V127.76H49.158V131.648C49.158 132.644 49.89 133.292 50.766 133.292C51.75 133.292 52.518 132.536 52.518 131.504V127.76H53.466V134H52.518V133.088H52.446C52.182 133.652 51.51 134.156 50.538 134.156ZM55.5019 134V127.76H56.4379V128.804H56.5099C56.6899 128.276 57.3019 127.604 58.2139 127.604H58.6219V128.552H58.0579C56.9179 128.552 56.4499 129.476 56.4499 130.664V134H55.5019ZM62.5473 134.156C60.6513 134.156 59.4633 132.824 59.4633 130.904C59.4633 128.912 60.8313 127.604 62.4873 127.604C64.3713 127.604 65.4513 128.924 65.4513 130.796V131.144H60.4353C60.4473 132.536 61.2633 133.316 62.5593 133.316C63.4353 133.316 64.2393 132.812 64.4433 131.948L65.3673 132.164C65.0193 133.328 63.9873 134.156 62.5473 134.156ZM60.4593 130.376H64.4793C64.4193 129.08 63.5193 128.456 62.4873 128.456C61.4673 128.456 60.5313 129.2 60.4593 130.376ZM66.8869 130.796V129.98H76.2829V130.796H66.8869ZM79.4851 126.632C79.0891 126.632 78.8011 126.332 78.8011 125.936C78.8011 125.552 79.0891 125.252 79.4851 125.252C79.8931 125.252 80.1811 125.552 80.1811 125.936C80.1811 126.332 79.8931 126.632 79.4851 126.632ZM79.0171 134V128.564H77.8411V127.76H79.9651V134H79.0171ZM84.9058 134.156C83.1298 134.156 81.8578 132.8 81.8578 130.892C81.8578 128.972 83.0698 127.604 84.8338 127.604C86.1418 127.604 86.7778 128.444 86.9698 128.768H87.0418V125H87.9898V134H87.0778V133.016H87.0058C86.8498 133.244 86.2618 134.156 84.9058 134.156ZM84.9658 133.304C86.2618 133.304 87.0778 132.2 87.0778 130.904C87.0778 129.356 86.1178 128.468 84.9418 128.468C83.7178 128.468 82.8298 129.476 82.8298 130.904C82.8298 132.356 83.7538 133.304 84.9658 133.304ZM92.6293 134.156C90.7333 134.156 89.5453 132.824 89.5453 130.904C89.5453 128.912 90.9133 127.604 92.5693 127.604C94.4533 127.604 95.5333 128.924 95.5333 130.796V131.144H90.5173C90.5293 132.536 91.3453 133.316 92.6413 133.316C93.5173 133.316 94.3213 132.812 94.5253 131.948L95.4493 132.164C95.1013 133.328 94.0693 134.156 92.6293 134.156ZM90.5413 130.376H94.5613C94.5013 129.08 93.6013 128.456 92.5693 128.456C91.5493 128.456 90.6133 129.2 90.5413 130.376ZM99.7769 134.156C97.9889 134.156 96.7289 132.8 96.7289 130.892C96.7289 128.972 97.9289 127.604 99.7049 127.604C101.001 127.604 101.649 128.444 101.829 128.768H101.901V127.76H102.861V132.872C102.861 133.064 102.981 133.16 103.173 133.16H103.461V134H102.849C102.333 134 101.949 133.616 101.937 133.076V133.016H101.865C101.709 133.268 101.133 134.156 99.7769 134.156ZM99.8249 133.304C101.133 133.304 101.937 132.212 101.937 130.904C101.937 129.356 100.977 128.468 99.8129 128.468C98.5889 128.468 97.7009 129.476 97.7009 130.904C97.7009 132.356 98.6249 133.304 99.8249 133.304ZM104.96 134V133.184H106.22V125.816H104.96V125H107.168V133.184H108.428V134H104.96ZM113.743 134V128.564H112.567V127.76H113.743V126.776C113.743 125.516 114.499 125 115.639 125H116.467V125.828H115.627C114.967 125.828 114.691 126.116 114.691 126.788V127.76H116.515V128.564H114.691V134H113.743ZM120.793 134.156C118.921 134.156 117.541 132.776 117.541 130.88C117.541 128.996 118.945 127.604 120.805 127.604C122.689 127.604 124.057 129.008 124.057 130.88C124.057 132.752 122.665 134.156 120.793 134.156ZM120.793 133.292C122.137 133.292 123.085 132.272 123.085 130.88C123.085 129.5 122.137 128.468 120.793 128.468C119.449 128.468 118.513 129.512 118.513 130.88C118.513 132.284 119.461 133.292 120.793 133.292ZM125.732 134V127.76H126.668V128.804H126.74C126.92 128.276 127.532 127.604 128.444 127.604H128.852V128.552H128.288C127.148 128.552 126.68 129.476 126.68 130.664V134H125.732ZM136.243 134C135.103 134 134.347 133.484 134.347 132.224V128.564H133.171V127.76H134.407V125.948H135.295V127.76H137.215V128.564H135.295V132.212C135.295 132.884 135.571 133.172 136.231 133.172H137.131V134H136.243ZM141.519 134.156C139.731 134.156 138.471 132.8 138.471 130.892C138.471 128.972 139.671 127.604 141.447 127.604C142.743 127.604 143.391 128.444 143.571 128.768H143.643V127.76H144.603V132.872C144.603 133.064 144.723 133.16 144.915 133.16H145.203V134H144.591C144.075 134 143.691 133.616 143.679 133.076V133.016H143.607C143.451 133.268 142.875 134.156 141.519 134.156ZM141.567 133.304C142.875 133.304 143.679 132.212 143.679 130.904C143.679 129.356 142.719 128.468 141.555 128.468C140.331 128.468 139.443 129.476 139.443 130.904C139.443 132.356 140.367 133.304 141.567 133.304ZM147.002 134V125H147.95V130.172H149.042L150.806 127.76H151.898L149.846 130.52V130.592L152.054 134H150.926L149.078 131.036H147.95V134H147.002ZM155.747 134.156C153.851 134.156 152.663 132.824 152.663 130.904C152.663 128.912 154.031 127.604 155.687 127.604C157.571 127.604 158.651 128.924 158.651 130.796V131.144H153.635C153.646 132.536 154.463 133.316 155.759 133.316C156.635 133.316 157.439 132.812 157.643 131.948L158.567 132.164C158.219 133.328 157.187 134.156 155.747 134.156ZM153.659 130.376H157.679C157.619 129.08 156.719 128.456 155.687 128.456C154.667 128.456 153.731 129.2 153.659 130.376ZM160.086 130.832V129.944H163.146V130.832H160.086ZM167.832 134.156C165.96 134.156 164.58 132.776 164.58 130.88C164.58 128.996 165.984 127.604 167.844 127.604C169.728 127.604 171.096 129.008 171.096 130.88C171.096 132.752 169.704 134.156 167.832 134.156ZM167.832 133.292C169.176 133.292 170.124 132.272 170.124 130.88C170.124 129.5 169.176 128.468 167.832 128.468C166.488 128.468 165.552 129.512 165.552 130.88C165.552 132.284 166.5 133.292 167.832 133.292ZM174.979 134.156C173.527 134.156 172.651 133.064 172.651 131.684V127.76H173.599V131.648C173.599 132.644 174.331 133.292 175.207 133.292C176.191 133.292 176.959 132.536 176.959 131.504V127.76H177.907V134H176.959V133.088H176.887C176.623 133.652 175.951 134.156 174.979 134.156ZM182.415 134C181.275 134 180.519 133.484 180.519 132.224V128.564H179.343V127.76H180.579V125.948H181.467V127.76H183.387V128.564H181.467V132.212C181.467 132.884 181.743 133.172 182.403 133.172H183.303V134H182.415ZM191.054 134.156C189.266 134.156 188.006 132.8 188.006 130.892C188.006 128.972 189.206 127.604 190.982 127.604C192.278 127.604 192.926 128.444 193.106 128.768H193.178V127.76H194.138V132.872C194.138 133.064 194.258 133.16 194.45 133.16H194.738V134H194.126C193.61 134 193.226 133.616 193.214 133.076V133.016H193.142C192.986 133.268 192.41 134.156 191.054 134.156ZM191.102 133.304C192.41 133.304 193.214 132.212 193.214 130.904C193.214 129.356 192.254 128.468 191.09 128.468C189.866 128.468 188.978 129.476 188.978 130.904C188.978 132.356 189.902 133.304 191.102 133.304ZM196.537 134V127.76H197.485V128.672H197.557C197.821 128.108 198.493 127.604 199.465 127.604C200.917 127.604 201.793 128.696 201.793 130.076V134H200.845V130.136C200.845 129.14 200.113 128.492 199.237 128.492C198.253 128.492 197.485 129.248 197.485 130.28V134H196.537ZM206.406 134.156C204.63 134.156 203.358 132.8 203.358 130.892C203.358 128.972 204.57 127.604 206.334 127.604C207.642 127.604 208.278 128.444 208.47 128.768H208.542V125H209.49V134H208.578V133.016H208.506C208.35 133.244 207.762 134.156 206.406 134.156ZM206.466 133.304C207.762 133.304 208.578 132.2 208.578 130.904C208.578 129.356 207.618 128.468 206.442 128.468C205.218 128.468 204.33 129.476 204.33 130.904C204.33 132.356 205.254 133.304 206.466 133.304ZM217.457 134.156C215.681 134.156 214.409 132.8 214.409 130.892C214.409 128.972 215.621 127.604 217.385 127.604C218.693 127.604 219.329 128.444 219.521 128.768H219.593V125H220.541V134H219.629V133.016H219.557C219.401 133.244 218.813 134.156 217.457 134.156ZM217.517 133.304C218.813 133.304 219.629 132.2 219.629 130.904C219.629 129.356 218.669 128.468 217.493 128.468C216.269 128.468 215.381 129.476 215.381 130.904C215.381 132.356 216.305 133.304 217.517 133.304ZM225.18 134.156C223.284 134.156 222.096 132.824 222.096 130.904C222.096 128.912 223.464 127.604 225.12 127.604C227.004 127.604 228.084 128.924 228.084 130.796V131.144H223.068C223.08 132.536 223.896 133.316 225.192 133.316C226.068 133.316 226.872 132.812 227.076 131.948L228 132.164C227.652 133.328 226.62 134.156 225.18 134.156ZM223.092 130.376H227.112C227.052 129.08 226.152 128.456 225.12 128.456C224.1 128.456 223.164 129.2 223.092 130.376ZM229.096 134V133.184H230.356V125.816H229.096V125H231.304V133.184H232.564V134H229.096ZM235.11 126.632C234.714 126.632 234.426 126.332 234.426 125.936C234.426 125.552 234.714 125.252 235.11 125.252C235.518 125.252 235.806 125.552 235.806 125.936C235.806 126.332 235.518 126.632 235.11 126.632ZM234.642 134V128.564H233.466V127.76H235.59V134H234.642ZM239.571 134L237.243 127.76H238.263L240.147 133.112H240.219L242.091 127.76H243.135L240.819 134H239.571ZM247.059 134.156C245.163 134.156 243.975 132.824 243.975 130.904C243.975 128.912 245.343 127.604 246.999 127.604C248.883 127.604 249.963 128.924 249.963 130.796V131.144H244.947C244.959 132.536 245.775 133.316 247.071 133.316C247.947 133.316 248.751 132.812 248.955 131.948L249.879 132.164C249.531 133.328 248.499 134.156 247.059 134.156ZM244.971 130.376H248.991C248.931 129.08 248.031 128.456 246.999 128.456C245.979 128.456 245.043 129.2 244.971 130.376ZM251.639 134V127.76H252.575V128.804H252.647C252.827 128.276 253.439 127.604 254.351 127.604H254.759V128.552H254.195C253.055 128.552 252.587 129.476 252.587 130.664V134H251.639ZM255.954 136.76V135.896H256.65C257.226 135.896 257.502 135.656 257.694 135.164L258.138 134H257.886L255.594 127.76H256.65L258.474 133.088H258.546L260.478 127.76H261.546L258.51 135.584C258.198 136.4 257.622 136.76 256.614 136.76H255.954ZM262.468 134.156C262.096 134.156 261.784 133.856 261.784 133.484C261.784 133.112 262.096 132.812 262.468 132.812C262.84 132.812 263.14 133.112 263.14 133.484C263.14 133.856 262.84 134.156 262.468 134.156Z" fill="black"/>
<path d="M3.64 43.056V42.224L9.576 34.8H10.856L4.968 42.224L4.344 42.032H13.352V43.056H3.64ZM9.96 46V43.056L9.992 42.032V39.44H11.112V46H9.96ZM15.4021 46V34.8H16.3781L21.4981 43.536H20.9861L26.0581 34.8H27.0341V46H25.8981V36.576H26.1701L21.4981 44.576H20.9381L16.2341 36.576H16.5381V46H15.4021ZM30.6834 46V34.8H34.8754C35.8247 34.8 36.6407 34.9547 37.3234 35.264C38.006 35.5627 38.5287 36 38.8914 36.576C39.2647 37.1413 39.4514 37.8293 39.4514 38.64C39.4514 39.4293 39.2647 40.112 38.8914 40.688C38.5287 41.2533 38.006 41.6907 37.3234 42C36.6407 42.3093 35.8247 42.464 34.8754 42.464H31.3394L31.8674 41.904V46H30.6834ZM31.8674 42L31.3394 41.424H34.8434C35.9634 41.424 36.8114 41.184 37.3874 40.704C37.974 40.2133 38.2674 39.5253 38.2674 38.64C38.2674 37.744 37.974 37.0507 37.3874 36.56C36.8114 36.0693 35.9634 35.824 34.8434 35.824H31.3394L31.8674 35.264V42ZM41.3038 42.16V41.168H45.4958V42.16H41.3038ZM56.4691 34.8H57.6371V46H56.4691V34.8ZM49.4611 46H48.2771V34.8H49.4611V46ZM56.5811 40.832H49.3331V39.792H56.5811V40.832ZM66.1568 46.096C65.3141 46.096 64.5354 45.9573 63.8208 45.68C63.1061 45.392 62.4874 44.992 61.9648 44.48C61.4421 43.968 61.0314 43.3653 60.7328 42.672C60.4448 41.9787 60.3008 41.2213 60.3008 40.4C60.3008 39.5787 60.4448 38.8213 60.7328 38.128C61.0314 37.4347 61.4421 36.832 61.9648 36.32C62.4981 35.808 63.1221 35.4133 63.8368 35.136C64.5514 34.848 65.3301 34.704 66.1728 34.704C66.9834 34.704 67.7461 34.8427 68.4608 35.12C69.1754 35.3867 69.7781 35.792 70.2688 36.336L69.5168 37.088C69.0581 36.6187 68.5514 36.2827 67.9968 36.08C67.4421 35.8667 66.8448 35.76 66.2048 35.76C65.5328 35.76 64.9088 35.8773 64.3328 36.112C63.7568 36.336 63.2554 36.6613 62.8288 37.088C62.4021 37.504 62.0661 37.9947 61.8207 38.56C61.5861 39.1147 61.4688 39.728 61.4688 40.4C61.4688 41.072 61.5861 41.6907 61.8207 42.256C62.0661 42.8107 62.4021 43.3013 62.8288 43.728C63.2554 44.144 63.7568 44.4693 64.3328 44.704C64.9088 44.928 65.5328 45.04 66.2048 45.04C66.8448 45.04 67.4421 44.9333 67.9968 44.72C68.5514 44.5067 69.0581 44.1653 69.5168 43.696L70.2688 44.448C69.7781 44.992 69.1754 45.4027 68.4608 45.68C67.7461 45.9573 66.9781 46.096 66.1568 46.096ZM71.9288 42.16V41.168H76.1208V42.16H71.9288ZM81.4461 46.096C80.6461 46.096 79.8835 45.968 79.1581 45.712C78.4328 45.4453 77.8568 45.0933 77.4301 44.656L77.9901 43.744C78.3421 44.1173 78.8221 44.4267 79.4301 44.672C80.0488 44.9173 80.7155 45.04 81.4301 45.04C82.3795 45.04 83.0995 44.832 83.5901 44.416C84.0915 43.9893 84.3421 43.4347 84.3421 42.752C84.3421 42.272 84.2248 41.8613 83.9901 41.52C83.7661 41.168 83.3821 40.896 82.8381 40.704C82.2941 40.512 81.5475 40.416 80.5981 40.416H78.2141L78.7901 34.8H84.9181V35.824H79.2541L79.8461 35.264L79.3501 39.968L78.7581 39.392H80.8541C81.9848 39.392 82.8915 39.5307 83.5741 39.808C84.2568 40.0853 84.7475 40.4747 85.0461 40.976C85.3555 41.4667 85.5101 42.0427 85.5101 42.704C85.5101 43.3333 85.3608 43.9093 85.0621 44.432C84.7635 44.944 84.3155 45.3493 83.7181 45.648C83.1208 45.9467 82.3635 46.096 81.4461 46.096ZM91.4366 46.096C90.5726 46.096 89.8046 45.872 89.1326 45.424C88.4606 44.9653 87.9326 44.3147 87.5486 43.472C87.1646 42.6187 86.9726 41.5947 86.9726 40.4C86.9726 39.2053 87.1646 38.1867 87.5486 37.344C87.9326 36.4907 88.4606 35.84 89.1326 35.392C89.8046 34.9333 90.5726 34.704 91.4366 34.704C92.3006 34.704 93.0686 34.9333 93.7406 35.392C94.4126 35.84 94.9406 36.4907 95.3246 37.344C95.7193 38.1867 95.9166 39.2053 95.9166 40.4C95.9166 41.5947 95.7193 42.6187 95.3246 43.472C94.9406 44.3147 94.4126 44.9653 93.7406 45.424C93.0686 45.872 92.3006 46.096 91.4366 46.096ZM91.4366 45.04C92.098 45.04 92.674 44.864 93.1646 44.512C93.6553 44.1493 94.0393 43.6267 94.3166 42.944C94.594 42.2507 94.7326 41.4027 94.7326 40.4C94.7326 39.3973 94.594 38.5547 94.3166 37.872C94.0393 37.1787 93.6553 36.656 93.1646 36.304C92.674 35.9413 92.098 35.76 91.4366 35.76C90.7966 35.76 90.226 35.9413 89.7246 36.304C89.2233 36.656 88.834 37.1787 88.5566 37.872C88.2793 38.5547 88.1406 39.3973 88.1406 40.4C88.1406 41.4027 88.2793 42.2507 88.5566 42.944C88.834 43.6267 89.2233 44.1493 89.7246 44.512C90.226 44.864 90.7966 45.04 91.4366 45.04Z" fill="black"/>
</svg>
