<svg width="251" height="19" viewBox="0 0 251 19" fill="none" xmlns="http://www.w3.org/2000/svg">
<path d="M-0.0079999 18V1.2H7.264C8.768 1.2 10.064 1.448 11.152 1.944C12.24 2.424 13.08 3.12 13.672 4.032C14.264 4.944 14.56 6.032 14.56 7.296C14.56 8.544 14.264 9.624 13.672 10.536C13.08 11.432 12.24 12.12 11.152 12.6C10.064 13.08 8.768 13.32 7.264 13.32H2.152L3.88 11.616V18H-0.0079999ZM10.672 18L6.472 11.904H10.624L14.872 18H10.672ZM3.88 12.048L2.152 10.224H7.048C8.248 10.224 9.144 9.968 9.736 9.456C10.328 8.928 10.624 8.208 10.624 7.296C10.624 6.368 10.328 5.648 9.736 5.136C9.144 4.624 8.248 4.368 7.048 4.368H2.152L3.88 2.52V12.048ZM25.8004 18.288C24.4724 18.288 23.2404 18.072 22.1044 17.64C20.9844 17.208 20.0084 16.6 19.1764 15.816C18.3604 15.032 17.7204 14.112 17.2564 13.056C16.8084 12 16.5844 10.848 16.5844 9.6C16.5844 8.352 16.8084 7.2 17.2564 6.144C17.7204 5.088 18.3684 4.168 19.2004 3.384C20.0324 2.6 21.0084 1.992 22.1284 1.56C23.2484 1.128 24.4644 0.912 25.7764 0.912C27.1044 0.912 28.3204 1.128 29.4244 1.56C30.5444 1.992 31.5124 2.6 32.3284 3.384C33.1604 4.168 33.8084 5.088 34.2724 6.144C34.7364 7.184 34.9684 8.336 34.9684 9.6C34.9684 10.848 34.7364 12.008 34.2724 13.08C33.8084 14.136 33.1604 15.056 32.3284 15.84C31.5124 16.608 30.5444 17.208 29.4244 17.64C28.3204 18.072 27.1124 18.288 25.8004 18.288ZM25.7764 14.976C26.5284 14.976 27.2164 14.848 27.8404 14.592C28.4804 14.336 29.0404 13.968 29.5204 13.488C30.0004 13.008 30.3684 12.44 30.6244 11.784C30.8964 11.128 31.0324 10.4 31.0324 9.6C31.0324 8.8 30.8964 8.072 30.6244 7.416C30.3684 6.76 30.0004 6.192 29.5204 5.712C29.0564 5.232 28.5044 4.864 27.8644 4.608C27.2244 4.352 26.5284 4.224 25.7764 4.224C25.0244 4.224 24.3284 4.352 23.6884 4.608C23.0644 4.864 22.5124 5.232 22.0324 5.712C21.5524 6.192 21.1764 6.76 20.9044 7.416C20.6484 8.072 20.5204 8.8 20.5204 9.6C20.5204 10.384 20.6484 11.112 20.9044 11.784C21.1764 12.44 21.5444 13.008 22.0084 13.488C22.4884 13.968 23.0484 14.336 23.6884 14.592C24.3284 14.848 25.0244 14.976 25.7764 14.976ZM45.3544 18.288C42.9704 18.288 41.1064 17.624 39.7624 16.296C38.4184 14.968 37.7464 13.072 37.7464 10.608V1.2H41.6344V10.464C41.6344 12.064 41.9624 13.216 42.6184 13.92C43.2744 14.624 44.1944 14.976 45.3784 14.976C46.5624 14.976 47.4824 14.624 48.1384 13.92C48.7944 13.216 49.1224 12.064 49.1224 10.464V1.2H52.9624V10.608C52.9624 13.072 52.2904 14.968 50.9464 16.296C49.6024 17.624 47.7384 18.288 45.3544 18.288ZM56.8045 18V1.2H60.0205L69.9325 13.296H68.3725V1.2H72.2125V18H69.0205L59.0845 5.904H60.6445V18H56.8045ZM76.1873 18V1.2H83.8193C85.6433 1.2 87.2513 1.552 88.6433 2.256C90.0353 2.944 91.1233 3.912 91.9073 5.16C92.6913 6.408 93.0833 7.888 93.0833 9.6C93.0833 11.296 92.6913 12.776 91.9073 14.04C91.1233 15.288 90.0353 16.264 88.6433 16.968C87.2513 17.656 85.6433 18 83.8193 18H76.1873ZM80.0753 14.808H83.6273C84.7473 14.808 85.7153 14.6 86.5313 14.184C87.3633 13.752 88.0033 13.144 88.4513 12.36C88.9153 11.576 89.1473 10.656 89.1473 9.6C89.1473 8.528 88.9153 7.608 88.4513 6.84C88.0033 6.056 87.3633 5.456 86.5313 5.04C85.7153 4.608 84.7473 4.392 83.6273 4.392H80.0753V14.808ZM110.852 18.288C109.556 18.288 108.348 18.08 107.228 17.664C106.124 17.232 105.164 16.624 104.348 15.84C103.532 15.056 102.892 14.136 102.428 13.08C101.98 12.024 101.756 10.864 101.756 9.6C101.756 8.336 101.98 7.176 102.428 6.12C102.892 5.064 103.532 4.144 104.348 3.36C105.18 2.576 106.148 1.976 107.252 1.56C108.356 1.128 109.564 0.912 110.876 0.912C112.332 0.912 113.644 1.168 114.812 1.68C115.996 2.176 116.988 2.912 117.788 3.888L115.292 6.192C114.716 5.536 114.076 5.048 113.372 4.728C112.668 4.392 111.9 4.224 111.068 4.224C110.284 4.224 109.564 4.352 108.908 4.608C108.252 4.864 107.684 5.232 107.204 5.712C106.724 6.192 106.348 6.76 106.076 7.416C105.82 8.072 105.692 8.8 105.692 9.6C105.692 10.4 105.82 11.128 106.076 11.784C106.348 12.44 106.724 13.008 107.204 13.488C107.684 13.968 108.252 14.336 108.908 14.592C109.564 14.848 110.284 14.976 111.068 14.976C111.9 14.976 112.668 14.816 113.372 14.496C114.076 14.16 114.716 13.656 115.292 12.984L117.788 15.288C116.988 16.264 115.996 17.008 114.812 17.52C113.644 18.032 112.324 18.288 110.852 18.288ZM128.222 18.288C126.894 18.288 125.662 18.072 124.526 17.64C123.406 17.208 122.43 16.6 121.598 15.816C120.782 15.032 120.142 14.112 119.678 13.056C119.23 12 119.006 10.848 119.006 9.6C119.006 8.352 119.23 7.2 119.678 6.144C120.142 5.088 120.79 4.168 121.622 3.384C122.454 2.6 123.43 1.992 124.55 1.56C125.67 1.128 126.886 0.912 128.198 0.912C129.526 0.912 130.742 1.128 131.846 1.56C132.966 1.992 133.934 2.6 134.75 3.384C135.582 4.168 136.23 5.088 136.694 6.144C137.158 7.184 137.39 8.336 137.39 9.6C137.39 10.848 137.158 12.008 136.694 13.08C136.23 14.136 135.582 15.056 134.75 15.84C133.934 16.608 132.966 17.208 131.846 17.64C130.742 18.072 129.534 18.288 128.222 18.288ZM128.198 14.976C128.95 14.976 129.638 14.848 130.262 14.592C130.902 14.336 131.462 13.968 131.942 13.488C132.422 13.008 132.79 12.44 133.046 11.784C133.318 11.128 133.454 10.4 133.454 9.6C133.454 8.8 133.318 8.072 133.046 7.416C132.79 6.76 132.422 6.192 131.942 5.712C131.478 5.232 130.926 4.864 130.286 4.608C129.646 4.352 128.95 4.224 128.198 4.224C127.446 4.224 126.75 4.352 126.11 4.608C125.486 4.864 124.934 5.232 124.454 5.712C123.974 6.192 123.598 6.76 123.326 7.416C123.07 8.072 122.942 8.8 122.942 9.6C122.942 10.384 123.07 11.112 123.326 11.784C123.598 12.44 123.966 13.008 124.43 13.488C124.91 13.968 125.47 14.336 126.11 14.592C126.75 14.848 127.446 14.976 128.198 14.976ZM140.312 18V1.2H143.528L153.44 13.296H151.88V1.2H155.72V18H152.528L142.592 5.904H144.152V18H140.312ZM163.175 18V4.368H157.799V1.2H172.439V4.368H167.063V18H163.175ZM171.479 18L178.967 1.2H182.807L190.319 18H186.239L180.095 3.168H181.631L175.463 18H171.479ZM175.223 14.4L176.255 11.448H184.895L185.951 14.4H175.223ZM192.062 18V1.2H195.95V18H192.062ZM199.937 18V1.2H203.153L213.065 13.296H211.505V1.2H215.345V18H212.153L202.217 5.904H203.777V18H199.937ZM222.896 7.968H230.984V10.992H222.896V7.968ZM223.184 14.88H232.328V18H219.32V1.2H232.016V4.32H223.184V14.88ZM235.422 18V1.2H242.694C244.198 1.2 245.494 1.448 246.582 1.944C247.67 2.424 248.51 3.12 249.102 4.032C249.694 4.944 249.99 6.032 249.99 7.296C249.99 8.544 249.694 9.624 249.102 10.536C248.51 11.432 247.67 12.12 246.582 12.6C245.494 13.08 244.198 13.32 242.694 13.32H237.582L239.31 11.616V18H235.422ZM246.102 18L241.902 11.904H246.054L250.302 18H246.102ZM239.31 12.048L237.582 10.224H242.478C243.678 10.224 244.574 9.968 245.166 9.456C245.758 8.928 246.054 8.208 246.054 7.296C246.054 6.368 245.758 5.648 245.166 5.136C244.574 4.624 243.678 4.368 242.478 4.368H237.582L239.31 2.52V12.048Z" fill="black"/>
</svg>
