<svg width="181" height="19" viewBox="0 0 181 19" fill="none" xmlns="http://www.w3.org/2000/svg">
<path d="M7.76591 18.288C6.42191 18.288 5.13391 18.112 3.90191 17.76C2.66991 17.392 1.67791 16.92 0.925906 16.344L2.24591 13.416C2.96591 13.928 3.81391 14.352 4.78991 14.688C5.78191 15.008 6.78191 15.168 7.78991 15.168C8.55791 15.168 9.17391 15.096 9.63791 14.952C10.1179 14.792 10.4699 14.576 10.6939 14.304C10.9179 14.032 11.0299 13.72 11.0299 13.368C11.0299 12.92 10.8539 12.568 10.5019 12.312C10.1499 12.04 9.68591 11.824 9.10991 11.664C8.53391 11.488 7.89391 11.328 7.18991 11.184C6.50191 11.024 5.80591 10.832 5.10191 10.608C4.41391 10.384 3.78191 10.096 3.20591 9.744C2.62991 9.392 2.15791 8.928 1.78991 8.352C1.43791 7.776 1.26191 7.04 1.26191 6.144C1.26191 5.184 1.51791 4.312 2.02991 3.528C2.55791 2.728 3.34191 2.096 4.38191 1.632C5.43791 1.152 6.75791 0.912 8.34191 0.912C9.39791 0.912 10.4379 1.04 11.4619 1.296C12.4859 1.536 13.3899 1.904 14.1739 2.4L12.9739 5.352C12.1899 4.904 11.4059 4.576 10.6219 4.368C9.83791 4.144 9.06991 4.032 8.31791 4.032C7.56591 4.032 6.94991 4.12 6.46991 4.296C5.98991 4.472 5.64591 4.704 5.43791 4.992C5.22991 5.264 5.12591 5.584 5.12591 5.952C5.12591 6.384 5.30191 6.736 5.65391 7.008C6.00591 7.264 6.46991 7.472 7.04591 7.632C7.62191 7.792 8.25391 7.952 8.94191 8.112C9.64591 8.272 10.3419 8.456 11.0299 8.664C11.7339 8.872 12.3739 9.152 12.9499 9.504C13.5259 9.856 13.9899 10.32 14.3419 10.896C14.7099 11.472 14.8939 12.2 14.8939 13.08C14.8939 14.024 14.6299 14.888 14.1019 15.672C13.5739 16.456 12.7819 17.088 11.7259 17.568C10.6859 18.048 9.36591 18.288 7.76591 18.288ZM17.5506 18V1.2H21.4386V18H17.5506ZM25.4256 18V1.2H32.6976C34.2016 1.2 35.4976 1.448 36.5856 1.944C37.6736 2.424 38.5136 3.12 39.1056 4.032C39.6976 4.944 39.9936 6.032 39.9936 7.296C39.9936 8.544 39.6976 9.624 39.1056 10.536C38.5136 11.448 37.6736 12.152 36.5856 12.648C35.4976 13.128 34.2016 13.368 32.6976 13.368H27.5856L29.3136 11.616V18H25.4256ZM29.3136 12.048L27.5856 10.2H32.4816C33.6816 10.2 34.5776 9.944 35.1696 9.432C35.7616 8.92 36.0576 8.208 36.0576 7.296C36.0576 6.368 35.7616 5.648 35.1696 5.136C34.5776 4.624 33.6816 4.368 32.4816 4.368H27.5856L29.3136 2.52V12.048ZM42.7693 18V1.2H50.0413C51.5453 1.2 52.8413 1.448 53.9293 1.944C55.0173 2.424 55.8573 3.12 56.4493 4.032C57.0413 4.944 57.3373 6.032 57.3373 7.296C57.3373 8.544 57.0413 9.624 56.4493 10.536C55.8573 11.448 55.0173 12.152 53.9293 12.648C52.8413 13.128 51.5453 13.368 50.0413 13.368H44.9293L46.6573 11.616V18H42.7693ZM46.6573 12.048L44.9293 10.2H49.8253C51.0253 10.2 51.9213 9.944 52.5133 9.432C53.1053 8.92 53.4013 8.208 53.4013 7.296C53.4013 6.368 53.1053 5.648 52.5133 5.136C51.9213 4.624 51.0253 4.368 49.8253 4.368H44.9293L46.6573 2.52V12.048ZM63.6891 7.968H71.7771V10.992H63.6891V7.968ZM63.9771 14.88H73.1211V18H60.1131V1.2H72.8091V4.32H63.9771V14.88ZM76.2147 18V1.2H83.4867C84.9907 1.2 86.2867 1.448 87.3747 1.944C88.4627 2.424 89.3027 3.12 89.8947 4.032C90.4867 4.944 90.7827 6.032 90.7827 7.296C90.7827 8.544 90.4867 9.624 89.8947 10.536C89.3027 11.432 88.4627 12.12 87.3747 12.6C86.2867 13.08 84.9907 13.32 83.4867 13.32H78.3747L80.1027 11.616V18H76.2147ZM86.8947 18L82.6947 11.904H86.8467L91.0947 18H86.8947ZM80.1027 12.048L78.3747 10.224H83.2707C84.4707 10.224 85.3667 9.968 85.9587 9.456C86.5507 8.928 86.8467 8.208 86.8467 7.296C86.8467 6.368 86.5507 5.648 85.9587 5.136C85.3667 4.624 84.4707 4.368 83.2707 4.368H78.3747L80.1027 2.52V12.048ZM108.772 18.288C107.444 18.288 106.22 18.08 105.1 17.664C103.996 17.232 103.028 16.624 102.196 15.84C101.38 15.056 100.74 14.136 100.276 13.08C99.828 12.024 99.604 10.864 99.604 9.6C99.604 8.336 99.828 7.176 100.276 6.12C100.74 5.064 101.388 4.144 102.22 3.36C103.052 2.576 104.028 1.976 105.148 1.56C106.268 1.128 107.5 0.912 108.844 0.912C110.332 0.912 111.668 1.16 112.852 1.656C114.052 2.152 115.06 2.872 115.876 3.816L113.38 6.12C112.772 5.48 112.108 5.008 111.388 4.704C110.668 4.384 109.884 4.224 109.036 4.224C108.22 4.224 107.476 4.352 106.804 4.608C106.132 4.864 105.548 5.232 105.052 5.712C104.572 6.192 104.196 6.76 103.924 7.416C103.668 8.072 103.54 8.8 103.54 9.6C103.54 10.384 103.668 11.104 103.924 11.76C104.196 12.416 104.572 12.992 105.052 13.488C105.548 13.968 106.124 14.336 106.78 14.592C107.452 14.848 108.188 14.976 108.988 14.976C109.756 14.976 110.5 14.856 111.22 14.616C111.956 14.36 112.668 13.936 113.356 13.344L115.564 16.152C114.652 16.84 113.588 17.368 112.372 17.736C111.172 18.104 109.972 18.288 108.772 18.288ZM112.012 15.648V9.336H115.564V16.152L112.012 15.648ZM119.176 18V1.2H123.064V14.832H131.488V18H119.176ZM131.546 18L139.034 1.2H142.874L150.386 18H146.306L140.162 3.168H141.698L135.53 18H131.546ZM135.29 14.4L136.322 11.448H144.962L146.018 14.4H135.29ZM157.649 18.288C156.305 18.288 155.017 18.112 153.785 17.76C152.553 17.392 151.561 16.92 150.809 16.344L152.129 13.416C152.849 13.928 153.697 14.352 154.673 14.688C155.665 15.008 156.665 15.168 157.673 15.168C158.441 15.168 159.057 15.096 159.521 14.952C160.001 14.792 160.353 14.576 160.577 14.304C160.801 14.032 160.913 13.72 160.913 13.368C160.913 12.92 160.737 12.568 160.385 12.312C160.033 12.04 159.569 11.824 158.993 11.664C158.417 11.488 157.777 11.328 157.073 11.184C156.385 11.024 155.689 10.832 154.985 10.608C154.297 10.384 153.665 10.096 153.089 9.744C152.513 9.392 152.041 8.928 151.673 8.352C151.321 7.776 151.145 7.04 151.145 6.144C151.145 5.184 151.401 4.312 151.913 3.528C152.441 2.728 153.225 2.096 154.265 1.632C155.321 1.152 156.641 0.912 158.225 0.912C159.281 0.912 160.321 1.04 161.345 1.296C162.369 1.536 163.273 1.904 164.057 2.4L162.857 5.352C162.073 4.904 161.289 4.576 160.505 4.368C159.721 4.144 158.953 4.032 158.201 4.032C157.449 4.032 156.833 4.12 156.353 4.296C155.873 4.472 155.529 4.704 155.321 4.992C155.113 5.264 155.009 5.584 155.009 5.952C155.009 6.384 155.185 6.736 155.537 7.008C155.889 7.264 156.353 7.472 156.929 7.632C157.505 7.792 158.137 7.952 158.825 8.112C159.529 8.272 160.225 8.456 160.913 8.664C161.617 8.872 162.257 9.152 162.833 9.504C163.409 9.856 163.873 10.32 164.225 10.896C164.593 11.472 164.777 12.2 164.777 13.08C164.777 14.024 164.513 14.888 163.985 15.672C163.457 16.456 162.665 17.088 161.609 17.568C160.569 18.048 159.249 18.288 157.649 18.288ZM172.953 18.288C171.609 18.288 170.321 18.112 169.089 17.76C167.857 17.392 166.865 16.92 166.113 16.344L167.433 13.416C168.153 13.928 169.001 14.352 169.977 14.688C170.969 15.008 171.969 15.168 172.977 15.168C173.745 15.168 174.361 15.096 174.825 14.952C175.305 14.792 175.657 14.576 175.881 14.304C176.105 14.032 176.217 13.72 176.217 13.368C176.217 12.92 176.041 12.568 175.689 12.312C175.337 12.04 174.873 11.824 174.297 11.664C173.721 11.488 173.081 11.328 172.377 11.184C171.689 11.024 170.993 10.832 170.289 10.608C169.601 10.384 168.969 10.096 168.393 9.744C167.817 9.392 167.345 8.928 166.977 8.352C166.625 7.776 166.449 7.04 166.449 6.144C166.449 5.184 166.705 4.312 167.217 3.528C167.745 2.728 168.529 2.096 169.569 1.632C170.625 1.152 171.945 0.912 173.529 0.912C174.585 0.912 175.625 1.04 176.649 1.296C177.673 1.536 178.577 1.904 179.361 2.4L178.161 5.352C177.377 4.904 176.593 4.576 175.809 4.368C175.025 4.144 174.257 4.032 173.505 4.032C172.753 4.032 172.137 4.12 171.657 4.296C171.177 4.472 170.833 4.704 170.625 4.992C170.417 5.264 170.313 5.584 170.313 5.952C170.313 6.384 170.489 6.736 170.841 7.008C171.193 7.264 171.657 7.472 172.233 7.632C172.809 7.792 173.441 7.952 174.129 8.112C174.833 8.272 175.529 8.456 176.217 8.664C176.921 8.872 177.561 9.152 178.137 9.504C178.713 9.856 179.177 10.32 179.529 10.896C179.897 11.472 180.081 12.2 180.081 13.08C180.081 14.024 179.817 14.888 179.289 15.672C178.761 16.456 177.969 17.088 176.913 17.568C175.873 18.048 174.553 18.288 172.953 18.288Z" fill="black"/>
</svg>
