<svg width="247" height="77" viewBox="0 0 247 77" fill="none" xmlns="http://www.w3.org/2000/svg">
<g filter="url(#filter0_d_220_220)">
<g filter="url(#filter1_d_220_220)">
<rect x="10.5" y="6.5" width="226" height="56" stroke="#DF3228" shape-rendering="crispEdges"/>
</g>
<path d="M22 27.8333C23.5913 27.8333 25.1174 28.4654 26.2426 29.5906C27.3679 30.7158 28 32.242 28 33.8333C28 35.8826 26.8827 37.5599 25.7053 38.7633C25.1171 39.358 24.4753 39.8971 23.788 40.3739L23.504 40.5673L23.3707 40.6559L23.1193 40.8159L22.8953 40.9526L22.618 41.1139C22.4298 41.2214 22.2168 41.2779 22 41.2779C21.7832 41.2779 21.5702 41.2214 21.382 41.1139L21.1047 40.9526L20.758 40.7393L20.63 40.6559L20.3567 40.4739C19.6152 39.9723 18.9246 39.3993 18.2947 38.7633C17.1173 37.5593 16 35.8826 16 33.8333C16 32.242 16.6321 30.7158 17.7574 29.5906C18.8826 28.4654 20.4087 27.8333 22 27.8333ZM22 31.8333C21.7374 31.8333 21.4773 31.885 21.2346 31.9855C20.992 32.086 20.7715 32.2333 20.5858 32.419C20.4001 32.6048 20.2528 32.8252 20.1522 33.0679C20.0517 33.3105 20 33.5706 20 33.8333C20 34.0959 20.0517 34.356 20.1522 34.5986C20.2528 34.8413 20.4001 35.0617 20.5858 35.2475C20.7715 35.4332 20.992 35.5805 21.2346 35.681C21.4773 35.7815 21.7374 35.8333 22 35.8333C22.5304 35.8333 23.0391 35.6225 23.4142 35.2475C23.7893 34.8724 24 34.3637 24 33.8333C24 33.3028 23.7893 32.7941 23.4142 32.419C23.0391 32.044 22.5304 31.8333 22 31.8333Z" fill="white"/>
<path d="M33.38 23.28V22.58L36.96 18H38.04L34.49 22.58L33.98 22.42H39.57V23.28H33.38ZM37.27 25V23.28L37.3 22.42V20.9H38.24V25H37.27ZM40.8395 25V18H41.6595L44.7995 23.29H44.3595L47.4595 18H48.2795L48.2895 25H47.3295L47.3195 19.51H47.5495L44.7895 24.15H44.3295L41.5495 19.51H41.7995V25H40.8395ZM53.2758 25V18H56.0058C56.6191 18 57.1424 18.0967 57.5758 18.29C58.0091 18.4833 58.3424 18.7633 58.5758 19.13C58.8091 19.4967 58.9258 19.9333 58.9258 20.44C58.9258 20.9467 58.8091 21.3833 58.5758 21.75C58.3424 22.11 58.0091 22.39 57.5758 22.59C57.1424 22.7833 56.6191 22.88 56.0058 22.88H53.8258L54.2758 22.41V25H53.2758ZM54.2758 22.51L53.8258 22.01H55.9758C56.6158 22.01 57.0991 21.8733 57.4258 21.6C57.7591 21.3267 57.9258 20.94 57.9258 20.44C57.9258 19.94 57.7591 19.5533 57.4258 19.28C57.0991 19.0067 56.6158 18.87 55.9758 18.87H53.8258L54.2758 18.37V22.51ZM60.4526 25V17.58H61.4126V25H60.4526ZM66.6355 25V23.88L66.5855 23.67V21.76C66.5855 21.3533 66.4655 21.04 66.2255 20.82C65.9922 20.5933 65.6389 20.48 65.1655 20.48C64.8522 20.48 64.5455 20.5333 64.2455 20.64C63.9455 20.74 63.6922 20.8767 63.4855 21.05L63.0855 20.33C63.3589 20.11 63.6855 19.9433 64.0655 19.83C64.4522 19.71 64.8555 19.65 65.2755 19.65C66.0022 19.65 66.5622 19.8267 66.9555 20.18C67.3489 20.5333 67.5455 21.0733 67.5455 21.8V25H66.6355ZM64.8955 25.06C64.5022 25.06 64.1555 24.9933 63.8555 24.86C63.5622 24.7267 63.3355 24.5433 63.1755 24.31C63.0155 24.07 62.9355 23.8 62.9355 23.5C62.9355 23.2133 63.0022 22.9533 63.1355 22.72C63.2755 22.4867 63.4989 22.3 63.8055 22.16C64.1189 22.02 64.5389 21.95 65.0655 21.95H66.7455V22.64H65.1055C64.6255 22.64 64.3022 22.72 64.1355 22.88C63.9689 23.04 63.8855 23.2333 63.8855 23.46C63.8855 23.72 63.9889 23.93 64.1955 24.09C64.4022 24.2433 64.6889 24.32 65.0555 24.32C65.4155 24.32 65.7289 24.24 65.9955 24.08C66.2689 23.92 66.4655 23.6867 66.5855 23.38L66.7755 24.04C66.6489 24.3533 66.4255 24.6033 66.1055 24.79C65.7855 24.97 65.3822 25.06 64.8955 25.06ZM72.7121 25V23.88L72.6621 23.67V21.76C72.6621 21.3533 72.5421 21.04 72.3021 20.82C72.0688 20.5933 71.7154 20.48 71.2421 20.48C70.9288 20.48 70.6221 20.5333 70.3221 20.64C70.0221 20.74 69.7688 20.8767 69.5621 21.05L69.1621 20.33C69.4354 20.11 69.7621 19.9433 70.1421 19.83C70.5288 19.71 70.9321 19.65 71.3521 19.65C72.0788 19.65 72.6388 19.8267 73.0321 20.18C73.4254 20.5333 73.6221 21.0733 73.6221 21.8V25H72.7121ZM70.9721 25.06C70.5788 25.06 70.2321 24.9933 69.9321 24.86C69.6388 24.7267 69.4121 24.5433 69.2521 24.31C69.0921 24.07 69.0121 23.8 69.0121 23.5C69.0121 23.2133 69.0788 22.9533 69.2121 22.72C69.3521 22.4867 69.5754 22.3 69.8821 22.16C70.1954 22.02 70.6154 21.95 71.1421 21.95H72.8221V22.64H71.1821C70.7021 22.64 70.3788 22.72 70.2121 22.88C70.0454 23.04 69.9621 23.2333 69.9621 23.46C69.9621 23.72 70.0654 23.93 70.2721 24.09C70.4788 24.2433 70.7654 24.32 71.1321 24.32C71.4921 24.32 71.8054 24.24 72.0721 24.08C72.3454 23.92 72.5421 23.6867 72.6621 23.38L72.8521 24.04C72.7254 24.3533 72.5021 24.6033 72.1821 24.79C71.8621 24.97 71.4588 25.06 70.9721 25.06ZM77.0187 25.06C76.5787 25.06 76.1587 25 75.7587 24.88C75.3653 24.76 75.0553 24.6133 74.8287 24.44L75.2287 23.68C75.4553 23.8333 75.7353 23.9633 76.0687 24.07C76.402 24.1767 76.742 24.23 77.0887 24.23C77.5353 24.23 77.8553 24.1667 78.0487 24.04C78.2487 23.9133 78.3487 23.7367 78.3487 23.51C78.3487 23.3433 78.2887 23.2133 78.1687 23.12C78.0487 23.0267 77.8887 22.9567 77.6887 22.91C77.4953 22.8633 77.2787 22.8233 77.0387 22.79C76.7987 22.75 76.5587 22.7033 76.3187 22.65C76.0787 22.59 75.8587 22.51 75.6587 22.41C75.4587 22.3033 75.2987 22.16 75.1787 21.98C75.0587 21.7933 74.9987 21.5467 74.9987 21.24C74.9987 20.92 75.0887 20.64 75.2687 20.4C75.4487 20.16 75.702 19.9767 76.0287 19.85C76.362 19.7167 76.7553 19.65 77.2087 19.65C77.5553 19.65 77.9053 19.6933 78.2587 19.78C78.6187 19.86 78.912 19.9767 79.1387 20.13L78.7287 20.89C78.4887 20.73 78.2387 20.62 77.9787 20.56C77.7187 20.5 77.4587 20.47 77.1987 20.47C76.7787 20.47 76.4653 20.54 76.2587 20.68C76.052 20.8133 75.9487 20.9867 75.9487 21.2C75.9487 21.38 76.0087 21.52 76.1287 21.62C76.2553 21.7133 76.4153 21.7867 76.6087 21.84C76.8087 21.8933 77.0287 21.94 77.2687 21.98C77.5087 22.0133 77.7487 22.06 77.9887 22.12C78.2287 22.1733 78.4453 22.25 78.6387 22.35C78.8387 22.45 78.9987 22.59 79.1187 22.77C79.2453 22.95 79.3087 23.19 79.3087 23.49C79.3087 23.81 79.2153 24.0867 79.0287 24.32C78.842 24.5533 78.5787 24.7367 78.2387 24.87C77.8987 24.9967 77.492 25.06 77.0187 25.06ZM82.4284 25.06C81.8951 25.06 81.4818 24.9167 81.1884 24.63C80.8951 24.3433 80.7484 23.9333 80.7484 23.4V18.54H81.7084V23.36C81.7084 23.6467 81.7784 23.8667 81.9184 24.02C82.0651 24.1733 82.2718 24.25 82.5384 24.25C82.8384 24.25 83.0884 24.1667 83.2884 24L83.5884 24.69C83.4418 24.8167 83.2651 24.91 83.0584 24.97C82.8584 25.03 82.6484 25.06 82.4284 25.06ZM79.8484 20.49V19.7H83.2284V20.49H79.8484ZM87.0333 25.06C86.4666 25.06 85.9666 24.9433 85.5333 24.71C85.1066 24.4767 84.7733 24.1567 84.5333 23.75C84.2999 23.3433 84.1833 22.8767 84.1833 22.35C84.1833 21.8233 84.2966 21.3567 84.5233 20.95C84.7566 20.5433 85.0733 20.2267 85.4733 20C85.8799 19.7667 86.3366 19.65 86.8433 19.65C87.3566 19.65 87.8099 19.7633 88.2033 19.99C88.5966 20.2167 88.9033 20.5367 89.1233 20.95C89.3499 21.3567 89.4633 21.8333 89.4633 22.38C89.4633 22.42 89.4599 22.4667 89.4533 22.52C89.4533 22.5733 89.4499 22.6233 89.4433 22.67H84.9333V21.98H88.9433L88.5533 22.22C88.5599 21.88 88.4899 21.5767 88.3433 21.31C88.1966 21.0433 87.9933 20.8367 87.7333 20.69C87.4799 20.5367 87.1833 20.46 86.8433 20.46C86.5099 20.46 86.2133 20.5367 85.9533 20.69C85.6933 20.8367 85.4899 21.0467 85.3433 21.32C85.1966 21.5867 85.1233 21.8933 85.1233 22.24V22.4C85.1233 22.7533 85.2033 23.07 85.3633 23.35C85.5299 23.6233 85.7599 23.8367 86.0533 23.99C86.3466 24.1433 86.6833 24.22 87.0633 24.22C87.3766 24.22 87.6599 24.1667 87.9133 24.06C88.1733 23.9533 88.3999 23.7933 88.5933 23.58L89.1233 24.2C88.8833 24.48 88.5833 24.6933 88.2233 24.84C87.8699 24.9867 87.4733 25.06 87.0333 25.06ZM93.2063 25.06C92.6663 25.06 92.183 24.9433 91.7563 24.71C91.3363 24.4767 91.0063 24.1567 90.7663 23.75C90.5263 23.3433 90.4063 22.8767 90.4063 22.35C90.4063 21.8233 90.5263 21.3567 90.7663 20.95C91.0063 20.5433 91.3363 20.2267 91.7563 20C92.183 19.7667 92.6663 19.65 93.2063 19.65C93.6863 19.65 94.113 19.7467 94.4863 19.94C94.8663 20.1267 95.1597 20.4067 95.3663 20.78L94.6363 21.25C94.463 20.99 94.2497 20.8 93.9963 20.68C93.7497 20.5533 93.483 20.49 93.1963 20.49C92.8497 20.49 92.5397 20.5667 92.2663 20.72C91.993 20.8733 91.7763 21.09 91.6163 21.37C91.4563 21.6433 91.3763 21.97 91.3763 22.35C91.3763 22.73 91.4563 23.06 91.6163 23.34C91.7763 23.62 91.993 23.8367 92.2663 23.99C92.5397 24.1433 92.8497 24.22 93.1963 24.22C93.483 24.22 93.7497 24.16 93.9963 24.04C94.2497 23.9133 94.463 23.72 94.6363 23.46L95.3663 23.92C95.1597 24.2867 94.8663 24.57 94.4863 24.77C94.113 24.9633 93.6863 25.06 93.2063 25.06ZM99.4709 19.65C99.9042 19.65 100.284 19.7333 100.611 19.9C100.944 20.0667 101.204 20.32 101.391 20.66C101.578 21 101.671 21.43 101.671 21.95V25H100.711V22.06C100.711 21.5467 100.584 21.16 100.331 20.9C100.084 20.64 99.7342 20.51 99.2809 20.51C98.9409 20.51 98.6442 20.5767 98.3909 20.71C98.1375 20.8433 97.9409 21.04 97.8009 21.3C97.6675 21.56 97.6009 21.8833 97.6009 22.27V25H96.6409V17.58H97.6009V21.13L97.4109 20.75C97.5842 20.4033 97.8509 20.1333 98.2109 19.94C98.5709 19.7467 98.9909 19.65 99.4709 19.65ZM106.473 25V18H107.293L111.923 23.75H111.493V18H112.493V25H111.673L107.043 19.25H107.473V25H106.473ZM116.818 25.06C116.285 25.06 115.812 24.9433 115.398 24.71C114.985 24.4767 114.658 24.1567 114.418 23.75C114.178 23.3367 114.058 22.87 114.058 22.35C114.058 21.8233 114.178 21.3567 114.418 20.95C114.658 20.5433 114.985 20.2267 115.398 20C115.812 19.7667 116.285 19.65 116.818 19.65C117.345 19.65 117.815 19.7667 118.228 20C118.648 20.2267 118.975 20.5433 119.208 20.95C119.448 21.35 119.568 21.8167 119.568 22.35C119.568 22.8767 119.448 23.3433 119.208 23.75C118.975 24.1567 118.648 24.4767 118.228 24.71C117.815 24.9433 117.345 25.06 116.818 25.06ZM116.818 24.22C117.158 24.22 117.462 24.1433 117.728 23.99C118.002 23.8367 118.215 23.62 118.368 23.34C118.522 23.0533 118.598 22.7233 118.598 22.35C118.598 21.97 118.522 21.6433 118.368 21.37C118.215 21.09 118.002 20.8733 117.728 20.72C117.462 20.5667 117.158 20.49 116.818 20.49C116.478 20.49 116.175 20.5667 115.908 20.72C115.642 20.8733 115.428 21.09 115.268 21.37C115.108 21.6433 115.028 21.97 115.028 22.35C115.028 22.7233 115.108 23.0533 115.268 23.34C115.428 23.62 115.642 23.8367 115.908 23.99C116.175 24.1433 116.478 24.22 116.818 24.22ZM121.109 25.06C120.922 25.06 120.762 24.9967 120.629 24.87C120.495 24.7367 120.429 24.57 120.429 24.37C120.429 24.17 120.495 24.0067 120.629 23.88C120.762 23.7533 120.922 23.69 121.109 23.69C121.289 23.69 121.442 23.7533 121.569 23.88C121.702 24.0067 121.769 24.17 121.769 24.37C121.769 24.57 121.702 24.7367 121.569 24.87C121.442 24.9967 121.289 25.06 121.109 25.06ZM123.897 25L126.867 18.42L127.127 18.87H122.967L123.467 18.38V20.12H122.507V18H127.787V18.68L124.957 25H123.897ZM130.848 25.08C130.355 25.08 129.875 25.0033 129.408 24.85C128.948 24.6967 128.572 24.49 128.278 24.23L128.738 23.44C128.972 23.66 129.275 23.84 129.648 23.98C130.022 24.12 130.418 24.19 130.838 24.19C131.372 24.19 131.782 24.0767 132.068 23.85C132.355 23.6233 132.498 23.32 132.498 22.94C132.498 22.68 132.435 22.4533 132.308 22.26C132.182 22.0667 131.962 21.92 131.648 21.82C131.342 21.7133 130.918 21.66 130.378 21.66H128.788L129.158 18H133.108V18.87H129.528L130.048 18.38L129.758 21.27L129.238 20.79H130.588C131.288 20.79 131.852 20.88 132.278 21.06C132.705 21.24 133.015 21.49 133.208 21.81C133.402 22.1233 133.498 22.4867 133.498 22.9C133.498 23.3 133.402 23.6667 133.208 24C133.015 24.3267 132.722 24.59 132.328 24.79C131.942 24.9833 131.448 25.08 130.848 25.08ZM134.48 26.48L134.98 24.46L135.11 25.04C134.917 25.04 134.754 24.98 134.62 24.86C134.494 24.74 134.43 24.5767 134.43 24.37C134.43 24.17 134.494 24.0067 134.62 23.88C134.754 23.7533 134.914 23.69 135.1 23.69C135.294 23.69 135.45 23.7567 135.57 23.89C135.69 24.0167 135.75 24.1767 135.75 24.37C135.75 24.4367 135.744 24.5033 135.73 24.57C135.724 24.63 135.707 24.7033 135.68 24.79C135.66 24.87 135.627 24.97 135.58 25.09L135.11 26.48H134.48ZM141.542 25V18.87H139.142V18H144.932V18.87H142.532V25H141.542ZM148.811 19.65C149.244 19.65 149.624 19.7333 149.951 19.9C150.284 20.0667 150.544 20.32 150.731 20.66C150.917 21 151.011 21.43 151.011 21.95V25H150.051V22.06C150.051 21.5467 149.924 21.16 149.671 20.9C149.424 20.64 149.074 20.51 148.621 20.51C148.281 20.51 147.984 20.5767 147.731 20.71C147.477 20.8433 147.281 21.04 147.141 21.3C147.007 21.56 146.941 21.8833 146.941 22.27V25H145.981V17.58H146.941V21.13L146.751 20.75C146.924 20.4033 147.191 20.1333 147.551 19.94C147.911 19.7467 148.331 19.65 148.811 19.65ZM155.157 25.06C154.624 25.06 154.151 24.9433 153.737 24.71C153.324 24.4767 152.997 24.1567 152.757 23.75C152.517 23.3367 152.397 22.87 152.397 22.35C152.397 21.8233 152.517 21.3567 152.757 20.95C152.997 20.5433 153.324 20.2267 153.737 20C154.151 19.7667 154.624 19.65 155.157 19.65C155.684 19.65 156.154 19.7667 156.567 20C156.987 20.2267 157.314 20.5433 157.547 20.95C157.787 21.35 157.907 21.8167 157.907 22.35C157.907 22.8767 157.787 23.3433 157.547 23.75C157.314 24.1567 156.987 24.4767 156.567 24.71C156.154 24.9433 155.684 25.06 155.157 25.06ZM155.157 24.22C155.497 24.22 155.801 24.1433 156.067 23.99C156.341 23.8367 156.554 23.62 156.707 23.34C156.861 23.0533 156.937 22.7233 156.937 22.35C156.937 21.97 156.861 21.6433 156.707 21.37C156.554 21.09 156.341 20.8733 156.067 20.72C155.801 20.5667 155.497 20.49 155.157 20.49C154.817 20.49 154.514 20.5667 154.247 20.72C153.981 20.8733 153.767 21.09 153.607 21.37C153.447 21.6433 153.367 21.97 153.367 22.35C153.367 22.7233 153.447 23.0533 153.607 23.34C153.767 23.62 153.981 23.8367 154.247 23.99C154.514 24.1433 154.817 24.22 155.157 24.22ZM159.335 25V17.58H160.295V25H159.335ZM163.748 25.06C163.308 25.06 162.888 25 162.488 24.88C162.095 24.76 161.785 24.6133 161.558 24.44L161.958 23.68C162.185 23.8333 162.465 23.9633 162.798 24.07C163.131 24.1767 163.471 24.23 163.818 24.23C164.265 24.23 164.585 24.1667 164.778 24.04C164.978 23.9133 165.078 23.7367 165.078 23.51C165.078 23.3433 165.018 23.2133 164.898 23.12C164.778 23.0267 164.618 22.9567 164.418 22.91C164.225 22.8633 164.008 22.8233 163.768 22.79C163.528 22.75 163.288 22.7033 163.048 22.65C162.808 22.59 162.588 22.51 162.388 22.41C162.188 22.3033 162.028 22.16 161.908 21.98C161.788 21.7933 161.728 21.5467 161.728 21.24C161.728 20.92 161.818 20.64 161.998 20.4C162.178 20.16 162.431 19.9767 162.758 19.85C163.091 19.7167 163.485 19.65 163.938 19.65C164.285 19.65 164.635 19.6933 164.988 19.78C165.348 19.86 165.641 19.9767 165.868 20.13L165.458 20.89C165.218 20.73 164.968 20.62 164.708 20.56C164.448 20.5 164.188 20.47 163.928 20.47C163.508 20.47 163.195 20.54 162.988 20.68C162.781 20.8133 162.678 20.9867 162.678 21.2C162.678 21.38 162.738 21.52 162.858 21.62C162.985 21.7133 163.145 21.7867 163.338 21.84C163.538 21.8933 163.758 21.94 163.998 21.98C164.238 22.0133 164.478 22.06 164.718 22.12C164.958 22.1733 165.175 22.25 165.368 22.35C165.568 22.45 165.728 22.59 165.848 22.77C165.975 22.95 166.038 23.19 166.038 23.49C166.038 23.81 165.945 24.0867 165.758 24.32C165.571 24.5533 165.308 24.7367 164.968 24.87C164.628 24.9967 164.221 25.06 163.748 25.06ZM170.168 19.65C170.601 19.65 170.981 19.7333 171.308 19.9C171.641 20.0667 171.901 20.32 172.088 20.66C172.274 21 172.368 21.43 172.368 21.95V25H171.408V22.06C171.408 21.5467 171.281 21.16 171.028 20.9C170.781 20.64 170.431 20.51 169.978 20.51C169.638 20.51 169.341 20.5767 169.088 20.71C168.834 20.8433 168.638 21.04 168.498 21.3C168.364 21.56 168.298 21.8833 168.298 22.27V25H167.338V17.58H168.298V21.13L168.108 20.75C168.281 20.4033 168.548 20.1333 168.908 19.94C169.268 19.7467 169.688 19.65 170.168 19.65ZM176.514 25.06C175.981 25.06 175.508 24.9433 175.094 24.71C174.681 24.4767 174.354 24.1567 174.114 23.75C173.874 23.3367 173.754 22.87 173.754 22.35C173.754 21.8233 173.874 21.3567 174.114 20.95C174.354 20.5433 174.681 20.2267 175.094 20C175.508 19.7667 175.981 19.65 176.514 19.65C177.041 19.65 177.511 19.7667 177.924 20C178.344 20.2267 178.671 20.5433 178.904 20.95C179.144 21.35 179.264 21.8167 179.264 22.35C179.264 22.8767 179.144 23.3433 178.904 23.75C178.671 24.1567 178.344 24.4767 177.924 24.71C177.511 24.9433 177.041 25.06 176.514 25.06ZM176.514 24.22C176.854 24.22 177.158 24.1433 177.424 23.99C177.698 23.8367 177.911 23.62 178.064 23.34C178.218 23.0533 178.294 22.7233 178.294 22.35C178.294 21.97 178.218 21.6433 178.064 21.37C177.911 21.09 177.698 20.8733 177.424 20.72C177.158 20.5667 176.854 20.49 176.514 20.49C176.174 20.49 175.871 20.5667 175.604 20.72C175.338 20.8733 175.124 21.09 174.964 21.37C174.804 21.6433 174.724 21.97 174.724 22.35C174.724 22.7233 174.804 23.0533 174.964 23.34C175.124 23.62 175.338 23.8367 175.604 23.99C175.871 24.1433 176.174 24.22 176.514 24.22ZM183.502 25.06C183.062 25.06 182.659 24.96 182.292 24.76C181.932 24.5533 181.642 24.25 181.422 23.85C181.209 23.45 181.102 22.95 181.102 22.35C181.102 21.75 181.205 21.25 181.412 20.85C181.625 20.45 181.912 20.15 182.272 19.95C182.639 19.75 183.049 19.65 183.502 19.65C184.022 19.65 184.482 19.7633 184.882 19.99C185.282 20.2167 185.599 20.5333 185.832 20.94C186.065 21.34 186.182 21.81 186.182 22.35C186.182 22.89 186.065 23.3633 185.832 23.77C185.599 24.1767 185.282 24.4933 184.882 24.72C184.482 24.9467 184.022 25.06 183.502 25.06ZM180.692 26.94V19.7H181.612V21.13L181.552 22.36L181.652 23.59V26.94H180.692ZM183.422 24.22C183.762 24.22 184.065 24.1433 184.332 23.99C184.605 23.8367 184.819 23.62 184.972 23.34C185.132 23.0533 185.212 22.7233 185.212 22.35C185.212 21.97 185.132 21.6433 184.972 21.37C184.819 21.09 184.605 20.8733 184.332 20.72C184.065 20.5667 183.762 20.49 183.422 20.49C183.089 20.49 182.785 20.5667 182.512 20.72C182.245 20.8733 182.032 21.09 181.872 21.37C181.719 21.6433 181.642 21.97 181.642 22.35C181.642 22.7233 181.719 23.0533 181.872 23.34C182.032 23.62 182.245 23.8367 182.512 23.99C182.785 24.1433 183.089 24.22 183.422 24.22ZM194.238 19.65C194.665 19.65 195.042 19.7333 195.368 19.9C195.695 20.0667 195.948 20.32 196.128 20.66C196.315 21 196.408 21.43 196.408 21.95V25H195.448V22.06C195.448 21.5467 195.328 21.16 195.088 20.9C194.848 20.64 194.512 20.51 194.078 20.51C193.758 20.51 193.478 20.5767 193.238 20.71C192.998 20.8433 192.812 21.04 192.678 21.3C192.552 21.56 192.488 21.8833 192.488 22.27V25H191.528V22.06C191.528 21.5467 191.408 21.16 191.168 20.9C190.935 20.64 190.598 20.51 190.158 20.51C189.845 20.51 189.568 20.5767 189.328 20.71C189.088 20.8433 188.902 21.04 188.768 21.3C188.635 21.56 188.568 21.8833 188.568 22.27V25H187.608V19.7H188.528V21.11L188.378 20.75C188.545 20.4033 188.802 20.1333 189.148 19.94C189.495 19.7467 189.898 19.65 190.358 19.65C190.865 19.65 191.302 19.7767 191.668 20.03C192.035 20.2767 192.275 20.6533 192.388 21.16L191.998 21C192.158 20.5933 192.438 20.2667 192.838 20.02C193.238 19.7733 193.705 19.65 194.238 19.65ZM200.635 25.06C200.068 25.06 199.568 24.9433 199.135 24.71C198.708 24.4767 198.375 24.1567 198.135 23.75C197.902 23.3433 197.785 22.8767 197.785 22.35C197.785 21.8233 197.898 21.3567 198.125 20.95C198.358 20.5433 198.675 20.2267 199.075 20C199.482 19.7667 199.938 19.65 200.445 19.65C200.958 19.65 201.412 19.7633 201.805 19.99C202.198 20.2167 202.505 20.5367 202.725 20.95C202.952 21.3567 203.065 21.8333 203.065 22.38C203.065 22.42 203.062 22.4667 203.055 22.52C203.055 22.5733 203.052 22.6233 203.045 22.67H198.535V21.98H202.545L202.155 22.22C202.162 21.88 202.092 21.5767 201.945 21.31C201.798 21.0433 201.595 20.8367 201.335 20.69C201.082 20.5367 200.785 20.46 200.445 20.46C200.112 20.46 199.815 20.5367 199.555 20.69C199.295 20.8367 199.092 21.0467 198.945 21.32C198.798 21.5867 198.725 21.8933 198.725 22.24V22.4C198.725 22.7533 198.805 23.07 198.965 23.35C199.132 23.6233 199.362 23.8367 199.655 23.99C199.948 24.1433 200.285 24.22 200.665 24.22C200.978 24.22 201.262 24.1667 201.515 24.06C201.775 23.9533 202.002 23.7933 202.195 23.58L202.725 24.2C202.485 24.48 202.185 24.6933 201.825 24.84C201.472 24.9867 201.075 25.06 200.635 25.06ZM206.688 25.06C206.175 25.06 205.715 24.9467 205.308 24.72C204.908 24.4933 204.591 24.1767 204.358 23.77C204.125 23.3633 204.008 22.89 204.008 22.35C204.008 21.81 204.125 21.34 204.358 20.94C204.591 20.5333 204.908 20.2167 205.308 19.99C205.715 19.7633 206.175 19.65 206.688 19.65C207.135 19.65 207.538 19.75 207.898 19.95C208.258 20.15 208.545 20.45 208.758 20.85C208.978 21.25 209.088 21.75 209.088 22.35C209.088 22.95 208.981 23.45 208.768 23.85C208.561 24.25 208.278 24.5533 207.918 24.76C207.558 24.96 207.148 25.06 206.688 25.06ZM206.768 24.22C207.101 24.22 207.401 24.1433 207.668 23.99C207.941 23.8367 208.155 23.62 208.308 23.34C208.468 23.0533 208.548 22.7233 208.548 22.35C208.548 21.97 208.468 21.6433 208.308 21.37C208.155 21.09 207.941 20.8733 207.668 20.72C207.401 20.5667 207.101 20.49 206.768 20.49C206.428 20.49 206.125 20.5667 205.858 20.72C205.591 20.8733 205.378 21.09 205.218 21.37C205.058 21.6433 204.978 21.97 204.978 22.35C204.978 22.7233 205.058 23.0533 205.218 23.34C205.378 23.62 205.591 23.8367 205.858 23.99C206.125 24.1433 206.428 24.22 206.768 24.22ZM208.578 25V23.57L208.638 22.34L208.538 21.11V17.58H209.498V25H208.578ZM213.644 25.06C213.191 25.06 212.791 24.9767 212.444 24.81C212.104 24.6433 211.838 24.39 211.644 24.05C211.458 23.7033 211.364 23.27 211.364 22.75V19.7H212.324V22.64C212.324 23.16 212.448 23.55 212.694 23.81C212.948 24.07 213.301 24.2 213.754 24.2C214.088 24.2 214.378 24.1333 214.624 24C214.871 23.86 215.061 23.66 215.194 23.4C215.328 23.1333 215.394 22.8133 215.394 22.44V19.7H216.354V25H215.444V23.57L215.594 23.95C215.421 24.3033 215.161 24.5767 214.814 24.77C214.468 24.9633 214.078 25.06 213.644 25.06ZM217.902 26.48L218.402 24.46L218.532 25.04C218.339 25.04 218.175 24.98 218.042 24.86C217.915 24.74 217.852 24.5767 217.852 24.37C217.852 24.17 217.915 24.0067 218.042 23.88C218.175 23.7533 218.335 23.69 218.522 23.69C218.715 23.69 218.872 23.7567 218.992 23.89C219.112 24.0167 219.172 24.1767 219.172 24.37C219.172 24.4367 219.165 24.5033 219.152 24.57C219.145 24.63 219.129 24.7033 219.102 24.79C219.082 24.87 219.049 24.97 219.002 25.09L218.532 26.48H217.902ZM35.44 38V31.87H33.04V31H38.83V31.87H36.43V38H35.44ZM42.7091 32.65C43.1425 32.65 43.5225 32.7333 43.8491 32.9C44.1825 33.0667 44.4425 33.32 44.6291 33.66C44.8158 34 44.9091 34.43 44.9091 34.95V38H43.9491V35.06C43.9491 34.5467 43.8225 34.16 43.5691 33.9C43.3225 33.64 42.9725 33.51 42.5191 33.51C42.1791 33.51 41.8825 33.5767 41.6291 33.71C41.3758 33.8433 41.1791 34.04 41.0391 34.3C40.9058 34.56 40.8391 34.8833 40.8391 35.27V38H39.8791V30.58H40.8391V34.13L40.6491 33.75C40.8225 33.4033 41.0891 33.1333 41.4491 32.94C41.8091 32.7467 42.2291 32.65 42.7091 32.65ZM46.7858 38V32.7H47.7458V38H46.7858ZM47.2658 31.68C47.0791 31.68 46.9224 31.62 46.7958 31.5C46.6758 31.38 46.6158 31.2333 46.6158 31.06C46.6158 30.88 46.6758 30.73 46.7958 30.61C46.9224 30.49 47.0791 30.43 47.2658 30.43C47.4524 30.43 47.6058 30.49 47.7258 30.61C47.8524 30.7233 47.9158 30.8667 47.9158 31.04C47.9158 31.22 47.8558 31.3733 47.7358 31.5C47.6158 31.62 47.4591 31.68 47.2658 31.68ZM49.6788 38V32.7H50.5988V34.14L50.5088 33.78C50.6554 33.4133 50.9021 33.1333 51.2488 32.94C51.5954 32.7467 52.0221 32.65 52.5288 32.65V33.58C52.4888 33.5733 52.4488 33.57 52.4088 33.57C52.3754 33.57 52.3421 33.57 52.3088 33.57C51.7954 33.57 51.3888 33.7233 51.0888 34.03C50.7888 34.3367 50.6388 34.78 50.6388 35.36V38H49.6788ZM56.1103 38.06C55.657 38.06 55.257 37.9767 54.9103 37.81C54.5703 37.6433 54.3036 37.39 54.1103 37.05C53.9236 36.7033 53.8303 36.27 53.8303 35.75V32.7H54.7903V35.64C54.7903 36.16 54.9136 36.55 55.1603 36.81C55.4136 37.07 55.767 37.2 56.2203 37.2C56.5536 37.2 56.8436 37.1333 57.0903 37C57.337 36.86 57.527 36.66 57.6603 36.4C57.7936 36.1333 57.8603 35.8133 57.8603 35.44V32.7H58.8203V38H57.9103V36.57L58.0603 36.95C57.887 37.3033 57.627 37.5767 57.2803 37.77C56.9336 37.9633 56.5436 38.06 56.1103 38.06ZM67.3779 32.65C67.8046 32.65 68.1812 32.7333 68.5079 32.9C68.8346 33.0667 69.0879 33.32 69.2679 33.66C69.4546 34 69.5479 34.43 69.5479 34.95V38H68.5879V35.06C68.5879 34.5467 68.4679 34.16 68.2279 33.9C67.9879 33.64 67.6512 33.51 67.2179 33.51C66.8979 33.51 66.6179 33.5767 66.3779 33.71C66.1379 33.8433 65.9512 34.04 65.8179 34.3C65.6912 34.56 65.6279 34.8833 65.6279 35.27V38H64.6679V35.06C64.6679 34.5467 64.5479 34.16 64.3079 33.9C64.0746 33.64 63.7379 33.51 63.2979 33.51C62.9846 33.51 62.7079 33.5767 62.4679 33.71C62.2279 33.8433 62.0412 34.04 61.9079 34.3C61.7746 34.56 61.7079 34.8833 61.7079 35.27V38H60.7479V32.7H61.6679V34.11L61.5179 33.75C61.6846 33.4033 61.9412 33.1333 62.2879 32.94C62.6346 32.7467 63.0379 32.65 63.4979 32.65C64.0046 32.65 64.4412 32.7767 64.8079 33.03C65.1746 33.2767 65.4146 33.6533 65.5279 34.16L65.1379 34C65.2979 33.5933 65.5779 33.2667 65.9779 33.02C66.3779 32.7733 66.8446 32.65 67.3779 32.65ZM74.7043 38V36.88L74.6543 36.67V34.76C74.6543 34.3533 74.5343 34.04 74.2943 33.82C74.061 33.5933 73.7076 33.48 73.2343 33.48C72.921 33.48 72.6143 33.5333 72.3143 33.64C72.0143 33.74 71.761 33.8767 71.5543 34.05L71.1543 33.33C71.4276 33.11 71.7543 32.9433 72.1343 32.83C72.521 32.71 72.9243 32.65 73.3443 32.65C74.071 32.65 74.631 32.8267 75.0243 33.18C75.4176 33.5333 75.6143 34.0733 75.6143 34.8V38H74.7043ZM72.9643 38.06C72.571 38.06 72.2243 37.9933 71.9243 37.86C71.631 37.7267 71.4043 37.5433 71.2443 37.31C71.0843 37.07 71.0043 36.8 71.0043 36.5C71.0043 36.2133 71.071 35.9533 71.2043 35.72C71.3443 35.4867 71.5676 35.3 71.8743 35.16C72.1876 35.02 72.6076 34.95 73.1343 34.95H74.8143V35.64H73.1743C72.6943 35.64 72.371 35.72 72.2043 35.88C72.0376 36.04 71.9543 36.2333 71.9543 36.46C71.9543 36.72 72.0576 36.93 72.2643 37.09C72.471 37.2433 72.7576 37.32 73.1243 37.32C73.4843 37.32 73.7976 37.24 74.0643 37.08C74.3376 36.92 74.5343 36.6867 74.6543 36.38L74.8443 37.04C74.7176 37.3533 74.4943 37.6033 74.1743 37.79C73.8543 37.97 73.451 38.06 72.9643 38.06ZM77.4909 38V30.58H78.4509V38H77.4909ZM83.6738 38V36.88L83.6238 36.67V34.76C83.6238 34.3533 83.5038 34.04 83.2638 33.82C83.0305 33.5933 82.6772 33.48 82.2038 33.48C81.8905 33.48 81.5838 33.5333 81.2838 33.64C80.9838 33.74 80.7305 33.8767 80.5238 34.05L80.1238 33.33C80.3972 33.11 80.7238 32.9433 81.1038 32.83C81.4905 32.71 81.8938 32.65 82.3138 32.65C83.0405 32.65 83.6005 32.8267 83.9938 33.18C84.3872 33.5333 84.5838 34.0733 84.5838 34.8V38H83.6738ZM81.9338 38.06C81.5405 38.06 81.1938 37.9933 80.8938 37.86C80.6005 37.7267 80.3738 37.5433 80.2138 37.31C80.0538 37.07 79.9738 36.8 79.9738 36.5C79.9738 36.2133 80.0405 35.9533 80.1738 35.72C80.3138 35.4867 80.5372 35.3 80.8438 35.16C81.1572 35.02 81.5772 34.95 82.1038 34.95H83.7838V35.64H82.1438C81.6638 35.64 81.3405 35.72 81.1738 35.88C81.0072 36.04 80.9238 36.2333 80.9238 36.46C80.9238 36.72 81.0272 36.93 81.2338 37.09C81.4405 37.2433 81.7272 37.32 82.0938 37.32C82.4538 37.32 82.7672 37.24 83.0338 37.08C83.3072 36.92 83.5038 36.6867 83.6238 36.38L83.8138 37.04C83.6872 37.3533 83.4638 37.6033 83.1438 37.79C82.8238 37.97 82.4205 38.06 81.9338 38.06ZM86.4604 38V32.7H87.4204V38H86.4604ZM86.9404 31.68C86.7537 31.68 86.5971 31.62 86.4704 31.5C86.3504 31.38 86.2904 31.2333 86.2904 31.06C86.2904 30.88 86.3504 30.73 86.4704 30.61C86.5971 30.49 86.7537 30.43 86.9404 30.43C87.1271 30.43 87.2804 30.49 87.4004 30.61C87.5271 30.7233 87.5904 30.8667 87.5904 31.04C87.5904 31.22 87.5304 31.3733 87.4104 31.5C87.2904 31.62 87.1337 31.68 86.9404 31.68ZM92.1834 32.65C92.6167 32.65 92.9967 32.7333 93.3234 32.9C93.6567 33.0667 93.9167 33.32 94.1034 33.66C94.29 34 94.3834 34.43 94.3834 34.95V38H93.4234V35.06C93.4234 34.5467 93.2967 34.16 93.0434 33.9C92.7967 33.64 92.4467 33.51 91.9934 33.51C91.6534 33.51 91.3567 33.5767 91.1034 33.71C90.85 33.8433 90.6534 34.04 90.5134 34.3C90.38 34.56 90.3134 34.8833 90.3134 35.27V38H89.3534V32.7H90.2734V34.13L90.1234 33.75C90.2967 33.4033 90.5634 33.1333 90.9234 32.94C91.2834 32.7467 91.7034 32.65 92.1834 32.65ZM99.55 38V36.88L99.5 36.67V34.76C99.5 34.3533 99.38 34.04 99.14 33.82C98.9067 33.5933 98.5533 33.48 98.08 33.48C97.7667 33.48 97.46 33.5333 97.16 33.64C96.86 33.74 96.6067 33.8767 96.4 34.05L96 33.33C96.2733 33.11 96.6 32.9433 96.98 32.83C97.3667 32.71 97.77 32.65 98.19 32.65C98.9167 32.65 99.4767 32.8267 99.87 33.18C100.263 33.5333 100.46 34.0733 100.46 34.8V38H99.55ZM97.81 38.06C97.4167 38.06 97.07 37.9933 96.77 37.86C96.4767 37.7267 96.25 37.5433 96.09 37.31C95.93 37.07 95.85 36.8 95.85 36.5C95.85 36.2133 95.9167 35.9533 96.05 35.72C96.19 35.4867 96.4133 35.3 96.72 35.16C97.0333 35.02 97.4533 34.95 97.98 34.95H99.66V35.64H98.02C97.54 35.64 97.2167 35.72 97.05 35.88C96.8833 36.04 96.8 36.2333 96.8 36.46C96.8 36.72 96.9033 36.93 97.11 37.09C97.3167 37.2433 97.6033 37.32 97.97 37.32C98.33 37.32 98.6433 37.24 98.91 37.08C99.1833 36.92 99.38 36.6867 99.5 36.38L99.69 37.04C99.5633 37.3533 99.34 37.6033 99.02 37.79C98.7 37.97 98.2967 38.06 97.81 38.06ZM102.337 38V32.7H103.297V38H102.337ZM102.817 31.68C102.63 31.68 102.473 31.62 102.347 31.5C102.227 31.38 102.167 31.2333 102.167 31.06C102.167 30.88 102.227 30.73 102.347 30.61C102.473 30.49 102.63 30.43 102.817 30.43C103.003 30.43 103.157 30.49 103.277 30.61C103.403 30.7233 103.467 30.8667 103.467 31.04C103.467 31.22 103.407 31.3733 103.287 31.5C103.167 31.62 103.01 31.68 102.817 31.68ZM107.54 38.06C107 38.06 106.516 37.9433 106.09 37.71C105.67 37.4767 105.34 37.1567 105.1 36.75C104.86 36.3433 104.74 35.8767 104.74 35.35C104.74 34.8233 104.86 34.3567 105.1 33.95C105.34 33.5433 105.67 33.2267 106.09 33C106.516 32.7667 107 32.65 107.54 32.65C108.02 32.65 108.446 32.7467 108.82 32.94C109.2 33.1267 109.493 33.4067 109.7 33.78L108.97 34.25C108.796 33.99 108.583 33.8 108.33 33.68C108.083 33.5533 107.816 33.49 107.53 33.49C107.183 33.49 106.873 33.5667 106.6 33.72C106.326 33.8733 106.11 34.09 105.95 34.37C105.79 34.6433 105.71 34.97 105.71 35.35C105.71 35.73 105.79 36.06 105.95 36.34C106.11 36.62 106.326 36.8367 106.6 36.99C106.873 37.1433 107.183 37.22 107.53 37.22C107.816 37.22 108.083 37.16 108.33 37.04C108.583 36.9133 108.796 36.72 108.97 36.46L109.7 36.92C109.493 37.2867 109.2 37.57 108.82 37.77C108.446 37.9633 108.02 38.06 107.54 38.06ZM111.754 36.72L111.774 35.49L114.824 32.7H115.984L113.644 35L113.124 35.44L111.754 36.72ZM110.974 38V30.58H111.934V38H110.974ZM115.024 38L112.944 35.42L113.564 34.65L116.204 38H115.024ZM119.381 38.06C118.815 38.06 118.315 37.9433 117.881 37.71C117.455 37.4767 117.121 37.1567 116.881 36.75C116.648 36.3433 116.531 35.8767 116.531 35.35C116.531 34.8233 116.645 34.3567 116.871 33.95C117.105 33.5433 117.421 33.2267 117.821 33C118.228 32.7667 118.685 32.65 119.191 32.65C119.705 32.65 120.158 32.7633 120.551 32.99C120.945 33.2167 121.251 33.5367 121.471 33.95C121.698 34.3567 121.811 34.8333 121.811 35.38C121.811 35.42 121.808 35.4667 121.801 35.52C121.801 35.5733 121.798 35.6233 121.791 35.67H117.281V34.98H121.291L120.901 35.22C120.908 34.88 120.838 34.5767 120.691 34.31C120.545 34.0433 120.341 33.8367 120.081 33.69C119.828 33.5367 119.531 33.46 119.191 33.46C118.858 33.46 118.561 33.5367 118.301 33.69C118.041 33.8367 117.838 34.0467 117.691 34.32C117.545 34.5867 117.471 34.8933 117.471 35.24V35.4C117.471 35.7533 117.551 36.07 117.711 36.35C117.878 36.6233 118.108 36.8367 118.401 36.99C118.695 37.1433 119.031 37.22 119.411 37.22C119.725 37.22 120.008 37.1667 120.261 37.06C120.521 36.9533 120.748 36.7933 120.941 36.58L121.471 37.2C121.231 37.48 120.931 37.6933 120.571 37.84C120.218 37.9867 119.821 38.06 119.381 38.06ZM126.074 32.65C126.508 32.65 126.888 32.7333 127.214 32.9C127.548 33.0667 127.808 33.32 127.994 33.66C128.181 34 128.274 34.43 128.274 34.95V38H127.314V35.06C127.314 34.5467 127.188 34.16 126.934 33.9C126.688 33.64 126.338 33.51 125.884 33.51C125.544 33.51 125.248 33.5767 124.994 33.71C124.741 33.8433 124.544 34.04 124.404 34.3C124.271 34.56 124.204 34.8833 124.204 35.27V38H123.244V32.7H124.164V34.13L124.014 33.75C124.188 33.4033 124.454 33.1333 124.814 32.94C125.174 32.7467 125.594 32.65 126.074 32.65ZM132.961 38.06C132.521 38.06 132.118 37.96 131.751 37.76C131.391 37.5533 131.101 37.25 130.881 36.85C130.668 36.45 130.561 35.95 130.561 35.35C130.561 34.75 130.664 34.25 130.871 33.85C131.084 33.45 131.371 33.15 131.731 32.95C132.098 32.75 132.508 32.65 132.961 32.65C133.481 32.65 133.941 32.7633 134.341 32.99C134.741 33.2167 135.058 33.5333 135.291 33.94C135.524 34.34 135.641 34.81 135.641 35.35C135.641 35.89 135.524 36.3633 135.291 36.77C135.058 37.1767 134.741 37.4933 134.341 37.72C133.941 37.9467 133.481 38.06 132.961 38.06ZM130.151 39.94V32.7H131.071V34.13L131.011 35.36L131.111 36.59V39.94H130.151ZM132.881 37.22C133.221 37.22 133.524 37.1433 133.791 36.99C134.064 36.8367 134.278 36.62 134.431 36.34C134.591 36.0533 134.671 35.7233 134.671 35.35C134.671 34.97 134.591 34.6433 134.431 34.37C134.278 34.09 134.064 33.8733 133.791 33.72C133.524 33.5667 133.221 33.49 132.881 33.49C132.548 33.49 132.244 33.5667 131.971 33.72C131.704 33.8733 131.491 34.09 131.331 34.37C131.178 34.6433 131.101 34.97 131.101 35.35C131.101 35.7233 131.178 36.0533 131.331 36.34C131.491 36.62 131.704 36.8367 131.971 36.99C132.244 37.1433 132.548 37.22 132.881 37.22ZM140.309 38V36.88L140.259 36.67V34.76C140.259 34.3533 140.139 34.04 139.899 33.82C139.665 33.5933 139.312 33.48 138.839 33.48C138.525 33.48 138.219 33.5333 137.919 33.64C137.619 33.74 137.365 33.8767 137.159 34.05L136.759 33.33C137.032 33.11 137.359 32.9433 137.739 32.83C138.125 32.71 138.529 32.65 138.949 32.65C139.675 32.65 140.235 32.8267 140.629 33.18C141.022 33.5333 141.219 34.0733 141.219 34.8V38H140.309ZM138.569 38.06C138.175 38.06 137.829 37.9933 137.529 37.86C137.235 37.7267 137.009 37.5433 136.849 37.31C136.689 37.07 136.609 36.8 136.609 36.5C136.609 36.2133 136.675 35.9533 136.809 35.72C136.949 35.4867 137.172 35.3 137.479 35.16C137.792 35.02 138.212 34.95 138.739 34.95H140.419V35.64H138.779C138.299 35.64 137.975 35.72 137.809 35.88C137.642 36.04 137.559 36.2333 137.559 36.46C137.559 36.72 137.662 36.93 137.869 37.09C138.075 37.2433 138.362 37.32 138.729 37.32C139.089 37.32 139.402 37.24 139.669 37.08C139.942 36.92 140.139 36.6867 140.259 36.38L140.449 37.04C140.322 37.3533 140.099 37.6033 139.779 37.79C139.459 37.97 139.055 38.06 138.569 38.06ZM143.095 38V30.58H144.055V38H143.095ZM149.278 38V36.88L149.228 36.67V34.76C149.228 34.3533 149.108 34.04 148.868 33.82C148.635 33.5933 148.281 33.48 147.808 33.48C147.495 33.48 147.188 33.5333 146.888 33.64C146.588 33.74 146.335 33.8767 146.128 34.05L145.728 33.33C146.001 33.11 146.328 32.9433 146.708 32.83C147.095 32.71 147.498 32.65 147.918 32.65C148.645 32.65 149.205 32.8267 149.598 33.18C149.991 33.5333 150.188 34.0733 150.188 34.8V38H149.278ZM147.538 38.06C147.145 38.06 146.798 37.9933 146.498 37.86C146.205 37.7267 145.978 37.5433 145.818 37.31C145.658 37.07 145.578 36.8 145.578 36.5C145.578 36.2133 145.645 35.9533 145.778 35.72C145.918 35.4867 146.141 35.3 146.448 35.16C146.761 35.02 147.181 34.95 147.708 34.95H149.388V35.64H147.748C147.268 35.64 146.945 35.72 146.778 35.88C146.611 36.04 146.528 36.2333 146.528 36.46C146.528 36.72 146.631 36.93 146.838 37.09C147.045 37.2433 147.331 37.32 147.698 37.32C148.058 37.32 148.371 37.24 148.638 37.08C148.911 36.92 149.108 36.6867 149.228 36.38L149.418 37.04C149.291 37.3533 149.068 37.6033 148.748 37.79C148.428 37.97 148.025 38.06 147.538 38.06ZM152.197 40C151.944 40 151.697 39.9567 151.457 39.87C151.217 39.79 151.01 39.67 150.837 39.51L151.247 38.79C151.38 38.9167 151.527 39.0133 151.687 39.08C151.847 39.1467 152.017 39.18 152.197 39.18C152.43 39.18 152.624 39.12 152.777 39C152.93 38.88 153.074 38.6667 153.207 38.36L153.537 37.63L153.637 37.51L155.717 32.7H156.657L154.087 38.53C153.934 38.9033 153.76 39.1967 153.567 39.41C153.38 39.6233 153.174 39.7733 152.947 39.86C152.72 39.9533 152.47 40 152.197 40ZM153.457 38.17L151.037 32.7H152.037L154.097 37.42L153.457 38.17ZM160.777 38V36.88L160.727 36.67V34.76C160.727 34.3533 160.607 34.04 160.367 33.82C160.134 33.5933 159.78 33.48 159.307 33.48C158.994 33.48 158.687 33.5333 158.387 33.64C158.087 33.74 157.834 33.8767 157.627 34.05L157.227 33.33C157.5 33.11 157.827 32.9433 158.207 32.83C158.594 32.71 158.997 32.65 159.417 32.65C160.144 32.65 160.704 32.8267 161.097 33.18C161.49 33.5333 161.687 34.0733 161.687 34.8V38H160.777ZM159.037 38.06C158.644 38.06 158.297 37.9933 157.997 37.86C157.704 37.7267 157.477 37.5433 157.317 37.31C157.157 37.07 157.077 36.8 157.077 36.5C157.077 36.2133 157.144 35.9533 157.277 35.72C157.417 35.4867 157.64 35.3 157.947 35.16C158.26 35.02 158.68 34.95 159.207 34.95H160.887V35.64H159.247C158.767 35.64 158.444 35.72 158.277 35.88C158.11 36.04 158.027 36.2333 158.027 36.46C158.027 36.72 158.13 36.93 158.337 37.09C158.544 37.2433 158.83 37.32 159.197 37.32C159.557 37.32 159.87 37.24 160.137 37.08C160.41 36.92 160.607 36.6867 160.727 36.38L160.917 37.04C160.79 37.3533 160.567 37.6033 160.247 37.79C159.927 37.97 159.524 38.06 159.037 38.06ZM170.194 32.65C170.62 32.65 170.997 32.7333 171.324 32.9C171.65 33.0667 171.904 33.32 172.084 33.66C172.27 34 172.364 34.43 172.364 34.95V38H171.404V35.06C171.404 34.5467 171.284 34.16 171.044 33.9C170.804 33.64 170.467 33.51 170.034 33.51C169.714 33.51 169.434 33.5767 169.194 33.71C168.954 33.8433 168.767 34.04 168.634 34.3C168.507 34.56 168.444 34.8833 168.444 35.27V38H167.484V35.06C167.484 34.5467 167.364 34.16 167.124 33.9C166.89 33.64 166.554 33.51 166.114 33.51C165.8 33.51 165.524 33.5767 165.284 33.71C165.044 33.8433 164.857 34.04 164.724 34.3C164.59 34.56 164.524 34.8833 164.524 35.27V38H163.564V32.7H164.484V34.11L164.334 33.75C164.5 33.4033 164.757 33.1333 165.104 32.94C165.45 32.7467 165.854 32.65 166.314 32.65C166.82 32.65 167.257 32.7767 167.624 33.03C167.99 33.2767 168.23 33.6533 168.344 34.16L167.954 34C168.114 33.5933 168.394 33.2667 168.794 33.02C169.194 32.7733 169.66 32.65 170.194 32.65ZM175.27 38.08C174.857 38.08 174.47 37.9933 174.11 37.82C173.75 37.6467 173.457 37.3967 173.23 37.07L173.81 36.39C174.003 36.6567 174.22 36.8633 174.46 37.01C174.707 37.15 174.977 37.22 175.27 37.22C176.07 37.22 176.47 36.7467 176.47 35.8V31.87H173.94V31H177.46V35.75C177.46 36.53 177.273 37.1133 176.9 37.5C176.533 37.8867 175.99 38.08 175.27 38.08ZM181.727 38.06C181.194 38.06 180.72 37.9433 180.307 37.71C179.894 37.4767 179.567 37.1567 179.327 36.75C179.087 36.3367 178.967 35.87 178.967 35.35C178.967 34.8233 179.087 34.3567 179.327 33.95C179.567 33.5433 179.894 33.2267 180.307 33C180.72 32.7667 181.194 32.65 181.727 32.65C182.254 32.65 182.724 32.7667 183.137 33C183.557 33.2267 183.884 33.5433 184.117 33.95C184.357 34.35 184.477 34.8167 184.477 35.35C184.477 35.8767 184.357 36.3433 184.117 36.75C183.884 37.1567 183.557 37.4767 183.137 37.71C182.724 37.9433 182.254 38.06 181.727 38.06ZM181.727 37.22C182.067 37.22 182.37 37.1433 182.637 36.99C182.91 36.8367 183.124 36.62 183.277 36.34C183.43 36.0533 183.507 35.7233 183.507 35.35C183.507 34.97 183.43 34.6433 183.277 34.37C183.124 34.09 182.91 33.8733 182.637 33.72C182.37 33.5667 182.067 33.49 181.727 33.49C181.387 33.49 181.084 33.5667 180.817 33.72C180.55 33.8733 180.337 34.09 180.177 34.37C180.017 34.6433 179.937 34.97 179.937 35.35C179.937 35.7233 180.017 36.0533 180.177 36.34C180.337 36.62 180.55 36.8367 180.817 36.99C181.084 37.1433 181.387 37.22 181.727 37.22ZM187.725 38.06C187.191 38.06 186.778 37.9167 186.485 37.63C186.191 37.3433 186.045 36.9333 186.045 36.4V31.54H187.005V36.36C187.005 36.6467 187.075 36.8667 187.215 37.02C187.361 37.1733 187.568 37.25 187.835 37.25C188.135 37.25 188.385 37.1667 188.585 37L188.885 37.69C188.738 37.8167 188.561 37.91 188.355 37.97C188.155 38.03 187.945 38.06 187.725 38.06ZM185.145 33.49V32.7H188.525V33.49H185.145ZM192.975 32.65C193.408 32.65 193.788 32.7333 194.115 32.9C194.448 33.0667 194.708 33.32 194.895 33.66C195.082 34 195.175 34.43 195.175 34.95V38H194.215V35.06C194.215 34.5467 194.088 34.16 193.835 33.9C193.588 33.64 193.238 33.51 192.785 33.51C192.445 33.51 192.148 33.5767 191.895 33.71C191.642 33.8433 191.445 34.04 191.305 34.3C191.172 34.56 191.105 34.8833 191.105 35.27V38H190.145V30.58H191.105V34.13L190.915 33.75C191.088 33.4033 191.355 33.1333 191.715 32.94C192.075 32.7467 192.495 32.65 192.975 32.65ZM197.052 38V32.7H198.012V38H197.052ZM197.532 31.68C197.345 31.68 197.188 31.62 197.062 31.5C196.942 31.38 196.882 31.2333 196.882 31.06C196.882 30.88 196.942 30.73 197.062 30.61C197.188 30.49 197.345 30.43 197.532 30.43C197.718 30.43 197.872 30.49 197.992 30.61C198.118 30.7233 198.182 30.8667 198.182 31.04C198.182 31.22 198.122 31.3733 198.002 31.5C197.882 31.62 197.725 31.68 197.532 31.68ZM202.755 38.06C202.315 38.06 201.911 37.96 201.545 37.76C201.185 37.5533 200.895 37.25 200.675 36.85C200.461 36.45 200.355 35.95 200.355 35.35C200.355 34.75 200.458 34.25 200.665 33.85C200.878 33.45 201.165 33.15 201.525 32.95C201.891 32.75 202.301 32.65 202.755 32.65C203.275 32.65 203.735 32.7633 204.135 32.99C204.535 33.2167 204.851 33.5333 205.085 33.94C205.318 34.34 205.435 34.81 205.435 35.35C205.435 35.89 205.318 36.3633 205.085 36.77C204.851 37.1767 204.535 37.4933 204.135 37.72C203.735 37.9467 203.275 38.06 202.755 38.06ZM199.945 39.94V32.7H200.865V34.13L200.805 35.36L200.905 36.59V39.94H199.945ZM202.675 37.22C203.015 37.22 203.318 37.1433 203.585 36.99C203.858 36.8367 204.071 36.62 204.225 36.34C204.385 36.0533 204.465 35.7233 204.465 35.35C204.465 34.97 204.385 34.6433 204.225 34.37C204.071 34.09 203.858 33.8733 203.585 33.72C203.318 33.5667 203.015 33.49 202.675 33.49C202.341 33.49 202.038 33.5667 201.765 33.72C201.498 33.8733 201.285 34.09 201.125 34.37C200.971 34.6433 200.895 34.97 200.895 35.35C200.895 35.7233 200.971 36.0533 201.125 36.34C201.285 36.62 201.498 36.8367 201.765 36.99C202.038 37.1433 202.341 37.22 202.675 37.22ZM209.091 38.06C208.638 38.06 208.238 37.9767 207.891 37.81C207.551 37.6433 207.285 37.39 207.091 37.05C206.905 36.7033 206.811 36.27 206.811 35.75V32.7H207.771V35.64C207.771 36.16 207.895 36.55 208.141 36.81C208.395 37.07 208.748 37.2 209.201 37.2C209.535 37.2 209.825 37.1333 210.071 37C210.318 36.86 210.508 36.66 210.641 36.4C210.775 36.1333 210.841 35.8133 210.841 35.44V32.7H211.801V38H210.891V36.57L211.041 36.95C210.868 37.3033 210.608 37.5767 210.261 37.77C209.915 37.9633 209.525 38.06 209.091 38.06ZM213.729 38V32.7H214.649V34.14L214.559 33.78C214.705 33.4133 214.952 33.1333 215.299 32.94C215.645 32.7467 216.072 32.65 216.579 32.65V33.58C216.539 33.5733 216.499 33.57 216.459 33.57C216.425 33.57 216.392 33.57 216.359 33.57C215.845 33.57 215.439 33.7233 215.139 34.03C214.839 34.3367 214.689 34.78 214.689 35.36V38H213.729ZM220.761 38V36.88L220.711 36.67V34.76C220.711 34.3533 220.591 34.04 220.351 33.82C220.118 33.5933 219.765 33.48 219.291 33.48C218.978 33.48 218.671 33.5333 218.371 33.64C218.071 33.74 217.818 33.8767 217.611 34.05L217.211 33.33C217.485 33.11 217.811 32.9433 218.191 32.83C218.578 32.71 218.981 32.65 219.401 32.65C220.128 32.65 220.688 32.8267 221.081 33.18C221.475 33.5333 221.671 34.0733 221.671 34.8V38H220.761ZM219.021 38.06C218.628 38.06 218.281 37.9933 217.981 37.86C217.688 37.7267 217.461 37.5433 217.301 37.31C217.141 37.07 217.061 36.8 217.061 36.5C217.061 36.2133 217.128 35.9533 217.261 35.72C217.401 35.4867 217.625 35.3 217.931 35.16C218.245 35.02 218.665 34.95 219.191 34.95H220.871V35.64H219.231C218.751 35.64 218.428 35.72 218.261 35.88C218.095 36.04 218.011 36.2333 218.011 36.46C218.011 36.72 218.115 36.93 218.321 37.09C218.528 37.2433 218.815 37.32 219.181 37.32C219.541 37.32 219.855 37.24 220.121 37.08C220.395 36.92 220.591 36.6867 220.711 36.38L220.901 37.04C220.775 37.3533 220.551 37.6033 220.231 37.79C219.911 37.97 219.508 38.06 219.021 38.06ZM230.178 32.65C230.605 32.65 230.981 32.7333 231.308 32.9C231.635 33.0667 231.888 33.32 232.068 33.66C232.255 34 232.348 34.43 232.348 34.95V38H231.388V35.06C231.388 34.5467 231.268 34.16 231.028 33.9C230.788 33.64 230.451 33.51 230.018 33.51C229.698 33.51 229.418 33.5767 229.178 33.71C228.938 33.8433 228.751 34.04 228.618 34.3C228.491 34.56 228.428 34.8833 228.428 35.27V38H227.468V35.06C227.468 34.5467 227.348 34.16 227.108 33.9C226.875 33.64 226.538 33.51 226.098 33.51C225.785 33.51 225.508 33.5767 225.268 33.71C225.028 33.8433 224.841 34.04 224.708 34.3C224.575 34.56 224.508 34.8833 224.508 35.27V38H223.548V32.7H224.468V34.11L224.318 33.75C224.485 33.4033 224.741 33.1333 225.088 32.94C225.435 32.7467 225.838 32.65 226.298 32.65C226.805 32.65 227.241 32.7767 227.608 33.03C227.975 33.2767 228.215 33.6533 228.328 34.16L227.938 34C228.098 33.5933 228.378 33.2667 228.778 33.02C229.178 32.7733 229.645 32.65 230.178 32.65ZM35.14 52.94C34.76 52.3333 34.4667 51.6333 34.26 50.84C34.0533 50.04 33.95 49.18 33.95 48.26C33.95 47.34 34.0533 46.48 34.26 45.68C34.4667 44.8733 34.76 44.1733 35.14 43.58H36.05C35.65 44.2867 35.3567 45.0267 35.17 45.8C34.9833 46.5667 34.89 47.3867 34.89 48.26C34.89 49.1333 34.9833 49.9567 35.17 50.73C35.3567 51.4967 35.65 52.2333 36.05 52.94H35.14ZM37.5191 51V44H40.2491C40.8625 44 41.3858 44.0967 41.8191 44.29C42.2525 44.4833 42.5858 44.7633 42.8191 45.13C43.0525 45.4967 43.1691 45.9333 43.1691 46.44C43.1691 46.9467 43.0525 47.3833 42.8191 47.75C42.5858 48.11 42.2525 48.39 41.8191 48.59C41.3858 48.7833 40.8625 48.88 40.2491 48.88H38.0691L38.5191 48.41V51H37.5191ZM38.5191 48.51L38.0691 48.01H40.2191C40.8591 48.01 41.3425 47.8733 41.6691 47.6C42.0025 47.3267 42.1691 46.94 42.1691 46.44C42.1691 45.94 42.0025 45.5533 41.6691 45.28C41.3425 45.0067 40.8591 44.87 40.2191 44.87H38.0691L38.5191 44.37V48.51ZM46.8487 51.06C46.3154 51.06 45.8421 50.9433 45.4287 50.71C45.0154 50.4767 44.6887 50.1567 44.4487 49.75C44.2087 49.3367 44.0887 48.87 44.0887 48.35C44.0887 47.8233 44.2087 47.3567 44.4487 46.95C44.6887 46.5433 45.0154 46.2267 45.4287 46C45.8421 45.7667 46.3154 45.65 46.8487 45.65C47.3754 45.65 47.8454 45.7667 48.2588 46C48.6787 46.2267 49.0054 46.5433 49.2388 46.95C49.4788 47.35 49.5988 47.8167 49.5988 48.35C49.5988 48.8767 49.4788 49.3433 49.2388 49.75C49.0054 50.1567 48.6787 50.4767 48.2588 50.71C47.8454 50.9433 47.3754 51.06 46.8487 51.06ZM46.8487 50.22C47.1887 50.22 47.4921 50.1433 47.7587 49.99C48.0321 49.8367 48.2454 49.62 48.3988 49.34C48.5521 49.0533 48.6288 48.7233 48.6288 48.35C48.6288 47.97 48.5521 47.6433 48.3988 47.37C48.2454 47.09 48.0321 46.8733 47.7587 46.72C47.4921 46.5667 47.1887 46.49 46.8487 46.49C46.5088 46.49 46.2054 46.5667 45.9387 46.72C45.6721 46.8733 45.4587 47.09 45.2987 47.37C45.1387 47.6433 45.0587 47.97 45.0587 48.35C45.0587 48.7233 45.1387 49.0533 45.2987 49.34C45.4587 49.62 45.6721 49.8367 45.9387 49.99C46.2054 50.1433 46.5088 50.22 46.8487 50.22ZM51.3464 52.94H50.4364C50.8431 52.2333 51.1397 51.4967 51.3264 50.73C51.5131 49.9567 51.6064 49.1333 51.6064 48.26C51.6064 47.3867 51.5131 46.5667 51.3264 45.8C51.1397 45.0267 50.8431 44.2867 50.4364 43.58H51.3464C51.7397 44.1733 52.0364 44.8733 52.2364 45.68C52.4431 46.48 52.5464 47.34 52.5464 48.26C52.5464 49.18 52.4431 50.04 52.2364 50.84C52.0364 51.6333 51.7397 52.3333 51.3464 52.94ZM54.1253 52.48L54.6253 50.46L54.7553 51.04C54.562 51.04 54.3986 50.98 54.2653 50.86C54.1386 50.74 54.0753 50.5767 54.0753 50.37C54.0753 50.17 54.1386 50.0067 54.2653 49.88C54.3986 49.7533 54.5586 49.69 54.7453 49.69C54.9386 49.69 55.0953 49.7567 55.2153 49.89C55.3353 50.0167 55.3953 50.1767 55.3953 50.37C55.3953 50.4367 55.3886 50.5033 55.3753 50.57C55.3686 50.63 55.352 50.7033 55.3253 50.79C55.3053 50.87 55.272 50.97 55.2253 51.09L54.7553 52.48H54.1253ZM62.9265 51.08C62.3932 51.08 61.8998 50.9933 61.4465 50.82C60.9998 50.64 60.6098 50.39 60.2765 50.07C59.9498 49.7433 59.6932 49.3633 59.5065 48.93C59.3198 48.4967 59.2265 48.02 59.2265 47.5C59.2265 46.98 59.3198 46.5033 59.5065 46.07C59.6932 45.6367 59.9532 45.26 60.2865 44.94C60.6198 44.6133 61.0098 44.3633 61.4565 44.19C61.9098 44.01 62.4032 43.92 62.9365 43.92C63.4765 43.92 63.9732 44.0133 64.4265 44.2C64.8865 44.38 65.2765 44.65 65.5965 45.01L64.9465 45.64C64.6798 45.36 64.3798 45.1533 64.0465 45.02C63.7132 44.88 63.3565 44.81 62.9765 44.81C62.5832 44.81 62.2165 44.8767 61.8765 45.01C61.5432 45.1433 61.2532 45.33 61.0065 45.57C60.7598 45.81 60.5665 46.0967 60.4265 46.43C60.2932 46.7567 60.2265 47.1133 60.2265 47.5C60.2265 47.8867 60.2932 48.2467 60.4265 48.58C60.5665 48.9067 60.7598 49.19 61.0065 49.43C61.2532 49.67 61.5432 49.8567 61.8765 49.99C62.2165 50.1233 62.5832 50.19 62.9765 50.19C63.3565 50.19 63.7132 50.1233 64.0465 49.99C64.3798 49.85 64.6798 49.6367 64.9465 49.35L65.5965 49.98C65.2765 50.34 64.8865 50.6133 64.4265 50.8C63.9732 50.9867 63.4732 51.08 62.9265 51.08ZM69.0284 51.06C68.4951 51.06 68.0218 50.9433 67.6084 50.71C67.1951 50.4767 66.8684 50.1567 66.6284 49.75C66.3884 49.3367 66.2684 48.87 66.2684 48.35C66.2684 47.8233 66.3884 47.3567 66.6284 46.95C66.8684 46.5433 67.1951 46.2267 67.6084 46C68.0218 45.7667 68.4951 45.65 69.0284 45.65C69.5551 45.65 70.0251 45.7667 70.4384 46C70.8584 46.2267 71.1851 46.5433 71.4184 46.95C71.6584 47.35 71.7784 47.8167 71.7784 48.35C71.7784 48.8767 71.6584 49.3433 71.4184 49.75C71.1851 50.1567 70.8584 50.4767 70.4384 50.71C70.0251 50.9433 69.5551 51.06 69.0284 51.06ZM69.0284 50.22C69.3684 50.22 69.6718 50.1433 69.9384 49.99C70.2118 49.8367 70.4251 49.62 70.5784 49.34C70.7318 49.0533 70.8084 48.7233 70.8084 48.35C70.8084 47.97 70.7318 47.6433 70.5784 47.37C70.4251 47.09 70.2118 46.8733 69.9384 46.72C69.6718 46.5667 69.3684 46.49 69.0284 46.49C68.6884 46.49 68.3851 46.5667 68.1184 46.72C67.8518 46.8733 67.6384 47.09 67.4784 47.37C67.3184 47.6433 67.2384 47.97 67.2384 48.35C67.2384 48.7233 67.3184 49.0533 67.4784 49.34C67.6384 49.62 67.8518 49.8367 68.1184 49.99C68.3851 50.1433 68.6884 50.22 69.0284 50.22ZM73.2061 51V45.7H74.1661V51H73.2061ZM73.6861 44.68C73.4994 44.68 73.3428 44.62 73.2161 44.5C73.0961 44.38 73.0361 44.2333 73.0361 44.06C73.0361 43.88 73.0961 43.73 73.2161 43.61C73.3428 43.49 73.4994 43.43 73.6861 43.43C73.8728 43.43 74.0261 43.49 74.1461 43.61C74.2728 43.7233 74.3361 43.8667 74.3361 44.04C74.3361 44.22 74.2761 44.3733 74.1561 44.5C74.0361 44.62 73.8794 44.68 73.6861 44.68ZM82.7291 45.65C83.1557 45.65 83.5324 45.7333 83.8591 45.9C84.1857 46.0667 84.4391 46.32 84.6191 46.66C84.8057 47 84.8991 47.43 84.8991 47.95V51H83.9391V48.06C83.9391 47.5467 83.8191 47.16 83.5791 46.9C83.3391 46.64 83.0024 46.51 82.5691 46.51C82.2491 46.51 81.9691 46.5767 81.7291 46.71C81.4891 46.8433 81.3024 47.04 81.1691 47.3C81.0424 47.56 80.9791 47.8833 80.9791 48.27V51H80.0191V48.06C80.0191 47.5467 79.8991 47.16 79.6591 46.9C79.4257 46.64 79.0891 46.51 78.6491 46.51C78.3357 46.51 78.0591 46.5767 77.8191 46.71C77.5791 46.8433 77.3924 47.04 77.2591 47.3C77.1257 47.56 77.0591 47.8833 77.0591 48.27V51H76.0991V45.7H77.0191V47.11L76.8691 46.75C77.0357 46.4033 77.2924 46.1333 77.6391 45.94C77.9857 45.7467 78.3891 45.65 78.8491 45.65C79.3557 45.65 79.7924 45.7767 80.1591 46.03C80.5257 46.2767 80.7657 46.6533 80.8791 47.16L80.4891 47C80.6491 46.5933 80.9291 46.2667 81.3291 46.02C81.7291 45.7733 82.1957 45.65 82.7291 45.65ZM89.5755 51.06C89.1221 51.06 88.7121 50.96 88.3455 50.76C87.9855 50.5533 87.6988 50.25 87.4855 49.85C87.2788 49.45 87.1755 48.95 87.1755 48.35C87.1755 47.75 87.2821 47.25 87.4955 46.85C87.7155 46.45 88.0055 46.15 88.3655 45.95C88.7321 45.75 89.1355 45.65 89.5755 45.65C90.0955 45.65 90.5555 45.7633 90.9555 45.99C91.3555 46.2167 91.6721 46.5333 91.9055 46.94C92.1388 47.34 92.2555 47.81 92.2555 48.35C92.2555 48.89 92.1388 49.3633 91.9055 49.77C91.6721 50.1767 91.3555 50.4933 90.9555 50.72C90.5555 50.9467 90.0955 51.06 89.5755 51.06ZM86.7655 51V43.58H87.7255V47.11L87.6255 48.34L87.6855 49.57V51H86.7655ZM89.4955 50.22C89.8355 50.22 90.1388 50.1433 90.4055 49.99C90.6788 49.8367 90.8921 49.62 91.0455 49.34C91.2055 49.0533 91.2855 48.7233 91.2855 48.35C91.2855 47.97 91.2055 47.6433 91.0455 47.37C90.8921 47.09 90.6788 46.8733 90.4055 46.72C90.1388 46.5667 89.8355 46.49 89.4955 46.49C89.1621 46.49 88.8588 46.5667 88.5855 46.72C88.3188 46.8733 88.1055 47.09 87.9455 47.37C87.7921 47.6433 87.7155 47.97 87.7155 48.35C87.7155 48.7233 87.7921 49.0533 87.9455 49.34C88.1055 49.62 88.3188 49.8367 88.5855 49.99C88.8588 50.1433 89.1621 50.22 89.4955 50.22ZM96.923 51V49.88L96.873 49.67V47.76C96.873 47.3533 96.753 47.04 96.513 46.82C96.2797 46.5933 95.9264 46.48 95.453 46.48C95.1397 46.48 94.833 46.5333 94.533 46.64C94.233 46.74 93.9797 46.8767 93.773 47.05L93.373 46.33C93.6464 46.11 93.973 45.9433 94.353 45.83C94.7397 45.71 95.143 45.65 95.563 45.65C96.2897 45.65 96.8497 45.8267 97.243 46.18C97.6364 46.5333 97.833 47.0733 97.833 47.8V51H96.923ZM95.183 51.06C94.7897 51.06 94.443 50.9933 94.143 50.86C93.8497 50.7267 93.623 50.5433 93.463 50.31C93.303 50.07 93.223 49.8 93.223 49.5C93.223 49.2133 93.2897 48.9533 93.423 48.72C93.563 48.4867 93.7864 48.3 94.093 48.16C94.4064 48.02 94.8264 47.95 95.353 47.95H97.033V48.64H95.393C94.913 48.64 94.5897 48.72 94.423 48.88C94.2564 49.04 94.173 49.2333 94.173 49.46C94.173 49.72 94.2764 49.93 94.483 50.09C94.6897 50.2433 94.9764 50.32 95.343 50.32C95.703 50.32 96.0164 50.24 96.283 50.08C96.5564 49.92 96.753 49.6867 96.873 49.38L97.063 50.04C96.9364 50.3533 96.713 50.6033 96.393 50.79C96.073 50.97 95.6697 51.06 95.183 51.06ZM101.53 51.06C100.996 51.06 100.583 50.9167 100.29 50.63C99.9963 50.3433 99.8496 49.9333 99.8496 49.4V44.54H100.81V49.36C100.81 49.6467 100.88 49.8667 101.02 50.02C101.166 50.1733 101.373 50.25 101.64 50.25C101.94 50.25 102.19 50.1667 102.39 50L102.69 50.69C102.543 50.8167 102.366 50.91 102.16 50.97C101.96 51.03 101.75 51.06 101.53 51.06ZM98.9496 46.49V45.7H102.33V46.49H98.9496ZM106.044 51.06C105.511 51.06 105.038 50.9433 104.624 50.71C104.211 50.4767 103.884 50.1567 103.644 49.75C103.404 49.3367 103.284 48.87 103.284 48.35C103.284 47.8233 103.404 47.3567 103.644 46.95C103.884 46.5433 104.211 46.2267 104.624 46C105.038 45.7667 105.511 45.65 106.044 45.65C106.571 45.65 107.041 45.7667 107.454 46C107.874 46.2267 108.201 46.5433 108.434 46.95C108.674 47.35 108.794 47.8167 108.794 48.35C108.794 48.8767 108.674 49.3433 108.434 49.75C108.201 50.1567 107.874 50.4767 107.454 50.71C107.041 50.9433 106.571 51.06 106.044 51.06ZM106.044 50.22C106.384 50.22 106.688 50.1433 106.954 49.99C107.228 49.8367 107.441 49.62 107.594 49.34C107.748 49.0533 107.824 48.7233 107.824 48.35C107.824 47.97 107.748 47.6433 107.594 47.37C107.441 47.09 107.228 46.8733 106.954 46.72C106.688 46.5667 106.384 46.49 106.044 46.49C105.704 46.49 105.401 46.5667 105.134 46.72C104.868 46.8733 104.654 47.09 104.494 47.37C104.334 47.6433 104.254 47.97 104.254 48.35C104.254 48.7233 104.334 49.0533 104.494 49.34C104.654 49.62 104.868 49.8367 105.134 49.99C105.401 50.1433 105.704 50.22 106.044 50.22ZM110.222 51V45.7H111.142V47.14L111.052 46.78C111.199 46.4133 111.445 46.1333 111.792 45.94C112.139 45.7467 112.565 45.65 113.072 45.65V46.58C113.032 46.5733 112.992 46.57 112.952 46.57C112.919 46.57 112.885 46.57 112.852 46.57C112.339 46.57 111.932 46.7233 111.632 47.03C111.332 47.3367 111.182 47.78 111.182 48.36V51H110.222ZM116.666 51.06C116.1 51.06 115.6 50.9433 115.166 50.71C114.74 50.4767 114.406 50.1567 114.166 49.75C113.933 49.3433 113.816 48.8767 113.816 48.35C113.816 47.8233 113.93 47.3567 114.156 46.95C114.39 46.5433 114.706 46.2267 115.106 46C115.513 45.7667 115.97 45.65 116.476 45.65C116.99 45.65 117.443 45.7633 117.836 45.99C118.23 46.2167 118.536 46.5367 118.756 46.95C118.983 47.3567 119.096 47.8333 119.096 48.38C119.096 48.42 119.093 48.4667 119.086 48.52C119.086 48.5733 119.083 48.6233 119.076 48.67H114.566V47.98H118.576L118.186 48.22C118.193 47.88 118.123 47.5767 117.976 47.31C117.83 47.0433 117.626 46.8367 117.366 46.69C117.113 46.5367 116.816 46.46 116.476 46.46C116.143 46.46 115.846 46.5367 115.586 46.69C115.326 46.8367 115.123 47.0467 114.976 47.32C114.83 47.5867 114.756 47.8933 114.756 48.24V48.4C114.756 48.7533 114.836 49.07 114.996 49.35C115.163 49.6233 115.393 49.8367 115.686 49.99C115.98 50.1433 116.316 50.22 116.696 50.22C117.01 50.22 117.293 50.1667 117.546 50.06C117.806 49.9533 118.033 49.7933 118.226 49.58L118.756 50.2C118.516 50.48 118.216 50.6933 117.856 50.84C117.503 50.9867 117.106 51.06 116.666 51.06ZM122.405 48.59V47.92H127.405V48.59H122.405ZM133.711 51.08C133.091 51.08 132.561 50.9433 132.121 50.67C131.681 50.3967 131.344 50.0033 131.111 49.49C130.884 48.97 130.771 48.3367 130.771 47.59C130.771 46.7967 130.911 46.1267 131.191 45.58C131.471 45.0333 131.861 44.62 132.361 44.34C132.861 44.06 133.434 43.92 134.081 43.92C134.414 43.92 134.731 43.9533 135.031 44.02C135.337 44.0867 135.601 44.19 135.821 44.33L135.441 45.11C135.261 44.9833 135.054 44.8967 134.821 44.85C134.594 44.8033 134.354 44.78 134.101 44.78C133.387 44.78 132.821 45.0033 132.401 45.45C131.981 45.89 131.771 46.5467 131.771 47.42C131.771 47.56 131.777 47.7267 131.791 47.92C131.804 48.1133 131.837 48.3033 131.891 48.49L131.551 48.15C131.651 47.8433 131.807 47.5867 132.021 47.38C132.241 47.1667 132.501 47.01 132.801 46.91C133.107 46.8033 133.437 46.75 133.791 46.75C134.257 46.75 134.671 46.8367 135.031 47.01C135.391 47.1833 135.674 47.43 135.881 47.75C136.087 48.0633 136.191 48.4367 136.191 48.87C136.191 49.3167 136.081 49.7067 135.861 50.04C135.641 50.3733 135.344 50.63 134.971 50.81C134.597 50.99 134.177 51.08 133.711 51.08ZM133.671 50.27C133.977 50.27 134.244 50.2133 134.471 50.1C134.704 49.9867 134.887 49.83 135.021 49.63C135.154 49.4233 135.221 49.1833 135.221 48.91C135.221 48.4967 135.077 48.17 134.791 47.93C134.504 47.6833 134.114 47.56 133.621 47.56C133.301 47.56 133.021 47.62 132.781 47.74C132.541 47.86 132.351 48.0233 132.211 48.23C132.077 48.43 132.011 48.66 132.011 48.92C132.011 49.16 132.074 49.3833 132.201 49.59C132.327 49.79 132.514 49.9533 132.761 50.08C133.007 50.2067 133.311 50.27 133.671 50.27ZM136.943 49.28V48.58L140.523 44H141.603L138.053 48.58L137.543 48.42H143.133V49.28H136.943ZM140.833 51V49.28L140.863 48.42V46.9H141.803V51H140.833ZM144.758 51V44.4L145.188 44.87H143.178V44H145.748V51H144.758ZM150.239 51.08C149.693 51.08 149.203 50.94 148.769 50.66C148.343 50.38 148.003 49.9733 147.749 49.44C147.503 48.9067 147.379 48.26 147.379 47.5C147.379 46.74 147.503 46.0933 147.749 45.56C148.003 45.0267 148.343 44.62 148.769 44.34C149.203 44.06 149.693 43.92 150.239 43.92C150.779 43.92 151.266 44.06 151.699 44.34C152.133 44.62 152.473 45.0267 152.719 45.56C152.966 46.0933 153.089 46.74 153.089 47.5C153.089 48.26 152.966 48.9067 152.719 49.44C152.473 49.9733 152.133 50.38 151.699 50.66C151.266 50.94 150.779 51.08 150.239 51.08ZM150.239 50.19C150.606 50.19 150.926 50.09 151.199 49.89C151.479 49.69 151.696 49.39 151.849 48.99C152.009 48.59 152.089 48.0933 152.089 47.5C152.089 46.9067 152.009 46.41 151.849 46.01C151.696 45.61 151.479 45.31 151.199 45.11C150.926 44.91 150.606 44.81 150.239 44.81C149.873 44.81 149.549 44.91 149.269 45.11C148.989 45.31 148.769 45.61 148.609 46.01C148.456 46.41 148.379 46.9067 148.379 47.5C148.379 48.0933 148.456 48.59 148.609 48.99C148.769 49.39 148.989 49.69 149.269 49.89C149.549 50.09 149.873 50.19 150.239 50.19ZM154.049 49.28V48.58L157.629 44H158.709L155.159 48.58L154.649 48.42H160.239V49.28H154.049ZM157.939 51V49.28L157.969 48.42V46.9H158.909V51H157.939ZM161.68 51L164.65 44.42L164.91 44.87H160.75L161.25 44.38V46.12H160.29V44H165.57V44.68L162.74 51H161.68Z" fill="white"/>
</g>
<defs>
<filter id="filter0_d_220_220" x="6" y="5" width="235" height="65" filterUnits="userSpaceOnUse" color-interpolation-filters="sRGB">
<feFlood flood-opacity="0" result="BackgroundImageFix"/>
<feColorMatrix in="SourceAlpha" type="matrix" values="0 0 0 0 0 0 0 0 0 0 0 0 0 0 0 0 0 0 127 0" result="hardAlpha"/>
<feOffset dy="3"/>
<feGaussianBlur stdDeviation="2"/>
<feComposite in2="hardAlpha" operator="out"/>
<feColorMatrix type="matrix" values="0 0 0 0 0 0 0 0 0 0 0 0 0 0 0 0 0 0 0.25 0"/>
<feBlend mode="normal" in2="BackgroundImageFix" result="effect1_dropShadow_220_220"/>
<feBlend mode="normal" in="SourceGraphic" in2="effect1_dropShadow_220_220" result="shape"/>
</filter>
<filter id="filter1_d_220_220" x="0" y="0" width="247" height="77" filterUnits="userSpaceOnUse" color-interpolation-filters="sRGB">
<feFlood flood-opacity="0" result="BackgroundImageFix"/>
<feColorMatrix in="SourceAlpha" type="matrix" values="0 0 0 0 0 0 0 0 0 0 0 0 0 0 0 0 0 0 127 0" result="hardAlpha"/>
<feOffset dy="4"/>
<feGaussianBlur stdDeviation="5"/>
<feComposite in2="hardAlpha" operator="out"/>
<feColorMatrix type="matrix" values="0 0 0 0 0.360784 0 0 0 0 0.0980392 0 0 0 0 0.0901961 0 0 0 0.7 0"/>
<feBlend mode="normal" in2="BackgroundImageFix" result="effect1_dropShadow_220_220"/>
<feBlend mode="normal" in="SourceGraphic" in2="effect1_dropShadow_220_220" result="shape"/>
</filter>
</defs>
</svg>
