<svg width="219" height="24" viewBox="0 0 219 24" fill="none" xmlns="http://www.w3.org/2000/svg">
<path d="M11.736 23.448C9.45333 23.448 7.45867 23.032 5.752 22.2C4.06667 21.368 2.76533 20.216 1.848 18.744C0.930667 17.2507 0.472 15.5333 0.472 13.592C0.472 11.6507 0.813333 9.85867 1.496 8.216C2.17867 6.57333 3.13867 5.15467 4.376 3.96C5.61333 2.744 7.08533 1.80533 8.792 1.144C10.52 0.482665 12.4293 0.151999 14.52 0.151999C16.5893 0.151999 18.424 0.514666 20.024 1.24C21.624 1.96533 22.8187 3.01067 23.608 4.376L19.032 8.024C18.52 7.17067 17.848 6.52 17.016 6.072C16.2053 5.624 15.2347 5.4 14.104 5.4C13.016 5.4 12.024 5.592 11.128 5.976C10.2533 6.36 9.496 6.904 8.856 7.608C8.216 8.312 7.72533 9.144 7.384 10.104C7.04267 11.0427 6.872 12.0667 6.872 13.176C6.872 14.1787 7.08533 15.064 7.512 15.832C7.96 16.5787 8.58933 17.1653 9.4 17.592C10.232 17.9973 11.2133 18.2 12.344 18.2C13.3467 18.2 14.3067 17.9973 15.224 17.592C16.1627 17.1867 17.0267 16.5253 17.816 15.608L21.56 19.288C20.3013 20.8027 18.8507 21.88 17.208 22.52C15.5653 23.1387 13.7413 23.448 11.736 23.448ZM34.7643 23.448C32.4603 23.448 30.4763 23.032 28.8123 22.2C27.1483 21.3467 25.8683 20.184 24.9723 18.712C24.0763 17.24 23.6283 15.5333 23.6283 13.592C23.6283 11.6293 23.9696 9.83733 24.6523 8.216C25.3349 6.57333 26.2949 5.15467 27.5323 3.96C28.7696 2.744 30.2416 1.80533 31.9483 1.144C33.6763 0.482665 35.5643 0.151999 37.6123 0.151999C39.9163 0.151999 41.9003 0.578665 43.5643 1.432C45.2283 2.264 46.5083 3.416 47.4043 4.888C48.3003 6.36 48.7483 8.06667 48.7483 10.008C48.7483 11.9707 48.4069 13.7733 47.7243 15.416C47.0416 17.0373 46.0816 18.456 44.8443 19.672C43.6069 20.8667 42.1243 21.7947 40.3963 22.456C38.6896 23.1173 36.8123 23.448 34.7643 23.448ZM35.3083 18.2C36.4176 18.2 37.3989 17.9973 38.2523 17.592C39.1269 17.1867 39.8629 16.6213 40.4603 15.896C41.0789 15.1493 41.5483 14.3067 41.8683 13.368C42.1883 12.4293 42.3483 11.4373 42.3483 10.392C42.3483 9.38933 42.1349 8.51467 41.7083 7.768C41.3029 7.02133 40.7056 6.44533 39.9163 6.04C39.1483 5.61333 38.1989 5.4 37.0683 5.4C35.9803 5.4 34.9989 5.60267 34.1243 6.008C33.2496 6.41333 32.5029 6.98933 31.8843 7.736C31.2869 8.46133 30.8283 9.29333 30.5083 10.232C30.1883 11.1707 30.0283 12.1627 30.0283 13.208C30.0283 14.1893 30.2309 15.064 30.6363 15.832C31.0629 16.5787 31.6603 17.1653 32.4283 17.592C33.2176 17.9973 34.1776 18.2 35.3083 18.2ZM49.7308 23L54.2108 0.599998H59.4268L68.4828 15.576L66.3068 15.512L69.2828 0.599998H75.4908L71.0108 23H65.7948L56.7708 8.024L58.9148 8.088L55.9388 23H49.7308ZM80.248 23L83.736 5.624H76.856L77.88 0.599998H97.944L96.92 5.624H90.072L86.584 23H80.248ZM92.0115 23L106.38 0.599998H112.62L118.028 23H111.724L107.724 3.608H110.22L98.6995 23H92.0115ZM98.2835 18.648L100.844 13.976H111.788L112.492 18.648H98.2835ZM131.767 23.448C129.485 23.448 127.49 23.032 125.783 22.2C124.098 21.368 122.797 20.216 121.879 18.744C120.962 17.2507 120.503 15.5333 120.503 13.592C120.503 11.6507 120.845 9.85867 121.527 8.216C122.21 6.57333 123.17 5.15467 124.407 3.96C125.645 2.744 127.117 1.80533 128.823 1.144C130.551 0.482665 132.461 0.151999 134.551 0.151999C136.621 0.151999 138.455 0.514666 140.055 1.24C141.655 1.96533 142.85 3.01067 143.639 4.376L139.063 8.024C138.551 7.17067 137.879 6.52 137.047 6.072C136.237 5.624 135.266 5.4 134.135 5.4C133.047 5.4 132.055 5.592 131.159 5.976C130.285 6.36 129.527 6.904 128.887 7.608C128.247 8.312 127.757 9.144 127.415 10.104C127.074 11.0427 126.903 12.0667 126.903 13.176C126.903 14.1787 127.117 15.064 127.543 15.832C127.991 16.5787 128.621 17.1653 129.431 17.592C130.263 17.9973 131.245 18.2 132.375 18.2C133.378 18.2 134.338 17.9973 135.255 17.592C136.194 17.1867 137.058 16.5253 137.847 15.608L141.591 19.288C140.333 20.8027 138.882 21.88 137.239 22.52C135.597 23.1387 133.773 23.448 131.767 23.448ZM147.717 23L151.205 5.624H144.325L145.349 0.599998H165.413L164.389 5.624H157.541L154.053 23H147.717ZM183.518 23.448C181.278 23.448 179.4 23.0213 177.886 22.168C176.392 21.2933 175.336 20.0773 174.718 18.52C174.099 16.9413 173.992 15.1067 174.398 13.016L176.894 0.599998H183.23L180.766 12.92C180.595 13.816 180.542 14.5947 180.606 15.256C180.67 15.9173 180.851 16.472 181.15 16.92C181.47 17.368 181.886 17.6987 182.398 17.912C182.931 18.104 183.56 18.2 184.286 18.2C185.16 18.2 185.918 18.0293 186.558 17.688C187.219 17.3253 187.763 16.76 188.19 15.992C188.638 15.2027 188.979 14.1787 189.214 12.92L191.678 0.599998H197.918L195.39 13.304C194.728 16.632 193.406 19.16 191.422 20.888C189.438 22.5947 186.803 23.448 183.518 23.448ZM206.114 23.448C204.834 23.448 203.607 23.3413 202.434 23.128C201.261 22.936 200.194 22.6587 199.234 22.296C198.274 21.912 197.453 21.496 196.77 21.048L199.266 16.312C200.034 16.7813 200.823 17.1867 201.634 17.528C202.466 17.848 203.309 18.0933 204.162 18.264C205.015 18.4347 205.869 18.52 206.722 18.52C207.533 18.52 208.226 18.4453 208.802 18.296C209.378 18.1253 209.815 17.8907 210.114 17.592C210.413 17.2933 210.562 16.9413 210.562 16.536C210.562 16.088 210.359 15.736 209.954 15.48C209.57 15.2027 209.058 14.968 208.418 14.776C207.778 14.584 207.063 14.392 206.274 14.2C205.506 13.9867 204.727 13.7413 203.938 13.464C203.17 13.1653 202.466 12.8027 201.826 12.376C201.186 11.928 200.663 11.3627 200.258 10.68C199.874 9.99733 199.682 9.15467 199.682 8.152C199.682 6.53067 200.119 5.12267 200.994 3.928C201.869 2.73333 203.106 1.80533 204.706 1.144C206.327 0.482665 208.237 0.151999 210.434 0.151999C212.034 0.151999 213.527 0.322666 214.914 0.664C216.301 0.983999 217.495 1.45333 218.498 2.072L216.194 6.776C215.319 6.22133 214.349 5.80533 213.282 5.528C212.237 5.22933 211.159 5.08 210.05 5.08C209.197 5.08 208.461 5.176 207.842 5.368C207.245 5.56 206.786 5.82667 206.466 6.168C206.167 6.488 206.018 6.85067 206.018 7.256C206.018 7.68267 206.21 8.03467 206.594 8.312C206.978 8.58933 207.49 8.824 208.13 9.016C208.791 9.208 209.506 9.41067 210.274 9.624C211.063 9.816 211.842 10.0507 212.61 10.328C213.378 10.584 214.093 10.936 214.754 11.384C215.415 11.8107 215.938 12.3547 216.322 13.016C216.706 13.6773 216.898 14.4987 216.898 15.48C216.898 17.08 216.461 18.4773 215.586 19.672C214.711 20.8667 213.463 21.7947 211.842 22.456C210.221 23.1173 208.311 23.448 206.114 23.448Z" fill="white"/>
</svg>
