<svg width="237" height="48" viewBox="0 0 237 48" fill="none" xmlns="http://www.w3.org/2000/svg">
<g filter="url(#filter0_d_272_690)">
<rect x="4.5" y="1.5" width="228" height="39" stroke="#DF3228" shape-rendering="crispEdges"/>
</g>
<path d="M11.6673 26.3337C11.3007 26.3337 10.9869 26.2032 10.726 25.9423C10.4651 25.6814 10.3344 25.3674 10.334 25.0003V17.0003C10.334 16.6337 10.4647 16.3199 10.726 16.059C10.9873 15.7981 11.3011 15.6674 11.6673 15.667H22.334C22.7007 15.667 23.0147 15.7977 23.276 16.059C23.5373 16.3203 23.6678 16.6341 23.6673 17.0003V25.0003C23.6673 25.367 23.5369 25.681 23.276 25.9423C23.0151 26.2037 22.7011 26.3341 22.334 26.3337H11.6673ZM17.0007 21.667L22.334 18.3337V17.0003L17.0007 20.3337L11.6673 17.0003V18.3337L17.0007 21.667Z" fill="white"/>
<path d="M34.05 24.5V17.5H35.05V24.5H34.05ZM39.8357 19.15C40.269 19.15 40.649 19.2333 40.9757 19.4C41.309 19.5667 41.569 19.82 41.7557 20.16C41.9424 20.5 42.0357 20.93 42.0357 21.45V24.5H41.0757V21.56C41.0757 21.0467 40.949 20.66 40.6957 20.4C40.449 20.14 40.099 20.01 39.6457 20.01C39.3057 20.01 39.009 20.0767 38.7557 20.21C38.5024 20.3433 38.3057 20.54 38.1657 20.8C38.0324 21.06 37.9657 21.3833 37.9657 21.77V24.5H37.0057V19.2H37.9257V20.63L37.7757 20.25C37.949 19.9033 38.2157 19.6333 38.5757 19.44C38.9357 19.2467 39.3557 19.15 39.8357 19.15ZM43.9523 24.5V18.73C43.9523 18.21 44.1023 17.7967 44.4023 17.49C44.709 17.1767 45.1423 17.02 45.7023 17.02C45.909 17.02 46.1057 17.0467 46.2923 17.1C46.4857 17.1467 46.649 17.2233 46.7823 17.33L46.4923 18.06C46.3923 17.98 46.279 17.92 46.1523 17.88C46.0257 17.8333 45.8923 17.81 45.7523 17.81C45.4723 17.81 45.259 17.89 45.1123 18.05C44.9657 18.2033 44.8923 18.4333 44.8923 18.74V19.45L44.9123 19.89V24.5H43.9523ZM43.0523 19.99V19.2H46.4323V19.99H43.0523ZM49.5296 24.56C48.9963 24.56 48.5229 24.4433 48.1096 24.21C47.6963 23.9767 47.3696 23.6567 47.1296 23.25C46.8896 22.8367 46.7696 22.37 46.7696 21.85C46.7696 21.3233 46.8896 20.8567 47.1296 20.45C47.3696 20.0433 47.6963 19.7267 48.1096 19.5C48.5229 19.2667 48.9963 19.15 49.5296 19.15C50.0563 19.15 50.5263 19.2667 50.9396 19.5C51.3596 19.7267 51.6863 20.0433 51.9196 20.45C52.1596 20.85 52.2796 21.3167 52.2796 21.85C52.2796 22.3767 52.1596 22.8433 51.9196 23.25C51.6863 23.6567 51.3596 23.9767 50.9396 24.21C50.5263 24.4433 50.0563 24.56 49.5296 24.56ZM49.5296 23.72C49.8696 23.72 50.1729 23.6433 50.4396 23.49C50.7129 23.3367 50.9263 23.12 51.0796 22.84C51.2329 22.5533 51.3096 22.2233 51.3096 21.85C51.3096 21.47 51.2329 21.1433 51.0796 20.87C50.9263 20.59 50.7129 20.3733 50.4396 20.22C50.1729 20.0667 49.8696 19.99 49.5296 19.99C49.1896 19.99 48.8863 20.0667 48.6196 20.22C48.3529 20.3733 48.1396 20.59 47.9796 20.87C47.8196 21.1433 47.7396 21.47 47.7396 21.85C47.7396 22.2233 47.8196 22.5533 47.9796 22.84C48.1396 23.12 48.3529 23.3367 48.6196 23.49C48.8863 23.6433 49.1896 23.72 49.5296 23.72ZM57.8573 26.52C57.1639 26.52 56.5306 26.4067 55.9573 26.18C55.3839 25.9533 54.8906 25.6367 54.4773 25.23C54.0639 24.8233 53.7439 24.3433 53.5173 23.79C53.2906 23.23 53.1773 22.62 53.1773 21.96C53.1773 21.3 53.2906 20.6933 53.5173 20.14C53.7439 19.5867 54.0639 19.1067 54.4773 18.7C54.8973 18.2933 55.3973 17.98 55.9773 17.76C56.5573 17.54 57.1973 17.43 57.8973 17.43C58.5839 17.43 59.2106 17.5367 59.7773 17.75C60.3439 17.9633 60.8339 18.2667 61.2473 18.66C61.6673 19.0467 61.9906 19.51 62.2173 20.05C62.4439 20.5833 62.5573 21.1733 62.5573 21.82C62.5573 22.3867 62.4873 22.8733 62.3473 23.28C62.2073 23.6867 62.0039 24.0033 61.7373 24.23C61.4773 24.45 61.1573 24.56 60.7773 24.56C60.4039 24.56 60.1039 24.4467 59.8773 24.22C59.6573 23.9933 59.5473 23.67 59.5473 23.25V22.57L59.5973 21.96L59.5073 20.81V19.48H60.3773V23.08C60.3773 23.3467 60.4306 23.5333 60.5373 23.64C60.6506 23.7467 60.7873 23.8 60.9473 23.8C61.1406 23.8 61.3073 23.7233 61.4473 23.57C61.5939 23.4167 61.7006 23.1933 61.7673 22.9C61.8406 22.6 61.8773 22.2433 61.8773 21.83C61.8773 21.27 61.7806 20.7633 61.5873 20.31C61.4006 19.85 61.1273 19.4533 60.7673 19.12C60.4139 18.7867 59.9939 18.5333 59.5073 18.36C59.0273 18.18 58.4906 18.09 57.8973 18.09C57.3039 18.09 56.7606 18.1867 56.2673 18.38C55.7806 18.5667 55.3606 18.8333 55.0073 19.18C54.6539 19.52 54.3806 19.9267 54.1873 20.4C54.0006 20.8733 53.9073 21.3933 53.9073 21.96C53.9073 22.5333 54.0006 23.06 54.1873 23.54C54.3739 24.0133 54.6406 24.42 54.9873 24.76C55.3406 25.1067 55.7573 25.3733 56.2373 25.56C56.7239 25.7533 57.2639 25.85 57.8573 25.85C58.1639 25.85 58.4873 25.8133 58.8273 25.74C59.1673 25.6733 59.4873 25.5633 59.7873 25.41L60.0073 26.05C59.7006 26.2033 59.3539 26.32 58.9673 26.4C58.5806 26.48 58.2106 26.52 57.8573 26.52ZM57.6773 24.56C57.2039 24.56 56.7839 24.45 56.4173 24.23C56.0506 24.0033 55.7606 23.6967 55.5473 23.31C55.3339 22.9233 55.2273 22.4833 55.2273 21.99C55.2273 21.49 55.3339 21.05 55.5473 20.67C55.7606 20.2833 56.0506 19.9833 56.4173 19.77C56.7839 19.55 57.2039 19.44 57.6773 19.44C58.1373 19.44 58.5406 19.54 58.8873 19.74C59.2339 19.9333 59.5039 20.22 59.6973 20.6C59.8973 20.98 59.9973 21.4433 59.9973 21.99C59.9973 22.5367 59.9006 23 59.7073 23.38C59.5139 23.76 59.2439 24.0533 58.8973 24.26C58.5506 24.46 58.1439 24.56 57.6773 24.56ZM57.8173 23.78C58.1439 23.78 58.4339 23.71 58.6873 23.57C58.9473 23.4233 59.1506 23.2167 59.2973 22.95C59.4506 22.6767 59.5273 22.3567 59.5273 21.99C59.5273 21.6167 59.4506 21.2967 59.2973 21.03C59.1506 20.7633 58.9473 20.56 58.6873 20.42C58.4339 20.28 58.1439 20.21 57.8173 20.21C57.4839 20.21 57.1873 20.2833 56.9273 20.43C56.6739 20.57 56.4739 20.7733 56.3273 21.04C56.1873 21.3067 56.1173 21.6233 56.1173 21.99C56.1173 22.35 56.1873 22.6633 56.3273 22.93C56.4739 23.1967 56.6739 23.4067 56.9273 23.56C57.1873 23.7067 57.4839 23.78 57.8173 23.78ZM63.4191 22.78V22.08L66.9991 17.5H68.0791L64.5291 22.08L64.0191 21.92H69.6091V22.78H63.4191ZM67.3091 24.5V22.78L67.3391 21.92V20.4H68.2791V24.5H67.3091ZM77.2685 19.15C77.6952 19.15 78.0718 19.2333 78.3985 19.4C78.7252 19.5667 78.9785 19.82 79.1585 20.16C79.3452 20.5 79.4385 20.93 79.4385 21.45V24.5H78.4785V21.56C78.4785 21.0467 78.3585 20.66 78.1185 20.4C77.8785 20.14 77.5418 20.01 77.1085 20.01C76.7885 20.01 76.5085 20.0767 76.2685 20.21C76.0285 20.3433 75.8418 20.54 75.7085 20.8C75.5818 21.06 75.5185 21.3833 75.5185 21.77V24.5H74.5585V21.56C74.5585 21.0467 74.4385 20.66 74.1985 20.4C73.9652 20.14 73.6285 20.01 73.1885 20.01C72.8752 20.01 72.5985 20.0767 72.3585 20.21C72.1185 20.3433 71.9318 20.54 71.7985 20.8C71.6652 21.06 71.5985 21.3833 71.5985 21.77V24.5H70.6385V19.2H71.5585V20.61L71.4085 20.25C71.5752 19.9033 71.8318 19.6333 72.1785 19.44C72.5252 19.2467 72.9285 19.15 73.3885 19.15C73.8952 19.15 74.3318 19.2767 74.6985 19.53C75.0652 19.7767 75.3052 20.1533 75.4185 20.66L75.0285 20.5C75.1885 20.0933 75.4685 19.7667 75.8685 19.52C76.2685 19.2733 76.7352 19.15 77.2685 19.15ZM84.0149 24.56C83.5749 24.56 83.1716 24.46 82.8049 24.26C82.4449 24.0533 82.1549 23.75 81.9349 23.35C81.7216 22.95 81.6149 22.45 81.6149 21.85C81.6149 21.25 81.7183 20.75 81.9249 20.35C82.1383 19.95 82.4249 19.65 82.7849 19.45C83.1516 19.25 83.5616 19.15 84.0149 19.15C84.5349 19.15 84.9949 19.2633 85.3949 19.49C85.7949 19.7167 86.1116 20.0333 86.3449 20.44C86.5783 20.84 86.6949 21.31 86.6949 21.85C86.6949 22.39 86.5783 22.8633 86.3449 23.27C86.1116 23.6767 85.7949 23.9933 85.3949 24.22C84.9949 24.4467 84.5349 24.56 84.0149 24.56ZM81.2049 26.44V19.2H82.1249V20.63L82.0649 21.86L82.1649 23.09V26.44H81.2049ZM83.9349 23.72C84.2749 23.72 84.5783 23.6433 84.8449 23.49C85.1183 23.3367 85.3316 23.12 85.4849 22.84C85.6449 22.5533 85.7249 22.2233 85.7249 21.85C85.7249 21.47 85.6449 21.1433 85.4849 20.87C85.3316 20.59 85.1183 20.3733 84.8449 20.22C84.5783 20.0667 84.2749 19.99 83.9349 19.99C83.6016 19.99 83.2983 20.0667 83.0249 20.22C82.7583 20.3733 82.5449 20.59 82.3849 20.87C82.2316 21.1433 82.1549 21.47 82.1549 21.85C82.1549 22.2233 82.2316 22.5533 82.3849 22.84C82.5449 23.12 82.7583 23.3367 83.0249 23.49C83.2983 23.6433 83.6016 23.72 83.9349 23.72ZM91.2625 24.5V23.38L91.2125 23.17V21.26C91.2125 20.8533 91.0925 20.54 90.8525 20.32C90.6192 20.0933 90.2658 19.98 89.7925 19.98C89.4792 19.98 89.1725 20.0333 88.8725 20.14C88.5725 20.24 88.3192 20.3767 88.1125 20.55L87.7125 19.83C87.9858 19.61 88.3125 19.4433 88.6925 19.33C89.0792 19.21 89.4825 19.15 89.9025 19.15C90.6292 19.15 91.1892 19.3267 91.5825 19.68C91.9758 20.0333 92.1725 20.5733 92.1725 21.3V24.5H91.2625ZM89.5225 24.56C89.1292 24.56 88.7825 24.4933 88.4825 24.36C88.1892 24.2267 87.9625 24.0433 87.8025 23.81C87.6425 23.57 87.5625 23.3 87.5625 23C87.5625 22.7133 87.6292 22.4533 87.7625 22.22C87.9025 21.9867 88.1258 21.8 88.4325 21.66C88.7458 21.52 89.1658 21.45 89.6925 21.45H91.3725V22.14H89.7325C89.2525 22.14 88.9292 22.22 88.7625 22.38C88.5958 22.54 88.5125 22.7333 88.5125 22.96C88.5125 23.22 88.6158 23.43 88.8225 23.59C89.0292 23.7433 89.3158 23.82 89.6825 23.82C90.0425 23.82 90.3558 23.74 90.6225 23.58C90.8958 23.42 91.0925 23.1867 91.2125 22.88L91.4025 23.54C91.2758 23.8533 91.0525 24.1033 90.7325 24.29C90.4125 24.47 90.0092 24.56 89.5225 24.56ZM96.2591 24.56C95.7191 24.56 95.2357 24.4433 94.8091 24.21C94.3891 23.9767 94.0591 23.6567 93.8191 23.25C93.5791 22.8433 93.4591 22.3767 93.4591 21.85C93.4591 21.3233 93.5791 20.8567 93.8191 20.45C94.0591 20.0433 94.3891 19.7267 94.8091 19.5C95.2357 19.2667 95.7191 19.15 96.2591 19.15C96.7391 19.15 97.1657 19.2467 97.5391 19.44C97.9191 19.6267 98.2124 19.9067 98.4191 20.28L97.6891 20.75C97.5157 20.49 97.3024 20.3 97.0491 20.18C96.8024 20.0533 96.5357 19.99 96.2491 19.99C95.9024 19.99 95.5924 20.0667 95.3191 20.22C95.0457 20.3733 94.8291 20.59 94.6691 20.87C94.5091 21.1433 94.4291 21.47 94.4291 21.85C94.4291 22.23 94.5091 22.56 94.6691 22.84C94.8291 23.12 95.0457 23.3367 95.3191 23.49C95.5924 23.6433 95.9024 23.72 96.2491 23.72C96.5357 23.72 96.8024 23.66 97.0491 23.54C97.3024 23.4133 97.5157 23.22 97.6891 22.96L98.4191 23.42C98.2124 23.7867 97.9191 24.07 97.5391 24.27C97.1657 24.4633 96.7391 24.56 96.2591 24.56ZM100.374 23.22L100.394 21.99L103.444 19.2H104.604L102.264 21.5L101.744 21.94L100.374 23.22ZM99.5936 24.5V17.08H100.554V24.5H99.5936ZM103.644 24.5L101.564 21.92L102.184 21.15L104.824 24.5H103.644ZM107.11 24.56C106.67 24.56 106.25 24.5 105.85 24.38C105.456 24.26 105.146 24.1133 104.92 23.94L105.32 23.18C105.546 23.3333 105.826 23.4633 106.16 23.57C106.493 23.6767 106.833 23.73 107.18 23.73C107.626 23.73 107.946 23.6667 108.14 23.54C108.34 23.4133 108.44 23.2367 108.44 23.01C108.44 22.8433 108.38 22.7133 108.26 22.62C108.14 22.5267 107.98 22.4567 107.78 22.41C107.586 22.3633 107.37 22.3233 107.13 22.29C106.89 22.25 106.65 22.2033 106.41 22.15C106.17 22.09 105.95 22.01 105.75 21.91C105.55 21.8033 105.39 21.66 105.27 21.48C105.15 21.2933 105.09 21.0467 105.09 20.74C105.09 20.42 105.18 20.14 105.36 19.9C105.54 19.66 105.793 19.4767 106.12 19.35C106.453 19.2167 106.846 19.15 107.3 19.15C107.646 19.15 107.996 19.1933 108.35 19.28C108.71 19.36 109.003 19.4767 109.23 19.63L108.82 20.39C108.58 20.23 108.33 20.12 108.07 20.06C107.81 20 107.55 19.97 107.29 19.97C106.87 19.97 106.556 20.04 106.35 20.18C106.143 20.3133 106.04 20.4867 106.04 20.7C106.04 20.88 106.1 21.02 106.22 21.12C106.346 21.2133 106.506 21.2867 106.7 21.34C106.9 21.3933 107.12 21.44 107.36 21.48C107.6 21.5133 107.84 21.56 108.08 21.62C108.32 21.6733 108.536 21.75 108.73 21.85C108.93 21.95 109.09 22.09 109.21 22.27C109.336 22.45 109.4 22.69 109.4 22.99C109.4 23.31 109.306 23.5867 109.12 23.82C108.933 24.0533 108.67 24.2367 108.33 24.37C107.99 24.4967 107.583 24.56 107.11 24.56ZM110.829 24.56C110.643 24.56 110.483 24.4967 110.349 24.37C110.216 24.2367 110.149 24.07 110.149 23.87C110.149 23.67 110.216 23.5067 110.349 23.38C110.483 23.2533 110.643 23.19 110.829 23.19C111.009 23.19 111.163 23.2533 111.289 23.38C111.423 23.5067 111.489 23.67 111.489 23.87C111.489 24.07 111.423 24.2367 111.289 24.37C111.163 24.4967 111.009 24.56 110.829 24.56ZM115.058 24.56C114.518 24.56 114.035 24.4433 113.608 24.21C113.188 23.9767 112.858 23.6567 112.618 23.25C112.378 22.8433 112.258 22.3767 112.258 21.85C112.258 21.3233 112.378 20.8567 112.618 20.45C112.858 20.0433 113.188 19.7267 113.608 19.5C114.035 19.2667 114.518 19.15 115.058 19.15C115.538 19.15 115.965 19.2467 116.338 19.44C116.718 19.6267 117.011 19.9067 117.218 20.28L116.488 20.75C116.315 20.49 116.101 20.3 115.848 20.18C115.601 20.0533 115.335 19.99 115.048 19.99C114.701 19.99 114.391 20.0667 114.118 20.22C113.845 20.3733 113.628 20.59 113.468 20.87C113.308 21.1433 113.228 21.47 113.228 21.85C113.228 22.23 113.308 22.56 113.468 22.84C113.628 23.12 113.845 23.3367 114.118 23.49C114.391 23.6433 114.701 23.72 115.048 23.72C115.335 23.72 115.601 23.66 115.848 23.54C116.101 23.4133 116.315 23.22 116.488 22.96L117.218 23.42C117.011 23.7867 116.718 24.07 116.338 24.27C115.965 24.4633 115.538 24.56 115.058 24.56ZM120.653 24.56C120.119 24.56 119.646 24.4433 119.233 24.21C118.819 23.9767 118.493 23.6567 118.253 23.25C118.013 22.8367 117.893 22.37 117.893 21.85C117.893 21.3233 118.013 20.8567 118.253 20.45C118.493 20.0433 118.819 19.7267 119.233 19.5C119.646 19.2667 120.119 19.15 120.653 19.15C121.179 19.15 121.649 19.2667 122.063 19.5C122.483 19.7267 122.809 20.0433 123.043 20.45C123.283 20.85 123.403 21.3167 123.403 21.85C123.403 22.3767 123.283 22.8433 123.043 23.25C122.809 23.6567 122.483 23.9767 122.063 24.21C121.649 24.4433 121.179 24.56 120.653 24.56ZM120.653 23.72C120.993 23.72 121.296 23.6433 121.563 23.49C121.836 23.3367 122.049 23.12 122.203 22.84C122.356 22.5533 122.433 22.2233 122.433 21.85C122.433 21.47 122.356 21.1433 122.203 20.87C122.049 20.59 121.836 20.3733 121.563 20.22C121.296 20.0667 120.993 19.99 120.653 19.99C120.313 19.99 120.009 20.0667 119.743 20.22C119.476 20.3733 119.263 20.59 119.103 20.87C118.943 21.1433 118.863 21.47 118.863 21.85C118.863 22.2233 118.943 22.5533 119.103 22.84C119.263 23.12 119.476 23.3367 119.743 23.49C120.009 23.6433 120.313 23.72 120.653 23.72ZM131.36 19.15C131.787 19.15 132.164 19.2333 132.49 19.4C132.817 19.5667 133.07 19.82 133.25 20.16C133.437 20.5 133.53 20.93 133.53 21.45V24.5H132.57V21.56C132.57 21.0467 132.45 20.66 132.21 20.4C131.97 20.14 131.634 20.01 131.2 20.01C130.88 20.01 130.6 20.0767 130.36 20.21C130.12 20.3433 129.934 20.54 129.8 20.8C129.674 21.06 129.61 21.3833 129.61 21.77V24.5H128.65V21.56C128.65 21.0467 128.53 20.66 128.29 20.4C128.057 20.14 127.72 20.01 127.28 20.01C126.967 20.01 126.69 20.0767 126.45 20.21C126.21 20.3433 126.024 20.54 125.89 20.8C125.757 21.06 125.69 21.3833 125.69 21.77V24.5H124.73V19.2H125.65V20.61L125.5 20.25C125.667 19.9033 125.924 19.6333 126.27 19.44C126.617 19.2467 127.02 19.15 127.48 19.15C127.987 19.15 128.424 19.2767 128.79 19.53C129.157 19.7767 129.397 20.1533 129.51 20.66L129.12 20.5C129.28 20.0933 129.56 19.7667 129.96 19.52C130.36 19.2733 130.827 19.15 131.36 19.15Z" fill="white"/>
<defs>
<filter id="filter0_d_272_690" x="0" y="0" width="237" height="48" filterUnits="userSpaceOnUse" color-interpolation-filters="sRGB">
<feFlood flood-opacity="0" result="BackgroundImageFix"/>
<feColorMatrix in="SourceAlpha" type="matrix" values="0 0 0 0 0 0 0 0 0 0 0 0 0 0 0 0 0 0 127 0" result="hardAlpha"/>
<feOffset dy="3"/>
<feGaussianBlur stdDeviation="2"/>
<feComposite in2="hardAlpha" operator="out"/>
<feColorMatrix type="matrix" values="0 0 0 0 0 0 0 0 0 0 0 0 0 0 0 0 0 0 0.25 0"/>
<feBlend mode="normal" in2="BackgroundImageFix" result="effect1_dropShadow_272_690"/>
<feBlend mode="normal" in="SourceGraphic" in2="effect1_dropShadow_272_690" result="shape"/>
</filter>
</defs>
</svg>
