<svg width="237" height="48" viewBox="0 0 237 48" fill="none" xmlns="http://www.w3.org/2000/svg">
<g filter="url(#filter0_d_221_442)">
<rect x="4.5" y="1.5" width="228" height="39" stroke="#DF3228" shape-rendering="crispEdges"/>
</g>
<path d="M11.6666 26.3337C11.2999 26.3337 10.9861 26.2032 10.7253 25.9423C10.4644 25.6814 10.3337 25.3674 10.3333 25.0003V17.0003C10.3333 16.6337 10.4639 16.3199 10.7253 16.059C10.9866 15.7981 11.3004 15.6674 11.6666 15.667H22.3333C22.6999 15.667 23.0139 15.7977 23.2753 16.059C23.5366 16.3203 23.667 16.6341 23.6666 17.0003V25.0003C23.6666 25.367 23.5361 25.681 23.2753 25.9423C23.0144 26.2037 22.7004 26.3341 22.3333 26.3337H11.6666ZM16.9999 21.667L22.3333 18.3337V17.0003L16.9999 20.3337L11.6666 17.0003V18.3337L16.9999 21.667Z" fill="white"/>
<path d="M36.23 26.5C35.7433 26.5 35.27 26.43 34.81 26.29C34.3567 26.1567 33.9867 25.9633 33.7 25.71L34.16 24.97C34.4067 25.1833 34.71 25.35 35.07 25.47C35.43 25.5967 35.8067 25.66 36.2 25.66C36.8267 25.66 37.2867 25.5133 37.58 25.22C37.8733 24.9267 38.02 24.48 38.02 23.88V22.76L38.12 21.71L38.07 20.65V19.2H38.98V23.78C38.98 24.7133 38.7467 25.4 38.28 25.84C37.8133 26.28 37.13 26.5 36.23 26.5ZM36.11 24.28C35.5967 24.28 35.1367 24.1733 34.73 23.96C34.33 23.74 34.01 23.4367 33.77 23.05C33.5367 22.6633 33.42 22.2167 33.42 21.71C33.42 21.1967 33.5367 20.75 33.77 20.37C34.01 19.9833 34.33 19.6833 34.73 19.47C35.1367 19.2567 35.5967 19.15 36.11 19.15C36.5633 19.15 36.9767 19.2433 37.35 19.43C37.7233 19.61 38.02 19.89 38.24 20.27C38.4667 20.65 38.58 21.13 38.58 21.71C38.58 22.2833 38.4667 22.76 38.24 23.14C38.02 23.52 37.7233 23.8067 37.35 24C36.9767 24.1867 36.5633 24.28 36.11 24.28ZM36.22 23.44C36.5733 23.44 36.8867 23.3667 37.16 23.22C37.4333 23.0733 37.6467 22.87 37.8 22.61C37.96 22.35 38.04 22.05 38.04 21.71C38.04 21.37 37.96 21.07 37.8 20.81C37.6467 20.55 37.4333 20.35 37.16 20.21C36.8867 20.0633 36.5733 19.99 36.22 19.99C35.8667 19.99 35.55 20.0633 35.27 20.21C34.9967 20.35 34.78 20.55 34.62 20.81C34.4667 21.07 34.39 21.37 34.39 21.71C34.39 22.05 34.4667 22.35 34.62 22.61C34.78 22.87 34.9967 23.0733 35.27 23.22C35.55 23.3667 35.8667 23.44 36.22 23.44ZM44.1043 24.5V23.38L44.0543 23.17V21.26C44.0543 20.8533 43.9343 20.54 43.6943 20.32C43.461 20.0933 43.1076 19.98 42.6343 19.98C42.321 19.98 42.0143 20.0333 41.7143 20.14C41.4143 20.24 41.161 20.3767 40.9543 20.55L40.5543 19.83C40.8276 19.61 41.1543 19.4433 41.5343 19.33C41.921 19.21 42.3243 19.15 42.7443 19.15C43.471 19.15 44.031 19.3267 44.4243 19.68C44.8176 20.0333 45.0143 20.5733 45.0143 21.3V24.5H44.1043ZM42.3643 24.56C41.971 24.56 41.6243 24.4933 41.3243 24.36C41.031 24.2267 40.8043 24.0433 40.6443 23.81C40.4843 23.57 40.4043 23.3 40.4043 23C40.4043 22.7133 40.471 22.4533 40.6043 22.22C40.7443 21.9867 40.9676 21.8 41.2743 21.66C41.5876 21.52 42.0076 21.45 42.5343 21.45H44.2143V22.14H42.5743C42.0943 22.14 41.771 22.22 41.6043 22.38C41.4376 22.54 41.3543 22.7333 41.3543 22.96C41.3543 23.22 41.4576 23.43 41.6643 23.59C41.871 23.7433 42.1576 23.82 42.5243 23.82C42.8843 23.82 43.1976 23.74 43.4643 23.58C43.7376 23.42 43.9343 23.1867 44.0543 22.88L44.2443 23.54C44.1176 23.8533 43.8943 24.1033 43.5743 24.29C43.2543 24.47 42.851 24.56 42.3643 24.56ZM49.6209 19.15C50.0542 19.15 50.4342 19.2333 50.7609 19.4C51.0942 19.5667 51.3542 19.82 51.5409 20.16C51.7275 20.5 51.8209 20.93 51.8209 21.45V24.5H50.8609V21.56C50.8609 21.0467 50.7342 20.66 50.4809 20.4C50.2342 20.14 49.8842 20.01 49.4309 20.01C49.0909 20.01 48.7942 20.0767 48.5409 20.21C48.2875 20.3433 48.0909 20.54 47.9509 20.8C47.8175 21.06 47.7509 21.3833 47.7509 21.77V24.5H46.7909V19.2H47.7109V20.63L47.5609 20.25C47.7342 19.9033 48.0009 19.6333 48.3609 19.44C48.7209 19.2467 49.1409 19.15 49.6209 19.15ZM55.9575 24.56C55.3908 24.56 54.8908 24.4433 54.4575 24.21C54.0308 23.9767 53.6975 23.6567 53.4575 23.25C53.2242 22.8433 53.1075 22.3767 53.1075 21.85C53.1075 21.3233 53.2208 20.8567 53.4475 20.45C53.6808 20.0433 53.9975 19.7267 54.3975 19.5C54.8042 19.2667 55.2608 19.15 55.7675 19.15C56.2808 19.15 56.7342 19.2633 57.1275 19.49C57.5208 19.7167 57.8275 20.0367 58.0475 20.45C58.2742 20.8567 58.3875 21.3333 58.3875 21.88C58.3875 21.92 58.3842 21.9667 58.3775 22.02C58.3775 22.0733 58.3742 22.1233 58.3675 22.17H53.8575V21.48H57.8675L57.4775 21.72C57.4842 21.38 57.4142 21.0767 57.2675 20.81C57.1208 20.5433 56.9175 20.3367 56.6575 20.19C56.4042 20.0367 56.1075 19.96 55.7675 19.96C55.4342 19.96 55.1375 20.0367 54.8775 20.19C54.6175 20.3367 54.4142 20.5467 54.2675 20.82C54.1208 21.0867 54.0475 21.3933 54.0475 21.74V21.9C54.0475 22.2533 54.1275 22.57 54.2875 22.85C54.4542 23.1233 54.6842 23.3367 54.9775 23.49C55.2708 23.6433 55.6075 23.72 55.9875 23.72C56.3008 23.72 56.5842 23.6667 56.8375 23.56C57.0975 23.4533 57.3242 23.2933 57.5175 23.08L58.0475 23.7C57.8075 23.98 57.5075 24.1933 57.1475 24.34C56.7942 24.4867 56.3975 24.56 55.9575 24.56ZM61.2405 24.56C60.8005 24.56 60.3805 24.5 59.9805 24.38C59.5872 24.26 59.2772 24.1133 59.0505 23.94L59.4505 23.18C59.6772 23.3333 59.9572 23.4633 60.2905 23.57C60.6239 23.6767 60.9639 23.73 61.3105 23.73C61.7572 23.73 62.0772 23.6667 62.2705 23.54C62.4705 23.4133 62.5705 23.2367 62.5705 23.01C62.5705 22.8433 62.5105 22.7133 62.3905 22.62C62.2705 22.5267 62.1105 22.4567 61.9105 22.41C61.7172 22.3633 61.5005 22.3233 61.2605 22.29C61.0205 22.25 60.7805 22.2033 60.5405 22.15C60.3005 22.09 60.0805 22.01 59.8805 21.91C59.6805 21.8033 59.5205 21.66 59.4005 21.48C59.2805 21.2933 59.2205 21.0467 59.2205 20.74C59.2205 20.42 59.3105 20.14 59.4905 19.9C59.6705 19.66 59.9239 19.4767 60.2505 19.35C60.5839 19.2167 60.9772 19.15 61.4305 19.15C61.7772 19.15 62.1272 19.1933 62.4805 19.28C62.8405 19.36 63.1339 19.4767 63.3605 19.63L62.9505 20.39C62.7105 20.23 62.4605 20.12 62.2005 20.06C61.9405 20 61.6805 19.97 61.4205 19.97C61.0005 19.97 60.6872 20.04 60.4805 20.18C60.2739 20.3133 60.1705 20.4867 60.1705 20.7C60.1705 20.88 60.2305 21.02 60.3505 21.12C60.4772 21.2133 60.6372 21.2867 60.8305 21.34C61.0305 21.3933 61.2505 21.44 61.4905 21.48C61.7305 21.5133 61.9705 21.56 62.2105 21.62C62.4505 21.6733 62.6672 21.75 62.8605 21.85C63.0605 21.95 63.2205 22.09 63.3405 22.27C63.4672 22.45 63.5305 22.69 63.5305 22.99C63.5305 23.31 63.4372 23.5867 63.2505 23.82C63.0639 24.0533 62.8005 24.2367 62.4605 24.37C62.1205 24.4967 61.7139 24.56 61.2405 24.56ZM67.5603 19.15C67.9936 19.15 68.3736 19.2333 68.7003 19.4C69.0336 19.5667 69.2936 19.82 69.4803 20.16C69.667 20.5 69.7603 20.93 69.7603 21.45V24.5H68.8003V21.56C68.8003 21.0467 68.6736 20.66 68.4203 20.4C68.1736 20.14 67.8236 20.01 67.3703 20.01C67.0303 20.01 66.7336 20.0767 66.4803 20.21C66.227 20.3433 66.0303 20.54 65.8903 20.8C65.757 21.06 65.6903 21.3833 65.6903 21.77V24.5H64.7303V17.08H65.6903V20.63L65.5003 20.25C65.6736 19.9033 65.9403 19.6333 66.3003 19.44C66.6603 19.2467 67.0803 19.15 67.5603 19.15ZM75.787 26.52C75.0936 26.52 74.4603 26.4067 73.887 26.18C73.3136 25.9533 72.8203 25.6367 72.407 25.23C71.9936 24.8233 71.6736 24.3433 71.447 23.79C71.2203 23.23 71.107 22.62 71.107 21.96C71.107 21.3 71.2203 20.6933 71.447 20.14C71.6736 19.5867 71.9936 19.1067 72.407 18.7C72.827 18.2933 73.327 17.98 73.907 17.76C74.487 17.54 75.127 17.43 75.827 17.43C76.5136 17.43 77.1403 17.5367 77.707 17.75C78.2736 17.9633 78.7636 18.2667 79.177 18.66C79.597 19.0467 79.9203 19.51 80.147 20.05C80.3736 20.5833 80.487 21.1733 80.487 21.82C80.487 22.3867 80.417 22.8733 80.277 23.28C80.137 23.6867 79.9336 24.0033 79.667 24.23C79.407 24.45 79.087 24.56 78.707 24.56C78.3336 24.56 78.0336 24.4467 77.807 24.22C77.587 23.9933 77.477 23.67 77.477 23.25V22.57L77.527 21.96L77.437 20.81V19.48H78.307V23.08C78.307 23.3467 78.3603 23.5333 78.467 23.64C78.5803 23.7467 78.717 23.8 78.877 23.8C79.0703 23.8 79.237 23.7233 79.377 23.57C79.5236 23.4167 79.6303 23.1933 79.697 22.9C79.7703 22.6 79.807 22.2433 79.807 21.83C79.807 21.27 79.7103 20.7633 79.517 20.31C79.3303 19.85 79.057 19.4533 78.697 19.12C78.3436 18.7867 77.9236 18.5333 77.437 18.36C76.957 18.18 76.4203 18.09 75.827 18.09C75.2336 18.09 74.6903 18.1867 74.197 18.38C73.7103 18.5667 73.2903 18.8333 72.937 19.18C72.5836 19.52 72.3103 19.9267 72.117 20.4C71.9303 20.8733 71.837 21.3933 71.837 21.96C71.837 22.5333 71.9303 23.06 72.117 23.54C72.3036 24.0133 72.5703 24.42 72.917 24.76C73.2703 25.1067 73.687 25.3733 74.167 25.56C74.6536 25.7533 75.1936 25.85 75.787 25.85C76.0936 25.85 76.417 25.8133 76.757 25.74C77.097 25.6733 77.417 25.5633 77.717 25.41L77.937 26.05C77.6303 26.2033 77.2836 26.32 76.897 26.4C76.5103 26.48 76.1403 26.52 75.787 26.52ZM75.607 24.56C75.1336 24.56 74.7136 24.45 74.347 24.23C73.9803 24.0033 73.6903 23.6967 73.477 23.31C73.2636 22.9233 73.157 22.4833 73.157 21.99C73.157 21.49 73.2636 21.05 73.477 20.67C73.6903 20.2833 73.9803 19.9833 74.347 19.77C74.7136 19.55 75.1336 19.44 75.607 19.44C76.067 19.44 76.4703 19.54 76.817 19.74C77.1636 19.9333 77.4336 20.22 77.627 20.6C77.827 20.98 77.927 21.4433 77.927 21.99C77.927 22.5367 77.8303 23 77.637 23.38C77.4436 23.76 77.1736 24.0533 76.827 24.26C76.4803 24.46 76.0736 24.56 75.607 24.56ZM75.747 23.78C76.0736 23.78 76.3636 23.71 76.617 23.57C76.877 23.4233 77.0803 23.2167 77.227 22.95C77.3803 22.6767 77.457 22.3567 77.457 21.99C77.457 21.6167 77.3803 21.2967 77.227 21.03C77.0803 20.7633 76.877 20.56 76.617 20.42C76.3636 20.28 76.0736 20.21 75.747 20.21C75.4136 20.21 75.117 20.2833 74.857 20.43C74.6036 20.57 74.4036 20.7733 74.257 21.04C74.117 21.3067 74.047 21.6233 74.047 21.99C74.047 22.35 74.117 22.6633 74.257 22.93C74.4036 23.1967 74.6036 23.4067 74.857 23.56C75.117 23.7067 75.4136 23.78 75.747 23.78ZM81.3488 22.78V22.08L84.9288 17.5H86.0088L82.4588 22.08L81.9488 21.92H87.5388V22.78H81.3488ZM85.2388 24.5V22.78L85.2688 21.92V20.4H86.2088V24.5H85.2388ZM95.1982 19.15C95.6249 19.15 96.0015 19.2333 96.3282 19.4C96.6549 19.5667 96.9082 19.82 97.0882 20.16C97.2749 20.5 97.3682 20.93 97.3682 21.45V24.5H96.4082V21.56C96.4082 21.0467 96.2882 20.66 96.0482 20.4C95.8082 20.14 95.4715 20.01 95.0382 20.01C94.7182 20.01 94.4382 20.0767 94.1982 20.21C93.9582 20.3433 93.7715 20.54 93.6382 20.8C93.5115 21.06 93.4482 21.3833 93.4482 21.77V24.5H92.4882V21.56C92.4882 21.0467 92.3682 20.66 92.1282 20.4C91.8949 20.14 91.5582 20.01 91.1182 20.01C90.8049 20.01 90.5282 20.0767 90.2882 20.21C90.0482 20.3433 89.8615 20.54 89.7282 20.8C89.5949 21.06 89.5282 21.3833 89.5282 21.77V24.5H88.5682V19.2H89.4882V20.61L89.3382 20.25C89.5049 19.9033 89.7615 19.6333 90.1082 19.44C90.4549 19.2467 90.8582 19.15 91.3182 19.15C91.8249 19.15 92.2615 19.2767 92.6282 19.53C92.9949 19.7767 93.2349 20.1533 93.3482 20.66L92.9582 20.5C93.1182 20.0933 93.3982 19.7667 93.7982 19.52C94.1982 19.2733 94.6649 19.15 95.1982 19.15ZM101.945 24.56C101.505 24.56 101.101 24.46 100.735 24.26C100.375 24.0533 100.085 23.75 99.8646 23.35C99.6513 22.95 99.5446 22.45 99.5446 21.85C99.5446 21.25 99.6479 20.75 99.8546 20.35C100.068 19.95 100.355 19.65 100.715 19.45C101.081 19.25 101.491 19.15 101.945 19.15C102.465 19.15 102.925 19.2633 103.325 19.49C103.725 19.7167 104.041 20.0333 104.275 20.44C104.508 20.84 104.625 21.31 104.625 21.85C104.625 22.39 104.508 22.8633 104.275 23.27C104.041 23.6767 103.725 23.9933 103.325 24.22C102.925 24.4467 102.465 24.56 101.945 24.56ZM99.1346 26.44V19.2H100.055V20.63L99.9946 21.86L100.095 23.09V26.44H99.1346ZM101.865 23.72C102.205 23.72 102.508 23.6433 102.775 23.49C103.048 23.3367 103.261 23.12 103.415 22.84C103.575 22.5533 103.655 22.2233 103.655 21.85C103.655 21.47 103.575 21.1433 103.415 20.87C103.261 20.59 103.048 20.3733 102.775 20.22C102.508 20.0667 102.205 19.99 101.865 19.99C101.531 19.99 101.228 20.0667 100.955 20.22C100.688 20.3733 100.475 20.59 100.315 20.87C100.161 21.1433 100.085 21.47 100.085 21.85C100.085 22.2233 100.161 22.5533 100.315 22.84C100.475 23.12 100.688 23.3367 100.955 23.49C101.228 23.6433 101.531 23.72 101.865 23.72ZM109.192 24.5V23.38L109.142 23.17V21.26C109.142 20.8533 109.022 20.54 108.782 20.32C108.549 20.0933 108.196 19.98 107.722 19.98C107.409 19.98 107.102 20.0333 106.802 20.14C106.502 20.24 106.249 20.3767 106.042 20.55L105.642 19.83C105.916 19.61 106.242 19.4433 106.622 19.33C107.009 19.21 107.412 19.15 107.832 19.15C108.559 19.15 109.119 19.3267 109.512 19.68C109.906 20.0333 110.102 20.5733 110.102 21.3V24.5H109.192ZM107.452 24.56C107.059 24.56 106.712 24.4933 106.412 24.36C106.119 24.2267 105.892 24.0433 105.732 23.81C105.572 23.57 105.492 23.3 105.492 23C105.492 22.7133 105.559 22.4533 105.692 22.22C105.832 21.9867 106.056 21.8 106.362 21.66C106.676 21.52 107.096 21.45 107.622 21.45H109.302V22.14H107.662C107.182 22.14 106.859 22.22 106.692 22.38C106.526 22.54 106.442 22.7333 106.442 22.96C106.442 23.22 106.546 23.43 106.752 23.59C106.959 23.7433 107.246 23.82 107.612 23.82C107.972 23.82 108.286 23.74 108.552 23.58C108.826 23.42 109.022 23.1867 109.142 22.88L109.332 23.54C109.206 23.8533 108.982 24.1033 108.662 24.29C108.342 24.47 107.939 24.56 107.452 24.56ZM114.189 24.56C113.649 24.56 113.165 24.4433 112.739 24.21C112.319 23.9767 111.989 23.6567 111.749 23.25C111.509 22.8433 111.389 22.3767 111.389 21.85C111.389 21.3233 111.509 20.8567 111.749 20.45C111.989 20.0433 112.319 19.7267 112.739 19.5C113.165 19.2667 113.649 19.15 114.189 19.15C114.669 19.15 115.095 19.2467 115.469 19.44C115.849 19.6267 116.142 19.9067 116.349 20.28L115.619 20.75C115.445 20.49 115.232 20.3 114.979 20.18C114.732 20.0533 114.465 19.99 114.179 19.99C113.832 19.99 113.522 20.0667 113.249 20.22C112.975 20.3733 112.759 20.59 112.599 20.87C112.439 21.1433 112.359 21.47 112.359 21.85C112.359 22.23 112.439 22.56 112.599 22.84C112.759 23.12 112.975 23.3367 113.249 23.49C113.522 23.6433 113.832 23.72 114.179 23.72C114.465 23.72 114.732 23.66 114.979 23.54C115.232 23.4133 115.445 23.22 115.619 22.96L116.349 23.42C116.142 23.7867 115.849 24.07 115.469 24.27C115.095 24.4633 114.669 24.56 114.189 24.56ZM118.303 23.22L118.323 21.99L121.373 19.2H122.533L120.193 21.5L119.673 21.94L118.303 23.22ZM117.523 24.5V17.08H118.483V24.5H117.523ZM121.573 24.5L119.493 21.92L120.113 21.15L122.753 24.5H121.573ZM125.039 24.56C124.599 24.56 124.179 24.5 123.779 24.38C123.386 24.26 123.076 24.1133 122.849 23.94L123.249 23.18C123.476 23.3333 123.756 23.4633 124.089 23.57C124.423 23.6767 124.763 23.73 125.109 23.73C125.556 23.73 125.876 23.6667 126.069 23.54C126.269 23.4133 126.369 23.2367 126.369 23.01C126.369 22.8433 126.309 22.7133 126.189 22.62C126.069 22.5267 125.909 22.4567 125.709 22.41C125.516 22.3633 125.299 22.3233 125.059 22.29C124.819 22.25 124.579 22.2033 124.339 22.15C124.099 22.09 123.879 22.01 123.679 21.91C123.479 21.8033 123.319 21.66 123.199 21.48C123.079 21.2933 123.019 21.0467 123.019 20.74C123.019 20.42 123.109 20.14 123.289 19.9C123.469 19.66 123.723 19.4767 124.049 19.35C124.383 19.2167 124.776 19.15 125.229 19.15C125.576 19.15 125.926 19.1933 126.279 19.28C126.639 19.36 126.933 19.4767 127.159 19.63L126.749 20.39C126.509 20.23 126.259 20.12 125.999 20.06C125.739 20 125.479 19.97 125.219 19.97C124.799 19.97 124.486 20.04 124.279 20.18C124.073 20.3133 123.969 20.4867 123.969 20.7C123.969 20.88 124.029 21.02 124.149 21.12C124.276 21.2133 124.436 21.2867 124.629 21.34C124.829 21.3933 125.049 21.44 125.289 21.48C125.529 21.5133 125.769 21.56 126.009 21.62C126.249 21.6733 126.466 21.75 126.659 21.85C126.859 21.95 127.019 22.09 127.139 22.27C127.266 22.45 127.329 22.69 127.329 22.99C127.329 23.31 127.236 23.5867 127.049 23.82C126.863 24.0533 126.599 24.2367 126.259 24.37C125.919 24.4967 125.513 24.56 125.039 24.56ZM132.779 26.52C132.086 26.52 131.452 26.4067 130.879 26.18C130.306 25.9533 129.812 25.6367 129.399 25.23C128.986 24.8233 128.666 24.3433 128.439 23.79C128.212 23.23 128.099 22.62 128.099 21.96C128.099 21.3 128.212 20.6933 128.439 20.14C128.666 19.5867 128.986 19.1067 129.399 18.7C129.819 18.2933 130.319 17.98 130.899 17.76C131.479 17.54 132.119 17.43 132.819 17.43C133.506 17.43 134.132 17.5367 134.699 17.75C135.266 17.9633 135.756 18.2667 136.169 18.66C136.589 19.0467 136.912 19.51 137.139 20.05C137.366 20.5833 137.479 21.1733 137.479 21.82C137.479 22.3867 137.409 22.8733 137.269 23.28C137.129 23.6867 136.926 24.0033 136.659 24.23C136.399 24.45 136.079 24.56 135.699 24.56C135.326 24.56 135.026 24.4467 134.799 24.22C134.579 23.9933 134.469 23.67 134.469 23.25V22.57L134.519 21.96L134.429 20.81V19.48H135.299V23.08C135.299 23.3467 135.352 23.5333 135.459 23.64C135.572 23.7467 135.709 23.8 135.869 23.8C136.062 23.8 136.229 23.7233 136.369 23.57C136.516 23.4167 136.622 23.1933 136.689 22.9C136.762 22.6 136.799 22.2433 136.799 21.83C136.799 21.27 136.702 20.7633 136.509 20.31C136.322 19.85 136.049 19.4533 135.689 19.12C135.336 18.7867 134.916 18.5333 134.429 18.36C133.949 18.18 133.412 18.09 132.819 18.09C132.226 18.09 131.682 18.1867 131.189 18.38C130.702 18.5667 130.282 18.8333 129.929 19.18C129.576 19.52 129.302 19.9267 129.109 20.4C128.922 20.8733 128.829 21.3933 128.829 21.96C128.829 22.5333 128.922 23.06 129.109 23.54C129.296 24.0133 129.562 24.42 129.909 24.76C130.262 25.1067 130.679 25.3733 131.159 25.56C131.646 25.7533 132.186 25.85 132.779 25.85C133.086 25.85 133.409 25.8133 133.749 25.74C134.089 25.6733 134.409 25.5633 134.709 25.41L134.929 26.05C134.622 26.2033 134.276 26.32 133.889 26.4C133.502 26.48 133.132 26.52 132.779 26.52ZM132.599 24.56C132.126 24.56 131.706 24.45 131.339 24.23C130.972 24.0033 130.682 23.6967 130.469 23.31C130.256 22.9233 130.149 22.4833 130.149 21.99C130.149 21.49 130.256 21.05 130.469 20.67C130.682 20.2833 130.972 19.9833 131.339 19.77C131.706 19.55 132.126 19.44 132.599 19.44C133.059 19.44 133.462 19.54 133.809 19.74C134.156 19.9333 134.426 20.22 134.619 20.6C134.819 20.98 134.919 21.4433 134.919 21.99C134.919 22.5367 134.822 23 134.629 23.38C134.436 23.76 134.166 24.0533 133.819 24.26C133.472 24.46 133.066 24.56 132.599 24.56ZM132.739 23.78C133.066 23.78 133.356 23.71 133.609 23.57C133.869 23.4233 134.072 23.2167 134.219 22.95C134.372 22.6767 134.449 22.3567 134.449 21.99C134.449 21.6167 134.372 21.2967 134.219 21.03C134.072 20.7633 133.869 20.56 133.609 20.42C133.356 20.28 133.066 20.21 132.739 20.21C132.406 20.21 132.109 20.2833 131.849 20.43C131.596 20.57 131.396 20.7733 131.249 21.04C131.109 21.3067 131.039 21.6233 131.039 21.99C131.039 22.35 131.109 22.6633 131.249 22.93C131.396 23.1967 131.596 23.4067 131.849 23.56C132.109 23.7067 132.406 23.78 132.739 23.78ZM141.191 26.5C140.704 26.5 140.231 26.43 139.771 26.29C139.318 26.1567 138.948 25.9633 138.661 25.71L139.121 24.97C139.368 25.1833 139.671 25.35 140.031 25.47C140.391 25.5967 140.768 25.66 141.161 25.66C141.788 25.66 142.248 25.5133 142.541 25.22C142.834 24.9267 142.981 24.48 142.981 23.88V22.76L143.081 21.71L143.031 20.65V19.2H143.941V23.78C143.941 24.7133 143.708 25.4 143.241 25.84C142.774 26.28 142.091 26.5 141.191 26.5ZM141.071 24.28C140.558 24.28 140.098 24.1733 139.691 23.96C139.291 23.74 138.971 23.4367 138.731 23.05C138.498 22.6633 138.381 22.2167 138.381 21.71C138.381 21.1967 138.498 20.75 138.731 20.37C138.971 19.9833 139.291 19.6833 139.691 19.47C140.098 19.2567 140.558 19.15 141.071 19.15C141.524 19.15 141.938 19.2433 142.311 19.43C142.684 19.61 142.981 19.89 143.201 20.27C143.428 20.65 143.541 21.13 143.541 21.71C143.541 22.2833 143.428 22.76 143.201 23.14C142.981 23.52 142.684 23.8067 142.311 24C141.938 24.1867 141.524 24.28 141.071 24.28ZM141.181 23.44C141.534 23.44 141.848 23.3667 142.121 23.22C142.394 23.0733 142.608 22.87 142.761 22.61C142.921 22.35 143.001 22.05 143.001 21.71C143.001 21.37 142.921 21.07 142.761 20.81C142.608 20.55 142.394 20.35 142.121 20.21C141.848 20.0633 141.534 19.99 141.181 19.99C140.828 19.99 140.511 20.0633 140.231 20.21C139.958 20.35 139.741 20.55 139.581 20.81C139.428 21.07 139.351 21.37 139.351 21.71C139.351 22.05 139.428 22.35 139.581 22.61C139.741 22.87 139.958 23.0733 140.231 23.22C140.511 23.3667 140.828 23.44 141.181 23.44ZM152.405 19.15C152.832 19.15 153.209 19.2333 153.535 19.4C153.862 19.5667 154.115 19.82 154.295 20.16C154.482 20.5 154.575 20.93 154.575 21.45V24.5H153.615V21.56C153.615 21.0467 153.495 20.66 153.255 20.4C153.015 20.14 152.679 20.01 152.245 20.01C151.925 20.01 151.645 20.0767 151.405 20.21C151.165 20.3433 150.979 20.54 150.845 20.8C150.719 21.06 150.655 21.3833 150.655 21.77V24.5H149.695V21.56C149.695 21.0467 149.575 20.66 149.335 20.4C149.102 20.14 148.765 20.01 148.325 20.01C148.012 20.01 147.735 20.0767 147.495 20.21C147.255 20.3433 147.069 20.54 146.935 20.8C146.802 21.06 146.735 21.3833 146.735 21.77V24.5H145.775V19.2H146.695V20.61L146.545 20.25C146.712 19.9033 146.969 19.6333 147.315 19.44C147.662 19.2467 148.065 19.15 148.525 19.15C149.032 19.15 149.469 19.2767 149.835 19.53C150.202 19.7767 150.442 20.1533 150.555 20.66L150.165 20.5C150.325 20.0933 150.605 19.7667 151.005 19.52C151.405 19.2733 151.872 19.15 152.405 19.15ZM159.632 24.5V23.38L159.582 23.17V21.26C159.582 20.8533 159.462 20.54 159.222 20.32C158.988 20.0933 158.635 19.98 158.162 19.98C157.848 19.98 157.542 20.0333 157.242 20.14C156.942 20.24 156.688 20.3767 156.482 20.55L156.082 19.83C156.355 19.61 156.682 19.4433 157.062 19.33C157.448 19.21 157.852 19.15 158.272 19.15C158.998 19.15 159.558 19.3267 159.952 19.68C160.345 20.0333 160.542 20.5733 160.542 21.3V24.5H159.632ZM157.892 24.56C157.498 24.56 157.152 24.4933 156.852 24.36C156.558 24.2267 156.332 24.0433 156.172 23.81C156.012 23.57 155.932 23.3 155.932 23C155.932 22.7133 155.998 22.4533 156.132 22.22C156.272 21.9867 156.495 21.8 156.802 21.66C157.115 21.52 157.535 21.45 158.062 21.45H159.742V22.14H158.102C157.622 22.14 157.298 22.22 157.132 22.38C156.965 22.54 156.882 22.7333 156.882 22.96C156.882 23.22 156.985 23.43 157.192 23.59C157.398 23.7433 157.685 23.82 158.052 23.82C158.412 23.82 158.725 23.74 158.992 23.58C159.265 23.42 159.462 23.1867 159.582 22.88L159.772 23.54C159.645 23.8533 159.422 24.1033 159.102 24.29C158.782 24.47 158.378 24.56 157.892 24.56ZM162.318 24.5V19.2H163.278V24.5H162.318ZM162.798 18.18C162.612 18.18 162.455 18.12 162.328 18C162.208 17.88 162.148 17.7333 162.148 17.56C162.148 17.38 162.208 17.23 162.328 17.11C162.455 16.99 162.612 16.93 162.798 16.93C162.985 16.93 163.138 16.99 163.258 17.11C163.385 17.2233 163.448 17.3667 163.448 17.54C163.448 17.72 163.388 17.8733 163.268 18C163.148 18.12 162.992 18.18 162.798 18.18ZM165.111 24.5V17.08H166.071V24.5H165.111ZM168.134 24.56C167.947 24.56 167.787 24.4967 167.654 24.37C167.521 24.2367 167.454 24.07 167.454 23.87C167.454 23.67 167.521 23.5067 167.654 23.38C167.787 23.2533 167.947 23.19 168.134 23.19C168.314 23.19 168.467 23.2533 168.594 23.38C168.727 23.5067 168.794 23.67 168.794 23.87C168.794 24.07 168.727 24.2367 168.594 24.37C168.467 24.4967 168.314 24.56 168.134 24.56ZM172.363 24.56C171.823 24.56 171.339 24.4433 170.913 24.21C170.493 23.9767 170.163 23.6567 169.923 23.25C169.683 22.8433 169.563 22.3767 169.563 21.85C169.563 21.3233 169.683 20.8567 169.923 20.45C170.163 20.0433 170.493 19.7267 170.913 19.5C171.339 19.2667 171.823 19.15 172.363 19.15C172.843 19.15 173.269 19.2467 173.643 19.44C174.023 19.6267 174.316 19.9067 174.523 20.28L173.793 20.75C173.619 20.49 173.406 20.3 173.153 20.18C172.906 20.0533 172.639 19.99 172.353 19.99C172.006 19.99 171.696 20.0667 171.423 20.22C171.149 20.3733 170.933 20.59 170.773 20.87C170.613 21.1433 170.533 21.47 170.533 21.85C170.533 22.23 170.613 22.56 170.773 22.84C170.933 23.12 171.149 23.3367 171.423 23.49C171.696 23.6433 172.006 23.72 172.353 23.72C172.639 23.72 172.906 23.66 173.153 23.54C173.406 23.4133 173.619 23.22 173.793 22.96L174.523 23.42C174.316 23.7867 174.023 24.07 173.643 24.27C173.269 24.4633 172.843 24.56 172.363 24.56ZM177.957 24.56C177.424 24.56 176.951 24.4433 176.537 24.21C176.124 23.9767 175.797 23.6567 175.557 23.25C175.317 22.8367 175.197 22.37 175.197 21.85C175.197 21.3233 175.317 20.8567 175.557 20.45C175.797 20.0433 176.124 19.7267 176.537 19.5C176.951 19.2667 177.424 19.15 177.957 19.15C178.484 19.15 178.954 19.2667 179.367 19.5C179.787 19.7267 180.114 20.0433 180.347 20.45C180.587 20.85 180.707 21.3167 180.707 21.85C180.707 22.3767 180.587 22.8433 180.347 23.25C180.114 23.6567 179.787 23.9767 179.367 24.21C178.954 24.4433 178.484 24.56 177.957 24.56ZM177.957 23.72C178.297 23.72 178.601 23.6433 178.867 23.49C179.141 23.3367 179.354 23.12 179.507 22.84C179.661 22.5533 179.737 22.2233 179.737 21.85C179.737 21.47 179.661 21.1433 179.507 20.87C179.354 20.59 179.141 20.3733 178.867 20.22C178.601 20.0667 178.297 19.99 177.957 19.99C177.617 19.99 177.314 20.0667 177.047 20.22C176.781 20.3733 176.567 20.59 176.407 20.87C176.247 21.1433 176.167 21.47 176.167 21.85C176.167 22.2233 176.247 22.5533 176.407 22.84C176.567 23.12 176.781 23.3367 177.047 23.49C177.314 23.6433 177.617 23.72 177.957 23.72ZM188.665 19.15C189.092 19.15 189.468 19.2333 189.795 19.4C190.122 19.5667 190.375 19.82 190.555 20.16C190.742 20.5 190.835 20.93 190.835 21.45V24.5H189.875V21.56C189.875 21.0467 189.755 20.66 189.515 20.4C189.275 20.14 188.938 20.01 188.505 20.01C188.185 20.01 187.905 20.0767 187.665 20.21C187.425 20.3433 187.238 20.54 187.105 20.8C186.978 21.06 186.915 21.3833 186.915 21.77V24.5H185.955V21.56C185.955 21.0467 185.835 20.66 185.595 20.4C185.362 20.14 185.025 20.01 184.585 20.01C184.272 20.01 183.995 20.0767 183.755 20.21C183.515 20.3433 183.328 20.54 183.195 20.8C183.062 21.06 182.995 21.3833 182.995 21.77V24.5H182.035V19.2H182.955V20.61L182.805 20.25C182.972 19.9033 183.228 19.6333 183.575 19.44C183.922 19.2467 184.325 19.15 184.785 19.15C185.292 19.15 185.728 19.2767 186.095 19.53C186.462 19.7767 186.702 20.1533 186.815 20.66L186.425 20.5C186.585 20.0933 186.865 19.7667 187.265 19.52C187.665 19.2733 188.132 19.15 188.665 19.15Z" fill="white"/>
<defs>
<filter id="filter0_d_221_442" x="0" y="0" width="237" height="48" filterUnits="userSpaceOnUse" color-interpolation-filters="sRGB">
<feFlood flood-opacity="0" result="BackgroundImageFix"/>
<feColorMatrix in="SourceAlpha" type="matrix" values="0 0 0 0 0 0 0 0 0 0 0 0 0 0 0 0 0 0 127 0" result="hardAlpha"/>
<feOffset dy="3"/>
<feGaussianBlur stdDeviation="2"/>
<feComposite in2="hardAlpha" operator="out"/>
<feColorMatrix type="matrix" values="0 0 0 0 0 0 0 0 0 0 0 0 0 0 0 0 0 0 0.25 0"/>
<feBlend mode="normal" in2="BackgroundImageFix" result="effect1_dropShadow_221_442"/>
<feBlend mode="normal" in="SourceGraphic" in2="effect1_dropShadow_221_442" result="shape"/>
</filter>
</defs>
</svg>
