<svg width="430" height="25" viewBox="0 0 430 25" fill="none" xmlns="http://www.w3.org/2000/svg">
<path d="M0.664 24L5.144 1.6H8.344L4.408 21.216H16.568L16.024 24H0.664ZM25.136 11.264H36.656L36.112 13.984H24.592L25.136 11.264ZM23.408 21.216H36.496L35.952 24H19.664L24.144 1.6H39.952L39.408 4.384H26.768L23.408 21.216ZM45.5495 24L49.4535 4.384H41.8055L42.3495 1.6H60.8775L60.3015 4.384H52.6535L48.7175 24H45.5495ZM62.1018 8.992L64.9818 2.496L65.2698 4.448C64.6938 4.448 64.2031 4.256 63.7977 3.872C63.4138 3.46667 63.2218 2.96533 63.2218 2.368C63.2218 1.68533 63.4458 1.13067 63.8938 0.703999C64.3631 0.277332 64.8964 0.0639992 65.4938 0.0639992C66.0698 0.0639992 66.5498 0.255999 66.9338 0.639999C67.3178 1.024 67.5098 1.51467 67.5098 2.112C67.5098 2.45333 67.4458 2.77333 67.3177 3.072C67.2111 3.37067 67.0404 3.744 66.8058 4.192L64.1178 8.992H62.1018ZM75.2323 24.256C74.1016 24.256 72.9923 24.1387 71.9043 23.904C70.8376 23.648 69.8563 23.3173 68.9603 22.912C68.0856 22.5067 67.3816 22.048 66.8483 21.536L68.2563 18.976C68.8323 19.488 69.5043 19.936 70.2723 20.32C71.0616 20.704 71.8936 21.0027 72.7683 21.216C73.6643 21.4293 74.5816 21.536 75.5203 21.536C76.7149 21.536 77.7709 21.3867 78.6883 21.088C79.6056 20.7893 80.3096 20.3627 80.8003 19.808C81.3123 19.232 81.5683 18.5387 81.5683 17.728C81.5683 17.0667 81.3549 16.5227 80.9283 16.096C80.5016 15.6693 79.9469 15.328 79.2643 15.072C78.6029 14.7947 77.8563 14.5493 77.0243 14.336C76.2136 14.1013 75.3923 13.8453 74.5603 13.568C73.7496 13.2693 73.0029 12.9067 72.3203 12.48C71.6589 12.0533 71.1149 11.5093 70.6883 10.848C70.2829 10.1653 70.0803 9.312 70.0803 8.288C70.0803 6.85867 70.4749 5.632 71.2643 4.608C72.0536 3.56267 73.1416 2.76267 74.5283 2.208C75.9363 1.632 77.5576 1.344 79.3923 1.344C80.7789 1.344 82.1016 1.504 83.3603 1.824C84.6189 2.144 85.6963 2.61333 86.5923 3.232L85.3123 5.856C84.4803 5.25867 83.5416 4.81067 82.4963 4.512C81.4509 4.21333 80.3629 4.064 79.2323 4.064C78.0163 4.064 76.9603 4.224 76.0642 4.544C75.1683 4.864 74.4749 5.32267 73.9843 5.92C73.4936 6.496 73.2376 7.17867 73.2163 7.968C73.2163 8.65067 73.4189 9.20533 73.8243 9.632C74.2296 10.0587 74.7736 10.4107 75.4563 10.688C76.1389 10.9653 76.8856 11.232 77.6963 11.488C78.5283 11.7227 79.3496 11.9787 80.1603 12.256C80.9709 12.512 81.7176 12.8533 82.4003 13.28C83.1043 13.6853 83.6589 14.208 84.0643 14.848C84.4909 15.488 84.7043 16.2987 84.7043 17.28C84.7043 18.7093 84.2989 19.9573 83.4883 21.024C82.6989 22.0693 81.5896 22.8693 80.1603 23.424C78.7523 23.9787 77.1096 24.256 75.2323 24.256ZM107.733 24.256C105.472 24.256 103.541 23.8613 101.941 23.072C100.362 22.2827 99.1463 21.184 98.293 19.776C97.461 18.3467 97.045 16.6933 97.045 14.816C97.045 12.96 97.365 11.2213 98.005 9.6C98.645 7.95733 99.5623 6.51733 100.757 5.28C101.973 4.04267 103.413 3.08267 105.077 2.4C106.762 1.696 108.661 1.344 110.773 1.344C112.629 1.344 114.272 1.64267 115.701 2.24C117.13 2.83733 118.229 3.70133 118.997 4.832L116.693 6.816C116.032 5.96267 115.189 5.312 114.165 4.864C113.141 4.416 111.936 4.192 110.549 4.192C108.949 4.192 107.509 4.46933 106.229 5.024C104.97 5.55733 103.893 6.31467 102.997 7.296C102.101 8.256 101.418 9.36533 100.949 10.624C100.48 11.8827 100.245 13.216 100.245 14.624C100.245 15.968 100.533 17.152 101.109 18.176C101.706 19.1787 102.57 19.968 103.701 20.544C104.853 21.12 106.272 21.408 107.957 21.408C109.322 21.408 110.57 21.184 111.701 20.736C112.853 20.288 113.866 19.6267 114.741 18.752L116.597 20.864C115.573 21.9947 114.293 22.848 112.757 23.424C111.221 23.9787 109.546 24.256 107.733 24.256ZM130.229 24.256C128.011 24.256 126.112 23.8613 124.533 23.072C122.955 22.2827 121.749 21.184 120.917 19.776C120.107 18.3467 119.701 16.6933 119.701 14.816C119.701 12.96 120.021 11.2213 120.661 9.6C121.301 7.95733 122.219 6.51733 123.413 5.28C124.608 4.04267 126.037 3.08267 127.701 2.4C129.365 1.696 131.232 1.344 133.301 1.344C135.541 1.344 137.451 1.73867 139.029 2.528C140.608 3.31733 141.803 4.42667 142.613 5.856C143.445 7.264 143.861 8.90667 143.861 10.784C143.861 12.64 143.541 14.3893 142.901 16.032C142.261 17.6533 141.344 19.0827 140.149 20.32C138.955 21.5573 137.515 22.528 135.829 23.232C134.165 23.9147 132.299 24.256 130.229 24.256ZM130.517 21.408C132.053 21.408 133.451 21.1413 134.709 20.608C135.968 20.0533 137.035 19.296 137.909 18.336C138.784 17.3547 139.456 16.2347 139.925 14.976C140.395 13.7173 140.629 12.384 140.629 10.976C140.629 9.632 140.341 8.45867 139.765 7.456C139.189 6.432 138.336 5.632 137.205 5.056C136.075 4.48 134.688 4.192 133.045 4.192C131.488 4.192 130.08 4.46933 128.821 5.024C127.584 5.55733 126.517 6.31467 125.621 7.296C124.747 8.256 124.075 9.36533 123.605 10.624C123.136 11.8827 122.901 13.216 122.901 14.624C122.901 15.968 123.189 17.152 123.765 18.176C124.363 19.1787 125.216 19.968 126.325 20.544C127.456 21.12 128.853 21.408 130.517 21.408ZM146.32 24L150.8 1.6H153.424L164.176 20.096L163.216 19.968L166.864 1.6H170.064L165.584 24H162.96L152.208 5.504L153.168 5.632L149.52 24H146.32ZM172.289 24L176.769 1.6H179.393L190.145 20.096L189.185 19.968L192.833 1.6H196.033L191.553 24H188.929L178.177 5.504L179.137 5.632L175.489 24H172.289ZM203.73 11.264H215.25L214.706 13.984H203.186L203.73 11.264ZM202.002 21.216H215.09L214.546 24H198.258L202.738 1.6H218.546L218.002 4.384H205.362L202.002 21.216ZM230.608 24.256C228.347 24.256 226.416 23.8613 224.816 23.072C223.237 22.2827 222.021 21.184 221.168 19.776C220.336 18.3467 219.92 16.6933 219.92 14.816C219.92 12.96 220.24 11.2213 220.88 9.6C221.52 7.95733 222.437 6.51733 223.632 5.28C224.848 4.04267 226.288 3.08267 227.952 2.4C229.637 1.696 231.536 1.344 233.648 1.344C235.504 1.344 237.147 1.64267 238.576 2.24C240.005 2.83733 241.104 3.70133 241.872 4.832L239.568 6.816C238.907 5.96267 238.064 5.312 237.04 4.864C236.016 4.416 234.811 4.192 233.424 4.192C231.824 4.192 230.384 4.46933 229.104 5.024C227.845 5.55733 226.768 6.31467 225.872 7.296C224.976 8.256 224.293 9.36533 223.824 10.624C223.355 11.8827 223.12 13.216 223.12 14.624C223.12 15.968 223.408 17.152 223.984 18.176C224.581 19.1787 225.445 19.968 226.576 20.544C227.728 21.12 229.147 21.408 230.832 21.408C232.197 21.408 233.445 21.184 234.576 20.736C235.728 20.288 236.741 19.6267 237.616 18.752L239.472 20.864C238.448 21.9947 237.168 22.848 235.632 23.424C234.096 23.9787 232.421 24.256 230.608 24.256ZM246.987 24L250.891 4.384H243.243L243.787 1.6H262.315L261.739 4.384H254.091L250.155 24H246.987Z" fill="url(#paint0_linear_221_419)"/>
<path d="M276.346 24.256C274.874 24.256 273.594 24.0427 272.506 23.616C271.418 23.1893 270.575 22.5813 269.978 21.792C269.381 20.9813 269.082 20.0427 269.082 18.976C269.082 17.824 269.381 16.7893 269.978 15.872C270.575 14.9333 271.482 14.0587 272.698 13.248C273.935 12.416 275.461 11.6053 277.274 10.816C278.874 10.112 280.111 9.504 280.986 8.992C281.861 8.45867 282.469 7.94667 282.81 7.456C283.173 6.96533 283.354 6.41067 283.354 5.792C283.354 5.19467 283.119 4.69333 282.65 4.288C282.181 3.86133 281.519 3.648 280.666 3.648C279.557 3.648 278.661 3.94667 277.978 4.544C277.317 5.12 276.986 5.90933 276.986 6.912C276.986 7.424 277.125 7.97867 277.402 8.576C277.679 9.152 278.127 9.81333 278.746 10.56L288.314 22.336L286.266 24.352L276.122 11.84C275.482 11.0507 274.991 10.2827 274.65 9.536C274.33 8.78933 274.17 8.01067 274.17 7.2C274.17 6.00533 274.447 4.98133 275.002 4.128C275.578 3.25333 276.367 2.58133 277.37 2.112C278.373 1.64267 279.503 1.408 280.762 1.408C281.786 1.408 282.693 1.568 283.482 1.888C284.271 2.208 284.879 2.67733 285.306 3.296C285.754 3.91467 285.978 4.66133 285.978 5.536C285.978 6.60267 285.69 7.54133 285.114 8.352C284.559 9.16267 283.717 9.92 282.586 10.624C281.455 11.328 280.026 12.0533 278.298 12.8C276.826 13.4827 275.631 14.112 274.714 14.688C273.818 15.264 273.167 15.8507 272.762 16.448C272.357 17.0453 272.154 17.7173 272.154 18.464C272.154 19.4027 272.527 20.1813 273.274 20.8C274.042 21.3973 275.13 21.696 276.538 21.696C277.925 21.696 279.247 21.3867 280.506 20.768C281.786 20.1493 282.938 19.2213 283.962 17.984C285.007 16.7467 285.882 15.2107 286.586 13.376L288.986 14.176C288.133 16.3947 287.066 18.2613 285.786 19.776C284.506 21.2693 283.066 22.3893 281.466 23.136C279.866 23.8827 278.159 24.256 276.346 24.256ZM311.389 24.256C309.128 24.256 307.197 23.8613 305.597 23.072C304.019 22.2827 302.803 21.184 301.949 19.776C301.117 18.3467 300.701 16.6933 300.701 14.816C300.701 12.96 301.021 11.2213 301.661 9.6C302.301 7.95733 303.219 6.51733 304.413 5.28C305.629 4.04267 307.069 3.08267 308.733 2.4C310.419 1.696 312.317 1.344 314.429 1.344C316.285 1.344 317.928 1.64267 319.357 2.24C320.787 2.83733 321.885 3.70133 322.653 4.832L320.349 6.816C319.688 5.96267 318.845 5.312 317.821 4.864C316.797 4.416 315.592 4.192 314.205 4.192C312.605 4.192 311.165 4.46933 309.885 5.024C308.627 5.55733 307.549 6.31467 306.653 7.296C305.757 8.256 305.075 9.36533 304.605 10.624C304.136 11.8827 303.901 13.216 303.901 14.624C303.901 15.968 304.189 17.152 304.765 18.176C305.363 19.1787 306.227 19.968 307.357 20.544C308.509 21.12 309.928 21.408 311.613 21.408C312.979 21.408 314.227 21.184 315.357 20.736C316.509 20.288 317.523 19.6267 318.397 18.752L320.253 20.864C319.229 21.9947 317.949 22.848 316.413 23.424C314.877 23.9787 313.203 24.256 311.389 24.256ZM323.57 24L328.05 1.6H336.402C339.026 1.6 341.053 2.176 342.482 3.328C343.933 4.48 344.658 6.09067 344.658 8.16C344.658 10.0373 344.232 11.648 343.378 12.992C342.546 14.336 341.341 15.3707 339.762 16.096C338.184 16.8 336.306 17.152 334.13 17.152H326.802L328.434 15.68L326.802 24H323.57ZM338.642 24L334.034 15.872H337.458L342.034 24H338.642ZM328.37 16.032L327.282 14.432H334.226C336.509 14.432 338.28 13.9307 339.538 12.928C340.818 11.904 341.458 10.4107 341.458 8.448C341.458 7.104 341 6.09067 340.082 5.408C339.165 4.72533 337.842 4.384 336.114 4.384H329.394L331.026 2.752L328.37 16.032ZM352.292 11.264H363.812L363.268 13.984H351.748L352.292 11.264ZM350.564 21.216H363.652L363.108 24H346.82L351.3 1.6H367.108L366.564 4.384H353.924L350.564 21.216ZM364.866 24L379.522 1.6H382.69L388.354 24H385.186L380.194 3.328H381.474L368.322 24H364.866ZM370.306 18.4L371.714 15.84H384.29L384.738 18.4H370.306ZM395.018 24L398.922 4.384H391.274L391.818 1.6H410.346L409.77 4.384H402.122L398.186 24H395.018ZM414.824 11.264H426.344L425.8 13.984H414.28L414.824 11.264ZM413.096 21.216H426.184L425.64 24H409.352L413.832 1.6H429.64L429.096 4.384H416.456L413.096 21.216Z" fill="white"/>
<defs>
<linearGradient id="paint0_linear_221_419" x1="223" y1="-5" x2="223" y2="31" gradientUnits="userSpaceOnUse">
<stop offset="0.427885" stop-color="#DF3228"/>
</linearGradient>
</defs>
</svg>
