<svg width="237" height="49" viewBox="0 0 237 49" fill="none" xmlns="http://www.w3.org/2000/svg">
<g filter="url(#filter0_d_221_427)">
<rect x="5.5" y="1.5" width="226" height="38" stroke="#DF3228" shape-rendering="crispEdges"/>
</g>
<circle cx="17" cy="21" r="8" fill="white"/>
<path d="M20.516 23.0524C19.9146 23.0524 19.3328 22.9547 18.7902 22.7787C18.7051 22.75 18.6138 22.7458 18.5265 22.7666C18.4392 22.7873 18.3595 22.8322 18.2964 22.896L17.5288 23.8591C16.1453 23.1991 14.8497 21.9524 14.1604 20.52L15.1137 19.7084C15.2457 19.5716 15.2848 19.3809 15.2311 19.2098C15.0502 18.6671 14.9573 18.0853 14.9573 17.484C14.9573 17.22 14.7373 17 14.4733 17H12.7817C12.5177 17 12.2 17.1173 12.2 17.484C12.2 22.0258 15.9791 25.8 20.516 25.8C20.8631 25.8 21 25.492 21 25.2231V23.5364C21 23.2724 20.78 23.0524 20.516 23.0524Z" fill="black"/>
<path d="M32.49 23.19V18.81H33.33V23.19H32.49ZM30.67 21.4V20.61H35.15V21.4H30.67ZM38.5703 17.42C39.2036 17.42 39.737 17.5567 40.1703 17.83C40.6103 18.1033 40.9436 18.5 41.1703 19.02C41.397 19.5333 41.5103 20.1633 41.5103 20.91C41.5103 21.7033 41.3703 22.3733 41.0903 22.92C40.8103 23.4667 40.4236 23.88 39.9303 24.16C39.437 24.44 38.8603 24.58 38.2003 24.58C37.8736 24.58 37.557 24.5467 37.2503 24.48C36.9503 24.4133 36.687 24.31 36.4603 24.17L36.8403 23.39C37.027 23.51 37.2336 23.5967 37.4603 23.65C37.6936 23.6967 37.937 23.72 38.1903 23.72C38.897 23.72 39.4603 23.5 39.8803 23.06C40.3003 22.6133 40.5103 21.9533 40.5103 21.08C40.5103 20.94 40.5036 20.7733 40.4903 20.58C40.477 20.3867 40.447 20.1967 40.4003 20.01L40.7303 20.35C40.637 20.6567 40.4803 20.9167 40.2603 21.13C40.047 21.3367 39.787 21.4933 39.4803 21.6C39.1803 21.7 38.8503 21.75 38.4903 21.75C38.0303 21.75 37.6203 21.6633 37.2603 21.49C36.9003 21.3167 36.617 21.0733 36.4103 20.76C36.2036 20.44 36.1003 20.0633 36.1003 19.63C36.1003 19.1767 36.207 18.7867 36.4203 18.46C36.6403 18.1267 36.937 17.87 37.3103 17.69C37.6903 17.51 38.1103 17.42 38.5703 17.42ZM38.6103 18.23C38.3103 18.23 38.0436 18.2867 37.8103 18.4C37.577 18.5133 37.3936 18.67 37.2603 18.87C37.1336 19.07 37.0703 19.31 37.0703 19.59C37.0703 20.0033 37.2136 20.3333 37.5003 20.58C37.787 20.82 38.1736 20.94 38.6603 20.94C38.9803 20.94 39.2603 20.88 39.5003 20.76C39.747 20.64 39.937 20.4767 40.0703 20.27C40.2103 20.0633 40.2803 19.8333 40.2803 19.58C40.2803 19.3333 40.217 19.11 40.0903 18.91C39.9636 18.71 39.777 18.5467 39.5303 18.42C39.2836 18.2933 38.977 18.23 38.6103 18.23ZM43.6522 24.5V17.9L44.0822 18.37H42.0722V17.5H44.6422V24.5H43.6522ZM51.1289 17.42C51.7622 17.42 52.2956 17.5567 52.7289 17.83C53.1689 18.1033 53.5022 18.5 53.7289 19.02C53.9556 19.5333 54.0689 20.1633 54.0689 20.91C54.0689 21.7033 53.9289 22.3733 53.6489 22.92C53.3689 23.4667 52.9822 23.88 52.4889 24.16C51.9956 24.44 51.4189 24.58 50.7589 24.58C50.4322 24.58 50.1156 24.5467 49.8089 24.48C49.5089 24.4133 49.2456 24.31 49.0189 24.17L49.3989 23.39C49.5856 23.51 49.7922 23.5967 50.0189 23.65C50.2522 23.6967 50.4956 23.72 50.7489 23.72C51.4556 23.72 52.0189 23.5 52.4389 23.06C52.8589 22.6133 53.0689 21.9533 53.0689 21.08C53.0689 20.94 53.0622 20.7733 53.0489 20.58C53.0356 20.3867 53.0056 20.1967 52.9589 20.01L53.2889 20.35C53.1956 20.6567 53.0389 20.9167 52.8189 21.13C52.6056 21.3367 52.3456 21.4933 52.0389 21.6C51.7389 21.7 51.4089 21.75 51.0489 21.75C50.5889 21.75 50.1789 21.6633 49.8189 21.49C49.4589 21.3167 49.1756 21.0733 48.9689 20.76C48.7622 20.44 48.6589 20.0633 48.6589 19.63C48.6589 19.1767 48.7656 18.7867 48.9789 18.46C49.1989 18.1267 49.4956 17.87 49.8689 17.69C50.2489 17.51 50.6689 17.42 51.1289 17.42ZM51.1689 18.23C50.8689 18.23 50.6022 18.2867 50.3689 18.4C50.1356 18.5133 49.9522 18.67 49.8189 18.87C49.6922 19.07 49.6289 19.31 49.6289 19.59C49.6289 20.0033 49.7722 20.3333 50.0589 20.58C50.3456 20.82 50.7322 20.94 51.2189 20.94C51.5389 20.94 51.8189 20.88 52.0589 20.76C52.3056 20.64 52.4956 20.4767 52.6289 20.27C52.7689 20.0633 52.8389 19.8333 52.8389 19.58C52.8389 19.3333 52.7756 19.11 52.6489 18.91C52.5222 18.71 52.3356 18.5467 52.0889 18.42C51.8422 18.2933 51.5356 18.23 51.1689 18.23ZM57.7608 24.58C57.1941 24.58 56.7041 24.4967 56.2908 24.33C55.8774 24.1633 55.5574 23.9267 55.3308 23.62C55.1041 23.3067 54.9908 22.94 54.9908 22.52C54.9908 22.1067 55.0974 21.7567 55.3108 21.47C55.5308 21.1767 55.8474 20.9567 56.2608 20.81C56.6741 20.6567 57.1741 20.58 57.7608 20.58C58.3474 20.58 58.8474 20.6567 59.2608 20.81C59.6808 20.9567 60.0008 21.1767 60.2208 21.47C60.4408 21.7633 60.5508 22.1133 60.5508 22.52C60.5508 22.94 60.4374 23.3067 60.2108 23.62C59.9841 23.9267 59.6608 24.1633 59.2408 24.33C58.8208 24.4967 58.3274 24.58 57.7608 24.58ZM57.7608 23.77C58.3208 23.77 58.7574 23.6567 59.0708 23.43C59.3908 23.1967 59.5508 22.8833 59.5508 22.49C59.5508 22.1033 59.3908 21.8 59.0708 21.58C58.7574 21.3533 58.3208 21.24 57.7608 21.24C57.2074 21.24 56.7741 21.3533 56.4608 21.58C56.1474 21.8 55.9908 22.1033 55.9908 22.49C55.9908 22.8833 56.1474 23.1967 56.4608 23.43C56.7741 23.6567 57.2074 23.77 57.7608 23.77ZM57.7608 21.12C57.2274 21.12 56.7741 21.05 56.4008 20.91C56.0274 20.7633 55.7408 20.5567 55.5408 20.29C55.3408 20.0167 55.2408 19.6933 55.2408 19.32C55.2408 18.9267 55.3441 18.59 55.5508 18.31C55.7641 18.0233 56.0608 17.8033 56.4408 17.65C56.8208 17.4967 57.2608 17.42 57.7608 17.42C58.2674 17.42 58.7108 17.4967 59.0908 17.65C59.4708 17.8033 59.7674 18.0233 59.9808 18.31C60.1941 18.59 60.3008 18.9267 60.3008 19.32C60.3008 19.6933 60.2008 20.0167 60.0008 20.29C59.8008 20.5567 59.5108 20.7633 59.1308 20.91C58.7508 21.05 58.2941 21.12 57.7608 21.12ZM57.7608 20.48C58.2474 20.48 58.6274 20.38 58.9008 20.18C59.1808 19.98 59.3208 19.7067 59.3208 19.36C59.3208 19.0067 59.1774 18.73 58.8908 18.53C58.6041 18.33 58.2274 18.23 57.7608 18.23C57.2941 18.23 56.9208 18.33 56.6408 18.53C56.3674 18.73 56.2308 19.0067 56.2308 19.36C56.2308 19.7067 56.3641 19.98 56.6308 20.18C56.9041 20.38 57.2808 20.48 57.7608 20.48ZM63.7363 17.42C64.3697 17.42 64.903 17.5567 65.3363 17.83C65.7763 18.1033 66.1097 18.5 66.3363 19.02C66.563 19.5333 66.6763 20.1633 66.6763 20.91C66.6763 21.7033 66.5363 22.3733 66.2563 22.92C65.9763 23.4667 65.5897 23.88 65.0963 24.16C64.603 24.44 64.0263 24.58 63.3663 24.58C63.0397 24.58 62.723 24.5467 62.4163 24.48C62.1163 24.4133 61.853 24.31 61.6263 24.17L62.0063 23.39C62.193 23.51 62.3997 23.5967 62.6263 23.65C62.8597 23.6967 63.103 23.72 63.3563 23.72C64.063 23.72 64.6263 23.5 65.0463 23.06C65.4663 22.6133 65.6763 21.9533 65.6763 21.08C65.6763 20.94 65.6697 20.7733 65.6563 20.58C65.643 20.3867 65.613 20.1967 65.5663 20.01L65.8963 20.35C65.803 20.6567 65.6463 20.9167 65.4263 21.13C65.213 21.3367 64.953 21.4933 64.6463 21.6C64.3463 21.7 64.0163 21.75 63.6563 21.75C63.1963 21.75 62.7863 21.6633 62.4263 21.49C62.0663 21.3167 61.783 21.0733 61.5763 20.76C61.3697 20.44 61.2663 20.0633 61.2663 19.63C61.2663 19.1767 61.373 18.7867 61.5863 18.46C61.8063 18.1267 62.103 17.87 62.4763 17.69C62.8563 17.51 63.2763 17.42 63.7363 17.42ZM63.7763 18.23C63.4763 18.23 63.2097 18.2867 62.9763 18.4C62.743 18.5133 62.5597 18.67 62.4263 18.87C62.2997 19.07 62.2363 19.31 62.2363 19.59C62.2363 20.0033 62.3797 20.3333 62.6663 20.58C62.953 20.82 63.3397 20.94 63.8263 20.94C64.1463 20.94 64.4263 20.88 64.6663 20.76C64.913 20.64 65.103 20.4767 65.2363 20.27C65.3763 20.0633 65.4463 19.8333 65.4463 19.58C65.4463 19.3333 65.383 19.11 65.2563 18.91C65.1297 18.71 64.943 18.5467 64.6963 18.42C64.4497 18.2933 64.143 18.23 63.7763 18.23ZM67.5382 22.78V22.08L71.1182 17.5H72.1982L68.6482 22.08L68.1382 21.92H73.7282V22.78H67.5382ZM71.4282 24.5V22.78L71.4582 21.92V20.4H72.3982V24.5H71.4282ZM77.1553 24.58C76.5886 24.58 76.0986 24.4967 75.6853 24.33C75.272 24.1633 74.952 23.9267 74.7253 23.62C74.4986 23.3067 74.3853 22.94 74.3853 22.52C74.3853 22.1067 74.492 21.7567 74.7053 21.47C74.9253 21.1767 75.242 20.9567 75.6553 20.81C76.0686 20.6567 76.5686 20.58 77.1553 20.58C77.742 20.58 78.242 20.6567 78.6553 20.81C79.0753 20.9567 79.3953 21.1767 79.6153 21.47C79.8353 21.7633 79.9453 22.1133 79.9453 22.52C79.9453 22.94 79.832 23.3067 79.6053 23.62C79.3786 23.9267 79.0553 24.1633 78.6353 24.33C78.2153 24.4967 77.722 24.58 77.1553 24.58ZM77.1553 23.77C77.7153 23.77 78.152 23.6567 78.4653 23.43C78.7853 23.1967 78.9453 22.8833 78.9453 22.49C78.9453 22.1033 78.7853 21.8 78.4653 21.58C78.152 21.3533 77.7153 21.24 77.1553 21.24C76.602 21.24 76.1686 21.3533 75.8553 21.58C75.542 21.8 75.3853 22.1033 75.3853 22.49C75.3853 22.8833 75.542 23.1967 75.8553 23.43C76.1686 23.6567 76.602 23.77 77.1553 23.77ZM77.1553 21.12C76.622 21.12 76.1686 21.05 75.7953 20.91C75.422 20.7633 75.1353 20.5567 74.9353 20.29C74.7353 20.0167 74.6353 19.6933 74.6353 19.32C74.6353 18.9267 74.7386 18.59 74.9453 18.31C75.1586 18.0233 75.4553 17.8033 75.8353 17.65C76.2153 17.4967 76.6553 17.42 77.1553 17.42C77.662 17.42 78.1053 17.4967 78.4853 17.65C78.8653 17.8033 79.162 18.0233 79.3753 18.31C79.5886 18.59 79.6953 18.9267 79.6953 19.32C79.6953 19.6933 79.5953 20.0167 79.3953 20.29C79.1953 20.5567 78.9053 20.7633 78.5253 20.91C78.1453 21.05 77.6886 21.12 77.1553 21.12ZM77.1553 20.48C77.642 20.48 78.022 20.38 78.2953 20.18C78.5753 19.98 78.7153 19.7067 78.7153 19.36C78.7153 19.0067 78.572 18.73 78.2853 18.53C77.9986 18.33 77.622 18.23 77.1553 18.23C76.6886 18.23 76.3153 18.33 76.0353 18.53C75.762 18.73 75.6253 19.0067 75.6253 19.36C75.6253 19.7067 75.7586 19.98 76.0253 20.18C76.2986 20.38 76.6753 20.48 77.1553 20.48ZM83.4464 22.78V22.08L87.0264 17.5H88.1064L84.5564 22.08L84.0464 21.92H89.6364V22.78H83.4464ZM87.3364 24.5V22.78L87.3664 21.92V20.4H88.3064V24.5H87.3364ZM90.1359 22.78V22.08L93.7159 17.5H94.7959L91.2459 22.08L90.7359 21.92H96.3259V22.78H90.1359ZM94.0259 24.5V22.78L94.0559 21.92V20.4H94.9959V24.5H94.0259ZM99.8653 24.58C99.2453 24.58 98.7153 24.4433 98.2753 24.17C97.8353 23.8967 97.4986 23.5033 97.2653 22.99C97.0386 22.47 96.9253 21.8367 96.9253 21.09C96.9253 20.2967 97.0653 19.6267 97.3453 19.08C97.6253 18.5333 98.0153 18.12 98.5153 17.84C99.0153 17.56 99.5886 17.42 100.235 17.42C100.569 17.42 100.885 17.4533 101.185 17.52C101.492 17.5867 101.755 17.69 101.975 17.83L101.595 18.61C101.415 18.4833 101.209 18.3967 100.975 18.35C100.749 18.3033 100.509 18.28 100.255 18.28C99.542 18.28 98.9753 18.5033 98.5553 18.95C98.1353 19.39 97.9253 20.0467 97.9253 20.92C97.9253 21.06 97.932 21.2267 97.9453 21.42C97.9586 21.6133 97.992 21.8033 98.0453 21.99L97.7053 21.65C97.8053 21.3433 97.962 21.0867 98.1753 20.88C98.3953 20.6667 98.6553 20.51 98.9553 20.41C99.262 20.3033 99.592 20.25 99.9453 20.25C100.412 20.25 100.825 20.3367 101.185 20.51C101.545 20.6833 101.829 20.93 102.035 21.25C102.242 21.5633 102.345 21.9367 102.345 22.37C102.345 22.8167 102.235 23.2067 102.015 23.54C101.795 23.8733 101.499 24.13 101.125 24.31C100.752 24.49 100.332 24.58 99.8653 24.58ZM99.8253 23.77C100.132 23.77 100.399 23.7133 100.625 23.6C100.859 23.4867 101.042 23.33 101.175 23.13C101.309 22.9233 101.375 22.6833 101.375 22.41C101.375 21.9967 101.232 21.67 100.945 21.43C100.659 21.1833 100.269 21.06 99.7753 21.06C99.4553 21.06 99.1753 21.12 98.9353 21.24C98.6953 21.36 98.5053 21.5233 98.3653 21.73C98.232 21.93 98.1653 22.16 98.1653 22.42C98.1653 22.66 98.2286 22.8833 98.3553 23.09C98.482 23.29 98.6686 23.4533 98.9153 23.58C99.162 23.7067 99.4653 23.77 99.8253 23.77ZM105.957 24.58C105.411 24.58 104.921 24.44 104.487 24.16C104.061 23.88 103.721 23.4733 103.467 22.94C103.221 22.4067 103.097 21.76 103.097 21C103.097 20.24 103.221 19.5933 103.467 19.06C103.721 18.5267 104.061 18.12 104.487 17.84C104.921 17.56 105.411 17.42 105.957 17.42C106.497 17.42 106.984 17.56 107.417 17.84C107.851 18.12 108.191 18.5267 108.437 19.06C108.684 19.5933 108.807 20.24 108.807 21C108.807 21.76 108.684 22.4067 108.437 22.94C108.191 23.4733 107.851 23.88 107.417 24.16C106.984 24.44 106.497 24.58 105.957 24.58ZM105.957 23.69C106.324 23.69 106.644 23.59 106.917 23.39C107.197 23.19 107.414 22.89 107.567 22.49C107.727 22.09 107.807 21.5933 107.807 21C107.807 20.4067 107.727 19.91 107.567 19.51C107.414 19.11 107.197 18.81 106.917 18.61C106.644 18.41 106.324 18.31 105.957 18.31C105.591 18.31 105.267 18.41 104.987 18.61C104.707 18.81 104.487 19.11 104.327 19.51C104.174 19.91 104.097 20.4067 104.097 21C104.097 21.5933 104.174 22.09 104.327 22.49C104.487 22.89 104.707 23.19 104.987 23.39C105.267 23.59 105.591 23.69 105.957 23.69ZM112.037 17.42C112.67 17.42 113.204 17.5567 113.637 17.83C114.077 18.1033 114.41 18.5 114.637 19.02C114.864 19.5333 114.977 20.1633 114.977 20.91C114.977 21.7033 114.837 22.3733 114.557 22.92C114.277 23.4667 113.89 23.88 113.397 24.16C112.904 24.44 112.327 24.58 111.667 24.58C111.34 24.58 111.024 24.5467 110.717 24.48C110.417 24.4133 110.154 24.31 109.927 24.17L110.307 23.39C110.494 23.51 110.7 23.5967 110.927 23.65C111.16 23.6967 111.404 23.72 111.657 23.72C112.364 23.72 112.927 23.5 113.347 23.06C113.767 22.6133 113.977 21.9533 113.977 21.08C113.977 20.94 113.97 20.7733 113.957 20.58C113.944 20.3867 113.914 20.1967 113.867 20.01L114.197 20.35C114.104 20.6567 113.947 20.9167 113.727 21.13C113.514 21.3367 113.254 21.4933 112.947 21.6C112.647 21.7 112.317 21.75 111.957 21.75C111.497 21.75 111.087 21.6633 110.727 21.49C110.367 21.3167 110.084 21.0733 109.877 20.76C109.67 20.44 109.567 20.0633 109.567 19.63C109.567 19.1767 109.674 18.7867 109.887 18.46C110.107 18.1267 110.404 17.87 110.777 17.69C111.157 17.51 111.577 17.42 112.037 17.42ZM112.077 18.23C111.777 18.23 111.51 18.2867 111.277 18.4C111.044 18.5133 110.86 18.67 110.727 18.87C110.6 19.07 110.537 19.31 110.537 19.59C110.537 20.0033 110.68 20.3333 110.967 20.58C111.254 20.82 111.64 20.94 112.127 20.94C112.447 20.94 112.727 20.88 112.967 20.76C113.214 20.64 113.404 20.4767 113.537 20.27C113.677 20.0633 113.747 19.8333 113.747 19.58C113.747 19.3333 113.684 19.11 113.557 18.91C113.43 18.71 113.244 18.5467 112.997 18.42C112.75 18.2933 112.444 18.23 112.077 18.23ZM119.195 26.44V17.08H120.085V26.44H119.195ZM123.623 23.19V18.81H124.463V23.19H123.623ZM121.803 21.4V20.61H126.283V21.4H121.803ZM129.703 17.42C130.336 17.42 130.87 17.5567 131.303 17.83C131.743 18.1033 132.076 18.5 132.303 19.02C132.53 19.5333 132.643 20.1633 132.643 20.91C132.643 21.7033 132.503 22.3733 132.223 22.92C131.943 23.4667 131.556 23.88 131.063 24.16C130.57 24.44 129.993 24.58 129.333 24.58C129.006 24.58 128.69 24.5467 128.383 24.48C128.083 24.4133 127.82 24.31 127.593 24.17L127.973 23.39C128.16 23.51 128.366 23.5967 128.593 23.65C128.826 23.6967 129.07 23.72 129.323 23.72C130.03 23.72 130.593 23.5 131.013 23.06C131.433 22.6133 131.643 21.9533 131.643 21.08C131.643 20.94 131.636 20.7733 131.623 20.58C131.61 20.3867 131.58 20.1967 131.533 20.01L131.863 20.35C131.77 20.6567 131.613 20.9167 131.393 21.13C131.18 21.3367 130.92 21.4933 130.613 21.6C130.313 21.7 129.983 21.75 129.623 21.75C129.163 21.75 128.753 21.6633 128.393 21.49C128.033 21.3167 127.75 21.0733 127.543 20.76C127.336 20.44 127.233 20.0633 127.233 19.63C127.233 19.1767 127.34 18.7867 127.553 18.46C127.773 18.1267 128.07 17.87 128.443 17.69C128.823 17.51 129.243 17.42 129.703 17.42ZM129.743 18.23C129.443 18.23 129.176 18.2867 128.943 18.4C128.71 18.5133 128.526 18.67 128.393 18.87C128.266 19.07 128.203 19.31 128.203 19.59C128.203 20.0033 128.346 20.3333 128.633 20.58C128.92 20.82 129.306 20.94 129.793 20.94C130.113 20.94 130.393 20.88 130.633 20.76C130.88 20.64 131.07 20.4767 131.203 20.27C131.343 20.0633 131.413 19.8333 131.413 19.58C131.413 19.3333 131.35 19.11 131.223 18.91C131.096 18.71 130.91 18.5467 130.663 18.42C130.416 18.2933 130.11 18.23 129.743 18.23ZM134.785 24.5V17.9L135.215 18.37H133.205V17.5H135.775V24.5H134.785ZM142.262 17.42C142.895 17.42 143.428 17.5567 143.862 17.83C144.302 18.1033 144.635 18.5 144.862 19.02C145.088 19.5333 145.202 20.1633 145.202 20.91C145.202 21.7033 145.062 22.3733 144.782 22.92C144.502 23.4667 144.115 23.88 143.622 24.16C143.128 24.44 142.552 24.58 141.892 24.58C141.565 24.58 141.248 24.5467 140.942 24.48C140.642 24.4133 140.378 24.31 140.152 24.17L140.532 23.39C140.718 23.51 140.925 23.5967 141.152 23.65C141.385 23.6967 141.628 23.72 141.882 23.72C142.588 23.72 143.152 23.5 143.572 23.06C143.992 22.6133 144.202 21.9533 144.202 21.08C144.202 20.94 144.195 20.7733 144.182 20.58C144.168 20.3867 144.138 20.1967 144.092 20.01L144.422 20.35C144.328 20.6567 144.172 20.9167 143.952 21.13C143.738 21.3367 143.478 21.4933 143.172 21.6C142.872 21.7 142.542 21.75 142.182 21.75C141.722 21.75 141.312 21.6633 140.952 21.49C140.592 21.3167 140.308 21.0733 140.102 20.76C139.895 20.44 139.792 20.0633 139.792 19.63C139.792 19.1767 139.898 18.7867 140.112 18.46C140.332 18.1267 140.628 17.87 141.002 17.69C141.382 17.51 141.802 17.42 142.262 17.42ZM142.302 18.23C142.002 18.23 141.735 18.2867 141.502 18.4C141.268 18.5133 141.085 18.67 140.952 18.87C140.825 19.07 140.762 19.31 140.762 19.59C140.762 20.0033 140.905 20.3333 141.192 20.58C141.478 20.82 141.865 20.94 142.352 20.94C142.672 20.94 142.952 20.88 143.192 20.76C143.438 20.64 143.628 20.4767 143.762 20.27C143.902 20.0633 143.972 19.8333 143.972 19.58C143.972 19.3333 143.908 19.11 143.782 18.91C143.655 18.71 143.468 18.5467 143.222 18.42C142.975 18.2933 142.668 18.23 142.302 18.23ZM149.024 24.58C148.477 24.58 147.987 24.44 147.554 24.16C147.127 23.88 146.787 23.4733 146.534 22.94C146.287 22.4067 146.164 21.76 146.164 21C146.164 20.24 146.287 19.5933 146.534 19.06C146.787 18.5267 147.127 18.12 147.554 17.84C147.987 17.56 148.477 17.42 149.024 17.42C149.564 17.42 150.05 17.56 150.484 17.84C150.917 18.12 151.257 18.5267 151.504 19.06C151.75 19.5933 151.874 20.24 151.874 21C151.874 21.76 151.75 22.4067 151.504 22.94C151.257 23.4733 150.917 23.88 150.484 24.16C150.05 24.44 149.564 24.58 149.024 24.58ZM149.024 23.69C149.39 23.69 149.71 23.59 149.984 23.39C150.264 23.19 150.48 22.89 150.634 22.49C150.794 22.09 150.874 21.5933 150.874 21C150.874 20.4067 150.794 19.91 150.634 19.51C150.48 19.11 150.264 18.81 149.984 18.61C149.71 18.41 149.39 18.31 149.024 18.31C148.657 18.31 148.334 18.41 148.054 18.61C147.774 18.81 147.554 19.11 147.394 19.51C147.24 19.91 147.164 20.4067 147.164 21C147.164 21.5933 147.24 22.09 147.394 22.49C147.554 22.89 147.774 23.19 148.054 23.39C148.334 23.59 148.657 23.69 149.024 23.69ZM155.104 17.42C155.737 17.42 156.27 17.5567 156.704 17.83C157.144 18.1033 157.477 18.5 157.704 19.02C157.93 19.5333 158.044 20.1633 158.044 20.91C158.044 21.7033 157.904 22.3733 157.624 22.92C157.344 23.4667 156.957 23.88 156.464 24.16C155.97 24.44 155.394 24.58 154.734 24.58C154.407 24.58 154.09 24.5467 153.784 24.48C153.484 24.4133 153.22 24.31 152.994 24.17L153.374 23.39C153.56 23.51 153.767 23.5967 153.994 23.65C154.227 23.6967 154.47 23.72 154.724 23.72C155.43 23.72 155.994 23.5 156.414 23.06C156.834 22.6133 157.044 21.9533 157.044 21.08C157.044 20.94 157.037 20.7733 157.024 20.58C157.01 20.3867 156.98 20.1967 156.934 20.01L157.264 20.35C157.17 20.6567 157.014 20.9167 156.794 21.13C156.58 21.3367 156.32 21.4933 156.014 21.6C155.714 21.7 155.384 21.75 155.024 21.75C154.564 21.75 154.154 21.6633 153.794 21.49C153.434 21.3167 153.15 21.0733 152.944 20.76C152.737 20.44 152.634 20.0633 152.634 19.63C152.634 19.1767 152.74 18.7867 152.954 18.46C153.174 18.1267 153.47 17.87 153.844 17.69C154.224 17.51 154.644 17.42 155.104 17.42ZM155.144 18.23C154.844 18.23 154.577 18.2867 154.344 18.4C154.11 18.5133 153.927 18.67 153.794 18.87C153.667 19.07 153.604 19.31 153.604 19.59C153.604 20.0033 153.747 20.3333 154.034 20.58C154.32 20.82 154.707 20.94 155.194 20.94C155.514 20.94 155.794 20.88 156.034 20.76C156.28 20.64 156.47 20.4767 156.604 20.27C156.744 20.0633 156.814 19.8333 156.814 19.58C156.814 19.3333 156.75 19.11 156.624 18.91C156.497 18.71 156.31 18.5467 156.064 18.42C155.817 18.2933 155.51 18.23 155.144 18.23ZM158.895 24.5V23.82L161.745 21.07C161.999 20.83 162.185 20.62 162.305 20.44C162.432 20.2533 162.515 20.0833 162.555 19.93C162.602 19.77 162.625 19.6167 162.625 19.47C162.625 19.11 162.499 18.8267 162.245 18.62C161.992 18.4133 161.622 18.31 161.135 18.31C160.762 18.31 160.425 18.3733 160.125 18.5C159.825 18.62 159.565 18.81 159.345 19.07L158.665 18.48C158.932 18.14 159.289 17.88 159.735 17.7C160.189 17.5133 160.685 17.42 161.225 17.42C161.712 17.42 162.135 17.5 162.495 17.66C162.855 17.8133 163.132 18.0367 163.325 18.33C163.525 18.6233 163.625 18.97 163.625 19.37C163.625 19.5967 163.595 19.82 163.535 20.04C163.475 20.26 163.362 20.4933 163.195 20.74C163.029 20.9867 162.789 21.2633 162.475 21.57L159.935 24.02L159.695 23.63H163.925V24.5H158.895ZM164.638 24.5V23.82L167.488 21.07C167.741 20.83 167.928 20.62 168.048 20.44C168.174 20.2533 168.258 20.0833 168.298 19.93C168.344 19.77 168.368 19.6167 168.368 19.47C168.368 19.11 168.241 18.8267 167.988 18.62C167.734 18.4133 167.364 18.31 166.878 18.31C166.504 18.31 166.168 18.3733 165.868 18.5C165.568 18.62 165.308 18.81 165.088 19.07L164.408 18.48C164.674 18.14 165.031 17.88 165.478 17.7C165.931 17.5133 166.428 17.42 166.968 17.42C167.454 17.42 167.878 17.5 168.238 17.66C168.598 17.8133 168.874 18.0367 169.068 18.33C169.268 18.6233 169.368 18.97 169.368 19.37C169.368 19.5967 169.338 19.82 169.278 20.04C169.218 20.26 169.104 20.4933 168.938 20.74C168.771 20.9867 168.531 21.2633 168.218 21.57L165.678 24.02L165.438 23.63H169.668V24.5H164.638ZM175.445 17.42C176.079 17.42 176.612 17.5567 177.045 17.83C177.485 18.1033 177.819 18.5 178.045 19.02C178.272 19.5333 178.385 20.1633 178.385 20.91C178.385 21.7033 178.245 22.3733 177.965 22.92C177.685 23.4667 177.299 23.88 176.805 24.16C176.312 24.44 175.735 24.58 175.075 24.58C174.749 24.58 174.432 24.5467 174.125 24.48C173.825 24.4133 173.562 24.31 173.335 24.17L173.715 23.39C173.902 23.51 174.109 23.5967 174.335 23.65C174.569 23.6967 174.812 23.72 175.065 23.72C175.772 23.72 176.335 23.5 176.755 23.06C177.175 22.6133 177.385 21.9533 177.385 21.08C177.385 20.94 177.379 20.7733 177.365 20.58C177.352 20.3867 177.322 20.1967 177.275 20.01L177.605 20.35C177.512 20.6567 177.355 20.9167 177.135 21.13C176.922 21.3367 176.662 21.4933 176.355 21.6C176.055 21.7 175.725 21.75 175.365 21.75C174.905 21.75 174.495 21.6633 174.135 21.49C173.775 21.3167 173.492 21.0733 173.285 20.76C173.079 20.44 172.975 20.0633 172.975 19.63C172.975 19.1767 173.082 18.7867 173.295 18.46C173.515 18.1267 173.812 17.87 174.185 17.69C174.565 17.51 174.985 17.42 175.445 17.42ZM175.485 18.23C175.185 18.23 174.919 18.2867 174.685 18.4C174.452 18.5133 174.269 18.67 174.135 18.87C174.009 19.07 173.945 19.31 173.945 19.59C173.945 20.0033 174.089 20.3333 174.375 20.58C174.662 20.82 175.049 20.94 175.535 20.94C175.855 20.94 176.135 20.88 176.375 20.76C176.622 20.64 176.812 20.4767 176.945 20.27C177.085 20.0633 177.155 19.8333 177.155 19.58C177.155 19.3333 177.092 19.11 176.965 18.91C176.839 18.71 176.652 18.5467 176.405 18.42C176.159 18.2933 175.852 18.23 175.485 18.23ZM179.247 22.78V22.08L182.827 17.5H183.907L180.357 22.08L179.847 21.92H185.437V22.78H179.247ZM183.137 24.5V22.78L183.167 21.92V20.4H184.107V24.5H183.137ZM186.963 24.5V17.9L187.393 18.37H185.383V17.5H187.953V24.5H186.963ZM189.384 22.78V22.08L192.964 17.5H194.044L190.494 22.08L189.984 21.92H195.574V22.78H189.384ZM193.274 24.5V22.78L193.304 21.92V20.4H194.244V24.5H193.274ZM197.099 24.5V17.9L197.529 18.37H195.519V17.5H198.089V24.5H197.099Z" fill="white"/>
<defs>
<filter id="filter0_d_221_427" x="0" y="0" width="237" height="49" filterUnits="userSpaceOnUse" color-interpolation-filters="sRGB">
<feFlood flood-opacity="0" result="BackgroundImageFix"/>
<feColorMatrix in="SourceAlpha" type="matrix" values="0 0 0 0 0 0 0 0 0 0 0 0 0 0 0 0 0 0 127 0" result="hardAlpha"/>
<feOffset dy="4"/>
<feGaussianBlur stdDeviation="2.5"/>
<feComposite in2="hardAlpha" operator="out"/>
<feColorMatrix type="matrix" values="0 0 0 0 0.360784 0 0 0 0 0.0980392 0 0 0 0 0.0901961 0 0 0 0.7 0"/>
<feBlend mode="normal" in2="BackgroundImageFix" result="effect1_dropShadow_221_427"/>
<feBlend mode="normal" in="SourceGraphic" in2="effect1_dropShadow_221_427" result="shape"/>
</filter>
</defs>
</svg>
