<svg width="91" height="10" viewBox="0 0 91 10" fill="none" xmlns="http://www.w3.org/2000/svg">
<path d="M2.49 6.19V1.81H3.33V6.19H2.49ZM0.67 4.4V3.61H5.15V4.4H0.67ZM8.57031 0.42C9.20365 0.42 9.73698 0.556666 10.1703 0.829999C10.6103 1.10333 10.9436 1.5 11.1703 2.02C11.397 2.53333 11.5103 3.16333 11.5103 3.91C11.5103 4.70333 11.3703 5.37333 11.0903 5.92C10.8103 6.46667 10.4236 6.88 9.93031 7.16C9.43698 7.44 8.86031 7.58 8.20031 7.58C7.87365 7.58 7.55698 7.54667 7.25031 7.48C6.95031 7.41333 6.68698 7.31 6.46031 7.17L6.84031 6.39C7.02698 6.51 7.23365 6.59667 7.46031 6.65C7.69365 6.69667 7.93698 6.72 8.19031 6.72C8.89698 6.72 9.46031 6.5 9.88031 6.06C10.3003 5.61333 10.5103 4.95333 10.5103 4.08C10.5103 3.94 10.5036 3.77333 10.4903 3.58C10.477 3.38667 10.447 3.19667 10.4003 3.01L10.7303 3.35C10.637 3.65667 10.4803 3.91667 10.2603 4.13C10.047 4.33667 9.78698 4.49333 9.48031 4.6C9.18031 4.7 8.85031 4.75 8.49031 4.75C8.03031 4.75 7.62031 4.66333 7.26031 4.49C6.90031 4.31667 6.61698 4.07333 6.41031 3.76C6.20365 3.44 6.10031 3.06333 6.10031 2.63C6.10031 2.17667 6.20698 1.78667 6.42031 1.46C6.64031 1.12667 6.93698 0.87 7.31031 0.689999C7.69031 0.51 8.11031 0.42 8.57031 0.42ZM8.61031 1.23C8.31031 1.23 8.04365 1.28667 7.81031 1.4C7.57698 1.51333 7.39365 1.67 7.26031 1.87C7.13365 2.07 7.07031 2.31 7.07031 2.59C7.07031 3.00333 7.21365 3.33333 7.50031 3.58C7.78698 3.82 8.17365 3.94 8.66031 3.94C8.98031 3.94 9.26031 3.88 9.50031 3.76C9.74698 3.64 9.93698 3.47667 10.0703 3.27C10.2103 3.06333 10.2803 2.83333 10.2803 2.58C10.2803 2.33333 10.217 2.11 10.0903 1.91C9.96365 1.71 9.77698 1.54667 9.53031 1.42C9.28365 1.29333 8.97698 1.23 8.61031 1.23ZM13.6522 7.5V0.9L14.0822 1.37H12.0722V0.5H14.6422V7.5H13.6522ZM21.1289 0.42C21.7622 0.42 22.2956 0.556666 22.7289 0.829999C23.1689 1.10333 23.5022 1.5 23.7289 2.02C23.9556 2.53333 24.0689 3.16333 24.0689 3.91C24.0689 4.70333 23.9289 5.37333 23.6489 5.92C23.3689 6.46667 22.9822 6.88 22.4889 7.16C21.9956 7.44 21.4189 7.58 20.7589 7.58C20.4322 7.58 20.1156 7.54667 19.8089 7.48C19.5089 7.41333 19.2456 7.31 19.0189 7.17L19.3989 6.39C19.5856 6.51 19.7922 6.59667 20.0189 6.65C20.2522 6.69667 20.4956 6.72 20.7489 6.72C21.4556 6.72 22.0189 6.5 22.4389 6.06C22.8589 5.61333 23.0689 4.95333 23.0689 4.08C23.0689 3.94 23.0622 3.77333 23.0489 3.58C23.0356 3.38667 23.0056 3.19667 22.9589 3.01L23.2889 3.35C23.1956 3.65667 23.0389 3.91667 22.8189 4.13C22.6056 4.33667 22.3456 4.49333 22.0389 4.6C21.7389 4.7 21.4089 4.75 21.0489 4.75C20.5889 4.75 20.1789 4.66333 19.8189 4.49C19.4589 4.31667 19.1756 4.07333 18.9689 3.76C18.7622 3.44 18.6589 3.06333 18.6589 2.63C18.6589 2.17667 18.7656 1.78667 18.9789 1.46C19.1989 1.12667 19.4956 0.87 19.8689 0.689999C20.2489 0.51 20.6689 0.42 21.1289 0.42ZM21.1689 1.23C20.8689 1.23 20.6022 1.28667 20.3689 1.4C20.1356 1.51333 19.9522 1.67 19.8189 1.87C19.6922 2.07 19.6289 2.31 19.6289 2.59C19.6289 3.00333 19.7722 3.33333 20.0589 3.58C20.3456 3.82 20.7322 3.94 21.2189 3.94C21.5389 3.94 21.8189 3.88 22.0589 3.76C22.3056 3.64 22.4956 3.47667 22.6289 3.27C22.7689 3.06333 22.8389 2.83333 22.8389 2.58C22.8389 2.33333 22.7756 2.11 22.6489 1.91C22.5222 1.71 22.3356 1.54667 22.0889 1.42C21.8422 1.29333 21.5356 1.23 21.1689 1.23ZM27.7608 7.58C27.1941 7.58 26.7041 7.49667 26.2908 7.33C25.8774 7.16333 25.5574 6.92667 25.3308 6.62C25.1041 6.30667 24.9908 5.94 24.9908 5.52C24.9908 5.10667 25.0974 4.75667 25.3108 4.47C25.5308 4.17667 25.8474 3.95667 26.2608 3.81C26.6741 3.65667 27.1741 3.58 27.7608 3.58C28.3474 3.58 28.8474 3.65667 29.2608 3.81C29.6808 3.95667 30.0008 4.17667 30.2208 4.47C30.4408 4.76333 30.5508 5.11333 30.5508 5.52C30.5508 5.94 30.4374 6.30667 30.2108 6.62C29.9841 6.92667 29.6608 7.16333 29.2408 7.33C28.8208 7.49667 28.3274 7.58 27.7608 7.58ZM27.7608 6.77C28.3208 6.77 28.7574 6.65667 29.0708 6.43C29.3908 6.19667 29.5508 5.88333 29.5508 5.49C29.5508 5.10333 29.3908 4.8 29.0708 4.58C28.7574 4.35333 28.3208 4.24 27.7608 4.24C27.2074 4.24 26.7741 4.35333 26.4608 4.58C26.1474 4.8 25.9908 5.10333 25.9908 5.49C25.9908 5.88333 26.1474 6.19667 26.4608 6.43C26.7741 6.65667 27.2074 6.77 27.7608 6.77ZM27.7608 4.12C27.2274 4.12 26.7741 4.05 26.4008 3.91C26.0274 3.76333 25.7408 3.55667 25.5408 3.29C25.3408 3.01667 25.2408 2.69333 25.2408 2.32C25.2408 1.92667 25.3441 1.59 25.5508 1.31C25.7641 1.02333 26.0608 0.803333 26.4408 0.649999C26.8208 0.496666 27.2608 0.42 27.7608 0.42C28.2674 0.42 28.7108 0.496666 29.0908 0.649999C29.4708 0.803333 29.7674 1.02333 29.9808 1.31C30.1941 1.59 30.3008 1.92667 30.3008 2.32C30.3008 2.69333 30.2008 3.01667 30.0008 3.29C29.8008 3.55667 29.5108 3.76333 29.1308 3.91C28.7508 4.05 28.2941 4.12 27.7608 4.12ZM27.7608 3.48C28.2474 3.48 28.6274 3.38 28.9008 3.18C29.1808 2.98 29.3208 2.70667 29.3208 2.36C29.3208 2.00667 29.1774 1.73 28.8908 1.53C28.6041 1.33 28.2274 1.23 27.7608 1.23C27.2941 1.23 26.9208 1.33 26.6408 1.53C26.3674 1.73 26.2308 2.00667 26.2308 2.36C26.2308 2.70667 26.3641 2.98 26.6308 3.18C26.9041 3.38 27.2808 3.48 27.7608 3.48ZM33.7363 0.42C34.3697 0.42 34.903 0.556666 35.3363 0.829999C35.7763 1.10333 36.1097 1.5 36.3363 2.02C36.563 2.53333 36.6763 3.16333 36.6763 3.91C36.6763 4.70333 36.5363 5.37333 36.2563 5.92C35.9763 6.46667 35.5897 6.88 35.0963 7.16C34.603 7.44 34.0263 7.58 33.3663 7.58C33.0397 7.58 32.723 7.54667 32.4163 7.48C32.1163 7.41333 31.853 7.31 31.6263 7.17L32.0063 6.39C32.193 6.51 32.3997 6.59667 32.6263 6.65C32.8597 6.69667 33.103 6.72 33.3563 6.72C34.063 6.72 34.6263 6.5 35.0463 6.06C35.4663 5.61333 35.6763 4.95333 35.6763 4.08C35.6763 3.94 35.6697 3.77333 35.6563 3.58C35.643 3.38667 35.613 3.19667 35.5663 3.01L35.8963 3.35C35.803 3.65667 35.6463 3.91667 35.4263 4.13C35.213 4.33667 34.953 4.49333 34.6463 4.6C34.3463 4.7 34.0163 4.75 33.6563 4.75C33.1963 4.75 32.7863 4.66333 32.4263 4.49C32.0663 4.31667 31.783 4.07333 31.5763 3.76C31.3697 3.44 31.2663 3.06333 31.2663 2.63C31.2663 2.17667 31.373 1.78667 31.5863 1.46C31.8063 1.12667 32.103 0.87 32.4763 0.689999C32.8563 0.51 33.2763 0.42 33.7363 0.42ZM33.7763 1.23C33.4763 1.23 33.2097 1.28667 32.9763 1.4C32.743 1.51333 32.5597 1.67 32.4263 1.87C32.2997 2.07 32.2363 2.31 32.2363 2.59C32.2363 3.00333 32.3797 3.33333 32.6663 3.58C32.953 3.82 33.3397 3.94 33.8263 3.94C34.1463 3.94 34.4263 3.88 34.6663 3.76C34.913 3.64 35.103 3.47667 35.2363 3.27C35.3763 3.06333 35.4463 2.83333 35.4463 2.58C35.4463 2.33333 35.383 2.11 35.2563 1.91C35.1297 1.71 34.943 1.54667 34.6963 1.42C34.4497 1.29333 34.143 1.23 33.7763 1.23ZM37.5382 5.78V5.08L41.1182 0.5H42.1982L38.6482 5.08L38.1382 4.92H43.7282V5.78H37.5382ZM41.4282 7.5V5.78L41.4582 4.92V3.4H42.3982V7.5H41.4282ZM47.1553 7.58C46.5886 7.58 46.0986 7.49667 45.6853 7.33C45.272 7.16333 44.952 6.92667 44.7253 6.62C44.4986 6.30667 44.3853 5.94 44.3853 5.52C44.3853 5.10667 44.492 4.75667 44.7053 4.47C44.9253 4.17667 45.242 3.95667 45.6553 3.81C46.0686 3.65667 46.5686 3.58 47.1553 3.58C47.742 3.58 48.242 3.65667 48.6553 3.81C49.0753 3.95667 49.3953 4.17667 49.6153 4.47C49.8353 4.76333 49.9453 5.11333 49.9453 5.52C49.9453 5.94 49.832 6.30667 49.6053 6.62C49.3786 6.92667 49.0553 7.16333 48.6353 7.33C48.2153 7.49667 47.722 7.58 47.1553 7.58ZM47.1553 6.77C47.7153 6.77 48.152 6.65667 48.4653 6.43C48.7853 6.19667 48.9453 5.88333 48.9453 5.49C48.9453 5.10333 48.7853 4.8 48.4653 4.58C48.152 4.35333 47.7153 4.24 47.1553 4.24C46.602 4.24 46.1686 4.35333 45.8553 4.58C45.542 4.8 45.3853 5.10333 45.3853 5.49C45.3853 5.88333 45.542 6.19667 45.8553 6.43C46.1686 6.65667 46.602 6.77 47.1553 6.77ZM47.1553 4.12C46.622 4.12 46.1686 4.05 45.7953 3.91C45.422 3.76333 45.1353 3.55667 44.9353 3.29C44.7353 3.01667 44.6353 2.69333 44.6353 2.32C44.6353 1.92667 44.7386 1.59 44.9453 1.31C45.1586 1.02333 45.4553 0.803333 45.8353 0.649999C46.2153 0.496666 46.6553 0.42 47.1553 0.42C47.662 0.42 48.1053 0.496666 48.4853 0.649999C48.8653 0.803333 49.162 1.02333 49.3753 1.31C49.5886 1.59 49.6953 1.92667 49.6953 2.32C49.6953 2.69333 49.5953 3.01667 49.3953 3.29C49.1953 3.55667 48.9053 3.76333 48.5253 3.91C48.1453 4.05 47.6886 4.12 47.1553 4.12ZM47.1553 3.48C47.642 3.48 48.022 3.38 48.2953 3.18C48.5753 2.98 48.7153 2.70667 48.7153 2.36C48.7153 2.00667 48.572 1.73 48.2853 1.53C47.9986 1.33 47.622 1.23 47.1553 1.23C46.6886 1.23 46.3153 1.33 46.0353 1.53C45.762 1.73 45.6253 2.00667 45.6253 2.36C45.6253 2.70667 45.7586 2.98 46.0253 3.18C46.2986 3.38 46.6753 3.48 47.1553 3.48ZM53.4464 5.78V5.08L57.0264 0.5H58.1064L54.5564 5.08L54.0464 4.92H59.6364V5.78H53.4464ZM57.3364 7.5V5.78L57.3664 4.92V3.4H58.3064V7.5H57.3364ZM60.1359 5.78V5.08L63.7159 0.5H64.7959L61.2459 5.08L60.7359 4.92H66.3259V5.78H60.1359ZM64.0259 7.5V5.78L64.0559 4.92V3.4H64.9959V7.5H64.0259ZM69.8653 7.58C69.2453 7.58 68.7153 7.44333 68.2753 7.17C67.8353 6.89667 67.4986 6.50333 67.2653 5.99C67.0386 5.47 66.9253 4.83667 66.9253 4.09C66.9253 3.29667 67.0653 2.62667 67.3453 2.08C67.6253 1.53333 68.0153 1.12 68.5153 0.84C69.0153 0.56 69.5886 0.42 70.2353 0.42C70.5686 0.42 70.8853 0.453333 71.1853 0.52C71.492 0.586666 71.7553 0.69 71.9753 0.829999L71.5953 1.61C71.4153 1.48333 71.2086 1.39667 70.9753 1.35C70.7486 1.30333 70.5086 1.28 70.2553 1.28C69.542 1.28 68.9753 1.50333 68.5553 1.95C68.1353 2.39 67.9253 3.04667 67.9253 3.92C67.9253 4.06 67.932 4.22667 67.9453 4.42C67.9586 4.61333 67.992 4.80333 68.0453 4.99L67.7053 4.65C67.8053 4.34333 67.962 4.08667 68.1753 3.88C68.3953 3.66667 68.6553 3.51 68.9553 3.41C69.262 3.30333 69.592 3.25 69.9453 3.25C70.412 3.25 70.8253 3.33667 71.1853 3.51C71.5453 3.68333 71.8286 3.93 72.0353 4.25C72.242 4.56333 72.3453 4.93667 72.3453 5.37C72.3453 5.81667 72.2353 6.20667 72.0153 6.54C71.7953 6.87333 71.4986 7.13 71.1253 7.31C70.752 7.49 70.332 7.58 69.8653 7.58ZM69.8253 6.77C70.132 6.77 70.3986 6.71333 70.6253 6.6C70.8586 6.48667 71.042 6.33 71.1753 6.13C71.3086 5.92333 71.3753 5.68333 71.3753 5.41C71.3753 4.99667 71.232 4.67 70.9453 4.43C70.6586 4.18333 70.2686 4.06 69.7753 4.06C69.4553 4.06 69.1753 4.12 68.9353 4.24C68.6953 4.36 68.5053 4.52333 68.3653 4.73C68.232 4.93 68.1653 5.16 68.1653 5.42C68.1653 5.66 68.2286 5.88333 68.3553 6.09C68.482 6.29 68.6686 6.45333 68.9153 6.58C69.162 6.70667 69.4653 6.77 69.8253 6.77ZM75.9572 7.58C75.4105 7.58 74.9205 7.44 74.4872 7.16C74.0605 6.88 73.7205 6.47333 73.4672 5.94C73.2205 5.40667 73.0972 4.76 73.0972 4C73.0972 3.24 73.2205 2.59333 73.4672 2.06C73.7205 1.52667 74.0605 1.12 74.4872 0.84C74.9205 0.56 75.4105 0.42 75.9572 0.42C76.4972 0.42 76.9839 0.56 77.4172 0.84C77.8505 1.12 78.1905 1.52667 78.4372 2.06C78.6839 2.59333 78.8072 3.24 78.8072 4C78.8072 4.76 78.6839 5.40667 78.4372 5.94C78.1905 6.47333 77.8505 6.88 77.4172 7.16C76.9839 7.44 76.4972 7.58 75.9572 7.58ZM75.9572 6.69C76.3239 6.69 76.6439 6.59 76.9172 6.39C77.1972 6.19 77.4139 5.89 77.5672 5.49C77.7272 5.09 77.8072 4.59333 77.8072 4C77.8072 3.40667 77.7272 2.91 77.5672 2.51C77.4139 2.11 77.1972 1.81 76.9172 1.61C76.6439 1.41 76.3239 1.31 75.9572 1.31C75.5905 1.31 75.2672 1.41 74.9872 1.61C74.7072 1.81 74.4872 2.11 74.3272 2.51C74.1739 2.91 74.0972 3.40667 74.0972 4C74.0972 4.59333 74.1739 5.09 74.3272 5.49C74.4872 5.89 74.7072 6.19 74.9872 6.39C75.2672 6.59 75.5905 6.69 75.9572 6.69ZM82.0371 0.42C82.6704 0.42 83.2038 0.556666 83.6371 0.829999C84.0771 1.10333 84.4104 1.5 84.6371 2.02C84.8638 2.53333 84.9771 3.16333 84.9771 3.91C84.9771 4.70333 84.8371 5.37333 84.5571 5.92C84.2771 6.46667 83.8904 6.88 83.3971 7.16C82.9038 7.44 82.3271 7.58 81.6671 7.58C81.3404 7.58 81.0238 7.54667 80.7171 7.48C80.4171 7.41333 80.1538 7.31 79.9271 7.17L80.3071 6.39C80.4938 6.51 80.7004 6.59667 80.9271 6.65C81.1604 6.69667 81.4038 6.72 81.6571 6.72C82.3638 6.72 82.9271 6.5 83.3471 6.06C83.7671 5.61333 83.9771 4.95333 83.9771 4.08C83.9771 3.94 83.9704 3.77333 83.9571 3.58C83.9438 3.38667 83.9138 3.19667 83.8671 3.01L84.1971 3.35C84.1038 3.65667 83.9471 3.91667 83.7271 4.13C83.5138 4.33667 83.2538 4.49333 82.9471 4.6C82.6471 4.7 82.3171 4.75 81.9571 4.75C81.4971 4.75 81.0871 4.66333 80.7271 4.49C80.3671 4.31667 80.0838 4.07333 79.8771 3.76C79.6704 3.44 79.5671 3.06333 79.5671 2.63C79.5671 2.17667 79.6738 1.78667 79.8871 1.46C80.1071 1.12667 80.4038 0.87 80.7771 0.689999C81.1571 0.51 81.5771 0.42 82.0371 0.42ZM82.0771 1.23C81.7771 1.23 81.5104 1.28667 81.2771 1.4C81.0438 1.51333 80.8604 1.67 80.7271 1.87C80.6004 2.07 80.5371 2.31 80.5371 2.59C80.5371 3.00333 80.6804 3.33333 80.9671 3.58C81.2538 3.82 81.6404 3.94 82.1271 3.94C82.4471 3.94 82.7271 3.88 82.9671 3.76C83.2138 3.64 83.4038 3.47667 83.5371 3.27C83.6771 3.06333 83.7471 2.83333 83.7471 2.58C83.7471 2.33333 83.6838 2.11 83.5571 1.91C83.4304 1.71 83.2438 1.54667 82.9971 1.42C82.7504 1.29333 82.4438 1.23 82.0771 1.23ZM89.1945 9.44V0.0799996H90.0845V9.44H89.1945Z" fill="white"/>
</svg>
