<svg width="78" height="8" viewBox="0 0 78 8" fill="none" xmlns="http://www.w3.org/2000/svg">
<path d="M2.49 6.19V1.81H3.33V6.19H2.49ZM0.67 4.4V3.61H5.15V4.4H0.67ZM8.57031 0.42C9.20365 0.42 9.73698 0.556666 10.1703 0.829999C10.6103 1.10333 10.9436 1.5 11.1703 2.02C11.397 2.53333 11.5103 3.16333 11.5103 3.91C11.5103 4.70333 11.3703 5.37333 11.0903 5.92C10.8103 6.46667 10.4236 6.88 9.93031 7.16C9.43698 7.44 8.86031 7.58 8.20031 7.58C7.87365 7.58 7.55698 7.54667 7.25031 7.48C6.95031 7.41333 6.68698 7.31 6.46031 7.17L6.84031 6.39C7.02698 6.51 7.23365 6.59667 7.46031 6.65C7.69365 6.69667 7.93698 6.72 8.19031 6.72C8.89698 6.72 9.46031 6.5 9.88031 6.06C10.3003 5.61333 10.5103 4.95333 10.5103 4.08C10.5103 3.94 10.5036 3.77333 10.4903 3.58C10.477 3.38667 10.447 3.19667 10.4003 3.01L10.7303 3.35C10.637 3.65667 10.4803 3.91667 10.2603 4.13C10.047 4.33667 9.78698 4.49333 9.48031 4.6C9.18031 4.7 8.85031 4.75 8.49031 4.75C8.03031 4.75 7.62031 4.66333 7.26031 4.49C6.90031 4.31667 6.61698 4.07333 6.41031 3.76C6.20365 3.44 6.10031 3.06333 6.10031 2.63C6.10031 2.17667 6.20698 1.78667 6.42031 1.46C6.64031 1.12667 6.93698 0.87 7.31031 0.689999C7.69031 0.51 8.11031 0.42 8.57031 0.42ZM8.61031 1.23C8.31031 1.23 8.04365 1.28667 7.81031 1.4C7.57698 1.51333 7.39365 1.67 7.26031 1.87C7.13365 2.07 7.07031 2.31 7.07031 2.59C7.07031 3.00333 7.21365 3.33333 7.50031 3.58C7.78698 3.82 8.17365 3.94 8.66031 3.94C8.98031 3.94 9.26031 3.88 9.50031 3.76C9.74698 3.64 9.93698 3.47667 10.0703 3.27C10.2103 3.06333 10.2803 2.83333 10.2803 2.58C10.2803 2.33333 10.217 2.11 10.0903 1.91C9.96365 1.71 9.77698 1.54667 9.53031 1.42C9.28365 1.29333 8.97698 1.23 8.61031 1.23ZM13.6522 7.5V0.9L14.0822 1.37H12.0722V0.5H14.6422V7.5H13.6522ZM21.1289 0.42C21.7622 0.42 22.2956 0.556666 22.7289 0.829999C23.1689 1.10333 23.5022 1.5 23.7289 2.02C23.9556 2.53333 24.0689 3.16333 24.0689 3.91C24.0689 4.70333 23.9289 5.37333 23.6489 5.92C23.3689 6.46667 22.9822 6.88 22.4889 7.16C21.9956 7.44 21.4189 7.58 20.7589 7.58C20.4322 7.58 20.1156 7.54667 19.8089 7.48C19.5089 7.41333 19.2456 7.31 19.0189 7.17L19.3989 6.39C19.5856 6.51 19.7922 6.59667 20.0189 6.65C20.2522 6.69667 20.4956 6.72 20.7489 6.72C21.4556 6.72 22.0189 6.5 22.4389 6.06C22.8589 5.61333 23.0689 4.95333 23.0689 4.08C23.0689 3.94 23.0622 3.77333 23.0489 3.58C23.0356 3.38667 23.0056 3.19667 22.9589 3.01L23.2889 3.35C23.1956 3.65667 23.0389 3.91667 22.8189 4.13C22.6056 4.33667 22.3456 4.49333 22.0389 4.6C21.7389 4.7 21.4089 4.75 21.0489 4.75C20.5889 4.75 20.1789 4.66333 19.8189 4.49C19.4589 4.31667 19.1756 4.07333 18.9689 3.76C18.7622 3.44 18.6589 3.06333 18.6589 2.63C18.6589 2.17667 18.7656 1.78667 18.9789 1.46C19.1989 1.12667 19.4956 0.87 19.8689 0.689999C20.2489 0.51 20.6689 0.42 21.1289 0.42ZM21.1689 1.23C20.8689 1.23 20.6022 1.28667 20.3689 1.4C20.1356 1.51333 19.9522 1.67 19.8189 1.87C19.6922 2.07 19.6289 2.31 19.6289 2.59C19.6289 3.00333 19.7722 3.33333 20.0589 3.58C20.3456 3.82 20.7322 3.94 21.2189 3.94C21.5389 3.94 21.8189 3.88 22.0589 3.76C22.3056 3.64 22.4956 3.47667 22.6289 3.27C22.7689 3.06333 22.8389 2.83333 22.8389 2.58C22.8389 2.33333 22.7756 2.11 22.6489 1.91C22.5222 1.71 22.3356 1.54667 22.0889 1.42C21.8422 1.29333 21.5356 1.23 21.1689 1.23ZM27.9708 7.58C27.3508 7.58 26.8208 7.44333 26.3808 7.17C25.9408 6.89667 25.6041 6.50333 25.3708 5.99C25.1441 5.47 25.0308 4.83667 25.0308 4.09C25.0308 3.29667 25.1708 2.62667 25.4508 2.08C25.7308 1.53333 26.1208 1.12 26.6208 0.84C27.1208 0.56 27.6941 0.42 28.3408 0.42C28.6741 0.42 28.9908 0.453333 29.2908 0.52C29.5974 0.586666 29.8608 0.69 30.0808 0.829999L29.7008 1.61C29.5208 1.48333 29.3141 1.39667 29.0808 1.35C28.8541 1.30333 28.6141 1.28 28.3608 1.28C27.6474 1.28 27.0808 1.50333 26.6608 1.95C26.2408 2.39 26.0308 3.04667 26.0308 3.92C26.0308 4.06 26.0374 4.22667 26.0508 4.42C26.0641 4.61333 26.0974 4.80333 26.1508 4.99L25.8108 4.65C25.9108 4.34333 26.0674 4.08667 26.2808 3.88C26.5008 3.66667 26.7608 3.51 27.0608 3.41C27.3674 3.30333 27.6974 3.25 28.0508 3.25C28.5174 3.25 28.9308 3.33667 29.2908 3.51C29.6508 3.68333 29.9341 3.93 30.1408 4.25C30.3474 4.56333 30.4508 4.93667 30.4508 5.37C30.4508 5.81667 30.3408 6.20667 30.1208 6.54C29.9008 6.87333 29.6041 7.13 29.2308 7.31C28.8574 7.49 28.4374 7.58 27.9708 7.58ZM27.9308 6.77C28.2374 6.77 28.5041 6.71333 28.7308 6.6C28.9641 6.48667 29.1474 6.33 29.2808 6.13C29.4141 5.92333 29.4808 5.68333 29.4808 5.41C29.4808 4.99667 29.3374 4.67 29.0508 4.43C28.7641 4.18333 28.3741 4.06 27.8808 4.06C27.5608 4.06 27.2808 4.12 27.0408 4.24C26.8008 4.36 26.6108 4.52333 26.4708 4.73C26.3374 4.93 26.2708 5.16 26.2708 5.42C26.2708 5.66 26.3341 5.88333 26.4608 6.09C26.5874 6.29 26.7741 6.45333 27.0208 6.58C27.2674 6.70667 27.5708 6.77 27.9308 6.77ZM34.0627 7.58C33.516 7.58 33.026 7.44 32.5927 7.16C32.166 6.88 31.826 6.47333 31.5727 5.94C31.326 5.40667 31.2027 4.76 31.2027 4C31.2027 3.24 31.326 2.59333 31.5727 2.06C31.826 1.52667 32.166 1.12 32.5927 0.84C33.026 0.56 33.516 0.42 34.0627 0.42C34.6027 0.42 35.0893 0.56 35.5227 0.84C35.956 1.12 36.296 1.52667 36.5427 2.06C36.7893 2.59333 36.9127 3.24 36.9127 4C36.9127 4.76 36.7893 5.40667 36.5427 5.94C36.296 6.47333 35.956 6.88 35.5227 7.16C35.0893 7.44 34.6027 7.58 34.0627 7.58ZM34.0627 6.69C34.4293 6.69 34.7493 6.59 35.0227 6.39C35.3027 6.19 35.5193 5.89 35.6727 5.49C35.8327 5.09 35.9127 4.59333 35.9127 4C35.9127 3.40667 35.8327 2.91 35.6727 2.51C35.5193 2.11 35.3027 1.81 35.0227 1.61C34.7493 1.41 34.4293 1.31 34.0627 1.31C33.696 1.31 33.3727 1.41 33.0927 1.61C32.8127 1.81 32.5927 2.11 32.4327 2.51C32.2793 2.91 32.2027 3.40667 32.2027 4C32.2027 4.59333 32.2793 5.09 32.4327 5.49C32.5927 5.89 32.8127 6.19 33.0927 6.39C33.3727 6.59 33.696 6.69 34.0627 6.69ZM40.7326 7.58C40.1859 7.58 39.6959 7.44 39.2626 7.16C38.8359 6.88 38.4959 6.47333 38.2426 5.94C37.9959 5.40667 37.8726 4.76 37.8726 4C37.8726 3.24 37.9959 2.59333 38.2426 2.06C38.4959 1.52667 38.8359 1.12 39.2626 0.84C39.6959 0.56 40.1859 0.42 40.7326 0.42C41.2726 0.42 41.7592 0.56 42.1926 0.84C42.6259 1.12 42.9659 1.52667 43.2126 2.06C43.4592 2.59333 43.5826 3.24 43.5826 4C43.5826 4.76 43.4592 5.40667 43.2126 5.94C42.9659 6.47333 42.6259 6.88 42.1926 7.16C41.7592 7.44 41.2726 7.58 40.7326 7.58ZM40.7326 6.69C41.0992 6.69 41.4192 6.59 41.6926 6.39C41.9726 6.19 42.1892 5.89 42.3426 5.49C42.5026 5.09 42.5826 4.59333 42.5826 4C42.5826 3.40667 42.5026 2.91 42.3426 2.51C42.1892 2.11 41.9726 1.81 41.6926 1.61C41.4192 1.41 41.0992 1.31 40.7326 1.31C40.3659 1.31 40.0426 1.41 39.7626 1.61C39.4826 1.81 39.2626 2.11 39.1026 2.51C38.9492 2.91 38.8726 3.40667 38.8726 4C38.8726 4.59333 38.9492 5.09 39.1026 5.49C39.2626 5.89 39.4826 6.19 39.7626 6.39C40.0426 6.59 40.3659 6.69 40.7326 6.69ZM44.4425 5.78V5.08L48.0225 0.5H49.1025L45.5525 5.08L45.0425 4.92H50.6325V5.78H44.4425ZM48.3325 7.5V5.78L48.3625 4.92V3.4H49.3025V7.5H48.3325ZM51.9732 7.5L54.9432 0.919999L55.2032 1.37H51.0432L51.5432 0.879999V2.62H50.5832V0.5H55.8632V1.18L53.0332 7.5H51.9732ZM59.0098 0.42C59.6431 0.42 60.1764 0.556666 60.6098 0.829999C61.0498 1.10333 61.3831 1.5 61.6098 2.02C61.8364 2.53333 61.9498 3.16333 61.9498 3.91C61.9498 4.70333 61.8098 5.37333 61.5298 5.92C61.2498 6.46667 60.8631 6.88 60.3698 7.16C59.8764 7.44 59.2998 7.58 58.6398 7.58C58.3131 7.58 57.9964 7.54667 57.6898 7.48C57.3898 7.41333 57.1264 7.31 56.8998 7.17L57.2798 6.39C57.4664 6.51 57.6731 6.59667 57.8998 6.65C58.1331 6.69667 58.3764 6.72 58.6298 6.72C59.3364 6.72 59.8998 6.5 60.3198 6.06C60.7398 5.61333 60.9498 4.95333 60.9498 4.08C60.9498 3.94 60.9431 3.77333 60.9298 3.58C60.9164 3.38667 60.8864 3.19667 60.8398 3.01L61.1698 3.35C61.0764 3.65667 60.9198 3.91667 60.6998 4.13C60.4864 4.33667 60.2264 4.49333 59.9198 4.6C59.6198 4.7 59.2898 4.75 58.9298 4.75C58.4698 4.75 58.0598 4.66333 57.6998 4.49C57.3398 4.31667 57.0564 4.07333 56.8498 3.76C56.6431 3.44 56.5398 3.06333 56.5398 2.63C56.5398 2.17667 56.6464 1.78667 56.8598 1.46C57.0798 1.12667 57.3764 0.87 57.7498 0.689999C58.1298 0.51 58.5498 0.42 59.0098 0.42ZM59.0498 1.23C58.7498 1.23 58.4831 1.28667 58.2498 1.4C58.0164 1.51333 57.8331 1.67 57.6998 1.87C57.5731 2.07 57.5098 2.31 57.5098 2.59C57.5098 3.00333 57.6531 3.33333 57.9398 3.58C58.2264 3.82 58.6131 3.94 59.0998 3.94C59.4198 3.94 59.6998 3.88 59.9398 3.76C60.1864 3.64 60.3764 3.47667 60.5098 3.27C60.6498 3.06333 60.7198 2.83333 60.7198 2.58C60.7198 2.33333 60.6564 2.11 60.5298 1.91C60.4031 1.71 60.2164 1.54667 59.9698 1.42C59.7231 1.29333 59.4164 1.23 59.0498 1.23ZM64.0916 7.5V0.9L64.5216 1.37H62.5116V0.5H65.0816V7.5H64.0916ZM68.8728 7.58C68.3795 7.58 67.8995 7.50333 67.4328 7.35C66.9728 7.19667 66.5961 6.99 66.3028 6.73L66.7628 5.94C66.9961 6.16 67.2995 6.34 67.6728 6.48C68.0461 6.62 68.4428 6.69 68.8628 6.69C69.3961 6.69 69.8061 6.57667 70.0928 6.35C70.3795 6.12333 70.5228 5.82 70.5228 5.44C70.5228 5.18 70.4595 4.95333 70.3328 4.76C70.2061 4.56667 69.9861 4.42 69.6728 4.32C69.3661 4.21333 68.9428 4.16 68.4028 4.16H66.8128L67.1828 0.5H71.1328V1.37H67.5528L68.0728 0.879999L67.7828 3.77L67.2628 3.29H68.6128C69.3128 3.29 69.8761 3.38 70.3028 3.56C70.7295 3.74 71.0395 3.99 71.2328 4.31C71.4261 4.62333 71.5228 4.98667 71.5228 5.4C71.5228 5.8 71.4261 6.16667 71.2328 6.5C71.0395 6.82667 70.7461 7.09 70.3528 7.29C69.9661 7.48333 69.4728 7.58 68.8728 7.58ZM74.5662 7.58C74.0728 7.58 73.5928 7.50333 73.1262 7.35C72.6662 7.19667 72.2895 6.99 71.9962 6.73L72.4562 5.94C72.6895 6.16 72.9928 6.34 73.3662 6.48C73.7395 6.62 74.1362 6.69 74.5562 6.69C75.0895 6.69 75.4995 6.57667 75.7862 6.35C76.0728 6.12333 76.2162 5.82 76.2162 5.44C76.2162 5.18 76.1528 4.95333 76.0262 4.76C75.8995 4.56667 75.6795 4.42 75.3662 4.32C75.0595 4.21333 74.6362 4.16 74.0962 4.16H72.5062L72.8762 0.5H76.8262V1.37H73.2462L73.7662 0.879999L73.4762 3.77L72.9562 3.29H74.3062C75.0062 3.29 75.5695 3.38 75.9962 3.56C76.4228 3.74 76.7328 3.99 76.9262 4.31C77.1195 4.62333 77.2162 4.98667 77.2162 5.4C77.2162 5.8 77.1195 6.16667 76.9262 6.5C76.7328 6.82667 76.4395 7.09 76.0462 7.29C75.6595 7.48333 75.1662 7.58 74.5662 7.58Z" fill="white"/>
</svg>
