<svg width="237" height="48" viewBox="0 0 237 48" fill="none" xmlns="http://www.w3.org/2000/svg">
<g filter="url(#filter0_d_221_448)">
<rect x="4.5" y="1.5" width="228" height="39" stroke="#DF3228" shape-rendering="crispEdges"/>
</g>
<path fill-rule="evenodd" clip-rule="evenodd" d="M17 15.0002C17.0733 15.0002 17.2426 15.0435 17.49 15.3109C17.7313 15.5709 17.986 15.9829 18.2173 16.5415C18.366 16.8995 18.4993 17.3049 18.6126 17.7495C17.5404 17.6381 16.4595 17.6381 15.3873 17.7495C15.5006 17.3049 15.634 16.8995 15.7826 16.5415C16.014 15.9829 16.2686 15.5709 16.5093 15.3102C16.7573 15.0435 16.926 15.0002 17 15.0002ZM15.1233 19.1235C15.7454 19.0404 16.3723 18.9992 17 19.0002C17.6566 19.0002 18.2866 19.0442 18.8766 19.1235C18.956 19.7135 19 20.3435 19 21.0002C19 21.6569 18.956 22.2869 18.8766 22.8769C18.2545 22.96 17.6276 23.0012 17 23.0002C16.3433 23.0002 15.7133 22.9562 15.1233 22.8769C15.0402 22.2548 14.999 21.6278 15 21.0002C15 20.3435 15.044 19.7135 15.1233 19.1235ZM13.75 22.6129C13.6385 21.5406 13.6385 20.4598 13.75 19.3875C13.3046 19.5009 12.8986 19.6342 12.5413 19.7829C11.9826 20.0142 11.5706 20.2689 11.31 20.5095C11.0433 20.7575 11 20.9262 11 21.0002C11 21.0742 11.0433 21.2429 11.31 21.4902C11.5706 21.7315 11.9826 21.9862 12.5413 22.2175C12.9341 22.3778 13.3384 22.5099 13.75 22.6129ZM15.3873 24.2509C16.4595 24.3623 17.5404 24.3623 18.6126 24.2509C18.4993 24.6955 18.366 25.1015 18.2173 25.4589C17.986 26.0175 17.7313 26.4295 17.4906 26.6902C17.2426 26.9569 17.074 27.0002 17 27.0002C16.926 27.0002 16.7573 26.9569 16.51 26.6902C16.2686 26.4295 16.014 26.0175 15.7826 25.4589C15.6223 25.0661 15.4902 24.6624 15.3873 24.2509ZM20.25 22.6129C20.3614 21.5406 20.3614 20.4598 20.25 19.3875C20.6617 19.4904 21.0656 19.6225 21.4586 19.7829C22.0173 20.0142 22.4293 20.2689 22.69 20.5095C22.9566 20.7575 23 20.9262 23 21.0002C23 21.0742 22.9566 21.2429 22.69 21.4902C22.4293 21.7315 22.0173 21.9862 21.4586 22.2175C21.1006 22.3662 20.6946 22.4995 20.25 22.6129ZM20.0313 17.9689C19.898 17.3062 19.7031 16.6574 19.4493 16.0309C19.2046 15.4415 18.9106 14.9209 18.57 14.5195C19.76 14.8092 20.8475 15.4205 21.7136 16.2866C22.5797 17.1526 23.191 18.2401 23.4806 19.4302C23.0793 19.0902 22.5586 18.7955 21.9693 18.5509C21.3428 18.297 20.694 18.1022 20.0313 17.9689ZM20.0313 24.0315C19.898 24.6942 19.7031 25.343 19.4493 25.9695C19.2046 26.5589 18.9106 27.0795 18.57 27.4809C19.76 27.1912 20.8475 26.5799 21.7136 25.7138C22.5797 24.8478 23.191 23.7603 23.4806 22.5702C23.0793 22.9102 22.5586 23.2049 21.9693 23.4495C21.402 23.6849 20.748 23.8829 20.0313 24.0315ZM15.43 27.4809C15.09 27.0795 14.7953 26.5589 14.5506 25.9695C14.2968 25.343 14.1019 24.6942 13.9686 24.0315C13.3059 23.8982 12.6571 23.7034 12.0306 23.4495C11.4413 23.2049 10.92 22.9109 10.5193 22.5702C10.809 23.7603 11.4202 24.8478 12.2863 25.7138C13.1524 26.5799 14.2399 27.1912 15.43 27.4809ZM13.9686 17.9689C14.1173 17.2522 14.3153 16.5982 14.5506 16.0309C14.7953 15.4415 15.0893 14.9209 15.43 14.5195C14.2399 14.8092 13.1524 15.4205 12.2863 16.2866C11.4202 17.1526 10.809 18.2401 10.5193 19.4302C10.92 19.0902 11.4413 18.7955 12.0306 18.5509C12.6571 18.297 13.3059 18.1022 13.9686 17.9689Z" fill="white"/>
<path d="M35.03 24.5L33.06 19.2H33.97L35.72 24H35.29L37.11 19.2H37.92L39.7 24H39.28L41.07 19.2H41.93L39.95 24.5H39.03L37.36 20.12H37.64L35.95 24.5H35.03ZM43.946 24.5L41.976 19.2H42.886L44.636 24H44.206L46.026 19.2H46.836L48.616 24H48.196L49.986 19.2H50.846L48.866 24.5H47.946L46.276 20.12H46.556L44.866 24.5H43.946ZM52.862 24.5L50.892 19.2H51.802L53.552 24H53.122L54.942 19.2H55.752L57.532 24H57.112L58.902 19.2H59.762L57.782 24.5H56.862L55.192 20.12H55.472L53.782 24.5H52.862ZM60.6341 24.56C60.4475 24.56 60.2875 24.4967 60.1541 24.37C60.0208 24.2367 59.9541 24.07 59.9541 23.87C59.9541 23.67 60.0208 23.5067 60.1541 23.38C60.2875 23.2533 60.4475 23.19 60.6341 23.19C60.8141 23.19 60.9675 23.2533 61.0941 23.38C61.2275 23.5067 61.2941 23.67 61.2941 23.87C61.2941 24.07 61.2275 24.2367 61.0941 24.37C60.9675 24.4967 60.8141 24.56 60.6341 24.56ZM62.0519 22.78V22.08L65.6319 17.5H66.7119L63.1619 22.08L62.6519 21.92H68.2419V22.78H62.0519ZM65.9419 24.5V22.78L65.9719 21.92V20.4H66.9119V24.5H65.9419ZM75.9013 19.15C76.328 19.15 76.7047 19.2333 77.0313 19.4C77.358 19.5667 77.6113 19.82 77.7913 20.16C77.978 20.5 78.0713 20.93 78.0713 21.45V24.5H77.1113V21.56C77.1113 21.0467 76.9913 20.66 76.7513 20.4C76.5113 20.14 76.1747 20.01 75.7413 20.01C75.4213 20.01 75.1413 20.0767 74.9013 20.21C74.6613 20.3433 74.4747 20.54 74.3413 20.8C74.2147 21.06 74.1513 21.3833 74.1513 21.77V24.5H73.1913V21.56C73.1913 21.0467 73.0713 20.66 72.8313 20.4C72.598 20.14 72.2613 20.01 71.8213 20.01C71.508 20.01 71.2313 20.0767 70.9913 20.21C70.7513 20.3433 70.5647 20.54 70.4313 20.8C70.298 21.06 70.2313 21.3833 70.2313 21.77V24.5H69.2713V19.2H70.1913V20.61L70.0413 20.25C70.208 19.9033 70.4647 19.6333 70.8113 19.44C71.158 19.2467 71.5613 19.15 72.0213 19.15C72.528 19.15 72.9647 19.2767 73.3313 19.53C73.698 19.7767 73.938 20.1533 74.0513 20.66L73.6613 20.5C73.8213 20.0933 74.1013 19.7667 74.5013 19.52C74.9013 19.2733 75.368 19.15 75.9013 19.15ZM82.6477 24.56C82.2077 24.56 81.8044 24.46 81.4377 24.26C81.0777 24.0533 80.7877 23.75 80.5677 23.35C80.3544 22.95 80.2477 22.45 80.2477 21.85C80.2477 21.25 80.3511 20.75 80.5577 20.35C80.7711 19.95 81.0577 19.65 81.4177 19.45C81.7844 19.25 82.1944 19.15 82.6477 19.15C83.1677 19.15 83.6277 19.2633 84.0277 19.49C84.4277 19.7167 84.7444 20.0333 84.9777 20.44C85.2111 20.84 85.3277 21.31 85.3277 21.85C85.3277 22.39 85.2111 22.8633 84.9777 23.27C84.7444 23.6767 84.4277 23.9933 84.0277 24.22C83.6277 24.4467 83.1677 24.56 82.6477 24.56ZM79.8377 26.44V19.2H80.7577V20.63L80.6977 21.86L80.7977 23.09V26.44H79.8377ZM82.5677 23.72C82.9077 23.72 83.2111 23.6433 83.4777 23.49C83.7511 23.3367 83.9644 23.12 84.1177 22.84C84.2777 22.5533 84.3577 22.2233 84.3577 21.85C84.3577 21.47 84.2777 21.1433 84.1177 20.87C83.9644 20.59 83.7511 20.3733 83.4777 20.22C83.2111 20.0667 82.9077 19.99 82.5677 19.99C82.2344 19.99 81.9311 20.0667 81.6577 20.22C81.3911 20.3733 81.1777 20.59 81.0177 20.87C80.8644 21.1433 80.7877 21.47 80.7877 21.85C80.7877 22.2233 80.8644 22.5533 81.0177 22.84C81.1777 23.12 81.3911 23.3367 81.6577 23.49C81.9311 23.6433 82.2344 23.72 82.5677 23.72ZM89.8953 24.5V23.38L89.8453 23.17V21.26C89.8453 20.8533 89.7253 20.54 89.4853 20.32C89.252 20.0933 88.8986 19.98 88.4253 19.98C88.112 19.98 87.8053 20.0333 87.5053 20.14C87.2053 20.24 86.952 20.3767 86.7453 20.55L86.3453 19.83C86.6186 19.61 86.9453 19.4433 87.3253 19.33C87.712 19.21 88.1153 19.15 88.5353 19.15C89.262 19.15 89.822 19.3267 90.2153 19.68C90.6086 20.0333 90.8053 20.5733 90.8053 21.3V24.5H89.8953ZM88.1553 24.56C87.762 24.56 87.4153 24.4933 87.1153 24.36C86.822 24.2267 86.5953 24.0433 86.4353 23.81C86.2753 23.57 86.1953 23.3 86.1953 23C86.1953 22.7133 86.262 22.4533 86.3953 22.22C86.5353 21.9867 86.7586 21.8 87.0653 21.66C87.3786 21.52 87.7986 21.45 88.3253 21.45H90.0053V22.14H88.3653C87.8853 22.14 87.562 22.22 87.3953 22.38C87.2286 22.54 87.1453 22.7333 87.1453 22.96C87.1453 23.22 87.2486 23.43 87.4553 23.59C87.662 23.7433 87.9486 23.82 88.3153 23.82C88.6753 23.82 88.9886 23.74 89.2553 23.58C89.5286 23.42 89.7253 23.1867 89.8453 22.88L90.0353 23.54C89.9086 23.8533 89.6853 24.1033 89.3653 24.29C89.0453 24.47 88.642 24.56 88.1553 24.56ZM94.8919 24.56C94.3519 24.56 93.8685 24.4433 93.4419 24.21C93.0219 23.9767 92.6919 23.6567 92.4519 23.25C92.2119 22.8433 92.0919 22.3767 92.0919 21.85C92.0919 21.3233 92.2119 20.8567 92.4519 20.45C92.6919 20.0433 93.0219 19.7267 93.4419 19.5C93.8685 19.2667 94.3519 19.15 94.8919 19.15C95.3719 19.15 95.7985 19.2467 96.1719 19.44C96.5519 19.6267 96.8452 19.9067 97.0519 20.28L96.3219 20.75C96.1485 20.49 95.9352 20.3 95.6819 20.18C95.4352 20.0533 95.1685 19.99 94.8819 19.99C94.5352 19.99 94.2252 20.0667 93.9519 20.22C93.6785 20.3733 93.4619 20.59 93.3019 20.87C93.1419 21.1433 93.0619 21.47 93.0619 21.85C93.0619 22.23 93.1419 22.56 93.3019 22.84C93.4619 23.12 93.6785 23.3367 93.9519 23.49C94.2252 23.6433 94.5352 23.72 94.8819 23.72C95.1685 23.72 95.4352 23.66 95.6819 23.54C95.9352 23.4133 96.1485 23.22 96.3219 22.96L97.0519 23.42C96.8452 23.7867 96.5519 24.07 96.1719 24.27C95.7985 24.4633 95.3719 24.56 94.8919 24.56ZM99.0064 23.22L99.0264 21.99L102.076 19.2H103.236L100.896 21.5L100.376 21.94L99.0064 23.22ZM98.2264 24.5V17.08H99.1864V24.5H98.2264ZM102.276 24.5L100.196 21.92L100.816 21.15L103.456 24.5H102.276ZM105.743 24.56C105.303 24.56 104.883 24.5 104.483 24.38C104.089 24.26 103.779 24.1133 103.553 23.94L103.953 23.18C104.179 23.3333 104.459 23.4633 104.793 23.57C105.126 23.6767 105.466 23.73 105.812 23.73C106.259 23.73 106.579 23.6667 106.773 23.54C106.973 23.4133 107.073 23.2367 107.073 23.01C107.073 22.8433 107.013 22.7133 106.893 22.62C106.773 22.5267 106.613 22.4567 106.413 22.41C106.219 22.3633 106.003 22.3233 105.763 22.29C105.523 22.25 105.283 22.2033 105.043 22.15C104.803 22.09 104.583 22.01 104.383 21.91C104.183 21.8033 104.023 21.66 103.903 21.48C103.783 21.2933 103.723 21.0467 103.723 20.74C103.723 20.42 103.813 20.14 103.993 19.9C104.173 19.66 104.426 19.4767 104.753 19.35C105.086 19.2167 105.479 19.15 105.933 19.15C106.279 19.15 106.629 19.1933 106.983 19.28C107.343 19.36 107.636 19.4767 107.863 19.63L107.453 20.39C107.213 20.23 106.963 20.12 106.703 20.06C106.443 20 106.183 19.97 105.923 19.97C105.503 19.97 105.189 20.04 104.983 20.18C104.776 20.3133 104.673 20.4867 104.673 20.7C104.673 20.88 104.733 21.02 104.853 21.12C104.979 21.2133 105.139 21.2867 105.333 21.34C105.533 21.3933 105.753 21.44 105.993 21.48C106.233 21.5133 106.473 21.56 106.713 21.62C106.953 21.6733 107.169 21.75 107.363 21.85C107.563 21.95 107.723 22.09 107.843 22.27C107.969 22.45 108.033 22.69 108.033 22.99C108.033 23.31 107.939 23.5867 107.753 23.82C107.566 24.0533 107.303 24.2367 106.963 24.37C106.623 24.4967 106.216 24.56 105.743 24.56ZM109.462 24.56C109.276 24.56 109.116 24.4967 108.982 24.37C108.849 24.2367 108.782 24.07 108.782 23.87C108.782 23.67 108.849 23.5067 108.982 23.38C109.116 23.2533 109.276 23.19 109.462 23.19C109.642 23.19 109.796 23.2533 109.922 23.38C110.056 23.5067 110.122 23.67 110.122 23.87C110.122 24.07 110.056 24.2367 109.922 24.37C109.796 24.4967 109.642 24.56 109.462 24.56ZM113.691 24.56C113.151 24.56 112.667 24.4433 112.241 24.21C111.821 23.9767 111.491 23.6567 111.251 23.25C111.011 22.8433 110.891 22.3767 110.891 21.85C110.891 21.3233 111.011 20.8567 111.251 20.45C111.491 20.0433 111.821 19.7267 112.241 19.5C112.667 19.2667 113.151 19.15 113.691 19.15C114.171 19.15 114.597 19.2467 114.971 19.44C115.351 19.6267 115.644 19.9067 115.851 20.28L115.121 20.75C114.947 20.49 114.734 20.3 114.481 20.18C114.234 20.0533 113.967 19.99 113.681 19.99C113.334 19.99 113.024 20.0667 112.751 20.22C112.477 20.3733 112.261 20.59 112.101 20.87C111.941 21.1433 111.861 21.47 111.861 21.85C111.861 22.23 111.941 22.56 112.101 22.84C112.261 23.12 112.477 23.3367 112.751 23.49C113.024 23.6433 113.334 23.72 113.681 23.72C113.967 23.72 114.234 23.66 114.481 23.54C114.734 23.4133 114.947 23.22 115.121 22.96L115.851 23.42C115.644 23.7867 115.351 24.07 114.971 24.27C114.597 24.4633 114.171 24.56 113.691 24.56ZM119.285 24.56C118.752 24.56 118.279 24.4433 117.865 24.21C117.452 23.9767 117.125 23.6567 116.885 23.25C116.645 22.8367 116.525 22.37 116.525 21.85C116.525 21.3233 116.645 20.8567 116.885 20.45C117.125 20.0433 117.452 19.7267 117.865 19.5C118.279 19.2667 118.752 19.15 119.285 19.15C119.812 19.15 120.282 19.2667 120.695 19.5C121.115 19.7267 121.442 20.0433 121.675 20.45C121.915 20.85 122.035 21.3167 122.035 21.85C122.035 22.3767 121.915 22.8433 121.675 23.25C121.442 23.6567 121.115 23.9767 120.695 24.21C120.282 24.4433 119.812 24.56 119.285 24.56ZM119.285 23.72C119.625 23.72 119.929 23.6433 120.195 23.49C120.469 23.3367 120.682 23.12 120.835 22.84C120.989 22.5533 121.065 22.2233 121.065 21.85C121.065 21.47 120.989 21.1433 120.835 20.87C120.682 20.59 120.469 20.3733 120.195 20.22C119.929 20.0667 119.625 19.99 119.285 19.99C118.945 19.99 118.642 20.0667 118.375 20.22C118.109 20.3733 117.895 20.59 117.735 20.87C117.575 21.1433 117.495 21.47 117.495 21.85C117.495 22.2233 117.575 22.5533 117.735 22.84C117.895 23.12 118.109 23.3367 118.375 23.49C118.642 23.6433 118.945 23.72 119.285 23.72ZM129.993 19.15C130.42 19.15 130.796 19.2333 131.123 19.4C131.45 19.5667 131.703 19.82 131.883 20.16C132.07 20.5 132.163 20.93 132.163 21.45V24.5H131.203V21.56C131.203 21.0467 131.083 20.66 130.843 20.4C130.603 20.14 130.266 20.01 129.833 20.01C129.513 20.01 129.233 20.0767 128.993 20.21C128.753 20.3433 128.566 20.54 128.433 20.8C128.306 21.06 128.243 21.3833 128.243 21.77V24.5H127.283V21.56C127.283 21.0467 127.163 20.66 126.923 20.4C126.69 20.14 126.353 20.01 125.913 20.01C125.6 20.01 125.323 20.0767 125.083 20.21C124.843 20.3433 124.656 20.54 124.523 20.8C124.39 21.06 124.323 21.3833 124.323 21.77V24.5H123.363V19.2H124.283V20.61L124.133 20.25C124.3 19.9033 124.556 19.6333 124.903 19.44C125.25 19.2467 125.653 19.15 126.113 19.15C126.62 19.15 127.056 19.2767 127.423 19.53C127.79 19.7767 128.03 20.1533 128.143 20.66L127.753 20.5C127.913 20.0933 128.193 19.7667 128.593 19.52C128.993 19.2733 129.46 19.15 129.993 19.15Z" fill="white"/>
<defs>
<filter id="filter0_d_221_448" x="0" y="0" width="237" height="48" filterUnits="userSpaceOnUse" color-interpolation-filters="sRGB">
<feFlood flood-opacity="0" result="BackgroundImageFix"/>
<feColorMatrix in="SourceAlpha" type="matrix" values="0 0 0 0 0 0 0 0 0 0 0 0 0 0 0 0 0 0 127 0" result="hardAlpha"/>
<feOffset dy="3"/>
<feGaussianBlur stdDeviation="2"/>
<feComposite in2="hardAlpha" operator="out"/>
<feColorMatrix type="matrix" values="0 0 0 0 0 0 0 0 0 0 0 0 0 0 0 0 0 0 0.25 0"/>
<feBlend mode="normal" in2="BackgroundImageFix" result="effect1_dropShadow_221_448"/>
<feBlend mode="normal" in="SourceGraphic" in2="effect1_dropShadow_221_448" result="shape"/>
</filter>
</defs>
</svg>
