<svg width="218" height="18" viewBox="0 0 218 18" fill="none" xmlns="http://www.w3.org/2000/svg">
<path d="M3.085 14L4.187 7.065L4.377 8.243L0.0830001 0.604999H2.002L5.27 6.457H4.833L9.982 0.604999H12.091L5.365 8.243L5.954 7.065L4.852 14H3.085ZM13.7916 14.171C12.943 14.171 12.2083 14.0063 11.5876 13.677C10.9796 13.3477 10.511 12.879 10.1816 12.271C9.86498 11.6503 9.70665 10.922 9.70665 10.086C9.70665 9.288 9.82065 8.55333 10.0486 7.882C10.2893 7.21067 10.6313 6.628 11.0746 6.134C11.518 5.64 12.0373 5.26 12.6326 4.994C13.2406 4.71533 13.9056 4.576 14.6276 4.576C15.489 4.576 16.2236 4.74067 16.8316 5.07C17.4396 5.39933 17.9083 5.87433 18.2376 6.495C18.567 7.103 18.7316 7.83133 18.7316 8.68C18.7316 9.46533 18.6113 10.1937 18.3706 10.865C18.13 11.5363 17.788 12.119 17.3446 12.613C16.914 13.107 16.3946 13.4933 15.7866 13.772C15.1913 14.038 14.5263 14.171 13.7916 14.171ZM13.8486 12.803C14.52 12.803 15.0836 12.6193 15.5396 12.252C16.0083 11.872 16.363 11.3653 16.6036 10.732C16.857 10.086 16.9836 9.37667 16.9836 8.604C16.9836 7.74267 16.7683 7.084 16.3376 6.628C15.9196 6.172 15.337 5.944 14.5896 5.944C13.9183 5.944 13.3483 6.134 12.8796 6.514C12.411 6.88133 12.0563 7.38167 11.8156 8.015C11.575 8.64833 11.4546 9.35767 11.4546 10.143C11.4546 11.0043 11.6636 11.663 12.0816 12.119C12.5123 12.575 13.1013 12.803 13.8486 12.803ZM23.4735 14.171C22.8148 14.171 22.2512 14.038 21.7825 13.772C21.3265 13.4933 21.0035 13.069 20.8135 12.499C20.6235 11.929 20.5918 11.2007 20.7185 10.314L21.6115 4.747H23.3405L22.4475 10.314C22.3588 10.8587 22.3588 11.3147 22.4475 11.682C22.5362 12.0493 22.7135 12.3217 22.9795 12.499C23.2455 12.6763 23.6002 12.765 24.0435 12.765C24.6008 12.765 25.0885 12.6383 25.5065 12.385C25.9245 12.1317 26.2665 11.7833 26.5325 11.34C26.7985 10.884 26.9758 10.352 27.0645 9.744L27.8625 4.747H29.5915L28.1285 14H26.4375L26.7605 11.948H26.9505C26.6338 12.6573 26.1715 13.2083 25.5635 13.601C24.9682 13.981 24.2715 14.171 23.4735 14.171ZM30.9296 14L32.3926 4.747H34.0836L33.7226 6.951H33.5326C33.7606 6.27967 34.1533 5.72867 34.7106 5.298C35.268 4.86733 35.9773 4.62033 36.8386 4.557L37.5986 4.5V6.001L36.4396 6.115C35.781 6.16567 35.249 6.31133 34.8436 6.552C34.4383 6.79267 34.128 7.11567 33.9126 7.521C33.71 7.92633 33.558 8.40767 33.4566 8.965L32.6776 14H30.9296ZM47.2126 14L43.4696 0.604999H45.2366L48.4666 12.537H47.8016L54.8126 0.604999H56.7696L48.7516 14H47.2126ZM57.65 2.524L57.954 0.662H60.006L59.702 2.524H57.65ZM55.978 14L57.46 4.747H59.189L57.707 14H55.978ZM64.0968 14.171C63.3368 14.171 62.6275 14.0697 61.9688 13.867C61.3228 13.6643 60.7845 13.3857 60.3538 13.031L60.9618 11.872C61.2658 12.1 61.5888 12.29 61.9308 12.442C62.2728 12.594 62.6275 12.708 62.9948 12.784C63.3622 12.8473 63.7358 12.879 64.1158 12.879C64.7745 12.879 65.2875 12.7523 65.6548 12.499C66.0348 12.233 66.2248 11.872 66.2248 11.416C66.2248 11.112 66.1235 10.8587 65.9208 10.656C65.7182 10.4533 65.4268 10.3077 65.0468 10.219L63.2418 9.801C62.6085 9.66167 62.1018 9.38933 61.7218 8.984C61.3545 8.57867 61.1708 8.08467 61.1708 7.502C61.1708 6.94467 61.3228 6.45067 61.6268 6.02C61.9435 5.57667 62.3932 5.22833 62.9758 4.975C63.5585 4.709 64.2488 4.576 65.0468 4.576C65.4648 4.576 65.8765 4.62033 66.2818 4.709C66.6872 4.79767 67.0672 4.93067 67.4218 5.108C67.7765 5.27267 68.0742 5.48167 68.3148 5.735L67.7258 6.875C67.3585 6.533 66.9405 6.27967 66.4718 6.115C66.0032 5.95033 65.5028 5.868 64.9708 5.868C64.2868 5.868 63.7485 6.00733 63.3558 6.286C62.9758 6.56467 62.7858 6.93833 62.7858 7.407C62.7858 7.69833 62.8682 7.94533 63.0328 8.148C63.2102 8.35067 63.4888 8.49633 63.8688 8.585L65.6548 9.003C66.3515 9.16767 66.8835 9.44 67.2508 9.82C67.6308 10.2 67.8208 10.6877 67.8208 11.283C67.8208 11.891 67.6625 12.4103 67.3458 12.841C67.0418 13.2717 66.6048 13.601 66.0348 13.829C65.4775 14.057 64.8315 14.171 64.0968 14.171ZM71.3434 2.524L71.6474 0.662H73.6994L73.3954 2.524H71.3434ZM69.6714 14L71.1534 4.747H72.8824L71.4004 14H69.6714ZM78.4362 14.171C77.5875 14.171 76.8528 14.0063 76.2322 13.677C75.6242 13.3477 75.1555 12.879 74.8262 12.271C74.5095 11.6503 74.3512 10.922 74.3512 10.086C74.3512 9.288 74.4652 8.55333 74.6932 7.882C74.9338 7.21067 75.2758 6.628 75.7192 6.134C76.1625 5.64 76.6818 5.26 77.2772 4.994C77.8852 4.71533 78.5502 4.576 79.2722 4.576C80.1335 4.576 80.8682 4.74067 81.4762 5.07C82.0842 5.39933 82.5528 5.87433 82.8822 6.495C83.2115 7.103 83.3762 7.83133 83.3762 8.68C83.3762 9.46533 83.2558 10.1937 83.0152 10.865C82.7745 11.5363 82.4325 12.119 81.9892 12.613C81.5585 13.107 81.0392 13.4933 80.4312 13.772C79.8358 14.038 79.1708 14.171 78.4362 14.171ZM78.4932 12.803C79.1645 12.803 79.7282 12.6193 80.1842 12.252C80.6528 11.872 81.0075 11.3653 81.2482 10.732C81.5015 10.086 81.6282 9.37667 81.6282 8.604C81.6282 7.74267 81.4128 7.084 80.9822 6.628C80.5642 6.172 79.9815 5.944 79.2342 5.944C78.5628 5.944 77.9928 6.134 77.5242 6.514C77.0555 6.88133 76.7008 7.38167 76.4602 8.015C76.2195 8.64833 76.0992 9.35767 76.0992 10.143C76.0992 11.0043 76.3082 11.663 76.7262 12.119C77.1568 12.575 77.7458 12.803 78.4932 12.803ZM84.831 14L86.294 4.747H87.985L87.662 6.799H87.491C87.8077 6.08967 88.2637 5.545 88.859 5.165C89.467 4.77233 90.1953 4.576 91.044 4.576C91.728 4.576 92.298 4.71533 92.754 4.994C93.2227 5.26 93.552 5.678 93.742 6.248C93.9447 6.818 93.9763 7.54 93.837 8.414L92.944 14H91.215L92.108 8.433C92.1967 7.87567 92.1903 7.41967 92.089 7.065C92.0003 6.69767 91.823 6.42533 91.557 6.248C91.291 6.07067 90.93 5.982 90.474 5.982C89.8787 5.982 89.3657 6.10867 88.935 6.362C88.5043 6.60267 88.156 6.951 87.89 7.407C87.624 7.85033 87.4467 8.38233 87.358 9.003L86.56 14H84.831ZM107.024 14.171C105.884 14.171 104.889 13.9493 104.041 13.506C103.205 13.0627 102.552 12.4103 102.084 11.549C101.628 10.675 101.4 9.62367 101.4 8.395C101.4 7.26767 101.552 6.22267 101.856 5.26C102.16 4.28467 102.603 3.436 103.186 2.714C103.781 1.992 104.497 1.43467 105.333 1.042C106.181 0.636666 107.15 0.433999 108.24 0.433999C109.38 0.433999 110.368 0.655666 111.204 1.099C112.052 1.54233 112.705 2.19467 113.161 3.056C113.629 3.91733 113.864 4.96233 113.864 6.191C113.864 7.331 113.712 8.38867 113.408 9.364C113.104 10.3267 112.654 11.169 112.059 11.891C111.476 12.613 110.76 13.1767 109.912 13.582C109.076 13.9747 108.113 14.171 107.024 14.171ZM107.062 12.613C108.138 12.613 109.038 12.3343 109.76 11.777C110.494 11.2197 111.052 10.4597 111.432 9.497C111.824 8.53433 112.021 7.43867 112.021 6.21C112.021 4.79133 111.679 3.73367 110.995 3.037C110.323 2.34033 109.386 1.992 108.183 1.992C107.119 1.992 106.219 2.27067 105.485 2.828C104.763 3.37267 104.205 4.12633 103.813 5.089C103.433 6.05167 103.243 7.14733 103.243 8.376C103.243 9.80733 103.585 10.8713 104.269 11.568C104.953 12.2647 105.884 12.613 107.062 12.613ZM118.585 14.171C117.926 14.171 117.362 14.038 116.894 13.772C116.438 13.4933 116.115 13.069 115.925 12.499C115.735 11.929 115.703 11.2007 115.83 10.314L116.723 4.747H118.452L117.559 10.314C117.47 10.8587 117.47 11.3147 117.559 11.682C117.647 12.0493 117.825 12.3217 118.091 12.499C118.357 12.6763 118.711 12.765 119.155 12.765C119.712 12.765 120.2 12.6383 120.618 12.385C121.036 12.1317 121.378 11.7833 121.644 11.34C121.91 10.884 122.087 10.352 122.176 9.744L122.974 4.747H124.703L123.24 14H121.549L121.872 11.948H122.062C121.745 12.6573 121.283 13.2083 120.675 13.601C120.079 13.981 119.383 14.171 118.585 14.171ZM126.041 14L127.504 4.747H129.195L128.834 6.951H128.644C128.872 6.27967 129.265 5.72867 129.822 5.298C130.379 4.86733 131.089 4.62033 131.95 4.557L132.71 4.5V6.001L131.551 6.115C130.892 6.16567 130.36 6.31133 129.955 6.552C129.55 6.79267 129.239 7.11567 129.024 7.521C128.821 7.92633 128.669 8.40767 128.568 8.965L127.789 14H126.041ZM138.144 14L140.253 0.604999H148.822L148.594 2.049H141.735L141.032 6.476H147.492L147.264 7.92H140.804L140.063 12.556H146.922L146.694 14H138.144ZM147.852 14L152.773 8.87L152.735 9.649L149.543 4.747H151.481L153.799 8.414H153.343L156.687 4.747H158.796L154.198 9.611L154.179 8.851L157.542 14H155.604L153.096 10.086L153.628 10.105L149.923 14H147.852ZM158.573 17.42L160.587 4.747H162.278L161.974 6.666H161.803C162.031 6.23533 162.31 5.86167 162.639 5.545C162.981 5.22833 163.374 4.98767 163.817 4.823C164.26 4.65833 164.742 4.576 165.261 4.576C165.983 4.576 166.604 4.73433 167.123 5.051C167.655 5.36767 168.067 5.83 168.358 6.438C168.662 7.03333 168.814 7.74267 168.814 8.566C168.814 9.57933 168.63 10.5103 168.263 11.359C167.896 12.2077 167.364 12.8917 166.667 13.411C165.983 13.9177 165.147 14.171 164.159 14.171C163.424 14.171 162.772 13.9873 162.202 13.62C161.632 13.2527 161.239 12.7017 161.024 11.967H161.176L160.302 17.42H158.573ZM163.931 12.803C164.602 12.803 165.166 12.6193 165.622 12.252C166.091 11.872 166.445 11.3653 166.686 10.732C166.939 10.086 167.066 9.37667 167.066 8.604C167.066 7.74267 166.851 7.084 166.42 6.628C166.002 6.172 165.419 5.944 164.672 5.944C164.001 5.944 163.431 6.134 162.962 6.514C162.493 6.88133 162.139 7.38167 161.898 8.015C161.657 8.64833 161.537 9.35767 161.537 10.143C161.537 11.0043 161.746 11.663 162.164 12.119C162.595 12.575 163.184 12.803 163.931 12.803ZM174.778 14.171C173.892 14.171 173.119 14.0063 172.46 13.677C171.814 13.335 171.314 12.86 170.959 12.252C170.605 11.6313 170.427 10.903 170.427 10.067C170.427 9.05367 170.63 8.13533 171.035 7.312C171.441 6.476 172.017 5.811 172.764 5.317C173.512 4.823 174.392 4.576 175.405 4.576C176.381 4.576 177.153 4.79767 177.723 5.241C178.293 5.68433 178.68 6.27333 178.882 7.008C179.085 7.73 179.129 8.50267 179.015 9.326L178.958 9.763H171.776L171.928 8.661H177.97L177.628 8.927C177.717 8.34433 177.698 7.825 177.571 7.369C177.445 6.90033 177.204 6.52667 176.849 6.248C176.495 5.96933 176.007 5.83 175.386 5.83C174.728 5.83 174.177 5.982 173.733 6.286C173.29 6.57733 172.942 6.951 172.688 7.407C172.448 7.863 172.289 8.35067 172.213 8.87L172.118 9.345C172.017 10.0417 172.055 10.6497 172.232 11.169C172.422 11.6883 172.739 12.0937 173.182 12.385C173.638 12.6637 174.208 12.803 174.892 12.803C175.475 12.803 176.013 12.7207 176.507 12.556C177.014 12.3913 177.47 12.1317 177.875 11.777L178.388 12.936C177.97 13.3287 177.432 13.6327 176.773 13.848C176.127 14.0633 175.462 14.171 174.778 14.171ZM180.443 14L181.906 4.747H183.597L183.236 6.951H183.046C183.274 6.27967 183.667 5.72867 184.224 5.298C184.782 4.86733 185.491 4.62033 186.352 4.557L187.112 4.5V6.001L185.953 6.115C185.295 6.16567 184.763 6.31133 184.357 6.552C183.952 6.79267 183.642 7.11567 183.426 7.521C183.224 7.92633 183.072 8.40767 182.97 8.965L182.191 14H180.443ZM191.835 14.171C191.101 14.171 190.493 14.0317 190.011 13.753C189.53 13.4617 189.194 13.0627 189.004 12.556C188.814 12.0493 188.776 11.454 188.89 10.77L189.631 6.077H187.826L188.035 4.747H189.84L190.277 1.935H192.006L191.569 4.747H194.457L194.248 6.077H191.36L190.638 10.599C190.512 11.359 190.588 11.9037 190.866 12.233C191.145 12.5497 191.588 12.708 192.196 12.708C192.399 12.708 192.595 12.689 192.785 12.651C192.975 12.613 193.146 12.5687 193.298 12.518L193.45 13.829C193.273 13.9303 193.032 14.0127 192.728 14.076C192.424 14.1393 192.127 14.171 191.835 14.171ZM196.365 2.524L196.669 0.662H198.721L198.417 2.524H196.365ZM194.693 14L196.175 4.747H197.904L196.422 14H194.693ZM202.812 14.171C202.052 14.171 201.342 14.0697 200.684 13.867C200.038 13.6643 199.499 13.3857 199.069 13.031L199.677 11.872C199.981 12.1 200.304 12.29 200.646 12.442C200.988 12.594 201.342 12.708 201.71 12.784C202.077 12.8473 202.451 12.879 202.831 12.879C203.489 12.879 204.002 12.7523 204.37 12.499C204.75 12.233 204.94 11.872 204.94 11.416C204.94 11.112 204.838 10.8587 204.636 10.656C204.433 10.4533 204.142 10.3077 203.762 10.219L201.957 9.801C201.323 9.66167 200.817 9.38933 200.437 8.984C200.069 8.57867 199.886 8.08467 199.886 7.502C199.886 6.94467 200.038 6.45067 200.342 6.02C200.658 5.57667 201.108 5.22833 201.691 4.975C202.273 4.709 202.964 4.576 203.762 4.576C204.18 4.576 204.591 4.62033 204.997 4.709C205.402 4.79767 205.782 4.93067 206.137 5.108C206.491 5.27267 206.789 5.48167 207.03 5.735L206.441 6.875C206.073 6.533 205.655 6.27967 205.187 6.115C204.718 5.95033 204.218 5.868 203.686 5.868C203.002 5.868 202.463 6.00733 202.071 6.286C201.691 6.56467 201.501 6.93833 201.501 7.407C201.501 7.69833 201.583 7.94533 201.748 8.148C201.925 8.35067 202.204 8.49633 202.584 8.585L204.37 9.003C205.066 9.16767 205.598 9.44 205.966 9.82C206.346 10.2 206.536 10.6877 206.536 11.283C206.536 11.891 206.377 12.4103 206.061 12.841C205.757 13.2717 205.32 13.601 204.75 13.829C204.192 14.057 203.546 14.171 202.812 14.171ZM212.908 14.171C212.022 14.171 211.249 14.0063 210.59 13.677C209.944 13.335 209.444 12.86 209.089 12.252C208.735 11.6313 208.557 10.903 208.557 10.067C208.557 9.05367 208.76 8.13533 209.165 7.312C209.571 6.476 210.147 5.811 210.894 5.317C211.642 4.823 212.522 4.576 213.535 4.576C214.511 4.576 215.283 4.79767 215.853 5.241C216.423 5.68433 216.81 6.27333 217.012 7.008C217.215 7.73 217.259 8.50267 217.145 9.326L217.088 9.763H209.906L210.058 8.661H216.1L215.758 8.927C215.847 8.34433 215.828 7.825 215.701 7.369C215.575 6.90033 215.334 6.52667 214.979 6.248C214.625 5.96933 214.137 5.83 213.516 5.83C212.858 5.83 212.307 5.982 211.863 6.286C211.42 6.57733 211.072 6.951 210.818 7.407C210.578 7.863 210.419 8.35067 210.343 8.87L210.248 9.345C210.147 10.0417 210.185 10.6497 210.362 11.169C210.552 11.6883 210.869 12.0937 211.312 12.385C211.768 12.6637 212.338 12.803 213.022 12.803C213.605 12.803 214.143 12.7207 214.637 12.556C215.144 12.3913 215.6 12.1317 216.005 11.777L216.518 12.936C216.1 13.3287 215.562 13.6327 214.903 13.848C214.257 14.0633 213.592 14.171 212.908 14.171Z" fill="url(#paint0_linear_221_461)"/>
<defs>
<linearGradient id="paint0_linear_221_461" x1="-1" y1="8" x2="218" y2="8" gradientUnits="userSpaceOnUse">
<stop offset="0.149038" stop-color="#848585"/>
<stop offset="0.475962" stop-color="#DCDDDC"/>
<stop offset="0.932692" stop-color="#999999"/>
</linearGradient>
</defs>
</svg>
